<?xml version="1.0" encoding="utf-8"?>
<svg width="108px" height="108px" viewBox="0 0 108 108" version="1.1" xmlns:xlink="http://www.w3.org/1999/xlink" xmlns="http://www.w3.org/2000/svg">
  <defs>
    <path d="M84 0C97.2566 0 108 10.7434 108 24L108 84C108 97.2566 97.2566 108 84 108L24 108C10.7434 108 0 97.2566 0 84L0 24C0 10.7434 10.7434 0 24 0L84 0Z" id="path_1" />
    <clipPath id="clip_1">
      <use xlink:href="#path_1" clip-rule="evenodd" fill-rule="evenodd" />
    </clipPath>
  </defs>
  <g id="theme-unit-2">
    <g id="Triangle-Mask">
      <path d="M84 0C97.2566 0 108 10.7434 108 24L108 84C108 97.2566 97.2566 108 84 108L24 108C10.7434 108 0 97.2566 0 84L0 24C0 10.7434 10.7434 0 24 0L84 0Z" id="Mask" fill="#4B7D78" stroke="none" />
      <g clip-path="url(#clip_1)">
        <path d="M108 0L108 108L0 108L108 0Z" id="Triangle" fill="#C7C0B9" fill-rule="evenodd" stroke="none" />
      </g>
    </g>
    <path d="M33 54C33 42.402 42.402 33 54 33C65.598 33 75 42.402 75 54C75 65.598 65.598 75 54 75C42.402 75 33 65.598 33 54Z" id="Oval-5" fill="#475751" fill-rule="evenodd" stroke="none" />
  </g>
</svg>