<?xml version="1.0" encoding="UTF-8" standalone="no"?>
<svg
   height="384"
   version="1.1"
   width="384"
   id="svg136"
   sodipodi:docname="sign4b.svg"
   inkscape:export-filename="sign4b.png"
   inkscape:export-xdpi="32"
   inkscape:export-ydpi="32"
   inkscape:version="1.2.2 (732a01da63, 2022-12-09)"
   xmlns:inkscape="http://www.inkscape.org/namespaces/inkscape"
   xmlns:sodipodi="http://sodipodi.sourceforge.net/DTD/sodipodi-0.dtd"
   xmlns="http://www.w3.org/2000/svg"
   xmlns:svg="http://www.w3.org/2000/svg">
  <defs
     id="defs140" />
  <sodipodi:namedview
     id="namedview138"
     pagecolor="#ffffff"
     bordercolor="#000000"
     borderopacity="0.25"
     inkscape:showpageshadow="2"
     inkscape:pageopacity="0.0"
     inkscape:pagecheckerboard="0"
     inkscape:deskcolor="#d1d1d1"
     showgrid="false"
     inkscape:zoom="0.51106771"
     inkscape:cx="-397.20764"
     inkscape:cy="272.95796"
     inkscape:window-width="1920"
     inkscape:window-height="1001"
     inkscape:window-x="-9"
     inkscape:window-y="-9"
     inkscape:window-maximized="1"
     inkscape:current-layer="svg136" />
  <rect
     style="fill:#fae800;fill-opacity:1;stroke:#805252;stroke-width:55.4606"
     id="rect830"
     width="603.49548"
     height="539.48773"
     x="-102.65475"
     y="-61.845779" />
  <path
     d="M0 0 C1.00804688 -0.02835938 2.01609375 -0.05671875 3.0546875 -0.0859375 C9.0693147 0.8170218 13.1912897 5.19014255 17.36425781 9.35546875 C18.09227097 10.07822495 18.09227097 10.07822495 18.83499146 10.81558228 C20.42106812 12.3929313 21.99980428 13.97739318 23.578125 15.5625 C24.68547889 16.6685051 25.7931294 17.7742133 26.90106201 18.87963867 C29.21399805 21.18963598 31.52330271 23.50318707 33.83007812 25.81933594 C36.78452851 28.78520686 39.74790369 31.74197214 42.71403885 34.69615173 C44.99961565 36.97449895 47.28040447 39.2575913 49.55977631 41.54214478 C50.65073687 42.6344374 51.74317929 43.72525209 52.83713531 44.81454468 C54.36409277 46.33641596 55.88448094 47.86456367 57.40332031 49.39453125 C58.26902649 50.26182861 59.13473267 51.12912598 60.02667236 52.02270508 C64.43350898 56.96291518 64.56338031 60.99383666 64.4375 67.4609375 C63.87147158 72.73915253 61.50184028 75.24271809 57.53271484 78.50683594 C53.19475601 80.88497471 50.07768438 80.89077822 45.2265625 80.765625 C44.39160248 80.75996521 43.55664246 80.75430542 42.69638062 80.74847412 C40.04698734 80.72620223 37.39897984 80.67602523 34.75 80.625 C32.94663421 80.60492302 31.14324708 80.58667435 29.33984375 80.5703125 C24.93436731 80.52636786 20.52991806 80.45740601 16.125 80.375 C16.18560026 98.99493192 16.26314657 117.61472033 16.36071491 136.23449612 C16.40562787 144.8805208 16.44505286 153.5265047 16.47143555 162.17260742 C16.49445213 169.71096839 16.52789091 177.24919984 16.57370156 184.787458 C16.59758456 188.77673023 16.61634551 192.76587457 16.62261391 196.7552166 C16.62868716 200.51536819 16.64876712 204.27519277 16.67927551 208.03522301 C16.6921681 210.06237349 16.69049195 212.0896005 16.6882782 214.11679077 C16.79024835 225.87268055 16.79024835 225.87268055 22.375 235.8125 C30.07698938 240.18863033 37.96009213 239.65731788 46.59399414 239.63037109 C48.06310724 239.63312393 49.53221884 239.6368056 51.00132751 239.64134216 C54.15460791 239.64942866 57.30781751 239.65162911 60.46110725 239.64939499 C65.44950746 239.64655364 70.43776701 239.66094341 75.4261322 239.67837524 C89.60739043 239.72532718 103.78863815 239.74934852 117.9699707 239.75585938 C125.81012943 239.75961075 133.65012802 239.77764232 141.4902181 239.81095374 C146.44704051 239.83115451 151.40344961 239.83354519 156.36029637 239.82267356 C159.4450288 239.82006448 162.52952096 239.83407919 165.61419106 239.85275459 C167.04200616 239.85807156 168.46986565 239.85658818 169.89766312 239.84771919 C183.24389625 239.77151542 183.24389625 239.77151542 188.125 244.375 C191.75333663 248.19430172 192.43500458 251.25779006 192.625 256.375 C192.43500458 261.49220994 191.75333663 264.55569828 188.125 268.375 C183.7494285 271.78165827 180.940521 272.87573683 175.41000366 272.88293457 C174.43496146 272.89229451 174.43496146 272.89229451 173.44022143 272.90184355 C171.27536428 272.91772008 169.1116416 272.90519137 166.94677734 272.89257812 C165.38902127 272.89800199 163.83127032 272.90512614 162.27352905 272.91381836 C158.04994457 272.93203242 153.82675159 272.92498982 149.60316038 272.91230202 C145.17249234 272.90215356 140.74185715 272.91157382 136.31118774 272.91784668 C128.86478688 272.92512228 121.41854472 272.91554247 113.97216797 272.89648438 C105.38683679 272.87476371 96.80188632 272.88173223 88.21656454 272.90379 C80.82944769 272.92200392 73.44244482 272.92447173 66.05531275 272.91403532 C61.65071744 272.90782701 57.24630034 272.90688988 52.84171677 272.92018127 C48.69321992 272.93182496 44.54520789 272.92356048 40.39676285 272.90060425 C38.88277741 272.89536017 37.36875047 272.89675624 35.8547821 272.90565491 C19.85795936 272.99093344 8.17478046 269.01021754 -3.625 258.0625 C-14.39825796 246.67943499 -16.33482988 234.24819494 -16.21557617 219.10302734 C-16.21472843 217.58433041 -16.21520791 216.06563226 -16.21690369 214.54693604 C-16.21775932 210.45250781 -16.20020411 206.35834687 -16.17918181 202.26398039 C-16.16034249 197.97455442 -16.15865888 193.68512136 -16.15510559 189.3956604 C-16.14580634 181.28567826 -16.12122146 173.17581841 -16.09105712 165.06588995 C-16.05744686 155.82764071 -16.04101049 146.58938542 -16.02597082 137.35109019 C-15.99466987 118.35899097 -15.9419509 99.36700534 -15.875 80.375 C-17.55456787 80.4064209 -17.55456787 80.4064209 -19.26806641 80.43847656 C-23.43883377 80.51110426 -27.60954568 80.55688211 -31.78076172 80.59472656 C-33.58294081 80.61479033 -35.38505521 80.64204813 -37.18701172 80.67675781 C-39.78369136 80.72550829 -42.37950729 80.74802082 -44.9765625 80.765625 C-46.17691635 80.79659271 -46.17691635 80.79659271 -47.40151978 80.82818604 C-52.71416147 80.83029705 -55.63922625 79.85840331 -59.875 76.375 C-64.28915841 71.72851746 -64.34258261 67.48706934 -64.40625 61.375 C-63.35180031 55.42046056 -59.04589733 51.29472457 -54.89453125 47.13574219 C-54.17177505 46.40772903 -54.17177505 46.40772903 -53.43441772 45.66500854 C-51.8570687 44.07893188 -50.27260682 42.50019572 -48.6875 40.921875 C-47.5814949 39.81452111 -46.4757867 38.7068706 -45.37036133 37.59893799 C-43.06036402 35.28600195 -40.74681293 32.97669729 -38.43066406 30.66992188 C-35.46479314 27.71547149 -32.50802786 24.75209631 -29.55384827 21.78596115 C-27.27550105 19.50038435 -24.9924087 17.21959553 -22.70785522 14.94022369 C-21.6155626 13.84926313 -20.52474791 12.75682071 -19.43545532 11.66286469 C-17.91358404 10.13590723 -16.38543633 8.61551906 -14.85546875 7.09667969 C-13.98817139 6.23097351 -13.12087402 5.36526733 -12.22729492 4.47332764 C-8.21113404 0.89077457 -5.35288246 0.06810283 0 0 Z "
     fill="#FFFFFF"
     transform="translate(63.875,63.625)"
     id="path132" />
  <path
     d="M0 0 C0.97504221 -0.00935994 0.97504221 -0.00935994 1.96978223 -0.01890898 C4.13463938 -0.03478551 6.29836206 -0.0222568 8.46322632 -0.00964355 C10.0209824 -0.01506742 11.57873334 -0.02219157 13.13647461 -0.03088379 C17.36005909 -0.04909785 21.58325207 -0.04205525 25.80684328 -0.02936745 C30.23751132 -0.01921899 34.66814651 -0.02863925 39.09881592 -0.03491211 C46.54521678 -0.04218771 53.99145894 -0.0326079 61.43783569 -0.0135498 C70.02316687 0.00817086 78.60811734 0.00120234 87.19343913 -0.02085543 C94.58055597 -0.03906935 101.96755884 -0.04153715 109.35469091 -0.03110075 C113.75928622 -0.02489244 118.16370332 -0.02395531 122.5682869 -0.0372467 C126.71678374 -0.04889039 130.86479578 -0.04062591 135.01324081 -0.01766968 C136.52722625 -0.0124256 138.04125319 -0.01382166 139.55522156 -0.02272034 C155.5520443 -0.10799887 167.2352232 3.87271703 179.03500366 14.82043457 C189.80826162 26.20349959 191.74483354 38.63473963 191.62557983 53.77990723 C191.62473209 55.29860416 191.62521158 56.81730231 191.62690735 58.33599854 C191.62776299 62.43042676 191.61020777 66.5245877 191.58918548 70.61895418 C191.57034615 74.90838015 191.56866254 79.19781322 191.56510925 83.48727417 C191.55581 91.59725631 191.53122513 99.70711616 191.50106078 107.81704462 C191.46745053 117.05529386 191.45101415 126.29354915 191.43597448 135.53184438 C191.40467353 154.5239436 191.35195456 173.51592923 191.28500366 192.50793457 C192.40471558 192.4869873 193.52442749 192.46604004 194.67807007 192.44445801 C198.84883743 192.37183031 203.01954934 192.32605246 207.19076538 192.28820801 C208.99294447 192.26814424 210.79505887 192.24088644 212.59701538 192.20617676 C215.19369502 192.15742628 217.78951095 192.13491375 220.38656616 192.11730957 C221.58692001 192.08634186 221.58692001 192.08634186 222.81152344 192.05474854 C228.12416513 192.05263752 231.04922991 193.02453126 235.28500366 196.50793457 C239.69916208 201.15441711 239.75258627 205.39586523 239.81625366 211.50793457 C238.76180397 217.46247401 234.45590099 221.58821 230.30453491 225.74719238 C229.82269745 226.23253448 229.34085999 226.71787659 228.84442139 227.21792603 C227.26707236 228.80400269 225.68261048 230.38273885 224.09750366 231.96105957 C222.99149856 233.06841346 221.88579036 234.17606397 220.78036499 235.28399658 C218.47036768 237.59693262 216.1568166 239.90623728 213.84066772 242.2130127 C210.87479681 245.16746308 207.91803152 248.13083826 204.96385193 251.09697342 C202.68550471 253.38255022 200.40241237 255.66333904 198.11785889 257.94271088 C197.02556626 259.03367144 195.93475157 260.12611386 194.84545898 261.22006989 C193.32358771 262.74702734 191.79543999 264.26741551 190.26547241 265.78625488 C189.39817505 266.65196106 188.53087769 267.51766724 187.63729858 268.40960693 C183.6211377 271.99216 180.76288612 272.81483174 175.41000366 272.88293457 C174.40195679 272.91129395 173.39390991 272.93965332 172.35531616 272.96887207 C166.34068896 272.06591277 162.21871396 267.69279202 158.04574585 263.52746582 C157.56040375 263.04562836 157.07506165 262.56379089 156.57501221 262.06735229 C154.98893554 260.49000327 153.41019938 258.90554139 151.83187866 257.32043457 C150.72452477 256.21442947 149.61687426 255.10872127 148.50894165 254.0032959 C146.19600561 251.69329859 143.88670096 249.3797475 141.57992554 247.06359863 C138.62547515 244.09772772 135.66209997 241.14096243 132.69596481 238.18678284 C130.41038801 235.90843562 128.12959919 233.62534327 125.85022736 231.34078979 C124.75926679 230.24849717 123.66682437 229.15768248 122.57286835 228.06838989 C121.04591089 226.54651861 119.52552273 225.0183709 118.00668335 223.48840332 C117.14097717 222.62110596 116.275271 221.75380859 115.3833313 220.86022949 C110.97649468 215.92001939 110.84662335 211.88909792 110.97250366 205.42199707 C111.53853208 200.14378204 113.90816339 197.64021648 117.87728882 194.37609863 C122.21524765 191.99795986 125.33231928 191.99215635 130.18344116 192.11730957 C131.01840118 192.12296936 131.85336121 192.12862915 132.71362305 192.13446045 C135.36301632 192.15673234 138.01102382 192.20690934 140.66000366 192.25793457 C142.46336945 192.27801155 144.26675659 192.29626022 146.07015991 192.31262207 C150.47563635 192.35656671 154.8800856 192.42552856 159.28500366 192.50793457 C159.2244034 173.88800265 159.14685709 155.26821424 159.04928875 136.64843845 C159.00437579 128.00241377 158.9649508 119.35642987 158.93856812 110.71032715 C158.91555153 103.17196618 158.88211275 95.63373473 158.8363021 88.09547657 C158.8124191 84.10620434 158.79365815 80.11706 158.78738976 76.12771797 C158.7813165 72.36756638 158.76123654 68.6077418 158.73072815 64.84771156 C158.71783557 62.82056108 158.71951171 60.79333407 158.72172546 58.7661438 C158.61975531 47.01025402 158.61975531 47.01025402 153.03500366 37.07043457 C145.33301428 32.69430424 137.44991153 33.22561669 128.81600952 33.25256348 C127.34689642 33.24981064 125.87778482 33.24612897 124.40867615 33.24159241 C121.25539575 33.23350591 118.10218615 33.23130546 114.94889641 33.23353958 C109.9604962 33.23638093 104.97223666 33.22199116 99.98387146 33.20455933 C85.80261323 33.15760739 71.62136551 33.13358605 57.44003296 33.1270752 C49.59987423 33.12332382 41.75987564 33.10529225 33.91978556 33.07198083 C28.96296315 33.05178006 24.00655405 33.04938938 19.04970729 33.06026101 C15.96497486 33.06287009 12.8804827 33.04885538 9.79581261 33.03017998 C8.3679975 33.02486301 6.94013801 33.02634639 5.51234055 33.03521538 C-7.83389259 33.11141915 -7.83389259 33.11141915 -12.71499634 28.50793457 C-16.34333297 24.68863285 -17.02500092 21.62514451 -17.21499634 16.50793457 C-17.02500092 11.39072463 -16.34333297 8.32723629 -12.71499634 4.50793457 C-8.33942484 1.1012763 -5.53051733 0.00719774 0 0 Z "
     fill="#FFFFFF"
     transform="translate(144.71499633789063,47.4920654296875)"
     id="path134" />
</svg>
