<?xml version="1.0" encoding="utf-8"?>
<svg width="621.90015px" height="206.30006px" viewBox="0 0 621.90015 206.30006" version="1.1" xmlns:xlink="http://www.w3.org/1999/xlink" xmlns="http://www.w3.org/2000/svg">
  <defs>
    <path d="M621.9 0L621.9 0L621.9 206.3L0 206.3L0 0L621.9 0Z" id="path_1" />
    <clipPath id="clip_1">
      <use xlink:href="#path_1" clip-rule="evenodd" fill-rule="evenodd" />
    </clipPath>
  </defs>
  <g id="Surah_79_of_114_(modified)">
    <path d="M621.9 0L621.9 0L621.9 206.3L0 206.3L0 0L621.9 0Z" id="Surah_79_of_114_(modified)" fill="none" stroke="none" />
    <path d="M377.6 31.7C377.6 26.9 376.9 23.1 375.4 19.9C375.4 18.2 376.6 14.1 379.5 7.89999C379.7 7.2 380 6.7 380.2 6.7C380.7 6.7 380.9 7.2 381.4 7.89999C382.1 9.59999 383.8 14.1 386.7 21.6C389.8 29.5 391.5 34.3 392 36.2C392.5 37.4 392.5 38.6 392.5 39.1C392.5 41.3 390.6 40.1 386.3 35.3C385.8 34.6 385.6 35.1 385.6 36.3C385.6 36.8 386.8 51.7 389 81.4C391.2 110.9 392.1 127.5 392.1 131.3C392.1 142.6 390.4 152.7 387.1 161.3C386.1 163 385.7 164.2 385.2 165.1L385.2 165.1C384.5 166.3 384.2 166.3 384 165.6C383.8 164.6 384 162.7 384.2 160.1C384.7 156 384.9 151.5 384.9 146.4C384.9 141.6 383.7 122.4 381.3 88.6C378.8 54.8 377.6 35.8 377.6 31.7L377.6 31.7L377.6 31.7L377.6 31.7L377.6 31.7ZM366.3 118.1C366.3 132.3 363.7 143.3 358.6 151.5C354.3 158.2 349.2 161.8 343.5 161.8L343.5 147.2C348.1 147.2 352.6 145.3 356.9 141.7C358.1 140.7 358.8 136.7 358.8 129.9C358.8 125.8 357.6 109.3 355.4 80.5C353.2 51.7 352.3 34.7 352.3 29.4C352.3 24.8 351.6 21 350.1 17.9C350.1 16.2 351.5 12.1 354.2 5.70001C354.4 5.00002 354.7 4.70001 355.2 4.70001C355.4 4.70001 355.7 4.90001 356.2 5.90001C356.9 7.60001 358.8 12.1 361.7 19.6C364.6 27.5 366.3 32.3 367 34C367.2 35.4 367.5 36.6 367.5 37.1C367.5 39.3 365.3 38.1 361.3 33.3C360.8 32.8 360.6 33.1 360.6 34.3C360.6 34.5 361.6 47.5 363.5 72.9C365.3 98 366.3 113.1 366.3 118.1L366.3 118.1L366.3 118.1L366.3 118.1L366.3 118.1ZM343.3 161.8C334.7 161.8 330.1 156.8 329.6 146.7C329.6 146.2 329.4 146 328.9 145.7C328.2 145.9 327.5 146.2 326.7 147.1C321.7 152.9 318.5 156.2 317.1 157.4C310.9 162.9 304.4 165.6 297.7 165.6L297.7 151C304.7 151 310.9 149.1 316.4 145.2C318.6 143.8 323.4 139.2 331 131.5C331.7 130.8 332.7 130.3 333.6 130.3C334.6 130.3 334.8 130.8 334.8 131.7C334.8 132.2 334.8 132.9 334.6 133.9C334.4 134.9 334.4 135.6 334.4 136.1C334.4 139 334.9 141.4 336.3 143.3C337.7 145.7 340.1 147.1 343.3 147.1L343.3 161.8L343.3 161.8L343.3 161.8L343.3 161.8ZM282.8 135.9C284 142.6 286.4 147.2 289.5 149.3C291.4 150.3 294.1 151 297.7 151L297.7 165.6C292.4 165.6 288.3 164.4 285.5 162.2C281.2 159.1 278.5 153.6 277.1 145.2C276.1 139.9 275.2 124.8 274.5 99.4C273.5 72 272.8 55.2 272.3 49C271.1 38.9 269.2 29.6001 266.5 20.4C266.5 18 267.5 14.6 269.4 9.80003C269.9 8.60004 270.1 7.90004 270.6 7.90004C270.8 7.90004 271.3 8.60004 271.8 9.60004C274.9 15.6 277.1 25.9 278.8 40.3C279.8 49.4 280.7 67.4 281.4 94.3C281.8 119.6 282.5 133.5 282.8 135.9L282.8 135.9L282.8 135.9L282.8 135.9L282.8 135.9ZM250.6 112.1C250.1 109.9 249.4 108.3 248.4 107.1C247.7 105.7 247.2 104.9 247 104.5C247 104 247 102.3 247.5 99C248 95.9 248.2 93.7 248.7 92.5C248.9 91.3 249.2 90.8 249.7 90.8C249.9 90.8 250.2 91 250.7 91.5C254.1 95.3 257.7 99.2 261.7 103.3C263.4 105 264.1 105.9 264.1 106.4C264.1 106.6 263.9 106.9 263.4 106.9C262.7 106.9 260.8 106.4 257.9 105.7C259.6 109.8 261.5 113.9 263.2 117.7C265.8 124.4 267.3 129.9 267.3 135C267.3 137.4 266.8 140.3 265.9 143.9C264.7 148 263.3 151.1 261.3 153.3C254.3 161.2 242.6 169.9 226 179.2C211.6 187.6 203.2 191.7 200.6 191.7C200.1 191.7 192.9 193.4 179.2 196.7C164.8 200.1 155.7 202.2 152.1 202.7C148.3 203.4 145.9 203.7 144.9 203.7C144.4 203.7 144.4 203.7 144.4 203.5C144.4 203.3 147 201.8 152.3 199.4C154.2 198.4 165.3 193.6 185.7 185C199.9 179 211.6 173.5 221 168.4C235.2 160.7 246 154 253.4 148.5C258.9 144.2 261.8 141.1 261.8 139.1C261.8 138.6 260.4 135.3 257.5 129C254.2 122 251.8 116.2 250.6 112.1L250.6 112.1L250.6 112.1L250.6 112.1L250.6 112.1ZM239.6 128C238.6 131.1 237 135 234.8 139C226.4 146 219.7 151 214.2 153.9C205.1 159.2 195.7 161.8 186.4 161.8C181.6 161.8 178.2 161.3 175.8 160.4L172.7 145.8C167.2 138.6 164.3 131.6 164.3 124.9C164.3 114.6 167.4 106.4 173.9 100.9C179.4 96.1 186.1 93.7 194.3 93.7C205.1 93.7 214.7 97.3 223.1 104.3C224.5 105.5 225.3 106.2 225.3 106.7C225.3 106.9 225.1 107.2 224.6 107.2C223.9 107.2 222.7 107 221.2 106.5C215.4 104.3 210.4 103.4 206.1 103.4C199.6 103.4 193.1 104.4 186.2 106.3C179.5 108.2 174.7 110.6 171.3 113.3C171.5 120.3 173.9 127.2 178.7 133.9C184.5 142.1 192.1 146.1 201.3 146.1C206.1 146.1 212.3 143.9 220 139.6C226 136 231.8 131.9 237 127.4C238.2 126.4 238.9 126 239.4 126C240.1 125.8 240.3 126.5 239.6 128L239.6 128L239.6 128L239.6 128L239.6 128ZM163.7 137.1C167.5 140.7 171.4 143.6 175.7 145.7L175.7 160.3C169.9 157.9 165.6 155.5 162.5 153.3C158.2 149.9 154.8 145.9 152.4 140.6C149.8 134.8 147.8 120 147.1 96C145.9 63.6 145.2 45.8 144.7 42.2C143.5 30.4 141.6 21.8 139.2 16C139.2 13.8 140.2 9.99998 142.6 4.49998C143.1 3.29999 143.6 2.59999 143.8 2.59999C144 2.59999 144.5 3.29999 145 4.29999C147.9 9.79999 150 19.7 151.5 33.6C152.2 38.6 152.7 49.2 153.2 64.8C153.4 74.9 153.7 85 154.2 94.8C155.1 117.6 158.2 131.8 163.7 137.1L163.7 137.1L163.7 137.1L163.7 137.1L163.7 137.1ZM46.1 150.3C61.9 150.3 79.7 146.9 100.1 140.7C116.4 135.4 127 131.1 131.8 127.5C132.3 127.3 132.3 126.8 132.3 126.1C132.3 124.2 129.4 119.1 123.2 111.5C122 110.1 121.5 108.4 122 106.7C122.7 103.3 123.7 100.5 124.9 98.1C125.6 96.4 126.3 95.5 126.8 95.5C127 95.5 128 96.2 129.2 97.7C130.9 99.4 132.6 102 134.2 105.9C136.8 110.5 138 114.5 138 117.9C138 129.2 134.4 137.6 127 142.6C122.2 146.2 111.4 150.5 94.8 155.6C73.9 162.1 55.9 165.2 40.1 165.2C24.7 165.2 13.9 161.1 7.00001 153C2.2 147.5 7.62939e-06 140.3 7.62939e-06 131.6C7.62939e-06 122.5 2.2 114.1 6.50001 106.2C7.90001 103.8 8.90001 102.4 9.40001 102.4C9.40001 102.4 9.60001 102.6 9.60001 103.1C9.60001 103.8 9.10001 105.3 8.40001 107.4C7.40001 110.3 6.20001 112.9 5.30001 115.8C4.10001 119.4 3.60001 123.2 3.60001 127.3C3.60001 132.6 6.00002 137.1 11.3 141.2C18.8 147.2 30.3 150.3 46.1 150.3L46.1 150.3L46.1 150.3L46.1 150.3L46.1 150.3ZM317.8 112.8C317.6 112.6 317.6 112.3 317.8 111.8L322.4 102.2C322.6 101.7 323.1 101.5 323.4 101.5C323.9 101.5 326 102.7 329.6 105.1C333.4 107.7 335.4 109.2 335.4 109.7C335.4 111.4 333.7 114.7 330.4 120C329.9 120.7 329.7 121 329.2 120.7C325.5 117.9 321.7 115.2 317.8 112.8L317.8 112.8L317.8 112.8L317.8 112.8L317.8 112.8ZM235 71.8C234.8 71.6 234.8 71.3 235 70.8L239.6 61.2C239.8 60.7 240.3 60.5 240.6 60.5C241.1 60.5 243.2 61.7 246.8 64.1C250.6 66.7 252.6 68.2 252.6 68.7C252.6 70.4 250.9 73.7 247.6 79C247.1 79.7 246.9 80 246.4 79.7C242.7 76.8 238.9 74.2 235 71.8L235 71.8L235 71.8L235 71.8L235 71.8ZM65.6 90.8L69.4 82.9C69.6 82.4 69.9 82.2 70.4 82.2C70.9 82.2 72.8 83.4 76.6 86C80.2 88.4 82.1 89.8 82.1 90.3C82.1 92 80.4 95.6 77.3 100.9C76.8 101.6 76.3 101.6 75.9 101.4C72.8 99 69.2 96.6 65.1 94C63.7 96.9 62.5 99.5 61 101.7C60.8 102.4 60.3 102.7 59.8 102.4C56.2 99.5 52.4 96.9 48.5 94.5C48.3 94.3 48.3 94 48.5 93.5L53.1 83.9C53.3 83.4 53.8 82.9 54.1 82.9C54.6 82.9 56.3 84.1 59.4 86.3C62.5 88.1 64.6 89.8 65.6 90.8L65.6 90.8L65.6 90.8L65.6 90.8L65.6 90.8ZM329.8 74.4C329.8 76.3 329.3 78.5 328.4 80.4C327.2 83 325.8 84.5 324.1 84.5C321.2 84.5 319.3 82.6 318.1 78.7C316.7 83.5 314.3 86.1 310.7 86.1C309.5 86.1 308.3 85.4 307.3 83.9C306.1 82.5 305.6 80.3 305.6 77.9L305.6 71.7C305.6 71.2 305.1 71 304.6 70.7C303.9 70.5 303.6 70 303.6 69.3C303.6 67.9 304.1 66.7 305 65.5C306 64.3 306.7 63.8 307.2 63.8C307.9 63.8 308.4 65 308.4 67.6C308.4 69 308.2 70.2 308.2 71.2C308 72.2 308 72.9 308 73.6C308 75 308.2 76.5 308.7 77.7C309.4 79.1 310.4 80.1 311.3 80.1C312.7 80.1 313.9 79.4 315.1 78.2C316.3 77 317 75.6 317 73.9C317 72.9 316.5 71.5 316 69.1C315.3 66.9 315 65.5 315 65C315 64.5 315.2 63.8 315.7 62.6C316.2 61.6 316.7 61.2 316.9 61.2C317.4 61.2 317.9 62.6 318.6 65.5C319.3 68.6 319.8 70.8 319.8 72.2C319.8 76.3 321.2 78.4 324.4 78.4C325.8 78.4 326.8 77.7 327 76.2C324.4 71.4 322.9 67.8 322.9 65.2C322.9 63.8 323.1 62.6 324.1 61.4C324.6 60.7 324.8 60.2 325.1 60.2C325.3 60.2 325.6 60.7 325.6 61.6C325.8 62.8 326.1 64 326.3 65C326.3 65 327 66.7 328.2 70C329.3 72 329.8 73.5 329.8 74.4L329.8 74.4L329.8 74.4L329.8 74.4L329.8 74.4ZM296 49C309.7 44.2 324.1 38.9 339.2 33.4C340.2 33.2 340.4 32.9 340.6 33.2C340.8 33.2 340.8 33.7 340.4 34.4C339.7 36.6 339 37.8 338.5 38.2C325.5 42.8 310.7 48.5 293.6 55.7C294.1 53.6 294.8 51.4 296 49L296 49L296 49L296 49L296 49ZM325 177.6C327.9 177.6 330.3 179 332.4 182.4C334.6 185.5 336.2 189.8 337 195.1C337.2 195.6 337.2 195.8 337.2 196.1L337.4 196.1C337.4 195.9 337.6 195.6 337.6 195.1C338.1 192 339.3 187.2 341 180.9C342.9 176.6 344.8 174.4 347 174.4C348.2 174.4 349.4 175.1 350.4 176.6C351.4 178 351.8 179 351.8 180C351.8 180.5 351.8 181.4 351.3 182.4C350.8 183.8 350.3 184.6 349.9 184.6C349.7 184.6 349.2 183.9 348.2 182.9C347.5 181.9 346.5 181.5 345.6 181.5C343.7 181.5 342 186.1 340.3 195.2C339.6 199.3 338.6 202.2 337.9 203.8C337.2 204.8 336.7 205.5 336.2 205.5C335.7 205.5 335.7 204.8 335.5 203.8C335.7 202.1 334.8 199 332.9 194.4C331 189.6 329.8 187.4 328.8 187.4C328.3 187.4 328.1 187.4 327.8 187.9C327.6 188.1 327.3 188.4 326.6 188.4C325.6 188.4 324.7 187.7 323.2 186.5C321.8 185.3 321.3 184.3 321.3 183.6C321.3 183.4 321.8 182.2 323 180.2C324.1 178.4 324.8 177.6 325 177.6L325 177.6L325 177.6L325 177.6L325 177.6ZM118.9 199C123.7 199 128.7 198 134.5 196.4C135.9 195.9 136.7 195.9 136.7 196.2C136.7 196.4 136.2 196.9 135 197.9C130.2 202.2 123.7 204.6 116 204.6C113.8 204.6 111.7 203.9 110.2 202.7C108.8 201.5 108 199.8 108 197.9C108 192.9 110.2 187.6 114.5 182.1C110.7 180.9 108.7 179 108.7 176.1C108.7 173.5 110.1 170.6 113.3 167.2C116.4 163.8 118.8 162.2 120.7 162.2C121.2 162.2 121.7 162.4 122.1 163.4C122.6 164.1 122.8 164.8 122.8 165.8C122.8 166.3 122.3 167.2 121.4 168.7C120.4 170.1 119.7 170.6 119.7 170.4C119.2 169 118.5 168.2 117.1 168.2C116.4 168.2 115.7 168.7 114.7 169.9C113.5 171.1 113 172.1 113 172.8C114.2 174.7 116.4 175.9 119.2 175.9C120.2 175.9 121.8 174.9 123.8 173C125.2 172 126.4 170.8 127.6 169.6C128.1 169.4 128.3 169.6 128.3 170.6C128.3 173 127.3 175.2 125.9 177.6C119.4 181.9 114.6 187 111.5 192.5C111 193.7 110.8 194.7 110.8 195.4C110.9 197.6 113.6 199 118.9 199L118.9 199L118.9 199L118.9 199L118.9 199ZM57.7 186.8C67.3 183.4 77.6 179.6 88.7 175.8C89.7 175.6 89.9 175.3 90.1 175.6C90.3 175.6 90.3 176.1 89.9 176.8C89.2 179 88.5 180.2 88 180.6C78.4 184 67.6 188 55.4 193.6C55.7 191.3 56.5 189.2 57.7 186.8L57.7 186.8L57.7 186.8L57.7 186.8L57.7 186.8ZM230 199.2C248.5 192.5 267.7 185.3 287.8 177.8C288.5 177.6 289 177.3 289.2 177.6C289.2 177.6 289.2 178.1 289 178.8C288 181 287.3 182.2 286.8 182.6C270 188.8 250.1 196.5 227.5 205.9C228.1 203.8 228.8 201.6 230 199.2L230 199.2L230 199.2L230 199.2L230 199.2ZM169 68.4C193.2 59.3 218.4 50.2 244.4 40.6C245.1 40.4 245.6 40.1 245.6 40.4C245.8 40.4 245.8 40.9 245.6 41.6C244.6 43.8 243.9 45 243.4 45.4C243.2 45.6 230.9 50.2 207.2 59.1C183 68 169.3 73.5 166.6 75.2C167.1 73 167.8 70.8 169 68.4L169 68.4L169 68.4L169 68.4L169 68.4ZM248.5 7.7C248.5 8.2 248.3 9.09999 248 10.1C247.5 11.5 247 12.3 246.3 12.3C246.1 12.3 245.6 11.6 244.6 10.6C243.9 9.59999 242.9 9.2 242.2 9.2C240.3 9.2 238.4 13.8 236.7 22.9C236 27 235.3 29.6 234.3 31.3C233.6 32.5 233.1 33 232.6 33C232.4 33 232.1 32.5 232.1 31.6C232.1 29.9 231.1 26.8 229.2 22.2C227.5 17.4 226.1 15.2 225.4 15.2C224.9 15.2 224.4 15.2 224.4 15.7C224.2 15.9 223.7 16.2 223 16.2C222 16.2 220.8 15.5 219.4 14.3C218 12.9 217.5 11.9 217.7 11.4C219.9 7.3 221.1 5.40001 221.5 5.40001C224.1 5.40001 226.8 6.8 228.9 10.2C231.1 13.3 232.5 17.6 233.5 22.7C233.5 23.4 233.5 23.7 233.5 23.7C233.7 23.9 233.7 23.9 233.7 23.7C233.7 23.7 233.9 23.5 234.2 22.7C234.7 19.8 235.6 15 237.3 8.80002C239.2 4.50002 241.1 2.30002 243.5 2.30002C244.5 2.30002 245.7 3.00002 246.9 4.50002C248 5.8 248.5 6.8 248.5 7.7L248.5 7.7L248.5 7.7L248.5 7.7L248.5 7.7ZM217.7 11.3C218.2 10.3 218.7 9.90001 218.9 9.90001C218.9 9.90001 219.1 10.1 218.9 10.1C219.1 10.8 218.4 12.5 217 15.1C214.6 19.7 211.2 23.3 206.9 26.4C202.3 29.8 198.3 32.2 194.7 33.8C194 34.3 189.7 36 181.7 38.8C180.5 39.3 179.8 39.5 179.3 39.5C179.1 39.5 179.1 39.3 179.1 39.3C179.1 39.1 179.8 38.3 181 37.6C187.7 34 196.8 28.2 208.6 20.3C213.4 16.8 216.3 13.7 217.7 11.3L217.7 11.3L217.7 11.3L217.7 11.3L217.7 11.3ZM180.1 9.39999C180.1 12 178.9 14.9 177 18C174.8 21.1 172.2 24 168.8 26.4C167.4 27.4 166.6 27.8 166.4 27.8L166.4 27.6C166.4 27.4 166.9 26.9 167.8 25.7C173.3 19.7 176.2 15.9 176.2 13.7C176.2 12 175.2 11.1 173.6 11.1C172.6 11.1 171.7 11.3 171 11.8C170.3 12 170 12.3 169.8 12.3C169.8 12.3 169.6 12.3 169.6 12.1C169.6 12.1 169.6 11.6 169.8 10.7C170.8 6.59999 172.7 4.7 176 4.7C178.6 4.59999 180.1 6.3 180.1 9.39999L180.1 9.39999L180.1 9.39999L180.1 9.39999L180.1 9.39999ZM304.6 122C304.6 121.8 304.8 121.5 304.8 121.5C305 121.3 305 121.3 305 121.5C305.2 121.7 305.2 122 305 122.2C303.8 129.4 301.6 133 298.5 133C295.4 133 293.9 130.4 293.9 125.1C293.9 118.6 295.6 111.7 299.4 104.7C300.4 103 300.8 102.1 301.1 102.1L301.1 102.1C301.1 102.3 300.9 103.3 300.4 105C298 112.4 296.8 117.5 296.8 120.6C296.8 124.4 297.8 126.6 299.9 126.6C301.5 126.5 302.9 124.8 304.6 122L304.6 122L304.6 122L304.6 122L304.6 122ZM82.1 20.9C82.1 21.4 81.9 22.3 81.4 23.3C81.2 24.7 80.7 25.5 80 25.5C79.8 25.5 79.3 24.8 78.3 23.8C77.6 22.8 76.6 22.4 75.9 22.4C74 22.4 72.1 27 70.4 36.1C69.7 40.2 69 43.1 68 44.7C67.3 45.7 66.8 46.4 66.3 46.4C66.1001 46.4 65.8 45.7 65.8 44.7C65.8 43 64.8 39.9 62.9001 35.3C61.0001 30.5 59.8 28.3 59.1001 28.3C58.4001 28.3 58.1001 28.3 57.9001 28.8C57.9001 29 57.4001 29.3 56.7001 29.3C55.7001 29.3 54.8001 28.6 53.3001 27.4C52.1001 26.2 51.4001 25.2 51.4001 24.5C51.4001 24.3 51.9001 23.1 53.1001 21.1C54.3001 19.2 55.0001 18.5 55.3001 18.5C57.9001 18.5 60.3001 19.9 62.5001 23.3C64.9001 26.7 66.3001 30.7 67.3001 36C67.3001 36.5 67.3001 36.7 67.3001 37C67.5001 37.2 67.5001 37.2 67.5001 37C67.5001 36.8 67.7001 36.5 68.0001 36C68.2001 32.9 69.4001 28.1 71.1001 21.8C73.0001 17.5 74.9001 15.3 77.1001 15.3C78.3001 15.3 79.5001 16 80.7001 17.5C81.7 19 82.1 20 82.1 20.9L82.1 20.9L82.1 20.9L82.1 20.9L82.1 20.9ZM66.3 48.5C64.6 52.3 61.3 56.2 56.2 59.8C51.6 63.2 47.6 65.6 44 67.2C43.3 67.7 39 69.4 31 72.2C29.8 72.7 29.1 72.9 28.6 72.9C28.4 72.9 28.4 72.7 28.4 72.7C28.4 72.5 29.1 71.7 30.3 71C36.8 67.2 45.9 61.6 57.9 53.7C60.8 51.5 62.9 49.4 64.6 47.5C66.5 45.3 67.5 44.1 67.7 44.1C67.7 44.1 67.7 44.1 67.7 44.3C67.7 44.7 67.3 46.1 66.3 48.5L66.3 48.5L66.3 48.5L66.3 48.5L66.3 48.5ZM14.5 95.8C14.5 95.6 14.7 95.3 14.7 95.3C14.9 95.1 14.9 95.1 14.9 95.3C15.1 95.5 15.1 95.8 14.9 96C13.7 103.2 11.5 106.8 8.40002 106.8C5.30002 106.8 3.80002 104.2 3.80002 98.9C3.80002 92.4 5.50002 85.5 9.30002 78.5C10.3 76.8 10.7 75.9 11 75.9L11 75.9C11 76.1 10.8 77.1 10.3 78.8C7.90002 86.2 6.70002 91.3 6.70002 94.4C6.70002 98.2 7.70002 100.4 9.80002 100.4C11.3 100.4 12.8 98.7 14.5 95.8L14.5 95.8L14.5 95.8L14.5 95.8L14.5 95.8ZM96.5 57.9C99.4 57.9 101.8 59.3 103.9 62.7C106.1 65.8 107.7 70.1 108.5 75.4C108.7 75.9 108.7 76.1 108.7 76.4L108.9 76.4C108.9 76.2 109.1 75.9 109.1 75.4C109.6 72.3 110.8 67.5 112.5 61.2C114.4 56.9 116.3 54.7 118.5 54.7C119.7 54.7 120.9 55.4 121.9 56.9C122.9 58.3 123.3 59.3 123.3 60.3C123.3 60.8 123.3 61.7 122.8 62.7C122.3 64.1 121.8 64.9 121.4 64.9C121.2 64.9 120.7 64.2 119.7 63.2C119 62.2 118 61.8 117.1 61.8C115.2 61.8 113.5 66.4 111.8 75.5C111.1 79.6 110.1 82.5 109.4 84.1C108.7 85.1 108.2 85.8 107.7 85.8C107.2 85.8 107.2 85.1 107 84.1C107.2 82.4 106.3 79.3 104.4 74.7C102.5 69.9 101.3 67.7 100.3 67.7C99.8 67.7 99.6 67.7 99.3 68.2C99.1 68.4 98.8 68.7 98.1 68.7C97.1 68.7 96.2 68 94.7 66.8C93.3 65.6 92.8 64.6 92.8 63.9C92.8 63.7 93.3 62.5 94.5 60.5C95.6 58.6 96.3 57.9 96.5 57.9L96.5 57.9L96.5 57.9L96.5 57.9L96.5 57.9ZM115 24.8C115 24.6 115.2 24.3 115.2 24.3C115.4 24.1 115.4 24.1 115.4 24.3C115.6 24.5 115.6 24.8 115.4 25C114.2 32.2 112 35.8 108.9 35.8C105.8 35.8 104.3 33.2 104.3 27.9C104.3 21.4 106 14.5 109.8 7.50002C110.8 5.80002 111.2 4.90001 111.5 4.90001L111.5 4.90001C111.5 5.10001 111.3 6.10001 110.8 7.8C108.4 15.2 107.2 20.3 107.2 23.4C107.2 27.2 108.2 29.4 110.3 29.4C111.9 29.3 113.3 27.6 115 24.8L115 24.8L115 24.8L115 24.8L115 24.8ZM300.8 3.2C303.7 3.2 306.1 4.59999 308.2 8C310.4 11.1 312 15.4 312.8 20.7C313 21.2 313 21.4 313 21.7L313.2 21.7C313.2 21.5 313.4 21.2 313.4 20.7C313.9 17.6 315.1 12.8 316.8 6.5C318.7 2.2 320.6 0 322.8 0C324 0 325.2 0.699997 326.2 2.2C327.2 3.7 327.6 4.59999 327.6 5.59999C327.6 6.09999 327.6 6.99998 327.1 7.99999C326.6 9.39998 326.1 10.2 325.7 10.2C325.5 10.2 325 9.49998 324 8.49998C323.3 7.49999 322.3 7.09999 321.4 7.09999C319.5 7.09999 317.8 11.7 316.1 20.8C315.4 24.9 314.4 27.8 313.7 29.4C313 30.4 312.5 31.1 312 31.1C311.5 31.1 311.5 30.4 311.3 29.4C311.5 27.7 310.6 24.6 308.7 20C306.8 15.2 305.6 13 304.6 13C304.1 13 303.9 13 303.6 13.5C303.4 13.7 303.1 14 302.4 14C301.4 14 300.5 13.3 299 12.1C297.6 10.9 297.1 9.90001 297.1 9.20001C297.1 9.00002 297.6 7.80002 298.8 5.80002C299.8 3.89999 300.5 3.2 300.8 3.2L300.8 3.2L300.8 3.2L300.8 3.2L300.8 3.2ZM563.1 117.4C564.3 116.4 565.3 116 566 116C566.5 116 566.7 116.5 566.7 117.4C566.7 118.1 566.5 119.6 566 121.5C565.5 123.4 565.3 124.9 565.3 126.1C565.3 131.4 569.1 134.3 576.6 134.3C582.6 134.3 587.6 131.7 591.5 126.6C593.9 122.5 596.5 118.7 598.9 114.8C599.9 113.8 600.6 113.4 601.3 113.4C602.3 113.4 602.5 114.4 602 116.5C601 120.6 600.3 122.5 600.3 122C600.3 123.7 601.3 125.4 603.2 126.8C604.9 128.2 607.3 129.2 609.9 129.2C613.3 129.2 615.4 128.2 616.4 126.6C616.4 126.4 615.4 124.4 613.3 120.8C613.5 118.9 614.5 115.5 615.9 111C616.1 109.6 616.6 108.8 617.1 108.8C617.6 108.8 618.1 109 618.8 110C620.7 112.9 621.9 116.2 621.9 120.1C621.9 126.1 620.5 131.1 617.8 135.5C614.9 140.8 610.6 143.4 604.8 143.4C601 143.4 597.4 140.3 594.2 134.5C588.9 144.1 582 148.9 573.6 148.9C563.5 148.9 558.7 143.1 558.7 132.1C554.9 136.7 548.4 140.7 540 144.6L540 131.4C546.2 128.3 550.3 126.4 551.5 125.6C555.4 123.6 559.3 120.8 563.1 117.4L563.1 117.4L563.1 117.4L563.1 117.4L563.1 117.4ZM526.4 133.2C522.8 128.6 519.7 126.5 516.8 126.5C512.5 126.5 510.6 127.5 510.6 129.9C510.6 132.8 513.5 134.2 519.2 134.2C521.3 134.2 523.7 133.7 526.4 133.2L526.4 133.2L526.4 133.2L526.4 133.2L526.4 133.2ZM533.8 150.8C533.8 149.4 533.3 147.7 532.8 146C529.9 147 525.6 147.7 520.3 147.7C508.8 147.7 503 143.6 503 135.7C503 129.7 504.7 124.4 508.5 119.6C512.1 115.5 515.9 113.4 520 113.4C523.1 113.4 526.2 115.3 529.8 118.9C532.9 122.5 535.8 126.6 538.2 131.6C538.4 131.6 538.9 131.6 539.9 131.1L539.9 144.3L539.4 144.8C539.4 147.7 538.7 151 537.2 155.4C535.5 160.9 532.9 165.5 529.8 169.1C522.6 177.7 514.7 185.2 506 191.7C493 201.3 482 206.3 472.4 206.3C464.2 206.3 458 203.2 453.7 197.2C449.9 192.2 447.9 185.4 447.9 177.5C447.9 167.4 450.1 157.1 454.1 146.3C455.3 143.9 455.8 142.9 456.3 142.9C456.5 142.9 456.5 143.1 456.5 143.6C456.5 144.3 456.3 145.5 456 147C452.9 157.6 451.4 165.5 451.4 171C451.4 176 452.6 180.4 455 184C458.8 189 464.8 191.7 473.2 191.7C480.4 191.7 489 188.6 499.4 182.3C507.6 177.3 515.5 171.3 523.2 164.1C530.2 157.2 533.8 152.9 533.8 150.8L533.8 150.8L533.8 150.8L533.8 150.8L533.8 150.8ZM468.3 114.5C467.8 112.3 467.1 110.7 466.1 109.5C465.4 108.1 464.9 107.3 464.7 106.9C464.7 106.4 464.7 104.7 465.2 101.4C465.7 98.3 465.9 96.1 466.4 94.9C466.6 93.7 466.9 93.2 467.4 93.2C467.6 93.2 467.9 93.4 468.4 93.9C471.8 97.7 475.4 101.6 479.4 105.7C481.1 107.4 481.8 108.3 481.8 108.8C481.8 109 481.6 109.3 481.1 109.3C480.4 109.3 478.5 108.8 475.6 108.1C477.3 112.2 479.2 116.3 480.9 120.1C483.5 126.8 485 132.3 485 137.4C485 139.8 484.5 142.7 483.6 146.3C482.4 150.4 481 153.5 479 155.7C472 163.6 460.3 172.3 443.7 181.6C429.3 190 420.9 194.1 418.3 194.1C417.8 194.1 410.6 195.8 396.9 199.1C382.5 202.5 373.4 204.6 369.8 205.1C366 205.8 363.6 206.1 362.6 206.1C362.1 206.1 362.1 206.1 362.1 205.9C362.1 205.7 364.7 204.2 370 201.8C371.9 200.8 383 196 403.4 187.4C417.6 181.4 429.3 175.9 438.7 170.8C452.9 163.1 463.7 156.4 471.1 150.9C476.6 146.6 479.5 143.5 479.5 141.5C479.5 141 478.1 137.7 475.2 131.4C471.9 124.4 469.5 118.6 468.3 114.5L468.3 114.5L468.3 114.5L468.3 114.5L468.3 114.5ZM448.6 81.2C448.6 85 446.7 90.3 442.8 96.8C440.4 100.9 436.8 106.4 432 113.6C436.8 119.1 440.2 124.2 441.8 128.5C442.8 131.6 443.5 135.7 443.5 140.3C443.5 142.2 443 144.6 442.1 147.7C441.4 150.6 440.4 152.7 439.5 154.2C437.6 157.1 434.5 160 429.7 162.8C424.7 166.2 420.3 167.8 416.7 167.8C410.9 167.8 408.1 163.5 408.1 154.8C408.1 149 409.1 143.3 411 138C412.9 133.4 416 127.4 421.1 119.5C416.8 115.4 412.2 109.7 407.2 102.5C406.7 101.8 405.5 100.6 403.6 98.7C402.6 97.7 402.2 96.5 402.2 95.1C402.2 92.9 402.4 90.5 402.9 87.7C403.6 84.8 404.1 83.6 404.3 83.6C405 83.6 407.2 84.8 411.3 87.4C415.1 90 418.3 92 420.2 93.6C421.4 94.3 421.9 95 421.9 95L421.9 95.2C421.9 95.4 421.2 95.7 419.5 95.7C416.4 95.7 414.7 95.9 414.7 96.2C414.7 96.4 415.2 96.9 416.1 98.1C419.9 102.9 423.8 106.5 427.9 109.4C428.9 108 432.2 103.2 437.5 95C442.1 88 444.7 83.2 445.9 80.4C447.1 77.5 447.8 76.3 448.3 76.3C448.4 76.4 448.6 77.8 448.6 81.2L448.6 81.2L448.6 81.2L448.6 81.2L448.6 81.2ZM439.3 140.2C436.7 134.9 432.1 129.4 425.9 124.1C423.7 126.3 421.1 130.3 417.7 136.1C413.9 142.6 412.2 146.7 412.2 148.8C412.2 151.7 414.1 153.1 418.4 153.1C420.3 153.1 422.7 152.4 425.8 151.2C430.1 149.3 434.2 146.6 437.6 143.3C439 141.9 439.5 140.9 439.3 140.2L439.3 140.2L439.3 140.2L439.3 140.2L439.3 140.2ZM425.8 62.9L429.6 55C429.8 54.5 430.1 54.3 430.6 54.3C431.1 54.3 433 55.5 436.8 58.1C440.4 60.5 442.3 61.9 442.3 62.4C442.3 64.1 440.6 67.7 437.5 73C437 73.7 436.5 73.7 436.1 73.5C433 71.1 429.4 68.7 425.3 66.1C423.9 69 422.7 71.6 421.2 73.8C421 74.5 420.5 74.8 420 74.5C416.4 71.6 412.6 69 408.7 66.6C408.5 66.4 408.5 66.1 408.7 65.6L413.3 56C413.5 55.5 414 55 414.3 55C414.8 55 416.5 56.2 419.6 58.4C422.7 60.3 424.9 62 425.8 62.9L425.8 62.9L425.8 62.9L425.8 62.9L425.8 62.9ZM552.3 196.8C549.7 197.5 548.2 198 547.7 198L547.7 197.8C547.7 197.8 548.7 197.1 550.6 195.9C552.5 194.7 555.4 192.8 559.5 189.7C561.4 187.8 564.3 184.7 567.9 180.3C570.3 177.4 572.9 174.8 575.8 172.9C579.4 170.3 582.8 169.1 586.4 169.1C587.1 169.1 588.3 169.3 589.8 169.8C591 170.3 592.2 170.5 593.2 170.5C595.1 170.5 596.6 169.8 597.8 168.3C598.5 166.9 599.5 165.7 600.4 164.2C600.9 163.2 601.6 162.8 602.1 162.8C602.3 162.8 602.3 163 602.3 163.5C602.3 164 602.1 165.2 601.6 166.6C601.1 167.3 603 167.6 606.6 167.6C607.1 167.6 607.3 167.6 607.3 167.4C607.3 167.4 607.1 166.4 606.6 164.8C606.4 164.3 606.6 163.6 607.3 162.6C608.3 160.9 608.7 160.2 609 160.4C610 161.1 610.4 162.6 610.4 164.2C610.4 165.8 609.9 167.6 609.2 169.5C608.5 171.7 607.8 172.9 607.3 173.3C605.6 174.3 603 174 599.4 172.3C596.5 175.2 593.6 176.9 590.8 176.9C590.1 176.9 588.9 176.7 587.7 176.2C586.5 175.7 585.5 175.5 584.8 175.5C580 175.5 575 177.7 569.9 182.5C566.3 186.1 562.7 189.7 559.1 193.3C556.9 194.9 554.7 196.1 552.3 196.8L552.3 196.8L552.3 196.8L552.3 196.8L552.3 196.8ZM500.7 67.2C503.6 67.2 506 68.6 508.1 72C510.3 75.1 511.9 79.4 512.7 84.7C512.9 85.2 512.9 85.4 512.9 85.7L513.1 85.7C513.1 85.5 513.3 85.2 513.3 84.7C513.8 81.6 515 76.8 516.7 70.5C518.6 66.2 520.5 64 522.7 64C523.9 64 525.1 64.7 526.1 66.2C527.1 67.6 527.5 68.6 527.5 69.6C527.5 70.1 527.5 71 527 72C526.5 73.4 526 74.2 525.6 74.2C525.4 74.2 524.9 73.5 523.9 72.5C523.2 71.5 522.2 71.1 521.3 71.1C519.4 71.1 517.7 75.7 516 84.8C515.3 88.9 514.3 91.8 513.6 93.4C512.9 94.4 512.4 95.1 511.9 95.1C511.4 95.1 511.4 94.4 511.2 93.4C511.4 91.7 510.5 88.6 508.6 84C506.7 79.2 505.5 77 504.5 77C504 77 503.8 77 503.5 77.5C503.3 77.7 503 78 502.3 78C501.3 78 500.4 77.3 498.9 76.1C497.5 74.9 497 73.9 497 73.2C497 73 497.5 71.8 498.7 69.8C499.7 68 500.5 67.2 500.7 67.2L500.7 67.2L500.7 67.2L500.7 67.2L500.7 67.2ZM460.1 64.1C484.3 55 509.5 45.9 535.5 36.3C536.2 36.1 536.7 35.8 536.7 36.1C536.9 36.1 536.9 36.6 536.7 37.3C535.7 39.5 535 40.7 534.5 41.1C534.3 41.3 522 45.9 498.3 54.8C474.1 63.7 460.4 69.2 457.7 70.9C458.2 68.7 458.9 66.5 460.1 64.1L460.1 64.1L460.1 64.1L460.1 64.1L460.1 64.1ZM436.6 20.4C437.1 19 437.1 17.5 436.8 16.1C436.6 14.7 435.8 13.9 434.6 13.9C434.1 13.9 433.4 14.1 432.4 14.6C431.4 15.1 431 15.6 431 16C431.1 17.3 433 18.8 436.6 20.4L436.6 20.4L436.6 20.4L436.6 20.4L436.6 20.4ZM433.7 26.7C429.1 24.3 427 21.9 427 19.3C427 16.2 428.4 13.3 431.3 10.9C434.2 8.3 436.6 7.3 438.5 8.00002C440.2 8.50002 440.9 10.2 440.9 13C440.9 15.6 440.4 18.5 439.2 21.9C441.6 23.1 443 24.3 443.5 25.3C443.5 26.5 442.5 28.7 440.4 31.5C439.9 30.5 438.5 29.3 436.3 28.1C433.7 31.7 430.5 34.8 426.7 37.7C422.1 40.8 418.1 43.5 414.5 44.9C413.5 45.4 409.2 47.1 401.5 49.9C400.3 50.4 399.3 50.6 399.1 50.6C398.9 50.6 398.9 50.4 398.9 50.4C398.9 50.2 399.4 49.4 400.8 48.7C406.6 45.1 412.3 41.7 418.3 38.4C425.3 34.1 430.4 30.3 433.7 26.7L433.7 26.7L433.7 26.7L433.7 26.7L433.7 26.7ZM585.4 56.4C585.9 55 585.9 53.5 585.6 52.1C585.4 50.7 584.6 49.9 583.4 49.9C582.9 49.9 582.2 50.1 581.2 50.6C580.2 51.1 579.8 51.6 579.8 52C579.9 53.3 581.8 54.8 585.4 56.4L585.4 56.4L585.4 56.4L585.4 56.4L585.4 56.4ZM590.7 65.3C588.3 71.1 587.1 75.6 587.1 79C587.1 83.1 588.1 85.2 590.2 85.2C591.4 85.2 592.8 83.5 594.5 80.6C594.7 80.4 594.7 80.1 595 79.9C595 79.9 595.2 79.9 595.2 80.1C595.2 80.1 595.2 80.3 595.2 80.8C593.8 88 591.6 91.6 588.7 91.6C585.6 91.6 584.1 89 584.1 83.7C584.1 81.1 584.6 77.7 586 73.4C587.4 69.1001 588.2 66.9 588.2 66.7C588.2 66.2 587.2 65.3 585.1 64.1C581.3 69.1 576 73.9 569.3 78C564.7 80.6 560.2 83 555.4 85C546.5 88.6 541.2 90.5 540 91.2C538.8 91.7 538.1 91.9 537.6 91.9C537.4 91.9 537.4 91.7 537.4 91.7C537.4 91.2 537.9 90.7 539.3 89.8C547 85.5 554.4 81.2 562.1 76.8C572.2 71 579.1 66.2 582.5 62.6C577.9 60.2 575.8 57.8 575.8 55.2C575.8 52.1 577.2 49.2 580.1 46.6C583 44.2 585.4 43.2 587.3 44C588.7 44.5 589.7 46.2 589.7 49C589.7 51.6 589.2 54.5 588 57.6C590.4 59 591.4 60.5 591.4 61.9C591.4 62.7 591.2 63.9 590.7 65.3L590.7 65.3L590.7 65.3L590.7 65.3L590.7 65.3ZM481.5 30.5C481.5 30.3 481.7 30 481.7 30C481.9 29.8 481.9 29.8 481.9 30C482.1 30.2 482.1 30.5 481.9 30.7C480.7 37.9 478.5 41.5 475.4 41.5C472.3 41.5 470.8 38.9 470.8 33.6C470.8 27.1 472.5 20.2 476.3 13.2C477.3 11.5 477.7 10.6 478 10.6L478 10.6C478 10.8 477.8 11.8 477.3 13.5C474.9 20.9 473.7 26 473.7 29.1C473.7 32.9 474.7 35.1 476.8 35.1C478.4 35.1 479.8 33.4 481.5 30.5L481.5 30.5L481.5 30.5L481.5 30.5L481.5 30.5Z" id="Group" fill="#595959" stroke="none" clip-path="url(#clip_1)" />
  </g>
</svg>