<?xml version="1.0" encoding="utf-8"?>
<svg width="590.70013px" height="203.79997px" viewBox="0 0 590.70013 203.79997" version="1.1" xmlns:xlink="http://www.w3.org/1999/xlink" xmlns="http://www.w3.org/2000/svg">
  <defs>
    <path d="M590.7 0L590.7 0L590.7 203.8L0 203.8L0 0L590.7 0Z" id="path_1" />
    <clipPath id="clip_1">
      <use xlink:href="#path_1" clip-rule="evenodd" fill-rule="evenodd" />
    </clipPath>
  </defs>
  <g id="Surah_33_of_114_(modified)">
    <path d="M590.7 0L590.7 0L590.7 203.8L0 203.8L0 0L590.7 0Z" id="Surah_33_of_114_(modified)" fill="none" stroke="none" />
    <path d="M345.4 25.2C345.4 20.4 344.7 16.6 343.2 13.4C343.2 11.7 344.4 7.59999 347.3 1.39999C347.5 0.699997 347.8 0.199997 348 0.199997C348.5 0.199997 348.7 0.699997 349.2 1.39999C349.9 3.09999 351.6 7.59999 354.5 15.1C357.6 23 359.3 27.8 359.8 29.7C360.3 30.9 360.3 32.1 360.3 32.6C360.3 34.8 358.4 33.6 354.1 28.8C353.6 28.1 353.4 28.6 353.4 29.8C353.4 30.3 354.6 45.2 356.8 74.9C359 104.4 359.9 121 359.9 124.8C359.9 136.1 358.2 146.2 354.9 154.8C353.9 156.5 353.5 157.7 353 158.6L353 158.6C352.3 159.8 352 159.8 351.8 159.1C351.6 158.1 351.8 156.2 352 153.6C352.5 149.5 352.7 145 352.7 139.9C352.7 135.1 351.5 115.9 349.1 82.1C346.6 48.3 345.4 29.3 345.4 25.2L345.4 25.2L345.4 25.2L345.4 25.2L345.4 25.2ZM322.6 32.9C322.6 31 322.1 28.6 321.2 25.9C320.2 23.3 319.8 21.8 319.8 21.6C319.8 21.1 320.3 19.2 321.2 15.8C322.2 12.4 322.6 10.5 322.9 9.99998C323.4 8.99998 323.6 8.79999 323.9 8.79999C324.2 8.79999 324.6 8.99998 325.1 9.79999C326.1 12 328.2 16 331.3 22.5C334.7 29.7 336.8 34.5 337.5 36.7C338 38.4 338.2 39.3 338.2 40.1C338.2 42 336 40.8 332 36C331.5 35.5 331.3 36 331.3 37.2C331.3 41.5 332.7 57.1 335.9 83.8C339 110.4 340.7 127.7 340.7 135.2C340.7 151.3 336.9 164.7 329.4 175C323.4 183.4 316.7 189.2 309.2 192.5C306.3 193.9 301.3 195.4 294.3 197.3C287.1 199.2 281.8 200.2 278.5 200.7C277.3 200.7 276.6 200.7 276.6 200.2C276.6 200 277.1 199.2 278.5 198.3C285 194.7 295.5 188.5 310.2 179.3C315 176.4 319.6 172.3 324.4 167.1C330.6 160.4 334 154.6 334 150.1C334 140.3 332.1 119.4 328.2 87.4999C324.3 55.2 322.6 37.2 322.6 32.9L322.6 32.9L322.6 32.9L322.6 32.9L322.6 32.9ZM232.4 43C231.2 41.3 230 39.9 228.6 39.2C227.9 38.7 227.6 38 227.6 36.8L227.6 27.2C227.6 25.3 227.8 24.3 228.6 24.3C229.1 24.3 230 24.8 231.2 25.5L249.7 39.9C251.1 40.9 251.9 41.8 251.9 42.3C251.9 42.8 251.4 43 250.2 43C248.8 43 246.1 42.5 242.5 41.6C244.7 45.4 264.1 65.6 300.8 102.3C318.1 119.6 326.7 134.7 326.7 147.4C326.7 148.4 326.7 149.6 326.5 150.8C325.5 159.7 324.8 164 324.3 164C323.8 164 323.1 160.4 322.1 153C320.2 141.2 311.3 127.6 295.5 112.2C270.1 88.2 252.1 69.5 241.5 56.3C239.3 53.7 237.4 51 235.7 48.4C234.8 46.6 233.6 44.9 232.4 43L232.4 43L232.4 43L232.4 43L232.4 43ZM285.4 114.5L282 124.3C281.5 125.5 281.3 126.2 281 126.5C280.8 127 280.3 127.2 279.8 127.2C259.9 132 240.2 138.2 220.5 145.9C220.7 148.8 221 151.2 221 152.9C221 155.3 220.5 156.5 219.8 156.5C218.8 156.5 216.7 153.9 213.6 148.1C210 149.3 203.8 151.9 194.9 155.8L194.9 142.6C197.5 141.4 201.4 139.7 205.9 137.6C205.4 137.1 202.1 134.2 195.6 129C190.1 124.7 186.7 121.1 185.3 118.7C183.9 116.5 183.1 113.9 183.1 111.3C183.1 106.7 185 102.9 188.6 99.8C192.2 96.4 196.8 94.8 202.3 94.8C212.1 94.8 228.2 97.7 249.8 103C250.8 103.2 262.3 106.4 284.4 112.4C285.7 112.4 285.9 113.3 285.4 114.5L285.4 114.5L285.4 114.5L285.4 114.5L285.4 114.5ZM260.7 120.5C255.4 118.6 247 115.9 235.7 113.3C221.1 109.7 209.5 108 200.7 108C193.7 108 190.1 108.5 190.1 109.7C190.1 110.2 191.3 111.4 193.2 113.3C197.3 116.4 201.4 119.8 205.2 123.1C211.2 127.9 214.8 131.5 216.5 133.7C232.4 128.2 247 123.6 260.7 120.5L260.7 120.5L260.7 120.5L260.7 120.5L260.7 120.5ZM149.6 169.2C154.6 163.4 161.4 158.4 169.8 153.8C174.6 151.2 183 147.3 195 142.3L195 155.6C187.3 159 181.8 161.4 178.2 163C170.8 166.6 165.7 169.2 163.1 171.4C158.1 175.2 150.6 182.7 141 193.7C135.2 200.4 129.5 203.8 123.7 203.8C118.9 203.8 114.6 201.6 111 197.1C107.2 192.8 105.5 187 105.5 180.5C105.5 171.6 109.1 159.9 116.5 145.2C117.2 143.8 117.9 143 118.4 143C118.4 143 118.6 143.2 118.6 143.5C118.6 144.9 116.9 150 113.8 158.6C110.4 167.5 108.8 174.2 108.8 179.2C108.8 183 109.8 186.2 111.7 188.3C113.6 190.9 116.3 192.1 119.6 192.1C125.6 192.1 131.8 189 137.8 183C141.9 178.6 145.7 173.8 149.6 169.2L149.6 169.2L149.6 169.2L149.6 169.2L149.6 169.2ZM140.2 42.3C140.2 37.7 139.5 33.9 138 30.8C138 29.1 139.2 25 142.1 18.6C142.3 17.9 142.6 17.6 143.1 17.6C143.3 17.6 143.6 17.8 144.1 18.8C144.8 20.5 146.5 25 149.4 32.5C152.5 40.4 154.2 45.2 154.7 46.9C155.2 48.3 155.2 49.3 155.2 50C155.2 52.2 153.3 51 149 46.2C148.5 45.5 148.3 46 148.3 47.2C148.3 47.4 149.3 59.4 150.9 82.7C152.6 106 153.5 119.4 153.5 123.3C153.5 134.6 151.8 144.7 148.2 153.3C147.5 155 147 156.4 146.5 157.1L146.5 157.1C145.8 158.3 145.3 158.3 145.1 157.6C145.1 156.6 145.1 155 145.3 152.1C145.8 148.3 146 143.7 146 138.4C146 133.6 145 117.5 143.1 89.8999C141.2 62.2 140.2 46.4 140.2 42.3L140.2 42.3L140.2 42.3L140.2 42.3L140.2 42.3ZM46.1 148.4C61.9 148.4 79.7 145 100.1 138.8C116.4 133.5 127 129.2 131.8 125.6C132.3 125.4 132.3 124.9 132.3 124.2C132.3 122.3 129.4 117.2 123.2 109.6C122 108.2 121.5 106.5 122 104.8C122.7 101.4 123.7 98.6 124.9 96.2C125.6 94.5 126.3 93.6 126.8 93.6C127 93.6 128 94.3 129.2 95.8C130.9 97.5 132.6 100.1 134.2 104C136.8 108.6 138 112.6 138 116C138 127.3 134.4 135.7 127 140.7C122.2 144.3 111.4 148.6 94.8 153.7C73.9 160.2 55.9 163.3 40.1 163.3C24.7 163.3 13.9 159.2 6.99999 151.1C2.19999 145.6 -7.62939e-06 138.4 -7.62939e-06 129.7C-7.62939e-06 120.6 2.19999 112.2 6.49999 104.3C7.89999 101.9 8.89999 100.5 9.39999 100.5C9.39999 100.5 9.59999 100.7 9.59999 101.2C9.59999 101.9 9.09999 103.4 8.39999 105.5C7.39999 108.4 6.2 111 5.3 113.9C4.1 117.5 3.6 121.3 3.6 125.4C3.6 130.7 6 135.2 11.3 139.3C18.8 145.2 30.3 148.4 46.1 148.4L46.1 148.4L46.1 148.4L46.1 148.4L46.1 148.4ZM162.3 130.1C162.1 129.9 162.1 129.6 162.3 129.1L166.9 119.5C167.1 119 167.6 118.8 167.9 118.8C168.4 118.8 170.5 120 174.1 122.4C177.9 125 179.9 126.5 179.9 127C179.9 128.7 178.2 132 174.9 137.3C174.4 138 174.2 138.3 173.7 138C170 135.2 166.1 132.5 162.3 130.1L162.3 130.1L162.3 130.1L162.3 130.1L162.3 130.1ZM63.4 176.2C63.2 176 63.2 175.7 63.4 175.2L68 165.6C68.2 165.1 68.7 164.9 69 164.9C69.5 164.9 71.6 166.1 75.2 168.5C79 171.1 81 172.6 81 173.1C81 174.8 79.3 178.1 76 183.4C75.5 184.1 75.3 184.4 74.8 184.1C71.1 181.2 67.3 178.6 63.4 176.2L63.4 176.2L63.4 176.2L63.4 176.2L63.4 176.2ZM288.8 20.9C288.8 19.7 286.4 17.5 281.4 14.7C279.7 17.6 279 20.2 279 22.6C279 24 279.7 25 281.2 25C282.4 25 283.8 24.5 285.5 23.6C287.1 22.8 288.3 21.9 288.8 20.9L288.8 20.9L288.8 20.9L288.8 20.9L288.8 20.9ZM283.5 1.7C284.2 0.5 285.2 0 285.9 0C286.4 0 286.9 0.199997 286.9 0.699997C286.9 0.699997 286.7 0.899994 286.7 1.2C285.7 3.39999 284.8 5.8 284.1 8.2C289.1 11.8 291.5 15.6 291.3 19.2C290.8 23.3 290.3 25.9 289.6 26.9C287.2 29.8 284.6 31.5 281.2 31.5C277.8 31.5 276.4 29.3 276.4 25.5C276.4 24.8 276.4 23.8 276.6 22.9C277.7 15.2 280.1 8.2 283.5 1.7L283.5 1.7L283.5 1.7L283.5 1.7L283.5 1.7ZM306.1 66C306.1 65.8 306.3 65.5 306.3 65.5C306.5 65.3 306.5 65.3 306.5 65.5C306.7 65.7 306.7 66 306.5 66.2C305.3 73.4 303.1 77 300 77C296.9 77 295.4 74.4 295.4 69.1C295.4 62.6 297.1 55.7 300.9 48.7C301.9 47 302.3 46.1 302.6 46.1L302.6 46.1C302.6 46.3 302.4 47.3 301.9 49C299.5 56.4 298.3 61.5 298.3 64.6C298.3 68.4 299.3 70.6 301.4 70.6C302.9 70.6 304.4 68.9 306.1 66L306.1 66L306.1 66L306.1 66L306.1 66ZM234.5 9.2C234 11.4 233.5 12.6 232.8 13.3C230.2 15 224.2 18.8 215 25.1C214.8 25.3 214.3 25.6 213.8 26.1C213.6 25.9 213.6 25.9 213.6 25.4L214.1 22.3C214.3 21.6 215.8 20.1 218.7 18C215.1 16.8 213.4 15.1 213.4 13.2C213.4 11 214.1 8.89999 216 6.7C219.6 2.39999 222.7 0.199997 225.1 0.199997C227.3 0.199997 228.2 1.39999 228.2 3.8C228.2 5.2 227.7 6.7 226.5 8.60001C226.3 9.10001 226 9.10001 225.5 8.40001C225 7.20001 224.1 6.70001 222.9 6.70001C222.2 6.70001 221.2 6.90001 220 7.90001C218.8 8.60001 218.1 9.3 218.1 9.8C218.1 10.5 218.8 11.2 220.3 12C221.7 13 222.9 13.2 223.9 13.2C224.6 13.2 226.1 12.7 228.2 11.5C229.6 10.5 230.8 9.60001 232.3 8.60001C233.5 8.10001 234.2 7.60001 234.5 7.90001C234.8 7.7 234.8 8.2 234.5 9.2L234.5 9.2L234.5 9.2L234.5 9.2L234.5 9.2ZM223.3 71.8C223.3 70.6 220.9 68.4 215.9 65.6C214.2 68.5 213.5 71.1 213.5 73.5C213.5 74.9 214.2 75.9 215.7 75.9C216.9 75.9 218.3 75.4 220 74.5C221.6 73.7 222.8 72.8 223.3 71.8L223.3 71.8L223.3 71.8L223.3 71.8L223.3 71.8ZM218 52.6C218.7 51.4 219.7 50.9 220.4 50.9C220.9 50.9 221.4 51.1 221.4 51.6C221.4 51.6 221.2 51.8 221.2 52.1C220.2 54.3 219.3 56.7 218.6 59.1C223.6 62.7 226 66.5 225.8 70.1C225.3 74.2 224.8 76.8 224.1 77.8C221.7 80.7 219.1 82.4 215.7 82.4C212.3 82.4 210.9 80.2 210.9 76.4C210.9 75.7 210.9 74.7 211.1 73.8C212.2 66 214.6 59.1 218 52.6L218 52.6L218 52.6L218 52.6L218 52.6ZM159.4 61C177.9 54.3 197.1 47.1 217.2 39.6C217.9 39.4 218.4 39.1 218.6 39.4C218.6 39.4 218.6 39.9 218.4 40.6C217.4 42.8 216.7 44 216.2 44.4C199.4 50.6 179.5 58.3 156.9 67.7C157.5 65.6 158.2 63.4 159.4 61L159.4 61L159.4 61L159.4 61L159.4 61ZM66.5 193.7C76.1 190.3 86.4 186.5 97.5 182.7C98.5 182.5 98.7 182.2 98.9 182.5C99.1 182.5 99.1 183 98.7 183.7C98 185.9 97.3 187.1 96.8 187.5C87.2 190.9 76.4 194.9 64.2 200.5C64.6 198.3 65.3 196.1 66.5 193.7L66.5 193.7L66.5 193.7L66.5 193.7L66.5 193.7ZM297.2 171.2C292.4 175.5 285.9 177.9 278.2 177.9C276 177.9 273.9 177.2 272.4 176C271 174.8 270.2 173.1 270.2 171.2C270.2 167.8 271.4 164.5 274.3 161.1C277.2 158 280.1 155.1 282.7 152C283.4 151.5 283.2 151 282.2 150.6C280.3 149.9 277.9 149.6 275.5 149.6C274.3 149.6 272.9 149.8 271.2 150.8C271 150.8 270.7 151 270.5 150.8C270.5 150.8 270.5 150.6 270.7 150.1C271.7 147.7 272.6 146 273.6 145.3C274.8 144.3 276.7 143.9 279.4 143.9C285.2 143.9 287.8 145.1 287.8 148C287.8 150.2 286.1 153 282.5 157.1C279.9 159.7 277.2 162.4 274.6 165C273.6 166.4 273.2 167.9 273.2 168.8C273.2 171.2 275.8 172.4 280.9 172.4C285.9 172.4 291 171.4 296.7 169.8C298.1 169.3 298.9 169.3 298.9 169.6C298.9 169.5 298.4 170.2 297.2 171.2L297.2 171.2L297.2 171.2L297.2 171.2L297.2 171.2ZM100.4 80C100.9 76.6 102.1 72.8 104 68C105.4 64.4 106.2 60.8 106.2 57.2C106.2 50.2 102.8 43.8 96.4 37.3C95.9 36.8 95.9 36.3 96.4 35.9L98.6 32.1C98.8 31.6 99.1 31.6 99.6 32.1C105.8 37.1 109.2 44.6 109.2 54.4C109.2 59 108 64 106.1 69C103.9 74.3 103 77.9 103 79.8C103 83.9 104 86 106.1 86C107.5 86 109 84.3 110.7 81.4C110.7 81.2 110.9 80.9 110.9 80.9C111.1 80.7 111.1 80.7 111.1 80.9C111.1 80.9 111.1 81.4 111.1 81.6C109.9 88.8 107.7 92.4 104.6 92.4C101.7 92.4 100 89.3 100 83.5C99.9 82.4 100.1 81.2 100.4 80L100.4 80L100.4 80L100.4 80L100.4 80ZM16.9 91.5C16.9 91.3 17.1 91 17.1 91C17.3 90.8 17.3 90.8 17.3 91C17.5 91.2 17.5 91.5 17.3 91.7C16.1 98.9 13.9 102.5 10.8 102.5C7.7 102.5 6.2 99.9 6.2 94.6C6.2 88.1 7.89999 81.2 11.7 74.2C12.7 72.5 13.1 71.6 13.4 71.6L13.4 71.6C13.4 71.8 13.2 72.8 12.7 74.5C10.3 81.9 9.1 87 9.1 90.1C9.1 93.9 10.1 96.1 12.2 96.1C13.7 96 15.2 94.4 16.9 91.5L16.9 91.5L16.9 91.5L16.9 91.5L16.9 91.5ZM226.9 172.4C229.8 172.4 232.2 173.8 234.3 177.2C236.5 180.3 238.1 184.6 238.9 189.9C239.1 190.4 239.1 190.6 239.1 190.9L239.3 190.9C239.3 190.7 239.5 190.4 239.5 189.9C240 186.8 241.2 182 242.9 175.7C244.8 171.4 246.7 169.2 248.9 169.2C250.1 169.2 251.3 169.9 252.3 171.4C253.3 172.8 253.7 173.8 253.7 174.8C253.7 175.3 253.7 176.2 253.2 177.2C252.7 178.6 252.2 179.4 251.8 179.4C251.6 179.4 251.1 178.7 250.1 177.7C249.4 176.7 248.4 176.3 247.5 176.3C245.6 176.3 243.9 180.9 242.2 190C241.5 194.1 240.5 197 239.8 198.6C239.1 199.6 238.6 200.3 238.1 200.3C237.6 200.3 237.6 199.6 237.4 198.6C237.6 196.9 236.7 193.8 234.8 189.2C232.9 184.4 231.7 182.2 230.7 182.2C230.2 182.2 230 182.2 229.7 182.7C229.5 182.9 229.2 183.2 228.5 183.2C227.5 183.2 226.6 182.5 225.1 181.3C223.7 180.1 223.2 179.1 223.2 178.4C223.2 178.2 223.7 177 224.9 175C225.9 173.1 226.6 172.4 226.9 172.4L226.9 172.4L226.9 172.4L226.9 172.4L226.9 172.4ZM164.5 10.8C167.4 10.8 169.8 12.2 171.9 15.6C174.1 18.7 175.7 23 176.5 28.3C176.7 28.8 176.7 29 176.7 29.3L176.9 29.3C176.9 29.1 177.1 28.8 177.1 28.3C177.6 25.2 178.8 20.4 180.5 14.1C182.4 9.79999 184.3 7.59999 186.5 7.59999C187.7 7.59999 188.9 8.29999 189.9 9.79999C190.9 11.2 191.3 12.2 191.3 13.2C191.3 13.7 191.3 14.6 190.8 15.6C190.3 17 189.8 17.8 189.4 17.8C189.2 17.8 188.7 17.1 187.7 16.1C187 15.1 186 14.7 185.1 14.7C183.2 14.7 181.5 19.3 179.8 28.4C179.1 32.5 178.1 35.4 177.4 37C176.7 38 176.2 38.7 175.7 38.7C175.2 38.7 175.2 38 175 37C175.2 35.3 174.3 32.2 172.4 27.6C170.5 22.8 169.3 20.6 168.3 20.6C167.8 20.6 167.6 20.6 167.3 21.1C167.1 21.3 166.8 21.6 166.1 21.6C165.1 21.6 164.2 20.9 162.7 19.7C161.3 18.5 160.8 17.5 160.8 16.8C160.8 16.6 161.3 15.4 162.5 13.4C163.5 11.6 164.2 10.8 164.5 10.8L164.5 10.8L164.5 10.8L164.5 10.8L164.5 10.8ZM78.3 60.3C78.3 60.8 78.1 61.7 77.6 62.7C77.4 64.1 76.9 64.9 76.2 64.9C76 64.9 75.5 64.2 74.5 63.2C73.8 62.2 72.8 61.8 72.1 61.8C70.2 61.8 68.3 66.4 66.6 75.5C65.9 79.6 65.2 82.5 64.2 84.1C63.5 85.1 63 85.8 62.5 85.8C62.3 85.8 62 85.1 62 84.1C62 82.4 61 79.3 59.1 74.7C57.2 69.9 56 67.7 55.3 67.7C54.6 67.7 54.3 67.7 54.1 68.2C54.1 68.4 53.6 68.7 52.9 68.7C51.9 68.7 51 68 49.5 66.8C48.3 65.6 47.6001 64.6 47.6001 63.9C47.6001 63.7 48.1001 62.5 49.3 60.5C50.5 58.6001 51.2 57.9 51.5 57.9C54.1001 57.9 56.5 59.3 58.7 62.7C61.1 66.1 62.5 70.1 63.5 75.4C63.5 75.9 63.5 76.1001 63.5 76.4C63.7 76.6001 63.7 76.6001 63.7 76.4C63.7 76.2 63.9 75.9 64.2 75.4C64.4 72.3 65.6 67.5 67.3 61.2C69.2 56.9 71.1001 54.7 73.3 54.7C74.5 54.7 75.7 55.4 76.9001 56.9C77.8 58.4 78.3 59.3 78.3 60.3L78.3 60.3L78.3 60.3L78.3 60.3L78.3 60.3ZM62.5 87.9C60.8 91.7 57.5 95.6 52.4 99.2C47.8 102.6 43.8 105 40.2 106.6C39.5 107.1 35.2 108.8 27.2 111.6C26 112.1 25.3 112.3 24.8 112.3C24.6 112.3 24.6 112.1 24.6 112.1C24.6 111.9 25.3 111.1 26.5 110.4C33 106.6 42.1 101 54.1 93.1C57 90.8999 59.1 88.8 60.8 86.8999C62.7 84.6999 63.7 83.5 63.9 83.5C63.9 83.5 63.9 83.5 63.9 83.7C63.9 84 63.4 85.5 62.5 87.9L62.5 87.9L62.5 87.9L62.5 87.9L62.5 87.9ZM83.6 112.4C83.6 115 82.4 117.9 80.5 121C78.3 124.1 75.7 127 72.3 129.4C70.9 130.4 70.1 130.8 69.9 130.8L69.9 130.6C69.9 130.4 70.4 129.9 71.3 128.7C76.8 122.7 79.7 118.9 79.7 116.7C79.7 115 78.7 114.1 77.1 114.1C76.1 114.1 75.2 114.3 74.5 114.8C73.8 115 73.5 115.3 73.3 115.3C73.3 115.3 73.1 115.3 73.1 115.1C73.1 115.1 73.1 114.6 73.3 113.7C74.3 109.6 76.2 107.7 79.5 107.7C82.1 107.6 83.6 109.2 83.6 112.4L83.6 112.4L83.6 112.4L83.6 112.4L83.6 112.4ZM197.8 188.2C197.8 188 198 187.7 198 187.7C198.2 187.5 198.2 187.5 198.2 187.7C198.4 187.9 198.4 188.2 198.2 188.4C197 195.6 194.8 199.2 191.7 199.2C188.6 199.2 187.1 196.6 187.1 191.3C187.1 184.8 188.8 177.9 192.6 170.9C193.6 169.2 194 168.3 194.3 168.3L194.3 168.3C194.3 168.5 194.1 169.5 193.6 171.2C191.2 178.6 190 183.7 190 186.8C190 190.6 191 192.8 193.1 192.8C194.7 192.8 196.1 191.1 197.8 188.2L197.8 188.2L197.8 188.2L197.8 188.2L197.8 188.2ZM531.9 112.8C533.1 111.8 534.1 111.4 534.8 111.4C535.3 111.4 535.5 111.9 535.5 112.8C535.5 113.5 535.3 115 534.8 116.9C534.3 118.8 534.1 120.3 534.1 121.5C534.1 126.8 537.9 129.7 545.4 129.7C551.4 129.7 556.4 127.1 560.3 122C562.7 117.9 565.3 114.1 567.7 110.2C568.7 109.2 569.4 108.8 570.1 108.8C571.1 108.8 571.3 109.8 570.8 111.9C569.8 116 569.1 117.9 569.1 117.4C569.1 119.1 570.1 120.8 572 122.2C573.7 123.6 576.1 124.6 578.7 124.6C582.1 124.6 584.2 123.6 585.2 122C585.2 121.8 584.2 119.8 582.1 116.2C582.3 114.3 583.3 110.9 584.7 106.4C584.9 105 585.4 104.2 585.9 104.2C586.4 104.2 586.9 104.4 587.6 105.4C589.5 108.3 590.7 111.6 590.7 115.5C590.7 121.5 589.3 126.5 586.6 130.9C583.7 136.2 579.4 138.8 573.6 138.8C569.8 138.8 566.2 135.7 563 129.9C557.7 139.5 550.8 144.3 542.4 144.3C532.3 144.3 527.5 138.5 527.5 127.5C523.7 132.1 517.2 136.1 508.8 140L508.8 126.8C515 123.7 519.1 121.8 520.3 121C524.2 119.1 528.1 116.2 531.9 112.8L531.9 112.8L531.9 112.8L531.9 112.8L531.9 112.8ZM495.2 128.7C491.6 124.1 488.5 122 485.6 122C481.3 122 479.4 123 479.4 125.4C479.4 128.3 482.3 129.7 488 129.7C490.1 129.6 492.5 129.2 495.2 128.7L495.2 128.7L495.2 128.7L495.2 128.7L495.2 128.7ZM502.6 146.2C502.6 144.8 502.1 143.1 501.6 141.4C498.7 142.4 494.4 143.1 489.1 143.1C477.6 143.1 471.8 139 471.8 131.1C471.8 125.1 473.5 119.8 477.3 115C480.9 110.9 484.7 108.8 488.8 108.8C491.9 108.8 495 110.7 498.6 114.3C501.7 117.9 504.6 122 507 127C507.2 127 507.7 127 508.7 126.5L508.7 139.7L508.2 140.2C508.2 143.1 507.5 146.4 506 150.8C504.3 156.3 501.7 160.9 498.6 164.5C491.4 173.1 483.5 180.6 474.8 187.1C461.8 196.7 450.8 201.7 441.2 201.7C433 201.7 426.8 198.6 422.5 192.6C418.7 187.6 416.7 180.8 416.7 172.9C416.7 162.8 418.9 152.5 422.9 141.7C424.1 139.3 424.6 138.3 425.1 138.3C425.3 138.3 425.3 138.5 425.3 139C425.3 139.7 425.1 140.9 424.8 142.4C421.7 153 420.2 160.9 420.2 166.4C420.2 171.4 421.4 175.8 423.8 179.4C427.6 184.4 433.6 187.1 442 187.1C449.2 187.1 457.8 184 468.2 177.7C476.4 172.7 484.3 166.7 492 159.5C499 152.7 502.6 148.4 502.6 146.2L502.6 146.2L502.6 146.2L502.6 146.2L502.6 146.2ZM437.1 110C436.6 107.8 435.9 106.2 434.9 105C434.2 103.6 433.7 102.8 433.5 102.4C433.5 101.9 433.5 100.2 434 96.9C434.5 93.8 434.7 91.6 435.2 90.4C435.4 89.2 435.7 88.7 436.2 88.7C436.4 88.7 436.7 88.9 437.2 89.4C440.6 93.2 444.2 97.1 448.2 101.2C449.9 102.9 450.6 103.8 450.6 104.3C450.6 104.5 450.4 104.8 449.9 104.8C449.2 104.8 447.3 104.3 444.4 103.6C446.1 107.7 448 111.8 449.7 115.6C452.3 122.3 453.8 127.8 453.8 132.9C453.8 135.3 453.3 138.2 452.4 141.8C451.2 145.9 449.8 149 447.8 151.2C440.8 159.1 429.1 167.8 412.5 177.1C398.1 185.5 389.7 189.6 387.1 189.6C386.6 189.6 379.4 191.3 365.7 194.6C351.3 198 342.2 200.1 338.6 200.6C334.8 201.3 332.4 201.6 331.4 201.6C330.9 201.6 330.9 201.6 330.9 201.4C330.9 201.2 333.5 199.7 338.8 197.3C340.7 196.3 351.8 191.5 372.2 182.9C386.4 176.9 398.1 171.4 407.5 166.3C421.7 158.6 432.5 151.9 439.9 146.4C445.4 142.1 448.3 139 448.3 137C448.3 136.5 446.9 133.2 444 126.9C440.7 119.8 438.3 114 437.1 110L437.1 110L437.1 110L437.1 110L437.1 110ZM417.4 76.6C417.4 80.4 415.5 85.7 411.6 92.2C409.2 96.3 405.6 101.8 400.8 109C405.6 114.5 409 119.6 410.6 123.9C411.6 127 412.3 131.1 412.3 135.7C412.3 137.6 411.8 140 410.9 143.1C410.2 146 409.2 148.1 408.3 149.6C406.4 152.5 403.3 155.4 398.5 158.2C393.5 161.6 389.1 163.2 385.5 163.2C379.7 163.2 376.9 158.9 376.9 150.2C376.9 144.4 377.9 138.7 379.8 133.4C381.7 128.8 384.8 122.8 389.9 114.9C385.6 110.8 381 105.1 376 97.9C375.5 97.2 374.3 96 372.4 94.1C371.4 93.1 371 91.9 371 90.5C371 88.3 371.2 85.9 371.7 83.1C372.4 80.2 372.9 79 373.1 79C373.8 79 376 80.2 380.1 82.8C383.9 85.4 387.1 87.4 389 89C390.2 89.7 390.7 90.4 390.7 90.4L390.7 90.6C390.7 90.8 390 91.1 388.3 91.1C385.2 91.1 383.5 91.3 383.5 91.6C383.5 91.8 384 92.3 384.9 93.5C388.7 98.3 392.6 101.9 396.7 104.8C397.7 103.4 401 98.6 406.3 90.4C410.9 83.4 413.5 78.6 414.7 75.8C415.9 72.9 416.6 71.7 417.1 71.7C417.2 71.8 417.4 73.2 417.4 76.6L417.4 76.6L417.4 76.6L417.4 76.6L417.4 76.6ZM408.1 135.6C405.5 130.3 400.9 124.8 394.7 119.5C392.5 121.7 389.9 125.7 386.5 131.5C382.7 138 381 142.1 381 144.2C381 147.1 382.9 148.5 387.2 148.5C389.1 148.5 391.5 147.8 394.6 146.6C398.9 144.7 403 142 406.4 138.7C407.8 137.3 408.3 136.4 408.1 135.6L408.1 135.6L408.1 135.6L408.1 135.6L408.1 135.6ZM394.6 58.6L398.4 50.7C398.6 50.2 398.9 50 399.4 50C399.9 50 401.8 51.2 405.6 53.8C409.2 56.2 411.1 57.6 411.1 58.1C411.1 59.8 409.4 63.4 406.3 68.7C405.8 69.4 405.3 69.4 404.9 69.2C401.8 66.8 398.2 64.4 394.1 61.8C392.7 64.7 391.5 67.3 390 69.5C389.8 70.2 389.3 70.5 388.8 70.2C385.2 67.3 381.4 64.7 377.5 62.3C377.3 62.1 377.3 61.8 377.5 61.3L382.1 51.7C382.3 51.2 382.8 50.7 383.1 50.7C383.6 50.7 385.3 51.9 388.4 54.1C391.5 56 393.7 57.6 394.6 58.6L394.6 58.6L394.6 58.6L394.6 58.6L394.6 58.6ZM521.1 192.3C518.5 193 517 193.5 516.5 193.5L516.5 193.3C516.5 193.3 517.5 192.6 519.4 191.4C521.3 190.2 524.2 188.3 528.3 185.2C530.2 183.3 533.1 180.2 536.7 175.8C539.1 172.9 541.7 170.3 544.6 168.4C548.2 165.8 551.6 164.6 555.2 164.6C555.9 164.6 557.1 164.8 558.6 165.3C559.8 165.8 561 166 562 166C563.9 166 565.4 165.3 566.6 163.8C567.3 162.4 568.3 161.2 569.2 159.7C569.7 158.7 570.4 158.3 570.9 158.3C571.1 158.3 571.1 158.5 571.1 159C571.1 159.5 570.9 160.7 570.4 162.1C569.9 162.8 571.8 163.1 575.4 163.1C575.9 163.1 576.1 163.1 576.1 162.9C576.1 162.9 575.9 161.9 575.4 160.3C575.2 159.8 575.4 159.1 576.1 158.1C577.1 156.4 577.5 155.7 577.8 155.9C578.8 156.6 579.2 158.1 579.2 159.7C579.2 161.4 578.7 163.1 578 165C577.3 167.2 576.6 168.4 576.1 168.8C574.4 169.8 571.8 169.5 568.2 167.8C565.3 170.7 562.4 172.4 559.6 172.4C558.9 172.4 557.7 172.2 556.5 171.7C555.3 171.2 554.3 171 553.6 171C548.8 171 543.8 173.2 538.7 178C535.1 181.6 531.5 185.2 527.9 188.8C525.7 190.4 523.5 191.6 521.1 192.3L521.1 192.3L521.1 192.3L521.1 192.3L521.1 192.3ZM469.5 62.7C472.4 62.7 474.8 64.1 476.9 67.5C479.1 70.6 480.7 74.9 481.5 80.2C481.7 80.7 481.7 80.9 481.7 81.2L481.9 81.2C481.9 81 482.1 80.7 482.1 80.2C482.6 77.1 483.8 72.3 485.5 66C487.4 61.7 489.3 59.5 491.5 59.5C492.7 59.5 493.9 60.2 494.9 61.7C495.9 63.1 496.3 64.1 496.3 65.1C496.3 65.6 496.3 66.5 495.8 67.5C495.3 68.9 494.8 69.7 494.4 69.7C494.2 69.7 493.7 69 492.7 68C492 67 491 66.6 490.1 66.6C488.2 66.6 486.5 71.2 484.8 80.3C484.1 84.4 483.1 87.3 482.4 88.9C481.7 89.9 481.2 90.6 480.7 90.6C480.2 90.6 480.2 89.9 480 88.9C480.2 87.2 479.3 84.1 477.4 79.5C475.5 74.7 474.3 72.5 473.3 72.5C472.8 72.5 472.6 72.5 472.3 73C472.1 73.2 471.8 73.5 471.1 73.5C470.1 73.5 469.2 72.8 467.7 71.6C466.3 70.4 465.8 69.4 465.8 68.7C465.8 68.5 466.3 67.3 467.5 65.3C468.5 63.4 469.3 62.7 469.5 62.7L469.5 62.7L469.5 62.7L469.5 62.7L469.5 62.7ZM428.9 59.8C453.1 50.7 478.3 41.6 504.3 32C505 31.8 505.5 31.5 505.5 31.8C505.7 31.8 505.7 32.3 505.5 33C504.5 35.2 503.8 36.4 503.3 36.8C503.1 37 490.8 41.6 467.1 50.5C442.9 59.4 429.2 64.9 426.5 66.6C427 64.4 427.7 62.2 428.9 59.8L428.9 59.8L428.9 59.8L428.9 59.8L428.9 59.8ZM405.4 15.9C405.9 14.5 405.9 13 405.6 11.6C405.4 10.2 404.6 9.39999 403.4 9.39999C402.9 9.39999 402.2 9.59999 401.2 10.1C400.2 10.6 399.8 11.1 399.8 11.5C399.9 12.8 401.8 14.2 405.4 15.9L405.4 15.9L405.4 15.9L405.4 15.9L405.4 15.9ZM402.5 22.1C397.9 19.7 395.8 17.3 395.8 14.7C395.8 11.6 397.2 8.7 400.1 6.3C403 3.7 405.4 2.7 407.3 3.40001C409 3.90001 409.7 5.60001 409.7 8.40001C409.7 11 409.2 13.9 408 17.3C410.4 18.5 411.8 19.7 412.3 20.7C412.3 21.9 411.3 24.1 409.2 26.9C408.7 25.9 407.3 24.7 405.1 23.5C402.5 27.1 399.3 30.2 395.5 33.1C390.9 36.2 386.9 38.9 383.3 40.3C382.3 40.8 378 42.5 370.3 45.3C369.1 45.8 368.1 46 367.9 46C367.7 46 367.7 45.8 367.7 45.8C367.7 45.6 368.2 44.8 369.6 44.1C375.4 40.5 381.1 37.1 387.1 33.8C394.1 29.6 399.2 25.7 402.5 22.1L402.5 22.1L402.5 22.1L402.5 22.1L402.5 22.1ZM554.2 52.1C554.7 50.7 554.7 49.2 554.4 47.8C554.2 46.4 553.4 45.6 552.2 45.6C551.7 45.6 551 45.8 550 46.3C549 46.8 548.6 47.3 548.6 47.7C548.7 49 550.6 50.4 554.2 52.1L554.2 52.1L554.2 52.1L554.2 52.1L554.2 52.1ZM559.5 61C557.1 66.8 555.9 71.3 555.9 74.7C555.9 78.8 556.9 80.9 559 80.9C560.2 80.9 561.6 79.2 563.3 76.3C563.5 76.1 563.5 75.8 563.8 75.6C563.8 75.6 564 75.6 564 75.8C564 75.8 564 76 564 76.5C562.6 83.7 560.4 87.3 557.5 87.3C554.4 87.3 552.9 84.7 552.9 79.4C552.9 76.8 553.4 73.4 554.8 69.1C556.2 64.8 557 62.6 557 62.4C557 61.9 556 61 553.9 59.8C550.1 64.8 544.8 69.6 538.1 73.7C533.5 76.3 529 78.7 524.2 80.7C515.3 84.3 510 86.2 508.8 86.9C507.6 87.4 506.9 87.6 506.4 87.6C506.2 87.6 506.2 87.4 506.2 87.4C506.2 86.9 506.7 86.4 508.1 85.5C515.8 81.2 523.2 76.9 530.9 72.5C541 66.7 547.9 61.9 551.3 58.3C546.7 55.9 544.6 53.5 544.6 50.9C544.6 47.8 546 44.9 548.9 42.3C551.8 39.9 554.2 38.9 556.1 39.7C557.5 40.2 558.5 41.9 558.5 44.7C558.5 47.3 558 50.2 556.8 53.3C559.2 54.7 560.2 56.2 560.2 57.6C560.2 58.4 560 59.6 559.5 61L559.5 61L559.5 61L559.5 61L559.5 61ZM446.9 29.3C446.9 29.1 447.1 28.8 447.1 28.8C447.3 28.6 447.3 28.6 447.3 28.8C447.5 29 447.5 29.3 447.3 29.5C446.1 36.7 443.9 40.3 440.8 40.3C437.7 40.3 436.2 37.7 436.2 32.4C436.2 25.9 437.9 19 441.7 12C442.7 10.3 443.1 9.39999 443.4 9.39999L443.4 9.39999C443.4 9.59999 443.2 10.6 442.7 12.3C440.3 19.7 439.1 24.8 439.1 27.9C439.1 31.7 440.1 33.9 442.2 33.9C443.8 33.9 445.3 32.2 446.9 29.3L446.9 29.3L446.9 29.3L446.9 29.3L446.9 29.3Z" id="Group" fill="#595959" stroke="none" clip-path="url(#clip_1)" />
  </g>
</svg>