<?xml version="1.0" encoding="utf-8"?>
<svg width="573.5001px" height="204.69997px" viewBox="0 0 573.5001 204.69997" version="1.1" xmlns:xlink="http://www.w3.org/1999/xlink" xmlns="http://www.w3.org/2000/svg">
  <defs>
    <path d="M573.5 0L573.5 0L573.5 204.7L0 204.7L0 0L573.5 0Z" id="path_1" />
    <clipPath id="clip_1">
      <use xlink:href="#path_1" clip-rule="evenodd" fill-rule="evenodd" />
    </clipPath>
  </defs>
  <g id="Surah_101_of_114_(modified)">
    <path d="M573.5 0L573.5 0L573.5 204.7L0 204.7L0 0L573.5 0Z" id="Surah_101_of_114_(modified)" fill="none" stroke="none" />
    <path d="M271.6 0C270.9 0 269.9 0.5 269.2 1.7C265.9 8.2 263.5 15.1 262.3 22.9C262.1 23.8 262.1 24.8 262.1 25.5C262.1 29.3 263.5 31.5 266.9 31.5C270.3 31.5 272.9 29.8 275.3 26.9C276 25.9 276.5 23.3 277 19.2C277.2 15.6 274.8 11.8 269.8 8.2C270.5 5.8 271.4 3.39999 272.4 1.2C272.4 0.899994 272.6 0.699997 272.6 0.699997C272.6 0.199997 272.1 0 271.6 0ZM309.8 148.4C314.9 140.2 317.5 129.2 317.5 115C317.5 109.9 316.5 94.8 314.7 69.8C312.8 44.4 311.8 31.4 311.8 31.2C311.8 30 312 29.7 312.5 30.2C316.5 35 318.7 36.2 318.7 34C318.7 33.5 318.4 32.3 318.2 30.9C317.5 29.2 315.8 24.4 312.9 16.5C310 8.99997 308.1 4.49997 307.4 2.79997C306.9 1.79997 306.6 1.59998 306.4 1.59998C305.9 1.59998 305.6 1.89998 305.4 2.59998C302.7 8.99997 301.3 13.1 301.3 14.8C302.8 17.9 303.5 21.7 303.5 26.3C303.5 31.6 304.4 48.6 306.6 77.4C308.8 106.2 310 122.7 310 126.8C310 133.6 309.3 137.6 308.1 138.6C303.8 142.2 299.3 144.1 294.7 144.1L294.7 158.7C300.4 158.7 305.5 155.1 309.8 148.4ZM240.6 144.7C237.5 142.6 235.1 138 233.9 131.3C233.7 128.9 233 115 232.5 89.7C231.8 62.8 230.9 44.8 229.9 35.7C228.2 21.3 226 11 222.9 5.00003C222.4 4.00003 221.9 3.30003 221.7 3.30003C221.2 3.30003 221 4.00003 220.5 5.20003C218.6 10 217.6 13.4 217.6 15.8C220.3 25 222.2 34.3 223.4 44.4C223.9 50.6 224.6 67.4 225.6 94.8C226.3 120.2 227.2 135.3 228.2 140.6C229.6 149 232.3 154.5 236.6 157.6C239.4 159.8 243.5 161 248.8 161L248.8 161.1C254.1 161.1 260.3 158.4 267.3 153.4C272.8 156.7 281.9 158.4 294.4 158.4L294.4 144C287.2 144 282.1 143.7 279.5 143C283.5 137.7 285.7 130.3 285.7 120.9C285.7 117 285 113.2 283.8 109.6C282.2 105 279.5 102.6 276.4 102.6C273 102.6 269.2 106 264.4 112.2C259.3 118.9 256.7 125.9 256.7 132.6C256.7 137.4 257.4 141.2 259.1 144.1C255.8 145.5 252.4 146.5 248.8 146.5L248.8 146.4C245.2 146.4 242.5 145.7 240.6 144.7ZM327.3 17C328.8 20.2 329.5 24 329.5 28.8C329.5 32.9 330.7 51.9 333.2 85.7C335.6 119.5 336.8 138.7 336.8 143.5C336.8 148.6 336.6 153.1 336.1 157.2C336.071 157.579 336.042 157.944 336.014 158.293C335.85 160.335 335.729 161.846 335.9 162.7C336.1 163.4 336.4 163.4 337.1 162.2C337.6 161.3 338 160.1 339 158.4C342.3 149.8 344 139.7 344 128.4C344 124.6 343.1 108 340.9 78.5C338.7 48.8 337.5 33.9 337.5 33.4C337.5 32.2 337.7 31.7 338.2 32.4C342.5 37.2 344.4 38.4 344.4 36.2C344.4 35.7 344.4 34.5 343.9 33.3C343.4 31.4 341.7 26.6 338.6 18.7C335.7 11.2 334 6.7 333.3 5C332.8 4.3 332.6 3.8 332.1 3.8C331.9 3.8 331.6 4.3 331.4 5C328.5 11.2 327.3 15.3 327.3 17ZM378.7 16.1C378.7 18.7 380.8 21.1 385.4 23.5C382 27.1 377 31 370 35.2C364 38.5 358.3 41.9 352.5 45.5C351.1 46.2 350.6 47 350.6 47.2C350.6 47.2 350.6 47.4 350.8 47.4C351 47.4 352 47.2 353.2 46.7C360.9 43.9 365.2 42.2 366.2 41.7C369.8 40.3 373.8 37.6 378.4 34.5C382.2 31.6 385.4 28.5 388 24.9C390.2 26.1 391.6 27.3 392.1 28.3C394.2 25.5 395.2 23.3 395.2 22.1C394.7 21.1 393.3 19.9 390.9 18.7C392.1 15.3 392.6 12.4 392.6 9.80002C392.6 7.00002 391.9 5.30002 390.2 4.80002C388.3 4.10001 385.9 5.10001 383 7.70001C380.1 10.1 378.7 13 378.7 16.1ZM124 12C124 12.5 123.8 13.4 123.5 14.4C123 15.8 122.5 16.6 121.8 16.6C121.6 16.6 121.1 15.9 120.1 14.9C119.4 13.9 118.4 13.5 117.7 13.5C115.8 13.5 113.9 18.1 112.2 27.2C111.5 31.3 110.8 33.9 109.8 35.6C109.1 36.8 108.6 37.3 108.1 37.3C107.9 37.3 107.6 36.8 107.6 35.9C107.6 34.2 106.6 31.1 104.7 26.5C103 21.7 101.6 19.5 100.9 19.5C100.4 19.5 99.9 19.5 99.9 20C99.7 20.2 99.2 20.5 98.5 20.5C97.5 20.5 96.3 19.8 94.9 18.6C94.3829 18.0828 93.9885 17.6202 93.7069 17.2173C93.4113 17.8538 93.0403 18.5824 92.6 19.4C90.2 24 86.8 27.6 82.5 30.7C77.9 34.1 73.9 36.5 70.3 38.1C69.6 38.6 65.3 40.3 57.3 43.1C56.1 43.6 55.4 43.8 54.9 43.8C54.7 43.8 54.7 43.6 54.7 43.6C54.7 43.4 55.4 42.6 56.6 41.9C63.3 38.3 72.4 32.5 84.2 24.6C88.8523 21.2077 91.7198 18.1911 93.1665 15.8235C93.1157 16.1426 93.2845 16.6129 93.7069 17.2173C94.3513 15.8297 94.6371 14.8799 94.5 14.4C94.7 14.4 94.5 14.2 94.5 14.2C94.3 14.2 93.8 14.6 93.3 15.6C93.2569 15.6738 93.2124 15.7483 93.1665 15.8235C93.1735 15.7794 93.1847 15.7383 93.2 15.7C95.4 11.6 96.6 9.70001 97 9.70001C99.6 9.70001 102.3 11.1 104.4 14.5C106.6 17.6 108 21.9 109 27L109 28C109.109 28.1094 109.159 28.1589 109.181 28.1487C109.2 28.1403 109.2 28.0907 109.2 28C109.2 28 109.4 27.8 109.7 27C110.2 24.1 111.1 19.3 112.8 13.1C114.7 8.80002 116.6 6.60002 119 6.60002C120 6.60002 121.2 7.30002 122.4 8.80002C123.5 10.1 124 11.1 124 12ZM433.3 26.9C433.3 26.9 433.1 27.2 433.1 27.4C431.5 30.3 430 31.9 428.4 32C426.3 32 425.3 29.8 425.3 26C425.3 22.9 426.5 17.8 428.9 10.4C429.4 8.7 429.6 7.7 429.6 7.5C429.3 7.5 428.9 8.40001 427.9 10.1C424.1 17.1 422.4 24 422.4 30.5C422.4 35.8 423.9 38.4 427 38.4C430.1 38.4 432.3 34.8 433.5 27.6C433.7 27.4 433.7 27.1 433.5 26.9C433.5 26.8093 433.5 26.7598 433.481 26.7513C433.459 26.7411 433.409 26.7907 433.3 26.9ZM80.6 56.4C121.2 41 162.4 25.7 204.7 9.8C204.902 9.74225 205.088 9.67615 205.249 9.61857C205.647 9.47677 205.9 9.38664 205.9 9.60001C206.1 9.60001 206.1 10.1 205.9 10.8C204.9 13 204.2 14.2 203.7 14.6C165.1 29 123.1 45.1 78.2 63.1C78.7 61 79.4 58.8 80.6 56.4ZM388.5 13C388.8 14.4 388.8 15.9 388.3 17.3C384.7 15.6 382.7 14.2 382.7 12.9C382.7 12.5 383.1 12 384.1 11.5C385.1 11 385.8 10.8 386.3 10.8C387.5 10.8 388.3 11.6 388.5 13ZM267.1 14.7C272.1 17.5 274.5 19.7 274.5 20.9C274 21.9 272.8 22.8 271.2 23.6C269.5 24.5 268.1 25 266.9 25C265.4 25 264.7 24 264.7 22.6C264.7 20.2 265.4 17.6 267.1 14.7ZM188.6 68.7C193.4 68.7 198.4 67.7 204.2 66.1C205.6 65.6 206.4 65.6 206.4 65.9C206.4 66.1 205.9 66.6 204.7 67.6C199.9 71.9 193.4 74.3 185.7 74.3C183.5 74.3 181.4 73.6 179.9 72.4C178.5 71.2 177.7 69.5 177.7 67.6C177.7 62.6 179.9 57.3 184.2 51.8C180.4 50.6 178.4 48.7 178.4 45.8C178.4 43.2 179.8 40.3 183 36.9C186.1 33.5 188.5 31.9 190.4 31.9C190.9 31.9 191.4 32.1 191.8 33.1C192.3 33.8 192.5 34.5 192.5 35.5C192.5 36 192 36.9 191.1 38.4C190.1 39.8 189.4 40.3 189.4 40.1C188.9 38.7 188.2 37.9 186.8 37.9C186.1 37.9 185.4 38.4 184.4 39.6C183.2 40.8 182.7 41.8 182.7 42.5C183.9 44.4 186.1 45.6 188.9 45.6C189.9 45.6 191.5 44.6 193.5 42.7C194.9 41.7 196.1 40.5 197.3 39.3C197.8 39.1 198 39.3 198 40.3C198 42.7 197 44.9 195.6 47.3C189.1 51.6 184.3 56.7 181.2 62.2C180.7 63.4 180.5 64.4 180.5 65.1C180.7 67.2 183.3 68.7 188.6 68.7ZM411.8 61.2C436 52.1 461.2 43 487.2 33.4C487.402 33.3422 487.588 33.2761 487.749 33.2186C488.147 33.0768 488.4 32.9866 488.4 33.2C488.6 33.2 488.6 33.7 488.4 34.4C487.4 36.6 486.7 37.8 486.2 38.2C486 38.4 473.7 43 450 51.9C425.8 60.8 412.1 66.3 409.4 68C409.9 65.8 410.6 63.6 411.8 61.2ZM542.3 62.4C539.9 68.2 538.7 72.7 538.7 76.1C538.7 80.2 539.7 82.3 541.8 82.3C543 82.3 544.4 80.6 546.1 77.7C546.3 77.5 546.3 77.2 546.6 77C546.6 77 546.8 77 546.8 77.2L546.8 77.9C545.4 85.1001 543.2 88.7 540.3 88.7C537.2 88.7 535.7 86.1 535.7 80.8C535.7 78.2 536.2 74.8 537.6 70.5C539 66.2001 539.8 64 539.8 63.8C539.8 63.3 538.8 62.4 536.7 61.2C532.9 66.2 527.6 71 520.9 75.1C516.3 77.7 511.8 80.1 507 82.1C498.1 85.7 492.8 87.6 491.6 88.3C490.4 88.8 489.7 89 489.2 89C489 89 489 88.8 489 88.8C489 88.3 489.5 87.8 490.9 86.9C498.6 82.6001 506 78.3 513.7 73.9C523.8 68.1001 530.7 63.3 534.1 59.7C529.5 57.3 527.4 54.9 527.4 52.3C527.4 49.2 528.8 46.3 531.7 43.7C534.6 41.3 537 40.3 538.9 41.1C540.3 41.6 541.3 43.3 541.3 46.1C541.3 48.7 540.8 51.6 539.6 54.7C542 56.1 543 57.6 543 59C543.1 59.8 542.8 61 542.3 62.4ZM245 59.8C258.7 55 273.1 49.7 288.2 44.2C288.585 44.123 288.852 44.0311 289.045 43.9644C289.354 43.8579 289.477 43.8155 289.6 44C289.8 44 289.8 44.5 289.4 45.2C288.7 47.4 288 48.6 287.5 49C274.5 53.6 259.7 59.3 242.6 66.5C243.1 64.3 243.8 62.2 245 59.8ZM19.1 54.5C17 51.1 14.6 49.7 11.7 49.7C11.5 49.7 10.7 50.4 9.69997 52.3C8.49998 54.3 7.99998 55.5 7.99998 55.7C7.99998 56.4 8.49998 57.4 9.89998 58.6C11.4 59.8 12.3 60.5 13.3 60.5C14 60.5 14.3 60.2 14.5 60C14.8 59.5 15 59.5 15.5 59.5C16.5 59.5 17.7 61.7 19.6 66.5C21.5 71.1 22.4 74.2 22.2 75.9C22.4 76.9 22.4 77.6 22.9 77.6C23.4 77.6 23.9 76.9 24.6 75.9C25.3 74.3 26.3 71.4 27 67.3C28.7 58.2 30.4 53.6 32.3 53.6C33.2 53.6 34.2 54 34.9 55C35.9 56 36.4 56.7 36.6 56.7C37 56.7 37.5 55.9 38 54.5C38.5 53.5 38.5 52.6 38.5 52.1C38.5 51.1 38.1 50.1 37.1 48.7C36.1 47.2 34.9 46.5 33.7 46.5C31.5 46.5 29.6 48.7 27.7 53C26 59.3 24.8 64.1 24.3 67.2C24.3 67.7 24.1 68 24.1 68.2L23.9 68.2C23.9 67.9 23.9 67.7 23.7 67.2C22.9 61.9 21.3 57.6 19.1 54.5ZM537.1 53.5C537.6 52.1 537.6 50.6 537.3 49.2C537.1 47.8 536.3 47 535.1 47C534.6 47 533.9 47.2 532.9 47.7C531.9 48.2 531.5 48.7 531.5 49.1C531.5 50.4 533.5 51.9 537.1 53.5ZM381.3 52.1L377.5 60C376.5 59.1 374.3 57.4 371.3 55.5C368.2 53.3 366.5 52.1 366 52.1C365.7 52.1 365.2 52.6 365 53.1L360.4 62.7C360.2 63.2 360.2 63.5 360.4 63.7C364.3 66.1 368.1 68.7 371.7 71.6C372.2 71.9 372.7 71.6 372.9 70.9C374.4 68.7 375.6 66.1 377 63.2C381.1 65.8 384.7 68.2 387.8 70.6C388.2 70.8 388.7 70.8 389.2 70.1C392.3 64.8 394 61.2 394 59.5C394 59 392.1 57.6 388.5 55.2C384.7 52.6 382.8 51.4 382.3 51.4C381.8 51.4 381.5 51.6 381.3 52.1ZM460 68.9C457.9 65.5 455.5 64.1 452.6 64.1C452.3 64.1 451.6 64.8 450.6 66.7C449.4 68.7 448.9 69.9 448.9 70.1C448.9 70.8 449.4 71.8 450.8 73C452.3 74.2 453.2 74.9 454.2 74.9C454.9 74.9 455.2 74.6 455.4 74.4C455.7 73.9 455.9 73.9 456.4 73.9C457.4 73.9 458.6 76.1 460.5 80.9C462.4 85.5 463.3 88.6 463.1 90.3C463.3 91.3 463.3 92 463.8 92C464.3 92 464.8 91.3 465.5 90.3C466.2 88.7 467.2 85.8 467.9 81.7C469.6 72.6 471.3 68 473.2 68C474.1 68 475.1 68.4 475.8 69.4C476.8 70.4 477.3 71.1 477.5 71.1C477.9 71.1 478.4 70.3 478.9 68.9C479.4 67.9 479.4 67 479.4 66.5C479.4 65.5 479 64.6 478 63.1C477 61.6 475.8 60.9 474.6 60.9C472.4 60.9 470.5 63.1 468.6 67.4C466.9 73.7 465.7 78.5 465.2 81.6C465.2 82.1 465 82.4 465 82.6L464.8 82.6C464.8 82.3 464.8 82.1 464.6 81.6C463.8 76.3 462.2 72 460 68.9ZM400.3 78C400.3 81.8 398.4 87.1 394.5 93.6C392.1 97.7 388.5 103.2 383.7 110.4C388.5 115.9 391.9 121 393.5 125.3C394.5 128.4 395.2 132.5 395.2 137.1C395.2 139 394.7 141.4 393.8 144.5C393.1 147.4 392.1 149.5 391.2 151C389.3 153.9 386.2 156.8 381.4 159.6C376.4 163 372 164.6 368.4 164.6C362.6 164.6 359.8 160.3 359.8 151.6C359.8 145.8 360.8 140.1 362.7 134.8C364.6 130.2 367.7 124.2 372.8 116.3C368.5 112.2 363.9 106.5 358.9 99.3C358.4 98.6 357.2 97.4 355.3 95.5C354.3 94.5 353.9 93.3 353.9 91.9C353.9 89.7 354.1 87.3 354.6 84.5C355.3 81.6 355.8 80.4 356 80.4C356.7 80.4 358.9 81.6 363 84.2C366.8 86.8 370 88.8 371.9 90.4C373.1 91.1 373.6 91.8 373.6 91.8L373.6 92C373.6 92.2 372.9 92.5 371.2 92.5C368.1 92.5 366.4 92.7 366.4 93C366.4 93.2 366.9 93.7 367.8 94.9C371.6 99.7 375.5 103.3 379.6 106.2C380.6 104.8 383.9 100 389.2 91.8C393.8 84.8 396.4 80 397.6 77.2C398.8 74.3 399.5 73.1 400 73.1C400 73.1148 400.007 73.1605 400.018 73.2383C400.082 73.6849 400.3 75.1898 400.3 78ZM276.1 75.6L272.3 83.5C271.4 82.6 269.2 80.9 266.1 79C263 76.8 261.3 75.6 260.8 75.6C260.5 75.6 260 76.1 259.8 76.6L255.2 86.2C255 86.7 255 87 255.2 87.2C259.1 89.6 262.9 92.2 266.5 95.1C267 95.4 267.5 95.1 267.7 94.4C269.2 92.2 270.4 89.6 271.8 86.7C275.9 89.3 279.5 91.7 282.6 94.1C283 94.3 283.5 94.3 284 93.6C287.1 88.2999 288.8 84.7 288.8 83C288.8 82.5 286.9 81.1 283.3 78.7C279.5 76.1 277.6 74.9 277.1 74.9C276.6 74.9 276.3 75.1 276.1 75.6ZM183.1 125.8L187.9 115.7C188.6 114.3 188.8 113.3 188.6 112.9C188.3 112.7 187.4 112.7 185.7 113.4C185 113.7 176.1 117.8 158.8 125.2C149.9 129.3 144.2 131.2 141.3 131.2C132.2 131.2 123.8 126.9 115.6 118.5C108.6 111.3 104.8 104.4 103.8 97.9C104.6 95.5 108.9 93.1 116.8 90.7C125.2 88.3 133.8 87.1 142.7 87.1C149.1 87.1 154.7 87.9 159.7 89.3C161.4 89.8 162.6 90 163.1 90C163.3 90 163.3 90 163.3 89.8C163.3 89.3 162.1 88.1 159.7 86.2C156.8 83.8 152.7 81.9 147.9 80C141.9 77.6 135.9 76.4 130.1 76.4C120.7 76.4 112.8 79.5 106.1 85.5C100.4 90.5 97.5 97.2 97.5 105.4C97.5 113.6 100.1 121.3 105.4 128C109.7 133.6 114.7 137.9 120.5 141C113.3 144.6 104.9 146.3 94.8 146.3L94.8 146C90.3 146 86.7 145.3 83.8 144.1C80.9 142.6 78.2 140 75.6 136.4C73.7 133.2 72 130.1 70.1 127C68 123.9 65.3 122.2 62.7 122.2C59.4 122.2 55.3 124.1 51.2 128.4C46.9 132.7 43.3 137.7 40.4 143.5C37.1 150.7 33.7 157.9 30.6 165.1C27.2 171.1 23.8 174.2 20 174.2C10.4 174.2 5.79999 163.9 5.79999 143.5C5.79999 139.2 6.09999 133.9 6.79999 127.7C7.12467 126.142 7.11201 125.089 6.87155 124.543C8.79504 123.141 10.2178 119.793 11.1 114.5C11.3 114.3 11.3 114 11.1 113.8C11.1 113.709 11.1 113.66 11.0813 113.651C11.0589 113.641 11.0093 113.691 10.9 113.8C10.9 113.8 10.7 114.1 10.7 114.3C9.1 117.1 7.6 118.8 5.99999 118.9C3.89999 118.9 2.89999 116.7 2.89999 112.9C2.89999 109.8 4.09999 104.7 6.49999 97.3C6.99999 95.6 7.19999 94.6 7.19999 94.4C6.89999 94.4 6.49999 95.3 5.49999 97C1.69999 104 -7.62939e-06 110.9 -7.62939e-06 117.4C-7.62939e-06 122.7 1.49999 125.3 4.59999 125.3C4.90089 125.3 5.19331 125.266 5.47716 125.198C5.28868 125.659 5.09434 126.261 4.89999 127C2.99998 132.8 1.99998 140.7 1.99998 150.3C1.99998 158.2 3.39999 165.9 6.79999 173.3C10.7 181.7 15.2 186 20.5 186C24.1 186 27.7 183.6 30.8 178.8C33 175.4 35.4 170.4 38 163.4C40.9 156.4 42.8 152.1 43.8 150.4C50 141.1 55.8 136.5 61.3 136.5C63 136.5 64.7 137.7 66.6 140.6C68.6 143.9 70.5 147.3 72.4 150.4C75.6 155.2 79.4 158.4 84.2 159.8C86.3706 160.293 89.9039 160.787 94.8 160.8L94.8 160.9C103 160.9 113.8 157.8 127 152C127.5 151.8 136.6 147.7 153.9 139.8C164.9 134.7 173.8 130.9 180.5 128C181.7 127.5 182.6 126.8 183.1 125.8ZM56.1 90.3L59.9 82.4C60.1 81.9 60.4 81.7 60.9 81.7C61.4 81.7 63.3 82.9 67.1 85.5C70.7 87.9 72.6 89.3 72.6 89.8C72.6 91.5 70.9 95.1 67.8 100.4C67.3 101.1 66.8 101.1 66.4 100.9C63.3 98.5 59.7 96.1 55.6 93.5C54.2 96.4 53 99 51.5 101.2C51.3 101.9 50.8 102.2 50.3 101.9C46.7 99 42.9 96.4 39 94C38.8 93.8 38.8 93.5 39 93L43.6 83.4C43.8 82.9 44.3 82.4 44.6 82.4C45.1 82.4 46.8 83.6 49.9 85.8C53 87.6 55.1 89.3 56.1 90.3ZM417.7 106.4C418.7 107.6 419.4 109.2 419.9 111.4C421.1 115.5 423.5 121.2 426.8 128.3C429.7 134.6 431.1 137.9 431.1 138.4C431.1 140.4 428.2 143.5 422.7 147.8C417.86 151.397 411.567 155.507 403.819 160.074C404.547 155.585 405.834 150.182 407.7 143.8C408 142.3 408.2 141.1 408.2 140.4C408.2 139.9 408.2 139.7 408 139.7C407.5 139.7 407 140.7 405.8 143.1C403.419 149.529 401.676 155.781 400.655 161.919C397.431 163.776 393.98 165.705 390.3 167.7C380.9 172.8 369.2 178.3 355 184.3C334.6 192.9 323.5 197.7 321.6 198.7C316.3 201.1 313.7 202.6 313.7 202.8C313.7 203 313.7 203 314.2 203C315.2 203 317.6 202.7 321.4 202C325 201.5 334.1 199.4 348.5 196C362.2 192.7 369.4 191 369.9 191C372.5 191 380.9 186.9 395.3 178.5C396.783 177.669 398.227 176.843 399.632 176.022C399.903 183.189 401.879 189.367 405.4 194C409.7 200 415.9 203.1 424.1 203.1C433.7 203.1 444.7 198.1 457.7 188.5C466.4 182 474.3 174.5 481.5 165.9C484.6 162.3 487.2 157.7 488.9 152.2C490.4 147.8 491.1 144.5 491.1 141.6L491.6 141.1L491.6 127.9C490.6 128.4 490.1 128.4 489.9 128.4C487.5 123.4 484.6 119.3 481.5 115.7C477.9 112.1 474.8 110.2 471.7 110.2C467.6 110.2 463.8 112.3 460.2 116.4C456.4 121.2 454.7 126.5 454.7 132.5C454.7 140.4 460.5 144.5 472 144.5C477.3 144.5 481.6 143.8 484.5 142.8C485 144.5 485.5 146.2 485.5 147.6C485.5 149.8 481.9 154.1 474.9 160.9C467.2 168.1 459.3 174.1 451.1 179.1C440.7 185.4 432.1 188.5 424.9 188.5C416.5 188.5 410.5 185.8 406.7 180.8C405.277 178.665 404.276 176.249 403.697 173.594C415.915 166.129 424.845 159.094 430.6 152.6C432.6 150.4 434 147.3 435.2 143.2C436.1 139.6 436.6 136.7 436.6 134.3C436.6 129.2 435.1 123.7 432.5 117C430.8 113.2 428.9 109.1 427.2 105C430.1 105.7 432 106.2 432.7 106.2C433.2 106.2 433.4 105.9 433.4 105.7C433.4 105.2 432.7 104.3 431 102.6C427 98.5 423.4 94.6 420 90.8C419.5 90.3 419.2 90.1 419 90.1C418.5 90.1 418.2 90.6 418 91.8C417.5 93 417.3 95.2 416.8 98.3C416.3 101.6 416.3 103.3 416.3 103.8C416.5 104.2 417 105 417.7 106.4ZM201.8 112.1C201.3 109.9 200.6 108.3 199.6 107.1C198.9 105.7 198.4 104.9 198.2 104.5C198.2 104 198.2 102.3 198.7 99C199.2 95.9 199.4 93.7 199.9 92.5C200.1 91.3 200.4 90.8 200.9 90.8C201.1 90.8 201.4 91 201.9 91.5C205.3 95.3 208.9 99.2 212.9 103.3C214.6 105 215.3 105.9 215.3 106.4C215.3 106.6 215.1 106.9 214.6 106.9C213.9 106.9 212 106.4 209.1 105.7C210.8 109.8 212.7 113.9 214.4 117.7C217 124.4 218.5 129.9 218.5 135C218.5 137.4 218 140.3 217.1 143.9C215.9 148 214.5 151.1 212.5 153.3C205.5 161.2 193.8 169.9 177.2 179.2C162.8 187.6 154.4 191.7 151.8 191.7C151.3 191.7 144.1 193.4 130.4 196.7C116 200.1 106.9 202.2 103.3 202.7C99.5 203.4 97.1 203.7 96.1 203.7C95.6 203.7 95.6 203.7 95.6 203.5C95.6 203.3 98.2 201.8 103.5 199.4C105.4 198.4 116.5 193.6 136.9 185C151.1 179 162.8 173.5 172.2 168.4C186.4 160.7 197.2 154 204.6 148.5C210.1 144.2 213 141.1 213 139.1C213 138.6 211.6 135.3 208.7 129C205.4 121.9 203 116.2 201.8 112.1ZM517.6 112.9C516.9 112.9 515.9 113.3 514.7 114.3C510.9 117.6 507.1 120.5 503.1 122.5C501.9 123.3 497.8 125.2 491.6 128.3L491.6 141.5C500 137.6 506.5 133.6 510.3 129C510.3 140 515.1 145.8 525.2 145.8C533.6 145.8 540.5 141 545.8 131.4C549 137.2 552.6 140.3 556.4 140.3C562.2 140.3 566.5 137.7 569.4 132.4C572.1 128 573.5 123 573.5 117C573.5 113.1 572.3 109.8 570.4 106.9C569.7 105.9 569.2 105.7 568.7 105.7C568.2 105.7 567.7 106.5 567.5 107.9C566.1 112.4 565.1 115.8 564.9 117.7C567 121.3 568 123.3 568 123.5C567 125.1 564.9 126.1 561.5 126.1C558.9 126.1 556.5 125.1 554.8 123.7C552.9 122.3 551.9 120.6 551.9 118.9C551.9 119.4 552.6 117.5 553.6 113.4C554.1 111.3 553.9 110.3 552.9 110.3C552.2 110.3 551.5 110.7 550.5 111.7C548.1 115.6 545.5 119.4 543.1 123.5C539.2 128.6 534.2 131.2 528.2 131.2C520.7 131.2 516.9 128.3 516.9 123C516.9 121.8 517.1 120.3 517.6 118.4C518.1 116.5 518.3 115 518.3 114.3C518.3 113.4 518.1 112.9 517.6 112.9ZM280.3 130.3C280.3 128.4 279.6 125.5 278.1 122.1C276.4 118.3 275 116.3 273.8 116.3C272.4 116.3 270 118 266.8 121.3C263.7 124.7 261.8 127.5 260.6 130.2C261.1 131.6 262.3 133.3 264 135C265.7 136.9 267.6 138.1 269.5 138.8C274.7 136.3 278.3 133.5 280.3 130.3ZM390.9 137.1C388.3 131.8 383.7 126.3 377.5 121C375.3 123.2 372.7 127.2 369.3 133C365.5 139.5 363.8 143.6 363.8 145.7C363.8 148.6 365.7 150 370 150C371.9 150 374.3 149.3 377.4 148.1C381.7 146.2 385.8 143.5 389.2 140.2C390.7 138.7 391.1 137.8 390.9 137.1ZM478 130.1C474.4 125.5 471.3 123.4 468.4 123.4C464.1 123.4 462.2 124.4 462.2 126.8C462.2 129.7 465.1 131.1 470.8 131.1C472.83 131.1 475.03 130.674 477.4 130.216C477.599 130.177 477.799 130.139 478 130.1ZM503.9 193.9C501.3 194.6 499.8 195.1 499.3 195.1L499.3 194.9C499.3 194.9 500.3 194.2 502.2 193C504.1 191.8 507 189.9 511.1 186.8C513 184.9 515.9 181.8 519.5 177.4C521.9 174.5 524.5 171.9 527.4 170C531 167.4 534.4 166.2 538 166.2C538.7 166.2 539.9 166.4 541.4 166.9C542.6 167.4 543.8 167.6 544.8 167.6C546.7 167.6 548.2 166.9 549.4 165.4C550.1 164 551.1 162.8 552 161.3C552.5 160.3 553.2 159.9 553.7 159.9C553.9 159.9 553.9 160.1 553.9 160.6C553.9 161.1 553.7 162.3 553.2 163.7C552.7 164.4 554.6 164.7 558.2 164.7C558.7 164.7 558.9 164.7 558.9 164.5C558.9 164.5 558.7 163.5 558.2 161.9C558 161.4 558.2 160.7 558.9 159.7L558.98 159.564C559.922 157.963 560.308 157.305 560.6 157.5C561.6 158.2 562 159.7 562 161.3C562 163 561.5 164.7 560.8 166.6C560.1 168.8 559.4 170 558.9 170.4C557.2 171.4 554.6 171.1 551 169.4C548.1 172.3 545.2 174 542.4 174C541.7 174 540.5 173.8 539.3 173.3C538.1 172.8 537.1 172.6 536.4 172.6C531.6 172.6 526.6 174.8 521.5 179.6L510.7 190.4C508.5 192 506.3 193.2 503.9 193.9ZM272.1 181C270 177.6 267.6 176.2 264.7 176.2C264.4 176.2 263.7 176.9 262.7 178.8C261.5 180.8 261 182 261 182.2C261 182.9 261.5 183.9 262.9 185.1C264.4 186.3 265.3 187 266.3 187C267 187 267.3 186.7 267.5 186.5C267.8 186 268 186 268.5 186C269.5 186 270.7 188.2 272.6 193C274.5 197.6 275.4 200.7 275.2 202.4C275.4 203.4 275.4 204.1 275.9 204.1C276.4 204.1 276.9 203.4 277.6 202.4C278.3 200.8 279.3 197.9 280 193.8C281.7 184.7 283.4 180.1 285.3 180.1C286.2 180.1 287.2 180.5 287.9 181.5C288.9 182.5 289.4 183.2 289.6 183.2C290 183.2 290.5 182.4 291 181C291.5 180 291.5 179.1 291.5 178.6C291.5 177.6 291.1 176.6 290.1 175.2C289.1 173.7 287.9 173 286.7 173C284.5 173 282.6 175.2 280.7 179.5C279 185.8 277.8 190.6 277.3 193.7C277.3 194.2 277.1 194.5 277.1 194.7L276.9 194.7C276.9 194.4 276.9 194.2 276.7 193.7C275.9 188.4 274.3 184.1 272.1 181ZM225.3 181.2C210.2 186.7 195.8 192 182.1 196.8C180.9 199.2 180.2 201.4 179.7 203.5C196.8 196.3 211.6 190.6 224.6 186C225.1 185.6 225.8 184.4 226.5 182.2C226.9 181.5 226.9 181 226.7 181C226.577 180.816 226.454 180.858 226.145 180.964C225.952 181.031 225.685 181.123 225.3 181.2ZM84.2 182.4C69.1 187.9 54.7 193.2 41 198C39.8 200.4 39.1 202.6 38.6 204.7C55.7 197.5 70.5 191.8 83.5 187.2C84 186.8 84.7 185.6 85.4 183.4C85.8 182.7 85.8 182.2 85.6 182.2C85.477 182.016 85.354 182.058 85.0451 182.164C84.8515 182.231 84.5851 182.323 84.2 182.4Z" id="Group" fill="#595959" fill-rule="evenodd" stroke="none" clip-path="url(#clip_1)" />
  </g>
</svg>