<?xml version="1.0" encoding="utf-8"?>
<svg width="474.2001px" height="201.127px" viewBox="0 0 474.2001 201.127" version="1.1" xmlns:xlink="http://www.w3.org/1999/xlink" xmlns="http://www.w3.org/2000/svg">
  <defs>
    <path d="M474.2 0L474.2 0L474.2 201.127L0 201.127L0 0L474.2 0Z" id="path_1" />
    <clipPath id="clip_1">
      <use xlink:href="#path_1" clip-rule="evenodd" fill-rule="evenodd" />
    </clipPath>
  </defs>
  <g id="Surah_34_of_114_(modified)">
    <path d="M474.2 0L474.2 0L474.2 201.127L0 201.127L0 0L474.2 0Z" id="Surah_34_of_114_(modified)" fill="none" stroke="none" />
    <path d="M267.8 5.42693C268.3 5.12692 269 3.72691 270 1.32692C270.5 0.626923 270.5 0.126923 270.4 0.126923C270.197 -0.0760708 269.948 -0.00435816 269.499 0.125204C269.284 0.18712 269.023 0.262248 268.7 0.32692L182.1 32.7269C164.6 39.1269 144.9 46.8269 122.8 55.7269C103.4 63.7269 92.8 68.0269 91.6 68.7269C90 69.9269 88.3 71.9269 86.6 74.5269C84.9 77.1269 84.2 79.3269 84.2 81.2269C84.2 84.0269 87.1 86.2269 93.1 87.4269C93.8 87.4269 94.5 87.4269 94.5 87.2269C94.7 87.0269 94.7 86.0269 94.7 84.6269C94.7 82.9269 94.5 81.9269 94 81.7269C91.6 80.7269 89.7 80.0269 88.5 79.5269C87.3 78.8269 86.8 78.3269 86.8 77.8269C86.8 77.4269 88.5 75.9269 92.1 74.0269C94.5 72.8269 108 67.3269 132.2 57.7269C155.7 48.4269 172.3 41.9269 182.1 38.3269C238.5 17.2269 267.1 6.12692 267.8 5.42693ZM183.1 8.52692C183.4 7.52692 183.6 6.62692 183.6 6.12692C183.6 5.22693 183.1 4.22693 182 2.92694C180.8 1.42694 179.6 0.726944 178.6 0.726944C176.2 0.726944 174.3 2.92694 172.4 7.22694C170.7 13.4269 169.8 18.2269 169.3 21.1269C169 21.9269 168.8 22.1269 168.8 22.1269C168.8 22.2176 168.8 22.2672 168.781 22.2756C168.759 22.2858 168.709 22.2363 168.6 22.1269L168.6 21.1269C167.6 16.0269 166.2 11.7269 164 8.62694C161.9 5.22693 159.2 3.82693 156.6 3.82693C156.231 3.82693 155.181 5.444 153.293 8.91371C153.136 9.12193 152.968 9.39047 152.8 9.72693C151.4 12.1269 148.5 15.3269 143.7 18.7269C131.9 26.6269 122.8 32.4269 116.1 36.0269C114.9 36.7269 114.2 37.5269 114.2 37.7269C114.2 37.7269 114.2 37.9269 114.4 37.9269C114.9 37.9269 115.6 37.7269 116.8 37.2269C124.8 34.4269 129.1 32.7269 129.8 32.2269C133.4 30.6269 137.4 28.2269 142 24.8269C146.3 21.7269 149.7 18.1269 152.1 13.5269C152.561 12.6718 152.945 11.914 153.247 11.2571C153.532 11.6801 153.945 12.1721 154.5 12.7269C155.9 13.9269 157.1 14.6269 158.1 14.6269C158.8 14.6269 159.3 14.3269 159.5 14.1269C159.5 13.6269 160 13.6269 160.5 13.6269C161.2 13.6269 162.6 15.8269 164.3 20.6269C166.2 25.2269 167.2 28.3269 167.2 30.0269C167.2 30.9269 167.5 31.4269 167.7 31.4269C168.2 31.4269 168.7 30.9269 169.4 29.7269C170.4 28.0269 171.1 25.4269 171.8 21.3269C173.5 12.2269 175.4 7.62692 177.3 7.62692C178 7.62692 179 8.02692 179.7 9.02692C180.7 10.0269 181.2 10.7269 181.4 10.7269C182.1 10.7269 182.6 9.92691 183.1 8.52692ZM153.247 11.2571C152.814 10.6129 152.679 10.1288 152.8 9.82693C152.97 9.50937 153.135 9.20501 153.293 8.9137C153.603 8.50305 153.867 8.32693 154 8.32693C154 8.32693 154.2 8.52693 154 8.52693C154.134 8.9967 153.863 9.91684 153.247 11.2571ZM279.3 14.1269C279.3 16.7269 281.4 19.1269 286 21.5269C282.7 25.1269 277.7 28.9269 270.6 33.2269C264.6 36.5269 258.9 39.9269 253.1 43.5269C251.7 44.2269 251.2 45.0269 251.2 45.2269C251.2 45.2269 251.2 45.4269 251.4 45.4269C251.6 45.4269 252.6 45.2269 253.8 44.7269C261.5 41.9269 265.8 40.2269 266.8 39.7269C270.4 38.327 274.4 35.627 279 32.5269C282.8 29.6269 286 26.5269 288.6 22.9269C290.8 24.1269 292.2 25.3269 292.7 26.3269C294.8 23.5269 295.8 21.3269 295.8 20.1269C295.3 19.1269 293.9 17.9269 291.5 16.7269C292.7 13.327 293.2 10.427 293.2 7.82695C293.2 5.02695 292.5 3.32695 290.8 2.82695C288.9 2.12694 286.5 3.12694 283.6 5.72694C280.7 8.12694 279.3 11.0269 279.3 14.1269ZM289.1 11.0269C289.4 12.4269 289.4 13.9269 288.9 15.3269C285.3 13.6269 283.4 12.1269 283.3 10.9269C283.3 10.5269 283.7 10.0269 284.7 9.52692C285.7 9.02692 286.4 8.82692 286.9 8.82692C288.1 8.82692 288.9 9.62692 289.1 11.0269ZM330.7 28.2269C330.7 28.2269 330.5 28.5269 330.5 28.7269C328.8 31.6269 327.3 33.3269 325.8 33.3269C323.7 33.3269 322.7 31.1269 322.7 27.3269C322.7 24.2269 323.9 19.1269 326.3 11.7269C326.8 10.0269 327 9.02693 327 8.82693C326.7 8.82693 326.3 9.72694 325.3 11.4269C321.5 18.4269 319.8 25.3269 319.8 31.8269C319.8 37.1269 321.3 39.7269 324.4 39.7269C327.5 39.7269 329.7 36.1269 330.9 28.9269C331.1 28.7269 331.1 28.4269 330.9 28.2269C330.9 28.1363 330.9 28.0867 330.881 28.0782C330.859 28.068 330.809 28.1176 330.7 28.2269ZM93.6 47.2269C92.9 48.4269 92.6 49.1269 92.2 49.1269C91.7 49.1269 91.7 48.1269 92 46.7269C92.2 45.5269 92.5 43.6269 92.5 41.7269C92.5 34.7269 88.7 28.0269 80.7 21.1269C80.2 20.9269 80.2 20.1269 80.7 19.7269L82.9 15.9269C83.1 15.4269 83.4 15.4269 83.9 15.9269C91.6 21.4269 95.4 29.1269 95.4 38.7269C95.2 41.6269 94.5 44.5269 93.6 47.2269ZM68.9 142.227C65.5 140.127 63.1 135.527 61.9 128.827C61.7 126.127 60.9 115.627 60.5 96.8269C60 76.4269 59.1 61.6269 58.1 52.2269C56.4 37.5269 54.2 27.2269 51.1 21.2269C50.6 20.3269 50.1 19.8269 49.9 19.8269C49.4 19.8269 49.2 20.3269 48.7 21.5269C46.8 26.3269 45.8 29.9269 45.8 32.3269C48.5 41.2269 50.4 50.827 51.6 60.6269C52.6 71.427 53.5 86.5269 54 105.727C54.5 122.727 55.2 133.527 56.2 138.127C57.6 146.527 60.3 152.027 64.6 155.127C67.3824 157.313 71.4484 158.512 76.7 158.527L76.7402 158.527L76.8 158.527L76.8 158.527C82.7611 158.489 88.2256 155.09 92.8 148.427C95.9 143.627 98.8 138.827 101.7 134.027C102.2 133.327 102.7 133.327 102.9 134.027C105.1 140.027 108 144.827 111.8 148.227C114.885 151.112 119.949 153.998 126.6 156.588L126.6 156.727C132.4 159.127 137.9 160.527 143.2 160.527C150.2 160.527 157.4 158.527 165.4 154.827C171.4 152.227 176.4 149.027 181 145.227C182.2 144.527 182.9 144.027 183.4 144.027C183.9 144.027 184.1 144.227 184.1 144.727C184.6 154.827 189.6 159.827 199.2 159.827C207.6 159.827 214.5 155.027 219.8 145.427C223.1 151.727 227 154.827 231.3 154.827C237.1 154.827 241.4 152.227 244.5 146.927C246.9 142.827 248.1 137.727 248.1 131.527C248.1 130.527 247.7 128.627 246.7 126.227C245.8 123.827 245.1 122.627 244.1 122.627C243.6 122.627 243.4 123.027 242.9 124.027C241 130.327 240 133.627 240 134.127C240 134.627 240.4 135.327 241.4 136.327C242.3 137.027 242.8 137.827 242.8 138.027C241.6 139.627 239.4 140.627 236.3 140.627C233.7 140.627 231.3 139.727 229.1 138.027C227 136.427 226 134.727 226 133.027C226 133.13 226.106 132.677 226.345 131.656L226.345 131.655L226.345 131.654C226.57 130.69 226.914 129.218 227.4 127.227C227.9 125.327 227.7 124.327 226.7 124.127C226 124.427 225.3 124.827 224.3 125.827C221.9 129.627 219.5 133.527 216.9 137.327C213 142.427 208 145.027 202 145.027C194.1 145.027 190 142.427 190 137.127C190 135.427 190.5 133.327 191.2 131.127C191.9 129.227 191.7 128.227 190.5 128.227C190 128.227 189.1 128.727 188.1 129.427C182.3 134.027 175.8 137.827 168.4 140.727C160.2 144.027 152.5 145.727 145.1 145.727C137.652 145.727 131.486 144.544 126.7 142.373L126.7 142.027C119 138.427 114 135.027 111.3 131.827C108.9 129.227 107.7 125.627 107.7 121.027C107.7 119.127 107.5 118.427 106.5 118.427C106 118.427 105.3 118.927 104.3 119.627C100.4 125.127 96.8 130.427 93 135.727C88.7112 141.013 83.2287 143.912 76.7508 143.927C73.1763 143.921 70.5922 143.222 68.9 142.227ZM312.5 59.2269C336.7 50.1269 361.9 41.0269 387.9 31.4269C388.102 31.3692 388.288 31.3031 388.449 31.2455C388.847 31.1037 389.1 31.0136 389.1 31.2269C389.3 31.2269 389.3 31.7269 389.1 32.4269C388.1 34.6269 387.4 35.8269 386.9 36.2269C386.7 36.4269 374.4 41.0269 350.7 49.9269C326.5 58.8269 312.8 64.3269 310.1 66.0269C310.5 63.7269 311.2 61.6269 312.5 59.2269ZM443 60.4269C440.6 66.2269 439.4 70.7269 439.4 74.1269C439.4 78.2269 440.4 80.327 442.5 80.327C443.7 80.327 445.1 78.6269 446.8 75.7269C447 75.5269 447 75.2269 447.3 75.0269C447.3 75.0269 447.5 75.0269 447.5 75.2269L447.5 75.927C446.1 83.127 443.9 86.7269 441 86.7269C437.9 86.7269 436.4 84.1269 436.4 78.827C436.4 76.2269 436.9 72.827 438.3 68.527C439.7 64.227 440.5 62.027 440.5 61.827C440.5 61.327 439.5 60.427 437.4 59.2269C433.6 64.2269 428.3 69.0269 421.6 73.1269C417 75.7269 412.5 78.1269 407.7 80.1269C398.8 83.7269 393.5 85.6269 392.3 86.327C391.1 86.827 390.4 87.027 389.9 87.027C389.7 87.027 389.7 86.827 389.7 86.827C389.7 86.327 390.2 85.827 391.6 84.927C399.3 80.627 406.7 76.327 414.4 71.927C424.5 66.127 431.4 61.327 434.8 57.7269C430.2 55.327 428.1 52.927 428.1 50.327C428.1 47.2269 429.5 44.327 432.4 41.7269C435.3 39.327 437.7 38.327 439.6 39.1269C441 39.6269 442 41.3269 442 44.1269C442 46.7269 441.5 49.6269 440.3 52.7269C442.7 54.1269 443.7 55.6269 443.7 57.0269C443.7 57.7269 443.5 58.9269 443 60.4269ZM158.8 78.1269C156.2 78.827 154.7 79.327 154.2 79.327L154.2 79.1269C154.2 79.1269 155.2 78.4269 157.1 77.2269C159 76.0269 161.9 74.1269 166 71.0269C167.9 69.1269 170.8 66.0269 174.4 61.6269C176.8 58.7269 179.4 56.1269 182.3 54.2269C185.9 51.6269 189.3 50.427 192.9 50.427C193.6 50.427 194.8 50.627 196.3 51.127C197.5 51.627 198.7 51.827 199.7 51.827C201.6 51.827 203.1 51.127 204.3 49.627C205 48.227 206 47.027 206.9 45.527C207.4 44.527 208.1 44.127 208.6 44.127C208.8 44.127 208.8 44.327 208.8 44.827C208.8 45.327 208.6 46.527 208.1 47.927C207.6 48.627 209.5 48.927 213.1 48.927C213.6 48.927 213.8 48.927 213.8 48.727C213.8 48.727 213.6 47.727 213.1 46.127C212.9 45.627 213.1 44.927 213.8 43.927L213.88 43.7909C214.822 42.1897 215.208 41.5324 215.5 41.727C216.5 42.427 216.9 43.927 216.9 45.527C216.9 47.227 216.4 48.927 215.7 50.827C215 53.027 214.3 54.227 213.8 54.627C212.1 55.627 209.5 55.327 205.9 53.627C203 56.527 200.1 58.227 197.3 58.227C196.6 58.227 195.4 58.027 194.2 57.527C193 57.027 192 56.827 191.3 56.827C186.5 56.827 181.5 59.027 176.4 63.827L165.6 74.6269C163.4 76.2269 161.2 77.4269 158.8 78.1269ZM437.7 51.5269C438.2 50.1269 438.2 48.6269 437.9 47.2269C437.7 45.8269 436.9 45.0269 435.7 45.0269C435.2 45.0269 434.5 45.2269 433.5 45.7269C432.5 46.2269 432.1 46.7269 432.1 47.1269C432.2 48.4269 434.1 49.8269 437.7 51.5269ZM281.9 50.1269L278.1 58.0269C277.2 57.0269 275 55.3269 271.9 53.527C268.8 51.327 267.1 50.127 266.6 50.127C266.3 50.127 265.8 50.627 265.6 51.127L261 60.727C260.8 61.227 260.8 61.527 261 61.727C264.9 64.127 268.7 66.727 272.3 69.627C272.8 69.927 273.3 69.627 273.5 68.927C275 66.7269 276.2 64.1269 277.6 61.2269C281.7 63.827 285.3 66.2269 288.4 68.6269C288.8 68.827 289.3 68.827 289.8 68.1269C292.9 62.8269 294.6 59.2269 294.6 57.5269C294.6 57.0269 292.7 55.6269 289.1 53.2269C285.3 50.6269 283.4 49.4269 282.9 49.4269C282.4 49.4269 282.1 49.6269 281.9 50.1269ZM19.9 69.7269C19.9 69.5269 20.1 69.2269 20.1 69.2269C20.2093 69.1176 20.2589 69.068 20.2814 69.0782C20.3 69.0867 20.3 69.1362 20.3 69.2269C20.5 69.4269 20.5 69.7269 20.3 69.9269C19.1 77.1269 16.9 80.7269 13.8 80.7269C10.7 80.7269 9.2 78.1269 9.2 72.8269C9.2 66.3269 10.9 59.4269 14.7 52.4269C15.7 50.7269 16.1 49.8269 16.4 49.8269C16.4 50.0269 16.2 51.0269 15.7 52.7269C13.3 60.1269 12.1 65.2269 12.1 68.3269C12.1 72.1269 13.1 74.3269 15.2 74.3269C16.8 74.3269 18.2 72.6269 19.9 69.7269ZM360.4 67.1269C358.3 63.7269 355.9 62.3269 353 62.3269C352.8 62.3269 352 63.0269 351 64.927C349.8 66.927 349.3 68.1269 349.3 68.327C349.3 69.0269 349.8 70.0269 351.2 71.2269C352.7 72.4269 353.6 73.1269 354.6 73.1269C355.3 73.1269 355.6 72.827 355.8 72.6269C356.1 72.1269 356.3 72.1269 356.8 72.1269C357.8 72.1269 359 74.327 360.9 79.1269C362.8 83.7269 363.7 86.8269 363.5 88.5269C363.7 89.5269 363.7 90.2269 364.2 90.2269C364.7 90.2269 365.2 89.5269 365.9 88.5269C366.6 86.9269 367.6 84.0269 368.3 79.9269C370 70.8269 371.7 66.2269 373.6 66.2269C374.5 66.2269 375.5 66.6269 376.2 67.6269C377.2 68.6269 377.7 69.3269 377.9 69.3269C378.3 69.3269 378.8 68.5269 379.3 67.1269C379.8 66.1269 379.8 65.2269 379.8 64.7269C379.8 63.7269 379.4 62.7269 378.4 61.3269C377.4 59.8269 376.2 59.1269 375 59.1269C372.8 59.1269 370.9 61.3269 369 65.6269C367.3 71.9269 366.1 76.7269 365.6 79.8269C365.6 80.3269 365.4 80.6269 365.4 80.8269L365.2 80.8269C365.2 80.5269 365.2 80.3269 365 79.8269C364.2 74.5269 362.6 70.2269 360.4 67.1269ZM121.2 107.427C161.8 92.0269 203 76.7269 245.3 60.8269C245.502 60.7692 245.688 60.7031 245.849 60.6455C246.247 60.5037 246.5 60.4135 246.5 60.6269C246.7 60.6269 246.7 61.1269 246.5 61.8269C245.5 64.0269 244.8 65.2269 244.3 65.6269C205.7 80.0269 163.7 96.1269 118.8 114.127C119.2 112.027 120 109.827 121.2 107.427ZM134.6 83.1269C136.5 80.0269 137.7 77.1269 137.7 74.5269C137.7 71.4269 136.3 69.7269 133.6 69.8269C130.3 69.8269 128.4 71.7269 127.4 75.8269C127.2 76.7269 127.2 77.2269 127.2 77.2269C127.2 77.4269 127.4 77.4269 127.4 77.4269C127.6 77.4269 127.9 77.1269 128.6 76.9269C129.3 76.4269 130.2 76.2269 131.2 76.2269C132.8 76.2269 133.8 77.1269 133.8 78.8269C133.8 81.0269 130.9 84.8269 125.4 90.8269C124.5 92.0269 124 92.5269 124 92.7269L124 92.9269C124.2 92.9269 125 92.5269 126.4 91.5269C129.8 89.1269 132.4 86.2269 134.6 83.1269ZM300.9 76.0269C300.9 79.8269 299 85.1269 295.1 91.6269C292.7 95.7269 289.1 101.227 284.3 108.427C289.1 113.927 292.5 119.027 294.1 123.327C295.1 126.427 295.8 130.527 295.8 135.127C295.8 137.027 295.3 139.427 294.4 142.527C293.7 145.427 292.7 147.527 291.8 149.027C289.9 151.927 286.8 154.827 282 157.627C277 161.027 272.6 162.627 269 162.627C263.2 162.627 260.4 158.327 260.4 149.627C260.4 143.827 261.4 138.127 263.3 132.827C265.2 128.227 268.3 122.227 273.4 114.327C269.1 110.227 264.5 104.527 259.5 97.3269C259 96.6269 257.8 95.4269 255.9 93.5269C254.9 92.5269 254.5 91.3269 254.5 89.9269C254.5 87.7269 254.7 85.3269 255.2 82.5269C255.9 79.6269 256.4 78.4269 256.6 78.4269C257.3 78.4269 259.5 79.6269 263.6 82.2269C267.4 84.8269 270.6 86.8269 272.5 88.4269C273.7 89.1269 274.2 89.8269 274.2 89.8269L274.2 90.0269C274.2 90.2269 273.5 90.5269 271.8 90.5269C268.7 90.5269 267 90.7269 267 91.0269C267 91.2269 267.5 91.7269 268.4 92.9269C272.2 97.7269 276.1 101.327 280.2 104.227C281.2 102.827 284.5 98.0269 289.8 89.8269C294.4 82.8269 297 78.0269 298.2 75.2269C299.4 72.3269 300.1 71.1269 300.6 71.1269C300.7 71.2269 300.9 72.6269 300.9 76.0269ZM222.5 106.927C223.4 105.027 223.9 102.827 223.9 100.927C223.9 100.027 223.4 98.5269 222.3 96.5269C221.1 93.2269 220.4 91.5269 220.4 91.5269C220.2 90.5269 219.9 89.327 219.7 88.1269C219.7 87.2269 219.4 86.7269 219.2 86.7269C218.9 86.7269 218.7 87.2269 218.2 87.927C217.2 89.1269 217 90.327 217 91.7269C217 94.327 218.5 97.927 221.1 102.727C220.9 104.227 219.9 104.927 218.5 104.927C215.3 104.927 213.9 102.827 213.9 98.7269C213.9 97.3269 213.4 95.1269 212.7 92.0269C212 89.1269 211.5 87.7269 211 87.7269C210.8 87.7269 210.3 88.1269 209.8 89.1269C209.3 90.3269 209.1 91.0269 209.1 91.5269C209.1 92.0269 209.4 93.4269 210.1 95.6269C210.6 98.0269 211.1 99.4269 211.1 100.427C211.1 102.127 210.4 103.527 209.2 104.727C208 105.927 206.8 106.627 205.4 106.627C204.5 106.627 203.5 105.627 202.8 104.227C202.3 103.027 202.1 101.527 202.1 100.127C202.1 99.4269 202.1 98.7269 202.3 97.7269C202.3 96.7269 202.5 95.5269 202.5 94.1269C202.5 91.5269 202 90.3269 201.3 90.3269C200.8 90.3269 200.1 90.8269 199.1 92.0269C198.2 93.2269 197.7 94.4269 197.7 95.8269C197.7 96.5269 198 97.0269 198.7 97.2269C199.2 97.5269 199.7 97.7269 199.7 98.2269L199.7 104.427C199.7 106.827 200.2 109.027 201.4 110.427C202.4 111.927 203.6 112.627 204.8 112.627C208.4 112.627 210.8 110.027 212.2 105.227C213.4 109.127 215.3 111.027 218.2 111.027C219.9 111.027 221.3 109.527 222.5 106.927ZM318.4 104.327C319.4 105.527 320.1 107.127 320.6 109.327C321.8 113.427 324.2 119.227 327.5 126.227C330.4 132.527 331.8 135.827 331.8 136.327C331.8 138.327 328.9 141.427 323.4 145.727C318.541 149.338 312.217 153.467 304.426 158.056C305.156 153.575 306.44 148.187 308.3 141.827C308.6 140.327 308.8 139.127 308.8 138.427C308.8 137.927 308.8 137.727 308.6 137.727C308.1 137.727 307.6 138.727 306.4 141.127C304.025 147.54 302.285 153.776 301.262 159.899C298.066 161.74 294.645 163.65 291 165.627C281.6 170.727 269.9 176.227 255.7 182.227C235.3 190.827 224.2 195.627 222.3 196.627C217 199.027 214.4 200.527 214.4 200.727C214.4 200.927 214.4 200.927 214.9 200.927C215.9 200.927 218.3 200.627 222.1 199.927C225.7 199.427 234.8 197.327 249.2 193.927C262.9 190.627 270.1 188.927 270.6 188.927C273.2 188.927 281.6 184.827 296 176.427C297.447 175.616 298.858 174.81 300.231 174.008C300.496 181.192 302.472 187.385 306 192.027C310.3 198.027 316.5 201.127 324.7 201.127C334.3 201.127 345.3 196.127 358.3 186.527C367 180.027 374.9 172.527 382.1 163.927C385.2 160.327 387.8 155.727 389.5 150.227C391 145.827 391.7 142.527 391.7 139.627L392.2 139.127L392.2 125.927C391.2 126.427 390.7 126.427 390.5 126.427C388.1 121.427 385.2 117.327 382.1 113.727C378.5 110.127 375.4 108.227 372.3 108.227C368.2 108.227 364.4 110.327 360.8 114.427C357 119.227 355.3 124.527 355.3 130.527C355.3 138.427 361.1 142.527 372.6 142.527C377.9 142.527 382.2 141.827 385.1 140.827C385.6 142.527 386.1 144.227 386.1 145.627C386.1 147.727 382.5 152.027 375.5 158.927C367.8 166.127 359.9 172.127 351.7 177.127C341.3 183.427 332.7 186.527 325.5 186.527C317.1 186.527 311.1 183.827 307.3 178.827C305.871 176.683 304.867 174.256 304.289 171.586C316.562 164.098 325.529 157.04 331.3 150.527C333.3 148.327 334.7 145.227 335.9 141.127C336.8 137.527 337.3 134.627 337.3 132.227C337.3 127.127 335.8 121.627 333.2 114.927C331.5 111.127 329.6 107.027 327.9 102.927C330.8 103.627 332.7 104.127 333.4 104.127C333.9 104.127 334.1 103.827 334.1 103.627C334.1 103.127 333.4 102.227 331.7 100.527C327.7 96.4269 324.1 92.5269 320.7 88.7269C320.2 88.2269 319.9 88.0269 319.7 88.0269C319.2 88.0269 318.9 88.5269 318.7 89.7269C318.2 90.9269 318 93.1269 317.5 96.2269C317 99.5269 317 101.227 317 101.727C317.2 102.127 317.7 102.927 318.4 104.327ZM42 116.527C42 117.227 40.8 119.627 38.6 123.727C36.9 124.927 32.8 127.327 26.4 130.927C18 135.527 10.6 139.827 4.3 143.627C2.10001 144.827 0.900009 145.527 0.5 145.527C0 145.527 0 145.327 0 144.827C0 143.627 1 140.727 3.39999 136.227C4.39999 135.227 7 133.327 10.8 130.727C8.19998 129.027 6.49998 128.127 5.79999 127.327C3.89999 125.627 2.89999 123.527 2.89999 121.127C2.89999 117.027 5.79999 112.227 11.5 106.927C16.8 101.927 21.1 99.2269 24.2 99.2269C25.9 99.2269 27.3 99.9269 28.5 101.427C29.5 102.627 30.2 104.527 30.2 106.727C30.2 108.627 29.5 110.527 28 112.727C26.8 114.427 25.6 115.327 24.6 115.327C24.4 115.327 23.6 114.627 22.9 112.727C22.2 110.827 21.2 110.127 20 110.127C18.3 110.127 16.2 110.627 13.5 112.027C10.6 113.427 9.20001 114.427 9.20001 114.927C9.20001 116.127 10.6 117.527 13.8 119.227C17.4 121.127 21 122.127 24.4 122.127C26.6 121.927 29.7 120.427 34 118.527C37.6 116.627 40 115.627 40.7 115.627C41.5 115.627 42 115.827 42 116.527ZM418.3 110.827C417.6 110.827 416.6 111.227 415.4 112.227C411.6 115.627 407.7 118.527 403.8 120.427C402.6 121.227 398.5 123.127 392.3 126.227L392.3 139.427C400.7 135.527 407.2 131.527 411 126.927C411 137.927 415.8 143.727 425.9 143.727C434.3 143.727 441.2 138.927 446.5 129.327C449.7 135.127 453.3 138.227 457.1 138.227C462.9 138.227 467.2 135.627 470.1 130.327C472.8 125.927 474.2 120.927 474.2 114.927C474.2 111.027 473 107.727 471.1 104.827C470.4 103.827 469.9 103.627 469.4 103.627C468.9 103.627 468.4 104.427 468.2 105.827C466.8 110.327 465.8 113.727 465.6 115.627C467.7 119.227 468.7 121.227 468.7 121.427C467.7 123.027 465.6 124.027 462.2 124.027C459.6 124.027 457.2 123.027 455.5 121.627C453.6 120.227 452.6 118.527 452.6 116.827C452.6 117.327 453.3 115.427 454.3 111.327C454.8 109.227 454.6 108.227 453.6 108.227C452.9 108.227 452.2 108.627 451.2 109.627C448.8 113.527 446.2 117.327 443.8 121.427C439.9 126.527 434.9 129.127 428.9 129.127C421.4 129.127 417.6 126.227 417.6 120.927C417.6 119.727 417.8 118.227 418.3 116.327C418.8 114.427 419 112.927 419 112.227C419 111.327 418.8 110.827 418.3 110.827ZM291.6 135.027C289 129.727 284.4 124.227 278.2 118.927C276 121.127 273.4 125.127 270 130.927C266.2 137.427 264.5 141.527 264.5 143.627C264.5 146.527 266.4 147.927 270.7 147.927C272.6 147.927 275 147.227 278.1 146.027C282.4 144.127 286.5 141.427 289.9 138.127C291.3 136.727 291.8 135.727 291.6 135.027ZM378.7 128.027C375.1 123.427 372 121.327 369.1 121.327C364.8 121.327 362.9 122.327 362.9 124.727C362.9 127.627 365.8 129.027 371.5 129.027C373.401 129.027 375.377 128.653 377.622 128.229C377.974 128.163 378.333 128.095 378.7 128.027ZM7.40001 149.227C10 148.027 15.6 145.627 24.4 142.027C32.1 138.927 36.6 137.027 37.8 136.527C38.1722 136.452 38.4612 136.364 38.6775 136.298C39.0424 136.187 39.2 136.139 39.2 136.327C39.4 136.327 39.4 136.527 39.2 137.327C38.5 139.027 38 140.227 37.5 140.727C34.4 141.927 29.3 143.827 22.4 146.727C17.8 148.927 12.1 151.327 5.39999 154.427C6 152.527 6.70001 150.827 7.40001 149.227ZM5.70001 156.127C8.30002 154.927 14.1 152.527 23 148.927C30.4 145.827 35 144.127 36.4 143.627C37.1 143.427 37.6 143.127 37.6 143.127C37.8 143.327 37.8 143.627 37.6 144.327C36.9 146.027 36.4 146.927 35.9 147.427C32.8 148.627 27.7 150.527 20.8 153.427C16.2 155.627 10.5 158.027 4 161.127C4.3 159.527 5 158.027 5.70001 156.127ZM404.6 191.927C402 192.627 400.5 193.127 400 193.127L400 192.927C400 192.927 401 192.227 402.9 191.027C404.8 189.827 407.7 187.927 411.8 184.827C413.7 182.927 416.6 179.827 420.2 175.427C422.6 172.527 425.2 169.927 428.1 168.027C431.7 165.427 435.1 164.227 438.7 164.227C439.4 164.227 440.6 164.427 442.1 164.927C443.3 165.427 444.5 165.627 445.5 165.627C447.4 165.627 448.9 164.927 450.1 163.427C450.8 162.027 451.8 160.827 452.7 159.327C453.2 158.327 453.9 157.927 454.4 157.927C454.6 157.927 454.6 158.127 454.6 158.627C454.6 159.127 454.4 160.327 453.9 161.727C453.4 162.427 455.3 162.727 458.9 162.727C459.4 162.727 459.6 162.727 459.6 162.527C459.6 162.527 459.4 161.527 458.9 159.927C458.7 159.427 458.9 158.727 459.6 157.727L459.68 157.591C460.622 155.99 461.008 155.332 461.3 155.527C462.3 156.227 462.7 157.727 462.7 159.327C462.7 161.027 462.2 162.727 461.5 164.627C460.8 166.827 460.1 168.027 459.6 168.427C457.9 169.427 455.3 169.127 451.7 167.427C448.8 170.327 445.9 172.027 443.1 172.027C442.4 172.027 441.2 171.827 440 171.327C438.8 170.827 437.8 170.627 437.1 170.627C432.3 170.627 427.3 172.827 422.2 177.627L411.4 188.427C409.2 190.027 407 191.227 404.6 191.927ZM59.7 177.027C59.7 177.027 59.5 177.327 59.5 177.527C57.8 180.427 56.4 182.027 54.8 182.127C52.7 182.127 51.7 179.927 51.7 176.127C51.7 173.027 52.9 167.927 55.3 160.527C55.8 158.827 56 157.827 56 157.627C55.7 157.627 55.3 158.527 54.3 160.227C50.5 167.227 48.8 174.127 48.8 180.627C48.8 185.927 50.3 188.527 53.4 188.527C56.5 188.527 58.7 184.927 59.9 177.727C60.1 177.527 60.1 177.227 59.9 177.027C59.9 176.936 59.9 176.887 59.8814 176.878C59.8589 176.868 59.8093 176.918 59.7 177.027ZM165.3 172.027C168.2 172.027 170.6 173.427 172.7 176.827C174.9 179.927 176.5 184.227 177.3 189.527C177.5 190.027 177.5 190.227 177.5 190.527L177.7 190.527C177.7 190.327 177.9 190.027 177.9 189.527C178.4 186.427 179.6 181.627 181.3 175.327C183.2 171.027 185.1 168.827 187.3 168.827C188.5 168.827 189.7 169.527 190.7 171.027C191.7 172.427 192.1 173.427 192.1 174.427C192.1 174.927 192.1 175.827 191.6 176.827C191.1 178.227 190.6 179.027 190.2 179.027C190 179.027 189.5 178.327 188.5 177.327C187.8 176.327 186.8 175.927 185.9 175.927C184 175.927 182.3 180.527 180.6 189.627C179.9 193.727 178.9 196.627 178.2 198.227C177.5 199.227 177 199.927 176.5 199.927C176 199.927 176 199.227 175.8 198.227C176 196.527 175.1 193.427 173.2 188.827C171.3 184.027 170.1 181.827 169.1 181.827C168.6 181.827 168.4 181.827 168.1 182.327C167.9 182.527 167.6 182.827 166.9 182.827C165.9 182.827 165 182.127 163.5 180.927C162.1 179.727 161.6 178.727 161.6 178.027C161.6 177.827 162.1 176.627 163.3 174.627C164.4 172.727 165.1 172.027 165.3 172.027ZM96.7 190.627C96.5 191.127 96.5 191.427 96.7 191.627C100.5 194.027 104.4 196.727 108.1 199.527C108.59 199.821 108.792 199.538 109.271 198.867L109.3 198.827C112.6 193.527 114.3 190.227 114.3 188.527C114.3 188.027 112.3 186.527 108.5 183.927C104.9 181.527 102.8 180.327 102.3 180.327C102 180.327 101.5 180.527 101.3 181.027L96.7 190.627Z" id="Group" fill="#595959" fill-rule="evenodd" stroke="none" clip-path="url(#clip_1)" />
  </g>
</svg>