<?xml version="1.0" encoding="utf-8"?>
<svg width="571.40015px" height="203.40002px" viewBox="0 0 571.40015 203.40002" version="1.1" xmlns:xlink="http://www.w3.org/1999/xlink" xmlns="http://www.w3.org/2000/svg">
  <defs>
    <path d="M571.4 0L571.4 0L571.4 203.4L0 203.4L0 0L571.4 0Z" id="path_1" />
    <clipPath id="clip_1">
      <use xlink:href="#path_1" clip-rule="evenodd" fill-rule="evenodd" />
    </clipPath>
  </defs>
  <g id="Surah_8_of_114_(modified)">
    <path d="M571.4 0L571.4 0L571.4 203.4L0 203.4L0 0L571.4 0Z" id="Surah_8_of_114_(modified)" fill="none" stroke="none" />
    <path d="M212.6 13.1C213.3 12.4 213.8 11.2 214.3 9C214.5 8 214.5 7.5 214.3 7.70001C214.083 7.48347 213.659 7.68373 212.988 7.99997C212.729 8.12183 212.434 8.26092 212.1 8.40001C210.6 9.40001 209.4 10.3 208 11.3C205.9 12.5 204.4 13 203.7 13C202.7 13 201.5 12.8 200.1 11.8C198.6 11 197.9 10.3 197.9 9.60001C197.9 9.10001 198.6 8.40001 199.8 7.70001C201 6.70001 202 6.50002 202.7 6.50002C203.9 6.50002 204.8 7.00002 205.3 8.20001C205.8 8.90001 206.1 8.90001 206.3 8.40001C207.5 6.5 208 5 208 3.60001C208 1.2 207.1 0 204.9 0C202.5 0 199.4 2.2 195.8 6.5C193.9 8.7 193.2 10.8 193.2 13C193.2 14.9 194.9 16.6 198.5 17.8C195.6 19.9 194.1 21.4 193.9 22.1L193.4 25.2C193.4 25.7 193.4 25.7 193.6 25.9C194.1 25.4 194.6 25.1 194.8 24.9C204 18.6 210 14.8 212.6 13.1ZM326.1 25.5C326.1 20.7 325.4 16.9 323.9 13.7C323.9 12 325.1 7.89999 328 1.7C328.2 1 328.5 0.5 328.7 0.5C329.2 0.5 329.4 1 329.9 1.7C330.6 3.39999 332.3 7.89999 335.2 15.4C338.3 23.3 340 28.1 340.5 30C341 31.2 341 32.4 341 32.9C341 35.1 339.1 33.9 334.8 29.1C334.3 28.4 334.1 28.9 334.1 30.1C334.1 30.6 335.3 45.5 337.5 75.2C339.7 104.7 340.6 121.3 340.6 125.1C340.6 136.4 338.9 146.5 335.6 155.1C334.6 156.8 334.2 158 333.7 158.9C333 160.1 332.7 160.1 332.5 159.4C332.329 158.546 332.45 157.035 332.614 154.993C332.642 154.644 332.671 154.279 332.7 153.9C333.2 149.8 333.4 145.3 333.4 140.2C333.4 135.4 332.2 116.2 329.8 82.4C327.3 48.6 326.1 29.6 326.1 25.5ZM162.7 3.70001C163.4 2.50002 164.4 2.00002 165.1 2.00002C165.6 2.00002 166.1 2.20001 166.1 2.70001C166.1 2.70001 165.9 2.90001 165.9 3.20001C164.9 5.40001 164 7.80002 163.3 10.2C168.3 13.8 170.7 17.6 170.5 21.2C170 25.3 169.5 27.9 168.8 28.9C166.4 31.8 163.8 33.5 160.4 33.5C157 33.5 155.6 31.3 155.6 27.5C155.6 26.8 155.6 25.8 155.8 24.9C156.9 17.1 159.3 10.2 162.7 3.70001ZM266.4 2.00002C265.7 2.00002 264.7 2.50002 264 3.70001C260.6 10.2 258.2 17.1 257.1 24.9C256.9 25.8 256.9 26.8 256.9 27.5C256.9 31.3 258.3 33.5 261.7 33.5C265.1 33.5 267.7 31.8 270.1 28.9C270.8 27.9 271.3 25.3 271.8 21.2C272 17.6 269.6 13.8 264.6 10.2C265.3 7.80002 266.2 5.40001 267.2 3.20001C267.2 2.90001 267.4 2.70001 267.4 2.70001C267.4 2.20001 266.9 2.00002 266.4 2.00002ZM145.2 143.6C142.1 141.5 139.7 136.9 138.5 130.2C138.2 127.8 137.5 113.8 137.1 88.6C136.4 61.7 135.5 43.7 134.5 34.6C132.8 20.2 130.6 9.90004 127.5 3.90004C127 2.90004 126.5 2.20004 126.3 2.20004C125.8 2.20004 125.6 2.90004 125.1 4.10004C123.2 8.90004 122.2 12.3 122.2 14.7C124.9 23.9001 126.8 33.2 128 43.3C128.5 49.5 129.2 66.3 130.2 93.7C130.9 119.1 131.8 134.2 132.8 139.5C134.2 147.9 136.9 153.4 141.2 156.5C143.982 158.686 148.048 159.885 153.3 159.9L153.3 160C158.6 160 164.8 157.3 171.8 152.3C177.3 155.6 186.4 157.3 198.9 157.3L198.9 142.9C191.7 142.9 186.6 142.6 184 141.9C188 136.6 190.2 129.2 190.2 119.8C190.2 115.9 189.5 112.1 188.3 108.5C186.7 103.9 184 101.5 180.9 101.5C177.5 101.5 173.7 104.9 168.9 111.1C163.8 117.8 161.2 124.8 161.2 131.5C161.2 136.3 161.9 140.1 163.6 143C160.331 144.387 156.963 145.381 153.4 145.4L153.4 145.3C149.8 145.3 147.1 144.6 145.2 143.6ZM376.6 15C376.6 17.6 378.7 20 383.3 22.4C379.9 26 374.9 29.8 367.9 34.1C361.9 37.4 356.2 40.8 350.4 44.4C349 45.1 348.5 45.9 348.5 46.1C348.5 46.1 348.5 46.3 348.7 46.3C348.9 46.3 349.9 46.1 351.1 45.6C358.8 42.8 363.1 41.1 364.1 40.6C367.7 39.2 371.7 36.5 376.3 33.4C380.1 30.5 383.3 27.4 385.9 23.8C388.1 25 389.5 26.2 390 27.2C392.1 24.4 393.1 22.2 393.1 21C392.6 20 391.2 18.8 388.8 17.6C390 14.2 390.5 11.3 390.5 8.70003C390.5 5.90002 389.8 4.20003 388.1 3.70003C386.2 3.00002 383.8 4.00002 380.9 6.60002C378 9.00002 376.6 11.9 376.6 15ZM1.52588e-05 161.1C1.52588e-05 150.1 1.70001 140.9 5.50002 133.7C5.53434 133.617 5.56867 133.535 5.60298 133.455C3.51576 132.694 2.50001 130.161 2.50001 125.8C2.50001 119.3 4.2 112.4 8.00001 105.4C9.00001 103.7 9.40001 102.8 9.7 102.8C9.7 103 9.50001 104 9.00001 105.7C6.60001 113.1 5.40001 118.2 5.40001 121.3C5.40001 125.1 6.40001 127.3 8.50001 127.3C10.1 127.3 11.5 125.6 13.2 122.7C13.2 122.5 13.4 122.2 13.4 122.2C13.5093 122.091 13.5589 122.041 13.5814 122.051C13.6 122.06 13.6 122.109 13.6 122.2C13.8 122.4 13.8 122.7 13.6 122.9C12.4884 129.57 10.5185 133.15 7.77 133.641C7.66087 133.885 7.53807 134.138 7.40002 134.4C4.50002 142.1 3.30002 149 3.30002 155.5C3.30002 161.7 5.00002 167.5 8.30002 172.8C13.8 181.4 22.5 185.8 34.5 185.8C45.5 185.8 59 181 74.6 171.4C85.9 164.4 95.7 157.2 103.6 149.8C104.8 148.8 105.5 146.4 105.5 143.1C105.5 137.3 104.3 117.9 101.9 84.8C99.5 51.7 98.3 33 98.3 28.4C98.3 23.8 97.6 20 96.1 16.9C96.1 15.2 97.5 11.1 100.2 4.70003C100.7 4.00003 100.9 3.70003 101.2 3.70003C101.5 3.70003 101.9 3.90002 102.2 4.70003C102.9 6.60002 104.8 11.2 107.7 18.6C110.6 26.3 112.3 31.3 112.7 33C113.2 34.4 113.4 35.4 113.4 36.1C113.4 38.3 111.2 37.1 107.2 32.3C106.7 31.6 106.5 31.8 106.5 33C106.5 33 107.5 45.7 109.4 71.2C111.3 96.6 112.3 111.8 112.3 116.6C112.3 130.3 111.1 140.6 109.2 147.8C107.8 153.3 105.1 157.9 101.8 162C97 167.8 89.1 174.5 78.3 182.4C61.3 194.4 46.6 200.4 33.9 200.4C20.9 200.4 11.6 195.4 5.8 185.3C1.90001 178.4 1.52588e-05 170.5 1.52588e-05 161.1ZM386.3 11.9C386.6 13.3 386.6 14.8 386.1 16.2C382.5 14.5 380.6 13 380.5 11.8C380.5 11.4 380.9 10.9 381.9 10.4C382.9 9.90001 383.6 9.70001 384.1 9.70001C385.3 9.70001 386.1 10.5 386.3 11.9ZM427.9 29.6C427.9 29.4 428.1 29.1 428.1 29.1C428.209 28.9907 428.259 28.9411 428.281 28.9513C428.3 28.9598 428.3 29.0093 428.3 29.1C428.5 29.3 428.5 29.6 428.3 29.8C427.1 37 424.9 40.6 421.8 40.6C418.7 40.6 417.2 38 417.2 32.7C417.2 26.2 418.9 19.3 422.7 12.3C423.7 10.6 424.1 9.70001 424.4 9.70001C424.4 9.90001 424.2 10.9 423.7 12.6C421.3 20 420.1 25.1 420.1 28.2C420.1 32 421.1 34.2 423.2 34.2C424.8 34.2 426.2 32.5 427.9 29.6ZM301.9 35.6C301.9 33.7 301.4 31.3 300.5 28.6C299.5 26 299.1 24.5 299.1 24.3C299.1 23.8 299.6 21.9 300.5 18.5C301.5 15.1 301.9 13.2 302.2 12.7C302.7 11.7 302.9 11.5 303.2 11.5C303.5 11.5 303.9 11.7 304.4 12.5C305.4 14.7 307.5 18.7 310.6 25.2C314 32.4 316.1 37.2 316.8 39.4C317.3 41.1 317.5 42 317.5 42.8C317.5 44.7 315.3 43.5 311.3 38.7C310.8 38.2 310.6 38.7 310.6 39.9C310.6 44.2 312 59.8 315.2 86.5C318.3 113.1 320 130.4 320 137.9C320 154 316.2 167.4 308.7 177.7C302.7 186.1 296 191.9 288.5 195.2C285.6 196.6 280.6 198.1 273.6 200C266.4 201.9 261.1 202.9 257.8 203.4C256.6 203.4 255.9 203.4 255.9 202.9C255.9 202.7 256.4 201.9 257.8 201C264.3 197.4 274.8 191.2 289.5 182C294.3 179.1 298.9 175 303.7 169.8C309.9 163.1 313.3 157.3 313.3 152.8C313.3 143 311.4 122.1 307.5 90.1999C303.6 57.9 301.9 39.9 301.9 35.6ZM168 22.9C168 21.7 165.6 19.5 160.6 16.7C158.9 19.6 158.2 22.2 158.2 24.6C158.2 26 158.9 27 160.4 27C161.6 27 163 26.5 164.7 25.6C166.3 24.8 167.5 23.8 168 22.9ZM261.9 16.7C266.9 19.5 269.3 21.7 269.3 22.9C268.8 23.8 267.6 24.8 266 25.6C264.3 26.5 262.9 27 261.7 27C260.2 27 259.5 26 259.5 24.6C259.5 22.2 260.2 19.6 261.9 16.7ZM211.7 45.7C210.5 44 209.3 42.6 207.9 41.9C207.2 41.4 206.9 40.7 206.9 39.5L206.9 29.9C206.9 28 207.1 27 207.9 27C208.4 27 209.3 27.5 210.5 28.2L229 42.6C230.4 43.6 231.2 44.5 231.2 45C231.2 45.5 230.7 45.7 229.5 45.7C228.1 45.7 225.4 45.2 221.8 44.3C224 48.1 243.4 68.3 280.1 105C297.4 122.3 306 137.4 306 150.1C306 151.1 306 152.3 305.8 153.5C304.8 162.4 304.1 166.7 303.6 166.7C303.1 166.7 302.4 163.1 301.4 155.7C299.5 143.9 290.6 130.3 274.8 114.9C249.4 90.9 231.4 72.2 220.8 59C218.6 56.4 216.7 53.7 215 51.1C214.1 49.3 212.9 47.6 211.7 45.7ZM409.7 60.1C433.9 51 459.1 41.9 485.1 32.3C485.302 32.2422 485.488 32.1761 485.649 32.1186C486.047 31.9768 486.3 31.8867 486.3 32.1C486.5 32.1 486.5 32.6 486.3 33.3C485.3 35.5 484.6 36.7 484.1 37.1C483.9 37.3 471.6 41.9 447.9 50.8C423.7 59.7 410 65.2 407.3 66.9C407.7 64.6 408.5 62.5 409.7 60.1ZM540.2 61.3C537.8 67.1 536.6 71.6 536.6 75C536.6 79.1 537.6 81.2 539.7 81.2C540.9 81.2 542.3 79.5 544 76.6C544.2 76.4 544.2 76.1 544.5 75.9C544.5 75.9 544.7 75.9 544.7 76.1L544.7 76.8C543.3 84.0001 541.1 87.6 538.2 87.6C535.1 87.6 533.6 85 533.6 79.7C533.6 77.1 534.1 73.7 535.5 69.4001C536.9 65.1001 537.7 62.9001 537.7 62.7C537.7 62.2 536.7 61.3 534.6 60.1C530.8 65.1 525.5 69.9 518.8 74C514.2 76.6 509.7 79 504.9 81C496 84.6 490.7 86.5 489.5 87.2C488.3 87.7 487.6 87.9001 487.1 87.9001C486.9 87.9001 486.9 87.7 486.9 87.7C486.9 87.2 487.4 86.7 488.8 85.8C496.5 81.5001 503.9 77.2 511.6 72.8C521.7 67.0001 528.6 62.2 532 58.6C527.4 56.2 525.3 53.8 525.3 51.2C525.3 48.1 526.7 45.2 529.6 42.6C532.5 40.2 534.9 39.2 536.8 40C538.2 40.5 539.2 42.2 539.2 45C539.2 47.6 538.7 50.5 537.5 53.6C539.9 55 540.9 56.5 540.9 57.9C540.9 58.6 540.7 59.8 540.2 61.3ZM150.5 58.4C164.2 53.6 178.6 48.3 193.7 42.8C194.085 42.723 194.352 42.6311 194.545 42.5644C194.854 42.4579 194.977 42.4155 195.1 42.6C195.3 42.6 195.3 43.1 194.9 43.8C194.2 46 193.5 47.2 193 47.6C180 52.2 165.2 57.9 148.1 65.1C148.5 63 149.3 60.8 150.5 58.4ZM534.9 52.4C535.4 51 535.4 49.5 535.1 48.1C534.9 46.7 534.1 45.9 532.9 45.9C532.4 45.9 531.7 46.1 530.7 46.6C529.7 47.1 529.3 47.6 529.3 48C529.4 49.3 531.3 50.7 534.9 52.4ZM282.2 66.6C282.2 66.4 282.4 66.1 282.4 66.1C282.509 65.9907 282.559 65.9411 282.581 65.9513C282.6 65.9598 282.6 66.0093 282.6 66.1C282.8 66.3 282.8 66.6 282.6 66.8C281.4 74 279.2 77.6 276.1 77.6C273 77.6 271.5 75 271.5 69.7C271.5 63.2 273.2 56.3 277 49.3C278 47.6 278.4 46.7 278.7 46.7C278.7 46.9 278.5 47.9 278 49.6C275.6 57 274.4 62.1 274.4 65.2C274.4 69 275.4 71.2 277.5 71.2C279.1 71.1 280.5 69.4 282.2 66.6ZM379.4 51L375.6 58.9C374.6 57.9 372.5 56.2 369.4 54.4C366.3 52.2 364.6 51 364.1 51C363.8 51 363.3 51.5 363.1 52L358.5 61.6C358.3 62.1 358.3 62.4 358.5 62.6C362.4 65 366.2 67.6 369.8 70.5C370.3 70.8 370.8 70.5 371 69.8C372.5 67.6 373.7 65 375.1 62.1C379.2 64.7 382.8 67.1 385.9 69.5C386.3 69.7 386.8 69.7 387.3 69C390.4 63.7 392.1 60.1 392.1 58.4C392.1 57.9 390.2 56.5 386.6 54.1C382.8 51.5 380.9 50.3 380.4 50.3C379.9 50.3 379.6 50.5 379.4 51ZM36 57.2C38.9 57.2 41.3 58.6 43.4 62C45.6 65.1 47.2 69.4 48 74.7C48.2 75.2 48.2 75.4 48.2 75.7L48.4 75.7C48.4 75.5 48.6 75.2 48.6 74.7C49.1 71.6 50.3 66.8 52 60.5C53.9 56.2 55.8 54 58 54C59.2 54 60.4 54.7 61.4 56.2C62.4 57.6 62.8 58.6 62.8 59.6C62.8 60.1 62.8 61 62.3 62C61.8 63.4 61.3 64.2 60.9 64.2C60.7 64.2 60.2 63.5 59.2 62.5C58.5 61.5 57.5 61.1 56.6 61.1C54.7 61.1 53 65.7 51.3 74.8C50.6 78.9 49.6 81.8 48.9 83.4C48.2 84.4 47.7 85.1 47.2 85.1C46.7 85.1 46.7 84.4 46.5 83.4C46.7 81.7 45.8 78.6 43.9 74C42 69.2 40.8 67 39.8 67C39.3 67 39.1 67 38.8 67.5C38.6 67.7 38.3 68 37.6 68C36.6 68 35.7 67.3 34.2 66.1C32.8 64.9 32.3 63.9 32.3 63.2C32.3 63 32.8 61.8 34 59.8C35 57.9 35.7 57.2 36 57.2ZM457.9 68C455.8 64.6 453.4 63.2 450.5 63.2C450.2 63.2 449.5 63.9 448.5 65.8C447.3 67.8 446.8 69 446.8 69.2C446.8 69.9 447.3 70.9 448.7 72.1C450.2 73.3 451.1 74 452.1 74C452.8 74 453.1 73.7 453.3 73.5C453.6 73 453.8 73 454.3 73C455.3 73 456.5 75.2 458.4 80C460.3 84.6 461.2 87.7 461 89.4C461.2 90.4 461.2 91.1 461.7 91.1C462.2 91.1 462.7 90.4 463.4 89.4C464.1 87.8 465.1 84.9 465.8 80.8C467.5 71.7 469.2 67.1 471.1 67.1C472 67.1 473 67.5 473.7 68.5C474.7 69.5 475.2 70.2 475.4 70.2C475.8 70.2 476.3 69.4 476.8 68C477.3 67 477.3 66.1 477.3 65.6C477.3 64.6 476.9 63.6 475.9 62.2C474.9 60.7 473.7 60 472.5 60C470.3 60 468.4 62.2 466.5 66.5C464.8 72.8 463.6 77.6 463.1 80.7C463.1 81.2 462.9 81.5 462.9 81.7L462.7 81.7C462.7 81.4 462.7 81.2 462.5 80.7C461.7 75.4 460.1 71.1 457.9 68ZM166.8 82.6C166.6 82.4 166.6 82.1 166.8 81.6L171.4 72C171.6 71.5 172.1 71.3 172.4 71.3C172.9 71.3 175 72.5 178.6 74.9C182.4 77.5 184.4 79 184.4 79.5C184.4 81.2 182.7 84.5 179.4 89.8L179.371 89.8403C178.892 90.5114 178.69 90.7942 178.2 90.5C174.5 87.7 170.6 85 166.8 82.6ZM398.1 76.9C398.1 80.7 396.2 86 392.3 92.5C389.9 96.6 386.3 102.1 381.5 109.3C386.3 114.8 389.7 119.9 391.3 124.2C392.3 127.3 393 131.4 393 136C393 137.9 392.5 140.3 391.6 143.4C390.9 146.3 389.9 148.4 389 149.9C387.1 152.8 384 155.7 379.2 158.5C374.2 161.9 369.8 163.5 366.2 163.5C360.4 163.5 357.6 159.2 357.6 150.5C357.6 144.7 358.6 139 360.5 133.7C362.4 129.1 365.5 123.1 370.6 115.2C366.3 111.1 361.7 105.4 356.7 98.2C356.2 97.5 355 96.3 353.1 94.4C352.1 93.4 351.7 92.2 351.7 90.8C351.7 88.6 351.9 86.2 352.4 83.4C353.1 80.5 353.6 79.3 353.8 79.3C354.5 79.3 356.7 80.5 360.8 83.1C364.6 85.7 367.8 87.7 369.7 89.3C370.9 90 371.4 90.7 371.4 90.7L371.4 90.9C371.4 91.1 370.7 91.4 369 91.4C365.9 91.4 364.2 91.6 364.2 91.9C364.2 92.1 364.7 92.6 365.6 93.8C369.4 98.6 373.3 102.2 377.4 105.1C378.4 103.7 381.7 98.9 387 90.7C391.6 83.7 394.2 78.9 395.4 76.1C396.6 73.2 397.3 72 397.8 72C397.9 72.1 398.1 73.5 398.1 76.9ZM200.9 86.9C200.7 87.4 200.7 87.7 200.9 87.9C204.7 90.3 208.5 93 212.3 95.8C212.79 96.0942 212.992 95.8114 213.471 95.1403L213.5 95.1C216.8 89.8 218.5 86.5 218.5 84.8C218.5 84.3 216.5 82.8 212.7 80.2C209.1 77.8 207 76.6 206.5 76.6C206.2 76.6 205.7 76.8 205.5 77.3L200.9 86.9ZM415.9 105.2C416.9 106.4 417.6 108 418.1 110.2C419.3 114.3 421.7 120.1 425 127.1C427.9 133.4 429.3 136.7 429.3 137.2C429.3 139.2 426.4 142.3 420.9 146.6C415.98 150.257 409.557 154.444 401.631 159.103C402.361 154.627 403.644 149.248 405.5 142.9C405.8 141.4 406 140.2 406 139.5C406 139 406 138.8 405.8 138.8C405.3 138.8 404.8 139.8 403.6 142.2C401.229 148.602 399.49 154.828 398.468 160.941C395.355 162.73 392.033 164.584 388.5 166.5C379.1 171.6 367.4 177.1 353.2 183.1C332.8 191.7 321.7 196.5 319.8 197.5C314.5 199.9 311.9 201.4 311.9 201.6C311.9 201.8 311.9 201.8 312.4 201.8C313.4 201.8 315.8 201.5 319.6 200.8C323.2 200.3 332.3 198.2 346.7 194.8C360.4 191.5 367.6 189.8 368.1 189.8C370.7 189.8 379.1 185.7 393.5 177.3C394.842 176.548 396.152 175.8 397.43 175.056C397.691 182.251 399.668 188.453 403.2 193.1C407.5 199.1 413.7 202.2 421.9 202.2C431.5 202.2 442.5 197.2 455.5 187.6C464.2 181.1 472.1 173.6 479.3 165C482.4 161.4 485 156.8 486.7 151.3C488.2 146.9 488.9 143.6 488.9 140.7L489.4 140.2L489.4 127C488.4 127.5 487.9 127.5 487.7 127.5C485.3 122.5 482.4 118.4 479.3 114.8C475.7 111.2 472.6 109.3 469.5 109.3C465.4 109.3 461.6 111.4 458 115.5C454.2 120.3 452.5 125.6 452.5 131.6C452.5 139.5 458.3 143.6 469.8 143.6C475.1 143.6 479.4 142.9 482.3 141.9C482.8 143.6 483.3 145.3 483.3 146.7C483.3 148.9 479.7 153.2 472.7 160C465 167.2 457.1 173.2 448.9 178.2C438.5 184.5 429.9 187.6 422.7 187.6C414.3 187.6 408.3 184.9 404.5 179.9C403.068 177.752 402.063 175.319 401.486 172.644C413.915 165.087 422.981 157.967 428.8 151.4C430.8 149.2 432.2 146.1 433.4 142C434.3 138.4 434.8 135.5 434.8 133.1C434.8 128 433.3 122.5 430.7 115.8C429 112 427.1 107.9 425.4 103.8C428.3 104.5 430.2 105 430.9 105C431.4 105 431.6 104.7 431.6 104.5C431.6 104 430.9 103.1 429.2 101.4C425.2 97.3 421.6 93.4 418.2 89.6C417.7 89.1 417.4 88.9 417.2 88.9C416.7 88.9 416.4 89.4 416.2 90.6C415.7 91.8 415.5 94 415 97.1C414.5 100.4 414.5 102.1 414.5 102.6C414.7 103 415.2 103.8 415.9 105.2ZM82.1 108.6C82.6 107.6 82.8 106.7 82.8 106.2C82.8 105.2 82.3 104.2 81.4001 102.8C80.2001 101.3 79.0001 100.6 77.8001 100.6C75.6001 100.6 73.7001 102.8 71.8001 107.1C70.1001 113.4 68.9001 118.2 68.7001 121.3C68.4001 121.8 68.2001 122.1 68.2001 122.3C68.2001 122.391 68.2001 122.44 68.1814 122.449C68.1589 122.459 68.1094 122.409 68.0001 122.3L68.0001 121.3C67.0001 116 65.6001 112 63.2001 108.6C61.0001 105.2 58.6001 103.8 56.0001 103.8C55.7001 103.8 55.0001 104.5 53.8001 106.4C52.6001 108.4 52.1001 109.6 52.1001 109.8C52.1001 110.5 52.8001 111.5 54.0001 112.7C55.5001 113.9 56.4001 114.6 57.4001 114.6C58.1001 114.6 58.6001 114.3 58.6001 114.1C58.8 113.6 59.1001 113.6 59.8 113.6C60.5 113.6 61.7001 115.8 63.6001 120.6C65.5 125.2 66.5 128.3 66.5 130C66.5 130.447 66.5599 130.834 66.644 131.125C66.2387 131.594 65.7582 132.154 65.2 132.8C63.5 134.7 61.4 136.8 58.5 139C46.5 146.9 37.4 152.5 30.9 156.3C29.7 157 29 157.8 29 158C29 158 29 158.2 29.2 158.2C29.7 158.2 30.4 158 31.6 157.5C39.6 154.7 43.9 153 44.6 152.5C48.2 150.9 52.2 148.5 56.8 145.1C61.9 141.5 65.2 137.6 66.9 133.8C67.3872 132.631 67.7556 131.675 67.9939 130.968C68.2086 130.7 68.4406 130.371 68.7 130C69.7 128.4 70.4 125.5 71.1 121.4C72.8 112.3 74.7 107.7 76.6 107.7C77.3 107.7 78.3 108.1 79 109.1C80 110.1 80.5 110.8 80.7 110.8C81.4 110.8 81.9 110 82.1 108.6ZM67.9939 130.968C68.2448 130.223 68.3513 129.754 68.3 129.6L68.3 129.4C68.1588 129.4 67.6185 129.998 66.644 131.125C66.7482 131.486 66.8894 131.7 67 131.7C67.3147 131.7 67.6294 131.423 67.9939 130.968ZM515.5 112C514.8 112 513.8 112.4 512.6 113.4C508.8 116.7 504.9 119.6 501 121.6C499.8 122.4 495.7 124.3 489.5 127.4L489.5 140.6C497.9 136.7 504.4 132.7 508.2 128.1C508.2 139.1 513 144.9 523.1 144.9C531.5 144.9 538.4 140.1 543.7 130.5C546.9 136.3 550.5 139.4 554.3 139.4C560.1 139.4 564.4 136.8 567.3 131.5C570 127.1 571.4 122.1 571.4 116.1C571.4 112.2 570.2 108.9 568.3 106C567.6 105 567.1 104.8 566.6 104.8C566.1 104.8 565.6 105.6 565.4 107C564 111.5 563 114.9 562.8 116.8C564.9 120.4 565.9 122.4 565.9 122.6C564.9 124.2 562.8 125.2 559.4 125.2C556.8 125.2 554.4 124.2 552.7 122.8C550.8 121.4 549.8 119.7 549.8 118C549.8 118.5 550.5 116.6 551.5 112.5C552 110.4 551.8 109.4 550.8 109.4C550.1 109.4 549.4 109.8 548.4 110.8C546 114.7 543.4 118.5 541 122.6C537.1 127.7 532.1 130.3 526.1 130.3C518.6 130.3 514.8 127.4 514.8 122.1C514.8 120.9 515 119.4 515.5 117.5C516 115.6 516.2 114.1 516.2 113.4C516.2 112.5 516 112 515.5 112ZM217.7 148C221 142.9 222.7 136.2 222.7 127.8C222.7 123 222 118.9 220.5 115.6C219.8 113.7 218.1 110.8 215.2 106.7C214.5 105.5 214 105.5 213.3 106.7C211.7 110.3 210.7 114.1 210.7 117.7C210.7 118.4 211 118.9 211.2 119.4C216 126.9 218.2 131.4 218.2 133.6C215.1 139.9 208.6 143 199 143L199 157.6C207.4 157.6 213.6 154.2 217.7 148ZM184.8 129.2C184.8 127.3 184.1 124.4 182.6 121C180.9 117.2 179.5 115.2 178.3 115.2C176.9 115.2 174.5 116.9 171.3 120.2C168.2 123.6 166.3 126.4 165.1 129.1C165.6 130.5 166.8 132.2 168.5 133.9C170.2 135.8 172.1 137 174 137.7C179.3 135.2 182.9 132.3 184.8 129.2ZM388.8 135.9C386.2 130.6 381.6 125.1 375.4 119.8C373.2 122 370.6 126 367.2 131.8C363.4 138.3 361.7 142.4 361.7 144.5C361.7 147.4 363.6 148.8 367.9 148.8C369.8 148.8 372.2 148.1 375.3 146.9C379.6 145 383.7 142.3 387.1 139C388.5 137.6 389 136.6 388.8 135.9ZM475.9 129.2C472.3 124.6 469.2 122.5 466.3 122.5C462 122.5 460.1 123.5 460.1 125.9C460.1 128.8 463 130.2 468.7 130.2C470.73 130.2 472.93 129.774 475.3 129.316C475.499 129.277 475.699 129.239 475.9 129.2ZM251.9 143.6C249.8 140.2 247.4 138.8 244.5 138.8C244.3 138.8 243.6 139.5 242.5 141.4C241.3 143.4 240.8 144.6 240.8 144.8C240.8 145.5 241.3 146.5 242.7 147.7C244.2 148.9 245.1 149.6 246.1 149.6C246.8 149.6 247.1 149.3 247.3 149.1C247.6 148.6 247.8 148.6 248.3 148.6C249.3 148.6 250.5 150.8 252.4 155.6C254.3 160.2 255.2 163.3 255 165C255.2 166 255.2 166.7 255.7 166.7C256.2 166.7 256.7 166 257.4 165C258.1 163.4 259.1 160.5 259.8 156.4C261.5 147.3 263.2 142.7 265.1 142.7C266 142.7 267 143.1 267.7 144.1C268.7 145.1 269.2 145.8 269.4 145.8C269.8 145.8 270.3 145 270.8 143.6C271.3 142.6 271.3 141.7 271.3 141.2C271.3 140.2 270.9 139.2 269.9 137.8C268.9 136.3 267.7 135.6 266.5 135.6C264.3 135.6 262.4 137.8 260.5 142.1C258.8 148.4 257.6 153.2 257.1 156.3C257.1 156.8 256.9 157.1 256.9 157.3L256.7 157.3C256.7 157 256.7 156.8 256.5 156.3C255.7 151 254.1 146.7 251.9 143.6ZM501.8 192.8C499.2 193.5 497.7 194 497.2 194L497.2 193.8C497.2 193.8 498.2 193.1 500.1 191.9C502 190.7 504.9 188.8 509 185.7C510.9 183.8 513.8 180.7 517.4 176.3C519.8 173.4 522.4 170.8 525.3 168.9C528.9 166.3 532.3 165.1 535.9 165.1C536.6 165.1 537.8 165.3 539.3 165.8C540.5 166.3 541.7 166.5 542.7 166.5C544.6 166.5 546.1 165.8 547.3 164.3C548 162.9 549 161.7 549.9 160.2C550.4 159.2 551.1 158.8 551.6 158.8C551.8 158.8 551.8 159 551.8 159.5C551.8 160 551.6 161.2 551.1 162.6C550.6 163.3 552.5 163.6 556.1 163.6C556.6 163.6 556.8 163.6 556.8 163.4C556.8 163.4 556.6 162.4 556.1 160.8C555.9 160.3 556.1 159.6 556.8 158.6L556.88 158.464C557.822 156.863 558.208 156.205 558.5 156.4C559.5 157.1 559.9 158.6 559.9 160.2C559.9 161.9 559.4 163.6 558.7 165.5C558 167.7 557.3 168.9 556.8 169.3C555.1 170.3 552.5 170 548.9 168.3C546 171.2 543.1 172.9 540.3 172.9C539.6 172.9 538.4 172.7 537.2 172.2C536 171.7 535 171.5 534.3 171.5C529.5 171.5 524.5 173.7 519.4 178.5L508.6 189.3C506.4 190.9 504.2 192.1 501.8 192.8ZM224.8 191.3C224.8 191.3 224.6 191.6 224.6 191.8C222.9 194.7 221.5 196.4 219.9 196.4C217.8 196.4 216.8 194.2 216.8 190.4C216.8 187.3 218 182.2 220.4 174.8C220.9 173.1 221.1 172.1 221.1 171.9C220.8 171.9 220.4 172.8 219.4 174.5C215.6 181.5 213.9 188.4 213.9 194.9C213.9 200.2 215.4 202.8 218.5 202.8C221.6 202.8 223.8 199.2 225 192C225.2 191.8 225.2 191.5 225 191.3C225 191.209 225 191.16 224.981 191.151C224.959 191.141 224.909 191.191 224.8 191.3ZM156.7 175.5C159.6 175.5 162 176.9 164.1 180.3C166.3 183.4 167.9 187.7 168.7 193C168.9 193.5 168.9 193.7 168.9 194L169.1 194C169.1 193.8 169.3 193.5 169.3 193C169.8 189.9 171 185.1 172.7 178.8C174.6 174.5 176.5 172.3 178.7 172.3C179.9 172.3 181.1 173 182.1 174.5C183.1 175.9 183.5 176.9 183.5 177.9C183.5 178.4 183.5 179.3 183 180.3C182.5 181.7 182 182.5 181.6 182.5C181.4 182.5 180.9 181.8 179.9 180.8C179.2 179.8 178.2 179.4 177.3 179.4C175.4 179.4 173.7 184 172 193.1C171.3 197.2 170.3 200.1 169.6 201.7C168.9 202.7 168.4 203.4 167.9 203.4C167.4 203.4 167.4 202.7 167.2 201.7C167.4 200 166.5 196.9 164.6 192.3C162.7 187.5 161.5 185.3 160.5 185.3C160 185.3 159.8 185.3 159.5 185.8C159.3 186 159 186.3 158.3 186.3C157.3 186.3 156.4 185.6 154.9 184.4C153.5 183.2 153 182.2 153 181.5C153 181.3 153.5 180.1 154.7 178.1C155.7 176.2 156.5 175.5 156.7 175.5ZM126.7 180.6C111.6 186.1 97.2 191.4 83.5 196.2C82.3 198.6 81.6 200.7 81.1 202.9C98.2 195.7 113 190 126 185.4C126.5 185 127.2 183.8 127.9 181.6C128.3 180.9 128.3 180.4 128.1 180.4C127.977 180.216 127.854 180.258 127.545 180.364C127.352 180.431 127.085 180.523 126.7 180.6Z" id="Group" fill="#595959" fill-rule="evenodd" stroke="none" clip-path="url(#clip_1)" />
  </g>
</svg>