<?xml version="1.0" encoding="utf-8"?>
<svg width="507.00015px" height="201.99998px" viewBox="0 0 507.00015 201.99998" version="1.1" xmlns:xlink="http://www.w3.org/1999/xlink" xmlns="http://www.w3.org/2000/svg">
  <defs>
    <path d="M507 0L507 0L507 202L0 202L0 0L507 0Z" id="path_1" />
    <clipPath id="clip_1">
      <use xlink:href="#path_1" clip-rule="evenodd" fill-rule="evenodd" />
    </clipPath>
  </defs>
  <g id="Surah_62_of_114_(modified)">
    <path d="M507 0L507 0L507 202L0 202L0 0L507 0Z" id="Surah_62_of_114_(modified)" fill="none" stroke="none" />
    <path d="M199.3 1.7C200 0.5 201 0 201.7 0C202.2 0 202.7 0.199997 202.7 0.699997C202.7 0.699997 202.5 0.899994 202.5 1.2C201.5 3.39999 200.6 5.8 199.9 8.2C204.9 11.8 207.3 15.6 207.1 19.2C206.6 23.3 206.1 25.9 205.4 26.9C203 29.8 200.4 31.5 197 31.5C193.6 31.5 192.2 29.3 192.2 25.5C192.2 24.8 192.2 23.8 192.4 22.9C193.6 15.1 196 8.2 199.3 1.7ZM116.2 8.39999C114.1 4.99998 111.7 3.59999 108.8 3.59999C108.6 3.59999 107.9 4.29999 106.8 6.20001C105.6 8.20001 105.1 9.40001 105.1 9.60001C105.1 10.3 105.6 11.3 107 12.5C108.5 13.7 109.4 14.4 110.4 14.4C111.1 14.4 111.4 14.1 111.6 13.9C111.9 13.4 112.1 13.4 112.6 13.4C113.6 13.4 114.8 15.6 116.7 20.4C118.6 25 119.5 28.1 119.3 29.8C119.5 30.8 119.5 31.5 120 31.5C120.5 31.5 121 30.8 121.7 29.8C122.4 28.2 123.4 25.3 124.1 21.2C125.8 12.1 127.5 7.49998 129.4 7.49998C130.3 7.49998 131.3 7.89998 132 8.89998C133 9.89998 133.5 10.6 133.7 10.6C134.1 10.6 134.6 9.79997 135.1 8.39998C135.6 7.39998 135.6 6.49998 135.6 5.99998C135.6 4.99998 135.2 3.99998 134.2 2.59999C133.2 1.09999 132 0.399994 130.8 0.399994C128.6 0.399994 126.7 2.59999 124.8 6.89999C123.1 13.2 121.9 18 121.4 21.1C121.4 21.6 121.2 21.9 121.2 22.1L121 22.1C121 21.8 121 21.6 120.8 21.1C120 15.8 118.4 11.5 116.2 8.39999ZM293.2 5.79999C293.2 8.39999 292 11.3 290.1 14.4C287.9 17.5 285.3 20.4 281.9 22.8C280.5 23.8 279.7 24.2 279.5 24.2L279.5 24C279.5 23.8 280 23.3 280.9 22.1C286.4 16.1 289.3 12.3 289.3 10.1C289.3 8.39999 288.3 7.49998 286.7 7.49998C285.7 7.49998 284.8 7.69998 284.1 8.19998C283.4 8.39998 283.1 8.69998 282.9 8.69998C282.9 8.69998 282.7 8.69998 282.7 8.49998C282.7 8.49998 282.7 7.99998 282.9 7.09999C283.9 2.99998 285.8 1.09999 289.1 1.09999C291.7 0.999985 293.2 2.59999 293.2 5.79999ZM194.8 121.2L195.198 121.3L194.2 121.3C192.1 125.6 190.4 129 189.2 131.4C189 131.6 189 131.9 189 132.1C189 132.6 190.4 133.1 193.3 133.3C208.2 134.5 223.3 136.2 238.7 138.6C221.913 148.024 209.848 152.823 202.6 152.995L202.6 152.8C198.5 152.8 195.4 152.3 193 151.1C192 150.6 190.1 149.2 187.2 146.8C186.2 146 185.5 145.8 185 145.8C184 145.8 182.8 146.5 181.4 148.4C177.8 152.4 175.4 155.1 174.4 155.8C169.9 159.1 164.4 160.8 157.4 160.8L157.4 161C149 161 142.3 158.9 137.7 154.3C145.9 150.9 152.1 148.3 156.7 146.6L161.3 138.2C161.8 137.2 162 136.2 162 136C162 135.3 161 134.3 159.1 132.9C151.5 127.2 140.9 124.3 127.7 124.3C120.9 124.3 113.7 125 106.3 126.7C98.3 128.6 94 130.3 93.3 132.2L89 142.3C88.5 143 88.5 143.5 88.5 144C88.5 144.8 88.7 145 89.2 145C89.7 145 90.2 144.7 90.9 144.5C92.6 143.3 95.2 142.8 98.8 142.8C100.5 142.8 103.1 143.8 106.5 145.7C110.3 147.8 113.7 150.2 116.3 153.1C107.9 158.4 100.2 161 93.5 161L93.5 175.6C98.3 175.6 103.1 174.4 107.7 171.8C109.8 170.8 115.3 167.2 124.7 161C132.1 167.5 137.9 171.6 142.3 173.2C145.9 174.9 150.9 175.6 157.4 175.6L157.4 175.7C162.9 175.7 167.7 173.5 172 169.7C174.4 166.6 176.8 163.7 179.2 161.1C179.6 160.1 180.1 159.4 180.6 159.4C180.9 159.4 180.9 160.1 181.1 161.1C181.5 166.9 182.5 171.5 183.7 174.1C185.9 178.9 189.9 182.9 195.7 186.3C197.6 187.3 198.8 188 199.8 188C200.5 188 201 187 201.7 185.6C202.9 182.7 203.6 179.3 203.6 175.5C203.6 172.441 203.143 169.748 202.491 167.595C205.836 167.471 211.542 165.276 219.7 161.1C232.2 154.6 239.6 151 242.5 149.8C248.734 147.202 255.563 145.306 262.971 144.084C263.19 148.178 263.3 150.948 263.3 152.4C263.3 157.5 263.1 162 262.6 166.1C262.571 166.479 262.542 166.844 262.514 167.193C262.35 169.235 262.229 170.746 262.4 171.6C262.6 172.3 262.9 172.3 263.6 171.1C264.1 170.2 264.5 169 265.5 167.3C268.224 160.202 269.857 152.082 270.345 143.108C275.023 142.634 279.909 142.4 285 142.4C286 142.4 286.5 141.9 287.2 140.7L292.2 130.6C292.7 130.1 292.7 129.6 292.7 129.5C292.7 128.7 291.2 128.5 288.6 128.5C283.296 128.5 277.123 128.259 270.105 127.729C269.65 119.352 268.781 105.918 267.4 87.4C265.2 57.7 264 42.8 264 42.3C264 41.1 264.2 40.6 264.7 41.3C269 46.1 270.9 47.3 270.9 45.1C270.9 44.6 270.9 43.4 270.4 42.2C269.9 40.3 268.2 35.5 265.1 27.6C262.2 20.1 260.5 15.6 259.8 13.9C259.3 13.2 259.1 12.7 258.6 12.7C258.4 12.7 258.1 13.2 257.9 13.9C255 20.1 253.8 24.2 253.8 25.9C255.3 29.1 256 32.9 256 37.7C256 41.8 257.2 60.7 259.7 94.6C260.619 107.542 261.362 118.344 261.929 127.016C256.853 126.517 251.407 125.883 245.6 125.1C237.431 124.007 231.116 123.146 226.577 122.478C230.373 118.374 233.124 113.557 234.7 107.8C236.6 101.6 237.6 91.5 237.6 77.8C237.6 72.8 237.2 63.9 236.2 51.2C235.3 38.2 234.8 31.7 234.8 31.5C234.8 30.3 235 29.8 235.5 30.5C239.5 35.3 241.7 36.5 241.7 34.3C241.7 33.8 241.4 32.6 241.2 31.2C240.5 29.5 238.8 24.7 235.9 16.8C233 9.29999 231.1 4.79999 230.4 3.09999C229.9 2.09999 229.6 1.89999 229.4 1.89999C229.1 1.89999 228.6 2.2 228.4 2.89999C225.7 9.29999 224.3 13.4 224.3 15.1C225.8 18.2 226.5 22 226.5 26.6C226.5 30.7 227 40.8 228.4 57.1C229.6 73.7 230.3 84.2 230.3 89.5C230.3 100 230 105.8 229.8 107C229.3 108.7 227.8 110.1 225.2 111.1C220 113.2 213 115.4 204.6 117.8C198.4 119.5 195 120.7 194.8 121.2ZM261.929 127.016C264.77 127.295 267.496 127.532 270.105 127.729C270.375 132.697 270.5 135.885 270.5 137.3C270.5 139.273 270.448 141.21 270.345 143.108C267.826 143.364 265.368 143.689 262.971 144.084C262.742 139.828 262.395 134.14 261.929 127.016ZM226.577 122.478C224.834 124.362 222.871 126.095 220.7 127.7L195.198 121.3L219.4 121.3C220.844 121.597 223.226 121.985 226.577 122.478ZM312.1 14C312.1 16.6 314.2 19 318.8 21.4C315.5 25 310.4 28.8 303.4 33.1C297.4 36.4 291.7 39.8 285.9 43.4C284.5 44.1 284 44.9 284 45.1C284 45.1 284 45.3 284.2 45.3C284.4 45.3 285.4 45.1 286.6 44.6C294.3 41.8 298.6 40.1 299.6 39.6C303.2 38.2 307.2 35.5 311.8 32.4C315.6 29.5 318.8 26.4 321.4 22.8C323.6 24 325 25.2 325.5 26.2C327.6 23.4 328.6 21.2 328.6 20C328.1 19 326.7 17.8 324.3 16.6C325.5 13.2 326 10.3 326 7.70001C326 4.90001 325.3 3.20001 323.6 2.70001C321.7 2 319.3 3 316.4 5.60001C313.5 8 312.1 10.9 312.1 14ZM366.8 24.9C366.8 24.9 366.6 25.2 366.6 25.4C364.9 28.3 363.5 30 361.9 30C359.8 30 358.8 27.8 358.8 24C358.8 20.9 360 15.8 362.4 8.39999C362.9 6.7 363.1 5.7 363.1 5.5C362.8 5.5 362.4 6.40001 361.4 8.10001C357.6 15.1 355.9 22 355.9 28.5C355.9 33.8 357.4 36.4 360.5 36.4C363.6 36.4 365.8 32.8 367 25.6C367.2 25.4 367.2 25.1 367 24.9C367 24.8093 367 24.7598 366.981 24.7513C366.959 24.7411 366.909 24.7907 366.8 24.9ZM321.9 10.8C322.2 12.2 322.2 13.7 321.7 15.1C318.1 13.4 316.2 12 316.1 10.7C316.1 10.3 316.5 9.79999 317.5 9.29999C318.5 8.79999 319.2 8.59999 319.7 8.59999C320.9 8.59999 321.6 9.39998 321.9 10.8ZM204.6 20.9C204.6 19.7 202.2 17.5 197.2 14.7C195.5 17.6 194.8 20.2 194.8 22.6C194.8 24 195.5 25 197 25C198.2 25 199.6 24.5 201.3 23.6C202.9 22.8 204.1 21.8 204.6 20.9ZM176.1 16.8C133.8 32.7 92.6 48 52 63.4C50.8 65.8 50 67.9 49.6 70.1C94.5 52.1 136.5 36 175.1 21.6C175.6 21.2 176.3 20 177.3 17.8C177.5 17.1 177.5 16.6 177.3 16.6C177.3 16.3866 177.047 16.4767 176.649 16.6185C176.488 16.6761 176.302 16.7422 176.1 16.8ZM73.1 33.1C75 30 76.2 27.1 76.2 24.5C76.2 21.4 74.8 19.7 72.1 19.8C68.8 19.8 66.9 21.7 65.9 25.8C65.7 26.7 65.7 27.2 65.7 27.2C65.7 27.4 65.9 27.4 65.9 27.4C66.1 27.4 66.4 27.1 67.1 26.9C67.8 26.4 68.7 26.2 69.7 26.2C71.3 26.2 72.3 27.1 72.3 28.8C72.3 31 69.4 34.8 63.9 40.8C63 42 62.5 42.5 62.5 42.7L62.5 42.9C62.7 42.9 63.5 42.5 64.9 41.5C68.3 39.1 70.9 36.2 73.1 33.1ZM345.2 59C369.4 49.9 394.6 40.8 420.6 31.2C420.802 31.1422 420.988 31.0761 421.149 31.0185C421.547 30.8767 421.8 30.7866 421.8 31C422 31 422 31.5 421.8 32.2C420.8 34.4 420.1 35.6 419.6 36C419.4 36.2 407.1 40.8 383.4 49.7C359.2 58.6 345.5 64.1 342.8 65.8C343.3 63.6 344 61.4 345.2 59ZM475.8 60.2C473.4 66 472.2 70.5 472.2 73.9C472.2 78 473.2 80.1 475.3 80.1C476.5 80.1 477.9 78.4 479.6 75.5C479.8 75.3 479.8 75 480.1 74.8C480.1 74.8 480.3 74.8 480.3 75L480.3 75.7C478.9 82.9 476.7 86.5 473.8 86.5C470.7 86.5 469.2 83.9 469.2 78.6C469.2 76 469.7 72.6 471.1 68.3C472.5 64 473.3 61.8 473.3 61.6C473.3 61.1 472.3 60.2 470.2 59C466.4 64 461.1 68.8 454.4 72.9C449.8 75.5 445.3 77.9 440.5 79.9C431.6 83.5 426.3 85.4 425.1 86.1C423.9 86.6 423.2 86.8 422.7 86.8C422.5 86.8 422.5 86.6 422.5 86.6C422.5 86.1 423 85.6 424.4 84.7C432.1 80.4 439.5 76.1 447.2 71.7C457.3 65.9 464.2 61.1 467.6 57.5C463 55.1 460.9 52.7 460.9 50.1C460.9 47 462.3 44.1 465.2 41.5C468.1 39.1 470.5 38.1 472.4 38.9C473.8 39.4 474.8 41.1 474.8 43.9C474.8 46.5 474.3 49.4 473.1 52.5C475.5 53.9 476.5 55.4 476.5 56.8C476.5 57.6 476.3 58.8 475.8 60.2ZM181.3 60.7C176.7 58.3 174.6 55.9 174.6 53.3C174.6 50.2 176 47.3 178.9 44.9C181.8 42.3 184.2 41.3 186.1 42C187.8 42.5 188.5 44.2 188.5 47C188.5 49.6 188 52.5 186.8 55.9C189.2 57.1 190.6 58.3 191.1 59.3C191.1 60.5 190.1 62.7 188 65.5C187.5 64.5 186.1 63.3 183.9 62.1C181.3 65.7 178.1 68.8 174.3 71.7C169.7 74.8 165.7 77.5 162.1 78.9C161.1 79.4 156.8 81.1001 149.1 83.9C147.9 84.4 146.9 84.6001 146.7 84.6001C146.5 84.6001 146.5 84.4 146.5 84.4C146.5 84.2 147 83.4 148.4 82.7C154.2 79.1 159.9 75.7 165.9 72.4C172.9 68.2 178 64.3 181.3 60.7ZM470.5 51.4C471 50 471 48.5 470.7 47.1C470.5 45.7 469.7 44.9 468.5 44.9C468 44.9 467.3 45.1 466.3 45.6C465.3 46.1 464.9 46.6 464.9 47C465 48.2 466.9 49.7 470.5 51.4ZM184.2 54.5C184.7 53.1 184.7 51.6 184.4 50.2C184.2 48.8 183.4 48 182.2 48C181.7 48 181 48.2 180 48.7C179 49.2 178.6 49.7 178.6 50.1C178.7 51.4 180.6 52.8 184.2 54.5ZM136.9 48.2C138.6 48.2 140.5 49.2 143.1 51.3C145.7 53.2 147.2 55.1 147.4 56.6C147.6 57.1 147.2 58 146.4 59.7C145.7 61.4 145.2 62.1 145 62.1C142.6 62.8 140.2 63.5 137.8 64.3C134.7 65.3 132.8 66.5 131.6 67.7C135 77.8 136.6 87.6 136.6 97.5C136.6 100.4 136.1 103.3 135.6 106.4C135.4 107.4 135.1 107.8 134.9 108.1C134.7 108.1 134.7 106.2 134.7 102.8C134.7 97.3 133.7 90.3 132.1 82.4C130.4 74.5 129.7 69.7 129.7 68.7C129.7 64.6 130.7 61.7 133.1 59.8C134.1 59.1 136.2 58.1 139.1 57.2C137.9 56 136.7 55.5 135.5 55.5C135 55.5 134.3 56 133.3 57.2C132.3 58.6 131.6 59.1 131.6 59.1C131.4 59.1 131.1 58.6 131.4 57.7C132.1 51.4 134 48.2 136.9 48.2ZM314.7 49.9L310.9 57.8C310 56.9 307.8 55.2 304.7 53.3C301.6 51.1001 299.9 49.9 299.4 49.9C299.1 49.9 298.6 50.4 298.4 50.9L293.8 60.5C293.6 61 293.6 61.3 293.8 61.5C297.7 63.9 301.5 66.5 305.1 69.4C305.6 69.7 306.1 69.4 306.3 68.7C307.8 66.5 309 63.9 310.4 61C314.5 63.6 318.1 66 321.2 68.4C321.6 68.6 322.1 68.6 322.6 67.9C325.7 62.6 327.4 59 327.4 57.3C327.4 56.8 325.5 55.4 321.9 53C318.1 50.4 316.2 49.2 315.7 49.2C315.2 49.2 314.9 49.4 314.7 49.9ZM9.50002 56.9C12.4 56.9 14.8 58.3 16.9 61.7C19.1 64.8 20.7 69.1 21.5 74.4C21.7 74.9 21.7 75.1 21.7 75.4L21.9 75.4C21.9 75.2 22.1 74.9 22.1 74.4C22.6 71.3 23.8 66.5 25.5 60.2C27.4 55.9 29.3 53.7 31.5 53.7C32.7 53.7 33.9 54.4 34.9 55.9C35.9 57.3 36.3 58.3 36.3 59.3C36.3 59.8 36.3 60.7 35.8 61.7C35.3 63.1 34.8 63.9 34.4 63.9C34.2 63.9 33.7 63.2 32.7 62.2C32 61.2 31 60.8 30.1 60.8C28.2 60.8 26.5 65.4 24.8 74.5C24.1 78.6 23.1 81.5 22.4 83.1C21.7 84.1 21.2 84.8 20.7 84.8C20.2 84.8 20.2 84.1 20 83.1C20.2 81.4 19.3 78.3 17.4 73.7C15.5 68.9 14.3 66.7 13.3 66.7C12.8 66.7 12.6 66.7 12.3 67.2C12.1 67.4 11.8 67.7 11.1 67.7C10.1 67.7 9.2 67 7.7 65.8C6.3 64.6 5.8 63.6 5.8 62.9C5.8 62.7 6.29999 61.5 7.5 59.5C8.50002 57.6 9.20001 56.9 9.50002 56.9ZM393.2 67C391.1 63.6 388.7 62.2 385.8 62.2C385.6 62.2 384.8 62.9 383.8 64.8C382.6 66.8 382.1 68 382.1 68.2C382.1 68.9 382.6 69.9 384 71.1C385.5 72.3 386.4 73 387.4 73C388.1 73 388.4 72.7 388.6 72.5C388.9 72 389.1 72 389.6 72C390.6 72 391.8 74.2 393.7 79C395.6 83.6 396.5 86.7 396.3 88.4C396.5 89.4 396.5 90.1 397 90.1C397.5 90.1 398 89.4 398.7 88.4C399.4 86.8 400.4 83.9 401.1 79.8C402.8 70.7 404.5 66.1 406.4 66.1C407.3 66.1 408.3 66.5 409 67.5C410 68.5 410.5 69.2 410.7 69.2C411.1 69.2 411.6 68.4 412.1 67C412.6 66 412.6 65.1 412.6 64.6C412.6 63.6 412.2 62.6 411.2 61.2C410.2 59.7 409 59 407.8 59C405.6 59 403.7 61.2 401.8 65.5C400.1 71.8 398.9 76.6 398.4 79.7C398.4 80.2 398.2 80.5 398.2 80.7L398 80.7C398 80.4 398 80.2 397.8 79.7C397 74.4 395.4 70.1 393.2 67ZM114.6 97.2C108.8 98.8 103.8 99.8 99 99.8C93.7 99.8 91.1 98.4 90.9 96.2001C90.9 95.5001 91.1 94.5001 91.6 93.3001C94.7 87.8001 99.5 82.7001 106 78.4001C107.4 76.0001 108.4 73.8001 108.4 71.4001C108.4 70.4001 108.2 70.2001 107.7 70.4001C106.5 71.6001 105.3 72.8001 103.9 73.8001C101.9 75.7001 100.3 76.7001 99.3 76.7001C96.5 76.7001 94.3 75.5 93.1 73.6001C93.1 72.9001 93.6 71.9001 94.8 70.7001C95.8 69.5 96.5 69 97.2 69C98.6 69 99.3 69.8001 99.8 71.2001C99.8 71.4 100.5 70.9 101.5 69.5C102.4 68 102.9 67.1001 102.9 66.6001C102.9 65.6001 102.7 64.9001 102.2 64.2001C101.8 63.2001 101.3 63 100.8 63C98.9 63 96.5 64.6001 93.4 68C90.2 71.4 88.8 74.3 88.8 76.9C88.8 79.8 90.8 81.7 94.6 82.9C90.3 88.4 88.1 93.7 88.1 98.7C88.1 100.6 88.9 102.3 90.3 103.5C91.8 104.7 93.9 105.4 96.1 105.4C103.8 105.4 110.3 103 115.1 98.7C116.3 97.7 116.8 97.2 116.8 97C116.8 96.7 116 96.7 114.6 97.2ZM194.8 80.7C194.8 83.3 196.9 85.7 201.5 88.1C198.1 91.7 193.1 95.5 186.1 99.8C180.1 103.1 174.4 106.5 168.6 110.1C167.2 110.8 166.7 111.6 166.7 111.8C166.7 111.8 166.7 112 166.9 112C167.1 112 168.1 111.8 169.3 111.3C177 108.5 181.3 106.8 182.3 106.3C185.9 104.9 189.9 102.2 194.5 99.1C198.3 96.2 201.5 93.1 204.1 89.5C206.3 90.7 207.7 91.9 208.2 92.9C210.3 90.1 211.3 87.9 211.3 86.7C210.8 85.7 209.4 84.5 207 83.3C208.2 79.9 208.7 77 208.7 74.4C208.7 71.6 208 69.9 206.3 69.4C204.4 68.7 202 69.7 199.1 72.3C196.2 74.7 194.8 77.6 194.8 80.7ZM333.7 75.8C333.7 79.6 331.8 84.9 327.9 91.4C325.5 95.5 321.9 101 317.1 108.2C321.9 113.7 325.3 118.8 326.9 123.1C327.9 126.2 328.6 130.3 328.6 134.9C328.6 136.8 328.1 139.2 327.2 142.3C326.5 145.2 325.5 147.3 324.6 148.8C322.7 151.7 319.6 154.6 314.8 157.4C309.8 160.8 305.4 162.4 301.8 162.4C296 162.4 293.2 158.1 293.2 149.4C293.2 143.6 294.2 137.9 296.1 132.6C298 128 301.1 122 306.2 114.1C301.9 110 297.3 104.3 292.3 97.1C291.8 96.4 290.6 95.2 288.7 93.3C287.7 92.3 287.3 91.1 287.3 89.7C287.3 87.5 287.5 85.1 288 82.3C288.7 79.4 289.2 78.2 289.4 78.2C290.1 78.2 292.3 79.4 296.4 82C300.2 84.6 303.4 86.6 305.3 88.2C306.5 88.9 307 89.6 307 89.6L307 89.8C307 90 306.3 90.3 304.6 90.3C301.5 90.3 299.8 90.5 299.8 90.8C299.8 91 300.3 91.5 301.2 92.7C305 97.5 308.9 101.1 313 104C314 102.6 317.3 97.8 322.6 89.6C327.2 82.6 329.8 77.8 331 75C332.2 72.1 332.9 70.9 333.4 70.9C333.5 71 333.7 72.5 333.7 75.8ZM204.6 77.5C204.9 78.9 204.9 80.4 204.4 81.8C200.8 80.2 198.8 78.7 198.8 77.4C198.8 77 199.2 76.5 200.2 76C201.2 75.5 201.9 75.3 202.4 75.3C203.6 75.3 204.4 76.1 204.6 77.5ZM351.2 104.2C352.2 105.4 352.9 107 353.4 109.2C354.6 113.3 357 119 360.3 126.1C363.2 132.4 364.6 135.7 364.6 136.2C364.6 138.2 361.7 141.3 356.2 145.6C351.349 149.206 345.036 153.327 337.263 157.908C337.998 153.471 339.271 148.156 341.1 141.9C341.4 140.4 341.6 139.2 341.6 138.5C341.6 138 341.6 137.8 341.4 137.8C340.9 137.8 340.4 138.8 339.2 141.2C336.854 147.535 335.127 153.699 334.1 159.75C330.892 161.598 327.459 163.516 323.8 165.5C314.4 170.6 302.7 176.1 288.5 182.1C268.1 190.7 257 195.5 255.1 196.5C249.8 198.9 247.2 200.4 247.2 200.6C247.2 200.8 247.2 200.8 247.7 200.8C248.7 200.8 251.1 200.5 254.9 199.8C258.5 199.3 267.6 197.2 282 193.8C295.7 190.5 302.9 188.8 303.4 188.8C306 188.8 314.4 184.7 328.8 176.3C330.245 175.49 331.653 174.685 333.024 173.885C333.26 181.153 335.24 187.416 338.8 192.1C343.1 198.1 349.3 201.2 357.5 201.2C367.1 201.2 378.1 196.2 391.1 186.6C399.8 180.1 407.7 172.6 414.9 164C418 160.4 420.6 155.8 422.3 150.3C423.8 145.9 424.5 142.6 424.5 139.7L425 139.2L425 126C424 126.5 423.5 126.5 423.3 126.5C420.9 121.5 418 117.4 414.9 113.8C411.3 110.2 408.2 108.3 405.1 108.3C401 108.3 397.2 110.4 393.6 114.5C389.8 119.3 388.1 124.6 388.1 130.6C388.1 138.5 393.9 142.6 405.4 142.6C410.7 142.6 415 141.9 417.9 140.9C418.4 142.6 418.9 144.3 418.9 145.7C418.9 147.8 415.3 152.2 408.3 159C400.6 166.2 392.7 172.2 384.5 177.2C374.1 183.5 365.5 186.6 358.3 186.6C349.9 186.6 343.9 183.9 340.1 178.9C338.639 176.709 337.623 174.221 337.051 171.483C349.344 163.985 358.323 156.92 364.1 150.4C366.1 148.2 367.5 145.1 368.7 141C369.6 137.4 370.1 134.5 370.1 132.1C370.1 127 368.6 121.5 366 114.8C364.3 111 362.4 106.9 360.7 102.8C363.6 103.5 365.5 104 366.2 104C366.7 104 366.9 103.7 366.9 103.5C366.9 103 366.2 102.1 364.5 100.4C360.5 96.3 356.9 92.4 353.5 88.6C353 88.1 352.7 87.9 352.5 87.9C352 87.9 351.7 88.4 351.5 89.6C351 90.8 350.8 93 350.3 96.1C349.8 99.4 349.8 101.1 349.8 101.6C350 102 350.5 102.8 351.2 104.2ZM53.4 99.9L49.6 107.8C48.6 106.8 46.4 105.1 43.4 103.3C40.3 101.1 38.6 99.9 38.1 99.9C37.8 99.9 37.3 100.4 37.1 100.9L32.5 110.5C32.3 111 32.3 111.3 32.5 111.5C36.4 113.9 40.2 116.5 43.8 119.4C44.3 119.7 44.8 119.4 45 118.7C46.5 116.5 47.7 113.9 49.1 111C53.2 113.6 56.8 116 59.9 118.4C60.3 118.6 60.8 118.6 61.3 117.9C64.4 112.6 66.1 109 66.1 107.3C66.1 106.8 64.2 105.4 60.6 103C56.8 100.4 54.9 99.2 54.4 99.2C53.9 99.2 53.6 99.4 53.4 99.9ZM451.1 110.9C450.4 110.9 449.4 111.3 448.2 112.3C444.4 115.7 440.5 118.6 436.6 120.5C435.4 121.3 431.3 123.2 425.1 126.3L425.1 139.5C433.5 135.6 440 131.6 443.8 127C443.8 138 448.6 143.8 458.7 143.8C467.1 143.8 474 139 479.3 129.4C482.5 135.2 486.1 138.3 489.9 138.3C495.7 138.3 500 135.7 502.9 130.4C505.6 126 507 121 507 115C507 111.1 505.8 107.8 503.9 104.9C503.2 103.9 502.7 103.7 502.2 103.7C501.7 103.7 501.2 104.5 501 105.9C499.6 110.4 498.6 113.8 498.4 115.7C500.5 119.3 501.5 121.3 501.5 121.5C500.5 123.1 498.4 124.1 495 124.1C492.4 124.1 490 123.1 488.3 121.7C486.4 120.3 485.4 118.6 485.4 116.9C485.4 117.4 486.1 115.5 487.1 111.4C487.6 109.3 487.4 108.3 486.4 108.3C485.7 108.3 485 108.7 484 109.7C481.6 113.6 479 117.4 476.6 121.5C472.7 126.6 467.7 129.2 461.7 129.2C454.2 129.2 450.4 126.3 450.4 121C450.4 119.8 450.6 118.3 451.1 116.4C451.6 114.5 451.8 113 451.8 112.3C451.8 111.4 451.6 110.9 451.1 110.9ZM10.9 128.9C10.9 128.9 10.7 129.2 10.7 129.4C9.00002 132.2 7.60002 133.9 6.00002 134C3.90002 134 2.90002 131.8 2.90002 128C2.90002 124.9 4.10001 119.8 6.50002 112.4C7.00002 110.7 7.20001 109.7 7.20001 109.5C6.90001 109.5 6.5 110.4 5.50001 112.1C1.7 119.1 7.62939e-06 126 7.62939e-06 132.5C7.62939e-06 137.489 1.32897 140.085 4.0703 140.373C3.91563 140.79 3.75781 141.3 3.6 141.9C1.7 147.7 0.699997 155.6 0.699997 165.2C0.699997 173.1 2.1 180.8 5.5 188.2C9.39999 196.6 13.9 200.9 19.2 200.9C22.8 200.9 26.4 198.5 29.5 193.7C31.7 190.3 34.1 185.3 36.7 178.3C39.6 171.3 41.5 167 42.5 165.3C48.7 156 54.5 151.4 60 151.4C61.7 151.4 63.4 152.6 65.3 155.5C67.3 158.8 69.2 162.2 71.1 165.3C74.3 170.1 78.1 173.3 82.9 174.7C85.0706 175.193 88.6039 175.687 93.5 175.7L93.5 175.7L93.7 175.7C93.6331 175.7 93.5664 175.7 93.5 175.7L93.5 160.9C89 160.9 85.4 160.2 82.5 159C79.6 157.5 76.9 154.9 74.3 151.3C72.4 148.1 70.7 145 68.8 141.9C66.7 138.8 64 137.1 61.4 137.1C58.1 137.1 54 139 49.9 143.3C45.6 147.6 42 152.6 39.1 158.4C35.8 165.6 32.4 172.8 29.3 180C25.9 186 22.5 189.1 18.7 189.1C9.10001 189.1 4.5 178.8 4.5 158.4C4.5 154.1 4.8 148.8 5.5 142.6C5.70824 141.6 5.77772 140.809 5.73732 140.226C8.24267 139.428 10.0524 135.886 11.1 129.6C11.3 129.4 11.3 129.1 11.1 128.9C11.1 128.809 11.1 128.76 11.0814 128.751C11.0589 128.741 11.0093 128.791 10.9 128.9ZM324.4 134.9C321.8 129.6 317.2 124.1 311 118.8C308.8 121 306.2 125 302.8 130.8C299 137.3 297.3 141.4 297.3 143.5C297.3 146.4 299.2 147.8 303.5 147.8C305.4 147.8 307.8 147.1 310.9 145.9C315.2 144 319.3 141.3 322.7 138C324.1 136.6 324.6 135.6 324.4 134.9ZM411.5 128.2C407.9 123.6 404.8 121.5 401.9 121.5C397.6 121.5 395.7 122.5 395.7 124.9C395.7 127.8 398.6 129.2 404.3 129.2C406.4 129.1 408.8 128.6 411.5 128.2ZM140.8 140.6C138.2 138.7 132.9 137.7 125.4 137.5C122.8 137.7 120.1 137.7 118 138.2C122.8 141.3 126.2 144.2 128.3 146.6C132.1 144.5 136.4 142.3 140.8 140.6ZM437.4 191.8C434.8 192.5 433.3 193 432.8 193L432.8 192.8C432.8 192.8 433.8 192.1 435.7 190.9C437.6 189.7 440.5 187.8 444.6 184.7C446.5 182.8 449.4 179.7 453 175.3C455.4 172.4 458 169.8 460.9 167.9C464.5 165.3 467.9 164.1 471.5 164.1C472.2 164.1 473.4 164.3 474.9 164.8C476.1 165.3 477.3 165.5 478.3 165.5C480.2 165.5 481.7 164.8 482.9 163.3C483.6 161.9 484.6 160.7 485.5 159.2C486 158.2 486.7 157.8 487.2 157.8C487.4 157.8 487.4 158 487.4 158.5C487.4 159 487.2 160.2 486.7 161.6C486.2 162.3 488.1 162.6 491.7 162.6C492.2 162.6 492.4 162.6 492.4 162.4C492.4 162.4 492.2 161.4 491.7 159.8C491.5 159.3 491.7 158.6 492.4 157.6L492.48 157.464C493.422 155.863 493.808 155.205 494.1 155.4C495.1 156.1 495.5 157.6 495.5 159.2C495.5 160.9 495 162.6 494.3 164.5C493.6 166.7 492.9 167.9 492.4 168.3C490.7 169.3 488.1 169 484.5 167.3C481.6 170.2 478.7 171.9 475.9 171.9C475.2 171.9 474 171.7 472.8 171.2C471.6 170.7 470.6 170.5 469.9 170.5C465.1 170.5 460.1 172.7 455 177.5L444.2 188.3C442 189.8 439.8 191 437.4 191.8ZM188.8 163.4C190.9 164.2 193.3 165.6 195.5 168C197.6 170.4 198.6 172.5 198.6 174.7C196.7 174.7 194.5 173.3 192.4 170.6C190 168.2 188.8 165.8 188.8 163.4ZM224.5 183.1C224.3 182.9 224.3 182.6 224.5 182.1L229.1 172.5C229.3 172 229.8 171.8 230.1 171.8C230.6 171.8 232.7 173 236.3 175.4C240.1 178 242.1 179.5 242.1 180C242.1 181.7 240.4 185 237.1 190.3L237.071 190.34C236.592 191.011 236.39 191.294 235.9 191C232.2 188.2 228.4 185.5 224.5 183.1ZM133.1 183.6C133.1 186.2 131.9 189.1 130 192.2C127.8 195.3 125.2 198.2 121.8 200.6C120.4 201.6 119.6 202 119.4 202L119.4 201.8C119.4 201.6 119.9 201.1 120.8 199.9C126.3 193.9 129.2 190.1 129.2 187.9C129.2 186.2 128.2 185.3 126.6 185.3C125.6 185.3 124.7 185.5 124 186C123.3 186.2 123 186.5 122.8 186.5C122.8 186.5 122.6 186.5 122.6 186.3C122.6 186.3 122.6 185.8 122.8 184.9C123.8 180.8 125.7 178.9 129 178.9C131.6 178.8 133.1 180.5 133.1 183.6ZM43.3 193.9C52.9 190.5 63.2 186.7 74.3 182.9C74.6851 182.823 74.9516 182.731 75.1451 182.664C75.4541 182.558 75.577 182.516 75.7 182.7C75.9 182.7 75.9 183.2 75.5 183.9C74.8 186.1 74.1 187.3 73.6 187.7C64 191.1 53.2 195.1 41 200.7C41.4 198.5 42.1 196.3 43.3 193.9Z" id="Group" fill="#595959" fill-rule="evenodd" stroke="none" clip-path="url(#clip_1)" />
  </g>
</svg>