<?xml version="1.0" encoding="utf-8"?>
<svg width="576.3001px" height="203.1px" viewBox="0 0 576.3001 203.1" version="1.1" xmlns:xlink="http://www.w3.org/1999/xlink" xmlns="http://www.w3.org/2000/svg">
  <defs>
    <path d="M576.3 0L576.3 0L576.3 203.1L0 203.1L0 0L576.3 0Z" id="path_1" />
    <clipPath id="clip_1">
      <use xlink:href="#path_1" clip-rule="evenodd" fill-rule="evenodd" />
    </clipPath>
  </defs>
  <g id="Surah_28_of_114_(modified)">
    <path d="M576.3 0L576.3 0L576.3 203.1L0 203.1L0 0L576.3 0Z" id="Surah_28_of_114_(modified)" fill="none" stroke="none" />
    <path d="M290.7 1.7C291.4 0.5 292.4 0 293.1 0C293.6 0 294.1 0.199997 294.1 0.699997C294.1 0.699997 293.9 0.899994 293.9 1.2C292.9 3.39999 292 5.8 291.3 8.2C296.3 11.8 298.7 15.6 298.5 19.2C298 23.3 297.5 25.9 296.8 26.9C294.4 29.8 291.8 31.5 288.4 31.5C285 31.5 283.6 29.3 283.6 25.5C283.6 24.8 283.6 23.8 283.8 22.9C285 15.1 287.4 8.2 290.7 1.7ZM331.1 26.4C331.1 21.6 330.4 17.8 328.9 14.6C328.9 12.9 330.1 8.79999 333 2.59999C333.2 1.89999 333.5 1.39999 333.7 1.39999C334.2 1.39999 334.4 1.89999 334.9 2.59999C335.6 4.29999 337.3 8.79999 340.2 16.3C343.3 24.2 345 29 345.5 30.9C346 32.1 346 33.3 346 33.8C346 36 344.1 34.8 339.8 30C339.3 29.3 339.1 29.8 339.1 31C339.1 31.5 340.3 46.4 342.5 76.1C344.7 105.6 345.6 122.2 345.6 126C345.6 137.3 343.9 147.4 340.6 156C339.6 157.7 339.2 158.9 338.7 159.8C338 161 337.7 161 337.5 160.3C337.329 159.446 337.45 157.935 337.614 155.893C337.642 155.544 337.671 155.179 337.7 154.8C338.2 150.7 338.4 146.2 338.4 141.1C338.4 136.3 337.2 117.1 334.8 83.2999C332.3 49.4 331.1 30.5 331.1 26.4ZM325.1 115.2C325.1 129.4 322.5 140.4 317.4 148.6C313.1 155.3 308 158.9 302.3 158.9L302.3 144.3C306.9 144.3 311.4 142.4 315.7 138.8C316.9 137.8 317.6 133.8 317.6 127C317.6 122.9 316.4 106.4 314.2 77.6C312 48.8 311.1 31.8 311.1 26.5C311.1 21.9 310.4 18.1 308.9 15C308.9 13.3 310.3 9.19997 313 2.79997C313.2 2.09998 313.5 1.79997 314 1.79997C314.2 1.79997 314.5 1.99997 315 2.99997C315.7 4.69997 317.6 9.19997 320.5 16.7C323.4 24.6 325.1 29.4 325.8 31.1C326 32.5 326.3 33.7 326.3 34.2C326.3 36.4 324.1 35.2 320.1 30.4C319.6 29.9 319.4 30.2 319.4 31.4C319.4 31.6 320.4 44.6 322.3 70C324.1 95 325.1 110.2 325.1 115.2ZM195.5 30C219.7 20.9 244.9 11.8 270.9 2.2C271.102 2.14224 271.288 2.07614 271.449 2.01856C271.847 1.87673 272.1 1.78668 272.1 2C272.3 2 272.3 2.5 272.1 3.2C271.1 5.39999 270.4 6.59999 269.9 7C269.7 7.2 257.4 11.8 233.7 20.7C209.5 29.6 195.8 35.1 193.1 36.8C193.5 34.6 194.3 32.4 195.5 30ZM180.8 7.89999C180.8 10.5 179.6 13.4 177.7 16.5C175.5 19.6 172.9 22.5 169.5 24.9C168.1 25.9 167.3 26.3 167.1 26.3L167.1 26.1C167.1 25.9 167.6 25.4 168.5 24.2C174 18.2 176.9 14.4 176.9 12.2C176.9 10.5 175.9 9.59999 174.3 9.59999C173.3 9.59999 172.4 9.79999 171.7 10.3C171 10.5 170.7 10.8 170.5 10.8C170.5 10.8 170.3 10.8 170.3 10.6C170.3 10.6 170.3 10.1 170.5 9.2C171.5 5.09999 173.4 3.2 176.7 3.2C179.4 3.09999 180.8 4.79999 180.8 7.89999ZM381.5 15.9C381.5 18.5 383.6 20.9 388.2 23.3C384.8 26.9 379.8 30.7 372.8 35C366.8 38.3 361.1 41.7 355.3 45.3C353.9 46 353.4 46.8 353.4 47C353.4 47 353.4 47.2 353.6 47.2C353.8 47.2 354.8 47 356 46.5C363.7 43.7 368 42 369 41.5C372.6 40.1 376.6 37.4 381.2 34.3C385 31.4 388.2 28.3 390.8 24.7C393 25.9 394.4 27.1 394.9 28.1C397 25.3 398 23.1 398 21.9C397.5 20.9 396.1 19.7 393.7 18.5C394.9 15.1 395.4 12.2 395.4 9.60001C395.4 6.8 394.7 5.10001 393 4.60001C391.1 3.89999 388.7 4.89999 385.8 7.5C382.9 9.89999 381.5 12.8 381.5 15.9ZM391.3 12.7C391.6 14.1 391.6 15.6 391.1 17C387.5 15.4 385.5 13.9 385.5 12.6C385.5 12.2 385.9 11.7 386.9 11.2C387.9 10.7 388.6 10.5 389.1 10.5C390.3 10.5 391 11.3 391.3 12.7ZM432.8 30C432.8 30 432.6 30.3 432.6 30.5C430.9 33.4 429.5 35 427.9 35.1C425.8 35.1 424.8 32.9 424.8 29.1C424.8 26 426 20.9 428.4 13.5C428.9 11.8 429.1 10.8 429.1 10.6C428.8 10.6 428.4 11.5 427.4 13.2C423.6 20.2 421.9 27.1 421.9 33.6C421.9 38.9 423.4 41.5 426.5 41.5C429.6 41.5 431.8 37.9 433 30.7C433.2 30.5 433.2 30.2 433 30C433 29.9093 433 29.8598 432.981 29.8513C432.959 29.8411 432.909 29.8907 432.8 30ZM296 20.9C296 19.7 293.6 17.5 288.6 14.7C286.9 17.6 286.2 20.2 286.2 22.6C286.2 24 286.9 25 288.4 25C289.6 25 291 24.5 292.7 23.6C294.3 22.8 295.5 21.8 296 20.9ZM103.3 18.5C106.2 18.5 108.6 19.9 110.7 23.3C112.9 26.4 114.5 30.7 115.3 36C115.5 36.5 115.5 36.7 115.5 37L115.7 37C115.7 36.8 115.9 36.5 115.9 36C116.4 32.9 117.6 28.1 119.3 21.8C121.2 17.5 123.1 15.3 125.3 15.3C126.5 15.3 127.7 16 128.7 17.5C129.7 18.9 130.1 19.9 130.1 20.9C130.1 21.4 130.1 22.3 129.6 23.3C129.1 24.7 128.6 25.5 128.2 25.5C128 25.5 127.5 24.8 126.5 23.8C125.8 22.8 124.8 22.4 123.9 22.4C122 22.4 120.3 27 118.6 36.1C117.9 40.2 116.9 43.1 116.2 44.7C115.5 45.7 115 46.4 114.5 46.4C114 46.4 114 45.7 113.8 44.7C114 43 113.1 39.9 111.2 35.3C109.3 30.5 108.1 28.3 107.1 28.3C106.6 28.3 106.4 28.3 106.1 28.8C105.9 29 105.6 29.3 104.9 29.3C103.9 29.3 103 28.6 101.5 27.4C100.1 26.2 99.6 25.2 99.6 24.5C99.6 24.3 100.1 23.1 101.3 21.1C102.3 19.2 103.1 18.5 103.3 18.5ZM270.1 29C250 36.5 230.8 43.7 212.3 50.4C211.1 52.8 210.3 55 209.8 57.1C232.4 47.7 252.3 40 269.1 33.8C269.6 33.4 270.3 32.2 271.3 30C271.5 29.3 271.5 28.8 271.5 28.8C271.351 28.5764 271.035 28.6861 270.594 28.8393C270.444 28.8916 270.278 28.9491 270.1 29ZM57.2 49.4C57.2 49.4 57 49.7 57 49.9C55.3 52.8 53.9 54.5 52.3 54.5C50.2 54.5 49.2 52.3 49.2 48.5C49.2 45.4 50.4 40.3 52.8 32.9C53.3 31.2 53.5 30.2 53.5 30C53.2 30 52.8 30.9 51.8 32.6C48 39.6 46.3 46.5 46.3 53C46.3 58.3 47.8 60.9 50.9 60.9C54 60.9 56.2 57.3 57.4 50.1C57.6 49.9 57.6 49.6 57.4 49.4C57.4 49.3093 57.4 49.2598 57.3814 49.2513C57.3589 49.2411 57.3093 49.2907 57.2 49.4ZM414.6 61C438.8 51.9 464 42.8 490 33.2C490.202 33.1422 490.388 33.0761 490.549 33.0186C490.947 32.8768 491.2 32.7866 491.2 33C491.4 33 491.4 33.5 491.2 34.2C490.2 36.4 489.5 37.6 489 38C488.8 38.2 476.5 42.8 452.8 51.7C428.6 60.6 414.9 66.1 412.2 67.8C412.7 65.5 413.4 63.4 414.6 61ZM39.9 162.5C25.3 162.5 14.5 157.5 7.70001 147.6C2.40001 139.9 1.52588e-05 130.3 1.52588e-05 118.6C1.52588e-05 115 0.200012 111.6 0.700012 108C1.70001 102.5 2.90001 97.7 4.30001 93.8C4.5569 93.0807 4.86657 92.5198 5.1748 92.1444C3.10661 91.3715 2.10001 88.8417 2.10001 84.5C2.10001 78 3.8 71.1 7.60001 64.1C8.60001 62.4 9.00001 61.5 9.3 61.5C9.3 61.7 9.10001 62.7 8.60001 64.4C6.2 71.8 5.00001 76.9 5.00001 80C5.00001 83.8 6.00001 86 8.10001 86C9.70001 85.9 11.1 84.2 12.8 81.4C12.8 81.2 13 80.9 13 80.9C13.1093 80.7907 13.1589 80.7411 13.1814 80.7513C13.2 80.7597 13.2 80.8093 13.2 80.9C13.4 81.1 13.4 81.4 13.2 81.6C12 88.8 9.8 92.4 6.7 92.4C6.59977 92.4 6.5012 92.3973 6.40431 92.3918C6.41115 92.8069 6.33674 93.3619 6.20001 94C3.8 106.2 2.8 113.2 2.8 114.6C2.8 122 5.20001 129 10.2 135.2C16.9 143.4 26.8 147.7 39.5 147.7C51 147.7 63 145.1 75.5 139.8C85.8 135.5 95.2 130.2 103.6 124C111 118.2 114.6 114.2 114.6 111.8C114.6 103.6 112.2 95 107.6 85.6C106.6 83.9 106.2 82.5 106.2 81.5C106.2 80.8 107.2 77.4 109.1 71.2C109.6 70 109.8 69.5 110.3 69.5C110.8 69.5 111.5 70.2 112.2 71.9C114.4 76.7 118.2 80.3 123.2 82.5C132.6 67.6 138.8 58.3 141.7 54.9C150.6 43.9 159.7 38.3 168.8 38.3C176.2 38.3 183.2 40.9 189.4 46.5C194.7 51.3 197.3 55.5999 197.3 59.5C197.3 62.4 196.6 66.2 195.1 70.3C193.7 74.5999 192.2 77.7 190.3 79.9C187.2 83.7 181.4 87.8 173.5 91.9C162.2 97.9 150.2 101 138.2 101C136.451 101 134.694 100.889 132.922 100.663C132.947 100.834 132.973 101.012 133 101.2L133 105C133.5 108.4 134.4 110.8 136.4 112.2C138.1 113.8 141.2 114.5 145.5 114.5L145.5 114.6C151.67 114.572 158.134 111.971 164.4 106.7C167.8 103.1 171.4 99.7 174.7 96.4C175.4 95.7 175.9 95.4 176.4 95.4C177.1 95.4 177.6 96.8 177.6 99.7C177.6 101.9 178.3 104 180.2 106.4C182.4 109.3 185.7 111.9 190 113.8C199.4 99.2 205.6 89.8 208.7 86C217.8 75 226.9 69.2 235.6 69.2C243.3 69.2 250.2 72.3 256.5 78.8C261.8 84.1 264.2 88.6 264.2 92.5C264.2 93.9 263.5 96.8 262 101.1C260.3 105.9 258.9 109 257.4 110.7C254 114.5 248.5 118.6 240.6 122.9C229.1 128.9 217.3 131.8 205.3 131.8C201 131.8 195.5 130.6 188.7 128.2C187.5 131.1 187 133.7 187 136.4C187 146.2 195.6 151.3 212.7 151.3C221.3 151.3 229.7 149.6 238.6 146.7C246.5 143.6 254.2 140.2 262.1 137.1L262.1 137.3L273.9 132.3C272.2 127.5 271.5 122.7 271.5 117.9C271.5 110.7 272.5 104.7 274.6 100.4C276.8 95.8 279.6 93.7 283.2 93.7C286.3 93.7 289.4 96.3 292.1 101.6C294.7 106.2 295.9 110.5 295.9 114.3C295.9 123.9 293 131.8 287.5 138.1C291.3 142.2 296.1 144.3 301.9 144.3L301.9 158.9C296.433 158.871 290.965 156.471 285.2 151.7C282.3 149.3 279.9 146.4 278.2 143.5L262.1 150.5L262.1 150.3C251.1 155.1 243.1 158.2 238.6 159.9C227.3 164 218.2 165.9 211 165.9C192 165.9 182.4 157.7 182.4 141.4C182.4 136.6 183.1 131.8 185 127C177.6 122.9 173.5 116.9 172.3 108.8C168.2 115 164.6 119.6 161.7 122.2C156.7 126.8 151.1 129.2 145.4 129.2L145.4 129.1C137.557 129.074 132.49 125.973 130.1 119.7C129.1 117.5 128.9 114.9 128.9 111.5C128.9 109.3 129.1 106.9 129.6 104.1C129.798 102.479 130.027 101.202 130.305 100.25C126.632 99.5578 122.883 98.3808 119 96.7C119 112.1 116.8 122.4 112.3 127.4C106.1 134.8 96.5 142 84 149C68.5 157.9 53.6 162.5 39.9 162.5ZM545.1 61.9C542.7 67.7 541.5 72.2 541.5 75.6C541.5 79.7 542.5 81.8 544.6 81.8C545.8 81.8 547.2 80.1 548.9 77.2C549.1 77 549.1 76.7 549.4 76.5C549.4 76.5 549.6 76.5 549.6 76.7L549.6 77.4C548.2 84.6 546 88.2 543.1 88.2C540 88.2 538.5 85.6 538.5 80.3C538.5 77.7 539 74.3 540.4 70C541.8 65.7 542.6 63.5 542.6 63.3C542.6 62.8 541.6 61.9 539.5 60.7C535.7 65.7 530.4 70.5 523.7 74.6C519.1 77.2 514.6 79.6 509.8 81.6C500.9 85.2 495.6 87.1 494.4 87.8C493.2 88.3 492.5 88.5 492 88.5C491.8 88.5 491.8 88.3 491.8 88.3C491.8 87.8 492.3 87.3 493.7 86.4C501.4 82.1 508.8 77.8 516.5 73.4C526.6 67.6 533.5 62.8 536.9 59.2C532.3 56.8 530.2 54.4 530.2 51.8C530.2 48.7 531.6 45.8 534.5 43.2C537.4 40.8 539.8 39.8 541.7 40.6C543.1 41.1 544.1 42.8 544.1 45.6C544.1 48.2 543.6 51.1 542.4 54.2C544.8 55.6 545.8 57.1 545.8 58.5C545.9 59.3 545.6 60.5 545.1 61.9ZM539.9 53C540.4 51.6 540.4 50.1 540.1 48.7C539.9 47.3 539.1 46.5 537.9 46.5C537.4 46.5 536.7 46.7 535.7 47.2C534.7 47.7 534.3 48.2 534.3 48.6C534.3 49.9 536.3 51.4 539.9 53ZM384.1 51.9L380.3 59.8C379.3 58.8 377.1 57.1 374.1 55.3C371 53.1 369.3 51.9 368.8 51.9C368.5 51.9 368 52.4 367.8 52.9L363.2 62.5C363 63 363 63.3 363.2 63.5C367.1 65.9 370.9 68.5 374.5 71.4C375 71.7 375.5 71.4 375.7 70.7C377.2 68.5 378.4 65.9 379.8 63C383.9 65.6 387.5 68 390.6 70.4C391 70.6 391.5 70.6 392 69.9C395.1 64.5999 396.8 61 396.8 59.3C396.8 58.8 394.9 57.4 391.3 55C387.5 52.4 385.6 51.2 385.1 51.2C384.6 51.2 384.3 51.4 384.1 51.9ZM192.1 68.6C192.1 66.9 189.5 64 184.2 60C177.7 55 171.5 52.6 165.2 52.6C153.2 52.6 140.7 63.4 128.5 84.5C132.8 85.9 137.4 86.7 141.9 86.7C149.6 86.7 157.5 85.3 166.1 82.6C172.8 80.4 179.1 77.6 184.6 74.4C189.7 71.5 192.1 69.6 192.1 68.6ZM462.5 68.6C460.4 65.2 458 63.8 455.1 63.8C454.9 63.8 454.2 64.6 453.1 66.4C451.9 68.4 451.4 69.6 451.4 69.8C451.4 70.5 451.9 71.5 453.3 72.7C454.8 73.9 455.7 74.6 456.7 74.6C457.4 74.6 457.7 74.3 457.9 74.1C458.2 73.6 458.4 73.6 458.9 73.6C459.9 73.6 461.1 75.8 463 80.6C464.9 85.2 465.8 88.3 465.6 90C465.8 91 465.8 91.7 466.3 91.7C466.8 91.7 467.3 91 468 90C468.7 88.4 469.7 85.5 470.4 81.4C472.1 72.3 473.8 67.7 475.7 67.7C476.6 67.7 477.6 68.1 478.3 69.1C479.3 70.1 479.8 70.8 480 70.8C480.4 70.8 480.9 70 481.4 68.6C481.9 67.6 481.9 66.7 481.9 66.2C481.9 65.2 481.5 64.2 480.5 62.8C479.5 61.3 478.3 60.6 477.1 60.6C474.9 60.6 473 62.8 471.1 67.1C469.4 73.4 468.2 78.2 467.7 81.3C467.7 81.8 467.5 82.1 467.5 82.3L467.3 82.3C467.3 82 467.3 81.8 467.1 81.3C466.3 76 464.7 71.7 462.5 68.6ZM287.1 69.1L283.3 77C282.3 76.1 280.2 74.4 277.1 72.5C274 70.3 272.3 69.1 271.8 69.1C271.5 69.1 271 69.6 270.8 70.1L266.2 79.7C266 80.2 266 80.5 266.2 80.7C270.1 83.1 273.9 85.7 277.5 88.6C278 88.9 278.5 88.6 278.7 87.9C280.2 85.7 281.4 83.1 282.8 80.2C286.9 82.8 290.5 85.2 293.6 87.6C294 87.8 294.5 87.8 295 87.1C298.1 81.8 299.8 78.2 299.8 76.5C299.8 76 297.9 74.6 294.3 72.2C290.5 69.6 288.6 68.4 288.1 68.4C287.6 68.4 287.3 68.6 287.1 69.1ZM82.7 77C83.2 76 83.4 75.1 83.4 74.6C83.4 73.7 82.9 72.7 82.0001 71.2C80.8 69.7 79.6001 69 78.4001 69C76.2001 69 74.3 71.2 72.4001 75.5C70.7 81.8 69.5 86.6 69.3 89.7C69 90.2 68.8 90.5 68.8 90.7C68.8 90.7907 68.8 90.8403 68.7814 90.8487C68.7589 90.8589 68.7094 90.8094 68.6001 90.7L68.6001 89.7C67.6001 84.4 66.2 80.4 63.8 77C61.6001 73.6 59.2001 72.2 56.6001 72.2C56.3 72.2 55.6001 72.9001 54.4001 74.8C53.2001 76.8 52.7001 78 52.7001 78.2C52.7001 78.9 53.4001 79.9 54.6001 81.1C56.1001 82.3 57 83 58 83C58.7 83 59.2 82.7 59.2 82.5C59.4 82 59.7 82 60.4 82C61.1 82 62.3 84.2 64.2 89C66.1 93.6 67.1 96.7 67.1 98.4C67.1 98.8468 67.1599 99.2337 67.244 99.525C66.8387 99.9937 66.3582 100.554 65.8 101.2C64.1 103.1 62 105.2 59.1 107.4C47.1 115.3 38 120.9 31.5 124.7C30.3 125.4 29.6 126.2 29.6 126.4C29.6 126.4 29.6 126.6 29.8 126.6C30.3 126.6 31 126.4 32.2 125.9C40.2 123.1 44.5 121.4 45.2 120.9C48.8 119.3 52.8 116.9 57.4 113.5C62.5 109.9 65.8 106 67.5 102.2C68.0022 100.995 68.3783 100.042 68.6157 99.3407C68.8243 99.0779 69.0493 98.7582 69.3 98.4C70.3 96.8 71 93.9 71.7 89.8C73.4 80.7 75.3 76.1 77.2 76.1C77.9 76.1 78.9 76.5 79.6 77.5C80.6 78.5 81.1 79.2 81.3 79.2C82 79.2 82.5 78.4 82.7 77ZM68.6157 99.3407C68.8509 98.646 68.9498 98.1991 68.9 98L68.9 97.8C68.7588 97.8 68.2185 98.3985 67.244 99.525C67.3481 99.8858 67.4894 100.1 67.6 100.1C67.921 100.1 68.2419 99.8117 68.6157 99.3407ZM403.1 77.8C403.1 81.6 401.2 86.9 397.3 93.4C394.9 97.5 391.3 103 386.5 110.2C391.3 115.7 394.7 120.8 396.3 125.1C397.3 128.2 398 132.3 398 136.9C398 138.8 397.5 141.2 396.6 144.3C395.9 147.2 394.9 149.3 394 150.8C392.1 153.7 389 156.6 384.2 159.4C379.2 162.8 374.8 164.4 371.2 164.4C365.4 164.4 362.6 160.1 362.6 151.4C362.6 145.6 363.6 139.9 365.5 134.6C367.4 130 370.5 124 375.6 116.1C371.3 112 366.7 106.3 361.7 99.1C361.2 98.4 360 97.2 358.1 95.3C357.1 94.3 356.7 93.1 356.7 91.7C356.7 89.5 356.9 87.1 357.4 84.3C358.1 81.4 358.6 80.2 358.8 80.2C359.5 80.2 361.7 81.4 365.8 84C369.6 86.6 372.8 88.6 374.7 90.2C375.9 90.9 376.4 91.6 376.4 91.6L376.4 91.8C376.4 92 375.7 92.3 374 92.3C370.9 92.3 369.2 92.5 369.2 92.8C369.2 93 369.7 93.5 370.6 94.7C374.4 99.5 378.3 103.1 382.4 106C383.4 104.6 386.7 99.8 392 91.6C396.6 84.6 399.2 79.8 400.4 77C401.6 74.1 402.3 72.9 402.8 72.9C402.8 72.9146 402.806 72.9572 402.817 73.0299C402.881 73.4533 403.1 74.8982 403.1 77.8ZM259.1 99.6C259.1 97.9 256.5 94.8 250.9 90.7C244.7 85.9 238.2 83.5 232.2 83.5C219.5 83.5 206.8 94.1 194.5 115.2C199.5 116.6 204.3 117.6 208.7 117.6C216.4 117.6 224.5 116.2 233.2 113.3C239.9 111.1 245.9 108.5 251.7 105.1C256.7 102.2 259.1 100.3 259.1 99.6ZM420.5 106.1C421.5 107.3 422.2 108.9 422.7 111.1C423.9 115.2 426.3 121 429.6 128C432.5 134.3 433.9 137.6 433.9 138.1C433.9 140.1 431 143.2 425.5 147.5C420.664 151.094 414.377 155.201 406.637 159.764C407.369 155.296 408.649 149.929 410.5 143.6C410.8 142.1 411 140.9 411 140.2C411 139.7 411 139.5 410.8 139.5C410.3 139.5 409.8 140.5 408.6 142.9C406.233 149.29 404.497 155.506 403.473 161.608C400.245 163.469 396.787 165.401 393.1 167.4C383.7 172.5 372 178 357.8 184C337.4 192.6 326.3 197.4 324.4 198.4C319.1 200.8 316.5 202.3 316.5 202.5C316.5 202.7 316.5 202.7 317 202.7C318 202.7 320.4 202.4 324.2 201.7C327.8 201.2 336.9 199.1 351.3 195.7C365 192.4 372.2 190.7 372.7 190.7C375.3 190.7 383.7 186.6 398.1 178.2C399.582 177.37 401.025 176.544 402.429 175.724C402.685 182.932 404.663 189.146 408.2 193.8C412.5 199.8 418.7 202.9 426.9 202.9C436.5 202.9 447.5 197.9 460.5 188.3C469.2 181.8 477.1 174.3 484.3 165.7C487.4 162.1 490 157.5 491.7 152C493.2 147.6 493.9 144.3 493.9 141.4L494.4 140.9L494.4 127.7C493.4 128.2 492.9 128.2 492.7 128.2C490.3 123.2 487.4 119.1 484.3 115.5C480.7 111.9 477.6 110 474.5 110C470.4 110 466.6 112.1 463 116.2C459.2 121 457.5 126.3 457.5 132.3C457.5 140.2 463.3 144.3 474.8 144.3C480.1 144.3 484.4 143.6 487.3 142.6C487.8 144.3 488.3 146 488.3 147.4C488.3 149.5 484.7 153.8 477.7 160.7C470 167.9 462.1 173.9 453.9 178.9C443.5 185.2 434.9 188.3 427.7 188.3C419.3 188.3 413.3 185.6 409.5 180.6C408.061 178.442 407.054 175.996 406.477 173.306C418.705 165.837 427.642 158.798 433.4 152.3C435.4 150.1 436.8 147 438 142.9C438.9 139.3 439.4 136.4 439.4 134C439.4 128.9 437.9 123.4 435.3 116.7C433.6 112.9 431.7 108.8 430 104.7C432.9 105.4 434.8 105.9 435.5 105.9C436 105.9 436.2 105.6 436.2 105.4C436.2 104.9 435.5 104 433.8 102.3C429.8 98.2 426.2 94.3 422.8 90.5C422.3 90 422 89.8 421.8 89.8C421.3 89.8 421 90.3 420.8 91.5C420.3 92.7 420.1 94.9 419.6 98C419.1 101.3 419.1 103 419.1 103.5C419.3 103.9 419.8 104.7 420.5 106.1ZM520.4 112.6C519.7 112.6 518.7 113 517.5 114C513.7 117.4 509.9 120.2 505.9 122.2C504.7 123 500.6 124.9 494.4 128L494.4 141.2C502.8 137.3 509.3 133.3 513.1 128.7C513.1 139.7 517.9 145.5 528 145.5C536.4 145.5 543.3 140.7 548.6 131.1C551.8 136.9 555.4 140 559.2 140C565 140 569.3 137.4 572.2 132.1C574.9 127.7 576.3 122.7 576.3 116.7C576.3 112.8 575.1 109.5 573.2 106.6C572.5 105.6 572 105.4 571.5 105.4C571 105.4 570.5 106.2 570.3 107.6C568.9 112.1 567.9 115.5 567.7 117.4C569.8 121 570.8 123 570.8 123.2C569.8 124.8 567.7 125.8 564.3 125.8C561.7 125.8 559.3 124.8 557.6 123.4C555.7 122 554.7 120.3 554.7 118.6C554.7 119.1 555.4 117.2 556.4 113.1C556.9 111 556.7 110 555.7 110C555 110 554.3 110.4 553.3 111.4C550.9 115.3 548.3 119.1 545.9 123.2C542 128.3 537 130.9 531 130.9C523.5 130.9 519.7 128 519.7 122.7C519.7 121.5 519.9 120 520.4 118.1C520.9 116.2 521.1 114.7 521.1 114C521.1 113.1 520.9 112.6 520.4 112.6ZM288.6 113.1C291 116.4 292.2 118.8 292.2 120.5C292.2 121.4 290.7 122.9 287.5 125.1C284.8 127 282.7 128.4 280.5 129.4C279.7 128.2 278.5 126.3 277.1 123.2C275.7 119.6 274.7 117.2 274.7 115.8C274.7 114.1 275.4 112.4 277.1 110.5C278.5 108.6 280 107.6 281.4 107.6C283.6 107.6 286 109.5 288.6 113.1ZM393.7 136.8C391.1 131.5 386.5 126 380.3 120.7C378.1 122.9 375.5 126.9 372.1 132.7C368.3 139.2 366.6 143.3 366.6 145.4C366.6 148.3 368.5 149.7 372.8 149.7C374.7 149.7 377.1 149 380.2 147.8C384.5 145.9 388.6 143.2 392 139.9C393.5 138.5 393.9 137.5 393.7 136.8ZM480.8 129.8C477.2 125.2 474.1 123.1 471.2 123.1C466.9 123.1 465 124.1 465 126.5C465 129.4 467.9 130.8 473.6 130.8C475.63 130.8 477.83 130.374 480.2 129.916C480.399 129.877 480.599 129.839 480.8 129.8ZM506.7 193.4C504.1 194.1 502.6 194.6 502.1 194.6L502.1 194.4C502.1 194.4 503.1 193.7 505 192.5C506.9 191.3 509.8 189.4 513.9 186.3C515.8 184.4 518.7 181.3 522.3 176.9C524.7 174 527.3 171.4 530.2 169.5C533.8 166.9 537.2 165.7 540.8 165.7C541.5 165.7 542.7 165.9 544.2 166.4C545.4 166.9 546.6 167.1 547.6 167.1C549.5 167.1 551 166.4 552.2 164.9C552.9 163.5 553.9 162.3 554.8 160.8C555.3 159.8 556 159.4 556.5 159.4C556.7 159.4 556.7 159.6 556.7 160.1C556.7 160.6 556.5 161.8 556 163.2C555.5 163.9 557.4 164.2 561 164.2C561.5 164.2 561.7 164.2 561.7 164C561.7 164 561.5 163 561 161.4C560.8 160.9 561 160.2 561.7 159.2L561.78 159.064C562.722 157.463 563.108 156.805 563.4 157C564.4 157.7 564.8 159.2 564.8 160.8C564.8 162.5 564.3 164.2 563.6 166.1C562.9 168.3 562.2 169.5 561.7 169.9C560 170.9 557.4 170.6 553.8 168.9C550.9 171.8 548 173.5 545.2 173.5C544.5 173.5 543.3 173.3 542.1 172.8C540.9 172.3 539.9 172.1 539.2 172.1C534.4 172.1 529.4 174.3 524.3 179.1L513.5 189.9C511.3 191.5 509.1 192.7 506.7 193.4ZM115.3 159.3C95.2 166.8 76 174 57.5 180.7C56.3 183.1 55.5 185.3 55 187.4C77.6 178 97.5 170.3 114.3 164.1C114.8 163.7 115.5 162.5 116.5 160.3C116.7 159.6 116.7 159.1 116.7 159.1C116.551 158.876 116.235 158.986 115.794 159.139C115.644 159.192 115.478 159.249 115.3 159.3ZM265.1 167C265.1 170.6 263.2 173.7 259.6 176.6C256 179.2 251.9 180.7 247.4 180.7C246.7 180.7 245.5 180.5 244.3 180C243.1 179.8 242.1 179.5 241.4 179.5C236.6 179.5 231.6 181.9 226.5 186.7L215.7 197.5C213.5 199.2 211.4 200.4 209 201.1C206.4 201.8 204.9 202.3 204.4 202.3L204.4 202.1C204.4 202.1 205.4 201.4 207.3 200.2C209.2 199 212.1 197.1 216.2 194C218.1 192.1 221 189 224.6 184.9C227 181.8 229.6 179.4 232.5 177.2C235.9 174.8 238.7 173.4 241.6 172.9C241.1 173.1 243 173.1 246.6 173.1C248.8 170.9 251.2 168.8 253.3 166.6C256.2 164 258.6 162.8 260.5 162.8C263.6 162.7 265.1 164.2 265.1 167ZM152.8 177.1C156.4 174.2 158.3 171.1 158.3 167.5C158.3 164.6 156.8 163.2 153.7 163.3C151.8 163.3 149.4 164.5 146.5 167.1C144.4 169.3 142 171.4 139.8 173.6C136.2 173.6 134.3 173.6 134.8 173.4C131.9 173.9 129.1 175.3 125.7 177.7C122.8 179.9 120.2 182.3 117.8 185.4C114.2 189.5 111.3 192.6 109.4 194.5C105.3 197.6 102.4 199.5 100.5 200.7C98.6 201.9 97.6 202.6 97.6 202.6L97.6 202.8C98.1 202.8 99.6 202.3 102.2 201.6C104.6 200.9 106.7 199.7 108.9 198L119.7 187.2C124.8 182.4 129.8 180 134.6 180C135.3 180 136.3 180.3 137.5 180.5C138.7 181 139.9 181.2 140.6 181.2C145.1 181.2 149.2 179.7 152.8 177.1ZM262.7 169.2C262.2 167.8 260.8 167.3 258.4 167.3C256.2 167.3 252.9 169.5 248.6 173.8C249.1 173.8 249.6 174 250 174C252.4 174 255 173.3 257.7 172.1C260.3 171.1 261.9 170.2 262.7 169.2ZM151.6 167.8C154 167.8 155.4 168.3 155.9 169.7C155.1 170.6 153.5 171.6 150.9 172.6C148.2 173.8 145.6 174.5 143.2 174.5C142.8 174.5 142.3 174.3 141.8 174.3C146.1 170 149.4 167.8 151.6 167.8ZM293.3 180C291.2 176.6 288.8 175.2 285.9 175.2C285.7 175.2 285 175.9 283.9 177.8C282.7 179.8 282.2 181 282.2 181.2C282.2 181.9 282.7 182.9 284.1 184.1C285.6 185.3 286.5 186 287.5 186C288.2 186 288.5 185.7 288.7 185.5C289 185 289.2 185 289.7 185C290.7 185 291.9 187.2 293.8 192C295.7 196.6 296.6 199.7 296.4 201.4C296.6 202.4 296.6 203.1 297.1 203.1C297.6 203.1 298.1 202.4 298.8 201.4C299.5 199.8 300.5 196.9 301.2 192.8C302.9 183.7 304.6 179.1 306.5 179.1C307.4 179.1 308.4 179.5 309.1 180.5C310.1 181.5 310.6 182.2 310.8 182.2C311.2 182.2 311.7 181.4 312.2 180C312.7 179 312.7 178.1 312.7 177.6C312.7 176.6 312.3 175.6 311.3 174.2C310.3 172.7 309.1 172 307.9 172C305.7 172 303.8 174.2 301.9 178.5C300.2 184.8 299 189.6 298.5 192.7C298.5 193.2 298.3 193.5 298.3 193.7L298.1 193.7C298.1 193.4 298.1 193.2 297.9 192.7C297.1 187.4 295.5 183.1 293.3 180ZM186.3 192C186.3 191.8 186.5 191.5 186.5 191.5C186.609 191.391 186.659 191.341 186.681 191.351C186.7 191.36 186.7 191.409 186.7 191.5C186.9 191.7 186.9 192 186.7 192.2C185.5 199.4 183.3 203 180.2 203C177.1 203 175.6 200.4 175.6 195.1C175.6 188.6 177.3 181.7 181.1 174.7C182.1 173 182.5 172.1 182.8 172.1C182.8 172.3 182.6 173.3 182.1 175C179.7 182.4 178.5 187.5 178.5 190.6C178.5 194.4 179.5 196.6 181.6 196.6C183.2 196.6 184.7 194.9 186.3 192Z" id="Group" fill="#595959" fill-rule="evenodd" stroke="none" clip-path="url(#clip_1)" />
  </g>
</svg>