<?xml version="1.0" encoding="utf-8"?>
<svg width="595.0001px" height="208.89998px" viewBox="0 0 595.0001 208.89998" version="1.1" xmlns:xlink="http://www.w3.org/1999/xlink" xmlns="http://www.w3.org/2000/svg">
  <defs>
    <path d="M595 0L595 0L595 208.9L0 208.9L0 0L595 0Z" id="path_1" />
    <clipPath id="clip_1">
      <use xlink:href="#path_1" clip-rule="evenodd" fill-rule="evenodd" />
    </clipPath>
  </defs>
  <g id="Surah_51_of_114_(modified)">
    <path d="M595 0L595 0L595 208.9L0 208.9L0 0L595 0Z" id="Surah_51_of_114_(modified)" fill="none" stroke="none" />
    <path d="M353.1 39.6C353.1 34.8 352.4 31 350.9 27.8C350.9 26.1 352.1 22 355 15.8C355.2 15.1 355.5 14.6 355.7 14.6C356.2 14.6 356.4 15.1 356.9 15.8C357.6 17.5 359.3 22 362.2 29.5C365.3 37.4 367 42.2 367.5 44.1C368 45.3 368 46.5 368 47C368 49.2 366.1 48 361.8 43.2C361.3 42.5 361.1 43 361.1 44.2C361.1 44.7 362.3 59.6 364.5 89.3C366.7 118.8 367.6 135.4 367.6 139.2C367.6 150.5 365.9 160.6 362.6 169.2C361.6 170.9 361.2 172.1 360.7 173L360.7 173C360 174.2 359.7 174.2 359.5 173.5C359.3 172.5 359.5 170.6 359.7 168C360.2 163.9 360.4 159.4 360.4 154.3C360.4 149.5 359.2 130.3 356.8 96.5C354.3 62.6 353.1 43.7 353.1 39.6L353.1 39.6L353.1 39.6L353.1 39.6L353.1 39.6ZM346.1 151.2C346.1 165.4 343.5 176.4 338.4 184.6C334.1 191.3 329 194.9 323.3 194.9L323.3 180.3C327.9 180.3 332.4 178.4 336.7 174.8C337.9 173.8 338.6 169.8 338.6 163C338.6 158.9 337.2 136.1 334.3 94.8C331.4 53.3 330 30 330 24.7C330 20.1 329 16.3 327.6 13.2C327.6 11.5 329 7.39999 331.7 1C331.9 0.300003 332.2 0 332.4 0C332.9 0 333.1 0.199997 333.6 1.2C334.1 2.89999 336 7.39999 338.9 15.1C341.8 22.8 343.5 27.6 343.9 29.3C344.4 30.7 344.6 31.9 344.6 32.4C344.6 34.6 342.7 33.4 338.6 28.6C338.4 28.1 338.1 28.4 338.1 29.6C338.1 29.8 339.3 49 341.9 87C344.7 124.8 346.1 146.1 346.1 151.2L346.1 151.2L346.1 151.2L346.1 151.2L346.1 151.2ZM234.5 193.9C245.5 193.9 257.3 189.6 270 180.9C279.8 174.2 287.5 167.2 293 159.8C294.9 157.4 295.6 156.2 295.6 156.2C296.3 155 296.6 153.6 296.6 151.6C296.6 147 295.2 139.8 292.8 129.8C290.9 122.1 286.1 110.6 278.9 94.8C278.7 94.3 278.9 92.4 279.6 88.8C280.1 85.4 280.3 83 280.8 81.6C281.3 79.9 282 79.4 283 80.6C291.4 91.9 297.9 107.7 302 127.6C303.7 136.5 306.1 149 308.7 164.8C309.9 171.8 312.1 176.1 315.4 178.2C317.1 179.4 320 179.9 323.6 179.9L323.6 194.5C318.3 194.5 314.2 193.5 311.4 191.4C307.1 188.3 304.4 182.5 302.8 174.1C302.3 171.2 301.4 165.5 300.2 156.6C299 163.6 296.6 169.3 293 173.9C285.8 182.8 276.9 190.5 266.8 196.9C255 204.3 244.2 208.2 234.4 208.2C229.4 208.2 225.3 206 222.6 201.7C220.4 198.1 219.5 193.8 219.5 188.5C219.5 178.4 221.7 167.9 225.7 157.3C226.7 155.1 227.4 153.9 227.9 153.9C228.1 153.9 228.1 154.1 228.1 154.6C228.1 155.3 227.9 156.5 227.4 158C224.5 168.6 223.1 176.5 223.1 182C223 190.1 226.8 193.9 234.5 193.9L234.5 193.9L234.5 193.9L234.5 193.9L234.5 193.9ZM243.6 26.9C243.6 22.1 242.9 18.3 241.4 15.1C241.4 13.4 242.6 9.30003 245.5 3.10004C245.7 2.40004 246 1.90004 246.2 1.90004C246.7 1.90004 246.9 2.40004 247.4 3.10004C248.1 4.80003 249.8 9.30003 252.7 16.8C255.8 24.7 257.5 29.5 258 31.4C258.5 32.6 258.5 33.8 258.5 34.3C258.5 36.5 256.6 35.3 252.3 30.5C251.8 29.8 251.6 30.3 251.6 31.5C251.6 32 252.8 46.9 255 76.6C257.2 106.1 258.1 122.7 258.1 126.5C258.1 137.8 256.4 147.9 253.1 156.5C252.1 158.2 251.7 159.4 251.2 160.3L251.2 160.3C250.5 161.5 250.2 161.5 250 160.8C249.8 159.8 250 157.9 250.2 155.3C250.7 151.2 250.9 146.7 250.9 141.6C250.9 136.8 249.7 117.6 247.3 83.8C244.8 49.9 243.6 30.9 243.6 26.9L243.6 26.9L243.6 26.9L243.6 26.9L243.6 26.9ZM219.4 117.3C218.9 115.1 218.2 113.5 217.2 112.3C216.5 110.9 216 110.1 215.8 109.7C215.8 109.2 215.8 107.5 216.3 104.2C216.8 101.1 217 98.9 217.5 97.7C217.7 96.5 218 96 218.5 96C218.7 96 219 96.2 219.5 96.7C222.9 100.5 226.5 104.4 230.5 108.5C232.2 110.2 232.9 111.1 232.9 111.6C232.9 111.8 232.7 112.1 232.2 112.1C231.5 112.1 229.6 111.6 226.7 110.9C228.4 115 230.3 119.1 232 122.9C234.6 129.6 236.1 135.1 236.1 140.2C236.1 142.6 235.6 145.5 234.7 149.1C233.5 153.2 232.1 156.3 230.1 158.5C223.1 166.4 211.4 175.1 194.8 184.4C180.4 192.8 172 196.9 169.4 196.9C168.9 196.9 161.7 198.6 148 201.9C133.6 205.3 124.5 207.4 120.9 207.9C117.1 208.6 114.7 208.9 113.7 208.9C113.2 208.9 113.2 208.9 113.2 208.7C113.2 208.5 115.8 207 121.1 204.6C123 203.6 134.1 198.8 154.5 190.2C168.7 184.2 180.4 178.7 189.8 173.6C204 165.9 214.8 159.2 222.2 153.7C227.7 149.4 230.6 146.3 230.6 144.3C230.6 143.8 229.2 140.5 226.3 134.2C223 127.2 220.6 121.4 219.4 117.3L219.4 117.3L219.4 117.3L219.4 117.3L219.4 117.3ZM183.6 118.3C183.6 125.5 182.4 131 180.2 134.9C177.1 140.4 173 143.3 168.2 143.3L168.2 128.7C173.7 128.7 177.3 126.8 179 122.7C179 120.8 176.8 116.7 172.8 110.2C172.6 109.5 172.3 109 172.3 108.3C172.3 104.7 173.3 101.1 174.9 97.5C175.4 96.3 176.1 96.3 176.8 97.5C179.2 100.9 180.9 104 181.6 106.1C182.9 109.4 183.6 113.5 183.6 118.3L183.6 118.3L183.6 118.3L183.6 118.3L183.6 118.3ZM153.4 113.5C154.6 120.2 157 124.8 160.4 126.9C162.1 127.9 164.7 128.6 168.3 128.6L168.3 143.2C163 143.2 158.9 142 156.1 139.8C151.8 136.7 149.1 131.2 147.7 122.8C146.7 118.2 146 107.4 145.5 90.4001C145 71.2001 144.1 56.1001 143.1 45.3001C141.9 35.5001 140 25.9001 137.3 17.0001C137.3 14.6001 138.3 11.0001 140.2 6.20006C140.7 5.00006 140.9 4.50006 141.4 4.50006C141.6 4.50006 142.1 5.00006 142.6 5.90005C145.7 11.9001 147.9 22.2001 149.6 36.9001C150.6 46.3 151.5 61.1001 152 81.5C152.4 100.3 153.1 110.9 153.4 113.5L153.4 113.5L153.4 113.5L153.4 113.5L153.4 113.5ZM46.1 147.6C61.9 147.6 79.7 144.2 100.1 138C116.4 132.7 127 128.4 131.8 124.8C132.3 124.6 132.3 124.1 132.3 123.4C132.3 121.5 129.4 116.4 123.2 108.8C122 107.4 121.5 105.7 122 104C122.7 100.6 123.7 97.8 124.9 95.4C125.6 93.7 126.3 92.8 126.8 92.8C127 92.8 128 93.5 129.2 95C130.9 96.7001 132.6 99.3 134.2 103.2C136.8 107.8 138 111.8 138 115.2C138 126.5 134.4 134.9 127 139.9C122.2 143.5 111.4 147.8 94.8 152.9C73.9 159.4 55.9 162.5 40.1 162.5C24.7 162.5 13.9 158.4 6.99999 150.3C2.19999 144.8 -7.62939e-06 137.6 -7.62939e-06 128.9C-7.62939e-06 119.8 2.19999 111.4 6.49999 103.5C7.89999 101.1 8.89999 99.7001 9.39999 99.7001C9.39999 99.7001 9.59999 99.9001 9.59999 100.4C9.59999 101.1 9.09999 102.6 8.39999 104.7C7.39999 107.6 6.2 110.2 5.3 113.1C4.1 116.7 3.6 120.5 3.6 124.6C3.6 129.9 6 134.4 11.3 138.5C18.7 144.5 30.3 147.6 46.1 147.6L46.1 147.6L46.1 147.6L46.1 147.6L46.1 147.6ZM266.7 60.7C266.5 60.5 266.5 60.2 266.7 59.7L271.3 50.1C271.5 49.6 272 49.4 272.3 49.4C272.8 49.4 274.9 50.6 278.5 53C282.3 55.6 284.3 57.1 284.3 57.6C284.3 59.3 282.6 62.6 279.3 67.9C278.8 68.6 278.6 68.9 278.1 68.6C274.3 65.7 270.5 63.1001 266.7 60.7L266.7 60.7L266.7 60.7L266.7 60.7L266.7 60.7ZM165.6 159.8L169.4 151.9C169.6 151.4 169.9 151.2 170.4 151.2C170.9 151.2 172.8 152.4 176.6 155C180.2 157.4 182.1 158.8 182.1 159.3C182.1 161 180.4 164.6 177.3 169.9C176.8 170.6 176.3 170.6 175.9 170.4C172.8 168 169.2 165.6 165.1 163C163.7 165.9 162.5 168.5 161 170.7C160.8 171.4 160.3 171.7 159.8 171.4C156.2 168.5 152.4 165.9 148.5 163.5C148.3 163.3 148.3 163 148.5 162.5L153.1 152.9C153.3 152.4 153.8 151.9 154.1 151.9C154.6 151.9 156.3 153.1 159.4 155.3C162.5 157.2 164.7 158.9 165.6 159.8L165.6 159.8L165.6 159.8L165.6 159.8L165.6 159.8ZM66.7 90.7L70.5 82.8C70.7 82.3 71 82.1 71.5 82.1C72 82.1 73.9 83.3 77.7 85.9C81.3 88.3 83.2 89.7 83.2 90.2C83.2 91.9 81.5 95.5 78.4 100.8C77.9 101.5 77.4 101.5 77 101.3C73.9 98.9 70.3 96.5 66.2 93.9C64.8 96.8 63.6 99.4 62.1 101.6C61.9 102.3 61.4 102.6 60.9 102.3C57.3 99.4 53.5 96.8 49.6 94.4C49.4 94.2 49.4 93.9 49.6 93.4L54.2 83.8C54.4 83.3 54.9 82.8 55.2 82.8C55.7 82.8 57.4 84 60.5 86.2C63.6 88.1001 65.8 89.7 66.7 90.7L66.7 90.7L66.7 90.7L66.7 90.7L66.7 90.7ZM314.7 39.1C314.7 41 314.2 43.2 313.3 45.1C312.1 47.7 310.7 49.2 309 49.2C306.1 49.2 304.2 47.3 303 43.4C301.6 48.2 299.2 50.8 295.6 50.8C294.4 50.8 293.2 50.1 292.2 48.6C291 47.2 290.5 45 290.5 42.6L290.5 36.4C290.5 35.9 290 35.7 289.5 35.4C288.8 35.2 288.5 34.7 288.5 34C288.5 32.6001 289 31.4 289.9 30.2C290.9 29 291.6 28.5 292.1 28.5C292.8 28.5 293.3 29.7 293.3 32.3C293.3 33.7 293.1 34.9001 293.1 35.9001C292.9 36.9001 292.9 37.6001 292.9 38.3C292.9 39.7 293.1 41.2 293.6 42.4001C294.3 43.8 295.3 44.8 296.2 44.8C297.6 44.8 298.8 44.1001 300 42.9001C301.2 41.7001 301.9 40.3 301.9 38.6001C301.9 37.6001 301.4 36.2001 300.9 33.8C300.2 31.6001 299.9 30.2 299.9 29.7C299.9 29.2 300.1 28.5 300.6 27.3C301.1 26.3 301.6 25.9001 301.8 25.9001C302.3 25.9001 302.8 27.3 303.5 30.2001C304.2 33.3001 304.7 35.5001 304.7 36.9001C304.7 41.0001 306.1 43.1001 309.3 43.1001C310.7 43.1001 311.7 42.4001 311.9 40.9001C309.3 36.1001 307.8 32.5001 307.8 29.9001C307.8 28.5001 308 27.3 309 26.1001C309.5 25.4001 309.7 24.9001 310 24.9001C310.2 24.9001 310.5 25.4001 310.5 26.3C310.7 27.5 311 28.7 311.2 29.7C311.2 29.7 311.9 31.4 313.1 34.7C314.2 36.7 314.7 38.1 314.7 39.1L314.7 39.1L314.7 39.1L314.7 39.1L314.7 39.1ZM271.2 20.1C284.9 15.3 299.3 10 314.4 4.50003C315.4 4.30003 315.6 4.00003 315.8 4.30003C316 4.30003 316 4.80003 315.6 5.50003C314.9 7.70003 314.2 8.90002 313.7 9.30003C300.7 13.9 285.9 19.6 268.8 26.8C269.3 24.7 270 22.5 271.2 20.1L271.2 20.1L271.2 20.1L271.2 20.1L271.2 20.1ZM177.1 201.6C186.7 198.2 197 194.4 208.1 190.6C209.1 190.4 209.3 190.1 209.5 190.4C209.7 190.4 209.7 190.9 209.3 191.6C208.6 193.8 207.9 195 207.4 195.4C197.8 198.8 187 202.8 174.8 208.4C175.2 206.1 175.9 204 177.1 201.6L177.1 201.6L177.1 201.6L177.1 201.6L177.1 201.6ZM161.5 63.1001C180 56.4 199.2 49.2001 219.3 41.7001C220 41.5001 220.5 41.2001 220.7 41.5001C220.7 41.5001 220.7 42.0001 220.5 42.7001C219.5 44.9001 218.8 46.1001 218.3 46.5001C201.5 52.7001 181.6 60.4001 159 69.8001C159.6 67.7 160.3 65.5 161.5 63.1001L161.5 63.1001L161.5 63.1001L161.5 63.1001L161.5 63.1001ZM69.4 183.6C87.9 176.9 107.1 169.7 127.2 162.2C127.9 162 128.4 161.7 128.6 162C128.6 162 128.6 162.5 128.4 163.2C127.4 165.4 126.7 166.6 126.2 167C109.4 173.2 89.5 180.9 66.9 190.3C67.5 188.1 68.2 186 69.4 183.6L69.4 183.6L69.4 183.6L69.4 183.6L69.4 183.6ZM316.8 90.5C316.8 90.3 317 90 317 90C317.2 89.8 317.2 89.8 317.2 90C317.4 90.2001 317.4 90.5 317.2 90.7001C316 97.9001 313.8 101.5 310.7 101.5C307.6 101.5 306.1 98.9 306.1 93.6001C306.1 87.1001 307.8 80.2001 311.6 73.2001C312.6 71.5 313 70.6001 313.3 70.6001L313.3 70.6001C313.3 70.8001 313.1 71.8001 312.6 73.5C310.2 80.9 309 86 309 89.1001C309 92.9 310 95.1001 312.1 95.1001C313.7 95 315.1 93.3 316.8 90.5L316.8 90.5L316.8 90.5L316.8 90.5L316.8 90.5ZM91.7 10.8C94.6 10.8 97 12.2 99.1 15.6C101.3 18.7 102.9 23 103.7 28.3C103.9 28.8 103.9 29 103.9 29.3L104.1 29.3C104.1 29.1 104.3 28.8 104.3 28.3C104.8 25.2 106 20.4 107.7 14.1C109.6 9.80003 111.5 7.60004 113.7 7.60004C114.9 7.60004 116.1 8.30003 117.1 9.80003C118.1 11.2 118.5 12.2 118.5 13.2C118.5 13.7 118.5 14.6 118 15.6C117.5 17 117 17.8 116.6 17.8C116.4 17.8 115.9 17.1 114.9 16.1C114.2 15.1 113.2 14.7 112.3 14.7C110.4 14.7 108.7 19.3 107 28.4C106.3 32.5 105.3 35.4 104.6 37C103.9 38 103.4 38.7 102.9 38.7C102.4 38.7 102.4 38 102.2 37C102.4 35.3 101.5 32.2 99.6 27.6C97.7 22.8 96.5 20.6 95.5 20.6C95 20.6 94.8 20.6 94.5 21.1C94.3 21.3 94 21.6 93.3 21.6C92.3 21.6 91.4 20.9 89.9 19.7C88.5 18.5 88 17.5 88 16.8C88 16.6001 88.5 15.4001 89.7 13.4001C90.7 11.5 91.5 10.8 91.7 10.8L91.7 10.8L91.7 10.8L91.7 10.8L91.7 10.8ZM13.9 89.3C13.9 89.1 14.1 88.8 14.1 88.8C14.3 88.6 14.3 88.6 14.3 88.8C14.5 89 14.5 89.3 14.3 89.5C13.1 96.7001 10.9 100.3 7.8 100.3C4.7 100.3 3.2 97.7 3.2 92.4C3.2 85.9 4.9 79 8.7 72C9.7 70.3 10.1 69.4 10.4 69.4L10.4 69.4C10.4 69.6001 10.2 70.6001 9.7 72.3C7.3 79.7 6.10001 84.8 6.10001 87.9C6.10001 91.7 7.10001 93.9 9.2 93.9C10.8 93.8 12.3 92.1001 13.9 89.3L13.9 89.3L13.9 89.3L13.9 89.3L13.9 89.3ZM33.9 39.3C36.8 39.3 39.2 40.7 41.3 44.1C43.5 47.2 45.1 51.5 45.9 56.8C46.1 57.3 46.1 57.5 46.1 57.8L46.3 57.8C46.3 57.6 46.5 57.3 46.5 56.8C47 53.7 48.2 48.9 49.9 42.6C51.8 38.3 53.7 36.1 55.9 36.1C57.1 36.1 58.3 36.8 59.3 38.3C60.3 39.7 60.7 40.7 60.7 41.7C60.7 42.2 60.7 43.1 60.2 44.1C59.7 45.5 59.2 46.3 58.8 46.3C58.6 46.3 58.1 45.6 57.1 44.6C56.4 43.6 55.4 43.2 54.5 43.2C52.6 43.2 50.9 47.8 49.2 56.9C48.5 61 47.5 63.9 46.8 65.5C46.1 66.5 45.6 67.2001 45.1 67.2001C44.6 67.2001 44.6 66.5 44.4 65.5C44.6 63.8 43.7 60.7001 41.8 56.1001C39.9 51.3 38.7 49.1001 37.7 49.1001C37.2 49.1001 37 49.1001 36.7 49.6001C36.5 49.8 36.2 50.1001 35.5 50.1001C34.5 50.1001 33.6 49.4001 32.1 48.2001C30.7 47.0001 30.2 46.0001 30.2 45.3001C30.2 45.1001 30.7 43.9001 31.9 41.9001C32.9 40.1 33.6 39.3 33.9 39.3L33.9 39.3L33.9 39.3L33.9 39.3L33.9 39.3ZM121.7 63.6001C121.7 63.4 121.9 63.1001 121.9 63.1001C122.1 62.9 122.1 62.9 122.1 63.1001C122.3 63.3001 122.3 63.6001 122.1 63.8001C120.9 71.0001 118.7 74.6001 115.6 74.6001C112.5 74.6001 111 72 111 66.7001C111 60.2001 112.7 53.3001 116.5 46.3001C117.5 44.6001 117.9 43.7001 118.2 43.7001L118.2 43.7001C118.2 43.9001 118 44.9001 117.5 46.6001C115.1 54 113.9 59.1001 113.9 62.2001C113.9 66 114.9 68.2001 117 68.2001C118.6 68.1001 120 66.5 121.7 63.6001L121.7 63.6001L121.7 63.6001L121.7 63.6001L121.7 63.6001ZM177.6 10.8C180.5 10.8 182.9 12.2 185 15.6C187.2 18.7 188.8 23 189.6 28.3C189.8 28.8 189.8 29 189.8 29.3L190 29.3C190 29.1 190.2 28.8 190.2 28.3C190.7 25.2 191.9 20.4 193.6 14.1C195.5 9.80003 197.4 7.60004 199.6 7.60004C200.8 7.60004 202 8.30003 203 9.80003C204 11.2 204.4 12.2 204.4 13.2C204.4 13.7 204.4 14.6 203.9 15.6C203.4 17 202.9 17.8 202.5 17.8C202.3 17.8 201.8 17.1 200.8 16.1C200.1 15.1 199.1 14.7 198.2 14.7C196.3 14.7 194.6 19.3 192.9 28.4C192.2 32.5 191.2 35.4 190.5 37C189.8 38 189.3 38.7 188.8 38.7C188.3 38.7 188.3 38 188.1 37C188.3 35.3 187.4 32.2 185.5 27.6C183.6 22.8 182.4 20.6 181.4 20.6C180.9 20.6 180.7 20.6 180.4 21.1C180.2 21.3 179.9 21.6 179.2 21.6C178.2 21.6 177.3 20.9 175.8 19.7C174.4 18.5 173.9 17.5 173.9 16.8C173.9 16.6001 174.4 15.4001 175.6 13.4001C176.7 11.5 177.4 10.8 177.6 10.8L177.6 10.8L177.6 10.8L177.6 10.8L177.6 10.8ZM203.5 73.9C203.5 76.5 202.3 79.4 200.4 82.5C198.2 85.6001 195.6 88.5 192.2 90.9C190.8 91.9 190 92.3 189.8 92.3L189.8 92.1C189.8 91.9 190.3 91.4 191.2 90.2C196.7 84.2 199.6 80.4 199.6 78.2C199.6 76.5 198.6 75.6 197 75.6C196 75.6 195.1 75.8 194.4 76.3C193.7 76.5 193.4 76.8 193.2 76.8C193.2 76.8 193 76.8 193 76.6C193 76.6 193 76.1 193.2 75.2C194.2 71.1 196.1 69.2 199.4 69.2C202.1 69.1001 203.5 70.8 203.5 73.9L203.5 73.9L203.5 73.9L203.5 73.9L203.5 73.9ZM536.2 116.6C537.4 115.6 538.4 115.2 539.1 115.2C539.6 115.2 539.8 115.7 539.8 116.6C539.8 117.3 539.6 118.8 539.1 120.7C538.6 122.6 538.4 124.1 538.4 125.3C538.4 130.6 542.2 133.5 549.7 133.5C555.7 133.5 560.7 130.9 564.6 125.8C567 121.7 569.6 117.9 572 114C573 113 573.7 112.6 574.4 112.6C575.4 112.6 575.6 113.6 575.1 115.7C574.1 119.8 573.4 121.7 573.4 121.2C573.4 122.9 574.4 124.6 576.3 126C578 127.4 580.4 128.4 583 128.4C586.4 128.4 588.5 127.4 589.5 125.8C589.5 125.6 588.5 123.6 586.4 120C586.6 118.1 587.6 114.7 589 110.2C589.2 108.8 589.7 108 590.2 108C590.7 108 591.2 108.2 591.9 109.2C593.8 112.1 595 115.4 595 119.3C595 125.3 593.6 130.3 590.9 134.7C588 140 583.7 142.6 577.9 142.6C574.1 142.6 570.5 139.5 567.3 133.7C562 143.3 555.1 148.1 546.7 148.1C536.6 148.1 531.8 142.3 531.8 131.3C528 135.9 521.5 139.9 513.1 143.8L513.1 130.6C519.3 127.5 523.4 125.6 524.6 124.8C528.5 122.9 532.3 120 536.2 116.6L536.2 116.6L536.2 116.6L536.2 116.6L536.2 116.6ZM499.5 132.5C495.9 127.9 492.8 125.8 489.9 125.8C485.6 125.8 483.7 126.8 483.7 129.2C483.7 132.1 486.6 133.5 492.3 133.5C494.4 133.4 496.8 132.9 499.5 132.5L499.5 132.5L499.5 132.5L499.5 132.5L499.5 132.5ZM506.9 150C506.9 148.6 506.4 146.9 505.9 145.2C503 146.2 498.7 146.9 493.4 146.9C481.9 146.9 476.1 142.8 476.1 134.9C476.1 128.9 477.8 123.6 481.6 118.8C485.2 114.7 489 112.6 493.1 112.6C496.2 112.6 499.3 114.5 502.9 118.1C506 121.7 508.9 125.8 511.3 130.8C511.5 130.8 512 130.8 513 130.3L513 143.5L512.5 144C512.5 146.9 511.8 150.2 510.3 154.6C508.6 160.1 506 164.7 502.9 168.3C495.7 176.9 487.8 184.4 479.1 190.9C466.1 200.5 455.1 205.5 445.5 205.5C437.3 205.5 431.1 202.4 426.8 196.4C423 191.4 421 184.6 421 176.7C421 166.6 423.2 156.3 427.2 145.5C428.4 143.1 428.9 142.1 429.4 142.1C429.6 142.1 429.6 142.3 429.6 142.8C429.6 143.5 429.4 144.7 429.1 146.2C426 156.8 424.5 164.7 424.5 170.2C424.5 175.2 425.7 179.6 428.1 183.2C431.9 188.2 437.9 190.9 446.3 190.9C453.5 190.9 462.1 187.8 472.5 181.5C480.7 176.5 488.6 170.5 496.3 163.3C503.3 156.5 506.9 152.1 506.9 150L506.9 150L506.9 150L506.9 150L506.9 150ZM441.4 113.7C440.9 111.5 440.2 109.9 439.2 108.7C438.5 107.3 438 106.5 437.8 106.1C437.8 105.6 437.8 103.9 438.3 100.6C438.8 97.5 439 95.3 439.5 94.1C439.7 92.9 440 92.4 440.5 92.4C440.7 92.4 441 92.6 441.5 93.1C444.9 96.9 448.5 100.8 452.5 104.9C454.2 106.6 454.9 107.5 454.9 108C454.9 108.2 454.7 108.5 454.2 108.5C453.5 108.5 451.6 108 448.7 107.3C450.4 111.4 452.3 115.5 454 119.3C456.6 126 458.1 131.5 458.1 136.6C458.1 139 457.6 141.9 456.7 145.5C455.5 149.6 454.1 152.7 452.1 154.9C445.1 162.8 433.4 171.5 416.8 180.8C402.4 189.2 394 193.3 391.4 193.3C390.9 193.3 383.7 195 370 198.3C355.6 201.7 346.5 203.8 342.9 204.3C339.1 205 336.7 205.3 335.7 205.3C335.2 205.3 335.2 205.3 335.2 205.1C335.2 204.9 337.8 203.4 343.1 201C345 200 356.1 195.2 376.5 186.6C390.7 180.6 402.4 175.1 411.8 170C426 162.3 436.8 155.6 444.2 150.1C449.7 145.8 452.6 142.7 452.6 140.7C452.6 140.2 451.2 136.9 448.3 130.6C445 123.6 442.6 117.8 441.4 113.7L441.4 113.7L441.4 113.7L441.4 113.7L441.4 113.7ZM421.7 80.4C421.7 84.2 419.8 89.5 415.9 96C413.5 100.1 409.9 105.6 405.1 112.8C409.9 118.3 413.3 123.4 414.9 127.7C415.9 130.8 416.6 134.9 416.6 139.5C416.6 141.4 416.1 143.8 415.2 146.9C414.5 149.8 413.5 151.9 412.6 153.4C410.7 156.3 407.6 159.2 402.8 162C397.8 165.4 393.4 167 389.8 167C384 167 381.2 162.7 381.2 154C381.2 148.2 382.2 142.5 384.1 137.2C386 132.6 389.1 126.6 394.2 118.7C389.9 114.6 385.3 108.9 380.3 101.7C379.8 101 378.6 99.8 376.7 97.9C375.7 96.9 375.3 95.7 375.3 94.3C375.3 92.1 375.5 89.7 376 86.9C376.7 84 377.2 82.8 377.4 82.8C378.1 82.8 380.3 84 384.4 86.6C388.2 89.2 391.4 91.2 393.3 92.8C394.5 93.5 395 94.2 395 94.2L395 94.4C395 94.6001 394.3 94.9 392.6 94.9C389.5 94.9 387.8 95.1001 387.8 95.4C387.8 95.6001 388.3 96.1001 389.2 97.3C393 102.1 396.9 105.7 401 108.6C402 107.2 405.3 102.4 410.6 94.2C415.2 87.2 417.8 82.4 419 79.6C420.2 76.7 420.9 75.5 421.4 75.5C421.5 75.6001 421.7 77 421.7 80.4L421.7 80.4L421.7 80.4L421.7 80.4L421.7 80.4ZM412.3 139.4C409.7 134.1 405.1 128.6 398.9 123.3C396.7 125.5 394.1 129.5 390.7 135.3C386.9 141.8 385.2 145.9 385.2 148C385.2 150.9 387.1 152.3 391.4 152.3C393.3 152.3 395.7 151.6 398.8 150.4C403.1 148.5 407.2 145.8 410.6 142.5C412.1 141.1 412.6 140.1 412.3 139.4L412.3 139.4L412.3 139.4L412.3 139.4L412.3 139.4ZM398.9 62.4L402.7 54.5C402.9 54 403.2 53.8 403.7 53.8C404.2 53.8 406.1 55 409.9 57.6001C413.5 60 415.4 61.4 415.4 61.9C415.4 63.6001 413.7 67.2 410.6 72.5C410.1 73.2001 409.6 73.2001 409.2 73C406.1 70.6001 402.5 68.2001 398.4 65.6001C397 68.5 395.8 71.1001 394.3 73.3001C394.1 74.0001 393.6 74.3001 393.1 74.0001C389.5 71.1001 385.7 68.5001 381.8 66.1001C381.6 65.9001 381.6 65.6001 381.8 65.1001L386.4 55.5001C386.6 55.0001 387.1 54.5001 387.4 54.5001C387.9 54.5001 389.6 55.7001 392.7 57.9001C395.8 59.7 397.9 61.4 398.9 62.4L398.9 62.4L398.9 62.4L398.9 62.4L398.9 62.4ZM525.4 196.3C522.8 197 521.3 197.5 520.8 197.5L520.8 197.3C520.8 197.3 521.8 196.6 523.7 195.4C525.6 194.2 528.5 192.3 532.6 189.2C534.5 187.3 537.4 184.2 541 179.8C543.4 176.9 546 174.3 548.9 172.4C552.5 169.8 555.9 168.6 559.5 168.6C560.2 168.6 561.4 168.8 562.9 169.3C564.1 169.8 565.3 170 566.3 170C568.2 170 569.7 169.3 570.9 167.8C571.6 166.4 572.6 165.2 573.5 163.7C574 162.7 574.7 162.3 575.2 162.3C575.4 162.3 575.4 162.5 575.4 163C575.4 163.5 575.2 164.7 574.7 166.1C574.2 166.8 576.1 167.1 579.7 167.1C580.2 167.1 580.4 167.1 580.4 166.9C580.4 166.9 580.2 165.9 579.7 164.3C579.5 163.8 579.7 163.1 580.4 162.1C581.4 160.4 581.8 159.7 582.1 159.9C583.1 160.6 583.5 162.1 583.5 163.7C583.5 165.4 583 167.1 582.3 169C581.6 171.2 580.9 172.4 580.4 172.8C578.7 173.8 576.1 173.5 572.5 171.8C569.6 174.7 566.7 176.4 563.9 176.4C563.2 176.4 562 176.2 560.8 175.7C559.6 175.2 558.6 175 557.9 175C553.1 175 548.1 177.2 543 182C539.4 185.6 535.8 189.2 532.2 192.8C529.9 194.4 527.8 195.6 525.4 196.3L525.4 196.3L525.4 196.3L525.4 196.3L525.4 196.3ZM474 66.5C476.9 66.5 479.3 67.9 481.4 71.3C483.6 74.4 485.2 78.7 486 84C486.2 84.5 486.2 84.7001 486.2 85L486.4 85C486.4 84.8 486.6 84.5 486.6 84C487.1 80.9 488.3 76.1001 490 69.8C491.9 65.5 493.8 63.3 496 63.3C497.2 63.3 498.4 64 499.4 65.5C500.4 66.9 500.8 67.9 500.8 68.9C500.8 69.4 500.8 70.3 500.3 71.3C499.8 72.7 499.3 73.5 498.9 73.5C498.7 73.5 498.2 72.8 497.2 71.8C496.5 70.8 495.5 70.4 494.6 70.4C492.7 70.4 491 75 489.3 84.1001C488.6 88.2001 487.6 91.1001 486.9 92.7001C486.2 93.7001 485.7 94.4001 485.2 94.4001C484.7 94.4001 484.7 93.7001 484.5 92.7001C484.7 91 483.8 87.9001 481.9 83.3001C480 78.5001 478.8 76.3001 477.8 76.3001C477.3 76.3001 477.1 76.3001 476.8 76.8001C476.6 77.0001 476.3 77.3001 475.6 77.3001C474.6 77.3001 473.7 76.6001 472.2 75.4001C470.8 74.2001 470.3 73.2001 470.3 72.5001C470.3 72.3001 470.8 71.1001 472 69.1001C473.1 67.2 473.8 66.5 474 66.5L474 66.5L474 66.5L474 66.5L474 66.5ZM433.2 63.6001C457.4 54.5 482.6 45.4001 508.6 35.8C509.3 35.6001 509.8 35.3 509.8 35.6001C510 35.6001 510 36.1001 509.8 36.8C508.8 39 508.1 40.2 507.6 40.6001C507.4 40.8 495.1 45.4001 471.4 54.3001C447.2 63.2001 433.5 68.7001 430.8 70.4001C431.3 68.1001 432 66 433.2 63.6001L433.2 63.6001L433.2 63.6001L433.2 63.6001L433.2 63.6001ZM409.7 19.7C410.2 18.3 410.2 16.8 409.9 15.4C409.7 14 408.9 13.2 407.7 13.2C407.2 13.2 406.5 13.4 405.5 13.9C404.5 14.4 404.1 14.9 404.1 15.3C404.2 16.5 406.1 18 409.7 19.7L409.7 19.7L409.7 19.7L409.7 19.7L409.7 19.7ZM406.8 25.9C402.2 23.5 400.1 21.1 400.1 18.5C400.1 15.4 401.5 12.5 404.4 10.1001C407.3 7.50005 409.7 6.50005 411.6 7.20006C413.3 7.70006 414 9.40005 414 12.2001C414 14.8001 413.5 17.7001 412.3 21.1001C414.7 22.3 416.1 23.5 416.6 24.5C416.6 25.7 415.6 27.9 413.5 30.7C413 29.7 411.6 28.5 409.4 27.3C406.8 30.9001 403.6 34 399.8 36.9001C395.2 40.0001 391.2 42.7001 387.6 44.1001C386.6 44.6001 382.3 46.3 374.6 49.1001C373.4 49.6001 372.4 49.8 372.2 49.8C372 49.8 372 49.6001 372 49.6001C372 49.4001 372.5 48.6001 373.9 47.9001C379.7 44.3 385.4 40.9001 391.4 37.6001C398.4 33.3 403.5 29.5 406.8 25.9L406.8 25.9L406.8 25.9L406.8 25.9L406.8 25.9ZM558.5 55.9C559 54.5 559 53 558.7 51.6C558.5 50.2 557.7 49.4 556.5 49.4C556 49.4 555.3 49.6 554.3 50.1C553.3 50.6 552.9 51.1 552.9 51.5C553 52.8 554.9 54.2 558.5 55.9L558.5 55.9L558.5 55.9L558.5 55.9L558.5 55.9ZM563.8 64.8C561.4 70.6 560.2 75.1 560.2 78.5C560.2 82.6001 561.2 84.7001 563.3 84.7001C564.5 84.7001 565.9 83 567.6 80.1001C567.8 79.9 567.8 79.6001 568.1 79.4C568.1 79.4 568.3 79.4 568.3 79.6001C568.3 79.6001 568.3 79.8001 568.3 80.3001C566.9 87.5001 564.7 91.1001 561.8 91.1001C558.7 91.1001 557.2 88.5 557.2 83.2001C557.2 80.6001 557.7 77.2001 559.1 72.9001C560.5 68.6001 561.3 66.4001 561.3 66.2001C561.3 65.7001 560.3 64.8001 558.2 63.6001C554.4 68.6001 549.1 73.4 542.4 77.5C537.8 80.1001 533.3 82.5 528.5 84.5C519.6 88.1001 514.3 90 513.1 90.7001C511.9 91.2001 511.2 91.4001 510.7 91.4001C510.5 91.4001 510.5 91.2001 510.5 91.2001C510.5 90.7001 511 90.2001 512.4 89.3001C520.1 85.0001 527.5 80.7001 535.2 76.3001C545.3 70.5001 552.2 65.7001 555.6 62.1001C551 59.7001 548.9 57.3001 548.9 54.7001C548.9 51.6001 550.3 48.7001 553.2 46.1001C556.1 43.7001 558.5 42.7001 560.4 43.5C561.8 44 562.8 45.7 562.8 48.5C562.8 51.1001 562.3 54 561.1 57.1001C563.5 58.5 564.5 60 564.5 61.4C564.5 62.1001 564.3 63.3 563.8 64.8L563.8 64.8L563.8 64.8L563.8 64.8L563.8 64.8ZM454.6 29.7C454.6 29.5 454.8 29.2 454.8 29.2C455 29 455 29 455 29.2C455.2 29.4 455.2 29.7 455 29.9C453.8 37.1 451.6 40.7 448.5 40.7C445.4 40.7 443.9 38.1 443.9 32.8C443.9 26.3 445.6 19.4001 449.4 12.4001C450.4 10.7001 450.8 9.80005 451.1 9.80005L451.1 9.80005C451.1 10 450.9 11 450.4 12.7C448 20.1 446.8 25.2 446.8 28.3C446.8 32.1001 447.8 34.3 449.9 34.3C451.5 34.3 452.9 32.6 454.6 29.7L454.6 29.7L454.6 29.7L454.6 29.7L454.6 29.7Z" id="Group" fill="#595959" stroke="none" clip-path="url(#clip_1)" />
  </g>
</svg>