<?xml version="1.0" encoding="utf-8"?>
<svg width="554.57367px" height="204.19px" viewBox="0 0 554.57367 204.19" version="1.1" xmlns:xlink="http://www.w3.org/1999/xlink" xmlns="http://www.w3.org/2000/svg">
  <defs>
    <path d="M554.574 0L554.574 0L554.574 204.19L0 204.19L0 0L554.574 0Z" id="path_1" />
    <clipPath id="clip_1">
      <use xlink:href="#path_1" clip-rule="evenodd" fill-rule="evenodd" />
    </clipPath>
  </defs>
  <g id="Surah_1_of_114_(modified)">
    <path d="M554.574 0L554.574 0L554.574 204.19L0 204.19L0 0L554.574 0Z" id="Surah_1_of_114_(modified)" fill="none" stroke="none" />
    <path d="M274.287 157.292C280.086 157.292 285.086 153.692 289.386 146.993C294.386 138.793 297.086 127.794 297.086 113.594C297.086 108.595 296.086 93.3954 294.186 68.1967C292.286 42.7979 291.286 29.7985 291.286 29.5985C291.286 28.3986 291.486 28.1986 291.986 28.5986C296.086 33.3984 298.186 34.5983 298.186 32.3984C298.186 31.8984 297.986 30.6985 297.686 29.2986C296.986 27.5986 295.286 22.7989 292.386 14.8993C289.486 7.49963 287.586 2.89985 286.886 1.19994C286.386 0.199987 286.186 0 285.886 0C285.386 0 285.186 0.199987 284.886 0.999951C282.286 7.49963 280.786 11.5994 280.786 13.1993C282.186 16.2992 282.986 20.199 282.986 24.6988C282.986 29.9985 283.986 46.9977 286.086 75.7963C288.286 104.595 289.486 121.194 289.486 125.194C289.486 131.894 288.786 135.993 287.586 136.993C283.286 140.593 278.687 142.493 274.187 142.493C266.987 142.493 261.987 142.293 259.287 141.493C263.387 136.193 265.487 128.794 265.487 119.394C265.487 115.594 264.787 111.694 263.587 108.095C261.887 103.495 259.288 101.095 256.188 101.095C252.788 101.095 248.988 104.495 244.188 110.695C239.188 117.394 236.489 124.394 236.489 131.094C236.489 135.893 237.189 139.693 238.888 142.593C235.489 143.993 232.189 144.993 228.589 144.993C224.989 144.993 222.389 144.293 220.389 143.293C217.29 141.093 214.89 136.593 213.69 129.894C213.49 127.494 212.69 113.594 212.29 88.3957C211.59 61.497 210.59 43.4979 209.69 34.3983C207.99 19.999 205.89 9.69951 202.69 3.6998C202.19 2.69985 201.69 1.99989 201.49 1.99989C200.99 1.99989 200.79 2.69985 200.29 3.89979C198.39 8.69956 197.39 12.0994 197.39 14.4993C199.99 23.5988 201.99 32.9984 203.19 43.0979C203.69 49.2976 204.39 66.0967 205.39 93.4954C206.09 118.894 207.09 134.093 207.99 139.293C209.39 147.693 212.09 153.192 216.39 156.292C219.289 158.492 223.389 159.692 228.589 159.692C233.889 159.692 240.088 157.092 247.088 151.993C252.688 155.592 261.787 157.292 274.287 157.292ZM243.289 32.4984C246.689 32.4984 249.289 30.7985 251.689 27.8986C252.389 26.8987 252.889 24.2988 253.389 20.199C253.589 16.5992 251.189 12.7994 246.189 9.19955C246.889 6.79967 247.889 4.39978 248.789 2.19989C248.789 1.99991 248.989 1.69992 248.989 1.69992C248.989 1.19994 248.489 0.999954 247.989 0.999954C247.289 0.999954 246.289 1.49993 245.589 2.69987C242.189 9.19955 239.789 16.0992 238.589 23.7988C238.389 24.7988 238.389 25.6987 238.389 26.3987C238.489 30.2985 239.989 32.4984 243.289 32.4984ZM312.885 84.5958C315.285 118.394 316.485 137.593 316.485 142.393C316.485 147.393 316.285 151.992 315.785 156.092C315.737 156.706 315.685 157.287 315.635 157.827C315.476 159.575 315.355 160.905 315.585 161.592C315.785 162.292 316.085 162.292 316.785 161.092C317.285 160.092 317.785 158.892 318.685 157.292C322.084 148.693 323.684 138.593 323.684 127.294C323.684 123.494 322.684 106.895 320.584 77.3962C318.384 47.5976 317.185 32.7984 317.185 32.2984C317.185 31.0985 317.385 30.5985 317.885 31.2984C322.184 36.0982 324.084 37.2981 324.084 35.0983C324.084 34.5983 324.084 33.3983 323.584 32.1984C323.084 30.2985 321.384 25.4987 318.285 17.5991C315.385 10.1995 313.685 5.5997 312.985 3.89979C312.485 3.19983 312.285 2.69985 311.785 2.69985C311.585 2.69985 311.285 3.19983 311.085 3.89979C308.185 10.0995 306.985 14.1993 306.985 15.8992C308.385 18.9991 309.185 22.8989 309.185 27.6986C309.285 31.7984 310.485 50.6975 312.885 84.5958ZM334.295 47.8979C333.095 48.3979 332.095 48.5979 331.895 48.5979C331.759 48.5979 331.715 48.4598 331.701 48.4334C331.765 48.1056 332.287 47.4518 333.595 46.7979C339.294 43.1981 345.094 39.8983 351.094 36.4984C358.094 32.0986 363.093 28.2988 366.493 24.699C361.993 22.2991 359.793 19.8993 359.793 17.2994C359.793 14.1995 361.193 11.2997 364.093 8.8998C366.993 6.19993 369.393 5.29998 371.293 5.99994C372.993 6.39992 373.693 8.09985 373.693 10.9997C373.693 13.6996 373.193 16.4994 371.993 19.8993C374.393 21.0992 375.793 22.2991 376.293 23.2991C376.293 24.499 375.393 26.5989 373.193 29.4988C372.693 28.4988 371.293 27.2989 369.093 26.099C366.493 29.6988 363.293 32.7986 359.493 35.6985C354.994 38.7983 350.894 41.4982 347.294 42.8981C346.294 43.2981 341.994 44.998 334.295 47.8979ZM331.701 48.4334C331.7 48.4305 331.699 48.429 331.698 48.4291C331.695 48.4296 331.695 48.4485 331.695 48.4979C331.695 48.4781 331.697 48.4566 331.701 48.4334ZM99.596 41.098C102.696 41.098 104.896 37.4981 106.096 30.2985C106.296 30.0985 106.296 29.7985 106.096 29.5985C106.096 29.5079 106.096 29.4583 106.077 29.4499C106.055 29.4397 106.005 29.4892 105.896 29.5985C105.896 29.5985 105.696 29.7985 105.696 30.0985C103.996 32.9984 102.596 34.6983 101.096 34.6983C98.8961 34.6983 97.9961 32.4984 97.9961 28.6986C97.9961 25.5987 99.1961 20.499 101.596 13.0994C102.096 11.3994 102.296 10.4995 102.296 10.1995C102.096 10.1995 101.596 11.1995 100.596 12.7994C96.7962 19.799 95.0963 26.6987 95.0963 33.1984C94.9963 38.4981 96.4962 41.098 99.596 41.098ZM365.193 12.5996C364.293 12.9996 363.793 13.4996 363.793 13.9995C363.793 15.1995 365.693 16.5994 369.393 18.3993C369.793 16.9994 369.793 15.4995 369.593 14.0995C369.293 12.5996 368.593 11.8996 367.393 11.8996C366.893 11.8996 366.193 12.0996 365.193 12.5996ZM411.591 31.9987C410.391 39.1983 408.191 42.7981 405.091 42.7981C401.991 42.7981 400.491 40.0983 400.591 34.8985C400.591 28.3989 402.291 21.4992 406.091 14.4995C407.091 12.8996 407.591 11.8997 407.791 11.8997C407.791 12.1996 407.591 13.0996 407.091 14.7995C404.691 22.1992 403.491 27.2989 403.491 30.3988C403.491 34.1986 404.391 36.3985 406.591 36.3985C408.091 36.3985 409.491 34.6985 411.191 31.7987C411.191 31.4987 411.391 31.2987 411.391 31.2987C411.5 31.1894 411.55 31.1398 411.572 31.15C411.591 31.1585 411.591 31.208 411.591 31.2987C411.791 31.4987 411.791 31.7987 411.591 31.9987ZM153.593 34.0983C154.093 34.2983 154.593 34.0983 154.793 33.3984C156.193 31.1985 157.393 28.5986 158.893 25.6987C162.993 28.2986 166.593 30.6985 169.693 33.0984C170.193 33.2984 170.693 33.2984 171.093 32.5984C174.192 27.2987 175.892 23.6988 175.892 21.9989C175.892 21.4989 173.992 20.099 170.393 17.6991C166.593 15.0992 164.593 13.8993 164.193 13.8993C163.693 13.8993 163.493 14.0993 163.193 14.5993L159.393 22.4989C158.393 21.4989 156.293 19.899 153.193 17.8991C150.094 15.6992 148.394 14.4993 147.894 14.4993C147.694 14.4993 147.194 14.9992 146.894 15.4992L142.294 25.0987C142.094 25.5987 142.094 25.7987 142.294 26.0987C146.094 28.5986 149.994 31.2984 153.593 34.0983ZM243.589 15.6992C248.589 18.5991 250.989 20.699 250.989 21.8989C250.489 22.8989 249.289 23.7988 247.589 24.4988C245.889 25.4988 244.489 25.8987 243.289 25.8987C241.889 25.8987 241.089 24.8988 241.089 23.4989C241.189 21.199 241.889 18.5991 243.589 15.6992ZM469.488 35.3985C468.488 37.4984 467.788 38.6983 467.288 39.1983C466.988 39.3983 454.789 43.9981 431.09 52.7977C406.791 61.6972 393.092 67.197 390.492 68.8969C390.992 66.797 391.692 64.5971 392.892 62.1972C417.191 53.0976 442.389 43.9981 468.288 34.3986C468.425 34.3594 468.554 34.3203 468.674 34.2841C469.165 34.1356 469.488 34.0377 469.488 34.1986C469.688 34.1986 469.688 34.6985 469.488 35.3985ZM472.788 89.3959C471.588 89.8958 470.888 90.0958 470.388 90.0958C470.088 90.0958 470.088 89.7958 470.188 89.8958C470.188 89.3959 470.688 88.9959 472.088 87.9959C479.787 83.5962 487.187 79.2963 494.887 74.9966C504.986 69.1968 511.886 64.3971 515.286 60.7972C510.786 58.3974 508.586 55.9975 508.586 53.3976C508.586 50.2978 509.986 47.3979 512.886 44.798C515.786 42.3981 518.185 41.4982 520.085 42.1981C521.485 42.5981 522.485 44.298 522.485 47.1979C522.485 49.7978 521.985 52.6976 520.785 55.7975C523.185 57.1974 524.185 58.6973 524.185 60.0973C524.185 60.8972 523.985 62.0972 523.485 63.4971C521.085 69.2968 519.885 73.7966 519.885 77.1964C519.885 81.1962 520.785 83.3961 522.985 83.3961C524.185 83.3961 525.585 81.6962 527.285 78.7964C527.585 78.5964 527.585 78.2964 527.785 78.0964C527.785 78.0964 527.985 78.0964 527.985 78.2964L527.985 78.9964C526.485 86.196 524.385 89.7958 521.485 89.7958C518.286 89.7958 516.886 87.196 516.886 81.8962C516.886 79.2964 517.386 75.8965 518.786 71.5967C520.285 67.2969 520.985 65.0971 520.985 64.8971C520.985 64.4971 520.086 63.4971 517.886 62.2972C514.086 67.2969 508.786 72.0967 502.086 76.1965C497.587 78.8964 492.987 81.2962 488.187 83.1962C479.287 86.796 473.988 88.6959 472.788 89.3959ZM123.595 43.2979C123.795 42.5979 123.795 42.0979 123.795 42.0979C123.627 41.9303 123.249 42.0437 122.719 42.2025C122.616 42.2332 122.508 42.2656 122.395 42.2979C102.196 49.6976 82.9969 56.8972 64.5978 63.6969C63.3978 66.0968 62.6979 68.2967 62.1979 70.3966C84.7968 60.997 104.696 53.3974 121.495 47.0977C121.895 46.5977 122.595 45.3978 123.595 43.2979ZM19.8999 60.0971C21.2999 61.297 22.2998 61.997 23.2998 61.997C23.9997 61.997 24.2997 61.797 24.4997 61.497C24.6997 60.997 24.9997 60.997 25.4997 60.997C26.4996 60.997 27.6995 63.1969 29.5995 67.9967C31.4994 72.5964 32.4993 75.6963 32.1993 77.3962C32.3993 78.3961 32.3993 79.0961 32.8993 79.0961C33.3993 79.0961 33.8993 78.3961 34.5992 77.3962C35.2992 75.6963 36.2991 72.7964 36.9991 68.7966C38.699 59.697 40.3989 55.0973 42.2988 55.0973C43.2988 55.0973 44.1987 55.5972 44.8987 56.4972C45.8987 57.4971 46.2986 58.1971 46.5986 58.1971C47.0986 58.1971 47.5986 57.4971 47.9986 55.9972C48.4985 54.9973 48.4985 54.0973 48.4985 53.5973C48.4985 52.5974 47.9986 51.6974 47.0986 50.1975C46.0987 48.7976 44.8987 47.9976 43.6988 47.9976C41.4989 47.9976 39.599 50.1975 37.6991 54.4973C35.9992 60.697 34.7992 65.4968 34.2992 68.6966C34.2992 69.1966 34.0993 69.3966 34.0993 69.6966L33.8993 69.6966C33.8993 69.4966 33.8993 69.1966 33.6993 68.6966C32.9993 63.3969 31.2994 59.0971 29.0995 55.9972C26.8996 52.5974 24.4997 51.1975 21.6999 51.1975C21.4999 51.1975 20.6999 51.8974 19.8 53.7973C18.6 55.6972 18.1001 56.8972 18.1001 57.1972C18 57.8971 18.5 58.8971 19.8999 60.0971ZM513.986 48.7979C513.086 49.1978 512.586 49.6978 512.586 50.1978C512.586 51.3977 514.486 52.8976 518.186 54.5976C518.586 53.1976 518.586 51.6977 518.386 50.2978C518.086 48.7979 517.386 48.0979 516.186 48.0979C515.686 48.0979 514.986 48.2979 513.986 48.7979ZM190.291 131.094C192.191 131.094 193.691 130.394 194.091 128.894L197.69 118.794C198.39 117.394 196.99 116.594 194.091 116.594C185.691 116.594 173.892 115.594 158.792 113.494C145.393 111.594 134.293 109.895 125.894 107.995L125.294 107.995C128.894 105.095 132.394 101.895 135.693 98.1951C139.293 94.3953 144.093 86.6957 150.093 75.5962C154.692 67.1966 158.292 63.0968 160.892 62.8968C162.292 63.0968 163.992 64.2968 165.492 66.9966C167.192 69.5965 167.892 72.9964 167.892 76.5962C167.892 79.696 168.392 81.196 169.292 81.196C169.992 81.196 170.692 79.996 171.192 77.3962C171.892 73.5964 172.392 69.6965 172.392 66.0967C172.392 60.297 171.192 55.9972 169.292 52.3974C167.392 49.7975 165.692 48.2976 163.792 48.2976C161.192 48.2976 157.292 52.5974 151.793 61.2969C144.793 72.5964 139.793 79.796 136.393 83.0959C130.594 88.8956 124.894 93.3954 118.894 97.2952C115.994 99.1951 111.895 101.395 106.895 103.795C103.495 105.495 101.395 106.895 100.695 108.095C98.7952 112.194 97.5952 115.494 97.0953 117.694C96.3953 119.094 97.2952 119.894 99.6951 119.894C101.395 119.894 108.295 120.894 120.294 122.294C137.793 124.694 147.393 126.094 148.893 126.394C141.193 130.194 133.293 134.093 125.394 137.693C113.494 142.893 102.795 145.593 92.9955 145.593L92.9955 145.393C88.3957 145.393 84.7959 144.693 81.996 143.493C79.0961 142.093 76.4963 139.393 73.7964 135.793C71.8965 132.693 70.1966 129.594 68.2967 126.394C66.0968 123.294 63.4969 121.594 60.897 121.594C57.4972 121.594 53.4974 123.494 49.3976 127.794C45.0978 132.093 41.498 137.193 38.5981 142.893C35.1983 150.093 31.8985 157.292 28.7986 164.492C25.3988 170.492 22.0989 173.591 18.1991 173.591C8.59958 173.591 3.9998 163.292 3.9998 142.893C3.9998 138.593 4.19979 133.293 4.99976 127.094L4.99976 126.794Q9.19956 126.194 10.9995 115.994C11.1995 115.794 11.1995 115.494 10.9995 115.294C10.9995 115.204 10.9995 115.154 10.9808 115.146C10.9584 115.135 10.9088 115.185 10.7995 115.294C10.7995 115.294 10.5995 115.494 10.5995 115.794C8.89958 118.694 7.49964 120.394 5.99972 120.394C3.79983 120.394 2.89987 118.194 2.89987 114.394C2.89987 111.295 4.09981 106.195 6.49969 98.7951C6.99967 97.0952 7.19965 96.1953 7.19965 95.8953C6.99967 95.8953 6.49969 96.8952 5.49974 98.4952C1.69992 105.495 7.62939e-06 112.394 7.62939e-06 118.894C7.62939e-06 123.194 0.999959 125.794 3.09985 126.594C1.19995 132.294 0.299988 140.193 0.299988 149.693C0.299988 157.592 1.69992 165.292 5.09976 172.692C8.89958 181.091 13.4993 185.391 18.7991 185.391C22.3989 185.391 25.9987 182.991 29.0986 178.191C31.2985 174.791 33.6984 169.792 36.2982 162.792C39.1981 155.792 41.098 151.493 42.098 149.793C48.2976 140.393 54.0974 135.893 59.5971 135.893C61.297 135.893 62.9969 137.093 64.8968 139.993C66.7967 143.393 68.6967 146.693 70.6966 149.793C73.7964 154.592 77.6962 157.692 82.496 159.192C84.5959 159.692 88.0957 160.092 93.0955 160.192L93.3955 160.192C100.495 160.192 108.595 158.292 117.594 154.892C122.394 152.993 130.594 149.393 141.593 143.893C151.693 138.893 159.592 135.293 165.092 133.593C169.692 131.794 178.091 131.094 190.291 131.094ZM270.698 50.8977C270.998 50.8977 270.998 51.3977 270.498 52.0977C269.698 54.2976 268.998 55.4975 268.598 55.8975C255.598 60.3973 240.699 66.197 223.7 73.3967C224.2 71.2968 224.9 69.0969 226.1 66.697C239.799 61.8972 254.199 56.5975 269.298 51.0977C269.578 51.0354 269.8 50.9731 269.979 50.9229C270.375 50.812 270.56 50.7601 270.698 50.8977ZM358.093 64.0971C356.594 66.997 355.394 69.5968 353.994 71.7967C353.694 72.5967 353.294 72.7967 352.794 72.3967C349.194 69.4969 345.294 66.897 341.494 64.4971C341.294 64.1971 341.294 63.9971 341.494 63.4972L346.094 53.8976C346.394 53.3976 346.894 52.8977 347.094 52.8977C347.594 52.8977 349.294 54.0976 352.394 56.2975C355.494 58.2974 357.593 59.8973 358.593 60.8973L362.393 52.9977C362.693 52.4977 362.893 52.2977 363.393 52.2977C363.793 52.2977 365.793 53.4976 369.593 56.0975C373.193 58.4974 375.093 59.8973 375.093 60.3973C375.093 62.0972 373.393 65.697 370.293 70.9968C369.893 71.6967 369.393 71.6967 368.893 71.4967C365.793 69.0969 362.193 66.697 358.093 64.0971ZM446.589 91.4958C445.889 92.4957 445.389 93.1957 444.889 93.1957C444.489 93.1957 444.489 92.4957 444.289 91.4957C444.589 89.7958 443.589 86.696 441.689 82.0962C439.789 77.2964 438.589 75.0965 437.589 75.0965C437.089 75.0965 436.789 75.0965 436.589 75.5965C436.389 75.8965 436.09 76.0965 435.39 76.0965C434.39 76.0965 433.39 75.3965 431.99 74.1966C430.59 72.9967 430.09 71.9967 430.09 71.2967C430.09 70.9968 430.59 69.7968 431.79 67.8969C432.69 65.997 433.49 65.297 433.69 65.297C436.49 65.297 438.889 66.697 441.089 70.0968C443.289 73.1966 444.989 77.4964 445.689 82.7962C445.889 83.2962 445.889 83.5961 445.889 83.7961L446.089 83.7961C446.089 83.4962 446.289 83.2962 446.289 82.7962C446.789 79.5963 447.989 74.7966 449.689 68.5969C451.589 64.2971 453.489 62.0972 455.689 62.0972C456.889 62.0972 458.089 62.8972 459.088 64.2971C459.988 65.797 460.488 66.697 460.488 67.6969C460.488 68.1969 460.488 69.0968 459.988 70.0968C459.588 71.5967 459.088 72.2967 458.588 72.2967C458.289 72.2967 457.888 71.5967 456.889 70.5968C456.189 69.6968 455.289 69.1968 454.289 69.1968C452.389 69.1968 450.689 73.7966 448.989 82.8962C448.289 86.896 447.289 89.7958 446.589 91.4958ZM100.296 89.2956L100.296 89.4956C100.496 89.4956 101.296 88.9957 102.696 88.0957C106.096 85.6958 108.696 82.796 110.895 79.6961C112.795 76.5963 113.995 73.6964 113.995 71.0965C113.995 67.9967 112.595 66.2968 109.896 66.2968C106.496 66.2968 104.596 68.1967 103.696 72.2965C103.496 73.2964 103.496 73.6964 103.496 73.6964C103.496 73.8964 103.696 73.8964 103.696 73.8964C103.896 73.8964 104.196 73.6964 104.896 73.3964C105.596 72.8965 106.596 72.6965 107.496 72.6965C109.196 72.6965 110.096 73.6964 110.096 75.2963C110.096 77.4963 107.196 81.2961 101.696 87.2958C100.796 88.5957 100.296 89.0957 100.296 89.2956ZM248.889 74.1964C248.689 74.1964 248.189 74.3964 247.889 74.8963L243.289 84.4959C243.089 84.9958 243.089 85.1959 243.289 85.4958C247.089 87.8957 250.989 90.4956 254.588 93.3954C255.088 93.5954 255.288 93.3954 255.788 92.6955C259.188 87.3957 260.788 84.0959 260.788 82.396C260.788 81.896 258.888 80.4961 254.988 77.7962C251.489 75.3963 249.289 74.1964 248.889 74.1964ZM348.694 95.9956C352.594 100.795 356.393 104.395 360.493 107.295C361.393 105.895 364.793 101.095 369.893 92.9958C374.493 86.0961 377.092 81.2963 378.292 78.3965C379.492 75.4966 380.192 74.2967 380.692 74.2967C380.992 74.2967 381.192 75.6966 381.192 79.0964C381.192 82.8962 379.192 88.196 375.393 94.6957C372.993 98.7954 369.393 104.295 364.593 111.495C369.393 116.995 372.693 122.094 374.393 126.394C375.393 129.594 376.093 133.594 376.093 138.193C376.093 140.093 375.693 142.493 374.693 145.593C373.993 148.493 373.093 150.693 372.093 152.093C370.193 154.893 367.093 157.793 362.293 160.692C357.193 163.992 352.894 165.692 349.294 165.692C343.594 165.692 340.694 161.292 340.694 152.693C340.694 146.893 341.694 141.193 343.594 135.894C345.494 131.294 348.694 125.294 353.694 117.395C349.394 113.395 344.794 107.595 339.794 100.395C339.294 99.6954 338.094 98.4955 336.194 96.5956C335.295 95.5956 334.795 94.3957 334.795 92.9957C334.795 90.8958 334.995 88.4959 335.495 85.5961C336.194 82.6962 336.694 81.4963 336.894 81.4963C337.694 81.4963 339.794 82.6962 343.894 85.2961C347.794 87.896 350.894 89.7959 352.794 91.4958C353.994 92.1957 354.494 92.8957 354.494 92.8957L354.494 93.0957C354.494 93.3957 353.794 93.5957 352.094 93.5957C348.994 93.5957 347.294 93.8957 347.294 94.0957C347.294 94.2956 347.694 94.7956 348.694 95.9956ZM189.592 93.1954C191.492 90.0956 192.691 87.1957 192.691 84.5958C192.691 81.496 191.292 79.7961 188.592 79.7961C185.192 79.7961 183.292 81.696 182.392 85.7958C182.192 86.7958 182.192 87.1957 182.192 87.1957C182.192 87.3957 182.392 87.3957 182.392 87.3957C182.592 87.3957 182.892 87.1957 183.592 86.8958C184.292 86.3958 185.292 86.1958 186.192 86.1958C187.892 86.1958 188.792 87.1957 188.792 88.7957C188.792 90.9956 185.892 94.7954 180.392 100.795C179.392 101.995 178.992 102.495 178.992 102.695L178.992 102.895C179.192 102.895 179.992 102.395 181.392 101.495C184.792 99.1952 187.392 96.2953 189.592 93.1954ZM43.3988 89.0956L38.799 98.6952C38.599 99.1951 38.599 99.3951 38.799 99.6951C42.5988 102.095 46.4986 104.695 50.0985 107.595C50.5984 107.795 51.0984 107.595 51.2984 106.895C52.6983 104.695 53.8983 102.095 55.3982 99.1951C59.498 101.795 63.0978 104.195 66.1977 106.595C66.6977 106.795 67.1976 106.795 67.5976 106.095C70.6975 100.795 72.3974 97.1952 72.3974 95.4953C72.3974 94.9953 70.4975 93.5954 66.8976 91.1955C63.0978 88.5956 61.0979 87.3957 60.6979 87.3957C60.198 87.3957 59.998 87.5957 59.698 88.0957L55.8982 95.9953C54.8982 94.9953 52.7983 93.3954 49.6985 91.3955C46.5986 89.1956 44.8987 87.9957 44.3987 87.9957C44.0988 88.0957 43.6988 88.5956 43.3988 89.0956ZM551.474 108.095C550.774 107.095 550.274 106.895 549.774 106.895C549.274 106.895 548.774 107.595 548.574 109.095C547.174 113.694 546.174 116.994 545.974 118.894C548.174 122.494 549.074 124.394 549.074 124.694C548.074 126.394 545.974 127.294 542.574 127.294C539.975 127.294 537.575 126.294 535.875 124.894C533.975 123.494 532.975 121.794 532.975 120.094C532.975 120.594 533.675 118.694 534.675 114.594C535.175 112.394 534.875 111.495 533.975 111.495C533.275 111.495 532.575 111.994 531.575 112.894C529.175 116.694 526.575 120.594 524.175 124.694C520.375 129.694 515.276 132.393 509.276 132.393C501.876 132.393 497.976 129.494 497.976 124.194C497.976 122.994 498.176 121.594 498.676 119.594C499.176 117.694 499.376 116.194 499.376 115.494C499.376 114.494 499.176 114.094 498.676 114.094C497.976 114.094 496.977 114.594 495.777 115.494C491.977 118.894 488.077 121.694 484.277 123.694C483.077 124.394 478.977 126.294 472.778 129.494L472.778 129.194C471.778 129.694 471.378 129.694 471.078 129.694C468.678 124.694 465.778 120.594 462.678 116.994C459.078 113.394 455.978 111.494 452.879 111.494C448.779 111.494 444.979 113.694 441.379 117.694C437.579 122.494 435.879 127.794 435.879 133.793C435.879 141.693 441.679 145.793 453.179 145.793C458.478 145.793 462.778 145.093 465.678 144.093C466.178 145.793 466.678 147.493 466.678 148.893C466.678 151.093 463.078 155.392 456.378 162.092C448.679 169.292 440.779 175.291 432.58 180.291C422.28 186.491 413.581 189.691 406.381 189.691C397.981 189.691 391.982 187.091 388.182 181.991C386.682 179.691 385.582 177.091 385.082 174.291C397.181 166.892 406.081 159.892 411.681 153.492C413.581 151.293 415.08 148.193 416.28 144.093C417.28 140.493 417.68 137.593 417.68 135.193C417.68 130.194 416.28 124.594 413.581 117.894C411.881 114.094 409.981 109.995 408.281 105.895C411.181 106.595 413.081 107.095 413.781 107.095C414.281 107.095 414.481 106.895 414.481 106.595C414.481 106.095 413.781 105.195 412.081 103.495C407.981 99.3951 404.381 95.5953 401.081 91.6955C400.581 91.1955 400.381 90.9955 400.081 90.9955C399.581 90.9955 399.381 91.4955 399.081 92.6955C398.581 93.8954 398.381 96.0953 397.881 99.1951C397.381 102.595 397.381 104.195 397.381 104.695C397.581 105.195 398.081 105.895 398.781 107.295C399.781 108.495 400.481 110.195 400.981 112.295C402.181 116.394 404.581 122.094 407.681 129.094C410.581 135.293 411.981 138.693 411.981 139.193C411.981 141.093 409.081 144.193 403.581 148.593C398.781 152.093 392.682 156.192 385.182 160.592C385.882 156.192 387.182 151.093 388.982 144.993C389.182 143.593 389.482 142.393 389.482 141.593C389.482 141.093 389.482 140.893 389.282 140.893C388.782 140.893 388.282 141.893 387.082 144.293C384.782 150.493 383.082 156.592 381.982 162.492C378.682 164.392 375.082 166.392 371.183 168.492C361.783 173.491 350.084 179.091 335.884 185.091C315.485 193.691 304.486 198.49 302.486 199.49C297.186 201.89 294.586 203.29 294.586 203.59C294.586 203.79 294.586 203.79 295.086 203.79C296.086 203.79 298.486 203.59 302.286 202.79C305.886 202.29 314.985 200.19 329.385 196.79C343.084 193.391 350.284 191.791 350.784 191.791C353.384 191.791 361.783 187.691 376.182 179.291C377.782 178.391 379.282 177.491 380.782 176.591C380.982 183.991 382.882 190.291 386.482 195.09C390.782 201.09 397.081 204.19 405.181 204.19C414.781 204.19 425.78 199.19 438.779 189.591C447.379 183.091 455.378 175.691 462.578 166.992C465.678 163.392 468.378 158.792 469.978 153.292C471.378 148.993 472.178 145.593 472.178 142.693L472.678 142.193L472.678 142.393C481.077 138.593 487.577 134.493 491.377 129.894C491.377 140.893 496.177 146.693 506.276 146.693C514.676 146.693 521.675 141.893 526.875 132.293C529.975 138.093 533.575 141.193 537.475 141.193C543.274 141.193 547.574 138.593 550.474 133.293C553.074 128.994 554.574 123.894 554.574 117.894C554.574 114.294 553.374 110.995 551.474 108.095ZM249.288 137.793C247.388 137.093 245.488 135.893 243.788 133.993C242.088 132.294 240.888 130.594 240.388 129.194C241.588 126.594 243.488 123.694 246.588 120.294C249.688 116.894 252.088 115.294 253.588 115.294C254.788 115.294 256.188 117.194 257.887 121.094C259.287 124.494 260.087 127.294 260.087 129.294C258.187 132.294 254.588 135.193 249.288 137.793ZM370.293 141.193C371.793 139.793 372.193 138.793 371.993 138.093C369.293 132.794 364.793 127.294 358.593 121.994C356.393 124.194 353.794 128.194 350.394 133.994C346.594 140.493 344.894 144.493 344.894 146.693C344.894 149.593 346.794 150.993 351.094 150.993C352.994 150.993 355.394 150.293 358.493 149.093C362.893 147.193 366.893 144.593 370.293 141.193ZM451.879 132.294C446.079 132.294 443.279 130.894 443.279 127.994C443.279 125.594 445.179 124.594 449.479 124.594C452.379 124.594 455.479 126.794 459.079 131.294C458.877 131.332 458.678 131.371 458.479 131.409C456.109 131.868 453.909 132.294 451.879 132.294ZM188.892 147.193C189.392 146.493 189.392 145.993 189.092 145.993C188.954 145.855 188.769 145.907 188.373 146.018C188.194 146.068 187.972 146.131 187.692 146.193C172.592 151.693 158.193 156.992 144.494 161.792C143.294 164.192 142.594 166.392 142.094 168.492C159.093 161.292 173.992 155.492 186.992 150.993C187.392 150.593 188.092 149.293 188.892 147.193ZM539.984 160.692C540.984 158.992 541.484 158.293 541.684 158.493C542.584 159.193 542.984 160.492 542.984 162.192C542.984 163.892 542.484 165.592 541.784 167.492C541.084 169.592 540.384 170.792 539.884 171.292C538.184 172.192 535.585 171.992 531.985 170.292C529.185 173.192 526.285 174.892 523.385 174.892C522.685 174.892 521.485 174.692 520.285 174.192C519.085 173.692 518.085 173.492 517.385 173.492C512.586 173.492 507.486 175.692 502.486 180.491L491.687 191.291C489.587 192.991 487.387 194.191 484.987 194.891C482.287 195.591 480.887 196.091 480.387 196.091L480.387 195.891C480.387 195.891 481.387 195.191 483.287 193.991C485.187 192.791 488.087 190.891 492.187 187.791C494.087 185.791 496.987 182.691 500.586 178.392C502.986 175.592 505.586 172.892 508.486 170.992C512.086 168.392 515.486 167.192 519.086 167.192C519.885 167.192 521.085 167.392 522.485 167.892C523.685 168.392 524.885 168.592 525.885 168.592C527.885 168.592 529.285 167.792 530.485 166.392C531.185 164.892 532.085 163.692 533.085 162.292C533.585 161.392 534.285 160.892 534.785 160.892C534.985 160.892 534.985 161.092 534.985 161.592C534.985 162.092 534.785 163.292 534.285 164.692C533.785 165.492 535.685 165.692 539.285 165.692C539.784 165.692 539.984 165.692 539.984 165.492C539.984 165.492 539.784 164.592 539.285 162.892C538.984 162.392 539.285 161.692 539.984 160.692ZM130.295 195.89C124.495 197.59 119.495 198.49 114.495 198.49C109.496 198.49 106.796 197.29 106.796 194.89C106.796 193.891 107.296 192.491 108.196 191.091L116.095 183.191C119.695 179.091 121.395 176.191 121.395 174.092C121.395 171.192 118.795 169.992 112.995 169.992C110.396 169.992 108.396 170.492 107.196 171.392C106.196 172.092 105.296 173.792 104.296 176.191C104.096 176.691 104.096 176.891 104.096 176.891C104.232 177.028 104.416 176.978 104.582 176.932C104.659 176.911 104.732 176.891 104.796 176.891C106.496 175.891 107.896 175.691 109.096 175.691C111.495 175.691 113.895 175.891 115.795 176.691C116.795 177.191 116.995 177.691 116.295 178.091C113.695 181.191 110.795 184.091 107.896 187.191C104.996 190.591 103.796 193.891 103.796 197.29C103.796 199.19 104.496 200.89 105.996 202.09C107.396 203.29 109.596 203.99 111.795 203.99C119.495 203.99 125.995 201.59 130.795 197.29C131.994 196.29 132.494 195.59 132.494 195.59C132.494 195.39 131.694 195.39 130.295 195.89ZM240.889 189.891C240.889 189.891 240.689 190.091 240.689 190.391C238.989 193.291 237.589 194.99 236.089 194.99C233.889 194.99 232.99 192.791 232.99 188.991C232.99 185.891 234.189 180.791 236.589 173.392C237.089 171.692 237.289 170.792 237.289 170.492C237.089 170.492 236.589 171.492 235.589 173.092C231.79 180.091 230.09 186.991 230.09 193.491C230.09 198.79 231.49 201.39 234.689 201.39C237.789 201.39 239.989 197.79 241.189 190.591C241.389 190.391 241.389 190.091 241.189 189.891C241.189 189.807 241.189 189.758 241.167 189.745C241.137 189.726 241.064 189.774 240.889 189.891ZM197.291 171.692C195.091 171.692 193.191 173.891 191.292 178.191C189.592 184.391 188.392 189.191 187.892 192.391C187.892 192.891 187.692 193.091 187.692 193.391L187.492 193.391C187.492 193.191 187.492 192.891 187.292 192.391C186.592 187.091 184.892 182.791 182.692 179.691C180.492 176.291 178.092 174.891 175.292 174.891C175.092 174.891 174.292 175.591 173.392 177.491C172.192 179.391 171.692 180.591 171.692 180.891C171.692 181.591 172.192 182.591 173.592 183.791C174.992 184.991 175.992 185.691 176.992 185.691C177.692 185.691 177.992 185.491 178.192 185.191C178.392 184.691 178.692 184.691 179.192 184.691C180.192 184.691 181.392 186.891 183.292 191.691C185.192 196.29 186.192 199.39 185.892 201.09C186.092 202.09 186.092 202.79 186.592 202.79C187.092 202.79 187.592 202.09 188.292 201.09C188.992 199.39 189.992 196.49 190.692 192.491C192.392 183.391 194.091 178.791 195.991 178.791C196.991 178.791 197.891 179.291 198.591 180.191C199.591 181.191 199.991 181.891 200.291 181.891C200.791 181.891 201.291 181.191 201.691 179.691C202.191 178.691 202.191 177.791 202.191 177.291C202.191 176.291 201.691 175.391 200.791 173.891C199.691 172.392 198.491 171.692 197.291 171.692ZM289.687 171.892C287.487 171.892 285.587 174.092 283.687 178.391C281.987 184.591 280.787 189.391 280.287 192.591C280.287 193.091 280.087 193.291 280.087 193.591L279.887 193.591C279.887 193.391 279.887 193.091 279.687 192.591C278.987 187.291 277.287 182.991 275.087 179.891C272.888 176.491 270.488 175.091 267.688 175.091C267.488 175.091 266.688 175.791 265.788 177.691C264.588 179.591 264.088 180.791 264.088 181.091C264.088 181.791 264.588 182.791 265.988 183.991C267.388 185.191 268.388 185.891 269.388 185.891C270.088 185.891 270.388 185.691 270.588 185.391C270.788 184.891 271.088 184.891 271.588 184.891C272.588 184.891 273.788 187.091 275.687 191.891C277.587 196.49 278.587 199.59 278.287 201.29C278.487 202.29 278.487 202.99 278.987 202.99C279.487 202.99 279.987 202.29 280.687 201.29C281.387 199.59 282.387 196.69 283.087 192.691C284.787 183.591 286.487 178.991 288.387 178.991C289.387 178.991 290.287 179.491 290.987 180.391C291.987 181.391 292.387 182.091 292.687 182.091C293.187 182.091 293.687 181.391 294.087 179.891C294.586 178.891 294.586 177.991 294.586 177.491C294.586 176.491 294.087 175.591 293.187 174.091C292.087 172.592 290.887 171.892 289.687 171.892ZM79.897 181.491C79.7593 181.353 79.5742 181.405 79.1785 181.516C78.9995 181.566 78.7774 181.629 78.4971 181.691C63.3978 187.191 48.9985 192.491 35.2992 197.29C34.0993 199.69 33.3993 201.89 32.8993 203.99C49.8985 196.79 64.7978 190.991 77.7971 186.491C78.2971 185.991 78.9971 184.791 79.697 182.691C80.097 181.991 80.097 181.491 79.897 181.491Z" id="Group" fill="#595959" fill-rule="evenodd" stroke="none" clip-path="url(#clip_1)" />
  </g>
</svg>