<?xml version="1.0" encoding="utf-8"?>
<svg width="557.6001px" height="224.19998px" viewBox="0 0 557.6001 224.19998" version="1.1" xmlns:xlink="http://www.w3.org/1999/xlink" xmlns="http://www.w3.org/2000/svg">
  <defs>
    <path d="M557.6 0L557.6 0L557.6 224.2L0 224.2L0 0L557.6 0Z" id="path_1" />
    <clipPath id="clip_1">
      <use xlink:href="#path_1" clip-rule="evenodd" fill-rule="evenodd" />
    </clipPath>
  </defs>
  <g id="Surah_94_of_114_(modified)">
    <path d="M557.6 0L557.6 0L557.6 224.2L0 224.2L0 0L557.6 0Z" id="Surah_94_of_114_(modified)" fill="none" stroke="none" />
    <path d="M306.1 94.5C306.1 108.7 303.5 119.7 298.4 127.9C294.1 134.6 289 138.2 283.3 138.2L283.3 137.993C276.161 137.789 271.03 133.189 268 124.1C267.5 122.9 267 122.9 266.6 124.1C262.5 134.9 256.5 140.4 248.8 140.4C240.8 140.4 235.8 136.3 233.2 128.1C227.9 137.5 221.2 142.3 212.6 142.3C209.2 142.3 206.4 141.1 204.2 138.9C202.8 137.5 201.6 135.3 200.4 132.7C199.7 130.5 199 129.3 198.7 129.3C197.7 129.3 194.9 130.3 189.8 132.4C184.81 134.296 180.916 136.192 178.316 137.691C178.466 138.257 179.673 140.82 182.1 145.3C184.8 150.3 186.2 153.7 186.2 155.6C186.2 158 185.8 160.9 184.8 164.5C183.6 168.6 182.1 171.7 180.2 173.9C173.2 181.8 161.5 190.4 144.9 199.8C130.5 208.2 122.1 212.3 119.5 212.3C119 212.3 112.1 213.9 98.4 217.3C83.7 220.7 74.8 222.8 71 223.3C68.9 223.8 67.2 224 66 224C64.8 224.2 64.1 224.2 63.6 224.2C63.1 224.2 63.1 223.9 63.6 223.7C64.3 223.3 66.7 221.8 71.3 219.9C73.3 218.9 84.3 214.1 104.7 205.5C118.8 199.5 130.6 193.9 140.2 188.9C153 181.9 163.3 175.7 171.2 169.9C177 165.5 180.1 162.9 180.1 161.7C180.1 160.8 178.7 157.9 175.9 153.4C174 150.5 172.3 147.4 170.6 144.5C169.6 143.1 169.4 142.1 169.4 141.4C169.4 138.5 169.9 135.6 171.3 132.5C172.8 128.4 175.2 125.7 178.3 124.3L178.3 124.5L204 113.5C204.7 113.3 205.2 113.3 205.7 113.3C206.4 113.3 206.7 113.8 206.7 114.7C206.7 115.4 206.5 116.4 206.2 117.8C205.7 119.2 205.5 120.4 205.5 121.4C205.5 126 208.6 128.1 214.9 128.1C220.9 128.1 225.9 125.5 230.3 120.2C232.9 116.4 235.6 112.3 238.2 108.4C238.9 107.4 239.6 107 240.4 107C241.1 107 241.4 107.5 241.4 108.4C241.4 108.9 241.4 109.4 241.2 110.1C240.893 111.357 240.643 112.406 240.444 113.244L240.444 113.244L240.444 113.245L240.443 113.245L240.443 113.246C239.992 115.14 239.8 115.947 239.8 115.6C239.8 117.3 240.5 119.2 242 121.4C243.9 124.3 246.3 125.7 249.4 125.7C256.8 125.7 263.6 119.9 269.3 108.2C270 106.8 271 106 271.7 106C272.7 106 272.9 106.5 272.9 107.7C272.9 108.2 272.9 108.9 272.7 109.9C272.7 110.9 272.5 111.6 272.5 112.1C272.5 115.5 273.7 118.3 275.6 120.3C277.8 122.5 280.4 123.4 283.8 123.4L283.8 123.592C288.226 123.46 292.556 121.569 296.7 118.1C297.9 117.1 298.6 113.1 298.6 106.3C298.6 102 297.6 88.3 296 65.5C294.3 42.5 293.6 28.8 293.6 24.7C293.6 20.1 292.6 16.3 291.2 13.2C291.2 11.5 292.6 7.39999 295.5 1C295.7 0.300003 296 0 296.2 0C296.7 0 296.9 0.199997 297.4 1C298.1 2.89999 300 7.5 302.7 14.9C305.8 22.6 307.5 27.4 308.2 29.3C308.4 30.7 308.7 31.7 308.7 32.4C308.7 34.6 306.5 33.1 302.5 28.3C302 27.8 301.8 28.1 301.8 29.3C301.8 29.5 302.5 39.4 304 58.6C305.4 77.5 306.1 89.5 306.1 94.5ZM154 35.3C178.2 26.2 203.4 17.1 229.4 7.49998C229.602 7.44223 229.788 7.37613 229.949 7.31855C230.347 7.17675 230.6 7.08662 230.6 7.29999C230.8 7.29999 230.8 7.79999 230.6 8.49998C229.6 10.7 228.9 11.9 228.4 12.3C228.2 12.5 215.9 17.1 192.2 26C168 34.9 154.3 40.4 151.6 42.1C152 39.8 152.8 37.7 154 35.3ZM132.4 30.2C132.4 30 132.6 29.7 132.6 29.7C132.709 29.5907 132.759 29.5411 132.781 29.5513C132.8 29.5597 132.8 29.6093 132.8 29.7C133 29.9 133 30.2 132.8 30.4C131.6 37.6 129.4 41.2 126.3 41.2C123.2 41.2 121.7 38.6 121.7 33.3C121.7 26.8 123.4 19.9 127.2 12.9C128.2 11.2 128.6 10.3 128.9 10.3C128.9 10.5 128.7 11.5 128.2 13.2C125.8 20.6 124.6 25.7 124.6 28.8C124.6 32.6 125.6 34.8 127.7 34.8C129.2 34.8 130.7 33.1 132.4 30.2ZM313.6 36.5C313.6 31.7 312.9 27.9 311.4 24.7C311.4 23 312.6 18.9 315.5 12.7C315.7 12 316 11.5 316.2 11.5C316.7 11.5 316.9 12 317.4 12.7C318.1 14.4 319.8 18.9 322.7 26.4C325.8 34.3 327.5 39.1 328 41C328.5 42.2 328.5 43.4 328.5 43.9C328.5 46.1 326.6 44.9 322.3 40.1C321.8 39.4 321.6 39.9 321.6 41.1C321.6 41.6 322.8 56.5 325 86.2C327.2 115.7 328.1 132.3 328.1 136.1C328.1 147.4 326.4 157.5 323.1 166.1C322.1 167.8 321.7 169 321.2 169.9C320.5 171.1 320.2 171.1 320 170.4C319.829 169.546 319.95 168.035 320.114 165.993C320.142 165.644 320.171 165.279 320.2 164.9C320.7 160.8 320.9 156.3 320.9 151.2C320.9 146.4 319.7 127.2 317.3 93.4C314.8 59.5 313.6 40.5 313.6 36.5ZM362.8 23.8C362.8 26.4 364.9 28.8 369.5 31.2C366.1 34.8 361.1 38.6 354.1 42.9C348.1 46.2 342.4 49.6 336.6 53.2C335.2 53.9 334.7 54.7 334.7 54.9C334.7 54.9 334.7 55.1 334.9 55.1C335.1 55.1 336.1 54.9 337.3 54.4C345 51.6 349.3 49.9 350.3 49.4C353.9 48 357.9 45.3 362.5 42.2C366.3 39.3 369.5 36.2 372.1 32.6C374.3 33.8 375.7 35 376.2 36C378.3 33.2 379.3 31 379.3 29.8C378.8 28.8 377.4 27.6 375 26.4C376.2 23 376.7 20.1 376.7 17.5C376.7 14.7 376 13 374.3 12.5C372.4 11.8 370 12.8 367.1 15.4C364.2 17.8 362.8 20.7 362.8 23.8ZM417.4 34.5C417.4 34.5 417.2 34.8 417.2 35C415.6 37.9 414.1 39.6 412.5 39.6C410.4 39.6 409.4 37.4 409.4 33.6C409.4 30.5 410.6 25.4 413 18C413.5 16.3 413.7 15.3 413.7 15.1C413.4 15.1 413 16 412 17.7C408.2 24.7 406.5 31.6 406.5 38.1C406.5 43.4 408 46 411.1 46C414.2 46 416.4 42.4 417.6 35.2C417.8 35 417.8 34.7 417.6 34.5C417.6 34.4093 417.6 34.3597 417.581 34.3513C417.559 34.3411 417.509 34.3907 417.4 34.5ZM372.6 20.6C372.9 22 372.9 23.5 372.4 24.9C368.8 23.3 366.8 21.8 366.8 20.5C366.8 20.1 367.2 19.6 368.2 19.1C369.2 18.6 369.9 18.4 370.4 18.4C371.6 18.4 372.4 19.2 372.6 20.6ZM231.5 44.9C232.4 43 232.9 40.8 232.9 38.9C232.9 37.9 232.4 36.5 231.3 34.5C230.1 31.2 229.4 29.5 229.4 29.5C229.2 28.5 228.9 27.3 228.7 26.1C228.7 25.2 228.4 24.7 228.2 24.7C227.9 24.7 227.7 25.2 227.2 25.9C226.2 27.1 226 28.3 226 29.7C226 32.3 227.5 35.9 230.1 40.7C229.9 42.2 228.9 42.9 227.5 42.9C224.3 42.9 222.9 40.8 222.9 36.7C222.9 35.3 222.4 33.1 221.7 30C221 27.1 220.5 25.7 220 25.7C219.8 25.7 219.3 26.1 218.8 27.1C218.3 28.3 218.1 29 218.1 29.5C218.1 30 218.4 31.4 219.1 33.6C219.6 36 220.1 37.4 220.1 38.4C220.1 40.1 219.4 41.5 218.2 42.7C217 43.9 215.8 44.6 214.4 44.6C213.5 44.6 212.5 43.6 211.8 42.2C211.3 41 211.1 39.5 211.1 38.1C211.1 37.4 211.1 36.7 211.3 35.7C211.3 34.7 211.5 33.5 211.5 32.1C211.5 29.5 211 28.3 210.3 28.3C209.8 28.3 209.1 28.8 208.1 30C207.2 31.2 206.7 32.4 206.7 33.8C206.7 34.5 207 35 207.7 35.2C208.2 35.5 208.7 35.7 208.7 36.2L208.7 42.4C208.7 44.8 209.2 47 210.4 48.4C211.4 49.9 212.6 50.6 213.8 50.6C217.4 50.6 219.8 48 221.2 43.2C222.4 47.1 224.3 49 227.2 49C228.9 49 230.3 47.5 231.5 44.9ZM271.3 46C271.3 46 271.1 46.3 271.1 46.5C269.4 49.4 268 51.1 266.4 51.1C264.3 51.1 263.3 48.9 263.3 45.1C263.3 42 264.5 36.9 266.9 29.5C267.4 27.8 267.6 26.8 267.6 26.6C267.3 26.6 266.9 27.5 265.9 29.2C262.1 36.2 260.4 43.1 260.4 49.6C260.4 54.9 261.9 57.5 265 57.5C268.1 57.5 270.3 53.9 271.5 46.7C271.7 46.5 271.7 46.2 271.5 46C271.5 45.9093 271.5 45.8597 271.481 45.8513C271.459 45.8411 271.409 45.8907 271.3 46ZM395.9 68.9C420.1 59.8 445.3 50.7 471.3 41.1C471.502 41.0422 471.688 40.9761 471.849 40.9186C472.247 40.7768 472.5 40.6866 472.5 40.9C472.7 40.9 472.7 41.4 472.5 42.1C471.5 44.3 470.8 45.5 470.3 45.9C470.1 46.1 457.8 50.7 434.1 59.6C409.9 68.5 396.2 74 393.5 75.7C394 73.4 394.7 71.3 395.9 68.9ZM60.2 94.5C74.6 86.1 93 77 115.6 67.4C116.8 66.9 117.7 66 118.2 64.7L121.3 55.3C121.6 54.1 121.1 53.1 119.4 52.9C115.3 52.4 104.8 51.2 87.5 50C68.3 48.3 54.3 47.6 45.7 47.6C38 47.6 32.3 49.6 28.2 53.4C24.9 56.5 23.2 60.4 23.2 64.7C23.2 67.1 23.6 69.2 24.6 70.9C26.3 73.8 29.4 76.9 34.2 80.3C40.6 85.3 45.4 89.4 48.8 92.5C43.3 98.2 39.7 102.8 37.5 106.4C35.9 106.1 34.7 105.9 33.7 105.9C32.5 105.9 31.8 106.1 31.8 106.6C31.8 107.3 33 108.3 35.4 109.7C28 123.2 24.4 137.1 24.4 151.5C24.4 183.2 38.5 198.8 67.1 198.8C82.9 198.8 97.3 192.5 110.3 180.3C123.7 167.6 130.2 153.4 130.2 137.8C130.2 131.8 128.8 126.8 125.9 122.2C123.5 118.2 120.2 115.5 116.1 113.6C112.1 111.9 102.7 110.7 88.3 110.2C68.1 109.5 53.7 108.5 45.1 107.3C48.2 103.9 51.3 100.8 54.7 97.9C56.3 101.3 57.8 102.7 58.5 102.7C59.7 102.7 60.2 100 60.2 94.5ZM526.4 70.1C524 75.9 522.8 80.4 522.8 83.8C522.8 87.9 523.8 90 525.9 90C527.1 90 528.5 88.3 530.2 85.4C530.4 85.2 530.4 84.9 530.7 84.7C530.7 84.7 530.9 84.7 530.9 84.9L530.9 85.6C529.5 92.8 527.3 96.4 524.4 96.4C521.3 96.4 519.8 93.8 519.8 88.5C519.8 85.9 520.3 82.5 521.7 78.2C523.1 73.9 523.9 71.7 523.9 71.5C523.9 71 522.9 70.1 520.8 68.9C517 73.9 511.7 78.7 505 82.8C500.4 85.4 495.9 87.8 491.1 89.8C482.2 93.4 476.9 95.3 475.7 96C474.5 96.5 473.8 96.7 473.3 96.7C473.1 96.7 473.1 96.5 473.1 96.5C473.1 96 473.6 95.5 475 94.6C482.7 90.3 490.1 86 497.8 81.6C507.9 75.8 514.8 71 518.2 67.4C513.6 65 511.5 62.6 511.5 60C511.5 56.9 512.9 54 515.8 51.4C518.7 49 521.1 48 523 48.8C524.4 49.3 525.4 51 525.4 53.8C525.4 56.4 524.9 59.3 523.7 62.4C526.1 63.8 527.1 65.3 527.1 66.7C527.2 67.4 526.9 68.6 526.4 70.1ZM521.2 61.2C521.7 59.8 521.7 58.3 521.4 56.9C521.2 55.5 520.4 54.7 519.2 54.7C518.7 54.7 518 54.9 517 55.4C516 55.9 515.6 56.4 515.6 56.8C515.6 58.1 517.6 59.5 521.2 61.2ZM365.4 59.8L361.6 67.7C360.6 66.7 358.4 65 355.4 63.2C352.3 61 350.6 59.8 350.1 59.8C349.8 59.8 349.3 60.3 349.1 60.8L344.5 70.4C344.3 70.9 344.3 71.2 344.5 71.4C348.4 73.8 352.2 76.4 355.8 79.3C356.3 79.6 356.8 79.3 357 78.6C358.5 76.4 359.7 73.8 361.1 70.9C365.2 73.5 368.8 75.9 371.9 78.3C372.3 78.5 372.8 78.5 373.3 77.8C376.4 72.5 378.1 68.9 378.1 67.2C378.1 66.7 376.2 65.3 372.6 62.9C368.8 60.3 366.9 59.1 366.4 59.1C365.9 59.1 365.6 59.3 365.4 59.8ZM220.7 70.8C220.5 70.6 220.5 70.3 220.7 69.8L225.5 60.2C225.7 59.7 226 59.5 226.5 59.5C227 59.5 228.9 60.7 232.7 63.1C236.3 65.7 238.2 67.2 238.2 67.7C238.2 69.4 236.5 72.7 233.4 78C232.9 78.7 232.4 79 232 78.5C228.4 75.8 224.5 73.2 220.7 70.8ZM96.1 64.5C96.1 64.8 95.4 65 94.2 65.5C82.2 70.3 70 77 57.1 85.9C55.6 84 51.1 80.2 44.1 74.4C40 71.2 35.9 68.1 32.1 65C30.6 63.8 29.9 63 29.9 62.8C29.9 62.6 30.3 62.3 31.3 62.1C33.7 61.4 39 60.9 47.6 60.9C64.7 60.9 79.8 61.9 93 63.8C95.1 64 96.1 64.3 96.1 64.5ZM179.9 62.9C180.6 61.7 181.6 61.2 182.3 61.2C182.8 61.2 183.3 61.4 183.3 61.9C183.3 61.9 183.1 62.1 183.1 62.4C182.1 64.6 181.2 67 180.5 69.4C185.5 73 187.9 76.8 187.7 80.4C187.2 84.5 186.7 87.1 186 88.1C183.6 91 181 92.7 177.6 92.7C174.2 92.7 172.8 90.5 172.8 86.7C172.8 86 172.8 85 173 84.1C174.1 76.3 176.5 69.3 179.9 62.9ZM444.1 76.8C442 73.4 439.6 72 436.7 72C436.4 72 435.7 72.7 434.7 74.6C433.5 76.6 433 77.8 433 78C433 78.7 433.5 79.7 434.9 80.9C436.4 82.1 437.3 82.8 438.3 82.8C439 82.8 439.3 82.5 439.5 82.3C439.8 81.8 440 81.8 440.5 81.8C441.5 81.8 442.7 84 444.6 88.8C446.5 93.4 447.4 96.5 447.2 98.2C447.4 99.2 447.4 99.9 447.9 99.9C448.4 99.9 448.9 99.2 449.6 98.2C450.3 96.6 451.3 93.7 452 89.6C453.7 80.5 455.4 75.9 457.3 75.9C458.2 75.9 459.2 76.3 459.9 77.3C460.9 78.3 461.4 79 461.6 79C462 79 462.5 78.2 463 76.8C463.5 75.8 463.5 74.9 463.5 74.4C463.5 73.4 463.1 72.4 462.1 71C461.1 69.5 459.9 68.8 458.7 68.8C456.5 68.8 454.6 71 452.7 75.3C451 81.6 449.8 86.4 449.3 89.5C449.3 90 449.1 90.3 449.1 90.5L448.9 90.5C448.9 90.2 448.9 90 448.7 89.5C447.9 84.2 446.3 79.9 444.1 76.8ZM185.2 82.1C185.2 80.9 182.8 78.7 177.8 75.9C176.1 78.8 175.4 81.4 175.4 83.8C175.4 85.2 176.1 86.2 177.6 86.2C178.8 86.2 180.2 85.7 181.9 84.8C183.5 84 184.7 83 185.2 82.1ZM233.9 85.7L237.7 78C237.9 77.3 238.2 77 238.7 77C239.2 77 241.1 78.2 244.9 80.8C248.5 83.4 250.4 84.9 250.4 85.4C250.4 87.1 248.7 90.4 245.6 95.7C245.1 96.4 244.6 96.4 244.2 96.2C241.1 93.8 237.5 91.4 233.4 88.8C232 91.7 230.8 94.3 229.3 96.5C229.1 97.2 228.6 97.5 228.1 97.2C224.5 94.3 220.7 91.7 216.8 89.3C216.6 89.1 216.6 88.8 216.8 88.3L221.4 78.7C221.6 78.2 222.1 77.7 222.4 77.7C222.9 77.7 224.6 78.9 227.7 81.1C230.8 83 232.9 84.7 233.9 85.7ZM384.4 85.7C384.4 89.5 382.5 94.8 378.6 101.3C376.2 105.4 372.6 110.9 367.8 118.1C372.6 123.6 376 128.7 377.6 133C378.6 136.1 379.3 140.2 379.3 144.8C379.3 146.7 378.8 149.1 377.9 152.2C377.2 155.1 376.2 157.2 375.3 158.7C373.4 161.6 370.3 164.5 365.5 167.3C360.5 170.7 356.1 172.3 352.5 172.3C346.7 172.3 343.9 168 343.9 159.3C343.9 153.5 344.9 147.8 346.8 142.5C348.7 137.9 351.8 131.9 356.9 124C352.6 119.9 348 114.2 343 107C342.5 106.3 341.3 105.1 339.4 103.2C338.4 102.2 338 101 338 99.6C338 97.4 338.2 95 338.7 92.2C339.4 89.3 339.9 88.1 340.1 88.1C340.8 88.1 343 89.3 347.1 91.9C350.9 94.5 354.1 96.5 356 98.1C357.2 98.8 357.7 99.5 357.7 99.5L357.7 99.7C357.7 99.9 357 100.2 355.3 100.2C352.2 100.2 350.5 100.4 350.5 100.7C350.5 101 351 101.4 351.9 102.6C355.7 107.4 359.6 111 363.7 113.9C364.7 112.5 368 107.7 373.3 99.5C377.9 92.5 380.5 87.7 381.7 84.9C382.9 82 383.6 80.8 384.1 80.8C384.1 80.8146 384.106 80.8573 384.117 80.9301C384.182 81.3537 384.4 82.7987 384.4 85.7ZM133 90C130.9 86.6 128.5 85.2 125.6 85.2C125.4 85.2 124.7 85.9 123.6 87.8C122.4 89.8 121.9 91 121.9 91.2C121.9 91.9 122.4 92.9 123.8 94.1C125.3 95.3 126.2 96 127.2 96C127.9 96 128.2 95.7 128.4 95.5C128.7 95 128.9 95 129.4 95C130.4 95 131.6 97.2 133.5 102C135.4 106.6 136.3 109.7 136.1 111.4C136.3 112.4 136.3 113.1 136.8 113.1C137.3 113.1 137.8 112.4 138.5 111.4C139.2 109.8 140.2 106.9 140.9 102.8C142.6 93.7 144.3 89.1 146.2 89.1C147.1 89.1 148.1 89.5 148.8 90.5C149.8 91.5 150.3 92.2 150.5 92.2C150.9 92.2 151.4 91.4 151.9 90C152.4 89 152.4 88.1 152.4 87.6C152.4 86.6 152 85.6 151 84.2C150 82.7 148.8 82 147.6 82C145.4 82 143.5 84.2 141.6 88.5C139.9 94.8 138.7 99.6 138.2 102.7C138.2 103.2 138 103.5 138 103.7L137.8 103.7C137.8 103.4 137.8 103.2 137.6 102.7C136.8 97.4 135.2 93.1 133 90ZM401.8 114C402.8 115.2 403.5 116.8 404 119C405.2 123.1 407.6 128.9 410.9 135.9C413.8 142.2 415.2 145.5 415.2 146C415.2 148 412.3 151.1 406.8 155.4C401.964 158.994 395.677 163.101 387.937 167.664C388.668 163.196 389.949 157.829 391.8 151.5C392.1 150 392.3 148.8 392.3 148.1C392.3 147.6 392.3 147.4 392.1 147.4C391.6 147.4 391.1 148.4 389.9 150.8C387.533 157.19 385.797 163.406 384.773 169.508C381.545 171.369 378.087 173.301 374.4 175.3C365 180.4 353.3 185.9 339.1 191.9C318.7 200.5 307.6 205.3 305.7 206.3C300.4 208.7 297.8 210.2 297.8 210.4C297.8 210.6 297.8 210.6 298.3 210.6C299.3 210.6 301.7 210.3 305.5 209.6C309.1 209.1 318.2 207 332.6 203.6C346.3 200.3 353.5 198.6 354 198.6C356.6 198.6 365 194.5 379.4 186.1C380.882 185.27 382.325 184.444 383.729 183.624C383.985 190.832 385.963 197.046 389.5 201.7C393.8 207.7 400 210.8 408.2 210.8C417.8 210.8 428.8 205.8 441.8 196.2C450.5 189.7 458.4 182.2 465.6 173.6C468.7 170 471.3 165.4 473 159.9C474.5 155.5 475.2 152.2 475.2 149.3L475.7 148.8L475.7 135.6C474.7 136.1 474.2 136.1 474 136.1C471.6 131.1 468.7 127 465.6 123.4C462 119.8 458.9 117.9 455.8 117.9C451.7 117.9 447.9 120 444.3 124.1C440.5 128.9 438.8 134.2 438.8 140.2C438.8 148.1 444.6 152.2 456.1 152.2C461.4 152.2 465.7 151.5 468.6 150.5C469.1 152.2 469.6 153.9 469.6 155.3C469.6 157.4 466 161.7 459 168.6C451.3 175.8 443.4 181.8 435.2 186.8C424.8 193.1 416.2 196.2 409 196.2C400.6 196.2 394.6 193.5 390.8 188.5C389.361 186.342 388.354 183.896 387.777 181.206C400.005 173.737 408.942 166.698 414.7 160.2C416.7 158 418.1 154.9 419.3 150.8C420.2 147.2 420.7 144.3 420.7 141.9C420.7 136.8 419.2 131.3 416.6 124.6C414.9 120.8 413 116.7 411.3 112.6C414.2 113.3 416.1 113.8 416.8 113.8C417.3 113.8 417.5 113.5 417.5 113.3C417.5 112.8 416.8 111.9 415.1 110.2C411.1 106.1 407.5 102.2 404.1 98.4C403.6 97.9 403.3 97.7 403.1 97.7C402.6 97.7 402.3 98.2 402.1 99.4C401.6 100.6 401.4 102.8 400.9 105.9C400.4 109.2 400.4 110.9 400.4 111.4C400.6 111.8 401.1 112.6 401.8 114ZM10.7 118.5C10.7 118.3 10.9 118 10.9 118C11.0093 117.891 11.0589 117.841 11.0813 117.851C11.1 117.86 11.1 117.909 11.1 118C11.3 118.2 11.3 118.5 11.1 118.7C9.89999 125.9 7.69999 129.5 4.59999 129.5C1.49999 129.5 -7.62939e-06 126.9 -7.62939e-06 121.6C-7.62939e-06 115.1 1.69999 108.2 5.49999 101.2C6.49999 99.5 6.89999 98.6 7.19999 98.6C7.19999 98.8 6.99999 99.8 6.49999 101.5C4.09999 108.9 2.89999 114 2.89999 117.1C2.89999 120.9 3.89999 123.1 5.99999 123.1C7.59999 123.1 8.99998 121.4 10.7 118.5ZM122.3 133.6C125.2 137.2 126.4 140.8 126.4 144.9C126.4 149.5 123.5 155 118.1 161.2C112.3 167.4 105.1 172.7 96.7 176.8C87.5 181.6 78.4 184 69.3 184C42.6 184 29.2 172 29.2 148.2C29.2 141 30.9 133.6 33.8 125.9C36 120.4 38.4 116.1 41 112.5C48.5 116.5 55.9 119.4 63.6 121.1C67.6 122 75.3 122.8 86.6 123C97.4 123.2 105 124.2 109.6 125.4C114.9 126.9 119.2 129.8 122.3 133.6ZM501.7 120.5C501 120.5 500 120.9 498.8 121.9C495 125.3 491.2 128.1 487.3 130C486.1 130.8 482 132.7 475.8 135.8L475.8 149C484.2 145.1 490.7 141.1 494.5 136.5C494.5 147.5 499.3 153.3 509.4 153.3C517.8 153.3 524.8 148.5 529.9 139C533.1 144.8 536.7 147.9 540.5 147.9C546.3 147.9 550.6 145.3 553.5 140C556.2 135.6 557.6 130.6 557.6 124.6C557.6 120.7 556.4 117.4 554.5 114.5C553.8 113.5 553.3 113.3 552.8 113.3C552.3 113.3 551.8 114.1 551.6 115.5C550.2 120 549.2 123.4 549 125.3C551.1 128.9 552.1 130.9 552.1 131.1C551.1 132.7 549 133.7 545.6 133.7C543 133.7 540.6 132.7 538.9 131.3C537 129.9 536 128.2 536 126.5C536 127 536.7 125.1 537.7 121C538.2 118.9 538 117.9 537 117.9C536.3 117.9 535.6 118.3 534.6 119.3C532.2 123.2 529.6 127 527.2 131.1C523.3 136.2 518.3 138.8 512.3 138.8C504.8 138.8 501 135.9 501 130.6C501 129.4 501.2 127.9 501.7 126C502.2 124.1 502.4 122.6 502.4 121.9C502.4 121 502.2 120.5 501.7 120.5ZM375 144.7C372.4 139.4 367.8 133.9 361.6 128.6C359.4 130.8 356.8 134.8 353.4 140.6C349.6 147.1 347.9 151.2 347.9 153.3C347.9 156.2 349.8 157.6 354.1 157.6C356 157.6 358.4 156.9 361.5 155.7C365.8 153.8 369.9 151.1 373.3 147.8C374.8 146.4 375.2 145.4 375 144.7ZM462.1 137.7C458.5 133.1 455.4 131 452.5 131C448.2 131 446.3 132 446.3 134.4C446.3 137.3 449.2 138.7 454.9 138.7C456.93 138.7 459.13 138.274 461.5 137.816C461.699 137.777 461.899 137.739 462.1 137.7ZM95.4 136.8C80.3 142.3 65.9 147.6 52.2 152.4C51 154.8 50.3 156.9 49.8 159.1C66.9 151.9 81.7 146.2 94.7 141.6C95.2 141.2 95.9 140 96.6 137.8C97 137.1 97 136.6 96.8 136.6C96.677 136.416 96.554 136.458 96.245 136.564C96.0515 136.631 95.7851 136.723 95.4 136.8ZM149.7 159.5C151.6 156.4 152.8 153.5 152.8 150.9C152.8 147.8 151.3 146.1 148.7 146.2C145.4 146.2 143.5 148.1 142.5 152.2C142.3 153.1 142.3 153.6 142.3 153.6C142.3 153.8 142.5 153.8 142.5 153.8C142.7 153.8 143 153.5 143.7 153.3C144.4 152.8 145.3 152.6 146.3 152.6C147.9 152.6 148.9 153.5 148.9 155.2C148.9 157.4 146 161.2 140.5 167.2C139.6 168.4 139.1 168.9 139.1 169.1L139.1 169.3C139.3 169.3 140.1 168.9 141.5 167.9C144.9 165.5 147.5 162.6 149.7 159.5ZM268.4 170.4C268.4 170.4 268.2 170.7 268.2 170.9C266.5 173.7 265.1 175.4 263.5 175.5C261.4 175.5 260.4 173.3 260.4 169.5C260.4 166.4 261.6 161.3 264 153.9C264.5 152.2 264.7 151.2 264.7 151C264.4 151 264 151.9 263 153.6C259.2 160.6 257.5 167.5 257.5 174C257.5 179.3 259 181.9 262.1 181.9C265.2 181.9 267.4 178.3 268.6 171.1C268.8 170.9 268.8 170.6 268.6 170.4C268.6 170.309 268.6 170.26 268.581 170.251C268.559 170.241 268.509 170.291 268.4 170.4ZM488 201.6C485.4 202.3 483.9 202.8 483.4 202.8L483.4 202.6C483.4 202.6 484.4 201.9 486.3 200.7C488.2 199.5 491.1 197.6 495.2 194.5C497.1 192.6 500 189.5 503.6 185.1C506 182.2 508.6 179.6 511.5 177.7C515.1 175.1 518.5 173.9 522.1 173.9C522.8 173.9 524 174.1 525.5 174.6C526.7 175.1 527.9 175.3 528.9 175.3C530.8 175.3 532.3 174.6 533.5 173.1C534.2 171.7 535.2 170.5 536.1 169C536.6 168 537.3 167.6 537.8 167.6C538 167.6 538 167.8 538 168.3C538 168.8 537.8 170 537.3 171.4C536.8 172.1 538.7 172.4 542.3 172.4C542.8 172.4 543 172.4 543 172.2C543 172.2 542.8 171.2 542.3 169.6C542.1 169.1 542.3 168.4 543 167.4L543.08 167.264C544.022 165.663 544.408 165.005 544.7 165.2C545.7 165.9 546.1 167.4 546.1 169C546.1 170.7 545.6 172.4 544.9 174.3C544.2 176.5 543.5 177.7 543 178.1C541.3 179.1 538.7 178.8 535.1 177.1C532.2 180 529.3 181.7 526.5 181.7C525.8 181.7 524.6 181.5 523.4 181C522.2 180.5 521.2 180.3 520.5 180.3C515.7 180.3 510.7 182.5 505.6 187.3L494.8 198.1C492.6 199.7 490.4 200.9 488 201.6ZM243 182.4C243 182.9 242.8 183.8 242.5 184.8C242 186.2 241.5 187 240.8 187C240.6 187 240.1 186.3 239.1 185.3C238.4 184.3 237.4 183.9 236.7 183.9C234.8 183.9 232.9 188.5 231.2 197.6C230.5 201.7 229.8 204.3 228.8 206C228.1 207.2 227.6 207.7 227.1 207.7C226.9 207.7 226.6 207.2 226.6 206.3C226.6 204.6 225.6 201.5 223.7 196.9C222 192.1 220.6 189.9 219.9 189.9C219.4 189.9 218.9 189.9 218.9 190.4C218.7 190.6 218.2 190.9 217.5 190.9C216.5 190.9 215.3 190.2 213.9 189C213.383 188.483 212.988 188.02 212.707 187.617C213.351 186.23 213.637 185.28 213.5 184.8C213.7 184.8 213.5 184.6 213.5 184.6C213.3 184.6 212.8 185 212.3 186C212.258 186.068 212.214 186.136 212.17 186.205C212.177 186.168 212.187 186.133 212.2 186.1C214.4 182 215.6 180.1 216 180.1C218.6 180.1 221.3 181.5 223.4 184.9C225.6 188 227 192.3 228 197.4L228 198.4C228.109 198.509 228.159 198.559 228.181 198.549C228.2 198.54 228.2 198.491 228.2 198.4C228.2 198.4 228.4 198.2 228.7 197.4C229.2 194.5 230.1 189.7 231.8 183.5C233.7 179.2 235.6 177 238 177C239 177 240.2 177.7 241.4 179.2C242.5 180.5 243 181.4 243 182.4ZM212.17 186.205C210.64 188.576 207.864 191.599 203.2 195C191.4 202.9 182.3 208.7 175.6 212.3C174.4 213 173.7 213.8 173.7 214C173.7 214 173.7 214.2 173.9 214.2C174.4 214.2 175.1 214 176.3 213.5C184.3 210.7 188.6 209 189.3 208.5C192.9 206.9 196.9 204.5 201.5 201.1C205.8 198 209.2 194.4 211.6 189.8C212.04 188.982 212.411 188.254 212.707 187.617C212.276 187.001 212.109 186.525 212.17 186.205ZM302 184.1C302 186.7 300.8 189.6 298.9 192.7C296.7 195.8 294.1 198.7 290.7 201.1C289.3 202.1 288.5 202.5 288.3 202.5L288.3 202.3C288.3 202.1 288.8 201.6 289.7 200.4C295.2 194.4 298.1 190.6 298.1 188.4C298.1 186.7 297.1 185.8 295.5 185.8C294.5 185.8 293.6 186 292.9 186.5C292.2 186.7 291.9 187 291.7 187C291.7 187 291.5 187 291.5 186.8C291.5 186.8 291.5 186.3 291.7 185.4C292.7 181.3 294.6 179.4 297.9 179.4C300.6 179.3 302 180.9 302 184.1Z" id="Group" fill="#595959" fill-rule="evenodd" stroke="none" clip-path="url(#clip_1)" />
  </g>
</svg>