<?xml version="1.0" encoding="utf-8"?>
<svg width="487.60016px" height="206.7px" viewBox="0 0 487.60016 206.7" version="1.1" xmlns:xlink="http://www.w3.org/1999/xlink" xmlns="http://www.w3.org/2000/svg">
  <defs>
    <path d="M487.6 0L487.6 0L487.6 206.7L0 206.7L0 0L487.6 0Z" id="path_1" />
    <clipPath id="clip_1">
      <use xlink:href="#path_1" clip-rule="evenodd" fill-rule="evenodd" />
    </clipPath>
  </defs>
  <g id="Surah_69_of_114_(modified)">
    <path d="M487.6 0L487.6 0L487.6 206.7L0 206.7L0 0L487.6 0Z" id="Surah_69_of_114_(modified)" fill="none" stroke="none" />
    <path d="M223.6 38C223.6 33.2 222.9 29.4 221.4 26.2C221.4 24.3 222.6 20.2 225.5 14.2C226 12.8 226.7 12.8 227.4 14.2C228.1 15.9 229.8 20.4 232.7 27.9C235.8 35.8 237.5 40.6 238 42.5C238.5 43.7 238.7 44.9 238.7 45.4C238.7 47.6 236.5 46.4 232.5 41.6C232 40.9 231.8 41.4 231.8 42.6C231.8 43.1 233 59.6 235.6 92.3C238.2 124.9 239.7 143.2 239.7 147C239.7 158.3 237.8 168.4 234.2 177C233.5 178.7 233 179.9 232.5 180.8L232.5 180.8C231.8 181.8 231.3 182 231.3 181.3C231.1 180.3 231.1 178.7 231.5 175.8C232 171.7 232.2 167.4 232.2 162.1C232.2 157.5 230.8 136.7 227.9 99.7C225 62.5 223.6 42.1 223.6 38L223.6 38L223.6 38L223.6 38L223.6 38ZM183 128L157.1 121.5C157.3 121 160.7 119.8 166.9 118.1C175.3 115.7 182.3 113.5 187.5 111.4C190.1 110.4 191.6 109 192.1 107.3C192.3 106.1 192.6 100.3 192.6 89.8C192.6 84.5 191.9 74 190.7 57.4C189.3 41.1 188.8 31 188.8 26.9C188.8 22.3 188.1 18.5 186.6 15.4C186.6 13.7 188 9.59998 190.7 3.19998C190.9 2.49998 191.4 2.19998 191.7 2.19998C191.9 2.19998 192.2 2.39998 192.7 3.39998C193.4 5.09998 195.3 9.59998 198.2 17.1C201.1 25 202.8 29.8 203.5 31.5C203.7 32.9 204 34.1 204 34.6C204 36.8 201.8 35.6 197.8 30.8C197.3 30.1 197.1 30.6 197.1 31.8C197.1 32 197.6 38.5 198.5 51.5C199.5 64.2 199.9 73.1 199.9 78.1C199.9 91.8 198.9 101.9 197 108.1C194.8 116.5 190 123 183 128L183 128L183 128L183 128L183 128ZM254.5 130.9L249.5 141C248.8 142.2 248.3 142.7 247.3 142.7C231 142.7 216.8 145.1 204.8 150.1C201.9 151.3 194.5 154.9 182 161.4C173.6 165.7 167.8 167.9 164.5 167.9L164.5 153.3C171.7 153.3 183.9 148.5 201 138.9C185.6 136.5 170.5 134.8 155.6 133.6C152.7 133.4 151.3 132.9 151.3 132.4C151.3 132.2 151.3 131.9 151.5 131.7C152.7 129.3 154.4 125.9 156.5 121.6L181.7 121.6C185.1 122.3 193.7 123.5 207.9 125.4C225.7 127.8 240.1 128.8 250.9 128.8C253.5 128.8 255 129 255 129.8C255 129.9 255 130.4 254.5 130.9L254.5 130.9L254.5 130.9L254.5 130.9L254.5 130.9ZM149.7 138.1C150.9 144.8 153.3 149.4 156.4 151.5C158.3 152.5 161 153.2 164.6 153.2L164.6 167.8C159.3 167.8 155.2 166.6 152.4 164.4C148.1 161.3 145.4 155.8 144 147.4C143 142.1 142.1 127 141.4 101.6C140.4 74.2 139.7 57.4 139.2 51.2C138 41.1 136.1 31.8 133.4 22.6C133.4 20.2 134.4 16.8 136.3 12C136.8 10.8 137 10.1 137.5 10.1C137.7 10.1 138.2 10.8 138.7 11.8C141.8 17.8 144 28.1 145.7 42.5C146.7 51.6 147.6 69.6 148.3 96.5C148.7 121.8 149.4 135.7 149.7 138.1L149.7 138.1L149.7 138.1L149.7 138.1L149.7 138.1ZM136 126.1C136 135.2 133.1 142.7 127.6 148.4C118 158 106.5 162.8 93 162.8L93 148.2C98.8 148.2 105.5 146.8 113.2 143.9C121.4 141 127.4 137.7 131.7 133.6C131.7 131.2 130 129 126.4 127.4C123 125.7 119.7 125 116.1 125L106.5 125C102.9 125 100 123.8 97.9 121.4C95.7 119 94.8 116.1 94.8 112.5C94.8 107.5 96.5 102.4 100.1 97.1C103.5 92.1 107.1 89.7 110.7 89.7C116.7 89.7 122.5 93.1 127.7 99.8C133.1 107.1 136 115.8 136 126.1L136 126.1L136 126.1L136 126.1L136 126.1ZM120.4 111.5C117 106.2 113 103.6 108.6 103.6C105.5 103.6 103.8 104.6 103.8 106.7C103.8 108.8 105.7 110.3 109.8 110.8C112 110.7 115.6 111 120.4 111.5L120.4 111.5L120.4 111.5L120.4 111.5L120.4 111.5ZM93.3 162.8C88.3 162.8 84.7 162.3 82.5 161.8C77.7 160.4 73.9 157.2 70.7 152.4C68.8 149.3 66.9 145.9 64.9 142.6C63 139.7 61.3 138.5 59.6 138.5C54.1 138.5 48.3 143.1 42.1 152.4C41.1 154.1 39.2 158.4 36.3 165.4C33.7 172.4 31.3 177.4 29.1 180.8C26 185.6 22.4 188 18.8 188C13.5 188 9 183.7 5.10001 175.3C1.70001 167.9 0.300003 160.2 0.300003 152.3C0.300003 142.7 1.3 134.8 3.2 129C3.7 127.1 4.2 126.1 4.59999 126.1C5.29999 126.1 5.59999 127.3 5.09999 129.7C4.39999 135.9 4.09999 141.2 4.09999 145.5C4.09999 165.9 8.7 176.2 18.3 176.2C22.1 176.2 25.5 173.1 28.9 167.1C32 159.9 35.4 152.7 38.7 145.5C41.6 139.7 45.2 134.7 49.5 130.4C53.6 126.1 57.7 124.2 61 124.2C63.6 124.2 66.3 125.9 68.4 129C70.3 132.1 72 135.2 73.9 138.4C76.5 142 79.2 144.6 82.1 146.1C85 147.3 88.6 148 93.1 148L93.1 162.8L93.3 162.8L93.3 162.8L93.3 162.8ZM111 70.7L114.8 62.8C115 62.3 115.3 62.1 115.8 62.1C116.3 62.1 118.2 63.3 122 65.9C125.6 68.3 127.5 69.7 127.5 70.2C127.5 71.9 125.8 75.5 122.7 80.8C122.2 81.5 121.7 81.5 121.3 81.3C118.2 78.9 114.6 76.5 110.5 73.9C109.1 76.8 107.9 79.4 106.4 81.6C106.2 82.3 105.7 82.6 105.2 82.3C101.6 79.4 97.8 76.8 93.9 74.4C93.7 74.2 93.7 73.9 93.9 73.4L98.5 63.8C98.7 63.3 99.2 62.8 99.5 62.8C100 62.8 101.7 64 104.8 66.2C107.9 68 110.1 69.7 111 70.7L111 70.7L111 70.7L111 70.7L111 70.7ZM54.4 95.6L58.2 87.7C58.4 87.2 58.7 87 59.2 87C59.7 87 61.6 88.2 65.4 90.8C69 93.2 70.9 94.6 70.9 95.1C70.9 96.8 69.2 100.4 66.1 105.7C65.6 106.4 65.1 106.4 64.7 106.2C61.6 103.8 58 101.4 53.9 98.8C52.5 101.7 51.3 104.3 49.8 106.5C49.6 107.2 49.1 107.5 48.6 107.2C45 104.3 41.2 101.7 37.3 99.3C37.1 99.1 37.1 98.8 37.3 98.3L41.9 88.7C42.1 88.2 42.6 87.7 42.9 87.7C43.4 87.7 45.1 88.9 48.2 91.1C51.3 93 53.4 94.7 54.4 95.6L54.4 95.6L54.4 95.6L54.4 95.6L54.4 95.6ZM37.3 192.3C51 187.5 65.4 182.2 80.5 176.7C81.5 176.5 81.7 176.2 81.9 176.5C82.1 176.5 82.1 177 81.7 177.7C81 179.9 80.3 181.1 79.8 181.5C66.8 186.1 52 191.8 34.9 199C35.4 196.9 36.1 194.7 37.3 192.3L37.3 192.3L37.3 192.3L37.3 192.3L37.3 192.3ZM81.7 20.5C95.4 15.7 109.8 10.4 124.9 4.89999C125.9 4.7 126.1 4.39999 126.3 4.7C126.5 4.7 126.5 5.2 126.1 5.89999C125.4 8.09999 124.7 9.29999 124.2 9.7C111.2 14.3 96.4 20 79.3 27.2C79.8 25.1 80.5 22.9 81.7 20.5L81.7 20.5L81.7 20.5L81.7 20.5L81.7 20.5ZM172 24.6C172 23.4 169.6 21.2 164.6 18.4C162.9 21.3 162.2 23.9 162.2 26.3C162.2 27.7 162.9 28.7 164.4 28.7C165.6 28.7 167 28.2 168.7 27.3C170.3 26.5 171.5 25.5 172 24.6L172 24.6L172 24.6L172 24.6L172 24.6ZM166.7 5.39999C167.4 4.2 168.4 3.7 169.1 3.7C169.6 3.7 170.1 3.89999 170.1 4.39999C170.1 4.39999 169.9 4.59999 169.9 4.89999C168.9 7.09999 168 9.5 167.3 11.9C172.3 15.5 174.7 19.3 174.5 22.9C174 27 173.5 29.6 172.8 30.6C170.4 33.5 167.8 35.2 164.4 35.2C161 35.2 159.6 33 159.6 29.2C159.6 28.5 159.6 27.5 159.8 26.6C160.9 18.8 163.3 11.9 166.7 5.39999L166.7 5.39999L166.7 5.39999L166.7 5.39999L166.7 5.39999ZM154.7 90.6C164.3 87.2 174.6 83.4 185.7 79.6C186.7 79.4 186.9 79.1 187.1 79.4C187.3 79.4 187.3 79.9 186.9 80.6C186.2 82.8 185.5 84 185 84.4C175.4 87.8 164.6 91.8 152.4 97.4C152.8 95.1 153.5 93 154.7 90.6L154.7 90.6L154.7 90.6L154.7 90.6L154.7 90.6ZM106.2 194.5C106.2 194.3 106.4 194 106.4 194C106.6 193.8 106.6 193.8 106.6 194C106.8 194.2 106.8 194.5 106.6 194.7C105.4 201.9 103.2 205.5 100.1 205.5C97 205.5 95.5 202.9 95.5 197.6C95.5 191.1 97.2 184.2 101 177.2C102 175.5 102.4 174.6 102.7 174.6L102.7 174.6C102.7 174.8 102.5 175.8 102 177.5C99.6 184.9 98.4 190 98.4 193.1C98.4 196.9 99.4 199.1 101.5 199.1C103.1 199.1 104.5 197.4 106.2 194.5L106.2 194.5L106.2 194.5L106.2 194.5L106.2 194.5ZM214.7 200C209.9 204.3 203.4 206.7 195.7 206.7C193.5 206.7 191.4 206 189.9 204.8C188.5 203.6 187.7 201.9 187.7 200C187.7 196.6 188.9 193.3 191.8 189.9C194.7 186.8 197.6 183.9 200.2 180.8C200.9 180.3 200.7 179.8 199.7 179.4C197.8 178.7 195.4 178.4 193 178.4C191.8 178.4 190.4 178.6 188.7 179.6C188.5 179.6 188.2 179.8 188 179.6C188 179.6 188 179.4 188.2 178.9C189.2 176.5 190.1 174.8 191.1 174.1C192.3 173.1 194.2 172.7 196.9 172.7C202.7 172.7 205.3 173.9 205.3 176.8C205.3 179 203.6 181.8 200 185.9C197.4 188.5 194.7 191.2 192.1 193.8C191.1 195.2 190.7 196.7 190.7 197.6C190.7 200 193.3 201.2 198.4 201.2C203.4 201.2 208.5 200.2 214.2 198.6C215.6 198.1 216.4 198.1 216.4 198.4C216.4 198.3 215.9 199.1 214.7 200L214.7 200L214.7 200L214.7 200L214.7 200ZM248.1 3.2C251 3.2 253.4 4.59999 255.5 8C257.7 11.1 259.3 15.4 260.1 20.7C260.3 21.2 260.3 21.4 260.3 21.7L260.5 21.7C260.5 21.5 260.7 21.2 260.7 20.7C261.2 17.6 262.4 12.8 264.1 6.5C266 2.2 267.9 0 270.1 0C271.3 0 272.5 0.699997 273.5 2.2C274.5 3.59999 274.9 4.59999 274.9 5.59999C274.9 6.09999 274.9 6.99998 274.4 7.99999C273.9 9.39998 273.4 10.2 273 10.2C272.8 10.2 272.3 9.49998 271.3 8.49998C270.6 7.49999 269.6 7.09999 268.7 7.09999C266.8 7.09999 265.1 11.7 263.4 20.8C262.7 24.9 261.7 27.8 261 29.4C260.3 30.4 259.8 31.1 259.3 31.1C258.8 31.1 258.8 30.4 258.6 29.4C258.8 27.7 257.9 24.6 256 20C254.1 15.2 252.9 13 251.9 13C251.4 13 251.2 13 250.9 13.5C250.7 13.7 250.4 14 249.7 14C248.7 14 247.8 13.3 246.3 12.1C244.9 10.9 244.4 9.90001 244.4 9.20001C244.4 9.00002 244.9 7.80002 246.1 5.80002C247.1 3.89999 247.8 3.2 248.1 3.2L248.1 3.2L248.1 3.2L248.1 3.2L248.1 3.2ZM256.9 69.5C256.9 69.3 257.1 69 257.1 69C257.3 68.8 257.3 68.8 257.3 69C257.5 69.2 257.5 69.5 257.3 69.7C256.1 76.9 253.9 80.5 250.8 80.5C247.7 80.5 246.2 77.9 246.2 72.6C246.2 66.1 247.9 59.2 251.7 52.2C252.7 50.5 253.1 49.6 253.4 49.6L253.4 49.6C253.4 49.8 253.2 50.8 252.7 52.5C250.3 59.9 249.1 65 249.1 68.1C249.1 71.9 250.1 74.1 252.2 74.1C253.8 74 255.3 72.3 256.9 69.5L256.9 69.5L256.9 69.5L256.9 69.5L256.9 69.5ZM174.9 53.6C174.9 56.2 173.7 59.1 171.8 62.2C169.6 65.3 167 68.2 163.6 70.6C162.2 71.6 161.4 72 161.2 72L161.2 71.8C161.2 71.6 161.7 71.1 162.6 69.9C168.1 63.9 171 60.1 171 57.9C171 56.2 170 55.3 168.4 55.3C167.4 55.3 166.5 55.5 165.8 56C165.1 56.2 164.8 56.5 164.6 56.5C164.6 56.5 164.4 56.5 164.4 56.3C164.4 56.3 164.4 55.8 164.6 54.9C165.6 50.8 167.5 48.9 170.8 48.9C173.4 48.8 174.9 50.5 174.9 53.6L174.9 53.6L174.9 53.6L174.9 53.6L174.9 53.6ZM135.3 177.5C138.2 177.5 140.6 178.9 142.7 182.3C144.9 185.4 146.5 189.7 147.3 195C147.5 195.5 147.5 195.7 147.5 196L147.7 196C147.7 195.8 147.9 195.5 147.9 195C148.4 191.9 149.6 187.1 151.3 180.8C153.2 176.5 155.1 174.3 157.3 174.3C158.5 174.3 159.7 175 160.7 176.5C161.7 177.9 162.1 178.9 162.1 179.9C162.1 180.4 162.1 181.3 161.6 182.3C161.1 183.7 160.6 184.5 160.2 184.5C160 184.5 159.5 183.8 158.5 182.8C157.8 181.8 156.8 181.4 155.9 181.4C154 181.4 152.3 186 150.6 195.1C149.9 199.2 148.9 202.1 148.2 203.7C147.5 204.7 147 205.4 146.5 205.4C146 205.4 146 204.7 145.8 203.7C146 202 145.1 198.9 143.2 194.3C141.3 189.5 140.1 187.3 139.1 187.3C138.6 187.3 138.4 187.3 138.1 187.8C137.9 188 137.6 188.3 136.9 188.3C135.9 188.3 135 187.6 133.5 186.4C132.1 185.2 131.6 184.2 131.6 183.5C131.6 183.3 132.1 182.1 133.3 180.1C134.3 178.2 135 177.5 135.3 177.5L135.3 177.5L135.3 177.5L135.3 177.5L135.3 177.5ZM121.6 40.2C121.6 42.1 121.1 44.3 120.2 46.2C119 48.8 117.6 50.3 115.9 50.3C113 50.3 111.1 48.4 109.9 44.5C108.5 49.3 106.1 51.9 102.5 51.9C101.3 51.9 100.1 51.2 99.1 49.7C97.9 48.3 97.4 46.1 97.4 43.7L97.4 37.5C97.4 37 96.9 36.8 96.4 36.5C95.7 36.3 95.4 35.8 95.4 35.1C95.4 33.7 95.9 32.5 96.8 31.3C97.8 30.1 98.5 29.6 99 29.6C99.7 29.6 100.2 30.8 100.2 33.4C100.2 34.8 100 36 100 37C99.8 38 99.8 38.7 99.8 39.4C99.8 40.8 100 42.3 100.5 43.5C101.2 44.9 102.2 45.9 103.1 45.9C104.5 45.9 105.7 45.2 106.9 44C108.1 42.8 108.8 41.4 108.8 39.7C108.8 38.7 108.3 37.3 107.8 34.9C107.1 32.7 106.8 31.3 106.8 30.8C106.8 30.3 107 29.6 107.5 28.4C108 27.4 108.5 27 108.7 27C109.2 27 109.7 28.4 110.4 31.3C111.1 34.4 111.6 36.6 111.6 38C111.6 42.1 113 44.2 116.2 44.2C117.6 44.2 118.6 43.5 118.8 42C116.2 37.2 114.7 33.6 114.7 31C114.7 29.6 114.9 28.4 115.9 27.2C116.4 26.5 116.6 26 116.9 26C117.1 26 117.4 26.5 117.4 27.4C117.6 28.6 117.9 29.8 118.1 30.8C118.1 30.8 118.8 32.5 120 35.8C121.1 37.8 121.6 39.2 121.6 40.2L121.6 40.2L121.6 40.2L121.6 40.2L121.6 40.2ZM10.7 116C10.7 115.8 10.9 115.5 10.9 115.5C11.1 115.3 11.1 115.3 11.1 115.5C11.3 115.7 11.3 116 11.1 116.2C9.90002 123.4 7.70003 127 4.60002 127C1.50002 127 1.52588e-05 124.4 1.52588e-05 119.1C1.52588e-05 112.6 1.70001 105.7 5.50002 98.7C6.50002 97 6.90001 96.1 7.20001 96.1L7.20001 96.1C7.20001 96.3 7.00002 97.3 6.50002 99C4.10002 106.4 2.90001 111.5 2.90001 114.6C2.90001 118.4 3.90001 120.6 6.00002 120.6C7.60002 120.6 9.00003 118.9 10.7 116L10.7 116L10.7 116L10.7 116L10.7 116ZM8.30002 57.5C11.2 57.5 13.6 58.9 15.7 62.3C17.9 65.4 19.5 69.7 20.3 75C20.5 75.5 20.5 75.7 20.5 76L20.7 76C20.7 75.8 20.9 75.5 20.9 75C21.4 71.9 22.6 67.1 24.3 60.8C26.2 56.5 28.1 54.3 30.3 54.3C31.5 54.3 32.7 55 33.7 56.5C34.7 57.9 35.1 58.9 35.1 59.9C35.1 60.4 35.1 61.3 34.6 62.3C34.1 63.7 33.6 64.5 33.2 64.5C33 64.5 32.5 63.8 31.5 62.8C30.8 61.8 29.8 61.4 28.9 61.4C27 61.4 25.3 66 23.6 75.1C22.9 79.2 21.9 82.1 21.2 83.7C20.5 84.7 20 85.4 19.5 85.4C19 85.4 19 84.7 18.8 83.7C19 82 18.1 78.9 16.2 74.3C14.3 69.5 13.1 67.3 12.1 67.3C11.6 67.3 11.4 67.3 11.1 67.8C10.9 68 10.6 68.3 9.89999 68.3C8.89999 68.3 8 67.6 6.5 66.4C5.10001 65.2 4.60001 64.2 4.60001 63.5C4.60001 63.3 5.10001 62.1 6.3 60.1C7.30002 58.2 8.10002 57.5 8.30002 57.5L8.30002 57.5L8.30002 57.5L8.30002 57.5L8.30002 57.5ZM66.4 49.5C66.4 49.3 66.6 49 66.6 49C66.8 48.8 66.8 48.8 66.8 49C67 49.2 67 49.5 66.8 49.7C65.6 56.9 63.4 60.5 60.3 60.5C57.2 60.5 55.7 57.9 55.7 52.6C55.7 46.1 57.4 39.2 61.2 32.2C62.2 30.5 62.6 29.6 62.9 29.6L62.9 29.6C62.9 29.8 62.7 30.8 62.2 32.5C59.8 39.9 58.6 45 58.6 48.1C58.6 51.9 59.6 54.1 61.7 54.1C63.3 54.1 64.7 52.4 66.4 49.5L66.4 49.5L66.4 49.5L66.4 49.5L66.4 49.5ZM428.8 116.5C430 115.5 431 115.1 431.7 115.1C432.2 115.1 432.4 115.6 432.4 116.5C432.4 117.2 432.2 118.7 431.7 120.6C431.2 122.5 431 124 431 125.2C431 130.5 434.8 133.4 442.3 133.4C448.3 133.4 453.3 130.8 457.2 125.7C459.6 121.6 462.2 117.8 464.6 113.9C465.6 112.9 466.3 112.5 467 112.5C468 112.5 468.2 113.5 467.7 115.6C466.7 119.7 466 121.6 466 121.1C466 122.8 467 124.5 468.9 125.9C470.6 127.3 473 128.3 475.6 128.3C479 128.3 481.1 127.3 482.1 125.7C482.1 125.5 481.1 123.5 479 119.9C479.2 118 480.2 114.6 481.6 110.1C481.8 108.7 482.3 107.9 482.8 107.9C483.3 107.9 483.8 108.1 484.5 109.1C486.4 112 487.6 115.3 487.6 119.2C487.6 125.2 486.2 130.2 483.5 134.6C480.6 139.9 476.3 142.5 470.5 142.5C466.7 142.5 463.1 139.4 459.9 133.6C454.6 143.2 447.7 148 439.3 148C429.2 148 424.4 142.2 424.4 131.2C420.6 135.8 414.1 139.8 405.7 143.7L405.7 130.5C411.9 127.4 416 125.5 417.2 124.7C421.1 122.7 424.9 119.9 428.8 116.5L428.8 116.5L428.8 116.5L428.8 116.5L428.8 116.5ZM392.1 132.3C388.5 127.7 385.4 125.6 382.5 125.6C378.2 125.6 376.3 126.6 376.3 129C376.3 131.9 379.2 133.3 384.9 133.3C387 133.3 389.4 132.8 392.1 132.3L392.1 132.3L392.1 132.3L392.1 132.3L392.1 132.3ZM399.5 149.9C399.5 148.5 399 146.8 398.5 145.1C395.6 146.1 391.3 146.8 386 146.8C374.5 146.8 368.7 142.7 368.7 134.8C368.7 128.8 370.4 123.5 374.2 118.7C377.8 114.6 381.6 112.5 385.7 112.5C388.8 112.5 391.9 114.4 395.5 118C398.6 121.6 401.5 125.7 403.9 130.7C404.1 130.7 404.6 130.7 405.6 130.2L405.6 143.4L405.1 143.9C405.1 146.8 404.4 150.1 402.9 154.5C401.2 160 398.6 164.6 395.5 168.2C388.3 176.8 380.4 184.3 371.7 190.8C358.7 200.4 347.7 205.4 338.1 205.4C329.9 205.4 323.7 202.3 319.4 196.3C315.6 191.3 313.6 184.5 313.6 176.6C313.6 166.5 315.8 156.2 319.8 145.4C321 143 321.5 142 322 142C322.2 142 322.2 142.2 322.2 142.7C322.2 143.4 322 144.6 321.7 146.1C318.6 156.7 317.1 164.6 317.1 170.1C317.1 175.1 318.3 179.5 320.7 183.1C324.5 188.1 330.5 190.8 338.9 190.8C346.1 190.8 354.7 187.7 365.1 181.4C373.3 176.4 381.2 170.4 388.9 163.2C395.9 156.3 399.5 152 399.5 149.9L399.5 149.9L399.5 149.9L399.5 149.9L399.5 149.9ZM334 113.4C333.5 111.2 332.8 109.6 331.8 108.4C331.1 107 330.6 106.2 330.4 105.8C330.4 105.3 330.4 103.6 330.9 100.3C331.4 97.2 331.6 95 332.1 93.8C332.3 92.6 332.6 92.1 333.1 92.1C333.3 92.1 333.6 92.3 334.1 92.8C337.5 96.6 341.1 100.5 345.1 104.6C346.8 106.3 347.5 107.2 347.5 107.7C347.5 107.9 347.3 108.2 346.8 108.2C346.1 108.2 344.2 107.7 341.3 107C343 111.1 344.9 115.2 346.6 119C349.2 125.7 350.7 131.2 350.7 136.3C350.7 138.7 350.2 141.6 349.3 145.2C348.1 149.3 346.7 152.4 344.7 154.6C337.7 162.5 326 171.2 309.4 180.5C295 188.9 286.6 193 284 193C283.5 193 276.3 194.7 262.6 198C248.2 201.4 239.1 203.5 235.5 204C231.7 204.7 229.3 205 228.3 205C227.8 205 227.8 205 227.8 204.8C227.8 204.6 230.4 203.1 235.7 200.7C237.6 199.7 248.7 194.9 269.1 186.3C283.3 180.3 295 174.8 304.4 169.7C318.6 162 329.4 155.3 336.8 149.8C342.3 145.5 345.2 142.4 345.2 140.4C345.2 139.9 343.8 136.6 340.9 130.3C337.6 123.2 335.2 117.5 334 113.4L334 113.4L334 113.4L334 113.4L334 113.4ZM314.3 80C314.3 83.8 312.4 89.1 308.5 95.6C306.1 99.7 302.5 105.2 297.7 112.4C302.5 117.9 305.9 123 307.5 127.3C308.5 130.4 309.2 134.5 309.2 139.1C309.2 141 308.7 143.4 307.8 146.5C307.1 149.4 306.1 151.5 305.2 153C303.3 155.9 300.2 158.8 295.4 161.6C290.4 165 286 166.6 282.4 166.6C276.6 166.6 273.8 162.3 273.8 153.6C273.8 147.8 274.8 142.1 276.7 136.8C278.6 132.2 281.7 126.2 286.8 118.3C282.5 114.2 277.9 108.5 272.9 101.3C272.4 100.6 271.2 99.4 269.3 97.5C268.3 96.5 267.9 95.3 267.9 93.9C267.9 91.7 268.1 89.3 268.6 86.5C269.3 83.6 269.8 82.4 270 82.4C270.7 82.4 272.9 83.6 277 86.2C280.8 88.8 284 90.8 285.9 92.4C287.1 93.1 287.6 93.8 287.6 93.8L287.6 94C287.6 94.2 286.9 94.5 285.2 94.5C282.1 94.5 280.4 94.7 280.4 95C280.4 95.2 280.9 95.7 281.8 96.9C285.6 101.7 289.5 105.3 293.6 108.2C294.6 106.8 297.9 102 303.2 93.8C307.8 86.8 310.4 82 311.6 79.2C312.8 76.3 313.5 75.1 314 75.1C314.1 75.2 314.3 76.7 314.3 80L314.3 80L314.3 80L314.3 80L314.3 80ZM304.9 139.1C302.3 133.8 297.7 128.3 291.5 123C289.3 125.2 286.7 129.2 283.3 135C279.5 141.5 277.8 145.6 277.8 147.7C277.8 150.6 279.7 152 284 152C285.9 152 288.3 151.3 291.4 150.1C295.7 148.2 299.8 145.5 303.2 142.2C304.7 140.7 305.2 139.8 304.9 139.1L304.9 139.1L304.9 139.1L304.9 139.1L304.9 139.1ZM291.5 62L295.3 54.1C295.5 53.6 295.8 53.4 296.3 53.4C296.8 53.4 298.7 54.6 302.5 57.2C306.1 59.6 308 61 308 61.5C308 63.2 306.3 66.7999 303.2 72.1C302.7 72.8 302.2 72.8 301.8 72.6C298.7 70.2 295.1 67.8 291 65.2C289.6 68.1 288.4 70.7 286.9 72.9C286.7 73.6 286.2 73.9 285.7 73.6C282.1 70.7 278.3 68.1 274.4 65.7C274.2 65.5 274.2 65.2 274.4 64.7L279 55.1C279.2 54.6 279.7 54.1 280 54.1C280.5 54.1 282.2 55.3 285.3 57.5C288.4 59.4 290.5 61.1 291.5 62L291.5 62L291.5 62L291.5 62L291.5 62ZM418 195.9C415.4 196.6 413.9 197.1 413.4 197.1L413.4 196.9C413.4 196.9 414.4 196.2 416.3 195C418.2 193.8 421.1 191.9 425.2 188.8C427.1 186.9 430 183.8 433.6 179.4C436 176.5 438.6 173.9 441.5 172C445.1 169.4 448.5 168.2 452.1 168.2C452.8 168.2 454 168.4 455.5 168.9C456.7 169.4 457.9 169.6 458.9 169.6C460.8 169.6 462.3 168.9 463.5 167.4C464.2 166 465.2 164.8 466.1 163.3C466.6 162.3 467.3 161.9 467.8 161.9C468 161.9 468 162.1 468 162.6C468 163.1 467.8 164.3 467.3 165.7C466.8 166.4 468.7 166.7 472.3 166.7C472.8 166.7 473 166.7 473 166.5C473 166.5 472.8 165.5 472.3 163.9C472.1 163.4 472.3 162.7 473 161.7C474 160 474.4 159.3 474.7 159.5C475.7 160.2 476.1 161.7 476.1 163.3C476.1 165 475.6 166.7 474.9 168.6C474.2 170.8 473.5 172 473 172.4C471.3 173.4 468.7 173.1 465.1 171.4C462.2 174.3 459.3 176 456.5 176C455.8 176 454.6 175.8 453.4 175.3C452.2 174.8 451.2 174.6 450.5 174.6C445.7 174.6 440.7 176.8 435.6 181.6C432 185.2 428.4 188.8 424.8 192.4C422.5 194 420.4 195.2 418 195.9L418 195.9L418 195.9L418 195.9L418 195.9ZM366.4 66.3C369.3 66.3 371.7 67.7 373.8 71.1C376 74.2 377.6 78.5 378.4 83.8C378.6 84.3 378.6 84.5 378.6 84.8L378.8 84.8C378.8 84.6 379 84.3 379 83.8C379.5 80.7 380.7 75.9 382.4 69.6C384.3 65.3 386.2 63.1 388.4 63.1C389.6 63.1 390.8 63.8 391.8 65.3C392.8 66.7 393.2 67.7 393.2 68.7C393.2 69.2 393.2 70.1 392.7 71.1C392.2 72.5 391.7 73.3 391.3 73.3C391.1 73.3 390.6 72.6 389.6 71.6C388.9 70.6 387.9 70.2 387 70.2C385.1 70.2 383.4 74.8 381.7 83.9C381 88 380 90.9 379.3 92.5C378.6 93.5 378.1 94.2 377.6 94.2C377.1 94.2 377.1 93.5 376.9 92.5C377.1 90.8 376.2 87.7 374.3 83.1C372.4 78.3 371.2 76.1 370.2 76.1C369.7 76.1 369.5 76.1 369.2 76.6C369 76.8 368.7 77.1 368 77.1C367 77.1 366.1 76.4 364.6 75.2C363.2 74 362.7 73 362.7 72.3C362.7 72.1 363.2 70.9 364.4 68.9C365.4 67.1 366.1 66.3 366.4 66.3L366.4 66.3L366.4 66.3L366.4 66.3L366.4 66.3ZM325.8 63.2C350 54.1 375.2 45 401.2 35.4C401.9 35.2 402.4 34.9 402.4 35.2C402.6 35.2 402.6 35.7 402.4 36.4C401.4 38.6 400.7 39.8 400.2 40.2C400 40.4 387.7 45 364 53.9C339.8 62.8 326.1 68.3 323.4 70C323.9 67.8 324.6 65.6 325.8 63.2L325.8 63.2L325.8 63.2L325.8 63.2L325.8 63.2ZM302.3 19.3C302.8 17.9 302.8 16.4 302.5 15C302.3 13.6 301.5 12.8 300.3 12.8C299.8 12.8 299.1 13 298.1 13.5C297.1 14 296.7 14.5 296.7 14.9C296.8 16.2 298.7 17.6 302.3 19.3L302.3 19.3L302.3 19.3L302.3 19.3L302.3 19.3ZM299.4 25.5C294.8 23.1 292.7 20.7 292.7 18.1C292.7 15 294.1 12.1 297 9.70001C299.9 7.10001 302.3 6.10001 304.2 6.80002C305.9 7.30002 306.6 9.00002 306.6 11.8C306.6 14.4 306.1 17.3 304.9 20.7C307.3 21.9 308.7 23.1 309.2 24.1C309.2 25.3 308.2 27.5 306.1 30.3C305.6 29.3 304.2 28.1 302 26.9C299.4 30.5 296.2 33.6 292.4 36.5C287.8 39.6 283.8 42.3 280.2 43.7C279.2 44.2 274.9 45.9 267.2 48.7C266 49.2 265 49.4 264.8 49.4C264.6 49.4 264.6 49.2 264.6 49.2C264.6 49 265.1 48.2 266.5 47.5C272.3 43.9 278 40.5 284 37.2C291 33 296.1 29.1 299.4 25.5L299.4 25.5L299.4 25.5L299.4 25.5L299.4 25.5ZM451.1 55.5C451.6 54.1 451.6 52.6 451.3 51.2C451.1 49.8 450.3 49 449.1 49C448.6 49 447.9 49.2 446.9 49.7C445.9 50.2 445.5 50.7 445.5 51.1C445.6 52.4 447.5 53.9 451.1 55.5L451.1 55.5L451.1 55.5L451.1 55.5L451.1 55.5ZM456.4 64.4C454 70.2 452.8 74.7 452.8 78.1C452.8 82.2 453.8 84.3 455.9 84.3C457.1 84.3 458.5 82.6 460.2 79.7C460.4 79.5 460.4 79.2 460.7 79C460.7 79 460.9 79 460.9 79.2C460.9 79.2 460.9 79.4 460.9 79.9C459.5 87.1001 457.3 90.7 454.4 90.7C451.3 90.7 449.8 88.1 449.8 82.8C449.8 80.2 450.3 76.8 451.7 72.5C453.1 68.2001 453.9 66 453.9 65.8C453.9 65.3 452.9 64.4 450.8 63.2C447 68.2 441.7 73 435 77.1C430.4 79.7 425.9 82.1 421.1 84.1C412.2 87.7 406.9 89.6 405.7 90.3C404.5 90.8 403.8 91 403.3 91C403.1 91 403.1 90.8 403.1 90.8C403.1 90.3 403.6 89.8 405 88.9C412.7 84.6001 420.1 80.3 427.8 75.9C437.9 70.1001 444.8 65.3 448.2 61.7C443.6 59.3 441.5 56.9 441.5 54.3C441.5 51.2 442.9 48.3 445.8 45.7C448.7 43.3 451.1 42.3 453 43.1C454.4 43.6 455.4 45.3 455.4 48.1C455.4 50.7 454.9 53.6 453.7 56.7C456.1 58.1 457.1 59.6 457.1 61C457.1 61.8 456.9 63 456.4 64.4L456.4 64.4L456.4 64.4L456.4 64.4L456.4 64.4ZM347.2 29.6C347.2 29.4 347.4 29.1 347.4 29.1C347.6 28.9 347.6 28.9 347.6 29.1C347.8 29.3 347.8 29.6 347.6 29.8C346.4 37 344.2 40.6 341.1 40.6C338 40.6 336.5 38 336.5 32.7C336.5 26.2 338.2 19.3 342 12.3C343 10.6 343.4 9.7 343.7 9.7L343.7 9.7C343.7 9.89999 343.5 10.9 343 12.6C340.6 20 339.4 25.1 339.4 28.2C339.4 32 340.4 34.2 342.5 34.2C344.1 34.2 345.5 32.5 347.2 29.6L347.2 29.6L347.2 29.6L347.2 29.6L347.2 29.6Z" id="Group" fill="#595959" stroke="none" clip-path="url(#clip_1)" />
  </g>
</svg>