<?xml version="1.0" encoding="utf-8"?>
<svg width="587.0001px" height="213.70006px" viewBox="0 0 587.0001 213.70006" version="1.1" xmlns:xlink="http://www.w3.org/1999/xlink" xmlns="http://www.w3.org/2000/svg">
  <defs>
    <path d="M587 0L587 0L587 213.7L0 213.7L0 0L587 0Z" id="path_1" />
    <clipPath id="clip_1">
      <use xlink:href="#path_1" clip-rule="evenodd" fill-rule="evenodd" />
    </clipPath>
  </defs>
  <g id="Surah_77_of_114_(modified)">
    <path d="M587 0L587 0L587 213.7L0 213.7L0 0L587 0Z" id="Surah_77_of_114_(modified)" fill="none" stroke="none" />
    <path d="M345.1 28.6C345.1 23.8 344.4 20 342.9 16.8C342.9 14.9 344.1 10.8 347 4.8C347.5 3.40001 348.2 3.40001 348.9 4.8C349.6 6.5 351.3 11 354.2 18.5C357.3 26.4 359 31.2 359.5 33.1C360 34.3 360.2 35.5 360.2 36C360.2 38.2 358 37 354 32.2C353.5 31.5 353.3 32 353.3 33.2C353.3 33.7 354.5 50.2 357.1 82.9C359.7 115.5 361.2 133.8 361.2 137.6C361.2 148.9 359.3 159 355.7 167.6C355 169.3 354.5 170.5 354 171.4L354 171.4C353.3 172.4 352.8 172.6 352.8 171.9C352.6 170.9 352.6 169.3 353 166.4C353.5 162.3 353.7 158 353.7 152.7C353.7 148.1 352.3 127.3 349.4 90.3C346.5 53.1 345.1 32.7 345.1 28.6L345.1 28.6L345.1 28.6L345.1 28.6L345.1 28.6ZM309.6 142.3C306.5 130.3 303.8 108.9 301.7 78.5C300.3 60 299.5 43.5 299.5 29.1C299.5 24.5 298.8 20.7 297.3 17.6C297.3 15.9 298.5 11.8 301.4 5.40002C301.6 4.70003 302.1 4.40002 302.4 4.40002C302.6 4.40002 302.9 4.60002 303.4 5.60002C304.1 7.30002 306 11.8 308.9 19.3C311.8 27.2 313.5 32 313.9 33.5C314.4 35.2 314.6 36.4 314.6 36.9C314.6 39.1 312.4 37.9 308.4 33.1C307.9 32.4 307.7 32.9 307.7 34.1C307.7 40.3 308.4 55.7 309.9 79.7C311.6 110.7 314.2 130.6 317.3 139.5C317.3 140 316.3 140.7 314.4 141.7C312.5 142.7 311 143.1 310.1 143.1C309.8 142.8 309.6 142.6 309.6 142.3L309.6 142.3L309.6 142.3L309.6 142.3L309.6 142.3ZM333.8 157C335.7 157 336.7 156.5 336.7 155.3C336.7 153.9 335.3 152.7 332.6 151.5C330.4 150.5 327.1 150.5 323 151.5C325.2 155.1 328.8 157 333.8 157L333.8 157L333.8 157L333.8 157L333.8 157ZM309.3 142.3C309.8 141.8 312.2 140.6 316 139.2C321.8 137.3 326.6 136.1 330.9 136.1C335 136.1 338.3 138 340.7 141.4C343.1 145 344.3 149.6 344.3 155.3C344.3 159.9 343.3 163.9 341.2 167.1C339.3 170 336.4 171.7 333 171.7C328.7 171.7 324.4 169.5 320.3 165.7C316.9 162.3 314.3 158.5 312.4 154.2L321.8 154.2L309.3 142.3L309.3 142.3L309.3 142.3L309.3 142.3ZM243.8 213.4C239 213.4 234.7 211.2 231.1 206.9C227.3 202.3 225.6 196.8 225.6 190.1C225.6 181.2 229.2 169.5 236.6 154.8C237.3 153.4 238 152.6 238.5 152.6C238.5 152.6 238.7 152.8 238.7 153.1C238.7 154.5 237 159.8 233.9 168.5C230.5 177.1 228.9 183.9 228.9 188.9C228.9 192.7 229.9 195.9 231.8 198.3C233.7 200.7 236.4 201.9 239.7 201.9C245 201.9 251.5 198.1 259.1 189.9C265.6 182.5 272.1 174.8 278.5 167.3C294.8 148.6 309.2 139.2 321.7 139.2L321.7 153.8C311.1 153.8 299.4 160.8 285.9 174.2C281.8 178.5 276.5 184.8 269.8 192.9C264 200.1 259.7 204.9 256.8 207.3C252.5 211.5 248.1 213.4 243.8 213.4L243.8 213.4L243.8 213.4L243.8 213.4L243.8 213.4ZM241.7 161.5C235.5 161.5 231.1 159.6 228.5 155.7C227.1 153.3 226.1 149.7 225.9 145.1C225.9 144.6 225.7 144.4 225.2 144.1C224.5 144.3 223.8 144.6 223 145.5C218 151.3 214.8 154.6 213.4 155.8C207.2 161.3 200.7 164 194 164L194 149.4C201.2 149.4 207.4 147.5 212.7 143.6C214.9 142.2 219.7 137.6 227.3 129.9C228.3 128.9 229 128.7 229.9 128.5C231.1 128.7 231.6 129.5 231.1 131.1C230.4 133 230.1 134.7 230.1 136.1C230.1 139.5 231.5 142.1 234.2 144C236.8 145.7 240.4 146.6 244.5 146.6C250.5 146.6 255.5 144 259.6 138.9C262 135.1 264.6 131.2 267 127.4C268 126.4 268.7 126 269.2 126C269.9 126 270.2 126.5 270.2 127.4C270.2 127.9 270.2 128.4 270 129.1C269 133.2 268.6 135.1 268.6 134.6C268.6 136.3 269.8 138.2 271.7 139.6C273.9 141.5 276.3 142.5 278.9 142.5C282.3 142.5 284.4 141.5 285.4 139.9C285.4 139.4 284.9 138.9 284 138C283 137.3 282.6 136.6 282.6 136.1C282.6 135.6 283.8 132 285.7 125.8C286.2 124.6 286.4 124.1 286.9 124.1C287.9 124.1 288.8 125.5 289.8 128.2C290.5 130.4 290.8 132 290.8 133.2C290.8 139.4 289.6 144.5 287.2 148.8C284.3 154.1 280 156.5 274 156.5C269.9 156.5 266.1 153.4 262.5 147.1C257.3 156.7 250.3 161.5 241.7 161.5L241.7 161.5L241.7 161.5L241.7 161.5L241.7 161.5ZM162.9 138.5C161.9 147.6 161.2 152.2 160.7 152.2C160.2 152.2 159.5 148.4 158.5 140.9C156.6 128.9 147.7 115.2 131.9 99.9C112.2 81.4 98.1 66.5 88.9 55.5C86.5 52.1001 83.4 47.8 79.5 42.1001C78.3 40.2001 76.9 39 75.4 38.3C74.7 37.8 74.4 36.9001 74.4 35.9001L74.4 26.1001C74.4 24.2001 74.6 23.2001 75.4 23.2001C75.9 23.2001 76.8 23.7001 78 24.6001L96.5 38.8C97.9 40 98.7 40.7 98.7 41.2C98.7 41.7 98.2 41.9 97 41.9C95.6 41.9 92.9 41.4 89.3 40.7C92.4 44.8 99.6 52.9 111.4 64.7C120 73.3 128.4 81.7 137.1 90.1C154.4 107.6 163 122.7 163 135.2C163.2 136.3 163.2 137.3 162.9 138.5L162.9 138.5L162.9 138.5L162.9 138.5L162.9 138.5ZM167.5 49.2C166.8 42.7 165.6 33.1 163.4 20.9C164.6 13.9 165.3 9.59999 165.8 8.2C166.3 7.2 166.8 6.8 167 6.8C167.2 6.8 167.5 7.3 168 8.2C171.4 18.8 173.8 32 175.7 48C177.1 58.6 178.1 75.4 178.8 97.9C179.3 118.3 180 131 181 135.8C182.2 141.6 184.1 145.2 186.5 147.3C188.2 148.7 190.8 149.5 193.9 149.5L193.9 164.1C186.7 164.1 181.4 161.2 178.1 155.5C175.9 151.9 174.5 145.9 173.8 137.5C171.2 150.7 168.3 159.3 165.9 162.9C160.1 171.1 153.4 177.1 146 180.4C142.9 181.6 137.8 183.3 130.9 185.2C123.7 186.9 118.4 188.1 115.1 188.6C113.9 188.6 113.2 188.4 113.2 188.1C113.2 187.6 113.7 187.1 115.1 186.2C121.6 182.6 132.4 176.1 146.8 167.2C163.4 156.4 171.5 140.8 171.5 119.9C171.3 92.9 170.1 69.4 167.5 49.2L167.5 49.2L167.5 49.2L167.5 49.2L167.5 49.2ZM46.1 164.7C61.9 164.7 79.7 161.3 100.1 155.1C116.4 149.8 127 145.5 131.8 141.9C132.3 141.7 132.3 141.2 132.3 140.5C132.3 138.6 129.4 133.5 123.2 125.9C122 124.5 121.5 122.8 122 121.1C122.7 117.7 123.7 114.9 124.9 112.5C125.6 110.8 126.3 109.9 126.8 109.9C127 109.9 128 110.6 129.2 112.1C130.9 113.8 132.6 116.4 134.2 120.3C136.8 124.9 138 128.9 138 132.3C138 143.6 134.4 152 127 157C122.2 160.6 111.4 164.9 94.8 170C73.9 176.5 55.9 179.6 40.1 179.6C24.7 179.6 13.9 175.5 6.99999 167.4C2.19999 161.9 -7.62939e-06 154.7 -7.62939e-06 146C-7.62939e-06 136.9 2.19999 128.5 6.49999 120.6C7.89999 118.2 8.89999 116.8 9.39999 116.8C9.39999 116.8 9.59999 117 9.59999 117.5C9.59999 118.2 9.09999 119.7 8.39999 121.8C7.39999 124.7 6.2 127.3 5.3 130.2C4.1 133.8 3.6 137.6 3.6 141.7C3.6 147 6 151.5 11.3 155.6C18.7 161.5 30.2 164.7 46.1 164.7L46.1 164.7L46.1 164.7L46.1 164.7L46.1 164.7ZM68.9 90.5L72.7 82.6C72.9 82.1 73.2 81.9 73.7 81.9C74.2 81.9 76.1 83.1 79.9 85.7C83.5 88.1 85.4 89.5 85.4 90C85.4 91.7 83.7 95.3 80.6 100.6C80.1 101.3 79.6 101.3 79.2 101.1C76.1 98.7 72.5 96.3 68.4 93.7C67 96.6 65.8 99.2 64.3 101.4C64.1 102.1 63.6 102.4 63.1 102.1C59.5 99.2 55.7 96.6 51.8 94.2C51.6 94 51.6 93.7 51.8 93.2L56.4 83.6C56.6 83.1 57.1 82.6 57.4 82.6C57.9 82.6 59.6 83.8 62.7 86C65.7 87.9 67.9 89.5 68.9 90.5L68.9 90.5L68.9 90.5L68.9 90.5L68.9 90.5ZM16.8 107.8C16.8 107.6 17 107.3 17 107.3C17.2 107.1 17.2 107.1 17.2 107.3C17.4 107.5 17.4 107.8 17.2 108C16 115.2 13.8 118.8 10.7 118.8C7.60001 118.8 6.10001 116.2 6.10001 110.9C6.10001 104.4 7.8 97.5 11.6 90.5C12.6 88.8 13 87.9 13.3 87.9L13.3 87.9C13.3 88.1 13.1 89.1 12.6 90.8C10.2 98.2 9.00001 103.3 9.00001 106.4C9.00001 110.2 10 112.4 12.1 112.4C13.7 112.3 15.1 110.7 16.8 107.8L16.8 107.8L16.8 107.8L16.8 107.8L16.8 107.8ZM194.6 53.1C195.1 49.7 196.3 45.9 198.2 41.1C199.6 37.5 200.4 33.9 200.4 30.3C200.4 23.3 197 16.9 190.6 10.4C190.1 9.90001 190.1 9.40001 190.6 9.00002L192.8 5.20001C193 4.70001 193.3 4.70001 193.8 5.20001C200 10.2 203.4 17.7 203.4 27.5C203.4 32.1 202.2 37.1 200.3 42.1C198.1 47.4 197.2 51 197.2 52.9C197.2 57 198.2 59.1 200.3 59.1C201.7 59.1 203.2 57.4 204.9 54.5C204.9 54.3 205.1 54 205.1 54C205.3 53.8 205.3 53.8 205.3 54C205.3 54 205.3 54.5 205.3 54.7C204.1 61.9 201.9 65.5 198.8 65.5C195.9 65.5 194.2 62.4 194.2 56.6C194.1 55.5 194.4 54.3 194.6 53.1L194.6 53.1L194.6 53.1L194.6 53.1L194.6 53.1ZM159.8 209.1C157.2 209.8 155.7 210.3 155.2 210.3L155.2 210.1C155.2 210.1 156.2 209.4 158.1 208.2C160 207 162.9 205.1 167 202C168.9 200.1 171.8 197 175.4 192.6C177.8 189.7 180.4 187.1 183.3 185.2C186.9 182.6 190.3 181.4 193.9 181.4C194.6 181.4 195.8 181.6 197.3 182.1C198.5 182.6 199.7 182.8 200.7 182.8C202.6 182.8 204.1 182.1 205.3 180.6C206 179.2 207 178 207.9 176.5C208.4 175.5 209.1 175.1 209.6 175.1C209.8 175.1 209.8 175.3 209.8 175.8C209.8 176.3 209.6 177.5 209.1 178.9C208.6 179.6 210.5 179.9 214.1 179.9C214.6 179.9 214.8 179.9 214.8 179.7C214.8 179.7 214.6 178.7 214.1 177.1C213.9 176.6 214.1 175.9 214.8 174.9C215.8 173.2 216.2 172.5 216.5 172.7C217.5 173.4 217.9 174.9 217.9 176.5C217.9 178.2 217.4 179.9 216.7 181.8C216 184 215.3 185.2 214.8 185.6C213.1 186.6 210.5 186.3 206.9 184.6C204 187.5 201.1 189.2 198.3 189.2C197.6 189.2 196.4 189 195.2 188.5C194 188 193 187.8 192.3 187.8C187.5 187.8 182.5 190 177.4 194.8C173.8 198.4 170.2 202 166.6 205.6C164.4 207.1 162.2 208.3 159.8 209.1L159.8 209.1L159.8 209.1L159.8 209.1L159.8 209.1ZM237.1 0C238.8 0 240.7 1 243.3 3.10001C245.9 5 247.4 6.90001 247.6 8.40001C247.8 8.90001 247.4 9.8 246.6 11.5C245.9 13.2 245.4 13.9 245.2 13.9C242.8 14.6 240.4 15.3 238 16.1C234.9 17.1 233 18.3 231.8 19.5C235.2 29.6 236.8 39.4 236.8 49.3C236.8 52.2 236.3 55.1 235.8 58.2C235.6 59.2 235.3 59.6 235.1 59.9C234.9 59.9 234.9 58 234.9 54.6C234.9 49.1 233.9 42.1 232.3 34.2C230.6 26.3 229.9 21.5 229.9 20.5C229.9 16.4 230.9 13.5 233.3 11.6C234.3 10.9 236.4 9.90002 239.3 9.00002C238.1 7.80002 236.9 7.30002 235.7 7.30002C235.2 7.30002 234.5 7.80002 233.5 9.00002C232.5 10.4 231.8 10.9 231.8 10.9C231.6 10.9 231.3 10.4 231.6 9.50002C232.3 3.10001 234.2 0 237.1 0L237.1 0L237.1 0L237.1 0L237.1 0ZM275.5 25.5C275.5 24.3 273.1 22.1 268.1 19.3C266.4 22.2 265.7 24.8 265.7 27.2C265.7 28.6 266.4 29.6 267.9 29.6C269.1 29.6 270.5 29.1 272.2 28.2C273.8 27.4 275 26.4 275.5 25.5L275.5 25.5L275.5 25.5L275.5 25.5L275.5 25.5ZM270.2 6.3C270.9 5.10001 271.9 4.60001 272.6 4.60001C273.1 4.60001 273.6 4.8 273.6 5.3C273.6 5.3 273.4 5.5 273.4 5.8C272.4 8 271.5 10.4 270.8 12.8C275.8 16.4 278.2 20.2 278 23.8C277.5 27.9 277 30.5 276.3 31.5C273.9 34.4 271.3 36.1 267.9 36.1C264.5 36.1 263.1 33.9 263.1 30.1C263.1 29.4 263.1 28.4 263.3 27.5C264.5 19.7 266.9 12.7 270.2 6.3L270.2 6.3L270.2 6.3L270.2 6.3L270.2 6.3ZM328.3 71.3C328.8 69.9 328.8 68.4 328.5 67C328.3 65.6 327.5 64.8 326.3 64.8C325.8 64.8 325.1 65 324.1 65.5C323.1 66 322.7 66.5 322.7 66.9C322.8 68.2 324.7 69.6 328.3 71.3L328.3 71.3L328.3 71.3L328.3 71.3L328.3 71.3ZM325.4 77.5C320.8 75.1 318.7 72.7 318.7 70.1C318.7 67 320.1 64.1 323 61.7C325.9 59.1 328.3 58.1 330.2 58.8C331.9 59.3 332.6 61 332.6 63.8C332.6 66.4 332.1 69.3 330.9 72.7C333.3 73.9 334.7 75.1 335.2 76.1C335.2 77.3 334.2 79.5 332.1 82.3C331.6 81.3 330.2 80.1 328 78.9C325.4 82.5 322.2 85.6001 318.4 88.5C313.8 91.6001 309.8 94.3 306.2 95.7001C305.2 96.2001 300.9 97.9001 293.2 100.7C292 101.2 291 101.4 290.8 101.4C290.6 101.4 290.6 101.2 290.6 101.2C290.6 101 291.1 100.2 292.5 99.5C298.3 95.9 304 92.5 310 89.2001C317 85 322.1 81.1 325.4 77.5L325.4 77.5L325.4 77.5L325.4 77.5L325.4 77.5ZM277.9 103.7C277.9 102.5 275.5 100.3 270.5 97.5C268.8 100.4 268.1 103 268.1 105.4C268.1 106.8 268.8 107.8 270.3 107.8C271.5 107.8 272.9 107.3 274.6 106.4C276.2 105.6 277.4 104.7 277.9 103.7L277.9 103.7L277.9 103.7L277.9 103.7L277.9 103.7ZM272.6 84.5C273.3 83.3 274.3 82.8 275 82.8C275.5 82.8 276 83 276 83.5C276 83.5 275.8 83.7 275.8 84C274.8 86.2 273.9 88.6 273.2 91C278.2 94.6 280.6 98.4 280.4 102C279.9 106.1 279.4 108.7 278.7 109.7C276.3 112.6 273.7 114.3 270.3 114.3C266.9 114.3 265.5 112.1 265.5 108.3C265.5 107.6 265.5 106.6 265.7 105.7C266.9 97.9 269.3 91 272.6 84.5L272.6 84.5L272.6 84.5L272.6 84.5L272.6 84.5ZM205.4 82.1C229.6 73 254.8 63.9 280.8 54.3C281.5 54.1 282 53.8 282 54.1C282.2 54.1 282.2 54.6 282 55.3C281 57.5 280.3 58.7 279.8 59.1C279.6 59.3 267.3 63.9 243.6 72.8C219.4 81.7 205.7 87.2 203 88.9C203.5 86.7 204.2 84.5 205.4 82.1L205.4 82.1L205.4 82.1L205.4 82.1L205.4 82.1ZM292.8 185.5C295.7 185.5 298.1 186.9 300.2 190.3C302.4 193.4 304 197.7 304.8 203C305 203.5 305 203.7 305 204L305.2 204C305.2 203.8 305.4 203.5 305.4 203C305.9 199.9 307.1 195.1 308.8 188.8C310.7 184.5 312.6 182.3 314.8 182.3C316 182.3 317.2 183 318.2 184.5C319.2 185.9 319.6 186.9 319.6 187.9C319.6 188.4 319.6 189.3 319.1 190.3C318.6 191.7 318.1 192.5 317.7 192.5C317.5 192.5 317 191.8 316 190.8C315.3 189.8 314.3 189.4 313.4 189.4C311.5 189.4 309.8 194 308.1 203.1C307.4 207.2 306.4 210.1 305.7 211.7C305 212.7 304.5 213.4 304 213.4C303.5 213.4 303.5 212.7 303.3 211.7C303.5 210 302.6 206.9 300.7 202.3C298.8 197.5 297.6 195.3 296.6 195.3C296.1 195.3 295.9 195.3 295.6 195.8C295.4 196 295.1 196.3 294.4 196.3C293.4 196.3 292.5 195.6 291 194.4C289.6 193.2 289.1 192.2 289.1 191.5C289.1 191.3 289.6 190.1 290.8 188.1C291.8 186.3 292.5 185.5 292.8 185.5L292.8 185.5L292.8 185.5L292.8 185.5L292.8 185.5ZM208.1 117.4C208.1 117.2 208.3 116.9 208.3 116.9C208.5 116.7 208.5 116.7 208.5 116.9C208.7 117.1 208.7 117.4 208.5 117.6C207.3 124.8 205.1 128.4 202 128.4C198.9 128.4 197.4 125.8 197.4 120.5C197.4 114 199.1 107.1 202.9 100.1C203.9 98.4 204.3 97.5 204.6 97.5L204.6 97.5C204.6 97.7 204.4 98.7 203.9 100.4C201.5 107.8 200.3 112.9 200.3 116C200.3 119.8 201.3 122 203.4 122C204.9 121.9 206.4 120.3 208.1 117.4L208.1 117.4L208.1 117.4L208.1 117.4L208.1 117.4ZM250.8 98.2C250.8 100.8 249.6 103.7 247.7 106.8C245.5 109.9 242.9 112.8 239.5 115.2C238.1 116.2 237.3 116.6 237.1 116.6L237.1 116.4C237.1 116.2 237.6 115.7 238.5 114.5C244 108.5 246.9 104.7 246.9 102.5C246.9 100.8 245.9 99.9 244.3 99.9C243.3 99.9 242.4 100.1 241.7 100.6C241 100.8 240.7 101.1 240.5 101.1C240.5 101.1 240.3 101.1 240.3 100.9C240.3 100.9 240.3 100.4 240.5 99.5C241.5 95.4 243.4 93.5 246.7 93.5C249.3 93.4 250.8 95.1 250.8 98.2L250.8 98.2L250.8 98.2L250.8 98.2L250.8 98.2ZM114.5 34.1C124.1 30.7 134.4 26.9 145.5 23.1C146.5 22.9 146.7 22.6 146.9 22.9C147.1 22.9 147.1 23.4 146.7 24.1C146 26.3 145.3 27.5 144.8 27.9C135.2 31.3 124.4 35.3 112.2 40.9C112.5 38.7 113.3 36.5 114.5 34.1L114.5 34.1L114.5 34.1L114.5 34.1L114.5 34.1ZM66 204.3C75.6 200.9 85.9 197.1 97 193.3C98 193.1 98.2 192.8 98.4 193.1C98.6 193.1 98.6 193.6 98.2 194.3C97.5 196.5 96.8 197.7 96.3 198.1C86.7 201.5 75.9 205.5 63.7 211.1C64.1 208.8 64.8 206.7 66 204.3L66 204.3L66 204.3L66 204.3L66 204.3ZM142.3 195.1C142.3 197.7 141.1 200.6 139.2 203.7C137 206.8 134.4 209.7 131 212.1C129.6 213.1 128.8 213.5 128.6 213.5L128.6 213.3C128.6 213.1 129.1 212.6 130 211.4C135.5 205.4 138.4 201.6 138.4 199.4C138.4 197.7 137.4 196.8 135.8 196.8C134.8 196.8 133.9 197 133.2 197.5C132.5 197.7 132.2 198 132 198C132 198 131.8 198 131.8 197.8C131.8 197.8 131.8 197.3 132 196.4C133 192.3 134.9 190.4 138.2 190.4C140.9 190.3 142.3 192 142.3 195.1L142.3 195.1L142.3 195.1L142.3 195.1L142.3 195.1ZM148.1 64.1C148.1 63.9 148.3 63.6 148.3 63.6C148.5 63.4 148.5 63.4 148.5 63.6C148.7 63.8 148.7 64.1 148.5 64.3C147.3 71.5 145.1 75.1 142 75.1C138.9 75.1 137.4 72.5 137.4 67.2C137.4 60.7 139.1 53.8 142.9 46.8C143.9 45.1 144.3 44.2 144.6 44.2L144.6 44.2C144.6 44.4 144.4 45.4 143.9 47.1C141.5 54.5 140.3 59.6 140.3 62.7C140.3 66.5 141.3 68.7 143.4 68.7C144.9 68.7 146.4 67 148.1 64.1L148.1 64.1L148.1 64.1L148.1 64.1L148.1 64.1ZM42 120C44.9 120 47.3 121.4 49.4 124.8C51.6 127.9 53.2 132.2 54 137.5C54.2 138 54.2 138.2 54.2 138.5L54.4 138.5C54.4 138.3 54.6 138 54.6 137.5C55.1 134.4 56.3 129.6 58 123.3C59.9 119 61.8 116.8 64 116.8C65.2 116.8 66.4 117.5 67.4 119C68.4 120.4 68.8 121.4 68.8 122.4C68.8 122.9 68.8 123.8 68.3 124.8C67.8 126.2 67.3 127 66.9 127C66.7 127 66.2 126.3 65.2 125.3C64.5 124.3 63.5 123.9 62.6 123.9C60.7 123.9 59 128.5 57.3 137.6C56.6 141.7 55.6 144.6 54.9 146.2C54.2 147.2 53.7 147.9 53.2 147.9C52.7 147.9 52.7 147.2 52.5 146.2C52.7 144.5 51.8 141.4 49.9 136.8C48 132 46.8 129.8 45.8 129.8C45.3 129.8 45.1 129.8 44.8 130.3C44.6 130.5 44.3 130.8 43.6 130.8C42.6 130.8 41.7 130.1 40.2 128.9C38.8 127.7 38.3 126.7 38.3 126C38.3 125.8 38.8 124.6 40 122.6C41 120.7 41.7 120 42 120L42 120L42 120L42 120L42 120ZM104.6 130.1C104.6 129.9 104.8 129.6 104.8 129.6C105 129.4 105 129.4 105 129.6C105.2 129.8 105.2 130.1 105 130.3C103.8 137.5 101.6 141.1 98.5 141.1C95.4 141.1 93.9 138.5 93.9 133.2C93.9 126.7 95.6 119.8 99.4 112.8C100.4 111.1 100.8 110.2 101.1 110.2L101.1 110.2C101.1 110.4 100.9 111.4 100.4 113.1C98 120.5 96.8 125.6 96.8 128.7C96.8 132.5 97.8 134.7 99.9 134.7C101.5 134.7 102.9 133 104.6 130.1L104.6 130.1L104.6 130.1L104.6 130.1L104.6 130.1ZM52.1 50.9C52.1 53.5 50.9 56.4 49 59.5C46.8 62.6 44.2 65.5 40.8 67.9C39.4 68.9 38.6 69.3 38.4 69.3L38.4 69.1C38.4 68.9 38.9 68.4 39.8 67.2C45.3 61.2 48.2 57.4 48.2 55.2C48.2 53.5 47.2 52.6 45.6 52.6C44.6 52.6 43.7 52.8 43 53.3C42.3 53.5 42 53.8 41.8 53.8C41.8 53.8 41.6 53.8 41.6 53.6C41.6 53.6 41.6 53.1 41.8 52.2C42.8 48.1 44.7 46.2 48 46.2C50.6 46.1 52.1 47.8 52.1 50.9L52.1 50.9L52.1 50.9L52.1 50.9L52.1 50.9ZM528.2 124.8C529.4 123.8 530.4 123.4 531.1 123.4C531.6 123.4 531.8 123.9 531.8 124.8C531.8 125.5 531.6 127 531.1 128.9C530.6 130.8 530.4 132.3 530.4 133.5C530.4 138.8 534.2 141.7 541.7 141.7C547.7 141.7 552.7 139.1 556.6 134C559 129.9 561.6 126.1 564 122.2C565 121.2 565.7 120.8 566.4 120.8C567.4 120.8 567.6 121.8 567.1 123.9C566.1 128 565.4 129.9 565.4 129.4C565.4 131.1 566.4 132.8 568.3 134.2C570 135.6 572.4 136.6 575 136.6C578.4 136.6 580.5 135.6 581.5 134C581.5 133.8 580.5 131.8 578.4 128.2C578.6 126.3 579.6 122.9 581 118.4C581.2 117 581.7 116.2 582.2 116.2C582.7 116.2 583.2 116.4 583.9 117.4C585.8 120.3 587 123.6 587 127.5C587 133.5 585.6 138.5 582.9 142.9C580 148.2 575.7 150.8 569.9 150.8C566.1 150.8 562.5 147.7 559.3 141.9C554 151.5 547.1 156.3 538.7 156.3C528.6 156.3 523.8 150.5 523.8 139.5C520 144.1 513.5 148.1 505.1 152L505.1 138.8C511.3 135.7 515.4 133.8 516.6 133C520.5 131.1 524.4 128.2 528.2 124.8L528.2 124.8L528.2 124.8L528.2 124.8L528.2 124.8ZM491.5 140.7C487.9 136.1 484.8 134 481.9 134C477.6 134 475.7 135 475.7 137.4C475.7 140.3 478.6 141.7 484.3 141.7C486.5 141.6 488.9 141.1 491.5 140.7L491.5 140.7L491.5 140.7L491.5 140.7L491.5 140.7ZM498.9 158.2C498.9 156.8 498.4 155.1 497.9 153.4C495 154.4 490.7 155.1 485.4 155.1C473.9 155.1 468.1 151 468.1 143.1C468.1 137.1 469.8 131.8 473.6 127C477.2 122.9 481 120.8 485.1 120.8C488.2 120.8 491.3 122.7 494.9 126.3C498 129.9 500.9 134 503.3 139C503.5 139 504 139 505 138.5L505 151.7L504.5 152.2C504.5 155.1 503.8 158.4 502.3 162.8C500.6 168.3 498 172.9 494.9 176.5C487.7 185.1 479.8 192.6 471.1 199.1C458.1 208.7 447.1 213.7 437.5 213.7C429.3 213.7 423.1 210.6 418.8 204.6C415 199.6 413 192.8 413 184.9C413 174.8 415.2 164.5 419.2 153.7C420.4 151.3 420.9 150.3 421.4 150.3C421.6 150.3 421.6 150.5 421.6 151C421.6 151.7 421.4 152.9 421.1 154.4C418 165 416.5 172.9 416.5 178.4C416.5 183.4 417.7 187.8 420.1 191.4C423.9 196.4 429.9 199.1 438.3 199.1C445.5 199.1 454.1 196 464.5 189.7C472.7 184.7 480.6 178.7 488.3 171.5C495.3 164.7 498.9 160.3 498.9 158.2L498.9 158.2L498.9 158.2L498.9 158.2L498.9 158.2ZM433.4 121.9C432.9 119.7 432.2 118.1 431.2 116.9C430.5 115.5 430 114.7 429.8 114.3C429.8 113.8 429.8 112.1 430.3 108.8C430.8 105.7 431 103.5 431.5 102.3C431.7 101.1 432 100.6 432.5 100.6C432.7 100.6 433 100.8 433.5 101.3C436.9 105.1 440.5 109 444.5 113.1C446.2 114.8 446.9 115.7 446.9 116.2C446.9 116.4 446.7 116.7 446.2 116.7C445.5 116.7 443.6 116.2 440.7 115.5C442.4 119.6 444.3 123.7 446 127.5C448.6 134.2 450.1 139.7 450.1 144.8C450.1 147.2 449.6 150.1 448.7 153.7C447.5 157.8 446.1 160.9 444.1 163.1C437.1 171 425.4 179.7 408.8 189C394.4 197.4 386 201.5 383.4 201.5C382.9 201.5 375.7 203.2 362 206.5C347.6 209.9 338.5 212 334.9 212.5C331.1 213.2 328.7 213.5 327.7 213.5C327.2 213.5 327.2 213.5 327.2 213.3C327.2 213.1 329.8 211.6 335.1 209.2C337 208.2 348.1 203.4 368.5 194.8C382.7 188.8 394.4 183.3 403.8 178.2C418 170.5 428.8 163.8 436.2 158.3C441.7 154 444.6 150.9 444.6 148.9C444.6 148.4 443.2 145.1 440.3 138.8C437 131.8 434.6 126 433.4 121.9L433.4 121.9L433.4 121.9L433.4 121.9L433.4 121.9ZM413.7 88.6C413.7 92.4 411.8 97.7 407.9 104.2C405.5 108.3 401.9 113.8 397.1 121C401.9 126.5 405.3 131.6 406.9 135.9C407.9 139 408.6 143.1 408.6 147.7C408.6 149.6 408.1 152 407.2 155.1C406.5 158 405.5 160.1 404.6 161.6C402.7 164.5 399.6 167.4 394.8 170.2C389.8 173.6 385.4 175.2 381.8 175.2C376 175.2 373.2 170.9 373.2 162.2C373.2 156.4 374.2 150.7 376.1 145.4C378 140.8 381.1 134.8 386.2 126.9C381.9 122.8 377.3 117.1 372.3 109.9C371.8 109.2 370.6 108 368.7 106.1C367.7 105.1 367.3 103.9 367.3 102.5C367.3 100.3 367.5 97.9 368 95.1C368.7 92.2 369.2 91 369.4 91C370.1 91 372.3 92.2 376.4 94.8C380.2 97.4 383.4 99.4 385.3 101C386.5 101.7 387 102.4 387 102.4L387 102.6C387 102.8 386.3 103.1 384.6 103.1C381.5 103.1 379.8 103.3 379.8 103.6C379.8 103.8 380.3 104.3 381.2 105.5C385 110.3 388.9 113.9 393 116.8C394 115.4 397.3 110.6 402.6 102.4C407.2 95.4 409.8 90.6 411 87.8C412.2 84.9 412.9 83.7 413.4 83.7C413.5 83.8 413.7 85.2 413.7 88.6L413.7 88.6L413.7 88.6L413.7 88.6L413.7 88.6ZM404.4 147.6C401.8 142.3 397.2 136.8 391 131.5C388.8 133.7 386.2 137.7 382.8 143.5C379 150 377.3 154.1 377.3 156.2C377.3 159.1 379.2 160.5 383.5 160.5C385.4 160.5 387.8 159.8 390.9 158.6C395.2 156.7 399.3 154 402.7 150.7C404.1 149.3 404.6 148.3 404.4 147.6L404.4 147.6L404.4 147.6L404.4 147.6L404.4 147.6ZM390.9 70.6L394.7 62.7C394.9 62.2 395.2 62 395.7 62C396.2 62 398.1 63.2 401.9 65.8C405.5 68.2 407.4 69.6 407.4 70.1C407.4 71.8 405.7 75.3999 402.6 80.7C402.1 81.4 401.6 81.4 401.2 81.2C398.1 78.8 394.5 76.4 390.4 73.8C389 76.7 387.8 79.3 386.3 81.5C386.1 82.2 385.6 82.5 385.1 82.2C381.5 79.3 377.7 76.7 373.8 74.3C373.6 74.1 373.6 73.8 373.8 73.3L378.4 63.7C378.6 63.2 379.1 62.7 379.4 62.7C379.9 62.7 381.6 63.9 384.7 66.1C387.8 67.9 390 69.6 390.9 70.6L390.9 70.6L390.9 70.6L390.9 70.6L390.9 70.6ZM517.4 204.5C514.8 205.2 513.3 205.7 512.8 205.7L512.8 205.5C512.8 205.5 513.8 204.8 515.7 203.6C517.6 202.4 520.5 200.5 524.6 197.4C526.5 195.5 529.4 192.4 533 188C535.4 185.1 538 182.5 540.9 180.6C544.5 178 547.9 176.8 551.5 176.8C552.2 176.8 553.4 177 554.9 177.5C556.1 178 557.3 178.2 558.3 178.2C560.2 178.2 561.7 177.5 562.9 176C563.6 174.6 564.6 173.4 565.5 171.9C566 170.9 566.7 170.5 567.2 170.5C567.4 170.5 567.4 170.7 567.4 171.2C567.4 171.7 567.2 172.9 566.7 174.3C566.2 175 568.1 175.3 571.7 175.3C572.2 175.3 572.4 175.3 572.4 175.1C572.4 175.1 572.2 174.1 571.7 172.5C571.5 172 571.7 171.3 572.4 170.3C573.4 168.6 573.8 167.9 574.1 168.1C575.1 168.8 575.5 170.3 575.5 171.9C575.5 173.6 575 175.3 574.3 177.2C573.6 179.4 572.9 180.6 572.4 181C570.7 182 568.1 181.7 564.5 180C561.6 182.9 558.7 184.6 555.9 184.6C555.2 184.6 554 184.4 552.8 183.9C551.6 183.4 550.6 183.2 549.9 183.2C545.1 183.2 540.1 185.4 535 190.2C531.4 193.8 527.8 197.4 524.2 201C522 202.6 519.8 203.8 517.4 204.5L517.4 204.5L517.4 204.5L517.4 204.5L517.4 204.5ZM465.8 74.9C468.7 74.9 471.1 76.3 473.2 79.7C475.4 82.8 477 87.1 477.8 92.4C478 92.9 478 93.1 478 93.4L478.2 93.4C478.2 93.2 478.4 92.9 478.4 92.4C478.9 89.3 480.1 84.5 481.8 78.2C483.7 73.9 485.6 71.7 487.8 71.7C489 71.7 490.2 72.4 491.2 73.9C492.2 75.3 492.6 76.3 492.6 77.3C492.6 77.8 492.6 78.7 492.1 79.7C491.6 81.1 491.1 81.9 490.7 81.9C490.5 81.9 490 81.2 489 80.2C488.3 79.2 487.3 78.8 486.4 78.8C484.5 78.8 482.8 83.4 481.1 92.5C480.4 96.6 479.4 99.5 478.7 101.1C478 102.1 477.5 102.8 477 102.8C476.5 102.8 476.5 102.1 476.3 101.1C476.5 99.4 475.6 96.3 473.7 91.7C471.8 86.9 470.6 84.7 469.6 84.7C469.1 84.7 468.9 84.7 468.6 85.2C468.4 85.4 468.1 85.7 467.4 85.7C466.4 85.7 465.5 85 464 83.8C462.6 82.6 462.1 81.6 462.1 80.9C462.1 80.7 462.6 79.5 463.8 77.5C464.9 75.6 465.6 74.9 465.8 74.9L465.8 74.9L465.8 74.9L465.8 74.9L465.8 74.9ZM425.3 71.8C449.5 62.7 474.7 53.6 500.7 44C501.4 43.8 501.9 43.5 501.9 43.8C502.1 43.8 502.1 44.3 501.9 45C500.9 47.2 500.2 48.4 499.7 48.8C499.5 49 487.2 53.6 463.5 62.5C439.3 71.4 425.6 76.9 422.9 78.6C423.3 76.3 424.1 74.2 425.3 71.8L425.3 71.8L425.3 71.8L425.3 71.8L425.3 71.8ZM401.7 27.9C402.2 26.5 402.2 25 401.9 23.6C401.7 22.2 400.9 21.4 399.7 21.4C399.2 21.4 398.5 21.6 397.5 22.1C396.5 22.6 396.1 23.1 396.1 23.5C396.2 24.7 398.1 26.2 401.7 27.9L401.7 27.9L401.7 27.9L401.7 27.9L401.7 27.9ZM398.9 34.1C394.3 31.7 392.2 29.3 392.2 26.7C392.2 23.6 393.6 20.7 396.5 18.3C399.4 15.7 401.8 14.7 403.7 15.4C405.4 15.9 406.1 17.6 406.1 20.4C406.1 23 405.6 25.9 404.4 29.3C406.8 30.5 408.2 31.7 408.7 32.7C408.7 33.9 407.7 36.1 405.6 38.9C405.1 37.9 403.7 36.7 401.5 35.5C398.9 39.1 395.7 42.2 391.9 45.1C387.3 48.2 383.3 50.9 379.7 52.3C378.7 52.8 374.4 54.5 366.7 57.3C365.5 57.8 364.5 58 364.3 58C364.1 58 364.1 57.8 364.1 57.8C364.1 57.6 364.6 56.8 366 56.1C371.8 52.5 377.5 49.1 383.5 45.8C390.5 41.5 395.5 37.7 398.9 34.1L398.9 34.1L398.9 34.1L398.9 34.1L398.9 34.1ZM550.5 64.1C551 62.7 551 61.2 550.7 59.8C550.5 58.4 549.7 57.6 548.5 57.6C548 57.6 547.3 57.8 546.3 58.3C545.3 58.8 544.9 59.3 544.9 59.7C545 61 546.9 62.4 550.5 64.1L550.5 64.1L550.5 64.1L550.5 64.1L550.5 64.1ZM555.8 73C553.4 78.8 552.2 83.3 552.2 86.7C552.2 90.8 553.2 92.9 555.3 92.9C556.5 92.9 557.9 91.2 559.6 88.3C559.8 88.1 559.8 87.8 560.1 87.6C560.1 87.6 560.3 87.6 560.3 87.8C560.3 87.8 560.3 88 560.3 88.5C558.9 95.7001 556.7 99.3 553.8 99.3C550.7 99.3 549.2 96.7 549.2 91.4C549.2 88.8 549.7 85.4 551.1 81.1001C552.5 76.8001 553.3 74.6001 553.3 74.4C553.3 73.9 552.3 73 550.2 71.8C546.4 76.8 541.1 81.6 534.4 85.7C529.8 88.3 525.3 90.7 520.5 92.7C511.6 96.3 506.3 98.2 505.1 98.9C503.9 99.4 503.2 99.6001 502.7 99.6001C502.5 99.6001 502.5 99.4 502.5 99.4C502.5 98.9 503 98.4 504.4 97.5C512.1 93.2001 519.5 88.9 527.2 84.5C537.3 78.7001 544.2 73.9 547.6 70.3C543 67.9 540.9 65.5 540.9 62.9C540.9 59.8 542.3 56.9 545.2 54.3C548.1 51.9 550.5 50.9 552.4 51.7C553.8 52.2 554.8 53.9 554.8 56.7C554.8 59.3 554.3 62.2 553.1 65.3C555.5 66.7 556.5 68.2 556.5 69.6C556.5 70.3 556.3 71.5 555.8 73L555.8 73L555.8 73L555.8 73L555.8 73ZM446.6 37.9C446.6 37.7 446.8 37.4 446.8 37.4C447 37.2 447 37.2 447 37.4C447.2 37.6 447.2 37.9 447 38.1C445.8 45.3 443.6 48.9 440.5 48.9C437.4 48.9 435.9 46.3 435.9 41C435.9 34.5 437.6 27.6 441.4 20.6C442.4 18.9 442.8 18 443.1 18L443.1 18C443.1 18.2 442.9 19.2 442.4 20.9C440 28.3 438.8 33.4 438.8 36.5C438.8 40.3 439.8 42.5 441.9 42.5C443.5 42.5 444.9 40.8 446.6 37.9L446.6 37.9L446.6 37.9L446.6 37.9L446.6 37.9Z" id="Group" fill="#595959" stroke="none" clip-path="url(#clip_1)" />
  </g>
</svg>