<?xml version="1.0" encoding="utf-8"?>
<svg width="517.2001px" height="201.70006px" viewBox="0 0 517.2001 201.70006" version="1.1" xmlns:xlink="http://www.w3.org/1999/xlink" xmlns="http://www.w3.org/2000/svg">
  <defs>
    <path d="M517.2 0L517.2 0L517.2 201.7L0 201.7L0 0L517.2 0Z" id="path_1" />
    <clipPath id="clip_1">
      <use xlink:href="#path_1" clip-rule="evenodd" fill-rule="evenodd" />
    </clipPath>
  </defs>
  <g id="Surah_4_of_114_(modified)">
    <path d="M517.2 0L517.2 0L517.2 201.7L0 201.7L0 0L517.2 0Z" id="Surah_4_of_114_(modified)" fill="none" stroke="none" />
    <path d="M269.7 13.2C271.2 16.4 271.9 20.2 271.9 25C271.9 29 273.1 48 275.6 81.9C278 115.7 279.2 134.9 279.2 139.7C279.2 144.8 279 149.3 278.5 153.4C278.471 153.779 278.442 154.144 278.414 154.493C278.25 156.535 278.129 158.046 278.3 158.9C278.5 159.6 278.8 159.6 279.5 158.4C280 157.5 280.4 156.3 281.4 154.6C284.7 146 286.4 135.9 286.4 124.6C286.4 120.8 285.5 104.2 283.3 74.7C281.1 45 279.9 30.1 279.9 29.6C279.9 28.4 280.1 27.9 280.6 28.6C284.9 33.4 286.8 34.6 286.8 32.4C286.8 31.9 286.8 30.7 286.3 29.5C285.8 27.6 284.1 22.8 281 14.9C278.1 7.39999 276.4 2.89999 275.7 1.2C275.2 0.5 275 0 274.5 0C274.3 0 274 0.5 273.8 1.2C270.9 7.39999 269.7 11.5 269.7 13.2ZM255.1 146.9C260.2 138.7 262.8 127.7 262.8 113.5C262.8 108.5 261.8 93.4 260 68.3C258.1 42.9 257.1 29.9 257.1 29.7C257.1 28.5 257.3 28.2 257.8 28.7C261.8 33.5 264 34.7 264 32.5C264 32 263.7 30.8 263.5 29.4C262.8 27.7 261.1 22.9 258.2 15C255.3 7.5 253.4 3 252.7 1.3C252.2 0.300003 251.9 0.100006 251.7 0.100006C251.2 0.100006 250.9 0.400009 250.7 1.10001C248 7.5 246.6 11.6 246.6 13.3C248.1 16.4 248.8 20.2 248.8 24.8C248.8 30.1 249.7 47.1 251.9 75.9C254.1 104.7 255.3 121.2 255.3 125.3C255.3 132.1 254.6 136.1 253.4 137.1C249.1 140.7 244.6 142.6 240 142.6L240 157.2C245.7 157.2 250.8 153.6 255.1 146.9ZM226.4 21.6C227.3 19.7 227.8 17.5 227.8 15.6C227.8 14.6 227.3 13.2 226.2 11.2C225 7.90001 224.3 6.20001 224.3 6.20001C224.1 5.20001 223.8 4.00002 223.6 2.80002C223.6 1.90002 223.3 1.40002 223.1 1.40002C222.8 1.40002 222.6 1.90002 222.1 2.60002C221.1 3.80002 220.9 5.00003 220.9 6.40002C220.9 9.00003 222.4 12.6 225 17.4C224.8 18.9 223.8 19.6 222.4 19.6C219.2 19.6 217.8 17.5 217.8 13.4C217.8 12 217.3 9.80003 216.6 6.70003C215.9 3.80002 215.4 2.40002 214.9 2.40002C214.7 2.40002 214.2 2.80002 213.7 3.80002C213.2 5.00002 213 5.70001 213 6.20001C213 6.70001 213.3 8.10002 214 10.3C214.5 12.7 215 14.1 215 15.1C215 16.8 214.3 18.2 213.1 19.4C211.9 20.6 210.7 21.3 209.3 21.3C208.4 21.3 207.4 20.3 206.7 18.9C206.2 17.7 206 16.2 206 14.8C206 14.1 206 13.4 206.2 12.4C206.2 11.4 206.4 10.2 206.4 8.80002C206.4 6.20001 205.9 5.00002 205.2 5.00002C204.7 5.00002 204 5.50002 203 6.70001C202.1 7.90001 201.6 9.10002 201.6 10.5C201.6 11.2 201.9 11.7 202.6 11.9C203.1 12.2 203.6 12.4 203.6 12.9L203.6 19.1C203.6 21.5 204.1 23.7 205.3 25.1C206.3 26.6 207.5 27.3 208.7 27.3C212.3 27.3 214.7 24.7 216.1 19.9C217.3 23.8 219.2 25.7 222.1 25.7C223.8 25.7 225.2 24.2 226.4 21.6ZM322.3 14.4C322.3 17 324.4 19.4 329 21.8C325.7 25.4 320.6 29.3 313.6 33.5C307.6 36.8 301.9 40.2 296.1 43.8C294.7 44.5 294.2 45.3 294.2 45.5C294.2 45.5 294.2 45.7 294.4 45.7C294.6 45.7 295.6 45.5 296.8 45C304.5 42.2 308.8 40.5 309.8 40C313.4 38.6 317.4 35.9 322 32.8C325.8 29.9 329 26.8 331.6 23.2C333.8 24.4 335.2 25.6 335.7 26.6C337.8 23.8 338.8 21.6 338.8 20.4C338.3 19.4 336.9 18.2 334.5 17C335.7 13.6 336.2 10.7 336.2 8.10002C336.2 5.30002 335.5 3.60002 333.8 3.10002C331.9 2.40001 329.5 3.40001 326.6 6.00002C323.7 8.40001 322.3 11.3 322.3 14.4ZM164.4 11.3C162.3 7.89999 159.9 6.5 157 6.5C156.7 6.50002 156 7.20003 155 9.10002C153.8 11.1 153.3 12.3 153.3 12.5C153.3 13.2 153.8 14.2 155.2 15.4C156.7 16.6 157.6 17.3 158.6 17.3C159.3 17.3 159.6 17 159.8 16.8C160.1 16.3 160.3 16.3 160.8 16.3C161.8 16.3 163 18.5 164.9 23.3C166.8 27.9 167.7 31 167.5 32.7C167.7 33.7 167.7 34.4 168.2 34.4C168.7 34.4 169.2 33.7 169.9 32.7C170.6 31.1 171.6 28.2 172.3 24.1C174 15 175.7 10.4 177.6 10.4C178.5 10.4 179.5 10.8 180.2 11.8C181.2 12.8 181.7 13.5 181.9 13.5C182.3 13.5 182.8 12.7 183.3 11.3C183.8 10.3 183.8 9.39999 183.8 8.89999C183.8 7.89999 183.4 6.89999 182.4 5.5C181.4 4 180.2 3.3 179 3.3C176.8 3.3 174.9 5.5 173 9.8C171.3 16.1 170.1 20.9 169.6 24C169.6 24.5 169.4 24.8 169.4 25L169.2 25C169.2 24.7 169.2 24.5 169 24C168.2 18.7 166.6 14.4 164.4 11.3ZM131 24.9C131 24.9 130.8 25.2 130.8 25.4C129.1 28.3 127.7 30 126.1 30C124 30 123 27.8 123 24C123 20.9 124.2 15.8 126.6 8.40001C127.1 6.70001 127.3 5.70001 127.3 5.50002C127 5.50002 126.6 6.40002 125.6 8.10002C121.8 15.1 120.1 22 120.1 28.5C120.1 33.8 121.6 36.4 124.7 36.4C127.8 36.4 130 32.8 131.2 25.6C131.4 25.4 131.4 25.1 131.2 24.9C131.2 24.8093 131.2 24.7598 131.181 24.7513C131.159 24.7411 131.109 24.7906 131 24.9ZM332.1 11.3C332.4 12.7 332.4 14.2 331.9 15.6C328.3 13.9 326.4 12.5 326.3 11.2C326.3 10.8 326.7 10.3 327.7 9.8C328.7 9.3 329.4 9.10001 329.9 9.10001C331.1 9.10001 331.9 9.90001 332.1 11.3ZM373.9 28.5C373.9 28.5 373.7 28.8 373.7 29C372 31.9 370.6 33.6 369 33.6C366.9 33.6 365.9 31.4 365.9 27.6C365.9 24.5 367.1 19.4 369.5 12C370 10.3 370.2 9.3 370.2 9.10001C369.9 9.10001 369.5 10 368.5 11.7C364.7 18.7 363 25.6 363 32.1C363 37.4 364.5 40 367.6 40C370.7 40 372.9 36.4 374.1 29.2C374.3 29 374.3 28.7 374.1 28.5C374.1 28.4093 374.1 28.3598 374.081 28.3513C374.059 28.3411 374.009 28.3907 373.9 28.5ZM88.6 50.6C89 50.6 89.3 49.9 90 48.7C91 46.1 91.7 43.2 91.8 40.2C91.8 30.6 88 22.9 80.3 17.4C79.8 16.9 79.5 16.9 79.3 17.4L77.1 21.2C76.6 21.6 76.6 22.4 77.1 22.6C85.1 29.5 88.9 36.2 88.9 43.2C88.9 45.1 88.6 47 88.4 48.2C88.1 49.6 88.2 50.6 88.6 50.6ZM74.2 148.5C70.8 146.4 68.4 141.8 67.2 135.1C67 132.5 66.2 121.9 65.8 103.1C65.3 82.7 64.4 67.9 63.4 58.5C61.7 43.8 59.5 33.5 56.4 27.5C55.9 26.6 55.4 26.1 55.2 26.1C54.7 26.1 54.5 26.6 54 27.8C52.1 32.6 51.1 36.2 51.1 38.6C53.8 47.5 55.7 57.1 56.9 66.9C57.9 77.7 58.8 92.8 59.3 112C59.8 129 60.5 139.8 61.5 144.4C62.9 152.8 65.6 158.3 69.9 161.4C72.7 163.6 76.8 164.8 82.1 164.8L82.1 150.2C78.5 150.2 75.9 149.5 74.2 148.5ZM430.8 31.7C404.8 41.3 379.6 50.4 355.4 59.5C354.2 61.9 353.5 64.1 353 66.3C355.7 64.6 369.4 59.1 393.6 50.2C417.3 41.3 429.6 36.7 429.8 36.5C430.3 36.1 431 34.9 432 32.7C432.2 32 432.2 31.5 432 31.5C432 31.2866 431.747 31.3768 431.349 31.5186C431.188 31.5762 431.002 31.6423 430.8 31.7ZM482.4 74.4C482.4 71 483.6 66.5 486 60.7C486.5 59.3 486.7 58.1 486.7 57.3C486.7 55.9 485.7 54.4 483.3 53C484.5 49.9 485 47 485 44.4C485 41.6 484 39.9 482.6 39.4C480.7 38.6 478.3 39.6 475.4 42C472.5 44.6 471.1 47.5 471.1 50.6C471.1 53.2 473.2 55.6 477.8 58C474.4 61.6 467.5 66.4 457.4 72.2C449.7 76.6 442.3 80.9 434.6 85.2C433.2 86.1 432.7 86.6 432.7 87.1C432.7 87.1 432.7 87.3 432.9 87.3C433.4 87.3 434.1 87.1 435.3 86.6C436.5 85.9 441.8 84 450.7 80.4C455.5 78.4 460 76 464.6 73.4C471.3 69.3 476.6 64.5 480.4 59.5C482.5 60.7 483.5 61.6 483.5 62.1C483.5 62.3 482.7 64.5 481.3 68.8C479.9 73.1 479.4 76.5 479.4 79.1C479.4 84.4 480.9 87 484 87C486.9 87 489.1 83.4 490.5 76.2L490.5 75.5C490.5 75.3 490.3 75.3 490.3 75.3C490 75.5 490 75.8 489.8 76C488.1 78.9 486.7 80.6 485.5 80.6C483.4 80.6 482.4 78.5 482.4 74.4ZM480.9 47.5C481.2 48.9 481.2 50.4 480.7 51.8C477.1 50.2 475.2 48.7 475.1 47.4C475.1 47 475.5 46.5 476.5 46C477.5 45.5 478.2 45.3 478.7 45.3C479.9 45.3 480.7 46.1 480.9 47.5ZM106.3 83C106.8 83 108.3 82.5 110.9 81.8C113.3 81.1 115.4 79.9 117.7 78.3L128.5 67.5C133.6 62.7 138.6 60.5 143.4 60.5C144.1 60.5 145.1 60.7 146.3 61.2C147.5 61.7 148.7 61.9 149.4 61.9C152.2 61.9 155.1 60.2 158 57.3C161.6 59 164.2 59.3 165.9 58.3C166.4 57.9 167.1 56.7 167.8 54.5C168.5 52.6 169 50.8 169 49.2C169 47.6 168.6 46.1 167.6 45.4C167.308 45.2054 166.922 45.8627 165.98 47.464L165.9 47.6C165.2 48.6 165 49.3 165.2 49.8C165.7 51.4 165.9 52.4 165.9 52.4C165.9 52.6 165.7 52.6 165.2 52.6C161.6 52.6 159.7 52.3 160.2 51.6C160.7 50.2 160.9 49 160.9 48.5C160.9 48 160.9 47.8 160.7 47.8C160.2 47.8 159.5 48.2 159 49.2C158.1 50.7 157.1 51.9 156.4 53.3C155.2 54.8 153.7 55.5 151.8 55.5C150.8 55.5 149.6 55.3 148.4 54.8C146.9 54.3 145.7 54.1 145 54.1C141.4 54.1 138 55.3 134.4 57.9C131.5 59.8 128.9 62.4 126.5 65.3C122.9 69.7 120 72.8 118.1 74.7C114 77.8 111.1 79.7 109.2 80.9C107.3 82.1 106.3 82.8 106.3 82.8L106.3 83ZM324.9 50.4L321.1 58.3C320.2 57.4 318 55.7 314.9 53.8C311.8 51.6001 310.1 50.4 309.6 50.4C309.3 50.4 308.8 50.9 308.6 51.4L304 61C303.8 61.5 303.8 61.8 304 62C307.9 64.4 311.7 67 315.3 69.9C315.8 70.2 316.3 69.9 316.5 69.2C318 67 319.2 64.4 320.6 61.5C324.7 64.1 328.3 66.5 331.4 68.9C331.8 69.1 332.3 69.1 332.8 68.4C335.9 63.1 337.6 59.5 337.6 57.8C337.6 57.3 335.7 55.9 332.1 53.5C328.3 50.9 326.4 49.7 325.9 49.7C325.4 49.7 325.1 49.9 324.9 50.4ZM203.5 60.7C203.3 61.2 203.3 61.5 203.5 61.7C207.4 64.1 211.2 66.7 214.9 69.6C215.39 69.8942 215.592 69.6114 216.071 68.9403L216.1 68.9C219.4 63.6 221.1 60.3 221.1 58.6C221.1 58.1 219.1 56.6 215.3 54C211.7 51.6 209.6 50.4 209.1 50.4C208.8 50.4 208.3 50.6 208.1 51.1L203.5 60.7ZM403.6 67.4C401.5 64 399.1 62.6 396.2 62.6C396 62.6 395.3 63.4 394.2 65.2C393 67.2 392.5 68.4 392.5 68.6C392.5 69.3 393 70.3 394.4 71.5C395.9 72.7 396.8 73.4 397.8 73.4C398.5 73.4 398.8 73.1 399 72.9C399.3 72.4 399.5 72.4 400 72.4C401 72.4 402.2 74.6 404.1 79.4C406 84 406.9 87.1 406.7 88.8C406.9 89.8 406.9 90.5 407.4 90.5C407.9 90.5 408.4 89.8 409.1 88.8C409.8 87.2 410.8 84.3 411.5 80.2C413.2 71.1 414.9 66.5 416.8 66.5C417.7 66.5 418.7 66.9 419.4 67.9C420.4 68.9 420.9 69.6 421.1 69.6C421.5 69.6 422 68.8 422.5 67.4C423 66.4 423 65.5 423 65C423 64 422.6 63 421.6 61.6C420.6 60.1 419.4 59.4 418.2 59.4C416 59.4 414.1 61.6 412.2 65.9C410.5 72.2 409.3 77 408.8 80.1C408.8 80.6 408.6 80.9 408.6 81.1L408.4 81.1C408.4 80.8 408.4 80.6 408.2 80.1C407.4 74.8 405.8 70.5 403.6 67.4ZM14.1 75.1C12 71.7 9.60001 70.3 6.70001 70.3C6.5 70.3 5.8 71 4.7 72.9C3.5 74.9 3 76.1 3 76.3C3 77 3.5 78 4.89999 79.2C6.39999 80.4 7.29999 81.1 8.29999 81.1C8.99998 81.1 9.29999 80.8 9.49998 80.6C9.79999 80.1 9.99998 80.1 10.5 80.1C11.5 80.1 12.7 82.3 14.6 87.1C16.5 91.7 17.4 94.8 17.2 96.5C17.4 97.5 17.4 98.2 17.9 98.2C18.4 98.2 18.9 97.5 19.6 96.5C20.3 94.9 21.3 92 22 87.9C23.7 78.8 25.4 74.2 27.3 74.2C28.2 74.2 29.2 74.6 29.9 75.6C30.9 76.6 31.4 77.3 31.6 77.3C32 77.3 32.5 76.5 33 75.1C33.5 74.1 33.5 73.2 33.5 72.7C33.5 71.7 33.1 70.7 32.1 69.3C31.1 67.8 29.9 67.1 28.7 67.1C26.5 67.1 24.6 69.3 22.7 73.6C21 79.9 19.8 84.7 19.3 87.8C19.3 88.3 19.1 88.6 19.1 88.8L18.9 88.8C18.9 88.5 18.9 88.3 18.7 87.8C17.9 82.5 16.3 78.2 14.1 75.1ZM92.4 80.6C94.3 77.5 95.5 74.6 95.5 72C95.5 68.9 94.1 67.2 91.4 67.3C88.1 67.3 86.2 69.2 85.2 73.3C85 74.2 85 74.7 85 74.7C85 74.9 85.2 74.9 85.2 74.9C85.4 74.9 85.7 74.6 86.4 74.4C87.1 73.9 88 73.7 89 73.7C90.6 73.7 91.6 74.6 91.6 76.3C91.6 78.5 88.7 82.3 83.2 88.3C82.3 89.5 81.8 90 81.8 90.2L81.8 90.4C82 90.4 82.8 90 84.2 89C87.6 86.6 90.2 83.7 92.4 80.6ZM338.1 91.9C342 85.4 343.9 80.1 343.9 76.3C343.9 73 343.7 71.5 343.6 71.4C343.1 71.4 342.4 72.6 341.2 75.5C340 78.3 337.4 83.1 332.8 90.1C327.5 98.3 324.2 103.1 323.2 104.5C319.1 101.6 315.2 98 311.4 93.2C310.5 92 310 91.5 310 91.3C310 91 311.7 90.8 314.8 90.8C316.5 90.8 317.2 90.5 317.2 90.3L317.2 90.1C317.2 90.1 316.7 89.4 315.5 88.7C313.6 87.1 310.4 85.1 306.6 82.5C302.5 79.9 300.3 78.7 299.6 78.7C299.4 78.7 298.9 79.9 298.2 82.8C297.7 85.6 297.5 88 297.5 90.2C297.5 91.6 297.9 92.8 298.9 93.8C300.8 95.7 302 96.9 302.5 97.6C307.5 104.8 312.1 110.5 316.4 114.6C311.3 122.5 308.2 128.5 306.3 133.1C304.4 138.4 303.4 144.1 303.4 149.9C303.4 158.6 306.2 162.9 312 162.9C315.6 162.9 320 161.3 325 157.9C329.8 155.1 332.9 152.2 334.8 149.3C335.7 147.8 336.7 145.7 337.4 142.8C338.3 139.7 338.8 137.3 338.8 135.4C338.8 130.8 338.1 126.7 337.1 123.6C335.5 119.3 332.1 114.2 327.3 108.7C332.1 101.5 335.7 96 338.1 91.9ZM183.1 77.5C183.6 77.2 184.3 75.8 185.3 73.4C185.351 73.2204 185.409 73.054 185.46 72.9075C185.608 72.4829 185.697 72.2257 185.4 72.3001C185.4 72.1117 185.242 72.1599 184.877 72.2713C184.661 72.3374 184.372 72.4256 184 72.5001C168.6 78.0001 153.5 83.8001 138.4 89.3001C108.4 100.3 92.6 106.3 90.9 107.3C89.3 108.5 87.6 110.5 85.9 113.1C84.2 115.7 83.5 117.9 83.5 119.8C83.5 122.6 86.4 124.8 92.4 126C93.4 126 93.9 126 94.1 125.8C94.1 125.6 94.3 124.6 94.3 123.2C94.3 121.5 94.1 120.5 93.6 120.3C90.9 119.3 89 118.6 87.8 118.1C86.6 117.4 86.1 116.9 86.1 116.4C86.1 115.9 87.8 114.5 91.4 112.8C96 110.4 112.5 103.9 141.1 93.1C168.9 83 183.1 77.7 183.1 77.5ZM214.3 152.7C217.2 149.3 219.1 144.5 219.8 138.5C221 144.7 223.7 149.5 227.8 152.8C231.2 155.7 235.3 156.9 239.6 156.9L239.6 142.3C235.5 142.3 232.4 141.4 230.2 139.2C227.1 136 224.7 129.6 223 120.2C220.4 104.8 217.3 93.8 213.9 87.3C213.4 86.4 213.1 85.9 212.9 85.9C212.7 85.9 212.2 86.7 211.5 88.1C210 91.5 209.3 95.8 209.3 101.3C209.3 101.6 209.6 102.5 210.3 104.7C211.7 109.3 213.2 114.8 214.6 121.3C216 127.8 216.5 131.6 216.5 133.3C216.5 139.67 212.933 143.068 205.8 143.1L205.8 142.9C202.7 142.9 200.1 141.7 197.9 139.8C196 137.6 194.8 134.8 194.8 131.4C194.8 131.2 194.8 130.5 195 129.5C195 128.8 195.2 128.1 195.2 127.6C195.2 126.6 194.7 125.9 194.2 125.9C193.2 125.9 192.7 126.6 192 127.8C186.3 139.3 179.6 145.1 171.4 145.1C168.5 145.1 165.9 143.7 164.2 140.8C162.7 138.6 162 136.7 162 135C162 134.3 162.2 132.9 163.2 130.7C163.7 128.8 163.7 128.1 162.7 128.1C162.5 128.1 160.3 130.1 156.7 133.9C152.6 138.3 150.5 140.7 150 140.9C144.5 145.4 138.7 147.6 132.7 147.6C128.6 147.6 125 146.6 122.5 144.5C119.8 142.6 118.4 140 118.4 136.6C118.4 135.2 118.7 133.5 119.4 131.6C119.9 130 119.4 129.2 118.2 129C117.3 129.2 116.6 129.4 115.6 130.4C108 138.1 103.2 142.7 101 144.1C95.7 148 89.5 149.9 82.3 149.9L82.3 164.5C89 164.5 95.5 161.8 101.7 156.3C103.1 155.1 106.3 151.8 111.3 146C112.1 145.1 112.8 144.8 113.5 144.6C114 144.9 114.2 145.1 114.2 145.6C114.4 150.2 115.4 153.8 116.8 156.2C119.4 160.1 123.8 162 130 162C135.7 162 141.5 159.3 147.5 154.3C151.1 150.9 153.8 147.8 155.7 144.7C156.2 144 156.5 143.5 156.7 143.5C156.7 143.5 156.9 144 156.9 144.7C158.6 154.6 163.1 159.6 170.8 159.6C178.5 159.6 184.5 154.1 188.8 143.3C189.3 142.1 189.8 142.1 190 143.3C193.285 152.656 198.551 157.455 205.7 157.5L205.7 157.7C208.8 157.7 211.7 156.1 214.3 152.7ZM363.6 109.7C363.1 107.5 362.4 105.9 361.4 104.7C360.7 103.3 360.2 102.5 360 102.1C360 101.6 360 99.9 360.5 96.6C361 93.5 361.2 91.3 361.7 90.1C361.9 88.9 362.2 88.4 362.7 88.4C362.9 88.4 363.2 88.6 363.7 89.1C367.1 92.9 370.7 96.8 374.7 100.9C376.4 102.6 377.1 103.5 377.1 104C377.1 104.2 376.9 104.5 376.4 104.5C375.7 104.5 373.8 104 370.9 103.3C372.6 107.4 374.5 111.5 376.2 115.3C378.8 122 380.3 127.5 380.3 132.6C380.3 135 379.8 137.9 378.9 141.5C377.7 145.6 376.3 148.7 374.3 150.9C368.523 157.42 359.544 164.485 347.251 171.982C347.823 174.721 348.839 177.209 350.3 179.4C354.1 184.4 360.1 187.1 368.5 187.1C375.7 187.1 384.3 184 394.7 177.7C402.9 172.7 410.8 166.7 418.5 159.5C425.5 152.6 429.1 148.3 429.1 146.2C429.1 144.8 428.6 143.1 428.1 141.4C425.2 142.4 420.9 143.1 415.6 143.1C404.1 143.1 398.3 139 398.3 131.1C398.3 125.1 400 119.8 403.8 115C407.4 110.9 411.2 108.8 415.3 108.8C418.4 108.8 421.5 110.7 425.1 114.3C428.2 117.9 431.1 122 433.5 127C433.7 127 434.2 127 435.2 126.5L435.2 139.7L434.7 140.2C434.7 143.1 434 146.4 432.5 150.8C430.8 156.3 428.2 160.9 425.1 164.5C417.9 173.1 410 180.6 401.3 187.1C388.3 196.7 377.3 201.7 367.7 201.7C359.5 201.7 353.3 198.6 349 192.6C345.44 187.916 343.46 181.653 343.224 174.385C341.853 175.185 340.445 175.99 339 176.8C324.6 185.2 316.2 189.3 313.6 189.3C313.1 189.3 305.9 191 292.2 194.3C277.8 197.7 268.7 199.8 265.1 200.3C261.3 201 258.9 201.3 257.9 201.3C257.4 201.3 257.4 201.3 257.4 201.1C257.4 200.9 260 199.4 265.3 197C267.2 196 278.3 191.2 298.7 182.6C312.9 176.6 324.6 171.1 334 166C337.659 164.016 341.092 162.098 344.3 160.25C345.327 154.198 347.054 148.035 349.4 141.7C350.6 139.3 351.1 138.3 351.6 138.3C351.8 138.3 351.8 138.5 351.8 139C351.8 139.7 351.6 140.9 351.3 142.4C349.471 148.656 348.198 153.971 347.463 158.408C355.236 153.827 361.549 149.706 366.4 146.1C371.9 141.8 374.8 138.7 374.8 136.7C374.8 136.2 373.4 132.9 370.5 126.6C367.2 119.5 364.8 113.8 363.6 109.7ZM179.3 109.9C181.2 106.8 182.4 103.9 182.4 101.3C182.4 98.2 181 96.5 178.3 96.6C175 96.6 173.1 98.5 172.1 102.6C171.9 103.5 171.9 104 171.9 104C171.9 104.2 172.1 104.2 172.1 104.2C172.3 104.2 172.6 103.9 173.3 103.7C174 103.2 174.9 103 175.9 103C177.5 103 178.5 103.9 178.5 105.6C178.5 107.8 175.6 111.6 170.1 117.6C169.2 118.8 168.7 119.3 168.7 119.5L168.7 119.7C168.9 119.7 169.7 119.3 171.1 118.3C174.5 115.9 177.1 113 179.3 109.9ZM461.3 111.4C460.6 111.4 459.6 111.8 458.4 112.8C454.6 116.2 450.7 119 446.8 121C445.6 121.8 441.5 123.7 435.3 126.8L435.3 140C443.7 136.1 450.2 132.1 454 127.5C454 138.5 458.8 144.3 468.9 144.3C477.3 144.3 484.2 139.5 489.5 129.9C492.7 135.7 496.3 138.8 500.1 138.8C505.9 138.8 510.2 136.2 513.1 130.9C515.8 126.5 517.2 121.5 517.2 115.5C517.2 111.6 516 108.3 514.1 105.4C513.4 104.4 512.9 104.2 512.4 104.2C511.9 104.2 511.4 105 511.2 106.4C509.8 110.9 508.8 114.3 508.6 116.2C510.7 119.8 511.7 121.8 511.7 122C510.7 123.6 508.6 124.6 505.2 124.6C502.6 124.6 500.2 123.6 498.5 122.2C496.6 120.8 495.6 119.1 495.6 117.4C495.6 117.9 496.3 116 497.3 111.9C497.8 109.8 497.6 108.8 496.6 108.8C495.9 108.8 495.2 109.2 494.2 110.2C491.8 114.1 489.2 117.9 486.8 122C482.9 127.1 477.9 129.7 471.9 129.7C464.4 129.7 460.6 126.8 460.6 121.5C460.6 120.3 460.8 118.8 461.3 116.9C461.8 115 462 113.5 462 112.8C462 111.9 461.8 111.4 461.3 111.4ZM146.4 118.3C148.3 115.2 149.5 112.3 149.5 109.7C149.5 106.6 148.1 104.9 145.4 105C142.1 105 140.2 106.9 139.2 111C139 111.9 139 112.4 139 112.4C139 112.6 139.2 112.6 139.2 112.6C139.4 112.6 139.7 112.3 140.4 112.1C141.1 111.6 142 111.4 143 111.4C144.6 111.4 145.6 112.3 145.6 114C145.6 116.2 142.7 120 137.2 126C136.3 127.2 135.8 127.7 135.8 127.9L135.8 128.1C136 128.1 136.8 127.7 138.2 126.7C141.6 124.3 144.2 121.4 146.4 118.3ZM41.7 141.8C44.1 137.7 45.1 135.3 45.1 134.6C45.1 133.9 44.9 133.4 44.2 133.5C43.2 133.5 41 134.5 37.2 136.4C32.9 138.5 29.8 139.7 27.6 140.2C24 140.2 20.6 139.2 17 137.3C13.9 135.4 12.2 134 12.2 133C12.2 132.3 13.6 131.3 16.5 129.9C19.4 128.7 21.5 128 23.2 128C24.2 128 25.1 128.9 26.1 130.6C26.8 132.5 27.6 133.5 27.8 133.5C28.8 133.5 29.8 132.5 31.2 130.6C32.7 128.7 33.4 126.5 33.4 124.6C33.4 122.4 32.7 120.5 31.5 119.3C30.5 117.8 29.1 117.1 27.4 117.1C24.2 117.1 19.9 119.8 14.4 124.8C8.7 130.1 5.8 134.9 5.8 139.2C5.8 141.6 6.8 143.7 8.7 145.4C9.39999 146.2 11.1 147.1 13.7 148.8C9.90001 151.4 7.5 153.3 6.3 154.3C3.90001 159.1 2.90001 161.9 2.90001 162.9C2.90001 163.4 2.90001 163.6 3.40001 163.6C3.80002 163.6 5.30002 163.1 7.20001 161.7C13.4 157.9 20.9 153.6 29.5 149C35.9 145.4 40 143 41.7 141.8ZM321.2 119.3C327.4 124.6 332 130.1 334.6 135.4C334.8 136.1 334.3 137 332.9 138.5C329.5 141.8 325.4 144.5 321.1 146.4C318 147.6 315.6 148.3 313.7 148.3C309.4 148.3 307.5 146.9 307.5 144C307.5 141.9 309.2 137.8 313 131.3C316.4 125.5 319 121.5 321.2 119.3ZM412.1 121.9C415 121.9 418.1 124 421.7 128.6C419 129.1 416.6 129.6 414.5 129.6C408.8 129.6 405.9 128.2 405.9 125.3C405.9 122.9 407.8 121.9 412.1 121.9ZM48.5 152.1C32.4 158.1 16.8 163.9 1.90001 169.4C1 171.4 0.199997 173 0 174.7C18.3 167.3 34.4 161 47.8 156C48.3 155.5 48.8 154.6 49.5 152.9C49.5785 152.586 49.6569 152.365 49.7113 152.211C49.7954 151.974 49.8215 151.9 49.7 151.9C49.5638 151.696 49.3812 151.77 49.0575 151.901C48.9059 151.962 48.7233 152.036 48.5 152.1ZM443 193.4C443.5 193.4 445 192.9 447.6 192.2C450 191.5 452.2 190.3 454.4 188.7L465.2 177.9C470.3 173.1 475.3 170.9 480.1 170.9C480.8 170.9 481.8 171.1 483 171.6C484.2 172.1 485.4 172.3 486.1 172.3C488.9 172.3 491.8 170.6 494.7 167.7C498.3 169.4 500.9 169.7 502.6 168.7C503.1 168.3 503.8 167.1 504.5 164.9C505.2 163 505.7 161.3 505.7 159.6C505.7 158 505.3 156.5 504.3 155.8C504.008 155.605 503.622 156.263 502.68 157.864L502.6 158C501.9 159 501.7 159.7 501.9 160.2C502.4 161.8 502.6 162.8 502.6 162.8C502.6 163 502.4 163 501.9 163C498.3 163 496.4 162.7 496.9 162C497.4 160.6 497.6 159.4 497.6 158.9C497.6 158.4 497.6 158.2 497.4 158.2C496.9 158.2 496.2 158.6 495.7 159.6C494.8 161.1 493.8 162.3 493.1 163.7C491.9 165.2 490.4 165.9 488.5 165.9C487.5 165.9 486.3 165.7 485.1 165.2C483.6 164.7 482.4 164.5 481.7 164.5C478.1 164.5 474.7 165.7 471.1 168.3C468.2 170.2 465.6 172.8 463.2 175.7C459.6 180.1 456.7 183.2 454.8 185.1C450.7 188.2 447.8 190.1 445.9 191.3C444 192.5 443 193.2 443 193.2L443 193.4ZM154.3 190.3C153.5 185 151.9 180.7 149.7 177.6C147.6 174.2 145.2 172.8 142.3 172.8C142.1 172.8 141.4 173.5 140.3 175.4C139.1 177.4 138.6 178.6 138.6 178.8C138.6 179.5 139.1 180.5 140.5 181.7C142 182.9 142.9 183.6 143.9 183.6C144.6 183.6 144.9 183.3 145.1 183.1C145.4 182.6 145.6 182.6 146.1 182.6C147.1 182.6 148.3 184.8 150.2 189.6C152.1 194.2 153 197.3 152.8 199C153 200 153 200.7 153.5 200.7C154 200.7 154.5 200 155.2 199C155.9 197.4 156.9 194.5 157.6 190.4C159.3 181.3 161 176.7 162.9 176.7C163.8 176.7 164.8 177.1 165.5 178.1C166.5 179.1 167 179.8 167.2 179.8C167.6 179.8 168.1 179 168.6 177.6C169.1 176.6 169.1 175.7 169.1 175.2C169.1 174.2 168.7 173.2 167.7 171.8C166.7 170.3 165.5 169.6 164.3 169.6C162.1 169.6 160.2 171.8 158.3 176.1C156.6 182.4 155.4 187.2 154.9 190.3C154.9 190.8 154.7 191.1 154.7 191.3L154.5 191.3C154.5 191 154.5 190.8 154.3 190.3ZM107.7 189.8C107.7 189.8 107.5 190.1 107.5 190.3C105.8 193.2 104.4 194.9 102.8 194.9C100.7 194.9 99.7 192.7 99.7 188.9C99.7 185.8 100.9 180.7 103.3 173.3C103.8 171.6 104 170.6 104 170.4C103.7 170.4 103.3 171.3 102.3 173C98.5 180 96.8 186.9 96.8 193.4C96.8 198.7 98.3 201.3 101.4 201.3C104.5 201.3 106.7 197.7 107.9 190.5C108.1 190.3 108.1 190 107.9 189.8C107.9 189.709 107.9 189.66 107.881 189.651C107.859 189.641 107.809 189.691 107.7 189.8ZM253.4 171.6C233.3 179.1 214.1 186.3 195.6 193C194.4 195.4 193.7 197.5 193.1 199.7C215.7 190.3 235.6 182.6 252.4 176.4C252.9 176 253.6 174.8 254.6 172.6C254.8 171.9 254.8 171.4 254.8 171.4C254.651 171.176 254.335 171.286 253.894 171.439C253.744 171.492 253.578 171.549 253.4 171.6ZM67 185C68.9 181.9 70.1 179 70.1 176.4C70.1 173.3 68.6 171.6 66 171.7C62.7 171.7 60.8 173.6 59.8 177.7C59.6 178.6 59.6 179.1 59.6 179.1C59.6 179.3 59.8 179.3 59.8 179.3C60 179.3 60.3 179 61 178.8C61.7 178.3 62.6 178.1 63.6 178.1C65.2 178.1 66.2 179 66.2 180.7C66.2 182.9 63.3 186.7 57.8 192.7C56.9 193.9 56.4 194.4 56.4 194.6L56.4 194.8C56.6 194.8 57.4 194.4 58.8 193.4C62.2 191 64.8 188.1 67 185Z" id="Group" fill="#595959" fill-rule="evenodd" stroke="none" clip-path="url(#clip_1)" />
  </g>
</svg>