<?xml version="1.0" encoding="utf-8"?>
<svg width="523.7001px" height="204.4px" viewBox="0 0 523.7001 204.4" version="1.1" xmlns:xlink="http://www.w3.org/1999/xlink" xmlns="http://www.w3.org/2000/svg">
  <defs>
    <path d="M523.7 0L523.7 0L523.7 204.4L0 204.4L0 0L523.7 0Z" id="path_1" />
    <clipPath id="clip_1">
      <use xlink:href="#path_1" clip-rule="evenodd" fill-rule="evenodd" />
    </clipPath>
  </defs>
  <g id="Surah_25_of_114_(modified)">
    <path d="M523.7 0L523.7 0L523.7 204.4L0 204.4L0 0L523.7 0Z" id="Surah_25_of_114_(modified)" fill="none" stroke="none" />
    <path d="M133.7 128C134.9 134.7 137.3 139.3 140.4 141.4C142.3 142.4 145 143.1 148.6 143.1L148.6 143.2C154.377 143.184 161.044 141.783 168.7 138.9C176.9 136 182.9 132.7 187.2 128.6C187.2 126.2 185.5 124 181.9 122.4C178.5 120.7 175.2 120 171.6 120L162 120C158.4 120 155.5 118.8 153.4 116.4C151.2 114 150.3 111.1 150.3 107.5C150.3 102.5 152 97.4 155.6 92.1C159 87.1 162.6 84.7 166.2 84.7C172.2 84.7 178 88.1 183.2 94.8C188.6 102.1 191.5 110.8 191.5 121.1C191.5 130.2 188.6 137.7 183.1 143.4C173.5 153 162 157.8 148.5 157.8L148.5 157.7C143.248 157.685 139.182 156.486 136.4 154.3C133.753 152.391 131.712 149.573 130.207 145.729C129.421 148.326 128.063 152.231 126.2 157.4C122.8 166.3 121.2 173 121.2 178C121.2 181.8 122.2 185 124.1 187.1C126 189.7 128.7 190.9 132 190.9C138 190.9 144.2 187.8 150.2 181.8C154.3 177.5 158.1 172.7 162 168.1C167 162.3 173.8 157.3 182.2 152.7C187 150.1 195.4 146.2 207.4 141.2L207.4 141.458L219.1 136.5C217.4 131.7 216.7 126.9 216.7 122.1C216.7 114.9 217.7 108.9 219.8 104.6C222 99.9999 224.8 97.8999 228.4 97.8999C231.5 97.8999 234.6 100.5 237.3 105.8C239.9 110.4 241.1 114.7 241.1 118.5C241.1 128.1 238.2 136 232.7 142.3C236.5 146.4 241.3 148.5 247.1 148.5L247.1 163.1C241.633 163.071 236.165 160.671 230.4 155.9C227.5 153.5 225.1 150.6 223.4 147.7L207.3 154.7L207.3 154.444C199.652 157.821 194.184 160.207 190.6 161.8C183.2 165.4 178.1 168 175.5 170.2C170.5 174 163 181.5 153.4 192.5C147.6 199.2 141.9 202.6 136.1 202.6C131.3 202.6 127 200.4 123.4 195.9C119.6 191.6 117.9 185.8 117.9 179.3C117.9 170.4 121.5 158.7 128.9 144C129.047 143.706 129.194 143.439 129.339 143.2C128.804 141.418 128.359 139.454 128 137.3C127 132 126.1 116.9 125.4 91.5C124.4 64.1 123.7 47.3 123.2 41.1C122 31 120.1 21.7 117.4 12.5C117.4 10.1 118.4 6.7 120.3 1.89999C120.8 0.699997 121 0 121.5 0C121.7 0 122.2 0.699997 122.7 1.7C125.8 7.7 128 18 129.7 32.4C130.7 41.5 131.6 59.5 132.3 86.4C132.7 111.7 133.4 125.6 133.7 128ZM247.1 163.1C247.133 163.1 247.167 163.1 247.2 163.1L247.1 163.1L247.1 163.1ZM277.9 26.8C277.9 22 277.2 18.2 275.7 15C275.7 13.3 276.9 9.19995 279.8 2.99995C280 2.29996 280.3 1.79996 280.5 1.79996C281 1.79996 281.2 2.29996 281.7 2.99995C282.4 4.69995 284.1 9.19995 287 16.7C290.1 24.5999 291.8 29.3999 292.3 31.3C292.8 32.5 292.8 33.7 292.8 34.2C292.8 36.3999 290.9 35.2 286.6 30.3999C286.1 29.6999 285.9 30.1999 285.9 31.3999C285.9 31.8999 287.1 46.7999 289.3 76.4999C291.5 106 292.4 122.6 292.4 126.4C292.4 137.7 290.7 147.8 287.4 156.4C286.4 158.1 286 159.3 285.5 160.2C284.8 161.4 284.5 161.4 284.3 160.7C284.129 159.846 284.25 158.335 284.414 156.293C284.442 155.944 284.471 155.579 284.5 155.2C285 151.1 285.2 146.6 285.2 141.5C285.2 136.7 284 117.5 281.6 83.6999C279.1 49.8 277.9 30.8 277.9 26.8ZM203.5 2.99997C183.4 10.5 164.2 17.7 145.7 24.4C144.5 26.8 143.7 28.9 143.2 31.1C165.8 21.7 185.7 14 202.5 7.79997C203 7.39996 203.7 6.19997 204.7 3.99997C204.9 3.29997 204.9 2.79997 204.9 2.79997C204.751 2.5764 204.435 2.68606 203.994 2.83921C203.844 2.89157 203.678 2.94902 203.5 2.99997ZM235.9 3.89996C235.2 3.89996 234.2 4.39996 233.5 5.59996C230.1 12.1 227.7 19.1 226.6 26.8C226.4 27.7 226.4 28.7 226.4 29.4C226.4 33.2 227.8 35.4 231.2 35.4C234.6 35.4 237.2 33.7 239.6 30.8C240.3 29.8 240.8 27.2 241.3 23.1C241.5 19.5 239.1 15.7 234.1 12.1C234.8 9.69997 235.7 7.29996 236.7 5.09996C236.7 4.79996 236.9 4.59996 236.9 4.59996C236.9 4.09996 236.4 3.89996 235.9 3.89996ZM328.8 17.4C328.8 20 330.9 22.4 335.5 24.8C332.1 28.4 327.1 32.3 320.1 36.5C314.1 39.8 308.4 43.2 302.6 46.8C301.2 47.5 300.7 48.3 300.7 48.5C300.7 48.5 300.7 48.7 300.9 48.7C301.1 48.7 302.1 48.5 303.3 48C311 45.2 315.3 43.5 316.3 43C319.9 41.6 323.9 38.9 328.5 35.8C332.3 32.9 335.5 29.8 338.1 26.2C340.3 27.4 341.7 28.6 342.2 29.6C344.3 26.8 345.3 24.6 345.3 23.4C344.8 22.4 343.4 21.2 341 20C342.2 16.6 342.7 13.7 342.7 11.1C342.7 8.29997 342 6.59998 340.3 6.09998C338.4 5.39996 336 6.39996 333.1 8.99997C330.2 11.4 328.8 14.3 328.8 17.4ZM270.2 119.4C270.2 133.6 267.6 144.6 262.5 152.8C258.2 159.5 253.1 163.1 247.4 163.1L247.4 148.4C252 148.4 256.5 146.5 260.8 142.9C262 141.9 262.7 137.9 262.7 131.1C262.7 127 261.5 110.5 259.3 81.7C257.1 52.9 256.2 35.9 256.2 30.6C256.2 26 255.5 22.2 254 19.1C254 17.4 255.4 13.3 258.1 6.89998C258.3 6.19998 258.6 5.89998 259.1 5.89998C259.3 5.89998 259.6 6.09998 260.1 7.09998C260.8 8.79997 262.7 13.3 265.6 20.8C268.5 28.7 270.2 33.5 270.9 35.2C271.1 36.6 271.4 37.8 271.4 38.3C271.4 40.5 269.2 39.3 265.2 34.5C264.7 34 264.5 34.3 264.5 35.5C264.5 35.7 265.5 48.7 267.4 74.1C269.3 99.2 270.2 114.4 270.2 119.4ZM338.6 14.3C338.9 15.7 338.9 17.2 338.4 18.6C334.8 16.9 332.9 15.5 332.8 14.2C332.8 13.8 333.2 13.3 334.2 12.8C335.2 12.3 335.9 12.1 336.4 12.1C337.6 12.1 338.4 12.9 338.6 14.3ZM380.1 31.5C380.1 31.5 379.9 31.8 379.9 32C378.2 34.9 376.8 36.6 375.2 36.6C373.1 36.6 372.1 34.4 372.1 30.6C372.1 27.5 373.3 22.4 375.7 15C376.2 13.3 376.4 12.3 376.4 12.1C376.1 12.1 375.7 13 374.7 14.7C370.9 21.7 369.2 28.6 369.2 35.1C369.2 40.4 370.7 43 373.8 43C376.9 43 379.1 39.4 380.3 32.2C380.5 32 380.5 31.7 380.3 31.5C380.3 31.4093 380.3 31.3597 380.281 31.3513C380.259 31.3411 380.209 31.3906 380.1 31.5ZM100.3 37.6C100.3 37.4 100.5 37.1 100.5 37.1C100.609 36.9905 100.659 36.9411 100.681 36.9513C100.7 36.9597 100.7 37.0093 100.7 37.1C100.9 37.3 100.9 37.6 100.7 37.8C99.5 45 97.3 48.6 94.2 48.6C91.1 48.6 89.6 46 89.6 40.7C89.6 34.2 91.3 27.3 95.1 20.3C96.1 18.6 96.5 17.7 96.8 17.7C96.8 17.9 96.6 18.9 96.1 20.6C93.7 28 92.5 33.1 92.5 36.2C92.5 40 93.5 42.2 95.6 42.2C97.2 42.1 98.6 40.4 100.3 37.6ZM231.4 18.6C236.4 21.4 238.8 23.6 238.8 24.8C238.3 25.8 237.1 26.8 235.5 27.5C233.8 28.3999 232.4 28.8999 231.2 28.8999C229.7 28.8999 229 27.8999 229 26.5C229 24.1 229.7 21.5 231.4 18.6ZM207.3 50C202.7 47.6 200.6 45.2 200.6 42.6C200.6 39.5 202 36.6 204.9 34.2C207.8 31.6 210.2 30.6 212.1 31.3C213.8 31.8 214.5 33.5 214.5 36.3C214.5 38.9 214 41.8 212.8 45.2C215.2 46.4 216.6 47.6 217.1 48.6C217.1 49.8 216.1 52 214 54.8C213.5 53.8 212.1 52.6 209.9 51.4C207.3 55 204.1 58.1 200.3 61C195.7 64.1 191.7 66.8 188.1 68.2C187.1 68.7 182.8 70.4 175.1 73.2C173.9 73.7 172.9 73.9 172.7 73.9C172.5 73.9 172.5 73.7 172.5 73.7C172.5 73.5 173 72.7 174.4 72C180.2 68.4 185.9 65 191.9 61.7C198.9 57.5 204 53.6 207.3 50ZM361.9 62.5C386.1 53.4 411.3 44.3 437.3 34.7C437.502 34.6422 437.688 34.5761 437.849 34.5185C438.247 34.3767 438.5 34.2866 438.5 34.5C438.7 34.5 438.7 35 438.5 35.7C437.5 37.9 436.8 39.1 436.3 39.5C436.1 39.7 423.8 44.3 400.1 53.2C375.9 62.1 362.2 67.6 359.5 69.3C360 67.1 360.7 64.9 361.9 62.5ZM67.9 83.9C68.4 80.5 69.6 76.7 71.5 71.9C72.9 68.3 73.7 64.7 73.7 61.1C73.7 54.1 70.3 47.7 63.9 41.2C63.4 40.7 63.4 40.2 63.9 39.8L66.1 36C66.3 35.5 66.6 35.5 67.1 36C73.3 41 76.7 48.5 76.7 58.3C76.7 62.9 75.5 67.9 73.6 72.9C71.4 78.2 70.5 81.8 70.5 83.7C70.5 87.8 71.5 89.9 73.6 89.9C75 89.9 76.5 88.2 78.2 85.3C78.2 85.1 78.4 84.8 78.4 84.8C78.5093 84.6907 78.5589 84.6411 78.5813 84.6513C78.6 84.6597 78.6 84.7093 78.6 84.8L78.6 85.5C77.4 92.7 75.2 96.3 72.1 96.3C69.2 96.3 67.5 93.2 67.5 87.4C67.4207 86.5284 67.5926 85.594 67.7669 84.6466C67.8126 84.3983 67.8584 84.1492 67.9 83.9ZM210.2 43.8C210.7 42.4 210.7 40.9 210.4 39.5C210.2 38.1 209.4 37.3 208.2 37.3C207.7 37.3 207 37.5 206 38C205 38.5 204.6 39 204.6 39.3999C204.7 40.7 206.6 42.1 210.2 43.8ZM162.9 49.3L166.7 41.4C166.9 40.9 167.2 40.7 167.7 40.7C168.2 40.7 170.1 41.9 173.9 44.5C177.5 46.9 179.4 48.3 179.4 48.8C179.4 50.5 177.7 54.1 174.6 59.4C174.1 60.1 173.6 60.1 173.2 59.9C170.1 57.5 166.5 55.1 162.4 52.5C161 55.4 159.8 58 158.3 60.2C158.1 60.9 157.6 61.2 157.1 60.9C153.5 58 149.7 55.4 145.8 53C145.6 52.8 145.6 52.5 145.8 52L150.4 42.4C150.6 41.9 151.1 41.4 151.4 41.4C151.9 41.4 153.6 42.6 156.7 44.8C159.8 46.7 162 48.4 162.9 49.3ZM492.5 63.5C490.1 69.3 488.9 73.8 488.9 77.2C488.9 81.3 489.9 83.4 492 83.4C493.2 83.4 494.6 81.7 496.3 78.8C496.5 78.6 496.5 78.3 496.8 78.1C496.8 78.1 497 78.1 497 78.3L497 79C495.6 86.2 493.4 89.8 490.5 89.8C487.4 89.8 485.9 87.2 485.9 81.9C485.9 79.3 486.4 75.9 487.8 71.6C489.2 67.3 490 65.1 490 64.9C490 64.4 489 63.5 486.9 62.3C483.1 67.3 477.8 72.1 471.1 76.2C466.5 78.8 462 81.2 457.2 83.2C448.3 86.8 443 88.7 441.8 89.4C440.6 89.9 439.9 90.1 439.4 90.1C439.2 90.1 439.2 89.9 439.2 89.9C439.2 89.4 439.7 88.9 441.1 88C448.8 83.7 456.2 79.4 463.9 75C474 69.2 480.9 64.4 484.3 60.8C479.7 58.4 477.6 56 477.6 53.4C477.6 50.3 479 47.4 481.9 44.8C484.8 42.4 487.2 41.4 489.1 42.2C490.5 42.7 491.5 44.4 491.5 47.2C491.5 49.8 491 52.7 489.8 55.8C492.2 57.2 493.2 58.7 493.2 60.1C493.2 60.8 492.9 62 492.5 63.5ZM487.2 54.6C487.7 53.2 487.7 51.7 487.4 50.3C487.2 48.9 486.4 48.1 485.2 48.1C484.7 48.1 484 48.3 483 48.8C482 49.3 481.6 49.8 481.6 50.2C481.7 51.5 483.6 52.9 487.2 54.6ZM331.4 53.4L327.6 61.3C326.6 60.4 324.5 58.7 321.4 56.8C318.3 54.6 316.6 53.4 316.1 53.4C315.8 53.4 315.3 53.9 315.1 54.4L310.5 64C310.3 64.5 310.3 64.8 310.5 65C314.4 67.4 318.2 70 321.8 72.9C322.3 73.2 322.8 72.9 323 72.2C324.5 69.9999 325.7 67.3999 327.1 64.4999C331.2 67.0999 334.8 69.4999 337.9 71.8999C338.3 72.0999 338.8 72.0999 339.3 71.3999C342.4 66.0999 344.1 62.4999 344.1 60.7999C344.1 60.2999 342.2 58.8999 338.6 56.4999C334.8 53.9 332.9 52.7 332.4 52.7C331.9 52.7 331.6 52.9 331.4 53.4ZM37.7 70.6C37.5 71.1 37.5 71.4 37.7 71.6C41.5 74 45.3 76.7 49.1 79.5C49.5903 79.7941 49.7921 79.5114 50.2712 78.8403L50.3 78.8C53.6 73.5 55.3 70.2 55.3 68.5C55.3 68 53.3 66.5 49.5 63.9C45.9 61.5 43.8 60.3 43.3 60.3C43 60.3 42.5 60.5 42.3 61L37.7 70.6ZM410.1 70.2C408 66.8 405.6 65.4 402.7 65.4C402.5 65.4 401.7 66.1 400.7 68C399.5 70 399 71.2 399 71.4C399 72.1 399.5 73.1 400.9 74.3C402.4 75.5 403.3 76.2 404.3 76.2C405 76.2 405.3 75.9 405.5 75.7C405.8 75.2 406 75.2 406.5 75.2C407.5 75.2 408.7 77.4 410.6 82.2C412.5 86.8 413.4 89.9 413.2 91.6C413.4 92.6 413.4 93.3 413.9 93.3C414.4 93.3 414.9 92.6 415.6 91.6C416.3 90 417.3 87.1 418 83C419.7 73.9 421.4 69.3 423.3 69.3C424.2 69.3 425.2 69.7 425.9 70.7C426.9 71.7 427.4 72.4 427.6 72.4C428 72.4 428.5 71.5999 429 70.2C429.5 69.2 429.5 68.3 429.5 67.8C429.5 66.8 429.1 65.8 428.1 64.4C427.1 62.9 425.9 62.2 424.7 62.2C422.5 62.2 420.6 64.4 418.7 68.7C417 75 415.8 79.8 415.3 82.9C415.3 83.4 415.1 83.7 415.1 83.9L414.9 83.9C414.9 83.6 414.9 83.4 414.7 82.9C413.9 77.5999 412.3 73.3 410.1 70.2ZM214.1 76.7C213.9 76.4999 213.9 76.2 214.1 75.7L218.7 66.0999C218.9 65.5999 219.4 65.3999 219.7 65.3999C220.2 65.3999 222.3 66.5999 225.9 68.9999C229.7 71.5999 231.7 73.0999 231.7 73.5999C231.7 75.3 230 78.5999 226.7 83.8999L226.671 83.9403C226.192 84.6114 225.99 84.8941 225.5 84.5999C221.7 81.7 217.9 79.1 214.1 76.7ZM112.8 136C116.8 131.2 119 124.2 119 115.1C119 110.5 117.3 105 114.1 99C110.3 91 108.1 86.7 107.9 86C110.6 86.7 112.5 87.2 113.7 87.2C114.9 87.2 115.4 86.9 115.4 86.2C115.4 85.5 115 84.8 114 83.8C108 77.8 103.9 73.8 102 71.6C101.6 71.1 101.1 70.9 100.6 70.9C100.1 70.9 99.8 71.4 99.6 72.6C98.4 79.1 97.7 82.7 97.7 83.4C97.7 84.3 98.1 85 99.1 86C99.8 86.7 100.8 88.1 101.5 90.3C103.2 97 105.8 103.9 109.4 110.9C112.5 116.9 114.2 120 114.2 120.5C114.2 122.9 110.4 126.9 103.2 132.7C95 138.9 85.9 144.2 75.6 148.5C63.1 153.8 51.1 156.4 39.8 156.4C27.1 156.4 17.2 152.1 10.5 143.9C5.5 137.5 3.10001 130.7 3.10001 123.3C3.10001 121.1 3.5 117.8 4.5 113.2C5 110.8 5.5 108.2 6.2 105.8C6.25553 105.504 6.30078 105.228 6.33448 104.976C9.20618 104.651 11.2568 101.059 12.4 94.2C12.6 94 12.6 93.7 12.4 93.5C12.4 93.4093 12.4 93.3597 12.3813 93.3513C12.3589 93.3411 12.3093 93.3906 12.2 93.5C12.2 93.5 12 93.8 12 94C10.3 96.8 8.89998 98.5 7.29997 98.6C5.19997 98.6 4.19997 96.4 4.19997 92.6C4.19997 89.5 5.39998 84.4 7.79997 77C8.29997 75.3 8.49997 74.3 8.49997 74.1C8.19997 74.1 7.79997 75 6.79997 76.7C2.99997 83.7 1.29997 90.6 1.29997 97.1C1.29997 101.519 2.34291 104.061 4.48676 104.784C4.42607 104.885 4.36387 104.99 4.3 105.1C2.89999 109.2 1.7 114 0.699997 119.5C0.199997 123.3 0 126.9 0 130.5C0 136 0.5 140.3 1.89999 143.9C8.79999 161.9 21.6 171 39.8 171C53.7 171 68.4 166.4 84.2 157.8C96.7 150.6 106.3 143.4 112.8 136ZM350.4 79.3C350.4 83.0999 348.5 88.4 344.6 94.9C342.2 99 338.6 104.5 333.8 111.7C338.6 117.2 342 122.3 343.6 126.6C344.6 129.7 345.3 133.8 345.3 138.4C345.3 140.3 344.8 142.7 343.9 145.8C343.2 148.7 342.2 150.8 341.3 152.3C339.4 155.2 336.3 158.1 331.5 160.9C326.5 164.3 322.1 165.9 318.5 165.9C312.7 165.9 309.9 161.6 309.9 152.9C309.9 147.1 310.9 141.4 312.8 136.1C314.7 131.5 317.8 125.5 322.9 117.6C318.6 113.5 314 107.8 309 100.6C308.5 99.8999 307.3 98.7 305.4 96.8C304.4 95.8 304 94.5999 304 93.2C304 90.9999 304.2 88.5999 304.7 85.8C305.4 82.9 305.9 81.7 306.1 81.7C306.8 81.7 309 82.9 313.1 85.4999C316.9 88.0999 320.1 90.0999 322 91.7C323.2 92.4 323.7 93.0999 323.7 93.0999L323.7 93.3C323.7 93.5 323 93.8 321.3 93.8C318.2 93.8 316.5 94 316.5 94.3C316.5 94.5 317 95 317.9 96.2C321.7 101 325.6 104.6 329.7 107.5C330.7 106.1 334 101.3 339.3 93.0999C343.9 86.0999 346.5 81.3 347.7 78.4999C348.9 75.5999 349.6 74.3999 350.1 74.3999C350.1 74.4148 350.107 74.4605 350.118 74.5385C350.182 74.9854 350.4 76.4902 350.4 79.3ZM367.9 107.7C368.9 108.9 369.6 110.5 370.1 112.7C371.3 116.8 373.7 122.5 377 129.6C379.9 135.9 381.3 139.2 381.3 139.7C381.3 141.7 378.4 144.8 372.9 149.1C368.037 152.714 361.707 156.846 353.909 161.439C354.635 156.937 355.925 151.512 357.8 145.1C358.1 143.6 358.3 142.4 358.3 141.7C358.3 141.2 358.3 141 358.1 141C357.6 141 357.1 142 355.9 144.4C353.511 150.851 351.764 157.124 350.744 163.282C347.552 165.12 344.138 167.027 340.5 169C331.1 174.1 319.4 179.6 305.2 185.6C284.8 194.2 273.7 199 271.8 200C266.5 202.4 263.9 203.9 263.9 204.1C263.9 204.3 263.9 204.3 264.4 204.3C265.4 204.3 267.8 204 271.6 203.3C275.2 202.8 284.3 200.7 298.7 197.3C312.4 194 319.6 192.3 320.1 192.3C322.7 192.3 331.1 188.2 345.5 179.8C346.949 178.988 348.36 178.181 349.734 177.379C350.014 184.521 351.988 190.679 355.5 195.3C359.8 201.3 366 204.4 374.2 204.4C383.8 204.4 394.8 199.4 407.8 189.8C416.5 183.3 424.4 175.8 431.6 167.2C434.7 163.6 437.3 159 439 153.5C440.5 149.1 441.2 145.8 441.2 142.9L441.7 142.4L441.7 129.2C440.7 129.7 440.2 129.7 440 129.7C437.6 124.7 434.7 120.6 431.6 117C428 113.4 424.9 111.5 421.8 111.5C417.7 111.5 413.9 113.6 410.3 117.7C406.5 122.5 404.8 127.8 404.8 133.8C404.8 141.7 410.6 145.8 422.1 145.8C427.4 145.8 431.7 145.1 434.6 144.1C435.1 145.8 435.6 147.5 435.6 148.9C435.6 151.1 432 155.4 425 162.2C417.3 169.4 409.4 175.4 401.2 180.4C390.8 186.7 382.2 189.8 375 189.8C366.6 189.8 360.6 187.1 356.8 182.1C355.387 179.98 354.389 177.582 353.808 174.948C366.072 167.463 375.032 160.41 380.8 153.9C382.8 151.7 384.2 148.6 385.4 144.5C386.3 140.9 386.8 138 386.8 135.6C386.8 130.5 385.3 125 382.7 118.3C381 114.5 379.1 110.4 377.4 106.3C380.3 107 382.2 107.5 382.9 107.5C383.4 107.5 383.6 107.2 383.6 107C383.6 106.5 382.9 105.6 381.2 103.9C377.2 99.8 373.6 95.8999 370.2 92.0999C369.7 91.5999 369.4 91.3999 369.2 91.3999C368.7 91.3999 368.4 91.8999 368.2 93.0999C367.7 94.3 367.5 96.4999 367 99.5999C366.5 102.9 366.5 104.6 366.5 105.1C366.7 105.5 367.2 106.3 367.9 107.7ZM164.1 98.5C168.5 98.5 172.5 101.1 175.9 106.4L175.898 106.4C171.099 106 167.5 105.7 165.3 105.7C161.2 105.2 159.3 103.8 159.3 101.6C159.3 99.5 161 98.5 164.1 98.5ZM43.9 113.4C41.8 110 39.4 108.6 36.5 108.6C36.2 108.6 35.5 109.3 34.5 111.2C33.3 113.2 32.8 114.4 32.8 114.6C32.8 115.3 33.3 116.3 34.7 117.5C36.2 118.7 37.1 119.4 38.1 119.4C38.8 119.4 39.1 119.1 39.3 118.9C39.6 118.4 39.8 118.4 40.3 118.4C41.3 118.4 42.5 120.6 44.4 125.4C46.3 130 47.2 133.1 47 134.8C47.2 135.8 47.2 136.5 47.7 136.5C48.2 136.5 48.7 135.8 49.4 134.8C50.1 133.2 51.1 130.3 51.8 126.2C53.5 117.1 55.2 112.5 57.1 112.5C58 112.5 59 112.9 59.7 113.9C60.7 114.9 61.2 115.6 61.4 115.6C61.8 115.6 62.3 114.8 62.8 113.4C63.3 112.4 63.3 111.5 63.3 111C63.3 110 62.9 109 61.9 107.6C60.9 106.1 59.7 105.4 58.5 105.4C56.3 105.4 54.4 107.6 52.5 111.9C50.8 118.2 49.6 123 49.1 126.1C49.1 126.6 48.9 126.9 48.9 127.1L48.7 127.1C48.7 126.8 48.7 126.6 48.5 126.1C47.7 120.8 46.1 116.5 43.9 113.4ZM467.8 114.2C467.1 114.2 466.1 114.6 464.9 115.6C461 118.9 457.2 121.8 453.3 123.8C452.1 124.6 448 126.5 441.8 129.6L441.8 142.8C450.2 138.9 456.7 134.9 460.5 130.3C460.5 141.3 465.3 147.1 475.4 147.1C483.8 147.1 490.7 142.3 496 132.7C499.2 138.5 502.8 141.6 506.6 141.6C512.4 141.6 516.7 139 519.6 133.7C522.3 129.3 523.7 124.3 523.7 118.3C523.7 114.4 522.5 111.1 520.6 108.2C519.9 107.2 519.4 107 518.9 107C518.4 107 517.9 107.8 517.7 109.2C516.3 113.7 515.3 117.1 515.1 119C517.2 122.6 518.2 124.6 518.2 124.8C517.2 126.4 515.1 127.4 511.7 127.4C509.1 127.4 506.7 126.4 505 125C503.1 123.6 502.1 121.9 502.1 120.2C502.1 120.7 502.8 118.8 503.8 114.7C504.3 112.6 504.1 111.6 503.1 111.6C502.4 111.6 501.7 112 500.7 113C498.3 116.9 495.7 120.7 493.3 124.8C489.4 129.9 484.4 132.5 478.4 132.5C470.9 132.5 467.1 129.6 467.1 124.3C467.1 123.1 467.3 121.6 467.8 119.7C468.3 117.8 468.5 116.3 468.5 115.6C468.5 114.7 468.3 114.2 467.8 114.2ZM233.7 117.3C236.1 120.6 237.3 123 237.3 124.7C237.3 125.6 235.9 127.1 232.6 129.3C229.9 131.2 227.8 132.6 225.6 133.6C224.8 132.4 223.6 130.5 222.2 127.4C220.8 123.8 219.8 121.4 219.8 120C219.8 118.3 220.5 116.6 222.2 114.7C223.6 112.8 225.1 111.8 226.5 111.8C228.7 111.8 231.1 113.7 233.7 117.3ZM341 138.4C338.4 133.1 333.8 127.6 327.6 122.3C325.4 124.5 322.8 128.5 319.4 134.3C315.6 140.8 313.9 144.9 313.9 147C313.9 149.9 315.8 151.3 320.1 151.3C322 151.3 324.4 150.6 327.5 149.4C331.8 147.5 335.9 144.8 339.3 141.5C340.8 140 341.3 139.1 341 138.4ZM428.1 131.4C424.5 126.8 421.4 124.7 418.5 124.7C414.2 124.7 412.3 125.7 412.3 128.1C412.3 131 415.2 132.4 420.9 132.4C422.93 132.4 425.129 131.974 427.5 131.516C427.699 131.477 427.899 131.439 428.1 131.4ZM454.1 195C451.5 195.7 450 196.2 449.5 196.2L449.5 196C449.5 196 450.5 195.3 452.4 194.1C454.3 192.9 457.2 191 461.3 187.9C463.2 186 466.1 182.9 469.7 178.5C472.1 175.6 474.7 173 477.6 171.1C481.2 168.5 484.6 167.3 488.2 167.3C488.9 167.3 490.1 167.5 491.6 168C492.8 168.5 494 168.7 495 168.7C496.9 168.7 498.4 168 499.6 166.5C500.3 165.1 501.3 163.9 502.2 162.4C502.7 161.4 503.4 161 503.9 161C504.1 161 504.1 161.2 504.1 161.7C504.1 162.2 503.9 163.4 503.4 164.8C502.9 165.5 504.8 165.8 508.4 165.8C508.9 165.8 509.1 165.8 509.1 165.6C509.1 165.6 508.9 164.6 508.4 163C508.2 162.5 508.4 161.8 509.1 160.8L509.18 160.664C510.122 159.063 510.508 158.405 510.8 158.6C511.8 159.3 512.2 160.8 512.2 162.4C512.2 164.1 511.7 165.8 511 167.7C510.3 169.9 509.6 171.1 509.1 171.5C507.4 172.5 504.8 172.2 501.2 170.5C498.3 173.4 495.4 175.1 492.6 175.1C491.9 175.1 490.7 174.9 489.5 174.4C488.3 173.9 487.3 173.7 486.6 173.7C481.8 173.7 476.8 175.9 471.7 180.7L460.9 191.5C458.6 193.1 456.5 194.3 454.1 195ZM63.8 178.9C77.5 174.1 91.9 168.8 107 163.3C107.385 163.223 107.652 163.131 107.845 163.064C108.154 162.958 108.277 162.915 108.4 163.1C108.6 163.1 108.6 163.6 108.2 164.3C107.5 166.5 106.8 167.7 106.3 168.1C93.3 172.7 78.5 178.4 61.4 185.6C61.9 183.5 62.6 181.3 63.8 178.9ZM245.5 192.3C245.5 192.3 245.3 192.6 245.3 192.8C243.6 195.7 242.1 197.4 240.6 197.4C238.5 197.4 237.5 195.2 237.5 191.4C237.5 188.3 238.7 183.2 241.1 175.8C241.6 174.1 241.8 173.1 241.8 172.9C241.5 172.9 241.1 173.8 240.1 175.5C236.3 182.5 234.6 189.4 234.6 195.9C234.6 201.2 236.1 203.8 239.2 203.8C242.3 203.8 244.5 200.2 245.7 193C245.9 192.8 245.9 192.5 245.7 192.3C245.7 192.209 245.7 192.16 245.681 192.151C245.659 192.141 245.609 192.191 245.5 192.3ZM189.1 176.5C192 176.5 194.4 177.9 196.5 181.3C198.7 184.4 200.3 188.7 201.1 194C201.3 194.5 201.3 194.7 201.3 195L201.5 195C201.5 194.8 201.7 194.5 201.7 194C202.2 190.9 203.4 186.1 205.1 179.8C207 175.5 208.9 173.3 211.1 173.3C212.3 173.3 213.5 174 214.5 175.5C215.5 176.9 215.9 177.9 215.9 178.9C215.9 179.4 215.9 180.3 215.4 181.3C214.9 182.7 214.4 183.5 214 183.5C213.8 183.5 213.3 182.8 212.3 181.8C211.6 180.8 210.6 180.4 209.7 180.4C207.8 180.4 206.1 185 204.4 194.1C203.7 198.2 202.7 201.1 202 202.7C201.3 203.7 200.8 204.4 200.3 204.4C199.8 204.4 199.8 203.7 199.6 202.7C199.8 201 198.9 197.9 197 193.3C195.1 188.5 193.9 186.3 192.9 186.3C192.4 186.3 192.2 186.3 191.9 186.8C191.7 187 191.4 187.3 190.7 187.3C189.7 187.3 188.8 186.6 187.3 185.4C185.9 184.2 185.4 183.2 185.4 182.5C185.4 182.3 185.9 181.1 187.1 179.1C188.1 177.2 188.9 176.5 189.1 176.5Z" id="Group" fill="#595959" fill-rule="evenodd" stroke="none" clip-path="url(#clip_1)" />
  </g>
</svg>