<?xml version="1.0" encoding="utf-8"?>
<svg width="519.8001px" height="216.30013px" viewBox="0 0 519.8001 216.30013" version="1.1" xmlns:xlink="http://www.w3.org/1999/xlink" xmlns="http://www.w3.org/2000/svg">
  <defs>
    <path d="M519.8 0L519.8 0L519.8 216.3L0 216.3L0 0L519.8 0Z" id="path_1" />
    <clipPath id="clip_1">
      <use xlink:href="#path_1" clip-rule="evenodd" fill-rule="evenodd" />
    </clipPath>
  </defs>
  <g id="Surah_81_of_114_(modified)">
    <path d="M519.8 0L519.8 0L519.8 216.3L0 216.3L0 0L519.8 0Z" id="Surah_81_of_114_(modified)" fill="none" stroke="none" />
    <path d="M275.5 32.4001C275.5 27.6001 274.8 23.8 273.3 20.6001C273.3 18.9001 274.5 14.8 277.4 8.60005C277.6 7.90005 277.9 7.40005 278.1 7.40005C278.6 7.40005 278.8 7.90005 279.3 8.60005C280 10.3 281.7 14.8 284.6 22.3C287.7 30.2 289.4 35 289.9 36.9001C290.4 38.1001 290.4 39.3 290.4 39.8C290.4 42 288.5 40.8 284.2 36C283.7 35.3 283.5 35.8 283.5 37C283.5 37.5 284.7 52.4 286.9 82.1001C289.1 111.6 290 128.2 290 132C290 143.3 288.3 153.4 285 162C284 163.7 283.6 164.9 283.1 165.8L283.1 165.8C282.4 167 282.1 167 281.9 166.3C281.7 165.3 281.9 163.4 282.1 160.8C282.6 156.7 282.8 152.2 282.8 147.1C282.8 142.3 281.6 123.1 279.2 89.3C276.7 55.4001 275.5 36.5001 275.5 32.4001L275.5 32.4001L275.5 32.4001L275.5 32.4001L275.5 32.4001ZM263.5 120.7C263.5 134.9 260.9 145.9 255.8 154.1C251.5 160.8 246.4 164.4 240.7 164.4L240.7 149.8C245.3 149.8 249.8 147.9 254.1 144.3C255.3 143.3 256 139.3 256 132.5C256 128.4 254.8 111.9 252.6 83.1001C250.4 54.3 249.5 37.3 249.5 32C249.5 27.4 248.8 23.6001 247.3 20.5C247.3 18.8 248.7 14.7 251.4 8.30005C251.6 7.60005 251.9 7.30005 252.4 7.30005C252.6 7.30005 252.9 7.50005 253.4 8.50005C254.1 10.2 256 14.7 258.9 22.2C261.8 30.1 263.5 34.9 264.2 36.6C264.4 38 264.7 39.2 264.7 39.7C264.7 41.9 262.5 40.7 258.5 35.9C258 35.4 257.8 35.7 257.8 36.9C257.8 37.1 258.8 50.1 260.7 75.5C262.5 100.6 263.5 115.7 263.5 120.7L263.5 120.7L263.5 120.7L263.5 120.7L263.5 120.7ZM240.5 164.4C231.9 164.4 227.3 159.4 226.8 149.3C226.8 148.8 226.6 148.6 226.1 148.3C225.4 148.5 224.7 148.8 223.9 149.7C218.9 155.5 215.7 158.8 214.3 160C208.1 165.5 201.6 168.2 194.9 168.2L194.9 153.6C201.9 153.6 208.1 151.7 213.6 147.8C215.8 146.4 220.6 141.8 228.2 134.1C228.9 133.4 229.9 132.9 230.8 132.9C231.8 132.9 232 133.4 232 134.3C232 134.8 232 135.5 231.8 136.5C231.6 137.5 231.6 138.2 231.6 138.7C231.6 141.6 232.1 144 233.5 145.9C234.9 148.3 237.3 149.7 240.5 149.7L240.5 164.4L240.5 164.4L240.5 164.4L240.5 164.4ZM194.9 153.6L194.9 168.2C187 168.2 181.9 165.1 179.5 158.8C178.5 156.6 178.3 154 178.3 150.6C178.3 148.4 178.5 146 179 143.2C179.5 139.1 180.2 137.2 181.4 137.2C181.9 137.2 182.1 138.2 182.4 140.3C182.4 141.5 182.4 142.9 182.4 144.1C182.9 147.5 183.8 149.9 185.8 151.3C187.4 152.9 190.5 153.6 194.9 153.6L194.9 153.6L194.9 153.6L194.9 153.6L194.9 153.6ZM186 123.4C186 131.8 183.6 138 178.8 142.4C175.4 145.3 167.8 149.4 155.8 154.6L155.8 141.4C168.3 135.9 176.7 131.8 180.8 128.7C181.8 128.2 182.2 127.3 182.2 126.5C182.2 125.3 181.5 124.1 179.8 122.4C175 118.3 168 113.5 158.9 107.8C147.9 100.8 140.4 96 137.1 93.4C129.2 87.6001 122.9 81.4 118.4 75.2C118.2 75 117.4 74.5 116.2 74C114.8 73.5 114.3 72.8 114 72.3C114.2 59.1 115.7 51.2 119 48.3C127.4 40.9 145.2 31 172.5 18.5C200.1 6.3 218.3 0 227.5 0C230.1 0 231.8 0.5 232.8 1.7C233.8 2.7 234.2 4.3 234.2 7C234.2 12.8 230.8 20 223.9 28.6C221.3 31.7 218.6 34.6 216 37.5C211.9 42.3 209 46.4 207.6 49.3C206.6 51.5 205.9 52.4 205.7 52.4C205.5 52.4 205.7 51.2 206.2 48.3C206.4 46.9 207.6 44.2 209.8 40.4C211.5 37 212.9 34.9 213.9 33.9C221.6 25 226.4 19 227.8 16.4C228 16.2 228 15.7 228 15.4C228 13.7 225.8 13 221.5 13C214.3 13 198 18.8 171.8 30.8C145.6 42.8 127.6 52.6 118 60.3C117.5 61 117.5 61.5 118.2 61.7L132.4 68.2C135.3 69.6 137 70.8 137 71.8C137 72.8 135.8 73.2 133.2 73.2C132 73.2 130.6 73 128.6 72.7C131.7 76.8 138.4 81.8 149 87.8C162 95.5 170.1 100.8 174 103.6C182.1 110.4 186 116.9 186 123.4L186 123.4L186 123.4L186 123.4L186 123.4ZM142.1 143.3C138.5 138.7 135.4 136.6 132.5 136.6C128.2 136.6 126.3 137.6 126.3 140C126.3 142.9 129.2 144.3 134.9 144.3C137 144.2 139.4 143.8 142.1 143.3L142.1 143.3L142.1 143.3L142.1 143.3L142.1 143.3ZM149.5 160.8C149.5 159.4 149 157.7 148.5 156C145.6 157 141.3 157.7 136 157.7C124.5 157.7 118.7 153.6 118.7 145.7C118.7 139.7 120.4 134.4 124.2 129.6C127.8 125.5 131.6 123.4 135.7 123.4C138.8 123.4 141.9 125.3 145.5 128.9C148.6 132.5 151.5 136.6 153.9 141.6C154.1 141.6 154.6 141.6 155.6 141.1L155.6 154.3L155.1 154.8C155.1 157.7 154.4 161 152.9 165.4C151.2 170.9 148.6 175.5 145.5 179.1C138.3 187.7 130.4 195.2 121.7 201.7C108.7 211.3 97.7 216.3 88.1 216.3C79.9 216.3 73.7 213.2 69.4 207.2C65.6 202.2 63.6 195.4 63.6 187.5C63.6 177.4 65.8 167.1 69.8 156.3C71 153.9 71.5 152.9 72 152.9C72.2 152.9 72.2 153.1 72.2 153.6C72.2 154.3 72 155.5 71.7 157C68.6 167.6 67.1 175.5 67.1 181C67.1 186 68.3 190.4 70.7 194C74.5 199 80.5 201.7 88.9 201.7C96.1 201.7 104.7 198.6 115.1 192.3C123.3 187.3 131.2 181.3 138.9 174.1C145.9 167.3 149.5 163 149.5 160.8L149.5 160.8L149.5 160.8L149.5 160.8L149.5 160.8ZM106.5 87.6001C106.5 96 104.6 102.5 101 107.3C97.9 111.4 94.3 113.5 90.2 113.5L90.2 98.9001C95.7 98.9001 99.6 97.5001 101.2 94.6001C101.2 93.2001 100.2 90.8001 98.3 87.6001C97.3 86.2001 97.1 84.7001 97.1 83.3001C97.1 82.6001 98.1 79.2001 99.7 73.0001C100.2 72.0001 100.7 71.3001 100.9 71.3001C101.4 71.3001 102.1 72.3001 102.8 73.7001C105.3 78.7001 106.5 83.3001 106.5 87.6001L106.5 87.6001L106.5 87.6001L106.5 87.6001L106.5 87.6001ZM0 151.7C0 141.4 2.2 131.1 6.2 120.3C7.2 118.1 7.89999 116.9 8.39999 116.9C8.59999 116.9 8.59999 117.1 8.59999 117.6C8.59999 118.3 8.39999 119.5 7.89999 121C5 131.6 3.59999 139.5 3.59999 145C3.59999 149.8 4.99998 154.4 8.2 158.4C11.8 163.7 16.6 166.1 22.1 166.1C28.8 166.1 37.2 163.5 47.1 158.2C55 153.9 62.7 148.6 70.6 142.4C77.3 136.6 81.4 132.8 82.4 130.6C82.4 122.4 80 113.8 75.4 104.7C74.4 103 74 101.6 74 100.6C74 99.9001 75 96.3001 76.9 90.3001C77.1 89.1001 77.6 88.4001 78.1 88.4001C78.6 88.4001 79.1 89.4001 79.8 90.8001C81.2 93.9001 82.2 95.6001 82.9 96.1001C84.3 98.0001 87 98.7001 90.3 98.7001L90.3 113.3C88.6 113.3 87.4 113.3 86.7 112.8C86.7 130.6 84.1 142.6 78.8 148.6C73.5 155.1 65.6 161.6 55.5 168C42.8 176.2 31.7 180.2 22.6 180.2C14.2 180.2 7.99998 176.6 4.09999 169.2C1.2 164.2 0 158.2 0 151.7L0 151.7L0 151.7L0 151.7L0 151.7ZM103.4 157C110.1 160.8 113.5 163.2 113.5 164.2C113.5 165.9 111.8 169.2 108.5 174.5C108 175.2 107.8 175.5 107.3 175.2C103.7 172.3 99.9 169.7 96 167.3C95.8 167.1 95.8 166.8 96 166.3L100.6 156.7C97.2 154.3 93.9 152.1 90.8 150C90.6 149.8 90.6 149.5 90.8 149L95.4 139.4C95.6 138.9 96.1 138.7 96.4 138.7C96.9 138.7 99 139.9 102.6 142.3C106.4 144.9 108.4 146.4 108.4 146.9C108.2 148.6 106.5 151.7 103.4 157L103.4 157L103.4 157L103.4 157L103.4 157ZM230.9 84.7001C230.9 86.6001 230.4 88.8001 229.5 90.7001C228.3 93.3001 226.9 94.8001 225.2 94.8001C222.3 94.8001 220.4 92.9001 219.2 89.0001C217.8 93.8001 215.4 96.4001 211.8 96.4001C210.6 96.4001 209.4 95.7001 208.4 94.2001C207.2 92.8001 206.7 90.6001 206.7 88.2001L206.7 82C206.7 81.5 206.2 81.3 205.7 81C205 80.8 204.7 80.3 204.7 79.6001C204.7 78.2001 205.2 77 206.1 75.8001C207.1 74.6001 207.8 74.1001 208.3 74.1001C209 74.1001 209.5 75.3001 209.5 77.9C209.5 79.3 209.3 80.5 209.3 81.5C209.1 82.5 209.1 83.2001 209.1 83.9C209.1 85.3 209.3 86.8 209.8 88C210.5 89.4 211.5 90.4 212.4 90.4C213.8 90.4 215 89.7 216.2 88.5C217.4 87.3001 218.1 85.9 218.1 84.2001C218.1 83.2001 217.6 81.8001 217.1 79.4001C216.4 77.2001 216.1 75.8001 216.1 75.3001C216.1 74.8001 216.3 74.1001 216.8 72.9001C217.3 71.9001 217.8 71.5001 218 71.5001C218.5 71.5001 219 72.9001 219.7 75.8001C220.4 78.9001 220.9 81.1001 220.9 82.5001C220.9 86.6001 222.3 88.7001 225.5 88.7001C226.9 88.7001 227.9 88.0001 228.1 86.5001C225.5 81.7001 224 78.1001 224 75.5001C224 74.1001 224.2 72.9001 225.2 71.7001C225.7 71.0001 225.9 70.5001 226.2 70.5001C226.4 70.5001 226.7 71.0001 226.7 71.9001C226.9 73.1001 227.2 74.3001 227.4 75.3001C227.4 75.3001 228.1 77.0001 229.3 80.3001C230.4 82.3001 230.9 83.8001 230.9 84.7001L230.9 84.7001L230.9 84.7001L230.9 84.7001L230.9 84.7001ZM179.7 68.2001C198.2 61.5 217.4 54.3001 237.5 46.8001C238.2 46.6001 238.7 46.3001 238.9 46.6001C238.9 46.6001 238.9 47.1001 238.7 47.8001C237.7 50.0001 237 51.2001 236.5 51.6001C219.7 57.8001 199.8 65.5001 177.2 74.9001C177.8 72.7001 178.5 70.6001 179.7 68.2001L179.7 68.2001L179.7 68.2001L179.7 68.2001L179.7 68.2001ZM225.8 113.3L229.6 105.4C229.8 104.9 230.1 104.7 230.6 104.7C231.1 104.7 233 105.9 236.8 108.5C240.4 110.9 242.3 112.3 242.3 112.8C242.3 114.5 240.6 118.1 237.5 123.4C237 124.1 236.5 124.1 236.1 123.9C233 121.5 229.4 119.1 225.3 116.5C223.9 119.4 222.7 122 221.2 124.2C221 124.9 220.5 125.2 220 124.9C216.4 122 212.6 119.4 208.7 117C208.5 116.8 208.5 116.5 208.7 116L213.3 106.4C213.5 105.9 214 105.4 214.3 105.4C214.8 105.4 216.5 106.6 219.6 108.8C222.7 110.6 224.9 112.3 225.8 113.3L225.8 113.3L225.8 113.3L225.8 113.3L225.8 113.3ZM114.7 29.0001C114.7 27.8001 112.3 25.6001 107.3 22.8001C105.6 25.7001 104.9 28.3001 104.9 30.7001C104.9 32.1001 105.6 33.1001 107.1 33.1001C108.3 33.1001 109.7 32.6001 111.4 31.7001C113 31.0001 114.2 30.0001 114.7 29.0001L114.7 29.0001L114.7 29.0001L114.7 29.0001L114.7 29.0001ZM109.4 9.80006C110.1 8.60007 111.1 8.10007 111.8 8.10007C112.3 8.10007 112.8 8.30006 112.8 8.80006C112.8 8.80006 112.6 9.00006 112.6 9.30006C111.6 11.5001 110.7 13.9001 110 16.3001C115 19.9001 117.4 23.7001 117.2 27.3001C116.7 31.4001 116.2 34.0001 115.5 35.0001C113.1 37.9001 110.5 39.6001 107.1 39.6001C103.7 39.6001 102.3 37.4001 102.3 33.6001C102.3 32.9001 102.3 31.9001 102.5 31.0001C103.7 23.3001 106.1 16.3001 109.4 9.80006L109.4 9.80006L109.4 9.80006L109.4 9.80006L109.4 9.80006ZM131.3 207.6C140.9 204.2 151.2 200.4 162.3 196.6C163.3 196.4 163.5 196.1 163.7 196.4C163.9 196.4 163.9 196.9 163.5 197.6C162.8 199.8 162.1 201 161.6 201.4C152 204.8 141.2 208.8 129 214.4C129.3 212.2 130.1 210 131.3 207.6L131.3 207.6L131.3 207.6L131.3 207.6L131.3 207.6ZM25.9 192.7C35.5 189.3 45.8 185.5 56.9 181.7C57.9 181.5 58.1 181.2 58.3 181.5C58.5 181.5 58.5 182 58.1 182.7C57.4 184.9 56.7 186.1 56.2 186.5C46.6 189.9 35.8 193.9 23.6 199.5C24 197.3 24.7 195.1 25.9 192.7L25.9 192.7L25.9 192.7L25.9 192.7L25.9 192.7ZM225.6 180.7C228.5 180.7 230.9 182.1 233 185.5C235.2 188.6 236.8 192.9 237.6 198.2C237.8 198.7 237.8 198.9 237.8 199.2L238 199.2C238 199 238.2 198.7 238.2 198.2C238.7 195.1 239.9 190.3 241.6 184C243.5 179.7 245.4 177.5 247.6 177.5C248.8 177.5 250 178.2 251 179.7C252 181.1 252.4 182.1 252.4 183.1C252.4 183.6 252.4 184.5 251.9 185.5C251.4 186.9 250.9 187.7 250.5 187.7C250.3 187.7 249.8 187 248.8 186C248.1 185 247.1 184.6 246.2 184.6C244.3 184.6 242.6 189.2 240.9 198.3C240.2 202.4 239.2 205.3 238.5 206.9C237.8 207.9 237.3 208.6 236.8 208.6C236.3 208.6 236.3 207.9 236.1 206.9C236.3 205.2 235.4 202.1 233.5 197.5C231.6 192.7 230.4 190.5 229.4 190.5C228.9 190.5 228.7 190.5 228.4 191C228.2 191.2 227.9 191.5 227.2 191.5C226.2 191.5 225.3 190.8 223.8 189.6C222.4 188.4 221.9 187.4 221.9 186.7C221.9 186.5 222.4 185.3 223.6 183.3C224.6 181.4 225.3 180.7 225.6 180.7L225.6 180.7L225.6 180.7L225.6 180.7L225.6 180.7ZM197.3 197.8C197.3 197.6 197.5 197.3 197.5 197.3C197.7 197.1 197.7 197.1 197.7 197.3C197.9 197.5 197.9 197.8 197.7 198C196.5 205.2 194.3 208.8 191.2 208.8C188.1 208.8 186.6 206.2 186.6 200.9C186.6 194.4 188.3 187.5 192.1 180.5C193.1 178.8 193.5 177.9 193.8 177.9L193.8 177.9C193.8 178.1 193.6 179.1 193.1 180.8C190.7 188.2 189.5 193.3 189.5 196.4C189.5 200.2 190.5 202.4 192.6 202.4C194.1 202.3 195.6 200.6 197.3 197.8L197.3 197.8L197.3 197.8L197.3 197.8L197.3 197.8ZM14.9 108.7C14.9 108.5 15.1 108.2 15.1 108.2C15.3 108 15.3 108 15.3 108.2C15.5 108.4 15.5 108.7 15.3 108.9C14.1 116.1 11.9 119.7 8.8 119.7C5.7 119.7 4.2 117.1 4.2 111.8C4.2 105.3 5.89999 98.4001 9.7 91.4001C10.7 89.7001 11.1 88.8001 11.4 88.8001L11.4 88.8001C11.4 89.0001 11.2 90.0001 10.7 91.7001C8.3 99.1001 7.09999 104.2 7.09999 107.3C7.09999 111.1 8.09999 113.3 10.2 113.3C11.7 113.3 13.2 111.6 14.9 108.7L14.9 108.7L14.9 108.7L14.9 108.7L14.9 108.7ZM82.1 30.5001C82.1 31.0001 81.9 31.9001 81.4 32.9001C81.2 34.3 80.7 35.1001 80 35.1001C79.8 35.1001 79.3 34.4001 78.3 33.4001C77.6 32.4001 76.6 32.0001 75.9 32.0001C74 32.0001 72.1 36.6001 70.4 45.7001C69.7 49.8001 69 52.7001 68 54.3001C67.3 55.3001 66.8 56.0001 66.3 56.0001C66.1 56.0001 65.8 55.3001 65.8 54.3001C65.8 52.6001 64.8 49.5001 62.9 44.9001C61 40.1001 59.8 37.9001 59.1 37.9001C58.4 37.9001 58.1 37.9001 57.9 38.4001C57.9 38.6001 57.4 38.9001 56.7 38.9001C55.7 38.9001 54.8 38.2001 53.3 37.0001C52.1001 35.8001 51.4001 34.8001 51.4001 34.1001C51.4001 33.9001 51.9001 32.7001 53.1001 30.7001C54.3 28.8001 55 28.1001 55.3 28.1001C57.9001 28.1001 60.3 29.5001 62.5 32.9001C64.9 36.3001 66.3 40.3001 67.3 45.6001C67.3 46.1001 67.3 46.3001 67.3 46.6001C67.5 46.8001 67.5 46.8001 67.5 46.6001C67.5 46.4001 67.7 46.1001 68 45.6001C68.2 42.5001 69.4 37.7001 71.1001 31.4001C73 27.1001 74.9001 24.9001 77.1001 24.9001C78.3 24.9001 79.5 25.6001 80.7001 27.1001C81.6 28.6001 82.1 29.5001 82.1 30.5001L82.1 30.5001L82.1 30.5001L82.1 30.5001L82.1 30.5001ZM66.2 58.1001C64.5 61.9 61.2 65.8001 56.1 69.4C51.5 72.8 47.5 75.2 43.9 76.8C43.2 77.3 38.9 79 30.9 81.8C29.7 82.3 29 82.5 28.5 82.5C28.3 82.5 28.3 82.3 28.3 82.3C28.3 82.1 29 81.3 30.2 80.6C36.7 76.8 45.8 71.2 57.8 63.3C60.7 61.1 62.8 59 64.5 57.1C66.4 54.9 67.4 53.7 67.6 53.7C67.6 53.7 67.6 53.7 67.6 53.9C67.7 54.2001 67.2 55.7001 66.2 58.1001L66.2 58.1001L66.2 58.1001L66.2 58.1001L66.2 58.1001ZM30.5 48.2001C30.5 50.8001 29.3 53.7001 27.4 56.8001C25.2 59.9001 22.6 62.8001 19.2 65.2001C17.8 66.2001 17 66.6001 16.8 66.6001L16.8 66.4C16.8 66.2 17.3 65.7 18.2 64.5C23.7 58.5 26.6 54.7 26.6 52.5C26.6 50.8 25.6 49.9 24 49.9C23 49.9 22.1 50.1 21.4 50.6C20.7 50.8 20.4 51.1 20.2 51.1C20.2 51.1 20 51.1 20 50.9C20 50.9 20 50.4 20.2 49.5C21.2 45.4 23.1 43.5 26.4 43.5C29 43.4001 30.5 45.1001 30.5 48.2001L30.5 48.2001L30.5 48.2001L30.5 48.2001L30.5 48.2001ZM48.7 120.5C48.7 120.3 48.9 120 48.9 120C49.1 119.8 49.1 119.8 49.1 120C49.3 120.2 49.3 120.5 49.1 120.7C47.9 127.9 45.7 131.5 42.6 131.5C39.5 131.5 38 128.9 38 123.6C38 117.1 39.7 110.2 43.5 103.2C44.5 101.5 44.9 100.6 45.2 100.6L45.2 100.6C45.2 100.8 45 101.8 44.5 103.5C42.1 110.9 40.9 116 40.9 119.1C40.9 122.9 41.9 125.1 44 125.1C45.6 125 47 123.4 48.7 120.5L48.7 120.5L48.7 120.5L48.7 120.5L48.7 120.5ZM164.4 67.2001C164.4 67 164.6 66.7001 164.6 66.7001C164.8 66.5 164.8 66.5 164.8 66.7001C165 66.9001 165 67.2001 164.8 67.4001C163.6 74.6001 161.4 78.2001 158.3 78.2001C155.2 78.2001 153.7 75.6001 153.7 70.3001C153.7 63.8001 155.4 56.9001 159.2 49.9001C160.2 48.2001 160.6 47.3001 160.9 47.3001L160.9 47.3001C160.9 47.5001 160.7 48.5001 160.2 50.2001C157.8 57.6001 156.6 62.7001 156.6 65.8001C156.6 69.6001 157.6 71.8001 159.7 71.8001C161.3 71.8001 162.7 70.1001 164.4 67.2001L164.4 67.2001L164.4 67.2001L164.4 67.2001L164.4 67.2001ZM461 117.8C462.2 116.8 463.2 116.4 463.9 116.4C464.4 116.4 464.6 116.9 464.6 117.8C464.6 118.5 464.4 120 463.9 121.9C463.4 123.8 463.2 125.3 463.2 126.5C463.2 131.8 467 134.7 474.5 134.7C480.5 134.7 485.5 132.1 489.4 127C491.8 122.9 494.4 119.1 496.8 115.2C497.8 114.2 498.5 113.8 499.2 113.8C500.2 113.8 500.4 114.8 499.9 116.9C498.9 121 498.2 122.9 498.2 122.4C498.2 124.1 499.2 125.8 501.1 127.2C502.8 128.6 505.2 129.6 507.8 129.6C511.2 129.6 513.3 128.6 514.3 127C514.3 126.8 513.3 124.8 511.2 121.2C511.4 119.3 512.4 115.9 513.8 111.4C514 110 514.5 109.2 515 109.2C515.5 109.2 516 109.4 516.7 110.4C518.6 113.3 519.8 116.6 519.8 120.5C519.8 126.5 518.4 131.5 515.7 135.9C512.8 141.2 508.5 143.8 502.7 143.8C498.9 143.8 495.3 140.7 492.1 134.9C486.8 144.5 479.9 149.3 471.5 149.3C461.4 149.3 456.6 143.5 456.6 132.5C452.8 137.1 446.3 141.1 437.9 145L437.9 131.8C444.1 128.7 448.2 126.8 449.4 126C453.3 124.1 457.2 121.2 461 117.8L461 117.8L461 117.8L461 117.8L461 117.8ZM424.3 133.7C420.7 129.1 417.6 127 414.7 127C410.4 127 408.5 128 408.5 130.4C408.5 133.3 411.4 134.7 417.1 134.7C419.3 134.6 421.7 134.2 424.3 133.7L424.3 133.7L424.3 133.7L424.3 133.7L424.3 133.7ZM431.7 151.2C431.7 149.8 431.2 148.1 430.7 146.4C427.8 147.4 423.5 148.1 418.2 148.1C406.7 148.1 400.9 144 400.9 136.1C400.9 130.1 402.6 124.8 406.4 120C410 115.9 413.8 113.8 417.9 113.8C421 113.8 424.1 115.7 427.7 119.3C430.8 122.9 433.7 127 436.1 132C436.3 132 436.8 132 437.8 131.5L437.8 144.7L437.3 145.2C437.3 148.1 436.6 151.4 435.1 155.8C433.4 161.3 430.8 165.9 427.7 169.5C420.5 178.1 412.6 185.6 403.9 192.1C390.9 201.7 379.9 206.7 370.3 206.7C362.1 206.7 355.9 203.6 351.6 197.6C347.8 192.6 345.8 185.8 345.8 177.9C345.8 167.8 348 157.5 352 146.7C353.2 144.3 353.7 143.3 354.2 143.3C354.4 143.3 354.4 143.5 354.4 144C354.4 144.7 354.2 145.9 353.9 147.4C350.8 158 349.3 165.9 349.3 171.4C349.3 176.4 350.5 180.8 352.9 184.4C356.7 189.4 362.7 192.1 371.1 192.1C378.3 192.1 386.9 189 397.3 182.7C405.5 177.7 413.4 171.7 421.1 164.5C428.1 157.7 431.7 153.4 431.7 151.2L431.7 151.2L431.7 151.2L431.7 151.2L431.7 151.2ZM366.2 115C365.7 112.8 365 111.2 364 110C363.3 108.6 362.8 107.8 362.6 107.4C362.6 106.9 362.6 105.2 363.1 101.9C363.6 98.8 363.8 96.6001 364.3 95.4C364.5 94.2 364.8 93.7 365.3 93.7C365.5 93.7 365.8 93.9 366.3 94.4C369.7 98.2 373.3 102.1 377.3 106.2C379 107.9 379.7 108.8 379.7 109.3C379.7 109.5 379.5 109.8 379 109.8C378.3 109.8 376.4 109.3 373.5 108.6C375.2 112.7 377.1 116.8 378.8 120.6C381.4 127.3 382.9 132.8 382.9 137.9C382.9 140.3 382.4 143.2 381.5 146.8C380.3 150.9 378.9 154 376.9 156.2C369.9 164.1 358.2 172.8 341.6 182.1C327.2 190.5 318.8 194.6 316.2 194.6C315.7 194.6 308.5 196.3 294.8 199.6C280.4 203 271.3 205.1 267.7 205.6C263.9 206.3 261.5 206.6 260.5 206.6C260 206.6 260 206.6 260 206.4C260 206.2 262.6 204.7 267.9 202.3C269.8 201.3 280.9 196.5 301.3 187.9C315.5 181.9 327.2 176.4 336.6 171.3C350.8 163.6 361.6 156.9 369 151.4C374.5 147.1 377.4 144 377.4 142C377.4 141.5 376 138.2 373.1 131.9C369.8 124.8 367.4 119 366.2 115L366.2 115L366.2 115L366.2 115L366.2 115ZM346.5 81.6001C346.5 85.4 344.6 90.7001 340.7 97.2001C338.3 101.3 334.7 106.8 329.9 114C334.7 119.5 338.1 124.6 339.7 128.9C340.7 132 341.4 136.1 341.4 140.7C341.4 142.6 340.9 145 340 148.1C339.3 151 338.3 153.1 337.4 154.6C335.5 157.5 332.4 160.4 327.6 163.2C322.6 166.6 318.2 168.2 314.6 168.2C308.8 168.2 306 163.9 306 155.2C306 149.4 307 143.7 308.9 138.4C310.8 133.8 313.9 127.8 319 119.9C314.7 115.8 310.1 110.1 305.1 102.9C304.6 102.2 303.4 101 301.5 99.1001C300.5 98.1001 300.1 96.9 300.1 95.5C300.1 93.3 300.3 90.9 300.8 88.1001C301.5 85.2001 302 84 302.2 84C302.9 84 305.1 85.2001 309.2 87.8C313 90.4 316.2 92.4 318.1 94C319.3 94.7001 319.8 95.4 319.8 95.4L319.8 95.6001C319.8 95.8001 319.1 96.1001 317.4 96.1001C314.3 96.1001 312.6 96.3001 312.6 96.6001C312.6 96.8001 313.1 97.3001 314 98.5C317.8 103.3 321.7 106.9 325.8 109.8C326.8 108.4 330.1 103.6 335.4 95.4C340 88.4 342.6 83.6001 343.8 80.8C345 77.9 345.7 76.7 346.2 76.7C346.3 76.8001 346.5 78.2001 346.5 81.6001L346.5 81.6001L346.5 81.6001L346.5 81.6001L346.5 81.6001ZM337.2 140.6C334.6 135.3 330 129.8 323.8 124.5C321.6 126.7 319 130.7 315.6 136.5C311.8 143 310.1 147.1 310.1 149.2C310.1 152.1 312 153.5 316.3 153.5C318.2 153.5 320.6 152.8 323.7 151.6C328 149.7 332.1 147 335.5 143.7C336.9 142.3 337.4 141.4 337.2 140.6L337.2 140.6L337.2 140.6L337.2 140.6L337.2 140.6ZM323.7 63.6001L327.5 55.7001C327.7 55.2001 328 55.0001 328.5 55.0001C329 55.0001 330.9 56.2001 334.7 58.8001C338.3 61.2001 340.2 62.6001 340.2 63.1001C340.2 64.8001 338.5 68.4 335.4 73.7001C334.9 74.4001 334.4 74.4001 334 74.2001C330.9 71.8001 327.3 69.4001 323.2 66.8001C321.8 69.7001 320.6 72.3001 319.1 74.5001C318.9 75.2001 318.4 75.5001 317.9 75.2001C314.3 72.3001 310.5 69.7001 306.6 67.3001C306.4 67.1001 306.4 66.8001 306.6 66.3001L311.2 56.7001C311.4 56.2001 311.9 55.7001 312.2 55.7001C312.7 55.7001 314.4 56.9001 317.5 59.1001C320.6 61 322.8 62.6001 323.7 63.6001L323.7 63.6001L323.7 63.6001L323.7 63.6001L323.7 63.6001ZM450.2 197.3C447.6 198 446.1 198.5 445.6 198.5L445.6 198.2C445.6 198.2 446.6 197.5 448.5 196.3C450.4 195.1 453.3 193.2 457.4 190.1C459.3 188.2 462.2 185.1 465.8 180.7C468.2 177.8 470.8 175.2 473.7 173.3C477.3 170.7 480.7 169.5 484.3 169.5C485 169.5 486.2 169.7 487.7 170.2C488.9 170.7 490.1 170.9 491.1 170.9C493 170.9 494.5 170.2 495.7 168.7C496.4 167.3 497.4 166.1 498.3 164.6C498.8 163.6 499.5 163.2 500 163.2C500.2 163.2 500.2 163.4 500.2 163.9C500.2 164.4 500 165.6 499.5 167C499 167.7 500.9 168 504.5 168C505 168 505.2 168 505.2 167.8C505.2 167.8 505 166.8 504.5 165.2C504.3 164.7 504.5 164 505.2 163C506.2 161.3 506.6 160.6 506.9 160.8C507.9 161.5 508.3 163 508.3 164.6C508.3 166.3 507.8 168 507.1 169.9C506.4 172.1 505.7 173.3 505.2 173.7C503.5 174.7 500.9 174.4 497.3 172.7C494.4 175.6 491.5 177.3 488.7 177.3C488 177.3 486.8 177.1 485.6 176.6C484.4 176.1 483.4 175.9 482.7 175.9C477.9 175.9 472.9 178.1 467.8 182.9C464.2 186.5 460.6 190.1 457 193.7C454.8 195.4 452.6 196.6 450.2 197.3L450.2 197.3L450.2 197.3L450.2 197.3L450.2 197.3ZM398.6 67.7001C401.5 67.7001 403.9 69.1001 406 72.5C408.2 75.6001 409.8 79.9 410.6 85.2001C410.8 85.7001 410.8 85.9001 410.8 86.2001L411 86.2001C411 86 411.2 85.7001 411.2 85.2001C411.7 82.1001 412.9 77.3001 414.6 71C416.5 66.7001 418.4 64.5 420.6 64.5C421.8 64.5 423 65.2001 424 66.7001C425 68.1001 425.4 69.1001 425.4 70.1001C425.4 70.6001 425.4 71.5 424.9 72.5C424.4 73.9 423.9 74.7001 423.5 74.7001C423.3 74.7001 422.8 74 421.8 73C421.1 72 420.1 71.6001 419.2 71.6001C417.3 71.6001 415.6 76.2001 413.9 85.3001C413.2 89.4001 412.2 92.3001 411.5 93.9001C410.8 94.9001 410.3 95.6001 409.8 95.6001C409.3 95.6001 409.3 94.9001 409.1 93.9001C409.3 92.2001 408.4 89.1001 406.5 84.5001C404.6 79.7001 403.4 77.5001 402.4 77.5001C401.9 77.5001 401.7 77.5001 401.4 78.0001C401.2 78.2001 400.9 78.5001 400.2 78.5001C399.2 78.5001 398.3 77.8001 396.8 76.6001C395.4 75.4001 394.9 74.4001 394.9 73.7001C394.9 73.5001 395.4 72.3001 396.6 70.3001C397.7 68.4001 398.4 67.7001 398.6 67.7001L398.6 67.7001L398.6 67.7001L398.6 67.7001L398.6 67.7001ZM358.1 64.8001C382.3 55.7001 407.5 46.6001 433.5 37.0001C434.2 36.8001 434.7 36.5001 434.7 36.8001C434.9 36.8001 434.9 37.3001 434.7 38.0001C433.7 40.2001 433 41.4001 432.5 41.8001C432.3 42.0001 420 46.6001 396.3 55.5001C372.1 64.4001 358.4 69.9001 355.7 71.6001C356.1 69.4001 356.9 67.2001 358.1 64.8001L358.1 64.8001L358.1 64.8001L358.1 64.8001L358.1 64.8001ZM334.5 20.9001C335 19.5001 335 18.0001 334.7 16.6001C334.5 15.2001 333.7 14.4001 332.5 14.4001C332 14.4001 331.3 14.6001 330.3 15.1001C329.3 15.6001 328.9 16.1001 328.9 16.5C329 17.8001 330.9 19.2001 334.5 20.9001L334.5 20.9001L334.5 20.9001L334.5 20.9001L334.5 20.9001ZM331.7 27.1001C327.1 24.7001 325 22.3 325 19.7001C325 16.6001 326.4 13.7001 329.3 11.3001C332.2 8.70006 334.6 7.70006 336.5 8.40007C338.2 8.90007 338.9 10.6001 338.9 13.4001C338.9 16.0001 338.4 18.9001 337.2 22.3001C339.6 23.5001 341 24.7001 341.5 25.7001C341.5 26.9001 340.5 29.1001 338.4 31.9001C337.9 30.9001 336.5 29.7001 334.3 28.5001C331.7 32.1001 328.5 35.2001 324.7 38.1001C320.1 41.2001 316.1 43.9001 312.5 45.3001C311.5 45.8001 307.2 47.5001 299.5 50.3001C298.3 50.8001 297.3 51.0001 297.1 51.0001C296.9 51.0001 296.9 50.8001 296.9 50.8001C296.9 50.6001 297.4 49.8001 298.8 49.1001C304.6 45.5001 310.3 42.1001 316.3 38.8001C323.3 34.6001 328.3 30.7001 331.7 27.1001L331.7 27.1001L331.7 27.1001L331.7 27.1001L331.7 27.1001ZM483.3 57.1001C483.8 55.7001 483.8 54.2001 483.5 52.8C483.3 51.4001 482.5 50.6001 481.3 50.6001C480.8 50.6001 480.1 50.8 479.1 51.3C478.1 51.8 477.7 52.3 477.7 52.7C477.8 54.0001 479.7 55.4001 483.3 57.1001L483.3 57.1001L483.3 57.1001L483.3 57.1001L483.3 57.1001ZM488.6 66C486.2 71.8 485 76.3 485 79.7001C485 83.8001 486 85.9001 488.1 85.9001C489.3 85.9001 490.7 84.2001 492.4 81.3001C492.6 81.1001 492.6 80.8001 492.9 80.6001C492.9 80.6001 493.1 80.6001 493.1 80.8001C493.1 80.8001 493.1 81.0001 493.1 81.5001C491.7 88.7001 489.5 92.3001 486.6 92.3001C483.5 92.3001 482 89.7001 482 84.4001C482 81.8001 482.5 78.4001 483.9 74.1001C485.3 69.8001 486.1 67.6001 486.1 67.4001C486.1 66.9001 485.1 66.0001 483 64.8001C479.2 69.8001 473.9 74.6001 467.2 78.7001C462.6 81.3001 458.1 83.7001 453.3 85.7001C444.4 89.3001 439.1 91.2001 437.9 91.9001C436.7 92.4001 436 92.6001 435.5 92.6001C435.3 92.6001 435.3 92.4001 435.3 92.4001C435.3 91.9001 435.8 91.4001 437.2 90.5001C444.9 86.2001 452.3 81.9001 460 77.5001C470.1 71.7001 477 66.9001 480.4 63.3001C475.8 60.9001 473.7 58.5001 473.7 55.9001C473.7 52.8001 475.1 49.9001 478 47.3001C480.9 44.9001 483.3 43.9001 485.2 44.7001C486.6 45.2001 487.6 46.9001 487.6 49.7001C487.6 52.3001 487.1 55.2001 485.9 58.3001C488.3 59.7001 489.3 61.2001 489.3 62.6001C489.3 63.4001 489.1 64.6001 488.6 66L488.6 66L488.6 66L488.6 66L488.6 66ZM379.4 31.0001C379.4 30.8001 379.6 30.5001 379.6 30.5001C379.8 30.3001 379.8 30.3001 379.8 30.5001C380 30.7001 380 31.0001 379.8 31.2001C378.6 38.4001 376.4 42.0001 373.3 42.0001C370.2 42.0001 368.7 39.4001 368.7 34.1001C368.7 27.6001 370.4 20.7001 374.2 13.7001C375.2 12.0001 375.6 11.1001 375.9 11.1001L375.9 11.1001C375.9 11.3001 375.7 12.3001 375.2 14.0001C372.8 21.4001 371.6 26.5001 371.6 29.6001C371.6 33.4001 372.6 35.6001 374.7 35.6001C376.3 35.5001 377.7 33.8001 379.4 31.0001L379.4 31.0001L379.4 31.0001L379.4 31.0001L379.4 31.0001Z" id="Group" fill="#595959" stroke="none" clip-path="url(#clip_1)" />
  </g>
</svg>