<?xml version="1.0" encoding="utf-8"?>
<svg width="449.3001px" height="201.20442px" viewBox="0 0 449.3001 201.20442" version="1.1" xmlns:xlink="http://www.w3.org/1999/xlink" xmlns="http://www.w3.org/2000/svg">
  <defs>
    <path d="M449.3 0L449.3 0L449.3 201.204L0 201.204L0 0L449.3 0Z" id="path_1" />
    <clipPath id="clip_1">
      <use xlink:href="#path_1" clip-rule="evenodd" fill-rule="evenodd" />
    </clipPath>
  </defs>
  <g id="Surah_40_of_114_(modified)">
    <path d="M449.3 0L449.3 0L449.3 201.204L0 201.204L0 0L449.3 0Z" id="Surah_40_of_114_(modified)" fill="none" stroke="none" />
    <path d="M184.1 4.70441C184.1 7.30441 182.9 10.2044 181 13.3044C178.8 16.4044 176.2 19.3044 172.8 21.7044C171.4 22.7044 170.6 23.1044 170.4 23.1044L170.4 22.9044C170.4 22.7044 170.9 22.2044 171.8 21.0044C177.3 15.0044 180.2 11.2044 180.2 9.00441C180.2 7.30441 179.2 6.4044 177.6 6.4044C176.6 6.4044 175.7 6.6044 175 7.1044C174.3 7.3044 174 7.6044 173.8 7.6044C173.8 7.6044 173.6 7.6044 173.6 7.4044C173.6 7.4044 173.6 6.9044 173.8 6.00441C174.8 1.9044 176.7 0.00440979 180 0.00440979C182.7 -0.0955963 184.1 1.50441 184.1 4.70441ZM254.5 13.1044C254.5 15.7044 256.6 18.1044 261.2 20.5044C257.8 24.1044 252.8 27.9044 245.8 32.2044C239.8 35.5044 234.1 38.9044 228.3 42.5044C226.9 43.2044 226.4 44.0044 226.4 44.2044C226.4 44.2044 226.4 44.4044 226.6 44.4044C226.8 44.4044 227.8 44.2044 229 43.7044C236.7 40.9044 241 39.2044 242 38.7044C245.6 37.3044 249.6 34.6044 254.2 31.5044C258 28.6044 261.2 25.5044 263.8 21.9044C266 23.1044 267.4 24.3044 267.9 25.3044C270 22.5044 271 20.3044 271 19.1044C270.5 18.1044 269.1 16.9044 266.7 15.7044C267.9 12.3044 268.4 9.40443 268.4 6.80443C268.4 4.00443 267.7 2.30443 266 1.80443C264.1 1.10442 261.7 2.10442 258.8 4.70442C255.9 7.10442 254.5 10.0044 254.5 13.1044ZM309.1 24.1044C309.1 24.1044 308.9 24.4044 308.9 24.6044C307.2 27.5044 305.8 29.1044 304.2 29.2044C302.1 29.2044 301.1 27.0044 301.1 23.2044C301.1 20.1044 302.3 15.0044 304.7 7.6044C305.2 5.9044 305.4 4.9044 305.4 4.70441C305.1 4.70441 304.7 5.60442 303.7 7.30441C299.9 14.3044 298.2 21.2044 298.2 27.7044C298.2 33.0044 299.7 35.6044 302.8 35.6044C305.9 35.6044 308.1 32.0044 309.3 24.8044C309.5 24.6044 309.5 24.3044 309.3 24.1044C309.3 24.0137 309.3 23.9642 309.281 23.9557C309.259 23.9455 309.209 23.9951 309.1 24.1044ZM235.8 5.20441C209.8 14.8044 184.6 23.9044 160.4 33.0044C159.2 35.4044 158.4 37.5044 158 39.8044C160.7 38.1044 174.4 32.6044 198.6 23.7044C222.3 14.8044 234.6 10.2044 234.8 10.0044C235.3 9.6044 236 8.4044 237 6.20441C237.2 5.50441 237.2 5.00441 237 5.00441C237 4.79105 236.747 4.88117 236.349 5.02297C236.188 5.08055 236.002 5.14665 235.8 5.20441ZM157.5 140.304C159.669 142.359 161.87 144.185 164.159 145.765C160.115 139.668 158 133.727 158 128.004C158 117.704 161.1 109.504 167.6 104.004C173.1 99.2044 179.8 96.8044 188 96.8044C198.8 96.8044 208.4 100.404 216.8 107.404C218.2 108.604 219 109.304 219 109.804C219 110.004 218.8 110.304 218.3 110.304C217.6 110.304 216.4 110.104 214.9 109.604C209.1 107.404 204.1 106.504 199.8 106.504C193.3 106.504 186.8 107.504 179.9 109.404C173.2 111.304 168.4 113.704 165 116.404C165.2 123.404 167.6 130.304 172.4 137.004C178.2 145.204 185.8 149.204 195 149.204C199.8 149.204 206 147.004 213.7 142.704C219.7 139.104 225.5 135.004 230.7 130.504C231.9 129.504 232.6 129.104 233.1 129.104C233.8 129.004 234 129.704 233.3 131.104C232.3 134.204 230.7 138.104 228.5 142.104C220.1 149.104 213.4 154.104 207.9 157.004C198.8 162.304 189.4 164.904 180.1 164.904C175.3 164.904 171.9 164.404 169.5 163.504C163.7 161.104 159.4 158.704 156.3 156.504C152 153.104 148.6 149.104 146.2 143.804C143.6 138.004 141.6 123.204 140.9 99.2044C139.7 66.8044 139 49.0044 138.5 45.4044C137.3 33.6044 135.4 25.0044 133 19.2044C133 17.0044 134 13.2044 136.4 7.70439C136.9 6.50439 137.4 5.8044 137.6 5.8044C137.8 5.8044 138.3 6.50439 138.8 7.50439C141.7 13.0044 143.8 22.9044 145.3 36.8044C146 41.8044 146.5 52.4044 147 68.0044C147.2 78.1044 147.5 88.2044 148 98.0044C148.8 120.804 152 135.004 157.5 140.304ZM264.2 10.0044C264.5 11.4044 264.5 12.9044 264 14.3044C260.4 12.6044 258.5 11.1044 258.4 9.90439C258.4 9.50439 258.8 9.00439 259.8 8.50439C260.8 8.00439 261.5 7.8044 262 7.8044C263.2 7.8044 264 8.6044 264.2 10.0044ZM86.2 32.7044C86.2 32.7044 86 33.0044 86 33.2044C84.3 36.1044 82.8 37.8044 81.3 37.8044C79.2 37.8044 78.2 35.6044 78.2 31.8044C78.2 28.7044 79.4 23.6044 81.8 16.2044C82.3 14.5044 82.5 13.5044 82.5 13.3044C82.2 13.3044 81.8 14.2044 80.8 15.9044C77 22.9044 75.3 29.8044 75.3 36.3044C75.3 41.6044 76.8 44.2044 79.9 44.2044C83 44.2044 85.2 40.6044 86.4 33.4044C86.6 33.2044 86.6 32.9044 86.4 32.7044C86.4 32.6137 86.4 32.5642 86.3814 32.5557C86.3589 32.5455 86.3093 32.5951 86.2 32.7044ZM99.2 38.3044C99 38.1044 99 37.8044 99.2 37.3044L103.8 27.7044C104 27.2044 104.5 27.0044 104.8 27.0044C105.3 27.0044 107.4 28.2044 111 30.6044C114.8 33.2044 116.8 34.7044 116.8 35.2044C116.8 36.9044 115.1 40.2044 111.8 45.5044L111.771 45.5448C111.292 46.2158 111.09 46.4986 110.6 46.2044C106.8 43.3044 103 40.7044 99.2 38.3044ZM287.6 58.2044C311.8 49.1044 337 40.0044 363 30.4044C363.202 30.3466 363.388 30.2805 363.549 30.223C363.947 30.0811 364.2 29.991 364.2 30.2044C364.4 30.2044 364.4 30.7044 364.2 31.4044C363.2 33.6044 362.5 34.8044 362 35.2044C361.8 35.4044 349.5 40.0044 325.8 48.9044C301.6 57.8044 287.9 63.3044 285.2 65.0044C285.6 62.7044 286.4 60.6044 287.6 58.2044ZM215.6 52.7044C215.6 52.5044 215.8 52.2044 215.8 52.2044C215.91 52.0948 215.959 52.0455 215.981 52.0557C216 52.0641 216 52.1137 216 52.2044C216.2 52.4044 216.2 52.7044 216 52.9044C214.8 60.1044 212.6 63.7044 209.5 63.7044C206.4 63.7044 204.9 61.1044 204.9 55.8044C204.9 49.3044 206.6 42.4044 210.4 35.4044C211.4 33.7044 211.8 32.8044 212.1 32.8044C212.1 33.0044 211.9 34.0044 211.4 35.7044C209 43.1044 207.8 48.2044 207.8 51.3044C207.8 55.1044 208.8 57.3044 210.9 57.3044C212.4 57.2044 213.9 55.5044 215.6 52.7044ZM418.1 59.4044C415.7 65.2044 414.5 69.7044 414.5 73.1044C414.5 77.2044 415.5 79.3044 417.6 79.3044C418.8 79.3044 420.2 77.6044 421.9 74.7044C422.1 74.5044 422.1 74.2044 422.4 74.0044C422.4 74.0044 422.6 74.0044 422.6 74.2044L422.6 74.9044C421.2 82.1044 419 85.7044 416.1 85.7044C413 85.7044 411.5 83.1044 411.5 77.8044C411.5 75.2044 412 71.8044 413.4 67.5044C414.8 63.2045 415.6 61.0044 415.6 60.8044C415.6 60.3044 414.6 59.4044 412.5 58.2044C408.7 63.2044 403.4 68.0044 396.7 72.1044C392.1 74.7044 387.6 77.1044 382.8 79.1044C373.9 82.7044 368.6 84.6044 367.4 85.3044C366.2 85.8044 365.5 86.0044 365 86.0044C364.8 86.0044 364.8 85.8044 364.8 85.8044C364.8 85.3044 365.3 84.8044 366.7 83.9044C374.4 79.6044 381.8 75.3044 389.5 70.9044C399.6 65.1044 406.5 60.3044 409.9 56.7044C405.3 54.3044 403.2 51.9044 403.2 49.3044C403.2 46.2044 404.6 43.3044 407.5 40.7044C410.4 38.3044 412.8 37.3044 414.7 38.1044C416.1 38.6044 417.1 40.3044 417.1 43.1044C417.1 45.7044 416.6 48.6044 415.4 51.7044C417.8 53.1044 418.8 54.6044 418.8 56.0044C418.8 56.7044 418.6 57.9044 418.1 59.4044ZM412.8 50.5044C413.3 49.1044 413.3 47.6044 413 46.2044C412.8 44.8044 412 44.0044 410.8 44.0044C410.3 44.0044 409.6 44.2044 408.6 44.7044C407.6 45.2044 407.2 45.7044 407.2 46.1044C407.3 47.4044 409.2 48.8044 412.8 50.5044ZM30.7 66.6044C30.7 66.6044 30.5 66.9044 30.5 67.1044C28.8 69.9044 27.4 71.6044 25.8 71.7044C23.7 71.7044 22.7 69.5044 22.7 65.7044C22.7 62.6044 23.9 57.5044 26.3 50.1044C26.8 48.4044 27 47.4044 27 47.2044C26.7 47.2044 26.3 48.1044 25.3 49.8044C21.5 56.8044 19.8 63.7044 19.8 70.2044C19.8 75.5044 21.3 78.1044 24.4 78.1044C27.5 78.1044 29.7 74.5044 30.9 67.3044C31.1 67.1044 31.1 66.8044 30.9 66.6044C30.9 66.5137 30.9 66.4642 30.8814 66.4557C30.8589 66.4455 30.8093 66.4951 30.7 66.6044ZM257 49.1044L253.2 57.0044C252.3 56.0044 250.1 54.3044 247 52.5044C243.9 50.3045 242.2 49.1044 241.7 49.1044C241.4 49.1044 240.9 49.6044 240.7 50.1044L236.1 59.7045C235.9 60.2045 235.9 60.5044 236.1 60.7045C240 63.1044 243.8 65.7045 247.4 68.6044C247.9 68.9044 248.4 68.6044 248.6 67.9044C250.1 65.7044 251.3 63.1044 252.7 60.2044C256.8 62.8044 260.4 65.2044 263.5 67.6044C263.9 67.8044 264.4 67.8044 264.9 67.1044C268 61.8044 269.7 58.2044 269.7 56.5044C269.7 56.0044 267.8 54.6044 264.2 52.2044C260.4 49.6044 258.5 48.4044 258 48.4044C257.5 48.4044 257.2 48.6044 257 49.1044ZM173.3 65.6044C173.1 66.1044 173.1 66.4044 173.3 66.6044C177.2 69.0044 181 71.6044 184.7 74.5044C185.19 74.7986 185.392 74.5158 185.871 73.8447L185.9 73.8044C189.2 68.5044 190.9 65.2044 190.9 63.5044C190.9 63.0044 188.9 61.5044 185.1 58.9044C181.5 56.5044 179.4 55.3044 178.9 55.3044C178.6 55.3044 178.1 55.5044 177.9 56.0044L173.3 65.6044ZM335.8 66.1044C333.7 62.7044 331.3 61.3044 328.4 61.3044C328.1 61.3044 327.4 62.0044 326.4 63.9044C325.2 65.9044 324.7 67.1044 324.7 67.3044C324.7 68.0044 325.2 69.0044 326.6 70.2044C328.1 71.4044 329 72.1044 330 72.1044C330.7 72.1044 331 71.8044 331.2 71.6044C331.5 71.1044 331.7 71.1044 332.2 71.1044C333.2 71.1044 334.4 73.3044 336.3 78.1044C338.2 82.7044 339.1 85.8044 338.9 87.5044C339.1 88.5044 339.1 89.2044 339.6 89.2044C340.1 89.2044 340.6 88.5044 341.3 87.5044C342 85.9044 343 83.0044 343.7 78.9044C345.4 69.8044 347.1 65.2044 349 65.2044C349.9 65.2044 350.9 65.6044 351.6 66.6044C352.6 67.6044 353.1 68.3044 353.3 68.3044C353.7 68.3044 354.2 67.5044 354.7 66.1044C355.2 65.1044 355.2 64.2044 355.2 63.7044C355.2 62.7044 354.8 61.7044 353.8 60.3044C352.8 58.8044 351.6 58.1044 350.4 58.1044C348.2 58.1044 346.3 60.3044 344.4 64.6044C342.7 70.9044 341.5 75.7044 341 78.8044C341 79.3044 340.8 79.6044 340.8 79.8044L340.6 79.8044C340.6 79.5044 340.6 79.3044 340.4 78.8044C339.6 73.5044 338 69.2044 335.8 66.1044ZM77.3 67.3044C77.8 66.3044 78 65.4044 78 64.9044C78 63.9044 77.6 63.0044 76.6001 61.5044C75.4 60.0044 74.2 59.3044 73 59.3044C70.8 59.3044 68.9 61.5044 67 65.8044C65.3 72.1044 64.1 76.9044 63.9 80.0044C63.6 80.5044 63.4 80.8044 63.4 81.0044C63.4 81.0951 63.4 81.1447 63.3814 81.1531C63.3589 81.1633 63.3094 81.1138 63.2 81.0044L63.2 80.0044C62.2 74.7044 60.8 70.7044 58.4 67.3044C56.2 63.9044 53.8 62.5044 51.2 62.5044C50.9 62.5044 50.2 63.2045 49 65.1044C47.8 67.1044 47.3 68.3044 47.3 68.5044C47.3 69.2044 48 70.2044 49.2 71.4044C50.7 72.6044 51.6 73.3044 52.6 73.3044C53.3 73.3044 53.8 73.0044 53.8 72.8044C54 72.3044 54.3 72.3044 55 72.3044C55.7 72.3044 56.9 74.5044 58.8 79.3044C60.7 83.9044 61.7 87.0044 61.7 88.7044C61.7 89.1964 61.7726 89.6157 61.8702 89.9148C61.4807 90.3656 61.0247 90.8969 60.5 91.5044C58.8 93.4044 56.7 95.5044 53.8 97.7044C41.8 105.604 32.7 111.204 26.2 115.004C25 115.704 24.3 116.504 24.3 116.704C24.3 116.704 24.3 116.904 24.5 116.904C25 116.904 25.7 116.704 26.9 116.204C34.9 113.404 39.2 111.704 39.9 111.204C43.5 109.604 47.5 107.204 52.1 103.804C57.2 100.204 60.5 96.3044 62.2 92.5044C62.7353 91.2196 63.0987 90.2214 63.3209 89.5097C63.4996 89.2752 63.6909 89.0032 63.9 88.7044C64.9 87.1044 65.6 84.2044 66.3 80.1044C68 71.0044 69.9 66.4044 71.8 66.4044C72.5 66.4044 73.5 66.8044 74.2 67.8044C75.2 68.8044 75.7 69.5044 75.9 69.5044C76.6 69.5044 77.1 68.7044 77.3 67.3044ZM63.3209 89.5097C63.5136 88.892 63.6 88.4903 63.6 88.3044L63.6 88.1044C63.4552 88.1044 62.8913 88.7331 61.8702 89.9148C61.971 90.2237 62.0984 90.4044 62.2 90.4044C62.5506 90.4044 62.9013 90.0602 63.3209 89.5097ZM124.8 119.104C130.3 113.404 133.2 105.904 133.2 96.8044C133.2 86.5044 130.4 77.9044 124.9 70.5044C119.7 63.8044 113.9 60.4044 107.9 60.4044C104.3 60.4044 100.7 62.8044 97.3 67.8044C93.7 73.1044 92 78.2044 92 83.2044C92 86.8044 92.9 89.7044 95.1 92.1044C97.2 94.5044 100.1 95.7044 103.7 95.7044L113.3 95.7044C116.9 95.7044 120.2 96.4044 123.6 98.1044C127.2 99.7044 128.9 101.904 128.9 104.304C124.6 108.404 118.6 111.704 110.4 114.604C102.744 117.488 96.077 118.888 90.3 118.904L90.3 118.704C87 118.704 84.3 118.004 82.9 116.104C82.2 115.604 81.2 113.904 79.8 110.804C79.1 109.404 78.6 108.404 78.1 108.404C77.6 108.404 77.1 109.104 76.9 110.304C75 116.304 74 119.904 74 120.604C74 121.604 74.4 123.004 75.4 124.704C80 133.804 82.4 142.404 82.4 150.604C81.4 152.804 77.3 156.604 70.6 162.404C62.7 168.604 55 173.904 47.1 178.204C37.2 183.504 28.8 186.104 22.1 186.104C16.6 186.104 11.8 183.704 8.2 178.404C4.99998 174.404 3.59999 169.804 3.59999 165.004C3.59999 159.504 5 151.604 7.89999 141.004C8.29327 139.825 8.50094 138.83 8.57168 138.119C11.0592 137.299 12.8572 133.761 13.9 127.504C14.1 127.304 14.1 127.004 13.9 126.804C13.9 126.714 13.9 126.664 13.8814 126.656C13.8589 126.646 13.8093 126.695 13.7 126.804C13.7 126.804 13.5 127.104 13.5 127.304C11.8 130.204 10.4 131.904 8.79999 131.904C6.69998 131.904 5.69998 129.704 5.69998 125.904C5.69998 122.804 6.89999 117.704 9.29999 110.304C9.79999 108.604 9.99998 107.604 9.99998 107.404C9.69998 107.404 9.29999 108.304 8.29999 110.004C4.49998 117.004 2.79999 123.904 2.79999 130.404C2.79999 135.579 4.22983 138.18 7.18258 138.3C6.89199 138.828 6.5661 139.499 6.2 140.304C2.2 151.104 0 161.404 0 171.704C0 178.204 1.2 184.204 4.09998 189.204C7.99997 196.604 14.2 200.204 22.6 200.204C31.7 200.204 42.8 196.204 55.5 188.004C65.6 181.604 73.5 175.104 78.8 168.604C84.1 162.604 86.7 150.604 86.7 132.804C87.3862 133.295 88.5528 133.304 90.2 133.304L90.2 133.504C103.7 133.504 115.2 128.704 124.8 119.104ZM276 75.0044C276 78.8044 274.1 84.1044 270.2 90.6044C267.8 94.7044 264.2 100.204 259.4 107.404C264.2 112.904 267.6 118.004 269.2 122.304C270.2 125.404 270.9 129.504 270.9 134.104C270.9 136.004 270.4 138.404 269.5 141.504C268.8 144.404 267.8 146.504 266.9 148.004C265 150.904 261.9 153.804 257.1 156.604C252.1 160.004 247.7 161.604 244.1 161.604C238.3 161.604 235.5 157.304 235.5 148.604C235.5 142.804 236.5 137.104 238.4 131.804C240.3 127.204 243.4 121.204 248.5 113.304C244.2 109.204 239.6 103.504 234.6 96.3044C234.1 95.6044 232.9 94.4044 231 92.5044C230 91.5044 229.6 90.3044 229.6 88.9044C229.6 86.7044 229.8 84.3044 230.3 81.5044C231 78.6044 231.5 77.4044 231.7 77.4044C232.4 77.4044 234.6 78.6044 238.7 81.2044C242.5 83.8044 245.7 85.8044 247.6 87.4044C248.8 88.1044 249.3 88.8044 249.3 88.8044L249.3 89.0044C249.3 89.2044 248.6 89.5044 246.9 89.5044C243.8 89.5044 242.1 89.7044 242.1 90.0044C242.1 90.2044 242.6 90.7044 243.5 91.9044C247.3 96.7044 251.2 100.304 255.3 103.204C256.3 101.804 259.6 97.0044 264.9 88.8044C269.5 81.8044 272.1 77.0044 273.3 74.2044C274.5 71.3044 275.2 70.1044 275.7 70.1044C275.8 70.2044 276 71.6044 276 75.0044ZM105.8 74.3044C110.2 74.3044 114.2 76.9044 117.6 82.2044C112.8 81.7044 109.2 81.5044 107 81.5044C102.9 81.0044 101 79.5044 101 77.4044C101 75.3044 102.7 74.3044 105.8 74.3044ZM293.5 103.304C294.5 104.504 295.2 106.104 295.7 108.304C296.9 112.404 299.3 118.204 302.6 125.204C305.5 131.504 306.9 134.804 306.9 135.304C306.9 137.304 304 140.404 298.5 144.704C293.649 148.31 287.336 152.431 279.563 157.012C280.298 152.575 281.571 147.26 283.4 141.004C283.7 139.504 283.9 138.304 283.9 137.604C283.9 137.104 283.9 136.904 283.7 136.904C283.2 136.904 282.7 137.904 281.5 140.304C279.154 146.64 277.427 152.803 276.4 158.855C273.192 160.703 269.759 162.62 266.1 164.604C256.7 169.704 245 175.204 230.8 181.204C210.4 189.804 199.3 194.604 197.4 195.604C192.1 198.004 189.5 199.504 189.5 199.704C189.5 199.904 189.5 199.904 190 199.904C191 199.904 193.4 199.604 197.2 198.904C200.8 198.404 209.9 196.304 224.3 192.904C238 189.604 245.2 187.904 245.7 187.904C248.3 187.904 256.7 183.804 271.1 175.404C272.545 174.595 273.953 173.79 275.324 172.989C275.56 180.257 277.54 186.521 281.1 191.204C285.4 197.204 291.6 200.304 299.8 200.304C309.4 200.304 320.4 195.304 333.4 185.704C342.1 179.204 350 171.704 357.2 163.104C360.3 159.504 362.9 154.904 364.6 149.404C366.1 145.004 366.8 141.704 366.8 138.804L367.3 138.304L367.3 125.104C366.3 125.604 365.8 125.604 365.6 125.604C363.2 120.604 360.3 116.504 357.2 112.904C353.6 109.304 350.5 107.404 347.4 107.404C343.3 107.404 339.5 109.504 335.9 113.604C332.1 118.404 330.4 123.704 330.4 129.704C330.4 137.604 336.2 141.704 347.7 141.704C353 141.704 357.3 141.004 360.2 140.004C360.7 141.704 361.2 143.404 361.2 144.804C361.2 147.004 357.6 151.304 350.6 158.104C342.9 165.304 335 171.304 326.8 176.304C316.4 182.604 307.8 185.704 300.6 185.704C292.2 185.704 286.2 183.004 282.4 178.004C280.939 175.813 279.923 173.326 279.351 170.587C291.644 163.089 300.623 156.024 306.4 149.504C308.4 147.304 309.8 144.204 311 140.104C311.9 136.504 312.4 133.604 312.4 131.204C312.4 126.104 310.9 120.604 308.3 113.904C306.6 110.104 304.7 106.004 303 101.904C305.9 102.604 307.8 103.104 308.5 103.104C309 103.104 309.2 102.804 309.2 102.604C309.2 102.104 308.5 101.204 306.8 99.5044C302.8 95.4044 299.2 91.5044 295.8 87.7044C295.3 87.2044 295 87.0044 294.8 87.0044C294.3 87.0044 294 87.5044 293.8 88.7044C293.3 89.9044 293.1 92.1044 292.6 95.2044C292.1 98.5044 292.1 100.204 292.1 100.704C292.3 101.104 292.8 101.904 293.5 103.304ZM393.4 110.104C392.7 110.104 391.7 110.504 390.5 111.504C386.7 114.804 382.8 117.704 378.9 119.704C377.7 120.504 373.6 122.404 367.4 125.504L367.4 138.704C375.8 134.804 382.3 130.804 386.1 126.204C386.1 137.204 390.9 143.004 401 143.004C409.4 143.004 416.3 138.204 421.6 128.604C424.8 134.404 428.4 137.504 432.2 137.504C438 137.504 442.3 134.904 445.2 129.604C447.9 125.204 449.3 120.204 449.3 114.204C449.3 110.304 448.1 107.004 446.2 104.104C445.5 103.104 445 102.904 444.5 102.904C444 102.904 443.5 103.704 443.3 105.104C441.9 109.604 440.9 113.004 440.7 114.904C442.8 118.504 443.8 120.504 443.8 120.704C442.8 122.304 440.7 123.304 437.3 123.304C434.7 123.304 432.3 122.304 430.6 120.904C428.7 119.504 427.7 117.804 427.7 116.104C427.7 116.604 428.4 114.704 429.4 110.604C429.9 108.504 429.7 107.504 428.7 107.504C428 107.504 427.3 107.904 426.3 108.904C423.9 112.804 421.3 116.604 418.9 120.704C415 125.804 410 128.404 404 128.404C396.5 128.404 392.7 125.504 392.7 120.204C392.7 119.004 392.9 117.504 393.4 115.604C393.9 113.704 394.1 112.204 394.1 111.504C394.1 110.604 393.9 110.104 393.4 110.104ZM266.7 134.004C264.1 128.704 259.5 123.204 253.3 117.904C251.1 120.104 248.5 124.104 245.1 129.904C241.3 136.404 239.6 140.504 239.6 142.604C239.6 145.504 241.5 146.904 245.8 146.904C247.7 146.904 250.1 146.204 253.2 145.004C257.5 143.104 261.6 140.404 265 137.104C266.4 135.704 266.9 134.704 266.7 134.004ZM353.8 127.304C350.2 122.704 347.1 120.604 344.2 120.604C339.9 120.604 338 121.604 338 124.004C338 126.904 340.9 128.304 346.6 128.304C348.63 128.304 350.83 127.879 353.2 127.42C353.399 127.382 353.599 127.343 353.8 127.304ZM102.5 151.804C112.1 148.404 122.4 144.604 133.5 140.804C133.885 140.727 134.152 140.636 134.345 140.569C134.654 140.462 134.777 140.42 134.9 140.604C135.1 140.604 135.1 141.104 134.7 141.804C134 144.004 133.3 145.204 132.8 145.604C123.2 149.004 112.4 153.004 100.2 158.604C100.6 156.304 101.3 154.204 102.5 151.804ZM46.6 149.104C46.6 151.704 45.4 154.604 43.5 157.704C41.3 160.804 38.7 163.704 35.3 166.104C33.9 167.104 33.1 167.504 32.9 167.504L32.9 167.304C32.9 167.104 33.4 166.604 34.3 165.404C39.8 159.404 42.7 155.604 42.7 153.404C42.7 151.704 41.7 150.804 40.1 150.804C39.1 150.804 38.2 151.004 37.5 151.504C36.8 151.704 36.5 152.004 36.3 152.004C36.3 152.004 36.1 152.004 36.1 151.804C36.1 151.804 36.1 151.304 36.3 150.404C37.3 146.304 39.2 144.404 42.5 144.404C45.2 144.304 46.6 146.004 46.6 149.104ZM379.7 190.904C377.1 191.604 375.6 192.104 375.1 192.104L375.1 191.904C375.1 191.904 376.1 191.204 378 190.004C379.9 188.804 382.8 186.904 386.9 183.804C388.8 181.904 391.7 178.804 395.3 174.404C397.7 171.504 400.3 168.904 403.2 167.004C406.8 164.404 410.2 163.204 413.8 163.204C414.5 163.204 415.7 163.404 417.2 163.904C418.4 164.404 419.6 164.604 420.6 164.604C422.5 164.604 424 163.904 425.2 162.404C425.9 161.004 426.9 159.804 427.8 158.304C428.3 157.304 429 156.904 429.5 156.904C429.7 156.904 429.7 157.104 429.7 157.604C429.7 158.104 429.5 159.304 429 160.704C428.5 161.404 430.4 161.704 434 161.704C434.5 161.704 434.7 161.704 434.7 161.504C434.7 161.504 434.5 160.504 434 158.904C433.8 158.404 434 157.704 434.7 156.704L434.78 156.569C435.722 154.967 436.108 154.31 436.4 154.504C437.4 155.204 437.8 156.704 437.8 158.304C437.8 160.004 437.3 161.704 436.6 163.604C435.9 165.804 435.2 167.004 434.7 167.404C433 168.404 430.4 168.104 426.8 166.404C423.9 169.304 421 171.004 418.2 171.004C417.5 171.004 416.3 170.804 415.1 170.304C413.9 169.804 412.9 169.604 412.2 169.604C407.4 169.604 402.4 171.804 397.3 176.604L386.5 187.404C384.3 189.004 382.1 190.204 379.7 190.904ZM211 177.204C212.9 174.104 214.1 171.204 214.1 168.604C214.1 165.504 212.7 163.804 210 163.904C206.7 163.904 204.8 165.804 203.8 169.904C203.6 170.804 203.6 171.304 203.6 171.304C203.6 171.504 203.8 171.504 203.8 171.504C204 171.504 204.3 171.204 205 171.004C205.7 170.504 206.6 170.304 207.6 170.304C209.2 170.304 210.2 171.204 210.2 172.904C210.2 175.104 207.3 178.904 201.8 184.904C200.9 186.104 200.4 186.604 200.4 186.804L200.4 187.004C200.6 187.004 201.4 186.604 202.8 185.604C206.2 183.204 208.8 180.304 211 177.204ZM134.7 173.104C137.6 173.104 140 174.504 142.1 177.904C144.3 181.004 145.9 185.304 146.7 190.604C146.9 191.104 146.9 191.304 146.9 191.604L147.1 191.604C147.1 191.404 147.3 191.104 147.3 190.604C147.8 187.504 149 182.704 150.7 176.404C152.6 172.104 154.5 169.904 156.7 169.904C157.9 169.904 159.1 170.604 160.1 172.104C161.1 173.504 161.5 174.504 161.5 175.504C161.5 176.004 161.5 176.904 161 177.904C160.5 179.304 160 180.104 159.6 180.104C159.4 180.104 158.9 179.404 157.9 178.404C157.2 177.404 156.2 177.004 155.3 177.004C153.4 177.004 151.7 181.604 150 190.704C149.3 194.804 148.3 197.704 147.6 199.304C146.9 200.304 146.4 201.004 145.9 201.004C145.4 201.004 145.4 200.304 145.2 199.304C145.4 197.604 144.5 194.504 142.6 189.904C140.7 185.104 139.5 182.904 138.5 182.904C138 182.904 137.8 182.904 137.5 183.404C137.3 183.604 137 183.904 136.3 183.904C135.3 183.904 134.4 183.204 132.9 182.004C131.5 180.804 131 179.804 131 179.104C131 178.904 131.5 177.704 132.7 175.704C133.7 173.904 134.4 173.104 134.7 173.104ZM101.5 175.304C93.1 178.404 85 182.004 76.8 186.104Q75.45 189.404 74.7 192.404C77.8 190.704 80.4 189.304 82.6 188.304C91.3 184.704 97.3 182.104 101.1 180.404C101.8 179.704 102.3 178.504 103 176.304C103.4 175.604 103.4 175.104 103.2 175.104C102.997 174.902 102.749 174.973 102.299 175.103C102.084 175.165 101.823 175.24 101.5 175.304ZM99.9 184.204C91.5 187.304 83.4 190.904 75.2 195.004C74.2 197.104 73.5 199.304 73.1 201.204C76.2 199.504 78.8 198.104 81 197.104C89.7 193.304 95.7 190.604 99.5 189.204C100.2 188.504 100.7 187.304 101.4 185.104C101.8 184.404 101.8 183.904 101.6 183.704C101.3 183.704 100.9 184.004 99.9 184.204Z" id="Group" fill="#595959" fill-rule="evenodd" stroke="none" clip-path="url(#clip_1)" />
  </g>
</svg>