<?xml version="1.0" encoding="utf-8"?>
<svg width="499.30008px" height="204.7px" viewBox="0 0 499.30008 204.7" version="1.1" xmlns:xlink="http://www.w3.org/1999/xlink" xmlns="http://www.w3.org/2000/svg">
  <defs>
    <path d="M499.3 0L499.3 0L499.3 204.7L0 204.7L0 0L499.3 0Z" id="path_1" />
    <clipPath id="clip_1">
      <use xlink:href="#path_1" clip-rule="evenodd" fill-rule="evenodd" />
    </clipPath>
  </defs>
  <g id="Surah_57_of_114_(modified)">
    <path d="M499.3 0L499.3 0L499.3 204.7L0 204.7L0 0L499.3 0Z" id="Surah_57_of_114_(modified)" fill="none" stroke="none" />
    <path d="M243.2 54.3C243.2 49.5 242.5 45.7 241 42.5C241 40.8 242.2 36.7 245.1 30.5C245.3 29.8 245.6 29.3 245.8 29.3C246.3 29.3 246.5 29.8 247 30.5C247.7 32.2 249.4 36.7 252.3 44.2C255.4 52.1 257.1 56.9 257.6 58.8C258.1 60 258.1 61.2 258.1 61.7C258.1 63.9 256.2 62.7 251.9 57.9C251.4 57.2 251.2 57.7 251.2 58.9C251.2 59.4 252.4 74.3 254.6 104C256.8 133.5 257.7 150.1 257.7 153.9C257.7 165.2 256 175.3 252.7 183.9C251.7 185.6 251.3 186.8 250.8 187.7L250.8 187.7C250.1 188.9 249.8 188.9 249.6 188.2C249.4 187.2 249.6 185.3 249.8 182.7C250.3 178.6 250.5 174.1 250.5 169C250.5 164.2 249.3 145 246.9 111.2C244.4 77.3 243.2 58.4 243.2 54.3L243.2 54.3L243.2 54.3L243.2 54.3L243.2 54.3ZM207 145.3L181.1 138.8C181.3 138.3 184.7 137.1 190.9 135.4C199.3 133 206.3 130.8 211.5 128.7C214.1 127.7 215.6 126.3 216.1 124.6C216.3 123.4 216.6 117.6 216.6 107.1C216.6 102.8 215.6 89.1 214 66.3C212.3 43.3 211.6 29.6 211.6 25.5C211.6 20.9 210.9 17.1 209.4 14C209.4 12.3 210.6 8.2 213.5 1.8C213.7 1.10001 214 0.800003 214.2 0.800003C214.7 0.800003 214.9 1 215.4 1.8C216.1 3.7 218 8.3 220.9 15.7C223.8 23.4 225.5 28.2 226.2 30.1C226.4 31.5 226.7 32.5 226.7 33.2C226.7 35.4 224.5 33.9 220.5 29.1C220 28.6 219.8 28.9 219.8 30.1C219.8 30.3 220.5 40.2 222 59.4C223.4 78.4 224.2 90.4 224.2 95.4C224.2 109.1 223.2 119.2 221.3 125.4C218.7 133.7 213.9 140.2 207 145.3L207 145.3L207 145.3L207 145.3L207 145.3ZM278.5 148.1L273.5 158.2C272.8 159.4 272.3 159.9 271.3 159.9C255 159.9 240.8 162.3 228.8 167.3C225.9 168.5 218.5 172.1 206 178.6C197.6 182.9 191.8 185.1 188.5 185.1L188.5 170.5C195.7 170.5 207.9 165.7 225 156.1C209.6 153.7 194.5 152 179.6 150.8C176.7 150.6 175.3 150.1 175.3 149.6C175.3 149.4 175.3 149.1 175.5 148.9C176.7 146.5 178.4 143.1 180.5 138.8L205.7 138.8C209.1 139.5 217.7 140.7 231.9 142.6C249.7 145 264.1 146 274.9 146C277.5 146 279 146.2 279 147C279 147.2 279 147.7 278.5 148.1L278.5 148.1L278.5 148.1L278.5 148.1L278.5 148.1ZM99.7 184.1C110.7 184.1 122.5 179.8 135.2 171.1C145 164.4 152.7 157.4 158.2 150C160.1 147.6 160.8 146.4 160.8 146.4C161.5 145.2 161.8 143.8 161.8 141.8C161.8 137.2 160.4 130 158 120C156.1 112.3 151.3 100.8 144.1 85C143.9 84.5 144.1 82.6 144.8 79C145.3 75.6 145.5 73.2 146 71.8C146.5 70.1 147.2 69.6 148.2 70.8C156.6 82.1 163.1 97.9 167.2 117.8C168.9 126.7 171.3 139.2 173.9 155C175.1 162 177.3 166.3 180.6 168.4C182.3 169.6 185.2 170.1 188.8 170.1L188.8 184.7C183.5 184.7 179.4 183.7 176.6 181.6C172.3 178.5 169.6 172.7 168 164.3C167.5 161.4 166.6 155.7 165.4 146.8C164.2 153.8 161.8 159.5 158.2 164.1C151 173 142.1 180.7 132 187.1C120.2 194.5 109.4 198.4 99.6 198.4C94.6 198.4 90.5 196.2 87.8 191.9C85.6 188.3 84.7 184 84.7 178.7C84.7 168.6 86.9 158.1 90.9 147.5C91.9 145.3 92.6 144.1 93.1 144.1C93.3 144.1 93.3 144.3 93.3 144.8C93.3 145.5 93.1 146.7 92.6 148.2C89.7 158.8 88.3 166.7 88.3 172.2C88.2 180.3 92 184.1 99.7 184.1L99.7 184.1L99.7 184.1L99.7 184.1L99.7 184.1ZM119.1 122C119.1 129.2 117.9 134.7 115.7 138.6C112.6 144.1 108.5 147 103.7 147L103.7 132.4C109.2 132.4 112.8 130.5 114.5 126.4C114.5 124.5 112.3 120.4 108.3 113.9C108.1 113.2 107.8 112.7 107.8 112C107.8 108.4 108.8 104.8 110.4 101.2C110.9 100 111.6 100 112.3 101.2C114.7 104.6 116.4 107.7 117.1 109.8C118.4 113.1 119.1 117.2 119.1 122L119.1 122L119.1 122L119.1 122L119.1 122ZM15 146C26 146 37.8 141.7 50.5 133C60.3 126.3 68 119.3 73.5 111.9C75.4 109.5 76.1 108.3 76.1 108.3C76.8 107.1 77.1 105.7 77.1 103.7C77.1 99.1 75.7 91.9 73.3 81.9C71.4 74.2 66.6 62.7 59.4 46.9C59.2 46.4 59.4 44.5 60.1 40.9C60.6 37.5 60.8 35.1 61.3 33.7C61.8 32 62.5 31.5 63.5 32.7C71.9 44 78.4 59.8 82.5 79.7C84.2 88.6 86.6 101.1 89.2 116.9C90.4 123.9 92.6 128.2 95.9 130.3C97.6 131.5 100.5 132 104.1 132L104.1 146.7C98.8 146.7 94.7 145.7 91.9 143.6C87.6 140.5 84.9 134.7 83.3 126.3C82.8 123.4 81.9 117.7 80.7 108.8C79.5 115.8 77.1 121.5 73.5 126.1C66.3 135 57.4 142.7 47.3 149.1C35.5 156.5 24.7 160.4 14.9 160.4C9.89999 160.4 5.8 158.2 3.09999 153.9C0.899994 150.3 -7.62939e-06 146 -7.62939e-06 140.7C-7.62939e-06 130.6 2.19999 120.1 6.19999 109.5C7.19999 107.3 7.89999 106.1 8.39999 106.1C8.59998 106.1 8.59998 106.3 8.59998 106.8C8.59998 107.5 8.39999 108.7 7.89999 110.2C4.99998 120.8 3.59998 128.7 3.59998 134.2C3.49999 142.1 7.3 146 15 146L15 146L15 146L15 146L15 146ZM111.2 162.1L115 154.2C115.2 153.7 115.5 153.5 116 153.5C116.5 153.5 118.4 154.7 122.2 157.3C125.8 159.7 127.7 161.1 127.7 161.6C127.7 163.3 126 166.9 122.9 172.2C122.4 172.9 121.9 172.9 121.5 172.7C118.4 170.3 114.8 167.9 110.7 165.3C109.3 168.2 108.1 170.8 106.6 173C106.4 173.7 105.9 174 105.4 173.7C101.8 170.8 98 168.2 94.1 165.8C93.9 165.6 93.9 165.3 94.1 164.8L98.7 155.2C98.9 154.7 99.4 154.2 99.7 154.2C100.2 154.2 101.9 155.4 105 157.6C108.1 159.4 110.3 161.1 111.2 162.1L111.2 162.1L111.2 162.1L111.2 162.1L111.2 162.1ZM191.4 20.9C191.4 19.7 189 17.5 184 14.7C182.3 17.6 181.6 20.2 181.6 22.6C181.6 24 182.3 25 183.8 25C185 25 186.4 24.5 188.1 23.6C189.7 22.9 190.9 21.9 191.4 20.9L191.4 20.9L191.4 20.9L191.4 20.9L191.4 20.9ZM186.1 1.7C186.8 0.5 187.8 0 188.5 0C189 0 189.5 0.199997 189.5 0.699997C189.5 0.699997 189.3 0.899994 189.3 1.2C188.3 3.39999 187.4 5.8 186.7 8.2C191.7 11.8 194.1 15.6 193.9 19.2C193.4 23.3 192.9 25.9 192.2 26.9C189.8 29.8 187.2 31.5 183.8 31.5C180.4 31.5 179 29.3 179 25.5C179 24.8 179 23.8 179.2 22.9C180.3 15.2 182.7 8.2 186.1 1.7L186.1 1.7L186.1 1.7L186.1 1.7L186.1 1.7ZM175.8 99.7C185.4 96.3 195.7 92.5 206.8 88.7C207.8 88.5 208 88.2 208.2 88.5C208.4 88.5 208.4 89 208 89.7C207.3 91.9 206.6 93.1 206.1 93.5C196.5 96.9 185.7 100.9 173.5 106.5C173.9 104.2 174.6 102.1 175.8 99.7L175.8 99.7L175.8 99.7L175.8 99.7L175.8 99.7ZM135.2 196.4C144.8 193 155.1 189.2 166.2 185.4C167.2 185.2 167.4 184.9 167.6 185.2C167.8 185.2 167.8 185.7 167.4 186.4C166.7 188.6 166 189.8 165.5 190.2C155.9 193.6 145.1 197.6 132.9 203.2C133.3 200.9 134 198.8 135.2 196.4L135.2 196.4L135.2 196.4L135.2 196.4L135.2 196.4ZM38.3 171.9C47.9 168.5 58.2 164.7 69.3 160.9C70.3 160.7 70.5 160.4 70.7 160.7C70.9 160.7 70.9 161.2 70.5 161.9C69.8 164.1 69.1 165.3 68.6 165.7C59 169.1 48.2 173.1 36 178.7C36.3 176.5 37.1 174.3 38.3 171.9L38.3 171.9L38.3 171.9L38.3 171.9L38.3 171.9ZM190.9 65.3C190.9 65.1 191.1 64.8 191.1 64.8C191.3 64.6 191.3 64.6 191.3 64.8C191.5 65 191.5 65.3 191.3 65.5C190.1 72.7 187.9 76.3 184.8 76.3C181.7 76.3 180.2 73.7 180.2 68.4C180.2 61.9 181.9 55 185.7 48C186.7 46.3 187.1 45.4 187.4 45.4L187.4 45.4C187.4 45.6 187.2 46.6 186.7 48.3C184.3 55.7 183.1 60.8 183.1 63.9C183.1 67.7 184.1 69.9 186.2 69.9C187.8 69.9 189.2 68.2 190.9 65.3L190.9 65.3L190.9 65.3L190.9 65.3L190.9 65.3ZM255.5 4.59999C258.4 4.59999 260.8 5.99998 262.9 9.39999C265.1 12.5 266.7 16.8 267.5 22.1C267.7 22.6 267.7 22.8 267.7 23.1L267.9 23.1C267.9 22.9 268.1 22.6 268.1 22.1C268.6 19 269.8 14.2 271.5 7.89999C273.4 3.59999 275.3 1.39999 277.5 1.39999C278.7 1.39999 279.9 2.09999 280.9 3.59999C281.9 4.99998 282.3 5.99998 282.3 6.99998C282.3 7.49998 282.3 8.39998 281.8 9.39998C281.3 10.8 280.8 11.6 280.4 11.6C280.2 11.6 279.7 10.9 278.7 9.89998C278 8.89998 277 8.49998 276.1 8.49998C274.2 8.49998 272.5 13.1 270.8 22.2C270.1 26.3 269.1 29.2 268.4 30.8C267.7 31.8 267.2 32.5 266.7 32.5C266.2 32.5 266.2 31.8 266 30.8C266.2 29.1 265.3 26 263.4 21.4C261.5 16.6 260.3 14.4 259.3 14.4C258.8 14.4 258.6 14.4 258.3 14.9C258.1 15.1 257.8 15.4 257.1 15.4C256.1 15.4 255.2 14.7 253.7 13.5C252.3 12.3 251.8 11.3 251.8 10.6C251.8 10.4 252.3 9.20001 253.5 7.20001C254.5 5.3 255.2 4.59999 255.5 4.59999L255.5 4.59999L255.5 4.59999L255.5 4.59999L255.5 4.59999ZM279.7 110.5C279.7 113.1 278.5 116 276.6 119.1C274.4 122.2 271.8 125.1 268.4 127.5C267 128.5 266.2 128.9 266 128.9L266 128.7C266 128.5 266.5 128 267.4 126.8C272.9 120.8 275.8 117 275.8 114.8C275.8 113.1 274.8 112.2 273.2 112.2C272.2 112.2 271.3 112.4 270.6 112.9C269.9 113.1 269.6 113.4 269.4 113.4C269.4 113.4 269.2 113.4 269.2 113.2C269.2 113.2 269.2 112.7 269.4 111.8C270.4 107.7 272.3 105.8 275.6 105.8C278.3 105.7 279.7 107.3 279.7 110.5L279.7 110.5L279.7 110.5L279.7 110.5L279.7 110.5ZM155.9 37C151.1 41.3 144.6 43.7 136.9 43.7C134.7 43.7 132.6 43 131.1 41.8C129.7 40.6 128.9 38.9 128.9 37C128.9 33.6 130.1 30.3 133 26.9C135.9 23.8 138.8 20.9 141.4 17.8C142.1 17.3 141.9 16.8 140.9 16.4C139 15.7 136.6 15.4 134.2 15.4C133 15.4 131.6 15.6 129.9 16.6C129.7 16.6 129.4 16.8 129.2 16.6C129.2 16.6 129.2 16.4 129.4 15.9C130.4 13.5 131.3 11.8 132.3 11.1C133.5 10.1 135.4 9.7 138.1 9.7C143.9 9.7 146.5 10.9 146.5 13.8C146.5 16 144.8 18.8 141.2 22.9C138.6 25.5 135.9 28.2 133.3 30.8C132.3 32.2 131.9 33.7 131.9 34.6C131.9 37 134.5 38.2 139.6 38.2C144.6 38.2 149.7 37.2 155.4 35.6C156.8 35.1 157.6 35.1 157.6 35.4C157.5 35.3 157.1 36.1 155.9 37L155.9 37L155.9 37L155.9 37L155.9 37ZM15.7 97.5C15.7 97.3 15.9 97 15.9 97C16.1 96.8 16.1 96.8 16.1 97C16.3 97.2 16.3 97.5 16.1 97.7C14.9 104.9 12.7 108.5 9.59999 108.5C6.49999 108.5 4.99999 105.9 4.99999 100.6C4.99999 94.1 6.69999 87.2 10.5 80.2C11.5 78.5 11.9 77.6 12.2 77.6L12.2 77.6C12.2 77.8 12 78.8 11.5 80.5C9.1 87.9 7.9 93 7.9 96.1C7.9 99.9 8.9 102.1 11 102.1C12.6 102.1 14 100.4 15.7 97.5L15.7 97.5L15.7 97.5L15.7 97.5L15.7 97.5ZM48.1 105.2C48.1 105 48.3 104.7 48.3 104.7C48.5 104.5 48.5 104.5 48.5 104.7C48.7 104.9 48.7 105.2 48.5 105.4C47.3 112.6 45.1 116.2 42 116.2C38.9 116.2 37.4 113.6 37.4 108.3C37.4 101.8 39.1 94.9 42.9 87.9C43.9 86.2 44.3 85.3 44.6 85.3L44.6 85.3C44.6 85.5 44.4 86.5 43.9 88.2C41.5 95.6 40.3 100.7 40.3 103.8C40.3 107.6 41.3 109.8 43.4 109.8C45 109.7 46.4 108.1 48.1 105.2L48.1 105.2L48.1 105.2L48.1 105.2L48.1 105.2ZM13.3 44.5C16.2 44.5 18.6 45.9 20.7 49.3C22.9 52.4 24.5 56.7 25.3 62C25.5 62.5 25.5 62.7 25.5 63L25.7 63C25.7 62.8 25.9 62.5 25.9 62C26.4 58.9 27.6 54.1 29.3 47.8C31.2 43.5 33.1 41.3 35.3 41.3C36.5 41.3 37.7 42 38.7 43.5C39.7 44.9 40.1 45.9 40.1 46.9C40.1 47.4 40.1 48.3 39.6 49.3C39.1 50.7 38.6 51.5 38.2 51.5C38 51.5 37.5 50.8 36.5 49.8C35.8 48.8 34.8 48.4 33.9 48.4C32 48.4 30.3 53 28.6 62.1C27.9 66.2 26.9 69.1 26.2 70.7C25.5 71.7 25 72.4 24.5 72.4C24 72.4 24 71.7 23.8 70.7C24 69 23.1 65.9 21.2 61.3C19.3 56.5 18.1 54.3 17.1 54.3C16.6 54.3 16.4 54.3 16.1 54.8C15.9 55 15.6 55.3 14.9 55.3C13.9 55.3 13 54.6 11.5 53.4C10.1 52.2 9.59997 51.2 9.59997 50.5C9.59997 50.3 10.1 49.1001 11.3 47.1001C12.3 45.2 13.1 44.5 13.3 44.5L13.3 44.5L13.3 44.5L13.3 44.5L13.3 44.5ZM103.3 60.5C106.2 60.5 108.6 61.9 110.7 65.3C112.9 68.4 114.5 72.7 115.3 78C115.5 78.5 115.5 78.7 115.5 79L115.7 79C115.7 78.8 115.9 78.5 115.9 78C116.4 74.9 117.6 70.1 119.3 63.8C121.2 59.5 123.1 57.3 125.3 57.3C126.5 57.3 127.7 58 128.7 59.5C129.7 60.9 130.1 61.9 130.1 62.9C130.1 63.4 130.1 64.3 129.6 65.3C129.1 66.7 128.6 67.5 128.2 67.5C128 67.5 127.5 66.8 126.5 65.8C125.8 64.8 124.8 64.4 123.9 64.4C122 64.4 120.3 69 118.6 78.1C117.9 82.2 116.9 85.1 116.2 86.7C115.5 87.7 115 88.4 114.5 88.4C114 88.4 114 87.7 113.8 86.7C114 85 113.1 81.9 111.2 77.3C109.3 72.5 108.1 70.3 107.1 70.3C106.6 70.3 106.4 70.3 106.1 70.8C105.9 71 105.6 71.3 104.9 71.3C103.9 71.3 103 70.6 101.5 69.4C100.1 68.2 99.6 67.2 99.6 66.5C99.6 66.3 100.1 65.1 101.3 63.1C102.3 61.3 103.1 60.5 103.3 60.5L103.3 60.5L103.3 60.5L103.3 60.5L103.3 60.5ZM99.7 32.9C99.7 32.7 99.9 32.4 99.9 32.4C100.1 32.2 100.1 32.2 100.1 32.4C100.3 32.6 100.3 32.9 100.1 33.1C98.9 40.3 96.7 43.9 93.6 43.9C90.5 43.9 89 41.3 89 36C89 29.5 90.7 22.6 94.5 15.6C95.5 13.9 95.9 13 96.2 13L96.2 13C96.2 13.2 96 14.2 95.5 15.9C93.1 23.3 91.9 28.4 91.9 31.5C91.9 35.3 92.9 37.5 95 37.5C96.6 37.5 98 35.8 99.7 32.9L99.7 32.9L99.7 32.9L99.7 32.9L99.7 32.9ZM145.5 117.9C145.5 120.5 144.3 123.4 142.4 126.5C140.2 129.6 137.6 132.5 134.2 134.9C132.8 135.9 132 136.3 131.8 136.3L131.8 136.1C131.8 135.9 132.3 135.4 133.2 134.2C138.7 128.2 141.6 124.4 141.6 122.2C141.6 120.5 140.6 119.6 139 119.6C138 119.6 137.1 119.8 136.4 120.3C135.7 120.5 135.4 120.8 135.2 120.8C135.2 120.8 135 120.8 135 120.6C135 120.6 135 120.1 135.2 119.2C136.2 115.1 138.1 113.2 141.4 113.2C144.1 113.1 145.5 114.8 145.5 117.9L145.5 117.9L145.5 117.9L145.5 117.9L145.5 117.9ZM227.9 186.3C227.9 188.9 226.7 191.8 224.8 194.9C222.6 198 220 200.9 216.6 203.3C215.2 204.3 214.4 204.7 214.2 204.7L214.2 204.5C214.2 204.3 214.7 203.8 215.6 202.6C221.1 196.6 224 192.8 224 190.6C224 188.9 223 188 221.4 188C220.4 188 219.5 188.2 218.8 188.7C218.1 188.9 217.8 189.2 217.6 189.2C217.6 189.2 217.4 189.2 217.4 189C217.4 189 217.4 188.5 217.6 187.6C218.6 183.5 220.5 181.6 223.8 181.6C226.4 181.5 227.9 183.2 227.9 186.3L227.9 186.3L227.9 186.3L227.9 186.3L227.9 186.3ZM440.5 115.5C441.7 114.5 442.7 114.1 443.4 114.1C443.9 114.1 444.1 114.6 444.1 115.5C444.1 116.2 443.9 117.7 443.4 119.6C442.9 121.5 442.7 123 442.7 124.2C442.7 129.5 446.5 132.4 454 132.4C460 132.4 465 129.8 468.9 124.7C471.3 120.6 473.9 116.8 476.3 112.9C477.3 111.9 478 111.5 478.7 111.5C479.7 111.5 479.9 112.5 479.4 114.6C478.4 118.7 477.7 120.6 477.7 120.1C477.7 121.8 478.7 123.5 480.6 124.9C482.3 126.3 484.7 127.3 487.3 127.3C490.7 127.3 492.8 126.3 493.8 124.7C493.8 124.5 492.8 122.5 490.7 118.9C490.9 117 491.9 113.6 493.3 109.1C493.5 107.7 494 106.9 494.5 106.9C495 106.9 495.5 107.1 496.2 108.1C498.1 111 499.3 114.3 499.3 118.2C499.3 124.2 497.9 129.2 495.2 133.6C492.3 138.9 488 141.5 482.2 141.5C478.4 141.5 474.8 138.4 471.6 132.6C466.3 142.2 459.4 147 451 147C440.9 147 436.1 141.2 436.1 130.2C432.3 134.8 425.8 138.8 417.4 142.7L417.4 129.5C423.6 126.4 427.7 124.5 428.9 123.7C432.8 121.7 436.7 118.9 440.5 115.5L440.5 115.5L440.5 115.5L440.5 115.5L440.5 115.5ZM403.8 131.3C400.2 126.7 397.1 124.6 394.2 124.6C389.9 124.6 388 125.6 388 128C388 130.9 390.9 132.3 396.6 132.3C398.7 132.3 401.1 131.8 403.8 131.3L403.8 131.3L403.8 131.3L403.8 131.3L403.8 131.3ZM411.2 148.9C411.2 147.5 410.7 145.8 410.2 144.1C407.3 145.1 403 145.8 397.7 145.8C386.2 145.8 380.4 141.7 380.4 133.8C380.4 127.8 382.1 122.5 385.9 117.7C389.5 113.6 393.3 111.5 397.4 111.5C400.5 111.5 403.6 113.4 407.2 117C410.3 120.6 413.2 124.7 415.6 129.7C415.8 129.7 416.3 129.7 417.3 129.2L417.3 142.4L416.8 142.9C416.8 145.8 416.1 149.1 414.6 153.5C412.9 159 410.3 163.6 407.2 167.2C400 175.8 392.1 183.3 383.4 189.8C370.4 199.4 359.4 204.4 349.8 204.4C341.6 204.4 335.4 201.3 331.1 195.3C327.3 190.3 325.3 183.5 325.3 175.6C325.3 165.5 327.5 155.2 331.5 144.4C332.7 142 333.2 141 333.7 141C333.9 141 333.9 141.2 333.9 141.7C333.9 142.4 333.7 143.6 333.4 145.1C330.3 155.7 328.8 163.6 328.8 169.1C328.8 174.1 330 178.5 332.4 182.1C336.2 187.1 342.2 189.8 350.6 189.8C357.8 189.8 366.4 186.7 376.8 180.4C385 175.4 392.9 169.4 400.6 162.2C407.6 155.3 411.2 151 411.2 148.9L411.2 148.9L411.2 148.9L411.2 148.9L411.2 148.9ZM345.7 112.6C345.2 110.4 344.5 108.8 343.5 107.6C342.8 106.2 342.3 105.4 342.1 105C342.1 104.5 342.1 102.8 342.6 99.5C343.1 96.4 343.3 94.2 343.8 93C344 91.8 344.3 91.3 344.8 91.3C345 91.3 345.3 91.5 345.8 92C349.2 95.8 352.8 99.7 356.8 103.8C358.5 105.5 359.2 106.4 359.2 106.9C359.2 107.1 359 107.4 358.5 107.4C357.8 107.4 355.9 106.9 353 106.2C354.7 110.3 356.6 114.4 358.3 118.2C360.9 124.9 362.4 130.4 362.4 135.5C362.4 137.9 361.9 140.8 361 144.4C359.8 148.5 358.4 151.6 356.4 153.8C349.4 161.7 337.7 170.4 321.1 179.7C306.7 188.1 298.3 192.2 295.7 192.2C295.2 192.2 288 193.9 274.3 197.2C259.9 200.6 250.8 202.7 247.2 203.2C243.4 203.9 241 204.2 240 204.2C239.5 204.2 239.5 204.2 239.5 204C239.5 203.8 242.1 202.3 247.4 199.9C249.3 198.9 260.4 194.1 280.8 185.5C295 179.5 306.7 174 316.1 168.9C330.3 161.2 341.1 154.5 348.5 149C354 144.7 356.9 141.6 356.9 139.6C356.9 139.1 355.5 135.8 352.6 129.5C349.3 122.5 346.9 116.7 345.7 112.6L345.7 112.6L345.7 112.6L345.7 112.6L345.7 112.6ZM326 79.3C326 83.1 324.1 88.4 320.2 94.9C317.8 99 314.2 104.5 309.4 111.7C314.2 117.2 317.6 122.3 319.2 126.6C320.2 129.7 320.9 133.8 320.9 138.4C320.9 140.3 320.4 142.7 319.5 145.8C318.8 148.7 317.8 150.8 316.9 152.3C315 155.2 311.9 158.1 307.1 160.9C302.1 164.3 297.7 165.9 294.1 165.9C288.3 165.9 285.5 161.6 285.5 152.9C285.5 147.1 286.5 141.4 288.4 136.1C290.3 131.5 293.4 125.5 298.5 117.6C294.2 113.5 289.6 107.8 284.6 100.6C284.1 99.9 282.9 98.7 281 96.8C280 95.8 279.6 94.6 279.6 93.2C279.6 91 279.8 88.6 280.3 85.8C281 82.9 281.5 81.7 281.7 81.7C282.4 81.7 284.6 82.9 288.7 85.5C292.5 88.1 295.7 90.1 297.6 91.7C298.8 92.4 299.3 93.1 299.3 93.1L299.3 93.3C299.3 93.5 298.6 93.8 296.9 93.8C293.8 93.8 292.1 94 292.1 94.3C292.1 94.5 292.6 95 293.5 96.2C297.3 101 301.2 104.6 305.3 107.5C306.3 106.1 309.6 101.3 314.9 93.1C319.5 86.1 322.1 81.3 323.3 78.5C324.5 75.6 325.2 74.4 325.7 74.4C325.8 74.5 326 75.9 326 79.3L326 79.3L326 79.3L326 79.3L326 79.3ZM316.7 138.3C314.1 133 309.5 127.5 303.3 122.2C301.1 124.4 298.5 128.4 295.1 134.2C291.3 140.7 289.6 144.8 289.6 146.9C289.6 149.8 291.5 151.2 295.8 151.2C297.7 151.2 300.1 150.5 303.2 149.3C307.5 147.4 311.6 144.7 315 141.4C316.4 140 316.9 139 316.7 138.3L316.7 138.3L316.7 138.3L316.7 138.3L316.7 138.3ZM303.2 61.3L307 53.4C307.2 52.9 307.5 52.7 308 52.7C308.5 52.7 310.4 53.9 314.2 56.5C317.8 58.9 319.7 60.3 319.7 60.8C319.7 62.5 318 66.1 314.9 71.4C314.4 72.1 313.9 72.1 313.5 71.9C310.4 69.5 306.8 67.1 302.7 64.5C301.3 67.4 300.1 70 298.6 72.2C298.4 72.9 297.9 73.2 297.4 72.9C293.8 70 290 67.4 286.1 65C285.9 64.8 285.9 64.5 286.1 64L290.7 54.4C290.9 53.9 291.4 53.4 291.7 53.4C292.2 53.4 293.9 54.6 297 56.8C300.1 58.6 302.3 60.3 303.2 61.3L303.2 61.3L303.2 61.3L303.2 61.3L303.2 61.3ZM429.7 195.2C427.1 195.9 425.6 196.4 425.1 196.4L425.1 196.2C425.1 196.2 426.1 195.5 428 194.3C429.9 193.1 432.8 191.2 436.9 188.1C438.8 186.2 441.7 183.1 445.3 178.7C447.7 175.8 450.3 173.2 453.2 171.3C456.8 168.7 460.2 167.5 463.8 167.5C464.5 167.5 465.7 167.7 467.2 168.2C468.4 168.7 469.6 168.9 470.6 168.9C472.5 168.9 474 168.2 475.2 166.7C475.9 165.3 476.9 164.1 477.8 162.6C478.3 161.6 479 161.2 479.5 161.2C479.7 161.2 479.7 161.4 479.7 161.9C479.7 162.4 479.5 163.6 479 165C478.5 165.7 480.4 166 484 166C484.5 166 484.7 166 484.7 165.8C484.7 165.8 484.5 164.8 484 163.2C483.8 162.7 484 162 484.7 161C485.7 159.3 486.1 158.6 486.4 158.8C487.4 159.5 487.8 161 487.8 162.6C487.8 164.3 487.3 166 486.6 167.9C485.9 170.1 485.2 171.3 484.7 171.7C483 172.7 480.4 172.4 476.8 170.7C473.9 173.6 471 175.3 468.2 175.3C467.5 175.3 466.3 175.1 465.1 174.6C463.9 174.1 462.9 173.9 462.2 173.9C457.4 173.9 452.4 176.1 447.3 180.9C443.7 184.5 440.1 188.1 436.5 191.7C434.3 193.3 432.1 194.5 429.7 195.2L429.7 195.2L429.7 195.2L429.7 195.2L429.7 195.2ZM378.1 65.3C381 65.3 383.4 66.7 385.5 70.1C387.7 73.2 389.3 77.5 390.1 82.8C390.3 83.3 390.3 83.5 390.3 83.8L390.5 83.8C390.5 83.6 390.7 83.3 390.7 82.8C391.2 79.7 392.4 74.9 394.1 68.6C396 64.3 397.9 62.1 400.1 62.1C401.3 62.1 402.5 62.8 403.5 64.3C404.5 65.7 404.9 66.7 404.9 67.7C404.9 68.2 404.9 69.1 404.4 70.1C403.9 71.5 403.4 72.3 403 72.3C402.8 72.3 402.3 71.6 401.3 70.6C400.6 69.6 399.6 69.2 398.7 69.2C396.8 69.2 395.1 73.8 393.4 82.9C392.7 87 391.7 89.9 391 91.5C390.3 92.5 389.8 93.2 389.3 93.2C388.8 93.2 388.8 92.5 388.6 91.5C388.8 89.8 387.9 86.7 386 82.1C384.1 77.3 382.9 75.1 381.9 75.1C381.4 75.1 381.2 75.1 380.9 75.6C380.7 75.8 380.4 76.1 379.7 76.1C378.7 76.1 377.8 75.4 376.3 74.2C374.9 73 374.4 72 374.4 71.3C374.4 71.1 374.9 69.9 376.1 67.9C377.1 66.1 377.9 65.3 378.1 65.3L378.1 65.3L378.1 65.3L378.1 65.3L378.1 65.3ZM337.5 62.5C361.7 53.4 386.9 44.3 412.9 34.7C413.6 34.5 414.1 34.2 414.1 34.5C414.3 34.5 414.3 35 414.1 35.7C413.1 37.9 412.4 39.1 411.9 39.5C411.7 39.7 399.4 44.3 375.7 53.2C351.5 62.1 337.8 67.6 335.1 69.3C335.6 67 336.3 64.9 337.5 62.5L337.5 62.5L337.5 62.5L337.5 62.5L337.5 62.5ZM314 18.5C314.5 17.1 314.5 15.6 314.2 14.2C314 12.8 313.2 12 312 12C311.5 12 310.8 12.2 309.8 12.7C308.8 13.2 308.4 13.7 308.4 14.1C308.5 15.4 310.4 16.9 314 18.5L314 18.5L314 18.5L314 18.5L314 18.5ZM311.1 24.8C306.5 22.4 304.4 20 304.4 17.4C304.4 14.3 305.8 11.4 308.7 9.00002C311.6 6.40001 314 5.40001 315.9 6.10002C317.6 6.60002 318.3 8.30002 318.3 11.1C318.3 13.7 317.8 16.6 316.6 20C319 21.2 320.4 22.4 320.9 23.4C320.9 24.6 319.9 26.8 317.8 29.6C317.3 28.6 315.9 27.4 313.7 26.2C311.1 29.8 307.9 32.9 304.1 35.8C299.5 38.9 295.5 41.6 291.9 43C290.9 43.5 286.6 45.2 278.9 48C277.7 48.5 276.7 48.7 276.5 48.7C276.3 48.7 276.3 48.5 276.3 48.5C276.3 48.3 276.8 47.5 278.2 46.8C284 43.2 289.7 39.8 295.7 36.5C302.7 32.2 307.8 28.4 311.1 24.8L311.1 24.8L311.1 24.8L311.1 24.8L311.1 24.8ZM462.8 54.8C463.3 53.4 463.3 51.9 463 50.5C462.8 49.1 462 48.3 460.8 48.3C460.3 48.3 459.6 48.5 458.6 49C457.6 49.5 457.2 50 457.2 50.4C457.3 51.7 459.2 53.1 462.8 54.8L462.8 54.8L462.8 54.8L462.8 54.8L462.8 54.8ZM468.1 63.7C465.7 69.5 464.5 74 464.5 77.4C464.5 81.5 465.5 83.6 467.6 83.6C468.8 83.6 470.2 81.9 471.9 79C472.1 78.8 472.1 78.5 472.4 78.3C472.4 78.3 472.6 78.3 472.6 78.5C472.6 78.5 472.6 78.7 472.6 79.2C471.2 86.4 469 90 466.1 90C463 90 461.5 87.4 461.5 82.1C461.5 79.5 462 76.1 463.4 71.8C464.8 67.5 465.6 65.3 465.6 65.1C465.6 64.6 464.6 63.7 462.5 62.5C458.7 67.5 453.4 72.3 446.7 76.4C442.1 79 437.6 81.4 432.8 83.4C423.9 87 418.6 88.9 417.4 89.6C416.2 90.1 415.5 90.3 415 90.3C414.8 90.3 414.8 90.1 414.8 90.1C414.8 89.6 415.3 89.1 416.7 88.2C424.4 83.9 431.8 79.6 439.5 75.2C449.6 69.4 456.5 64.6 459.9 61C455.3 58.6 453.2 56.2 453.2 53.6C453.2 50.5 454.6 47.6 457.5 45C460.4 42.6 462.8 41.6 464.7 42.4C466.1 42.9 467.1 44.6 467.1 47.4C467.1 50 466.6 52.9 465.4 56C467.8 57.4 468.8 58.9 468.8 60.3C468.8 61 468.6 62.2 468.1 63.7L468.1 63.7L468.1 63.7L468.1 63.7L468.1 63.7ZM358.9 28.6C358.9 28.4 359.1 28.1 359.1 28.1C359.3 27.9 359.3 27.9 359.3 28.1C359.5 28.3 359.5 28.6 359.3 28.8C358.1 36 355.9 39.6 352.8 39.6C349.7 39.6 348.2 37 348.2 31.7C348.2 25.2 349.9 18.3 353.7 11.3C354.7 9.60001 355.1 8.7 355.4 8.7L355.4 8.7C355.4 8.89999 355.2 9.89999 354.7 11.6C352.3 19 351.1 24.1 351.1 27.2C351.1 31 352.1 33.2 354.2 33.2C355.8 33.2 357.2 31.5 358.9 28.6L358.9 28.6L358.9 28.6L358.9 28.6L358.9 28.6Z" id="Group" fill="#595959" stroke="none" clip-path="url(#clip_1)" />
  </g>
</svg>