<?xml version="1.0" encoding="utf-8"?>
<svg width="482.20016px" height="204.79999px" viewBox="0 0 482.20016 204.79999" version="1.1" xmlns:xlink="http://www.w3.org/1999/xlink" xmlns="http://www.w3.org/2000/svg">
  <defs>
    <path d="M482.2 0L482.2 0L482.2 204.8L0 204.8L0 0L482.2 0Z" id="path_1" />
    <clipPath id="clip_1">
      <use xlink:href="#path_1" clip-rule="evenodd" fill-rule="evenodd" />
    </clipPath>
  </defs>
  <g id="Surah_113_of_114_(modified)">
    <path d="M482.2 0L482.2 0L482.2 204.8L0 204.8L0 0L482.2 0Z" id="Surah_113_of_114_(modified)" fill="none" stroke="none" />
    <path d="M172.9 1.7C173.6 0.5 174.6 0 175.3 0C175.8 0 176.3 0.199997 176.3 0.699997C176.3 0.699997 176.1 0.899994 176.1 1.2C175.1 3.39999 174.2 5.8 173.5 8.2C178.5 11.8 180.9 15.6 180.7 19.2C180.2 23.3 179.7 25.9 179 26.9C176.6 29.8 174 31.5 170.6 31.5C167.2 31.5 165.8 29.3 165.8 25.5C165.8 24.8 165.8 23.8 166 22.9C167.1 15.1 169.5 8.2 172.9 1.7ZM235.7 14.6C237.2 17.8 237.9 21.6 237.9 26.4C237.9 30.5 239.1 49.4 241.6 83.2999C244 117.1 245.2 136.3 245.2 141.1C245.2 146.2 245 150.7 244.5 154.8C244.471 155.179 244.442 155.544 244.414 155.893C244.25 157.936 244.129 159.446 244.3 160.3C244.5 161 244.8 161 245.5 159.8C246 158.9 246.4 157.7 247.4 156C250.7 147.4 252.4 137.3 252.4 126C252.4 122.2 251.5 105.6 249.3 76.1C247.1 46.4 245.9 31.5 245.9 31C245.9 29.8 246.1 29.3 246.6 30C250.9 34.8 252.8 36 252.8 33.8C252.8 33.3 252.8 32.1 252.3 30.9C251.8 29 250.1 24.2 247 16.3C244.1 8.79999 242.4 4.29999 241.7 2.59999C241.2 1.89999 241 1.39999 240.5 1.39999C240.3 1.39999 240 1.89999 239.8 2.59999C236.9 8.79999 235.7 12.9 235.7 14.6ZM151 2.39999C130.9 9.89999 111.7 17.1 93.2001 23.8C92.0001 26.2 91.3 28.3 90.7 30.5C113.3 21.1 133.2 13.4 150 7.2C150.5 6.79999 151.2 5.59999 152.2 3.39999C152.4 2.7 152.4 2.2 152.4 2.2C152.251 1.97642 151.935 2.08608 151.494 2.23924C151.344 2.2916 151.178 2.34904 151 2.39999ZM287.4 13.7C287.4 16.3 289.5 18.7 294.1 21.1C290.7 24.7 285.7 28.6 278.7 32.8C272.7 36.1 267 39.5 261.2 43.1C259.8 43.8 259.3 44.6 259.3 44.8C259.3 44.8 259.3 45 259.5 45C259.7 45 260.7 44.8 261.9 44.3C269.6 41.5 273.9 39.8 274.9 39.3C278.5 37.9 282.5 35.2 287.1 32.1C290.9 29.2 294.1 26.1 296.7 22.5C298.9 23.7 300.3 24.9 300.8 25.9C302.9 23.1 303.9 20.9 303.9 19.7C303.4 18.7 302 17.5 299.6 16.3C300.8 12.9 301.3 10 301.3 7.40001C301.3 4.60001 300.6 2.90001 298.9 2.40001C297 1.7 294.6 2.7 291.7 5.3C288.8 7.7 287.4 10.6 287.4 13.7ZM218.2 151C223.3 142.8 225.9 131.8 225.9 117.6C225.9 112.6 224.9 97.4 223.1 72.4C221.2 47 220.2 34 220.2 33.8C220.2 32.6 220.4 32.3 220.9 32.8C224.9 37.6 227.1 38.8 227.1 36.6C227.1 36.1 226.8 34.9 226.6 33.5C225.9 31.8 224.2 27 221.3 19.1C218.4 11.6 216.5 7.09999 215.8 5.39999C215.3 4.39999 215 4.2 214.8 4.2C214.3 4.2 214 4.5 213.8 5.2C211.1 11.6 209.7 15.7 209.7 17.4C211.2 20.5 211.9 24.3 211.9 28.9C211.9 34.2 212.8 51.2 215 80C217.2 108.8 218.4 125.3 218.4 129.4C218.4 136.2 217.7 140.2 216.5 141.2C212.2 144.8 207.7 146.7 203.1 146.7L203.1 161.3C208.8 161.3 213.9 157.7 218.2 151ZM342 24.7C342 24.7 341.8 25 341.8 25.2C340.1 28.1 338.7 29.8 337.1 29.8C335 29.8 334 27.6 334 23.8C334 20.7 335.2 15.6 337.6 8.2C338.1 6.5 338.3 5.5 338.3 5.3C338 5.3 337.6 6.20001 336.6 7.90001C332.8 14.9 331.1 21.8 331.1 28.3C331.1 33.6 332.6 36.2 335.7 36.2C338.8 36.2 341 32.6 342.2 25.4C342.4 25.2 342.4 24.9 342.2 24.7C342.2 24.6093 342.2 24.5598 342.181 24.5513C342.159 24.5411 342.109 24.5907 342 24.7ZM297.1 10.6C297.4 12 297.4 13.5 296.9 14.9C293.3 13.2 291.4 11.8 291.3 10.5C291.3 10.1 291.7 9.59999 292.7 9.09999C293.7 8.59999 294.4 8.39999 294.9 8.39999C296.1 8.39999 296.9 9.2 297.1 10.6ZM178.1 20.9C178.1 19.7 175.7 17.5 170.7 14.7C169 17.6 168.3 20.2 168.3 22.6C168.3 24 169 25 170.5 25C171.7 25 173.1 24.5 174.8 23.6C176.5 22.8 177.7 21.8 178.1 20.9ZM141.2 155.1C144.585 160.774 149.852 163.674 157.2 163.7L157.2 149.3C153.9 149.3 151.5 148.5 149.8 147.1C147.2 145.2 145.5 141.4 144.3 135.6C143.4 130.5 142.4 118.5 141.7 99.8C141 78.7 140.3 66 139.8 61.4C138.1 45.6 135.7 32.4 132.6 21.8C132.3 20.6 131.8 20.1 131.6 20.1C131.3 20.1 130.8 20.5 130.6 21.5C130.2 22.4 129.2 26.8 128 34.2C129.6 45.5 130.8 54.8 131.8 62.5C133.4 79.5 134.4 95.9 134.4 111.7C134.4 118.4 129.6 123.9 120 128L120 141.2C128.4 137.4 134 130.2 136.6 119.6C136.6 137.8 138.1 149.6 141.2 155.1ZM70.1001 44.9C70.1001 44.7 70.3 44.4 70.3 44.4C70.4096 44.2905 70.4589 44.2411 70.4814 44.2513C70.5 44.2598 70.5 44.3093 70.5 44.4C70.7 44.6 70.7 44.9 70.5 45.1C69.3 52.3 67.1001 55.9 64 55.9C60.9 55.9 59.4 53.3 59.4 48C59.4 41.5 61.1 34.6 64.9 27.6C65.9 25.9 66.3 25 66.6 25C66.6 25.2 66.4 26.2 65.9 27.9C63.5 35.3 62.3 40.4 62.3 43.5C62.3 47.3 63.3 49.5 65.4 49.5C67.0001 49.4 68.5001 47.8 70.1001 44.9ZM320.5 58.8C344.7 49.7 369.9 40.6 395.9 31C396.102 30.9422 396.288 30.8761 396.449 30.8186C396.847 30.6767 397.1 30.5866 397.1 30.8C397.3 30.8 397.3 31.3 397.1 32C396.1 34.2 395.4 35.4 394.9 35.8C394.7 36 382.4 40.6 358.7 49.5C334.5 58.4 320.8 63.9 318.1 65.6C318.5 63.4 319.3 61.2 320.5 58.8ZM451 60C448.6 65.8 447.4 70.3 447.4 73.7C447.4 77.8 448.4 79.9 450.5 79.9C451.7 79.9 453.1 78.2 454.8 75.3C455 75.1 455 74.8 455.3 74.6C455.3 74.6 455.5 74.6 455.5 74.8L455.5 75.5C454.1 82.7 451.9 86.3 449 86.3C445.9 86.3 444.4 83.7 444.4 78.4C444.4 75.8 444.9 72.4 446.3 68.1C447.7 63.8 448.5 61.6 448.5 61.4C448.5 60.9 447.5 60 445.4 58.8C441.6 63.8 436.3 68.6 429.6 72.7C425 75.3 420.5 77.7 415.7 79.7C406.8 83.3 401.5 85.2 400.3 85.9C399.1 86.4 398.4 86.6 397.9 86.6C397.7 86.6 397.7 86.4 397.7 86.4C397.7 85.9 398.2 85.4 399.6 84.5C407.3 80.2 414.7 75.9 422.4 71.5C432.5 65.7 439.4 60.9 442.8 57.3C438.2 54.9 436.1 52.5 436.1 49.9C436.1 46.8 437.5 43.9 440.4 41.3C443.3 38.9 445.7 37.9 447.6 38.7C449 39.2 450 40.9 450 43.7C450 46.3 449.5 49.2 448.3 52.3C450.7 53.7 451.7 55.2 451.7 56.6C451.7 57.4 451.5 58.6 451 60ZM206.4 41.5C186.3 49 167.1 56.2 148.6 62.9C147.4 65.3 146.7 67.4 146.1 69.6C168.7 60.2 188.6 52.5 205.4 46.3C205.9 45.9 206.6 44.7 207.6 42.5C207.8 41.8 207.8 41.3 207.8 41.3C207.651 41.0764 207.335 41.1861 206.894 41.3392C206.744 41.3916 206.578 41.449 206.4 41.5ZM445.7 51.1C446.2 49.7 446.2 48.2 445.9 46.8C445.7 45.4 444.9 44.6 443.7 44.6C443.2 44.6 442.5 44.8 441.5 45.3C440.5 45.8 440.1 46.3 440.1 46.7C440.2 48 442.1 49.4 445.7 51.1ZM289.9 49.7L286.1 57.6C285.2 56.6 283 55 279.9 53.1C276.8 50.9 275.1 49.7 274.6 49.7C274.3 49.7 273.8 50.2 273.6 50.7L269 60.3C268.8 60.8 268.8 61.1 269 61.3C272.9 63.7 276.7 66.3 280.3 69.2C280.8 69.5 281.3 69.2 281.5 68.5C283 66.3 284.2 63.7 285.6 60.8C289.7 63.4 293.3 65.8 296.4 68.2C296.8 68.4 297.3 68.4 297.8 67.7C300.9 62.4 302.6 58.8 302.6 57.1C302.6 56.6 300.7 55.2 297.1 52.8C293.3 50.2 291.4 49 290.9 49C290.4 49 290.1 49.2 289.9 49.7ZM18.7 62.9C16.6001 59.5 14.2 58.1 11.3 58.1C11.1001 58.1 10.4001 58.8 9.30003 60.7C8.10004 62.7 7.60004 63.9 7.60004 64.1C7.60004 64.8 8.10004 65.8 9.50003 67C11 68.2 11.9 68.9 12.9 68.9C13.6 68.9 13.9 68.6 14.1 68.4C14.4 67.9 14.6 67.9 15.1 67.9C16.1 67.9 17.3 70.1 19.2 74.9C21.1 79.5 22 82.6 21.8 84.3C22 85.3 22 86 22.5 86C23 86 23.5 85.3 24.2 84.3C24.9 82.7 25.9 79.8 26.6 75.7C28.3 66.6 30 62 31.9 62C32.8 62 33.8 62.4 34.5 63.4C35.5 64.4 36 65.1 36.2 65.1C36.6 65.1 37.1 64.3 37.6 62.9C38.1 61.9 38.1 61 38.1 60.5C38.1 59.5 37.7 58.5 36.7 57.1C35.7 55.6 34.5 54.9 33.3 54.9C31.1 54.9 29.2 57.1 27.3 61.4C25.6 67.7 24.4 72.5 23.9 75.6C23.9 76.1 23.7 76.4 23.7 76.6L23.5 76.6C23.5 76.3 23.5 76.1 23.3 75.6C22.5 70.3 20.9 66 18.7 62.9ZM368.4 66.7C366.3 63.3 363.9 61.9 361 61.9C360.8 61.9 360.1 62.6 359 64.5C357.8 66.5 357.3 67.7 357.3 67.9C357.3 68.6 357.8 69.6 359.2 70.8C360.7 72 361.6 72.7 362.6 72.7C363.3 72.7 363.6 72.4 363.8 72.2C364.1 71.7 364.3 71.7 364.8 71.7C365.8 71.7 367 73.9 368.9 78.7C370.8 83.3 371.7 86.4 371.5 88.1C371.7 89.1 371.7 89.8 372.2 89.8C372.7 89.8 373.2 89.1 373.9 88.1C374.6 86.5 375.6 83.6 376.3 79.5C378 70.4 379.7 65.8 381.6 65.8C382.5 65.8 383.5 66.2 384.2 67.2C385.2 68.2 385.7 68.9 385.9 68.9C386.3 68.9 386.8 68.1 387.3 66.7C387.8 65.7 387.8 64.8 387.8 64.3C387.8 63.3 387.4 62.3 386.4 60.9C385.4 59.4 384.2 58.7 383 58.7C380.8 58.7 378.9 60.9 377 65.2C375.3 71.5 374.1 76.3 373.6 79.4C373.6 79.9 373.4 80.2 373.4 80.4L373.2 80.4C373.2 80.1 373.2 79.9 373 79.4C372.2 74.1 370.6 69.8 368.4 66.7ZM96.5001 75.8L100.3 67.9C100.5 67.4 100.8 67.2 101.3 67.2C101.8 67.2 103.7 68.4 107.5 71C111.1 73.4 113 74.8 113 75.3C113 77 111.3 80.5999 108.2 85.9C107.7 86.6 107.2 86.6 106.8 86.4C103.7 84 100.1 81.6 96.0001 79C94.6001 81.9 93.4001 84.5 91.9001 86.7C91.7001 87.4 91.2001 87.7 90.7001 87.4C87.1001 84.5 83.3001 81.9 79.4001 79.5C79.2001 79.3 79.2001 79 79.4001 78.5L84.0001 68.9C84.2001 68.4 84.7001 67.9 85.0001 67.9C85.5001 67.9 87.2001 69.1 90.3001 71.3C93.4001 73.2 95.6001 74.9 96.5001 75.8ZM308.9 75.6C308.9 79.4 307 84.7 303.1 91.2C300.7 95.3 297.1 100.8 292.3 108C297.1 113.5 300.5 118.6 302.1 122.9C303.1 126 303.8 130.1 303.8 134.7C303.8 136.6 303.3 139 302.4 142.1C301.7 145 300.7 147.1 299.8 148.6C297.9 151.5 294.8 154.4 290 157.2C285 160.6 280.6 162.2 277 162.2C271.2 162.2 268.4 157.9 268.4 149.2C268.4 143.4 269.4 137.7 271.3 132.4C273.2 127.8 276.3 121.8 281.4 113.9C277.1 109.8 272.5 104.1 267.5 96.9C267 96.2 265.8 95 263.9 93.1C262.9 92.1 262.5 90.9 262.5 89.5C262.5 87.3 262.7 84.9 263.2 82.1C263.9 79.2 264.4 78 264.6 78C265.3 78 267.5 79.2 271.6 81.8C275.4 84.4 278.6 86.4 280.5 88C281.7 88.7 282.2 89.4 282.2 89.4L282.2 89.6C282.2 89.8 281.5 90.1 279.8 90.1C276.7 90.1 275 90.3 275 90.6C275 90.8 275.5 91.3 276.4 92.5C280.2 97.3 284.1 100.9 288.2 103.8C289.2 102.4 292.5 97.6 297.8 89.4C302.4 82.4 305 77.6 306.2 74.8C307.4 71.9 308.1 70.7 308.6 70.7C308.7 70.8 308.9 72.2 308.9 75.6ZM171.9 84C171.7 84.5 171.7 84.8 171.9 85C175.7 87.4 179.6 90 183.3 92.9C183.79 93.1942 183.992 92.9114 184.471 92.2403L184.5 92.2C187.8 86.9 189.5 83.6 189.5 81.9C189.5 81.4 187.5 79.9 183.7 77.3C180.1 74.9 178 73.7 177.5 73.7C177.2 73.7 176.7 73.9 176.5 74.4L171.9 84ZM326.4 104C327.4 105.2 328.1 106.8 328.6 109C329.8 113 332.2 118.8 335.5 125.9C338.4 132.2 339.8 135.5 339.8 136C339.8 138 336.9 141.1 331.4 145.4C326.591 148.974 320.347 153.055 312.666 157.588C313.402 153.155 314.673 147.846 316.5 141.6C316.8 140.1 317 138.9 317 138.2C317 137.7 317 137.5 316.8 137.5C316.3 137.5 315.8 138.5 314.6 140.9C312.256 147.229 310.53 153.387 309.503 159.433C306.237 161.317 302.736 163.274 299 165.3C289.6 170.4 277.9 175.9 263.7 181.9C243.3 190.5 232.2 195.3 230.3 196.3C225 198.7 222.4 200.2 222.4 200.4C222.4 200.6 222.4 200.6 222.9 200.6C223.9 200.6 226.3 200.3 230.1 199.6C233.7 199.1 242.8 197 257.2 193.6C270.9 190.3 278.1 188.6 278.6 188.6C281.2 188.6 289.6 184.5 304 176.1C305.515 175.251 306.99 174.407 308.423 173.568C308.657 180.843 310.638 187.113 314.2 191.8C318.5 197.8 324.7 200.9 332.9 200.9C342.5 200.9 353.5 195.9 366.5 186.3C375.2 179.8 383.1 172.3 390.3 163.7C393.4 160.1 396 155.5 397.7 150C399.2 145.6 399.9 142.3 399.9 139.4L400.2 138.9L400.2 125.7C399.2 126.2 398.7 126.2 398.5 126.2C396.1 121.2 393.2 117.1 390.1 113.5C386.5 109.9 383.4 108 380.3 108C376.2 108 372.4 110.1 368.8 114.2C365 119 363.3 124.3 363.3 130.3C363.3 138.2 369.1 142.3 380.6 142.3C385.9 142.3 390.2 141.6 393.1 140.6C393.6 142.3 394.1 144 394.1 145.4C394.1 147.6 390.5 151.9 383.7 158.7C376 165.9 368.1 171.9 359.9 176.9C349.5 183.2 340.9 186.3 333.7 186.3C325.3 186.3 319.3 183.6 315.5 178.6C314.036 176.404 313.018 173.909 312.447 171.163C324.639 163.71 333.553 156.685 339.3 150.2C341.3 148 342.7 144.9 343.9 140.8C344.8 137.2 345.3 134.3 345.3 131.9C345.3 126.8 343.8 121.3 341.2 114.6C339.5 110.8 337.6 106.7 335.9 102.6C338.8 103.3 340.7 103.8 341.4 103.8C341.9 103.8 342.1 103.5 342.1 103.3C342.1 102.8 341.4 101.9 339.7 100.2C335.7 96.1 332.1 92.2 328.7 88.4C328.2 87.9 327.9 87.7 327.7 87.7C327.2 87.7 326.9 88.2 326.7 89.4C326.2 90.6 326 92.8 325.5 95.9C325 99.2 325 100.9 325 101.4C325.2 101.8 325.7 102.6 326.4 104ZM75.2001 108.2C75.7001 107.2 75.9001 106.3 75.9001 105.8C75.9001 104.9 75.4001 103.9 74.5001 102.4C73.3001 100.9 72.1001 100.2 70.9001 100.2C68.7001 100.2 66.8001 102.4 64.9001 106.7C63.2001 113 62.0001 117.8 61.8001 120.9C61.5001 121.4 61.3001 121.7 61.3001 121.9C61.3001 121.991 61.3001 122.04 61.2815 122.049C61.259 122.059 61.2094 122.009 61.1001 121.9L61.1001 120.9C60.1001 115.6 58.7001 111.6 56.3001 108.2C54.1001 104.8 51.7001 103.4 49.1001 103.4C48.8001 103.4 48.1001 104.1 46.9001 106C45.7001 108 45.2001 109.2 45.2001 109.4C45.2001 110.1 45.9001 111.1 47.1001 112.3C48.6001 113.5 49.5001 114.2 50.5001 114.2C51.2001 114.2 51.7001 113.9 51.7001 113.7C51.9001 113.2 52.2001 113.2 52.9001 113.2C53.6001 113.2 54.8001 115.4 56.7001 120.2C58.6001 124.8 59.6001 127.9 59.6001 129.6C59.6001 130.092 59.6727 130.511 59.7703 130.81C59.3808 131.261 58.9247 131.792 58.4001 132.4C56.7001 134.3 54.6001 136.4 51.7001 138.6C39.7001 146.5 30.6001 152.1 24.1001 155.9C22.9001 156.6 22.2001 157.4 22.2001 157.6C22.2001 157.6 22.2001 157.8 22.4001 157.8C22.9001 157.8 23.6001 157.6 24.8 157.1C32.8 154.3 37.1001 152.6 37.8 152.1C41.4 150.5 45.4 148.1 50 144.7C55.1001 141.1 58.4001 137.2 60.1001 133.4C60.5642 132.162 60.9219 131.191 61.1596 130.485C61.3558 130.233 61.5668 129.933 61.8001 129.6C62.8001 128 63.5001 125.1 64.2001 121C65.9001 111.9 67.8001 107.3 69.7001 107.3C70.4001 107.3 71.4001 107.7 72.1001 108.7C73.1001 109.7 73.6001 110.4 73.8001 110.4C74.5001 110.4 75.0001 109.6 75.2001 108.2ZM61.1596 130.485C61.3828 129.822 61.5001 129.394 61.5001 129.2L61.5001 129C61.3553 129 60.7913 129.629 59.7703 130.81C59.871 131.119 59.9985 131.3 60.1001 131.3C60.4335 131.3 60.7669 130.989 61.1596 130.485ZM12.8 122.6C12.8 122.4 13 122.1 13 122.1C13.1094 121.991 13.1589 121.941 13.1814 121.951C13.2 121.96 13.2 122.009 13.2 122.1C13.4 122.3 13.4 122.6 13.2 122.8C12 130 9.80005 133.6 6.70004 133.6C6.6865 133.6 6.67299 133.6 6.65951 133.6C6.62475 133.891 6.57073 134.223 6.50006 134.6C4.10007 146.8 3.10007 153.6 3.10007 155.2C3.10007 162.6 5.50006 169.4 10.5001 175.6C17.2001 184 27.1001 188.1 39.8001 188.1C51.3001 188.1 63.3001 185.5 75.8001 180.2C86.1001 175.9 95.5001 170.6 103.9 164.4C111.3 158.9 114.9 154.8 114.9 152.2C114.9 149.3 114.2 146.2 112.7 142.6C109.8 143.6 105.7 144 100.2 144C88.7 144 82.9 140.2 82.9 132.2C82.9 126.2 84.8 120.9 88.7 116.1C92.5 112 96.1 109.9 100.2 109.9C103.3 109.9 106.4 111.8 110 115.4C113.1 118.8 116 123.1 118.4 128.4C118.6 128.2 119.1 128.2 119.8 127.9L119.8 141.1L119.3 141.3C119.3 153.8 117.1 162.7 112.6 167.7C106.4 175.1 96.8 182.6 84.3 189.5C68.5 198.4 53.6 202.7 39.9 202.7C25.3 202.7 14.5 197.7 7.7 187.8C2.39999 180.4 0 170.8 0 159C0.300049 155.5 0.500061 151.9 1.00006 148.6C2.00006 142.8 3.20006 138.3 4.60007 134.2C4.72929 133.838 4.87187 133.536 5.02091 133.283C3.05668 132.443 2.10004 129.933 2.10004 125.7C2.10004 119.2 3.80003 112.3 7.60004 105.3C8.60004 103.6 9.00003 102.7 9.30003 102.7C9.30003 102.9 9.10004 103.9 8.60004 105.6C6.20004 113 5.00003 118.1 5.00003 121.2C5.00003 125 6.00003 127.2 8.10004 127.2C9.70006 127.2 11.1001 125.5 12.8 122.6ZM426.3 110.7C425.6 110.7 424.6 111.1 423.4 112.1C419.6 115.4 415.7 118.3 411.8 120.3C410.6 121.1 406.5 123 400.3 126.1L400.3 139.3C408.7 135.4 415.2 131.4 419 126.8C419 137.8 423.8 143.6 433.9 143.6C442.3 143.6 449.2 138.8 454.5 129.2C457.7 135 461.3 138.1 465.1 138.1C470.9 138.1 475.2 135.5 478.1 130.2C480.8 125.8 482.2 120.8 482.2 114.8C482.2 110.9 481 107.6 479.1 104.7C478.4 103.7 477.9 103.5 477.4 103.5C476.9 103.5 476.4 104.3 476.2 105.7C474.8 110.2 473.8 113.6 473.6 115.5C475.7 119.1 476.7 121.1 476.7 121.3C475.7 122.9 473.6 123.9 470.2 123.9C467.6 123.9 465.2 122.9 463.5 121.5C461.6 120.1 460.6 118.4 460.6 116.7C460.6 117.2 461.3 115.3 462.3 111.2C462.8 109.1 462.6 108.1 461.6 108.1C460.9 108.1 460.2 108.5 459.2 109.5C456.8 113.4 454.2 117.2 451.8 121.3C447.9 126.4 442.9 129 436.9 129C429.4 129 425.6 126.1 425.6 120.8C425.6 119.6 425.8 118.1 426.3 116.2C426.8 114.3 427 112.8 427 112.1C427 111.2 426.8 110.7 426.3 110.7ZM202.9 161C190.4 161 181.3 159.3 175.8 156C168.8 161 162.6 163.7 157.3 163.7L157.3 149.1C160.9 149.1 164.3 148.1 167.6 146.7C165.9 143.8 165.2 140 165.2 135.2C165.2 128.5 167.8 121.5 172.9 114.8C177.7 108.6 181.5 105.2 184.9 105.2C188 105.2 190.7 107.6 192.3 112.2C193.5 115.8 194.2 119.6 194.2 123.5C194.2 132.9 192 140.3 188 145.6C190.6 146.3 195.7 146.6 202.9 146.6L202.9 161ZM299.6 134.6C297 129.3 292.4 123.8 286.2 118.5C284 120.7 281.4 124.7 278 130.5C274.2 137 272.5 141.1 272.5 143.2C272.5 146.1 274.4 147.5 278.7 147.5C280.6 147.5 283 146.8 286.1 145.6C290.4 143.7 294.5 141 297.9 137.7C299.3 136.3 299.8 135.4 299.6 134.6ZM188.7 133C188.7 131.1 188 128.2 186.5 124.8C184.8 121 183.4 119 182.2 119C180.8 119 178.4 120.7 175.2 124C172.1 127.4 170.2 130.2 169 132.9C169.5 134.3 170.7 136 172.4 137.7C174.1 139.6 176 140.8 177.9 141.5C183.2 139 186.8 136.1 188.7 133ZM386.7 127.9C383.1 123.3 380 121.2 377.1 121.2C372.8 121.2 370.9 122.2 370.9 124.6C370.9 127.5 373.8 128.9 379.5 128.9C381.53 128.9 383.73 128.474 386.1 128.016C386.299 127.977 386.499 127.939 386.7 127.9ZM106.4 129.8C103 125.2 99.9001 122.8 97.0001 122.8C92.7001 122.8 90.5001 124 90.5001 126.4C90.5001 129 93.4001 130.5 99.4001 130.5C101.6 130.6 104 130.3 106.4 129.8ZM412.6 191.5C410 192.2 408.5 192.7 408 192.7L408 192.5C408 192.5 409 191.8 410.9 190.6C412.8 189.4 415.7 187.5 419.8 184.4C421.7 182.5 424.6 179.4 428.2 175C430.6 172.1 433.2 169.5 436.1 167.6C439.7 165 443.1 163.8 446.7 163.8C447.4 163.8 448.6 164 450.1 164.5C451.3 165 452.5 165.2 453.5 165.2C455.4 165.2 456.9 164.5 458.1 163C458.8 161.6 459.8 160.4 460.7 158.9C461.2 157.9 461.9 157.5 462.4 157.5C462.6 157.5 462.6 157.7 462.6 158.2C462.6 158.7 462.4 159.9 461.9 161.3C461.4 162 463.3 162.3 466.9 162.3C467.4 162.3 467.6 162.3 467.6 162.1C467.6 162.1 467.4 161.1 466.9 159.5C466.7 159 466.9 158.3 467.6 157.3L467.68 157.164C468.622 155.563 469.008 154.905 469.3 155.1C470.3 155.8 470.7 157.3 470.7 158.9C470.7 160.6 470.2 162.3 469.5 164.2C468.8 166.4 468.1 167.6 467.6 168C465.9 169 463.3 168.7 459.7 167C456.8 169.9 453.9 171.6 451.1 171.6C450.4 171.6 449.2 171.4 448 170.9C446.8 170.4 445.8 170.2 445.1 170.2C440.3 170.2 435.3 172.4 430.2 177.2L419.4 188C417.2 189.6 415 190.8 412.6 191.5ZM154.9 174.7C157.8 174.7 160.2 176.1 162.3 179.5C164.5 182.6 166.1 186.9 166.9 192.2C167.1 192.7 167.1 192.9 167.1 193.2L167.3 193.2C167.3 193 167.5 192.7 167.5 192.2C168 189.1 169.2 184.3 170.9 178C172.8 173.7 174.7 171.5 176.9 171.5C178.1 171.5 179.3 172.2 180.3 173.7C181.3 175.1 181.7 176.1 181.7 177.1C181.7 177.6 181.7 178.5 181.2 179.5C180.7 180.9 180.2 181.7 179.8 181.7C179.6 181.7 179.1 181 178.1 180C177.4 179 176.4 178.6 175.5 178.6C173.6 178.6 171.9 183.2 170.2 192.3C169.5 196.4 168.5 199.3 167.8 200.9C167.1 201.9 166.6 202.6 166.1 202.6C165.6 202.6 165.6 201.9 165.4 200.9C165.6 199.2 164.7 196.1 162.8 191.5C160.9 186.7 159.7 184.5 158.7 184.5C158.2 184.5 158 184.5 157.7 185C157.5 185.2 157.2 185.5 156.5 185.5C155.5 185.5 154.6 184.8 153.1 183.6C151.7 182.4 151.2 181.4 151.2 180.7C151.2 180.5 151.7 179.3 152.9 177.3C153.9 175.4 154.6 174.7 154.9 174.7ZM224 177.1C224 179.7 222.8 182.6 220.9 185.7C218.7 188.8 216.1 191.7 212.7 194.1C211.3 195.1 210.5 195.5 210.3 195.5L210.3 195.4C210.3 195.2 210.8 194.7 211.7 193.5C217.2 187.5 220.1 183.7 220.1 181.5C220.1 179.8 219.1 178.9 217.5 178.9C216.5 178.9 215.6 179.1 214.9 179.6C214.2 179.8 213.9 180.1 213.7 180.1C213.7 180.1 213.5 180.1 213.5 179.9C213.5 179.9 213.5 179.4 213.7 178.5C214.7 174.4 216.6 172.5 219.9 172.5C222.5 172.3 224 174 224 177.1ZM127.1 187C116 190.8 105.7 194.6 96.1001 198C94.9001 200.4 94.1001 202.6 93.8 204.8C106 199.2 116.8 195.2 126.4 191.8C126.9 191.4 127.6 190.2 128.3 188C128.7 187.3 128.7 186.8 128.5 186.8C128.377 186.616 128.254 186.658 127.945 186.764C127.752 186.831 127.485 186.923 127.1 187Z" id="Group" fill="#595959" fill-rule="evenodd" stroke="none" clip-path="url(#clip_1)" />
  </g>
</svg>