<?xml version="1.0" encoding="utf-8"?>
<svg width="457.7001px" height="215.40005px" viewBox="0 0 457.7001 215.40005" version="1.1" xmlns:xlink="http://www.w3.org/1999/xlink" xmlns="http://www.w3.org/2000/svg">
  <defs>
    <path d="M457.7 0L457.7 0L457.7 215.4L0 215.4L0 0L457.7 0Z" id="path_1" />
    <clipPath id="clip_1">
      <use xlink:href="#path_1" clip-rule="evenodd" fill-rule="evenodd" />
    </clipPath>
  </defs>
  <g id="Surah_54_of_114_(modified)">
    <path d="M457.7 0L457.7 0L457.7 215.4L0 215.4L0 0L457.7 0Z" id="Surah_54_of_114_(modified)" fill="none" stroke="none" />
    <path d="M196.1 127.9C201.2 119.7 203.8 108.7 203.8 94.5C203.8 89.5 203.1 77.5 201.7 58.6C200.2 39.4 199.5 29.5 199.5 29.3C199.5 28.1 199.7 27.8 200.2 28.3C204.2 33.1 206.4 34.6 206.4 32.4C206.4 31.7 206.1 30.7 205.9 29.3C205.2 27.4 203.5 22.6 200.4 14.9C197.7 7.5 195.8 2.89999 195.1 1C194.6 0.199997 194.4 0 193.9 0C193.7 0 193.4 0.300003 193.2 1C190.3 7.39999 188.9 11.5 188.9 13.2C190.3 16.3 191.3 20.1 191.3 24.7C191.3 28.8 192 42.5 193.7 65.5C195.3 88.3 196.3 102 196.3 106.3C196.3 113.1 195.6 117.1 194.4 118.1C190.1 121.7 185.6 123.6 181 123.6L181 138.2C186.7 138.2 191.8 134.6 196.1 127.9ZM210.7 16.7C212.2 19.9 212.9 23.7 212.9 28.5C212.9 32.6 214.1 51.6 216.6 85.4C219 119.2 220.2 138.4 220.2 143.2C220.2 148.3 220 152.8 219.5 156.9C219.471 157.279 219.442 157.644 219.414 157.993C219.25 160.036 219.129 161.546 219.3 162.4C219.5 163.1 219.8 163.1 220.5 161.9C221 161 221.4 159.8 222.4 158.1C225.7 149.5 227.4 139.4 227.4 128.1C227.4 124.3 226.5 107.7 224.3 78.2C222.1 48.5 220.9 33.6 220.9 33.1C220.9 31.9 221.1 31.4 221.6 32.1C225.9 36.9 227.8 38.1 227.8 35.9C227.8 35.4 227.8 34.2 227.3 33C226.8 31.1 225.1 26.3 222 18.4C219.1 10.9 217.4 6.39999 216.7 4.7C216.2 4 216 3.5 215.5 3.5C215.3 3.5 215 4 214.8 4.7C211.9 10.9 210.7 15 210.7 16.7ZM169 6.2C169.7 5 170.7 4.5 171.4 4.5C171.9 4.5 172.4 4.7 172.4 5.2C172.4 5.2 172.2 5.39999 172.2 5.7C171.2 7.89999 170.3 10.3 169.6 12.7C174.6 16.3 177 20.1 176.8 23.7C176.3 27.8 175.8 30.4 175.1 31.4C172.7 34.3 170.1 36 166.7 36C163.3 36 161.9 33.8 161.9 30C161.9 29.3 161.9 28.3 162.1 27.4C163.2 19.7 165.6 12.7 169 6.2ZM120 30.5C120 30.3 120.2 30 120.2 30C120.309 29.8907 120.359 29.8411 120.381 29.8513C120.4 29.8598 120.4 29.9093 120.4 30C120.6 30.2 120.6 30.5 120.4 30.7C119.2 37.9 117 41.5 113.9 41.5C110.8 41.5 109.3 38.9 109.3 33.6C109.3 27.1 111 20.2 114.8 13.2C115.8 11.5 116.2 10.6 116.5 10.6C116.5 10.8 116.3 11.8 115.8 13.5C113.4 20.9 112.2 26 112.2 29.1C112.2 32.9 113.2 35.1 115.3 35.1C116.9 35 118.3 33.3 120 30.5ZM262.8 22.6C262.8 25.2 264.9 27.6 269.5 30C266.2 33.6 261.1 37.4 254.1 41.7C248.1 45 242.4 48.4 236.6 52C235.2 52.7 234.7 53.5 234.7 53.7C234.7 53.7 234.7 53.9 234.9 53.9C235.1 53.9 236.1 53.7 237.3 53.2C245 50.4 249.3 48.7 250.3 48.2C253.9 46.8 257.9 44.1 262.5 41C266.3 38.1 269.5 35 272.1 31.4C274.3 32.6 275.7 33.8 276.2 34.8C278.3 32 279.3 29.8 279.3 28.6C278.8 27.6 277.4 26.4 275 25.2C276.2 21.8 276.7 18.9 276.7 16.3C276.7 13.5 276 11.8 274.3 11.3C272.4 10.6 270 11.6 267.1 14.2C264.2 16.6 262.8 19.5 262.8 22.6ZM317.5 33.3C317.5 33.3 317.3 33.6 317.3 33.8C315.6 36.7 314.2 38.4 312.6 38.4C310.5 38.4 309.5 36.2 309.5 32.4C309.5 29.3 310.7 24.2 313.1 16.8C313.6 15.1 313.8 14.1 313.8 13.9C313.5 13.9 313.1 14.8 312.1 16.5C308.3 23.5 306.6 30.4 306.6 36.9C306.6 42.2 308.1 44.8 311.2 44.8C314.3 44.8 316.5 41.2 317.7 34C317.9 33.8 317.9 33.5 317.7 33.3C317.7 33.2093 317.7 33.1597 317.681 33.1513C317.659 33.1411 317.609 33.1907 317.5 33.3ZM272.6 19.4C272.9 20.8 272.9 22.3 272.4 23.7C268.8 22.1 266.9 20.6 266.8 19.3C266.8 18.9 267.2 18.4 268.2 17.9C269.2 17.4 269.9 17.2 270.4 17.2C271.6 17.2 272.4 18 272.6 19.4ZM174.3 25.4C174.3 24.2 171.9 22 166.9 19.2C165.2 22.1 164.5 24.7 164.5 27.1C164.5 28.5 165.2 29.5 166.7 29.5C167.9 29.5 169.3 29 171 28.1C172.6 27.3 173.8 26.4 174.3 25.4ZM79.2 36C79.2 38.6 78 41.5 76.1 44.6C73.9 47.7 71.3 50.6 67.9 53C66.5 54 65.7 54.4 65.5 54.4L65.5 54.2C65.5 54 66 53.5 66.9 52.3C72.4 46.3 75.3 42.5 75.3 40.3C75.3 38.6 74.3 37.7 72.7 37.7C71.7 37.7 70.8 37.9 70.1 38.4C69.4 38.6 69.1 38.9 68.9 38.9C68.9 38.9 68.7 38.9 68.7 38.7C68.7 38.7 68.7 38.2 68.9 37.3C69.9 33.2 71.8 31.3 75.1 31.3C77.8 31.2 79.2 32.9 79.2 36ZM151.2 33.8C108.9 49.7 67.7 65 27.1 80.4C25.9 82.8 25.2 84.9 24.7 87.1C69.6 69.1 111.6 53 150.2 38.6C150.7 38.2 151.4 37 152.4 34.8C152.6 34.1 152.6 33.6 152.4 33.6C152.4 33.3866 152.147 33.4768 151.749 33.6186C151.588 33.6761 151.402 33.7422 151.2 33.8ZM295.9 67.7C320.1 58.6 345.3 49.5 371.3 39.9C371.502 39.8422 371.688 39.7761 371.849 39.7185C372.247 39.5767 372.5 39.4866 372.5 39.7C372.7 39.7 372.7 40.2 372.5 40.9C371.5 43.1 370.8 44.3 370.3 44.7C370.1 44.9 357.8 49.5 334.1 58.4C309.9 67.3 296.2 72.8 293.5 74.5C294 72.2 294.7 70.1 295.9 67.7ZM426.5 68.9C424.1 74.7 422.9 79.2 422.9 82.6C422.9 86.7 423.9 88.8 426 88.8C427.2 88.8 428.6 87.1 430.3 84.2C430.5 84 430.5 83.7 430.8 83.5C430.8 83.5 431 83.5 431 83.7L431 84.4C429.6 91.6 427.4 95.2 424.5 95.2C421.4 95.2 419.9 92.6 419.9 87.3C419.9 84.7 420.4 81.3 421.8 77C423.2 72.7 424 70.5 424 70.3C424 69.8 423 68.9 420.9 67.7C417.1 72.7 411.8 77.5 405.1 81.6C400.5 84.2 396 86.6 391.2 88.6C382.3 92.2 377 94.1 375.8 94.8C374.6 95.3 373.9 95.5 373.4 95.5C373.2 95.5 373.2 95.3 373.2 95.3C373.2 94.8 373.7 94.3 375.1 93.4C382.8 89.1 390.2 84.8 397.9 80.4C408 74.6 414.9 69.8 418.3 66.2C413.7 63.8 411.6 61.4 411.6 58.8C411.6 55.7 413 52.8 415.9 50.2C418.8 47.8 421.2 46.8 423.1 47.6C424.5 48.1 425.5 49.8 425.5 52.6C425.5 55.2 425 58.1 423.8 61.2C426.2 62.6 427.2 64.1 427.2 65.5C427.2 66.2 427 67.4 426.5 68.9ZM421.2 60C421.7 58.6 421.7 57.1 421.4 55.7C421.2 54.3 420.4 53.5 419.2 53.5C418.7 53.5 418 53.7 417 54.2C416 54.7 415.6 55.2 415.6 55.6C415.7 56.9 417.6 58.3 421.2 60ZM160.3 57.1L156.5 65C155.5 64.1 153.4 62.4 150.3 60.5C147.2 58.3 145.5 57.1 145 57.1C144.7 57.1 144.2 57.6 144 58.1L139.4 67.7C139.2 68.2 139.2 68.5 139.4 68.7C143.3 71.1 147.1 73.7 150.7 76.6C151.2 76.9 151.7 76.6 151.9 75.9C153.4 73.7 154.6 71.1 156 68.2C160.1 70.8 163.7 73.2 166.8 75.6C167.2 75.8 167.7 75.8 168.2 75.1C171.3 69.8 173 66.2 173 64.5C173 64 171.1 62.6 167.5 60.2C163.7 57.6 161.8 56.4 161.3 56.4C160.8 56.4 160.5 56.6 160.3 57.1ZM265.4 58.6L261.6 66.5C260.7 65.5 258.5 63.8 255.4 62C252.3 59.8 250.6 58.6 250.1 58.6C249.8 58.6 249.3 59.1 249.1 59.6L244.5 69.2C244.3 69.7 244.3 70 244.5 70.2C248.4 72.6 252.2 75.2 255.8 78.1C256.3 78.4 256.8 78.1 257 77.4C258.5 75.2 259.7 72.6 261.1 69.7C265.2 72.3 268.8 74.7 271.9 77.1C272.3 77.3 272.8 77.3 273.3 76.6C276.4 71.3 278.1 67.7 278.1 66C278.1 65.5 276.2 64.1 272.6 61.7C268.8 59.1 266.9 57.9 266.4 57.9C265.9 57.9 265.6 58.1 265.4 58.6ZM129.9 62.3C87.6 78.2 46.4 93.5 5.8 108.9C4.60001 111.3 3.90001 113.5 3.39999 115.6C48.3 97.6 90.3 81.5 128.9 67.1C129.4 66.7 130.1 65.5 131.1 63.3C131.3 62.6 131.3 62.1 131.1 62.1C131.1 61.8866 130.847 61.9767 130.449 62.1186C130.288 62.1761 130.102 62.2422 129.9 62.3ZM343.9 75.3C341.8 71.9 339.4 70.5 336.5 70.5C336.3 70.5 335.5 71.3 334.5 73.1C333.3 75.1 332.8 76.3 332.8 76.5C332.8 77.2 333.3 78.2 334.7 79.4C336.2 80.6 337.1 81.3 338.1 81.3C338.8 81.3 339.1 81 339.3 80.8C339.6 80.3 339.8 80.3 340.3 80.3C341.3 80.3 342.5 82.5 344.4 87.3C346.3 91.9 347.2 95 347 96.7C347.2 97.7 347.2 98.4 347.7 98.4C348.2 98.4 348.7 97.7 349.4 96.7C350.1 95.1 351.1 92.2 351.8 88.1C353.5 79 355.2 74.4 357.1 74.4C358 74.4 359 74.8 359.7 75.8C360.7 76.8 361.2 77.5 361.4 77.5C361.8 77.5 362.3 76.7 362.8 75.3C363.3 74.3 363.3 73.4 363.3 72.9C363.3 71.9 362.9 70.9 361.9 69.5C360.9 68 359.7 67.3 358.5 67.3C356.3 67.3 354.4 69.5 352.5 73.8C350.8 80.1 349.6 84.9 349.1 88C349.1 88.5 348.9 88.8 348.9 89L348.7 89C348.7 88.7 348.7 88.5 348.5 88C347.7 82.7 346.1 78.4 343.9 75.3ZM284.4 84.5C284.4 88.3 282.5 93.6 278.6 100.1C276.2 104.2 272.6 109.7 267.8 116.9C272.6 122.4 276 127.5 277.6 131.8C278.6 134.9 279.3 139 279.3 143.6C279.3 145.5 278.8 147.9 277.9 151C277.2 153.9 276.2 156 275.3 157.5C273.4 160.4 270.3 163.3 265.5 166.1C260.5 169.5 256.1 171.1 252.5 171.1C246.7 171.1 243.9 166.8 243.9 158.1C243.9 152.3 244.9 146.6 246.8 141.3C248.7 136.7 251.8 130.7 256.9 122.8C252.6 118.7 248 113 243 105.8C242.5 105.1 241.3 103.9 239.4 102C238.4 101 238 99.8 238 98.4C238 96.2 238.2 93.8 238.7 91C239.4 88.1 239.9 86.9 240.1 86.9C240.8 86.9 243 88.1 247.1 90.7C250.9 93.3 254.1 95.3 256 96.9C257.2 97.6 257.7 98.3 257.7 98.3L257.7 98.5C257.7 98.7 257 99 255.3 99C252.2 99 250.5 99.2 250.5 99.5C250.5 99.7 251 100.2 251.9 101.4C255.7 106.2 259.6 109.8 263.7 112.7C264.7 111.3 268 106.5 273.3 98.3C277.9 91.3 280.5 86.5 281.7 83.7C282.9 80.8 283.6 79.6 284.1 79.6C284.2 79.7 284.4 81.1 284.4 84.5ZM180.7 138C168.2 138 159.1 136.3 153.6 133C146.772 137.877 140.705 140.566 135.492 140.695C136.143 142.848 136.6 145.541 136.6 148.6C136.6 152.4 135.9 155.8 134.7 158.7C134 160.1 133.5 161.1 132.8 161.1C131.8 161.1 130.6 160.4 128.7 159.4C122.9 156 118.9 152 116.7 147.2C115.5 144.6 114.5 140 114.1 134.2C113.9 133.2 113.9 132.5 113.6 132.5C113.1 132.5 112.6 133.2 112.2 134.2C109.8 136.8 107.4 139.7 105 142.8C100.7 146.6 95.9 148.8 90.4 148.8L90.4 133.9C97.4 133.9 102.9 132.2 107.4 128.9C108.4 128.2 110.8 125.5 114.4 121.5C115.8 119.6 117 118.9 118 118.9C118.5 118.9 119.2 119.1 120.2 119.9C123.1 122.3 125 123.7 126 124.2C128.4 125.4 131.5 125.9 135.6 125.9L135.6 126.094C139.015 126.006 142.253 125.035 145.4 123.7C143.7 120.8 143 117 143 112.2C143 105.5 145.6 98.5 150.7 91.8C155.5 85.6 159.3 82.2 162.7 82.2C165.8 82.2 168.5 84.6 170.1 89.2C171.3 92.8 172 96.6 172 100.5C172 109.9 169.8 117.3 165.8 122.6C168.4 123.3 173.5 123.6 180.7 123.6L180.7 138ZM111.9 101.9C113.8 98.8 115 95.9 115 93.3C115 90.2 113.5 88.5 110.9 88.6C107.6 88.6 105.7 90.5 104.7 94.6C104.5 95.5 104.5 96 104.5 96C104.5 96.2 104.7 96.2 104.7 96.2C104.9 96.2 105.2 95.9 105.9 95.7C106.6 95.2 107.5 95 108.5 95C110.1 95 111.1 95.9 111.1 97.6C111.1 99.8 108.2 103.6 102.7 109.6C101.8 110.8 101.3 111.3 101.3 111.5L101.3 111.7C101.5 111.7 102.3 111.3 103.7 110.3C107.1 107.9 109.7 105 111.9 101.9ZM166.6 109.9C166.6 108 165.9 105.1 164.4 101.7C162.7 97.9 161.3 95.9 160.1 95.9C158.7 95.9 156.3 97.6 153.1 100.9C150 104.3 148.1 107.1 146.9 109.8C147.4 111.2 148.6 112.9 150.3 114.6C152 116.5 153.9 117.7 155.8 118.4C161.1 115.9 164.7 113 166.6 109.9ZM301.9 112.8C302.9 114 303.6 115.6 304.1 117.8C305.3 121.9 307.7 127.7 311 134.7C313.9 141 315.3 144.3 315.3 144.8C315.3 146.8 312.4 149.9 306.9 154.2C302.041 157.811 295.717 161.94 287.926 166.529C288.656 162.048 289.94 156.66 291.8 150.3C292.1 148.8 292.3 147.6 292.3 146.9C292.3 146.4 292.3 146.2 292.1 146.2C291.6 146.2 291.1 147.2 289.9 149.6C287.525 156.013 285.785 162.249 284.762 168.372C281.566 170.213 278.145 172.123 274.5 174.1C265.1 179.2 253.4 184.7 239.2 190.7C218.8 199.3 207.7 204.1 205.8 205.1C200.5 207.5 197.9 209 197.9 209.2C197.9 209.4 197.9 209.4 198.4 209.4C199.4 209.4 201.8 209.1 205.6 208.4C209.2 207.9 218.3 205.8 232.7 202.4C246.4 199.1 253.6 197.4 254.1 197.4C256.7 197.4 265.1 193.3 279.5 184.9C280.947 184.089 282.358 183.283 283.731 182.481C283.996 189.665 285.972 195.858 289.5 200.5C293.8 206.5 300 209.6 308.2 209.6C317.8 209.6 328.8 204.6 341.8 195C350.5 188.5 358.4 181 365.6 172.4C368.7 168.8 371.3 164.2 373 158.7C374.5 154.3 375.2 151 375.2 148.1L375.7 147.6L375.7 134.4C374.7 134.9 374.2 134.9 374 134.9C371.6 129.9 368.7 125.8 365.6 122.2C362 118.6 358.9 116.7 355.8 116.7C351.7 116.7 347.9 118.8 344.3 122.9C340.5 127.7 338.8 133 338.8 139C338.8 146.9 344.6 151 356.1 151C361.4 151 365.7 150.3 368.6 149.3C369.1 151 369.6 152.7 369.6 154.1C369.6 156.2 366 160.5 359 167.4C351.3 174.6 343.4 180.6 335.2 185.6C324.8 191.9 316.2 195 309 195C300.6 195 294.6 192.3 290.8 187.3C289.371 185.156 288.367 182.729 287.789 180.06C300.062 172.571 309.029 165.513 314.8 159C316.8 156.8 318.2 153.7 319.4 149.6C320.3 146 320.8 143.1 320.8 140.7C320.8 135.6 319.3 130.1 316.7 123.4C315 119.6 313.1 115.5 311.4 111.4C314.3 112.1 316.2 112.6 316.9 112.6C317.4 112.6 317.6 112.3 317.6 112.1C317.6 111.6 316.9 110.7 315.2 109C311.2 104.9 307.6 101 304.2 97.2C303.7 96.7 303.4 96.5 303.2 96.5C302.7 96.5 302.4 97 302.2 98.2C301.7 99.4 301.5 101.6 301 104.7C300.5 108 300.5 109.7 300.5 110.2C300.7 110.6 301.2 111.4 301.9 112.8ZM401.8 119.3C401.1 119.3 400.1 119.7 398.9 120.7C395.1 124.1 391.2 126.9 387.3 128.9C386.1 129.7 382 131.6 375.8 134.7L375.8 147.9C384.2 144 390.7 140 394.5 135.4C394.5 146.4 399.3 152.2 409.4 152.2C417.8 152.2 424.7 147.4 430 137.8C433.2 143.6 436.8 146.7 440.6 146.7C446.4 146.7 450.7 144.1 453.6 138.8C456.3 134.4 457.7 129.4 457.7 123.4C457.7 119.5 456.5 116.2 454.6 113.3C453.9 112.3 453.4 112.1 452.9 112.1C452.4 112.1 451.9 112.9 451.7 114.3C450.3 118.8 449.3 122.2 449.1 124.1C451.2 127.7 452.2 129.7 452.2 129.9C451.2 131.5 449.1 132.5 445.7 132.5C443.1 132.5 440.7 131.5 439 130.1C437.1 128.7 436.1 127 436.1 125.3C436.1 125.8 436.8 123.9 437.8 119.8C438.3 117.7 438.1 116.7 437.1 116.7C436.4 116.7 435.7 117.1 434.7 118.1C432.3 122 429.7 125.8 427.3 129.9C423.4 135 418.4 137.6 412.4 137.6C404.9 137.6 401.1 134.7 401.1 129.4C401.1 128.2 401.3 126.7 401.8 124.8C402.3 122.9 402.5 121.4 402.5 120.7C402.5 119.8 402.3 119.3 401.8 119.3ZM65.8 127.7C66.3 126.7 66.5 125.8 66.5 125.3C66.5 124.3 66 123.3 65.1001 121.9C63.9 120.4 62.7 119.7 61.5 119.7C59.3 119.7 57.4 121.9 55.5 126.2C53.8 132.5 52.6 137.3 52.4 140.4C52.1 140.9 51.9 141.2 51.9 141.4C51.9 141.491 51.9 141.54 51.8814 141.549C51.8589 141.559 51.8094 141.509 51.7 141.4L51.7 140.4C50.7 135.1 49.3 131.1 46.9 127.7C44.7 124.3 42.3 122.9 39.7 122.9C39.4 122.9 38.7 123.6 37.5 125.5C36.3 127.5 35.8 128.7 35.8 128.9C35.8 129.6 36.5 130.6 37.7 131.8C39.2 133 40.1 133.7 41.1 133.7C41.8 133.7 42.3 133.4 42.3 133.2C42.5 132.7 42.8 132.7 43.5 132.7C44.2 132.7 45.4 134.9 47.3 139.7C49.2 144.3 50.2 147.4 50.2 149.1C50.2 149.592 50.2726 150.011 50.3702 150.31C49.9807 150.761 49.5247 151.292 49 151.9C47.3 153.8 45.2 155.9 42.3 158.1C30.3 166 21.2 171.6 14.7 175.4C13.5 176.1 12.8 176.9 12.8 177.1C12.8 177.1 12.8 177.3 13 177.3C13.5 177.3 14.2 177.1 15.4 176.6C23.4 173.8 27.7 172.1 28.4 171.6C32 170 36 167.6 40.6 164.2C45.7 160.6 49 156.7 50.7 152.9C51.1367 151.736 51.4792 150.759 51.7161 150.04C51.9246 149.777 52.1495 149.458 52.4 149.1C53.4 147.5 54.1 144.6 54.8 140.5C56.5 131.4 58.4 126.8 60.3 126.8C61 126.8 62 127.2 62.7 128.2C63.7 129.2 64.2 129.9 64.4 129.9C65.1 129.9 65.6 129.1 65.8 127.7ZM51.7161 150.04C51.3421 150.511 51.0211 150.8 50.7 150.8C50.5984 150.8 50.471 150.619 50.3702 150.31C51.3913 149.129 51.9552 148.5 52.1 148.5L52.1 148.7C52.1 148.803 51.9675 149.277 51.7161 150.04ZM0 186.9C0 176.6 2.2 166.3 6.2 155.5C6.37853 155.107 6.54749 154.746 6.70747 154.418C4.68476 153.616 3.7 151.094 3.7 146.8C3.7 140.3 5.39999 133.4 9.2 126.4C10.2 124.7 10.6 123.8 10.9 123.8C10.9 124 10.7 125 10.2 126.7C7.8 134.1 6.59999 139.2 6.59999 142.3C6.59999 146.1 7.59999 148.3 9.7 148.3C11.3 148.3 12.7 146.6 14.4 143.7C14.4 143.5 14.6 143.2 14.6 143.2C14.7093 143.091 14.7589 143.041 14.7814 143.051C14.8 143.06 14.8 143.109 14.8 143.2C15 143.4 15 143.7 14.8 143.9C13.6038 151.077 11.4139 154.677 8.32946 154.7C8.22238 155.154 8.0808 155.658 7.89999 156.2C5 166.8 3.59999 174.7 3.59999 180.2C3.59999 185 4.99998 189.6 8.2 193.6C11.8 198.9 16.6 201.3 22.1 201.3C28.8 201.3 37.2 198.7 47.1 193.4C55 189.1 62.7 183.8 70.6 177.6C77.3 171.8 81.4 168 82.4 165.8C82.4 157.6 80 149 75.4 139.9C74.4 138.2 74 136.8 74 135.8C74 135.1 75 131.5 76.9 125.5C77.1 124.3 77.6 123.6 78.1 123.6C78.6 123.6 79.1 124.6 79.8 126C81.2 129.1 82.2 130.8 82.9 131.3C84.3 133.2 87 133.9 90.3 133.9L90.3 148.5C88.6 148.5 87.4 148.5 86.7 148C86.7 165.8 84.1 177.8 78.8 183.8C73.5 190.3 65.6 196.8 55.5 203.2C42.8 211.4 31.7 215.4 22.6 215.4C14.2 215.4 7.99997 211.8 4.09998 204.4C1.20001 199.4 0 193.4 0 186.9ZM275.1 143.5C272.5 138.2 267.9 132.7 261.7 127.4C259.5 129.6 256.9 133.6 253.5 139.4C249.7 145.9 248 150 248 152.1C248 155 249.9 156.4 254.2 156.4C256.1 156.4 258.5 155.7 261.6 154.5C265.9 152.6 270 149.9 273.4 146.6C274.8 145.2 275.3 144.2 275.1 143.5ZM362.2 136.5C358.6 131.9 355.5 129.8 352.6 129.8C348.3 129.8 346.4 130.8 346.4 133.2C346.4 136.1 349.3 137.5 355 137.5C356.864 137.5 358.964 137.106 361.3 136.668C361.596 136.612 361.896 136.556 362.2 136.5ZM128.4 141.1C130.5 143.5 131.5 145.6 131.5 147.8C129.6 147.8 127.5 146.4 125.3 143.7C122.9 141.3 121.7 138.9 121.7 136.5C123.8 137.3 126.2 138.7 128.4 141.1ZM206.1 163.2C206.1 163.2 205.9 163.5 205.9 163.7C204.3 166.5 202.8 168.2 201.2 168.3C199.1 168.3 198.1 166.1 198.1 162.3C198.1 159.2 199.3 154.1 201.7 146.7C202.2 145 202.4 144 202.4 143.8C202.1 143.8 201.7 144.7 200.7 146.4C196.9 153.4 195.2 160.3 195.2 166.8C195.2 172.1 196.7 174.7 199.8 174.7C202.9 174.7 205.1 171.1 206.3 163.9C206.5 163.7 206.5 163.4 206.3 163.2C206.3 163.109 206.3 163.06 206.281 163.051C206.259 163.041 206.209 163.091 206.1 163.2ZM165.8 153.8C163.2 151.7 161.3 150.7 159.6 150.7C156.7 150.7 154.8 153.8 154.1 160.2C153.8 161.1 154.1 161.6 154.3 161.6C154.3 161.6 155 161.1 156 159.7C157 158.5 157.7 158 158.2 158C159.4 158 160.6 158.5 161.8 159.7C158.9 160.6 156.8 161.6 155.8 162.3C153.4 164.2 152.4 167.1 152.4 171.2C152.4 172.2 153.1 177 154.8 184.9C156.4 192.8 157.4 199.8 157.4 205.3C157.4 208.7 157.4 210.6 157.6 210.6C157.8 210.3 158.1 209.9 158.3 208.9C158.8 205.8 159.3 202.9 159.3 200C159.3 190.1 157.7 180.3 154.3 170.2C155.5 169 157.4 167.8 160.5 166.8C162.9 166 165.3 165.3 167.7 164.6C167.9 164.6 168.4 163.9 169.1 162.2C169.9 160.5 170.3 159.6 170.1 159.1C169.9 157.6 168.4 155.7 165.8 153.8ZM388.1 200.4C385.5 201.1 384 201.6 383.5 201.6L383.5 201.4C383.5 201.4 384.5 200.7 386.4 199.5C388.3 198.3 391.2 196.4 395.3 193.3C397.2 191.4 400.1 188.3 403.7 183.9C406.1 181 408.7 178.4 411.6 176.5C415.2 173.9 418.6 172.7 422.2 172.7C422.9 172.7 424.1 172.9 425.6 173.4C426.8 173.9 428 174.1 429 174.1C430.9 174.1 432.4 173.4 433.6 171.9C434.3 170.5 435.3 169.3 436.2 167.8C436.7 166.8 437.4 166.4 437.9 166.4C438.1 166.4 438.1 166.6 438.1 167.1C438.1 167.6 437.9 168.8 437.4 170.2C436.9 170.9 438.8 171.2 442.4 171.2C442.9 171.2 443.1 171.2 443.1 171C443.1 171 442.9 170 442.4 168.4C442.2 167.9 442.4 167.2 443.1 166.2L443.18 166.064C444.122 164.463 444.508 163.805 444.8 164C445.8 164.7 446.2 166.2 446.2 167.8C446.2 169.5 445.7 171.2 445 173.1C444.3 175.3 443.6 176.5 443.1 176.9C441.4 177.9 438.8 177.6 435.2 175.9C432.3 178.8 429.4 180.5 426.6 180.5C425.9 180.5 424.7 180.3 423.5 179.8C422.3 179.3 421.3 179.1 420.6 179.1C415.8 179.1 410.8 181.3 405.7 186.1L394.9 196.9C392.7 198.5 390.5 199.7 388.1 200.4ZM129.6 197C129.6 196.8 129.8 196.5 129.8 196.5C129.909 196.391 129.959 196.341 129.981 196.351C130 196.36 130 196.409 130 196.5C130.2 196.7 130.2 197 130 197.2C128.8 204.4 126.6 208 123.5 208C120.4 208 118.9 205.4 118.9 200.1C118.9 193.6 120.6 186.7 124.4 179.7C125.4 178 125.8 177.1 126.1 177.1C126.1 177.3 125.9 178.3 125.4 180C123 187.4 121.8 192.5 121.8 195.6C121.8 199.4 122.8 201.6 124.9 201.6C126.5 201.6 127.9 199.9 129.6 197ZM191.1 188.4C191.1 191 189.9 193.9 188 197C185.8 200.1 183.2 203 179.8 205.4C178.4 206.4 177.6 206.8 177.4 206.8L177.4 206.6C177.4 206.4 177.9 205.9 178.8 204.7C184.3 198.7 187.2 194.9 187.2 192.7C187.2 191 186.2 190.1 184.6 190.1C183.6 190.1 182.7 190.3 182 190.8C181.3 191 181 191.3 180.8 191.3C180.8 191.3 180.6 191.3 180.6 191.1C180.6 191.1 180.6 190.6 180.8 189.7C181.8 185.6 183.7 183.7 187 183.7C189.6 183.6 191.1 185.3 191.1 188.4ZM69.9 204.9C79.5 201.5 89.8 197.7 100.9 193.9C101.285 193.823 101.552 193.731 101.745 193.664C102.054 193.558 102.177 193.516 102.3 193.7C102.5 193.7 102.5 194.2 102.1 194.9C101.4 197.1 100.7 198.3 100.2 198.7C90.6 202.1 79.8 206.1 67.6 211.7C67.9 209.5 68.7 207.3 69.9 204.9Z" id="Group" fill="#595959" fill-rule="evenodd" stroke="none" clip-path="url(#clip_1)" />
  </g>
</svg>