<?xml version="1.0" encoding="utf-8"?>
<svg width="497.50012px" height="202.91705px" viewBox="0 0 497.50012 202.91705" version="1.1" xmlns:xlink="http://www.w3.org/1999/xlink" xmlns="http://www.w3.org/2000/svg">
  <defs>
    <path d="M497.5 0L497.5 0L497.5 202.917L0 202.917L0 0L497.5 0Z" id="path_1" />
    <clipPath id="clip_1">
      <use xlink:href="#path_1" clip-rule="evenodd" fill-rule="evenodd" />
    </clipPath>
  </defs>
  <g id="Surah_31_of_114_(modified)">
    <path d="M497.5 0L497.5 0L497.5 202.917L0 202.917L0 0L497.5 0Z" id="Surah_31_of_114_(modified)" fill="none" stroke="none" />
    <path d="M209.7 11.517C209.7 14.117 211.8 16.517 216.4 18.917C213.1 22.517 208 26.317 201 30.6171C195 33.9171 189.3 37.317 183.5 40.9171C182.1 41.6171 181.6 42.4171 181.6 42.6171C181.6 42.6171 181.6 42.817 181.8 42.817C182 42.817 183 42.6171 184.2 42.1171C191.9 39.317 196.2 37.6171 197.2 37.1171C200.8 35.7171 204.8 33.0171 209.4 29.9171C213.2 27.017 216.4 23.9171 219 20.317C221.2 21.517 222.6 22.717 223.1 23.717C225.2 20.917 226.2 18.717 226.2 17.517C225.7 16.517 224.3 15.317 221.9 14.1171C223.1 10.7171 223.6 7.81706 223.6 5.21706C223.6 2.41705 222.9 0.717056 221.2 0.217056C219.3 -0.482956 216.9 0.517044 214 3.11705C211.1 5.51704 209.7 8.41704 209.7 11.517ZM162.7 29.917C162.2 27.017 161 23.717 159.3 19.617C157.6 15.517 156.2 13.417 155.5 13.417C155 13.417 154.8 13.417 154.5 13.917C154.3 14.117 154 14.417 153.3 14.417C152.3 14.417 151.4 13.717 149.9 12.517C148.5 11.317 148 10.317 148 9.61705C148 9.41705 148.5 8.21706 149.7 6.21706C150.7 4.31706 151.4 3.61705 151.6 3.61705C154.5 3.61705 156.9 5.01704 159 8.41705C161.2 11.5171 162.8 15.817 163.6 21.1171C163.8 21.6171 163.8 21.817 163.8 22.1171L164 22.1171C164 21.9171 164.2 21.6171 164.2 21.1171C164.7 18.017 165.9 13.2171 167.6 6.91705C169.5 2.61705 171.4 0.417053 173.6 0.417053C174.8 0.417053 176 1.11705 177 2.61705C178 4.01704 178.4 5.01704 178.4 6.01704C178.4 6.51704 178.4 7.41704 177.9 8.41704C177.4 9.81703 176.9 10.617 176.5 10.617C176.3 10.617 175.8 9.91704 174.8 8.91704C174.1 7.91704 173.1 7.51704 172.2 7.51704C170.3 7.51704 168.6 12.1171 166.9 21.217C166.2 24.817 165.5 27.717 164.3 29.817C166 29.817 167.9 31.017 170.5 32.9171C172.9 35.1171 174.3 36.7171 174.6 38.2171C174.6 38.7171 174.4 39.6171 173.6 41.3171C172.9 43.0171 172.4 43.7171 171.9 43.9171C169.5 44.6171 167.1 45.1171 164.7 45.8171C161.8 46.8171 159.7 48.0171 158.5 49.2171C161.9 59.3171 163.5 69.1171 163.5 79.0171C163.5 81.9171 163 84.817 162.5 87.9171C162.3 88.9171 162 89.317 161.8 89.6171C161.6 89.6171 161.6 87.7171 161.6 84.3171C161.6 78.8171 160.6 71.8171 159 63.9171C157.6 56.0171 156.6 51.4171 156.6 50.2171C156.6 46.1171 157.8 43.2171 160 41.3171C161.2 40.6171 163.1 39.6171 166.2 38.7171C165 37.5171 163.8 37.0171 162.6 37.0171C162.1 37.0171 161.4 37.7171 160.4 38.9171C159.2 40.1171 158.7 40.8171 158.5 40.8171C158.3 40.8171 158.3 40.3171 158.5 39.1171C159.1 34.017 160.5 30.917 162.7 29.917ZM254.3 148.317C259.4 140.117 262 129.117 262 114.917C262 109.917 261.1 94.717 259.2 69.717C257.3 44.317 256.3 31.317 256.3 31.117C256.3 29.917 256.5 29.617 257 30.117C261 34.917 263.2 36.117 263.2 33.917C263.2 33.417 262.9 32.217 262.7 30.817C262 29.117 260.3 24.317 257.4 16.417C254.5 8.91704 252.6 4.41704 251.9 2.71704C251.4 1.71704 251.1 1.51704 250.9 1.51704C250.4 1.51704 250.1 1.81705 249.9 2.51704C247.2 8.91704 245.8 13.017 245.8 14.717C247.3 17.817 248 21.617 248 26.217C248 31.517 248.9 48.517 251.1 77.317C253.3 106.117 254.5 122.617 254.5 126.717C254.5 133.517 253.8 137.517 252.6 138.517C248.3 142.117 243.8 144.017 239.2 144.017L239.2 158.617C244.9 158.617 250 155.017 254.3 148.317ZM302.6 15.317C302.6 17.917 304.7 20.317 309.3 22.717C306 26.317 300.9 30.217 293.9 34.4171C287.9 37.7171 282.2 41.1171 276.4 44.7171C275 45.4171 274.5 46.2171 274.5 46.4171C274.5 46.4171 274.5 46.6171 274.7 46.6171C274.9 46.6171 275.9 46.4171 277.1 45.9171C284.8 43.1171 289.1 41.4171 290.1 40.9171C293.7 39.5171 297.7 36.8171 302.3 33.7171C306.1 30.817 309.3 27.7171 311.9 24.1171C314.1 25.317 315.5 26.517 316 27.517C318.1 24.717 319.1 22.517 319.1 21.317C318.6 20.317 317.2 19.1171 314.8 17.9171C316 14.5171 316.5 11.6171 316.5 9.01706C316.5 6.21706 315.8 4.51706 314.1 4.01706C312.2 3.31705 309.8 4.31705 306.9 6.91705C304 9.31705 302.6 12.217 302.6 15.317ZM219.5 8.41704C219.8 9.81705 219.8 11.317 219.3 12.717C215.7 11.017 213.8 9.51704 213.7 8.31703C213.7 7.91704 214.1 7.41704 215.1 6.91704C216.1 6.41704 216.8 6.21704 217.3 6.21704C218.5 6.21704 219.3 7.01704 219.5 8.41704ZM67.4 12.917C70.3 12.917 72.7 14.317 74.8 17.717C77 20.817 78.6 25.117 79.4 30.417C79.6 30.917 79.6 31.117 79.6 31.417L79.8 31.417C79.8 31.217 80 30.917 80 30.417C80.5 27.317 81.7 22.517 83.4 16.217C85.3 11.917 87.2 9.71704 89.4 9.71704C90.6 9.71704 91.8 10.417 92.8 11.917C93.8 13.317 94.2 14.317 94.2 15.317C94.2 15.817 94.2 16.717 93.7 17.717C93.2 19.117 92.7 19.917 92.3 19.917C92.1 19.917 91.6 19.217 90.6 18.217C89.9 17.217 88.9 16.817 88 16.817C86.1 16.817 84.4 21.417 82.7 30.517C82 34.617 81 37.517 80.3 39.117C79.6 40.117 79.1 40.817 78.6 40.817C78.1 40.817 78.1 40.117 77.9 39.117C78.1 37.417 77.2 34.317 75.3 29.717C73.4 24.917 72.2 22.717 71.2 22.717C70.7 22.717 70.5 22.717 70.2 23.217C70 23.417 69.7 23.717 69 23.717C68 23.717 67.1 23.017 65.6 21.817C64.2 20.6171 63.7 19.6171 63.7 18.9171C63.7 18.7171 64.2 17.5171 65.4 15.5171C66.4 13.617 67.2 12.917 67.4 12.917ZM312.4 12.217C312.7 13.6171 312.7 15.1171 312.2 16.517C308.6 14.817 306.7 13.417 306.6 12.117C306.6 11.717 307 11.217 308 10.717C309 10.217 309.7 10.017 310.2 10.017C311.4 10.017 312.2 10.817 312.4 12.217ZM353.9 29.417C353.9 29.417 353.7 29.717 353.7 29.917C352 32.817 350.6 34.517 349 34.517C346.9 34.517 345.9 32.317 345.9 28.517C345.9 25.417 347.1 20.317 349.5 12.917C350 11.217 350.2 10.217 350.2 10.017C349.9 10.017 349.5 10.9171 348.5 12.6171C344.7 19.6171 343 26.517 343 33.017C343 38.317 344.5 40.917 347.6 40.917C350.7 40.917 352.9 37.317 354.1 30.117C354.3 29.917 354.3 29.617 354.1 29.417C354.1 29.3264 354.1 29.2768 354.081 29.2683C354.059 29.2582 354.009 29.3077 353.9 29.417ZM140.3 152.817C137.2 150.717 134.8 146.117 133.6 139.417C133.4 137.017 132.7 123.117 132.2 97.8171C131.5 70.9171 130.6 52.9171 129.6 43.8171C127.9 29.4171 125.7 19.1171 122.6 13.1171C122.1 12.1171 121.6 11.4171 121.4 11.4171C120.9 11.4171 120.7 12.1171 120.2 13.3171C118.3 18.1171 117.3 21.5171 117.3 23.9171C120 33.1171 121.9 42.4171 123.1 52.5171C123.6 58.7171 124.3 75.5171 125.3 102.917C126 128.317 126.9 143.417 127.9 148.717C129.3 157.117 132 162.617 136.3 165.717C139.1 167.917 143.2 169.117 148.5 169.117L148.5 154.517C144.9 154.517 142.2 153.817 140.3 152.817ZM335.7 60.4171C359.9 51.317 385.1 42.2171 411.1 32.6171C411.302 32.5593 411.488 32.4932 411.649 32.4356C412.047 32.2938 412.3 32.2037 412.3 32.4171C412.5 32.4171 412.5 32.9171 412.3 33.6171C411.3 35.817 410.6 37.017 410.1 37.4171C409.9 37.6171 397.6 42.2171 373.9 51.1171C349.7 60.0171 336 65.5171 333.3 67.217C333.8 65.017 334.5 62.817 335.7 60.4171ZM214 37.417C214.7 36.217 215.7 35.717 216.4 35.717C216.9 35.717 217.4 35.917 217.4 36.417C217.4 36.417 217.2 36.617 217.2 36.917C216.2 39.117 215.3 41.517 214.6 43.917C219.6 47.517 222 51.317 221.8 54.9171C221.3 59.0171 220.8 61.6171 220.1 62.6171C217.7 65.5171 215.1 67.2171 211.7 67.2171C208.3 67.2171 206.9 65.0171 206.9 61.2171C206.9 60.5171 206.9 59.5171 207.1 58.6171C208.3 50.817 210.7 43.917 214 37.417ZM466.3 61.617C463.9 67.417 462.7 71.917 462.7 75.317C462.7 79.4171 463.7 81.5171 465.8 81.5171C467 81.5171 468.4 79.817 470.1 76.9171C470.3 76.717 470.3 76.4171 470.6 76.217C470.6 76.217 470.8 76.217 470.8 76.4171L470.8 77.1171C469.4 84.3171 467.2 87.9171 464.3 87.9171C461.2 87.9171 459.7 85.317 459.7 80.0171C459.7 77.4171 460.2 74.0171 461.6 69.7171C463 65.4171 463.8 63.2171 463.8 63.0171C463.8 62.5171 462.8 61.6171 460.7 60.4171C456.9 65.4171 451.6 70.217 444.9 74.317C440.3 76.9171 435.8 79.317 431 81.317C422.1 84.9171 416.8 86.817 415.6 87.5171C414.4 88.0171 413.7 88.2171 413.2 88.2171C413 88.2171 413 88.0171 413 88.0171C413 87.5171 413.5 87.0171 414.9 86.1171C422.6 81.8171 430 77.5171 437.7 73.1171C447.8 67.3171 454.7 62.5171 458.1 58.9171C453.5 56.5171 451.4 54.1171 451.4 51.5171C451.4 48.4171 452.8 45.5171 455.7 42.9171C458.6 40.5171 461 39.5171 462.9 40.317C464.3 40.817 465.3 42.517 465.3 45.317C465.3 47.9171 464.8 50.817 463.6 53.9171C466 55.317 467 56.817 467 58.217C467 59.017 466.8 60.217 466.3 61.617ZM461 52.717C461.5 51.317 461.5 49.817 461.2 48.417C461 47.017 460.2 46.217 459 46.217C458.5 46.217 457.8 46.417 456.8 46.917C455.8 47.417 455.4 47.917 455.4 48.317C455.5 49.617 457.4 51.117 461 52.717ZM219.3 56.617C219.3 55.417 216.9 53.217 211.9 50.417C210.2 53.317 209.5 55.9171 209.5 58.317C209.5 59.717 210.2 60.717 211.7 60.717C212.9 60.717 214.3 60.217 216 59.317C217.6 58.517 218.8 57.517 219.3 56.617ZM305.2 51.317L301.4 59.217C300.4 58.317 298.3 56.617 295.2 54.7171C292.1 52.5171 290.4 51.3171 289.9 51.3171C289.6 51.3171 289.1 51.8171 288.9 52.3171L284.3 61.9171C284.1 62.4171 284.1 62.7171 284.3 62.9171C288.2 65.3171 292 67.9171 295.6 70.8171C296.1 71.1171 296.6 70.8171 296.8 70.1171C298.3 67.9171 299.5 65.317 300.9 62.4171C305 65.0171 308.6 67.4171 311.7 69.817C312.1 70.0171 312.6 70.0171 313.1 69.317C316.2 64.017 317.9 60.4171 317.9 58.717C317.9 58.217 316 56.817 312.4 54.4171C308.6 51.817 306.7 50.6171 306.2 50.6171C305.7 50.6171 305.4 50.817 305.2 51.317ZM44.1 61.317C43.9 61.817 43.9 62.117 44.1 62.317C48 64.717 51.8 67.4171 55.5 70.217C55.9903 70.5112 56.1921 70.2285 56.6712 69.5574L56.7 69.517C60 64.217 61.7 60.9171 61.7 59.217C61.7 58.717 59.7 57.217 55.9 54.617C52.3 52.217 50.2 51.017 49.7 51.017C49.4 51.017 48.9 51.217 48.7 51.717L44.1 61.317ZM119 103.617C119 112.717 116.8 119.717 112.8 124.517C106.3 131.917 96.7 139.117 84.2 146.317C68.4 154.917 53.7 159.517 39.8 159.517C21.6 159.517 8.79999 150.417 1.89999 132.417C0.5 128.817 0 124.517 0 119.017C0 115.417 0.199997 111.817 0.699997 108.017C1.7 102.517 2.89999 97.717 4.3 93.617C5 92.417 5.5 91.717 6 91.717C6.5 91.717 6.5 92.717 6.2 94.317C5.5 96.717 5 99.317 4.5 101.717C3.5 106.317 3.10001 109.617 3.10001 111.817C3.10001 119.217 5.5 126.017 10.5 132.417C17.2 140.617 27.1 144.917 39.8 144.917C51.1 144.917 63.1 142.317 75.6 137.017C85.9 132.717 95 127.417 103.2 121.217C110.4 115.417 114.2 111.417 114.2 109.017C114.2 108.517 112.5 105.417 109.4 99.4171C105.8 92.4171 103.2 85.5171 101.5 78.817C100.8 76.617 99.8 75.217 99.1 74.5171C98.1 73.5171 97.7001 72.817 97.7001 71.9171C97.7001 71.217 98.4 67.6171 99.6 61.1171C99.8 59.9171 100.1 59.4171 100.6 59.4171C101.1 59.4171 101.6 59.6171 102 60.1171C103.9 62.3171 108 66.3171 114 72.3171C115 73.3171 115.4 74.0171 115.4 74.7171C115.4 75.4171 114.9 75.7171 113.7 75.7171C112.5 75.7171 110.6 75.2171 107.9 74.5171C108.1 75.2171 110.3 79.5171 114.1 87.5171C117.3 93.517 119 99.117 119 103.617ZM12.6 79.4171C12.6 79.4171 12.4 79.717 12.4 79.9171C10.8 82.717 9.30002 84.4171 7.7 84.5171C5.59999 84.5171 4.59999 82.317 4.59999 78.5171C4.59999 75.4171 5.8 70.317 8.2 62.9171C8.7 61.2171 8.89999 60.2171 8.89999 60.0171C8.59999 60.0171 8.2 60.9171 7.2 62.6171C3.39999 69.6171 1.7 76.5171 1.7 83.0171C1.7 88.317 3.2 90.9171 6.3 90.9171C9.40001 90.9171 11.6 87.3171 12.8 80.1171C13 79.9171 13 79.6171 12.8 79.4171C12.8 79.3264 12.8 79.2768 12.7814 79.2683C12.7589 79.2582 12.7093 79.3077 12.6 79.4171ZM383.7 68.117C381.6 64.717 379.2 63.317 376.3 63.317C376 63.317 375.3 64.017 374.3 65.9171C373.1 67.9171 372.6 69.1171 372.6 69.3171C372.6 70.0171 373.1 71.0171 374.5 72.2171C376 73.4171 376.9 74.1171 377.9 74.1171C378.6 74.1171 378.9 73.8171 379.1 73.6171C379.4 73.1171 379.6 73.1171 380.1 73.1171C381.1 73.1171 382.3 75.3171 384.2 80.1171C386.1 84.7171 387 87.817 386.8 89.5171C387 90.5171 387 91.2171 387.5 91.2171C388 91.2171 388.5 90.5171 389.2 89.5171C389.9 87.9171 390.9 85.0171 391.6 80.9171C393.3 71.817 395 67.217 396.9 67.217C397.8 67.217 398.8 67.617 399.5 68.617C400.5 69.617 401 70.317 401.2 70.317C401.6 70.317 402.1 69.517 402.6 68.117C403.1 67.117 403.1 66.217 403.1 65.717C403.1 64.717 402.7 63.717 401.7 62.317C400.7 60.817 399.5 60.117 398.3 60.117C396.1 60.117 394.2 62.317 392.3 66.617C390.6 72.9171 389.4 77.717 388.9 80.817C388.9 81.317 388.7 81.617 388.7 81.817L388.5 81.817C388.5 81.5171 388.5 81.317 388.3 80.817C387.5 75.517 385.9 71.217 383.7 68.117ZM324.2 77.217C324.2 81.017 322.3 86.317 318.4 92.817C316 96.9171 312.4 102.417 307.6 109.617C312.4 115.117 315.8 120.217 317.4 124.517C318.4 127.617 319.1 131.717 319.1 136.317C319.1 138.217 318.6 140.617 317.7 143.717C317 146.617 316 148.717 315.1 150.217C313.2 153.117 310.1 156.017 305.3 158.817C300.3 162.217 295.9 163.817 292.3 163.817C286.5 163.817 283.7 159.517 283.7 150.817C283.7 145.017 284.7 139.317 286.6 134.017C288.5 129.417 291.6 123.417 296.7 115.517C292.4 111.417 287.8 105.717 282.8 98.517C282.3 97.817 281.1 96.617 279.2 94.717C278.2 93.717 277.8 92.517 277.8 91.117C277.8 88.917 278 86.517 278.5 83.717C279.2 80.817 279.7 79.617 279.9 79.617C280.6 79.617 282.8 80.817 286.9 83.417C290.7 86.017 293.9 88.017 295.8 89.617C297 90.317 297.5 91.017 297.5 91.017L297.5 91.217C297.5 91.4171 296.8 91.717 295.1 91.717C292 91.717 290.3 91.9171 290.3 92.217C290.3 92.4171 290.8 92.9171 291.7 94.117C295.5 98.917 299.4 102.517 303.5 105.417C304.5 104.017 307.8 99.217 313.1 91.017C317.7 84.017 320.3 79.217 321.5 76.417C322.7 73.517 323.4 72.317 323.9 72.317C324 72.4171 324.2 73.9171 324.2 77.217ZM216.2 83.217L220 75.317C220.2 74.817 220.5 74.617 221 74.617C221.5 74.617 223.4 75.817 227.2 78.417C230.8 80.817 232.7 82.217 232.7 82.717C232.7 84.417 231 88.017 227.9 93.317C227.4 94.017 226.9 94.017 226.5 93.817C223.4 91.417 219.8 89.017 215.7 86.417C214.3 89.317 213.1 91.917 211.6 94.117C211.4 94.817 210.9 95.117 210.4 94.817C206.8 91.9171 203 89.317 199.1 86.9171C198.9 86.717 198.9 86.4171 199.1 85.9171L203.7 76.317C203.9 75.817 204.4 75.317 204.7 75.317C205.2 75.317 206.9 76.5171 210 78.717C213.1 80.617 215.2 82.317 216.2 83.217ZM46.5 96.417C44.4 93.017 42 91.617 39.1 91.617C38.8 91.617 38.1 92.317 37.1 94.2171C35.9 96.2171 35.4 97.4171 35.4 97.6171C35.4 98.317 35.9 99.317 37.3 100.517C38.8 101.717 39.7 102.417 40.7 102.417C41.4 102.417 41.7 102.117 41.9 101.917C42.2 101.417 42.4 101.417 42.9 101.417C43.9 101.417 45.1 103.617 47 108.417C48.9 113.017 49.8 116.117 49.6 117.817C49.8 118.817 49.8 119.517 50.3 119.517C50.8 119.517 51.3 118.817 52 117.817C52.7 116.217 53.7 113.317 54.4 109.217C56.1 100.117 57.8 95.517 59.7 95.517C60.6 95.517 61.6 95.917 62.3 96.917C63.3 97.917 63.8 98.617 64 98.617C64.4 98.617 64.9 97.817 65.4 96.417C65.9 95.417 65.9 94.517 65.9 94.017C65.9 93.017 65.5 92.017 64.5 90.617C63.5 89.117 62.3 88.417 61.1 88.417C58.9 88.417 57 90.617 55.1 94.917C53.4 101.217 52.2 106.017 51.7 109.117C51.7 109.617 51.5 109.917 51.5 110.117L51.3 110.117C51.3 109.817 51.3 109.617 51.1 109.117C50.3 103.817 48.7 99.517 46.5 96.417ZM341.7 105.617C342.7 106.817 343.4 108.417 343.9 110.617C345.1 114.717 347.5 120.417 350.8 127.517C353.7 133.817 355.1 137.117 355.1 137.617C355.1 139.617 352.2 142.717 346.7 147.017C341.838 150.631 335.507 154.763 327.709 159.357C328.435 154.854 329.725 149.43 331.6 143.017C331.9 141.517 332.1 140.317 332.1 139.617C332.1 139.117 332.1 138.917 331.9 138.917C331.4 138.917 330.9 139.917 329.7 142.317C327.311 148.768 325.564 155.041 324.544 161.199C321.353 163.037 317.938 164.944 314.3 166.917C304.9 172.017 293.2 177.517 279 183.517C258.6 192.117 247.5 196.917 245.6 197.917C240.3 200.317 237.7 201.817 237.7 202.017C237.7 202.217 237.7 202.217 238.2 202.217C239.2 202.217 241.6 201.917 245.4 201.217C249 200.717 258.1 198.617 272.5 195.217C286.2 191.917 293.4 190.217 293.9 190.217C296.5 190.217 304.9 186.117 319.3 177.717C320.749 176.905 322.16 176.098 323.534 175.296C323.814 182.439 325.788 188.596 329.3 193.217C333.6 199.217 339.8 202.317 348 202.317C357.6 202.317 368.6 197.317 381.6 187.717C390.3 181.217 398.2 173.717 405.4 165.117C408.5 161.517 411.1 156.917 412.8 151.417C414.3 147.017 415 143.717 415 140.817L415.5 140.317L415.5 127.117C414.5 127.617 414 127.617 413.8 127.617C411.4 122.617 408.5 118.517 405.4 114.917C401.8 111.317 398.7 109.417 395.6 109.417C391.5 109.417 387.7 111.517 384.1 115.617C380.3 120.417 378.6 125.717 378.6 131.717C378.6 139.617 384.4 143.717 395.9 143.717C401.2 143.717 405.5 143.017 408.4 142.017C408.9 143.717 409.4 145.417 409.4 146.817C409.4 149.017 405.8 153.317 398.8 160.117C391.1 167.317 383.2 173.317 375 178.317C364.6 184.617 356 187.717 348.8 187.717C340.4 187.717 334.4 185.017 330.6 180.017C329.187 177.897 328.189 175.499 327.608 172.865C339.872 165.38 348.832 158.327 354.6 151.817C356.6 149.617 358 146.517 359.2 142.417C360.1 138.817 360.6 135.917 360.6 133.517C360.6 128.417 359.1 122.917 356.5 116.217C354.8 112.417 352.9 108.317 351.2 104.217C354.1 104.917 356 105.417 356.7 105.417C357.2 105.417 357.4 105.117 357.4 104.917C357.4 104.417 356.7 103.517 355 101.817C351 97.717 347.4 93.817 344 90.017C343.5 89.517 343.2 89.317 343 89.317C342.5 89.317 342.2 89.817 342 91.017C341.5 92.217 341.3 94.417 340.8 97.517C340.3 100.817 340.3 102.517 340.3 103.017C340.5 103.417 341 104.217 341.7 105.617ZM191.2 98.617C176.1 104.117 161.7 109.417 148 114.217C146.8 116.617 146.1 118.717 145.6 120.917C162.7 113.717 177.5 108.017 190.5 103.417C191 103.017 191.7 101.817 192.4 99.617C192.8 98.917 192.8 98.417 192.6 98.417C192.477 98.2326 192.354 98.2749 192.045 98.3815C191.852 98.4482 191.585 98.54 191.2 98.617ZM211.9 153.317C217.4 156.617 226.5 158.317 239 158.317L239 143.917C231.8 143.917 226.7 143.617 224.1 142.917C228.1 137.617 230.3 130.217 230.3 120.817C230.3 116.917 229.6 113.117 228.4 109.517C226.8 104.917 224.1 102.517 221 102.517C217.6 102.517 213.8 105.917 209 112.117C203.9 118.817 201.3 125.817 201.3 132.517C201.3 137.317 202 141.117 203.7 144.017C200.522 145.365 197.252 146.342 193.8 146.413L193.8 146.217C189.7 146.217 186.6 145.717 184.2 144.517C183.2 144.017 181.3 142.617 178.4 140.217C177.4 139.417 176.7 139.217 176.2 139.217C175.2 139.217 174 139.917 172.6 141.817C169 145.817 166.6 148.517 165.6 149.217C161.1 152.517 155.6 154.217 148.6 154.217L148.6 169.117C154.1 169.117 158.9 166.917 163.2 163.117C165.6 160.017 168 157.117 170.4 154.517C170.8 153.517 171.3 152.817 171.8 152.817C172.1 152.817 172.1 153.517 172.3 154.517C172.7 160.317 173.7 164.917 174.9 167.517C177.1 172.317 181.1 176.317 186.9 179.717C188.8 180.717 190 181.417 191 181.417C191.7 181.417 192.2 180.417 192.9 179.017C194.1 176.117 194.8 172.717 194.8 168.917C194.8 165.859 194.344 163.167 193.692 161.014C198.927 160.917 205.028 158.225 211.9 153.317ZM441.6 112.117C440.9 112.117 439.9 112.517 438.7 113.517C434.8 116.817 431 119.717 427.1 121.717C425.9 122.517 421.8 124.417 415.6 127.517L415.6 140.717C424 136.817 430.5 132.817 434.3 128.217C434.3 139.217 439.1 145.017 449.2 145.017C457.6 145.017 464.5 140.217 469.8 130.617C473 136.417 476.6 139.517 480.4 139.517C486.2 139.517 490.5 136.917 493.4 131.617C496.1 127.217 497.5 122.217 497.5 116.217C497.5 112.317 496.3 109.017 494.4 106.117C493.7 105.117 493.2 104.917 492.7 104.917C492.2 104.917 491.7 105.717 491.5 107.117C490.1 111.617 489.1 115.017 488.9 116.917C491 120.517 492 122.517 492 122.717C491 124.317 488.9 125.317 485.5 125.317C482.9 125.317 480.5 124.317 478.8 122.917C476.9 121.517 475.9 119.817 475.9 118.117C475.9 118.617 476.6 116.717 477.6 112.617C478.1 110.517 477.9 109.517 476.9 109.517C476.2 109.517 475.5 109.917 474.5 110.917C472.1 114.817 469.5 118.617 467.1 122.717C463.2 127.817 458.2 130.417 452.2 130.417C444.7 130.417 440.9 127.517 440.9 122.217C440.9 121.017 441.1 119.517 441.6 117.617C442.1 115.717 442.3 114.217 442.3 113.517C442.3 112.617 442.1 112.117 441.6 112.117ZM222.6 122.117C224.1 125.517 224.8 128.417 224.8 130.317C222.9 133.417 219.3 136.317 214 138.817C212.1 138.117 210.2 136.917 208.5 135.017C206.8 133.317 205.6 131.617 205.1 130.217C206.3 127.517 208.2 124.717 211.3 121.317C214.5 118.017 216.9 116.317 218.3 116.317C219.5 116.317 220.9 118.317 222.6 122.117ZM314.8 136.317C312.2 131.017 307.6 125.517 301.4 120.217C299.2 122.417 296.6 126.417 293.2 132.217C289.4 138.717 287.7 142.817 287.7 144.917C287.7 147.817 289.6 149.217 293.9 149.217C295.8 149.217 298.2 148.517 301.3 147.317C305.6 145.417 309.7 142.717 313.1 139.417C314.6 137.917 315.1 137.017 314.8 136.317ZM402 129.317C398.4 124.717 395.3 122.617 392.4 122.617C388.1 122.617 386.2 123.617 386.2 126.017C386.2 128.917 389.1 130.317 394.8 130.317C396.664 130.317 398.763 129.923 401.1 129.485C401.396 129.43 401.696 129.373 402 129.317ZM427.9 192.917C425.3 193.617 423.8 194.117 423.3 194.117L423.3 193.917C423.3 193.917 424.3 193.217 426.2 192.017C428.1 190.817 431 188.917 435.1 185.817C437 183.917 439.9 180.817 443.5 176.417C445.9 173.517 448.5 170.917 451.4 169.017C455 166.417 458.4 165.217 462 165.217C462.7 165.217 463.9 165.417 465.4 165.917C466.6 166.417 467.8 166.617 468.8 166.617C470.7 166.617 472.2 165.917 473.4 164.417C474.1 163.017 475.1 161.817 476 160.317C476.5 159.317 477.2 158.917 477.7 158.917C477.9 158.917 477.9 159.117 477.9 159.617C477.9 160.117 477.7 161.317 477.2 162.717C476.7 163.417 478.6 163.717 482.2 163.717C482.7 163.717 482.9 163.717 482.9 163.517C482.9 163.517 482.7 162.517 482.2 160.917C482 160.417 482.2 159.717 482.9 158.717L482.98 158.581C483.922 156.98 484.308 156.322 484.6 156.517C485.6 157.217 486 158.717 486 160.317C486 162.017 485.5 163.717 484.8 165.617C484.1 167.817 483.4 169.017 482.9 169.417C481.2 170.417 478.6 170.117 475 168.417C472.1 171.317 469.2 173.017 466.4 173.017C465.7 173.017 464.5 172.817 463.3 172.317C462.1 171.817 461.1 171.617 460.4 171.617C455.6 171.617 450.6 173.817 445.5 178.617L434.7 189.417C432.4 191.017 430.3 192.217 427.9 192.917ZM189.8 168.217C189.8 166.017 188.8 163.917 186.7 161.517C184.5 159.117 182.1 157.717 180 156.917C180 159.317 181.2 161.717 183.6 164.117C185.7 166.717 187.9 168.217 189.8 168.217ZM89.7 179.217C87.6 175.817 85.2 174.417 82.3 174.417C82 174.417 81.3 175.117 80.3 177.017C79.1 179.017 78.6 180.217 78.6 180.417C78.6 181.117 79.1 182.117 80.5 183.317C82 184.517 82.9 185.217 83.9 185.217C84.6 185.217 84.9 184.917 85.1 184.717C85.4 184.217 85.6 184.217 86.1 184.217C87.1 184.217 88.3 186.417 90.2 191.217C92.1 195.817 93 198.917 92.8 200.617C93 201.617 93 202.317 93.5 202.317C94 202.317 94.5 201.617 95.2 200.617C95.9 199.017 96.9 196.117 97.6 192.017C99.3 182.917 101 178.317 102.9 178.317C103.8 178.317 104.8 178.717 105.5 179.717C106.5 180.717 107 181.417 107.2 181.417C107.6 181.417 108.1 180.617 108.6 179.217C109.1 178.217 109.1 177.317 109.1 176.817C109.1 175.817 108.7 174.817 107.7 173.417C106.7 171.917 105.5 171.217 104.3 171.217C102.1 171.217 100.2 173.417 98.3 177.717C96.6 184.017 95.4 188.817 94.9 191.917C94.9 192.417 94.7 192.717 94.7 192.917L94.5 192.917C94.5 192.617 94.5 192.417 94.3 191.917C93.5 186.617 91.9 182.317 89.7 179.217ZM222.4 191.917C222.4 191.717 222.6 191.417 222.6 191.417C222.709 191.308 222.759 191.258 222.781 191.268C222.8 191.277 222.8 191.326 222.8 191.417C223 191.617 223 191.917 222.8 192.117C221.6 199.317 219.4 202.917 216.3 202.917C213.2 202.917 211.7 200.317 211.7 195.017C211.7 188.517 213.4 181.617 217.2 174.617C218.2 172.917 218.6 172.017 218.9 172.017C218.9 172.217 218.7 173.217 218.2 174.917C215.8 182.317 214.6 187.417 214.6 190.517C214.6 194.317 215.6 196.517 217.7 196.517C219.3 196.517 220.8 194.817 222.4 191.917ZM167.5 183.817C167.5 186.417 166.3 189.317 164.4 192.417C162.2 195.517 159.6 198.417 156.2 200.817C154.8 201.817 154 202.217 153.8 202.217L153.8 202.017C153.8 201.817 154.3 201.317 155.2 200.117C160.7 194.117 163.6 190.317 163.6 188.117C163.6 186.417 162.6 185.517 161 185.517C160 185.517 159.1 185.717 158.4 186.217C157.7 186.417 157.4 186.717 157.2 186.717C157.2 186.717 157 186.717 157 186.517C157 186.517 157 186.017 157.2 185.117C158.2 181.017 160.1 179.117 163.4 179.117C166 179.017 167.5 180.717 167.5 183.817Z" id="Group" fill="#595959" fill-rule="evenodd" stroke="none" clip-path="url(#clip_1)" />
  </g>
</svg>