<?xml version="1.0" encoding="utf-8"?>
<svg width="524.8001px" height="203.3px" viewBox="0 0 524.8001 203.3" version="1.1" xmlns:xlink="http://www.w3.org/1999/xlink" xmlns="http://www.w3.org/2000/svg">
  <defs>
    <path d="M524.8 0L524.8 0L524.8 203.3L0 203.3L0 0L524.8 0Z" id="path_1" />
    <clipPath id="clip_1">
      <use xlink:href="#path_1" clip-rule="evenodd" fill-rule="evenodd" />
    </clipPath>
  </defs>
  <g id="Surah_15_of_114_(modified)">
    <path d="M524.8 0L524.8 0L524.8 203.3L0 203.3L0 0L524.8 0Z" id="Surah_15_of_114_(modified)" fill="none" stroke="none" />
    <path d="M191.5 119.3L193.094 119.7L191.2 119.7C189.3 123.6 187.6 126.7 186.9 128.6C186.4 129.1 186.2 129.6 186.2 129.8C186.2 130.6 188.3 130.8 192.9 130.8C196.5 130.8 205.7 132.7 220.3 136.1C237.1 140.1 246 142.3 247.2 142.3C217.9 152.6 193.6 157.9 174.2 157.9C157.4 157.9 144.9 156 137.2 152.4L137.2 152C122.8 145.5 115.9 136.1 115.9 124C115.9 122.563 115.614 121.813 115.259 121.532C115.204 120.887 115.149 120.208 115.1 119.5C134.8 111.8 154.5 105.6 174.4 100.8C174.9 100.8 175.4 100.6 175.6 100.1C175.9 99.8 176.1 99.1 176.6 97.9L180 88.1C180.4 86.9 180.2 86 179 86C156.9 80 145.4 76.8001 144.4 76.6001C122.8 71.3 106.7 68.4 96.9 68.4C91.4 68.4 86.8 70 83.2 73.4C79.6 76.5 77.7 80.3 77.7 84.9C77.7 87.5 78.5 90.1 79.9 92.3C81.3 94.7 84.7 98.3 90.2 102.6C96.7 107.8 100 110.7 100.5 111.2C96 113.3 92.1 115 89.5 116.2L89.5 129.4C98.4 125.5 104.6 122.9 108.2 121.7C109.894 124.869 111.289 127.083 112.369 128.439C111.965 131.138 111.8 133.275 111.8 135C111.8 149.1 120.2 159.7 137.2 166.9L137.2 167C146.3 170.6 158.6 172.5 173.7 172.5C185.7 172.5 200.8 169.6 219.3 164.1C230.1 160.5 240.9 157.1 251.5 153.5C254.382 152.582 257.484 151.814 260.798 151.193C260.799 151.302 260.8 151.405 260.8 151.5C260.8 156.8 260.6 161.1 260.1 165.2C259.7 168.1 259.7 169.7 259.9 170.7C259.9 171.4 260.4 171.2 261.1 170.2C261.6 169.3 262.1 168.1 262.8 166.4C264.862 161.473 266.367 156.054 267.276 150.198C272.748 149.529 278.701 149.2 285.1 149.2C288.2 149.2 291.6 149.4 295.2 149.4C296.111 149.454 296.915 149.507 297.603 149.553C299.482 149.678 300.5 149.746 300.5 149.6C301.2 149.9 301.9 149.2 302.4 148.2L307.4 138.1C307.6 137.6 307.9 137.3 307.9 137.2C307.9 136.5 306.4 136.2 303.8 136C292.654 135.16 280.745 133.654 268.065 131.449C267.548 123.384 266.199 106.77 264.2 81.7C261.6 49 260.4 32.5 260.4 32C260.4 30.8 260.6 30.3 261.1 31C265.1 35.8 267.3 37 267.3 34.8C267.3 34.3 267.1 33.1 266.6 31.9C266.1 30 264.4 25.2 261.3 17.3C258.4 9.79999 256.7 5.29999 256 3.59999C255.3 2.2 254.6 2.2 254.1 3.59999C251.2 9.59999 250 13.7 250 15.6C251.5 18.8 252.2 22.6 252.2 27.4C252.2 31.5 253.6 51.9 256.5 89.1C257.834 106.126 258.851 119.722 259.56 129.887C247.871 127.629 235.559 124.8 222.618 121.377C226.82 117.122 229.799 112.014 231.4 105.9C233.3 99.7 234.3 89.6 234.3 75.9C234.3 70.9 233.9 62 232.9 49.3C232 36.3 231.5 29.8 231.5 29.6C231.5 28.4 231.7 27.9 232.2 28.6C236.2 33.4 238.4 34.6 238.4 32.4C238.4 31.9 238.1 30.7 237.9 29.3C237.2 27.6 235.5 22.8 232.6 14.9C229.7 7.39999 227.8 2.89999 227.1 1.2C226.6 0.199997 226.3 0 226.1 0C225.8 0 225.3 0.300003 225.1 1C222.4 7.39999 221 11.5 221 13.2C222.5 16.3 223.2 20.1 223.2 24.7C223.2 28.8 223.7 38.9 225.1 55.2C226.3 71.8 227 82.3 227 87.6C227 98.1 226.7 103.9 226.5 105.1C226 106.8 224.5 108.2 221.9 109.2C216.7 111.3 209.7 113.5 201.3 115.9C195.1 117.6 191.7 118.8 191.5 119.3ZM299.2 20.9C299.2 20.7 299.4 20.4 299.4 20.4C299.509 20.2907 299.559 20.2411 299.581 20.2513C299.6 20.2598 299.6 20.3093 299.6 20.4C299.8 20.6 299.8 20.9 299.6 21.1C298.4 28.3 296.2 31.9 293.1 31.9C290 31.9 288.5 29.3 288.5 24C288.5 17.5 290.2 10.6 294 3.60001C295 1.90001 295.4 1 295.7 1C295.7 1.2 295.5 2.2 295 3.89999C292.6 11.3 291.4 16.4 291.4 19.5C291.4 23.3 292.4 25.5 294.5 25.5C296.1 25.5 297.6 23.8 299.2 20.9ZM198.7 2.89999C198 2.89999 197 3.39999 196.3 4.59999C192.9 11.1 190.5 18.1 189.4 25.8C189.2 26.7 189.2 27.7 189.2 28.4C189.2 32.2 190.6 34.4 194 34.4C197.4 34.4 200 32.7 202.4 29.8C203.1 28.8 203.6 26.2 204.1 22.1C204.3 18.5 201.9 14.7 196.9 11.1C197.6 8.7 198.5 6.29999 199.5 4.09999C199.5 3.79999 199.7 3.59999 199.7 3.59999C199.7 3.09999 199.2 2.89999 198.7 2.89999ZM330 15.9C330 18.5 332.1 20.9 336.7 23.3C333.3 26.9 328.3 30.8 321.3 35C315.3 38.3 309.6 41.7 303.8 45.3C302.4 46 301.9 46.8 301.9 47C301.9 47 301.9 47.2 302.1 47.2C302.3 47.2 303.3 47 304.5 46.5C312.2 43.7 316.5 42 317.5 41.5C321.1 40.1 325.1 37.4 329.7 34.3C333.5 31.4 336.7 28.3 339.3 24.7C341.5 25.9 342.9 27.1 343.4 28.1C345.5 25.3 346.5 23.1 346.5 21.9C346 20.9 344.6 19.7 342.2 18.5C343.4 15.1 343.9 12.2 343.9 9.60002C343.9 6.80002 343.2 5.10002 341.5 4.60002C339.6 3.90001 337.2 4.90001 334.3 7.50002C331.4 9.90001 330 12.8 330 15.9ZM168.4 25.7C168.4 25.7 168.2 26 168.2 26.2C166.5 29.1 165.1 30.8 163.5 30.8C161.4 30.8 160.4 28.6 160.4 24.8C160.4 21.7 161.6 16.6 164 9.2C164.5 7.5 164.7 6.5 164.7 6.3C164.4 6.3 164 7.20001 163 8.90001C159.2 15.9 157.5 22.8 157.5 29.3C157.5 34.6 159 37.2 162.1 37.2C165.2 37.2 167.4 33.6 168.6 26.4C168.8 26.2 168.8 25.9 168.6 25.7C168.6 25.6093 168.6 25.5598 168.581 25.5513C168.559 25.5411 168.509 25.5906 168.4 25.7ZM339.8 12.8C340.1 14.2 340.1 15.7 339.6 17.1C336 15.4 334 14 334 12.7C334 12.3 334.4 11.8 335.4 11.3C336.4 10.8 337.1 10.6 337.6 10.6C338.8 10.6 339.6 11.4 339.8 12.8ZM381.3 30C381.3 30 381.1 30.3 381.1 30.5C379.4 33.4 378 35.1 376.4 35.1C374.3 35.1 373.3 32.9 373.3 29.1C373.3 26 374.5 20.9 376.9 13.5C377.4 11.8 377.6 10.8 377.6 10.6C377.3 10.6 376.9 11.5 375.9 13.2C372.1 20.2 370.4 27.1 370.4 33.6C370.4 38.9 371.9 41.5 375 41.5C378.1 41.5 380.3 37.9 381.5 30.7C381.7 30.5 381.7 30.2 381.5 30C381.5 29.9093 381.5 29.8598 381.481 29.8513C381.459 29.8411 381.409 29.8907 381.3 30ZM194.2 17.6C199.2 20.4 201.6 22.6 201.6 23.8C201.1 24.8 199.9 25.7 198.3 26.5C196.6 27.4 195.2 27.9 194 27.9C192.5 27.9 191.8 26.9 191.8 25.5C191.8 23.1 192.5 20.5 194.2 17.6ZM135.6 23.3C136.3 22.1 137.3 21.6 138 21.6C138.5 21.6 139 21.8 139 22.3C139 22.3 138.8 22.5 138.8 22.8C137.8 25 136.9 27.4 136.2 29.8C141.2 33.4 143.6 37.2 143.4 40.8C142.9 44.9 142.4 47.5 141.7 48.5C139.3 51.4 136.7 53.1 133.3 53.1C129.9 53.1 128.5 50.9 128.5 47.1C128.5 46.4 128.5 45.4 128.7 44.5C129.8 36.8 132.2 29.8 135.6 23.3ZM83 26.5C85.9 26.5 88.3 27.9 90.4 31.3C92.6 34.4 94.2 38.7 95 44C95.2 44.5 95.2 44.7 95.2 45L95.4 45C95.4 44.8 95.6 44.5 95.6 44C96.1 40.9 97.3 36.1 99 29.8C100.9 25.5 102.8 23.3 105 23.3C106.2 23.3 107.4 24 108.4 25.5C109.4 26.9 109.8 27.9 109.8 28.9C109.8 29.4 109.8 30.3 109.3 31.3C108.8 32.7 108.3 33.5 107.9 33.5C107.7 33.5 107.2 32.8 106.2 31.8C105.5 30.8 104.5 30.4 103.6 30.4C101.7 30.4 100 35 98.3 44.1C97.6 48.2 96.6 51.1 95.9 52.7C95.2 53.7 94.7 54.4 94.2 54.4C93.7 54.4 93.7 53.7 93.5 52.7C93.7 51 92.8 47.9 90.9 43.3C89 38.5 87.8 36.3 86.8 36.3C86.3 36.3 86.1 36.3 85.8 36.8C85.6 37 85.3 37.3 84.6 37.3C83.6 37.3 82.7 36.6 81.2 35.4C79.8 34.2 79.3 33.2 79.3 32.5C79.3 32.3 79.8 31.1 81 29.1C82 27.2 82.8 26.5 83 26.5ZM363.1 61C387.3 51.9 412.5 42.8 438.5 33.2C438.702 33.1422 438.888 33.0761 439.049 33.0185C439.447 32.8767 439.7 32.7866 439.7 33C439.9 33 439.9 33.5 439.7 34.2C438.7 36.4 438 37.6 437.5 38C437.3 38.2 425 42.8 401.3 51.7C377.1 60.6 363.4 66.1 360.7 67.8C361.2 65.6 361.9 63.4 363.1 61ZM140.8 42.5C140.8 41.3 138.4 39.1 133.4 36.3C131.7 39.2 131 41.8 131 44.2C131 45.6 131.7 46.6 133.2 46.6C134.4 46.6 135.8 46.1 137.5 45.2C139.2 44.5 140.4 43.5 140.8 42.5ZM58 57.9C58 57.9 57.8 58.2 57.8 58.4C56.1 61.3 54.7 62.9 53.1 63C51 63 50 60.8 50 57C50 53.9 51.2 48.8 53.6 41.4C54.1 39.7 54.3 38.7 54.3 38.5C54 38.5 53.6 39.4 52.6 41.1C48.8 48.1 47.1 55 47.1 61.5C47.1 66.8 48.6 69.4 51.7 69.4C54.8 69.4 57 65.8 58.2 58.6C58.4 58.4 58.4 58.1 58.2 57.9C58.2 57.8093 58.2 57.7598 58.1814 57.7513C58.1589 57.7411 58.1093 57.7907 58 57.9ZM493.6 62.2C491.2 68 490 72.5 490 75.9C490 80 491 82.1 493.1 82.1C494.3 82.1 495.7 80.4 497.4 77.5C497.6 77.3 497.6 77 497.9 76.8C497.9 76.8 498.1 76.8 498.1 77L498.1 77.7C496.7 84.9 494.5 88.5 491.6 88.5C488.5 88.5 487 85.9 487 80.6C487 78 487.5 74.6 488.9 70.3C490.3 66 491.1 63.8 491.1 63.6C491.1 63.1 490.1 62.2 488 61C484.2 66 478.9 70.8 472.2 74.9C467.6 77.5 463.1 79.9 458.3 81.9C449.4 85.5 444.1 87.4 442.9 88.1C441.7 88.6 441 88.8 440.5 88.8C440.3 88.8 440.3 88.6 440.3 88.6C440.3 88.1 440.8 87.6 442.2 86.7C449.9 82.4 457.3 78.1 465 73.7C475.1 67.9 482 63.1 485.4 59.5C480.8 57.1 478.7 54.7 478.7 52.1C478.7 49 480.1 46.1 483 43.5C485.9 41.1 488.3 40.1 490.2 40.9C491.6 41.4 492.6 43.1 492.6 45.9C492.6 48.5 492.1 51.4 490.9 54.5C493.3 55.9 494.3 57.4 494.3 58.8C494.4 59.6 494.1 60.8 493.6 62.2ZM488.4 53.3C488.9 51.9 488.9 50.4 488.6 49C488.4 47.6 487.6 46.8 486.4 46.8C485.9 46.8 485.2 47 484.2 47.5C483.2 48 482.8 48.5 482.8 48.9C482.8 50.2 484.8 51.7 488.4 53.3ZM176.8 52.1C179.7 52.1 182.1 53.5 184.2 56.9C186.4 60 188 64.3 188.8 69.6C189 70.1 189 70.3 189 70.6L189.2 70.6C189.2 70.4 189.4 70.1 189.4 69.6C189.9 66.5 191.1 61.7 192.8 55.4C194.7 51.1 196.6 48.9 198.8 48.9C200 48.9 201.2 49.6 202.2 51.1C203.2 52.5 203.6 53.5 203.6 54.5C203.6 55 203.6 55.9 203.1 56.9C202.6 58.3 202.1 59.1 201.7 59.1C201.5 59.1 201 58.4 200 57.4C199.3 56.4 198.3 56 197.4 56C195.5 56 193.8 60.6 192.1 69.7C191.4 73.8 190.4 76.7 189.7 78.3C189 79.3 188.5 80 188 80C187.5 80 187.5 79.3 187.3 78.3C187.5 76.6 186.6 73.5 184.7 68.9C182.8 64.1 181.6 61.9 180.6 61.9C180.1 61.9 179.9 61.9 179.6 62.4C179.4 62.6 179.1 62.9 178.4 62.9C177.4 62.9 176.5 62.2 175 61C173.6 59.8 173.1 58.8 173.1 58.1C173.1 57.9 173.6 56.7 174.8 54.7C175.9 52.9 176.6 52.1 176.8 52.1ZM332.6 51.9L328.8 59.8C327.8 58.9 325.6 57.2 322.6 55.3C319.5 53.1001 317.8 51.9 317.3 51.9C317 51.9 316.5 52.4 316.3 52.9L311.7 62.5C311.5 63 311.5 63.3 311.7 63.5C315.6 65.9 319.4 68.5 323 71.4C323.5 71.7 324 71.4 324.2 70.7C325.7 68.5 326.9 65.9 328.3 63C332.4 65.6 336 68 339.1 70.4C339.5 70.6 340 70.6 340.5 69.9C343.6 64.6 345.3 61 345.3 59.3C345.3 58.8 343.4 57.4 339.8 55C336 52.4 334.1 51.2 333.6 51.2C333.1 51.2 332.8 51.4 332.6 51.9ZM411 68.9C408.9 65.5 406.5 64.1 403.6 64.1C403.4 64.1 402.7 64.9 401.6 66.7C400.4 68.7 399.9 69.9 399.9 70.1C399.9 70.8 400.4 71.8 401.8 73C403.3 74.2 404.2 74.9 405.2 74.9C405.9 74.9 406.2 74.6 406.4 74.4C406.7 73.9 406.9 73.9 407.4 73.9C408.4 73.9 409.6 76.1 411.5 80.9C413.4 85.5 414.3 88.6 414.1 90.3C414.3 91.3 414.3 92 414.8 92C415.3 92 415.8 91.3 416.5 90.3C417.2 88.7 418.2 85.8 418.9 81.7C420.6 72.6 422.3 68 424.2 68C425.1 68 426.1 68.4 426.8 69.4C427.8 70.4 428.3 71.1 428.5 71.1C428.9 71.1 429.4 70.3 429.9 68.9C430.4 67.9 430.4 67 430.4 66.5C430.4 65.5 430 64.5 429 63.1C428 61.6 426.8 60.9 425.6 60.9C423.4 60.9 421.5 63.1 419.6 67.4C417.9 73.7 416.7 78.5 416.2 81.6C416.2 82.1 416 82.4 416 82.6L415.8 82.6C415.8 82.3 415.8 82.1 415.6 81.6C414.8 76.3 413.2 72 411 68.9ZM289.8 81.9C289.8 81.9 289.6 82.2 289.6 82.4C288 85.3 286.5 86.9 284.9 87C282.8 87 281.8 84.8 281.8 81C281.8 77.9 283 72.8 285.4 65.4C285.9 63.7 286.1 62.7 286.1 62.5C285.8 62.5 285.4 63.4 284.4 65.1C280.6 72.1 278.9 79 278.9 85.5C278.9 90.8 280.4 93.4 283.5 93.4C286.6 93.4 288.8 89.8 290 82.6C290.2 82.4 290.2 82.1 290 81.9C290 81.8093 290 81.7598 289.981 81.7513C289.959 81.7411 289.909 81.7907 289.8 81.9ZM351.6 77.8C351.6 81.6 349.7 86.9 345.8 93.4C343.4 97.5 339.8 103 335 110.2C339.8 115.7 343.2 120.8 344.8 125.1C345.8 128.2 346.5 132.3 346.5 136.9C346.5 138.8 346 141.2 345.1 144.3C344.4 147.2 343.4 149.3 342.5 150.8C340.6 153.7 337.5 156.6 332.7 159.4C327.7 162.8 323.3 164.4 319.7 164.4C313.9 164.4 311.1 160.1 311.1 151.4C311.1 145.6 312.1 139.9 314 134.6C315.9 130 319 124 324.1 116.1C319.8 112 315.2 106.3 310.2 99.1C309.7 98.4 308.5 97.2 306.6 95.3C305.6 94.3 305.2 93.1 305.2 91.7C305.2 89.5 305.4 87.1 305.9 84.3C306.6 81.4 307.1 80.2 307.3 80.2C308 80.2 310.2 81.4 314.3 84C318.1 86.6 321.3 88.6 323.2 90.2C324.4 90.9 324.9 91.6 324.9 91.6L324.9 91.8C324.9 92 324.2 92.3 322.5 92.3C319.4 92.3 317.7 92.5 317.7 92.8C317.7 93 318.2 93.5 319.1 94.7C322.9 99.5 326.8 103.1 330.9 106C331.9 104.6 335.2 99.8 340.5 91.6C345.1 84.6 347.7 79.8 348.9 77C350.1 74.1 350.8 72.9 351.3 72.9C351.3 72.9148 351.307 72.9606 351.318 73.0385C351.383 73.4853 351.6 74.9902 351.6 77.8ZM68.4 87.2C68.9 86.2 69.1 85.3 69.1 84.8C69.1 83.8 68.6 82.9 67.7001 81.4C66.5001 79.9 65.3001 79.2 64.1001 79.2C61.9001 79.2 60.0001 81.4 58.1001 85.7C56.4001 92 55.2001 96.8 55.0001 99.9C54.7001 100.4 54.5001 100.7 54.5001 100.9C54.5001 100.991 54.5001 101.04 54.4814 101.049C54.4589 101.059 54.4094 101.009 54.3001 100.9L54.3001 99.9C53.3001 94.6 51.9001 90.6 49.5001 87.2C47.3001 83.8 44.9001 82.4 42.3001 82.4C42.0001 82.4 41.3001 83.1001 40.1001 85C38.9001 87 38.4001 88.2 38.4001 88.4C38.4001 89.1 39.1001 90.1 40.3001 91.3C41.8001 92.5 42.7001 93.2 43.7001 93.2C44.4001 93.2 44.9001 92.9 44.9001 92.7C45.1001 92.2 45.4001 92.2 46.1001 92.2C46.8 92.2 48.0001 94.4 49.9001 99.2C51.8 103.8 52.8 106.9 52.8 108.6C52.8 109.047 52.8599 109.434 52.944 109.725C52.5387 110.194 52.0582 110.754 51.5 111.4C49.8 113.3 47.7 115.4 44.8 117.6C32.8 125.5 23.7 131.1 17.2 134.9C16 135.6 15.3 136.4 15.3 136.6C15.3 136.6 15.3 136.8 15.5 136.8C16 136.8 16.7 136.6 17.9 136.1C25.9 133.3 30.2 131.6 30.9 131.1C34.5 129.5 38.5 127.1 43.1 123.7C48.2 120.1 51.5 116.2 53.2 112.4C53.6872 111.231 54.0557 110.275 54.2939 109.568C54.5086 109.3 54.7406 108.971 55 108.6C56 107 56.7 104.1 57.4 100C59.1 90.9 61 86.3 62.9 86.3C63.6 86.3 64.6 86.7 65.3 87.7C66.3 88.7 66.8 89.4 67 89.4C67.7 89.4 68.2 88.6 68.4 87.2ZM54.2939 109.568C53.9294 110.023 53.6147 110.3 53.3 110.3C53.1894 110.3 53.0482 110.086 52.944 109.725C53.9185 108.598 54.4588 108 54.6 108L54.6 108.2C54.6513 108.354 54.5448 108.823 54.2939 109.568ZM155.2 94.1C149.9 92.2 141.5 89.5 130.2 86.9C115.6 83.3 104 81.6 95.2 81.6C88.2 81.6 84.6 82.1 84.6 83.3C84.6 83.8 85.8 85 87.7 86.9C91.8 90 95.9 93.4 99.7 96.7C105.7 101.5 109.3 105.1 111 107.3C126.9 101.8 141.6 97.3 155.2 94.1ZM21.1 105.7C21.1 105.5 21.3 105.2 21.3 105.2C21.4093 105.091 21.4589 105.041 21.4814 105.051C21.5 105.06 21.5 105.109 21.5 105.2C21.7 105.4 21.7 105.7 21.5 105.9C20.3 113.1 18.1 116.7 15 116.7C11.9 116.7 10.4 114.1 10.4 108.8C10.4 102.3 12.1 95.4 15.9 88.4C16.9 86.7 17.3 85.8 17.6 85.8C17.6 86 17.4 87 16.9 88.7C14.5 96.1 13.3 101.2 13.3 104.3C13.3 108.1 14.3 110.3 16.4 110.3C18 110.2 19.4 108.5 21.1 105.7ZM369 106.2C370 107.4 370.7 109 371.2 111.2C372.4 115.3 374.8 121 378.1 128.1C381 134.4 382.4 137.7 382.4 138.2C382.4 140.2 379.5 143.3 374 147.6C369.172 151.188 362.896 155.288 355.174 159.842C355.911 155.419 357.18 150.125 359 143.9C359.3 142.4 359.5 141.2 359.5 140.5C359.5 140 359.5 139.8 359.3 139.8C358.8 139.8 358.3 140.8 357.1 143.2C354.762 149.513 353.039 155.655 352.011 161.686C348.771 163.554 345.301 165.493 341.6 167.5C332.2 172.6 320.5 178.1 306.3 184.1C285.9 192.7 274.8 197.5 272.9 198.5C267.6 200.9 265 202.4 265 202.6C265 202.8 265 202.8 265.5 202.8C266.5 202.8 268.9 202.5 272.7 201.8C276.3 201.3 285.4 199.2 299.8 195.8C313.5 192.5 320.7 190.8 321.2 190.8C323.8 190.8 332.2 186.7 346.6 178.3C348.08 177.471 349.52 176.647 350.922 175.828C351.15 183.12 353.131 189.404 356.7 194.1C361 200.1 367.2 203.2 375.4 203.2C385 203.2 396 198.2 409 188.6C417.7 182.1 425.6 174.6 432.8 166C435.9 162.4 438.5 157.8 440.2 152.3C441.7 147.9 442.4 144.6 442.4 141.7L442.9 141.2L442.9 128C441.9 128.5 441.4 128.5 441.2 128.5C438.8 123.5 435.9 119.4 432.8 115.8C429.2 112.2 426.1 110.3 423 110.3C418.9 110.3 415.1 112.4 411.5 116.5C407.7 121.3 406 126.6 406 132.6C406 140.5 411.8 144.6 423.3 144.6C428.6 144.6 432.9 143.9 435.8 142.9C436.3 144.6 436.8 146.3 436.8 147.7C436.8 149.8 433.2 154.1 426.2 161C418.5 168.2 410.6 174.2 402.4 179.2C392 185.5 383.4 188.6 376.2 188.6C367.8 188.6 361.8 185.9 358 180.9C356.53 178.694 355.51 176.189 354.94 173.428C367.187 165.951 376.137 158.904 381.9 152.4C383.9 150.2 385.3 147.1 386.5 143C387.4 139.4 387.9 136.5 387.9 134.1C387.9 129 386.4 123.5 383.8 116.8C382.1 113 380.2 108.9 378.5 104.8C381.4 105.5 383.3 106 384 106C384.5 106 384.7 105.7 384.7 105.5C384.7 105 384 104.1 382.3 102.4C378.3 98.3 374.7 94.4 371.3 90.6C370.8 90.1 370.5 89.9 370.3 89.9C369.8 89.9 369.5 90.4 369.3 91.6C368.8 92.8 368.6 95 368.1 98.1C367.6 101.4 367.6 103.1 367.6 103.6C367.8 104 368.3 104.8 369 106.2ZM468.9 112.9C468.2 112.9 467.2 113.3 466 114.3C462.2 117.7 458.4 120.5 454.4 122.5C453.2 123.3 449.1 125.2 442.9 128.3L442.9 141.5C451.3 137.6 457.8 133.6 461.6 129C461.6 140 466.4 145.8 476.5 145.8C484.9 145.8 491.8 141 497.1 131.4C500.3 137.2 503.9 140.3 507.7 140.3C513.5 140.3 517.8 137.7 520.7 132.4C523.4 128 524.8 123 524.8 117C524.8 113.1 523.6 109.8 521.7 106.9C521 105.9 520.5 105.7 520 105.7C519.5 105.7 519 106.5 518.8 107.9C517.4 112.4 516.4 115.8 516.2 117.7C518.3 121.3 519.3 123.3 519.3 123.5C518.3 125.1 516.2 126.1 512.8 126.1C510.2 126.1 507.8 125.1 506.1 123.7C504.2 122.3 503.2 120.6 503.2 118.9C503.2 119.4 503.9 117.5 504.9 113.4C505.4 111.3 505.2 110.3 504.2 110.3C503.5 110.3 502.8 110.7 501.8 111.7C499.4 115.6 496.8 119.4 494.4 123.5C490.5 128.6 485.5 131.2 479.5 131.2C472 131.2 468.2 128.3 468.2 123C468.2 121.8 468.4 120.3 468.9 118.4C469.4 116.5 469.6 115 469.6 114.3C469.6 113.4 469.4 112.9 468.9 112.9ZM64.3 127.5C55.9 132.1 49.1 137.1 44.1 142.9C40.3 147.4 36.4 152.2 32.3 156.6C26.3 162.6 20.1 165.7 14.1 165.7C10.8 165.7 8.09998 164.5 6.19998 161.9C4.29999 159.8 3.29999 156.6 3.29999 152.8C3.29999 147.8 4.89999 141.1 8.29999 132.2C11.4 123.6 13.1 118.5 13.1 117.1C13.1 116.8 12.9 116.6 12.9 116.6C12.4 116.6 11.7 117.4 11 118.8C3.60001 133.5 0 145.2 0 154.1C0 160.6 1.7 166.4 5.5 170.7C9.09999 175.2 13.4 177.4 18.2 177.4C24 177.4 29.7 174 35.5 167.3C45.1 156.3 52.6 148.8 57.6 145C60.2 142.8 65.3 140.2 72.7 136.6C76.3 135 81.8 132.6 89.5 129.2L89.5 116C77.5 121 69.1 124.9 64.3 127.5ZM129.8 132.1C129.6 131.9 129.6 131.6 129.8 131.1L134.4 121.5C134.6 121 135.1 120.8 135.4 120.8C135.9 120.8 138 122 141.6 124.4C145.4 127 147.4 128.5 147.4 129C147.4 130.7 145.7 134 142.4 139.3L142.371 139.34C141.892 140.011 141.69 140.294 141.2 140C137.5 137.1 133.6 134.5 129.8 132.1ZM320.6 132.8C316.8 139.3 315.1 143.4 315.1 145.5C315.1 148.4 317 149.8 321.3 149.8C323.2 149.8 325.6 149.1 328.7 147.9C333 146 337.1 143.3 340.5 140C342 138.5 342.4 137.6 342.2 136.9C339.6 131.6 335 126.1 328.8 120.8C326.6 123 324 127 320.6 132.8ZM429.3 130.1C425.7 125.5 422.6 123.4 419.7 123.4C415.4 123.4 413.5 124.4 413.5 126.8C413.5 129.7 416.4 131.1 422.1 131.1C424.13 131.1 426.33 130.674 428.7 130.216C428.899 130.177 429.099 130.139 429.3 130.1ZM97.6 147.2C82.5 152.7 68.1 158 54.4 162.8C53.2 165.2 52.5 167.3 52 169.5C69.1 162.3 83.9 156.6 96.9 152C97.4 151.6 98.1 150.4 98.8 148.2C99.2 147.5 99.2 147 99 147C98.877 146.816 98.7541 146.858 98.4451 146.964C98.2516 147.031 97.9851 147.123 97.6 147.2ZM455.2 193.7C452.6 194.4 451.1 194.9 450.6 194.9L450.6 194.7C450.6 194.7 451.6 194 453.5 192.8C455.4 191.6 458.3 189.7 462.4 186.6C464.3 184.7 467.2 181.6 470.8 177.2C473.2 174.3 475.8 171.7 478.7 169.8C482.3 167.2 485.7 166 489.3 166C490 166 491.2 166.2 492.7 166.7C493.9 167.2 495.1 167.4 496.1 167.4C498 167.4 499.5 166.7 500.7 165.2C501.4 163.8 502.4 162.6 503.3 161.1C503.8 160.1 504.5 159.7 505 159.7C505.2 159.7 505.2 159.9 505.2 160.4C505.2 160.9 505 162.1 504.5 163.5C504 164.2 505.9 164.5 509.5 164.5C510 164.5 510.2 164.5 510.2 164.3C510.2 164.3 510 163.3 509.5 161.7C509.3 161.2 509.5 160.5 510.2 159.5L510.28 159.364C511.222 157.763 511.608 157.105 511.9 157.3C512.9 158 513.3 159.5 513.3 161.1C513.3 162.8 512.8 164.5 512.1 166.4C511.4 168.6 510.7 169.8 510.2 170.2C508.5 171.2 505.9 170.9 502.3 169.2C499.4 172.1 496.5 173.8 493.7 173.8C493 173.8 491.8 173.6 490.6 173.1C489.4 172.6 488.4 172.4 487.7 172.4C482.9 172.4 477.9 174.6 472.8 179.4L462 190.2C459.8 191.8 457.6 193 455.2 193.7ZM253.9 196.6C249.1 200.9 242.6 203.3 234.9 203.3C232.7 203.3 230.6 202.6 229.1 201.4C227.7 200.2 226.9 198.5 226.9 196.6C226.9 193.2 228.1 189.9 231 186.5C233.9 183.4 236.8 180.5 239.4 177.4C240.1 176.9 239.9 176.4 238.9 176C237 175.3 234.6 175 232.2 175C231 175 229.6 175.2 227.9 176.2C227.837 176.2 227.763 176.22 227.686 176.241C227.52 176.287 227.337 176.337 227.2 176.2C227.2 176.2 227.2 176 227.4 175.5C228.4 173.1 229.3 171.4 230.3 170.7C231.5 169.7 233.4 169.3 236.1 169.3C241.9 169.3 244.5 170.5 244.5 173.4C244.5 175.6 242.8 178.4 239.2 182.5L231.3 190.4C230.3 191.8 229.9 193.3 229.9 194.2C229.9 196.6 232.5 197.8 237.6 197.8C242.6 197.8 247.7 196.8 253.4 195.2C254.8 194.7 255.6 194.7 255.6 195C255.6 194.969 255.552 195.025 255.449 195.144C255.221 195.408 254.726 195.98 253.9 196.6ZM92.8 174.3C95.7 174.3 98.1 175.7 100.2 179.1C102.4 182.2 104 186.5 104.8 191.8C105 192.3 105 192.5 105 192.8L105.2 192.8C105.2 192.6 105.4 192.3 105.4 191.8C105.9 188.7 107.1 183.9 108.8 177.6C110.7 173.3 112.6 171.1 114.8 171.1C116 171.1 117.2 171.8 118.2 173.3C119.2 174.7 119.6 175.7 119.6 176.7C119.6 177.2 119.6 178.1 119.1 179.1C118.6 180.5 118.1 181.3 117.7 181.3C117.5 181.3 117 180.6 116 179.6C115.3 178.6 114.3 178.2 113.4 178.2C111.5 178.2 109.8 182.8 108.1 191.9C107.4 196 106.4 198.9 105.7 200.5C105 201.5 104.5 202.2 104 202.2C103.5 202.2 103.5 201.5 103.3 200.5C103.5 198.8 102.6 195.7 100.7 191.1C98.8 186.3 97.6 184.1 96.6 184.1C96.1 184.1 95.9 184.1 95.6 184.6C95.4 184.8 95.1 185.1 94.4 185.1C93.4 185.1 92.5 184.4 91 183.2C89.6 182 89.1 181 89.1 180.3C89.1 180.1 89.6 178.9 90.8 176.9C91.9 175 92.6 174.3 92.8 174.3ZM215.7 174.5C195.6 182 176.4 189.2 157.9 195.9C156.7 198.3 156 200.5 155.4 202.6C178 193.2 197.9 185.5 214.7 179.3C215.2 178.9 215.9 177.7 216.9 175.5C217.1 174.8 217.1 174.3 217.1 174.3C216.951 174.076 216.635 174.186 216.194 174.339C216.044 174.392 215.878 174.449 215.7 174.5Z" id="Group" fill="#595959" fill-rule="evenodd" stroke="none" clip-path="url(#clip_1)" />
  </g>
</svg>