<?xml version="1.0" encoding="utf-8"?>
<svg width="435.40015px" height="201.87128px" viewBox="0 0 435.40015 201.87128" version="1.1" xmlns:xlink="http://www.w3.org/1999/xlink" xmlns="http://www.w3.org/2000/svg">
  <defs>
    <path d="M435.4 0L435.4 0L435.4 201.871L0 201.871L0 0L435.4 0Z" id="path_1" />
    <clipPath id="clip_1">
      <use xlink:href="#path_1" clip-rule="evenodd" fill-rule="evenodd" />
    </clipPath>
  </defs>
  <g id="Surah_11_of_114_(modified)">
    <path d="M435.4 0L435.4 0L435.4 201.871L0 201.871L0 0L435.4 0Z" id="Surah_11_of_114_(modified)" fill="none" stroke="none" />
    <path d="M187.2 35.2712C187.2 31.8712 188.4 27.3712 190.8 21.5712C190.898 21.277 190.996 20.9944 191.09 20.7248C191.473 19.6196 191.78 18.7339 191.7 18.1712C191.7 16.7712 190.5 15.2712 188.1 13.8712C189.3 10.7712 189.8 7.87123 189.8 5.27122C189.8 2.47122 189.1 0.771225 187.4 0.271225C185.5 -0.528763 183.1 0.471237 180.2 2.87123C177.3 5.47124 175.9 8.37123 175.9 11.4712C175.9 14.0712 178 16.4712 182.6 18.8712C179.2 22.4712 174.2 26.3712 167.2 30.6712C161.2 33.9712 155.5 37.5712 149.7 40.9712C148.3 41.9712 147.8 42.4712 147.8 42.6712C147.8 42.8712 147.8 42.8712 148 42.8712C148.2 42.8712 149.2 42.6712 150.4 42.1712C158.1 39.2712 162.4 37.5712 163.4 37.3712C167 35.7712 171 33.3712 175.6 29.9712C179.4 27.0712 182.6 23.9712 185.2 20.3712C187.3 21.5712 188.3 22.4712 188.3 22.9712C188.3 23.1712 187.5 25.3712 186.1 29.6712C184.9 33.9712 184.2 37.3712 184.2 39.9712C184.2 45.2712 185.7 47.8712 188.8 47.8712C191.9 47.8712 194.1 44.2712 195.3 37.0712L195.3 36.3712C195.3 36.1712 195.3 36.1712 195.1 36.1712C194.8 36.3712 194.8 36.6712 194.6 36.8712C193.2 39.7712 191.7 41.4712 190.3 41.4712C188.2 41.4712 187.2 39.3712 187.2 35.2712ZM240.5 13.1712C240.5 15.7712 242.6 18.1712 247.2 20.5712C243.9 24.1712 238.8 28.0712 231.8 32.2713C225.8 35.5713 220.1 38.9713 214.3 42.5713C212.9 43.2713 212.4 44.0713 212.4 44.2713C212.4 44.2713 212.4 44.4713 212.6 44.4713C212.8 44.4713 213.8 44.2713 215 43.7713C222.7 40.9713 227 39.2713 228 38.7713C231.6 37.3713 235.6 34.6713 240.2 31.5713C244 28.6713 247.2 25.5713 249.8 21.9713C252 23.1712 253.4 24.3712 253.9 25.3712C256 22.5712 257 20.3712 257 19.1712C256.5 18.1712 255.1 16.9713 252.7 15.7713C253.9 12.3713 254.4 9.47127 254.4 6.87126C254.4 4.07126 253.7 2.37126 252 1.87126C250.1 1.17125 247.7 2.17125 244.8 4.77126C241.9 7.17125 240.5 10.0712 240.5 13.1712ZM185.7 8.37125C186 9.77126 186 11.2713 185.5 12.6712C181.9 10.9713 180 9.57124 179.9 8.27124C179.9 7.87125 180.3 7.37125 181.3 6.87125C182.3 6.37125 183 6.17125 183.5 6.17125C184.7 6.17125 185.5 6.97125 185.7 8.37125ZM250.3 10.0712C250.6 11.4713 250.6 12.9713 250.1 14.3712C246.5 12.6712 244.6 11.2712 244.5 9.97124C244.5 9.57124 244.9 9.07124 245.9 8.57124C246.9 8.07124 247.6 7.87125 248.1 7.87125C249.3 7.87125 250.1 8.67125 250.3 10.0712ZM291.8 27.2712C291.8 27.2712 291.6 27.5712 291.6 27.7712C289.9 30.6712 288.5 32.3712 286.9 32.3712C284.8 32.3712 283.8 30.1712 283.8 26.3712C283.8 23.2712 285 18.1712 287.4 10.7712C287.9 9.07124 288.1 8.07124 288.1 7.87125C287.8 7.87125 287.4 8.77126 286.4 10.4713C282.6 17.4713 280.9 24.3712 280.9 30.8712C280.9 36.1712 282.4 38.7712 285.5 38.7712C288.6 38.7712 290.8 35.1712 292 27.9712C292.2 27.7712 292.2 27.4712 292 27.2712C292 27.1806 292 27.131 291.981 27.1225C291.959 27.1124 291.909 27.1619 291.8 27.2712ZM130.5 28.9713C130.5 28.9713 130.3 29.2713 130.3 29.4713C128.7 32.3712 127.2 34.0712 125.6 34.0713C123.5 34.0713 122.5 31.8713 122.5 28.0713C122.5 24.9713 123.7 19.8712 126.1 12.4713C126.6 10.7713 126.8 9.77126 126.8 9.57126C126.5 9.57126 126.1 10.4713 125.1 12.1713C121.3 19.1713 119.6 26.0713 119.6 32.5713C119.6 37.8712 121.1 40.4713 124.2 40.4713C127.3 40.4713 129.5 36.8712 130.7 29.6712C130.9 29.4713 130.9 29.1712 130.7 28.9713C130.7 28.8806 130.7 28.831 130.681 28.8226C130.659 28.8124 130.609 28.8619 130.5 28.9713ZM61.7 28.9713C64.6 28.9713 67 30.3712 69.1 33.7713C71.3 36.8713 72.9 41.1712 73.7 46.4713C73.9 46.9713 73.9 47.1712 73.9 47.4713L74.1 47.4713C74.1 47.2713 74.3 46.9713 74.3 46.4713C74.8 43.3712 76 38.5713 77.7 32.2713C79.6 27.9713 81.5 25.7713 83.7 25.7713C84.9 25.7713 86.1 26.4713 87.1 27.9713C88.1 29.3712 88.5 30.3712 88.5 31.3712C88.5 31.8712 88.5 32.7712 88 33.7712C87.5 35.1712 87 35.9712 86.6 35.9712C86.4 35.9712 85.9 35.2712 84.9 34.2712C84.2 33.2712 83.2 32.8712 82.3 32.8712C80.4 32.8712 78.7 37.4713 77 46.5712C76.3 50.6712 75.3 53.5713 74.6 55.1712C73.9 56.1712 73.4 56.8712 72.9 56.8712C72.4 56.8712 72.4 56.1712 72.2 55.1712C72.4 53.4712 71.5 50.3712 69.6 45.7712C67.7 40.9712 66.5 38.7712 65.5 38.7712C65 38.7712 64.8 38.7712 64.5 39.2712C64.3 39.4712 64 39.7712 63.3 39.7712C62.3 39.7712 61.4 39.0712 59.9 37.8712C58.5 36.6712 58 35.6712 58 34.9713C58 34.7713 58.5 33.5713 59.7 31.5713C60.7 29.6712 61.5 28.9713 61.7 28.9713ZM273.4 58.2712C297.6 49.1712 322.8 40.0712 348.8 30.4712C349.002 30.4135 349.188 30.3474 349.349 30.2898C349.747 30.148 350 30.0579 350 30.2712C350.2 30.2712 350.2 30.7712 350 31.4712C349 33.6712 348.3 34.8712 347.8 35.2712C347.6 35.4712 335.3 40.0712 311.6 48.9712C287.4 57.8712 273.7 63.3712 271 65.0712C271.5 62.8712 272.2 60.6712 273.4 58.2712ZM404.2 59.4713C401.8 65.2712 400.6 69.7712 400.6 73.1713C400.6 77.2713 401.6 79.3713 403.7 79.3713C404.9 79.3713 406.3 77.6713 408 74.7713C408.2 74.5713 408.2 74.2713 408.5 74.0713C408.5 74.0713 408.7 74.0713 408.7 74.2713L408.7 74.9713C407.3 82.1713 405.1 85.7713 402.2 85.7713C399.1 85.7713 397.6 83.1713 397.6 77.8713C397.6 75.2713 398.1 71.8713 399.5 67.5713C400.9 63.2713 401.7 61.0713 401.7 60.8713C401.7 60.3713 400.7 59.4713 398.6 58.2713C394.8 63.2713 389.5 68.0713 382.8 72.1713C378.2 74.7713 373.7 77.1713 368.9 79.1713C360 82.7713 354.7 84.6713 353.5 85.3713C352.3 85.8713 351.6 86.0713 351.1 86.0713C350.9 86.0713 350.9 85.8713 350.9 85.8713C350.9 85.3713 351.4 84.8713 352.8 83.9713C360.5 79.6713 367.9 75.3713 375.6 70.9713C385.7 65.1713 392.6 60.3713 396 56.7713C391.4 54.3713 389.3 51.9713 389.3 49.3713C389.3 46.2713 390.7 43.3713 393.6 40.7713C396.5 38.3713 398.9 37.3713 400.8 38.1713C402.2 38.6713 403.2 40.3713 403.2 43.1713C403.2 45.7713 402.7 48.6713 401.5 51.7713C403.9 53.1713 404.9 54.6713 404.9 56.0713C404.9 56.8712 404.7 58.0713 404.2 59.4713ZM398.9 50.5712C399.4 49.1712 399.4 47.6712 399.1 46.2712C398.9 44.8712 398.1 44.0712 396.9 44.0712C396.4 44.0712 395.7 44.2712 394.7 44.7712C393.7 45.2712 393.3 45.7712 393.3 46.1712C393.4 47.4713 395.3 48.8712 398.9 50.5712ZM243.1 49.1713L239.3 57.0713C238.3 56.0713 236.2 54.4713 233.1 52.5713C230 50.3713 228.3 49.1713 227.8 49.1713C227.5 49.1713 227 49.6713 226.8 50.1713L222.2 59.7713C222 60.2713 222 60.5713 222.2 60.7713C226.1 63.1713 229.9 65.7713 233.5 68.6713C234 68.9713 234.5 68.6713 234.7 67.9713C236.2 65.7713 237.4 63.1713 238.8 60.2713C242.9 62.8713 246.5 65.2713 249.6 67.6713C250 67.8713 250.5 67.8713 251 67.1713C254.1 61.8712 255.8 58.2713 255.8 56.5713C255.8 56.0713 253.9 54.6713 250.3 52.2713C246.5 49.6713 244.6 48.4713 244.1 48.4713C243.6 48.4713 243.3 48.6713 243.1 49.1713ZM15.1 162.171C5 162.171 0 155.471 0 141.971C0 131.671 2.2 121.371 6.2 110.771C6.94571 108.981 7.5246 107.859 7.97813 107.404C5.43449 106.965 4.2 104.379 4.2 99.5713C4.2 93.0713 5.89999 86.1713 9.7 79.1713C10.7 77.4713 11.1 76.5713 11.4 76.5713C11.4 76.7713 11.2 77.7713 10.7 79.4713C8.3 86.8712 7.09999 91.9713 7.09999 95.0713C7.09999 98.8712 8.09999 101.071 10.2 101.071C11.8 100.971 13.2 99.2712 14.9 96.4713C14.9 96.2712 15.1 95.9713 15.1 95.9713C15.2093 95.8619 15.2589 95.8124 15.2814 95.8225C15.3 95.831 15.3 95.8806 15.3 95.9713C15.5 96.1713 15.5 96.4713 15.3 96.6713C14.1 103.871 11.9 107.471 8.8 107.471C8.73004 107.471 8.6609 107.47 8.59257 107.467C8.59999 107.571 8.59999 107.704 8.59999 107.871C8.59999 108.571 8.39999 109.771 7.89999 111.271C5 121.871 3.59999 129.771 3.59999 135.271C3.59999 139.371 4.79999 142.471 7.2 144.671C9.39999 146.571 11.8 147.571 14.9 147.571C21.4 147.571 33.9 141.571 52.3 129.571C69.1 118.771 78.7 112.071 81.3 109.371C82.3 108.371 83 107.471 83 106.471C83 105.271 81.6 103.571 79.2 101.671C76.1 99.2712 71 96.3712 63.8 93.0712C56.4 89.6712 50.6 86.5712 46.8 83.9712C40.3 79.6712 34.6 73.8712 29.5 67.1712C28.8 66.4712 27.6 65.2712 25.7 64.0712C24.5 63.5712 23.8 62.1712 23.8 59.7712L23.8 50.8712C23.8 50.1712 24 49.6712 24.3 49.1712C24.5 48.9713 25.3 49.1712 26.5 49.6712L41.6 57.0713C42.3 57.2713 42.8 57.5713 43.3 57.7713C45.7 59.1713 46.7 60.1713 46.2 60.8713C45.2 61.8713 42.6 62.0713 37.6 61.8713C43.4 67.3713 50.6 72.1713 59.7 76.4713C70.7 81.7713 77.2 84.8713 79.4 86.5713C84.2 89.9713 86.6 95.6713 86.6 103.871C86.6 105.571 86.4 107.271 86.1 108.871C85.4 113.471 84.4 116.571 83.5 118.471C82.8 119.871 81.3 121.571 78.9 123.771C75.0671 127.188 67.9709 132.409 57.3801 139.609C57.3227 140.325 57.1446 141.348 56.9 142.571C53.8 153.171 52.3 161.071 52.3 166.571C52.3 171.571 53.5 175.971 55.9 179.571C59.7 184.571 65.7 187.271 74.1 187.271C81.3 187.271 89.9 184.171 100.3 177.871C108.5 172.871 116.4 166.871 124.1 159.671C131.1 152.871 134.7 148.471 134.7 146.371C134.7 144.971 134.2 143.271 133.7 141.571C130.8 142.571 126.5 143.271 121.2 143.271C109.7 143.271 103.9 139.171 103.9 131.271C103.9 125.271 105.6 119.971 109.4 115.171C113 111.071 116.8 108.971 120.9 108.971C124 108.971 127.1 110.871 130.7 114.471C133.8 118.071 136.7 122.171 139.1 127.171C139.3 127.171 139.8 127.171 140.8 126.671L140.8 126.871C143.7 125.471 149 123.271 156.4 120.371C154.5 116.771 153.8 113.371 153.8 109.771C153.8 102.771 155.2 96.0712 158.4 90.3712C160.6 86.0713 163.2 82.4713 166.6 79.5713C166.1 76.9713 166.4 73.3712 167.3 68.7713C167.5 67.3713 167.8 66.8713 168.3 66.8713C168.8 66.8713 169.7 67.0713 170.9 67.8713L184.8 74.8713C186.5 76.0713 187.2 76.7713 187.2 77.4713C187.2 78.4713 186 78.6713 183.8 78.6713C182.6 78.6713 181.4 78.6713 180.2 78.4713C185 82.7713 189.3 85.8713 193.2 88.0713C198.5 90.9713 201.8 93.3713 203.5 94.7713C207.6 98.8712 209.8 103.871 209.8 109.871C209.8 115.671 208.6 120.171 206.7 123.771C205.3 126.171 203.6 127.871 202.1 128.771C199.7 129.971 196.3 130.671 191.5 130.671C184.1 130.671 176.1 129.471 168.2 127.071C159.6 131.671 150.4 135.971 140.8 140.071L140.8 139.871L140.3 140.371C140.3 143.271 139.6 146.571 138.1 150.971C136.4 156.471 133.8 161.071 130.7 164.671C123.5 173.271 115.6 180.771 106.9 187.271C93.9 196.871 82.9 201.871 73.3 201.871C65.1 201.871 58.9 198.771 54.6 192.771C50.8 187.771 48.8 180.971 48.8 173.071C48.8 162.971 51 152.671 55 141.871C55.1793 141.513 55.3429 141.185 55.4933 140.888C53.933 141.942 52.3021 143.037 50.6 144.171C32.4 156.171 20.7 162.171 15.1 162.171ZM109.7 61.3712C112.6 61.3712 115 62.7712 117.1 66.1712C119.3 69.2712 120.9 73.5712 121.7 78.8712C121.9 79.3712 121.9 79.5713 121.9 79.8712L122.1 79.8712C122.1 79.6712 122.3 79.3712 122.3 78.8712C122.8 75.7712 124 70.9713 125.7 64.6712C127.6 60.3712 129.5 58.1712 131.7 58.1712C132.9 58.1712 134.1 58.8712 135.1 60.3712C136.1 61.7712 136.5 62.7712 136.5 63.7712C136.5 64.2712 136.5 65.1712 136 66.1712C135.5 67.5712 135 68.3712 134.6 68.3712C134.4 68.3712 133.9 67.6712 132.9 66.6712C132.2 65.6712 131.2 65.2712 130.3 65.2712C128.4 65.2712 126.7 69.8712 125 78.9713C124.3 83.0713 123.3 85.9713 122.6 87.5713C121.9 88.5713 121.4 89.2713 120.9 89.2713C120.4 89.2713 120.4 88.5713 120.2 87.5713C120.4 85.8712 119.5 82.7713 117.6 78.1713C115.7 73.3713 114.5 71.1713 113.5 71.1713C113 71.1713 112.8 71.1713 112.5 71.6713C112.3 71.8713 112 72.1713 111.3 72.1713C110.3 72.1713 109.4 71.4713 107.9 70.2713C106.5 69.0713 106 68.0713 106 67.3713C106 67.1713 106.5 65.9713 107.7 63.9713C108.7 62.0713 109.5 61.3712 109.7 61.3712ZM321.6 66.1712C319.5 62.7712 317.1 61.3712 314.2 61.3712C313.9 61.3712 313.2 62.0713 312.2 63.9713C311 65.9713 310.5 67.1713 310.5 67.3713C310.5 68.0713 311 69.0713 312.4 70.2713C313.9 71.4713 314.8 72.1713 315.8 72.1713C316.5 72.1713 316.8 71.8713 317 71.6713C317.3 71.1713 317.5 71.1713 318 71.1713C319 71.1713 320.2 73.3713 322.1 78.1713C324 82.7713 324.9 85.8712 324.7 87.5713C324.9 88.5713 324.9 89.2713 325.4 89.2713C325.9 89.2713 326.4 88.5713 327.1 87.5713C327.8 85.9713 328.8 83.0713 329.5 78.9713C331.2 69.8712 332.9 65.2712 334.8 65.2712C335.7 65.2712 336.7 65.6712 337.4 66.6712C338.4 67.6712 338.9 68.3712 339.1 68.3712C339.5 68.3712 340 67.5712 340.5 66.1712C341 65.1712 341 64.2712 341 63.7712C341 62.7712 340.6 61.7712 339.6 60.3712C338.6 58.8712 337.4 58.1712 336.2 58.1712C334 58.1712 332.1 60.3712 330.2 64.6712C328.5 70.9713 327.3 75.7712 326.8 78.8712C326.8 79.3712 326.6 79.6712 326.6 79.8712L326.4 79.8712C326.4 79.5713 326.4 79.3712 326.2 78.8712C325.4 73.5712 323.8 69.2712 321.6 66.1712ZM262.1 75.0713C262.1 78.8712 260.2 84.1713 256.3 90.6713C253.9 94.7713 250.3 100.271 245.5 107.471C250.3 112.971 253.7 118.071 255.3 122.371C256.3 125.471 257 129.571 257 134.171C257 136.071 256.5 138.471 255.6 141.571C254.9 144.471 253.9 146.571 253 148.071C251.1 150.971 248 153.871 243.2 156.671C238.2 160.071 233.8 161.671 230.2 161.671C224.4 161.671 221.6 157.371 221.6 148.671C221.6 142.871 222.6 137.171 224.5 131.871C226.4 127.271 229.5 121.271 234.6 113.371C230.3 109.271 225.7 103.571 220.7 96.3712C220.2 95.6712 219 94.4713 217.1 92.5713C216.1 91.5713 215.7 90.3712 215.7 88.9713C215.7 86.7712 215.9 84.3712 216.4 81.5713C217.1 78.6713 217.6 77.4713 217.8 77.4713C218.5 77.4713 220.7 78.6713 224.8 81.2712C228.6 83.8712 231.8 85.8712 233.7 87.4713C234.9 88.1713 235.4 88.8712 235.4 88.8712L235.4 89.0713C235.4 89.2713 234.7 89.5713 233 89.5713C229.9 89.5713 228.2 89.7713 228.2 90.0713C228.2 90.2713 228.7 90.7713 229.6 91.9713C233.4 96.7712 237.3 100.371 241.4 103.271C242.4 101.871 245.7 97.0712 251 88.8712C255.6 81.8712 258.2 77.0713 259.4 74.2712C260.6 71.3712 261.3 70.1712 261.8 70.1712C261.9 70.2712 262.1 71.6712 262.1 75.0713ZM279.6 103.471C280.6 104.671 281.3 106.271 281.8 108.471C283 112.471 285.4 118.271 288.7 125.371C291.6 131.671 293 134.971 293 135.471C293 137.471 290.1 140.571 284.6 144.871C279.699 148.514 273.307 152.683 265.423 157.32C266.152 152.835 267.437 147.441 269.3 141.071C269.6 139.571 269.8 138.371 269.8 137.671C269.8 137.171 269.8 136.971 269.6 136.971C269.1 136.971 268.6 137.971 267.4 140.371C265.023 146.79 263.281 153.031 262.26 159.16C259.121 160.965 255.768 162.836 252.2 164.771C242.8 169.871 231.1 175.371 216.9 181.371C196.5 189.971 185.4 194.771 183.5 195.771C178.2 198.171 175.6 199.671 175.6 199.871C175.6 200.071 175.6 200.071 176.1 200.071C177.1 200.071 179.5 199.771 183.3 199.071C186.9 198.571 196 196.471 210.4 193.071C224.1 189.771 231.3 188.071 231.8 188.071C234.4 188.071 242.8 183.971 257.2 175.571C258.578 174.799 259.921 174.032 261.231 173.269C261.499 180.446 263.475 186.633 267 191.271C271.3 197.271 277.5 200.371 285.7 200.371C295.3 200.371 306.3 195.371 319.3 185.771C328 179.271 335.9 171.771 343.1 163.171C346.2 159.571 348.8 154.971 350.5 149.471C352 145.071 352.7 141.771 352.7 138.871L353.2 138.371L353.2 125.171C352.2 125.671 351.7 125.671 351.5 125.671C349.1 120.671 346.2 116.571 343.1 112.971C339.5 109.371 336.4 107.471 333.3 107.471C329.2 107.471 325.4 109.571 321.8 113.671C318 118.471 316.3 123.771 316.3 129.771C316.3 137.671 322.1 141.771 333.6 141.771C338.9 141.771 343.2 141.071 346.1 140.071C346.6 141.771 347.1 143.471 347.1 144.871C347.1 147.071 343.5 151.371 336.5 158.171C328.8 165.371 320.9 171.371 312.7 176.371C302.3 182.671 293.7 185.771 286.5 185.771C278.1 185.771 272.1 183.071 268.3 178.071C266.874 175.933 265.872 173.512 265.293 170.85C277.667 163.317 286.698 156.219 292.5 149.671C294.5 147.471 295.9 144.371 297.1 140.271C298 136.671 298.5 133.771 298.5 131.371C298.5 126.271 297 120.771 294.4 114.071C292.7 110.271 290.8 106.171 289.1 102.071C292 102.771 293.9 103.271 294.6 103.271C295.1 103.271 295.3 102.971 295.3 102.771C295.3 102.271 294.6 101.371 292.9 99.6712C288.9 95.5713 285.3 91.6712 281.9 87.8712C281.4 87.3712 281.1 87.1712 280.9 87.1712C280.4 87.1712 280.1 87.6712 279.9 88.8712C279.4 90.0713 279.2 92.2712 278.7 95.3712C278.2 98.6712 278.2 100.371 278.2 100.871C278.4 101.271 278.9 102.071 279.6 103.471ZM176.1 92.1713C178.3 95.7712 179.5 98.8712 179.5 101.971C179.5 106.071 176.4 109.871 170.7 113.371C167.5 112.871 164.9 111.871 162.5 110.471C159.3 108.571 157.9 106.371 157.9 103.771C157.9 100.571 159.3 96.9713 162.7 93.1713C166.1 89.2713 168.7 87.3713 171.1 87.3713C172.5 87.3713 174.2 89.0713 176.1 92.1713ZM195.1 103.671C199.7 106.471 202.5 108.471 203.5 109.871C205 112.071 205.5 113.471 205.4 114.771C205.4 116.671 202.2 117.871 196 117.871C191.5 117.871 186.2 117.171 180.2 115.471C183.1 107.971 184.5 101.771 184.5 96.4712C186.2 98.3712 189.8 100.771 195.1 103.671ZM45.6 101.671C45.6 104.271 44.4 107.171 42.5 110.271C40.3 113.371 37.7 116.271 34.3 118.671C32.9 119.671 32.1 120.071 31.9 120.071L31.9 119.871C31.9 119.671 32.4 119.171 33.3 117.971C38.8 111.971 41.7 108.171 41.7 105.971C41.7 104.271 40.7 103.371 39.1 103.371C38.1 103.371 37.2 103.571 36.5 104.071C35.8 104.271 35.5 104.571 35.3 104.571C35.3 104.571 35.1 104.571 35.1 104.371C35.1 104.371 35.1 103.871 35.3 102.971C36.3 98.8712 38.2 96.9712 41.5 96.9712C44.2 96.8712 45.6 98.5713 45.6 101.671ZM379.5 110.171C378.8 110.171 377.8 110.571 376.6 111.571C372.7 114.871 368.9 117.771 365 119.771C363.8 120.571 359.7 122.471 353.5 125.571L353.5 138.771C361.9 134.871 368.4 130.871 372.2 126.271C372.2 137.271 377 143.071 387.1 143.071C395.5 143.071 402.4 138.271 407.7 128.671C410.9 134.471 414.5 137.571 418.3 137.571C424.1 137.571 428.4 134.971 431.3 129.671C434 125.271 435.4 120.271 435.4 114.271C435.4 110.371 434.2 107.071 432.3 104.171C431.6 103.171 431.1 102.971 430.6 102.971C430.1 102.971 429.6 103.771 429.4 105.171C428 109.671 427 113.071 426.8 114.971C428.9 118.571 429.9 120.571 429.9 120.771C428.9 122.371 426.8 123.371 423.4 123.371C420.8 123.371 418.4 122.371 416.7 120.971C414.8 119.571 413.8 117.871 413.8 116.171C413.8 116.671 414.5 114.771 415.5 110.671C416 108.571 415.8 107.571 414.8 107.571C414.1 107.571 413.4 107.971 412.4 108.971C410 112.871 407.4 116.671 405 120.771C401.1 125.871 396.1 128.471 390.1 128.471C382.6 128.471 378.8 125.571 378.8 120.271C378.8 119.071 379 117.571 379.5 115.671C380 113.771 380.2 112.271 380.2 111.571C380.2 110.671 380 110.171 379.5 110.171ZM252.7 134.071C250.1 128.771 245.5 123.271 239.3 117.971C237.1 120.171 234.5 124.171 231.1 129.971C227.3 136.471 225.6 140.571 225.6 142.671C225.6 145.571 227.5 146.971 231.8 146.971C233.7 146.971 236.1 146.271 239.2 145.071C243.5 143.171 247.6 140.471 251 137.171C252.5 135.771 253 134.871 252.7 134.071ZM339.6 127.371C336 122.771 332.9 120.671 330 120.671C325.7 120.671 323.8 121.671 323.8 124.071C323.8 126.971 326.7 128.371 332.4 128.371C334.43 128.371 336.63 127.946 339 127.487C339.199 127.449 339.399 127.41 339.6 127.371ZM117.6 122.171C120.5 122.171 123.6 124.271 127.2 128.871C124.6 129.271 122.2 129.771 120 129.871C114.3 129.871 111.4 128.471 111.4 125.571C111.4 123.171 113.3 122.171 117.6 122.171ZM90.5 136.071C82.1 139.171 74 142.771 65.8 146.871C64.8 148.971 64.1 151.171 63.7 153.171C66.8 151.471 69.4 150.071 71.6 149.071C80.3 145.471 86.3 142.871 90.1 141.171C90.8 140.471 91.3 139.271 92 137.071C92.4001 136.371 92.4001 135.871 92.2 135.871C91.9971 135.668 91.7484 135.74 91.2988 135.87C91.084 135.931 90.8234 136.007 90.5 136.071ZM88.8 144.871C80.4 147.971 72.3 151.571 64.1 155.671C63.1 157.871 62.4 160.071 62 161.871C65.1 160.171 67.7 158.771 69.9 157.771C78.6 153.971 84.6 151.271 88.4 149.871C89.1 149.171 89.6 147.971 90.3 145.771C90.7 145.071 90.7 144.571 90.5 144.371C90.2 144.371 89.8 144.671 88.8 144.871ZM365.8 190.971C363.2 191.671 361.7 192.171 361.2 192.171L361.2 191.971C361.2 191.971 362.2 191.271 364.1 190.071C366 188.871 368.9 186.971 373 183.871C374.9 181.971 377.8 178.871 381.4 174.471C383.8 171.571 386.4 168.971 389.3 167.071C392.9 164.471 396.3 163.271 399.9 163.271C400.6 163.271 401.8 163.471 403.3 163.971C404.5 164.471 405.7 164.671 406.7 164.671C408.6 164.671 410.1 163.971 411.3 162.471C412 161.071 413 159.871 413.9 158.371C414.4 157.371 415.1 156.971 415.6 156.971C415.8 156.971 415.8 157.171 415.8 157.671C415.8 158.171 415.6 159.371 415.1 160.771C414.6 161.471 416.5 161.771 420.1 161.771C420.6 161.771 420.8 161.771 420.8 161.571C420.8 161.571 420.6 160.571 420.1 158.971C419.9 158.471 420.1 157.771 420.8 156.771L420.88 156.636C421.822 155.034 422.208 154.377 422.5 154.571C423.5 155.271 423.9 156.771 423.9 158.371C423.9 160.071 423.4 161.771 422.7 163.671C422 165.871 421.3 167.071 420.8 167.471C419.1 168.471 416.5 168.171 412.9 166.471C410 169.371 407.1 171.071 404.3 171.071C403.6 171.071 402.4 170.871 401.2 170.371C400 169.871 399 169.671 398.3 169.671C393.5 169.671 388.5 171.871 383.4 176.671L372.6 187.471C370.3 189.071 368.2 190.271 365.8 190.971ZM165.6 157.171C164.4 158.371 164.1 160.571 165.1 163.671C163.7 165.771 163.2 168.171 163.2 170.671C163.2 173.771 165.4 175.871 169.7 176.871C166.1 180.171 161.1 183.771 154.6 187.871C148.8 191.271 143.1 194.571 137.3 197.971C136.1 198.671 135.4 199.471 135.4 199.671C135.4 199.671 135.4 199.871 135.6 199.871C136.1 199.871 136.8 199.671 138 199.171C146 196.371 150.3 194.671 151 194.171C154.8 192.571 158.9 190.171 163.2 186.771C167 184.071 170.2 180.971 172.8 177.371C177.8 177.871 180.5 178.071 180.7 178.071C181.7 178.071 182.6 177.071 183.6 175.171C184.8 173.071 185.3 171.371 185.3 169.671C185.3 169.171 185.1 168.671 185.1 168.471C183.2 163.971 179.4 160.071 173.6 156.971C171.9 155.971 170.4 155.771 169 155.771C167.8 155.771 166.6 156.171 165.6 157.171ZM172.1 166.671C172.6 168.371 172.6 169.871 172.1 171.271C167.5 170.871 165.4 169.871 165.4 168.271C165.4 167.871 166.1 166.871 167.1 165.671C168.3 164.771 169.2 164.271 169.7 164.271C170.9 164.271 171.6 164.971 172.1 166.671ZM175.2 165.271C178.3 166.471 180.5 168.371 181.7 171.271C182.2 172.071 182.2 172.471 181.9 172.771L181.4 172.771C177.1 172.271 174.7 171.771 174.2 171.771C175 170.071 175.2 167.871 175.2 165.271Z" id="Group" fill="#595959" fill-rule="evenodd" stroke="none" clip-path="url(#clip_1)" />
  </g>
</svg>