<?xml version="1.0" encoding="utf-8"?>
<svg width="562.3002px" height="202.22696px" viewBox="0 0 562.3002 202.22696" version="1.1" xmlns:xlink="http://www.w3.org/1999/xlink" xmlns="http://www.w3.org/2000/svg">
  <defs>
    <path d="M562.3 0L562.3 0L562.3 202.227L0 202.227L0 0L562.3 0Z" id="path_1" />
    <clipPath id="clip_1">
      <use xlink:href="#path_1" clip-rule="evenodd" fill-rule="evenodd" />
    </clipPath>
  </defs>
  <g id="Surah_37_of_114_(modified)">
    <path d="M562.3 0L562.3 0L562.3 202.227L0 202.227L0 0L562.3 0Z" id="Surah_37_of_114_(modified)" fill="none" stroke="none" />
    <path d="M317.1 28.1269C317.1 23.3269 316.4 19.5269 314.9 16.3269C314.9 14.6269 316.1 10.5269 319 4.3269C319.2 3.62691 319.5 3.12691 319.7 3.12691C320.2 3.12691 320.4 3.62691 320.9 4.3269C321.6 6.0269 323.3 10.5269 326.2 18.0269C329.3 25.9269 331 30.7269 331.5 32.6269C332 33.8269 332 35.0269 332 35.5269C332 37.7269 330.1 36.5269 325.8 31.7269C325.3 31.0269 325.1 31.5269 325.1 32.7269C325.1 33.2269 326.3 48.1269 328.5 77.8269C330.7 107.327 331.6 123.927 331.6 127.727C331.6 139.027 329.9 149.127 326.6 157.727C325.6 159.427 325.2 160.627 324.7 161.527L324.7 161.527C324 162.727 323.7 162.727 323.5 162.027C323.3 161.027 323.5 159.127 323.7 156.527C324.2 152.427 324.4 147.927 324.4 142.827C324.4 138.027 323.2 118.827 320.8 85.0269C318.3 51.2269 317.1 32.2269 317.1 28.1269L317.1 28.1269L317.1 28.1269L317.1 28.1269L317.1 28.1269ZM295.2 27.9269C295.2 23.3269 294.2 19.5269 292.8 16.4269C292.8 14.7269 294.2 10.6269 296.9 4.22691C297.1 3.52692 297.6 3.22691 297.9 3.22691C298.2 3.22691 298.4 3.42691 298.9 4.22691C299.6 6.12691 301.5 10.7269 304.4 18.1269C307.3 25.8269 309 30.8269 309.4 32.5269C309.9 33.9269 310.1 34.9269 310.1 35.6269C310.1 37.8269 307.9 36.6269 303.9 31.8269C303.7 31.1269 303.4 31.3269 303.4 32.5269C303.4 32.7269 304.4 48.8269 306.8 80.5269C309 112.227 310.2 130.427 310.2 135.527C310.2 143.427 308.8 151.127 305.9 158.527C302.1 168.827 296.1 175.827 288.4 179.127L288.4 165.927C298 161.827 302.8 155.627 302.8 147.227C302.8 143.127 301.4 123.427 299 88.4269C296.4 53.1269 295.2 33.2269 295.2 27.9269L295.2 27.9269L295.2 27.9269L295.2 27.9269L295.2 27.9269ZM279.4 155.127C279.4 154.927 279.4 154.627 279.4 154.627C279.4 152.427 277 149.327 272 145.527C266.2 140.927 260.5 138.827 255 138.827C243 138.827 230.5 151.027 217.6 176.027C220.7 177.227 224.8 177.927 230.1 177.927C239.5 177.927 249.5 175.027 260.6 169.327C270.3 164.527 276.5 159.727 279.4 155.127L279.4 155.127L279.4 155.127L279.4 155.127L279.4 155.127ZM211.7 188.527C209.8 194.327 208.1 197.127 207.1 197.127C206.9 197.127 206.6 196.627 206.6 195.927C206.6 194.027 207.3 191.127 208.5 187.327C202.7 183.727 199.9 178.227 199.9 170.527C195.8 174.627 191.3 178.227 186.2 181.327C180 185.127 174.4 187.327 169.6 187.327L169.6 172.727C179.9 172.727 191.2 167.727 203.2 158.127C203.9 157.627 204.4 157.627 204.9 157.927C205.1 158.127 205.4 158.927 204.9 159.827C204.4 161.527 204.2 162.927 204.2 164.127C204.2 167.927 207.1 171.527 213.1 174.427C221.3 159.027 227.5 148.527 231.6 143.027C240.7 131.227 249.4 125.227 257.8 125.227C265.5 125.227 272.2 128.127 278 133.627C282.8 138.227 285 142.527 285 146.327C285 151.127 284.3 155.227 282.6 158.527C280.7 162.627 277.3 167.127 272.5 171.727C275.9 170.727 281.1 168.827 288.6 165.727L288.6 178.927C268.9 187.327 248.8 191.627 228.4 191.627C222.7 191.627 217.2 190.427 211.7 188.527L211.7 188.527L211.7 188.527L211.7 188.527L211.7 188.527ZM154.8 157.527C156 164.227 158.4 168.827 161.5 170.927C163.4 171.927 166.1 172.627 169.7 172.627L169.7 187.227C164.4 187.227 160.3 186.027 157.5 183.827C153.2 180.727 150.5 175.227 149.1 166.827C148.1 161.527 147.2 143.327 146 111.627C145 77.8269 144.1 57.8269 143.6 51.6269C142.4 41.8269 140.5 32.2269 137.8 23.3269C137.8 20.9269 138.8 17.3269 140.7 12.5269C141.2 11.3269 141.4 10.8269 141.9 10.8269C142.1 10.8269 142.6 11.3269 143.1 12.2269C146.2 18.2269 148.4 28.5269 150.1 43.2269C151.1 52.3269 152 73.2269 153 106.627C153.9 138.127 154.6 155.127 154.8 157.527L154.8 157.527L154.8 157.527L154.8 157.527L154.8 157.527ZM212.4 101.827C208.8 96.5269 204.7 93.9269 200.4 93.9269C197.3 93.9269 195.6 94.9269 195.6 96.8269C195.6 99.2269 197.5 100.627 201.6 101.127C204 101.127 207.4 101.327 212.4 101.827L212.4 101.827L212.4 101.827L212.4 101.827L212.4 101.827ZM207.9 115.027L198.3 115.027C194.7 115.027 191.8 114.027 189.7 111.627C187.5 109.227 186.6 106.327 186.6 102.527C186.6 97.5269 188.3 92.4269 191.9 87.4269C195.3 82.4269 198.9 79.7269 202.5 79.7269C208.7 79.7269 214.3 83.1269 219.5 90.0269C225 97.2269 227.9 106.127 227.9 116.427C227.9 126.727 225 134.227 219.5 138.527C216.1 141.427 208.7 144.527 197.2 148.627C182.8 153.627 169.6 156.027 158.1 156.027C144.4 156.027 135.1 155.027 129.5 152.927L129.5 138.327C134.1 140.527 143.7 141.427 158.5 141.427C178.9 141.427 200.3 136.127 223.3 125.127C223.8 124.927 224.3 124.427 224.3 123.927C224.3 122.227 222.6 120.327 219.7 118.427C216.3 116.227 212.2 115.027 207.9 115.027L207.9 115.027L207.9 115.027L207.9 115.027L207.9 115.027ZM117.4 129.727C121 133.327 125.1 136.227 129.4 138.327L129.4 152.927C123.6 150.527 119.3 148.127 116.2 145.927C111.9 142.527 108.5 138.527 106.1 133.227C103.5 127.427 101.5 112.627 100.6 88.6269C100.4 78.8269 99.9 67.0269 99.2 53.6269C98 43.0269 96.3 34.4269 93.7 27.4269C93.7 25.2269 94.7 21.4269 97.1 15.9269C97.6 14.7269 98.1 14.2269 98.3 14.2269C98.5 14.2269 99 14.7269 99.5 15.6269C102.4 21.1269 104.5 31.0269 106 45.1269C106.5 49.2269 107 55.9269 107.2 65.3269C107.4 77.8269 107.7 85.2269 107.9 87.4269C108.7 110.527 112.1 124.427 117.4 129.727L117.4 129.727L117.4 129.727L117.4 129.727L117.4 129.727ZM46.1 142.127C61.9 142.127 79.7 138.727 100.1 132.527C116.4 127.227 127 122.927 131.8 119.327C132.3 119.127 132.3 118.627 132.3 117.927C132.3 116.027 129.4 110.927 123.2 103.327C122 101.927 121.5 100.227 122 98.5269C122.7 95.1269 123.7 92.3269 124.9 89.9269C125.6 88.2269 126.3 87.3269 126.8 87.3269C127 87.3269 128 88.0269 129.2 89.5269C130.9 91.2269 132.6 93.8269 134.2 97.7269C136.8 102.327 138 106.327 138 109.727C138 121.027 134.4 129.427 127 134.427C122.2 138.027 111.4 142.327 94.8 147.427C73.9 153.927 55.9 157.027 40.1 157.027C24.7 157.027 13.9 152.927 6.99999 144.827C2.19999 139.327 -7.62939e-06 132.127 -7.62939e-06 123.427C-7.62939e-06 114.327 2.19999 105.927 6.49999 98.0269C7.89999 95.627 8.89999 94.227 9.39999 94.227C9.39999 94.227 9.59999 94.427 9.59999 94.927C9.59999 95.627 9.09999 97.127 8.39999 99.227C7.39999 102.127 6.2 104.727 5.3 107.627C4.1 111.227 3.6 115.027 3.6 119.127C3.6 124.427 6 128.927 11.3 133.027C18.7 139.027 30.3 142.127 46.1 142.127L46.1 142.127L46.1 142.127L46.1 142.127L46.1 142.127ZM190.3 63.7269C190.1 63.5269 190.1 63.2269 190.3 62.7269L194.9 53.1269C195.1 52.6269 195.6 52.4269 195.9 52.4269C196.4 52.4269 198.5 53.6269 202.1 56.0269C205.9 58.6269 207.9 60.1269 207.9 60.6269C207.9 62.3269 206.2 65.6269 202.9 70.9269C202.4 71.6269 202.2 71.9269 201.7 71.6269C198 68.7269 194.2 66.1269 190.3 63.7269L190.3 63.7269L190.3 63.7269L190.3 63.7269L190.3 63.7269ZM66.3 69.2269L70.1 61.3269C70.3 60.8269 70.6 60.6269 71.1 60.6269C71.6 60.6269 73.5 61.8269 77.3 64.4269C80.9 66.8269 82.8 68.2269 82.8 68.7269C82.8 70.4269 81.1 74.0269 78 79.3269C77.5 80.0269 77 80.0269 76.6 79.8269C73.5 77.4269 69.9 75.0269 65.8 72.4269C64.4 75.3269 63.2 77.9269 61.7 80.1269C61.5 80.8269 61 81.1269 60.5 80.8269C56.9 77.9269 53.1 75.3269 49.2 72.9269C49 72.7269 49 72.4269 49.2 71.9269L53.8 62.3269C54 61.8269 54.5 61.3269 54.8 61.3269C55.3 61.3269 57 62.5269 60.1 64.7269C63.1 66.6269 65.3 68.2269 66.3 69.2269L66.3 69.2269L66.3 69.2269L66.3 69.2269L66.3 69.2269ZM16.6 83.8269C16.6 83.6269 16.8 83.3269 16.8 83.3269C17 83.1269 17 83.1269 17 83.3269C17.2 83.5269 17.2 83.8269 17 84.0269C15.8 91.2269 13.6 94.8269 10.5 94.8269C7.4 94.8269 5.9 92.2269 5.9 86.9269C5.9 80.4269 7.6 73.5269 11.4 66.5269C12.4 64.8269 12.8 63.9269 13.1 63.9269L13.1 63.9269C13.1 64.1269 12.9 65.1269 12.4 66.8269C10 74.2269 8.8 79.3269 8.8 82.4269C8.8 86.2269 9.8 88.4269 11.9 88.4269C13.5 88.4269 14.9 86.7269 16.6 83.8269L16.6 83.8269L16.6 83.8269L16.6 83.8269L16.6 83.8269ZM272.7 99.2269C272.7 101.127 272.2 103.327 271.3 105.227C270.1 107.827 268.7 109.327 267 109.327C264.1 109.327 262.2 107.427 261 103.527C259.6 108.327 257.2 110.927 253.6 110.927C252.4 110.927 251.2 110.227 250.2 108.727C249 107.327 248.5 105.127 248.5 102.727L248.5 96.5269C248.5 96.0269 248 95.8269 247.5 95.5269C246.8 95.3269 246.5 94.8269 246.5 94.1269C246.5 92.7269 247 91.5269 247.9 90.3269C248.9 89.1269 249.6 88.6269 250.1 88.6269C250.8 88.6269 251.3 89.8269 251.3 92.4269C251.3 93.8269 251.1 95.0269 251.1 96.0269C250.9 97.0269 250.9 97.7269 250.9 98.4269C250.9 99.8269 251.1 101.327 251.6 102.527C252.3 103.927 253.3 104.927 254.2 104.927C255.6 104.927 256.8 104.227 258 103.027C259.2 101.827 259.9 100.427 259.9 98.7269C259.9 97.7269 259.4 96.3269 258.9 93.9269C258.2 91.7269 257.9 90.3269 257.9 89.8269C257.9 89.3269 258.1 88.6269 258.6 87.4269C259.1 86.4269 259.6 86.0269 259.8 86.0269C260.3 86.0269 260.8 87.4269 261.5 90.3269C262.2 93.4269 262.7 95.6269 262.7 97.0269C262.7 101.127 264.1 103.227 267.3 103.227C268.7 103.227 269.7 102.527 269.9 101.027C267.3 96.2269 265.8 92.6269 265.8 90.0269C265.8 88.6269 266 87.4269 267 86.2269C267.5 85.5269 267.7 85.0269 268 85.0269C268.2 85.0269 268.5 85.5269 268.5 86.4269C268.7 87.6269 269 88.8269 269.2 89.8269C269.2 89.8269 269.9 91.5269 271.1 94.8269C272.2 96.8269 272.7 98.2269 272.7 99.2269L272.7 99.2269L272.7 99.2269L272.7 99.2269L272.7 99.2269ZM161.3 21.7269C179.8 15.0269 199 7.82692 219.1 0.32692C219.8 0.126923 220.3 -0.17308 220.5 0.126923C220.5 0.126923 220.5 0.626923 220.3 1.32692C219.3 3.52692 218.6 4.72691 218.1 5.12692C201.3 11.3269 181.4 19.0269 158.8 28.4269C159.4 26.2269 160.1 24.1269 161.3 21.7269L161.3 21.7269L161.3 21.7269L161.3 21.7269L161.3 21.7269ZM207.9 34.6269C207.9 36.5269 207.4 38.7269 206.5 40.6269C205.3 43.2269 203.9 44.7269 202.2 44.7269C199.3 44.7269 197.4 42.8269 196.2 38.9269C194.8 43.7269 192.4 46.3269 188.8 46.3269C187.6 46.3269 186.4 45.6269 185.4 44.1269C184.2 42.7269 183.7 40.5269 183.7 38.1269L183.7 31.9269C183.7 31.4269 183.2 31.2269 182.7 30.9269C182 30.7269 181.7 30.2269 181.7 29.5269C181.7 28.1269 182.2 26.9269 183.1 25.7269C184.1 24.5269 184.8 24.0269 185.3 24.0269C186 24.0269 186.5 25.2269 186.5 27.8269C186.5 29.2269 186.3 30.4269 186.3 31.4269C186.1 32.4269 186.1 33.1269 186.1 33.8269C186.1 35.2269 186.3 36.7269 186.8 37.9269C187.5 39.3269 188.5 40.3269 189.4 40.3269C190.8 40.3269 192 39.6269 193.2 38.4269C194.4 37.2269 195.1 35.8269 195.1 34.1269C195.1 33.1269 194.6 31.7269 194.1 29.3269C193.4 27.1269 193.1 25.7269 193.1 25.2269C193.1 24.7269 193.3 24.0269 193.8 22.8269C194.3 21.8269 194.8 21.4269 195 21.4269C195.5 21.4269 196 22.8269 196.7 25.7269C197.4 28.8269 197.9 31.0269 197.9 32.4269C197.9 36.5269 199.3 38.6269 202.5 38.6269C203.9 38.6269 204.9 37.9269 205.1 36.4269C202.5 31.6269 201 28.0269 201 25.4269C201 24.0269 201.2 22.8269 202.2 21.6269C202.7 20.9269 202.9 20.4269 203.2 20.4269C203.4 20.4269 203.7 20.9269 203.7 21.8269C203.9 23.0269 204.2 24.2269 204.4 25.2269C204.4 25.2269 205.1 26.9269 206.3 30.2269C207.4 32.2269 207.9 33.7269 207.9 34.6269L207.9 34.6269L207.9 34.6269L207.9 34.6269L207.9 34.6269ZM226.6 76.9269C245.1 70.2269 264.3 63.0269 284.4 55.5269C285.1 55.3269 285.6 55.0269 285.8 55.3269C285.8 55.3269 285.8 55.8269 285.6 56.5269C284.6 58.7269 283.9 59.9269 283.4 60.3269C266.6 66.5269 246.7 74.2269 224.1 83.6269C224.7 81.4269 225.4 79.3269 226.6 76.9269L226.6 76.9269L226.6 76.9269L226.6 76.9269L226.6 76.9269ZM282.7 24.1269C282.7 27.7269 280.8 30.8269 277.2 33.7269C273.6 36.3269 269.5 37.8269 265 37.8269C264.3 37.8269 263.1 37.6269 261.9 37.1269C260.7 36.9269 259.7 36.6269 259 36.6269C254.2 36.6269 249.2 39.0269 244.1 43.8269C240.5 47.4269 236.9 51.0269 233.3 54.6269C231.1 56.3269 229 57.5269 226.6 58.2269C224 58.9269 222.5 59.4269 222 59.4269L222 59.2269C222 59.2269 223 58.5269 224.9 57.3269C226.8 56.1269 229.7 54.2269 233.8 51.1269C235.7 49.2269 238.6 46.1269 242.2 42.0269C244.6 38.9269 247.2 36.5269 250.1 34.3269C253.5 31.9269 256.3 30.5269 259.2 30.0269C258.7 30.2269 260.6 30.2269 264.2 30.2269C266.4 28.0269 268.8 25.9269 270.9 23.7269C273.8 21.1269 276.2 19.9269 278.1 19.9269C281.3 19.8269 282.7 21.2269 282.7 24.1269L282.7 24.1269L282.7 24.1269L282.7 24.1269L282.7 24.1269ZM280.3 26.2269C279.8 24.8269 278.4 24.3269 276 24.3269C273.8 24.3269 270.5 26.5269 266.2 30.8269C266.7 30.8269 267.2 31.0269 267.6 31.0269C270 31.0269 272.6 30.3269 275.3 29.1269C277.9 28.1269 279.6 27.2269 280.3 26.2269L280.3 26.2269L280.3 26.2269L280.3 26.2269L280.3 26.2269ZM76.3 178.427C76.3 178.227 76.5 177.927 76.5 177.927C76.7 177.727 76.7 177.727 76.7 177.927C76.9 178.127 76.9 178.427 76.7 178.627C75.5 185.827 73.3 189.427 70.2 189.427C67.1 189.427 65.6 186.827 65.6 181.527C65.6 175.027 67.3 168.127 71.1 161.127C72.1 159.427 72.5 158.527 72.8 158.527L72.8 158.527C72.8 158.727 72.6 159.727 72.1 161.427C69.7 168.827 68.5 173.927 68.5 177.027C68.5 180.827 69.5 183.027 71.6 183.027C73.2 182.927 74.7 181.327 76.3 178.427L76.3 178.427L76.3 178.427L76.3 178.427L76.3 178.427ZM253.7 6.8269C253.7 9.42691 252.5 12.3269 250.6 15.4269C248.4 18.5269 245.8 21.4269 242.4 23.8269C241 24.8269 240.2 25.2269 240 25.2269L240 25.0269C240 24.8269 240.5 24.3269 241.4 23.1269C246.9 17.1269 249.8 13.3269 249.8 11.1269C249.8 9.42691 248.8 8.5269 247.2 8.5269C246.2 8.5269 245.3 8.7269 244.6 9.2269C243.9 9.4269 243.6 9.7269 243.4 9.7269C243.4 9.7269 243.2 9.7269 243.2 9.5269C243.2 9.5269 243.2 9.0269 243.4 8.12691C244.4 4.0269 246.3 2.12691 249.6 2.12691C252.3 2.02692 253.7 3.72691 253.7 6.8269L253.7 6.8269L253.7 6.8269L253.7 6.8269L253.7 6.8269ZM106.3 171.727C109.2 171.727 111.6 173.127 113.7 176.527C115.9 179.627 117.5 183.927 118.3 189.227C118.5 189.727 118.5 189.927 118.5 190.227L118.7 190.227C118.7 190.027 118.9 189.727 118.9 189.227C119.4 186.127 120.6 181.327 122.3 175.027C124.2 170.727 126.1 168.527 128.3 168.527C129.5 168.527 130.7 169.227 131.7 170.727C132.7 172.127 133.1 173.127 133.1 174.127C133.1 174.627 133.1 175.527 132.6 176.527C132.1 177.927 131.6 178.727 131.2 178.727C131 178.727 130.5 178.027 129.5 177.027C128.8 176.027 127.8 175.627 126.9 175.627C125 175.627 123.3 180.227 121.6 189.327C120.9 193.427 119.9 196.327 119.2 197.927C118.5 198.927 118 199.627 117.5 199.627C117 199.627 117 198.927 116.8 197.927C117 196.227 116.1 193.127 114.2 188.527C112.3 183.727 111.1 181.527 110.1 181.527C109.6 181.527 109.4 181.527 109.1 182.027C108.9 182.227 108.6 182.527 107.9 182.527C106.9 182.527 106 181.827 104.5 180.627C103.1 179.427 102.6 178.427 102.6 177.727C102.6 177.527 103.1 176.327 104.3 174.327C105.4 172.427 106.1 171.727 106.3 171.727L106.3 171.727L106.3 171.727L106.3 171.727L106.3 171.727ZM38.2 97.8269C41.1 97.8269 43.5 99.2269 45.6 102.627C47.8 105.727 49.4 110.027 50.2 115.327C50.4 115.827 50.4 116.027 50.4 116.327L50.6 116.327C50.6 116.127 50.8 115.827 50.8 115.327C51.3 112.227 52.5 107.427 54.2 101.127C56.1 96.8269 58 94.6269 60.2 94.6269C61.4 94.6269 62.6 95.3269 63.6 96.8269C64.6 98.2269 65 99.2269 65 100.227C65 100.727 65 101.627 64.5 102.627C64 104.027 63.5 104.827 63.1 104.827C62.9 104.827 62.4 104.127 61.4 103.127C60.7 102.127 59.7 101.727 58.8 101.727C56.9 101.727 55.2 106.327 53.5 115.427C52.8 119.527 51.8 122.427 51.1 124.027C50.4 125.027 49.9 125.727 49.4 125.727C48.9 125.727 48.9 125.027 48.7 124.027C48.9 122.327 48 119.227 46.1 114.627C44.2 109.827 43 107.627 42 107.627C41.5 107.627 41.3 107.627 41 108.127C40.8 108.327 40.5 108.627 39.8 108.627C38.8 108.627 37.9 107.927 36.4 106.727C35 105.527 34.5 104.527 34.5 103.827C34.5 103.627 35 102.427 36.2 100.427C37.2 98.5269 37.9 97.8269 38.2 97.8269L38.2 97.8269L38.2 97.8269L38.2 97.8269L38.2 97.8269ZM127.9 49.8269C127.9 49.6269 128.1 49.3269 128.1 49.3269C128.3 49.1269 128.3 49.1269 128.3 49.3269C128.5 49.5269 128.5 49.8269 128.3 50.0269C127.1 57.2269 124.9 60.8269 121.8 60.8269C118.7 60.8269 117.2 58.2269 117.2 52.9269C117.2 46.4269 118.9 39.5269 122.7 32.5269C123.7 30.8269 124.1 29.9269 124.4 29.9269L124.4 29.9269C124.4 30.1269 124.2 31.1269 123.7 32.8269C121.3 40.2269 120.1 45.3269 120.1 48.4269C120.1 52.2269 121.1 54.4269 123.2 54.4269C124.8 54.3269 126.3 52.6269 127.9 49.8269L127.9 49.8269L127.9 49.8269L127.9 49.8269L127.9 49.8269ZM166.6 102.127C167.1 98.7269 168.3 94.9269 170.2 90.1269C171.6 86.5269 172.4 82.9269 172.4 79.3269C172.4 72.3269 169 65.9269 162.6 59.4269C162.1 58.9269 162.1 58.4269 162.6 58.0269L164.8 54.227C165 53.727 165.3 53.727 165.8 54.227C172 59.227 175.4 66.727 175.4 76.5269C175.4 81.127 174.2 86.127 172.3 91.127C170.1 96.4269 169.2 100.027 169.2 101.927C169.2 106.027 170.2 108.127 172.3 108.127C173.7 108.127 175.2 106.427 176.9 103.527C176.9 103.327 177.1 103.027 177.1 103.027C177.3 102.827 177.3 102.827 177.3 103.027C177.3 103.027 177.3 103.527 177.3 103.727C176.1 110.927 173.9 114.527 170.8 114.527C167.9 114.527 166.2 111.427 166.2 105.627C166.1 104.527 166.3 103.327 166.6 102.127L166.6 102.127L166.6 102.127L166.6 102.127L166.6 102.127ZM318.7 172.927C318.7 175.527 317.5 178.427 315.6 181.527C313.4 184.627 310.8 187.527 307.4 189.927C306 190.927 305.2 191.327 305 191.327L305 191.127C305 190.927 305.5 190.427 306.4 189.227C311.9 183.227 314.8 179.427 314.8 177.227C314.8 175.527 313.8 174.627 312.2 174.627C311.2 174.627 310.3 174.827 309.6 175.327C308.9 175.527 308.6 175.827 308.4 175.827C308.4 175.827 308.2 175.827 308.2 175.627C308.2 175.627 308.2 175.127 308.4 174.227C309.4 170.127 311.3 168.227 314.6 168.227C317.3 168.127 318.7 169.827 318.7 172.927L318.7 172.927L318.7 172.927L318.7 172.927L318.7 172.927ZM503.5 113.327C504.7 112.327 505.7 111.927 506.4 111.927C506.9 111.927 507.1 112.427 507.1 113.327C507.1 114.027 506.9 115.527 506.4 117.427C505.9 119.327 505.7 120.827 505.7 122.027C505.7 127.327 509.5 130.227 517 130.227C523 130.227 528 127.627 531.9 122.527C534.3 118.427 536.9 114.627 539.3 110.727C540.3 109.727 541 109.327 541.7 109.327C542.7 109.327 542.9 110.327 542.4 112.427C541.4 116.527 540.7 118.427 540.7 117.927C540.7 119.627 541.7 121.327 543.6 122.727C545.3 124.127 547.7 125.127 550.3 125.127C553.7 125.127 555.8 124.127 556.8 122.527C556.8 122.327 555.8 120.327 553.7 116.727C553.9 114.827 554.9 111.427 556.3 106.927C556.5 105.527 557 104.727 557.5 104.727C558 104.727 558.5 104.927 559.2 105.927C561.1 108.827 562.3 112.127 562.3 116.027C562.3 122.027 560.9 127.027 558.2 131.427C555.3 136.727 551 139.327 545.2 139.327C541.4 139.327 537.8 136.227 534.6 130.427C529.3 140.027 522.4 144.827 514 144.827C503.9 144.827 499.1 139.027 499.1 128.027C495.3 132.627 488.8 136.627 480.4 140.527L480.4 127.327C486.6 124.227 490.7 122.327 491.9 121.527C495.9 119.627 499.7 116.727 503.5 113.327L503.5 113.327L503.5 113.327L503.5 113.327L503.5 113.327ZM466.8 129.227C463.2 124.627 460.1 122.527 457.2 122.527C452.9 122.527 451 123.527 451 125.927C451 128.827 453.9 130.227 459.6 130.227C461.8 130.127 464.2 129.727 466.8 129.227L466.8 129.227L466.8 129.227L466.8 129.227L466.8 129.227ZM474.3 146.727C474.3 145.327 473.8 143.627 473.3 141.927C470.4 142.927 466.1 143.627 460.8 143.627C449.3 143.627 443.5 139.527 443.5 131.627C443.5 125.627 445.2 120.327 449 115.527C452.6 111.427 456.4 109.327 460.5 109.327C463.6 109.327 466.7 111.227 470.3 114.827C473.4 118.427 476.3 122.527 478.7 127.527C478.9 127.527 479.4 127.527 480.4 127.027L480.4 140.227L479.9 140.727C479.9 143.627 479.2 146.927 477.7 151.327C476 156.827 473.4 161.427 470.3 165.027C463.1 173.627 455.2 181.127 446.5 187.627C433.5 197.227 422.5 202.227 412.9 202.227C404.7 202.227 398.5 199.127 394.2 193.127C390.4 188.127 388.4 181.327 388.4 173.427C388.4 163.327 390.6 153.027 394.6 142.227C395.8 139.827 396.3 138.827 396.8 138.827C397 138.827 397 139.027 397 139.527C397 140.227 396.8 141.427 396.5 142.927C393.4 153.527 391.9 161.427 391.9 166.927C391.9 171.927 393.1 176.327 395.5 179.927C399.3 184.927 405.3 187.627 413.7 187.627C420.9 187.627 429.5 184.527 439.9 178.227C448.1 173.227 456 167.227 463.7 160.027C470.7 153.227 474.3 148.927 474.3 146.727L474.3 146.727L474.3 146.727L474.3 146.727L474.3 146.727ZM408.7 110.527C408.2 108.327 407.5 106.727 406.5 105.527C405.8 104.127 405.3 103.327 405.1 102.927C405.1 102.427 405.1 100.727 405.6 97.4269C406.1 94.3269 406.3 92.1269 406.8 90.9269C407 89.7269 407.3 89.2269 407.8 89.2269C408 89.2269 408.3 89.4269 408.8 89.9269C412.2 93.7269 415.8 97.6269 419.8 101.727C421.5 103.427 422.2 104.327 422.2 104.827C422.2 105.027 422 105.327 421.5 105.327C420.8 105.327 418.9 104.827 416 104.127C417.7 108.227 419.6 112.327 421.3 116.127C423.9 122.827 425.4 128.327 425.4 133.427C425.4 135.827 424.9 138.727 424 142.327C422.8 146.427 421.4 149.527 419.4 151.727C412.4 159.627 400.7 168.327 384.1 177.627C369.7 186.027 361.3 190.127 358.7 190.127C358.2 190.127 351 191.827 337.3 195.127C322.9 198.527 313.8 200.627 310.2 201.127C306.4 201.827 304 202.127 303 202.127C302.5 202.127 302.5 202.127 302.5 201.927C302.5 201.727 305.1 200.227 310.4 197.827C312.3 196.827 323.4 192.027 343.8 183.427C358 177.427 369.7 171.927 379.1 166.827C393.3 159.127 404.1 152.427 411.5 146.927C417 142.627 419.9 139.527 419.9 137.527C419.9 137.027 418.5 133.727 415.6 127.427C412.3 120.327 409.9 114.627 408.7 110.527L408.7 110.527L408.7 110.527L408.7 110.527L408.7 110.527ZM389.1 77.1269C389.1 80.9269 387.2 86.2269 383.3 92.7269C380.9 96.8269 377.3 102.327 372.5 109.527C377.3 115.027 380.7 120.127 382.3 124.427C383.3 127.527 384 131.627 384 136.227C384 138.127 383.5 140.527 382.6 143.627C381.9 146.527 380.9 148.627 380 150.127C378.1 153.027 375 155.927 370.2 158.727C365.2 162.127 360.8 163.727 357.2 163.727C351.4 163.727 348.6 159.427 348.6 150.727C348.6 144.927 349.6 139.227 351.5 133.927C353.4 129.327 356.5 123.327 361.6 115.427C357.3 111.327 352.7 105.627 347.7 98.4269C347.2 97.7269 346 96.5269 344.1 94.6269C343.1 93.6269 342.7 92.4269 342.7 91.0269C342.7 88.8269 342.9 86.4269 343.4 83.6269C344.1 80.7269 344.6 79.5269 344.8 79.5269C345.5 79.5269 347.7 80.7269 351.8 83.3269C355.6 85.9269 358.8 87.9269 360.7 89.5269C361.9 90.2269 362.4 90.9269 362.4 90.9269L362.4 91.1269C362.4 91.3269 361.7 91.6269 360 91.6269C356.9 91.6269 355.2 91.8269 355.2 92.1269C355.2 92.3269 355.7 92.8269 356.6 94.0269C360.4 98.8269 364.3 102.427 368.4 105.327C369.4 103.927 372.7 99.1269 378 90.9269C382.6 83.9269 385.2 79.1269 386.4 76.3269C387.6 73.4269 388.3 72.2269 388.8 72.2269C388.8 72.3269 389.1 73.8269 389.1 77.1269L389.1 77.1269L389.1 77.1269L389.1 77.1269L389.1 77.1269ZM379.7 136.127C377.1 130.827 372.5 125.327 366.3 120.027C364.1 122.227 361.5 126.227 358.1 132.027C354.3 138.527 352.6 142.627 352.6 144.727C352.6 147.627 354.5 149.027 358.8 149.027C360.7 149.027 363.1 148.327 366.2 147.127C370.5 145.227 374.6 142.527 378 139.227C379.5 137.827 379.9 136.927 379.7 136.127L379.7 136.127L379.7 136.127L379.7 136.127L379.7 136.127ZM366.5 59.1269L370.3 51.2269C370.5 50.7269 370.8 50.5269 371.3 50.5269C371.8 50.5269 373.7 51.7269 377.5 54.3269C381.1 56.7269 383 58.1269 383 58.6269C383 60.3269 381.3 63.9269 378.2 69.2269C377.7 69.9269 377.2 69.9269 376.8 69.7269C373.7 67.3269 370.1 64.9269 366 62.3269C364.6 65.2269 363.4 67.8269 361.9 70.0269C361.7 70.727 361.2 71.0269 360.7 70.727C357.1 67.827 353.3 65.227 349.4 62.827C349.2 62.627 349.2 62.327 349.4 61.827L354 52.227C354.2 51.727 354.7 51.227 355 51.227C355.5 51.227 357.2 52.427 360.3 54.627C363.4 56.5269 365.5 58.1269 366.5 59.1269L366.5 59.1269L366.5 59.1269L366.5 59.1269L366.5 59.1269ZM492.7 193.027C490.1 193.727 488.6 194.227 488.1 194.227L488.1 194.027C488.1 194.027 489.1 193.327 491 192.127C492.9 190.927 495.8 189.027 499.9 185.927C501.8 184.027 504.7 180.927 508.3 176.527C510.7 173.627 513.3 171.027 516.2 169.127C519.8 166.527 523.2 165.327 526.8 165.327C527.5 165.327 528.7 165.527 530.2 166.027C531.4 166.527 532.6 166.727 533.6 166.727C535.5 166.727 537 166.027 538.2 164.527C538.9 163.127 539.9 161.927 540.8 160.427C541.3 159.427 542 159.027 542.5 159.027C542.7 159.027 542.7 159.227 542.7 159.727C542.7 160.227 542.5 161.427 542 162.827C541.5 163.527 543.4 163.827 547 163.827C547.5 163.827 547.7 163.827 547.7 163.627C547.7 163.627 547.5 162.627 547 161.027C546.8 160.527 547 159.827 547.7 158.827C548.7 157.127 549.1 156.427 549.4 156.627C550.4 157.327 550.8 158.827 550.8 160.427C550.8 162.127 550.3 163.827 549.6 165.727C548.9 167.927 548.2 169.127 547.7 169.527C546 170.527 543.4 170.227 539.8 168.527C536.9 171.427 534 173.127 531.2 173.127C530.5 173.127 529.3 172.927 528.1 172.427C526.9 171.927 525.9 171.727 525.2 171.727C520.4 171.727 515.4 173.927 510.3 178.727C506.7 182.327 503.1 185.927 499.5 189.527C497.3 191.127 495.1 192.327 492.7 193.027L492.7 193.027L492.7 193.027L492.7 193.027L492.7 193.027ZM441.4 63.4269C444.3 63.4269 446.7 64.8269 448.8 68.2269C451 71.3269 452.6 75.6269 453.4 80.9269C453.6 81.4269 453.6 81.6269 453.6 81.9269L453.8 81.9269C453.8 81.7269 454 81.4269 454 80.9269C454.5 77.8269 455.7 73.0269 457.4 66.7269C459.3 62.4269 461.2 60.2269 463.4 60.2269C464.6 60.2269 465.8 60.9269 466.8 62.4269C467.8 63.8269 468.2 64.8269 468.2 65.8269C468.2 66.3269 468.2 67.2269 467.7 68.2269C467.2 69.6269 466.7 70.4269 466.3 70.4269C466.1 70.4269 465.6 69.7269 464.6 68.7269C463.9 67.7269 462.9 67.3269 462 67.3269C460.1 67.3269 458.4 71.9269 456.7 81.0269C456 85.1269 455 88.0269 454.3 89.6269C453.6 90.6269 453.1 91.3269 452.6 91.3269C452.1 91.3269 452.1 90.6269 451.9 89.6269C452.1 87.9269 451.2 84.8269 449.3 80.2269C447.4 75.4269 446.2 73.2269 445.2 73.2269C444.7 73.2269 444.5 73.2269 444.2 73.7269C444 73.9269 443.7 74.2269 443 74.2269C442 74.2269 441.1 73.5269 439.6 72.3269C438.2 71.1269 437.7 70.1269 437.7 69.4269C437.7 69.2269 438.2 68.0269 439.4 66.0269C440.4 64.1269 441.1 63.4269 441.4 63.4269L441.4 63.4269L441.4 63.4269L441.4 63.4269L441.4 63.4269ZM400.6 60.3269C424.8 51.2269 450 42.1269 476 32.5269C476.7 32.3269 477.2 32.0269 477.2 32.3269C477.4 32.3269 477.4 32.8269 477.2 33.5269C476.2 35.7269 475.5 36.9269 475 37.3269C474.8 37.5269 462.5 42.1269 438.8 51.0269C414.6 59.9269 400.9 65.4269 398.2 67.1269C398.7 64.9269 399.4 62.7269 400.6 60.3269L400.6 60.3269L400.6 60.3269L400.6 60.3269L400.6 60.3269ZM377.1 16.4269C377.6 15.0269 377.6 13.5269 377.3 12.1269C377.1 10.7269 376.3 9.92691 375.1 9.92691C374.6 9.92691 373.9 10.1269 372.9 10.6269C371.9 11.1269 371.5 11.6269 371.5 12.0269C371.5 13.3269 373.5 14.7269 377.1 16.4269L377.1 16.4269L377.1 16.4269L377.1 16.4269L377.1 16.4269ZM374.2 22.6269C369.6 20.2269 367.5 17.8269 367.5 15.2269C367.5 12.1269 368.9 9.22691 371.8 6.82692C374.7 4.22691 377.1 3.22691 379 3.92693C380.7 4.42693 381.4 6.12692 381.4 8.92693C381.4 11.5269 380.9 14.4269 379.7 17.8269C382.1 19.0269 383.5 20.2269 384 21.2269C384 22.4269 383 24.6269 380.9 27.4269C380.4 26.4269 379 25.2269 376.8 24.0269C374.2 27.6269 371 30.7269 367.2 33.6269C362.6 36.7269 358.6 39.4269 355 40.8269C354 41.3269 349.7 43.0269 342 45.8269C340.8 46.3269 339.8 46.5269 339.6 46.5269C339.4 46.5269 339.4 46.3269 339.4 46.3269C339.4 46.1269 339.9 45.3269 341.3 44.6269C347.1 41.0269 352.8 37.6269 358.8 34.3269C365.8 30.1269 370.8 26.2269 374.2 22.6269L374.2 22.6269L374.2 22.6269L374.2 22.6269L374.2 22.6269ZM525.9 52.6269C526.4 51.2269 526.4 49.7269 526.1 48.3269C525.9 46.9269 525.1 46.1269 523.9 46.1269C523.4 46.1269 522.7 46.3269 521.7 46.8269C520.7 47.3269 520.3 47.8269 520.3 48.2269C520.3 49.5269 522.3 51.0269 525.9 52.6269L525.9 52.6269L525.9 52.6269L525.9 52.6269L525.9 52.6269ZM531.1 61.5269C528.7 67.3269 527.5 71.8269 527.5 75.2269C527.5 79.3269 528.5 81.4269 530.6 81.4269C531.8 81.4269 533.2 79.7269 534.9 76.8269C535.1 76.6269 535.1 76.3269 535.4 76.1269C535.4 76.1269 535.6 76.1269 535.6 76.3269C535.6 76.3269 535.6 76.5269 535.6 77.0269C534.2 84.227 532 87.8269 529.1 87.8269C526 87.8269 524.5 85.2269 524.5 79.9269C524.5 77.3269 525 73.9269 526.4 69.627C527.8 65.327 528.6 63.127 528.6 62.9269C528.6 62.4269 527.6 61.5269 525.5 60.3269C521.7 65.3269 516.4 70.1269 509.7 74.2269C505.1 76.8269 500.6 79.2269 495.8 81.2269C486.9 84.8269 481.6 86.7269 480.4 87.4269C479.2 87.9269 478.5 88.127 478 88.127C477.8 88.127 477.8 87.9269 477.8 87.9269C477.8 87.4269 478.3 86.9269 479.7 86.0269C487.4 81.727 494.8 77.4269 502.5 73.0269C512.6 67.227 519.5 62.4269 522.9 58.8269C518.3 56.4269 516.2 54.0269 516.2 51.4269C516.2 48.3269 517.6 45.4269 520.5 42.8269C523.4 40.4269 525.8 39.4269 527.7 40.2269C529.1 40.7269 530.1 42.4269 530.1 45.2269C530.1 47.8269 529.6 50.7269 528.4 53.8269C530.8 55.2269 531.8 56.7269 531.8 58.1269C531.9 58.9269 531.6 60.1269 531.1 61.5269L531.1 61.5269L531.1 61.5269L531.1 61.5269L531.1 61.5269ZM418.8 29.8269C418.8 29.6269 419 29.3269 419 29.3269C419.2 29.1269 419.2 29.1269 419.2 29.3269C419.4 29.5269 419.4 29.8269 419.2 30.0269C418 37.2269 415.8 40.8269 412.7 40.8269C409.6 40.8269 408.1 38.2269 408.1 32.9269C408.1 26.4269 409.8 19.5269 413.6 12.5269C414.6 10.8269 415 9.92691 415.3 9.92691L415.3 9.92691C415.3 10.1269 415.1 11.1269 414.6 12.8269C412.2 20.2269 411 25.3269 411 28.4269C411 32.2269 412 34.4269 414.1 34.4269C415.7 34.4269 417.1 32.7269 418.8 29.8269L418.8 29.8269L418.8 29.8269L418.8 29.8269L418.8 29.8269Z" id="Group" fill="#595959" stroke="none" clip-path="url(#clip_1)" />
  </g>
</svg>