<?xml version="1.0" encoding="utf-8"?>
<svg width="538.1001px" height="216.40007px" viewBox="0 0 538.1001 216.40007" version="1.1" xmlns:xlink="http://www.w3.org/1999/xlink" xmlns="http://www.w3.org/2000/svg">
  <defs>
    <path d="M538.1 0L538.1 0L538.1 216.4L0 216.4L0 0L538.1 0Z" id="path_1" />
    <clipPath id="clip_1">
      <use xlink:href="#path_1" clip-rule="evenodd" fill-rule="evenodd" />
    </clipPath>
  </defs>
  <g id="Surah_73_of_114_(modified)">
    <path d="M538.1 0L538.1 0L538.1 216.4L0 216.4L0 0L538.1 0Z" id="Surah_73_of_114_(modified)" fill="none" stroke="none" />
    <path d="M273.1 13.2C274.6 16.3 275.3 20.1 275.3 24.7C275.3 28.8 275.8 38.9 277.2 55.4C278.4 71.8 279.1 82.6 279.1 87.6C279.1 96 274.1 102.2 264.5 106.3L264.5 106.493L264.4 106.3C258.9 108.4 253.9 109.2 249.3 108.2C246.9 108 245.5 109.4 245.5 113C245.456 112.982 245.413 112.965 245.37 112.947C244.927 112.767 244.538 112.609 243.9 112.7C243.2 112.7 242.3 113.4 241.3 115.1C240.3 117.5 239.1 119.9 237.9 122.3C235.7 126.1 233.3 129 230.7 130.9C227.148 133.761 222.623 135.162 217.7 135.199L217.7 134.9C214.4 134.9 211.7 134.2 210.3 132.3C209.6 131.8 208.6 130.1 207.2 127C206.5 125.6 206 124.6 205.5 124.6C205 124.6 204.5 125.3 204.3 126.5C202.4 132.5 201.4 136.1 201.4 136.8C201.4 137.8 201.8 139.2 202.8 140.9C207.4 150 209.8 158.6 209.8 166.8C208.8 169 204.7 172.8 198 178.6C190.1 184.8 182.4 190.1 174.5 194.4C164.6 199.7 156.2 202.3 149.5 202.3C144 202.3 139.2 199.9 135.6 194.6C132.4 190.6 131 186 131 181.2C131 175.7 132.4 167.8 135.3 157.2C135.721 155.938 135.929 154.889 135.984 154.171C137.883 153.004 139.754 151.542 141.6 149.8C146.7 145.2 150.5 139.2 153.4 132C162.5 138.7 171.4 142.3 180.5 142.3C182.2 142.3 183.9 140.4 185.3 136.8C186.7 133.2 187.7 128.9 187.7 124.1C187.7 119 186.7 114.2 185.1 110.3C182.7 104.7 179.4 102.1 174.8 102.1C171.2 102.1 167.3 104.1 163.5 107.9C160.6 110.7 158.4 113.6 157 116.5C156 116.7 154.8 118.2 153.6 120.8C151.2 126.3 149.5 129.6 149 130.6C146.9 134.7 143.3 137.8 138 140C133.6 141.9 129.1 142.9 125 142.9L125 157.5C128.163 157.5 131.236 156.697 134.237 155.156C134.039 155.551 133.827 156 133.6 156.5C129.6 167.3 127.4 177.6 127.4 187.9C127.4 194.4 128.6 200.4 131.5 205.4C135.4 212.8 141.6 216.4 150 216.4C159.1 216.4 170.2 212.4 182.9 204.2C193 197.8 200.9 191.3 206.2 184.8C211.5 178.8 214.1 166.8 214.1 149C214.772 149.48 215.906 149.499 217.5 149.5L217.5 149.8C228.3 149.8 235.8 142.6 240.1 128.7C241.8 134.7 245.2 139.9 250.2 144.5C255 148.6 259.4 150.5 263.2 150.5C266.8 150.5 269.9 148.6 272.8 144.5C275.5 140.9 276.9 137.3 276.9 133.7C276.9 127.5 274.5 121.9 269.9 116.9L269.704 116.522C274.947 112.683 279.175 106.75 282.3 98.9C285.2 91.5 286.6 83.8 286.6 75.9C286.6 70.9 285.9 62 284.9 49.3C284 36.3 283.5 29.8 283.5 29.6C283.5 28.4 283.7 27.9 284.2 28.6C288.2 33.4 290.4 34.6 290.4 32.4C290.4 31.9 290.1 30.7 289.9 29.3C289.2 27.6 287.5 22.8 284.6 14.9C281.7 7.39999 279.8 2.89999 279.1 1.2C278.6 0.199997 278.4 0 277.9 0C277.7 0 277.4 0.300003 277.2 1C274.3 7.39999 273.1 11.5 273.1 13.2ZM251.8 0.899994C251.1 0.899994 250.1 1.39999 249.4 2.59999C246 9.09999 243.6 16.1 242.5 23.8C242.3 24.7 242.3 25.7 242.3 26.4C242.3 30.2 243.7 32.4 247.1 32.4C250.5 32.4 253.1 30.7 255.5 27.8C256.2 26.8 256.7 24.2 257.2 20.1C257.4 16.5 255 12.7 250 9.09999C250.7 6.7 251.6 4.29999 252.6 2.09999C252.6 1.79999 252.8 1.59999 252.8 1.59999C252.8 1.09999 252.3 0.899994 251.8 0.899994ZM296.8 19.6C298.3 22.8 299 26.6 299 31.4C299 35.5 300.2 54.5 302.7 88.3C305.1 122.1 306.3 141.3 306.3 146.1C306.3 151.2 306.1 155.7 305.6 159.8C305.571 160.179 305.542 160.544 305.514 160.893C305.35 162.935 305.229 164.446 305.4 165.3C305.6 166 305.9 166 306.6 164.8C307.1 163.9 307.5 162.7 308.5 161C311.8 152.4 313.5 142.3 313.5 131C313.5 127.2 312.6 110.6 310.4 81.1C308.2 51.4 307 36.5 307 36C307 34.8 307.2 34.3 307.7 35C312 39.8 313.9 41 313.9 38.8C313.9 38.3 313.9 37.1 313.4 35.9C312.9 34 311.2 29.2 308.1 21.3C305.2 13.8 303.5 9.29999 302.8 7.59999C302.3 6.89999 302.1 6.39999 301.6 6.39999C301.4 6.39999 301.1 6.89999 300.9 7.59999C298 13.8 296.8 17.9 296.8 19.6ZM189.3 15.1C187.2 11.7 184.8 10.3 181.9 10.3C181.7 10.3 181 11 179.9 12.9C178.7 14.9 178.2 16.1 178.2 16.3C178.2 17 178.7 18 180.1 19.2C181.6 20.4 182.5 21.1 183.5 21.1C184.2 21.1 184.5 20.8 184.7 20.6C185 20.1 185.2 20.1 185.7 20.1C186.7 20.1 187.9 22.3 189.8 27.1C191.7 31.7 192.6 34.8 192.4 36.5C192.6 37.5 192.6 38.2 193.1 38.2C193.6 38.2 194.1 37.5 194.8 36.5C195.5 34.9 196.5 32 197.2 27.9C198.9 18.8 200.6 14.2 202.5 14.2C203.4 14.2 204.4 14.6 205.1 15.6C206.1 16.6 206.6 17.3 206.8 17.3C207.2 17.3 207.7 16.5 208.2 15.1C208.7 14.1 208.7 13.2 208.7 12.7C208.7 11.7 208.3 10.7 207.3 9.3C206.3 7.8 205.1 7.10001 203.9 7.10001C201.7 7.10001 199.8 9.3 197.9 13.6C196.2 19.9 195 24.7 194.5 27.8C194.5 28.3 194.3 28.6 194.3 28.8L194.1 28.8C194.1 28.5 194.1 28.3 193.9 27.8C193.1 22.5 191.5 18.2 189.3 15.1ZM343.2 22.6C343.2 25.2 345.3 27.6 349.9 30C346.6 33.6 341.5 37.4 334.5 41.7C328.5 45 322.8 48.4 317 52C315.6 52.7 315.1 53.5 315.1 53.7C315.1 53.7 315.1 53.9 315.3 53.9C315.5 53.9 316.5 53.7 317.7 53.2C325.4 50.4 329.7 48.7 330.7 48.2C334.3 46.8 338.3 44.1 342.9 41C346.7 38.1 349.9 35 352.5 31.4C354.7 32.6 356.1 33.8 356.6 34.8C358.7 32 359.7 29.8 359.7 28.6C359.2 27.6 357.8 26.4 355.4 25.2C356.6 21.8 357.1 18.9 357.1 16.3C357.1 13.5 356.4 11.8 354.7 11.3C352.8 10.6 350.4 11.6 347.5 14.2C344.6 16.6 343.2 19.5 343.2 22.6ZM138.2 12C139.9 12 141.8 13 144.4 15.1C147 17 148.5 18.9 148.7 20.4C148.9 20.9 148.5 21.8 147.7 23.5C147 25.2 146.5 25.9 146.3 25.9C143.9 26.6 141.5 27.3 139.1 28.1C136 29.1 134.1 30.3 132.9 31.5C136.3 41.6 137.9 51.4 137.9 61.3C137.9 64.2 137.4 67.1 136.9 70.2C136.7 71.2 136.4 71.6 136.2 71.9C136 71.9 136 70 136 66.6C136 61.1 135 54.1 133.4 46.2C131.7 38.3 131 33.5 131 32.5C131 28.4 132 25.5 134.4 23.6C135.4 22.9 137.5 21.9 140.4 21C139.2 19.8 138 19.3 136.8 19.3C136.3 19.3 135.6 19.8 134.6 21C133.6 22.4 132.9 22.9 132.9 22.9C132.7 22.9 132.4 22.4 132.7 21.5C133.4 15.1 135.4 12 138.2 12ZM397.9 33.6C397.9 33.6 397.7 33.9 397.7 34.1C396 37 394.6 38.6 393 38.7C390.9 38.7 389.9 36.5 389.9 32.7C389.9 29.6 391.1 24.5 393.5 17.1C394 15.4 394.2 14.4 394.2 14.2C393.9 14.2 393.5 15.1 392.5 16.8C388.7 23.8 387 30.7 387 37.2C387 42.5 388.5 45.1 391.6 45.1C394.7 45.1 396.9 41.5 398.1 34.3C398.3 34.1 398.3 33.8 398.1 33.6C398.1 33.5093 398.1 33.4597 398.081 33.4513C398.059 33.4411 398.009 33.4907 397.9 33.6ZM247.2 15.6C252.2 18.4 254.6 20.6 254.6 21.8C254.2 22.8 253 23.8 251.3 24.5C249.6 25.4 248.2 25.9 247 25.9C245.5 25.9 244.8 24.9 244.8 23.5C244.8 21.1 245.5 18.5 247.2 15.6ZM353 19.5C353.3 20.9 353.3 22.4 352.8 23.8C349.2 22.1 347.3 20.6 347.2 19.4C347.2 19 347.6 18.5 348.6 18C349.6 17.5 350.3 17.3 350.8 17.3C352 17.3 352.8 18.1 353 19.5ZM5.49998 122.1C1.69998 129.3 -1.52588e-05 138.5 -1.52588e-05 149.5C-1.52588e-05 159.4 1.39999 167.3 4.89995 173.6C10.0999 183.2 18.4999 188.2 30.2999 188.2C38.8999 188.2 48.7999 184.9 60.2999 178.4C69.0999 173.6 78 167.4 86.8999 159.7C94.0999 153.7 98.5999 149.1 100.3 146.5C102 144.4 103.5 138.8 104.9 130.2C105.6 138.9 107 145.1 109.2 148.7C112.5 154.4 117.8 157.3 125 157.3L125 142.7C121.9 142.7 119.3 141.9 117.6 140.5C115.2 138.6 113.3 134.7 112.1 129.2C110.9 123.7 110.1 112.7 109.9 96.1C109.4 77.6999 108.9 65.6999 108.2 59.9C106.1 43.7999 103.4 30.5999 100.3 20.2999C100.1 19.3999 99.6 18.8999 99.1 18.8999C98.8 18.8999 98.6 19.2999 98.1 20.2999C97.6 21.7999 96.7 26.0999 95.7 32.7999C100 54.3999 102.2 79.3999 102.2 108.2C102.2 118.6 102.2 125.3 101.7 128.4C101.3 131.5 100.5 133.9 99.1 135.6C93.1 142.6 83.9 150.3 71.7 158.2C55.9 168.7 42.4 174 30.9 174C19.8 174 12.2 169.9 7.59998 162.2C4.69997 157.2 3.29997 151.2 3.29997 144.2C3.29997 137.7 4.49998 130.7 7.39998 122.8C8.01399 121.633 8.3264 120.655 8.47608 119.842C8.85199 119.948 9.25986 120 9.69998 120C12.8 120 15 116.4 16.2 109.2C16.4 109 16.4 108.7 16.2 108.5C16.2 108.409 16.2 108.36 16.1813 108.351C16.1589 108.341 16.1093 108.391 16 108.5C16 108.5 15.8 108.8 15.8 109C14.2 111.8 12.7 113.5 11.1 113.6C8.99997 113.6 7.99997 111.4 7.99997 107.6C7.99997 104.5 9.19998 99.4 11.6 92C12.1 90.3 12.3 89.3 12.3 89.1C12 89.1 11.6 90 10.6 91.7C6.79997 98.7 5.09998 105.6 5.09998 112.1C5.09998 115.611 5.75813 117.937 7.1035 119.107C6.6159 119.771 6.05794 120.752 5.49998 122.1ZM78.2 32.2C78.2 34.8 77 37.7 75.1 40.8C72.9 43.9 70.3 46.8 66.9 49.2C65.5 50.2 64.7 50.6 64.5 50.6L64.5 50.4C64.5 50.2 65 49.7 65.9 48.5C71.4 42.5 74.3 38.7 74.3 36.5C74.3 34.8 73.3 33.9 71.7 33.9C70.7 33.9 69.8 34.1 69.1 34.6C68.4 34.8 68.1 35.1 67.9 35.1C67.9 35.1 67.7 35.1 67.7 34.9C67.7 34.9 67.7 34.4 67.9 33.5C68.9 29.4 70.8 27.5 74.1 27.5C76.8 27.4 78.2 29 78.2 32.2ZM376.3 67.7C400.5 58.6 425.7 49.5 451.7 39.9C451.902 39.8422 452.088 39.7761 452.249 39.7186C452.647 39.5768 452.9 39.4866 452.9 39.7C453.1 39.7 453.1 40.2 452.9 40.9C451.9 43.1 451.2 44.3 450.7 44.7C450.5 44.9 438.2 49.5 414.5 58.4C390.3 67.3 376.6 72.8 373.9 74.5C374.4 72.2 375.1 70.1 376.3 67.7ZM222 41.7C201.9 49.2 182.7 56.4 164.2 63.1C163 65.5 162.2 67.7 161.7 69.8C184.3 60.4 204.2 52.7 221 46.5C221.5 46.1 222.2 44.9 223.2 42.7C223.4 42 223.4 41.5 223.4 41.5C223.251 41.2764 222.935 41.3861 222.494 41.5392C222.344 41.5916 222.178 41.649 222 41.7ZM252 66.2C247.4 63.8 245.3 61.4 245.3 58.8C245.3 55.7 246.7 52.8 249.6 50.4C252.5 47.8 254.9 46.8 256.8 47.5C258.5 48 259.2 49.7 259.2 52.5C259.2 55.1 258.7 58 257.5 61.4C259.9 62.6 261.3 63.8 261.8 64.8C261.8 66 260.8 68.2 258.7 71C258.2 70 256.8 68.8 254.6 67.6C252 71.2 248.8 74.3 245 77.2C240.4 80.3 236.4 83 232.8 84.4C231.8 84.9 227.5 86.6001 219.8 89.4C218.6 89.9 217.6 90.1001 217.4 90.1001C217.2 90.1001 217.2 89.9 217.2 89.9C217.2 89.7 217.7 88.9 219.1 88.2C224.9 84.6 230.6 81.2 236.6 77.9C243.6 73.7 248.6 69.8 252 66.2ZM506.9 68.9C504.5 74.7 503.3 79.2 503.3 82.6C503.3 86.7 504.3 88.8 506.4 88.8C507.6 88.8 509 87.1 510.7 84.2C510.9 84 510.9 83.7 511.2 83.5C511.2 83.5 511.4 83.5 511.4 83.7L511.4 84.4C510 91.6001 507.8 95.2 504.9 95.2C501.8 95.2 500.3 92.6 500.3 87.3C500.3 84.7 500.8 81.3 502.2 77C503.6 72.7001 504.4 70.5 504.4 70.3C504.4 69.8 503.4 68.9 501.3 67.7C497.5 72.7 492.2 77.5 485.5 81.6C480.9 84.2 476.4 86.6 471.6 88.6C462.7 92.2 457.4 94.1 456.2 94.8C455 95.3 454.3 95.5 453.8 95.5C453.6 95.5 453.6 95.3 453.6 95.3C453.6 94.8 454.1 94.3 455.5 93.4C463.2 89.1001 470.6 84.8 478.3 80.4C488.4 74.6001 495.3 69.8 498.7 66.2C494.1 63.8 492 61.4 492 58.8C492 55.7 493.4 52.8 496.3 50.2C499.2 47.8 501.6 46.8 503.5 47.6C504.9 48.1 505.9 49.8 505.9 52.6C505.9 55.2 505.4 58.1 504.2 61.2C506.6 62.6 507.6 64.1 507.6 65.5C507.6 66.2 507.4 67.4 506.9 68.9ZM29.7 59C27.6 55.6 25.2 54.2 22.3 54.2C22.1 54.2 21.4 55 20.3 56.8C19.1 58.8 18.6 60 18.6 60.2C18.6 60.9 19.1 61.9 20.5 63.1C22 64.3 22.9 65 23.9 65C24.6 65 24.9 64.7 25.1 64.5C25.4 64 25.6 64 26.1 64C27.1 64 28.3 66.2 30.2 71C32.1 75.6 33 78.7 32.8 80.4C33 81.4 33 82.1 33.5 82.1C34 82.1 34.5 81.4 35.2 80.4C35.9 78.8 36.9 75.9 37.6 71.8C39.3 62.7 41 58.1 42.9 58.1C43.8 58.1 44.8 58.5 45.5 59.5C46.5 60.5 47 61.2 47.2 61.2C47.6 61.2 48.1 60.4 48.6 59C49.1 58 49.1 57.1 49.1 56.6C49.1 55.6 48.7 54.6 47.7 53.2C46.7 51.7 45.5 51 44.3 51C42.1 51 40.2 53.2 38.3 57.5C36.6 63.8 35.4 68.6 34.9 71.7C34.9 72.2 34.7 72.5 34.7 72.7L34.5 72.7C34.5 72.4 34.5 72.2 34.3 71.7C33.5 66.4 31.9 62.1 29.7 59ZM254.9 60C255.4 58.6 255.4 57.1 255.1 55.7C254.9 54.3 254.1 53.5 252.9 53.5C252.4 53.5 251.7 53.7 250.7 54.2C249.7 54.7 249.3 55.2 249.3 55.6C249.4 56.9 251.3 58.3 254.9 60ZM501.6 60C502.1 58.6 502.1 57.1 501.8 55.7C501.6 54.3 500.8 53.5 499.6 53.5C499.1 53.5 498.4 53.7 497.4 54.2C496.4 54.7 496 55.2 496 55.6C496.1 56.9 498 58.3 501.6 60ZM346 58.6L342.2 66.5C341.3 65.5 339.1 63.8 336 62C332.9 59.8 331.2 58.6 330.7 58.6C330.4 58.6 329.9 59.1 329.7 59.6L325.1 69.2C324.9 69.7 324.9 70 325.1 70.2C329 72.6 332.8 75.2 336.4 78.1C336.9 78.4 337.4 78.1 337.6 77.4C339.1 75.2 340.3 72.6 341.7 69.7C345.8 72.3 349.4 74.7 352.5 77.1C352.9 77.3 353.4 77.3 353.9 76.6C357 71.2999 358.7 67.7 358.7 66C358.7 65.5 356.8 64.1 353.2 61.7C349.4 59.1 347.5 57.9 347 57.9C346.5 57.9 346.2 58.1 346 58.6ZM424.5 75.6C422.4 72.2 420 70.8 417.1 70.8C416.9 70.8 416.2 71.5 415.1 73.4C413.9 75.4 413.4 76.6 413.4 76.8C413.4 77.5 413.9 78.5 415.3 79.7C416.8 80.9 417.7 81.6 418.7 81.6C419.4 81.6 419.7 81.3 419.9 81.1C420.2 80.6 420.4 80.6 420.9 80.6C421.9 80.6 423.1 82.8 425 87.6C426.9 92.2 427.8 95.3 427.6 97C427.8 98 427.8 98.7 428.3 98.7C428.8 98.7 429.3 98 430 97C430.7 95.4 431.7 92.5 432.4 88.4C434.1 79.3 435.8 74.7 437.7 74.7C438.6 74.7 439.6 75.1 440.3 76.1C441.3 77.1 441.8 77.8 442 77.8C442.4 77.8 442.9 77 443.4 75.6C443.9 74.6 443.9 73.7 443.9 73.2C443.9 72.2 443.5 71.2 442.5 69.8C441.5 68.3 440.3 67.6 439.1 67.6C436.9 67.6 435 69.8 433.1 74.1C431.4 80.4 430.2 85.2 429.7 88.3C429.7 88.8 429.5 89.1 429.5 89.3L429.3 89.3C429.3 89 429.3 88.8 429.1 88.3C428.3 83 426.7 78.7 424.5 75.6ZM364.8 84.5C364.8 88.3 362.9 93.6 359 100.1C356.6 104.2 353 109.7 348.2 116.9C353 122.4 356.4 127.5 358 131.8C359 134.9 359.7 139 359.7 143.6C359.7 145.5 359.2 147.9 358.3 151C357.6 153.9 356.6 156 355.7 157.5C353.8 160.4 350.7 163.3 345.9 166.1C340.9 169.5 336.5 171.1 332.9 171.1C327.1 171.1 324.3 166.8 324.3 158.1C324.3 152.3 325.3 146.6 327.2 141.3C329.1 136.7 332.2 130.7 337.3 122.8C333 118.7 328.4 113 323.4 105.8C322.9 105.1 321.7 103.9 319.8 102C318.8 101 318.4 99.8 318.4 98.4C318.4 96.2 318.6 93.8 319.1 91C319.8 88.1 320.3 86.9 320.5 86.9C321.2 86.9 323.4 88.1 327.5 90.7C331.3 93.3 334.5 95.3 336.4 96.9C337.6 97.6 338.1 98.3 338.1 98.3L338.1 98.5C338.1 98.7 337.4 99 335.7 99C332.6 99 330.9 99.2 330.9 99.5C330.9 99.7 331.4 100.2 332.3 101.4C336.1 106.2 340 109.8 344.1 112.7C345.1 111.3 348.4 106.5 353.7 98.3C358.3 91.3 360.9 86.5 362.1 83.7C363.3 80.8 364 79.6 364.5 79.6C364.6 79.7 364.8 81.1 364.8 84.5ZM149.5 95.3C149.5 97.2 149 99.4 148.1 101.3C146.9 103.9 145.5 105.4 143.8 105.4C140.9 105.4 139 103.5 137.8 99.6C136.4 104.4 134 107 130.4 107C129.2 107 128 106.3 127 104.8C125.8 103.4 125.3 101.2 125.3 98.8L125.3 92.6C125.3 92.1 124.8 91.9 124.3 91.6C123.6 91.4 123.3 90.9 123.3 90.2C123.3 88.8 123.8 87.6 124.7 86.4C125.7 85.2 126.4 84.7 126.9 84.7C127.6 84.7 128.1 85.9 128.1 88.5C128.1 89.9 127.9 91.1 127.9 92.1C127.7 93.1 127.7 93.8 127.7 94.5C127.7 95.9 127.9 97.4 128.4 98.6C129.1 100 130.1 101 131 101C132.4 101 133.6 100.3 134.8 99.1C136 97.9 136.7 96.5 136.7 94.8C136.7 93.8 136.2 92.4 135.7 90C135 87.8 134.7 86.4 134.7 85.9C134.7 85.4 134.9 84.7 135.4 83.5C135.9 82.5 136.4 82.1 136.6 82.1C137.1 82.1 137.6 83.5 138.3 86.4C139 89.5 139.5 91.7 139.5 93.1C139.5 97.2 140.9 99.3 144.1 99.3C145.5 99.3 146.5 98.6 146.7 97.1C144.1 92.3 142.6 88.7 142.6 86.1C142.6 84.7 142.8 83.5 143.8 82.3C144.3 81.6 144.5 81.1 144.8 81.1C145 81.1 145.3 81.6 145.3 82.5C145.5 83.7 145.8 84.9 146 85.9C146 85.9 146.7 87.6 147.9 90.9C149 92.9 149.5 94.3 149.5 95.3ZM187.4 95.5C187.2 95.3 187.2 95 187.4 94.5L192 84.9C192.2 84.4 192.7 84.2 193 84.2C193.5 84.2 195.6 85.4 199.2 87.8C203 90.4 205 91.9 205 92.4C205 94.1 203.3 97.4 200 102.7L199.971 102.74C199.492 103.411 199.29 103.694 198.8 103.4C195.1 100.6 191.3 97.9 187.4 95.5ZM78.2 92.6C78.2 93.1 78 94 77.5 95C77.3 96.4 76.8 97.2 76.1 97.2C75.9 97.2 75.4 96.5 74.4 95.5C73.7 94.5 72.7 94.1 72 94.1C70.1 94.1 68.2 98.7 66.5 107.8C65.8 111.9 65.1 114.8 64.1 116.4C63.8909 116.699 63.6996 116.971 63.5209 117.205C63.7136 116.588 63.8 116.186 63.8 116L63.8 115.8C63.6552 115.8 63.0913 116.429 62.0702 117.61C61.9726 117.311 61.9 116.892 61.9 116.4C61.9 114.7 60.9 111.6 59 107C57.1 102.2 55.9 100 55.2 100C54.5 100 54.2 100 54 100.5C54 100.7 53.5 101 52.8 101C51.8 101 50.9 100.3 49.4 99.1C48.2 97.9 47.5 96.9 47.5 96.2C47.5 96 48 94.8 49.2 92.8C50.4 90.9 51.1 90.2 51.4 90.2C54 90.2 56.4 91.6 58.6 95C61 98.4 62.4 102.4 63.4 107.7L63.4 108.7C63.5093 108.809 63.5589 108.859 63.5814 108.849C63.6 108.84 63.6 108.791 63.6 108.7C63.6 108.5 63.8 108.2 64.1 107.7C64.3 104.6 65.5 99.8 67.2 93.5C69.1 89.2 71 87 73.2 87C74.4 87 75.6 87.7 76.8 89.2C77.8 90.7 78.2 91.7 78.2 92.6ZM63.5209 117.205C63.2987 117.917 62.9353 118.915 62.4 120.2C60.7 124 57.4 127.9 52.3 131.5C47.7 134.9 43.7 137.3 40.1 138.9C39.4 139.4 35.1 141.1 27.1 143.9C25.9 144.4 25.2 144.6 24.7 144.6C24.5 144.6 24.5 144.4 24.5 144.4C24.5 144.2 25.2 143.4 26.4 142.7C32.9 138.9 42 133.3 54 125.4C56.9 123.2 59 121.1 60.7 119.2C61.2247 118.592 61.6807 118.061 62.0702 117.61C62.171 117.919 62.2984 118.1 62.4 118.1C62.7506 118.1 63.1013 117.756 63.5209 117.205ZM382.3 112.8C383.3 114 384 115.6 384.5 117.8C385.7 121.9 388.1 127.7 391.4 134.7C394.3 141 395.7 144.3 395.7 144.8C395.7 146.8 392.8 149.9 387.3 154.2C382.449 157.806 376.136 161.927 368.363 166.508C369.098 162.071 370.371 156.756 372.2 150.5C372.5 149 372.7 147.8 372.7 147.1C372.7 146.6 372.7 146.4 372.5 146.4C372 146.4 371.5 147.4 370.3 149.8C367.954 156.135 366.227 162.299 365.2 168.35C361.992 170.198 358.559 172.116 354.9 174.1C345.5 179.2 333.8 184.7 319.6 190.7C299.2 199.3 288.1 204.1 286.2 205.1C280.9 207.5 278.3 209 278.3 209.2C278.3 209.4 278.3 209.4 278.8 209.4C279.8 209.4 282.2 209.1 286 208.4C289.6 207.9 298.7 205.8 313.1 202.4C326.8 199.1 334 197.4 334.5 197.4C337.1 197.4 345.5 193.3 359.9 184.9C361.345 184.09 362.753 183.285 364.124 182.485C364.36 189.753 366.34 196.016 369.9 200.7C374.2 206.7 380.4 209.8 388.6 209.8C398.2 209.8 409.2 204.8 422.2 195.2C430.9 188.7 438.8 181.2 446 172.6C449.1 169 451.7 164.4 453.4 158.9C454.9 154.5 455.6 151.2 455.6 148.3L456.1 147.8L456.1 134.6C455.1 135.1 454.6 135.1 454.4 135.1C452 130.1 449.1 126 446 122.4C442.4 118.8 439.3 116.9 436.2 116.9C432.1 116.9 428.3 119 424.7 123.1C420.9 127.9 419.2 133.2 419.2 139.2C419.2 147.1 425 151.2 436.5 151.2C441.8 151.2 446.1 150.5 449 149.5C449.5 151.2 450 152.9 450 154.3C450 156.5 446.4 160.8 439.4 167.6C431.7 174.8 423.8 180.8 415.6 185.8C405.2 192.1 396.6 195.2 389.4 195.2C381 195.2 375 192.5 371.2 187.5C369.739 185.309 368.723 182.821 368.151 180.083C380.444 172.585 389.423 165.52 395.2 159C397.2 156.8 398.6 153.7 399.8 149.6C400.7 146 401.2 143.1 401.2 140.7C401.2 135.6 399.7 130.1 397.1 123.4C395.4 119.6 393.5 115.5 391.8 111.4C394.7 112.1 396.6 112.6 397.3 112.6C397.8 112.6 398 112.3 398 112.1C398 111.6 397.3 110.7 395.6 109C391.6 104.9 388 101 384.6 97.2C384.1 96.7 383.8 96.5 383.6 96.5C383.1 96.5 382.8 97 382.6 98.2C382.1 99.4 381.9 101.6 381.4 104.7C380.9 108 380.9 109.7 380.9 110.2C381.1 110.6 381.6 111.4 382.3 112.8ZM482.2 119.6C481.5 119.6 480.5 120 479.3 121C475.4 124.3 471.6 127.2 467.7 129.2C466.5 130 462.4 131.9 456.2 135L456.2 148.2C464.6 144.3 471.1 140.3 474.9 135.7C474.9 146.7 479.7 152.5 489.8 152.5C498.2 152.5 505.1 147.7 510.4 138.1C513.6 143.9 517.2 147 521 147C526.8 147 531.1 144.4 534 139.1C536.7 134.7 538.1 129.7 538.1 123.7C538.1 119.8 536.9 116.5 535 113.6C534.3 112.6 533.8 112.4 533.3 112.4C532.8 112.4 532.3 113.2 532.1 114.6C530.7 119.1 529.7 122.5 529.5 124.4C531.6 128 532.6 130 532.6 130.2C531.6 131.8 529.5 132.8 526.1 132.8C523.5 132.8 521.1 131.8 519.4 130.4C517.5 129 516.5 127.3 516.5 125.6C516.5 126.1 517.2 124.2 518.2 120.1C518.7 118 518.5 117 517.5 117C516.8 117 516.1 117.4 515.1 118.4C512.7 122.3 510.1 126.1 507.7 130.2C503.8 135.3 498.8 137.9 492.8 137.9C485.3 137.9 481.5 135 481.5 129.7C481.5 128.5 481.7 127 482.2 125.1C482.7 123.2 482.9 121.7 482.9 121C482.9 120.1 482.7 119.6 482.2 119.6ZM178.3 124.3C177.6 122.1 176.4 120.2 174.7 118.8C172.8 117.1 171.1 116.4 169.4 116.4C166.8 116.4 164.6 116.9 163.2 117.8C162.2 118.8 161.5 119.5 161.5 120.4C165.6 123.3 170.1 125.7 175.9 127.1C176.6 127.3 177.1 127.6 177.6 127.6C178.3 127.6 178.6 127.1 178.6 126.4C178.6 126 178.6 125.3 178.3 124.3ZM265.7 132.2C263.1 128.1 258.3 125.7 251.5 124.5C249.8 124.3 248.9 124.5 248.9 125C248.9 125.2 249.1 125.7 249.6 126.4C254.6 132.4 259.4 135.5 264.5 135.5C265.9 135.5 266.7 135 266.7 134.5C266.6 134.2 266.4 133.4 265.7 132.2ZM355.4 143.5C352.8 138.2 348.2 132.7 342 127.4C339.8 129.6 337.2 133.6 333.8 139.4C330 145.9 328.3 150 328.3 152.1C328.3 155 330.2 156.4 334.5 156.4C336.4 156.4 338.8 155.7 341.9 154.5C346.2 152.6 350.3 149.9 353.7 146.6C355.2 145.2 355.7 144.2 355.4 143.5ZM442.6 136.8C439 132.2 435.9 130.1 433 130.1C428.7 130.1 426.8 131.1 426.8 133.5C426.8 136.4 429.7 137.8 435.4 137.8C437.264 137.8 439.363 137.406 441.7 136.968C441.996 136.913 442.296 136.856 442.6 136.8ZM246 172.1C246 171.9 246.2 171.6 246.2 171.6C246.309 171.491 246.359 171.441 246.381 171.451C246.4 171.46 246.4 171.509 246.4 171.6C246.6 171.8 246.6 172.1 246.4 172.3C245.2 179.5 243 183.1 239.9 183.1C236.8 183.1 235.3 180.5 235.3 175.2C235.3 168.7 237 161.8 240.8 154.8C241.8 153.1 242.2 152.2 242.5 152.2C242.5 152.4 242.3 153.4 241.8 155.1C239.4 162.5 238.2 167.6 238.2 170.7C238.2 174.5 239.2 176.7 241.3 176.7C242.9 176.6 244.3 175 246 172.1ZM174.5 160.1C163.4 163.9 153.1 167.7 143.5 171.1C142.3 173.5 141.6 175.7 141.2 177.9C153.4 172.3 164.2 168.3 173.8 164.9C174.3 164.5 175 163.3 175.7 161.1C176.1 160.4 176.1 159.9 175.9 159.9C175.777 159.716 175.654 159.758 175.345 159.864C175.152 159.931 174.885 160.023 174.5 160.1ZM468.5 200.4C465.9 201.1 464.4 201.6 463.9 201.6L463.9 201.4C463.9 201.4 464.9 200.7 466.8 199.5C468.7 198.3 471.6 196.4 475.7 193.3C477.6 191.4 480.5 188.3 484.1 183.9C486.5 181 489.1 178.4 492 176.5C495.6 173.9 499 172.7 502.6 172.7C503.3 172.7 504.5 172.9 506 173.4C507.2 173.9 508.4 174.1 509.4 174.1C511.3 174.1 512.8 173.4 514 171.9C514.7 170.5 515.7 169.3 516.6 167.8C517.1 166.8 517.8 166.4 518.3 166.4C518.5 166.4 518.5 166.6 518.5 167.1C518.5 167.6 518.3 168.8 517.8 170.2C517.3 170.9 519.2 171.2 522.8 171.2C523.3 171.2 523.5 171.2 523.5 171C523.5 171 523.3 170 522.8 168.4C522.6 167.9 522.8 167.2 523.5 166.2L523.58 166.064C524.522 164.463 524.908 163.805 525.2 164C526.2 164.7 526.6 166.2 526.6 167.8C526.6 169.4 526.1 171.2 525.4 173.1C524.7 175.3 524 176.5 523.5 176.9C521.8 177.9 519.2 177.6 515.6 175.9C512.7 178.8 509.8 180.5 507 180.5C506.3 180.5 505.1 180.3 503.9 179.8C502.7 179.3 501.7 179.1 501 179.1C496.2 179.1 491.2 181.3 486.1 186.1L475.3 196.9C473 198.5 470.9 199.7 468.5 200.4ZM283.2 174.3C282.8 173.8 282.3 173.8 281.8 174.5C279.6 177.6 278.2 180.5 276.9 182.6C274.5 186.2 268.8 190.5 259.9 195.3C247.4 201.3 238.3 205.4 232.3 207.8C230.2 208.8 229.2 209.3 229.2 209.5C229.2 209.5 230.1 209.5 232.3 209.3C233.7 209.1 237.3 208.1 243.1 206.7C248.6 205.5 251.5 204.8 251.5 204.8C253 204.8 256.1 203.6 260.9 200.7C267.4 197.3 272.2 193.7 276 189.4C278.2 187 279.9 183.7 281.3 179.6C282.3 180.8 283.7 182.2 285.9 183.4C288 184.8 290 185.8 291.4 185.8C293.1 185.8 294.3 183.8 295 180C295.2 179.1 295.2 178.4 295.2 177.4C295.2 175.2 294.7 173.1 293.3 171.4C292.1 169.5 290.6 168.8 289.2 168.8C287 168.8 285.1 170.7 283.2 174.3ZM290.9 176.2C291.8 177.1 292.3 178.1 292.3 178.8C292.6 179.5 292.6 180 292.4 180.1C292.1 180.3 291.9 180.3 291.4 180.1C288.7 178.9 286.8 177.7 285.6 176.5C286.3 175.3 287.3 174.8 288.5 174.8C289.2 174.8 290.2 175.2 290.9 176.2ZM66.2 199.7C79.9 194.9 94.3 189.6 109.4 184.1C109.785 184.023 110.052 183.931 110.245 183.864C110.554 183.758 110.677 183.716 110.8 183.9C111 183.9 111 184.4 110.6 185.1C109.9 187.3 109.2 188.5 108.7 188.9C95.7 193.5 80.9 199.2 63.8 206.4C64.3 204.2 65 202.1 66.2 199.7Z" id="Group" fill="#595959" fill-rule="evenodd" stroke="none" clip-path="url(#clip_1)" />
  </g>
</svg>