<?xml version="1.0" encoding="utf-8"?>
<svg width="544.1001px" height="203.30008px" viewBox="0 0 544.1001 203.30008" version="1.1" xmlns:xlink="http://www.w3.org/1999/xlink" xmlns="http://www.w3.org/2000/svg">
  <defs>
    <path d="M544.1 0L544.1 0L544.1 203.3L0 203.3L0 0L544.1 0Z" id="path_1" />
    <clipPath id="clip_1">
      <use xlink:href="#path_1" clip-rule="evenodd" fill-rule="evenodd" />
    </clipPath>
  </defs>
  <g id="Surah_61_of_114_(modified)">
    <path d="M544.1 0L544.1 0L544.1 203.3L0 203.3L0 0L544.1 0Z" id="Surah_61_of_114_(modified)" fill="none" stroke="none" />
    <path d="M297.6 13.2C299.1 16.4 299.8 20.2 299.8 25C299.8 29 301 48 303.5 81.9C305.9 115.7 307.1 134.9 307.1 139.7C307.1 144.8 306.9 149.3 306.4 153.4C306.371 153.779 306.342 154.144 306.314 154.493C306.15 156.535 306.029 158.046 306.2 158.9C306.4 159.6 306.7 159.6 307.4 158.4C307.9 157.5 308.3 156.3 309.3 154.6C312.6 146 314.3 135.9 314.3 124.6C314.3 120.8 313.4 104.2 311.2 74.7C309 45 307.8 30.1 307.8 29.6C307.8 28.4 308 27.9 308.5 28.6C312.8 33.4 314.7 34.6 314.7 32.4C314.7 31.9 314.7 30.7 314.2 29.5C313.7 27.6 312 22.8 308.9 14.9C306 7.39999 304.3 2.89999 303.6 1.2C303.1 0.5 302.9 0 302.4 0C302.2 0 301.9 0.5 301.7 1.2C298.8 7.39999 297.6 11.5 297.6 13.2ZM165.8 19.7C165.8 19.7 165.6 20 165.6 20.2C163.9 23 162.5 24.7 160.9 24.8C158.8 24.8 157.8 22.6 157.8 18.8C157.8 15.7 159 10.6 161.4 3.20001C161.9 1.50002 162.1 0.500015 162.1 0.300018C161.8 0.300018 161.4 1.20003 160.4 2.90002C156.6 9.90002 154.9 16.8 154.9 23.3C154.9 28.6 156.4 31.2 159.5 31.2C162.6 31.2 164.8 27.6 166 20.4C166.2 20.2 166.2 19.9 166 19.7C166 19.6093 166 19.5598 165.981 19.5513C165.959 19.5411 165.909 19.5906 165.8 19.7ZM271.7 14.2C273.1 17.3 274.1 21.1 274.1 25.7C274.1 31 275.3 50.9 277.9 86.2C280.3 121.2 281.7 140.9 281.7 145C281.7 153.4 276.9 159.6 267.3 163.7L267.3 176.9C275 173.6 281 166.6 284.8 156.3C287.7 148.9 289.1 141.2 289.1 133.3C289.1 128.2 287.9 110 285.7 78.3C283.3 46.6 282.3 30.5 282.3 30.3C282.3 29.1 282.6 28.9 282.8 29.6C286.8 34.4 289 35.6 289 33.4C289 32.7 288.8 31.7 288.3 30.3C287.9 28.6 286.2 23.6 283.3 15.9C280.4 8.50002 278.5 3.90001 277.8 2.00002C277.3 1.20001 277 1.00002 276.8 1.00002C276.5 1.00002 276 1.30002 275.8 2.00002C273.1 8.40001 271.7 12.5 271.7 14.2ZM237.1 5.5C237.1 9.10001 235.2 12.2 231.6 15.1C228 17.7 223.9 19.2 219.4 19.2C218.7 19.2 217.5 19 216.3 18.5C215.1 18.3 214.1 18 213.4 18C208.6 18 203.6 20.4 198.5 25.2L187.7 36C185.5 37.7 183.4 38.9 181 39.6C178.4 40.3 176.9 40.8 176.4 40.8L176.4 40.6C176.4 40.6 177.4 39.9 179.3 38.7C181.2 37.5 184.1 35.6 188.2 32.5C190.1 30.6 193 27.5 196.6 23.4C199 20.3 201.6 17.9 204.5 15.7C207.9 13.3 210.7 11.9 213.6 11.4C213.1 11.6 215 11.6 218.6 11.6C220.8 9.40001 223.2 7.3 225.3 5.10001C228.2 2.5 230.6 1.3 232.5 1.3C235.7 1.20001 237.1 2.60001 237.1 5.5ZM128.4 23.8C129.3 21.9 129.8 19.7 129.8 17.8C129.8 16.8 129.4 15.4 128.2 13.4C127 10.1 126.3 8.40001 126.3 8.40001C126.1 7.40001 125.8 6.20001 125.6 5.00002C125.6 4.10002 125.3 3.60002 125.1 3.60002C124.8 3.60002 124.6 4.10002 124.1 4.80002C123.1 6.00002 122.9 7.20003 122.9 8.60002C122.9 11.2 124.4 14.8 127 19.6C126.8 21.1 125.8 21.8 124.4 21.8C121.2 21.8 119.8 19.7 119.8 15.6C119.8 14.2 119.3 12 118.6 8.90002C117.9 6.00002 117.4 4.60002 116.9 4.60002C116.7 4.60002 116.2 5.00002 115.7 6.00002C115.2 7.20001 115 7.90001 115 8.40001C115 8.90001 115.3 10.3 116 12.5C116.5 14.9 117 16.3 117 17.3C117 19 116.3 20.4 115.1 21.6C113.9 22.8 112.7 23.5 111.3 23.5C110.4 23.5 109.4 22.5 108.7 21.1C108.2 19.9 108 18.4 108 17C108 16.3 108 15.6 108.2 14.6C108.2 13.6 108.4 12.4 108.4 11C108.4 8.40001 107.9 7.20001 107.2 7.20001C106.7 7.20001 106 7.70001 105 8.90001C104.1 10.1 103.6 11.3 103.6 12.7C103.6 13.4 103.9 13.9 104.6 14.1C105.1 14.4 105.6 14.6 105.6 15.1L105.6 21.3C105.6 23.7 106.1 25.9 107.3 27.3C108.3 28.8 109.5 29.5 110.7 29.5C114.3 29.5 116.7 26.9 118.1 22.1C119.3 26 121.2 27.9 124.1 27.9C125.8 27.9 127.2 26.4 128.4 23.8ZM349.2 16.4C349.2 19 351.3 21.4 355.9 23.8C352.6 27.4 347.5 31.2 340.5 35.5C334.5 38.8 328.8 42.2 323 45.8C321.6 46.5 321.1 47.3 321.1 47.5C321.1 47.5 321.1 47.7 321.3 47.7C321.5 47.7 322.5 47.5 323.7 47C331.4 44.2 335.7 42.5 336.7 42C340.3 40.6 344.3 37.9 348.9 34.8C352.7 31.9 355.9 28.8 358.5 25.2C360.7 26.4 362.1 27.6 362.6 28.6C364.7 25.8 365.7 23.6 365.7 22.4C365.2 21.4 363.8 20.2 361.4 19C362.6 15.6 363.1 12.7 363.1 10.1C363.1 7.30002 362.4 5.60002 360.7 5.10002C358.8 4.40001 356.4 5.40001 353.5 8.00002C350.6 10.4 349.2 13.3 349.2 16.4ZM234.7 7.70001C234.2 6.30002 232.8 5.80002 230.4 5.80002C228.2 5.80002 224.9 8.00002 220.6 12.3C221.1 12.3 221.6 12.5 222 12.5C224.4 12.5 227 11.8 229.7 10.6C232.3 9.60001 234 8.60001 234.7 7.70001ZM403.9 27.1C403.9 27.1 403.7 27.4 403.7 27.6C402 30.5 400.6 32.2 399 32.2C396.9 32.2 395.9 30 395.9 26.2C395.9 23.1 397.1 18 399.5 10.6C400 8.90001 400.2 7.90001 400.2 7.70001C399.9 7.70001 399.5 8.60002 398.5 10.3C394.7 17.3 393 24.2 393 30.7C393 36 394.5 38.6 397.6 38.6C400.7 38.6 402.9 35 404.1 27.8C404.3 27.6 404.3 27.3 404.1 27.1C404.1 27.0093 404.1 26.9598 404.081 26.9513C404.059 26.9411 404.009 26.9907 403.9 27.1ZM359 13.2C359.3 14.6 359.3 16.1 358.8 17.5C355.2 15.8 353.3 14.4 353.2 13.1C353.2 12.7 353.6 12.2 354.6 11.7C355.6 11.2 356.3 11 356.8 11C358 11 358.8 11.8 359 13.2ZM80.9 35.3C80.9 35.1 81.1 34.8 81.1 34.8C81.2095 34.6905 81.2589 34.6411 81.2813 34.6513C81.3 34.6598 81.3 34.7093 81.3 34.8C81.5 35 81.5 35.3 81.3 35.5C80.1 42.7 77.9 46.3 74.8 46.3C71.7 46.3 70.2 43.7 70.2 38.4C70.2 31.9 71.9 25 75.7 18C76.7 16.3 77.1 15.4 77.4 15.4C77.4 15.6 77.2 16.6 76.7 18.3C74.3 25.7 73.1 30.8 73.1 33.9C73.1 37.7 74.1 39.9 76.2 39.9C77.8 39.8 79.2 38.2 80.9 35.3ZM138.7 71C179.3 55.6 220.5 40.3 262.8 24.4C263.002 24.3422 263.188 24.2761 263.349 24.2186C263.747 24.0767 264 23.9866 264 24.2C264.2 24.2 264.2 24.7 264 25.4C263 27.6 262.3 28.8 261.8 29.2C223.2 43.6 181.2 59.7 136.3 77.7C136.8 75.6 137.5 73.4 138.7 71ZM382.3 61.4C406.5 52.3 431.7 43.2 457.7 33.6C457.902 33.5422 458.088 33.4761 458.249 33.4186C458.647 33.2768 458.9 33.1866 458.9 33.4C459.1 33.4 459.1 33.9 458.9 34.6C457.9 36.8 457.2 38 456.7 38.4C456.5 38.6 444.2 43.2 420.5 52.1C396.3 61 382.6 66.5 379.9 68.2C380.4 66 381.1 63.8 382.3 61.4ZM19.4 40.8C22.3 40.8 24.7 42.2 26.8 45.6C29 48.7 30.6 53 31.4 58.3C31.6 58.8 31.6 59 31.6 59.3L31.8 59.3C31.8 59.1 32 58.8 32 58.3C32.5 55.2 33.7 50.4 35.4 44.1C37.3 39.8 39.2 37.6 41.4 37.6C42.6 37.6 43.8 38.3 44.8 39.8C45.8 41.2 46.2 42.2 46.2 43.2C46.2 43.7 46.2 44.6 45.7 45.6C45.2 47 44.7 47.8 44.3 47.8C44.1 47.8 43.6 47.1 42.6 46.1C41.9 45.1 40.9 44.7 40 44.7C38.1 44.7 36.4 49.3 34.7 58.4C34 62.5 33 65.4 32.3 67C31.6 68 31.1 68.7 30.6 68.7C30.1 68.7 30.1 68 29.9 67C30.1 65.3 29.2 62.2 27.3 57.6C25.4 52.8 24.2 50.6 23.2 50.6C22.7 50.6 22.5 50.6 22.2 51.1C22 51.3 21.7 51.6 21 51.6C20 51.6 19.1 50.9 17.6 49.7C16.2 48.5 15.7 47.5 15.7 46.8C15.7 46.6001 16.2 45.4001 17.4 43.4001C18.5 41.5 19.2 40.8 19.4 40.8ZM512.9 62.4C510.5 68.2 509.3 72.7 509.3 76.1C509.3 80.2 510.3 82.3 512.4 82.3C513.6 82.3 515 80.6 516.7 77.7C516.9 77.5 516.9 77.2 517.2 77C517.2 77 517.4 77 517.4 77.2L517.4 77.9C516 85.1 513.8 88.7 510.9 88.7C507.8 88.7 506.3 86.1 506.3 80.8C506.3 78.2 506.8 74.8 508.2 70.5C509.6 66.2 510.4 64 510.4 63.8C510.4 63.3 509.4 62.4 507.3 61.2C503.5 66.2 498.2 71 491.5 75.1C486.9 77.7 482.4 80.1 477.6 82.1C468.7 85.7 463.4 87.6 462.2 88.3C461 88.8 460.3 89 459.8 89C459.6 89 459.6 88.8 459.6 88.8C459.6 88.3 460.1 87.8 461.5 86.9C469.2 82.6 476.6 78.3 484.3 73.9C494.4 68.1 501.3 63.3 504.7 59.7C500.1 57.3 498 54.9 498 52.3C498 49.2 499.4 46.3 502.3 43.7C505.2 41.3 507.6 40.3 509.5 41.1C510.9 41.6 511.9 43.3 511.9 46.1C511.9 48.7 511.4 51.6 510.2 54.7C512.6 56.1 513.6 57.6 513.6 59C513.6 59.8 513.4 61 512.9 62.4ZM112.8 57.1C112.6 56.9 112.6 56.6 112.8 56.1L117.4 46.5C117.6 46 118.1 45.8 118.4 45.8C118.9 45.8 121 47 124.6 49.4C128.4 52 130.4 53.5 130.4 54C130.4 55.7 128.7 59 125.4 64.3L125.371 64.3404C124.892 65.0114 124.69 65.2942 124.2 65C120.5 62.2 116.6 59.5 112.8 57.1ZM507.6 53.5C508.1 52.1 508.1 50.6 507.8 49.2C507.6 47.8 506.8 47 505.6 47C505.1 47 504.4 47.2 503.4 47.7C502.4 48.2 502 48.7 502 49.1C502.1 50.4 504 51.8 507.6 53.5ZM351.8 52.1L348 60C347 59 344.9 57.4 341.8 55.5C338.7 53.3 337 52.1 336.5 52.1C336.2 52.1 335.7 52.6 335.5 53.1L330.9 62.7C330.7 63.2 330.7 63.5 330.9 63.7C334.8 66.1 338.6 68.7 342.2 71.6C342.7 71.9 343.2 71.6 343.4 70.9C344.9 68.7 346.1 66.1 347.5 63.2C351.6 65.8 355.2 68.2 358.3 70.6C358.7 70.8 359.2 70.8 359.7 70.1C362.8 64.8 364.5 61.2 364.5 59.5C364.5 59 362.6 57.6 359 55.2C355.2 52.6 353.3 51.4 352.8 51.4C352.3 51.4 352 51.6 351.8 52.1ZM255.4 72.7C256.3 70.8 256.8 68.6 256.8 66.7C256.8 65.8 256.3 64.3 255.2 62.3C254 59 253.3 57.3 253.3 57.3C253.1 56.3 252.8 55.1 252.6 53.9C252.6 53 252.3 52.5 252.1 52.5C251.8 52.5 251.6 53 251.1 53.7C250.1 54.9 249.9 56.1 249.9 57.5C249.9 60.1 251.4 63.7 254 68.5C253.8 70 252.8 70.7 251.4 70.7C248.2 70.7 246.8 68.6 246.8 64.5C246.8 63.1 246.3 60.9 245.6 57.8C244.9 54.9 244.4 53.5 243.9 53.5C243.7 53.5 243.2 53.9 242.7 54.9C242.2 56.1 242 56.8 242 57.3C242 57.8 242.3 59.2 243 61.4C243.5 63.8 244 65.2 244 66.2C244 67.9 243.3 69.3 242.1 70.5C240.9 71.7 239.7 72.4 238.3 72.4C237.4 72.4 236.4 71.4 235.7 70C235.2 68.8 235 67.3 235 65.9C235 65.2 235 64.5 235.2 63.5C235.2 62.5 235.4 61.3 235.4 59.9C235.4 57.3 234.9 56.1 234.2 56.1C233.7 56.1 233 56.6 232 57.8C231.1 59 230.6 60.2 230.6 61.6C230.6 62.3 230.9 62.8 231.6 63C232.1 63.3 232.6 63.5 232.6 64L232.6 70.2C232.6 72.6 233.1 74.8 234.3 76.2C235.3 77.7 236.5 78.4 237.7 78.4C241.3 78.4 243.7 75.8 245.1 71C246.3 74.9 248.2 76.8 251.1 76.8C252.8 76.8 254.2 75.3 255.4 72.7ZM430.3 69.1C428.2 65.7 425.8 64.3 422.9 64.3C422.6 64.3 421.9 65 420.9 66.9001C419.7 68.9001 419.2 70.1 419.2 70.3C419.2 71 419.7 72 421.1 73.2C422.6 74.4 423.5 75.1 424.5 75.1C425.2 75.1 425.5 74.8 425.7 74.6C426 74.1 426.2 74.1 426.7 74.1C427.7 74.1 428.9 76.3 430.8 81.1C432.7 85.7 433.6 88.8 433.4 90.5C433.6 91.5 433.6 92.2 434.1 92.2C434.6 92.2 435.1 91.5 435.8 90.5C436.5 88.9 437.5 86 438.2 81.9C439.9 72.8 441.6 68.2 443.5 68.2C444.4 68.2 445.4 68.6 446.1 69.6C447.1 70.6 447.6 71.3 447.8 71.3C448.2 71.3 448.7 70.5 449.2 69.1C449.7 68.1 449.7 67.2 449.7 66.7C449.7 65.7 449.3 64.7 448.3 63.3C447.3 61.8 446.1 61.1 444.9 61.1C442.7 61.1 440.8 63.3 438.9 67.6C437.2 73.9 436 78.7 435.5 81.8C435.5 82.3 435.3 82.6 435.3 82.8L435.1 82.8C435.1 82.5 435.1 82.3 434.9 81.8C434.1 76.5 432.5 72.2 430.3 69.1ZM87.9 75.6C88.4 74.6 88.6 73.7 88.6 73.2C88.6 72.2 88.1 71.3 87.2 69.8C86 68.3 84.8 67.6 83.6 67.6C81.4 67.6 79.5 69.8 77.6 74.1C75.9 80.4001 74.7 85.2 74.5 88.3C74.2 88.8 74 89.1 74 89.3C74 89.3907 74 89.4403 73.9814 89.4488C73.9589 89.4589 73.9093 89.4094 73.8 89.3L73.8 88.3C72.8 83 71.4 79 69 75.6C66.8 72.2 64.4 70.8 61.8 70.8C61.5 70.8 60.8 71.5001 59.6 73.4001C58.4 75.4001 57.9 76.6 57.9 76.8C57.9 77.5 58.6 78.5 59.8 79.7C61.3 80.9 62.2 81.6 63.2 81.6C63.9 81.6 64.4 81.3 64.4 81.1C64.6 80.6 64.9 80.6 65.6 80.6C66.3 80.6 67.5 82.8 69.4 87.6C71.3 92.2 72.3 95.3 72.3 97C72.3 97.4468 72.3599 97.8337 72.444 98.1251C72.0387 98.5937 71.5582 99.1537 71 99.8C69.3 101.7 67.2 103.8 64.3 106C52.3 113.9 43.2 119.5 36.7 123.3C35.5 124 34.8 124.8 34.8 125C34.8 125 34.8 125.2 35 125.2C35.5 125.2 36.2 125 37.4 124.5C45.4 121.7 49.7 120 50.4 119.5C54 117.9 58 115.5 62.6 112.1C67.7 108.5 71 104.6 72.7 100.8C73.2022 99.5947 73.5783 98.6416 73.8157 97.9407C74.0242 97.6779 74.2493 97.3582 74.5 97C75.5 95.4 76.2 92.5 76.9 88.4C78.6 79.3 80.5 74.7 82.4 74.7C83.1 74.7 84.1 75.1 84.8 76.1C85.8 77.1 86.3 77.8 86.5 77.8C87.2 77.8 87.7 77 87.9 75.6ZM73.8157 97.9407C74.0509 97.246 74.1498 96.7991 74.1 96.6L74.1 96.4C73.9587 96.4 73.4185 96.9985 72.444 98.1251C72.5481 98.4858 72.6894 98.7 72.8 98.7C73.1209 98.7 73.4419 98.4117 73.8157 97.9407ZM11.3 89.8C11.3 89.6 11.5 89.3 11.5 89.3C11.6093 89.1907 11.6589 89.1411 11.6813 89.1513C11.7 89.1598 11.7 89.2093 11.7 89.3C11.9 89.5 11.9 89.8 11.7 90C10.7041 95.9753 9.0195 99.4711 6.70331 100.488C6.61782 100.831 6.51715 101.202 6.40001 101.6C4.50002 109.5 3.30001 114.8 3.30001 117.4C3.30001 127.7 7.60001 135.6 16 140.9C22.5 144.7 30.2 146.7 39.3 146.7C54.9 146.7 71.7 143.3 89.7 136.9C100.3 133.1 108.9 129.2 115.9 125.1C113.3 118.6 112.1 113.6 112.1 110.2C112.1 103.2 113.8 97.2 116.7 92C119.3 87.2 122.5 84.8 125.6 84.6C128.7 84.8 131.8 87.2 134.7 92.5C137.3 97.3 138.5 102.1 138.5 106.7C138.5 117.8 134.9 125.8 127.7 130.6C132.672 137.262 140.312 140.859 150.524 140.9C156.687 140.865 163.142 138.265 169.4 133C172.8 129.4 176.4 126 179.7 122.7C180.4 122 180.9 121.7 181.4 121.7C182.1 121.7 182.6 123.1 182.6 126C182.6 128.2 183.3 130.3 185.2 132.7C187.4 135.6 190.7 138.2 195 140.1C204.4 125.5 210.6 116.1 213.7 112.3C222.8 101.3 231.9 95.5 240.6 95.5C248.3 95.5 255.2 98.6 261.5 105.1C266.8 110.4 269.2 114.9 269.2 118.8C269.2 120.2 268.5 123.1 267 127.4C265.3 132.2 263.9 135.3 262.4 137C259 140.8 253.5 144.9 245.6 149.2C234.1 155.2 222.3 158.1 210.3 158.1C205.9 158.2 200.4 157 193.7 154.6C192.5 157.5 192 160.1 192 162.8C192 172.6 200.6 177.7 217.7 177.7C226.3 177.7 234.7 176 243.6 173.1C251.5 170 259.2 166.6 267.1 163.5L267.1 176.6C256.1 181.4 248.1 184.5 243.6 186.2C232.3 190.3 223.2 192.2 216 192.2C197 192.2 187.4 184 187.4 167.7C187.4 162.9 188.1 158.1 190 153.3C182.6 149.2 178.5 143.2 177.3 135.1C173.2 141.3 169.6 145.9 166.7 148.5C161.788 153.019 156.296 155.415 150.7 155.498L150.7 155.5C150.637 155.5 150.575 155.5 150.513 155.5C150.475 155.5 150.438 155.5 150.4 155.5L150.4 155.499C143.836 155.464 138.431 154.261 133.9 151.7C128.4 148.8 123.6 143.3 119.5 135.6C112.5 139.9 102.7 144.7 90.2 149.5C70.3 157.4 52.5 161.3 36.7 161.3C12.2 161.3 0 149.1 0 124.6C0 115.2 1.4 107.3 4.3 101.1C4.35571 100.979 4.41098 100.862 4.46578 100.747C1.86283 100.353 0.599983 97.763 0.599983 92.9C0.599983 86.4 2.29998 79.5 6.09998 72.5C7.09998 70.8 7.49997 69.9 7.79997 69.9C7.79997 70.1 7.59998 71.1 7.09998 72.8C4.69998 80.2 3.49998 85.3 3.49998 88.4C3.49998 92.2 4.49997 94.4 6.59998 94.4C8.2 94.3 9.59999 92.6 11.3 89.8ZM214.1 77.8C214.4 76.8 214.6 75.9 214.6 75.4C214.6 74.4 214.1 73.4 213 72.2C211.8 70.7 210.6 70 209.6 70C207.2 70 205.3 72.2 203.4 76.5C201.7 82.7 200.8 87.5 200.3 90.4C200 91.2 199.8 91.4 199.8 91.4C199.8 91.4907 199.8 91.5403 199.781 91.5487C199.759 91.5589 199.71 91.5098 199.6 91.4002L199.6 91.4L199.6 90.4C198.6 85.3 197.2 81 195 77.9C192.9 74.5 190.2 73.1 187.6 73.1C187.231 73.1 186.181 74.717 184.293 78.1865C184.603 77.776 184.867 77.6 185 77.6C185 77.6 185.2 77.8 185 77.8C185.134 78.2698 184.863 79.1899 184.247 80.5302C183.814 79.8859 183.679 79.4019 183.8 79.1C183.97 78.7824 184.135 78.4779 184.293 78.1866C184.137 78.3948 183.968 78.6634 183.8 79C182.4 81.4 179.5 84.5 174.7 88C162.9 95.9 153.8 101.7 147.1 105.3C145.9 106 145.2 106.8 145.2 107C145.2 107 145.2 107.2 145.4 107.2C145.9 107.2 146.6 107 147.8 106.5C155.8 103.7 160.1 102 160.8 101.5C164.4 99.9 168.4 97.5 173 94.1C177.3 91 180.7 87.4 183.1 82.8C183.56 81.9449 183.945 81.1871 184.247 80.5302C184.532 80.9532 184.945 81.4452 185.5 82C186.9 83.2 188.1 83.9 189.1 83.9C189.8 83.9 190.3 83.6 190.5 83.4C190.5 82.9 191 82.9 191.5 82.9C192.2 82.9 193.6 85.1 195.3 89.9C197.2 94.5 198.2 97.6 198.2 99.3C198.2 100.2 198.5 100.7 198.7 100.7C199.2 100.7 199.7 100.2 200.4 99C201.4 97.3 202.1 94.7 202.8 90.6C204.5 81.5 206.4 76.9 208.3 76.9C209 76.9 210 77.3 210.7 78.3C211.7 79.3 212.2 80 212.4 80C213.1 80 213.6 79.2 214.1 77.8ZM370.8 78.2C370.8 82 368.9 87.3 365 93.8C362.6 97.9 359 103.4 354.2 110.6C359 116.1 362.4 121.2 364 125.5C365 128.6 365.7 132.7 365.7 137.3C365.7 139.2 365.2 141.6 364.3 144.7C363.6 147.6 362.6 149.7 361.7 151.2C359.8 154.1 356.7 157 351.9 159.8C346.9 163.2 342.5 164.8 338.9 164.8C333.1 164.8 330.3 160.5 330.3 151.8C330.3 146 331.3 140.3 333.2 135C335.1 130.4 338.2 124.4 343.3 116.5C339 112.4 334.4 106.7 329.4 99.5C328.9 98.8 327.7 97.6 325.8 95.7C324.8 94.7 324.4 93.5 324.4 92.1C324.4 89.9 324.6 87.5 325.1 84.7C325.8 81.8 326.3 80.6 326.5 80.6C327.2 80.6 329.4 81.8 333.5 84.4C337.3 87 340.5 89 342.4 90.6C343.6 91.3 344.1 92 344.1 92L344.1 92.2C344.1 92.4 343.4 92.7 341.7 92.7C338.6 92.7 336.9 92.9 336.9 93.2C336.9 93.4 337.4 93.9 338.3 95.1C342.1 99.9 346 103.5 350.1 106.4C351.1 105 354.4 100.2 359.7 92C364.3 85 366.9 80.2 368.1 77.4C369.3 74.5 370 73.3 370.5 73.3C370.6 73.4 370.8 74.9 370.8 78.2ZM388.3 106.6C389.3 107.8 390 109.4 390.5 111.6C391.7 115.7 394.1 121.4 397.4 128.5C400.3 134.8 401.7 138.1 401.7 138.6C401.7 140.6 398.8 143.7 393.3 148C388.437 151.614 382.107 155.746 374.309 160.34C375.035 155.837 376.325 150.413 378.2 144C378.5 142.5 378.7 141.3 378.7 140.6C378.7 140.1 378.7 139.9 378.5 139.9C378 139.9 377.5 140.9 376.3 143.3C373.911 149.751 372.164 156.024 371.144 162.182C367.952 164.02 364.538 165.927 360.9 167.9C351.5 173 339.8 178.5 325.6 184.5C305.2 193.1 294.1 197.9 292.2 198.9C286.9 201.3 284.3 202.8 284.3 203C284.3 203.2 284.3 203.2 284.8 203.2C285.8 203.2 288.2 202.9 292 202.2C295.6 201.7 304.7 199.6 319.1 196.2C332.8 192.9 340 191.2 340.5 191.2C343.1 191.2 351.5 187.1 365.9 178.7C367.349 177.888 368.76 177.081 370.134 176.279C370.414 183.422 372.388 189.579 375.9 194.2C380.2 200.2 386.4 203.3 394.6 203.3C404.2 203.3 415.2 198.3 428.2 188.7C436.9 182.2 444.8 174.7 452 166.1C455.1 162.5 457.7 157.9 459.4 152.4C460.9 148 461.6 144.7 461.6 141.8L462.1 141.3L462.1 128.1C461.1 128.6 460.6 128.6 460.4 128.6C458 123.6 455.1 119.5 452 115.9C448.4 112.3 445.3 110.4 442.2 110.4C438.1 110.4 434.3 112.5 430.7 116.6C426.9 121.4 425.2 126.7 425.2 132.7C425.2 140.6 431 144.7 442.5 144.7C447.8 144.7 452.1 144 455 143C455.5 144.7 456 146.4 456 147.8C456 150 452.4 154.3 445.4 161.1C437.7 168.3 429.8 174.3 421.6 179.3C411.2 185.6 402.6 188.7 395.4 188.7C387 188.7 381 186 377.2 181C375.787 178.88 374.789 176.482 374.208 173.848C386.472 166.363 395.432 159.31 401.2 152.8C403.2 150.6 404.6 147.5 405.8 143.4C406.7 139.8 407.2 136.9 407.2 134.5C407.2 129.4 405.7 123.9 403.1 117.2C401.4 113.4 399.5 109.3 397.8 105.2C400.7 105.9 402.6 106.4 403.3 106.4C403.8 106.4 404 106.1 404 105.9C404 105.4 403.3 104.5 401.6 102.8C397.6 98.7 394 94.8 390.6 91C390.1 90.5 389.8 90.3 389.6 90.3C389.1 90.3 388.8 90.8 388.6 92C388.1 93.2 387.9 95.4 387.4 98.5C386.9 101.8 386.9 103.5 386.9 104C387.1 104.4 387.6 105.2 388.3 106.6ZM129.8 105.1C132 108.7 133.2 111.4 133.2 113.3C133.2 114.2 131.8 115.7 128.8 117.8C126.2 119.8 124 121.4 122.1 122.4C120.9 120.8 119.7 118.4 118.7 115C117.5 111.8 116.8 109.4 116.8 108C116.8 105.8 117.6 103.7 119 102C120.5 100.1 121.9 99.1 123.6 99.1C125.5 99.1 127.6 101 129.8 105.1ZM488.2 113.1C487.5 113.1 486.5 113.5 485.3 114.5C481.4 117.8 477.6 120.7 473.7 122.7C472.5 123.5 468.4 125.4 462.2 128.5L462.2 141.7C470.6 137.8 477.1 133.8 480.9 129.2C480.9 140.2 485.7 146 495.8 146C504.2 146 511.1 141.2 516.4 131.6C519.6 137.4 523.2 140.5 527 140.5C532.8 140.5 537.1 137.9 540 132.6C542.7 128.2 544.1 123.2 544.1 117.2C544.1 113.3 542.9 110 541 107.1C540.3 106.1 539.8 105.9 539.3 105.9C538.8 105.9 538.3 106.7 538.1 108.1C536.7 112.6 535.7 116 535.5 117.9C537.6 121.5 538.6 123.5 538.6 123.7C537.6 125.3 535.5 126.3 532.1 126.3C529.5 126.3 527.1 125.3 525.4 123.9C523.5 122.5 522.5 120.8 522.5 119.1C522.5 119.6 523.2 117.7 524.2 113.6C524.7 111.5 524.5 110.5 523.5 110.5C522.8 110.5 522.1 110.9 521.1 111.9C518.7 115.8 516.1 119.6 513.7 123.7C509.8 128.8 504.8 131.4 498.8 131.4C491.3 131.4 487.5 128.5 487.5 123.2C487.5 122 487.7 120.5 488.2 118.6C488.7 116.7 488.9 115.2 488.9 114.5C488.9 113.6 488.7 113.1 488.2 113.1ZM264 126C264 124.3 261.4 121.2 255.8 117.1C249.6 112.3 243.1 109.9 237.1 109.9C224.4 109.9 211.7 120.5 199.4 141.6C204.4 143 209.2 144 213.6 144C221.3 144 229.4 142.6 238.1 139.7C244.8 137.5 250.8 134.9 256.6 131.5C261.6 128.6 264 126.7 264 126ZM361.4 137.3C358.8 132 354.2 126.5 348 121.2C345.8 123.4 343.2 127.4 339.8 133.2C336 139.7 334.3 143.8 334.3 145.9C334.3 148.8 336.2 150.2 340.5 150.2C342.4 150.2 344.8 149.5 347.9 148.3C352.2 146.4 356.3 143.7 359.7 140.4C361.2 139 361.7 138 361.4 137.3ZM448.6 130.3C445 125.7 441.9 123.6 439 123.6C434.7 123.6 432.8 124.6 432.8 127C432.8 129.9 435.7 131.3 441.4 131.3C443.264 131.3 445.364 130.906 447.7 130.468C447.996 130.413 448.296 130.356 448.6 130.3ZM474.5 193.9C471.9 194.6 470.4 195.1 469.9 195.1L469.9 194.9C469.9 194.9 470.9 194.2 472.8 193C474.7 191.8 477.6 189.9 481.7 186.8C483.6 184.9 486.5 181.8 490.1 177.4C492.5 174.5 495.1 171.9 498 170C501.6 167.4 505 166.2 508.6 166.2C509.3 166.2 510.5 166.4 512 166.9C513.2 167.4 514.4 167.6 515.4 167.6C517.3 167.6 518.8 166.9 520 165.4C520.7 164 521.7 162.8 522.6 161.3C523.1 160.3 523.8 159.9 524.3 159.9C524.5 159.9 524.5 160.1 524.5 160.6C524.5 161.1 524.3 162.3 523.8 163.7C523.3 164.4 525.2 164.7 528.8 164.7C529.3 164.7 529.5 164.7 529.5 164.5C529.5 164.5 529.3 163.5 528.8 161.9C528.6 161.4 528.8 160.7 529.5 159.7L529.58 159.564C530.522 157.963 530.908 157.305 531.2 157.5C532.2 158.2 532.6 159.7 532.6 161.3C532.6 163 532.1 164.7 531.4 166.6C530.7 168.8 530 170 529.5 170.4C527.8 171.4 525.2 171.1 521.6 169.4C518.7 172.3 515.8 174 513 174C512.3 174 511.1 173.8 509.9 173.3C508.7 172.8 507.7 172.6 507 172.6C502.2 172.6 497.2 174.8 492.1 179.6L481.3 190.4C479 192 476.9 193.2 474.5 193.9ZM60.5 184.1C79 177.4 98.2 170.2 118.3 162.7C118.478 162.649 118.644 162.592 118.794 162.539C119.235 162.386 119.551 162.276 119.7 162.5C119.7 162.5 119.7 163 119.5 163.7C118.5 165.9 117.8 167.1 117.3 167.5C100.5 173.7 80.6 181.4 58 190.8C58.6 188.6 59.3 186.5 60.5 184.1ZM153.4 188.6C152.6 183.3 151 179 148.8 175.9C146.7 172.5 144.3 171.1 141.4 171.1C141.1 171.1 140.4 171.8 139.4 173.7C138.2 175.7 137.7 176.9 137.7 177.1C137.7 177.8 138.2 178.8 139.6 180C141.1 181.2 142 181.9 143 181.9C143.7 181.9 144 181.6 144.2 181.4C144.5 180.9 144.7 180.9 145.2 180.9C146.2 180.9 147.4 183.1 149.3 187.9C151.2 192.5 152.1 195.6 151.9 197.3C152.1 198.3 152.1 199 152.6 199C153.1 199 153.6 198.3 154.3 197.3C155 195.7 156 192.8 156.7 188.7C158.4 179.6 160.1 175 162 175C162.9 175 163.9 175.4 164.6 176.4C165.6 177.4 166.1 178.1 166.3 178.1C166.7 178.1 167.2 177.3 167.7 175.9C168.2 174.9 168.2 174 168.2 173.5C168.2 172.5 167.8 171.5 166.8 170.1C165.8 168.6 164.6 167.9 163.4 167.9C161.2 167.9 159.3 170.1 157.4 174.4C155.7 180.7 154.5 185.5 154 188.6C154 189.1 153.8 189.4 153.8 189.6L153.6 189.6C153.6 189.3 153.6 189.1 153.4 188.6Z" id="Group" fill="#595959" fill-rule="evenodd" stroke="none" clip-path="url(#clip_1)" />
  </g>
</svg>