<?xml version="1.0" encoding="utf-8"?>
<svg width="609.5001px" height="205.1px" viewBox="0 0 609.5001 205.1" version="1.1" xmlns:xlink="http://www.w3.org/1999/xlink" xmlns="http://www.w3.org/2000/svg">
  <defs>
    <path d="M609.5 0L609.5 0L609.5 205.1L0 205.1L0 0L609.5 0Z" id="path_1" />
    <clipPath id="clip_1">
      <use xlink:href="#path_1" clip-rule="evenodd" fill-rule="evenodd" />
    </clipPath>
  </defs>
  <g id="Surah_65_of_114_(modified)">
    <path d="M609.5 0L609.5 0L609.5 205.1L0 205.1L0 0L609.5 0Z" id="Surah_65_of_114_(modified)" fill="none" stroke="none" />
    <path d="M365.4 29.7C365.4 24.9 364.7 21.1 363.2 17.9C363.2 16.2 364.4 12.1 367.3 5.89999C367.5 5.2 367.8 4.7 368 4.7C368.5 4.7 368.7 5.2 369.2 5.89999C369.9 7.59999 371.6 12.1 374.5 19.6C377.6 27.5 379.3 32.3 379.8 34.2C380.3 35.4 380.3 36.6 380.3 37.1C380.3 39.3 378.4 38.1 374.1 33.3C373.6 32.6 373.4 33.1 373.4 34.3C373.4 34.8 374.6 49.7 376.8 79.4C379 108.9 379.9 125.5 379.9 129.3C379.9 140.6 378.2 150.7 374.9 159.3C373.9 161 373.5 162.2 373 163.1L373 163.1C372.3 164.3 372 164.3 371.8 163.6C371.6 162.6 371.8 160.7 372 158.1C372.5 154 372.7 149.5 372.7 144.4C372.7 139.6 371.5 120.4 369.1 86.6C366.6 52.8 365.4 33.8 365.4 29.7L365.4 29.7L365.4 29.7L365.4 29.7L365.4 29.7ZM339.5 24.7C339.5 20.1 338.8 16.3 337.3 13.2C337.3 11.5 338.5 7.39999 341.4 1C341.6 0.300003 341.9 0 342.1 0C342.6 0 342.8 0.199997 343.3 1.2C344 2.89999 345.9 7.39999 348.8 14.9C351.7 22.8 353.4 27.6 354.1 29.3C354.3 30.7 354.6 31.9 354.6 32.4C354.6 34.6 352.4 33.4 348.4 28.6C347.9 28.1 347.7 28.4 347.7 29.6C347.7 29.8 348.7 42.8 350.6 68.2C352.5 93.4 353.5 108.5 353.5 113.6C353.5 121.5 352.1 129.2 349.2 136.6C345.1 146.9 339.1 153.9 331.4 157.2L331.4 144C341 139.9 346 133.7 346 125.3C346 121.2 344.8 104.7 342.6 75.9C340.4 47 339.5 30 339.5 24.7L339.5 24.7L339.5 24.7L339.5 24.7L339.5 24.7ZM314 134.4C315.2 133.7 315.7 133 315 131.8C310.2 121.7 304.2 116.7 297 116.7C282.1 116.7 264.1 128.5 243.2 152C268.9 151.9 292.4 146.1 314 134.4L314 134.4L314 134.4L314 134.4L314 134.4ZM238 151.4C242.3 146.6 245.9 142 249 138C250 136.8 250.4 134.6 250.7 132C250.7 132 250.7 126.7 250.7 115.9C250.7 114.2 249.7 100.3 247.6 74.4C245.7 48.7 244.7 34.6 244.7 31.9C244.9 27.6 244.2 23.7 242.5 20.4C242.5 18.7 243.9 14.6 246.6 8.2C247.1 7.5 247.3 7 247.6 7C247.8 7 248.3 7.5 248.6 8.2C249.6 9.89999 251.2 14.4 254.1 21.9C257 29.8 258.9 34.6 259.4 36.5C259.6 37.9 259.9 38.9 259.9 39.6C259.9 41.8 257.7 40.3 253.7 35.5C253.2 35 253 35.5 253 36.5C253 36.7 254 47.1 255.6 67C257.3 87.4 258.2 98.9 258.2 101.6C258.2 107.1 257.2 117.2 255.1 131.8C274.5 112.4 290.6 102.8 303.1 102.8C308.9 102.8 314.1 105.9 318.5 112.2C322.3 117.2 324 121.6 324 124.9C324 128.5 322.3 132.6 319 137.1C315.4 142.4 310.4 146.7 304.1 150.5C316.1 148.8 325.2 146.4 331.5 143.8L331.5 156.9C327.9 158.3 321.4 160 311.8 161.7C295.7 164.6 278.2 165.8 258.8 165.8C242.7 165.8 231 164.4 223.5 161.5L223.5 146.9C229.6 149.7 234.6 151.4 238 151.4L238 151.4L238 151.4L238 151.4L238 151.4ZM111 52.8C108.6 49.4 105.5 45.1 101.6 39.4C100.4 37.5 99 36.3 97.5 35.3C96.8 35.1 96.5 34.1 96.5 33.1L96.5 23.3C96.5 21.4 96.7 20.4 97.5 20.4C98 20.4 98.7 20.9 99.9 21.8L118.6 36C120 37.2 120.8 37.9 120.8 38.4C120.8 38.9 120.3 39.1 119.1 39.1C117.7 39.1 115 38.9 111.4 37.9C114.5 42 121.7 50.1 133.5 61.9C142.1 70.3 150.5 78.9 159.2 87.3C176.5 104.8 185.1 119.9 185.1 132.4C185.1 133.6 185.1 134.6 184.9 135.8C183.9 144.9 183.2 149.5 182.7 149.5C182.2 149.5 181.5 145.7 180.5 138.2C178.6 126.2 169.7 112.5 153.6 97.4C134.3 78.7 119.9 63.8 111 52.8L111 52.8L111 52.8L111 52.8L111 52.8ZM205.1 126.5C207.5 135.4 213.7 142.1 223.3 146.9L223.3 161.5C217.5 159.1 213.2 156.7 210.1 154.5C205.8 151.1 202.4 147.1 200 141.8C199.5 140.6 198.3 136.8 196.4 130.3C193.8 145.9 190.9 156 187.8 160.3C182 168.5 175.3 174.2 167.9 177.8C164.8 179 159.7 180.7 152.8 182.6C145.6 184.5 140.3 185.5 137 185.7C135.6 185.9 134.8 185.7 134.8 185.5C134.8 185 135.5 184.5 137 183.6C143.5 179.8 154.3 173.5 168.7 164.6C184.8 154 192.9 138.9 192.9 118.8C192.9 115 191.5 103.7 188.8 85.2C186.6 68.9 184.7 55.9 183 46.1C181.6 37.9 180.1 28.8 178.4 18.5C178.4 14.9 179.4 10.8 180.8 5.49997C181.3 4.49997 181.8 3.79997 182 3.79997C182.2 3.79997 182.7 4.49997 183 5.69997C186.1 16.7 189 29.9 191.4 45.3C191.9 47.7 194.3 62.8 198.4 90.4C200.8 106.3 202.9 118.1 205.1 126.5L205.1 126.5L205.1 126.5L205.1 126.5L205.1 126.5ZM104.8 109.2C101.4 103.9 97.4 101.3 93 101.3C89.9 101.3 88.2 102.3 88.2 104.4C88.2 106.6 90.1 108 94.2 108.5C96.4 108.5 100 108.7 104.8 109.2L104.8 109.2L104.8 109.2L104.8 109.2L104.8 109.2ZM0.800011 132.7C1.80001 126.9 3.00001 122.4 4.40001 118.3C4.90001 116.9 5.60001 116.4 6.10001 116.4C6.60001 116.4 6.60001 117.1 6.3 118.8C3.9 131 2.9 137.8 2.9 139.4C2.9 146.8 5.3 153.6 10.3 159.8C17 168.2 26.9 172.3 39.6 172.3C50.2 172.3 61.7 169.2 74.4 163.2C84 158.4 93.6 152.4 102.7 145.2C110.4 139.2 114.7 134.9 115.9 132.7C115.9 129.6 114.2 127.2 110.9 125C107.8 123.3 104.4 122.6 100.3 122.6L90.7 122.6C87.1 122.6 84.2 121.4 82.1 119C79.9 116.6 79 113.7 79 110.1C79 105.1 80.7 100 84.3 94.7C87.7 89.7 91.3 87.3 94.9 87.3C100.9 87.3 106.7 90.7 111.9 97.4C117.4 104.8 120.3 113.5 120.3 123.8C120.3 133.9 117.7 141.6 112.6 147.6C105.9 155.5 96.5 163.4 84.8 170.9C68.2 181.7 53.4 187 39.9 187C25.3 187 14.5 182 7.7 172.1C2.39999 164.7 0 155.1 0 143.3C0.100014 139.7 0.400009 136.1 0.800011 132.7L0.800011 132.7L0.800011 132.7L0.800011 132.7L0.800011 132.7ZM88 66.5L91.8 58.6C92 58.1 92.3 57.9 92.8 57.9C93.3 57.9 95.2 59.1 99 61.7C102.6 64.1 104.5 65.5 104.5 66C104.5 67.7 102.8 71.3 99.7 76.6C99.2 77.3 98.7 77.3 98.3 77.1C95.2 74.7 91.6 72.3 87.5 69.7C86.1 72.6 84.9 75.2 83.4 77.4C83.2 78.1 82.7 78.4 82.2 78.1C78.6 75.2 74.8 72.6 70.9 70.2C70.7 70 70.7 69.7 70.9 69.2L75.5 59.6C75.7 59.1 76.2 58.6 76.5 58.6C77 58.6 78.7 59.8 81.8 62C84.8 63.8 87 65.5 88 66.5L88 66.5L88 66.5L88 66.5L88 66.5ZM309.5 81.1C309.5 83 309 85.2 308.1 87.1C306.9 89.7 305.5 91.2 303.8 91.2C300.9 91.2 299 89.3 297.8 85.4C296.4 90.2 294 92.8 290.4 92.8C289.2 92.8 288 92.1 287 90.6C285.8 89.2 285.3 87 285.3 84.6L285.3 78.4C285.3 77.9 284.8 77.7 284.3 77.4C283.6 77.2 283.3 76.7 283.3 76C283.3 74.6 283.8 73.4 284.7 72.2C285.7 71 286.4 70.5 286.9 70.5C287.6 70.5 288.1 71.7 288.1 74.3C288.1 75.7 287.9 76.9 287.9 77.9C287.7 78.9 287.7 79.6 287.7 80.3C287.7 81.7 287.9 83.2 288.4 84.4C289.1 85.8 290.1 86.8 291 86.8C292.4 86.8 293.6 86.1 294.8 84.9C296 83.7 296.7 82.3 296.7 80.6C296.7 79.6 296.2 78.2 295.7 75.8C295 73.6 294.7 72.2 294.7 71.7C294.7 71.2 294.9 70.5 295.4 69.3C295.9 68.3 296.4 67.9 296.6 67.9C297.1 67.9 297.6 69.3 298.3 72.2C299 75.3 299.5 77.5 299.5 78.9C299.5 83 300.9 85.1 304.1 85.1C305.5 85.1 306.5 84.4 306.7 82.9C304.1 78.1 302.6 74.5 302.6 71.9C302.6 70.5 302.8 69.3 303.8 68.1C304.3 67.4 304.5 66.9 304.8 66.9C305 66.9 305.3 67.4 305.3 68.3C305.5 69.5 305.8 70.7 306 71.7C306 71.7 306.7 73.4 307.9 76.7C309 78.7 309.5 80.1 309.5 81.1L309.5 81.1L309.5 81.1L309.5 81.1L309.5 81.1ZM267.2 60.5C285.7 53.8 304.9 46.6 325 39.1C325.7 38.9 326.2 38.6 326.4 38.9C326.4 38.9 326.4 39.4 326.2 40.1C325.2 42.3 324.5 43.5 324 43.9C307.2 50.1 287.3 57.8 264.7 67.2C265.3 65 266 62.9 267.2 60.5L267.2 60.5L267.2 60.5L267.2 60.5L267.2 60.5ZM314.3 19.9C314.3 20.9 313.8 22.1 312.9 24C311.9 26.2 311 27.6 310 28.1C302.8 33.1 295.1 35.8 286.5 35.8C285.1 35.8 282.9 35.1 280 34.1C277.4 33.1 275.7 32.2 274.7 31.5C274.5 31.3 274.2 31 273.7 30.5C273.2 30 273.2 30 273.5 29.8C273.5 29.8 274.2 29.8 275.4 30C279.7 30.5 284.5 30.2 289.3 29.3C291 28.3 292.7 26.7 294.3 24.5C296.7 17.1 298.1 13 298.1 12.7C298.1 11.3 297.6 10.1 296.9 8.89999C296.4 7.89999 295.7 7.5 295 7.5C293.3 7.5 292.1 8 290.7 9.39999C290 10.1 289.7 10.4 289.5 10.4C289.5 10.4 289.5 9.89999 289.5 8.7C289.5 6.5 290.2 4.89999 291.7 3.2C293.4 1.8 294.8 1 296.3 1C299.7 1 301.6 3.39999 301.6 8.39999C301.6 11.8 299.9 16.6 296.8 22.3C301.6 18 305.7 15.8 308.6 15.8C309.6 15.8 310.5 16 312 16.8C313.6 17.7 314.3 18.9 314.3 19.9L314.3 19.9L314.3 19.9L314.3 19.9L314.3 19.9ZM308.8 23.3C308.8 22.8 308.6 22.6 307.8 22.1C307.1 21.6 306.4 21.6 305.6 21.6C304.4 21.6 302.7 22.3 300.1 24C297.5 25.9 295.5 27.4 294.6 28.8C297 28.6 300.1 27.6 303.7 25.9C307.1 24.5 308.8 23.5 308.8 23.3L308.8 23.3L308.8 23.3L308.8 23.3L308.8 23.3ZM126.8 16.8C140.5 12 154.9 6.69998 170 1.19998C171 0.999985 171.2 0.699982 171.4 0.999985C171.6 0.999985 171.6 1.49998 171.2 2.19998C170.5 4.39998 169.8 5.59998 169.3 5.99998C156.3 10.6 141.5 16.3 124.4 23.5C124.9 21.3 125.6 19.2 126.8 16.8L126.8 16.8L126.8 16.8L126.8 16.8L126.8 16.8ZM166.2 50.6C166.2 50.4 166.4 50.1 166.4 50.1C166.6 49.9 166.6 49.9 166.6 50.1C166.8 50.3 166.8 50.6 166.6 50.8C165.4 58 163.2 61.6 160.1 61.6C157 61.6 155.5 59 155.5 53.7C155.5 47.2 157.2 40.3 161 33.3C162 31.6 162.4 30.7 162.7 30.7L162.7 30.7C162.7 30.9 162.5 31.9 162 33.6C159.6 41 158.4 46.1 158.4 49.2C158.4 53 159.4 55.2 161.5 55.2C163.1 55.2 164.5 53.5 166.2 50.6L166.2 50.6L166.2 50.6L166.2 50.6L166.2 50.6ZM146.8 125.7C146.8 125.5 147 125.2 147 125.2C147.2 125 147.2 125 147.2 125.2C147.4 125.4 147.4 125.7 147.2 125.9C146 133.1 143.8 136.7 140.7 136.7C137.6 136.7 136.1 134.1 136.1 128.8C136.1 122.3 137.8 115.4 141.6 108.4C142.6 106.7 143 105.8 143.3 105.8L143.3 105.8C143.3 106 143.1 107 142.6 108.7C140.2 116.1 139 121.2 139 124.3C139 128.1 140 130.3 142.1 130.3C143.6 130.3 145.1 128.6 146.8 125.7L146.8 125.7L146.8 125.7L146.8 125.7L146.8 125.7ZM222.1 24.5C222.1 24.3 222.3 24 222.3 24C222.5 23.8 222.5 23.8 222.5 24C222.7 24.2 222.7 24.5 222.5 24.7C221.3 31.9 219.1 35.5 216 35.5C212.9 35.5 211.4 32.9 211.4 27.6C211.4 21.1 213.1 14.2 216.9 7.20001C217.9 5.50002 218.3 4.60001 218.6 4.60001L218.6 4.60001C218.6 4.8 218.4 5.8 217.9 7.5C215.5 14.9 214.3 20 214.3 23.1C214.3 26.9 215.3 29.1 217.4 29.1C219 29 220.4 27.3 222.1 24.5L222.1 24.5L222.1 24.5L222.1 24.5L222.1 24.5ZM225 58.8C225 61.4 223.8 64.3 221.9 67.4C219.7 70.5 217.1 73.4 213.7 75.8C212.3 76.8 211.5 77.2 211.3 77.2L211.3 77C211.3 76.8 211.8 76.3 212.7 75.1C218.2 69.1 221.1 65.3 221.1 63.1C221.1 61.4 220.1 60.5 218.5 60.5C217.5 60.5 216.6 60.7 215.9 61.2C215.2 61.4 214.9 61.7 214.7 61.7C214.7 61.7 214.5 61.7 214.5 61.5C214.5 61.5 214.5 61 214.7 60.1C215.7 56 217.6 54.1 220.9 54.1C223.6 54 225 55.7 225 58.8L225 58.8L225 58.8L225 58.8L225 58.8ZM230.3 105.3C230.3 105.1 230.5 104.8 230.5 104.8C230.7 104.6 230.7 104.6 230.7 104.8C230.9 105 230.9 105.3 230.7 105.5C229.5 112.7 227.3 116.3 224.2 116.3C221.1 116.3 219.6 113.7 219.6 108.4C219.6 101.9 221.3 95 225.1 88C226.1 86.3 226.5 85.4 226.8 85.4L226.8 85.4C226.8 85.6 226.6 86.6 226.1 88.3C223.7 95.7 222.5 100.8 222.5 103.9C222.5 107.7 223.5 109.9 225.6 109.9C227.2 109.9 228.6 108.2 230.3 105.3L230.3 105.3L230.3 105.3L230.3 105.3L230.3 105.3ZM274.9 194.1C274.9 193.9 275.1 193.6 275.1 193.6C275.3 193.4 275.3 193.4 275.3 193.6C275.5 193.8 275.5 194.1 275.3 194.3C274.1 201.5 271.9 205.1 268.8 205.1C265.7 205.1 264.2 202.5 264.2 197.2C264.2 190.7 265.9 183.8 269.7 176.8C270.7 175.1 271.1 174.2 271.4 174.2L271.4 174.2C271.4 174.4 271.2 175.4 270.7 177.1C268.3 184.5 267.1 189.6 267.1 192.7C267.1 196.5 268.1 198.7 270.2 198.7C271.8 198.7 273.2 197 274.9 194.1L274.9 194.1L274.9 194.1L274.9 194.1L274.9 194.1ZM316.4 175.9C319.3 175.9 321.7 177.3 323.8 180.7C326 183.8 327.6 188.1 328.4 193.4C328.6 193.9 328.6 194.1 328.6 194.4L328.8 194.4C328.8 194.2 329 193.9 329 193.4C329.5 190.3 330.7 185.5 332.4 179.2C334.3 174.9 336.2 172.7 338.4 172.7C339.6 172.7 340.8 173.4 341.8 174.9C342.8 176.3 343.2 177.3 343.2 178.3C343.2 178.8 343.2 179.7 342.7 180.7C342.2 182.1 341.7 182.9 341.3 182.9C341.1 182.9 340.6 182.2 339.6 181.2C338.9 180.2 337.9 179.8 337 179.8C335.1 179.8 333.4 184.4 331.7 193.5C331 197.6 330 200.5 329.3 202.1C328.6 203.1 328.1 203.8 327.6 203.8C327.1 203.8 327.1 203.1 326.9 202.1C327.1 200.4 326.2 197.3 324.3 192.7C322.4 187.9 321.2 185.7 320.2 185.7C319.7 185.7 319.5 185.7 319.2 186.2C319 186.4 318.7 186.7 318 186.7C317 186.7 316.1 186 314.6 184.8C313.2 183.6 312.7 182.6 312.7 181.9C312.7 181.7 313.2 180.5 314.4 178.5C315.5 176.6 316.2 175.9 316.4 175.9L316.4 175.9L316.4 175.9L316.4 175.9L316.4 175.9ZM200 175.9C202.9 175.9 205.3 177.3 207.4 180.7C209.6 183.8 211.2 188.1 212 193.4C212.2 193.9 212.2 194.1 212.2 194.4L212.4 194.4C212.4 194.2 212.6 193.9 212.6 193.4C213.1 190.3 214.3 185.5 216 179.2C217.9 174.9 219.8 172.7 222 172.7C223.2 172.7 224.4 173.4 225.4 174.9C226.4 176.3 226.8 177.3 226.8 178.3C226.8 178.8 226.8 179.7 226.3 180.7C225.8 182.1 225.3 182.9 224.9 182.9C224.7 182.9 224.2 182.2 223.2 181.2C222.5 180.2 221.5 179.8 220.6 179.8C218.7 179.8 217 184.4 215.3 193.5C214.6 197.6 213.6 200.5 212.9 202.1C212.2 203.1 211.7 203.8 211.2 203.8C210.7 203.8 210.7 203.1 210.5 202.1C210.7 200.4 209.8 197.3 207.9 192.7C206 187.9 204.8 185.7 203.8 185.7C203.3 185.7 203.1 185.7 202.8 186.2C202.6 186.4 202.3 186.7 201.6 186.7C200.6 186.7 199.7 186 198.2 184.8C196.8 183.6 196.3 182.6 196.3 181.9C196.3 181.7 196.8 180.5 198 178.5C199.1 176.6 199.8 175.9 200 175.9L200 175.9L200 175.9L200 175.9L200 175.9ZM13.3 106.1C13.3 105.9 13.5 105.6 13.5 105.6C13.7 105.4 13.7 105.4 13.7 105.6C13.9 105.8 13.9 106.1 13.7 106.3C12.5 113.5 10.3 117.1 7.2 117.1C4.10001 117.1 2.60001 114.5 2.60001 109.2C2.60001 102.7 4.3 95.8 8.10001 88.8C9.10001 87.1 9.50001 86.2 9.8 86.2L9.8 86.2C9.8 86.4 9.60001 87.4 9.10001 89.1C6.7 96.5 5.50001 101.6 5.50001 104.7C5.50001 108.5 6.50001 110.7 8.60001 110.7C10.2 110.6 11.6 108.9 13.3 106.1L13.3 106.1L13.3 106.1L13.3 106.1L13.3 106.1ZM36.6 119C39.5 119 41.9 120.4 44 123.8C46.2 126.9 47.8 131.2 48.6 136.5C48.8 137 48.8 137.2 48.8 137.5L49 137.5C49 137.3 49.2 137 49.2 136.5C49.7 133.4 50.9 128.6 52.6 122.3C54.5 118 56.4 115.8 58.6 115.8C59.8 115.8 61 116.5 62 118C63 119.4 63.4 120.4 63.4 121.4C63.4 121.9 63.4 122.8 62.9 123.8C62.4 125.2 61.9 126 61.5 126C61.3 126 60.8 125.3 59.8 124.3C59.1 123.3 58.1 122.9 57.2 122.9C55.3 122.9 53.6 127.5 51.9 136.6C51.2 140.7 50.2 143.6 49.5 145.2C48.8 146.2 48.3 146.9 47.8 146.9C47.3 146.9 47.3 146.2 47.1 145.2C47.3 143.5 46.4 140.4 44.5 135.8C42.6 131 41.4 128.8 40.4 128.8C39.9 128.8 39.7 128.8 39.4 129.3C39.2 129.5 38.9 129.8 38.2 129.8C37.2 129.8 36.3 129.1 34.8 127.9C33.4 126.7 32.9 125.7 32.9 125C32.9 124.8 33.4 123.6 34.6 121.6C35.6 119.7 36.4 119 36.6 119L36.6 119L36.6 119L36.6 119L36.6 119ZM81.5 188.4C95.2 183.6 109.6 178.3 124.7 172.8C125.7 172.6 125.9 172.3 126.1 172.6C126.3 172.6 126.3 173.1 125.9 173.8C125.2 176 124.5 177.2 124 177.6C111 182.2 96.2 187.9 79.1 195.1C79.6 192.9 80.3 190.8 81.5 188.4L81.5 188.4L81.5 188.4L81.5 188.4L81.5 188.4ZM73.3 35.5C73.3 35.3 73.5 35 73.5 35C73.7 34.8 73.7 34.8 73.7 35C73.9 35.2 73.9 35.5 73.7 35.7C72.5 42.9 70.3 46.5 67.2 46.5C64.1 46.5 62.6 43.9 62.6 38.6C62.6 32.1 64.3 25.2 68.1 18.2C69.1 16.5 69.5 15.6 69.8 15.6L69.8 15.6C69.8 15.8 69.6 16.8 69.1 18.5C66.7 25.9 65.5 31 65.5 34.1C65.5 37.9 66.5 40.1 68.6 40.1C70.2 40.1 71.6 38.4 73.3 35.5L73.3 35.5L73.3 35.5L73.3 35.5L73.3 35.5ZM28.2 59.3C31.1 59.3 33.5 60.7 35.6 64.1C37.8 67.2 39.4 71.5 40.2 76.8C40.4 77.3 40.4 77.5 40.4 77.8L40.6 77.8C40.6 77.6 40.8 77.3 40.8 76.8C41.3 73.7 42.5 68.9 44.2 62.6C46.1 58.3 48 56.1 50.2 56.1C51.4 56.1 52.6 56.8 53.6 58.3C54.6 59.7 55 60.7 55 61.7C55 62.2 55 63.1 54.5 64.1C54 65.5 53.5 66.3 53.1 66.3C52.9 66.3 52.4 65.6 51.4 64.6C50.7 63.6 49.7 63.2 48.8 63.2C46.9 63.2 45.2 67.8 43.5 76.9C42.8 81 41.8 83.9 41.1 85.5C40.4 86.5 39.9 87.2 39.4 87.2C38.9 87.2 38.9 86.5 38.7 85.5C38.9 83.8 38 80.7 36.1 76.1C34.2 71.3 33 69.1 32 69.1C31.5 69.1 31.3 69.1 31 69.6C30.8 69.8 30.5 70.1 29.8 70.1C28.8 70.1 27.9 69.4 26.4 68.2C24.9 67 24.5 66 24.5 65.3C24.5 65.1 25 63.9 26.2 61.9C27.2 60 28 59.3 28.2 59.3L28.2 59.3L28.2 59.3L28.2 59.3L28.2 59.3ZM550.7 115.2C551.9 114.2 552.9 113.8 553.6 113.8C554.1 113.8 554.3 114.3 554.3 115.2C554.3 115.9 554.1 117.4 553.6 119.3C553.1 121.2 552.9 122.7 552.9 123.9C552.9 129.2 556.7 132.1 564.2 132.1C570.2 132.1 575.2 129.5 579.1 124.4C581.5 120.3 584.1 116.5 586.5 112.6C587.5 111.6 588.2 111.2 588.9 111.2C589.9 111.2 590.1 112.2 589.6 114.3C588.6 118.4 587.9 120.3 587.9 119.8C587.9 121.5 588.9 123.2 590.8 124.6C592.5 126 594.9 127 597.5 127C600.9 127 603 126 604 124.4C604 124.2 603 122.2 600.9 118.6C601.1 116.7 602.1 113.3 603.5 108.8C603.7 107.4 604.2 106.6 604.7 106.6C605.2 106.6 605.7 106.8 606.4 107.8C608.3 110.7 609.5 114 609.5 117.9C609.5 123.9 608.1 128.9 605.4 133.3C602.5 138.6 598.2 141.2 592.4 141.2C588.6 141.2 585 138.1 581.8 132.3C576.5 141.9 569.6 146.7 561.2 146.7C551.1 146.7 546.3 140.9 546.3 129.9C542.5 134.5 536 138.5 527.6 142.4L527.6 129.2C533.8 126.1 537.9 124.2 539.1 123.4C543 121.4 546.8 118.5 550.7 115.2L550.7 115.2L550.7 115.2L550.7 115.2L550.7 115.2ZM514 131C510.4 126.4 507.3 124.3 504.4 124.3C500.1 124.3 498.2 125.3 498.2 127.7C498.2 130.6 501.1 132 506.8 132C508.9 132 511.3 131.5 514 131L514 131L514 131L514 131L514 131ZM521.4 148.5C521.4 147.1 520.9 145.4 520.4 143.7C517.5 144.7 513.2 145.4 507.9 145.4C496.4 145.4 490.6 141.3 490.6 133.4C490.6 127.4 492.3 122.1 496.1 117.3C499.7 113.2 503.5 111.1 507.6 111.1C510.7 111.1 513.8 113 517.4 116.6C520.5 120.2 523.4 124.3 525.8 129.3C526 129.3 526.5 129.3 527.5 128.8L527.5 142L527 142.5C527 145.4 526.3 148.7 524.8 153.1C523.1 158.6 520.5 163.2 517.4 166.8C510.2 175.4 502.3 182.9 493.6 189.4C480.6 199 469.6 204 460 204C451.8 204 445.6 200.9 441.3 194.9C437.5 189.9 435.5 183.1 435.5 175.2C435.5 165.1 437.7 154.8 441.7 144C442.9 141.6 443.4 140.6 443.9 140.6C444.1 140.6 444.1 140.8 444.1 141.3C444.1 142 443.9 143.2 443.6 144.7C440.5 155.3 439 163.2 439 168.7C439 173.7 440.2 178.1 442.6 181.7C446.4 186.7 452.4 189.4 460.8 189.4C468 189.4 476.6 186.3 487 180C495.2 175 503.1 169 510.8 161.8C517.8 155 521.4 150.7 521.4 148.5L521.4 148.5L521.4 148.5L521.4 148.5L521.4 148.5ZM455.9 112.3C455.4 110.1 454.7 108.5 453.7 107.3C453 105.9 452.5 105.1 452.3 104.7C452.3 104.2 452.3 102.5 452.8 99.2C453.3 96.1 453.5 93.9 454 92.7C454.2 91.5 454.5 91 455 91C455.2 91 455.5 91.2 456 91.7C459.4 95.5 463 99.4 467 103.5C468.7 105.2 469.4 106.1 469.4 106.6C469.4 106.8 469.2 107.1 468.7 107.1C468 107.1 466.1 106.6 463.2 105.9C464.9 110 466.8 114.1 468.5 117.9C471.1 124.6 472.6 130.1 472.6 135.2C472.6 137.6 472.1 140.5 471.2 144.1C470 148.2 468.6 151.3 466.6 153.5C459.6 161.4 447.9 170.1 431.3 179.4C416.9 187.8 408.5 191.9 405.9 191.9C405.4 191.9 398.2 193.6 384.5 196.9C370.1 200.3 361 202.4 357.4 202.9C353.6 203.6 351.2 203.9 350.2 203.9C349.7 203.9 349.7 203.9 349.7 203.7C349.7 203.5 352.3 202 357.6 199.6C359.5 198.6 370.6 193.8 391 185.2C405.2 179.2 416.9 173.7 426.3 168.6C440.5 160.9 451.3 154.2 458.7 148.7C464.2 144.4 467.1 141.3 467.1 139.3C467.1 138.8 465.7 135.5 462.8 129.2C459.5 122.1 457.1 116.4 455.9 112.3L455.9 112.3L455.9 112.3L455.9 112.3L455.9 112.3ZM436.2 78.9C436.2 82.7 434.3 88 430.4 94.5C428 98.6 424.4 104.1 419.6 111.3C424.4 116.8 427.8 121.9 429.4 126.2C430.4 129.3 431.1 133.4 431.1 138C431.1 139.9 430.6 142.3 429.7 145.4C429 148.3 428 150.4 427.1 151.9C425.2 154.8 422.1 157.7 417.3 160.5C412.3 163.9 407.9 165.5 404.3 165.5C398.5 165.5 395.7 161.2 395.7 152.5C395.7 146.7 396.7 141 398.6 135.7C400.5 131.1 403.6 125.1 408.7 117.2C404.4 113.1 399.8 107.4 394.8 100.2C394.3 99.5 393.1 98.3 391.2 96.4C390.2 95.4 389.8 94.2 389.8 92.8C389.8 90.6 390 88.2 390.5 85.4C391.2 82.5 391.7 81.3 391.9 81.3C392.6 81.3 394.8 82.5 398.9 85.1C402.7 87.7 405.9 89.7 407.8 91.3C409 92 409.5 92.7 409.5 92.7L409.5 92.9C409.5 93.1 408.8 93.4 407.1 93.4C404 93.4 402.3 93.6 402.3 93.9C402.3 94.1 402.8 94.6 403.7 95.8C407.5 100.6 411.4 104.2 415.5 107.1C416.5 105.7 419.8 100.9 425.1 92.7C429.7 85.7 432.3 80.9 433.5 78.1C434.7 75.2 435.4 74 435.9 74C436 74.1 436.2 75.6 436.2 78.9L436.2 78.9L436.2 78.9L436.2 78.9L436.2 78.9ZM426.8 138C424.2 132.7 419.6 127.2 413.4 121.9C411.2 124.1 408.6 128.1 405.2 133.9C401.4 140.4 399.7 144.5 399.7 146.6C399.7 149.5 401.6 150.9 405.9 150.9C407.8 150.9 410.2 150.2 413.3 149C417.6 147.1 421.7 144.4 425.1 141.1C426.6 139.7 427.1 138.7 426.8 138L426.8 138L426.8 138L426.8 138L426.8 138ZM413.6 60.9L417.4 53C417.6 52.5 417.9 52.3 418.4 52.3C418.9 52.3 420.8 53.5 424.6 56.1C428.2 58.5 430.1 59.9 430.1 60.4C430.1 62.1 428.4 65.7 425.3 71C424.8 71.7 424.3 71.7 423.9 71.5C420.8 69.1 417.2 66.7 413.1 64.1C411.7 67 410.5 69.6 409 71.8C408.8 72.5 408.3 72.8 407.8 72.5C404.2 69.6 400.4 67 396.5 64.6C396.3 64.4 396.3 64.1 396.5 63.6L401.1 54C401.3 53.5 401.8 53 402.1 53C402.6 53 404.3 54.2 407.4 56.4C410.5 58.3 412.7 60 413.6 60.9L413.6 60.9L413.6 60.9L413.6 60.9L413.6 60.9ZM539.9 194.6C537.3 195.3 535.8 195.8 535.3 195.8L535.3 195.6C535.3 195.6 536.3 194.9 538.2 193.7C540.1 192.5 543 190.6 547.1 187.5C549 185.6 551.9 182.5 555.5 178.1C557.9 175.2 560.5 172.6 563.4 170.7C567 168.1 570.4 166.9 574 166.9C574.7 166.9 575.9 167.1 577.4 167.6C578.6 168.1 579.8 168.3 580.8 168.3C582.7 168.3 584.2 167.6 585.4 166.1C586.1 164.7 587.1 163.5 588 162C588.5 161 589.2 160.6 589.7 160.6C589.9 160.6 589.9 160.8 589.9 161.3C589.9 161.8 589.7 163 589.2 164.4C588.7 165.1 590.6 165.4 594.2 165.4C594.7 165.4 594.9 165.4 594.9 165.2C594.9 165.2 594.7 164.2 594.2 162.6C594 162.1 594.2 161.4 594.9 160.4C595.9 158.7 596.3 158 596.6 158.2C597.6 158.9 598 160.4 598 162C598 163.7 597.5 165.4 596.8 167.3C596.1 169.5 595.4 170.7 594.9 171.1C593.2 172.1 590.6 171.8 587 170.1C584.1 173 581.2 174.7 578.4 174.7C577.7 174.7 576.5 174.5 575.3 174C574.1 173.5 573.1 173.3 572.4 173.3C567.6 173.3 562.6 175.5 557.5 180.3C553.9 183.9 550.3 187.5 546.7 191.1C544.4 192.7 542.3 193.9 539.9 194.6L539.9 194.6L539.9 194.6L539.9 194.6L539.9 194.6ZM488.5 65C491.4 65 493.8 66.4 495.9 69.8C498.1 72.9 499.7 77.2 500.5 82.5C500.7 83 500.7 83.2 500.7 83.5L500.9 83.5C500.9 83.3 501.1 83 501.1 82.5C501.6 79.4 502.8 74.6 504.5 68.3C506.4 64 508.3 61.8 510.5 61.8C511.7 61.8 512.9 62.5 513.9 64C514.9 65.4 515.3 66.4 515.3 67.4C515.3 67.9 515.3 68.8 514.8 69.8C514.3 71.2 513.8 72 513.4 72C513.2 72 512.7 71.3 511.7 70.3C511 69.3 510 68.9 509.1 68.9C507.2 68.9 505.5 73.5 503.8 82.6C503.1 86.7 502.1 89.6 501.4 91.2C500.7 92.2 500.2 92.9 499.7 92.9C499.2 92.9 499.2 92.2 499 91.2C499.2 89.5 498.3 86.4 496.4 81.8C494.5 77 493.3 74.8 492.3 74.8C491.8 74.8 491.6 74.8 491.3 75.3C491.1 75.5 490.8 75.8 490.1 75.8C489.1 75.8 488.2 75.1 486.7 73.9C485.3 72.7 484.8 71.7 484.8 71C484.8 70.8 485.3 69.6 486.5 67.6C487.6 65.7 488.3 65 488.5 65L488.5 65L488.5 65L488.5 65L488.5 65ZM447.7 62.1C471.9 53 497.1 43.9 523.1 34.3C523.8 34.1 524.3 33.8 524.3 34.1C524.5 34.1 524.5 34.6 524.3 35.3C523.3 37.5 522.6 38.7 522.1 39.1C521.9 39.3 509.6 43.9 485.9 52.8C461.7 61.7 448 67.2 445.3 68.9C445.8 66.7 446.5 64.5 447.7 62.1L447.7 62.1L447.7 62.1L447.7 62.1L447.7 62.1ZM424.2 18.2C424.7 16.8 424.7 15.3 424.4 13.9C424.2 12.5 423.4 11.7 422.2 11.7C421.7 11.7 421 11.9 420 12.4C419 12.9 418.6 13.4 418.6 13.8C418.7 15.1 420.6 16.5 424.2 18.2L424.2 18.2L424.2 18.2L424.2 18.2L424.2 18.2ZM421.3 24.5C416.7 22.1 414.6 19.7 414.6 17.1C414.6 14 416 11.1 418.9 8.70001C421.8 6.10001 424.2 5.10001 426.1 5.80002C427.8 6.30002 428.5 8.00002 428.5 10.8C428.5 13.4 428 16.3 426.8 19.7C429.2 20.9 430.6 22.1 431.1 23.1C431.1 24.3 430.1 26.5 428 29.3C427.5 28.3 426.1 27.1 423.9 25.9C421.3 29.5 418.1 32.6 414.3 35.5C409.7 38.6 405.7 41.3 402.1 42.7C401.1 43.2 396.8 44.9 389.1 47.7C387.9 48.2 386.9 48.4 386.7 48.4C386.5 48.4 386.5 48.2 386.5 48.2C386.5 48 387 47.2 388.4 46.5C394.2 42.9 399.9 39.5 405.9 36.2C412.9 31.9 418 28.1 421.3 24.5L421.3 24.5L421.3 24.5L421.3 24.5L421.3 24.5ZM573 54.5C573.5 53.1 573.5 51.6 573.2 50.2C573 48.8 572.2 48 571 48C570.5 48 569.8 48.2 568.8 48.7C567.8 49.2 567.4 49.7 567.4 50.1C567.5 51.3 569.4 52.8 573 54.5L573 54.5L573 54.5L573 54.5L573 54.5ZM578.3 63.3C575.9 69.1 574.7 73.6 574.7 77C574.7 81.1 575.7 83.2 577.8 83.2C579 83.2 580.4 81.5 582.1 78.6C582.3 78.4 582.3 78.1 582.6 77.9C582.6 77.9 582.8 77.9 582.8 78.1C582.8 78.1 582.8 78.3 582.8 78.8C581.4 86 579.2 89.6 576.3 89.6C573.2 89.6 571.7 87 571.7 81.7C571.7 79.1 572.2 75.7 573.6 71.4C575 67.1 575.8 64.9 575.8 64.7C575.8 64.2 574.8 63.3 572.7 62.1C568.9 67.1 563.6 71.9 556.9 76C552.3 78.6 547.8 81 543 83C534.1 86.6 528.8 88.5 527.6 89.2C526.4 89.7 525.7 89.9 525.2 89.9C525 89.9 525 89.7 525 89.7C525 89.2 525.5 88.7 526.9 87.8C534.6 83.5 542 79.2 549.7 74.8C559.8 69 566.7 64.2 570.1 60.6C565.5 58.2 563.4 55.8 563.4 53.2C563.4 50.1 564.8 47.2 567.7 44.6C570.6 42.2 573 41.2 574.9 42C576.3 42.5 577.3 44.2 577.3 47C577.3 49.6 576.8 52.5 575.6 55.6C578 57 579 58.5 579 59.9C579 60.7 578.8 61.9 578.3 63.3L578.3 63.3L578.3 63.3L578.3 63.3L578.3 63.3ZM469.1 28.3C469.1 28.1 469.3 27.8 469.3 27.8C469.5 27.6 469.5 27.6 469.5 27.8C469.7 28 469.7 28.3 469.5 28.5C468.3 35.7 466.1 39.3 463 39.3C459.9 39.3 458.4 36.7 458.4 31.4C458.4 24.9 460.1 18 463.9 11C464.9 9.3 465.3 8.39999 465.6 8.39999L465.6 8.39999C465.6 8.59999 465.4 9.59999 464.9 11.3C462.5 18.7 461.3 23.8 461.3 26.9C461.3 30.7 462.3 32.9 464.4 32.9C466 32.9 467.4 31.2 469.1 28.3L469.1 28.3L469.1 28.3L469.1 28.3L469.1 28.3Z" id="Group" fill="#595959" stroke="none" clip-path="url(#clip_1)" />
  </g>
</svg>