<?xml version="1.0" encoding="utf-8"?>
<svg width="440.50012px" height="198.91705px" viewBox="0 0 440.50012 198.91705" version="1.1" xmlns:xlink="http://www.w3.org/1999/xlink" xmlns="http://www.w3.org/2000/svg">
  <defs>
    <path d="M440.5 0L440.5 0L440.5 198.917L0 198.917L0 0L440.5 0Z" id="path_1" />
    <clipPath id="clip_1">
      <use xlink:href="#path_1" clip-rule="evenodd" fill-rule="evenodd" />
    </clipPath>
  </defs>
  <g id="Surah_36_of_114_(modified)">
    <path d="M440.5 0L440.5 0L440.5 198.917L0 198.917L0 0L440.5 0Z" id="Surah_36_of_114_(modified)" fill="none" stroke="none" />
    <path d="M245.6 11.517C245.6 14.117 247.7 16.517 252.3 18.917C249 22.517 243.9 26.317 236.9 30.6171C230.9 33.9171 225.2 37.317 219.4 40.9171C218 41.6171 217.5 42.4171 217.5 42.6171C217.5 42.6171 217.5 42.817 217.7 42.817C217.9 42.817 218.9 42.6171 220.1 42.1171C227.8 39.317 232.1 37.6171 233.1 37.1171C236.7 35.7171 240.7 33.0171 245.3 29.9171C249.1 27.017 252.3 23.9171 254.9 20.317C257.1 21.517 258.5 22.717 259 23.717C261.1 20.917 262.1 18.717 262.1 17.517C261.6 16.517 260.2 15.317 257.8 14.1171C259 10.7171 259.5 7.81706 259.5 5.21706C259.5 2.41705 258.8 0.717056 257.1 0.217056C255.2 -0.482956 252.8 0.517044 249.9 3.11705C247 5.51704 245.6 8.41704 245.6 11.517ZM194.2 3.31705C197.1 3.31705 199.5 4.71704 201.6 8.11705C203.8 11.2171 205.4 15.517 206.2 20.817C206.4 21.317 206.4 21.517 206.4 21.817L206.6 21.817C206.6 21.6171 206.8 21.317 206.8 20.817C207.3 17.717 208.5 12.9171 210.2 6.61705C212.1 2.31705 214 0.11705 216.2 0.11705C217.4 0.11705 218.6 0.817047 219.6 2.31705C220.6 3.71704 221 4.71704 221 5.71704C221 6.21704 221 7.11703 220.5 8.11704C220 9.51703 219.5 10.317 219.1 10.317C218.9 10.317 218.4 9.61703 217.4 8.61703C216.7 7.61704 215.7 7.21704 214.8 7.21704C212.9 7.21704 211.2 11.817 209.5 20.917C208.8 25.017 207.8 27.917 207.1 29.517C206.4 30.517 205.9 31.217 205.4 31.217C204.9 31.217 204.9 30.517 204.7 29.517C204.9 27.817 204 24.717 202.1 20.1171C200.2 15.317 199 13.1171 198 13.1171C197.5 13.1171 197.3 13.1171 197 13.6171C196.8 13.817 196.5 14.1171 195.8 14.1171C194.8 14.1171 193.9 13.4171 192.4 12.2171C191 11.0171 190.5 10.0171 190.5 9.31706C190.5 9.11707 191 7.91707 192.2 5.91707C193.3 4.01704 194 3.31705 194.2 3.31705ZM141.7 10.717C141.7 11.217 141.5 12.117 141.2 13.117C140.7 14.517 140.2 15.317 139.5 15.317C139.3 15.317 138.8 14.617 137.8 13.617C137.1 12.617 136.1 12.217 135.4 12.217C133.5 12.217 131.6 16.817 129.9 25.917C129.2 30.017 128.5 32.617 127.5 34.317C126.8 35.517 126.3 36.017 125.8 36.017C125.6 36.017 125.3 35.517 125.3 34.617C125.3 32.917 124.3 29.817 122.4 25.217C120.7 20.417 119.3 18.217 118.6 18.217C118.1 18.217 117.6 18.217 117.6 18.717C117.4 18.917 116.9 19.217 116.2 19.217C115.2 19.217 114 18.517 112.6 17.317C112.083 16.7999 111.688 16.3373 111.407 15.9344C112.051 14.5468 112.337 13.5969 112.2 13.1171C112.4 13.1171 112.2 12.9171 112.2 12.9171C112 12.9171 111.5 13.317 111 14.317C110.958 14.3847 110.914 14.453 110.87 14.5218C110.877 14.4848 110.887 14.4498 110.9 14.4171C113.1 10.317 114.3 8.41705 114.7 8.41705C117.3 8.41705 120 9.81705 122.1 13.2171C124.3 16.3171 125.7 20.6171 126.7 25.7171L126.7 26.7171C126.809 26.8264 126.859 26.8759 126.881 26.8657C126.9 26.8573 126.9 26.8077 126.9 26.7171C126.9 26.7171 127.1 26.5171 127.4 25.7171C127.9 22.8171 128.8 18.0171 130.5 11.8171C132.4 7.51706 134.3 5.31706 136.7 5.31706C137.7 5.31706 138.9 6.01706 140.1 7.51706C141.2 8.81705 141.7 9.81705 141.7 10.717ZM110.87 14.5218C110.809 14.8411 110.976 15.318 111.407 15.9344C111.111 16.5709 110.74 17.2995 110.3 18.1171C107.9 22.7171 104.5 26.317 100.2 29.4171C95.6 32.817 91.6 35.2171 88 36.817C87.3 37.317 83 39.017 75 41.817C73.8 42.317 73.1 42.517 72.6 42.517C72.4 42.517 72.4 42.317 72.4 42.317C72.4 42.1171 73.1 41.317 74.3 40.6171C81 37.017 90.1 31.2171 101.9 23.317C106.467 19.9158 109.335 16.8922 110.87 14.5218ZM255.4 8.31703C255.7 9.71704 255.7 11.217 255.2 12.617C251.6 11.017 249.7 9.51704 249.6 8.21703C249.6 7.81703 250 7.31703 251 6.81703C252 6.31703 252.7 6.11703 253.2 6.11703C254.4 6.11703 255.2 6.91704 255.4 8.31703ZM296.9 25.617C296.9 25.617 296.7 25.917 296.7 26.117C295 29.017 293.6 30.617 292 30.717C289.9 30.717 288.9 28.517 288.9 24.717C288.9 21.617 290.1 16.517 292.5 9.11703C293 7.41704 293.2 6.41704 293.2 6.21704C292.9 6.21704 292.5 7.11705 291.5 8.81705C287.7 15.817 286 22.717 286 29.217C286 34.517 287.5 37.117 290.6 37.117C293.7 37.117 295.9 33.517 297.1 26.317C297.3 26.117 297.3 25.817 297.1 25.617C297.1 25.5264 297.1 25.4768 297.081 25.4683C297.059 25.4582 297.009 25.5077 296.9 25.617ZM161.6 60.617C162 60.617 162.3 59.9171 163 58.717C164 56.117 164.7 53.217 164.8 50.217C164.8 40.617 161 32.917 153.3 27.417C152.8 26.917 152.5 26.917 152.3 27.417L150.1 31.217C149.6 31.617 149.6 32.417 150.1 32.617C158.1 39.517 161.9 46.217 161.9 53.217C161.9 55.117 161.6 57.017 161.4 58.217C161.1 59.617 161.1 60.617 161.6 60.617ZM278.7 56.617C302.9 47.517 328.1 38.417 354.1 28.817C354.302 28.7593 354.488 28.6932 354.649 28.6356C355.047 28.4938 355.3 28.4037 355.3 28.617C355.5 28.617 355.5 29.117 355.3 29.817C354.3 32.017 353.6 33.217 353.1 33.617C352.9 33.817 340.6 38.417 316.9 47.317C292.7 56.217 279 61.717 276.3 63.417C276.8 61.117 277.5 59.017 278.7 56.617ZM409.3 57.817C406.9 63.617 405.7 68.117 405.7 71.5171C405.7 75.6171 406.7 77.7171 408.8 77.7171C410 77.7171 411.4 76.0171 413.1 73.1171C413.3 72.9171 413.3 72.6171 413.6 72.4171C413.6 72.4171 413.8 72.4171 413.8 72.6171L413.8 73.3171C412.4 80.5171 410.2 84.1171 407.3 84.1171C404.2 84.1171 402.7 81.5171 402.7 76.2171C402.7 73.6171 403.2 70.2171 404.6 65.9171C406 61.6171 406.8 59.4171 406.8 59.2171C406.8 58.7171 405.8 57.8171 403.7 56.6171C399.9 61.6171 394.6 66.4171 387.9 70.5171C383.3 73.1171 378.8 75.5171 374 77.5171C365.1 81.1171 359.8 83.0171 358.6 83.7171C357.4 84.2171 356.7 84.4171 356.2 84.4171C356 84.4171 356 84.2171 356 84.2171C356 83.7171 356.5 83.2171 357.9 82.3171C365.6 78.0171 373 73.7171 380.7 69.3171C390.8 63.5171 397.7 58.7171 401.1 55.1171C396.5 52.7171 394.4 50.3171 394.4 47.7171C394.4 44.6171 395.8 41.7171 398.7 39.1171C401.6 36.7171 404 35.7171 405.9 36.5171C407.3 37.0171 408.3 38.7171 408.3 41.5171C408.3 44.1171 407.8 47.0171 406.6 50.1171C409 51.5171 410 53.0171 410 54.4171C410 55.117 409.8 56.317 409.3 57.817ZM404 48.917C404.5 47.517 404.5 46.017 404.2 44.617C404 43.217 403.2 42.417 402 42.417C401.5 42.417 400.8 42.617 399.8 43.117C398.8 43.617 398.4 44.117 398.4 44.517C398.5 45.817 400.4 47.217 404 48.917ZM248.2 47.5171L244.4 55.4171C243.4 54.4171 241.3 52.717 238.2 50.9171C235.1 48.7171 233.4 47.5171 232.9 47.5171C232.6 47.5171 232.1 48.0171 231.9 48.5171L227.3 58.1171C227.1 58.6171 227.1 58.9171 227.3 59.1171C231.2 61.5171 235 64.1171 238.6 67.0171C239.1 67.3171 239.6 67.0171 239.8 66.3171C241.3 64.1171 242.5 61.5171 243.9 58.6171C248 61.2171 251.6 63.6171 254.7 66.0171C255.1 66.2171 255.6 66.2171 256.1 65.5171C259.2 60.217 260.9 56.6171 260.9 54.9171C260.9 54.4171 259 53.0171 255.4 50.6171C251.6 48.0171 249.7 46.8171 249.2 46.8171C248.7 46.8171 248.4 47.0171 248.2 47.5171ZM18 54.917C15.9 51.517 13.5 50.117 10.6 50.117C10.4 50.117 9.69998 50.817 8.59998 52.7171C7.39998 54.7171 6.89998 55.9171 6.89998 56.1171C6.89998 56.817 7.39998 57.817 8.79997 59.0171C10.3 60.217 11.2 60.9171 12.2 60.9171C12.9 60.9171 13.2 60.6171 13.4 60.4171C13.7 59.9171 13.9 59.9171 14.4 59.9171C15.4 59.9171 16.6 62.1171 18.5 66.9171C20.4 71.5171 21.3 74.617 21.1 76.317C21.3 77.317 21.3 78.0171 21.8 78.0171C22.3 78.0171 22.8 77.317 23.5 76.317C24.2 74.717 25.2 71.817 25.9 67.717C27.6 58.617 29.3 54.017 31.2 54.017C32.1 54.017 33.1 54.417 33.8 55.417C34.8 56.417 35.3 57.117 35.5 57.117C35.9 57.117 36.4 56.317 36.9 54.917C37.4 53.917 37.4 53.017 37.4 52.517C37.4 51.517 37 50.517 36 49.117C35 47.617 33.8 46.917 32.6 46.917C30.4 46.917 28.5 49.117 26.6 53.417C24.9 59.717 23.7 64.517 23.2 67.617C23.2 68.117 23 68.417 23 68.617L22.8 68.617C22.8 68.317 22.8 68.117 22.6 67.617C21.8 62.317 20.2 58.017 18 54.917ZM205 111.317C205 109.917 203.8 107.017 201.4 102.417C198.5 96.6171 196.4 92.1171 195.2 88.5171C192.8 80.817 191.1 73.9171 190.2 67.4171C190 64.817 189.7 63.317 189.5 62.6171C189.3 61.4171 188.5 60.0171 187.6 58.5171C188.3 56.317 189.3 53.2171 190.7 49.1171C191.4 47.9171 191.7 47.4171 192.1 47.4171C192.3 47.4171 193.1 47.9171 194 49.1171C197.8 54.4171 201 59.4171 203.6 63.5171C204.8 65.4171 205.3 66.6171 205.3 67.317C205.3 67.817 205.1 68.0171 204.6 68.0171C203.6 68.0171 201.7 67.317 199.3 65.6171C199.1 65.6171 198.8 65.8171 198.6 66.1171C199.6 69.2171 201 73.8171 202.9 79.3171C207.5 91.8171 209.6 100.917 209.6 106.717C209.6 111.517 208.2 116.517 205.8 121.617C202.4 128.617 197.9 131.917 192.4 131.917C185 131.917 179.9 127.817 177.3 119.917C177.1 119.217 176.8 119.217 176.3 119.917C172.9 129.717 167.9 134.817 161.2 134.517C158.8 134.717 156.4 133.817 154 132.117C151.1 130.217 149.2 127.517 148 124.417C147.8 123.417 147.3 123.417 146.8 124.417C145.4 126.617 143 129.217 139.6 131.617C134.8 135.417 130.2 137.117 125.7 137.117C123.5 137.117 121.6 136.917 119.9 136.417C119.9 149.117 117.5 158.217 112.5 164.017C106 171.417 96.7 178.617 84.2 185.617C68.5 194.617 53.6 198.917 39.9 198.917C25.3 198.917 14.5 194.117 7.7 184.017C2.39999 176.617 0 167.017 0 155.217C0 151.617 0.199997 148.017 0.699997 144.617C1.7 139.117 2.89999 134.317 4.3 130.217C4.8 129.017 5.5 128.317 6 128.317C6.5 128.317 6.5 129.017 6.2 130.717C3.8 142.917 2.8 149.917 2.8 151.317C2.8 158.717 5.2 165.717 10.2 171.917C16.9 180.117 26.8 184.117 39.5 184.117C51 184.117 63 181.717 75.5 176.417C85.8 172.117 95.2 166.817 103.6 160.617C111 154.817 114.6 150.817 114.6 148.417C114.6 141.417 112.4 133.517 107.9 125.117C106.9 123.417 106.5 122.017 106.5 120.817C106.5 120.117 107.5 116.717 109.4 110.517C109.9 109.517 110.1 108.817 110.6 108.817C111.1 108.817 111.8 109.817 112.5 111.217C116.1 118.917 121.1 122.717 126.9 122.717C130.7 122.717 133.4 122.517 135.3 122.017C138.2 121.017 141.1 119.117 143.9 116.017C145.3 113.817 148 110.517 151.6 106.217C152.3 105.217 153 104.817 154 104.817C155 104.817 155.4 105.317 155.4 106.517C155.4 107.017 155.2 107.917 154.7 109.117C154.5 110.517 154.2 111.517 154.2 112.217C154.2 113.617 154.9 115.117 156.6 116.817C158.5 119.017 160.9 120.217 164 119.917C168.6 120.117 173.4 114.417 178.2 103.117C178.7 102.117 179.4 101.717 179.9 101.717C181.1 101.717 181.6 102.417 181.1 104.117C181.1 105.117 180.9 106.317 180.9 107.217C180.9 113.917 184.7 117.317 192.4 117.317C199 117.317 203.4 115.117 205 111.317ZM326.7 64.517C324.6 61.117 322.2 59.717 319.3 59.717C319 59.717 318.3 60.4171 317.3 62.3171C316.1 64.3171 315.6 65.5171 315.6 65.7171C315.6 66.4171 316.1 67.4171 317.5 68.6171C319 69.817 319.9 70.5171 320.9 70.5171C321.6 70.5171 321.9 70.2171 322.1 70.0171C322.4 69.5171 322.6 69.5171 323.1 69.5171C324.1 69.5171 325.3 71.7171 327.2 76.5171C329.1 81.1171 330 84.217 329.8 85.9171C330 86.9171 330 87.6171 330.5 87.6171C331 87.6171 331.5 86.9171 332.2 85.9171C332.9 84.317 333.9 81.4171 334.6 77.317C336.3 68.217 338 63.617 339.9 63.617C340.8 63.617 341.8 64.017 342.5 65.017C343.5 66.017 344 66.717 344.2 66.717C344.6 66.717 345.1 65.917 345.6 64.517C346.1 63.517 346.1 62.617 346.1 62.117C346.1 61.117 345.7 60.117 344.7 58.717C343.7 57.217 342.5 56.517 341.3 56.517C339.1 56.517 337.2 58.717 335.3 63.017C333.6 69.317 332.4 74.117 331.9 77.217C331.9 77.717 331.7 78.017 331.7 78.217L331.5 78.217C331.5 77.9171 331.5 77.717 331.3 77.217C330.5 71.917 328.9 67.617 326.7 64.517ZM122.5 57.817C125.4 57.817 126.6 59.0171 126.6 61.617C126.6 63.017 126.4 64.717 125.6 66.217C125.1 67.217 123.9 68.817 121.8 71.217C118.9 74.617 117.2 77.017 116 78.217C114.6 80.4171 113.6 81.617 113.4 81.617L113.2 81.417C113.2 81.217 113.7 80.417 114.2 79.217C115.2 76.617 116.8 73.717 119.5 71.017C120.7 69.317 122.1 67.917 123.8 66.217C123.1 64.817 122.4 64.317 121.2 64.317C120.2 64.317 119 64.517 117.8 65.317C105.3 71.517 93.3 74.917 81.8 74.917C75.6 74.917 69.8 73.517 64.5 70.617C65.5 73.017 65 75.917 63.8 79.217C63.3 80.617 63.1 81.117 62.8 81.4171C62.6 81.4171 62.6 80.4171 62.6 79.0171C62.6 75.9171 62.1 73.2171 61.2 71.1171C61.2 70.9171 59.5 68.5171 56.6 64.1171C57.1 61.0171 57.8 59.5171 58.8 59.5171C58.8 59.5171 59.8 60.0171 61 61.2171C62.9 62.6171 64.6 63.6171 66.3 64.6171C71.6 67.5171 77.3 68.9171 83.6 68.9171C90.1 68.9171 96.3 67.9171 102.6 66.0171C106 64.817 110.3 63.1171 115.3 60.5171C118.9 58.717 121.3 57.817 122.5 57.817ZM267.2 73.4171C267.2 77.217 265.3 82.5171 261.4 89.0171C259 93.1171 255.4 98.6171 250.6 105.817C255.4 111.317 258.8 116.417 260.4 120.717C261.4 123.817 262.1 127.917 262.1 132.517C262.1 134.417 261.6 136.817 260.7 139.917C260 142.817 259 144.917 258.1 146.417C256.2 149.317 253.1 152.217 248.3 155.017C243.3 158.417 238.9 160.017 235.3 160.017C229.5 160.017 226.7 155.717 226.7 147.017C226.7 141.217 227.7 135.517 229.6 130.217C231.5 125.617 234.6 119.617 239.7 111.717C235.4 107.617 230.8 101.917 225.8 94.717C225.3 94.017 224.1 92.817 222.2 90.9171C221.2 89.9171 220.8 88.717 220.8 87.317C220.8 85.117 221 82.717 221.5 79.9171C222.2 77.0171 222.7 75.817 222.9 75.817C223.6 75.817 225.8 77.0171 229.9 79.617C233.7 82.217 236.9 84.217 238.8 85.817C240 86.5171 240.5 87.217 240.5 87.217L240.5 87.4171C240.5 87.6171 239.8 87.9171 238.1 87.9171C235 87.9171 233.3 88.1171 233.3 88.4171C233.3 88.6171 233.8 89.1171 234.7 90.317C238.5 95.117 242.4 98.717 246.5 101.617C247.5 100.217 250.8 95.417 256.1 87.217C260.7 80.217 263.3 75.4171 264.5 72.617C265.7 69.717 266.4 68.517 266.9 68.517C267 68.617 267.2 70.017 267.2 73.4171ZM153.9 83.617C155.8 80.517 157 77.617 157 75.017C157 71.9171 155.6 70.217 152.9 70.317C149.6 70.317 147.7 72.217 146.7 76.317C146.5 77.217 146.5 77.717 146.5 77.717C146.5 77.917 146.7 77.917 146.7 77.917C146.9 77.917 147.2 77.617 147.9 77.417C148.6 76.917 149.5 76.717 150.5 76.717C152.1 76.717 153.1 77.617 153.1 79.317C153.1 81.517 150.2 85.317 144.7 91.317C143.8 92.517 143.3 93.017 143.3 93.217L143.3 93.417C143.5 93.417 144.3 93.017 145.7 92.017C149.1 89.617 151.7 86.717 153.9 83.617ZM284.7 101.717C285.7 102.917 286.4 104.517 286.9 106.717C288.1 110.817 290.5 116.617 293.8 123.617C296.7 129.917 298.1 133.217 298.1 133.717C298.1 135.717 295.2 138.817 289.7 143.117C284.841 146.728 278.517 150.857 270.726 155.446C271.456 150.965 272.74 145.577 274.6 139.217C274.9 137.717 275.1 136.517 275.1 135.817C275.1 135.317 275.1 135.117 274.9 135.117C274.4 135.117 273.9 136.117 272.7 138.517C270.325 144.93 268.585 151.166 267.562 157.289C264.366 159.13 260.945 161.041 257.3 163.017C247.9 168.117 236.2 173.617 222 179.617C201.6 188.217 190.5 193.017 188.6 194.017C183.3 196.417 180.7 197.917 180.7 198.117C180.7 198.317 180.7 198.317 181.2 198.317C182.2 198.317 184.6 198.017 188.4 197.317C192 196.817 201.1 194.717 215.5 191.317C229.2 188.017 236.4 186.317 236.9 186.317C239.5 186.317 247.9 182.217 262.3 173.817C263.747 173.006 265.158 172.2 266.531 171.398C266.796 178.582 268.772 184.775 272.3 189.417C276.6 195.417 282.8 198.517 291 198.517C300.6 198.517 311.6 193.517 324.6 183.917C333.3 177.417 341.2 169.917 348.4 161.317C351.5 157.717 354.1 153.117 355.8 147.617C357.3 143.217 358 139.917 358 137.017L358.5 136.517L358.5 123.317C357.5 123.817 357 123.817 356.8 123.817C354.4 118.817 351.5 114.717 348.4 111.117C344.8 107.517 341.7 105.617 338.6 105.617C334.5 105.617 330.7 107.717 327.1 111.817C323.3 116.617 321.6 121.917 321.6 127.917C321.6 135.817 327.4 139.917 338.9 139.917C344.2 139.917 348.5 139.217 351.4 138.217C351.9 139.917 352.4 141.617 352.4 143.017C352.4 145.117 348.8 149.417 341.8 156.317C334.1 163.517 326.2 169.517 318 174.517C307.6 180.817 299 183.917 291.8 183.917C283.4 183.917 277.4 181.217 273.6 176.217C272.171 174.073 271.167 171.646 270.589 168.977C282.862 161.488 291.829 154.43 297.6 147.917C299.6 145.717 301 142.617 302.2 138.517C303.1 134.917 303.6 132.017 303.6 129.617C303.6 124.517 302.1 119.017 299.5 112.317C297.8 108.517 295.9 104.417 294.2 100.317C297.1 101.017 299 101.517 299.7 101.517C300.2 101.517 300.4 101.217 300.4 101.017C300.4 100.517 299.7 99.617 298 97.917C294 93.817 290.4 89.917 287 86.117C286.5 85.617 286.2 85.417 286 85.417C285.5 85.417 285.2 85.917 285 87.117C284.5 88.317 284.3 90.517 283.8 93.617C283.3 96.917 283.3 98.617 283.3 99.117C283.5 99.517 284 100.317 284.7 101.717ZM11.8 117.317C11.8 117.117 12 116.817 12 116.817C12.1093 116.708 12.1589 116.658 12.1813 116.668C12.2 116.677 12.2 116.726 12.2 116.817C12.4 117.017 12.4 117.317 12.2 117.517C11 124.717 8.79999 128.317 5.69998 128.317C2.59998 128.317 1.09998 125.717 1.09998 120.417C1.09998 113.917 2.79997 107.017 6.59998 100.017C7.59998 98.317 7.99997 97.4171 8.29997 97.4171C8.29997 97.6171 8.09998 98.6171 7.59998 100.317C5.19998 107.717 3.99997 112.817 3.99997 115.917C3.99997 119.717 4.99997 121.917 7.09998 121.917C8.69998 121.817 10.2 120.217 11.8 117.317ZM84.1 106.017C84.1 106.517 83.9 107.417 83.4 108.417C83.2 109.817 82.7 110.617 82 110.617C81.8 110.617 81.3 109.917 80.3 108.917C79.6 107.917 78.6 107.517 77.9 107.517C76 107.517 74.1 112.117 72.4 121.217C71.7 125.317 71 128.217 70 129.817C69.7493 130.175 69.5242 130.495 69.3157 130.758C69.5509 130.063 69.6498 129.616 69.6 129.417L69.6 129.217C69.4587 129.217 68.9185 129.816 67.944 130.942C67.8599 130.651 67.8 130.264 67.8 129.817C67.8 128.117 66.8 125.017 64.9 120.417C63 115.617 61.8 113.417 61.1 113.417C60.4 113.417 60.1 113.417 59.9 113.917C59.9 114.117 59.4 114.417 58.7 114.417C57.7 114.417 56.8 113.717 55.3 112.517C54.1 111.317 53.4 110.317 53.4 109.617C53.4 109.417 53.9 108.217 55.1 106.217C56.3 104.317 57 103.617 57.3 103.617C59.9 103.617 62.3 105.017 64.5 108.417C66.9 111.817 68.3 115.817 69.3 121.117L69.3 122.117C69.4093 122.226 69.4589 122.276 69.4814 122.266C69.5 122.257 69.5 122.208 69.5 122.117C69.5 121.917 69.7 121.617 70 121.117C70.2 118.017 71.4 113.217 73.1 106.917C75 102.617 76.9 100.417 79.1 100.417C80.3 100.417 81.5 101.117 82.7 102.617C83.6 104.117 84.1 105.017 84.1 106.017ZM67.944 130.942C67.5386 131.411 67.0581 131.971 66.5 132.617C64.8 134.517 62.7 136.617 59.8 138.817C47.8 146.717 38.7 152.317 32.2 156.117C31 156.817 30.3 157.617 30.3 157.817C30.3 157.817 30.3 158.017 30.5 158.017C31 158.017 31.7 157.817 32.9 157.317C40.9 154.517 45.2 152.817 45.9 152.317C49.5 150.717 53.5 148.317 58.1 144.917C63.2 141.317 66.5 137.417 68.2 133.617C68.7022 132.412 69.0783 131.459 69.3157 130.758C68.9418 131.229 68.6209 131.517 68.3 131.517C68.1893 131.517 68.0481 131.303 67.944 130.942ZM384.6 108.217C383.9 108.217 382.9 108.617 381.7 109.617C377.8 113.017 374 115.817 370.1 117.817C368.9 118.617 364.8 120.517 358.6 123.617L358.6 136.817C367 132.917 373.5 128.917 377.3 124.317C377.3 135.317 382.1 141.117 392.2 141.117C400.6 141.117 407.5 136.317 412.8 126.717C416 132.517 419.6 135.617 423.4 135.617C429.2 135.617 433.5 133.017 436.4 127.717C439.1 123.317 440.5 118.317 440.5 112.317C440.5 108.417 439.3 105.117 437.4 102.217C436.7 101.217 436.2 101.017 435.7 101.017C435.2 101.017 434.7 101.817 434.5 103.217C433.1 107.717 432.1 111.117 431.9 113.017C434 116.617 435 118.617 435 118.817C434 120.417 431.9 121.417 428.5 121.417C425.9 121.417 423.5 120.417 421.8 119.017C419.9 117.617 418.9 115.917 418.9 114.217C418.9 114.717 419.6 112.817 420.6 108.717C421.1 106.617 420.9 105.617 419.9 105.617C419.2 105.617 418.5 106.017 417.5 107.017C415.1 110.917 412.5 114.717 410.1 118.817C406.2 123.917 401.2 126.517 395.2 126.517C387.7 126.517 383.9 123.617 383.9 118.317C383.9 117.117 384.1 115.617 384.6 113.717C385.1 111.817 385.3 110.317 385.3 109.617C385.3 108.717 385.1 108.217 384.6 108.217ZM257.8 132.417C255.2 127.117 250.6 121.617 244.4 116.317C242.2 118.517 239.6 122.517 236.2 128.317C232.4 134.817 230.7 138.917 230.7 141.017C230.7 143.917 232.6 145.317 236.9 145.317C238.8 145.317 241.2 144.617 244.3 143.417C248.6 141.517 252.7 138.817 256.1 135.517C257.6 134.117 258.1 133.117 257.8 132.417ZM345 125.417C341.4 120.817 338.3 118.717 335.4 118.717C331.1 118.717 329.2 119.717 329.2 122.117C329.2 125.017 332.1 126.417 337.8 126.417C339.664 126.417 341.764 126.023 344.1 125.585C344.396 125.53 344.696 125.473 345 125.417ZM196.4 153.317L192.6 161.217C191.6 160.217 189.4 158.617 186.4 156.717C183.3 154.517 181.6 153.317 181.1 153.317C180.8 153.317 180.3 153.817 180.1 154.317L175.5 163.917C175.3 164.417 175.3 164.717 175.5 164.917C179.4 167.317 183.2 169.917 186.8 172.817C187.3 173.117 187.8 172.817 188 172.117C189.5 169.917 190.7 167.317 192.1 164.417C196.2 167.017 199.8 169.417 202.9 171.817C203.3 172.017 203.8 172.017 204.3 171.317C207.4 166.017 209.1 162.417 209.1 160.717C209.1 160.217 207.2 158.817 203.6 156.417C199.8 153.817 197.9 152.617 197.4 152.617C196.9 152.617 196.6 152.817 196.4 153.317ZM370.9 189.317C368.3 190.017 366.8 190.517 366.3 190.517L366.3 190.217C366.3 190.217 367.3 189.517 369.2 188.317C371.1 187.117 374 185.217 378.1 182.117C380 180.217 382.9 177.117 386.5 172.717C388.9 169.817 391.5 167.217 394.4 165.317C398 162.717 401.4 161.517 405 161.517C405.7 161.517 406.9 161.717 408.4 162.217C409.6 162.717 410.8 162.917 411.8 162.917C413.7 162.917 415.2 162.217 416.4 160.717C417.1 159.317 418.1 158.117 419 156.617C419.5 155.617 420.2 155.217 420.7 155.217C420.9 155.217 420.9 155.417 420.9 155.917C420.9 156.417 420.7 157.617 420.2 159.017C419.7 159.717 421.6 160.017 425.2 160.017C425.7 160.017 425.9 160.017 425.9 159.817C425.9 159.817 425.7 158.817 425.2 157.217C425 156.717 425.2 156.017 425.9 155.017L425.98 154.881C426.922 153.28 427.308 152.622 427.6 152.817C428.6 153.517 429 155.017 429 156.617C429 158.317 428.5 160.017 427.8 161.917C427.1 164.117 426.4 165.317 425.9 165.717C424.2 166.717 421.6 166.417 418 164.717C415.1 167.617 412.2 169.317 409.4 169.317C408.7 169.317 407.5 169.117 406.3 168.617C405.1 168.117 404.1 167.917 403.4 167.917C398.6 167.917 393.6 170.117 388.5 174.917L377.7 185.717C375.4 187.417 373.3 188.617 370.9 189.317ZM101.8 197.417C102.3 197.417 103.8 196.917 106.4 196.217C108.8 195.517 111 194.317 113.2 192.717L124 181.917C129.1 177.117 134.1 174.917 138.9 174.917C139.6 174.917 140.6 175.117 141.8 175.617C143 176.117 144.2 176.317 144.9 176.317C147.7 176.317 150.6 174.617 153.5 171.717C157.1 173.417 159.7 173.717 161.4 172.717C161.9 172.317 162.6 171.117 163.3 168.917C164 167.017 164.5 165.317 164.5 163.617C164.5 162.017 164.1 160.517 163.1 159.817C162.808 159.622 162.422 160.28 161.48 161.881L161.4 162.017C160.7 163.017 160.5 163.717 160.7 164.217C161.2 165.817 161.4 166.817 161.4 166.817C161.4 167.017 161.2 167.017 160.7 167.017C157.1 167.017 155.2 166.717 155.7 166.017C156.2 164.617 156.4 163.417 156.4 162.917C156.4 162.417 156.4 162.217 156.2 162.217C155.7 162.217 155 162.617 154.5 163.617C153.6 165.117 152.6 166.317 151.9 167.717C150.7 169.217 149.2 169.917 147.3 169.917C146.3 169.917 145.1 169.717 143.9 169.217C142.4 168.717 141.2 168.517 140.5 168.517C136.9 168.517 133.5 169.717 129.9 172.317C127 174.217 124.4 176.817 122 179.717C118.4 184.117 115.5 187.217 113.6 189.117C109.5 192.217 106.6 194.117 104.7 195.317C102.8 196.517 101.8 197.217 101.8 197.217L101.8 197.417Z" id="Group" fill="#595959" fill-rule="evenodd" stroke="none" clip-path="url(#clip_1)" />
  </g>
</svg>