<?xml version="1.0" encoding="utf-8"?>
<svg width="510.10013px" height="202.1px" viewBox="0 0 510.10013 202.1" version="1.1" xmlns:xlink="http://www.w3.org/1999/xlink" xmlns="http://www.w3.org/2000/svg">
  <defs>
    <path d="M510.1 0L510.1 0L510.1 202.1L0 202.1L0 0L510.1 0Z" id="path_1" />
    <clipPath id="clip_1">
      <use xlink:href="#path_1" clip-rule="evenodd" fill-rule="evenodd" />
    </clipPath>
  </defs>
  <g id="Surah_17_of_114_(modified)">
    <path d="M510.1 0L510.1 0L510.1 202.1L0 202.1L0 0L510.1 0Z" id="Surah_17_of_114_(modified)" fill="none" stroke="none" />
    <path d="M264.8 25C264.8 20.2 264.1 16.4 262.6 13.2C262.6 11.5 263.8 7.39999 266.7 1.2C266.9 0.5 267.2 0 267.4 0C267.9 0 268.1 0.5 268.6 1.2C269.3 2.89999 271 7.39999 273.9 14.9C277 22.8 278.7 27.6 279.2 29.5C279.7 30.7 279.7 31.9 279.7 32.4C279.7 34.6 277.8 33.4 273.5 28.6C273 27.9 272.8 28.4 272.8 29.6C272.8 30.1 274 45 276.2 74.7C278.4 104.2 279.3 120.8 279.3 124.6C279.3 135.9 277.6 146 274.3 154.6C273.3 156.3 272.9 157.5 272.4 158.4C271.7 159.6 271.4 159.6 271.2 158.9C271.029 158.046 271.15 156.535 271.314 154.493C271.342 154.144 271.371 153.779 271.4 153.4C271.9 149.3 272.1 144.8 272.1 139.7C272.1 134.9 270.9 115.7 268.5 81.9C266 48.1 264.8 29.1 264.8 25ZM241.1 24.3C241.1 22.4 240.6 20 239.7 17.3C238.7 14.7 238.3 13.2 238.3 13C238.3 12.5 238.8 10.6 239.7 7.2C240.7 3.8 241.1 1.89999 241.4 1.39999C241.9 0.399994 242.1 0.199997 242.4 0.199997C242.6 0.199997 243.1 0.399994 243.6 1.2C244.6 3.39999 246.7 7.39999 249.8 13.9C253.2 21.1 255.3 25.9 256 28.1C256.5 29.8 256.7 30.7 256.7 31.5C256.7 33.4 254.5 32.2 250.5 27.4C250 26.9 249.8 27.4 249.8 28.6C249.8 32.4 251 45.4 253.6 67.2C256.2 89.3 257.7 104.2 257.7 111.8C257.7 127.9 253.9 141.3 246.2 151.6C240.4 160 233.7 165.8 226.3 169.1C223.4 170.5 218.4 172 211.4 173.9C204.2 175.8 198.9 176.8 195.6 177.3C194.4 177.3 193.7 177.3 193.7 176.8C193.7 176.6 194.2 175.8 195.6 174.9C202.1 171.3 212.6 165.1 227.3 155.9C232.1 153 236.7 148.9 241.5 143.7C247.7 137 251.1 131.2 251.1 126.7C251.1 117.1 249.4 98.4 246.1 70.9999C242.5 43.5 241.1 27.9 241.1 24.3ZM212.3 2.5C213 1.3 214 0.800003 214.7 0.800003C215.2 0.800003 215.7 1 215.7 1.5C215.7 1.5 215.5 1.7 215.5 2C214.5 4.2 213.6 6.60001 212.9 9C217.9 12.6 220.3 16.4 220.1 20C219.6 24.1 219.1 26.7 218.4 27.7C216 30.6 213.4 32.3 210 32.3C206.6 32.3 205.2 30.1 205.2 26.3C205.2 25.6 205.2 24.6 205.4 23.7C206.5 15.9 208.9 8.90001 212.3 2.5ZM315.2 14.5C315.2 17.1 317.3 19.5 321.9 21.9C318.6 25.5 313.5 29.3 306.5 33.6C300.5 36.9 294.8 40.3 289 43.9C287.6 44.6 287.1 45.4 287.1 45.6C287.1 45.6 287.1 45.8 287.3 45.8C287.5 45.8 288.5 45.6 289.7 45.1C297.4 42.3 301.7 40.6 302.7 40.1C306.3 38.7 310.3 36 314.9 32.9C318.7 30 321.9 26.9 324.5 23.3C326.7 24.5 328.1 25.7 328.6 26.7C330.7 23.9 331.7 21.7 331.7 20.5C331.2 19.5 329.8 18.3 327.4 17.1C328.6 13.7 329.1 10.8 329.1 8.20003C329.1 5.40002 328.4 3.70003 326.7 3.20003C324.8 2.50002 322.4 3.50002 319.5 6.10002C316.6 8.50002 315.2 11.4 315.2 14.5ZM325 11.4C325.3 12.8 325.3 14.3 324.8 15.7C321.2 14 319.3 12.5 319.2 11.3C319.2 10.9 319.6 10.4 320.6 9.90001C321.6 9.40001 322.3 9.20001 322.8 9.20001C324 9.20001 324.8 10 325 11.4ZM366.5 28.6C366.5 28.6 366.3 28.9 366.3 29.1C364.7 32 363.2 33.7 361.6 33.7C359.5 33.7 358.5 31.5 358.5 27.7C358.5 24.6 359.7 19.5 362.1 12.1C362.6 10.4 362.8 9.40001 362.8 9.20001C362.5 9.20001 362.1 10.1 361.1 11.8C357.3 18.8 355.6 25.7 355.6 32.2C355.6 37.5 357.1 40.1 360.2 40.1C363.3 40.1 365.5 36.5 366.7 29.3C366.9 29.1 366.9 28.8 366.7 28.6C366.7 28.5093 366.7 28.4598 366.681 28.4513C366.659 28.4411 366.609 28.4907 366.5 28.6ZM243.5 127.5C242.5 136.4 241.8 140.7 241.3 140.7C240.8 140.7 240.1 137.1 239.1 129.7C237.2 117.7 228.3 104.3 212.5 88.9C205.5 82.4 198.6 75.9 191.6 69.2C184.2 62 178.4 56 174.6 51.2C172 47.8 169.1 44 166 39.2C164.3 36.1 162.6 33.2 161 30.6C159.8 28.7 158.4 27.2 156.9 26.3C156.2 26.1 155.9 25.3 155.9 24.1L155.9 14.3C155.9 12.4 156.1 11.4 156.9 11.4C157.4 11.4 158.3 11.9 159.5 12.8L178 27C179.4 28.2 180.2 28.9 180.2 29.6C180.2 30.1 179.7 30.1 178.5 30.1C177.1 30.1 174.4 29.9 170.8 28.9C173.2 33.5 180.2 41.6 191.7 53.1C200.3 61.7 209 70.4 217.9 79C235.2 96.3 243.8 111.4 243.8 124.1C243.7 125.1 243.7 126.3 243.5 127.5ZM120.1 21.7C118 18.3 115.6 16.9 112.7 16.9C112.4 16.9 111.7 17.6 110.7 19.5C109.5 21.5 109 22.7 109 22.9C109 23.6 109.5 24.6 110.9 25.8C112.4 27 113.3 27.7 114.3 27.7C115 27.7 115.3 27.4 115.5 27.2C115.8 26.7 116 26.7 116.5 26.7C117.5 26.7 118.7 28.9 120.6 33.7C122.5 38.3 123.4 41.4 123.2 43.1C123.4 44.1 123.4 44.8 123.9 44.8C124.4 44.8 124.9 44.1 125.6 43.1C126.3 41.5 127.3 38.6 128 34.5C129.7 25.4 131.4 20.8 133.3 20.8C134.2 20.8 135.2 21.2 135.9 22.2C136.9 23.2 137.4 23.9 137.6 23.9C138 23.9 138.5 23.1 139 21.7C139.5 20.7 139.5 19.8 139.5 19.3C139.5 18.3 139.1 17.3 138.1 15.9C137.1 14.4 135.9 13.7 134.7 13.7C132.5 13.7 130.6 15.9 128.7 20.2C127 26.5 125.8 31.3 125.3 34.4C125.3 34.9 125.1 35.2 125.1 35.4L124.9 35.4C124.9 35.1 124.9 34.9 124.7 34.4C123.9 29.1 122.3 24.8 120.1 21.7ZM217.5 21.7C217.5 20.5 215.1 18.3 210.1 15.5C208.4 18.4 207.7 21 207.7 23.4C207.7 24.8 208.4 25.8 209.9 25.8C211.1 25.8 212.5 25.3 214.2 24.4C215.9 23.6 217.1 22.6 217.5 21.7ZM63.4 42.1C64.9 45.2 65.6 49 65.6 53.6C65.6 57.7 66.6 73.5 68.5 101.2C70.4 128.8 71.4 144.9 71.4 149.7C71.4 155 71.2 159.6 70.7 163.4C70.5 166.3 70.5 167.9 70.5 168.9C70.7 169.6 71.2 169.6 71.9 168.4C72.4 167.7 72.9 166.3 73.6 164.6C77.2 156 78.9 145.9 78.9 134.6C78.9 130.7 78 117.3 76.3 94C74.7 70.7 73.7 58.7 73.7 58.5C73.7 57.3 73.9 56.8 74.4 57.5C78.7 62.3 80.6 63.5 80.6 61.3C80.6 60.6 80.6 59.6 80.1 58.2C79.6 56.5 77.9 51.7 74.8 43.8C71.9 36.3 70.2 31.8 69.5 30.1C69 29.1 68.7 28.9 68.5 28.9C68 28.9 67.7 29.2 67.5 29.9C64.6 36.3 63.4 40.4 63.4 42.1ZM348.3 59.6C372.5 50.5 397.7 41.4 423.7 31.8C423.902 31.7422 424.088 31.6761 424.249 31.6186C424.647 31.4768 424.9 31.3867 424.9 31.6C425.1 31.6 425.1 32.1 424.9 32.8C423.9 35 423.2 36.2 422.7 36.6C422.5 36.8 410.2 41.4 386.5 50.3C362.3 59.2 348.6 64.7 345.9 66.4C346.4 64.1 347.1 62 348.3 59.6ZM47.6 52.4C47.6 52.2 47.8 51.9 47.8 51.9C47.9093 51.7907 47.9589 51.7411 47.9814 51.7513C48 51.7597 48 51.8093 48 51.9C48.2 52.1 48.2 52.4 48 52.6C46.8 59.8 44.6 63.4 41.5 63.4C38.4 63.4 36.9 60.8 36.9 55.5C36.9 49 38.6 42.1 42.4 35.1C43.4 33.4 43.8 32.5 44.1 32.5C44.1 32.7 43.9 33.7 43.4 35.4C41 42.8 39.8 47.9 39.8 51C39.8 54.8 40.8 57 42.9 57C44.5 56.9 45.9 55.3 47.6 52.4ZM96.3 82.1C96.8 78.7 98 74.9 99.9 70.1C101.3 66.5 102.1 62.9 102.1 59.3C102.1 52.3 98.7 45.9 92.3 39.4C91.8 38.9 91.8 38.4 92.3 38L94.5 34.2C94.7 33.7 95 33.7 95.5 34.2C101.7 39.2 105.1 46.7 105.1 56.5C105.1 61.1 103.9 66.1 102 71.1C99.8 76.4 98.9 80 98.9 81.9C98.9 86 99.9 88.1 102 88.1C103.4 88.1 104.9 86.4 106.6 83.5C106.6 83.3 106.8 83 106.8 83C106.909 82.8907 106.959 82.8411 106.981 82.8513C107 82.8598 107 82.9093 107 83L107 83.7C105.8 90.9001 103.6 94.5 100.5 94.5C97.6 94.5 95.9 91.4 95.9 85.6C95.9 84.5 96.1 83.3 96.3 82.1ZM478.9 60.8C476.5 66.6 475.3 71.1 475.3 74.5C475.3 78.6 476.3 80.7 478.4 80.7C479.6 80.7 481 79 482.7 76.1C482.9 75.9 482.9 75.6 483.2 75.4C483.2 75.4 483.4 75.4 483.4 75.6L483.4 76.3C482 83.5001 479.8 87.1 476.9 87.1C473.8 87.1 472.3 84.5 472.3 79.2C472.3 76.6 472.8 73.2 474.2 68.9001C475.6 64.6001 476.4 62.4001 476.4 62.2C476.4 61.7 475.4 60.8 473.3 59.6C469.5 64.6 464.2 69.4 457.5 73.5C452.9 76.1 448.4 78.5 443.6 80.5C434.7 84.1 429.4 86 428.2 86.7C427 87.2 426.3 87.4001 425.8 87.4001C425.6 87.4001 425.6 87.2 425.6 87.2C425.6 86.7 426.1 86.2 427.5 85.3C435.2 81.0001 442.6 76.7 450.3 72.3C460.4 66.5001 467.3 61.7 470.7 58.1C466.1 55.7 464 53.3 464 50.7C464 47.6 465.4 44.7 468.3 42.1C471.2 39.7 473.6 38.7 475.5 39.5C476.9 40 477.9 41.7 477.9 44.5C477.9 47.1 477.4 50 476.2 53.1C478.6 54.5 479.6 56 479.6 57.4C479.6 58.1 479.4 59.3 478.9 60.8ZM147.7 61C147.7 61 147.5 61.3 147.5 61.5C145.8 64.4 144.3 66.1 142.8 66.1C140.7 66.1 139.7 63.9 139.7 60.1C139.7 57 140.9 51.9 143.3 44.5C143.8 42.8 144 41.8 144 41.6C143.7 41.6 143.3 42.5 142.3 44.2C138.5 51.2 136.8 58.1 136.8 64.6C136.8 69.9 138.3 72.5 141.4 72.5C144.5 72.5 146.7 68.9 147.9 61.7C148.1 61.5 148.1 61.2 147.9 61C147.9 60.9093 147.9 60.8597 147.881 60.8513C147.859 60.8411 147.81 60.8904 147.7 61ZM473.6 51.9C474.1 50.5 474.1 49 473.8 47.6C473.6 46.2 472.8 45.4 471.6 45.4C471.1 45.4 470.4 45.6 469.4 46.1C468.4 46.6 468 47.1 468 47.5C468.1 48.8 470 50.2 473.6 51.9ZM317.8 50.5L314 58.4C313.1 57.4 310.9 55.7 307.8 53.9C304.7 51.7 303 50.5 302.5 50.5C302.2 50.5 301.7 51 301.5 51.5L296.9 61.1C296.7 61.6 296.7 61.9 296.9 62.1C300.8 64.5 304.6 67.1 308.2 70C308.7 70.3 309.2 70 309.4 69.3C310.9 67.1 312.1 64.5 313.5 61.6C317.6 64.2 321.2 66.6 324.3 69C324.7 69.2 325.2 69.2 325.7 68.5C328.8 63.2 330.5 59.6 330.5 57.9C330.5 57.4 328.6 56 325 53.6C321.2 51 319.3 49.8 318.8 49.8C318.3 49.8 318 50 317.8 50.5ZM396.3 67.5C394.2 64.1 391.8 62.7 388.9 62.7C388.7 62.7 387.9 63.4 386.9 65.3C385.7 67.3 385.2 68.5 385.2 68.7C385.2 69.4 385.7 70.4 387.1 71.6C388.6 72.8 389.5 73.5 390.5 73.5C391.2 73.5 391.5 73.2 391.7 73C392 72.5 392.2 72.5 392.7 72.5C393.7 72.5 394.9 74.7 396.8 79.5C398.7 84.1 399.6 87.2 399.4 88.9C399.6 89.9 399.6 90.6 400.1 90.6C400.6 90.6 401.1 89.9 401.8 88.9C402.5 87.3 403.5 84.4 404.2 80.3C405.9 71.2 407.6 66.6 409.5 66.6C410.4 66.6 411.4 67 412.1 68C413.1 69 413.6 69.7 413.8 69.7C414.2 69.7 414.7 68.9 415.2 67.5C415.7 66.5 415.7 65.6 415.7 65.1C415.7 64.1 415.3 63.1 414.3 61.7C413.3 60.2 412.1 59.5 410.9 59.5C408.7 59.5 406.8 61.7 404.9 66C403.2 72.3 402 77.1 401.5 80.2C401.5 80.7 401.3 81 401.3 81.2L401.1 81.2C401.1 80.9 401.1 80.7 400.9 80.2C400.1 74.9 398.5 70.6 396.3 67.5ZM336.8 76.4C336.8 80.2 334.9 85.5 331 92C328.6 96.1 325 101.6 320.2 108.8C325 114.3 328.4 119.4 330 123.7C331 126.8 331.7 130.9 331.7 135.5C331.7 137.4 331.2 139.8 330.3 142.9C329.6 145.8 328.6 147.9 327.7 149.4C325.8 152.3 322.7 155.2 317.9 158C312.9 161.4 308.5 163 304.9 163C299.1 163 296.3 158.7 296.3 150C296.3 144.2 297.3 138.5 299.2 133.2C301.1 128.6 304.2 122.6 309.3 114.7C305 110.6 300.4 104.9 295.4 97.7C294.9 97 293.7 95.8 291.8 93.9C290.8 92.9 290.4 91.7 290.4 90.3C290.4 88.1 290.6 85.7 291.1 82.9C291.8 80 292.3 78.8 292.5 78.8C293.2 78.8 295.4 80 299.5 82.6C303.3 85.2 306.5 87.2 308.4 88.8C309.6 89.5 310.1 90.2 310.1 90.2L310.1 90.4C310.1 90.6 309.4 90.9 307.7 90.9C304.6 90.9 302.9 91.1 302.9 91.4C302.9 91.6 303.4 92.1 304.3 93.3C308.1 98.1 312 101.7 316.1 104.6C317.1 103.2 320.4 98.4 325.7 90.2C330.3 83.2 332.9 78.4 334.1 75.6C335.3 72.7 336 71.5 336.5 71.5C336.6 71.6 336.8 73 336.8 76.4ZM174.1 72.8C173.4 72.8 172.4 73.3 171.7 74.5C168.3 80.9 165.9 87.9 164.8 95.7C164.6 96.6 164.6 97.6 164.6 98.3C164.6 102.1 166 104.3 169.4 104.3C172.8 104.3 175.4 102.6 177.8 99.7C178.5 98.7 179 96.1 179.5 92C179.7 88.4 177.3 84.6 172.3 81C173 78.6 173.9 76.2 174.9 74C174.9 73.7 175.1 73.5 175.1 73.5C175.1 73 174.6 72.8 174.1 72.8ZM11.1 83.1C9.00002 79.7 6.60001 78.3 3.70001 78.3C3.5 78.3 2.70001 79 1.7 80.9001C0.5 82.9001 0 84.1 0 84.3C0 85 0.5 86 1.89999 87.2C3.39999 88.4 4.29999 89.1 5.29999 89.1C5.99998 89.1 6.29999 88.8 6.49998 88.6C6.79999 88.1 6.99998 88.1 7.49999 88.1C8.49998 88.1 9.7 90.3 11.6 95.1C13.5 99.7 14.4 102.8 14.2 104.5C14.4 105.5 14.4 106.2 14.9 106.2C15.4 106.2 15.9 105.5 16.6 104.5C17.3 102.9 18.3 100 19 95.9C20.7 86.8 22.4 82.2 24.3 82.2C25.2 82.2 26.2 82.6 26.9 83.6C27.9 84.6 28.4 85.3 28.6 85.3C29 85.3 29.5 84.5 30 83.1C30.5 82.1 30.5 81.2 30.5 80.7C30.5 79.7 30.1 78.7 29.1 77.3C28.1 75.8 26.9 75.1 25.7 75.1C23.5 75.1 21.6 77.3 19.7 81.6C18 87.9 16.8 92.7 16.3 95.8C16.3 96.3 16.1 96.6 16.1 96.8L15.9 96.8C15.9 96.5 15.9 96.3 15.7 95.8C14.9 90.5 13.3 86.2 11.1 83.1ZM169.6 87.5C174.6 90.3 177 92.5 177 93.7C176.5 94.6 175.3 95.6 173.7 96.4C172 97.3 170.6 97.8 169.4 97.8C167.9 97.8 167.2 96.8 167.2 95.4C167.2 93 167.9 90.4 169.6 87.5ZM354.3 104.7C355.3 105.9 356 107.5 356.5 109.7C357.7 113.8 360.1 119.6 363.4 126.6C366.3 132.9 367.7 136.2 367.7 136.7C367.7 138.7 364.8 141.8 359.3 146.1C354.449 149.706 348.136 153.827 340.363 158.408C341.098 153.971 342.371 148.656 344.2 142.4C344.5 140.9 344.7 139.7 344.7 139C344.7 138.5 344.7 138.3 344.5 138.3C344 138.3 343.5 139.3 342.3 141.7C339.954 148.035 338.227 154.199 337.2 160.25C333.992 162.098 330.559 164.016 326.9 166C317.5 171.1 305.8 176.6 291.6 182.6C271.2 191.2 260.1 196 258.2 197C252.9 199.4 250.3 200.9 250.3 201.1C250.3 201.3 250.3 201.3 250.8 201.3C251.8 201.3 254.2 201 258 200.3C261.6 199.8 270.7 197.7 285.1 194.3C298.8 191 306 189.3 306.5 189.3C309.1 189.3 317.5 185.2 331.9 176.8C333.345 175.99 334.753 175.185 336.124 174.385C336.36 181.653 338.34 187.916 341.9 192.6C346.2 198.6 352.4 201.7 360.6 201.7C370.2 201.7 381.2 196.7 394.2 187.1C402.9 180.6 410.8 173.1 418 164.5C421.1 160.9 423.7 156.3 425.4 150.8C426.9 146.4 427.6 143.1 427.6 140.2L428.1 139.7L428.1 126.5C427.1 127 426.6 127 426.4 127C424 122 421.1 117.9 418 114.3C414.4 110.7 411.3 108.8 408.2 108.8C404.1 108.8 400.3 110.9 396.7 115C392.9 119.8 391.2 125.1 391.2 131.1C391.2 139 397 143.1 408.5 143.1C413.8 143.1 418.1 142.4 421 141.4C421.5 143.1 422 144.8 422 146.2C422 148.4 418.4 152.7 411.4 159.5C403.7 166.7 395.8 172.7 387.6 177.7C377.2 184 368.6 187.1 361.4 187.1C353 187.1 347 184.4 343.2 179.4C341.739 177.209 340.723 174.721 340.151 171.982C352.444 164.485 361.423 157.42 367.2 150.9C369.2 148.7 370.6 145.6 371.8 141.5C372.7 137.9 373.2 135 373.2 132.6C373.2 127.5 371.7 122 369.1 115.3C367.4 111.5 365.5 107.4 363.8 103.3C366.7 104 368.6 104.5 369.3 104.5C369.8 104.5 370 104.2 370 104C370 103.5 369.3 102.6 367.6 100.9C363.6 96.8 360 92.9 356.6 89.1C356.1 88.6 355.8 88.4 355.6 88.4C355.1 88.4 354.8 88.9 354.6 90.1C354.1 91.3 353.9 93.5 353.4 96.6C352.9 99.9 352.9 101.6 352.9 102.1C353.1 102.5 353.6 103.3 354.3 104.7ZM94.4 112.1C112.9 105.4 132.1 98.2 152.2 90.7C152.378 90.6491 152.544 90.5916 152.694 90.5393C153.135 90.3861 153.451 90.2764 153.6 90.5C153.6 90.5 153.6 91 153.4 91.7C152.4 93.9 151.7 95.1 151.2 95.5C134.4 101.7 114.5 109.4 91.9 118.8C92.5 116.7 93.2 114.5 94.4 112.1ZM454.2 111.5C453.5 111.5 452.5 111.9 451.3 112.9C447.5 116.2 443.6 119.1 439.7 121.1C438.5 121.9 434.4 123.8 428.2 126.9L428.2 140.1C436.6 136.2 443.1 132.2 446.9 127.6C446.9 138.6 451.7 144.4 461.8 144.4C470.2 144.4 477.1 139.6 482.4 130C485.6 135.8 489.2 138.9 493 138.9C498.8 138.9 503.1 136.3 506 131C508.7 126.6 510.1 121.6 510.1 115.6C510.1 111.7 508.9 108.4 507 105.5C506.3 104.5 505.8 104.3 505.3 104.3C504.8 104.3 504.3 105.1 504.1 106.5C502.7 111 501.7 114.4 501.5 116.3C503.6 119.9 504.6 121.9 504.6 122.1C503.6 123.7 501.5 124.7 498.1 124.7C495.5 124.7 493.1 123.7 491.4 122.3C489.5 120.9 488.5 119.2 488.5 117.5C488.5 118 489.2 116.1 490.2 112C490.7 109.9 490.5 108.9 489.5 108.9C488.8 108.9 488.1 109.3 487.1 110.3C484.7 114.2 482.1 118 479.7 122.1C475.8 127.2 470.8 129.8 464.8 129.8C457.3 129.8 453.5 126.9 453.5 121.6C453.5 120.4 453.7 118.9 454.2 117C454.7 115.1 454.9 113.6 454.9 112.9C454.9 112 454.7 111.5 454.2 111.5ZM63.9 128.7C63.9 129.4 62.7 131.8 60.5 135.9C58.8 137.1 54.7 139.5 48.3 143.1C39.9 147.7 32.5 152 26.2 155.8C24 157 22.8 157.7 22.4 157.7C21.9 157.7 21.9 157.5 21.9 157C21.9 155.8 22.9 152.9 25.3 148.4C26.3 147.4 28.9 145.5 32.7 142.9C30.1 141.2 28.4 140.3 27.7 139.5C25.8 137.8 24.8 135.7 24.8 133.3C24.8 129.2 27.7 124.4 33.4 119.1C38.7 114.1 43 111.4 46.1 111.4C47.8 111.4 49.2 112.1 50.4 113.6C51.4 114.8 52.1 116.7 52.1 118.9C52.1 120.8 51.4 122.7 49.9 124.9C48.7 126.6 47.5 127.5 46.5 127.5C46.3 127.5 45.5 126.8 44.8 124.9C44.1 123 43.1 122.3 41.9 122.3C40.2 122.3 38.1 122.8 35.4 124.2C32.5 125.6 31.1 126.6 31.1 127.1C31.1 128.3 32.5 129.7 35.7 131.4C39.3 133.3 42.9 134.3 46.3 134.3C48.5 134.1 51.6 132.6 55.9 130.7C59.5 128.8 61.9 127.8 62.6 127.8C63.5 127.7 63.9 128 63.9 128.7ZM178 129.4C174.1 134.7 169.8 137.1 165 137.1C161.1 137.1 156.8 135.7 151.7 132.6C146.5 129.7 141.2 128.3 135.9 128.3L135.9 142.9C138 142.9 141.9 144.3 146.9 147.2C152 150.4 156.3 151.8 159.9 151.8C168.5 151.8 175.5 147.2 180.5 137.6C183.9 143.6 187.5 146.5 191.3 146.5C197.1 146.5 201.2 143.9 204.3 138.6C206.9 134.5 208.1 129.2 208.1 123.2C208.1 119.4 207.2 116 205 113.4C204.6 112.5 204.1 112 203.6 112C203.1 112 202.6 112.8 202.4 114.2C201 118.8 200 122.1 199.8 124.3C201.9 127.9 202.9 129.8 202.9 129.8C201.9 131.7 199.8 132.4 196.4 132.4C193.7 132.4 191.3 131.7 189.4 130C187.8 128.8 186.8 127.1 186.8 125.4C186.8 125.503 186.906 125.05 187.145 124.029L187.145 124.028C187.37 123.063 187.714 121.591 188.2 119.6C188.4 119.2 188.4 118.7 188.4 118.2C188.4 117.2 188.1 116.5 187.4 116.5C186.9 116.5 186.2 116.9 185.2 117.9C182.8 121.7 180.4 125.6 178 129.4ZM327.5 135.4C324.9 130.1 320.3 124.6 314.1 119.3C311.9 121.5 309.3 125.5 305.9 131.3C302.1 137.8 300.4 141.9 300.4 144C300.4 146.9 302.3 148.3 306.6 148.3C308.5 148.3 310.9 147.6 314 146.4C318.3 144.5 322.4 141.8 325.8 138.5C327.2 137.1 327.7 136.1 327.5 135.4ZM414.6 128.7C411 124.1 407.9 122 405 122C400.7 122 398.8 123 398.8 125.4C398.8 128.3 401.7 129.7 407.4 129.7C409.264 129.7 411.363 129.306 413.7 128.868C413.996 128.813 414.296 128.756 414.6 128.7ZM57.7 202.1C52.9 202.1 48.6 199.9 45 195.6C41.2 191 39.5 185.5 39.5 178.8C39.5 169.9 43.1 158.2 50.5 143.5C51.2 142.1 51.9 141.3 52.4 141.3C52.4 141.3 52.6 141.5 52.6 141.8C52.6 143.2 50.9 148.5 47.8 157.2C44.4 165.8 42.8 172.6 42.8 177.6C42.8 181.4 43.8 184.6 45.7 187C47.6 189.4 50.3 190.6 53.6 190.6C58.9 190.6 65.4 186.8 73 178.6C79.5 171.2 86 163.5 92.4 156C108.7 137.3 123.1 127.9 135.6 127.9L135.6 142.5C125 142.5 113.3 149.5 99.8 162.9C95.7 167.2 90.4 173.5 83.7 181.6C77.9 188.8 73.6 193.6 70.7 196C66.3 200.2 62 202.1 57.7 202.1ZM440.5 192.3C437.9 193 436.4 193.5 435.9 193.5L435.9 193.3C435.9 193.3 436.9 192.6 438.8 191.4C440.7 190.2 443.6 188.3 447.7 185.2C449.6 183.3 452.5 180.2 456.1 175.8C458.5 172.9 461.1 170.3 464 168.4C467.6 165.8 471 164.6 474.6 164.6C475.3 164.6 476.5 164.8 478 165.3C479.2 165.8 480.4 166 481.4 166C483.3 166 484.8 165.3 486 163.8C486.7 162.4 487.7 161.2 488.6 159.7C489.1 158.7 489.8 158.3 490.3 158.3C490.5 158.3 490.5 158.5 490.5 159C490.5 159.5 490.3 160.7 489.8 162.1C489.3 162.8 491.2 163.1 494.8 163.1C495.3 163.1 495.5 163.1 495.5 162.9C495.5 162.9 495.3 161.9 494.8 160.3C494.6 159.8 494.8 159.1 495.5 158.1L495.58 157.964C496.522 156.363 496.908 155.705 497.2 155.9C498.2 156.6 498.6 158.1 498.6 159.7C498.6 161.4 498.1 163.1 497.4 165C496.7 167.2 496 168.4 495.5 168.8C493.8 169.8 491.2 169.5 487.6 167.8C484.7 170.7 481.8 172.4 479 172.4C478.3 172.4 477.1 172.2 475.9 171.7C474.7 171.2 473.7 171 473 171C468.2 171 463.2 173.2 458.1 178L447.3 188.8C445.1 190.4 442.9 191.6 440.5 192.3ZM124.7 198.8C122.1 199.5 120.6 200 120.1 200L120.1 199.8C120.1 199.8 121.1 199.1 123 197.9C124.9 196.7 127.8 194.8 131.9 191.7C133.8 189.8 136.7 186.7 140.3 182.3C142.7 179.4 145.3 176.8 148.2 174.9C151.8 172.3 155.2 171.1 158.8 171.1C159.5 171.1 160.7 171.3 162.2 171.8C163.4 172.3 164.6 172.5 165.6 172.5C167.5 172.5 169 171.8 170.2 170.3C170.9 168.9 171.9 167.7 172.8 166.2C173.3 165.2 174 164.8 174.5 164.8C174.7 164.8 174.7 165 174.7 165.5C174.7 166 174.5 167.2 174 168.6C173.5 169.3 175.4 169.6 179 169.6C179.5 169.6 179.7 169.6 179.7 169.4C179.7 169.4 179.5 168.4 179 166.8C178.8 166.3 179 165.6 179.7 164.6L179.78 164.464C180.722 162.863 181.108 162.205 181.4 162.4C182.4 163.1 182.8 164.6 182.8 166.2C182.8 167.9 182.3 169.6 181.6 171.5C180.9 173.7 180.2 174.9 179.7 175.3C178 176.3 175.4 176 171.8 174.3C168.9 177.2 166 178.9 163.2 178.9C162.5 178.9 161.3 178.7 160.1 178.2C158.9 177.7 157.9 177.5 157.2 177.5C152.4 177.5 147.4 179.7 142.3 184.5L131.5 195.3C129.2 196.9 127.1 198.1 124.7 198.8ZM248.7 188C249.4 187.3 249.9 186.1 250.4 183.9C250.7 182.9 250.7 182.5 250.4 182.6C250.183 182.383 249.759 182.584 249.088 182.9C248.829 183.022 248.534 183.161 248.2 183.3C246.7 184.3 245.5 185.2 244.1 186.2C242 187.4 240.5 187.9 239.8 187.9C238.8 187.9 237.6 187.7 236.2 186.7C234.7 185.9 234 185.2 234 184.5C234 184 234.7 183.3 235.9 182.6C237.1 181.6 238.1 181.4 238.8 181.4C240 181.4 240.9 181.9 241.4 183.1C241.9 183.8 242.2 183.8 242.4 183.3C243.6 181.4 244.1 179.9 244.1 178.5C244.1 176.1 243.2 174.9 241 174.9C238.6 174.9 235.5 177.1 231.9 181.4C230 183.6 229.3 185.7 229.3 187.9C229.3 189.8 231 191.5 234.6 192.7C231.7 194.8 230.2 196.3 230 197L229.5 200.1C229.5 200.6 229.5 200.6 229.7 200.8C230.2 200.3 230.7 200 230.9 199.8C240.1 193.5 246.1 189.7 248.7 188Z" id="Group" fill="#595959" fill-rule="evenodd" stroke="none" clip-path="url(#clip_1)" />
  </g>
</svg>