<?xml version="1.0" encoding="utf-8"?>
<svg width="530.5001px" height="203.10002px" viewBox="0 0 530.5001 203.10002" version="1.1" xmlns:xlink="http://www.w3.org/1999/xlink" xmlns="http://www.w3.org/2000/svg">
  <defs>
    <path d="M530.5 0L530.5 0L530.5 203.1L0 203.1L0 0L530.5 0Z" id="path_1" />
    <clipPath id="clip_1">
      <use xlink:href="#path_1" clip-rule="evenodd" fill-rule="evenodd" />
    </clipPath>
  </defs>
  <g id="Surah_89_of_114_(modified)">
    <path d="M530.5 0L530.5 0L530.5 203.1L0 203.1L0 0L530.5 0Z" id="Surah_89_of_114_(modified)" fill="none" stroke="none" />
    <path d="M286.5 28.1C286.5 23.3 285.8 19.5 284.3 16.3C284.3 14.6 285.5 10.5 288.4 4.29999C288.6 3.59999 288.9 3.09999 289.1 3.09999C289.6 3.09999 289.8 3.59999 290.3 4.29999C291 5.99998 292.7 10.5 295.6 18C298.7 25.9 300.4 30.7 300.9 32.6C301.4 33.8 301.4 35 301.4 35.5C301.4 37.7 299.5 36.5 295.2 31.7C294.7 31 294.5 31.5 294.5 32.7C294.5 33.2 295.7 48.1 297.9 77.8C300.1 107.3 301 123.9 301 127.7C301 139 299.3 149.1 296 157.7C295 159.4 294.6 160.6 294.1 161.5L294.1 161.5C293.4 162.7 293.1 162.7 292.9 162C292.7 161 292.9 159.1 293.1 156.5C293.6 152.4 293.8 147.9 293.8 142.8C293.8 138 292.6 118.8 290.2 84.9999C287.7 51.1 286.5 32.2 286.5 28.1L286.5 28.1L286.5 28.1L286.5 28.1L286.5 28.1ZM276.1 118.1C276.1 132.3 273.5 143.3 268.4 151.5C264.1 158.2 259 161.8 253.3 161.8L253.3 147.2C257.9 147.2 262.4 145.3 266.7 141.7C267.9 140.7 268.6 136.7 268.6 129.9C268.6 125.8 267.4 109.3 265.2 80.5C263 51.7 262.1 34.7 262.1 29.4C262.1 24.8 261.4 21 259.9 17.9C259.9 16.2 261.3 12.1 264 5.69998C264.2 4.99998 264.5 4.69998 265 4.69998C265.2 4.69998 265.5 4.89998 266 5.89998C266.7 7.59998 268.6 12.1 271.5 19.6C274.4 27.5 276.1 32.3 276.8 34C277 35.4 277.3 36.6 277.3 37.1C277.3 39.3 275.1 38.1 271.1 33.3C270.6 32.8 270.4 33.1 270.4 34.3C270.4 34.5 271.4 47.5 273.3 72.9C275.2 97.9 276.1 113 276.1 118.1L276.1 118.1L276.1 118.1L276.1 118.1L276.1 118.1ZM239.2 121.2C239.2 119.5 238 116.9 235.6 113C233.2 108.9 230.8 106.8 229.1 106.8C227.4 106.8 226 108 224.5 109.9C223.1 111.8 222.3 113.7 222.3 115.7C222.3 119.8 224 124.6 227.3 130.3C235.3 126 239.2 122.9 239.2 121.2L239.2 121.2L239.2 121.2L239.2 121.2L239.2 121.2ZM166 160.6C152.3 160.6 143 159.6 137.4 157.5L137.4 142.9C142 145.1 151.6 146 166.4 146C176.7 146 187.8 144.6 199.8 141.2C210.1 138.3 217.6 135.4 222.6 132.6C220.2 124.4 219 119.4 219 117.2C219 110 220.2 104.2 222.6 99.7C225 95.1 228.1 93 231.7 93C234.8 93 237.9 95.6 240.6 100.9C243.2 105.7 244.4 109.8 244.4 113.6C244.4 119.1 243.2 124.6 241 129.7C238.8 134.5 236.4 137.9 234 139.5C237.4 144.5 243.8 147.2 253.2 147.2L253.2 161.8C241.2 161.8 232.3 155.8 226.3 143.8C219.3 147.6 211.2 151 201.8 154.1C188.8 158.4 176.8 160.6 166 160.6L166 160.6L166 160.6L166 160.6L166 160.6ZM137.4 142.6L137.4 157.5C120.4 150.3 112 139.7 112 125.6C112 123.7 112.2 121.3 112.7 118.2C113.2 113.9 114.1 112 115.1 112C115.6 112 116.1 112.7 116.1 114.6C116.1 126.7 123 136.1 137.4 142.6L137.4 142.6L137.4 142.6L137.4 142.6L137.4 142.6ZM179.9 79.2L176.5 89C176 90.2 175.8 90.9 175.5 91.2C175.3 91.7 174.8 91.9 174.3 91.9C154.4 96.7 134.7 102.9 115 110.6C115.2 113.5 115.5 115.9 115.5 117.6C115.5 120 115 121.2 114.3 121.2C113.3 121.2 111.2 118.6 108.1 112.8C104.5 114 98.3 116.6 89.4 120.5L89.4 107.3C92 106.1 95.9 104.4 100.4 102.3C99.9 101.8 96.6 98.9 90.1 93.7C84.6 89.4 81.2 85.8 79.8 83.4C78.4 81.2 77.6 78.6001 77.6 76C77.6 71.4 79.5 67.6001 83.1 64.5C86.7 61.1001 91.3 59.5 96.8 59.5C106.6 59.5 122.7 62.4 144.3 67.7001C145.3 67.9001 156.8 71.1001 178.9 77.1001C180.1 77 180.4 78 179.9 79.2L179.9 79.2L179.9 79.2L179.9 79.2L179.9 79.2ZM155.2 85.2C149.9 83.3 141.5 80.6 130.2 78C115.6 74.4 104 72.7 95.2 72.7C88.2 72.7 84.6 73.2 84.6 74.4C84.6 74.9 85.8 76.1 87.7 78C91.8 81.1 95.9 84.5 99.7 87.8C105.7 92.6 109.3 96.2 111 98.4C126.9 92.9 141.5 88.3 155.2 85.2L155.2 85.2L155.2 85.2L155.2 85.2L155.2 85.2ZM44.1 133.9C49.1 128.1 55.9 123.1 64.3 118.5C69.1 115.9 77.5 112 89.5 107L89.5 120.2C81.8 123.6 76.3 126 72.7 127.6C65.3 131.2 60.2 133.8 57.6 136C52.6 139.8 45.1 147.3 35.5 158.3C29.7 165 24 168.4 18.2 168.4C13.4 168.4 9.09998 166.2 5.49998 161.7C1.69998 157.4 -1.52588e-05 151.6 -1.52588e-05 145.1C-1.52588e-05 136.2 3.59999 124.5 11 109.8C11.7 108.4 12.4 107.6 12.9 107.6C12.9 107.6 13.1 107.8 13.1 108.1C13.1 109.5 11.4 114.6 8.29997 123.2C4.89998 132.1 3.29997 138.8 3.29997 143.8C3.29997 147.6 4.29997 150.8 6.19997 152.9C8.09996 155.5 10.8 156.7 14.1 156.7C20.1 156.7 26.3 153.6 32.3 147.6C36.4 143.3 40.2 138.5 44.1 133.9L44.1 133.9L44.1 133.9L44.1 133.9L44.1 133.9ZM139.1 124.1C138.9 123.9 138.9 123.6 139.1 123.1L143.7 113.5C143.9 113 144.4 112.8 144.7 112.8C145.2 112.8 147.3 114 150.9 116.4C154.7 119 156.7 120.5 156.7 121C156.7 122.7 155 126 151.7 131.3C151.2 132 151 132.3 150.5 132C146.8 129.1 142.9 126.5 139.1 124.1L139.1 124.1L139.1 124.1L139.1 124.1L139.1 124.1ZM220.2 69.1C220 68.9 220 68.6 220.2 68.1L224.8 58.5C225 58 225.5 57.8 225.8 57.8C226.3 57.8 228.4 59 232 61.4C235.8 64 237.8 65.5 237.8 66C237.8 67.7 236.1 71 232.8 76.3C232.3 77 232.1 77.3 231.6 77C227.9 74.2 224.1 71.5 220.2 69.1L220.2 69.1L220.2 69.1L220.2 69.1L220.2 69.1ZM244.2 20.9C244.2 19.7 241.8 17.5 236.8 14.7C235.1 17.6 234.4 20.2 234.4 22.6C234.4 24 235.1 25 236.6 25C237.8 25 239.2 24.5 240.9 23.6C242.5 22.8 243.7 21.8 244.2 20.9L244.2 20.9L244.2 20.9L244.2 20.9L244.2 20.9ZM238.9 1.7C239.6 0.5 240.6 0 241.3 0C241.8 0 242.3 0.199997 242.3 0.699997C242.3 0.699997 242.1 0.899994 242.1 1.2C241.1 3.39999 240.2 5.8 239.5 8.2C244.5 11.8 246.9 15.6 246.7 19.2C246.2 23.3 245.7 25.9 245 26.9C242.6 29.8 240 31.5 236.6 31.5C233.2 31.5 231.8 29.3 231.8 25.5C231.8 24.8 231.8 23.8 232 22.9C233.2 15.1 235.6 8.2 238.9 1.7L238.9 1.7L238.9 1.7L238.9 1.7L238.9 1.7ZM157.8 53.5C176.3 46.8 195.5 39.6 215.6 32.1C216.3 31.9 216.8 31.6 217 31.9C217 31.9 217 32.4 216.8 33.1C215.8 35.3 215.1 36.5 214.6 36.9C197.8 43.1 177.9 50.8 155.3 60.2C155.9 58.1 156.6 55.9 157.8 53.5L157.8 53.5L157.8 53.5L157.8 53.5L157.8 53.5ZM38.5 172.1C57 165.4 76.2 158.2 96.3 150.7C97 150.5 97.5 150.2 97.7 150.5C97.7 150.5 97.7 151 97.5 151.7C96.5 153.9 95.8 155.1 95.3 155.5C78.5 161.7 58.6 169.4 36 178.8C36.6 176.6 37.3 174.5 38.5 172.1L38.5 172.1L38.5 172.1L38.5 172.1L38.5 172.1ZM127.8 30C127.8 28.8 125.4 26.6 120.4 23.8C118.7 26.7 118 29.3 118 31.7C118 33.1 118.7 34.1 120.2 34.1C121.4 34.1 122.8 33.6 124.5 32.7C126.1 31.9 127.3 31 127.8 30L127.8 30L127.8 30L127.8 30L127.8 30ZM122.5 10.8C123.2 9.60001 124.2 9.10001 124.9 9.10001C125.4 9.10001 125.9 9.3 125.9 9.8C125.9 9.8 125.7 10 125.7 10.3C124.7 12.5 123.8 14.9 123.1 17.3C128.1 20.9 130.5 24.7 130.3 28.3C129.8 32.4 129.3 35 128.6 36C126.2 38.9 123.6 40.6 120.2 40.6C116.8 40.6 115.4 38.4 115.4 34.6C115.4 33.9 115.4 32.9 115.6 32C116.8 24.2 119.2 17.3 122.5 10.8L122.5 10.8L122.5 10.8L122.5 10.8L122.5 10.8ZM166 6.7C168.9 6.7 171.3 8.09999 173.4 11.5C175.6 14.6 177.2 18.9 178 24.2C178.2 24.7 178.2 24.9 178.2 25.2L178.4 25.2C178.4 25 178.6 24.7 178.6 24.2C179.1 21.1 180.3 16.3 182 10C183.9 5.7 185.8 3.5 188 3.5C189.2 3.5 190.4 4.2 191.4 5.7C192.4 7.09999 192.8 8.09999 192.8 9.09999C192.8 9.59999 192.8 10.5 192.3 11.5C191.8 12.9 191.3 13.7 190.9 13.7C190.7 13.7 190.2 13 189.2 12C188.5 11 187.5 10.6 186.6 10.6C184.7 10.6 183 15.2 181.3 24.3C180.6 28.4 179.6 31.3 178.9 32.9C178.2 33.9 177.7 34.6 177.2 34.6C176.7 34.6 176.7 33.9 176.5 32.9C176.7 31.2 175.8 28.1 173.9 23.5C172 18.7 170.8 16.5 169.8 16.5C169.3 16.5 169.1 16.5 168.8 17C168.6 17.2 168.3 17.5 167.6 17.5C166.6 17.5 165.7 16.8 164.2 15.6C162.8 14.4 162.3 13.4 162.3 12.7C162.3 12.5 162.8 11.3 164 9.30002C165 7.39999 165.7 6.7 166 6.7L166 6.7L166 6.7L166 6.7L166 6.7ZM205.8 86.4C205.8 86.2 206 85.9 206 85.9C206.2 85.7 206.2 85.7 206.2 85.9C206.4 86.1 206.4 86.4 206.2 86.6C205 93.8 202.8 97.4 199.7 97.4C196.6 97.4 195.1 94.8 195.1 89.5C195.1 83 196.8 76.1 200.6 69.1C201.6 67.4 202 66.5 202.3 66.5L202.3 66.5C202.3 66.7 202.1 67.7 201.6 69.4C199.2 76.8 198 81.9 198 85C198 88.8 199 91 201.1 91C202.7 91 204.1 89.3 205.8 86.4L205.8 86.4L205.8 86.4L205.8 86.4L205.8 86.4ZM187.3 115C187.3 117.6 186.1 120.5 184.2 123.6C182 126.7 179.4 129.6 176 132C174.6 133 173.8 133.4 173.6 133.4L173.6 133.2C173.6 133 174.1 132.5 175 131.3C180.5 125.3 183.4 121.5 183.4 119.3C183.4 117.6 182.4 116.7 180.8 116.7C179.8 116.7 178.9 116.9 178.2 117.4C177.5 117.6 177.2 117.9 177 117.9C177 117.9 176.8 117.9 176.8 117.7C176.8 117.7 176.8 117.2 177 116.3C178 112.2 179.9 110.3 183.2 110.3C185.9 110.2 187.3 111.8 187.3 115L187.3 115L187.3 115L187.3 115L187.3 115ZM217.8 173.3C220.7 173.3 223.1 174.7 225.2 178.1C227.4 181.2 229 185.5 229.8 190.8C230 191.3 230 191.5 230 191.8L230.2 191.8C230.2 191.6 230.4 191.3 230.4 190.8C230.9 187.7 232.1 182.9 233.8 176.6C235.7 172.3 237.6 170.1 239.8 170.1C241 170.1 242.2 170.8 243.2 172.3C244.2 173.7 244.6 174.7 244.6 175.7C244.6 176.2 244.6 177.1 244.1 178.1C243.6 179.5 243.1 180.3 242.7 180.3C242.5 180.3 242 179.6 241 178.6C240.3 177.6 239.3 177.2 238.4 177.2C236.5 177.2 234.8 181.8 233.1 190.9C232.4 195 231.4 197.9 230.7 199.5C230 200.5 229.5 201.2 229 201.2C228.5 201.2 228.5 200.5 228.3 199.5C228.5 197.8 227.6 194.7 225.7 190.1C223.8 185.3 222.6 183.1 221.6 183.1C221.1 183.1 220.9 183.1 220.6 183.6C220.4 183.8 220.1 184.1 219.4 184.1C218.4 184.1 217.5 183.4 216 182.2C214.6 181 214.1 180 214.1 179.3C214.1 179.1 214.6 177.9 215.8 175.9C216.9 174 217.6 173.3 217.8 173.3L217.8 173.3L217.8 173.3L217.8 173.3L217.8 173.3ZM182.3 192C182.3 191.8 182.5 191.5 182.5 191.5C182.7 191.3 182.7 191.3 182.7 191.5C182.9 191.7 182.9 192 182.7 192.2C181.5 199.4 179.3 203 176.2 203C173.1 203 171.6 200.4 171.6 195.1C171.6 188.6 173.3 181.7 177.1 174.7C178.1 173 178.5 172.1 178.8 172.1L178.8 172.1C178.8 172.3 178.6 173.3 178.1 175C175.7 182.4 174.5 187.5 174.5 190.6C174.5 194.4 175.5 196.6 177.6 196.6C179.2 196.6 180.6 194.9 182.3 192L182.3 192L182.3 192L182.3 192L182.3 192ZM116.5 175.2C119.4 175.2 121.8 176.6 123.9 180C126.1 183.1 127.7 187.4 128.5 192.7C128.7 193.2 128.7 193.4 128.7 193.7L128.9 193.7C128.9 193.5 129.1 193.2 129.1 192.7C129.6 189.6 130.8 184.8 132.5 178.5C134.4 174.2 136.3 172 138.5 172C139.7 172 140.9 172.7 141.9 174.2C142.9 175.6 143.3 176.6 143.3 177.6C143.3 178.1 143.3 179 142.8 180C142.3 181.4 141.8 182.2 141.4 182.2C141.2 182.2 140.7 181.5 139.7 180.5C139 179.5 138 179.1 137.1 179.1C135.2 179.1 133.5 183.7 131.8 192.8C131.1 196.9 130.1 199.8 129.4 201.4C128.7 202.4 128.2 203.1 127.7 203.1C127.2 203.1 127.2 202.4 127 201.4C127.2 199.7 126.3 196.6 124.4 192C122.5 187.2 121.3 185 120.3 185C119.8 185 119.6 185 119.3 185.5C119.1 185.7 118.8 186 118.1 186C117.1 186 116.2 185.3 114.7 184.1C113.3 182.9 112.8 181.9 112.8 181.2C112.8 181 113.3 179.8 114.5 177.8C115.6 175.9 116.3 175.2 116.5 175.2L116.5 175.2L116.5 175.2L116.5 175.2L116.5 175.2ZM97.3 177.1C97.3 179.7 96.1 182.6 94.2 185.7C92 188.8 89.4 191.7 86 194.1C84.6 195.1 83.8 195.5 83.6 195.5L83.6 195.3C83.6 195.1 84.1 194.6 85 193.4C90.5 187.4 93.4 183.6 93.4 181.4C93.4 179.7 92.4 178.8 90.8 178.8C89.8 178.8 88.9 179 88.2 179.5C87.5 179.7 87.2 180 87 180C87 180 86.8 180 86.8 179.8C86.8 179.8 86.8 179.3 87 178.4C88 174.3 89.9 172.4 93.2 172.4C95.9 172.3 97.3 174 97.3 177.1L97.3 177.1L97.3 177.1L97.3 177.1L97.3 177.1ZM18.4 99.1C18.4 98.9 18.6 98.6 18.6 98.6C18.8 98.4 18.8 98.4 18.8 98.6C19 98.8 19 99.1 18.8 99.3C17.6 106.5 15.4 110.1 12.3 110.1C9.2 110.1 7.7 107.5 7.7 102.2C7.7 95.7 9.39999 88.8 13.2 81.8C14.2 80.1 14.6 79.2 14.9 79.2L14.9 79.2C14.9 79.4 14.7 80.4 14.2 82.1C11.8 89.5 10.6 94.6 10.6 97.7C10.6 101.5 11.6 103.7 13.7 103.7C15.3 103.7 16.7 102 18.4 99.1L18.4 99.1L18.4 99.1L18.4 99.1L18.4 99.1ZM80.3 30.5C80.3 31 80.1 31.9 79.6 32.9C79.4 34.3 78.9 35.1 78.2 35.1C78 35.1 77.5 34.4 76.5 33.4C75.8 32.4 74.8 32 74.1 32C72.2 32 70.3 36.6 68.6 45.7C67.9 49.8 67.2 52.7 66.2 54.3C65.5 55.3 65 56 64.5 56C64.3 56 64 55.3 64 54.3C64 52.6 63 49.5 61.1001 44.9C59.2001 40.1 58 37.9 57.3 37.9C56.6001 37.9 56.3 37.9 56.1001 38.4C56.1001 38.6 55.6001 38.9 54.9001 38.9C53.9001 38.9 53.0001 38.2 51.5001 37C50.3001 35.8 49.6001 34.8 49.6001 34.1C49.6001 33.9 50.1001 32.7 51.3001 30.7C52.5001 28.8 53.2001 28.1 53.5001 28.1C56.1001 28.1 58.5001 29.5 60.7001 32.9C63.1001 36.3 64.5001 40.3 65.5001 45.6C65.5001 46.1 65.5001 46.3 65.5001 46.6C65.7001 46.8 65.7001 46.8 65.7001 46.6C65.7001 46.4 65.9001 46.1 66.2001 45.6C66.4001 42.5 67.6001 37.7 69.3001 31.4C71.2001 27.1 73.1001 24.9 75.3001 24.9C76.5001 24.9 77.7001 25.6 78.9001 27.1C79.8 28.6 80.3 29.5 80.3 30.5L80.3 30.5L80.3 30.5L80.3 30.5L80.3 30.5ZM64.5 58.1C62.8 61.9 59.5 65.8 54.4 69.4C49.8 72.8 45.8 75.2 42.2 76.8C41.5 77.3 37.2 79 29.2 81.8C28 82.3 27.3 82.5 26.8 82.5C26.6 82.5 26.6 82.3 26.6 82.3C26.6 82.1 27.3 81.3 28.5 80.6C35 76.8 44.1 71.2 56.1 63.3C59 61.1 61.1 59 62.8 57.1C64.7 54.8999 65.7 53.7 65.9 53.7C65.9 53.7 65.9 53.7 65.9 53.9C65.9 54.2 65.4 55.7 64.5 58.1L64.5 58.1L64.5 58.1L64.5 58.1L64.5 58.1ZM53.2 97C53.2 99.6 52 102.5 50.1 105.6C47.9 108.7 45.3 111.6 41.9 114C40.5 115 39.7 115.4 39.5 115.4L39.5 115.2C39.5 115 40 114.5 40.9 113.3C46.4 107.3 49.3 103.5 49.3 101.3C49.3 99.6 48.3 98.7 46.7 98.7C45.7 98.7 44.8 98.9 44.1 99.4C43.4 99.6 43.1 99.9 42.9 99.9C42.9 99.9 42.7 99.9 42.7 99.7C42.7 99.7 42.7 99.2 42.9 98.3C43.9 94.2 45.8 92.3 49.1 92.3C51.7 92.2 53.2 93.8 53.2 97L53.2 97L53.2 97L53.2 97L53.2 97ZM471.7 113.8C472.9 112.8 473.9 112.4 474.6 112.4C475.1 112.4 475.3 112.9 475.3 113.8C475.3 114.5 475.1 116 474.6 117.9C474.1 119.8 473.9 121.3 473.9 122.5C473.9 127.8 477.7 130.7 485.2 130.7C491.2 130.7 496.2 128.1 500.1 123C502.5 118.9 505.1 115.1 507.5 111.2C508.5 110.2 509.2 109.8 509.9 109.8C510.9 109.8 511.1 110.8 510.6 112.9C509.6 117 508.9 118.9 508.9 118.4C508.9 120.1 509.9 121.8 511.8 123.2C513.5 124.6 515.9 125.6 518.5 125.6C521.9 125.6 524 124.6 525 123C525 122.8 524 120.8 521.9 117.2C522.1 115.3 523.1 111.9 524.5 107.4C524.7 106 525.2 105.2 525.7 105.2C526.2 105.2 526.7 105.4 527.4 106.4C529.3 109.3 530.5 112.6 530.5 116.5C530.5 122.5 529.1 127.5 526.4 131.9C523.5 137.2 519.2 139.8 513.4 139.8C509.6 139.8 506 136.7 502.8 130.9C497.7 140.4 490.7 145.2 482.3 145.2C472.2 145.2 467.4 139.4 467.4 128.4C463.6 133 457.1 137 448.7 140.9L448.7 127.7C454.9 124.6 459 122.7 460.2 121.9C464.1 120 467.9 117.1 471.7 113.8L471.7 113.8L471.7 113.8L471.7 113.8L471.7 113.8ZM435 129.6C431.4 125 428.3 122.9 425.4 122.9C421.1 122.9 419.2 123.9 419.2 126.3C419.2 129.2 422.1 130.6 427.8 130.6C430 130.6 432.4 130.1 435 129.6L435 129.6L435 129.6L435 129.6L435 129.6ZM442.5 147.1C442.5 145.7 442 144 441.5 142.3C438.6 143.3 434.3 144 429 144C417.5 144 411.7 139.9 411.7 132C411.7 126 413.4 120.7 417.2 115.9C420.8 111.8 424.6 109.7 428.7 109.7C431.8 109.7 434.9 111.6 438.5 115.2C441.6 118.8 444.5 122.9 446.9 127.9C447.1 127.9 447.6 127.9 448.6 127.4L448.6 140.6L448.1 141.1C448.1 144 447.4 147.3 445.9 151.7C444.2 157.2 441.6 161.8 438.5 165.4C431.3 174 423.4 181.5 414.7 188C401.7 197.6 390.7 202.6 381.1 202.6C372.9 202.6 366.7 199.5 362.4 193.5C358.6 188.5 356.6 181.7 356.6 173.8C356.6 163.7 358.8 153.4 362.8 142.6C364 140.2 364.5 139.2 365 139.2C365.2 139.2 365.2 139.4 365.2 139.9C365.2 140.6 365 141.8 364.7 143.3C361.6 153.9 360.1 161.8 360.1 167.3C360.1 172.3 361.3 176.7 363.7 180.3C367.5 185.3 373.5 188 381.9 188C389.1 188 397.7 184.9 408.1 178.6C416.3 173.6 424.2 167.6 431.9 160.4C438.9 153.6 442.5 149.3 442.5 147.1L442.5 147.1L442.5 147.1L442.5 147.1L442.5 147.1ZM376.9 110.9C376.4 108.7 375.7 107.1 374.7 105.9C374 104.5 373.5 103.7 373.3 103.3C373.3 102.8 373.3 101.1 373.8 97.8C374.3 94.7 374.5 92.5 375 91.3C375.2 90.1 375.5 89.6 376 89.6C376.2 89.6 376.5 89.8 377 90.3C380.4 94.1 384 98 388 102.1C389.7 103.8 390.4 104.7 390.4 105.2C390.4 105.4 390.2 105.7 389.7 105.7C389 105.7 387.1 105.2 384.2 104.5C385.9 108.6 387.8 112.7 389.5 116.5C392.1 123.2 393.6 128.7 393.6 133.8C393.6 136.2 393.1 139.1 392.2 142.7C391 146.8 389.6 149.9 387.6 152.1C380.6 160 368.9 168.7 352.3 178C337.9 186.4 329.5 190.5 326.9 190.5C326.4 190.5 319.2 192.2 305.5 195.5C291.1 198.9 282 201 278.4 201.5C274.6 202.2 272.2 202.5 271.2 202.5C270.7 202.5 270.7 202.5 270.7 202.3C270.7 202.1 273.3 200.6 278.6 198.2C280.5 197.2 291.6 192.4 312 183.8C326.2 177.8 337.9 172.3 347.3 167.2C361.5 159.5 372.3 152.8 379.7 147.3C385.2 143 388.1 139.9 388.1 137.9C388.1 137.4 386.7 134.1 383.8 127.8C380.5 120.7 378.1 115 376.9 110.9L376.9 110.9L376.9 110.9L376.9 110.9L376.9 110.9ZM357.3 77.5C357.3 81.3 355.4 86.6 351.5 93.1C349.1 97.2 345.5 102.7 340.7 109.9C345.5 115.4 348.9 120.5 350.5 124.8C351.5 127.9 352.2 132 352.2 136.6C352.2 138.5 351.7 140.9 350.8 144C350.1 146.9 349.1 149 348.2 150.5C346.3 153.4 343.2 156.3 338.4 159.1C333.4 162.5 329 164.1 325.4 164.1C319.6 164.1 316.8 159.8 316.8 151.1C316.8 145.3 317.8 139.6 319.7 134.3C321.6 129.7 324.7 123.7 329.8 115.8C325.5 111.7 320.9 106 315.9 98.8C315.4 98.1 314.2 96.9 312.3 95C311.3 94 310.9 92.8 310.9 91.4C310.9 89.2 311.1 86.8 311.6 84C312.3 81.1 312.8 79.9 313 79.9C313.7 79.9 315.9 81.1 320 83.7C323.8 86.3 327 88.3 328.9 89.9C330.1 90.6 330.6 91.3 330.6 91.3L330.6 91.5C330.6 91.7 329.9 92 328.2 92C325.1 92 323.4 92.2 323.4 92.5C323.4 92.7 323.9 93.2 324.8 94.4C328.6 99.2 332.5 102.8 336.6 105.7C337.6 104.3 340.9 99.5 346.2 91.3C350.8 84.3 353.4 79.5 354.6 76.7C355.8 73.8 356.5 72.6 357 72.6C357 72.7 357.3 74.2 357.3 77.5L357.3 77.5L357.3 77.5L357.3 77.5L357.3 77.5ZM347.9 136.6C345.3 131.3 340.7 125.8 334.5 120.5C332.3 122.7 329.7 126.7 326.3 132.5C322.5 139 320.8 143.1 320.8 145.2C320.8 148.1 322.7 149.5 327 149.5C328.9 149.5 331.3 148.8 334.4 147.6C338.7 145.7 342.8 143 346.2 139.7C347.7 138.2 348.1 137.3 347.9 136.6L347.9 136.6L347.9 136.6L347.9 136.6L347.9 136.6ZM334.5 59.3L338.3 51.4C338.5 50.9 338.8 50.7 339.3 50.7C339.8 50.7 341.7 51.9 345.5 54.5C349.1 56.9 351 58.3 351 58.8C351 60.5 349.3 64.1 346.2 69.4C345.7 70.1 345.2 70.1 344.8 69.9C341.7 67.5 338.1 65.1 334 62.5C332.6 65.4 331.4 68 329.9 70.2C329.7 70.9 329.2 71.2 328.7 70.9C325.1 68 321.3 65.4 317.4 63C317.2 62.8 317.2 62.5 317.4 62L322 52.4C322.2 51.9 322.7 51.4 323 51.4C323.5 51.4 325.2 52.6001 328.3 54.8C331.3 56.6 333.5 58.3 334.5 59.3L334.5 59.3L334.5 59.3L334.5 59.3L334.5 59.3ZM460.9 193.2C458.3 193.9 456.8 194.4 456.3 194.4L456.3 194.2C456.3 194.2 457.3 193.5 459.2 192.3C461.1 191.1 464 189.2 468.1 186.1C470 184.2 472.9 181.1 476.5 176.7C478.9 173.8 481.5 171.2 484.4 169.3C488 166.7 491.4 165.5 495 165.5C495.7 165.5 496.9 165.7 498.4 166.2C499.6 166.7 500.8 166.9 501.8 166.9C503.7 166.9 505.2 166.2 506.4 164.7C507.1 163.3 508.1 162.1 509 160.6C509.5 159.6 510.2 159.2 510.7 159.2C510.9 159.2 510.9 159.4 510.9 159.9C510.9 160.4 510.7 161.6 510.2 163C509.7 163.7 511.6 164 515.2 164C515.7 164 515.9 164 515.9 163.8C515.9 163.8 515.7 162.8 515.2 161.2C515 160.7 515.2 160 515.9 159C516.9 157.3 517.3 156.6 517.6 156.8C518.6 157.5 519 159 519 160.6C519 162.2 518.5 164 517.8 165.9C517.1 168.1 516.4 169.3 515.9 169.7C514.2 170.7 511.6 170.4 508 168.7C505.1 171.6 502.2 173.3 499.4 173.3C498.7 173.3 497.5 173.1 496.3 172.6C495.1 172.1 494.1 171.9 493.4 171.9C488.6 171.9 483.6 174.1 478.5 178.9C474.9 182.5 471.3 186.1 467.7 189.7C465.5 191.3 463.3 192.5 460.9 193.2L460.9 193.2L460.9 193.2L460.9 193.2L460.9 193.2ZM409.6 63.6C412.5 63.6 414.9 65 417 68.4C419.2 71.5 420.8 75.8 421.6 81.1C421.8 81.6 421.8 81.8 421.8 82.1L422 82.1C422 81.9 422.2 81.6 422.2 81.1C422.7 78 423.9 73.2 425.6 66.9C427.5 62.6 429.4 60.4 431.6 60.4C432.8 60.4 434 61.1 435 62.6C436 64 436.4 65 436.4 66C436.4 66.5 436.4 67.4 435.9 68.4C435.4 69.8 434.9 70.6 434.5 70.6C434.3 70.6 433.8 69.9 432.8 68.9C432.1 67.9 431.1 67.5 430.2 67.5C428.3 67.5 426.6 72.1 424.9 81.2C424.2 85.3 423.2 88.2 422.5 89.8C421.8 90.8 421.3 91.5 420.8 91.5C420.3 91.5 420.3 90.8 420.1 89.8C420.3 88.1 419.4 85 417.5 80.4C415.6 75.6 414.4 73.4 413.4 73.4C412.9 73.4 412.7 73.4 412.4 73.9C412.2 74.1 411.9 74.4 411.2 74.4C410.2 74.4 409.3 73.7 407.8 72.5C406.4 71.3 405.9 70.3 405.9 69.6C405.9 69.4 406.4 68.2 407.6 66.2C408.6 64.3 409.3 63.6 409.6 63.6L409.6 63.6L409.6 63.6L409.6 63.6L409.6 63.6ZM368.8 60.7C393 51.6 418.2 42.5 444.2 32.9C444.9 32.7 445.4 32.4 445.4 32.7C445.6 32.7 445.6 33.2 445.4 33.9C444.4 36.1 443.7 37.3 443.2 37.7C443 37.9 430.7 42.5 407 51.4C382.8 60.3 369.1 65.8 366.4 67.5C366.9 65.3 367.6 63.1 368.8 60.7L368.8 60.7L368.8 60.7L368.8 60.7L368.8 60.7ZM345.3 16.8C345.8 15.4 345.8 13.9 345.5 12.5C345.3 11.1 344.5 10.3 343.3 10.3C342.8 10.3 342.1 10.5 341.1 11C340.1 11.5 339.7 12 339.7 12.4C339.7 13.7 341.7 15.1 345.3 16.8L345.3 16.8L345.3 16.8L345.3 16.8L345.3 16.8ZM342.4 23C337.8 20.6 335.7 18.2 335.7 15.6C335.7 12.5 337.1 9.60001 340 7.20001C342.9 4.60001 345.3 3.60001 347.2 4.30002C348.9 4.80002 349.6 6.50002 349.6 9.30002C349.6 11.9 349.1 14.8 347.9 18.2C350.3 19.4 351.7 20.6 352.2 21.6C352.2 22.8 351.2 25 349.1 27.8C348.6 26.8 347.2 25.6 345 24.4C342.4 28 339.2 31.1 335.4 34C330.8 37.1 326.8 39.8 323.2 41.2C322.2 41.7 317.9 43.4 310.2 46.2C309 46.7 308 46.9 307.8 46.9C307.6 46.9 307.6 46.7 307.6 46.7C307.6 46.5 308.1 45.7 309.5 45C315.3 41.4 321 38 327 34.7C334 30.5 339 26.6 342.4 23L342.4 23L342.4 23L342.4 23L342.4 23ZM494.1 52.8C494.6 51.4 494.6 49.9 494.3 48.5C494.1 47.1 493.3 46.3 492.1 46.3C491.6 46.3 490.9 46.5 489.9 47C488.9 47.5 488.5 48 488.5 48.4C488.5 49.7 490.5 51.1 494.1 52.8L494.1 52.8L494.1 52.8L494.1 52.8L494.1 52.8ZM499.3 61.7C496.9 67.5 495.7 72 495.7 75.4C495.7 79.5 496.7 81.6 498.8 81.6C500 81.6 501.4 79.9 503.1 77C503.3 76.8 503.3 76.5 503.6 76.3C503.6 76.3 503.8 76.3 503.8 76.5C503.8 76.5 503.8 76.7 503.8 77.2C502.4 84.4 500.2 88 497.3 88C494.2 88 492.7 85.4 492.7 80.1C492.7 77.5 493.2 74.1 494.6 69.8C496 65.5 496.8 63.3 496.8 63.1C496.8 62.6 495.8 61.7 493.7 60.5C489.9 65.5 484.6 70.3 477.9 74.4C473.3 77 468.8 79.4 464 81.4C455.1 85 449.8 86.9 448.6 87.6C447.4 88.1 446.7 88.3 446.2 88.3C446 88.3 446 88.1 446 88.1C446 87.6 446.5 87.1 447.9 86.2C455.6 81.9 463 77.6 470.7 73.2C480.8 67.4 487.7 62.6 491.1 59C486.5 56.6 484.4 54.2 484.4 51.6C484.4 48.5 485.8 45.6 488.7 43C491.6 40.6 494 39.6 495.9 40.4C497.3 40.9 498.3 42.6 498.3 45.4C498.3 48 497.8 50.9 496.6 54C499 55.4 500 56.9 500 58.3C500.1 59 499.8 60.2 499.3 61.7L499.3 61.7L499.3 61.7L499.3 61.7L499.3 61.7ZM390.1 26.9C390.1 26.7 390.3 26.4 390.3 26.4C390.5 26.2 390.5 26.2 390.5 26.4C390.7 26.6 390.7 26.9 390.5 27.1C389.3 34.3 387.1 37.9 384 37.9C380.9 37.9 379.4 35.3 379.4 30C379.4 23.5 381.1 16.6 384.9 9.60001C385.9 7.90001 386.3 7 386.6 7L386.6 7C386.6 7.2 386.4 8.2 385.9 9.89999C383.5 17.3 382.3 22.4 382.3 25.5C382.3 29.3 383.3 31.5 385.4 31.5C387 31.4 388.5 29.8 390.1 26.9L390.1 26.9L390.1 26.9L390.1 26.9L390.1 26.9Z" id="Group" fill="#595959" stroke="none" clip-path="url(#clip_1)" />
  </g>
</svg>