<?xml version="1.0" encoding="utf-8"?>
<svg width="479.8001px" height="210.00002px" viewBox="0 0 479.8001 210.00002" version="1.1" xmlns:xlink="http://www.w3.org/1999/xlink" xmlns="http://www.w3.org/2000/svg">
  <defs>
    <path d="M479.8 0L479.8 0L479.8 210L0 210L0 0L479.8 0Z" id="path_1" />
    <clipPath id="clip_1">
      <use xlink:href="#path_1" clip-rule="evenodd" fill-rule="evenodd" />
    </clipPath>
  </defs>
  <g id="Surah_27_of_114_(modified)">
    <path d="M479.8 0L479.8 0L479.8 210L0 210L0 0L479.8 0Z" id="Surah_27_of_114_(modified)" fill="none" stroke="none" />
    <path d="M219.9 146.8C225 138.6 227.6 127.6 227.6 113.4C227.6 108.3 226.6 93.2 224.8 68.2C222.9 42.8 221.9 29.8 221.9 29.6C221.9 28.4 222.1 28.1 222.6 28.6C226.6 33.4 228.8 34.6 228.8 32.4C228.8 31.9 228.5 30.7 228.3 29.3C227.6 27.6 225.9 22.8 223 14.9C220.1 7.39999 218.2 2.89999 217.5 1.2C217 0.199997 216.7 0 216.5 0C216 0 215.7 0.300003 215.5 1C212.8 7.39999 211.4 11.5 211.4 13.2C212.9 16.3 213.6 20.1 213.6 24.7C213.6 30 214.5 47 216.7 75.8C218.9 104.6 220.1 121.1 220.1 125.2C220.1 132 219.4 136 218.2 137C213.9 140.6 209.4 142.5 204.8 142.5L204.8 157.1C210.5 157.1 215.6 153.5 219.9 146.8ZM232.3 18.8C233.8 22 234.5 25.8 234.5 30.6C234.5 34.7 235.7 53.6 238.2 87.5C240.6 121.3 241.8 140.5 241.8 145.3C241.8 150.4 241.6 154.9 241.1 159C241.071 159.379 241.042 159.744 241.014 160.093C240.85 162.136 240.729 163.646 240.9 164.5C241.1 165.2 241.4 165.2 242.1 164C242.6 163.1 243 161.9 244 160.2C247.3 151.6 249 141.5 249 130.2C249 126.4 248.1 109.8 245.9 80.3C243.7 50.6 242.5 35.7 242.5 35.2C242.5 34 242.7 33.5 243.2 34.2C247.5 39 249.4 40.2 249.4 38C249.4 37.5 249.4 36.3 248.9 35.1C248.4 33.2 246.7 28.4 243.6 20.5C240.7 13 239 8.50002 238.3 6.80002C237.8 6.10002 237.6 5.60002 237.1 5.60002C236.9 5.60002 236.6 6.10002 236.4 6.80002C233.5 13 232.3 17.1 232.3 18.8ZM163.5 11.4C163.5 14 162.3 16.9 160.4 20C158.2 23.1 155.6 26 152.2 28.4C150.8 29.4 150 29.8 149.8 29.8L149.8 29.6C149.8 29.4 150.3 28.9 151.2 27.7C156.7 21.7 159.6 17.9 159.6 15.7C159.6 14 158.6 13.1 157 13.1C156 13.1 155.1 13.3 154.4 13.8C153.7 14 153.4 14.3 153.2 14.3C153.2 14.3 153 14.3 153 14.1C153 14.1 153 13.6 153.2 12.7C154.2 8.60002 156.1 6.70003 159.4 6.70003C162 6.60002 163.5 8.30002 163.5 11.4ZM284.9 20.1C284.9 22.7 287 25.1 291.6 27.5C288.3 31.1 283.2 34.9 276.2 39.2C270.2 42.5 264.5 45.9 258.7 49.5C257.3 50.2 256.8 51 256.8 51.2C256.8 51.2 256.8 51.4 257 51.4C257.2 51.4 258.2 51.2 259.4 50.7C267.1 47.9 271.4 46.2 272.4 45.7C276 44.3 280 41.6 284.6 38.5C288.4 35.6 291.6 32.5 294.2 28.9C296.4 30.1 297.8 31.3 298.3 32.3C300.4 29.5 301.4 27.3 301.4 26.1C300.9 25.1 299.5 23.9 297.1 22.7C298.3 19.3 298.8 16.4 298.8 13.8C298.8 11 298.1 9.30003 296.4 8.80003C294.5 8.10002 292.1 9.10002 289.2 11.7C286.3 14.1 284.9 17 284.9 20.1ZM294.7 16.9C295 18.3 295 19.8 294.5 21.2C290.9 19.5 289 18.1 288.9 16.8C288.9 16.4 289.3 15.9 290.3 15.4C291.3 14.9 292 14.7 292.5 14.7C293.7 14.7 294.5 15.5 294.7 16.9ZM336.2 34.4C336.2 34.4 336 34.7 336 34.9C334.4 37.8 332.9 39.5 331.3 39.5C329.2 39.5 328.2 37.3 328.2 33.5C328.2 30.4 329.4 25.3 331.8 17.9C332.3 16.2 332.5 15.2 332.5 15C332.2 15 331.8 15.9 330.8 17.6C327 24.6 325.3 31.5 325.3 38C325.3 43.3 326.8 45.9 329.9 45.9C333 45.9 335.2 42.3 336.4 35.1C336.6 34.9 336.6 34.6 336.4 34.4C336.4 34.3093 336.4 34.2598 336.381 34.2513C336.359 34.2411 336.309 34.2907 336.2 34.4ZM0 171.2C0 160.2 1.7 151 5.5 143.8C5.74726 143.203 5.99451 142.677 6.23564 142.22C5.20536 140.943 4.7 138.776 4.7 135.7C4.7 129.2 6.39999 122.3 10.2 115.3C11.2 113.6 11.6 112.7 11.9 112.7C11.9 112.9 11.7 113.9 11.2 115.6C8.8 123 7.59999 128.1 7.59999 131.2C7.59999 135 8.59999 137.2 10.7 137.2C12.3 137.1 13.7 135.5 15.4 132.6C15.4 132.4 15.6 132.1 15.6 132.1C15.7093 131.991 15.7589 131.941 15.7814 131.951C15.8 131.96 15.8 132.009 15.8 132.1C16 132.3 16 132.6 15.8 132.8C14.6 140 12.4 143.6 9.3 143.6C8.79776 143.6 8.33751 143.532 7.91883 143.395C7.776 143.743 7.60477 144.111 7.39999 144.5C4.5 152.4 3.29999 159.4 3.29999 165.9C3.29999 172.9 4.69998 178.9 7.59999 183.9C12.2 191.6 19.8 195.7 30.9 195.7C42.4 195.7 55.9 190.4 71.7 179.9C83.9 172 93.1 164.3 99.1 157.3C100.5 155.6 101.3 153.2 101.7 150.1C102.2 147 102.2 140.3 102.2 129.9C102.2 105.4 101 83.6 98.6 64.1C97.9 57.6 96.7 48 94.5 35.8C95.5 28.8 96.4 24.5 96.9 23.1C97.4 22.1 97.6 21.7 98.1 21.7C98.3 21.7 98.6 22.2 99.1 23.1C102.2 33.7 104.9 46.9 106.8 62.8999C108.2 73.5 109.2 90.2999 109.9 112.8C110.4 133.2 111.1 145.9 112.1 150.7C113.3 156.5 115.2 160.1 117.6 162.2C119.3 163.6 121.9 164.4 125 164.4L125 164.6C129.961 164.581 134.524 163.181 138.1 160.3C140.7 158.4 143.1 155.5 145.3 151.7C146.5 149.3 147.7 146.9 148.7 144.5C149.7 142.8 150.6 142.1 151.3 142.1C151.87 141.937 152.241 142.106 152.629 142.282C152.717 142.322 152.807 142.363 152.9 142.4C152.9 138.8 154.3 137.4 156.7 137.6C161.3 138.6 166.3 137.8 171.8 135.7L171.9 135.893L171.9 135.6C176.7 133.7 182.7 130.3 189.7 125.8C190.7 125.1 191.4 124.8 191.9 124.8C192.6 124.8 193.1 125.3 193.1 126.2C193.1 126.7 192.9 127.6 192.6 129.1C192.6 130.5 192.4 131.5 192.4 132C192.4 134.4 193.4 136.6 195.5 138.7C197.8 141 200.9 142.4 204.5 142.2L204.5 157.1C198.3 157.1 193.7 155.4 190.6 152.5C188.2 150.1 187 146.7 187 142.7L187 139.6C183.352 142.307 180.085 144.494 177.239 146.182L177.3 146.3C181.9 151.3 184.3 156.9 184.3 163.1C184.3 166.7 182.9 170.3 180.2 173.9C177.3 178 174.2 179.9 170.6 179.9C166.8 179.9 162.4 178 157.6 173.9C152.6 169.3 149.2 164.1 147.5 158.1C143.2 172 135.7 179.2 124.9 179.2L124.9 179.1C117.751 179.073 112.485 176.174 109.2 170.5C107 166.9 105.6 160.7 104.9 152C103.5 160.6 102 166.2 100.3 168.3C98.6 170.9 94.1 175.5 86.9 181.5C78 189.2 69.1 195.4 60.3 200.2C48.8 206.7 38.9 210 30.3 210C18.5 210 10.1 205 4.90001 195.4C1.5 189 0 181.1 0 171.2ZM195.4 23.7C169.4 33.3 144.2 42.4 120 51.5C118.8 53.9 118.1 56 117.6 58.3C120.3 56.6 134 51.1 158.2 42.2C181.9 33.3 194.2 28.7 194.4 28.5C194.9 28.1 195.6 26.9 196.6 24.7C196.8 24 196.8 23.5 196.6 23.5C196.6 23.2867 196.347 23.3768 195.949 23.5186C195.788 23.5762 195.602 23.6423 195.4 23.7ZM318 65.1C342.2 56 367.4 46.9 393.4 37.3C393.602 37.2423 393.788 37.1762 393.949 37.1186C394.347 36.9768 394.6 36.8867 394.6 37.1C394.8 37.1 394.8 37.6 394.6 38.3C393.6 40.5 392.9 41.7 392.4 42.1C392.2 42.3 379.9 46.9 356.2 55.8C332 64.7 318.3 70.2 315.6 71.9C316.1 69.7 316.8 67.5 318 65.1ZM74.4 62.2C74.4 62.2 74.2 62.5 74.2 62.7C72.5 65.6 71.1 67.3 69.5 67.3C67.4 67.3 66.4 65.1 66.4 61.3C66.4 58.2 67.6 53.1 70 45.7C70.5 44 70.7 43 70.7 42.8C70.4 42.8 70 43.7 69 45.4C65.2 52.4 63.5 59.3 63.5 65.8C63.5 71.1 65 73.7 68.1 73.7C71.2 73.7 73.4 70.1001 74.6 62.9C74.8 62.7 74.8 62.4 74.6 62.2C74.6 62.1093 74.6 62.0598 74.5814 62.0513C74.5589 62.0411 74.5093 62.0907 74.4 62.2ZM448.6 66.3C446.2 72.1 445 76.6 445 80C445 84.1001 446 86.2001 448.1 86.2001C449.3 86.2001 450.7 84.5 452.4 81.6001C452.6 81.4 452.6 81.1001 452.9 80.9C452.9 80.9 453.1 80.9 453.1 81.1001L453.1 81.8001C451.7 89.0001 449.5 92.6001 446.6 92.6001C443.5 92.6001 442 90 442 84.7001C442 82.1001 442.5 78.7001 443.9 74.4001C445.3 70.1001 446.1 67.9001 446.1 67.7001C446.1 67.2001 445.1 66.3001 443 65.1001C439.2 70.1001 433.9 74.9 427.2 79C422.6 81.6001 418.1 84 413.3 86C404.4 89.6001 399.1 91.5 397.9 92.2001C396.7 92.7001 396 92.9001 395.5 92.9001C395.3 92.9001 395.3 92.7001 395.3 92.7001C395.3 92.2001 395.8 91.7001 397.2 90.8001C404.9 86.5001 412.3 82.2001 420 77.8001C430.1 72.0001 437 67.2001 440.4 63.6001C435.8 61.2001 433.7 58.8001 433.7 56.2001C433.7 53.1001 435.1 50.2001 438 47.6001C440.9 45.2001 443.3 44.2001 445.2 45C446.6 45.5 447.6 47.2 447.6 50C447.6 52.6001 447.1 55.5 445.9 58.6001C448.3 60 449.3 61.5 449.3 62.9C449.3 63.7 449.1 64.9 448.6 66.3ZM443.3 57.5C443.8 56.1 443.8 54.6 443.5 53.2C443.3 51.8 442.5 51 441.3 51C440.8 51 440.1 51.2 439.1 51.7C438.1 52.2 437.7 52.7 437.7 53.1C437.8 54.3 439.7 55.8 443.3 57.5ZM193 66.6C193 68.5 192.5 70.7 191.6 72.6C190.4 75.2 189 76.7 187.3 76.7C184.4 76.7 182.5 74.8 181.3 70.9C179.9 75.7 177.5 78.3 173.9 78.3C172.7 78.3 171.5 77.6 170.5 76.1C169.3 74.7 168.8 72.5 168.8 70.1L168.8 63.9C168.8 63.4 168.3 63.2 167.8 62.9C167.1 62.7 166.8 62.2 166.8 61.5C166.8 60.1 167.3 58.9 168.2 57.7C169.2 56.5 169.9 56 170.4 56C171.1 56 171.6 57.2 171.6 59.8C171.6 61.2 171.4 62.4 171.4 63.4C171.2 64.4 171.2 65.1 171.2 65.8C171.2 67.2 171.4 68.7 171.9 69.9C172.6 71.3 173.6 72.3 174.5 72.3C175.9 72.3 177.1 71.6 178.3 70.4C179.5 69.2 180.2 67.8 180.2 66.1C180.2 65.1 179.7 63.7 179.2 61.3C178.5 59.1 178.2 57.7 178.2 57.2C178.2 56.7 178.4 56 178.9 54.8C179.4 53.8 179.9 53.4 180.1 53.4C180.6 53.4 181.1 54.8 181.8 57.7C182.5 60.8 183 63 183 64.4C183 68.5 184.4 70.6001 187.6 70.6001C189 70.6001 190 69.9 190.2 68.4C187.6 63.6001 186.1 60 186.1 57.4C186.1 56 186.3 54.8 187.3 53.6C187.8 52.9 188 52.4 188.3 52.4C188.5 52.4 188.8 52.9 188.8 53.8C189 55 189.3 56.2 189.5 57.2C189.5 57.2 190.2 58.9 191.4 62.2C192.5 64.2 193 65.6 193 66.6ZM287.5 56L283.7 63.9C282.8 63 280.6 61.3 277.5 59.4C274.4 57.2 272.7 56 272.2 56C271.9 56 271.4 56.5 271.2 57L266.6 66.6C266.4 67.1 266.4 67.4 266.6 67.6C270.5 70 274.3 72.6 277.9 75.5C278.4 75.8 278.9 75.5 279.1 74.8C280.6 72.6 281.8 70 283.2 67.1C287.3 69.7 290.9 72.1 294 74.5C294.4 74.7 294.9 74.7 295.4 74C298.5 68.7 300.2 65.1 300.2 63.4C300.2 62.9 298.3 61.5 294.7 59.1C290.9 56.5 289 55.3 288.5 55.3C288 55.3 287.7 55.5 287.5 56ZM366 73.1C363.9 69.7 361.5 68.3 358.6 68.3C358.4 68.3 357.6 69 356.6 70.9001C355.4 72.9001 354.9 74.1001 354.9 74.3001C354.9 75 355.4 76 356.8 77.2001C358.3 78.4 359.2 79.1001 360.2 79.1001C360.9 79.1001 361.2 78.8001 361.4 78.6001C361.7 78.1001 361.9 78.1001 362.4 78.1001C363.4 78.1001 364.6 80.3001 366.5 85.1001C368.4 89.7001 369.3 92.8 369.1 94.5C369.3 95.5 369.3 96.2001 369.8 96.2001C370.3 96.2001 370.8 95.5 371.5 94.5C372.2 92.9 373.2 90 373.9 85.9C375.6 76.8 377.3 72.2 379.2 72.2C380.1 72.2 381.1 72.6 381.8 73.6C382.8 74.6 383.3 75.3 383.5 75.3C383.9 75.3 384.4 74.5 384.9 73.1C385.4 72.1 385.4 71.2 385.4 70.7C385.4 69.7 385 68.7 384 67.3C383 65.8 381.8 65.1 380.6 65.1C378.4 65.1 376.5 67.3 374.6 71.6C372.9 77.9 371.7 82.7 371.2 85.8C371.2 86.3 371 86.6 371 86.8L370.8 86.8C370.8 86.5 370.8 86.3 370.6 85.8C369.8 80.5 368.2 76.2 366 73.1ZM16.4 70.4C19.3 70.4 21.7 71.8 23.8 75.2C26 78.3 27.6 82.6 28.4 87.9C28.6 88.4 28.6 88.6 28.6 88.9L28.8 88.9C28.8 88.7 29 88.4 29 87.9C29.5 84.8 30.7 80 32.4 73.7C34.3 69.4 36.2 67.2 38.4 67.2C39.6 67.2 40.8 67.9 41.8 69.4C42.8 70.8 43.2 71.8 43.2 72.8C43.2 73.3 43.2 74.2 42.7 75.2C42.2 76.6 41.7 77.4 41.3 77.4C41.1 77.4 40.6 76.7 39.6 75.7C38.9 74.7 37.9 74.3 37 74.3C35.1 74.3 33.4 78.9 31.7 88C31 92.1 30 95 29.3 96.6C28.6 97.6 28.1 98.3 27.6 98.3C27.1 98.3 27.1 97.6 26.9 96.6C27.1 94.9 26.2 91.8 24.3 87.2C22.4 82.4 21.2 80.2 20.2 80.2C19.7 80.2 19.5 80.2 19.2 80.7C19 80.9 18.7 81.2 18 81.2C17 81.2 16.1 80.5 14.6 79.3C13.2 78.1 12.7 77.1 12.7 76.4C12.7 76.2 13.2 75 14.4 73C15.4 71.1 16.1 70.4 16.4 70.4ZM140.2 71.4C141.9 71.4 143.8 72.4 146.4 74.5C149 76.4 150.5 78.3 150.7 79.8C150.9 80.3 150.5 81.2 149.7 82.9C149 84.6 148.5 85.3 148.3 85.3C145.9 86 143.5 86.7 141.1 87.5C138 88.5 136.1 89.7 134.9 90.9C138.3 101 139.9 110.8 139.9 120.7C139.9 123.6 139.4 126.5 138.9 129.6C138.7 130.6 138.4 131 138.2 131.3C138 131.3 138 129.4 138 126C138 120.5 137 113.5 135.4 105.6C133.7 97.7 133 92.9 133 91.9C133 87.8 134 84.9 136.4 83C137.4 82.3 139.5 81.3 142.4 80.4C141.2 79.2 140 78.7 138.8 78.7C138.3 78.7 137.6 79.2 136.6 80.4C135.6 81.8 134.9 82.3 134.9 82.3C134.7 82.3 134.4 81.8 134.7 80.9C135.4 74.5 137.3 71.4 140.2 71.4ZM306.5 81.9C306.5 85.7 304.6 91 300.7 97.5C298.3 101.6 294.7 107.1 289.9 114.3C294.7 119.8 298.1 124.9 299.7 129.2C300.7 132.3 301.4 136.4 301.4 141C301.4 142.9 300.9 145.3 300 148.4C299.3 151.3 298.3 153.4 297.4 154.9C295.5 157.8 292.4 160.7 287.6 163.5C282.6 166.9 278.2 168.5 274.6 168.5C268.8 168.5 266 164.2 266 155.5C266 149.7 267 144 268.9 138.7C270.8 134.1 273.9 128.1 279 120.2C274.7 116.1 270.1 110.4 265.1 103.2C264.6 102.5 263.4 101.3 261.5 99.4C260.5 98.4 260.1 97.2 260.1 95.8C260.1 93.6 260.3 91.2 260.8 88.4C261.5 85.5 262 84.3 262.2 84.3C262.9 84.3 265.1 85.5 269.2 88.1C273 90.7 276.2 92.7 278.1 94.3C279.3 95 279.8 95.7 279.8 95.7L279.8 95.9C279.8 96.1 279.1 96.4 277.4 96.4C274.3 96.4 272.6 96.6 272.6 96.9C272.6 97.1 273.1 97.6 274 98.8C277.8 103.6 281.7 107.2 285.8 110.1C286.8 108.7 290.1 103.9 295.4 95.7C300 88.7 302.6 83.9 303.8 81.1C305 78.2 305.7 77 306.2 77C306.3 77.1 306.5 78.6 306.5 81.9ZM177.4 101.3C177.2 101.8 177.2 102.1 177.4 102.3C181.2 104.7 185.1 107.4 188.8 110.2C189.29 110.494 189.492 110.211 189.971 109.54L190 109.5C193.3 104.2 195 100.9 195 99.2C195 98.7 193 97.2 189.2 94.6C185.6 92.2 183.5 91 183 91C182.7 91 182.2 91.2 182 91.7L177.4 101.3ZM324 110.3C325 111.5 325.7 113.1 326.2 115.3C327.4 119.4 329.8 125.1 333.1 132.2C336 138.5 337.4 141.8 337.4 142.3C337.4 144.3 334.5 147.4 329 151.7C324.149 155.306 317.836 159.427 310.063 164.008C310.798 159.571 312.071 154.256 313.9 148C314.2 146.5 314.4 145.3 314.4 144.6C314.4 144.1 314.4 143.9 314.2 143.9C313.7 143.9 313.2 144.9 312 147.3C309.654 153.635 307.927 159.799 306.9 165.85C303.692 167.698 300.259 169.616 296.6 171.6C287.2 176.7 275.5 182.2 261.3 188.2C240.9 196.8 229.8 201.6 227.9 202.6C222.6 205 220 206.5 220 206.7C220 206.9 220 206.9 220.5 206.9C221.5 206.9 223.9 206.6 227.7 205.9C231.3 205.4 240.4 203.3 254.8 199.9C268.5 196.6 275.7 194.9 276.2 194.9C278.8 194.9 287.2 190.8 301.6 182.4C303.045 181.59 304.453 180.785 305.824 179.985C306.06 187.253 308.04 193.516 311.6 198.2C315.9 204.2 322.1 207.3 330.3 207.3C339.9 207.3 350.9 202.3 363.9 192.7C372.6 186.2 380.5 178.7 387.7 170.1C390.8 166.5 393.4 161.9 395.1 156.4C396.6 152 397.3 148.7 397.3 145.8L397.8 145.3L397.8 132.1C396.8 132.6 396.3 132.6 396.1 132.6C393.7 127.6 390.8 123.5 387.7 119.9C384.1 116.3 381 114.4 377.9 114.4C373.8 114.4 370 116.5 366.4 120.6C362.6 125.4 360.9 130.7 360.9 136.7C360.9 144.6 366.7 148.7 378.2 148.7C383.5 148.7 387.8 148 390.7 147C391.2 148.7 391.7 150.4 391.7 151.8C391.7 153.9 388.1 158.3 381.1 165.1C373.4 172.3 365.5 178.3 357.3 183.3C346.9 189.6 338.3 192.7 331.1 192.7C322.7 192.7 316.7 190 312.9 185C311.439 182.809 310.423 180.321 309.851 177.583C322.144 170.085 331.123 163.02 336.9 156.5C338.9 154.3 340.3 151.2 341.5 147.1C342.4 143.5 342.9 140.6 342.9 138.2C342.9 133.1 341.4 127.6 338.8 120.9C337.1 117.1 335.2 113 333.5 108.9C336.4 109.6 338.3 110.1 339 110.1C339.5 110.1 339.7 109.8 339.7 109.6C339.7 109.1 339 108.2 337.3 106.5C333.3 102.4 329.7 98.5 326.3 94.7C325.8 94.2 325.5 94 325.3 94C324.8 94 324.5 94.5 324.3 95.7C323.8 96.9 323.6 99.1 323.1 102.2C322.6 105.5 322.6 107.2 322.6 107.7C322.8 108.1 323.3 108.9 324 110.3ZM77.6 114.3C78.1 113.3 78.3 112.4 78.3 111.9C78.3 111 77.8 110 76.9001 108.5C75.7 107 74.5 106.3 73.3 106.3C71.1001 106.3 69.2 108.5 67.3 112.8C65.6 119.1 64.4 123.9 64.2 127C63.9 127.5 63.7 127.8 63.7 128C63.7 128.091 63.7 128.14 63.6814 128.149C63.6589 128.159 63.6094 128.109 63.5 128L63.5 127C62.5 121.7 61.1 117.7 58.7 114.3C56.5 110.9 54.1001 109.5 51.5 109.5C51.2 109.5 50.5 110.2 49.3 112.1C48.1001 114.1 47.6001 115.3 47.6001 115.5C47.6001 116.2 48.3 117.2 49.5 118.4C51 119.6 51.9 120.3 52.9 120.3C53.6 120.3 54.1 120 54.1 119.8C54.3 119.3 54.6 119.3 55.3 119.3C56 119.3 57.2 121.5 59.1 126.3C61 130.9 62 134 62 135.7C62 136.147 62.0599 136.534 62.144 136.825C61.7387 137.294 61.2582 137.854 60.7 138.5C59 140.4 56.9 142.5 54 144.7C42 152.6 32.9 158.2 26.4 162C25.2 162.7 24.5 163.5 24.5 163.7C24.5 163.7 24.5 163.9 24.7 163.9C25.2 163.9 25.9 163.7 27.1 163.2C35.1 160.4 39.4 158.7 40.1 158.2C43.7 156.6 47.7 154.2 52.3 150.8C57.4 147.2 60.7 143.3 62.4 139.5C62.9022 138.295 63.2784 137.342 63.5157 136.641C63.7243 136.378 63.9493 136.058 64.2 135.7C65.2 134.1 65.9 131.2 66.6 127.1C68.3 118 70.2 113.4 72.1 113.4C72.8 113.4 73.8 113.8 74.5 114.8C75.5 115.8 76 116.5 76.2 116.5C76.9 116.5 77.4 115.7 77.6 114.3ZM63.5157 136.641C63.1419 137.112 62.8209 137.4 62.5 137.4C62.3894 137.4 62.2481 137.186 62.144 136.825C63.1185 135.699 63.6588 135.1 63.8 135.1L63.8 135.3C63.8498 135.499 63.7509 135.946 63.5157 136.641ZM423.9 117C423.2 117 422.2 117.4 421 118.4C417.2 121.8 413.3 124.7 409.4 126.6C408.2 127.4 404.1 129.3 397.9 132.4L397.9 145.6C406.3 141.7 412.8 137.7 416.6 133.1C416.6 144.1 421.4 149.9 431.5 149.9C439.9 149.9 446.8 145.1 452.1 135.5C455.3 141.3 458.9 144.4 462.7 144.4C468.5 144.4 472.8 141.8 475.7 136.5C478.4 132.1 479.8 127.1 479.8 121.1C479.8 117.2 478.6 113.9 476.7 111C476 110 475.5 109.8 475 109.8C474.5 109.8 474 110.6 473.8 112C472.4 116.5 471.4 119.9 471.2 121.8C473.3 125.4 474.3 127.4 474.3 127.6C473.3 129.2 471.2 130.2 467.8 130.2C465.2 130.2 462.8 129.2 461.1 127.8C459.2 126.4 458.2 124.7 458.2 123C458.2 123.5 458.9 121.6 459.9 117.5C460.4 115.4 460.2 114.4 459.2 114.4C458.5 114.4 457.8 114.8 456.8 115.8C454.4 119.7 451.8 123.5 449.4 127.6C445.5 132.7 440.5 135.3 434.5 135.3C427 135.3 423.2 132.4 423.2 127.1C423.2 125.9 423.4 124.4 423.9 122.5C424.4 120.6 424.6 119.1 424.6 118.4C424.6 117.5 424.4 117 423.9 117ZM297.2 141C294.6 135.7 290 130.2 283.8 124.9C281.6 127.1 279 131.1 275.6 136.9C271.8 143.4 270.1 147.5 270.1 149.6C270.1 152.5 272 153.9 276.3 153.9C278.2 153.9 280.6 153.2 283.7 152C288 150.1 292.1 147.4 295.5 144.1C296.9 142.7 297.4 141.7 297.2 141ZM384.3 134.3C380.7 129.7 377.6 127.6 374.7 127.6C370.4 127.6 368.5 128.6 368.5 131C368.5 133.9 371.4 135.3 377.1 135.3C379.2 135.2 381.6 134.7 384.3 134.3ZM158.9 153.9C165.7 155.1 170.5 157.5 173.1 161.6C173.8 162.8 174 163.5 174.1 163.9C174.1 164.4 173.3 164.9 171.9 164.9C166.8 164.9 162 161.8 157 155.8C156.5 155.1 156.3 154.6 156.3 154.4C156.3 153.9 157.2 153.7 158.9 153.9ZM410.2 197.9C407.6 198.6 406.1 199.1 405.6 199.1L405.6 198.9C405.6 198.9 406.6 198.2 408.5 197C410.4 195.8 413.3 193.9 417.4 190.8C419.3 188.9 422.2 185.8 425.8 181.4C428.2 178.5 430.8 175.9 433.7 174C437.3 171.4 440.7 170.2 444.3 170.2C445 170.2 446.2 170.4 447.7 170.9C448.9 171.4 450.1 171.6 451.1 171.6C453 171.6 454.5 170.9 455.7 169.4C456.4 168 457.4 166.8 458.3 165.3C458.8 164.3 459.5 163.9 460 163.9C460.2 163.9 460.2 164.1 460.2 164.6C460.2 165.1 460 166.3 459.5 167.7C459 168.4 460.9 168.7 464.5 168.7C465 168.7 465.2 168.7 465.2 168.5C465.2 168.5 465 167.5 464.5 165.9C464.3 165.4 464.5 164.7 465.2 163.7L465.28 163.564C466.222 161.963 466.608 161.305 466.9 161.5C467.9 162.2 468.3 163.7 468.3 165.3C468.3 167 467.8 168.7 467.1 170.6C466.4 172.8 465.7 174 465.2 174.4C463.5 175.4 460.9 175.1 457.3 173.4C454.4 176.3 451.5 178 448.7 178C448 178 446.8 177.8 445.6 177.3C444.4 176.8 443.4 176.6 442.7 176.6C437.9 176.6 432.9 178.8 427.8 183.6L417 194.4C414.8 195.9 412.6 197.1 410.2 197.9ZM193.2 179.9C196.1 179.9 198.5 181.3 200.6 184.7C202.8 187.8 204.4 192.1 205.2 197.4C205.4 197.9 205.4 198.1 205.4 198.4L205.6 198.4C205.6 198.2 205.8 197.9 205.8 197.4C206.3 194.3 207.5 189.5 209.2 183.2C211.1 178.9 213 176.7 215.2 176.7C216.4 176.7 217.6 177.4 218.6 178.9C219.6 180.3 220 181.3 220 182.3C220 182.8 220 183.7 219.5 184.7C219 186.1 218.5 186.9 218.1 186.9C217.9 186.9 217.4 186.2 216.4 185.2C215.7 184.2 214.7 183.8 213.8 183.8C211.9 183.8 210.2 188.4 208.5 197.5C207.8 201.6 206.8 204.5 206.1 206.1C205.4 207.1 204.9 207.8 204.4 207.8C203.9 207.8 203.9 207.1 203.7 206.1C203.9 204.4 203 201.3 201.1 196.7C199.2 191.9 198 189.7 197 189.7C196.5 189.7 196.3 189.7 196 190.2C195.8 190.4 195.5 190.7 194.8 190.7C193.8 190.7 192.9 190 191.4 188.8C190 187.6 189.5 186.6 189.5 185.9C189.5 185.7 190 184.5 191.2 182.5C192.3 180.6 193 179.9 193.2 179.9ZM153.4 198.5C155.3 195.4 156.5 192.5 156.5 189.9C156.5 186.8 155.1 185.1 152.4 185.2C149.1 185.2 147.2 187.1 146.2 191.2C146 192.1 146 192.6 146 192.6C146 192.8 146.2 192.8 146.2 192.8C146.4 192.8 146.7 192.5 147.4 192.3C148.1 191.8 149 191.6 150 191.6C151.6 191.6 152.6 192.5 152.6 194.2C152.6 196.4 149.7 200.2 144.2 206.2C143.3 207.4 142.8 207.9 142.8 208.1L142.8 208.3C143 208.3 143.8 207.9 145.2 206.9C148.6 204.5 151.2 201.6 153.4 198.5ZM110.7 191.4C99.6 195.2 89.3 199 79.7 202.4C78.5 204.8 77.8 207 77.4 209.2C89.6 203.6 100.4 199.6 110 196.2C110.5 195.8 111.2 194.6 111.9 192.4C112.3 191.7 112.3 191.2 112.1 191.2C111.977 191.016 111.854 191.058 111.545 191.164C111.352 191.231 111.085 191.323 110.7 191.4Z" id="Group" fill="#595959" fill-rule="evenodd" stroke="none" clip-path="url(#clip_1)" />
  </g>
</svg>