<?xml version="1.0" encoding="utf-8"?>
<svg width="645.00006px" height="201.00003px" viewBox="0 0 645.00006 201.00003" version="1.1" xmlns:xlink="http://www.w3.org/1999/xlink" xmlns="http://www.w3.org/2000/svg">
  <defs>
    <path d="M645 0L645 0L645 201L0 201L0 0L645 0Z" id="path_1" />
    <clipPath id="clip_1">
      <use xlink:href="#path_1" clip-rule="evenodd" fill-rule="evenodd" />
    </clipPath>
  </defs>
  <g id="Surah_112_of_114_(modified)">
    <path d="M645 0L645 0L645 201L0 201L0 0L645 0Z" id="Surah_112_of_114_(modified)" fill="none" stroke="none" />
    <path d="M400.7 26.6C400.7 21.8 400 18 398.5 14.8C398.5 13.1 399.7 9 402.6 2.8C402.8 2.10001 403.1 1.60001 403.3 1.60001C403.8 1.60001 404 2.10001 404.5 2.8C405.2 4.5 406.9 9 409.8 16.5C412.9 24.4 414.6 29.2 415.1 31.1C415.6 32.3 415.6 33.5 415.6 34C415.6 36.2 413.7 35 409.4 30.2C408.9 29.5 408.7 30 408.7 31.2C408.7 31.7 409.9 46.6 412.1 76.3C414.3 105.8 415.2 122.4 415.2 126.2C415.2 137.5 413.5 147.6 410.2 156.2C409.2 157.9 408.8 159.1 408.3 160L408.3 160C407.6 161.2 407.3 161.2 407.1 160.5C406.9 159.5 407.1 157.6 407.3 155C407.8 150.9 408 146.4 408 141.3C408 136.5 406.8 117.3 404.4 83.5C401.9 49.7 400.7 30.7 400.7 26.6L400.7 26.6L400.7 26.6L400.7 26.6L400.7 26.6ZM380.7 129.4C379.7 138.3 379 142.6 378.5 142.6C378 142.6 377.3 139 376.3 131.6C374.4 119.6 365.5 106.2 349.7 90.8C342.7 84.3 335.8 77.8 328.8 71.1C321.4 63.9 315.6 57.9 311.8 53.1C309.2 49.7 306.3 45.9 303.2 41.1C301.5 38 299.8 35.1 298.2 32.5C297 30.6 295.6 29.1 294.1 28.2C293.4 28 293.1 27.2 293.1 26L293.1 16.2C293.1 14.3 293.3 13.3 294.1 13.3C294.6 13.3 295.5 13.8 296.7 14.7L315.2 28.9C316.6 30.1 317.4 30.8 317.4 31.5C317.4 32 316.9 32 315.7 32C314.3 32 311.6 31.8 308 30.8C310.4 35.4 317.4 43.5 328.9 55C337.5 63.6 346.2 72.3 355.1 80.9C372.4 98.2 381 113.3 381 126C381 127 381 128.2 380.7 129.4L380.7 129.4L380.7 129.4L380.7 129.4L380.7 129.4ZM378.3 26.2C378.3 24.3 377.8 21.9 376.9 19.2C375.9 16.6 375.5 15.1 375.5 14.9C375.5 14.4 376 12.5 376.9 9.09999C377.9 5.7 378.3 3.79999 378.6 3.29999C379.1 2.29999 379.3 2.09999 379.6 2.09999C379.8 2.09999 380.3 2.29999 380.8 3.09999C381.8 5.29999 383.9 9.29999 387 15.8C390.4 23 392.5 27.8 393.2 30C393.7 31.7 393.9 32.6 393.9 33.4C393.9 35.3 391.7 34.1 387.7 29.3C387.2 28.8 387 29.3 387 30.5C387 34.3 388.2 47.3 390.8 69.1C393.4 91.2 394.9 106.1 394.9 113.7C394.9 129.8 391.1 143.2 383.4 153.5C377.6 161.9 370.9 167.7 363.5 171C360.6 172.4 355.6 173.9 348.6 175.8C341.4 177.7 336.1 178.7 332.8 179.2C331.6 179.2 330.9 179.2 330.9 178.7C330.9 178.5 331.4 177.7 332.8 176.8C339.3 173.2 349.8 167 364.5 157.8C369.3 154.9 373.9 150.8 378.7 145.6C384.9 138.9 388.3 133.1 388.3 128.6C388.3 119 386.6 100.3 383.3 72.8999C379.8 45.4 378.3 29.8 378.3 26.2L378.3 26.2L378.3 26.2L378.3 26.2L378.3 26.2ZM368.5 123.4L364.7 132.8C364.5 134 363.7 134.5 362.8 134.5C357.8 134.5 353.2 135.2 349.1 136.7C344.3 138.6 335.4 142.9 322.7 149.7C305.9 158.6 293.4 163.1 285.5 163.1C284.5 166.7 283.8 168.6 283.1 168.6C282.4 168.6 281.9 166.9 281.4 163.3C281.4 163.3 281.6 163.1 281.9 163.1C281.7 160.9 280.2 156.1 278.1 148.5C275.9 141.5 275 136.3 275 132.4C275 125 276 119.4 278.1 116.3C282.2 109.6 288.4 106.2 296.6 106.2C300.4 106.2 308.6 108.1 321.6 111.7C336.2 115.8 344.9 117.9 348 118.4C358.1 119.8 364.3 120.8 367 120.6C368.4 120.8 369.2 121.1 368.9 122C368.7 122.2 368.7 122.6 368.5 123.4L368.5 123.4L368.5 123.4L368.5 123.4L368.5 123.4ZM337.8 130.3C314.8 123.1 299.6 119.5 292.4 119.5C288.6 119.5 285.2 120.7 282.3 123.3C279.7 125.5 278.5 127.6 278.5 129.5C280.2 133.3 282.3 139.6 285.2 148C286.4 148 287.8 148.2 289 148.2C295 148.2 304.4 145.3 317.1 139.6L337.8 130.3L337.8 130.3L337.8 130.3L337.8 130.3ZM263.6 127.9C266 136.8 272.2 143.5 281.8 148.1L281.8 163C276 160.6 271.7 158.2 268.6 156C264.3 152.6 260.9 148.6 258.5 143.3C258 142.1 256.8 138.3 254.9 131.8C252.3 147.4 249.4 157.5 246.3 161.8C240.5 170 233.8 176 226.4 179.3C223.3 180.7 218.2 182.2 211.3 184.1C204.1 186 198.8 187 195.5 187.5C194.1 187.5 193.3 187.5 193.3 187C193.3 186.8 194 186 195.5 185.1C202 181.5 212.8 175 227.2 166.1C243.3 155.5 251.4 140.4 251.4 120.3C251.4 116.5 250 105.2 247.3 86.5C245.1 70.4 243.2 57.5 241.5 47.4C240.1 39.5 238.6 30.1 236.9 19.8C236.9 16.4 237.9 12.1 239.3 7.09999C239.8 5.89999 240.3 5.39999 240.5 5.39999C240.7 5.39999 241.2 5.89999 241.5 7.09999C244.6 18.1 247.5 31.3 249.9 46.7C250.4 49.1 252.8 64.2 256.9 92.1C259.3 107.5 261.5 119.5 263.6 127.9L263.6 127.9L263.6 127.9L263.6 127.9L263.6 127.9ZM242.7 137.8C241.7 147.2 241 151.7 240.5 151.7C240 151.7 239.3 147.9 238.3 140.4C237.1 133.2 233 124.3 225.8 113.5C221.2 106.8 212.6 95.5 200.1 79.7C185.9 62.2 175.4 48.5 168.2 38.4C166.5 35.8 164.8 33.1 163.4 30.2C162 27.3 160.8 25.2 160 24.2C158.8 22.3 157.4 21.1 155.9 20.1C155.2 19.6 154.9 18.9 154.9 17.7L154.9 8.10001C154.9 6.20001 155.1 5.20001 155.9 5.20001C156.4 5.20001 157.1 5.70001 158.3 6.40001L177 20.8C179.2 22.2 180.1 23.4 180.1 24.4C180.1 24.9 179.4 25.1 178.2 25.1C176.5 25.1 173.9 24.6 170 23.4C172.6 28 181 39 195.2 56.8C210.6 75.5 221.6 90.2 228.1 100.2C238.9 116.9 243.7 129.4 242.7 137.8L242.7 137.8L242.7 137.8L242.7 137.8L242.7 137.8ZM192.1 96.5C192.1 94.8 189.5 91.9 184.2 87.9C177.7 82.9 171.5 80.5 165.2 80.5C153.2 80.5 140.7 91.3 128.5 112.4C132.8 113.8 137.4 114.6 141.9 114.6C149.6 114.6 157.5 113.2 166.1 110.5C172.8 108.3 179.1 105.5 184.6 102.3C189.7 99.4 192.1 97.4 192.1 96.5L192.1 96.5L192.1 96.5L192.1 96.5L192.1 96.5ZM39.9 190.3C25.3 190.3 14.5 185.3 7.69998 175.4C2.39998 167.7 -1.52588e-05 158.1 -1.52588e-05 146.4C-1.52588e-05 142.8 0.199982 139.4 0.699982 135.8C1.69998 130.3 2.89998 125.5 4.29998 121.6C4.79998 120.2 5.49998 119.4 5.99998 119.4C6.49998 119.4 6.49998 120.4 6.19997 121.8C3.79997 134 2.79997 141 2.79997 142.4C2.79997 149.8 5.19997 156.8 10.2 163C16.9 171.2 26.8 175.5 39.5 175.5C51 175.5 63 172.9 75.5 167.6C85.8 163.3 95.2 158 103.6 151.8C111 146 114.6 142 114.6 139.6C114.6 131.4 112.2 122.8 107.6 113.4C106.6 111.7 106.2 110.3 106.2 109.3C106.2 108.6 107.2 105.2 109.1 99C109.6 97.8 109.8 97.3 110.3 97.3C110.8 97.3 111.5 98 112.2 99.7C114.4 104.5 118.2 108.1 123.2 110.3C132.6 95.4 138.8 86.0999 141.7 82.7C150.6 71.7 159.7 66.0999 168.8 66.0999C176.2 66.0999 183.2 68.7 189.4 74.3C194.7 79.0999 197.3 83.4 197.3 87.3C197.3 90.2 196.6 94 195.1 98.0999C193.7 102.4 192.2 105.5 190.3 107.7C187.2 111.5 181.4 115.6 173.5 119.7C162.2 125.7 150.2 128.8 138.2 128.8C132 128.8 125.7 127.4 119 124.5C119 139.9 116.8 150.2 112.3 155.2C106.1 162.6 96.5 169.8 84 176.8C68.5 185.8 53.6 190.3 39.9 190.3L39.9 190.3L39.9 190.3L39.9 190.3L39.9 190.3ZM294.6 84.7C294.4 84.5 294.4 84.2 294.6 83.7L299.2 74.1C299.4 73.6 299.9 73.4 300.2 73.4C300.7 73.4 302.8 74.6 306.4 77C310.2 79.6 312.2 81.1 312.2 81.6C312.2 83.3 310.5 86.6 307.2 91.9C306.7 92.6 306.5 92.9 306 92.6C302.3 89.8 298.4 87.1 294.6 84.7L294.6 84.7L294.6 84.7L294.6 84.7L294.6 84.7ZM350.5 22.1C350.5 20.9 348.1 18.7 343.1 15.9C341.4 18.8 340.7 21.4 340.7 23.8C340.7 25.2 341.4 26.2 342.9 26.2C344.1 26.2 345.5 25.7 347.2 24.8C348.8 24 350 23 350.5 22.1L350.5 22.1L350.5 22.1L350.5 22.1L350.5 22.1ZM345.2 2.89999C345.9 1.7 346.9 1.2 347.6 1.2C348.1 1.2 348.6 1.39999 348.6 1.89999C348.6 1.89999 348.4 2.09999 348.4 2.39999C347.4 4.59999 346.5 7 345.8 9.39999C350.8 13 353.2 16.8 353 20.4C352.5 24.5 352 27.1 351.3 28.1C348.9 31 346.3 32.7 342.9 32.7C339.5 32.7 338.1 30.5 338.1 26.7C338.1 26 338.1 25 338.3 24.1C339.5 16.3 341.9 9.39999 345.2 2.89999L345.2 2.89999L345.2 2.89999L345.2 2.89999L345.2 2.89999ZM391.1 180C390.6 182.2 390.1 183.4 389.4 184.1C386.8 185.8 380.8 189.6 371.6 195.9C371.4 196.1 370.9 196.4 370.4 196.9C370.2 196.7 370.2 196.7 370.2 196.2L370.7 193.1C370.9 192.4 372.4 190.9 375.3 188.8C371.7 187.6 370 185.9 370 184C370 181.8 370.7 179.7 372.6 177.5C376.2 173.2 379.3 171 381.7 171C383.9 171 384.8 172.2 384.8 174.6C384.8 176 384.3 177.5 383.1 179.4C382.9 179.9 382.6 179.9 382.1 179.2C381.6 178 380.7 177.5 379.5 177.5C378.8 177.5 377.8 177.7 376.6 178.7C375.4 179.4 374.7 180.1 374.7 180.6C374.7 181.3 375.4 182 376.9 182.8C378.3 183.8 379.5 184 380.5 184C381.2 184 382.7 183.5 384.8 182.3C386.2 181.3 387.4 180.4 388.9 179.4C390.1 178.9 390.8 178.4 391.1 178.7C391.3 178.6 391.3 179 391.1 180L391.1 180L391.1 180L391.1 180L391.1 180ZM282.3 64.8C282.3 63.6 279.9 61.4 274.9 58.6C273.2 61.5 272.5 64.1 272.5 66.5C272.5 67.9 273.2 68.9 274.7 68.9C275.9 68.9 277.3 68.4 279 67.5C280.7 66.7 281.9 65.8 282.3 64.8L282.3 64.8L282.3 64.8L282.3 64.8L282.3 64.8ZM277.1 45.6C277.8 44.4 278.8 43.9 279.5 43.9C280 43.9 280.5 44.1 280.5 44.6C280.5 44.6 280.3 44.8 280.3 45.1C279.3 47.3 278.4 49.7 277.7 52.1C282.7 55.7 285.1 59.5 284.9 63.1C284.4 67.2 283.9 69.8 283.2 70.8C280.8 73.7 278.2 75.4 274.8 75.4C271.4 75.4 270 73.2 270 69.4C270 68.7 270 67.7 270.2 66.8C271.3 59 273.7 52.1 277.1 45.6L277.1 45.6L277.1 45.6L277.1 45.6L277.1 45.6ZM319.3 189.4C319.3 189.2 319.5 188.9 319.5 188.9C319.7 188.7 319.7 188.7 319.7 188.9C319.9 189.1 319.9 189.4 319.7 189.6C318.5 196.8 316.3 200.4 313.2 200.4C310.1 200.4 308.6 197.8 308.6 192.5C308.6 186 310.3 179.1 314.1 172.1C315.1 170.4 315.5 169.5 315.8 169.5L315.8 169.5C315.8 169.7 315.6 170.7 315.1 172.4C312.7 179.8 311.5 184.9 311.5 188C311.5 191.8 312.5 194 314.6 194C316.2 193.9 317.6 192.2 319.3 189.4L319.3 189.4L319.3 189.4L319.3 189.4L319.3 189.4ZM193.8 19.2C203.4 15.8 213.7 12 224.8 8.2C225.8 8 226 7.7 226.2 8C226.4 8 226.4 8.5 226 9.2C225.3 11.4 224.6 12.6 224.1 13C214.5 16.4 203.7 20.4 191.5 26C191.9 23.8 192.6 21.6 193.8 19.2L193.8 19.2L193.8 19.2L193.8 19.2L193.8 19.2ZM122 60.2C122.5 56.8 123.7 53 125.6 48.2C127 44.6 127.8 41 127.8 37.4C127.8 30.4 124.4 24 118 17.5C117.5 17 117.5 16.5 118 16.1L120.2 12.3C120.4 11.8 120.7 11.8 121.2 12.3C127.4 17.3 130.8 24.8 130.8 34.6C130.8 39.2 129.6 44.2 127.7 49.2C125.5 54.5 124.6 58.1 124.6 60C124.6 64.1 125.6 66.2 127.7 66.2C129.1 66.2 130.6 64.5 132.3 61.6C132.3 61.4 132.5 61.1 132.5 61.1C132.7 60.9 132.7 60.9 132.7 61.1C132.7 61.1 132.7 61.6 132.7 61.8C131.5 69.0001 129.3 72.6 126.2 72.6C123.3 72.6 121.6 69.5 121.6 63.7C121.5 62.6 121.8 61.4 122 60.2L122 60.2L122 60.2L122 60.2L122 60.2ZM94.9 187.4C113.4 180.7 132.6 173.5 152.7 166C153.4 165.8 153.9 165.5 154.1 165.8C154.1 165.8 154.1 166.3 153.9 167C152.9 169.2 152.2 170.4 151.7 170.8C134.9 177 115 184.7 92.4 194.1C93 192 93.7 189.8 94.9 187.4L94.9 187.4L94.9 187.4L94.9 187.4L94.9 187.4ZM216.3 127.2C216.3 127.7 216.1 128.6 215.8 129.6C215.3 131 214.8 131.8 214.1 131.8C213.9 131.8 213.4 131.1 212.4 130.1C211.7 129.1 210.7 128.7 210 128.7C208.1 128.7 206.2 133.3 204.5 142.4C203.8 146.5 203.1 149.1 202.1 150.8C201.4 152 200.9 152.5 200.4 152.5C200.2 152.5 199.9 152 199.9 151.1C199.9 149.4 198.9 146.3 197 141.7C195.3 136.9 193.9 134.7 193.2 134.7C192.7 134.7 192.2 134.7 192.2 135.2C192 135.4 191.5 135.7 190.8 135.7C189.8 135.7 188.6 135 187.2 133.8C185.8 132.4 185.3 131.4 185.5 130.9C187.7 126.8 188.9 124.9 189.3 124.9C191.9 124.9 194.6 126.3 196.7 129.7C198.9 132.8 200.3 137.1 201.3 142.2C201.3 142.9 201.3 143.2 201.3 143.2C201.5 143.4 201.5 143.4 201.5 143.2C201.5 143.2 201.7 143 202 142.2C202.5 139.3 203.4 134.5 205.1 128.3C207 124 208.9 121.8 211.3 121.8C212.3 121.8 213.5 122.5 214.7 124C215.9 125.3 216.3 126.2 216.3 127.2L216.3 127.2L216.3 127.2L216.3 127.2L216.3 127.2ZM185.6 130.8C186.1 129.8 186.6 129.4 186.8 129.4C186.8 129.4 187 129.6 186.8 129.6C187 130.3 186.3 132 184.9 134.6C182.5 139.2 179.1 142.8 174.8 145.9C170.2 149.3 166.2 151.7 162.6 153.3C161.9 153.8 157.6 155.5 149.6 158.3C148.4 158.8 147.7 159 147.2 159C147 159 147 158.8 147 158.8C147 158.6 147.7 157.8 148.9 157.1C155.6 153.5 164.7 147.7 176.5 139.8C181.3 136.3 184.2 133.2 185.6 130.8L185.6 130.8L185.6 130.8L185.6 130.8L185.6 130.8ZM181.1 179.8C181.1 182.4 179.9 185.3 178 188.4C175.8 191.5 173.2 194.4 169.8 196.8C168.4 197.8 167.6 198.2 167.4 198.2L167.4 198C167.4 197.8 167.9 197.3 168.8 196.1C174.3 190.1 177.2 186.3 177.2 184.1C177.2 182.4 176.2 181.5 174.6 181.5C173.6 181.5 172.7 181.7 172 182.2C171.3 182.4 171 182.7 170.8 182.7C170.8 182.7 170.6 182.7 170.6 182.5C170.6 182.5 170.6 182 170.8 181.1C171.8 177 173.7 175.1 177 175.1C179.6 175 181.1 176.6 181.1 179.8L181.1 179.8L181.1 179.8L181.1 179.8L181.1 179.8ZM268.4 188.6C268.4 188.4 268.6 188.1 268.6 188.1C268.8 187.9 268.8 187.9 268.8 188.1C269 188.3 269 188.6 268.8 188.8C267.6 196 265.4 199.6 262.3 199.6C259.2 199.6 257.7 197 257.7 191.7C257.7 185.2 259.4 178.3 263.2 171.3C264.2 169.6 264.6 168.7 264.9 168.7L264.9 168.7C264.9 168.9 264.7 169.9 264.2 171.6C261.8 179 260.6 184.1 260.6 187.2C260.6 191 261.6 193.2 263.7 193.2C265.3 193.2 266.7 191.5 268.4 188.6L268.4 188.6L268.4 188.6L268.4 188.6L268.4 188.6ZM275.1 19.9C275.1 19.7 275.3 19.4 275.3 19.4C275.5 19.2 275.5 19.2 275.5 19.4C275.7 19.6 275.7 19.9 275.5 20.1C274.3 27.3 272.1 30.9 269 30.9C265.9 30.9 264.4 28.3 264.4 23C264.4 16.5 266.1 9.60001 269.9 2.60001C270.9 0.900009 271.3 0 271.6 0L271.6 0C271.6 0.199997 271.4 1.2 270.9 2.89999C268.5 10.3 267.3 15.4 267.3 18.5C267.3 22.3 268.3 24.5 270.4 24.5C272 24.5 273.5 22.8 275.1 19.9L275.1 19.9L275.1 19.9L275.1 19.9L275.1 19.9ZM225.2 43.7C225.2 46.3 224 49.2 222.1 52.3C219.9 55.4 217.3 58.3 213.9 60.7C212.5 61.7 211.7 62.1 211.5 62.1L211.5 61.9C211.5 61.7 212 61.2 212.9 60C218.4 54 221.3 50.2 221.3 48C221.3 46.3 220.3 45.4 218.7 45.4C217.7 45.4 216.8 45.6 216.1 46.1C215.4 46.3 215.1 46.6 214.9 46.6C214.9 46.6 214.7 46.6 214.7 46.4C214.7 46.4 214.7 45.9 214.9 45C215.9 40.9 217.8 39 221.1 39C223.8 38.9 225.2 40.6 225.2 43.7L225.2 43.7L225.2 43.7L225.2 43.7L225.2 43.7ZM11.9 112.8C11.9 112.6 12.1 112.3 12.1 112.3C12.3 112.1 12.3 112.1 12.3 112.3C12.5 112.5 12.5 112.8 12.3 113C11.1 120.2 8.89997 123.8 5.79997 123.8C2.69997 123.8 1.19997 121.2 1.19997 115.9C1.19997 109.4 2.89997 102.5 6.69997 95.5C7.69997 93.8 8.09998 92.9 8.39997 92.9L8.39997 92.9C8.39997 93.1 8.19997 94.1 7.69997 95.8C5.29997 103.2 4.09998 108.3 4.09998 111.4C4.09998 115.2 5.09998 117.4 7.19997 117.4C8.69997 117.4 10.2 115.7 11.9 112.8L11.9 112.8L11.9 112.8L11.9 112.8L11.9 112.8ZM85.8 105.4C85.8 105.9 85.6 106.8 85.1 107.8C84.9 109.2 84.4 110 83.7 110C83.5 110 83 109.3 82 108.3C81.3 107.3 80.3 106.9 79.6 106.9C77.7 106.9 75.8 111.5 74.1 120.6C73.4 124.7 72.7 127.6 71.7 129.2C71 130.2 70.5 130.9 70 130.9C69.8 130.9 69.5 130.2 69.5 129.2C69.5 127.5 68.5 124.4 66.6 119.8C64.7 115 63.5 112.8 62.8 112.8C62.1 112.8 61.8 112.8 61.6 113.3C61.6 113.5 61.1 113.8 60.4 113.8C59.4 113.8 58.5 113.1 57 111.9C55.8 110.7 55.1 109.7 55.1 109C55.1 108.8 55.6 107.6 56.8 105.6C58 103.7 58.7 103 59 103C61.6 103 64 104.4 66.2 107.8C68.6 111.2 70 115.2 71 120.5C71 121 71 121.2 71 121.5C71.2 121.7 71.2 121.7 71.2 121.5C71.2 121.3 71.4 121 71.7 120.5C71.9 117.4 73.1 112.6 74.8 106.3C76.7 102 78.6 99.8 80.8 99.8C82 99.8 83.2 100.5 84.4 102C85.3 103.4 85.8 104.4 85.8 105.4L85.8 105.4L85.8 105.4L85.8 105.4L85.8 105.4ZM69.9 133C68.2 136.8 64.9 140.7 59.8 144.3C55.2 147.7 51.2 150.1 47.6 151.7C46.9 152.2 42.6 153.9 34.6 156.7C33.4 157.2 32.7 157.4 32.2 157.4C32 157.4 32 157.2 32 157.2C32 157 32.7 156.2 33.9 155.5C40.4 151.7 49.5 146.1 61.5 138.2C64.4 136 66.5 133.9 68.2 132C70.1 129.8 71.1 128.6 71.3 128.6C71.3 128.6 71.3 128.6 71.3 128.8C71.4 129.1 70.9 130.6 69.9 133L69.9 133L69.9 133L69.9 133L69.9 133ZM17.6 50.6C20.5 50.6 22.9 52 25 55.4C27.2 58.5 28.8 62.8 29.6 68.1C29.8 68.6 29.8 68.8 29.8 69.1L30 69.1C30 68.9 30.2 68.6 30.2 68.1C30.7 65 31.9 60.2 33.6 53.9C35.5 49.6 37.4 47.4 39.6 47.4C40.8 47.4 42 48.1 43 49.6C44 51 44.4 52 44.4 53C44.4 53.5 44.4 54.4 43.9 55.4C43.4 56.8 42.9 57.6 42.5 57.6C42.3 57.6 41.8 56.9 40.8 55.9C40.1 54.9 39.1 54.5 38.2 54.5C36.3 54.5 34.6 59.1 32.9 68.2C32.2 72.3 31.2 75.2 30.5 76.8C29.8 77.8 29.3 78.5 28.8 78.5C28.3 78.5 28.3 77.8 28.1 76.8C28.3 75.1 27.4 72 25.5 67.4C23.6 62.6 22.4 60.4 21.4 60.4C20.9 60.4 20.7 60.4 20.4 60.9C20.2 61.1 19.9 61.4 19.2 61.4C18.2 61.4 17.3 60.7 15.8 59.5C14.4 58.3 13.9 57.3 13.9 56.6C13.9 56.4 14.4 55.2 15.6 53.2C16.7 51.4 17.4 50.6 17.6 50.6L17.6 50.6L17.6 50.6L17.6 50.6L17.6 50.6ZM102.8 58.8C102.8 62.4 100.9 65.5 97.3 68.4C93.7 71 89.6 72.5 85.1 72.5C84.4 72.5 83.2 72.3 82 71.8C80.8 71.6 79.8 71.3 79.1 71.3C74.3 71.3 69.3 73.7 64.2 78.5C60.6 82.1 57 85.7 53.4 89.3C51.2 91 49.1 92.2 46.7 92.9C44.1 93.6 42.6 94.1 42.1 94.1L42.1 93.9C42.1 93.9 43.1 93.2 45 92C46.9 90.8 49.8 88.9 53.9 85.8C55.8 83.9 58.7 80.8 62.3 76.7C64.7 73.6 67.3 71.2 70.2 69C73.6 66.6 76.4 65.2 79.3 64.7C78.8 64.9 80.7 64.9 84.3 64.9C86.5 62.7 88.9 60.6 91 58.4C93.9 55.8 96.3 54.6 98.2 54.6C101.4 54.5 102.8 55.9 102.8 58.8L102.8 58.8L102.8 58.8L102.8 58.8L102.8 58.8ZM100.4 61C99.9 59.6 98.5 59.1 96.1 59.1C93.9 59.1 90.6 61.3 86.3 65.6C86.8 65.6 87.3 65.8 87.7 65.8C90.1 65.8 92.7 65.1 95.4 63.9C98 62.9 99.7 61.9 100.4 61L100.4 61L100.4 61L100.4 61L100.4 61ZM81.2 36.5C81.2 36.3 81.4 36 81.4 36C81.6 35.8 81.6 35.8 81.6 36C81.8 36.2 81.8 36.5 81.6 36.7C80.4 43.9 78.2 47.5 75.1 47.5C72 47.5 70.5 44.9 70.5 39.6C70.5 33.1 72.2 26.2 76 19.2C77 17.5 77.4 16.6 77.7 16.6L77.7 16.6C77.7 16.8 77.5 17.8 77 19.5C74.6 26.9 73.4 32 73.4 35.1C73.4 38.9 74.4 41.1 76.5 41.1C78.1 41 79.5 39.4 81.2 36.5L81.2 36.5L81.2 36.5L81.2 36.5L81.2 36.5ZM586.2 112.1C587.4 111.1 588.4 110.7 589.1 110.7C589.6 110.7 589.8 111.2 589.8 112.1C589.8 112.8 589.6 114.3 589.1 116.2C588.6 118.1 588.4 119.6 588.4 120.8C588.4 126.1 592.2 129 599.7 129C605.7 129 610.7 126.4 614.6 121.3C617 117.2 619.6 113.4 622 109.5C623 108.5 623.7 108.1 624.4 108.1C625.4 108.1 625.6 109.1 625.1 111.2C624.1 115.3 623.4 117.2 623.4 116.7C623.4 118.4 624.4 120.1 626.3 121.5C628 122.9 630.4 123.9 633 123.9C636.4 123.9 638.5 122.9 639.5 121.3C639.5 121.1 638.5 119.1 636.4 115.5C636.6 113.6 637.6 110.2 639 105.7C639.2 104.3 639.7 103.5 640.2 103.5C640.7 103.5 641.2 103.7 641.9 104.7C643.8 107.6 645 110.9 645 114.8C645 120.8 643.6 125.8 640.9 130.2C638 135.5 633.7 138.1 627.9 138.1C624.1 138.1 620.5 135 617.3 129.2C612 138.8 605.1 143.6 596.7 143.6C586.6 143.6 581.8 137.8 581.8 126.8C578 131.4 571.5 135.4 563.1 139.3L563.1 126C569.3 122.9 573.4 121 574.6 120.2C578.5 118.3 582.3 115.4 586.2 112.1L586.2 112.1L586.2 112.1L586.2 112.1L586.2 112.1ZM549.5 127.9C545.9 123.3 542.8 121.2 539.9 121.2C535.6 121.2 533.7 122.2 533.7 124.6C533.7 127.5 536.6 128.9 542.3 128.9C544.4 128.9 546.8 128.4 549.5 127.9L549.5 127.9L549.5 127.9L549.5 127.9L549.5 127.9ZM556.9 145.4C556.9 144 556.4 142.3 555.9 140.6C553 141.6 548.7 142.3 543.4 142.3C531.9 142.3 526.1 138.2 526.1 130.3C526.1 124.3 527.8 119 531.6 114.2C535.2 110.1 539 108 543.1 108C546.2 108 549.3 109.9 552.9 113.5C556 117.1 558.9 121.2 561.3 126.2C561.5 126.2 562 126.2 563 125.7L563 139L562.5 139.5C562.5 142.4 561.8 145.7 560.3 150.1C558.6 155.6 556 160.2 552.9 163.8C545.7 172.4 537.8 179.9 529.1 186.4C516.1 196 505.1 201 495.5 201C487.3 201 481.1 197.9 476.8 191.9C473 186.9 471 180.1 471 172.2C471 162.1 473.2 151.8 477.2 141C478.4 138.6 478.9 137.6 479.4 137.6C479.6 137.6 479.6 137.8 479.6 138.3C479.6 139 479.4 140.2 479.1 141.7C476 152.3 474.5 160.2 474.5 165.7C474.5 170.7 475.7 175.1 478.1 178.7C481.9 183.7 487.9 186.4 496.3 186.4C503.5 186.4 512.1 183.3 522.5 177C530.7 172 538.6 166 546.3 158.8C553.3 151.9 556.9 147.6 556.9 145.4L556.9 145.4L556.9 145.4L556.9 145.4L556.9 145.4ZM491.4 109.2C490.9 107 490.2 105.4 489.2 104.2C488.5 102.8 488 102 487.8 101.6C487.8 101.1 487.8 99.4 488.3 96.1C488.8 93 489 90.8 489.5 89.6C489.7 88.4 490 87.9 490.5 87.9C490.7 87.9 491 88.1 491.5 88.6C494.9 92.4 498.5 96.3 502.5 100.4C504.2 102.1 504.9 103 504.9 103.5C504.9 103.7 504.7 104 504.2 104C503.5 104 501.6 103.5 498.7 102.8C500.4 106.9 502.3 111 504 114.8C506.6 121.5 508.1 127 508.1 132.1C508.1 134.5 507.6 137.4 506.7 141C505.5 145.1 504.1 148.2 502.1 150.4C495.1 158.3 483.4 167 466.8 176.3C452.4 184.7 444 188.8 441.4 188.8C440.9 188.8 433.7 190.5 420 193.8C405.6 197.2 396.5 199.3 392.9 199.8C389.1 200.5 386.7 200.8 385.7 200.8C385.2 200.8 385.2 200.8 385.2 200.6C385.2 200.4 387.8 198.9 393.1 196.5C395 195.5 406.1 190.7 426.5 182.1C440.7 176.1 452.4 170.6 461.8 165.5C476 157.8 486.8 151.1 494.2 145.6C499.7 141.3 502.6 138.2 502.6 136.2C502.6 135.7 501.2 132.4 498.3 126.1C495 119 492.6 113.3 491.4 109.2L491.4 109.2L491.4 109.2L491.4 109.2L491.4 109.2ZM471.7 75.8C471.7 79.6 469.8 84.9 465.9 91.4C463.5 95.5 459.9 101 455.1 108.2C459.9 113.7 463.3 118.8 464.9 123.1C465.9 126.2 466.6 130.3 466.6 134.9C466.6 136.8 466.1 139.2 465.2 142.3C464.5 145.2 463.5 147.3 462.6 148.8C460.7 151.7 457.6 154.6 452.8 157.4C447.8 160.8 443.4 162.4 439.8 162.4C434 162.4 431.2 158.1 431.2 149.4C431.2 143.6 432.2 137.9 434.1 132.6C436 128 439.1 122 444.2 114.1C439.9 110 435.3 104.3 430.3 97.1C429.8 96.4 428.6 95.2 426.7 93.3C425.7 92.3 425.3 91.1 425.3 89.7C425.3 87.5 425.5 85.1 426 82.3C426.7 79.4 427.2 78.2 427.4 78.2C428.1 78.2 430.3 79.4 434.4 82C438.2 84.6 441.4 86.6 443.3 88.2C444.5 88.9 445 89.6 445 89.6L445 89.8C445 90 444.3 90.3 442.6 90.3C439.5 90.3 437.8 90.5 437.8 90.8C437.8 91 438.3 91.5 439.2 92.7C443 97.5 446.9 101.1 451 104C452 102.6 455.3 97.8 460.6 89.6C465.2 82.6 467.8 77.8 469 75C470.2 72.1 470.9 70.9 471.4 70.9C471.5 71 471.7 72.5 471.7 75.8L471.7 75.8L471.7 75.8L471.7 75.8L471.7 75.8ZM462.3 134.9C459.7 129.6 455.1 124.1 448.9 118.8C446.7 121 444.1 125 440.7 130.8C436.9 137.3 435.2 141.4 435.2 143.5C435.2 146.4 437.1 147.8 441.4 147.8C443.3 147.8 445.7 147.1 448.8 145.9C453.1 144 457.2 141.3 460.6 138C462.1 136.6 462.6 135.6 462.3 134.9L462.3 134.9L462.3 134.9L462.3 134.9L462.3 134.9ZM448.9 57.8L452.7 49.9C452.9 49.4 453.2 49.2 453.7 49.2C454.2 49.2 456.1 50.4 459.9 53C463.5 55.4 465.4 56.8 465.4 57.3C465.4 59 463.7 62.6 460.6 67.9C460.1 68.6 459.6 68.6 459.2 68.4C456.1 66 452.5 63.6 448.4 61C447 63.9 445.8 66.5 444.3 68.7C444.1 69.4 443.6 69.7 443.1 69.4C439.5 66.5 435.7 63.9 431.8 61.5C431.6 61.3 431.6 61 431.8 60.5L436.4 50.9C436.6 50.4 437.1 49.9 437.4 49.9C437.9 49.9 439.6 51.1 442.7 53.3C445.8 55.2 447.9 56.9 448.9 57.8L448.9 57.8L448.9 57.8L448.9 57.8L448.9 57.8ZM575.4 191.5C572.8 192.2 571.3 192.7 570.8 192.7L570.8 192.5C570.8 192.5 571.8 191.8 573.7 190.6C575.6 189.4 578.5 187.5 582.6 184.4C584.5 182.5 587.4 179.4 591 175C593.4 172.1 596 169.5 598.9 167.6C602.5 165 605.9 163.8 609.5 163.8C610.2 163.8 611.4 164 612.9 164.5C614.1 165 615.3 165.2 616.3 165.2C618.2 165.2 619.7 164.5 620.9 163C621.6 161.6 622.6 160.4 623.5 158.9C624 157.9 624.7 157.5 625.2 157.5C625.4 157.5 625.4 157.7 625.4 158.2C625.4 158.7 625.2 159.9 624.7 161.3C624.2 162 626.1 162.3 629.7 162.3C630.2 162.3 630.4 162.3 630.4 162.1C630.4 162.1 630.2 161.1 629.7 159.5C629.5 159 629.7 158.3 630.4 157.3C631.4 155.6 631.8 154.9 632.1 155.1C633.1 155.8 633.5 157.3 633.5 158.9C633.5 160.6 633 162.3 632.3 164.2C631.6 166.4 630.9 167.6 630.4 168C628.7 169 626.1 168.7 622.5 167C619.6 169.9 616.7 171.6 613.9 171.6C613.2 171.6 612 171.4 610.8 170.9C609.6 170.4 608.6 170.2 607.9 170.2C603.1 170.2 598.1 172.4 593 177.2C589.4 180.8 585.8 184.4 582.2 188C579.9 189.6 577.8 190.8 575.4 191.5L575.4 191.5L575.4 191.5L575.4 191.5L575.4 191.5ZM523.8 61.9C526.7 61.9 529.1 63.3 531.2 66.7C533.4 69.8 535 74.1 535.8 79.4C536 79.9 536 80.1 536 80.4L536.2 80.4C536.2 80.2 536.4 79.9 536.4 79.4C536.9 76.3 538.1 71.5 539.8 65.2C541.7 60.9 543.6 58.7 545.8 58.7C547 58.7 548.2 59.4 549.2 60.9C550.2 62.3 550.6 63.3 550.6 64.3C550.6 64.8 550.6 65.7 550.1 66.7C549.6 68.1 549.1 68.9 548.7 68.9C548.5 68.9 548 68.2 547 67.2C546.3 66.2 545.3 65.8 544.4 65.8C542.5 65.8 540.8 70.4 539.1 79.5C538.4 83.6 537.4 86.5 536.7 88.1C536 89.1 535.5 89.8 535 89.8C534.5 89.8 534.5 89.1 534.3 88.1C534.5 86.4 533.6 83.3 531.7 78.7C529.8 73.9 528.6 71.7 527.6 71.7C527.1 71.7 526.9 71.7 526.6 72.2C526.4 72.4 526.1 72.7 525.4 72.7C524.4 72.7 523.5 72 522 70.8C520.6 69.6 520.1 68.6 520.1 67.9C520.1 67.7 520.6 66.5 521.8 64.5C522.8 62.6 523.5 61.9 523.8 61.9L523.8 61.9L523.8 61.9L523.8 61.9L523.8 61.9ZM483.2 59C507.4 49.9 532.6 40.8 558.6 31.2C559.3 31 559.8 30.7 559.8 31C560 31 560 31.5 559.8 32.2C558.8 34.4 558.1 35.6 557.6 36C557.4 36.2 545.1 40.8 521.4 49.7C497.2 58.6 483.5 64.1 480.8 65.8C481.3 63.6 482 61.4 483.2 59L483.2 59L483.2 59L483.2 59L483.2 59ZM459.7 15.1C460.2 13.7 460.2 12.2 459.9 10.8C459.7 9.40001 458.9 8.60001 457.7 8.60001C457.2 8.60001 456.5 8.8 455.5 9.3C454.5 9.8 454.1 10.3 454.1 10.7C454.2 12 456.1 13.4 459.7 15.1L459.7 15.1L459.7 15.1L459.7 15.1L459.7 15.1ZM456.8 21.4C452.2 19 450.1 16.6 450.1 14C450.1 10.9 451.5 8 454.4 5.60001C457.3 3 459.7 2 461.6 2.70001C463.3 3.20001 464 4.90001 464 7.70001C464 10.3 463.5 13.2 462.3 16.6C464.7 17.8 466.1 19 466.6 20C466.6 21.2 465.6 23.4 463.5 26.2C463 25.2 461.6 24 459.4 22.8C456.8 26.4 453.6 29.5 449.8 32.4C445.2 35.5 441.2 38.2 437.6 39.6C436.6 40.1 432.3 41.8 424.6 44.6C423.4 45.1 422.4 45.3 422.2 45.3C422 45.3 422 45.1 422 45.1C422 44.9 422.5 44.1 423.9 43.4C429.7 39.8 435.4 36.4 441.4 33.1C448.4 28.8 453.5 25 456.8 21.4L456.8 21.4L456.8 21.4L456.8 21.4L456.8 21.4ZM608.5 51.4C609 50 609 48.5 608.7 47.1C608.5 45.7 607.7 44.9 606.5 44.9C606 44.9 605.3 45.1 604.3 45.6C603.3 46.1 602.9 46.6 602.9 47C603 48.2 604.9 49.7 608.5 51.4L608.5 51.4L608.5 51.4L608.5 51.4L608.5 51.4ZM613.8 60.2C611.4 66 610.2 70.5 610.2 73.9C610.2 78 611.2 80.1 613.3 80.1C614.5 80.1 615.9 78.4 617.6 75.5C617.8 75.3 617.8 75 618.1 74.8C618.1 74.8 618.3 74.8 618.3 75C618.3 75 618.3 75.2 618.3 75.7C616.9 82.9001 614.7 86.5 611.8 86.5C608.7 86.5 607.2 83.9 607.2 78.6C607.2 76 607.7 72.6 609.1 68.3C610.5 64.0001 611.3 61.8 611.3 61.6C611.3 61.1 610.3 60.2 608.2 59C604.4 64 599.1 68.8 592.4 72.9C587.8 75.5 583.3 77.9 578.5 79.9C569.6 83.5 564.3 85.4 563.1 86.1C561.9 86.6 561.2 86.8 560.7 86.8C560.5 86.8 560.5 86.6 560.5 86.6C560.5 86.1 561 85.6 562.4 84.7C570.1 80.4001 577.5 76.1 585.2 71.7C595.3 65.9001 602.2 61.1 605.6 57.5C601 55.1 598.9 52.7 598.9 50.1C598.9 47 600.3 44.1 603.2 41.5C606.1 39.1 608.5 38.1 610.4 38.9C611.8 39.4 612.8 41.1 612.8 43.9C612.8 46.5 612.3 49.4 611.1 52.5C613.5 53.9 614.5 55.4 614.5 56.8C614.5 57.6 614.3 58.8 613.8 60.2L613.8 60.2L613.8 60.2L613.8 60.2L613.8 60.2ZM504.6 25.2C504.6 25 504.8 24.7 504.8 24.7C505 24.5 505 24.5 505 24.7C505.2 24.9 505.2 25.2 505 25.4C503.8 32.6 501.6 36.2 498.5 36.2C495.4 36.2 493.9 33.6 493.9 28.3C493.9 21.8 495.6 14.9 499.4 7.90001C500.4 6.20001 500.8 5.3 501.1 5.3L501.1 5.3C501.1 5.5 500.9 6.5 500.4 8.2C498 15.6 496.8 20.7 496.8 23.8C496.8 27.6 497.8 29.8 499.9 29.8C501.5 29.8 502.9 28.1 504.6 25.2L504.6 25.2L504.6 25.2L504.6 25.2L504.6 25.2Z" id="Group" fill="#595959" stroke="none" clip-path="url(#clip_1)" />
  </g>
</svg>