<?xml version="1.0" encoding="utf-8"?>
<svg width="552.2001px" height="212.20003px" viewBox="0 0 552.2001 212.20003" version="1.1" xmlns:xlink="http://www.w3.org/1999/xlink" xmlns="http://www.w3.org/2000/svg">
  <defs>
    <path d="M552.2 0L552.2 0L552.2 212.2L0 212.2L0 0L552.2 0Z" id="path_1" />
    <clipPath id="clip_1">
      <use xlink:href="#path_1" clip-rule="evenodd" fill-rule="evenodd" />
    </clipPath>
  </defs>
  <g id="Surah_18_of_114_(modified)">
    <path d="M552.2 0L552.2 0L552.2 212.2L0 212.2L0 0L552.2 0Z" id="Surah_18_of_114_(modified)" fill="none" stroke="none" />
    <path d="M298.5 113.4C298.5 127.6 295.9 138.6 290.8 146.8C286.5 153.5 281.4 157.1 275.7 157.1L275.7 142.5C280.3 142.5 284.8 140.6 289.1 137C290.3 136 291 132 291 125.2C291 121.1 289.8 104.6 287.6 75.8C286.903 66.6708 286.336 58.7273 285.887 51.9663C285.825 52.0441 285.763 52.122 285.7 52.2001C283.1 55.1001 280.4 58 277.8 61.1001C273.7 65.9 270.8 69.7001 269.4 72.9C268.4 75.1001 267.7 76 267.5 76C267.3 76 267.5 74.6001 268 71.9C268.2 70.2 269.4 67.6001 271.4 64C273.3 60.6001 274.8 58.5 275.7 57.3C279.815 52.5437 283.102 48.7014 285.484 45.7119C285.269 42.2674 285.092 39.2138 284.951 36.5506C284.44 36.517 283.89 36.5 283.3 36.5C276.1 36.5 259.5 42.5 233.6 54.3C207.4 66.5 189.4 76.4 179.8 84.1C179.5 84.6 179.5 85.1 180.2 85.6C187.2 88.7 193.9 92.3 200.6 96.2C216.7 105.3 230.8 114.7 243.1 124.8C250.8 131.3 255.8 135.1 258.2 136.6C264.2 140.7 270 142.6 275.5 142.6L275.5 157.1C270 157.1 264.9 155.9 260.6 153.3C258 151.9 254.1 148.7 249.1 144.2C243.3 138.9 238.5 135.1 234.7 132.4C233.7 131.7 233.3 131.4 233 131.4C232.8 131.4 233 132.1 233.7 133.3C235.9 138.3 236.8 141.9 236.8 144.3C236.8 152.7 234.4 158.9 229.6 163.3C226.2 166.2 218.6 170.3 206.6 175.5C204.9 176.2 203.5 176.5 202.5 176.7C205.4 177.9 208 180.1 209.9 183.2C211.8 186.3 213 189.4 213 192.8C213 205.8 208.2 212.2 198.8 212.2C193 212.2 187.3 209.3 182 203.6C176.2 197.4 172.6 189.4 171.4 180.1C171.4 179.4 170.9 178.9 170 179.1C169 179.1 168.6 179.1 168.3 178.9C168.1 178.7 168.1 178.4 168.1 177.7C168.1 176.7 168.3 176.3 168.3 176.5C168.3 176 168.1 176 167.3 176.3C162.3 177.7 156.5 178.7 150.3 178.7L150.3 178.599C143.781 178.552 138.408 177.348 133.9 174.8C128.4 171.9 123.6 166.4 119.5 158.7C112.5 163 102.7 167.8 90.2 172.6C70.3 180.5 52.5 184.4 36.7 184.4C12.2 184.4 -1.52588e-05 172.2 -1.52588e-05 147.7C-1.52588e-05 138.3 1.39999 130.4 4.29999 124.2C5.08154 122.507 5.77825 121.407 6.27962 120.846C4.20816 120.075 3.19997 117.545 3.19997 113.2C3.19997 106.7 4.89997 99.8 8.69998 92.8C9.69998 91.1 10.1 90.2 10.4 90.2C10.4 90.4 10.2 91.4 9.69998 93.1C7.29998 100.5 6.09998 105.6 6.09998 108.7C6.09998 112.5 7.09998 114.7 9.19998 114.7C10.8 114.6 12.2 112.9 13.9 110.1C13.9 109.9 14.1 109.6 14.1 109.6C14.2093 109.491 14.2589 109.441 14.2813 109.451C14.3 109.46 14.3 109.509 14.3 109.6C14.5 109.8 14.5 110.1 14.3 110.3C13.1 117.5 10.9 121.1 7.79997 121.1C7.55659 121.1 7.32306 121.084 7.09936 121.052C7.09977 121.068 7.09998 121.084 7.09998 121.1C7.09998 121.8 6.89999 123 6.39999 124.7C4.49998 132.6 3.29999 137.9 3.29999 140.5C3.29999 150.8 7.59999 158.7 16 164C22.5 167.8 30.2 169.8 39.3 169.8C54.9 169.8 71.7 166.4 89.7 160C100.3 156.2 108.9 152.3 115.9 148.2C113.3 141.7 112.1 136.7 112.1 133.3C112.1 126.3 113.8 120.3 116.7 115.1C119.3 110.3 122.5 107.9 125.6 107.7C128.7 107.9 131.8 110.3 134.7 115.6C137.3 120.4 138.5 125.2 138.5 129.8C138.5 141 134.9 148.9 127.7 153.7C132.7 160.4 140.4 164 150.7 164L150.7 164.098C156.801 164.048 163.669 162.849 171.4 160.5C173.6 152.1 176.7 141.8 180.5 129.8C181.2 127.9 182.9 123.3 185.5 115.9C186.2 114.7 186.7 114.2 187.2 114.2C187.9 114.2 188.4 114.9 188.4 116.8C188.6 118.5 189.1 122.8 190.3 129.8C191.5 136 192 140.1 192 142C192.2 153.5 190.3 161.9 186.9 166.9C197.2 165.2 203.7 163.5 206.6 162.3C213.3 159.2 217.9 157.5 219.6 156.5C225.4 153.9 229.4 151.5 231.8 149.5C233 148.5 233.2 147.3 232.8 146.1C230.6 139.6 224.2 132.2 213.1 123.5C200.9 113.9 188.4 104.1 175.9 94.5C175.7 94.3 175.4 93.3 175.4 91.6001C175.4 88.5 175.9 84.9 177.1 80.6001C178.3 76 179.5 72.9 180.9 71.7001C189.3 64.3001 207.1 54.4001 234.4 42.2001C257.883 31.5647 274.561 25.6348 284.496 24.1023C284.437 19.7696 283.734 16.1647 282.3 13.2C282.3 11.5 283.7 7.39999 286.4 1C286.6 0.300003 286.9 0 287.4 0C287.6 0 287.9 0.199997 288.4 1.2C289.1 2.89999 291 7.39999 293.9 14.9C296.8 22.8 298.5 27.6 299.2 29.3C299.4 30.7 299.7 31.9 299.7 32.4C299.7 34.0912 298.4 33.7732 295.981 31.3549C295.852 33.9762 295.055 36.872 293.582 40.0423C294.069 46.482 294.779 55.8831 295.7 68.2C297.6 93.3 298.5 108.4 298.5 113.4ZM306.9 28.7C306.9 23.9 306.2 20.1 304.7 16.9C304.7 15.2 305.9 11.1 308.8 4.90002C309 4.20003 309.3 3.70003 309.5 3.70003C310 3.70003 310.2 4.20003 310.7 4.90002C311.4 6.60002 313.1 11.1 316 18.6C319.1 26.5 320.8 31.3 321.3 33.2C321.8 34.4 321.8 35.6 321.8 36.1C321.8 38.3 319.9 37.1 315.6 32.3C315.1 31.6 314.9 32.1 314.9 33.3C314.9 33.8 316.1 48.7 318.3 78.4C320.5 107.9 321.4 124.5 321.4 128.3C321.4 139.6 319.7 149.7 316.4 158.3C315.4 160 315 161.2 314.5 162.1C313.8 163.3 313.5 163.3 313.3 162.6C313.129 161.746 313.25 160.235 313.414 158.193C313.442 157.844 313.471 157.479 313.5 157.1C314 153 314.2 148.5 314.2 143.4C314.2 138.6 313 119.4 310.6 85.6C308.1 51.7 306.9 32.8 306.9 28.7ZM257.2 4.40002C237.1 11.9 217.9 19.1 199.4 25.8C198.2 28.2 197.5 30.4 196.9 32.5C219.5 23.1 239.4 15.4 256.2 9.20003C256.7 8.80002 257.4 7.60002 258.4 5.40002C258.6 4.70003 258.6 4.20003 258.6 4.20003C258.451 3.97645 258.135 4.08611 257.694 4.23928C257.544 4.29163 257.378 4.34907 257.2 4.40002ZM357.4 18.2C357.4 20.8 359.5 23.2 364.1 25.6C360.7 29.2 355.7 33 348.7 37.3C342.7 40.6 337 44 331.2 47.6C329.8 48.3 329.3 49.1 329.3 49.3C329.3 49.3 329.3 49.5 329.5 49.5C329.7 49.5 330.7 49.3 331.9 48.8C339.6 46 343.9 44.3 344.9 43.8C348.5 42.4 352.5 39.7 357.1 36.6C360.9 33.7 364.1 30.6 366.7 27C368.9 28.2 370.3 29.4 370.8 30.4C372.9 27.6 373.9 25.4 373.9 24.2C373.4 23.2 372 22 369.6 20.8C370.8 17.4 371.3 14.5 371.3 11.9C371.3 9.10004 370.6 7.40004 368.9 6.90004C367 6.20003 364.6 7.20003 361.7 9.80003C358.8 12.2 357.4 15.1 357.4 18.2ZM139.6 17.9C137.5 14.5 135.1 13.1 132.2 13.1C132 13.1 131.3 13.8 130.2 15.7C129 17.7 128.5 18.9 128.5 19.1C128.5 19.8 129 20.8 130.4 22C131.9 23.2 132.8 23.9 133.8 23.9C134.5 23.9 134.8 23.6 135 23.4C135.3 22.9 135.5 22.9 136 22.9C137 22.9 138.2 25.1 140.1 29.9C142 34.5 142.9 37.6 142.7 39.3C142.9 40.3 142.9 41 143.4 41C143.9 41 144.4 40.3 145.1 39.3C145.8 37.7 146.8 34.8 147.5 30.7C149.2 21.6 150.9 17 152.8 17C153.7 17 154.7 17.4 155.4 18.4C156.4 19.4 156.9 20.1 157.1 20.1C157.5 20.1 158 19.3 158.5 17.9C159 16.9 159 16 159 15.5C159 14.5 158.6 13.5 157.6 12.1C156.6 10.6 155.4 9.90002 154.2 9.90002C152 9.90002 150.1 12.1 148.2 16.4C146.5 22.7 145.3 27.5 144.8 30.6C144.8 31.1 144.6 31.4 144.6 31.6L144.4 31.6C144.4 31.3 144.4 31.1 144.2 30.6C143.4 25.3 141.8 21 139.6 17.9ZM367.1 15C367.4 16.4 367.4 17.9 366.9 19.3C363.3 17.7 361.4 16.2 361.3 14.9C361.3 14.5 361.7 14 362.7 13.5C363.7 13 364.4 12.8 364.9 12.8C366.1 12.8 366.9 13.6 367.1 15ZM408.7 32.3C408.7 32.3 408.5 32.6 408.5 32.8C406.8 35.7 405.3 37.3 403.8 37.4C401.7 37.4 400.7 35.2 400.7 31.4C400.7 28.3 401.9 23.2 404.3 15.8C404.8 14.1 405 13.1 405 12.9C404.7 12.9 404.3 13.8 403.3 15.5C399.5 22.5 397.8 29.4 397.8 35.9C397.8 41.2 399.3 43.8 402.4 43.8C405.5 43.8 407.7 40.2 408.9 33C409.1 32.8 409.1 32.5 408.9 32.3C408.9 32.2093 408.9 32.1598 408.881 32.1513C408.859 32.1411 408.809 32.1907 408.7 32.3ZM102.7 39.2C102.7 39.2 102.5 39.5 102.5 39.7C100.8 42.6 99.3 44.3 97.8 44.3C95.7 44.3 94.7 42.1 94.7 38.3C94.7 35.2 95.9 30.1 98.3 22.7C98.8 21 99 20 99 19.8C98.7 19.8 98.3 20.7 97.3 22.4C93.5 29.4 91.8 36.3 91.8 42.8C91.8 48.1 93.3 50.7 96.4 50.7C99.5 50.7 101.7 47.1 102.9 39.9C103.1 39.7 103.1 39.4 102.9 39.2C102.9 39.1093 102.9 39.0598 102.881 39.0513C102.859 39.0411 102.809 39.0905 102.7 39.2ZM166.3 29.2C165.1 30.4 164.8 32.6 165.8 35.7C164.4 37.8 163.9 40.2 163.9 42.7C163.9 45.8 166.1 47.9 170.4 48.9C166.8 52.2 161.8 55.8 155.3 59.9C149.5 63.3 143.8 66.6 138 70C136.8 70.7 136.1 71.5 136.1 71.7C136.1 71.7 136.1 71.9 136.3 71.9C136.8 71.9 137.5 71.7 138.7 71.2C146.7 68.4 151 66.7 151.7 66.2C155.5 64.6 159.6 62.2 163.9 58.8C167.7 56.1 170.9 53 173.5 49.4C178.5 49.9 181.2 50.1 181.4 50.1C182.4 50.1 183.3 49.1 184.3 47.2C185.5 45.1 186 43.4 186 41.7C186 41.2 185.8 40.7 185.8 40.5C183.9 36 180.1 32.1 174.3 29C172.6 28 171.1 27.8 169.7 27.8C168.5 27.8 167.3 28.2 166.3 29.2ZM390.5 63.3C414.7 54.2 439.9 45.1 465.9 35.5C466.102 35.4423 466.288 35.3762 466.449 35.3186C466.847 35.1768 467.1 35.0867 467.1 35.3C467.3 35.3 467.3 35.8 467.1 36.5C466.1 38.7 465.4 39.9 464.9 40.3C464.7 40.5 452.4 45.1 428.7 54C404.5 62.9 390.8 68.4 388.1 70.1C388.5 67.8 389.3 65.7 390.5 63.3ZM172.8 38.7C173.3 40.4 173.3 41.9 172.8 43.3C168.2 42.9 166.1 41.9 166.1 40.3C166.1 39.9 166.8 38.9 167.8 37.7C169 36.8 169.9 36.3 170.4 36.3C171.6 36.3 172.3 37 172.8 38.7ZM175.9 37.3C179 38.5 181.2 40.4 182.4 43.3C182.9 44.1 182.9 44.5 182.6 44.8L182.1 44.8C177.8 44.3 175.4 43.8 174.9 43.8C175.7 42.1 175.9 39.9 175.9 37.3ZM521 64.5C518.6 70.3 517.4 74.8 517.4 78.2C517.4 82.3 518.4 84.4 520.5 84.4C521.7 84.4 523.1 82.7 524.8 79.8C525 79.6 525 79.3 525.3 79.1C525.3 79.1 525.5 79.1 525.5 79.3L525.5 80C524.1 87.2001 521.9 90.8 519 90.8C515.9 90.8 514.4 88.2 514.4 82.9C514.4 80.3 514.9 76.9 516.3 72.6001C517.7 68.3001 518.5 66.1001 518.5 65.9C518.5 65.4 517.5 64.5 515.4 63.3C511.6 68.3 506.3 73.1 499.6 77.2C495 79.8 490.5 82.2 485.7 84.2C476.8 87.8 471.5 89.7 470.3 90.4C469.1 90.9 468.4 91.1001 467.9 91.1001C467.7 91.1001 467.7 90.9 467.7 90.9C467.7 90.4 468.2 89.9 469.6 89C477.3 84.7001 484.7 80.4 492.4 76C502.5 70.2001 509.4 65.4 512.8 61.8C508.2 59.4 506.1 57 506.1 54.4C506.1 51.3 507.5 48.4 510.4 45.8C513.3 43.4 515.7 42.4 517.6 43.2C519 43.7 520 45.4 520 48.2C520 50.8 519.5 53.7 518.3 56.8C520.7 58.2 521.7 59.7 521.7 61.1C521.7 61.8 521.5 63 521 64.5ZM35.5 52C38.4 52 40.8 53.4 42.9 56.8C45.1 59.9 46.7 64.2 47.5 69.5C47.7 70 47.7 70.2 47.7 70.5L47.9 70.5C47.9 70.3 48.1 70 48.1 69.5C48.6 66.4 49.8 61.6 51.5 55.3C53.3999 51 55.3 48.8 57.5 48.8C58.7 48.8 59.8999 49.5 60.8999 51C61.8999 52.4 62.2999 53.4 62.2999 54.4C62.2999 54.9 62.2999 55.8 61.7999 56.8C61.2999 58.2 60.7999 59 60.3999 59C60.2 59 59.7 58.3 58.7 57.3C58 56.3 57 55.9 56.0999 55.9C54.2 55.9 52.4999 60.5 50.7999 69.6C50.0999 73.7 49.0999 76.6 48.3999 78.2C47.7 79.2 47.2 79.9 46.7 79.9C46.2 79.9 46.2 79.2 46 78.2C46.2 76.5 45.3 73.4 43.3999 68.8C41.5 64 40.2999 61.8 39.2999 61.8C38.7999 61.8 38.5999 61.8 38.2999 62.3C38.0999 62.5 37.7999 62.8 37.0999 62.8C36.0999 62.8 35.2 62.1 33.7 60.9C32.3 59.7 31.8 58.7 31.8 58C31.8 57.8 32.3 56.6001 33.5 54.6001C34.5 52.7 35.3 52 35.5 52ZM515.7 55.6C516.2 54.2 516.2 52.7 515.9 51.3C515.7 49.9 514.9 49.1 513.7 49.1C513.2 49.1 512.5 49.3 511.5 49.8C510.5 50.3 510.1 50.8 510.1 51.2C510.2 52.5 512.1 53.9 515.7 55.6ZM359.9 54.2L356.1 62.1C355.2 61.1 353 59.4 349.9 57.6001C346.8 55.4001 345.1 54.2001 344.6 54.2001C344.3 54.2001 343.8 54.7001 343.6 55.2001L339 64.8001C338.8 65.3001 338.8 65.6001 339 65.8001C342.9 68.2001 346.7 70.8001 350.3 73.7001C350.8 74 351.3 73.7001 351.5 73C353 70.8 354.2 68.2 355.6 65.3C359.7 67.9 363.3 70.3 366.4 72.7C366.8 72.9 367.3 72.9 367.8 72.2C370.9 66.9 372.6 63.3 372.6 61.6C372.6 61.1 370.7 59.7 367.1 57.3C363.3 54.7 361.4 53.5 360.9 53.5C360.4 53.5 360.1 53.7 359.9 54.2ZM438.4 71.2C436.3 67.8 433.9 66.4 431 66.4C430.8 66.4 430.1 67.1 429 69C427.8 71 427.3 72.2 427.3 72.4C427.3 73.1 427.8 74.1 429.2 75.3C430.7 76.5 431.6 77.2 432.6 77.2C433.3 77.2 433.6 76.9 433.8 76.7C434.1 76.2 434.3 76.2 434.8 76.2C435.8 76.2 437 78.4 438.9 83.2C440.8 87.8 441.7 90.9 441.5 92.6C441.7 93.6 441.7 94.3 442.2 94.3C442.7 94.3 443.2 93.6 443.9 92.6C444.6 91 445.6 88.1 446.3 84C448 74.9 449.7 70.3 451.6 70.3C452.5 70.3 453.5 70.7 454.2 71.7C455.2 72.7 455.7 73.4 455.9 73.4C456.3 73.4 456.8 72.6 457.3 71.2C457.8 70.2 457.8 69.3 457.8 68.8C457.8 67.8 457.4 66.8 456.4 65.4C455.4 63.9 454.2 63.2 453 63.2C450.8 63.2 448.9 65.4 447 69.7C445.3 76 444.1 80.8 443.6 83.9C443.6 84.4 443.4 84.7 443.4 84.9L443.2 84.9C443.2 84.6 443.2 84.4 443 83.9C442.2 78.6 440.6 74.3 438.4 71.2ZM238.3 66.1C240.7 66.1 241.4 67.1 240.9 69C240.2 71.2 239.7 72.1 239.2 72.1C239.2 72.1 239 72.1 238.5 71.6C238 71.1 237.5 70.9 236.6 70.9C235.9 70.9 234 71.6 231.3 73.5C228.4 75.4 226 77.1 224.6 79C224.4 79.2 224.1 79.7 224.1 80C224.1 80.7 225.8 81.2 228.7 81.2C230.9 81.2 233.3 80.7 236.1 80.2C239 79.7 240.7 79.5 241.4 79.5C245.5 79.5 247.9 80.7 249.1 83.1C249.3 83.6 249.6 84.3 249.6 85.3C249.6 86.5 249.1 87.9 248.4 89.4C247.9 91.1001 247.2 91.8 246.7 92C237.1 94.9 230.1 96.3 225.1 96.3C222.7 96.3 220.5 95.3 218.6 93.9C217.2 92.7 216.2 91.5 216 89.8C217.7 90.8 220.6 91.5 224.6 91.5C226.5 91.5 230.6 90.8 237.1 89.6001C242.9 88.4 246.5 87.7001 247.7 87.4C247.2 85.5 244.6 84.8 240 84.8C239 84.8 237.1 85 234 85.5C231.1 86 229.2 86.2001 228 86.2001C223.4 86.2001 221.3 85 221.3 83.1001C221.3 82.1001 221.5 80.9 222.3 79.5C224.5 75.4 227.3 72.1001 230.9 69.4C233.7 67.1 236.1 66.1 238.3 66.1ZM378.9 80.1C378.9 83.9 377 89.2 373.1 95.7C370.7 99.8 367.1 105.3 362.3 112.5C367.1 118 370.5 123.1 372.1 127.4C373.1 130.5 373.8 134.6 373.8 139.2C373.8 141.1 373.3 143.5 372.4 146.6C371.7 149.5 370.7 151.6 369.8 153.1C367.9 156 364.8 158.9 360 161.7C355 165.1 350.6 166.7 347 166.7C341.2 166.7 338.4 162.4 338.4 153.7C338.4 147.9 339.4 142.2 341.3 136.9C343.2 132.3 346.3 126.3 351.4 118.4C347.1 114.3 342.5 108.6 337.5 101.4C337 100.7 335.8 99.5 333.9 97.6C332.9 96.6 332.5 95.4 332.5 94C332.5 91.8 332.7 89.4 333.2 86.6C333.9 83.7 334.4 82.5 334.6 82.5C335.3 82.5 337.5 83.7 341.6 86.3C345.4 88.9 348.6 90.9 350.5 92.5C351.7 93.2 352.2 93.9 352.2 93.9L352.2 94.1C352.2 94.3 351.5 94.6 349.8 94.6C346.7 94.6 345 94.8 345 95.1C345 95.3 345.5 95.8 346.4 97C350.2 101.8 354.1 105.4 358.2 108.3C359.2 106.9 362.5 102.1 367.8 93.9C372.4 86.9 375 82.1 376.2 79.3C377.4 76.4 378.1 75.2 378.6 75.2C378.7 75.3 378.9 76.7 378.9 80.1ZM108.7 90.1C108.5 89.9 108.5 89.6 108.7 89.1L113.3 79.5C113.5 79 114 78.8 114.3 78.8C114.8 78.8 116.9 80 120.5 82.4C124.3 85 126.3 86.5 126.3 87C126.3 88.7 124.6 92 121.3 97.3L121.271 97.3404C120.792 98.0115 120.59 98.2942 120.1 98C116.4 95.2 112.5 92.5 108.7 90.1ZM271.7 87C272.4 85.8 273.4 85.3 274.1 85.3C274.6 85.3 275.1 85.5 275.1 86C275.1 86 274.9 86.2 274.9 86.5C273.9 88.7 273 91.1 272.3 93.5C277.3 97.1 279.7 100.9 279.5 104.5C279 108.6 278.5 111.2 277.8 112.2C275.4 115.1 272.8 116.8 269.4 116.8C266 116.8 264.6 114.6 264.6 110.8C264.6 110.1 264.6 109.1 264.8 108.2C265.9 100.5 268.3 93.5 271.7 87ZM89.8 97.6C90.3 96.6 90.5 95.7 90.5 95.2C90.5 94.2 90 93.3 89.1 91.8001C87.9 90.3001 86.7 89.6001 85.5 89.6001C83.3 89.6001 81.4 91.8001 79.5 96.1001C77.8 102.4 76.6 107.2 76.4 110.3C76.1 110.8 75.9 111.1 75.9 111.3C75.9 111.391 75.9 111.44 75.8814 111.449C75.8589 111.459 75.8093 111.409 75.7 111.3L75.7 110.3C74.7 105 73.3 101 70.9 97.6001C68.7 94.2001 66.3 92.8001 63.7 92.8001C63.4 92.8001 62.7 93.5001 61.5 95.4001C60.3 97.4001 59.8 98.6001 59.8 98.8001C59.8 99.5 60.5 100.5 61.7 101.7C63.2 102.9 64.1 103.6 65.1 103.6C65.8 103.6 66.3 103.3 66.3 103.1C66.5 102.6 66.8 102.6 67.5 102.6C68.2 102.6 69.4 104.8 71.3 109.6C73.2 114.2 74.2 117.3 74.2 119C74.2 119.447 74.2599 119.834 74.344 120.125C73.9386 120.594 73.4581 121.154 72.9 121.8C71.2 123.7 69.1 125.8 66.2 128C54.2 135.9 45.1 141.5 38.6 145.3C37.4 146 36.7 146.8 36.7 147C36.7 147 36.7 147.2 36.9 147.2C37.4 147.2 38.1 147 39.3 146.5C47.3 143.7 51.6 142 52.3 141.5C55.9 139.9 59.9 137.5 64.5 134.1C69.6 130.5 72.9 126.6 74.6 122.8C75.0871 121.631 75.4556 120.675 75.6939 119.968C75.9086 119.7 76.1405 119.371 76.4 119C77.4 117.4 78.1 114.5 78.8 110.4C80.5 101.3 82.4 96.7 84.3 96.7C85 96.7 86 97.1 86.7 98.1C87.7 99.1 88.2 99.8 88.4 99.8C89.1 99.8 89.6 99 89.8 97.6ZM75.6939 119.968C75.3294 120.423 75.0147 120.7 74.7 120.7C74.5894 120.7 74.4481 120.486 74.344 120.125C75.3185 118.999 75.8587 118.4 76 118.4L76 118.6C76.0513 118.754 75.9447 119.223 75.6939 119.968ZM159.3 89.9C158.6 89.9 157.6 90.4 156.9 91.6C153.6 98.1 151.2 105 150 112.8C149.8 113.7 149.8 114.7 149.8 115.4C149.8 119.2 151.2 121.4 154.6 121.4C158 121.4 160.6 119.7 163 116.8C163.7 115.8 164.2 113.2 164.7 109.1C164.9 105.5 162.5 101.7 157.5 98.1C158.2 95.7 159.1 93.3 160.1 91.1C160.1 90.8 160.3 90.6 160.3 90.6C160.3 90.1 159.8 89.9 159.3 89.9ZM396.4 108.4C397.4 109.6 398.1 111.2 398.6 113.4C399.8 117.5 402.2 123.3 405.5 130.3C408.4 136.6 409.8 139.9 409.8 140.4C409.8 142.4 406.9 145.5 401.4 149.8C396.549 153.406 390.236 157.527 382.463 162.108C383.198 157.671 384.471 152.356 386.3 146.1C386.6 144.6 386.8 143.4 386.8 142.7C386.8 142.2 386.8 142 386.6 142C386.1 142 385.6 143 384.4 145.4C382.054 151.735 380.327 157.899 379.3 163.95C376.092 165.798 372.659 167.716 369 169.7C359.6 174.8 347.9 180.3 333.7 186.3C313.3 194.9 302.2 199.7 300.3 200.7C295 203.1 292.4 204.6 292.4 204.8C292.4 205 292.4 205 292.9 205C293.9 205 296.3 204.7 300.1 204C303.7 203.5 312.8 201.4 327.2 198C340.9 194.7 348.1 193 348.6 193C351.2 193 359.6 188.9 374 180.5C375.445 179.69 376.853 178.885 378.224 178.085C378.46 185.353 380.44 191.616 384 196.3C388.3 202.3 394.5 205.4 402.7 205.4C412.3 205.4 423.3 200.4 436.3 190.8C445 184.3 452.9 176.8 460.1 168.2C463.2 164.6 465.8 160 467.5 154.5C469 150.1 469.7 146.8 469.7 143.9L470.2 143.4L470.2 130.2C469.2 130.7 468.7 130.7 468.5 130.7C466.1 125.7 463.2 121.6 460.1 118C456.5 114.4 453.4 112.5 450.3 112.5C446.2 112.5 442.4 114.6 438.8 118.7C435 123.5 433.3 128.8 433.3 134.8C433.3 142.7 439.1 146.8 450.6 146.8C455.9 146.8 460.2 146.1 463.1 145.1C463.6 146.8 464.1 148.5 464.1 149.9C464.1 152.1 460.5 156.4 453.5 163.2C445.8 170.4 437.9 176.4 429.7 181.4C419.3 187.7 410.7 190.8 403.5 190.8C395.1 190.8 389.1 188.1 385.3 183.1C383.839 180.909 382.823 178.421 382.251 175.682C394.544 168.185 403.523 161.12 409.3 154.6C411.3 152.4 412.7 149.3 413.9 145.2C414.8 141.6 415.3 138.7 415.3 136.3C415.3 131.2 413.8 125.7 411.2 119C409.5 115.2 407.6 111.1 405.9 107C408.8 107.7 410.7 108.2 411.4 108.2C411.9 108.2 412.1 107.9 412.1 107.7C412.1 107.2 411.4 106.3 409.7 104.6C405.7 100.5 402.1 96.6 398.7 92.8C398.2 92.3 397.9 92.1 397.7 92.1C397.2 92.1 396.9 92.6 396.7 93.8C396.2 95 396 97.2 395.5 100.3C395 103.6 395 105.3 395 105.8C395.2 106.2 395.7 107 396.4 108.4ZM276.9 106.2C276.9 105 274.5 102.8 269.5 100C267.8 102.9 267.1 105.5 267.1 107.9C267.1 109.3 267.8 110.3 269.3 110.3C270.5 110.3 271.9 109.8 273.6 108.9C275.3 108.1 276.5 107.2 276.9 106.2ZM154.8 104.6C159.8 107.4 162.2 109.6 162.2 110.8C161.7 111.7 160.5 112.7 158.9 113.5C157.2 114.4 155.8 114.9 154.6 114.9C153.1 114.9 152.4 113.9 152.4 112.5C152.4 110.1 153.1 107.5 154.8 104.6ZM496.3 115.1C495.6 115.1 494.6 115.5 493.4 116.5C489.6 119.9 485.7 122.8 481.8 124.7C480.6 125.5 476.5 127.4 470.3 130.5L470.3 143.7C478.7 139.8 485.2 135.8 489 131.2C489 142.2 493.8 148 503.9 148C512.3 148 519.2 143.2 524.5 133.6C527.7 139.4 531.3 142.5 535.1 142.5C540.9 142.5 545.2 139.9 548.1 134.6C550.8 130.2 552.2 125.2 552.2 119.2C552.2 115.3 551 112 549.1 109.1C548.4 108.1 547.9 107.9 547.4 107.9C546.9 107.9 546.4 108.7 546.2 110.1C544.8 114.6 543.8 118 543.6 119.9C545.7 123.5 546.7 125.5 546.7 125.7C545.7 127.3 543.6 128.3 540.2 128.3C537.6 128.3 535.2 127.3 533.5 125.9C531.6 124.5 530.6 122.8 530.6 121.1C530.6 121.6 531.3 119.7 532.3 115.6C532.8 113.5 532.6 112.5 531.6 112.5C530.9 112.5 530.2 112.9 529.2 113.9C526.8 117.8 524.2 121.6 521.8 125.7C517.9 130.8 512.9 133.4 506.9 133.4C499.4 133.4 495.6 130.5 495.6 125.2C495.6 124 495.8 122.5 496.3 120.6C496.8 118.7 497 117.2 497 116.5C497 115.6 496.8 115.1 496.3 115.1ZM129.8 128.3C132 131.9 133.2 134.6 133.2 136.5C133.2 137.4 131.7 138.9 128.8 141C126.2 143 124 144.6 122.1 145.6C120.9 144 119.7 141.6 118.7 138.2C117.5 135 116.8 132.6 116.8 131.2C116.8 129 117.6 126.9 119 125.2C120.5 123.3 121.9 122.3 123.6 122.3C125.5 122.3 127.6 124.2 129.8 128.3ZM369.6 139.1C367 133.8 362.4 128.3 356.2 123C354 125.2 351.4 129.2 348 135C344.2 141.5 342.5 145.6 342.5 147.7C342.5 150.6 344.4 152 348.7 152C350.6 152 353 151.3 356.1 150.1C360.4 148.2 364.5 145.5 367.9 142.2C369.3 140.8 369.8 139.8 369.6 139.1ZM456.7 132.4C453.1 127.8 450 125.7 447.1 125.7C442.8 125.7 440.9 126.7 440.9 129.1C440.9 132 443.8 133.4 449.5 133.4C451.7 133.3 454.1 132.9 456.7 132.4ZM188.4 147C188.4 143.9 187 138.8 184.1 131.9C178.8 145.6 175.7 154.7 175.2 159.3C184.1 155.9 188.4 151.8 188.4 147ZM482.6 196C480 196.7 478.5 197.2 478 197.2L478 197C478 197 479 196.3 480.9 195.1C482.8 193.9 485.7 192 489.8 188.9C491.7 187 494.6 183.9 498.2 179.5C500.6 176.6 503.2 174 506.1 172.1C509.7 169.5 513.1 168.3 516.7 168.3C517.4 168.3 518.6 168.5 520.1 169C521.3 169.5 522.5 169.7 523.5 169.7C525.4 169.7 526.9 169 528.1 167.5C528.8 166.1 529.8 164.9 530.7 163.4C531.2 162.4 531.9 162 532.4 162C532.6 162 532.6 162.2 532.6 162.7C532.6 163.2 532.4 164.4 531.9 165.8C531.4 166.5 533.3 166.8 536.9 166.8C537.4 166.8 537.6 166.8 537.6 166.6C537.6 166.6 537.4 165.6 536.9 164C536.7 163.5 536.9 162.8 537.6 161.8L537.68 161.664C538.622 160.063 539.008 159.405 539.3 159.6C540.3 160.3 540.7 161.8 540.7 163.4C540.7 165.1 540.2 166.8 539.5 168.7C538.8 170.9 538.1 172.1 537.6 172.5C535.9 173.5 533.3 173.2 529.7 171.5C526.8 174.4 523.9 176.1 521.1 176.1C520.4 176.1 519.2 175.9 518 175.4C516.8 174.9 515.8 174.7 515.1 174.7C510.3 174.7 505.3 176.9 500.2 181.7L489.4 192.5C487.2 194.1 485 195.3 482.6 196ZM278.4 178.7C278.4 179.2 278.6 179.4 278.6 179.9C278.6 181.6 278.1 183.3 276.9 185.4C275.936 187.52 275.065 188.433 274.377 188.496C274.71 188.45 271.807 187.956 266.1 187.1C263.9 190.9 261.5 193.8 259.1 196C257.2 197.7 254.1 199.6 250 201.5C249 202 248.3 202.7 248.3 203.2C248.3 203.7 248.8 203.9 249.5 204.2C252.1 204.9 255.7 205.2 260.8 204.4C263 204.2 268 203.2 276.2 201.3C277.2 201.1 277.6 201.1 277.6 201.1C277.6 201.3 276.2 202.3 273 204.5C271.6 205.5 269.2 206.7 265.8 207.9C261 209.6 256.7 210.5 252.8 210.5C248.2 210.5 246.1 208.8 246.1 205.9C246.1 202.8 247.3 200.1 249.9 198C252.1 196.6 254.2 194.9 256.6 193.4C259.7 191.2 262.1 188.8 263.6 186.7C258.8 185.7 256.4 184.1 256.4 180.9C256.4 179 256.9 176.6 258.3 173.9C257.3 170.8 257.6 168.6 258.8 167.4C259.8 166.4 261 166 262.2 166C263.6 166 265.1 166.2 266.8 167.2C272.6 170.3 276.5 174.4 278.4 178.7ZM265.7 181.6C265.9 180.2 265.9 178.7 265.5 177.3C265 175.4 264.3 174.7 263.3 174.7C262.6 174.7 261.9 175.2 260.7 176.4C259.5 177.4 259 178.3 259 178.8C258.9 180.1 261.1 181.1 265.7 181.6ZM275.3 181.6C274.1 179 271.9 177 268.8 175.8C268.8 178.4 268.6 180.6 268.1 182C268.6 182.2 271 182.5 275.1 183C275.191 183.091 275.241 183.141 275.297 183.149C275.363 183.158 275.437 183.109 275.6 183C275.677 182.845 275.575 182.511 275.433 182.044C275.391 181.907 275.345 181.759 275.3 181.6ZM61.7 198.1C80.2 191.4 99.4 184.2 119.5 176.7C119.678 176.649 119.844 176.592 119.994 176.539C120.435 176.386 120.751 176.276 120.9 176.5C120.9 176.5 120.9 177 120.7 177.7C119.7 179.9 119 181.1 118.5 181.5C101.7 187.7 81.8 195.4 59.2 204.8C59.7 202.7 60.5 200.5 61.7 198.1ZM206.4 195C204.5 192.1 201.1 189.5 195.8 186.8C191 184.4 186.9 183.2 183.8 182.7C185.5 187 187.9 190.9 191.2 193.7C195 197.1 198.6 199 202.5 199C205.9 199 207.5 198.3 207.5 197.3C207.598 196.711 207.118 196.026 206.439 195.055L206.4 195Z" id="Group" fill="#595959" fill-rule="evenodd" stroke="none" clip-path="url(#clip_1)" />
  </g>
</svg>