<?xml version="1.0" encoding="utf-8"?>
<svg width="427.5001px" height="198.7171px" viewBox="0 0 427.5001 198.7171" version="1.1" xmlns:xlink="http://www.w3.org/1999/xlink" xmlns="http://www.w3.org/2000/svg">
  <defs>
    <path d="M427.5 0L427.5 0L427.5 198.717L0 198.717L0 0L427.5 0Z" id="path_1" />
    <clipPath id="clip_1">
      <use xlink:href="#path_1" clip-rule="evenodd" fill-rule="evenodd" />
    </clipPath>
  </defs>
  <g id="Surah_38_of_114_(modified)">
    <path d="M427.5 0L427.5 0L427.5 198.717L0 198.717L0 0L427.5 0Z" id="Surah_38_of_114_(modified)" fill="none" stroke="none" />
    <path d="M232.6 11.517C232.6 14.117 234.7 16.517 239.3 18.917C236 22.517 230.9 26.417 223.9 30.6171C217.9 33.9171 212.2 37.317 206.4 40.9171C205 41.6171 204.5 42.4171 204.5 42.6171C204.5 42.6171 204.5 42.817 204.7 42.817C204.9 42.817 205.9 42.6171 207.1 42.1171C214.8 39.317 219.1 37.6171 220.1 37.1171C223.7 35.7171 227.7 33.0171 232.3 29.9171C236.1 27.017 239.3 23.9171 241.9 20.317C244.1 21.517 245.5 22.717 246 23.717C248.1 20.917 249.1 18.717 249.1 17.517C248.6 16.517 247.2 15.317 244.8 14.1171C246 10.7171 246.5 7.81706 246.5 5.21706C246.5 2.41705 245.8 0.717056 244.1 0.217056C242.2 -0.482956 239.8 0.517044 236.9 3.11705C234 5.51704 232.6 8.41704 232.6 11.517ZM210.3 4.81703C210.3 7.41704 209.1 10.317 207.2 13.417C205 16.517 202.4 19.417 199 21.817C197.6 22.817 196.8 23.217 196.6 23.217L196.6 23.017C196.6 22.817 197.1 22.317 198 21.117C203.5 15.117 206.4 11.317 206.4 9.11703C206.4 7.41704 205.4 6.51703 203.8 6.51703C202.8 6.51703 201.9 6.71703 201.2 7.21703C200.5 7.41702 200.2 7.71703 200 7.71703C200 7.71703 199.8 7.71703 199.8 7.51703C199.8 7.51703 199.8 7.01703 200 6.11703C201 2.01703 202.9 0.117035 206.2 0.117035C208.8 0.0170288 210.3 1.61703 210.3 4.81703ZM155.8 21.317C155.8 21.117 156 20.817 156 20.817C156.109 20.7076 156.159 20.6582 156.181 20.6683C156.2 20.6768 156.2 20.7264 156.2 20.817C156.4 21.017 156.4 21.317 156.2 21.517C155 28.717 152.8 32.317 149.7 32.317C146.6 32.317 145.1 29.717 145.1 24.417C145.1 17.917 146.8 11.017 150.6 4.01704C151.6 2.31705 152 1.41704 152.3 1.41704C152.3 1.61703 152.1 2.61703 151.6 4.31703C149.2 11.717 148 16.817 148 19.917C148 23.717 149 25.917 151.1 25.917C152.7 25.917 154.1 24.217 155.8 21.317ZM242.4 8.41704C242.7 9.81705 242.7 11.317 242.2 12.717C238.6 11.017 236.7 9.61703 236.6 8.31703C236.6 7.91704 237 7.41704 238 6.91704C239 6.41704 239.7 6.21704 240.2 6.21704C241.4 6.21704 242.2 7.01704 242.4 8.41704ZM283.9 25.617C283.9 25.617 283.7 25.917 283.7 26.117C282 29.017 280.6 30.717 279 30.717C276.9 30.717 275.9 28.517 275.9 24.717C275.9 21.617 277.1 16.517 279.5 9.11703C280 7.41704 280.2 6.41704 280.2 6.21704C279.9 6.21704 279.5 7.11705 278.5 8.81705C274.7 15.817 273 22.717 273 29.217C273 34.517 274.5 37.117 277.6 37.117C280.7 37.117 282.9 33.517 284.1 26.317C284.3 26.117 284.3 25.817 284.1 25.617C284.1 25.5264 284.1 25.4768 284.081 25.4683C284.059 25.4582 284.009 25.5077 283.9 25.617ZM91.4 18.417C89.3 15.017 86.9 13.617 84 13.617C83.8 13.617 83.1 14.417 82 16.2171C80.8 18.2171 80.3 19.4171 80.3 19.6171C80.3 20.317 80.8 21.317 82.2 22.517C83.7 23.717 84.6 24.417 85.6 24.417C86.3 24.417 86.6 24.117 86.8 23.917C87.1 23.417 87.3 23.417 87.8 23.417C88.8 23.417 90 25.617 91.9 30.417C93.8 35.017 94.7 38.117 94.5 39.817C94.7 40.817 94.7 41.517 95.2 41.517C95.7 41.517 96.2 40.817 96.9 39.817C97.6 38.217 98.6 35.317 99.3 31.217C101 22.117 102.7 17.517 104.6 17.517C105.5 17.517 106.5 17.917 107.2 18.917C108.2 19.917 108.7 20.617 108.9 20.617C109.3 20.617 109.8 19.817 110.3 18.417C110.8 17.417 110.8 16.517 110.8 16.017C110.8 15.017 110.4 14.017 109.4 12.617C108.4 11.117 107.2 10.417 106 10.417C103.8 10.417 101.9 12.617 100 16.917C98.3 23.217 97.1 28.017 96.6 31.117C96.6 31.617 96.4 31.917 96.4 32.117L96.2 32.117C96.2 31.817 96.2 31.617 96 31.117C95.2 25.817 93.6 21.517 91.4 18.417ZM265.7 56.617C289.9 47.517 315.1 38.417 341.1 28.817C341.302 28.7593 341.488 28.6932 341.649 28.6356C342.047 28.4938 342.3 28.4037 342.3 28.617C342.5 28.617 342.5 29.117 342.3 29.817C341.3 32.017 340.6 33.217 340.1 33.617C339.9 33.817 327.6 38.417 303.9 47.317C279.7 56.217 266 61.717 263.3 63.417C263.8 61.217 264.5 59.017 265.7 56.617ZM396.3 57.817C393.9 63.617 392.7 68.117 392.7 71.5171C392.7 75.6171 393.7 77.7171 395.8 77.7171C397 77.7171 398.4 76.0171 400.1 73.1171C400.3 72.9171 400.3 72.6171 400.6 72.4171C400.6 72.4171 400.8 72.4171 400.8 72.6171L400.8 73.3171C399.4 80.5171 397.2 84.1171 394.3 84.1171C391.2 84.1171 389.7 81.5171 389.7 76.2171C389.7 73.6171 390.2 70.2171 391.6 65.9171C393 61.6171 393.8 59.4171 393.8 59.2171C393.8 58.7171 392.8 57.8171 390.7 56.6171C386.9 61.6171 381.6 66.4171 374.9 70.5171C370.3 73.1171 365.8 75.5171 361 77.5171C352.1 81.1171 346.8 83.0171 345.6 83.7171C344.4 84.2171 343.7 84.4171 343.2 84.4171C343 84.4171 343 84.2171 343 84.2171C343 83.7171 343.5 83.2171 344.9 82.3171C352.6 78.0171 360 73.7171 367.7 69.3171C377.8 63.5171 384.7 58.7171 388.1 55.1171C383.5 52.7171 381.4 50.3171 381.4 47.7171C381.4 44.6171 382.8 41.7171 385.7 39.1171C388.6 36.7171 391 35.7171 392.9 36.5171C394.3 37.0171 395.3 38.7171 395.3 41.5171C395.3 44.1171 394.8 47.0171 393.6 50.1171C396 51.5171 397 53.0171 397 54.4171C397 55.217 396.8 56.417 396.3 57.817ZM180 38.417C182.9 38.417 184.1 39.617 184.1 42.217C184.1 43.617 183.9 45.317 183.1 46.817C182.6 47.817 181.4 49.4171 179.3 51.817C176.4 55.217 174.7 57.617 173.5 58.817C172.1 61.0171 171.1 62.217 170.9 62.217L170.7 62.017C170.7 61.817 171.2 61.017 171.7 59.817C172.7 57.217 174.3 54.317 177 51.617C178.2 49.917 179.6 48.517 181.3 46.817C180.6 45.417 179.9 44.917 178.7 44.917C177.7 44.917 176.5 45.117 175.3 45.917C162.8 52.117 150.8 55.517 139.3 55.517C133.1 55.517 127.3 54.117 122 51.217C123 53.617 122.5 56.517 121.3 59.817C120.8 61.217 120.6 61.717 120.3 62.017C120.1 62.017 120.1 61.017 120.1 59.617C120.1 56.517 119.6 53.817 118.7 51.717C118.7 51.517 117 49.117 114.1 44.717C114.6 41.617 115.3 40.117 116.3 40.117C116.3 40.117 117.3 40.617 118.5 41.817C120.4 43.217 122.1 44.217 123.8 45.217C129.1 48.117 134.8 49.517 141.1 49.517C147.6 49.517 153.8 48.517 160.1 46.617C163.5 45.417 167.8 43.717 172.8 41.117C176.4 39.317 178.8 38.417 180 38.417ZM391 48.917C391.5 47.517 391.5 46.017 391.2 44.617C391 43.217 390.2 42.417 389 42.417C388.5 42.417 387.8 42.617 386.8 43.117C385.8 43.617 385.4 44.117 385.4 44.517C385.5 45.817 387.4 47.217 391 48.917ZM235.2 47.517L231.4 55.417C230.4 54.417 228.3 52.817 225.2 50.9171C222.1 48.7171 220.4 47.5171 219.9 47.5171C219.6 47.5171 219.1 48.0171 218.9 48.5171L214.3 58.1171C214.1 58.6171 214.1 58.9171 214.3 59.1171C218.2 61.5171 222 64.1171 225.6 67.0171C226.1 67.317 226.6 67.0171 226.8 66.317C228.3 64.117 229.5 61.517 230.9 58.617C235 61.217 238.6 63.617 241.7 66.017C242.1 66.217 242.6 66.217 243.1 65.517C246.2 60.217 247.9 56.617 247.9 54.917C247.9 54.417 246 53.017 242.4 50.617C238.6 48.017 236.7 46.817 236.2 46.817C235.7 46.817 235.4 47.017 235.2 47.517ZM19 54.717C21.9 54.717 24.3 56.117 26.4 59.517C28.6 62.617 30.2 66.917 31 72.217C31.2 72.717 31.2 72.9171 31.2 73.217L31.4 73.217C31.4 73.017 31.6 72.717 31.6 72.217C32.1 69.117 33.3 64.317 35 58.017C36.9 53.717 38.8 51.517 41 51.517C42.2 51.517 43.4 52.217 44.4 53.717C45.4 55.117 45.8 56.117 45.8 57.117C45.8 57.617 45.8 58.517 45.3 59.517C44.8 60.917 44.3 61.717 43.9 61.717C43.7 61.717 43.2 61.017 42.2 60.017C41.5 59.017 40.5 58.617 39.6 58.617C37.7 58.617 36 63.217 34.3 72.317C33.6 76.4171 32.6 79.317 31.9 80.9171C31.2 81.9171 30.7 82.6171 30.2 82.6171C29.7 82.6171 29.7 81.9171 29.5 80.9171C29.7 79.217 28.8 76.1171 26.9 71.5171C25 66.7171 23.8 64.5171 22.8 64.5171C22.3 64.5171 22.1 64.5171 21.8 65.0171C21.6 65.2171 21.3 65.5171 20.6 65.5171C19.6 65.5171 18.7 64.817 17.2 63.6171C15.8 62.4171 15.3 61.4171 15.3 60.7171C15.3 60.5171 15.8 59.3171 17 57.3171C18 55.417 18.8 54.717 19 54.717ZM82.9 69.017C84.8 65.917 86 63.017 86 60.417C86 57.317 84.5 55.617 81.9 55.717C78.5999 55.717 76.7 57.617 75.7 61.717C75.4999 62.617 75.4999 63.117 75.4999 63.117C75.4999 63.317 75.7 63.317 75.7 63.317C75.9 63.317 76.2 63.017 76.9 62.817C77.6 62.317 78.5 62.117 79.5 62.117C81.1 62.117 82.1 63.017 82.1 64.717C82.1 66.917 79.2 70.717 73.7 76.717C72.8 77.917 72.3 78.417 72.3 78.617L72.3 78.817C72.5 78.817 73.3 78.417 74.7 77.417C78.1 75.017 80.7 72.117 82.9 69.017ZM313.7 64.517C311.6 61.117 309.2 59.717 306.3 59.717C306 59.717 305.3 60.417 304.3 62.3171C303.1 64.3171 302.6 65.5171 302.6 65.7171C302.6 66.4171 303.1 67.4171 304.5 68.6171C306 69.817 306.9 70.5171 307.9 70.5171C308.6 70.5171 308.9 70.2171 309.1 70.0171C309.4 69.5171 309.6 69.5171 310.1 69.5171C311.1 69.5171 312.3 71.7171 314.2 76.5171C316.1 81.1171 317 84.217 316.8 85.9171C317 86.9171 317 87.6171 317.5 87.6171C318 87.6171 318.5 86.9171 319.2 85.9171C319.9 84.317 320.9 81.4171 321.6 77.317C323.3 68.217 325 63.617 326.9 63.617C327.8 63.617 328.8 64.017 329.5 65.017C330.5 66.017 331 66.717 331.2 66.717C331.6 66.717 332.1 65.917 332.6 64.517C333.1 63.517 333.1 62.617 333.1 62.117C333.1 61.117 332.7 60.117 331.7 58.717C330.7 57.217 329.5 56.517 328.3 56.517C326.1 56.517 324.2 58.717 322.3 63.017C320.6 69.317 319.4 74.117 318.9 77.217C318.9 77.717 318.7 78.017 318.7 78.217L318.5 78.217C318.5 77.9171 318.5 77.717 318.3 77.217C317.5 71.917 315.9 67.617 313.7 64.517ZM254.2 73.417C254.2 77.217 252.3 82.517 248.4 89.017C246 93.117 242.4 98.617 237.6 105.817C242.4 111.317 245.8 116.417 247.4 120.717C248.4 123.817 249.1 127.917 249.1 132.517C249.1 134.417 248.6 136.817 247.7 139.917C247 142.817 246 144.917 245.1 146.417C243.2 149.317 240.1 152.217 235.3 155.017C230.3 158.417 225.9 160.017 222.3 160.017C216.5 160.017 213.7 155.717 213.7 147.017C213.7 141.217 214.7 135.517 216.6 130.217C218.5 125.617 221.6 119.617 226.7 111.717C222.4 107.617 217.8 101.917 212.8 94.717C212.3 94.017 211.1 92.817 209.2 90.917C208.2 89.917 207.8 88.717 207.8 87.317C207.8 85.117 208 82.717 208.5 79.917C209.2 77.017 209.7 75.817 209.9 75.817C210.6 75.817 212.8 77.017 216.9 79.617C220.7 82.217 223.9 84.217 225.8 85.817C227 86.517 227.5 87.217 227.5 87.217L227.5 87.417C227.5 87.617 226.8 87.917 225.1 87.917C222 87.917 220.3 88.117 220.3 88.417C220.3 88.617 220.8 89.117 221.7 90.317C225.5 95.117 229.4 98.717 233.5 101.617C234.5 100.217 237.8 95.417 243.1 87.217C247.7 80.217 250.3 75.417 251.5 72.617C252.7 69.717 253.4 68.517 253.9 68.517C254 68.617 254.2 70.017 254.2 73.417ZM39.9 197.717C25.3 197.717 14.5 192.717 7.7 182.817C2.39999 175.117 0 165.517 0 153.817C0 150.217 0.199997 146.817 0.699997 143.217C1.7 137.717 2.89999 132.917 4.3 129.017C4.47909 128.516 4.68384 128.091 4.89586 127.753C2.34021 127.323 1.09998 124.736 1.09998 119.917C1.09998 113.417 2.79997 106.517 6.59998 99.5171C7.59998 97.817 7.99997 96.9171 8.29997 96.9171C8.29997 97.1171 8.09998 98.1171 7.59998 99.817C5.19998 107.217 3.99997 112.317 3.99997 115.417C3.99997 119.217 4.99997 121.417 7.09998 121.417C8.7 121.417 10.1 119.717 11.8 116.817C11.8 116.617 12 116.317 12 116.317C12.1093 116.208 12.1589 116.158 12.1813 116.168C12.2 116.177 12.2 116.226 12.2 116.317C12.4 116.517 12.4 116.817 12.2 117.017C11.0929 123.66 9.13456 127.238 6.4036 127.752C6.39384 128.148 6.32154 128.65 6.2 129.217C3.8 141.417 2.8 148.417 2.8 149.817C2.8 157.217 5.2 164.217 10.2 170.417C16.9 178.617 26.8 182.917 39.5 182.917C51 182.917 63 180.317 75.5 175.017C85.8 170.717 95.2 165.417 103.6 159.217C111 153.417 114.6 149.417 114.6 147.017C114.6 138.817 112.2 130.217 107.6 120.817C106.6 119.117 106.2 117.717 106.2 116.717C106.2 116.017 107.2 112.617 109.1 106.417C109.6 105.217 109.8 104.717 110.3 104.717C110.8 104.717 111.5 105.417 112.2 107.117C114.4 111.917 118.2 115.517 123.2 117.717C132.6 102.817 138.8 93.517 141.7 90.117C150.6 79.117 159.7 73.517 168.8 73.517C176.2 73.517 183.2 76.117 189.4 81.717C194.7 86.517 197.3 90.817 197.3 94.717C197.3 97.617 196.6 101.417 195.1 105.517C193.7 109.817 192.2 112.917 190.3 115.117C187.2 118.917 181.4 123.017 173.5 127.117C162.2 133.117 150.2 136.217 138.2 136.217C132 136.217 125.7 134.817 119 131.917C119 147.317 116.8 157.617 112.3 162.617C106.1 170.017 96.5 177.217 84 184.217C68.4 193.217 53.6 197.717 39.9 197.717ZM271.7 101.817C272.7 103.017 273.4 104.617 273.9 106.817C275.1 110.817 277.5 116.617 280.8 123.717C283.7 130.017 285.1 133.317 285.1 133.817C285.1 135.817 282.2 138.917 276.7 143.217C271.845 146.825 265.526 150.95 257.745 155.535C258.477 151.077 259.755 145.725 261.6 139.417C261.9 137.917 262.1 136.717 262.1 136.017C262.1 135.517 262.1 135.317 261.9 135.317C261.4 135.317 260.9 136.317 259.7 138.717C257.339 145.091 255.606 151.291 254.581 157.378C251.379 159.223 247.952 161.137 244.3 163.117C234.9 168.217 223.2 173.717 209 179.717C188.6 188.317 177.5 193.117 175.6 194.117C170.3 196.517 167.7 198.017 167.7 198.217C167.7 198.417 167.7 198.417 168.2 198.417C169.2 198.417 171.6 198.117 175.4 197.417C179 196.917 188.1 194.817 202.5 191.417C216.2 188.117 223.4 186.417 223.9 186.417C226.5 186.417 234.9 182.317 249.3 173.917C250.746 173.107 252.155 172.301 253.527 171.5C253.778 178.726 255.756 184.954 259.3 189.617C263.6 195.617 269.8 198.717 278 198.717C287.6 198.717 298.6 193.717 311.6 184.117C320.3 177.617 328.2 170.117 335.4 161.517C338.5 157.917 341.1 153.317 342.8 147.817C344.3 143.417 345 140.117 345 137.217L345.5 136.717L345.5 123.517C344.5 124.017 344 124.017 343.8 124.017C341.4 119.017 338.5 114.917 335.4 111.317C331.8 107.717 328.7 105.817 325.6 105.817C321.5 105.817 317.7 107.917 314.1 112.017C310.3 116.817 308.6 122.117 308.6 128.117C308.6 136.017 314.4 140.117 325.9 140.117C331.2 140.117 335.5 139.417 338.4 138.417C338.9 140.117 339.4 141.817 339.4 143.217C339.4 145.417 335.8 149.717 328.8 156.517C321.1 163.717 313.2 169.717 305 174.717C294.6 181.017 286 184.117 278.8 184.117C270.4 184.117 264.4 181.417 260.6 176.417C259.155 174.25 258.145 171.792 257.57 169.088C269.853 161.595 278.826 154.534 284.6 148.017C286.6 145.817 288 142.717 289.2 138.617C290.1 135.017 290.6 132.117 290.6 129.717C290.6 124.617 289.1 119.117 286.5 112.417C284.8 108.617 282.9 104.517 281.2 100.417C284.1 101.117 286 101.617 286.7 101.617C287.2 101.617 287.4 101.317 287.4 101.117C287.4 100.617 286.7 99.717 285 98.017C281 93.9171 277.4 90.017 274 86.217C273.5 85.717 273.2 85.517 273 85.517C272.5 85.517 272.2 86.017 272 87.217C271.5 88.4171 271.3 90.617 270.8 93.717C270.3 97.017 270.3 98.717 270.3 99.217C270.5 99.617 271 100.417 271.7 101.817ZM192 103.917C192 102.217 189.4 99.317 184.1 95.317C177.6 90.317 171.4 87.917 165.1 87.917C153.1 87.917 140.6 98.717 128.4 119.817C132.7 121.217 137.3 122.017 141.8 122.017C149.5 122.017 157.4 120.617 166 117.917C172.7 115.717 179 112.917 184.5 109.717C189.6 106.817 192 104.817 192 103.917ZM83.3 103.217C83.8 102.217 84 101.317 84 100.817C84 99.817 83.6 98.817 82.6 97.4171C81.4 95.9171 80.2 95.2171 79 95.2171C76.8 95.2171 74.9 97.4171 73 101.717C71.3 108.017 70.1 112.817 69.9 115.917C69.6 116.417 69.4 116.717 69.4 116.917C69.4 117.008 69.4 117.057 69.3814 117.066C69.3589 117.076 69.3093 117.026 69.2 116.917L69.2 115.917C68.2 110.617 66.8 106.617 64.4 103.217C62.2 99.8171 59.8 98.4171 57.2 98.4171C56.9 98.4171 56.2 99.1171 55 101.017C53.8 103.017 53.3 104.217 53.3 104.417C53.3 105.117 54 106.117 55.2 107.317C56.7 108.517 57.6 109.217 58.6 109.217C59.3 109.217 59.8 108.917 59.8 108.717C60 108.217 60.3 108.217 61 108.217C61.7 108.217 62.9 110.417 64.8 115.217C66.7 119.817 67.7 122.917 67.7 124.617C67.7 125.109 67.7726 125.528 67.8702 125.827C68.8913 124.646 69.4552 124.017 69.6 124.017L69.6 124.217C69.6 124.361 69.5075 124.783 69.3001 125.449C68.8897 125.984 68.5448 126.317 68.2 126.317C68.0984 126.317 67.971 126.136 67.8702 125.827C67.4807 126.278 67.0247 126.809 66.5 127.417C64.8 129.317 62.7 131.417 59.8 133.617C47.8 141.517 38.7 147.117 32.2 150.917C31 151.617 30.3 152.417 30.3 152.617C30.3 152.617 30.3 152.817 30.5 152.817C31 152.817 31.7 152.617 32.9 152.117C40.9 149.317 45.2 147.617 45.9 147.117C49.5 145.517 53.5 143.117 58.1 139.717C63.2 136.117 66.5 132.217 68.2 128.417C68.719 127.171 69.0764 126.168 69.3001 125.449C69.4848 125.209 69.6828 124.927 69.9 124.617C70.9 123.017 71.6 120.117 72.3 116.017C74 106.917 75.9 102.317 77.8 102.317C78.5 102.317 79.5 102.717 80.2 103.717C81.2 104.717 81.7 105.417 81.9 105.417C82.6 105.417 83.1 104.617 83.3 103.217ZM371.6 108.517C370.9 108.517 369.9 108.917 368.7 109.917C364.8 113.217 361 116.117 357.1 118.117C355.9 118.917 351.8 120.817 345.6 123.917L345.6 137.117C354 133.217 360.5 129.217 364.3 124.617C364.3 135.617 369.1 141.417 379.2 141.417C387.6 141.417 394.5 136.617 399.8 127.017C403 132.817 406.6 135.917 410.4 135.917C416.2 135.917 420.5 133.317 423.4 128.017C426.1 123.617 427.5 118.617 427.5 112.617C427.5 108.717 426.3 105.417 424.4 102.517C423.7 101.517 423.2 101.317 422.7 101.317C422.2 101.317 421.7 102.117 421.5 103.517C420.1 108.017 419.1 111.417 418.9 113.317C421 116.917 422 118.917 422 119.117C421 120.717 418.9 121.717 415.5 121.717C412.9 121.717 410.5 120.717 408.8 119.317C406.9 117.917 405.9 116.217 405.9 114.517C405.9 115.017 406.6 113.117 407.6 109.017C408.1 106.917 407.9 105.917 406.9 105.917C406.2 105.917 405.5 106.317 404.5 107.317C402.1 111.217 399.5 115.017 397.1 119.117C393.2 124.217 388.2 126.817 382.2 126.817C374.7 126.817 370.9 123.917 370.9 118.617C370.9 117.417 371.1 115.917 371.6 114.017C372.1 112.117 372.3 110.617 372.3 109.917C372.3 109.017 372.1 108.517 371.6 108.517ZM244.8 132.417C242.2 127.117 237.6 121.617 231.4 116.317C229.2 118.517 226.6 122.517 223.2 128.317C219.4 134.817 217.7 138.917 217.7 141.017C217.7 143.917 219.6 145.317 223.9 145.317C225.8 145.317 228.2 144.617 231.3 143.417C235.6 141.517 239.7 138.817 243.1 135.517C244.6 134.117 245.1 133.217 244.8 132.417ZM332 125.717C328.4 121.117 325.3 119.017 322.4 119.017C318.1 119.017 316.2 120.017 316.2 122.417C316.2 125.317 319.1 126.717 324.8 126.717C326.664 126.717 328.764 126.323 331.1 125.885C331.396 125.83 331.696 125.773 332 125.717ZM357.9 189.317C355.3 190.017 353.8 190.517 353.3 190.517L353.3 190.317C353.3 190.317 354.3 189.617 356.2 188.417C358.1 187.217 361 185.317 365.1 182.217C367 180.317 369.9 177.217 373.5 172.817C375.9 169.917 378.5 167.317 381.4 165.417C385 162.817 388.4 161.617 392 161.617C392.7 161.617 393.9 161.817 395.4 162.317C396.6 162.817 397.8 163.017 398.8 163.017C400.7 163.017 402.2 162.317 403.4 160.817C404.1 159.417 405.1 158.217 406 156.717C406.5 155.717 407.2 155.317 407.7 155.317C407.9 155.317 407.9 155.517 407.9 156.017C407.9 156.517 407.7 157.717 407.2 159.117C406.7 159.817 408.6 160.117 412.2 160.117C412.7 160.117 412.9 160.117 412.9 159.917C412.9 159.917 412.7 158.917 412.2 157.317C412 156.817 412.2 156.117 412.9 155.117L412.98 154.981C413.922 153.38 414.308 152.722 414.6 152.917C415.6 153.617 416 155.117 416 156.717C416 158.417 415.5 160.117 414.8 162.017C414.1 164.217 413.4 165.417 412.9 165.817C411.2 166.817 408.6 166.517 405 164.817C402.1 167.717 399.2 169.417 396.4 169.417C395.7 169.417 394.5 169.217 393.3 168.717C392.1 168.217 391.1 168.017 390.4 168.017C385.6 168.017 380.6 170.217 375.5 175.017L364.7 185.817C362.4 187.417 360.3 188.617 357.9 189.317ZM180.5 160.517C180.5 164.117 178.6 167.217 175 170.117C171.4 172.717 167.3 174.217 162.8 174.217C162.1 174.217 160.9 174.017 159.7 173.517C158.5 173.317 157.5 173.017 156.8 173.017C152 173.017 147 175.417 141.9 180.217L131.1 191.017C128.9 192.717 126.8 193.917 124.4 194.617C121.8 195.317 120.3 195.817 119.8 195.817L119.8 195.617C119.8 195.617 120.8 194.917 122.7 193.717C124.6 192.517 127.5 190.617 131.6 187.517C133.5 185.617 136.4 182.517 140 178.417C142.4 175.317 145 172.917 147.9 170.717C151.3 168.317 154.1 166.917 157 166.417C156.5 166.617 158.4 166.617 162 166.617C164.2 164.417 166.6 162.317 168.7 160.117C171.6 157.517 174 156.317 175.9 156.317C179.1 156.217 180.5 157.617 180.5 160.517ZM178.1 162.717C177.6 161.317 176.2 160.817 173.8 160.817C171.6 160.817 168.3 163.017 164 167.317C164.5 167.317 165 167.517 165.4 167.517C167.8 167.517 170.4 166.817 173.1 165.617C175.7 164.617 177.4 163.617 178.1 162.717Z" id="Group" fill="#595959" fill-rule="evenodd" stroke="none" clip-path="url(#clip_1)" />
  </g>
</svg>