<?xml version="1.0" encoding="utf-8"?>
<svg width="485.50012px" height="207.81587px" viewBox="0 0 485.50012 207.81587" version="1.1" xmlns:xlink="http://www.w3.org/1999/xlink" xmlns="http://www.w3.org/2000/svg">
  <defs>
    <path d="M485.5 0L485.5 0L485.5 207.816L0 207.816L0 0L485.5 0Z" id="path_1" />
    <clipPath id="clip_1">
      <use xlink:href="#path_1" clip-rule="evenodd" fill-rule="evenodd" />
    </clipPath>
  </defs>
  <g id="Surah_95_of_114_(modified)">
    <path d="M485.5 0L485.5 0L485.5 207.816L0 207.816L0 0L485.5 0Z" id="Surah_95_of_114_(modified)" fill="none" stroke="none" />
    <path d="M229.4 113.4C229.4 127.6 226.8 138.6 221.7 146.8C217.4 153.5 212.3 157.1 206.6 157.1L206.6 142.5C211.2 142.5 215.7 140.6 220 137C221.2 136 221.9 132 221.9 125.2C221.9 121.1 220.7 104.6 218.5 75.8C216.3 47 215.4 30 215.4 24.7C215.4 20.1 214.7 16.3 213.2 13.2C213.2 11.5 214.6 7.39999 217.3 1C217.5 0.300003 217.8 0 218.3 0C218.5 0 218.8 0.199997 219.3 1.2C220 2.89999 221.9 7.39999 224.8 14.9C227.7 22.8 229.4 27.6 230.1 29.3C230.3 30.7 230.6 31.9 230.6 32.4C230.6 34.6 228.4 33.4 224.4 28.6C223.9 28.1 223.7 28.4 223.7 29.6C223.7 29.8 224.7 42.8 226.6 68.2C228.5 93.3 229.4 108.4 229.4 113.4ZM173 9.30002C170.9 5.90001 168.5 4.50002 165.6 4.50002C165.4 4.50002 164.6 5.20003 163.6 7.10004C162.4 9.10004 161.9 10.3 161.9 10.5C161.9 11.2 162.4 12.2 163.8 13.4C165.3 14.6 166.2 15.3 167.2 15.3C167.9 15.3 168.2 15 168.4 14.8C168.7 14.3 168.9 14.3 169.4 14.3C170.4 14.3 171.6 16.5 173.5 21.3C175.4 25.9 176.3 29 176.1 30.7C176.3 31.7 176.3 32.4 176.8 32.4C177.3 32.4 177.8 31.7 178.5 30.7C179.2 29.1 180.2 26.2 180.9 22.1C182.6 13 184.3 8.40001 186.2 8.40001C187.1 8.40001 188.1 8.8 188.8 9.8C189.8 10.8 190.3 11.5 190.5 11.5C190.9 11.5 191.4 10.7 191.9 9.3C192.4 8.3 192.4 7.40001 192.4 6.90001C192.4 5.90001 192 4.90001 191 3.50002C190 2.00002 188.8 1.30002 187.6 1.30002C185.4 1.30002 183.5 3.50002 181.6 7.80002C179.9 14.1 178.7 18.9 178.2 22C178.2 22.5 178 22.8 178 23L177.8 23C177.8 22.7 177.8 22.5 177.6 22C176.8 16.7 175.2 12.4 173 9.30002ZM240.7 28C240.7 23.2 240 19.4 238.5 16.2C238.5 14.5 239.7 10.4 242.6 4.20001C242.8 3.50002 243.1 3.00002 243.3 3.00002C243.8 3.00002 244 3.50002 244.5 4.20001C245.2 5.90001 246.9 10.4 249.8 17.9C252.9 25.8 254.6 30.6 255.1 32.5C255.6 33.7 255.6 34.9 255.6 35.4C255.6 37.6 253.7 36.4 249.4 31.6C248.9 30.9 248.7 31.4 248.7 32.6C248.7 33.1 249.9 48 252.1 77.7C254.3 107.2 255.2 123.8 255.2 127.6C255.2 138.9 253.5 149 250.2 157.6C249.2 159.3 248.8 160.5 248.3 161.4C247.6 162.6 247.3 162.6 247.1 161.9C246.929 161.046 247.05 159.536 247.214 157.493C247.242 157.144 247.271 156.779 247.3 156.4C247.8 152.3 248 147.8 248 142.7C248 137.9 246.8 118.7 244.4 84.9C241.9 51 240.7 32.1 240.7 28ZM290.7 17.5C290.7 20.1 292.8 22.5 297.4 24.9C294 28.5 289 32.3 282 36.6C276 39.9 270.3 43.3 264.5 46.9C263.1 47.6 262.6 48.4 262.6 48.6C262.6 48.6 262.6 48.8 262.8 48.8C263 48.8 264 48.6 265.2 48.1C272.9 45.3 277.2 43.6 278.2 43.1C281.8 41.7 285.8 39 290.4 35.9C294.2 33 297.4 29.9 300 26.3C302.2 27.5 303.6 28.7 304.1 29.7C306.2 26.9 307.2 24.7 307.2 23.5C306.7 22.5 305.3 21.3 302.9 20.1C304.1 16.7 304.6 13.8 304.6 11.2C304.6 8.40004 303.9 6.70004 302.2 6.20004C300.3 5.50003 297.9 6.50003 295 9.10004C292.1 11.5 290.7 14.4 290.7 17.5ZM345.3 28.2C345.3 28.2 345.1 28.5 345.1 28.7C343.4 31.6 342 33.3 340.4 33.3C338.3 33.3 337.3 31.1 337.3 27.3C337.3 24.2 338.5 19.1 340.9 11.7C341.4 10 341.6 9.00003 341.6 8.80003C341.3 8.80003 340.9 9.70004 339.9 11.4C336.1 18.4 334.4 25.3 334.4 31.8C334.4 37.1 335.9 39.7 339 39.7C342.1 39.7 344.3 36.1 345.5 28.9C345.7 28.7 345.7 28.4 345.5 28.2C345.5 28.1094 345.5 28.0598 345.481 28.0513C345.459 28.0411 345.409 28.0907 345.3 28.2ZM124.1 14.8C124.1 17.4 122.9 20.3 121 23.4C118.8 26.5 116.2 29.4 112.8 31.8C111.4 32.8 110.6 33.2 110.4 33.2L110.4 33C110.4 32.8 110.9 32.3 111.8 31.1C117.3 25.1 120.2 21.3 120.2 19.1C120.2 17.4 119.2 16.5 117.6 16.5C116.6 16.5 115.7 16.7 115 17.2C114.3 17.4 114 17.7 113.8 17.7C113.8 17.7 113.6 17.7 113.6 17.5C113.6 17.5 113.6 17 113.8 16.1C114.8 12 116.7 10.1 120 10.1C122.6 10 124.1 11.7 124.1 14.8ZM300.4 14.3C300.7 15.7 300.7 17.2 300.2 18.6C296.6 16.9 294.7 15.5 294.6 14.2C294.6 13.8 295 13.3 296 12.8C297 12.3 297.7 12.1 298.2 12.1C299.4 12.1 300.2 12.9 300.4 14.3ZM66.4 37.3C64.3 33.9 61.9 32.5 59 32.5C58.8 32.5 58.1 33.3 57 35.1C55.8 37.1 55.3 38.3 55.3 38.5C55.3 39.2 55.8 40.2 57.2 41.4C58.7 42.6 59.6 43.3 60.6 43.3C61.3 43.3 61.6 43 61.8 42.8C62.1 42.3 62.3 42.3 62.8 42.3C63.8 42.3 65 44.5 66.9 49.3C68.8 53.9 69.7 57 69.5 58.7C69.7 59.7 69.7 60.4 70.2 60.4C70.7 60.4 71.2 59.7 71.9 58.7C72.6 57.1 73.6 54.2 74.3 50.1C76 41 77.7 36.4 79.6 36.4C80.5 36.4 81.5 36.8 82.2 37.8C83.2 38.8 83.7 39.5 83.9 39.5C84.3 39.5 84.8 38.7 85.3 37.3C85.8 36.3 85.8 35.4 85.8 34.9C85.8 33.9 85.4 32.9 84.4 31.5C83.4 30 82.2 29.3 81 29.3C78.8 29.3 76.9 31.5 75 35.8C73.3 42.1 72.1 46.9 71.6 50C71.6 50.5 71.4 50.8 71.4 51L71.2 51C71.2 50.7 71.2 50.5 71 50C70.2 44.7 68.6 40.4 66.4 37.3ZM323.8 62.5C348 53.4 373.2 44.3 399.2 34.7C399.402 34.6423 399.588 34.5762 399.749 34.5186C400.147 34.3768 400.4 34.2867 400.4 34.5C400.6 34.5 400.6 35 400.4 35.7C399.4 37.9 398.7 39.1 398.2 39.5C398 39.7 385.7 44.3 362 53.2C337.8 62.1 324.1 67.6 321.4 69.3C321.8 67.1 322.6 64.9 323.8 62.5ZM149.3 42.9C149.3 43.4 149.1 44.3 148.6 45.3C148.4 46.7 147.9 47.5 147.2 47.5C147 47.5 146.5 46.8 145.5 45.8C144.8 44.8 143.8 44.4 143.1 44.4C141.2 44.4 139.3 49 137.6 58.1C136.9 62.2 136.2 65.1 135.2 66.7C134.941 67.0706 134.709 67.4 134.494 67.6678C134.745 66.9233 134.851 66.4539 134.8 66.3L134.8 66.1C134.659 66.1 134.118 66.6985 133.144 67.8251C133.06 67.5338 133 67.1468 133 66.7C133 65 132 61.9 130.1 57.3C128.2 52.5 127 50.3 126.3 50.3C125.6 50.3 125.3 50.3 125.1 50.8C125.1 51 124.6 51.3 123.9 51.3C122.9 51.3 122 50.6 120.5 49.4C119.3 48.2 118.6 47.2 118.6 46.5C118.6 46.3 119.1 45.1001 120.3 43.1001C121.5 41.2001 122.2 40.5 122.5 40.5C125.1 40.5 127.5 41.9 129.7 45.3C132.1 48.7 133.5 52.7 134.5 58L134.5 59C134.61 59.1096 134.659 59.1589 134.681 59.1488C134.7 59.1403 134.7 59.0907 134.7 59C134.7 58.8 134.9 58.5 135.2 58C135.4 54.9 136.6 50.1001 138.3 43.8C140.2 39.5 142.1 37.3 144.3 37.3C145.5 37.3 146.7 38 147.9 39.5C148.8 40.9 149.3 41.9 149.3 42.9ZM133.144 67.8251C132.739 68.2937 132.258 68.8537 131.7 69.5C130 71.4 127.9 73.5 125 75.7C113 83.6 103.9 89.2 97.4 93C96.2 93.7 95.5 94.5 95.5 94.7C95.5 94.7 95.5 94.9 95.7 94.9C96.2 94.9 96.9 94.7 98.1 94.2C106.1 91.4 110.4 89.7 111.1 89.2C114.7 87.6 118.7 85.2 123.3 81.8C128.4 78.2 131.7 74.3 133.4 70.5C133.887 69.3308 134.256 68.3752 134.494 67.6678C134.129 68.1227 133.815 68.4 133.5 68.4C133.389 68.4 133.248 68.1858 133.144 67.8251ZM454.3 63.7C451.9 69.5 450.7 74 450.7 77.4C450.7 81.5 451.7 83.6001 453.8 83.6001C455 83.6001 456.4 81.9 458.1 79C458.3 78.8 458.3 78.5 458.6 78.3C458.6 78.3 458.8 78.3 458.8 78.5L458.8 79.2001C457.4 86.4001 455.2 90 452.3 90C449.2 90 447.7 87.4 447.7 82.1001C447.7 79.5 448.2 76.1001 449.6 71.8001C451 67.5001 451.8 65.3001 451.8 65.1001C451.8 64.6001 450.8 63.7001 448.7 62.5C444.9 67.5 439.6 72.3 432.9 76.4C428.3 79 423.8 81.4 419 83.4C410.1 87 404.8 88.9 403.6 89.6001C402.4 90.1001 401.7 90.3001 401.2 90.3001C401 90.3001 401 90.1001 401 90.1001C401 89.6001 401.5 89.1001 402.9 88.2001C410.6 83.9001 418 79.6001 425.7 75.2001C435.8 69.4001 442.7 64.6001 446.1 61C441.5 58.6001 439.4 56.2001 439.4 53.6001C439.4 50.5 440.8 47.6001 443.7 45C446.6 42.6001 449 41.6001 450.9 42.4C452.3 42.9 453.3 44.6 453.3 47.4C453.3 50 452.8 52.9 451.6 56C454 57.4 455 58.9 455 60.3C455 61.1 454.8 62.3 454.3 63.7ZM195.4 64.7C196.3 62.8 196.8 60.6 196.8 58.7C196.8 57.7 196.3 56.3 195.2 54.4C194 51.1 193.3 49.4 193.3 49.4C193.1 48.4 192.8 47.2 192.6 46C192.6 45.1001 192.3 44.6001 192.1 44.6001C191.8 44.6001 191.6 45.1001 191.1 45.8C190.1 47 189.9 48.2001 189.9 49.6001C189.9 52.2001 191.4 55.8001 194 60.6001C193.8 62.1001 192.8 62.8001 191.4 62.8001C188.2 62.8001 186.8 60.7001 186.8 56.6001C186.8 55.2 186.3 53 185.6 49.9C184.9 47 184.4 45.6 183.9 45.6C183.7 45.6 183.2 46 182.7 47C182.2 48.2 182 48.9 182 49.4C182 49.9 182.3 51.3 183 53.5C183.5 55.9 184 57.3 184 58.3C184 60 183.3 61.4 182.1 62.6C180.9 63.8 179.7 64.5 178.3 64.5C177.4 64.5 176.4 63.5 175.7 62.1C175.2 60.9 175 59.4 175 58C175 57.3 175 56.6 175.2 55.6C175.2 54.6 175.4 53.4 175.4 52C175.4 49.4 174.9 48.2 174.2 48.2C173.7 48.2 173 48.7 172 49.9C171.1 51.1 170.6 52.3 170.6 53.7C170.6 54.4 170.9 54.9 171.6 55.1C172.1 55.4 172.6 55.6 172.6 56.1L172.6 62.2C172.6 64.6 173.1 66.8 174.3 68.2C175.3 69.7 176.5 70.4 177.7 70.4C181.3 70.4 183.7 67.8 185.1 63C186.3 66.9 188.2 68.8 191.1 68.8C192.8 68.8 194.2 67.3 195.4 64.7ZM449 54.9C449.5 53.5 449.5 52 449.2 50.6C449 49.2 448.2 48.4 447 48.4C446.5 48.4 445.8 48.6 444.8 49.1C443.8 49.6 443.4 50.1 443.4 50.5C443.5 51.7 445.4 53.2 449 54.9ZM293.2 53.4L289.4 61.3C288.5 60.4 286.3 58.7 283.2 56.8001C280.1 54.6001 278.4 53.4001 277.9 53.4001C277.6 53.4001 277.1 53.9001 276.9 54.4001L272.3 64.0001C272.1 64.5001 272.1 64.8001 272.3 65.0001C276.2 67.4001 280 70.0001 283.6 72.9001C284.1 73.2001 284.6 72.9001 284.8 72.2001C286.3 70 287.5 67.4 288.9 64.5C293 67.1001 296.6 69.5 299.7 71.9C300.1 72.1001 300.6 72.1001 301.1 71.4C304.2 66.1 305.9 62.5 305.9 60.8C305.9 60.3 304 58.9 300.4 56.5C296.6 53.9 294.7 52.7 294.2 52.7C293.7 52.7 293.4 52.9 293.2 53.4ZM25.9 80.3C25.9 80.1 26.1 79.8 26.1 79.8C26.2093 79.6907 26.2589 79.6411 26.2813 79.6513C26.3 79.6598 26.3 79.7094 26.3 79.8C26.5 80 26.5 80.3 26.3 80.5C25.1 87.7001 22.9 91.3 19.8 91.3C16.7 91.3 15.2 88.7 15.2 83.4C15.2 76.9 16.9 70 20.7 63C21.7 61.3 22.1 60.4 22.4 60.4C22.4 60.6001 22.2 61.6001 21.7 63.3C19.3 70.7 18.1 75.8 18.1 78.9C18.1 82.7 19.1 84.9 21.2 84.9C22.8 84.9 24.2 83.2 25.9 80.3ZM372 70.5C369.9 67.1 367.5 65.7 364.6 65.7C364.3 65.7 363.6 66.4 362.6 68.3001C361.4 70.3001 360.9 71.5 360.9 71.7001C360.9 72.4 361.4 73.4 362.8 74.6001C364.3 75.8 365.2 76.5 366.2 76.5C366.9 76.5 367.2 76.2001 367.4 76C367.7 75.5 367.9 75.5 368.4 75.5C369.4 75.5 370.6 77.7001 372.5 82.5C374.4 87.1001 375.3 90.2 375.1 91.9C375.3 92.9 375.3 93.6001 375.8 93.6001C376.3 93.6001 376.8 92.9 377.5 91.9C378.2 90.3 379.2 87.4 379.9 83.3C381.6 74.2 383.3 69.6 385.2 69.6C386.1 69.6 387.1 70 387.8 71C388.8 72 389.3 72.7 389.5 72.7C389.9 72.7 390.4 71.9 390.9 70.5C391.4 69.5 391.4 68.6 391.4 68.1C391.4 67.1 391 66.1 390 64.7C389 63.2 387.8 62.5 386.6 62.5C384.4 62.5 382.5 64.7 380.6 69C378.9 75.3 377.7 80.1 377.2 83.2C377.2 83.7 377 84 377 84.2L376.8 84.2C376.8 83.9 376.8 83.7 376.6 83.2C375.8 77.9 374.2 73.6 372 70.5ZM312.2 79.3C312.2 83.1 310.3 88.4 306.4 94.9C304 99 300.4 104.5 295.6 111.7C300.4 117.2 303.8 122.3 305.4 126.6C306.4 129.7 307.1 133.8 307.1 138.4C307.1 140.3 306.6 142.7 305.7 145.8C305 148.7 304 150.8 303.1 152.3C301.2 155.2 298.1 158.1 293.3 160.9C288.3 164.3 283.9 165.9 280.3 165.9C274.5 165.9 271.7 161.6 271.7 152.9C271.7 147.1 272.7 141.4 274.6 136.1C276.5 131.5 279.6 125.5 284.7 117.6C280.4 113.5 275.8 107.8 270.8 100.6C270.3 99.9 269.1 98.7 267.2 96.8C266.2 95.8 265.8 94.6 265.8 93.2C265.8 91 266 88.6 266.5 85.8C267.2 82.9 267.7 81.7 267.9 81.7C268.6 81.7 270.8 82.9 274.9 85.5C278.7 88.1 281.9 90.1 283.8 91.7C285 92.4 285.5 93.1 285.5 93.1L285.5 93.3C285.5 93.5 284.8 93.8 283.1 93.8C280 93.8 278.3 94 278.3 94.3C278.3 94.6 278.8 95 279.7 96.2C283.5 101 287.4 104.6 291.5 107.5C292.5 106.1 295.8 101.3 301.1 93.1C305.7 86.1 308.3 81.3 309.5 78.5C310.7 75.6 311.4 74.4 311.9 74.4C312 74.5 312.2 76 312.2 79.3ZM49 95.4C48.8 95.9 48.8 96.2 49 96.4C52.8 98.8 56.6 101.4 60.4 104.3C60.8903 104.594 61.0921 104.311 61.5712 103.64L61.6 103.6C64.9 98.3 66.6 95 66.6 93.3C66.6 92.8 64.6 91.3 60.8 88.7C57.2 86.3 55.1 85.1 54.6 85.1C54.3 85.1 53.8 85.3 53.6 85.8L49 95.4ZM190.1 96.1L193.9 88.2C194.1 87.7 194.4 87.5 194.9 87.5C195.4 87.5 197.3 88.7 201.1 91.3C204.7 93.7 206.6 95.1 206.6 95.6C206.6 97.3 204.9 100.9 201.8 106.2C201.3 106.9 200.8 106.9 200.4 106.7C197.3 104.3 193.7 101.9 189.6 99.3C188.2 102.2 187 104.8 185.5 107C185.3 107.7 184.8 108 184.3 107.7C180.7 104.8 176.9 102.2 173 99.8C172.8 99.6 172.8 99.3 173 98.8L177.6 89.2C177.8 88.7 178.3 88.2 178.6 88.2C179.1 88.2 180.8 89.4 183.9 91.6C187 93.5 189.1 95.2 190.1 96.1ZM329.7 107.7C330.7 108.9 331.4 110.5 331.9 112.7C333.1 116.8 335.5 122.5 338.7 129.4C341.6 135.7 343 139 343 139.5C343 141.5 340.1 144.6 334.6 148.9C329.768 152.491 323.486 156.594 315.755 161.153C316.49 156.707 317.764 151.377 319.6 145.1C319.9 143.6 320.1 142.4 320.1 141.7C320.1 141.2 320.1 141 319.9 141C319.4 141 318.9 142 317.7 144.4C315.348 150.752 313.618 156.93 312.592 162.997C309.358 164.861 305.894 166.797 302.2 168.8C292.8 173.9 281.1 179.4 266.9 185.4C246.5 194 235.4 198.8 233.5 199.8C228.2 202.2 225.6 203.7 225.6 203.9C225.6 204.1 225.6 204.1 226.1 204.1C227.1 204.1 229.5 203.8 233.3 203.1C236.9 202.6 246 200.5 260.4 197.1C274.1 193.8 281.3 192.1 281.8 192.1C284.4 192.1 292.8 188.1 307.3 179.8C308.749 178.988 310.16 178.181 311.534 177.379C311.814 184.522 313.788 190.679 317.3 195.3C321.6 201.3 327.8 204.4 336 204.4C345.6 204.4 356.6 199.4 369.6 189.8C378.3 183.3 386.2 175.8 393.4 167.2C396.5 163.6 399.1 159 400.8 153.5C402.3 149.1 403 145.8 403 142.9L403.5 142.4L403.5 129.2C402.5 129.7 402 129.7 401.8 129.7C399.4 124.7 396.5 120.6 393.4 117C389.8 113.4 386.7 111.5 383.6 111.5C379.5 111.5 375.7 113.6 372.1 117.7C368.3 122.5 366.6 127.8 366.6 133.8C366.6 141.7 372.4 145.8 383.9 145.8C389.2 145.8 393.5 145.1 396.4 144.1C396.9 145.8 397.4 147.5 397.4 148.9C397.4 151.1 393.8 155.4 386.8 162.2C379.1 169.4 371.2 175.4 363 180.4C352.6 186.7 344 189.8 336.8 189.8C328.4 189.8 322.4 187.1 318.6 182.1C317.187 179.98 316.189 177.582 315.608 174.948C327.872 167.463 336.832 160.41 342.6 153.9C344.6 151.7 346 148.6 347.2 144.5C348.1 140.9 348.6 138 348.6 135.6C348.6 130.5 347.1 125 344.5 118.3C342.8 114.5 340.9 110.4 339.2 106.3C342.1 107 344 107.5 344.7 107.5C345.2 107.5 345.4 107.2 345.4 107C345.4 106.5 344.7 105.6 343 103.9C339 99.8 335.4 95.9 332 92.1C331.5 91.6 331.2 91.4 331 91.4C330.5 91.4 330.2 91.9 330 93.1C329.5 94.3 329.3 96.5 328.8 99.6C328.3 102.9 328.3 104.6 328.3 105.1C328.5 105.5 329 106.3 329.7 107.7ZM160.8 160.9C153.8 160.9 148.8 158.5 145.9 153.7C143.7 150.3 142.3 144.8 141.6 136.7C140.4 125.9 139.4 118.9 138.5 115.6C137.5 112.5 136.8 110.8 136.1 110.8C135.1 110.8 134.7 112 134.4 113.9C132 126.6 127.9 133.1 121.9 133.1L121.9 132.9C120.245 132.9 118.886 132.896 118.2 132.7C118.2 142.8 117.7 150.2 116.5 155.5C115.3 161.3 113.1 165.6 110.3 168.7C102.1 176.6 92.5 183.6 81 189.6C66.5 197.2 52.8 201 39.8 201C21.6 201 8.79999 191.9 1.89999 173.9C0.5 170.5 0 166 0 160.5C0 156.9 0.199997 153.3 0.699997 149.5C1.28935 146.376 1.94817 143.427 2.67646 140.691C1.41668 139.487 0.799973 137.198 0.799973 133.8C0.799973 127.3 2.49997 120.4 6.29997 113.4C7.29997 111.7 7.69997 110.8 7.99997 110.8C7.99997 111 7.79997 112 7.29997 113.7C4.89998 121.1 3.69997 126.2 3.69997 129.3C3.69997 131.62 4.07263 133.343 4.84073 134.334C5.27745 133.661 5.63872 133.4 6 133.4C6.44256 133.4 6.4934 133.948 6.2912 135.253C6.45298 135.284 6.62255 135.3 6.79997 135.3C8.39999 135.3 9.79999 133.6 11.5 130.7C11.5 130.5 11.7 130.2 11.7 130.2C11.8093 130.091 11.8589 130.041 11.8813 130.051C11.9 130.06 11.9 130.109 11.9 130.2C12.1 130.4 12.1 130.7 11.9 130.9C10.7 138.1 8.49998 141.7 5.39998 141.7C5.21032 141.7 5.02666 141.69 4.84896 141.671C4.731 142.269 4.6155 142.876 4.5 143.5C3.5 147.8 3.10001 151.2 3.10001 153.3C3.10001 160.7 5.5 167.7 10.5 173.9C17.2 182.1 27.1 186.4 39.8 186.4C50.8 186.4 62.6 183.8 74.8 178.5C84.4 174.2 93.5 168.9 101.9 162.4C108.6 157.1 112.7 153 113.9 150.4C113.9 142.2 111.7 133.6 106.9 124.5C105.9 122.6 105.7 121.4 105.7 120.4C105.7 119.7 106.4 116.1 108.3 109.8C108.8 108.8 109 108.4 109.5 108.4C110 108.4 110.7 109.1 111.4 110.6C112.6 113.5 113.6 115.2 114.3 115.9C115.991 117.591 118.375 118.49 121.943 118.5C128.915 118.475 132.501 112.476 133.2 101C133.2 96.4 134.4 94.3 136.3 94.3C138.2 94.3 139.9 96 141.1 99.6C143.3 105.1 144.9 112.8 145.9 122.4C147.1 131.3 148.3 136.8 149.5 139.4C151.4 144 155.3 146.1 160.8 146.1L160.8 146.3C167.8 146.3 174 144.4 179.5 140.5C181.7 139.1 186.5 134.5 194.1 126.8C194.8 126.1 195.8 125.6 196.7 125.6C197.6 125.6 197.9 126.1 197.9 127C197.9 127.5 197.9 128.2 197.7 129.2C197.5 130.2 197.5 130.9 197.5 131.4C197.5 134.3 198 136.7 199.4 138.6C200.8 141 203.2 142.4 206.4 142.4L206.4 157.1C197.8 157.1 193.2 152.1 192.7 142C192.7 141.5 192.5 141.3 192 141C191.3 141.2 190.6 141.5 189.8 142.4C184.8 148.2 181.6 151.5 180.2 152.7C174 158.2 167.5 160.9 160.8 160.9ZM429.6 114.2C428.9 114.2 427.9 114.6 426.7 115.6C422.9 118.9 419 121.8 415.1 123.8C413.9 124.6 409.8 126.5 403.6 129.6L403.6 142.8C412 138.9 418.5 134.9 422.3 130.3C422.3 141.3 427.1 147.1 437.2 147.1C445.6 147.1 452.5 142.3 457.8 132.7C461 138.5 464.6 141.6 468.4 141.6C474.2 141.6 478.5 139 481.4 133.7C484.1 129.3 485.5 124.3 485.5 118.3C485.5 114.4 484.3 111.1 482.4 108.2C481.7 107.2 481.2 107 480.7 107C480.2 107 479.7 107.8 479.5 109.2C478.1 113.7 477.1 117.1 476.9 119C479 122.6 480 124.6 480 124.8C479 126.4 476.9 127.4 473.5 127.4C470.9 127.4 468.5 126.4 466.8 125C464.9 123.6 463.9 121.9 463.9 120.2C463.9 120.7 464.6 118.8 465.6 114.7C466.1 112.6 465.9 111.6 464.9 111.6C464.2 111.6 463.5 112 462.5 113C460.1 116.9 457.5 120.7 455.1 124.8C451.2 129.9 446.2 132.5 440.2 132.5C432.7 132.5 428.9 129.6 428.9 124.3C428.9 123.1 429.1 121.6 429.6 119.7C430.1 117.8 430.3 116.3 430.3 115.6C430.3 114.7 430.1 114.2 429.6 114.2ZM302.9 138.4C300.3 133.1 295.7 127.6 289.5 122.3C287.3 124.5 284.7 128.5 281.3 134.3C277.5 140.8 275.8 144.9 275.8 147C275.8 149.9 277.7 151.3 282 151.3C283.9 151.3 286.3 150.6 289.4 149.4C293.7 147.5 297.8 144.8 301.2 141.5C302.6 140.1 303.1 139.1 302.9 138.4ZM390 131.4C386.4 126.8 383.3 124.7 380.4 124.7C376.1 124.7 374.2 125.7 374.2 128.1C374.2 131 377.1 132.4 382.8 132.4C384.83 132.4 387.029 131.974 389.4 131.516C389.599 131.477 389.799 131.439 390 131.4ZM51.6 138.6C49.5 135.2 47.1 133.8 44.2 133.8C43.9 133.8 43.2 134.5 42.2 136.4C41 138.4 40.5 139.6 40.5 139.8C40.5 140.5 41 141.5 42.4 142.7C43.9 143.9 44.8 144.6 45.8 144.6C46.5 144.6 46.8 144.3 47 144.1C47.3 143.6 47.5 143.6 48 143.6C49 143.6 50.2 145.8 52.1 150.6C54 155.2 54.9 158.3 54.7 160C54.9 161 54.9 161.7 55.4 161.7C55.9 161.7 56.4 161 57.1 160C57.8 158.4 58.8 155.5 59.5 151.4C61.2 142.3 62.9 137.7 64.8 137.7C65.7 137.7 66.7 138.1 67.4 139.1C68.4 140.1 68.9 140.8 69.1 140.8C69.5 140.8 70 140 70.5 138.6C71 137.6 71 136.7 71 136.2C71 135.2 70.6 134.2 69.6 132.8C68.6 131.3 67.4 130.6 66.2 130.6C64 130.6 62.1 132.8 60.2 137.1C58.5 143.4 57.3 148.2 56.8 151.3C56.8 151.8 56.6 152.1 56.6 152.3L56.4 152.3C56.4 152 56.4 151.8 56.2 151.3C55.4 146 53.8 141.7 51.6 138.6ZM415.9 195.3C413.3 196 411.8 196.5 411.3 196.5L411.3 196.3C411.3 196.3 412.3 195.6 414.2 194.4C416.1 193.2 419 191.3 423.1 188.2C425 186.3 427.9 183.2 431.5 178.8C433.9 175.9 436.5 173.3 439.4 171.4C443 168.8 446.4 167.6 450 167.6C450.7 167.6 451.9 167.8 453.4 168.3C454.6 168.8 455.8 169 456.8 169C458.7 169 460.2 168.3 461.4 166.8C462.1 165.4 463.1 164.2 464 162.7C464.5 161.7 465.2 161.3 465.7 161.3C465.9 161.3 465.9 161.5 465.9 162C465.9 162.5 465.7 163.7 465.2 165.1C464.7 165.8 466.6 166.1 470.2 166.1C470.7 166.1 470.9 166.1 470.9 165.9C470.9 165.9 470.7 164.9 470.2 163.3C470 162.8 470.2 162.1 470.9 161.1L470.98 160.964C471.922 159.363 472.308 158.705 472.6 158.9C473.6 159.6 474 161.1 474 162.7C474 164.4 473.5 166.1 472.8 168C472.1 170.2 471.4 171.4 470.9 171.8C469.2 172.8 466.6 172.5 463 170.8C460.1 173.7 457.2 175.4 454.4 175.4C453.7 175.4 452.5 175.2 451.3 174.7C450.1 174.2 449.1 174 448.4 174C443.6 174 438.6 176.2 433.5 181L422.7 191.8C420.5 193.3 418.3 194.5 415.9 195.3ZM146.6 189.5C153.3 193.3 156.7 195.7 156.7 196.7C156.7 198.4 155 201.7 151.7 207L151.671 207.04C151.192 207.711 150.99 207.994 150.5 207.7C146.9 204.8 143.1 202.2 139.2 199.8C139 199.6 139 199.3 139.2 198.8L143.8 189.2C140.4 186.8 137.1 184.6 134 182.5C133.8 182.3 133.8 182 134 181.5L138.6 171.9C138.8 171.4 139.3 171.2 139.6 171.2C140.1 171.2 142.2 172.4 145.8 174.8C149.6 177.4 151.6 178.9 151.6 179.4C151.4 181.1 149.8 184.2 146.6 189.5ZM182.2 201C200.7 194.3 219.9 187.1 240 179.6C240.178 179.549 240.344 179.492 240.494 179.439C240.935 179.286 241.251 179.176 241.4 179.4C241.4 179.4 241.4 179.9 241.2 180.6C240.2 182.8 239.5 184 239 184.4C222.2 190.6 202.3 198.3 179.7 207.7C180.2 205.6 181 203.4 182.2 201ZM115.5 188.3C104.4 192.1 94.1 195.9 84.5 199.3C83.3 201.7 82.6 203.9 82.2 206.1C94.4 200.5 105.2 196.5 114.8 193.1C115.3 192.7 116 191.5 116.7 189.3C117.1 188.6 117.1 188.1 116.9 188.1C116.777 187.916 116.654 187.958 116.345 188.064C116.152 188.131 115.885 188.223 115.5 188.3Z" id="Group" fill="#595959" fill-rule="evenodd" stroke="none" clip-path="url(#clip_1)" />
  </g>
</svg>