<?xml version="1.0" encoding="utf-8"?>
<svg width="494.00015px" height="204.51585px" viewBox="0 0 494.00015 204.51585" version="1.1" xmlns:xlink="http://www.w3.org/1999/xlink" xmlns="http://www.w3.org/2000/svg">
  <defs>
    <path d="M494 0L494 0L494 204.516L0 204.516L0 0L494 0Z" id="path_1" />
    <clipPath id="clip_1">
      <use xlink:href="#path_1" clip-rule="evenodd" fill-rule="evenodd" />
    </clipPath>
  </defs>
  <g id="Surah_75_of_114_(modified)">
    <path d="M494 0L494 0L494 204.516L0 204.516L0 0L494 0Z" id="Surah_75_of_114_(modified)" fill="none" stroke="none" />
    <path d="M238 113.4C238 127.6 235.4 138.6 230.3 146.8C226 153.5 220.9 157.1 215.2 157.1L215.2 142.5C219.8 142.5 224.3 140.6 228.6 137C229.8 136 230.5 132 230.5 125.2C230.5 121.1 229.3 104.6 227.1 75.8C224.9 47 224 30 224 24.7C224 20.1 223.3 16.3 221.8 13.2C221.8 11.5 223.2 7.39999 225.9 1C226.1 0.300003 226.4 0 226.9 0C227.1 0 227.4 0.199997 227.9 1.2C228.6 2.89999 230.5 7.39999 233.4 14.9C236.3 22.8 238 27.6 238.7 29.3C238.9 30.7 239.2 31.9 239.2 32.4C239.2 34.6 237 33.4 233 28.6C232.5 28.1 232.3 28.4 232.3 29.6C232.3 29.8 233.3 42.8 235.2 68.2C237 93.2 238 108.4 238 113.4ZM198.4 2.5C199.1 1.3 200.1 0.800003 200.8 0.800003C201.3 0.800003 201.8 1 201.8 1.5C201.8 1.5 201.6 1.7 201.6 2C200.6 4.2 199.7 6.60001 199 9C204 12.6 206.4 16.4 206.2 20C205.7 24.1 205.2 26.7 204.5 27.7C202.1 30.6 199.5 32.3 196.1 32.3C192.7 32.3 191.3 30.1 191.3 26.3C191.3 25.6 191.3 24.6 191.5 23.7C192.6 16 195 9 198.4 2.5ZM250 28.2C250 23.4 249.3 19.6 247.8 16.4C247.8 14.7 249 10.6 251.9 4.39999C252.1 3.7 252.4 3.2 252.6 3.2C253.1 3.2 253.3 3.7 253.8 4.39999C254.5 6.09999 256.2 10.6 259.1 18.1C262.2 26 263.9 30.8 264.4 32.7C264.9 33.9 264.9 35.1 264.9 35.6C264.9 37.8 263 36.6 258.7 31.8C258.2 31.1 258 31.6 258 32.8C258 33.3 259.2 48.2 261.4 77.9C263.6 107.4 264.5 124 264.5 127.8C264.5 139.1 262.8 149.2 259.5 157.8C258.5 159.5 258.1 160.7 257.6 161.6C256.9 162.8 256.6 162.8 256.4 162.1C256.229 161.246 256.35 159.735 256.514 157.693C256.542 157.344 256.571 156.979 256.6 156.6C257.1 152.5 257.3 148 257.3 142.9C257.3 138.1 256.1 118.9 253.7 85.1C251.2 51.2 250 32.3 250 28.2ZM299.2 15.5C299.2 18.1 301.3 20.5 305.9 22.9C302.5 26.5 297.5 30.4 290.5 34.6C284.5 37.9 278.8 41.3 273 44.9C271.6 45.6 271.1 46.4 271.1 46.6C271.1 46.6 271.1 46.8 271.3 46.8C271.5 46.8 272.5 46.6 273.7 46.1C281.4 43.3 285.7 41.6 286.7 41.1C290.3 39.7 294.3 37 298.9 33.9C302.7 31 305.9 27.9 308.5 24.3C310.7 25.5 312.1 26.7 312.6 27.7C314.7 24.9 315.7 22.7 315.7 21.5C315.2 20.5 313.8 19.3 311.4 18.1C312.6 14.7 313.1 11.8 313.1 9.20001C313.1 6.40001 312.4 4.70001 310.7 4.20001C308.8 3.5 306.4 4.5 303.5 7.10001C300.6 9.5 299.2 12.4 299.2 15.5ZM116.3 27.7C134.8 21 154 13.8 174.1 6.3C174.278 6.24905 174.444 6.19161 174.594 6.13925C175.035 5.98609 175.351 5.87643 175.5 6.10001C175.5 6.10001 175.5 6.60001 175.3 7.3C174.3 9.5 173.6 10.7 173.1 11.1C156.3 17.3 136.4 25 113.8 34.4C114.4 32.3 115.1 30.1 116.3 27.7ZM353.8 26.5C353.8 26.5 353.6 26.8 353.6 27C352 29.9 350.5 31.6 348.9 31.6C346.8 31.6 345.8 29.4 345.8 25.6C345.8 22.5 347 17.4 349.4 10C349.9 8.3 350.1 7.3 350.1 7.10001C349.8 7.10001 349.4 8.00002 348.4 9.70001C344.6 16.7 342.9 23.6 342.9 30.1C342.9 35.4 344.4 38 347.5 38C350.6 38 352.8 34.4 354 27.2C354.2 27 354.2 26.7 354 26.5C354 26.4093 354 26.3598 353.981 26.3513C353.959 26.3411 353.909 26.3907 353.8 26.5ZM309 12.4C309.3 13.8 309.3 15.3 308.8 16.7C305.2 15 303.2 13.6 303.2 12.3C303.2 11.9 303.6 11.4 304.6 10.9C305.6 10.4 306.3 10.2 306.8 10.2C308 10.2 308.8 11 309 12.4ZM203.6 21.7C203.6 20.5 201.2 18.3 196.2 15.5C194.5 18.4 193.8 21 193.8 23.4C193.8 24.8 194.5 25.8 196 25.8C197.2 25.8 198.6 25.3 200.3 24.4C202 23.6 203.2 22.7 203.6 21.7ZM65.8 24.1C63.7 20.7 61.3 19.3 58.4 19.3C58.2 19.3 57.5 20 56.4 21.9C55.2 23.9 54.7 25.1 54.7 25.3C54.7 26 55.2 27 56.6 28.2C58.1 29.4 59 30.1 60 30.1C60.7 30.1 61 29.8 61.2 29.6C61.5 29.1 61.7 29.1 62.2 29.1C63.2 29.1 64.4 31.3 66.3 36.1C68.2 40.7 69.1 43.8 68.9 45.5C69.1 46.5 69.1 47.2 69.6 47.2C70.1 47.2 70.6 46.5 71.3 45.5C72 43.9 73 41 73.7 36.9C75.4 27.8 77.1 23.2 79 23.2C79.9 23.2 80.9 23.6 81.6 24.6C82.6 25.6 83.1 26.3 83.3 26.3C83.7 26.3 84.2 25.5 84.7 24.1C85.2 23.1 85.2 22.2 85.2 21.7C85.2 20.7 84.8 19.7 83.8 18.3C82.8 16.8 81.6 16.1 80.4 16.1C78.2 16.1 76.3 18.3 74.4 22.6C72.7 28.9 71.5 33.7 71 36.8C71 37.3 70.8 37.6 70.8 37.8L70.6 37.8C70.6 37.5 70.6 37.3 70.4 36.8C69.6 31.5 68 27.2 65.8 24.1ZM115.8 147C112.4 144.9 110 140.3 108.8 133.6C108.737 132.75 108.625 131.127 108.484 128.716C109.092 128.207 109.697 127.669 110.3 127.1C115.4 122.5 119.2 116.5 122.1 109.3C131.2 116 140.1 119.6 149.2 119.6C150.9 119.6 152.6 117.7 154 114.1C155.4 110.5 156.4 106.2 156.4 101.4C156.4 96.4 155.4 91.6 153.8 87.6001C151.4 82.0001 148.1 79.4001 143.5 79.4001C139.9 79.4001 136 81.4001 132.2 85.2001C129.3 88.0001 127.1 90.9001 125.7 93.8001C124.7 94 123.5 95.5 122.3 98.1001C119.9 103.6 118.2 106.9 117.7 107.9C115.763 111.682 112.55 114.612 107.904 116.771C107.731 112.51 107.556 107.458 107.4 101.6C106.9 81.2 106 66.4 105 57C103.3 42.3 101.1 32 98 26C97.5 25.1 97 24.6 96.8 24.6C96.3 24.6 96.1 25.1 95.6 26.3C93.7 31.1 92.7 34.7 92.7 37.1C95.4 46 97.3 55.6 98.5 65.4C99.5 76.2 100.4 91.3 100.9 110.5C100.991 113.606 101.089 116.504 101.195 119.196C98.6621 119.85 96.1654 120.19 93.8 120.2L93.8 120C89.3 120 85.7 119.3 82.8 118.1C79.9 116.6 77.2 114 74.6 110.4C72.7 107.2 71 104.1 69.1 101C67 97.9 64.3 96.2 61.7 96.2C58.4 96.2 54.3 98.1 50.2 102.4C45.9 106.7 42.3 111.7 39.4 117.5C36.1 124.7 32.7 131.9 29.6 139.1C26.2 145.1 22.8 148.2 19 148.2C9.39999 148.2 4.79999 137.9 4.79999 117.5C4.79999 113.2 5.09999 107.9 5.79999 101.7C5.97603 100.855 6.0529 100.159 6.04806 99.6113C8.39273 98.6265 10.0962 95.1227 11.1 89.1C11.3 88.9 11.3 88.6 11.1 88.4C11.1 88.3093 11.1 88.2598 11.0814 88.2513C11.0589 88.2411 11.0093 88.2907 10.9 88.4C10.9 88.4 10.7 88.7 10.7 88.9C9.00002 91.8 7.60002 93.5 6 93.5C3.89999 93.5 2.89999 91.3 2.89999 87.5C2.89999 84.4 4.10001 79.3 6.5 71.9C7 70.2 7.2 69.2 7.2 69C6.89999 69 6.5 69.9 5.5 71.6C1.7 78.6 0 85.5 0 92C0 97.0822 1.37925 99.6818 4.22594 99.8868C4.11798 100.214 4.00899 100.586 3.89999 101C2 106.8 1 114.7 1 124.3C1 132.2 2.40001 139.9 5.8 147.3C9.7 155.7 14.2 160 19.5 160C23.1 160 26.7 157.6 29.8 152.8C32 149.4 34.4 144.4 37 137.4C39.9 130.4 41.8 126.1 42.8 124.4C49 115.1 54.8 110.5 60.3 110.5C62 110.5 63.7 111.7 65.6 114.6C67.6 117.9 69.5 121.3 71.4 124.4C74.6 129.2 78.4 132.4 83.2 133.8C85.3558 134.29 88.8558 134.78 93.7 134.799L93.7 134.8C93.7334 134.8 93.7667 134.8 93.8 134.8L93.8 134.8L94 134.8C93.9344 134.8 93.8689 134.8 93.8038 134.8C96.5756 134.784 99.279 134.152 101.925 132.947C102.262 137.516 102.651 140.833 103.1 142.9C104.5 151.3 107.2 156.8 111.5 159.9C114.3 162.1 118.4 163.3 123.7 163.3C130.4 163.3 136.9 160.6 143.1 155.1C144.5 153.9 147.7 150.6 152.7 144.8C153.5 143.9 154.2 143.6 154.9 143.4C155.4 143.7 155.6 143.9 155.6 144.4C156.1 154.5 160.7 159.5 169.3 159.5C174.6 159.5 180.8 156.8 187.8 151.8C193.3 155.1 202.4 156.8 214.9 156.8L214.9 142.4C207.7 142.4 202.6 142.1 200 141.4C204 136.1 206.2 128.7 206.2 119.3C206.2 115.4 205.5 111.6 204.3 108C202.7 103.4 200 101 196.9 101C193.5 101 189.7 104.4 184.9 110.6C179.8 117.3 177.2 124.3 177.2 131C177.2 135.8 177.9 139.6 179.6 142.5C176.3 143.9 172.9 144.9 169.3 144.9L169.3 144.8C166.1 144.8 163.7 143.4 162.3 141C160.9 139.1 160.4 136.7 160.4 133.8C160.4 133.3 160.4 132.6 160.6 131.6C160.8 130.6 160.8 129.9 160.8 129.4C160.8 128.5 160.6 128 159.6 128C158.7 128 157.7 128.5 157 129.2C149.4 136.9 144.6 141.5 142.4 142.9C136.9 146.8 130.7 148.7 123.7 148.7C120.1 148.7 117.5 148 115.8 147ZM153.7 42.8C155.6 39.7 156.8 36.8 156.8 34.2C156.8 31.1 155.4 29.4 152.7 29.5C149.4 29.5 147.5 31.4 146.5 35.5C146.3 36.4 146.3 36.9 146.3 36.9C146.3 37.1 146.5 37.1 146.5 37.1C146.7 37.1 147 36.8 147.7 36.6C148.4 36.1 149.3 35.9 150.3 35.9C151.9 35.9 152.9 36.8 152.9 38.5C152.9 40.7 150 44.5 144.5 50.5C143.6 51.7 143.1 52.2 143.1 52.4L143.1 52.6C143.3 52.6 144.1 52.2 145.5 51.2C148.9 48.8 151.5 45.9 153.7 42.8ZM332.3 60.6C356.5 51.5 381.7 42.4 407.7 32.8C407.902 32.7422 408.088 32.6761 408.249 32.6186C408.647 32.4767 408.9 32.3866 408.9 32.6C409.1 32.6 409.1 33.1 408.9 33.8C407.9 36 407.2 37.2 406.7 37.6C406.5 37.8 394.2 42.4 370.5 51.3C346.3 60.2 332.6 65.7 329.9 67.4C330.4 65.2 331.1 63 332.3 60.6ZM36.6 39.2C36.6 41.8 35.4 44.7 33.5 47.8C31.3 50.9 28.7 53.8 25.3 56.2C23.9 57.2 23.1 57.6 22.9 57.6L22.9 57.4C22.9 57.2 23.4 56.7 24.3 55.5C29.8 49.5 32.7 45.7 32.7 43.5C32.7 41.8 31.7 40.9 30.1 40.9C29.1 40.9 28.2 41.1 27.5 41.6C26.8 41.8 26.5 42.1 26.3 42.1C26.3 42.1 26.1 42.1 26.1 41.9C26.1 41.9 26.1 41.4 26.3 40.5C27.3 36.4 29.2 34.5 32.5 34.5C35.2 34.4 36.6 36.1 36.6 39.2ZM462.8 61.8C460.4 67.6 459.2 72.1 459.2 75.5C459.2 79.6 460.2 81.7 462.3 81.7C463.5 81.7 464.9 80 466.6 77.1C466.8 76.9 466.8 76.6 467.1 76.4C467.1 76.4 467.3 76.4 467.3 76.6L467.3 77.3C465.9 84.5 463.7 88.1 460.8 88.1C457.7 88.1 456.2 85.5 456.2 80.2C456.2 77.6 456.7 74.2 458.1 69.9C459.5 65.6001 460.3 63.4 460.3 63.2C460.3 62.7 459.3 61.8 457.2 60.6C453.4 65.6 448.1 70.4 441.4 74.5C436.8 77.1 432.3 79.5 427.5 81.5C418.6 85.1 413.3 87 412.1 87.7C410.9 88.2 410.2 88.4 409.7 88.4C409.5 88.4 409.5 88.2 409.5 88.2C409.5 87.7 410 87.2 411.4 86.3C419.1 82 426.5 77.7 434.2 73.3C444.3 67.5 451.2 62.7 454.6 59.1C450 56.7 447.9 54.3 447.9 51.7C447.9 48.6 449.3 45.7 452.2 43.1C455.1 40.7 457.5 39.7 459.4 40.5C460.8 41 461.8 42.7 461.8 45.5C461.8 48.1 461.3 51 460.1 54.1C462.5 55.5 463.5 57 463.5 58.4C463.6 59.2 463.3 60.4 462.8 61.8ZM200.6 41C174.6 50.6 149.4 59.7 125.2 68.8C124 71.2 123.2 73.3 122.8 75.6C125.5 73.9 139.2 68.4 163.4 59.5C187.1 50.6 199.4 46 199.6 45.8C200.1 45.4 200.8 44.2 201.8 42C202 41.3 202 40.8 201.8 40.8C201.8 40.5866 201.547 40.6768 201.149 40.8186C200.988 40.8761 200.802 40.9422 200.6 41ZM457.6 52.9C458.1 51.5 458.1 50 457.8 48.6C457.6 47.2 456.8 46.4 455.6 46.4C455.1 46.4 454.4 46.6 453.4 47.1C452.4 47.6 452 48.1 452 48.5C452 49.8 454 51.2 457.6 52.9ZM302 51.5L298.2 59.4C297.2 58.4 295.1 56.8 292 54.9C288.9 52.7001 287.2 51.5 286.7 51.5C286.4 51.5 285.9 52 285.7 52.5L281.1 62.1001C280.9 62.6001 280.9 62.9 281.1 63.1001C285 65.5 288.8 68.1001 292.4 71C292.9 71.3 293.4 71 293.6 70.3C295.1 68.1 296.3 65.5 297.7 62.6C301.8 65.2 305.4 67.6 308.5 70C308.9 70.2 309.4 70.2 309.9 69.5C313 64.2 314.7 60.6 314.7 58.9C314.7 58.4 312.8 57 309.2 54.6C305.4 52 303.5 50.8 303 50.8C302.5 50.8 302.2 51 302 51.5ZM51.5 68L55.3 60.1C55.5 59.6 55.8 59.4 56.3 59.4C56.8 59.4 58.7 60.6 62.5 63.2C66.1 65.6 68 67 68 67.5C68 69.2 66.3 72.7999 63.2 78.1C62.7 78.8 62.2 78.8 61.8 78.6C58.7 76.2 55.1 73.8 51 71.2C49.6 74.1 48.4 76.7 46.9 78.9C46.7 79.6 46.2 79.9 45.7 79.6C42.1 76.7 38.3 74.1 34.4 71.7C34.2 71.5 34.2 71.2 34.4 70.7L39 61.1C39.2 60.6 39.7 60.1 40 60.1C40.5 60.1 42.2 61.3 45.3 63.5C48.4 65.4 50.5 67.1 51.5 68ZM380.5 68.5C378.4 65.1 376 63.7 373.1 63.7C372.8 63.7 372.1 64.4 371.1 66.3C369.9 68.3 369.4 69.5 369.4 69.7C369.4 70.4 369.9 71.4 371.3 72.6C372.8 73.8 373.7 74.5 374.7 74.5C375.4 74.5 375.7 74.2 375.9 74C376.2 73.5 376.4 73.5 376.9 73.5C377.9 73.5 379.1 75.7 381 80.5C382.9 85.1 383.8 88.2 383.6 89.9C383.8 90.9 383.8 91.6 384.3 91.6C384.8 91.6 385.3 90.9 386 89.9C386.7 88.3 387.7 85.4 388.4 81.3C390.1 72.2 391.8 67.6 393.7 67.6C394.6 67.6 395.6 68 396.3 69C397.3 70 397.8 70.7 398 70.7C398.4 70.7 398.9 69.9 399.4 68.5C399.9 67.5 399.9 66.6 399.9 66.1C399.9 65.1 399.5 64.1 398.5 62.7C397.5 61.2 396.3 60.5 395.1 60.5C392.9 60.5 391 62.7 389.1 67C387.4 73.3 386.2 78.1 385.7 81.2C385.7 81.7 385.5 82 385.5 82.2L385.3 82.2C385.3 81.9 385.3 81.7 385.1 81.2C384.3 75.9 382.7 71.6 380.5 68.5ZM192.8 79.3L196.6 71.4C196.8 70.9 197.1 70.7 197.6 70.7C198.1 70.7 200 71.9 203.8 74.5C207.4 76.9 209.3 78.3 209.3 78.8C209.3 80.5 207.6 84.1 204.5 89.4C204 90.1 203.5 90.1 203.1 89.9C200 87.5 196.4 85.1 192.3 82.5C190.9 85.4 189.7 88 188.2 90.2C188 90.9 187.5 91.2 187 90.9C183.4 88 179.6 85.4 175.7 83C175.5 82.8 175.5 82.5 175.7 82L180.3 72.4C180.5 71.9 181 71.4 181.3 71.4C181.8 71.4 183.5 72.6 186.6 74.8C189.7 76.7 191.9 78.4 192.8 79.3ZM320.8 77.4C320.8 81.2 318.9 86.5 315 93C312.6 97.1 309 102.6 304.2 109.8C309 115.3 312.4 120.4 314 124.7C315 127.8 315.7 131.9 315.7 136.5C315.7 138.4 315.2 140.8 314.3 143.9C313.6 146.8 312.6 148.9 311.7 150.4C309.8 153.3 306.7 156.2 301.9 159C296.9 162.4 292.5 164 288.9 164C283.1 164 280.3 159.7 280.3 151C280.3 145.2 281.3 139.5 283.2 134.2C285.1 129.6 288.2 123.6 293.3 115.7C289 111.6 284.4 105.9 279.4 98.7C278.9 98 277.7 96.8 275.8 94.9C274.8 93.9 274.4 92.7 274.4 91.3C274.4 89.1 274.6 86.7 275.1 83.9C275.8 81 276.3 79.8 276.5 79.8C277.2 79.8 279.4 81 283.5 83.6C287.3 86.2 290.5 88.2 292.4 89.8C293.6 90.5 294.1 91.2 294.1 91.2L294.1 91.4C294.1 91.6 293.4 91.9 291.7 91.9C288.6 91.9 286.9 92.1 286.9 92.4C286.9 92.6 287.4 93.1 288.3 94.3C292.1 99.1 296 102.7 300.1 105.6C301.1 104.2 304.4 99.4 309.7 91.2C314.3 84.2 316.9 79.4 318.1 76.6C319.3 73.7 320 72.5 320.5 72.5C320.5 72.5146 320.507 72.5572 320.517 72.6299C320.582 73.0532 320.8 74.4982 320.8 77.4ZM338.2 105.8C339.2 107 339.9 108.6 340.4 110.8C341.6 114.8 344 120.6 347.3 127.7C350.2 134 351.6 137.3 351.6 137.8C351.6 139.8 348.7 142.9 343.2 147.2C338.368 150.791 332.086 154.894 324.355 159.453C325.09 155.007 326.364 149.677 328.2 143.4C328.5 141.9 328.7 140.7 328.7 140C328.7 139.5 328.7 139.3 328.5 139.3C328 139.3 327.5 140.3 326.3 142.7C323.948 149.052 322.218 155.23 321.192 161.297C317.958 163.161 314.494 165.097 310.8 167.1C301.4 172.2 289.7 177.7 275.5 183.7C255.1 192.3 244 197.1 242.1 198.1C236.8 200.5 234.2 202 234.2 202.2C234.2 202.4 234.2 202.4 234.7 202.4C235.7 202.4 238.1 202.1 241.9 201.4C245.5 200.9 254.6 198.8 269 195.4C282.7 192.1 289.9 190.4 290.4 190.4C293 190.4 301.4 186.3 315.8 177.9C317.281 177.07 318.722 176.246 320.125 175.426C320.368 182.676 322.347 188.925 325.9 193.6C330.2 199.6 336.4 202.7 344.6 202.7C354.2 202.7 365.2 197.7 378.2 188.1C386.9 181.6 394.8 174.1 402 165.5C405.1 161.9 407.7 157.3 409.4 151.8C410.9 147.4 411.6 144.1 411.6 141.2L412.1 140.7L412.1 127.5C411.1 128 410.6 128 410.4 128C408 123 405.1 118.9 402 115.3C398.4 111.7 395.3 109.8 392.2 109.8C388.1 109.8 384.3 111.9 380.7 116C376.9 120.8 375.2 126.1 375.2 132.1C375.2 140 381 144.1 392.5 144.1C397.8 144.1 402.1 143.4 405 142.4C405.5 144.1 406 145.8 406 147.2C406 149.4 402.4 153.7 395.4 160.5C387.7 167.7 379.8 173.7 371.6 178.7C361.2 185 352.6 188.1 345.4 188.1C337 188.1 331 185.4 327.2 180.4C325.745 178.218 324.732 175.742 324.159 173.017C336.396 165.544 345.34 158.501 351.1 152C353.1 149.8 354.5 146.7 355.7 142.6C356.6 139 357.1 136.1 357.1 133.7C357.1 128.6 355.6 123.1 353 116.4C351.3 112.6 349.4 108.5 347.7 104.4C350.6 105.1 352.5 105.6 353.2 105.6C353.7 105.6 353.9 105.3 353.9 105.1C353.9 104.6 353.2 103.7 351.5 102C347.5 97.9 343.9 94 340.5 90.2C340 89.7 339.7 89.5 339.5 89.5C339 89.5 338.7 90 338.5 91.2C338 92.4 337.8 94.6 337.3 97.7C336.8 101 336.8 102.7 336.8 103.2C337 103.6 337.5 104.4 338.2 105.8ZM147 101.6C146.3 99.4 145.1 97.5 143.4 96.1C141.5 94.4 139.8 93.7 138.1 93.7C135.5 93.7 133.3 94.2 131.9 95.1C130.9 96.1 130.2 96.8 130.2 97.7C134.3 100.6 138.8 103 144.6 104.4C145.3 104.6 145.8 104.9 146.3 104.9C147 104.9 147.3 104.4 147.3 103.7C147.2 103.3 147.2 102.6 147 101.6ZM438.1 112.5C437.4 112.5 436.4 112.9 435.2 113.9C431.4 117.2 427.6 120.1 423.6 122.1C422.4 122.9 418.3 124.8 412.1 127.9L412.1 141.1C420.5 137.2 427 133.2 430.8 128.6C430.8 139.6 435.6 145.4 445.7 145.4C454.1 145.4 461 140.6 466.3 131C469.5 136.8 473.1 139.9 476.9 139.9C482.7 139.9 487 137.3 489.9 132C492.6 127.6 494 122.6 494 116.6C494 112.7 492.8 109.4 490.9 106.5C490.2 105.5 489.7 105.3 489.2 105.3C488.7 105.3 488.2 106.1 488 107.5C486.6 112 485.6 115.4 485.4 117.3C487.5 120.9 488.5 122.9 488.5 123.1C487.5 124.7 485.4 125.7 482 125.7C479.4 125.7 477 124.7 475.3 123.3C473.4 121.9 472.4 120.2 472.4 118.5C472.4 119 473.1 117.1 474.1 113C474.6 110.9 474.4 109.9 473.4 109.9C472.7 109.9 472 110.3 471 111.3C468.6 115.2 466 119 463.6 123.1C459.7 128.2 454.7 130.8 448.7 130.8C441.2 130.8 437.4 127.9 437.4 122.6C437.4 121.4 437.6 119.9 438.1 118C438.6 116.1 438.8 114.6 438.8 113.9C438.8 113 438.6 112.5 438.1 112.5ZM198.6 120.6C200.1 124 200.8 126.9 200.8 128.8C198.8 131.9 195.2 134.8 190 137.3C188.1 136.6 186.2 135.4 184.5 133.5C182.8 131.8 181.6 130.1 181.1 128.7C182.3 126 184.2 123.2 187.3 119.8C190.5 116.5 192.9 114.8 194.3 114.8C195.5 114.8 196.9 116.8 198.6 120.6ZM311.4 136.4C308.8 131.1 304.2 125.6 298 120.3C295.8 122.5 293.2 126.5 289.8 132.3C286 138.8 284.3 142.9 284.3 145C284.3 147.9 286.2 149.3 290.5 149.3C292.4 149.3 294.8 148.6 297.9 147.4C302.2 145.5 306.3 142.8 309.7 139.5C311.2 138.1 311.6 137.2 311.4 136.4ZM398.5 129.7C394.9 125.1 391.8 123 388.9 123C384.6 123 382.7 124 382.7 126.4C382.7 129.3 385.6 130.7 391.3 130.7C393.33 130.7 395.53 130.274 397.9 129.816C398.099 129.777 398.299 129.739 398.5 129.7ZM94.2 147.2C91.6 145.1 89.7 144.1 88 144.1C85.1 144.1 83.2 147.2 82.5 153.6C82.2 154.5 82.5 155 82.7 155C82.7 155 83.4 154.5 84.4 153.1C85.4 151.9 86.1 151.4 86.6 151.4C87.8 151.4 89 151.9 90.2 153.1C87.3 154 85.2 155 84.2 155.7C81.8 157.6 80.8 160.5 80.8 164.6C80.8 165.6 81.5 170.4 83.2 178.3C84.8 186.2 85.8 193.2 85.8 198.7C85.8 202.1 85.8 204 86 204C86.2 203.7 86.5 203.3 86.7 202.3C87.2 199.2 87.7 196.3 87.7 193.4C87.7 183.5 86.1 173.7 82.7 163.6C83.9 162.4 85.8 161.2 88.9 160.2C91.3 159.4 93.7 158.7 96.1 158C96.3 158 96.8 157.3 97.5 155.6C98.3 153.9 98.7 153 98.5 152.5C98.3 151 96.8 149.1 94.2 147.2ZM424.4 193.3C421.8 194 420.3 194.5 419.8 194.5L419.8 194.3C419.8 194.3 420.8 193.6 422.7 192.4C424.6 191.2 427.5 189.3 431.6 186.2C433.5 184.3 436.4 181.2 440 176.8C442.4 173.9 445 171.3 447.9 169.4C451.5 166.8 454.9 165.6 458.5 165.6C459.2 165.6 460.4 165.8 461.9 166.3C463.1 166.8 464.3 167 465.3 167C467.2 167 468.7 166.3 469.9 164.8C470.6 163.4 471.6 162.2 472.5 160.7C473 159.7 473.7 159.3 474.2 159.3C474.4 159.3 474.4 159.5 474.4 160C474.4 160.5 474.2 161.7 473.7 163.1C473.2 163.8 475.1 164.1 478.7 164.1C479.2 164.1 479.4 164.1 479.4 163.9C479.4 163.9 479.2 162.9 478.7 161.3C478.5 160.8 478.7 160.1 479.4 159.1L479.48 158.964C480.422 157.363 480.808 156.705 481.1 156.9C482.1 157.6 482.5 159.1 482.5 160.7C482.5 162.3 482 164.1 481.3 166C480.6 168.2 479.9 169.4 479.4 169.8C477.7 170.8 475.1 170.5 471.5 168.8C468.6 171.7 465.7 173.4 462.9 173.4C462.2 173.4 461 173.2 459.8 172.7C458.6 172.2 457.6 172 456.9 172C452.1 172 447.1 174.2 442 179L431.2 189.8C429 191.4 426.8 192.6 424.4 193.3ZM30.8 170C40.4 166.6 50.7 162.8 61.8 159C62.1851 158.923 62.4516 158.831 62.6451 158.764C62.9541 158.658 63.077 158.616 63.2 158.8C63.4 158.8 63.4 159.3 63 160C62.3 162.2 61.6 163.4 61.1 163.8C51.5 167.2 40.7 171.2 28.5 176.8C28.9 174.6 29.6 172.4 30.8 170ZM242 174.6C221.9 182.1 202.7 189.3 184.2 196C183 198.4 182.3 200.5 181.7 202.7C204.3 193.3 224.2 185.6 241 179.4C241.5 179 242.2 177.8 243.2 175.6C243.4 174.9 243.4 174.4 243.4 174.4C243.251 174.176 242.935 174.286 242.494 174.439C242.344 174.492 242.178 174.549 242 174.6ZM155.4 184.9L151.6 192.8C150.6 191.9 148.4 190.2 145.4 188.3C142.3 186.1 140.6 184.9 140.1 184.9C139.8 184.9 139.3 185.4 139.1 185.9L134.5 195.5C134.3 196 134.3 196.3 134.5 196.5C138.4 198.9 142.2 201.5 145.8 204.4C146.3 204.7 146.8 204.4 147 203.7C148.5 201.5 149.7 198.9 151.1 196C155.2 198.6 158.8 201 161.9 203.4C162.3 203.6 162.8 203.6 163.3 202.9C166.4 197.6 168.1 194 168.1 192.3C168.1 191.8 166.2 190.4 162.6 188C158.8 185.4 156.9 184.2 156.4 184.2C155.9 184.2 155.6 184.4 155.4 184.9Z" id="Group" fill="#595959" fill-rule="evenodd" stroke="none" clip-path="url(#clip_1)" />
  </g>
</svg>