<?xml version="1.0" encoding="utf-8"?>
<svg width="576.40015px" height="203.2px" viewBox="0 0 576.40015 203.2" version="1.1" xmlns:xlink="http://www.w3.org/1999/xlink" xmlns="http://www.w3.org/2000/svg">
  <defs>
    <path d="M576.4 0L576.4 0L576.4 203.2L0 203.2L0 0L576.4 0Z" id="path_1" />
    <clipPath id="clip_1">
      <use xlink:href="#path_1" clip-rule="evenodd" fill-rule="evenodd" />
    </clipPath>
  </defs>
  <g id="Surah_3_of_114_(modified)">
    <path d="M576.4 0L576.4 0L576.4 203.2L0 203.2L0 0L576.4 0Z" id="Surah_3_of_114_(modified)" fill="none" stroke="none" />
    <path d="M331.2 25C331.2 20.2 330.5 16.4 329 13.2C329 11.5 330.2 7.39999 333.1 1.2C333.3 0.5 333.6 0 333.8 0C334.3 0 334.5 0.5 335 1.2C335.7 2.89999 337.4 7.39999 340.3 14.9C343.4 22.8 345.1 27.6 345.6 29.5C346.1 30.7 346.1 31.9 346.1 32.4C346.1 34.6 344.2 33.4 339.9 28.6C339.4 27.9 339.2 28.4 339.2 29.6C339.2 30.1 340.4 45 342.6 74.7C344.8 104.2 345.7 120.8 345.7 124.6C345.7 135.9 344 146 340.7 154.6C339.7 156.3 339.3 157.5 338.8 158.4C338.1 159.6 337.8 159.6 337.6 158.9C337.4 157.9 337.6 156 337.8 153.4C338.3 149.3 338.5 144.8 338.5 139.7C338.5 134.9 337.3 115.7 334.9 81.9C332.4 48 331.2 29 331.2 25L331.2 25ZM211.6 160.1C211.6 149.1 213.3 139.9 217.1 132.7C218.3 129.8 219.5 128.4 220 128.4C220.2 128.4 220.2 128.6 220.2 129.1C220.2 130.1 220 131.5 219 133.4C216.1 141.1 214.9 148 214.9 154.5C214.9 160.7 216.6 166.5 219.9 171.8C225.4 180.4 234.1 184.8 246.1 184.8C257.1 184.8 270.6 180 286.2 170.4C297.5 163.4 307.3 156.2 315.2 148.8C316.4 147.8 317.1 145.4 317.1 142.1C317.1 136.3 315.9 116.9 313.5 83.8C311.1 50.7 309.9 32 309.9 27.4C309.9 22.8 309.2 19 307.7 15.9C307.7 14.2 309.1 10.1 311.8 3.70001C312.3 3.00002 312.5 2.70001 312.8 2.70001C313 2.70001 313.5 2.90001 313.8 3.70001C314.5 5.60001 316.4 10.2 319.3 17.6C322.2 25.3 323.9 30.3 324.3 32C324.8 33.4 325 34.4 325 35.1C325 37.3 322.8 36.1 318.8 31.3C318.3 30.6 318.1 30.8 318.1 32C318.1 32 319.1 44.7 321 70.2C322.9 95.6 323.9 110.8 323.9 115.6C323.9 129.3 322.7 139.6 320.8 146.8C319.4 152.3 316.7 156.9 313.4 161C308.6 166.8 300.7 173.5 289.9 181.4C272.9 193.4 258.2 199.4 245.5 199.4C232.5 199.4 223.2 194.4 217.4 184.3C213.6 177.4 211.6 169.4 211.6 160.1L211.6 160.1Z" id="Shape" fill="#595959" fill-rule="evenodd" stroke="none" clip-path="url(#clip_1)" />
    <path d="M293.5 49C294.9 48.5 295.9 48.3 296.1 48.8C296.6 49 296.6 50 295.9 51.2L290.9 60.1C290.2 61.1 289.5 61.8 288.3 62.3C265.5 72.4 240.8 83.2 214.4 94.7L214.4 81.5C215.4 81 221.8 78.4 234.1 73.6C228.1 70.5 223.3 66.2 219.2 61.1C214.2 54.4 211.8 46.9 211.8 38.8C211.8 30.6 214.7 23.9 220.4 18.6C226.9 12.6 235 9.70001 244.2 9.70001C250 9.70001 256 10.7 262.2 13.1C267 15 270.8 17.2 274 19.3C276.4 21.5 277.6 22.7 277.6 23.1L277.1 23.1C276.6 23.1 275.4 22.9 274 22.4C269 21 263.2 20.5 256.7 20.5C247.8 20.5 239.2 21.7 230.8 24.1C222.9 26.5 218.6 28.9 218.1 31.3C218.8 37.8 222.7 44.3 228.9 51C236.6 58.9 245 63 253.9 63C257.7 63 263 61.6 270 59.2C277.6 55.7 285.6 52.3 293.5 49L293.5 49Z" id="Shape" fill="#595959" stroke="none" clip-path="url(#clip_1)" />
    <path d="M164.8 132.7L164.8 118.1C171.5 118.1 177.5 114.7 183 108.3C184.2 106.9 186.8 103 190.4 96.5C191.4 95.1 192.1 94.3 193 94.3C193.7 94.3 194 94.5 194.4 94.8C194.2 94.6 194.2 94.3 194.2 94.1C194.2 91 200.9 86.7 213.9 81.4L213.9 94.6C221.8 100.1 225.7 107.1 225.7 115.5C225.7 118.9 224.5 122.5 221.9 126.1C219 130.2 215.7 132.3 212.3 132.3C208.2 132.3 203.9 130.1 199.3 126.1C194 121.8 190.7 116.5 189.2 110.3C183.3 125 175.2 132.7 164.8 132.7L164.8 132.7ZM214.5 114C211.9 109.9 207.3 107.3 200.3 106.3C198.6 106.1 197.7 106.1 197.7 106.5C197.7 106.7 198.2 107.5 198.7 107.9C203.5 114.1 208.3 117 213.3 117C214.7 117 215.7 116.8 215.7 116C215.7 115.7 215.2 115 214.5 114L214.5 114Z" id="Shape" fill="#595959" fill-rule="evenodd" stroke="none" clip-path="url(#clip_1)" />
    <path d="M74.6 170.9C74.6 160.6 76.8 150.3 80.8 139.5C81.8 137.3 82.5 136.1 83 136.1C83.2 136.1 83.2 136.3 83.2 136.8C83.2 137.5 83 138.7 82.5 140.2C79.6 150.8 78.2 158.7 78.2 164.2C78.2 169 79.6 173.6 82.8 177.6C86.4 182.9 91.2 185.3 96.7 185.3C103.4 185.3 111.8 182.7 121.7 177.4C129.6 173.1 137.3 167.8 145.2 161.6C151.9 155.8 156 152 157 149.8C157 141.6 154.6 133 150 123.9C149 122.2 148.6 120.8 148.6 119.8C148.6 119.1 149.6 115.5 151.5 109.5C151.7 108.3 152.2 107.6 152.7 107.6C153.2 107.6 153.7 108.6 154.4 110C155.8 113.1 156.8 114.8 157.5 115.3C158.9 117.2 161.6 117.9 164.9 117.9L164.9 132.5C163.2 132.5 162 132.5 161.3 132C161.3 149.8 158.7 161.8 153.4 167.8C148.1 174.3 140.2 180.8 130.1 187.2C117.4 195.4 106.3 199.4 97.2 199.4C88.8 199.4 82.6 195.8 78.7 188.4C75.8 183.4 74.6 177.4 74.6 170.9L74.6 170.9Z" id="Shape" fill="#595959" stroke="none" clip-path="url(#clip_1)" />
    <path d="M125.7 33.8C125.7 29.2 125 25.4 123.5 22.3C123.5 20.6 124.7 16.5 127.6 10.1C127.8 9.40001 128.1 9.10001 128.3 9.10001C128.8 9.10001 129 9.3 129.5 10.3C130.2 12 131.9 16.5 134.8 24C137.9 31.9 139.6 36.7 140.1 38.4C140.6 39.8 140.8 40.8 140.8 41.5C140.8 43.7 138.6 42.5 134.6 37.7C134.1 37 133.9 37.2 133.9 38.7C133.9 38.9 134.9 52.4 137 78.8C139.2 105.4 140.4 120.3 140.4 124.2C140.4 135.5 138.5 145.6 135.1 154.2C134.4 155.9 133.7 157.1 133.2 158C132.5 159 132.2 159.2 132 158.5C131.8 157.5 131.8 155.6 132.2 152.7C132.7 148.9 132.9 144.3 132.9 139.3C132.9 134.5 131.7 117 129.3 86.3C126.9 55.4 125.7 37.9 125.7 33.8L125.7 33.8ZM119 95C119 104.1 116.8 111.1 112.8 115.9C106.3 123.3 96.7 130.5 84.2 137.7C68.4 146.3 53.7 150.9 39.8 150.9C21.6 150.9 8.80002 141.8 1.90002 123.8C0.500015 120.2 1.52588e-05 115.9 1.52588e-05 110.4C1.52588e-05 106.8 0.200012 103.2 0.700012 99.4C1.70001 93.9 2.90001 89.1 4.30001 85C5.00001 83.8 5.50001 83.1 6.00001 83.1C6.50001 83.1 6.50001 84.1 6.2 85.7C5.50001 88.1 5.00001 90.7 4.50001 93.1C3.50001 97.7 3.10001 101 3.10001 103.2C3.10001 110.6 5.50001 117.4 10.5 123.8C17.2 132 27.1 136.3 39.8 136.3C51.1 136.3 63.1 133.7 75.6 128.4C85.9 124.1 95 118.8 103.2 112.6C110.4 106.8 114.2 102.8 114.2 100.4C114.2 99.9 112.5 96.8 109.4 90.8C105.8 83.8 103.2 76.9 101.5 70.2C100.8 68 99.8 66.6 99.1 65.9C98.1 64.9 97.7 64.2 97.7 63.3C97.7 62.6 98.4 59 99.6 52.5C99.8 51.3 100.1 50.8 100.6 50.8C101.1 50.8 101.6 51 102 51.5C103.9 53.7001 108 57.7001 114 63.7001C115 64.7001 115.4 65.4001 115.4 66.1001C115.4 66.8 114.9 67.1001 113.7 67.1001C112.5 67.1001 110.6 66.6001 107.9 65.9C108.1 66.6001 110.3 70.9 114.1 78.9C117.3 85 119 90.5 119 95L119 95ZM38.6 53.3C38.4 53.1 38.4 52.8 38.6 52.3L43.2 42.7C43.4 42.2 43.9 42 44.2 42C44.7 42 46.8 43.2 50.4 45.6C54.2 48.2 56.2 49.7 56.2 50.2C56.2 51.9 54.5 55.2 51.2 60.5C50.7 61.2 50.5 61.5 50 61.2C46.3 58.3 42.4 55.7 38.6 53.3L38.6 53.3ZM517.6 112.8C518.8 111.8 519.8 111.4 520.5 111.4C521 111.4 521.2 111.9 521.2 112.8C521.2 113.5 521 115 520.5 116.9C520 118.8 519.8 120.3 519.8 121.5C519.8 126.8 523.6 129.7 531.1 129.7C537.1 129.7 542.1 127.1 546 122C548.4 117.9 551 114.1 553.4 110.2C554.4 109.2 555.1 108.8 555.8 108.8C556.8 108.8 557 109.8 556.5 111.9C555.5 116 554.8 117.9 554.8 117.4C554.8 119.1 555.8 120.8 557.7 122.2C559.4 123.6 561.8 124.6 564.4 124.6C567.8 124.6 569.9 123.6 570.9 122C570.9 121.8 569.9 119.8 567.8 116.2C568 114.3 569 110.9 570.4 106.4C570.6 105 571.1 104.2 571.6 104.2C572.1 104.2 572.6 104.4 573.3 105.4C575.2 108.3 576.4 111.6 576.4 115.5C576.4 121.5 575 126.5 572.3 130.9C569.4 136.2 565.1 138.8 559.3 138.8C555.5 138.8 551.9 135.7 548.7 129.9C543.4 139.5 536.5 144.3 528.1 144.3C518 144.3 513.2 138.5 513.2 127.5C509.4 132.1 502.9 136.1 494.5 140L494.5 126.8C500.7 123.7 504.8 121.8 506 121C510 119 513.8 116.2 517.6 112.8L517.6 112.8Z" id="Shape" fill="#595959" fill-rule="evenodd" stroke="none" clip-path="url(#clip_1)" />
    <path d="M480.9 128.6C477.3 124 474.2 121.9 471.3 121.9C467 121.9 465.1 122.9 465.1 125.3C465.1 128.2 468 129.6 473.7 129.6C475.9 129.6 478.3 129.1 480.9 128.6L480.9 128.6ZM488.4 146.2C488.4 144.8 487.9 143.1 487.4 141.4C484.5 142.4 480.2 143.1 474.9 143.1C463.4 143.1 457.6 139 457.6 131.1C457.6 125.1 459.3 119.8 463.1 115C466.7 110.9 470.5 108.8 474.6 108.8C477.7 108.8 480.8 110.7 484.4 114.3C487.5 117.9 490.4 122 492.8 127C493 127 493.5 127 494.5 126.5L494.5 139.7L494 140.2C494 143.1 493.3 146.4 491.8 150.8C490.1 156.3 487.5 160.9 484.4 164.5C477.2 173.1 469.3 180.6 460.6 187.1C447.6 196.7 436.6 201.7 427 201.7C418.8 201.7 412.6 198.6 408.3 192.6C404.5 187.6 402.5 180.8 402.5 172.9C402.5 162.8 404.7 152.5 408.7 141.7C409.9 139.3 410.4 138.3 410.9 138.3C411.1 138.3 411.1 138.5 411.1 139C411.1 139.7 410.9 140.9 410.6 142.4C407.5 153 406 160.9 406 166.4C406 171.4 407.2 175.8 409.6 179.4C413.4 184.4 419.4 187.1 427.8 187.1C435 187.1 443.6 184 454 177.7C462.2 172.7 470.1 166.7 477.8 159.5C484.8 152.6 488.4 148.3 488.4 146.2L488.4 146.2Z" id="Shape" fill="#595959" fill-rule="evenodd" stroke="none" clip-path="url(#clip_1)" />
    <path d="M422.8 109.7C422.3 107.5 421.6 105.9 420.6 104.7C419.9 103.3 419.4 102.5 419.2 102.1C419.2 101.6 419.2 99.9 419.7 96.6C420.2 93.5 420.4 91.3 420.9 90.1C421.1 88.9 421.4 88.4 421.9 88.4C422.1 88.4 422.4 88.6 422.9 89.1C426.3 92.9 429.9 96.8 433.9 100.9C435.6 102.6 436.3 103.5 436.3 104C436.3 104.2 436.1 104.5 435.6 104.5C434.9 104.5 433 104 430.1 103.3C431.8 107.4 433.7 111.5 435.4 115.3C438 122 439.5 127.5 439.5 132.6C439.5 135 439 137.9 438.1 141.5C436.9 145.6 435.5 148.7 433.5 150.9C426.5 158.8 414.8 167.5 398.2 176.8C383.8 185.2 375.4 189.3 372.8 189.3C372.3 189.3 365.1 191 351.4 194.3C337 197.7 327.9 199.8 324.3 200.3C320.5 201 318.1 201.3 317.1 201.3C316.6 201.3 316.6 201.3 316.6 201.1C316.6 200.9 319.2 199.4 324.5 197C326.4 196 337.5 191.2 357.9 182.6C372.1 176.6 383.8 171.1 393.2 166C407.4 158.3 418.2 151.6 425.6 146.1C431.1 141.8 434 138.7 434 136.7C434 136.2 432.6 132.9 429.7 126.6C426.4 119.5 424 113.8 422.8 109.7L422.8 109.7Z" id="Shape" fill="#595959" stroke="none" clip-path="url(#clip_1)" />
    <path d="M403.2 76.3C403.2 80.1 401.3 85.4 397.4 91.9C395 96 391.4 101.5 386.6 108.7C391.4 114.2 394.8 119.3 396.4 123.6C397.4 126.7 398.1 130.8 398.1 135.4C398.1 137.3 397.6 139.7 396.7 142.8C396 145.7 395 147.8 394.1 149.3C392.2 152.2 389.1 155.1 384.3 157.9C379.3 161.3 374.9 162.9 371.3 162.9C365.5 162.9 362.7 158.6 362.7 149.9C362.7 144.1 363.7 138.4 365.6 133.1C367.5 128.5 370.6 122.5 375.7 114.6C371.4 110.5 366.8 104.8 361.8 97.6C361.3 96.9 360.1 95.7 358.2 93.8C357.2 92.8 356.8 91.6 356.8 90.2C356.8 88 357 85.6 357.5 82.8C358.2 79.9 358.7 78.7 358.9 78.7C359.6 78.7 361.8 79.9 365.9 82.5C369.7 85.1 372.9 87.1 374.8 88.7C376 89.4 376.5 90.1 376.5 90.1L376.5 90.3C376.5 90.5 375.8 90.8 374.1 90.8C371 90.8 369.3 91 369.3 91.3C369.3 91.5 369.8 92 370.7 93.2C374.5 98 378.4 101.6 382.5 104.5C383.5 103.1 386.8 98.3 392.1 90.1C396.7 83.1 399.3 78.3 400.5 75.5C401.7 72.6 402.4 71.4 402.9 71.4C402.9 71.5 403.2 73 403.2 76.3L403.2 76.3ZM393.8 135.4C391.2 130.1 386.6 124.6 380.4 119.3C378.2 121.5 375.6 125.5 372.2 131.3C368.4 137.8 366.7 141.9 366.7 144C366.7 146.9 368.6 148.3 372.9 148.3C374.8 148.3 377.2 147.6 380.3 146.4C384.6 144.5 388.7 141.8 392.1 138.5C393.6 137 394 136.1 393.8 135.4L393.8 135.4ZM380.4 58.3L384.2 50.4C384.4 49.9 384.7 49.7 385.2 49.7C385.7 49.7 387.6 50.9 391.4 53.5C395 55.9 396.9 57.3 396.9 57.8C396.9 59.5 395.2 63.1 392.1 68.4C391.6 69.1 391.1 69.1 390.7 68.9C387.6 66.5 384 64.1 379.9 61.5C378.5 64.4 377.3 67 375.8 69.2C375.6 69.9 375.1 70.2 374.6 69.9C371 67 367.2 64.4 363.3 62C363.1 61.8 363.1 61.5 363.3 61L367.9 51.4C368.1 50.9 368.6 50.4 368.9 50.4C369.4 50.4 371.1 51.6 374.2 53.8C377.2 55.7 379.4 57.4 380.4 58.3L380.4 58.3ZM506.8 192.2C504.2 192.9 502.7 193.4 502.2 193.4L502.2 193.2C502.2 193.2 503.2 192.5 505.1 191.3C507 190.1 509.9 188.2 514 185.1C515.9 183.2 518.8 180.1 522.4 175.7C524.8 172.8 527.4 170.2 530.3 168.3C533.9 165.7 537.3 164.5 540.9 164.5C541.6 164.5 542.8 164.7 544.3 165.2C545.5 165.7 546.7 165.9 547.7 165.9C549.6 165.9 551.1 165.2 552.3 163.7C553 162.3 554 161.1 554.9 159.6C555.4 158.6 556.1 158.2 556.6 158.2C556.8 158.2 556.8 158.4 556.8 158.9C556.8 159.4 556.6 160.6 556.1 162C555.6 162.7 557.5 163 561.1 163C561.6 163 561.8 163 561.8 162.8C561.8 162.8 561.6 161.8 561.1 160.2C560.9 159.7 561.1 159 561.8 158C562.8 156.3 563.2 155.6 563.5 155.8C564.5 156.5 564.9 158 564.9 159.6C564.9 161.3 564.4 163 563.7 164.9C563 167.1 562.3 168.3 561.8 168.7C560.1 169.7 557.5 169.4 553.9 167.7C551 170.6 548.1 172.3 545.3 172.3C544.6 172.3 543.4 172.1 542.2 171.6C541 171.1 540 170.9 539.3 170.9C534.5 170.9 529.5 173.1 524.4 177.9L513.6 188.7C511.4 190.3 509.2 191.5 506.8 192.2L506.8 192.2ZM455.5 62.6C458.4 62.6 460.8 64 462.9 67.4C465.1 70.5 466.7 74.8 467.5 80.1C467.7 80.6 467.7 80.8 467.7 81.1L467.9 81.1C467.9 80.9 468.1 80.6 468.1 80.1C468.6 77 469.8 72.2 471.5 65.9C473.4 61.6 475.3 59.4 477.5 59.4C478.7 59.4 479.9 60.1 480.9 61.6C481.9 63 482.3 64 482.3 65C482.3 65.5 482.3 66.4 481.8 67.4C481.3 68.8 480.8 69.6 480.4 69.6C480.2 69.6 479.7 68.9 478.7 67.9C478 66.9 477 66.5 476.1 66.5C474.2 66.5 472.5 71.1 470.8 80.2C470.1 84.3 469.1 87.2 468.4 88.8C467.7 89.8 467.2 90.5 466.7 90.5C466.2 90.5 466.2 89.8 466 88.8C466.2 87.1 465.3 84 463.4 79.4C461.5 74.6 460.3 72.4 459.3 72.4C458.8 72.4 458.6 72.4 458.3 72.9C458.1 73.1 457.8 73.4 457.1 73.4C456.1 73.4 455.2 72.7 453.7 71.5C452.3 70.3 451.8 69.3 451.8 68.6C451.8 68.4 452.3 67.2 453.5 65.2C454.5 63.4 455.2 62.6 455.5 62.6L455.5 62.6ZM414.7 59.5C438.9 50.4 464.1 41.3 490.1 31.7C490.8 31.5 491.3 31.2 491.3 31.5C491.5 31.5 491.5 32 491.3 32.7C490.3 34.9 489.6 36.1 489.1 36.5C488.9 36.7 476.6 41.3 452.9 50.2C428.7 59.1 415 64.6 412.3 66.3C412.8 64.1 413.5 61.9 414.7 59.5L414.7 59.5ZM391.2 15.6C391.7 14.2 391.7 12.7 391.4 11.3C391.2 9.90001 390.4 9.10001 389.2 9.10001C388.7 9.10001 388 9.3 387 9.8C386 10.3 385.6 10.8 385.6 11.2C385.6 12.5 387.6 13.9 391.2 15.6L391.2 15.6ZM388.3 21.8C383.7 19.4 381.6 17 381.6 14.4C381.6 11.3 383 8.40001 385.9 6.00002C388.8 3.40001 391.2 2.40001 393.1 3.10002C394.8 3.60002 395.5 5.30002 395.5 8.10002C395.5 10.7 395 13.6 393.8 17C396.2 18.2 397.6 19.4 398.1 20.4C398.1 21.6 397.1 23.8 395 26.6C394.5 25.6 393.1 24.4 390.9 23.2C388.3 26.8 385.1 29.9 381.3 32.8C376.7 35.9 372.7 38.6 369.1 40C368.1 40.5 363.8 42.2 356.1 45C354.9 45.5 353.9 45.7 353.7 45.7C353.5 45.7 353.5 45.5 353.5 45.5C353.5 45.3 354 44.5 355.4 43.8C361.2 40.2 366.9 36.8 372.9 33.5C379.9 29.3 384.9 25.4 388.3 21.8L388.3 21.8ZM540 51.8C540.5 50.4 540.5 48.9 540.2 47.5C540 46.1 539.2 45.3 538 45.3C537.5 45.3 536.8 45.5 535.8 46C534.8 46.5 534.4 47 534.4 47.4C534.4 48.7 536.4 50.2 540 51.8L540 51.8ZM545.2 60.7C542.8 66.5 541.6 71 541.6 74.4C541.6 78.5 542.6 80.6 544.7 80.6C545.9 80.6 547.3 78.9 549 76C549.2 75.8 549.2 75.5 549.5 75.3C549.5 75.3 549.7 75.3 549.7 75.5L549.7 76.2C548.3 83.4 546.1 87 543.2 87C540.1 87 538.6 84.4 538.6 79.1C538.6 76.5 539.1 73.1 540.5 68.8C541.9 64.5 542.7 62.3 542.7 62.1C542.7 61.6 541.7 60.7 539.6 59.5C535.8 64.5 530.5 69.3 523.8 73.4C519.2 76 514.7 78.4 509.9 80.4C501 84 495.7 85.9 494.5 86.6C493.3 87.1 492.6 87.3 492.1 87.3C491.9 87.3 491.9 87.1 491.9 87.1C491.9 86.6 492.4 86.1 493.8 85.2C501.5 80.9 508.9 76.6 516.6 72.2C526.7 66.4 533.6 61.6 537 58C532.4 55.6 530.3 53.2 530.3 50.6C530.3 47.5 531.7 44.6 534.6 42C537.5 39.6 539.9 38.6 541.8 39.4C543.2 39.9 544.2 41.6 544.2 44.4C544.2 47 543.7 49.9 542.5 53C544.9 54.4 545.9 55.9 545.9 57.3C546 58.1 545.7 59.3 545.2 60.7L545.2 60.7ZM432.9 29C432.9 28.8 433.1 28.5 433.1 28.5C433.3 28.3 433.3 28.3 433.3 28.5C433.5 28.7 433.5 29 433.3 29.2C432.1 36.4 429.9 40 426.8 40C423.7 40 422.2 37.4 422.2 32.1C422.2 25.6 423.9 18.7 427.7 11.7C428.7 10 429.1 9.09999 429.4 9.09999C429.4 9.29999 429.2 10.3 428.7 12C426.3 19.4 425.1 24.5 425.1 27.6C425.1 31.4 426.1 33.6 428.2 33.6C429.8 33.6 431.2 31.9 432.9 29L432.9 29ZM153.8 53.5C167.5 48.7 181.9 43.4 197 37.9C198 37.7 198.2 37.4 198.4 37.7C198.6 37.7 198.6 38.2 198.2 38.9C197.5 41.1 196.8 42.3 196.3 42.7C183.3 47.3 168.5 53 151.4 60.2C151.9 58.1 152.6 55.9 153.8 53.5L153.8 53.5ZM177.8 85.4C177.8 84.2 175.4 82 170.4 79.2C168.7 82.1 168 84.7 168 87.1C168 88.5 168.7 89.5 170.2 89.5C171.4 89.5 172.8 89 174.5 88.1C176.1 87.4 177.3 86.4 177.8 85.4L177.8 85.4ZM172.5 66.2C173.2 65 174.2 64.5 174.9 64.5C175.4 64.5 175.9 64.7 175.9 65.2C175.9 65.2 175.7 65.4 175.7 65.7C174.7 67.9 173.8 70.3 173.1 72.7C178.1 76.3 180.5 80.1 180.3 83.7C179.8 87.8 179.3 90.4 178.6 91.4C176.2 94.3 173.6 96 170.2 96C166.8 96 165.4 93.8 165.4 90C165.4 89.3 165.4 88.3 165.6 87.4C166.8 79.7 169.2 72.7 172.5 66.2L172.5 66.2ZM235.4 106.8C253.9 100.1 273.1 92.9 293.2 85.4C293.9 85.2 294.4 84.9 294.6 85.2C294.6 85.2 294.6 85.7 294.4 86.4C293.4 88.6 292.7 89.8 292.2 90.2C275.4 96.4 255.5 104.1 232.9 113.5C233.5 111.4 234.2 109.2 235.4 106.8L235.4 106.8ZM72.9 30.7C82.5 27.3 92.8 23.5 103.9 19.7C104.9 19.5 105.1 19.2 105.3 19.5C105.5 19.5 105.5 20 105.1 20.7C104.4 22.9 103.7 24.1 103.2 24.5C93.6 27.9 82.8 31.9 70.6 37.5C71 35.3 71.7 33.1 72.9 30.7L72.9 30.7ZM12.4 73.2C12.4 73 12.6 72.7 12.6 72.7C12.8 72.5 12.8 72.5 12.8 72.7C13 72.9 13 73.2 12.8 73.4C11.6 80.6 9.4 84.2 6.3 84.2C3.2 84.2 1.7 81.6 1.7 76.3C1.7 69.8 3.4 62.9 7.2 55.9C8.2 54.2 8.60001 53.3 8.9 53.3C8.9 53.5 8.7 54.5 8.2 56.2C5.8 63.6 4.60001 68.7 4.60001 71.8C4.60001 75.6 5.60001 77.8 7.70001 77.8C9.3 77.8 10.8 76.1 12.4 73.2L12.4 73.2ZM165.6 3.40001C168.5 3.40001 170.9 4.8 173 8.20001C175.2 11.3 176.8 15.6 177.6 20.9C177.8 21.4 177.8 21.6 177.8 21.9L178 21.9C178 21.7 178.2 21.4 178.2 20.9C178.7 17.8 179.9 13 181.6 6.70001C183.5 2.40001 185.4 0.200012 187.6 0.200012C188.8 0.200012 190 0.900009 191 2.40001C192 3.8 192.4 4.8 192.4 5.8C192.4 6.3 192.4 7.2 191.9 8.2C191.4 9.59999 190.9 10.4 190.5 10.4C190.3 10.4 189.8 9.7 188.8 8.7C188.1 7.7 187.1 7.3 186.2 7.3C184.3 7.3 182.6 11.9 180.9 21C180.2 25.1 179.2 28 178.5 29.6C177.8 30.6 177.3 31.3 176.8 31.3C176.3 31.3 176.3 30.6 176.1 29.6C176.3 27.9 175.4 24.8 173.5 20.2C171.6 15.4 170.4 13.2 169.4 13.2C168.9 13.2 168.7 13.2 168.4 13.7C168.2 13.9 167.9 14.2 167.2 14.2C166.2 14.2 165.3 13.5 163.8 12.3C162.4 11.1 161.9 10.1 161.9 9.40002C161.9 9.20003 162.4 8.00003 163.6 6.00003C164.6 4.10004 165.3 3.40002 165.6 3.40002L165.6 3.40001ZM112.5 157.9C112.5 157.7 112.7 157.4 112.7 157.4C112.9 157.2 112.9 157.2 112.9 157.4C113.1 157.6 113.1 157.9 112.9 158.1C111.7 165.3 109.5 168.9 106.4 168.9C103.3 168.9 101.8 166.3 101.8 161C101.8 154.5 103.5 147.6 107.3 140.6C108.3 138.9 108.7 138 109 138C109 138.2 108.8 139.2 108.3 140.9C105.9 148.3 104.7 153.4 104.7 156.5C104.7 160.3 105.7 162.5 107.8 162.5C109.4 162.5 110.8 160.8 112.5 157.9L112.5 157.9ZM43.4 86.2C46.3 86.2 48.7 87.6 50.8 91C53 94.1 54.6 98.4 55.4 103.7C55.6 104.2 55.6 104.4 55.6 104.7L55.8 104.7C55.8 104.5 56 104.2 56 103.7C56.5 100.6 57.7 95.8 59.4 89.5C61.3 85.2 63.2 83 65.4 83C66.6 83 67.8 83.7 68.8 85.2C69.8 86.6 70.2 87.6 70.2 88.6C70.2 89.1 70.2 90 69.7 91C69.2 92.4 68.7 93.2 68.3 93.2C68.1 93.2 67.6 92.5 66.6 91.5C65.9 90.5 64.9 90.1 64 90.1C62.1 90.1 60.4 94.7 58.7 103.8C58 107.9 57 110.8 56.3 112.4C55.6 113.4 55.1 114.1 54.6 114.1C54.1 114.1 54.1 113.4 53.9 112.4C54.1 110.7 53.2 107.6 51.3 103C49.4 98.2 48.2 96 47.2 96C46.7 96 46.5 96 46.2 96.5C46 96.7 45.7 97 45 97C44 97 43.1 96.3 41.6 95.1C40.2 93.9 39.7 92.9 39.7 92.2C39.7 92 40.2 90.8 41.4 88.8C42.4 86.9 43.2 86.2 43.4 86.2L43.4 86.2ZM331.9 169.7C331.9 172.3 330.7 175.2 328.8 178.3C326.6 181.4 324 184.3 320.6 186.7C319.2 187.7 318.4 188.1 318.2 188.1L318.2 187.9C318.2 187.7 318.7 187.2 319.6 186C325.1 180 328 176.2 328 174C328 172.3 327 171.4 325.4 171.4C324.4 171.4 323.5 171.6 322.8 172.1C322.1 172.3 321.8 172.6 321.6 172.6C321.6 172.6 321.4 172.6 321.4 172.4C321.4 172.4 321.4 171.9 321.6 171C322.6 166.9 324.5 165 327.8 165C330.4 164.9 331.9 166.6 331.9 169.7L331.9 169.7ZM184.5 143.3C186.2 143.3 188.1 144.3 190.7 146.4C193.3 148.3 194.8 150.2 195 151.7C195.2 152.2 194.8 153.1 194 154.8C193.3 156.5 192.8 157.2 192.6 157.2C190.2 157.9 187.8 158.6 185.4 159.4C182.3 160.4 180.4 161.6 179.2 162.8C182.6 172.9 184.2 182.7 184.2 192.6C184.2 195.5 183.7 198.4 183.2 201.5C183 202.5 182.7 202.9 182.5 203.2C182.3 203.2 182.3 201.3 182.3 197.9C182.3 192.4 181.3 185.4 179.7 177.5C178 169.6 177.3 164.8 177.3 163.8C177.3 159.7 178.3 156.8 180.7 154.9C181.7 154.2 183.8 153.2 186.7 152.3C185.5 151.1 184.3 150.6 183.1 150.6C182.6 150.6 181.9 151.1 180.9 152.3C179.9 153.7 179.2 154.2 179.2 154.2C179 154.2 178.7 153.7 179 152.8C179.7 146.4 181.6 143.3 184.5 143.3L184.5 143.3ZM275.7 152.2C280.5 152.2 285.5 151.2 291.3 149.6C292.7 149.1 293.5 149.1 293.5 149.4C293.5 149.6 293 150.1 291.8 151.1C287 155.4 280.5 157.8 272.8 157.8C270.6 157.8 268.5 157.1 267 155.9C265.6 154.7 264.8 153 264.8 151.1C264.8 146.1 267 140.8 271.3 135.3C267.5 134.1 265.5 132.2 265.5 129.3C265.5 126.7 266.9 123.8 270.1 120.4C273.2 117 275.6 115.4 277.5 115.4C278 115.4 278.5 115.6 278.9 116.6C279.4 117.3 279.6 118 279.6 119C279.6 119.5 279.1 120.4 278.2 121.9C277.2 123.3 276.5 123.8 276.5 123.6C276 122.2 275.3 121.4 273.9 121.4C273.2 121.4 272.5 121.9 271.5 123.1C270.3 124.3 269.8 125.3 269.8 126C271 127.9 273.2 129.1 276 129.1C277 129.1 278.6 128.1 280.6 126.2C282 125.2 283.2 124 284.4 122.8C284.9 122.6 285.1 122.8 285.1 123.8C285.1 126.2 284.1 128.4 282.7 130.8C276.2 135.1 271.4 140.2 268.3 145.7C267.8 146.9 267.6 147.9 267.6 148.6C267.8 150.7 270.4 152.2 275.7 152.2L275.7 152.2ZM247.9 144C247.9 146.6 246.7 149.5 244.8 152.6C242.6 155.7 240 158.6 236.6 161C235.2 162 234.4 162.4 234.2 162.4L234.2 162.2C234.2 162 234.7 161.5 235.6 160.3C241.1 154.3 244 150.5 244 148.3C244 146.6 243 145.7 241.4 145.7C240.4 145.7 239.5 145.9 238.8 146.4C238.1 146.6 237.8 146.9 237.6 146.9C237.6 146.9 237.4 146.9 237.4 146.7C237.4 146.7 237.4 146.2 237.6 145.3C238.6 141.2 240.5 139.3 243.8 139.3C246.4 139.2 247.9 140.9 247.9 144L247.9 144ZM56.6 164.4C56.6 167 55.4 169.9 53.5 173C51.3 176.1 48.7 179 45.3 181.4C43.9 182.4 43.1 182.8 42.9 182.8L42.9 182.6C42.9 182.4 43.4 181.9 44.3 180.7C49.8 174.7 52.7 170.9 52.7 168.7C52.7 167 51.7 166.1 50.1 166.1C49.1 166.1 48.2 166.3 47.5 166.8C46.8 167 46.5 167.3 46.3 167.3C46.3 167.3 46.1 167.3 46.1 167.1C46.1 167.1 46.1 166.6 46.3 165.7C47.3 161.6 49.2 159.7 52.5 159.7C55.2 159.6 56.6 161.3 56.6 164.4L56.6 164.4ZM297.6 5.8C297.6 8.40001 296.4 11.3 294.5 14.4C292.3 17.5 289.7 20.4 286.3 22.8C284.9 23.8 284.1 24.2 283.9 24.2L283.9 24C283.9 23.8 284.4 23.3 285.3 22.1C290.8 16.1 293.7 12.3 293.7 10.1C293.7 8.40001 292.7 7.5 291.1 7.5C290.1 7.5 289.2 7.7 288.5 8.2C287.8 8.39999 287.5 8.7 287.3 8.7C287.3 8.7 287.1 8.7 287.1 8.5C287.1 8.5 287.1 8 287.3 7.10001C288.3 3 290.2 1.10001 293.5 1.10001C296.1 1 297.6 2.60001 297.6 5.8L297.6 5.8Z" id="Shape" fill="#595959" fill-rule="evenodd" stroke="none" clip-path="url(#clip_1)" />
  </g>
</svg>