<?xml version="1.0" encoding="utf-8"?>
<svg width="499.2001px" height="205.00006px" viewBox="0 0 499.2001 205.00006" version="1.1" xmlns:xlink="http://www.w3.org/1999/xlink" xmlns="http://www.w3.org/2000/svg">
  <defs>
    <path d="M499.2 0L499.2 0L499.2 205L0 205L0 0L499.2 0Z" id="path_1" />
    <clipPath id="clip_1">
      <use xlink:href="#path_1" clip-rule="evenodd" fill-rule="evenodd" />
    </clipPath>
  </defs>
  <g id="Surah_87_of_114_(modified)">
    <path d="M499.2 0L499.2 0L499.2 205L0 205L0 0L499.2 0Z" id="Surah_87_of_114_(modified)" fill="none" stroke="none" />
    <path d="M199.9 0C199.2 0 198.2 0.5 197.5 1.7C194.1 8.2 191.7 15.1 190.6 22.9C190.4 23.8 190.4 24.8 190.4 25.5C190.4 29.3 191.8 31.5 195.2 31.5C198.6 31.5 201.2 29.8 203.6 26.9C204.3 25.9 204.8 23.3 205.3 19.2C205.5 15.6 203.1 11.8 198.1 8.2C198.8 5.8 199.7 3.39999 200.7 1.2C200.7 0.899994 200.9 0.699997 200.9 0.699997C200.9 0.199997 200.4 0 199.9 0ZM145.6 14.9C146.3 14.2 146.8 13 147.3 10.8C147.6 9.89999 147.6 9.39999 147.3 9.5C147.083 9.28346 146.659 9.48372 145.988 9.79996C145.729 9.92182 145.434 10.0609 145.1 10.2C143.6 11.2 142.4 12.1 141 13.1C138.9 14.3 137.4 14.8 136.7 14.8C135.7 14.8 134.5 14.6 133.1 13.6C131.6 12.8 130.9 12.1 130.9 11.4C130.9 10.9 131.6 10.2 132.8 9.5C134 8.5 135 8.3 135.7 8.3C136.9 8.3 137.8 8.8 138.3 10C138.8 10.7 139.1 10.7 139.3 10.2C140.5 8.29999 141 6.79999 141 5.39999C141 2.99998 140.1 1.79999 137.9 1.79999C135.5 1.79999 132.4 3.99998 128.8 8.29999C126.9 10.5 126.2 12.6 126.2 14.8C126.2 16.7 127.9 18.4 131.5 19.6C128.6 21.7 127.1 23.2 126.9 23.9L126.4 27C126.4 27.5 126.4 27.5 126.6 27.7C127.1 27.2 127.6 26.9 127.8 26.7C137 20.4 143 16.6 145.6 14.9ZM252.7 18.9C254.2 22.1 254.9 25.9 254.9 30.7C254.9 34.8 256.1 53.8 258.6 87.6C261 121.4 262.2 140.6 262.2 145.4C262.2 150.5 262 155 261.5 159.1C261.471 159.479 261.442 159.844 261.414 160.193C261.25 162.235 261.129 163.746 261.3 164.6C261.5 165.3 261.8 165.3 262.5 164.1C263 163.2 263.4 162 264.4 160.3C267.7 151.7 269.4 141.6 269.4 130.3C269.4 126.5 268.5 109.9 266.3 80.4C264.1 50.7 262.9 35.8 262.9 35.3C262.9 34.1 263.1 33.6 263.6 34.3C267.9 39.1 269.8 40.3 269.8 38.1C269.8 37.6 269.8 36.4 269.3 35.2C268.8 33.3 267.1 28.5 264 20.6C261.1 13.1 259.4 8.59999 258.7 6.89999C258.2 6.2 258 5.7 257.5 5.7C257.3 5.7 257 6.2 256.8 6.89999C253.9 13.1 252.7 17.2 252.7 18.9ZM304.3 18.1C304.3 20.7 306.4 23.1 311 25.5C307.7 29.1 302.6 32.9 295.6 37.2C289.6 40.5 283.9 43.9 278.1 47.5C276.7 48.2 276.2 49 276.2 49.2C276.2 49.2 276.2 49.4 276.4 49.4C276.6 49.4 277.6 49.2 278.8 48.7C286.5 45.9 290.8 44.2 291.8 43.7C295.4 42.3 299.4 39.6 304 36.5C307.8 33.6 311 30.5 313.6 26.9C315.8 28.1 317.2 29.3 317.7 30.3C319.8 27.5 320.8 25.3 320.8 24.1C320.3 23.1 318.9 21.9 316.5 20.7C317.7 17.3 318.2 14.4 318.2 11.8C318.2 9.00002 317.5 7.30002 315.8 6.80002C313.9 6.10001 311.5 7.10001 308.6 9.70001C305.7 12.1 304.3 15 304.3 18.1ZM359 28.8C359 28.8 358.8 29.1 358.8 29.3C357.1 32.2 355.7 33.9 354.1 33.9C352 33.9 351 31.7 351 27.9C351 24.8 352.2 19.7 354.6 12.3C355.1 10.6 355.3 9.59999 355.3 9.39999C355 9.39999 354.6 10.3 353.6 12C349.8 19 348.1 25.9 348.1 32.4C348.1 37.7 349.6 40.3 352.7 40.3C355.8 40.3 358 36.7 359.2 29.5C359.4 29.3 359.4 29 359.2 28.8C359.2 28.7093 359.2 28.6597 359.181 28.6513C359.159 28.6411 359.109 28.6907 359 28.8ZM232.6 26.9C233.5 29.6 234 32 234 33.9C234 38.2 235.7 56.2 239.6 88.4999C243.5 120.4 245.4 141.3 245.4 151.1C245.4 155.6 242 161.4 235.8 168.1C231 173.3 226.4 177.4 221.6 180.3C206.9 189.5 196.4 195.7 189.9 199.3C188.5 200.2 188 201 188 201.2C188 201.7 188.7 201.7 189.9 201.7C193.2 201.2 198.5 200.2 205.7 198.3C212.7 196.4 217.7 194.9 220.6 193.5C228.1 190.2 234.8 184.4 240.8 176C248.3 165.7 252.1 152.3 252.1 136.2C252.1 128.7 250.4 111.4 247.3 84.8C244.1 58.1 242.7 42.5 242.7 38.2C242.7 37 242.9 36.5 243.4 37C247.4 41.8 249.6 43 249.6 41.1C249.6 40.3 249.4 39.4 248.9 37.7C248.2 35.5 246.1 30.7 242.7 23.5C239.6 17 237.5 13 236.5 10.8C236 9.99998 235.5 9.79999 235.3 9.79999C235 9.79999 234.8 9.99998 234.3 11C234 11.5 233.6 13.4 232.6 16.8C231.7 20.2 231.2 22.1 231.2 22.6C231.2 22.8 231.6 24.3 232.6 26.9ZM314.1 14.9C314.4 16.3 314.4 17.8 313.9 19.2C310.3 17.5 308.4 16.1 308.3 14.8C308.3 14.4 308.7 13.9 309.7 13.4C310.7 12.9 311.4 12.7 311.9 12.7C313.1 12.7 313.9 13.5 314.1 14.9ZM79.7 33.1C79.7 32.9 79.9 32.6 79.9 32.6C80.0095 32.4905 80.0589 32.4411 80.0814 32.4513C80.1 32.4597 80.1 32.5093 80.1 32.6C80.3 32.8 80.3 33.1 80.1 33.3C78.9 40.5 76.7 44.1 73.6 44.1C70.5 44.1 69 41.5 69 36.2C69 29.7 70.7 22.8 74.5 15.8C75.5 14.1 75.9 13.2 76.2 13.2C76.2 13.4 76 14.4 75.5 16.1C73.1 23.5 71.9 28.6 71.9 31.7C71.9 35.5 72.9 37.7 75 37.7C76.5 37.7 78 36 79.7 33.1ZM195.4 14.7C200.4 17.5 202.8 19.7 202.8 20.9C202.3 21.9 201.1 22.8 199.5 23.6C197.8 24.5 196.4 25 195.2 25C193.7 25 193 24 193 22.6C193 20.2 193.7 17.6 195.4 14.7ZM128.183 137.597C125.765 135.986 123.431 134.114 121.2 132C116.6 127.5 113.7 117.4 112.9 101.9C111.9 86.5001 111.2 71.2001 110.5 55.8001C109.8 47.0001 108.8 39.5001 107.4 32.8001C106.9 30.2001 106 26.8001 105 23.2001C104.7 22.0001 104.2 21.5001 104 21.5001C103.7 21.5001 103.2 21.9001 103 22.9001C102.5 24.1001 101.5 28.2001 100.1 35.6001C101.3 38.9001 102.5 48.5001 103.7 63.9001C105.1 78.3 105.6 90.7 105.6 101.3C105.6 107.8 102 113.5 94.8 118.8C90.5 121.9 83.5 125.3 73.9 129.1C68.4 131.2 65.5 132.7 65.5 132.9L66.2168 133.1L65.5 133.1C64.5 136.4 64 138.8 63.8 140.5C63.4 142.2 64.1 143.4 66 144.1C73.4 146.2 81.1 148.4 88.8 150.3C99.8 153.4 105.6 155.6 105.6 157C105.6 158 101.6 161.1 93.4 165.9C84.3 171.4 74.9 176 65.8 179.8C53.5 184.6 43.5 187 35.3 187C24.2 187 16.1 183.4 10.8 176.2C6.69998 170.9 4.79999 164.2 4.79999 156.5C4.79999 147.9 7.7 136.9 13.9 123.9C14.1518 123.217 14.3777 122.585 14.5638 122.024C16.2894 120.468 17.5788 117.227 18.4 112.3C18.6 112.1 18.6 111.8 18.4 111.6C18.4 111.509 18.4 111.46 18.3814 111.451C18.3589 111.441 18.3093 111.491 18.2 111.6C18.2 111.6 18 111.9 18 112.1C16.3 115 14.9 116.7 13.3 116.7C11.2 116.7 10.2 114.5 10.2 110.7C10.2 107.6 11.4 102.5 13.8 95.1C14.3 93.4 14.5 92.4 14.5 92.2C14.2 92.2 13.8 93.1 12.8 94.8C8.99998 101.8 7.29999 108.7 7.29999 115.2C7.29999 120.2 8.63472 122.797 11.3881 123.075C3.7632 135.04 0 149.378 0 165.4C0 175.7 2.40001 183.9 7.2 190.3C12.9 198 21.6 201.8 33.1 201.8C41.5 201.8 53.2 198.5 68.1 191.5C82.5 185.2 93.1 178.7 100.3 172.5C103.9 169.1 106.7 165.3 108.9 160.5C110.8 156.6 111.8 153.3 111.8 150.4C111.8 146.6 109.6 143.5 105.3 141.3C102.816 139.795 97.4422 137.949 89.3919 135.593C96.3694 131.181 101.969 124.425 106.3 115.6C107 124.9 108.2 131.7 110.1 135.5C112.5 140.8 115.9 145.1 120.2 148.2C123.1 150.4 127.6 152.8 133.4 155.2L133.4 154.829L133.5 155.3C135.9 156.2 139.3 156.7 144.1 156.7C153.4 156.7 162.8 154.1 171.9 148.8C177.4 145.9 184.1 140.9 192.5 133.9C194.7 129.9 196.3 126 197.3 122.9C198 121.5 197.7 120.7 197.1 120.9C196.6 120.9 195.9 121.3 194.7 122.3C189.5 126.8 183.7 130.9 177.7 134.5C170 138.8 163.8 141 159 141C149.8 141 142.2 137 136.4 128.8C131.6 122.1 129.2 115.2 129 108.2C132.4 105.5 137.2 103.1 143.9 101.2C150.8 99.3 157.3 98.3 163.8 98.3C168.1 98.3 173.1 99.2 178.9 101.4C180.4 101.9 181.6 102.1 182.3 102.1C182.8 102.1 183 101.8 183 101.6C183 101.1 182.2 100.4 180.8 99.2C172.4 92.2 162.8 88.6 152 88.6C143.8 88.6 137.1 91 131.6 95.8C125.1 101.3 122 109.5 122 119.8C122 125.533 124.124 131.486 128.183 137.597ZM139.9 40.1C141.3 40.8 142.5 42.2 143.7 43.9C144.9 45.9 146.1 47.5 147 49.3C148.7 51.9 150.6 54.6 152.8 57.2C163.4 70.4 181.4 89.1 206.8 113.1C222.6 128.5 231.5 142.1 233.4 153.9C234.4 161.3 235.1 164.9 235.6 164.9C236.1 164.9 236.8 160.6 237.8 151.7C238 150.5 238 149.3 238 148.3C238 135.6 229.4 120.5 212.1 103.2C175.4 66.5 156 46.3 153.8 42.5C157.4 43.4 160.1 43.9 161.5 43.9C162.7 43.9 163.2 43.7 163.2 43.2C163.2 42.7 162.4 41.8 161 40.8L142.5 26.4C141.3 25.7 140.4 25.2 139.9 25.2C139.1 25.2 138.9 26.2 138.9 28.1L138.9 37.7C138.9 38.9 139.2 39.6 139.9 40.1ZM337.4 63.1C361.6 54 386.8 44.9 412.8 35.3C413.002 35.2422 413.188 35.1761 413.349 35.1186C413.747 34.9768 414 34.8866 414 35.1C414.2 35.1 414.2 35.6 414 36.3C413 38.5 412.3 39.7 411.8 40.1C411.6 40.3 399.3 44.9 375.6 53.8C351.4 62.7 337.7 68.2 335 69.9C335.5 67.7 336.2 65.5 337.4 63.1ZM468 64.3C465.6 70.1 464.4 74.6 464.4 78C464.4 82.1 465.4 84.2 467.5 84.2C468.7 84.2 470.1 82.5 471.8 79.6C472 79.4 472 79.1 472.3 78.9C472.3 78.9 472.5 78.9 472.5 79.1L472.5 79.8C471.1 87 468.9 90.6 466 90.6C462.9 90.6 461.4 88 461.4 82.7C461.4 80.1 461.9 76.7 463.3 72.4C464.7 68.1 465.5 65.9 465.5 65.7C465.5 65.2 464.5 64.3 462.4 63.1C458.6 68.1 453.3 72.9 446.6 77C442 79.6 437.5 82 432.7 84C423.8 87.6 418.5 89.5 417.3 90.2C416.1 90.7 415.4 90.9 414.9 90.9C414.7 90.9 414.7 90.7 414.7 90.7C414.7 90.2 415.2 89.7 416.6 88.8C424.3 84.5 431.7 80.2 439.4 75.8C449.5 70 456.4 65.2 459.8 61.6C455.2 59.2 453.1 56.8 453.1 54.2C453.1 51.1 454.5 48.2 457.4 45.6C460.3 43.2 462.7 42.2 464.6 43C466 43.5 467 45.2 467 48C467 50.6 466.5 53.5 465.3 56.6C467.7 58 468.7 59.5 468.7 60.9C468.7 61.7 468.5 62.9 468 64.3ZM217.4 63.8C217.4 63.8 217.2 64.1 217.2 64.3C215.5 67.2 214.1 68.9 212.5 68.9C210.4 68.9 209.4 66.7 209.4 62.9C209.4 59.8 210.6 54.7 213 47.3C213.5 45.6 213.7 44.6 213.7 44.4C213.4 44.4 213 45.3 212 47C208.2 54 206.5 60.9 206.5 67.4C206.5 72.7 208 75.3 211.1 75.3C214.2 75.3 216.4 71.7 217.6 64.5C217.8 64.3 217.8 64 217.6 63.8C217.6 63.7093 217.6 63.6597 217.581 63.6513C217.559 63.6411 217.51 63.6904 217.4 63.8ZM37.7 76.3C37 77.5 36.7 78.2 36.3 78.2C35.8 78.2 35.8 77.2 36.1 75.8C36.3 74.6 36.6 72.7 36.6 70.8C36.6 63.8 32.8 57.1 24.8 50.2C24.3 50 24.3 49.2 24.8 48.8L27 45C27.2 44.5 27.5 44.5 28 45C35.7 50.5 39.5 58.2 39.5 67.8C39.3 70.8 38.6 73.7 37.7 76.3ZM130.8 48.7C131.5 47.5 132.5 47 133.2 47C133.7 47 134.2 47.2 134.2 47.7C134.2 47.7 134 47.9 134 48.2C133 50.4 132.1 52.8 131.4 55.2C136.4 58.8 138.8 62.6 138.6 66.2C138.1 70.3 137.6 72.9 136.9 73.9C134.5 76.8 131.9 78.5 128.5 78.5C125.1 78.5 123.7 76.3 123.7 72.5C123.7 71.8 123.7 70.8 123.9 69.9C125 62.2 127.4 55.2 130.8 48.7ZM462.7 55.5C463.2 54.1 463.2 52.6 462.9 51.2C462.7 49.8 461.9 49 460.7 49C460.2 49 459.5 49.2 458.5 49.7C457.5 50.2 457.1 50.7 457.1 51.1C457.2 52.3 459.1 53.8 462.7 55.5ZM306.9 54L303.1 61.9C302.1 61 300 59.3 296.9 57.4C293.8 55.2 292.1 54 291.6 54C291.3 54 290.8 54.5 290.6 55L286 64.6C285.8 65.1 285.8 65.4 286 65.6C289.9 68 293.7 70.6 297.3 73.5C297.8 73.8 298.3 73.5 298.5 72.8C300 70.6 301.2 68 302.6 65.1C306.7 67.7 310.3 70.1 313.4 72.5C313.8 72.7 314.3 72.7 314.8 72C317.9 66.7 319.6 63.1 319.6 61.4C319.6 60.9 317.7 59.5 314.1 57.1C310.3 54.5 308.4 53.3 307.9 53.3C307.4 53.3 307.1 53.5 306.9 54ZM136.1 67.9C136.1 66.7 133.7 64.5 128.7 61.7C127 64.6 126.3 67.2 126.3 69.6C126.3 71 127 72 128.5 72C129.7 72 131.1 71.5 132.8 70.6C134.4 69.9 135.6 68.9 136.1 67.9ZM385.4 70.8C383.3 67.4 380.9 66 378 66C377.7 66 377 66.7 376 68.6C374.8 70.6 374.3 71.8 374.3 72C374.3 72.7 374.8 73.7 376.2 74.9C377.7 76.1 378.6 76.8 379.6 76.8C380.3 76.8 380.6 76.5 380.8 76.3C381.1 75.8 381.3 75.8 381.8 75.8C382.8 75.8 384 78 385.9 82.8C387.8 87.4 388.7 90.5 388.5 92.2C388.7 93.2 388.7 93.9 389.2 93.9C389.7 93.9 390.2 93.2 390.9 92.2C391.6 90.6 392.6 87.7 393.3 83.6C395 74.5 396.7 69.9 398.6 69.9C399.5 69.9 400.5 70.3 401.2 71.3C402.2 72.3 402.7 73 402.9 73C403.3 73 403.8 72.2 404.3 70.8C404.8 69.8 404.8 68.9 404.8 68.4C404.8 67.4 404.4 66.4 403.4 65C402.4 63.5 401.2 62.8 400 62.8C397.8 62.8 395.9 65 394 69.3C392.3 75.6 391.1 80.4 390.6 83.5C390.6 84 390.4 84.3 390.4 84.5L390.2 84.5C390.2 84.2 390.2 84 390 83.5C389.2 78.2 387.6 73.9 385.4 70.8ZM86.9 73.9C86.9 74.4 86.7 75.3 86.2 76.3C86 77.7 85.5 78.5 84.8 78.5C84.6 78.5 84.1 77.8 83.1 76.8C82.4 75.8 81.4 75.4 80.7 75.4C78.8 75.4 76.9 80 75.2 89.1C74.5 93.2 73.8 96.1 72.8 97.7C72.5493 98.0582 72.3242 98.3779 72.1157 98.6407C72.3509 97.946 72.4498 97.4991 72.4 97.3L72.4 97.1C72.2588 97.1 71.7185 97.6985 70.744 98.825C70.6599 98.5337 70.6 98.1468 70.6 97.7C70.6 96 69.6 92.9 67.7 88.3C65.8 83.5 64.6 81.3 63.9 81.3C63.2 81.3 62.9 81.3 62.7 81.8C62.7 82 62.2 82.3 61.5 82.3C60.5 82.3 59.6001 81.6 58.1001 80.4C56.9001 79.2 56.2001 78.2 56.2001 77.5C56.2001 77.3 56.7001 76.1 57.9001 74.1C59.1001 72.2 59.8 71.5 60.1001 71.5C62.7001 71.5 65.1001 72.9 67.3 76.3C69.7 79.7 71.1001 83.7 72.1001 89L72.1001 90C72.2094 90.1094 72.2589 90.1589 72.2814 90.1487C72.3 90.1403 72.3 90.0907 72.3 90C72.3 89.8 72.5 89.5 72.8 89C73 85.9 74.2 81.1 75.9001 74.8C77.8 70.5 79.7001 68.3 81.9001 68.3C83.1001 68.3 84.3 69 85.5001 70.5C86.4 72 86.9 73 86.9 73.9ZM72.1157 98.6407C71.8783 99.3416 71.5022 100.295 71 101.5C69.3 105.3 66 109.2 60.9 112.8C56.3 116.2 52.3 118.6 48.7 120.2C48 120.7 43.7 122.4 35.7 125.2C34.5 125.7 33.8 125.9 33.3 125.9C33.1 125.9 33.1 125.7 33.1 125.7C33.1 125.5 33.8 124.7 35 124C41.5 120.2 50.6 114.6 62.6 106.7C65.5 104.5 67.6 102.4 69.3 100.5C69.8582 99.8537 70.3387 99.2937 70.744 98.8251C70.8481 99.1858 70.9894 99.4 71.1 99.4C71.4209 99.4 71.7419 99.1117 72.1157 98.6407ZM325.9 79.9C325.9 83.7 324 89 320.1 95.5C317.7 99.6 314.1 105.1 309.3 112.3C314.1 117.8 317.5 122.9 319.1 127.2C320.1 130.3 320.8 134.4 320.8 139C320.8 140.9 320.3 143.3 319.4 146.4C318.7 149.3 317.7 151.4 316.8 152.9C314.9 155.8 311.8 158.7 307 161.5C302 164.9 297.6 166.5 294 166.5C288.2 166.5 285.4 162.2 285.4 153.5C285.4 147.7 286.4 142 288.3 136.7C290.2 132.1 293.3 126.1 298.4 118.2C294.1 114.1 289.5 108.4 284.5 101.2C284 100.5 282.8 99.3 280.9 97.4C279.9 96.4 279.5 95.2 279.5 93.8C279.5 91.6 279.7 89.2 280.2 86.4C280.9 83.5 281.4 82.3 281.6 82.3C282.3 82.3 284.5 83.5 288.6 86.1C292.4 88.7 295.6 90.7 297.5 92.3C298.7 93 299.2 93.7 299.2 93.7L299.2 93.9C299.2 94.1 298.5 94.4 296.8 94.4C293.7 94.4 292 94.6 292 94.9C292 95.1 292.5 95.6 293.4 96.8C297.2 101.6 301.1 105.2 305.2 108.1C306.2 106.7 309.5 101.9 314.8 93.7C319.4 86.7 322 81.9 323.2 79.1C324.4 76.2 325.1 75 325.6 75C325.7 75.1 325.9 76.6 325.9 79.9ZM343.4 108.3C344.4 109.5 345.1 111.1 345.6 113.3C346.8 117.4 349.2 123.1 352.5 130.2C355.4 136.5 356.8 139.8 356.8 140.3C356.8 142.3 353.9 145.4 348.4 149.7C343.538 153.314 337.207 157.446 329.409 162.04C330.135 157.537 331.425 152.113 333.3 145.7C333.6 144.2 333.8 143 333.8 142.3C333.8 141.8 333.8 141.6 333.6 141.6C333.1 141.6 332.6 142.6 331.4 145C329.011 151.451 327.264 157.724 326.244 163.882C323.052 165.72 319.638 167.627 316 169.6C306.6 174.7 294.9 180.2 280.7 186.2C260.3 194.8 249.2 199.6 247.3 200.6C242 203 239.4 204.5 239.4 204.7C239.4 204.9 239.4 204.9 239.9 204.9C240.9 204.9 243.3 204.6 247.1 203.9C250.7 203.4 259.8 201.3 274.2 197.9C287.9 194.6 295.1 192.9 295.6 192.9C298.2 192.9 306.6 188.8 321 180.4C322.449 179.588 323.86 178.781 325.234 177.979C325.514 185.122 327.488 191.279 331 195.9C335.3 201.9 341.5 205 349.7 205C359.3 205 370.3 200 383.3 190.4C392 183.9 399.9 176.4 407.1 167.8C410.2 164.2 412.8 159.6 414.5 154.1C416 149.7 416.7 146.4 416.7 143.5L417.2 143L417.2 129.8C416.2 130.3 415.7 130.3 415.5 130.3C413.1 125.3 410.2 121.2 407.1 117.6C403.5 114 400.4 112.1 397.3 112.1C393.2 112.1 389.4 114.2 385.8 118.3C382 123.1 380.3 128.4 380.3 134.4C380.3 142.3 386.1 146.4 397.6 146.4C402.9 146.4 407.2 145.7 410.1 144.7C410.6 146.4 411.1 148.1 411.1 149.5C411.1 151.7 407.5 156 400.5 162.8C392.8 170 384.9 176 376.7 181C366.3 187.3 357.7 190.4 350.5 190.4C342.1 190.4 336.1 187.7 332.3 182.7C330.887 180.58 329.889 178.182 329.308 175.548C341.572 168.063 350.532 161.01 356.3 154.5C358.3 152.3 359.7 149.2 360.9 145.1C361.8 141.5 362.3 138.6 362.3 136.2C362.3 131.1 360.8 125.6 358.2 118.9C356.5 115.1 354.6 111 352.9 106.9C355.8 107.6 357.7 108.1 358.4 108.1C358.9 108.1 359.1 107.8 359.1 107.6C359.1 107.1 358.4 106.2 356.7 104.5C352.7 100.4 349.1 96.5 345.7 92.7C345.2 92.2 344.9 92 344.7 92C344.2 92 343.9 92.5 343.7 93.7C343.2 94.9 343 97.1 342.5 100.2C342 103.5 342 105.2 342 105.7C342.2 106.1 342.7 106.9 343.4 108.3ZM443.3 114.8C442.6 114.8 441.6 115.2 440.4 116.2C436.5 119.5 432.7 122.4 428.8 124.4C427.6 125.2 423.5 127.1 417.3 130.2L417.3 143.4C425.7 139.5 432.2 135.5 436 130.9C436 141.9 440.8 147.7 450.9 147.7C459.3 147.7 466.2 142.9 471.5 133.3C474.7 139.1 478.3 142.2 482.1 142.2C487.9 142.2 492.2 139.6 495.1 134.3C497.8 129.9 499.2 124.9 499.2 118.9C499.2 115 498 111.7 496.1 108.8C495.4 107.8 494.9 107.6 494.4 107.6C493.9 107.6 493.4 108.4 493.2 109.8C491.8 114.3 490.8 117.7 490.6 119.6C492.7 123.2 493.7 125.2 493.7 125.4C492.7 127 490.6 128 487.2 128C484.6 128 482.2 127 480.5 125.6C478.6 124.2 477.6 122.5 477.6 120.8C477.6 121.3 478.3 119.4 479.3 115.3C479.8 113.2 479.6 112.2 478.6 112.2C477.9 112.2 477.2 112.6 476.2 113.6C473.8 117.5 471.2 121.3 468.8 125.4C464.9 130.5 459.9 133.1 453.9 133.1C446.4 133.1 442.6 130.2 442.6 124.9C442.6 123.7 442.8 122.2 443.3 120.3C443.8 118.4 444 116.9 444 116.2C444 115.3 443.8 114.8 443.3 114.8ZM316.5 139C313.9 133.7 309.3 128.2 303.1 122.9C300.9 125.1 298.3 129.1 294.9 134.9C291.1 141.4 289.4 145.5 289.4 147.6C289.4 150.5 291.3 151.9 295.6 151.9C297.5 151.9 299.9 151.2 303 150C307.3 148.1 311.4 145.4 314.8 142.1C316.3 140.7 316.8 139.7 316.5 139ZM403.7 132C400.1 127.4 397 125.3 394.1 125.3C389.8 125.3 387.9 126.3 387.9 128.7C387.9 131.6 390.8 133 396.5 133C398.364 133 400.464 132.606 402.8 132.168C403.096 132.112 403.396 132.056 403.7 132ZM41.2 159.6C41.2 159.6 41 159.9 41 160.1C39.3 163 37.9 164.7 36.3 164.7C34.2 164.7 33.2 162.5 33.2 158.7C33.2 155.6 34.4 150.5 36.8 143.1C37.3 141.4 37.5 140.4 37.5 140.2C37.2 140.2 36.8 141.1 35.8 142.8C32 149.8 30.3 156.7 30.3 163.2C30.3 168.5 31.8 171.1 34.9 171.1C38 171.1 40.2 167.5 41.4 160.3C41.6 160.1 41.6 159.8 41.4 159.6C41.4 159.509 41.4 159.46 41.3814 159.451C41.3589 159.441 41.3093 159.491 41.2 159.6ZM199.9 168.3C199.9 168.1 200.1 167.8 200.1 167.8C200.209 167.691 200.259 167.641 200.281 167.651C200.3 167.66 200.3 167.709 200.3 167.8C200.5 168 200.5 168.3 200.3 168.5C199.1 175.7 196.9 179.3 193.8 179.3C190.7 179.3 189.2 176.7 189.2 171.4C189.2 164.9 190.9 158 194.7 151C195.7 149.3 196.1 148.4 196.4 148.4C196.4 148.6 196.2 149.6 195.7 151.3C193.3 158.7 192.1 163.8 192.1 166.9C192.1 170.7 193.1 172.9 195.2 172.9C196.8 172.8 198.2 171.1 199.9 168.3ZM429.6 195.6C427 196.3 425.5 196.8 425 196.8L425 196.6C425 196.6 426 195.9 427.9 194.7C429.8 193.5 432.7 191.6 436.8 188.5C438.7 186.6 441.6 183.5 445.2 179.1C447.6 176.2 450.2 173.6 453.1 171.7C456.7 169.1 460.1 167.9 463.7 167.9C464.4 167.9 465.6 168.1 467.1 168.6C468.3 169.1 469.5 169.3 470.5 169.3C472.4 169.3 473.9 168.6 475.1 167.1C475.8 165.7 476.8 164.5 477.7 163C478.2 162 478.9 161.6 479.4 161.6C479.6 161.6 479.6 161.8 479.6 162.3C479.6 162.8 479.4 164 478.9 165.4C478.4 166.1 480.3 166.4 483.9 166.4C484.4 166.4 484.6 166.4 484.6 166.2C484.6 166.2 484.4 165.2 483.9 163.6C483.7 163.1 483.9 162.4 484.6 161.4L484.68 161.264C485.622 159.663 486.008 159.005 486.3 159.2C487.3 159.9 487.7 161.4 487.7 163C487.7 164.7 487.2 166.4 486.5 168.3C485.8 170.5 485.1 171.7 484.6 172.1C482.9 173.1 480.3 172.8 476.7 171.1C473.8 174 470.9 175.7 468.1 175.7C467.4 175.7 466.2 175.5 465 175C463.8 174.5 462.8 174.3 462.1 174.3C457.3 174.3 452.3 176.5 447.2 181.3L436.4 192.1C434.1 193.7 432 194.9 429.6 195.6ZM155 198.3C159.8 198.3 164.8 197.3 170.6 195.7C172 195.2 172.8 195.2 172.8 195.5C172.8 195.7 172.3 196.2 171.1 197.2C166.3 201.5 159.8 203.9 152.1 203.9C149.9 203.9 147.8 203.2 146.3 202C144.9 200.8 144.1 199.1 144.1 197.2C144.1 192.2 146.3 186.9 150.6 181.4C146.8 180.2 144.8 178.3 144.8 175.4C144.8 172.8 146.2 169.9 149.4 166.5C152.5 163.1 154.9 161.5 156.8 161.5C157.3 161.5 157.8 161.7 158.2 162.7C158.7 163.4 158.9 164.1 158.9 165.1C158.9 165.6 158.4 166.5 157.5 168C156.5 169.4 155.8 169.9 155.8 169.7C155.3 168.3 154.6 167.5 153.2 167.5C152.5 167.5 151.8 168 150.8 169.2C149.6 170.4 149.1 171.4 149.1 172.1C150.3 174 152.5 175.2 155.3 175.2C156.3 175.2 157.9 174.2 159.9 172.3C161.3 171.3 162.5 170.1 163.7 168.9C164.2 168.7 164.4 168.9 164.4 169.9C164.4 172.3 163.4 174.5 162 176.9C155.5 181.2 150.7 186.3 147.6 191.8C147.1 193 146.9 194 146.9 194.7C147.1 196.8 149.7 198.3 155 198.3ZM119.5 191.3C121.4 188.2 122.6 185.3 122.6 182.7C122.6 179.5 121.2 177.9 118.5 178C115.2 178 113.3 179.9 112.3 184C112.1 184.9 112.1 185.4 112.1 185.4C112.1 185.6 112.3 185.6 112.3 185.6C112.5 185.6 112.8 185.3 113.5 185.1C114.2 184.6 115.1 184.4 116.1 184.4C117.7 184.4 118.7 185.3 118.7 187C118.7 189.2 115.8 193 110.3 199C109.4 200.2 108.9 200.7 108.9 200.9L108.9 201.1C109.1 201.1 109.9 200.7 111.3 199.7C114.7 197.3 117.3 194.4 119.5 191.3Z" id="Group" fill="#595959" fill-rule="evenodd" stroke="none" clip-path="url(#clip_1)" />
  </g>
</svg>