<?xml version="1.0" encoding="utf-8"?>
<svg width="584.40015px" height="208.6px" viewBox="0 0 584.40015 208.6" version="1.1" xmlns:xlink="http://www.w3.org/1999/xlink" xmlns="http://www.w3.org/2000/svg">
  <defs>
    <path d="M584.4 0L584.4 0L584.4 208.6L0 208.6L0 0L584.4 0Z" id="path_1" />
    <clipPath id="clip_1">
      <use xlink:href="#path_1" clip-rule="evenodd" fill-rule="evenodd" />
    </clipPath>
  </defs>
  <g id="Surah_82_of_114_(modified)">
    <path d="M584.4 0L584.4 0L584.4 208.6L0 208.6L0 0L584.4 0Z" id="Surah_82_of_114_(modified)" fill="none" stroke="none" />
    <path d="M340.1 31.8C340.1 27 339.4 23.2 337.9 20C337.9 18.3 339.1 14.2 342 8.00002C342.2 7.30002 342.5 6.80002 342.7 6.80002C343.2 6.80002 343.4 7.30002 343.9 8.00002C344.6 9.70001 346.3 14.2 349.2 21.7C352.3 29.6 354 34.4 354.5 36.3C355 37.5 355 38.7 355 39.2C355 41.4 353.1 40.2 348.8 35.4C348.3 34.7 348.1 35.2 348.1 36.4C348.1 36.9 349.3 51.8 351.5 81.5C353.7 111 354.6 127.6 354.6 131.4C354.6 142.7 352.9 152.8 349.6 161.4C348.6 163.1 348.2 164.3 347.7 165.2L347.7 165.2C347 166.4 346.7 166.4 346.5 165.7C346.3 164.7 346.5 162.8 346.7 160.2C347.2 156.1 347.4 151.6 347.4 146.5C347.4 141.7 346.2 122.5 343.8 88.7C341.3 54.8 340.1 35.9 340.1 31.8L340.1 31.8L340.1 31.8L340.1 31.8L340.1 31.8ZM315.1 127.3C314.1 136.2 313.4 140.5 312.9 140.5C312.4 140.5 311.7 136.9 310.7 129.5C308.8 117.5 299.9 104.1 284.1 88.7C277.1 82.2 270.2 75.7 263.2 69C255.8 61.8 250 55.8 246.2 51C243.6 47.6 240.7 43.8 237.6 39C235.9 35.9 234.2 33 232.6 30.4C231.4 28.5 230 27 228.5 26.1C227.8 25.9 227.5 25.1 227.5 23.9L227.5 14.1C227.5 12.2 227.7 11.2 228.5 11.2C229 11.2 229.9 11.7 231.1 12.6L249.6 26.8C251 28 251.8 28.7 251.8 29.4C251.8 29.9 251.3 29.9 250.1 29.9C248.7 29.9 246 29.7 242.4 28.7C244.8 33.3 251.8 41.4 263.3 52.9C271.9 61.5 280.6 70.2 289.5 78.8C306.8 96.1 315.4 111.2 315.4 123.9C315.3 124.9 315.3 126.1 315.1 127.3L315.1 127.3L315.1 127.3L315.1 127.3L315.1 127.3ZM312.7 24.1C312.7 22.2 312.2 19.8 311.3 17.1C310.4 14.4 309.9 13 309.9 12.8C309.9 12.3 310.4 10.4 311.3 7C312.2 3.59999 312.7 1.7 313 1.2C313.5 0.199997 313.7 0 314 0C314.2 0 314.7 0.199997 315.2 1C316.2 3.2 318.3 7.2 321.4 13.7C324.8 20.9 326.9 25.7 327.6 27.9C328.1 29.6 328.3 30.5 328.3 31.3C328.3 33.2 326.1 32 322.1 27.2C321.6 26.7 321.4 27.2 321.4 28.4C321.4 32.2 322.6 45.2 325.2 67C327.8 89.1 329.3 104 329.3 111.6C329.3 127.7 325.5 141.1 317.8 151.4C312 159.8 305.3 165.6 297.9 168.9C295 170.3 290 171.8 283 173.7C275.8 175.6 270.5 176.6 267.2 177.1C266 177.1 265.3 177.1 265.3 176.6C265.3 176.4 265.8 175.6 267.2 174.7C273.7 171.1 284.2 164.9 298.9 155.7C303.7 152.8 308.3 148.7 313.1 143.5C319.3 136.8 322.7 131 322.7 126.5C322.7 116.9 321 98.2 317.7 70.7999C314.1 43.3 312.7 27.7 312.7 24.1L312.7 24.1L312.7 24.1L312.7 24.1L312.7 24.1ZM267.6 136.7C267.6 145.1 265.9 151.8 262.6 156.9C258.5 163.1 252.3 166.5 243.9 166.5L243.9 151.9C253.5 151.9 260 148.8 263.1 142.5C263.1 140.3 260.9 135.8 256.1 128.3C255.9 127.8 255.6 127.3 255.6 126.6C255.6 123 256.6 119.2 258.2 115.6C258.9 114.4 259.4 114.4 260.1 115.6C263 119.7 264.7 122.6 265.4 124.5C266.9 127.8 267.6 131.9 267.6 136.7L267.6 136.7L267.6 136.7L267.6 136.7L267.6 136.7ZM243.8 166.4C238.3 166.4 232.8 164 227 159.2C224.1 156.8 221.7 153.9 220 151L203.9 158L203.9 144.8L215.7 139.8C214 135 213.3 130.2 213.3 125.4C213.3 118.2 214.3 112.2 216.4 107.9C218.6 103.3 221.4 101.2 225 101.2C228.1 101.2 231.2 103.8 233.9 109.1C236.5 113.7 237.7 118 237.7 121.8C237.7 131.4 234.8 139.3 229.3 145.6C233.1 149.7 237.9 151.8 243.7 151.8L243.7 166.4L243.8 166.4L243.8 166.4L243.8 166.4ZM234 128C234 126.3 232.8 123.9 230.4 120.6C227.8 117 225.4 115.1 223.2 115.1C221.8 115.1 220.3 116.1 218.9 118C217.2 119.9 216.5 121.6 216.5 123.3C216.5 124.7 217.5 127.1 218.9 130.7C220.3 133.8 221.5 135.7 222.3 136.9C224.5 135.9 226.6 134.5 229.3 132.6C232.5 130.4 234 129 234 128L234 128L234 128L234 128L234 128ZM186.7 135.2C187.9 134.5 188.4 133.8 187.7 132.6C182.9 122.5 176.9 117.5 169.7 117.5C154.8 117.5 136.8 129.3 115.9 152.8C141.6 152.8 165.1 147 186.7 135.2L186.7 135.2L186.7 135.2L186.7 135.2L186.7 135.2ZM110.6 152.3C114.9 147.5 118.5 142.9 121.6 138.9C122.6 137.7 123 135.5 123.3 132.9C123.3 132.9 123.3 127.6 123.3 116.8C123.3 115.1 122.3 101.2 120.2 75.3C118.3 49.6 117.3 35.5 117.3 32.8C117.5 28.5 116.8 24.6 115.1 21.3C115.1 19.6 116.5 15.5 119.2 9.10002C119.7 8.40002 119.9 7.90002 120.2 7.90002C120.4 7.90002 120.9 8.40002 121.2 9.10002C122.2 10.8 123.8 15.3 126.7 22.8C129.6 30.7 131.5 35.5 132 37.4C132.2 38.8 132.5 39.8 132.5 40.5C132.5 42.7 130.3 41.2 126.3 36.4C125.8 35.9 125.6 36.4 125.6 37.4C125.6 37.6 126.6 48 128.2 67.9C129.9 88.3 130.8 99.8 130.8 102.5C130.8 108 129.8 118.1 127.7 132.7C147.1 113.3 163.2 103.7 175.7 103.7C181.5 103.7 186.7 106.8 191.1 113.1C194.9 118.1 196.6 122.5 196.6 125.8C196.6 129.4 194.9 133.5 191.6 138C188 143.3 183 147.6 176.7 151.4C188.7 149.7 197.8 147.3 204.1 144.7L204.1 157.9C200.5 159.3 194 161 184.4 162.7C168.3 165.6 150.8 166.8 131.4 166.8C115.3 166.8 103.6 165.4 96.1 162.5L96.1 147.9C102.2 150.6 107.3 152.3 110.6 152.3L110.6 152.3L110.6 152.3L110.6 152.3L110.6 152.3ZM84 139.1C87.6 142.7 91.7 145.6 96 147.7L96 162.3C90.2 159.9 85.9 157.5 82.8 155.3C78.5 151.9 75.1 147.9 72.7 142.6C70.1 136.8 68.1 122 67.2 98C67 88.2 66.5 76.4 65.8 63C64.6 52.4 62.9 43.8 60.3 36.8C60.3 34.6 61.3 30.8 63.7 25.3C64.2 24.1 64.7 23.6 64.9 23.6C65.1 23.6 65.6 24.1 66.1 25C69 30.5 71.1 40.4 72.6 54.5C73.1 58.6 73.6 65.3 73.8 74.7C74 87.2 74.3 94.6 74.5 96.8C75.3 119.9 78.7 133.8 84 139.1L84 139.1L84 139.1L84 139.1L84 139.1ZM18.2 164.8C13.4 164.8 9.1 162.6 5.5 158.3C1.7 153.7 0 148.2 0 141.7C0 132.6 3.6 120.8 11 106.4C11.7 105 12.4 104 12.9 104C12.9 104.2 13.1 104.2 13.1 104.7C13.1 106.1 11.4 111.2 8.3 119.8C4.89999 128.4 3.3 135.4 3.3 140.4C3.3 144.2 4.3 147.4 6.2 149.5C8.1 152.1 10.8 153.3 14.1 153.3C19.4 153.3 25.6 149.9 32.6 143.5C33.6 142.8 39.8 136.1 51.6 123.1C68.9 104.6 84.2 95.3001 97.9 95.3001C101.7 95.3001 105.1 96.5001 108 98.9001C110.6 101.3 112.1 103.9 112.1 107.1C112.1 111.2 111.4 114.5 110.2 117.4C109.7 118.6 109.2 119.1 109 119.1C108.8 119.1 108.5 118.6 107.8 117.4C105.2 112.4 100.8 110 95.1 110C84.5 110 72.8 116.7 59.3 130.4C51.6 138.6 44.2 146.7 36.7 154.9C30.2 161.4 24 164.8 18.2 164.8L18.2 164.8L18.2 164.8L18.2 164.8L18.2 164.8ZM244.5 94.7C244.3 94.5 244.3 94.2 244.5 93.7L249.1 84.1C249.3 83.6 249.8 83.4 250.1 83.4C250.6 83.4 252.7 84.6 256.3 87C260.1 89.6 262.1 91.1 262.1 91.6C262.1 93.3 260.4 96.6 257.1 101.9C256.6 102.6 256.4 102.9 255.9 102.6C252.2 99.7 248.4 97.1 244.5 94.7L244.5 94.7L244.5 94.7L244.5 94.7L244.5 94.7ZM209.7 82.4C209.5 82.2 209.5 81.9 209.7 81.4L214.3 71.8C214.5 71.3 215 71.1 215.3 71.1C215.8 71.1 217.9 72.3 221.5 74.7C225.3 77.3 227.3 78.8 227.3 79.3C227.3 81 225.6 84.3 222.3 89.6C221.8 90.3 221.6 90.6 221.1 90.3C217.4 87.5 213.6 84.8 209.7 82.4L209.7 82.4L209.7 82.4L209.7 82.4L209.7 82.4ZM288.9 26.5C288.9 25.3 286.5 23.1 281.5 20.3C279.8 23.2 279.1 25.8 279.1 28.2C279.1 29.6 279.8 30.6 281.3 30.6C282.5 30.6 283.9 30.1 285.6 29.2C287.3 28.4 288.5 27.5 288.9 26.5L288.9 26.5L288.9 26.5L288.9 26.5L288.9 26.5ZM283.7 7.30002C284.4 6.10002 285.4 5.60002 286.1 5.60002C286.6 5.60002 287.1 5.80002 287.1 6.30002C287.1 6.30002 286.9 6.50002 286.9 6.80002C285.9 9.00002 285 11.4 284.3 13.8C289.3 17.4 291.7 21.2 291.5 24.8C291 28.9 290.5 31.5 289.8 32.5C287.4 35.4 284.8 37.1 281.4 37.1C278 37.1 276.6 34.9 276.6 31.1C276.6 30.4 276.6 29.4 276.8 28.5C277.9 20.8 280.3 13.8 283.7 7.30002L283.7 7.30002L283.7 7.30002L283.7 7.30002L283.7 7.30002ZM328.5 184.4C328 186.6 327.5 187.8 326.8 188.5C324.2 190.2 318.2 194 309 200.3C308.8 200.5 308.3 200.8 307.8 201.3C307.6 201.1 307.6 201.1 307.6 200.6L308.1 197.5C308.3 196.8 309.8 195.3 312.7 193.2C309.1 192 307.4 190.3 307.4 188.4C307.4 186.2 308.1 184.1 310 181.9C313.6 177.6 316.7 175.4 319.1 175.4C321.3 175.4 322.2 176.6 322.2 179C322.2 180.4 321.7 181.9 320.5 183.8C320.3 184.3 320 184.3 319.5 183.6C319 182.4 318.1 181.9 316.9 181.9C316.2 181.9 315.2 182.1 314 183.1C312.8 183.8 312.1 184.5 312.1 185C312.1 185.7 312.8 186.4 314.3 187.2C315.7 188.2 316.9 188.4 317.9 188.4C318.6 188.4 320.1 187.9 322.2 186.7C323.6 185.7 324.8 184.8 326.3 183.8C327.5 183.3 328.2 182.8 328.5 183.1C328.8 183 328.8 183.5 328.5 184.4L328.5 184.4L328.5 184.4L328.5 184.4L328.5 184.4ZM211.7 26.3C211.7 25.1 209.3 22.9 204.3 20.1C202.6 23 201.9 25.6 201.9 28C201.9 29.4 202.6 30.4 204.1 30.4C205.3 30.4 206.7 29.9 208.4 29C210 28.2 211.2 27.2 211.7 26.3L211.7 26.3L211.7 26.3L211.7 26.3L211.7 26.3ZM206.4 7.10001C207.1 5.90001 208.1 5.40001 208.8 5.40001C209.3 5.40001 209.8 5.60001 209.8 6.10001C209.8 6.10001 209.6 6.3 209.6 6.60001C208.6 8.8 207.7 11.2 207 13.6C212 17.2 214.4 21 214.2 24.6C213.7 28.7 213.2 31.3 212.5 32.3C210.1 35.2 207.5 36.9 204.1 36.9C200.7 36.9 199.3 34.7 199.3 30.9C199.3 30.2 199.3 29.2 199.5 28.3C200.6 20.5 203 13.6 206.4 7.10001L206.4 7.10001L206.4 7.10001L206.4 7.10001L206.4 7.10001ZM184.8 200.5C203.3 193.8 222.5 186.6 242.6 179.1C243.3 178.9 243.8 178.6 244 178.9C244 178.9 244 179.4 243.8 180.1C242.8 182.3 242.1 183.5 241.6 183.9C224.9 190.2 204.9 197.9 182.4 207.2C182.9 205.1 183.6 202.9 184.8 200.5L184.8 200.5L184.8 200.5L184.8 200.5L184.8 200.5ZM144 68.5C168.2 59.4 193.4 50.3 219.4 40.7C220.1 40.5 220.6 40.2 220.6 40.5C220.8 40.5 220.8 41 220.6 41.7C219.6 43.9 218.9 45.1 218.4 45.5C218.2 45.7 205.9 50.3 182.2 59.2C158 68.1 144.3 73.6 141.6 75.3C142.1 73.1 142.8 70.9 144 68.5L144 68.5L144 68.5L144 68.5L144 68.5ZM183.3 23.4C183.3 24.4 182.8 25.6 181.9 27.5C180.9 29.7 180 31.1 179 31.6C171.8 36.6 164.1 39.3 155.5 39.3C154.1 39.3 151.9 38.6 149 37.6C146.4 36.6 144.7 35.7 143.7 35C143.5 34.8 143.2 34.5 142.7 34C142.2 33.5 142.2 33.5 142.5 33.3C142.5 33.3 143.2 33.3 144.4 33.5C148.7 34 153.5 33.7 158.3 32.8C160 31.8 161.7 30.2 163.3 28C165.7 20.6 167.1 16.5 167.1 16.2C167.1 14.8 166.6 13.6 165.9 12.4C165.4 11.4 164.7 11 164 11C162.3 11 161.1 11.5 159.7 12.9C159 13.6 158.7 13.9 158.5 13.9C158.5 13.9 158.5 13.4 158.5 12.2C158.5 10 159.2 8.40001 160.7 6.70001C162.4 5.30002 163.8 4.50002 165.3 4.50002C168.7 4.50002 170.6 6.90001 170.6 11.9C170.6 15.3 168.9 20.1 165.8 25.8C170.6 21.5 174.7 19.3 177.6 19.3C178.6 19.3 179.5 19.5 181 20.3C182.6 21.2 183.3 22.4 183.3 23.4L183.3 23.4L183.3 23.4L183.3 23.4L183.3 23.4ZM177.8 26.8C177.8 26.3 177.6 26.1 176.8 25.6C176.1 25.1 175.4 25.1 174.6 25.1C173.4 25.1 171.7 25.8 169.1 27.5C166.5 29.4 164.5 30.9 163.6 32.3C166 32.1 169.1 31.1 172.7 29.4C176.1 28 177.8 27 177.8 26.8L177.8 26.8L177.8 26.8L177.8 26.8L177.8 26.8ZM192.2 72.4C192.2 75 191 77.9 189.1 81C186.9 84.1 184.3 87 180.9 89.4C179.5 90.4 178.7 90.8 178.5 90.8L178.5 90.6C178.5 90.4 179 89.9 179.9 88.7C185.4 82.7 188.3 78.9 188.3 76.7C188.3 75 187.3 74.1 185.7 74.1C184.7 74.1 183.8 74.3 183.1 74.8C182.4 75 182.1 75.3 181.9 75.3C181.9 75.3 181.7 75.3 181.7 75.1C181.7 75.1 181.7 74.6 181.9 73.7C182.9 69.6 184.8 67.7 188.1 67.7C190.8 67.6 192.2 69.2 192.2 72.4L192.2 72.4L192.2 72.4L192.2 72.4L192.2 72.4ZM41 175.8C50.6 172.4 60.9 168.6 72 164.8C73 164.6 73.2 164.3 73.4 164.6C73.6 164.6 73.6 165.1 73.2 165.8C72.5 168 71.8 169.2 71.3 169.6C61.7 173 50.9 177 38.7 182.6C39.1 180.4 39.8 178.2 41 175.8L41 175.8L41 175.8L41 175.8L41 175.8ZM89.7 178C92.6 178 95 179.4 97.1 182.8C99.3 185.9 100.9 190.2 101.7 195.5C101.9 196 101.9 196.2 101.9 196.5L102.1 196.5C102.1 196.3 102.3 196 102.3 195.5C102.8 192.4 104 187.6 105.7 181.3C107.6 177 109.5 174.8 111.7 174.8C112.9 174.8 114.1 175.5 115.1 177C116.1 178.4 116.5 179.4 116.5 180.4C116.5 180.9 116.5 181.8 116 182.8C115.5 184.2 115 185 114.6 185C114.4 185 113.9 184.3 112.9 183.3C112.2 182.3 111.2 181.9 110.3 181.9C108.4 181.9 106.7 186.5 105 195.6C104.3 199.7 103.3 202.6 102.6 204.2C101.9 205.2 101.4 205.9 100.9 205.9C100.4 205.9 100.4 205.2 100.2 204.2C100.4 202.5 99.5 199.4 97.6 194.8C95.7 190 94.5 187.8 93.5 187.8C93 187.8 92.8 187.8 92.5 188.3C92.3 188.5 92 188.8 91.3 188.8C90.3 188.8 89.4 188.1 87.9 186.9C86.5 185.7 86 184.7 86 184C86 183.8 86.5 182.6 87.7 180.6C88.8 178.7 89.5 178 89.7 178L89.7 178L89.7 178L89.7 178L89.7 178ZM160.3 195C160.3 194.8 160.5 194.5 160.5 194.5C160.7 194.3 160.7 194.3 160.7 194.5C160.9 194.7 160.9 195 160.7 195.2C159.5 202.4 157.3 206 154.2 206C151.1 206 149.6 203.4 149.6 198.1C149.6 191.6 151.3 184.7 155.1 177.7C156.1 176 156.5 175.1 156.8 175.1L156.8 175.1C156.8 175.3 156.6 176.3 156.1 178C153.7 185.4 152.5 190.5 152.5 193.6C152.5 197.4 153.5 199.6 155.6 199.6C157.2 199.6 158.6 197.9 160.3 195L160.3 195L160.3 195L160.3 195L160.3 195ZM276.2 190.2C276.2 192.8 275 195.7 273.1 198.8C270.9 201.9 268.3 204.8 264.9 207.2C263.5 208.2 262.7 208.6 262.5 208.6L262.5 208.4C262.5 208.2 263 207.7 263.9 206.5C269.4 200.5 272.3 196.7 272.3 194.5C272.3 192.8 271.3 191.9 269.7 191.9C268.7 191.9 267.8 192.1 267.1 192.6C266.4 192.8 266.1 193.1 265.9 193.1C265.9 193.1 265.7 193.1 265.7 192.9C265.7 192.9 265.7 192.4 265.9 191.5C266.9 187.4 268.8 185.5 272.1 185.5C274.8 185.4 276.2 187.1 276.2 190.2L276.2 190.2L276.2 190.2L276.2 190.2L276.2 190.2ZM292.1 117.2C292.1 119.8 290.9 122.7 289 125.8C286.8 128.9 284.2 131.8 280.8 134.2C279.4 135.2 278.6 135.6 278.4 135.6L278.4 135.4C278.4 135.2 278.9 134.7 279.8 133.5C285.3 127.5 288.2 123.7 288.2 121.5C288.2 119.8 287.2 118.9 285.6 118.9C284.6 118.9 283.7 119.1 283 119.6C282.3 119.8 282 120.1 281.8 120.1C281.8 120.1 281.6 120.1 281.6 119.9C281.6 119.9 281.6 119.4 281.8 118.5C282.8 114.4 284.7 112.5 288 112.5C290.6 112.4 292.1 114.1 292.1 117.2L292.1 117.2L292.1 117.2L292.1 117.2L292.1 117.2ZM17.7 97.6C17.7 97.4 17.9 97.1 17.9 97.1C18.1 96.9 18.1 96.9 18.1 97.1C18.3 97.3 18.3 97.6 18.1 97.8C16.9 105 14.7 108.6 11.6 108.6C8.49999 108.6 6.99999 106 6.99999 100.7C6.99999 94.2 8.69999 87.3 12.5 80.3C13.5 78.6 13.9 77.7 14.2 77.7L14.2 77.7C14.2 77.9 14 78.9 13.5 80.6C11.1 88 9.89999 93.1 9.89999 96.2C9.89999 100 10.9 102.2 13 102.2C14.6 102.1 16.1 100.4 17.7 97.6L17.7 97.6L17.7 97.6L17.7 97.6L17.7 97.6ZM91.7 60.4C92.2 57 93.4 53.2 95.3 48.4C96.7 44.8 97.5 41.2 97.5 37.6C97.5 30.6 94.1 24.2 87.7 17.7C87.2 17.2 87.2 16.7 87.7 16.3L89.9 12.5C90.1 12 90.4 12 90.9 12.5C97.1 17.5 100.5 25 100.5 34.8C100.5 39.4 99.3 44.4 97.4 49.4C95.2 54.7 94.3 58.3 94.3 60.2C94.3 64.3 95.3 66.4001 97.4 66.4001C98.8 66.4001 100.3 64.7 102 61.8C102 61.6 102.2 61.3 102.2 61.3C102.4 61.1 102.4 61.1 102.4 61.3C102.4 61.3 102.4 61.8 102.4 62.0001C101.2 69.2001 99 72.8 95.9 72.8C93 72.8 91.3 69.7 91.3 63.9001C91.2 62.8 91.4 61.6 91.7 60.4L91.7 60.4L91.7 60.4L91.7 60.4L91.7 60.4ZM43.2 63.7C43.2 63.5 43.4 63.2 43.4 63.2C43.6 63 43.6 63 43.6 63.2C43.8 63.4 43.8 63.7 43.6 63.9C42.4 71.1 40.2 74.7 37.1 74.7C34 74.7 32.5 72.1 32.5 66.8C32.5 60.3 34.2 53.4 38 46.4C39 44.7 39.4 43.8 39.7 43.8L39.7 43.8C39.7 44 39.5 45 39 46.7C36.6 54.1 35.4 59.2 35.4 62.3C35.4 66.1 36.4 68.3 38.5 68.3C40.1 68.3 41.5 66.6 43.2 63.7L43.2 63.7L43.2 63.7L43.2 63.7L43.2 63.7ZM48.9 96.1C48.9 98.7 47.7 101.6 45.8 104.7C43.6 107.8 41 110.7 37.6 113.1C36.2 114.1 35.4 114.5 35.2 114.5L35.2 114.3C35.2 114.1 35.7 113.6 36.6 112.4C42.1 106.4 45 102.6 45 100.4C45 98.7 44 97.8 42.4 97.8C41.4 97.8 40.5 98 39.8 98.5C39.1 98.7 38.8 99 38.6 99C38.6 99 38.4 99 38.4 98.8C38.4 98.8 38.4 98.3 38.6 97.4C39.6 93.3 41.5 91.4 44.8 91.4C47.5 91.3 48.9 93 48.9 96.1L48.9 96.1L48.9 96.1L48.9 96.1L48.9 96.1ZM525.6 117.5C526.8 116.5 527.8 116.1 528.5 116.1C529 116.1 529.2 116.6 529.2 117.5C529.2 118.2 529 119.7 528.5 121.6C528 123.5 527.8 125 527.8 126.2C527.8 131.5 531.6 134.4 539.1 134.4C545.1 134.4 550.1 131.8 554 126.7C556.4 122.6 559 118.8 561.4 114.9C562.4 113.9 563.1 113.5 563.8 113.5C564.8 113.5 565 114.5 564.5 116.6C563.5 120.7 562.8 122.6 562.8 122.1C562.8 123.8 563.8 125.5 565.7 126.9C567.4 128.3 569.8 129.3 572.4 129.3C575.8 129.3 577.9 128.3 578.9 126.7C578.9 126.5 577.9 124.5 575.8 120.9C576 119 577 115.6 578.4 111.1C578.6 109.7 579.1 108.9 579.6 108.9C580.1 108.9 580.6 109.1 581.3 110.1C583.2 113 584.4 116.3 584.4 120.2C584.4 126.2 583 131.2 580.3 135.6C577.4 140.9 573.1 143.5 567.3 143.5C563.5 143.5 559.9 140.4 556.7 134.6C551.4 144.2 544.5 149 536.1 149C526 149 521.2 143.2 521.2 132.2C517.4 136.8 510.9 140.8 502.5 144.7L502.5 131.5C508.7 128.4 512.8 126.5 514 125.7C517.9 123.7 521.7 120.8 525.6 117.5L525.6 117.5L525.6 117.5L525.6 117.5L525.6 117.5ZM488.9 133.3C485.3 128.7 482.2 126.6 479.3 126.6C475 126.6 473.1 127.6 473.1 130C473.1 132.9 476 134.3 481.7 134.3C483.8 134.3 486.2 133.8 488.9 133.3L488.9 133.3L488.9 133.3L488.9 133.3L488.9 133.3ZM496.3 150.8C496.3 149.4 495.8 147.7 495.3 146C492.4 147 488.1 147.7 482.8 147.7C471.3 147.7 465.5 143.6 465.5 135.7C465.5 129.7 467.2 124.4 471 119.6C474.6 115.5 478.4 113.4 482.5 113.4C485.6 113.4 488.7 115.3 492.3 118.9C495.4 122.5 498.3 126.6 500.7 131.6C500.9 131.6 501.4 131.6 502.4 131.1L502.4 144.3L501.9 144.8C501.9 147.7 501.2 151 499.7 155.4C498 160.9 495.4 165.5 492.3 169.1C485.1 177.7 477.2 185.2 468.5 191.7C455.5 201.3 444.5 206.3 434.9 206.3C426.7 206.3 420.5 203.2 416.2 197.2C412.4 192.2 410.4 185.4 410.4 177.5C410.4 167.4 412.6 157.1 416.6 146.3C417.8 143.9 418.3 142.9 418.8 142.9C419 142.9 419 143.1 419 143.6C419 144.3 418.8 145.5 418.5 147C415.4 157.6 413.9 165.5 413.9 171C413.9 176 415.1 180.4 417.5 184C421.3 189 427.3 191.7 435.7 191.7C442.9 191.7 451.5 188.6 461.9 182.3C470.1 177.3 478 171.3 485.7 164.1C492.7 157.3 496.3 153 496.3 150.8L496.3 150.8L496.3 150.8L496.3 150.8L496.3 150.8ZM430.8 114.6C430.3 112.4 429.6 110.8 428.6 109.6C427.9 108.2 427.4 107.4 427.2 107C427.2 106.5 427.2 104.8 427.7 101.5C428.2 98.4 428.4 96.2 428.9 95C429.1 93.8 429.4 93.3 429.9 93.3C430.1 93.3 430.4 93.5 430.9 94C434.3 97.8 437.9 101.7 441.9 105.8C443.6 107.5 444.3 108.4 444.3 108.9C444.3 109.1 444.1 109.4 443.6 109.4C442.9 109.4 441 108.9 438.1 108.2C439.8 112.3 441.7 116.4 443.4 120.2C446 126.9 447.5 132.4 447.5 137.5C447.5 139.9 447 142.8 446.1 146.4C444.9 150.5 443.5 153.6 441.5 155.8C434.5 163.7 422.8 172.4 406.2 181.7C391.8 190.1 383.4 194.2 380.8 194.2C380.3 194.2 373.1 195.9 359.4 199.2C345 202.6 335.9 204.7 332.3 205.2C328.5 205.9 326.1 206.2 325.1 206.2C324.6 206.2 324.6 206.2 324.6 206C324.6 205.8 327.2 204.3 332.5 201.9C334.4 200.9 345.5 196.1 365.9 187.5C380.1 181.5 391.8 176 401.2 170.9C415.4 163.2 426.2 156.5 433.6 151C439.1 146.7 442 143.6 442 141.6C442 141.1 440.6 137.8 437.7 131.5C434.4 124.4 432 118.7 430.8 114.6L430.8 114.6L430.8 114.6L430.8 114.6L430.8 114.6ZM411.1 81.2C411.1 85 409.2 90.3 405.3 96.8C402.9 100.9 399.3 106.4 394.5 113.6C399.3 119.1 402.7 124.2 404.3 128.5C405.3 131.6 406 135.7 406 140.3C406 142.2 405.5 144.6 404.6 147.7C403.9 150.6 402.9 152.7 402 154.2C400.1 157.1 397 160 392.2 162.8C387.2 166.2 382.8 167.8 379.2 167.8C373.4 167.8 370.6 163.5 370.6 154.8C370.6 149 371.6 143.3 373.5 138C375.4 133.4 378.5 127.4 383.6 119.5C379.3 115.4 374.7 109.7 369.7 102.5C369.2 101.8 368 100.6 366.1 98.7C365.1 97.7 364.7 96.5 364.7 95.1C364.7 92.9 364.9 90.5 365.4 87.7C366.1 84.8 366.6 83.6 366.8 83.6C367.5 83.6 369.7 84.8 373.8 87.4C377.6 90 380.8 92 382.7 93.6C383.9 94.3 384.4 95 384.4 95L384.4 95.2C384.4 95.4 383.7 95.7 382 95.7C378.9 95.7 377.2 95.9 377.2 96.2C377.2 96.4 377.7 96.9 378.6 98.1C382.4 102.9 386.3 106.5 390.4 109.4C391.4 108 394.7 103.2 400 95C404.6 88 407.2 83.2 408.4 80.4C409.6 77.5 410.3 76.3 410.8 76.3C410.9 76.4 411.1 77.9 411.1 81.2L411.1 81.2L411.1 81.2L411.1 81.2L411.1 81.2ZM401.7 140.3C399.1 135 394.5 129.5 388.3 124.2C386.1 126.4 383.5 130.4 380.1 136.2C376.3 142.7 374.6 146.8 374.6 148.9C374.6 151.8 376.5 153.2 380.8 153.2C382.7 153.2 385.1 152.5 388.2 151.3C392.5 149.4 396.6 146.7 400 143.4C401.5 142 402 141 401.7 140.3L401.7 140.3L401.7 140.3L401.7 140.3L401.7 140.3ZM388.3 63.2L392.1 55.3C392.3 54.8 392.6 54.6 393.1 54.6C393.6 54.6 395.5 55.8 399.3 58.4C402.9 60.8 404.8 62.2 404.8 62.7C404.8 64.4 403.1 68 400 73.3C399.5 74 399 74 398.6 73.8C395.5 71.4 391.9 69 387.8 66.4C386.4 69.3 385.2 71.9 383.7 74.1C383.5 74.8 383 75.1 382.5 74.8C378.9 71.9 375.1 69.3 371.2 66.9C371 66.7 371 66.4 371.2 65.9L375.8 56.3C376 55.8 376.5 55.3 376.8 55.3C377.3 55.3 379 56.5 382.1 58.7C385.2 60.6 387.3 62.3 388.3 63.2L388.3 63.2L388.3 63.2L388.3 63.2L388.3 63.2ZM514.8 196.9C512.2 197.6 510.7 198.1 510.2 198.1L510.2 197.9C510.2 197.9 511.2 197.2 513.1 196C515 194.8 517.9 192.9 522 189.8C523.9 187.9 526.8 184.8 530.4 180.4C532.8 177.5 535.4 174.9 538.3 173C541.9 170.4 545.3 169.2 548.9 169.2C549.6 169.2 550.8 169.4 552.3 169.9C553.5 170.4 554.7 170.6 555.7 170.6C557.6 170.6 559.1 169.9 560.3 168.4C561 167 562 165.8 562.9 164.3C563.4 163.3 564.1 162.9 564.6 162.9C564.8 162.9 564.8 163.1 564.8 163.6C564.8 164.1 564.6 165.3 564.1 166.7C563.6 167.4 565.5 167.7 569.1 167.7C569.6 167.7 569.8 167.7 569.8 167.5C569.8 167.5 569.6 166.5 569.1 164.9C568.9 164.4 569.1 163.7 569.8 162.7C570.8 161 571.2 160.3 571.5 160.5C572.5 161.2 572.9 162.7 572.9 164.3C572.9 166 572.4 167.7 571.7 169.6C571 171.8 570.3 173 569.8 173.4C568.1 174.4 565.5 174.1 561.9 172.4C559 175.3 556.1 177 553.3 177C552.6 177 551.4 176.8 550.2 176.3C549 175.8 548 175.6 547.3 175.6C542.5 175.6 537.5 177.8 532.4 182.6C528.8 186.2 525.2 189.8 521.6 193.4C519.3 195 517.2 196.2 514.8 196.9L514.8 196.9L514.8 196.9L514.8 196.9L514.8 196.9ZM463.2 67.3C466.1 67.3 468.5 68.7 470.6 72.1C472.8 75.2 474.4 79.5 475.2 84.8C475.4 85.3 475.4 85.5 475.4 85.8L475.6 85.8C475.6 85.6 475.8 85.3 475.8 84.8C476.3 81.7 477.5 76.9 479.2 70.6C481.1 66.3 483 64.1 485.2 64.1C486.4 64.1 487.6 64.8 488.6 66.3C489.6 67.7 490 68.7 490 69.7C490 70.2 490 71.1 489.5 72.1C489 73.5 488.5 74.3 488.1 74.3C487.9 74.3 487.4 73.6 486.4 72.6C485.7 71.6 484.7 71.2 483.8 71.2C481.9 71.2 480.2 75.8 478.5 84.9C477.8 89 476.8 91.9 476.1 93.5C475.4 94.5 474.9 95.2 474.4 95.2C473.9 95.2 473.9 94.5 473.7 93.5C473.9 91.8 473 88.7 471.1 84.1C469.2 79.3 468 77.1 467 77.1C466.5 77.1 466.3 77.1 466 77.6C465.8 77.8 465.5 78.1 464.8 78.1C463.8 78.1 462.9 77.4 461.4 76.2C460 75 459.5 74 459.5 73.3C459.5 73.1 460 71.9001 461.2 69.9001C462.2 68 462.9 67.3 463.2 67.3L463.2 67.3L463.2 67.3L463.2 67.3L463.2 67.3ZM422.6 64.4C446.8 55.3 472 46.2 498 36.6C498.7 36.4 499.2 36.1 499.2 36.4C499.4 36.4 499.4 36.9 499.2 37.6C498.2 39.8 497.5 41 497 41.4C496.8 41.6 484.5 46.2 460.8 55.1C436.6 64 422.9 69.5 420.2 71.2C420.7 69 421.4 66.8 422.6 64.4L422.6 64.4L422.6 64.4L422.6 64.4L422.6 64.4ZM399.1 20.5C399.6 19.1 399.6 17.6 399.3 16.2C399.1 14.8 398.3 14 397.1 14C396.6 14 395.9 14.2 394.9 14.7C393.9 15.2 393.5 15.7 393.5 16.1C393.6 17.4 395.5 18.8 399.1 20.5L399.1 20.5L399.1 20.5L399.1 20.5L399.1 20.5ZM396.2 26.8C391.6 24.4 389.5 22 389.5 19.4C389.5 16.3 390.9 13.4 393.8 11C396.7 8.40002 399.1 7.40002 401 8.10004C402.7 8.60004 403.4 10.3 403.4 13.1C403.4 15.7 402.9 18.6 401.7 22C404.1 23.2 405.5 24.4 406 25.4C406 26.6 405 28.8 402.9 31.6C402.4 30.6 401 29.4 398.8 28.2C396.2 31.8 393 34.9 389.2 37.8C384.6 40.9 380.6 43.6 377 45C376 45.5 371.7 47.2 364 50C362.8 50.5 361.8 50.7 361.6 50.7C361.4 50.7 361.4 50.5 361.4 50.5C361.4 50.3 361.9 49.5 363.3 48.8C369.1 45.2 374.8 41.8 380.8 38.5C387.8 34.2 392.9 30.4 396.2 26.8L396.2 26.8L396.2 26.8L396.2 26.8L396.2 26.8ZM547.9 56.5C548.4 55.1 548.4 53.6 548.1 52.2C547.9 50.8 547.1 50 545.9 50C545.4 50 544.7 50.2 543.7 50.7C542.7 51.2 542.3 51.7 542.3 52.1C542.4 53.4 544.3 54.8 547.9 56.5L547.9 56.5L547.9 56.5L547.9 56.5L547.9 56.5ZM553.2 65.4C550.8 71.2 549.6 75.7 549.6 79.1C549.6 83.2 550.6 85.3 552.7 85.3C553.9 85.3 555.3 83.6 557 80.7C557.2 80.5 557.2 80.2 557.5 80C557.5 80 557.7 80 557.7 80.2C557.7 80.2 557.7 80.4001 557.7 80.9001C556.3 88.1001 554.1 91.7 551.2 91.7C548.1 91.7 546.6 89.1 546.6 83.8C546.6 81.2 547.1 77.8 548.5 73.5001C549.9 69.2001 550.7 67.0001 550.7 66.8C550.7 66.3 549.7 65.4001 547.6 64.2C543.8 69.2 538.5 74 531.8 78.1C527.2 80.7 522.7 83.1 517.9 85.1C509 88.7 503.7 90.6 502.5 91.3C501.3 91.8 500.6 92.0001 500.1 92.0001C499.9 92.0001 499.9 91.8 499.9 91.8C499.9 91.3 500.4 90.8 501.8 89.9001C509.5 85.6001 516.9 81.3 524.6 76.9001C534.7 71.1001 541.6 66.3 545 62.7C540.4 60.3 538.3 57.9001 538.3 55.3C538.3 52.2 539.7 49.3 542.6 46.7C545.5 44.3 547.9 43.3 549.8 44.1C551.2 44.6 552.2 46.3 552.2 49.1C552.2 51.7 551.7 54.6 550.5 57.7C552.9 59.1 553.9 60.6 553.9 62C553.9 62.8 553.7 64 553.2 65.4L553.2 65.4L553.2 65.4L553.2 65.4L553.2 65.4ZM444 30.6C444 30.4 444.2 30.1 444.2 30.1C444.4 29.9 444.4 29.9 444.4 30.1C444.6 30.3 444.6 30.6 444.4 30.8C443.2 38 441 41.6 437.9 41.6C434.8 41.6 433.3 39 433.3 33.7C433.3 27.2 435 20.3 438.8 13.3C439.8 11.6 440.2 10.7 440.5 10.7L440.5 10.7C440.5 10.9 440.3 11.9 439.8 13.6C437.4 21 436.2 26.1 436.2 29.2C436.2 33 437.2 35.2 439.3 35.2C440.9 35.2 442.3 33.5 444 30.6L444 30.6L444 30.6L444 30.6L444 30.6Z" id="Group" fill="#595959" stroke="none" clip-path="url(#clip_1)" />
  </g>
</svg>