<?xml version="1.0" encoding="utf-8"?>
<svg width="572.7001px" height="200.70001px" viewBox="0 0 572.7001 200.70001" version="1.1" xmlns:xlink="http://www.w3.org/1999/xlink" xmlns="http://www.w3.org/2000/svg">
  <defs>
    <path d="M572.7 0L572.7 0L572.7 200.7L0 200.7L0 0L572.7 0Z" id="path_1" />
    <clipPath id="clip_1">
      <use xlink:href="#path_1" clip-rule="evenodd" fill-rule="evenodd" />
    </clipPath>
  </defs>
  <g id="Surah_41_of_114_(modified)">
    <path d="M572.7 0L572.7 0L572.7 200.7L0 200.7L0 0L572.7 0Z" id="Surah_41_of_114_(modified)" fill="none" stroke="none" />
    <path d="M331.7 94.1C328.1 88.6 324.3 85.9 319.7 85.9C316.6 85.9 314.9 87.1 314.9 89C314.9 91.4 317.1 92.8 320.9 93.1C323.3 93.4 326.9 93.6 331.7 94.1L331.7 94.1L331.7 94.1L331.7 94.1L331.7 94.1ZM314.4 132C322.3 128.4 326.9 126.5 328.1 126C334.6 122.6 339.4 119.8 342.7 116.6C342.7 110.4 337.4 107.2 327.1 107.2L317.5 107.2C313.9 107.2 311 106 308.9 103.6C306.7 101.4 305.8 98.3 305.8 94.7C305.8 89.7 307.5 84.6 311.1 79.6C314.5 74.6 318.1 71.9 321.7 71.9C327.9 71.9 333.5 75.3 338.7 82C344.2 89.4 347.1 98.3 347.1 108.4C347.1 118.2 345.4 125.2 341.8 129C337.2 133.8 328.1 139.1 314.4 145.1L314.4 132L314.4 132L314.4 132L314.4 132ZM305.5 121.2C305.5 121 305.5 120.7 305.5 120.7C305.5 118.5 303.1 115.4 298.1 111.6C292.3 107 286.6 104.9 281.1 104.9C269.1 104.9 256.6 117.1 243.7 142.1C246.8 143.3 250.9 144 256.2 144C265.6 144 275.6 141.1 286.7 135.4C296.4 130.6 302.7 125.8 305.5 121.2L305.5 121.2L305.5 121.2L305.5 121.2L305.5 121.2ZM237.9 154.6C236 160.4 234.3 163.2 233.3 163.2C233.1 163.2 232.8 162.7 232.8 162C232.8 160.1 233.5 157.2 234.7 153.4C228.9 149.8 226.1 144.3 226.1 136.6C222 140.7 217.5 144.3 212.4 147.4C206.2 151.2 200.6 153.4 195.8 153.4L195.8 138.8C206.1 138.8 217.4 133.8 229.4 124.2C230.1 123.7 230.6 123.7 231.1 124C231.3 124.2 231.6 125 231.1 125.9C230.6 127.6 230.4 129 230.4 130.2C230.4 134 233.3 137.6 239.3 140.5C247.5 125.1 253.7 114.6 257.8 109.1C266.9 97.3 275.6 91.3 284 91.3C291.7 91.3 298.4 94.2 304.2 99.7C309 104.3 311.2 108.6 311.2 112.4C311.2 117.2 310.5 121.3 308.8 124.6C306.9 128.7 303.5 133.2 298.7 137.8C302.1 136.8 307.3 134.9 314.8 131.8L314.8 145C295.1 153.4 275 157.7 254.6 157.7C248.9 157.7 243.4 156.5 237.9 154.6L237.9 154.6L237.9 154.6L237.9 154.6L237.9 154.6ZM195.9 153.1C188.5 153.1 183.2 150.2 180.1 144.7C178.2 141.1 176.7 135.3 175.8 127.4C175.1 138 171.2 145.9 164.3 150.7C159.7 154.1 154.5 155.7 148.9 155.7L148.9 141.1C158.3 141.1 165 138.2 169.1 132.5C171.7 128.2 173.2 121 173.2 110.9C173.2 93.6 172.2 75.6 170.3 57.4C169.8 52.8 168.4 43.2 166.2 29.1C167.4 22.9 168.4 18.5 169.3 16.4C169.8 15.4 170 15 170.3 15C170.8 15 171 15.5 171.3 16.7C174.4 27.3 176.8 40.5 178.5 56.3C179.5 64.7 180.2 77.4 180.9 95.2C181.1 109.8 182.1 119.9 183.1 125.2C184.3 130.7 186.2 134.6 188.6 136.7C190.3 137.9 192.7 138.6 196 138.6L196 153.1L195.9 153.1L195.9 153.1L195.9 153.1ZM46.1 145.7C68.9 145.7 97.7 137.8 132.5 122.2C134.4 121.5 135.9 121 136.3 121C137 121 137.3 121.5 137.3 122.2C137.3 122.7 137.3 123.2 137.1 123.9C136.9 125.8 136.6 127.5 136.6 129.2C136.6 137.1 140.9 141.2 149.1 141.2L149.1 155.8C141.2 155.8 135.9 152.7 133.3 146.7C131.9 143.6 131.1 139.7 131.1 135.4C131.1 134.9 131.1 134.9 130.6 134.9C94.6 151.9 64.4 160.3 40.1 160.3C24.7 160.3 13.9 156.2 7.00001 148.1C2.2 142.6 7.62939e-06 135.4 7.62939e-06 126.7C7.62939e-06 117.6 2.2 109.2 6.50001 101.3C7.90001 98.9 8.90001 97.5 9.40001 97.5C9.40001 97.5 9.60001 97.7 9.60001 98.2C9.60001 98.9001 9.10001 100.4 8.40001 102.5C7.40001 105.4 6.20001 108 5.30001 110.9C4.10001 114.5 3.60001 118.3 3.60001 122.4C3.60001 127.7 6.00002 132.2 11.3 136.3C18.7 142.6 30.3 145.7 46.1 145.7L46.1 145.7L46.1 145.7L46.1 145.7L46.1 145.7ZM306.5 49.4C306.3 49.2 306.3 48.9 306.5 48.4L311.1 38.8C311.3 38.3 311.8 38.1 312.1 38.1C312.6 38.1 314.7 39.3 318.3 41.7C322.1 44.3 324.1 45.8 324.1 46.3C324.1 48 322.4 51.3 319.1 56.6C318.6 57.3 318.4 57.6 317.9 57.3C314.2 54.5 310.3 51.8 306.5 49.4L306.5 49.4L306.5 49.4L306.5 49.4L306.5 49.4ZM73.2 77L77 69.1C77.2 68.6 77.5 68.4 78 68.4C78.5 68.4 80.4 69.6 84.2 72.2C87.8 74.6 89.7 76 89.7 76.5C89.7 78.2 88 81.8 84.9 87.1C84.4 87.8 83.9 87.8 83.5 87.6C80.4 85.2 76.8 82.8 72.7 80.2C71.3 83.1 70.1 85.7 68.6 87.9C68.4 88.6 67.9 88.9 67.4 88.6C63.8 85.7 60 83.1 56.1 80.7C55.9 80.5 55.9 80.2 56.1 79.7L60.7 70.1C60.9 69.6 61.4 69.1 61.7 69.1C62.2 69.1 63.9 70.3 67 72.5C70.1 74.4 72.3 76.1 73.2 77L73.2 77L73.2 77L73.2 77L73.2 77ZM14.9 87.6C14.9 87.4 15.1 87.1 15.1 87.1C15.3 86.9 15.3 86.9 15.3 87.1C15.5 87.3 15.5 87.6 15.3 87.8C14.1 95 11.9 98.6 8.8 98.6C5.7 98.6 4.2 96 4.2 90.7C4.2 84.2 5.9 77.3 9.7 70.3C10.7 68.6 11.1 67.7 11.4 67.7L11.4 67.7C11.4 67.9 11.2 68.9 10.7 70.6C8.3 78 7.10001 83.1 7.10001 86.2C7.10001 90 8.10001 92.2 10.2 92.2C11.8 92.2 13.2 90.5 14.9 87.6L14.9 87.6L14.9 87.6L14.9 87.6L14.9 87.6ZM318 12.7C318.5 11.3 318.5 9.8 318.2 8.39999C318 7 317.2 6.2 316 6.2C315.5 6.2 314.8 6.39999 313.8 6.89999C312.8 7.39999 312.4 7.89999 312.4 8.29999C312.5 9.60001 314.4 11 318 12.7L318 12.7L318 12.7L318 12.7L318 12.7ZM315.1 19C310.5 16.6 308.4 14.2 308.4 11.6C308.4 8.5 309.8 5.60001 312.7 3.20001C315.6 0.600006 318 -0.399994 319.9 0.300018C321.6 0.800018 322.3 2.50002 322.3 5.30002C322.3 7.90002 321.8 10.8 320.6 14.2C323 15.4 324.4 16.6 324.9 17.6C324.9 18.8 323.9 21 321.8 23.8C321.3 22.8 319.9 21.6 317.7 20.4C315.1 24 311.9 27.1 308.1 30C303.5 33.1 299.5 35.8 295.9 37.2C294.9 37.7 290.6 39.4 282.9 42.2C281.7 42.7 280.7 42.9 280.5 42.9C280.3 42.9 280.3 42.7 280.3 42.7C280.3 42.5 280.8 41.7 282.2 41C288 37.4 293.7 34 299.7 30.7C306.7 26.4 311.8 22.6 315.1 19L315.1 19L315.1 19L315.1 19L315.1 19ZM273.9 67.7C273.9 69.6 273.4 71.8 272.5 73.7C271.3 76.3 269.9 77.8 268.2 77.8C265.3 77.8 263.4 75.9 262.2 72C260.8 76.8 258.4 79.4 254.8 79.4C253.6 79.4 252.4 78.7 251.4 77.2C250.2 75.8 249.7 73.6 249.7 71.2L249.7 65C249.7 64.5 249.2 64.3 248.7 64C248 63.8 247.7 63.3 247.7 62.6C247.7 61.2 248.2 60 249.1 58.8C250.1 57.6 250.8 57.1 251.3 57.1C252 57.1 252.5 58.3 252.5 60.9C252.5 62.3 252.3 63.5 252.3 64.5C252.1 65.5 252.1 66.2 252.1 66.9C252.1 68.3 252.3 69.8 252.8 71C253.5 72.4 254.5 73.4 255.4 73.4C256.8 73.4 258 72.7 259.2 71.5C260.4 70.3 261.1 68.9 261.1 67.2C261.1 66.2 260.6 64.8 260.1 62.4C259.4 60.2 259.1 58.8 259.1 58.3C259.1 57.8 259.3 57.1 259.8 55.9C260.3 54.9 260.8 54.5 261 54.5C261.5 54.5 262 55.9 262.7 58.8C263.4 61.9 263.9 64.1 263.9 65.5C263.9 69.6 265.3 71.7 268.5 71.7C269.9 71.7 270.9 71 271.1 69.5C268.5 64.7 267 61.1 267 58.5C267 57.1 267.2 55.9 268.2 54.7C268.7 54 268.9 53.5 269.2 53.5C269.4 53.5 269.7 54 269.7 54.9C269.9 56.1 270.2 57.3 270.4 58.3C270.4 58.3 271.1 60 272.3 63.3C273.4 65.3 273.9 66.7 273.9 67.7L273.9 67.7L273.9 67.7L273.9 67.7L273.9 67.7ZM242.4 184.1C260.9 177.4 280.1 170.2 300.2 162.7C300.9 162.5 301.4 162.2 301.6 162.5C301.6 162.5 301.6 163 301.4 163.7C300.4 165.9 299.7 167.1 299.2 167.5C282.4 173.7 262.5 181.4 239.9 190.8C240.5 188.6 241.2 186.5 242.4 184.1L242.4 184.1L242.4 184.1L242.4 184.1L242.4 184.1ZM330.5 164.2C330.5 166.8 329.3 169.7 327.4 172.8C325.2 175.9 322.6 178.8 319.2 181.2C317.8 182.2 317 182.6 316.8 182.6L316.8 182.4C316.8 182.2 317.3 181.7 318.2 180.5C323.7 174.5 326.6 170.7 326.6 168.5C326.6 166.8 325.6 165.9 324 165.9C323 165.9 322.1 166.1 321.4 166.6C320.7 166.8 320.4 167.1 320.2 167.1C320.2 167.1 320 167.1 320 166.9C320 166.9 320 166.4 320.2 165.5C321.2 161.4 323.1 159.5 326.4 159.5C329.1 159.4 330.5 161 330.5 164.2L330.5 164.2L330.5 164.2L330.5 164.2L330.5 164.2ZM117.1 21.8C135.6 15.1 154.8 7.90001 174.9 0.400009C175.6 0.200012 176.1 -0.0999908 176.3 0.200012C176.3 0.200012 176.3 0.700012 176.1 1.40001C175.1 3.60001 174.4 4.8 173.9 5.20001C157.1 11.4 137.2 19.1 114.6 28.5C115.2 26.4 115.9 24.2 117.1 21.8L117.1 21.8L117.1 21.8L117.1 21.8L117.1 21.8ZM200.4 172.8C203.3 172.8 205.7 174.2 207.8 177.6C210 180.7 211.6 185 212.4 190.3C212.6 190.8 212.6 191 212.6 191.3L212.8 191.3C212.8 191.1 213 190.8 213 190.3C213.5 187.2 214.7 182.4 216.4 176.1C218.3 171.8 220.2 169.6 222.4 169.6C223.6 169.6 224.8 170.3 225.8 171.8C226.8 173.2 227.2 174.2 227.2 175.2C227.2 175.7 227.2 176.6 226.7 177.6C226.2 179 225.7 179.8 225.3 179.8C225.1 179.8 224.6 179.1 223.6 178.1C222.9 177.1 221.9 176.7 221 176.7C219.1 176.7 217.4 181.3 215.7 190.4C215 194.5 214 197.4 213.3 199C212.6 200 212.1 200.7 211.6 200.7C211.1 200.7 211.1 200 210.9 199C211.1 197.3 210.2 194.2 208.3 189.6C206.4 184.8 205.2 182.6 204.2 182.6C203.7 182.6 203.5 182.6 203.2 183.1C203 183.3 202.7 183.6 202 183.6C201 183.6 200.1 182.9 198.6 181.7C197.2 180.5 196.7 179.5 196.7 178.8C196.7 178.6 197.2 177.4 198.4 175.4C199.5 173.5 200.2 172.8 200.4 172.8L200.4 172.8L200.4 172.8L200.4 172.8L200.4 172.8ZM170.7 188.2C170.7 188 170.9 187.7 170.9 187.7C171.1 187.5 171.1 187.5 171.1 187.7C171.3 187.9 171.3 188.2 171.1 188.4C169.9 195.6 167.7 199.2 164.6 199.2C161.5 199.2 160 196.6 160 191.3C160 184.8 161.7 177.9 165.5 170.9C166.5 169.2 166.9 168.3 167.2 168.3L167.2 168.3C167.2 168.5 167 169.5 166.5 171.2C164.1 178.6 162.9 183.7 162.9 186.8C162.9 190.6 163.9 192.8 166 192.8C167.5 192.7 169 191 170.7 188.2L170.7 188.2L170.7 188.2L170.7 188.2L170.7 188.2ZM97.5 167.8C100.4 167.8 102.8 169.2 104.9 172.6C107.1 175.7 108.7 180 109.5 185.3C109.7 185.8 109.7 186 109.7 186.3L109.9 186.3C109.9 186.1 110.1 185.8 110.1 185.3C110.6 182.2 111.8 177.4 113.5 171.1C115.4 166.8 117.3 164.6 119.5 164.6C120.7 164.6 121.9 165.3 122.9 166.8C123.9 168.2 124.3 169.2 124.3 170.2C124.3 170.7 124.3 171.6 123.8 172.6C123.3 174 122.8 174.8 122.4 174.8C122.2 174.8 121.7 174.1 120.7 173.1C120 172.1 119 171.7 118.1 171.7C116.2 171.7 114.5 176.3 112.8 185.4C112.1 189.5 111.1 192.4 110.4 194C109.7 195 109.2 195.7 108.7 195.7C108.2 195.7 108.2 195 108 194C108.2 192.3 107.3 189.2 105.4 184.6C103.5 179.8 102.3 177.6 101.3 177.6C100.8 177.6 100.6 177.6 100.3 178.1C100.1 178.3 99.8 178.6 99.1 178.6C98.1 178.6 97.2 177.9 95.7 176.7C94.3 175.5 93.8 174.5 93.8 173.8C93.8 173.6 94.3 172.4 95.5 170.4C96.5 168.5 97.2 167.8 97.5 167.8L97.5 167.8L97.5 167.8L97.5 167.8L97.5 167.8ZM147.4 50.9C147.4 51.4 147.2 52.3 146.7 53.3C146.5 54.7 146 55.5 145.3 55.5C145.1 55.5 144.6 54.8 143.6 53.8C142.9 52.8 141.9 52.4 141.2 52.4C139.3 52.4 137.4 57 135.7 66.1C135 70.2 134.3 73.1 133.3 74.7C132.6 75.7 132.1 76.4 131.6 76.4C131.4 76.4 131.1 75.7 131.1 74.7C131.1 73 130.1 69.9 128.2 65.3C126.3 60.5 125.1 58.3 124.4 58.3C123.7 58.3 123.4 58.3 123.2 58.8C123.2 59 122.7 59.3 122 59.3C121 59.3 120.1 58.6 118.6 57.4C117.4 56.2 116.7 55.2 116.7 54.5C116.7 54.3 117.2 53.1 118.4 51.1C119.6 49.2 120.3 48.5 120.6 48.5C123.2 48.5 125.6 49.9 127.8 53.3C130.2 56.7 131.6 60.7 132.6 66C132.6 66.5 132.6 66.7 132.6 67C132.8 67.2 132.8 67.2 132.8 67C132.8 66.8 133 66.5 133.3 66C133.5 62.9 134.7 58.1 136.4 51.8C138.3 47.5 140.2 45.3 142.4 45.3C143.6 45.3 144.8 46 146 47.5C146.9 49 147.4 49.9 147.4 50.9L147.4 50.9L147.4 50.9L147.4 50.9L147.4 50.9ZM131.5 78.5C129.8 82.3 126.5 86.2 121.4 89.8C116.8 93.2 112.8 95.6 109.2 97.2C108.5 97.7 104.2 99.4 96.2 102.2C95 102.7 94.3 102.9 93.8 102.9C93.6 102.9 93.6 102.7 93.6 102.7C93.6 102.5 94.3 101.7 95.5 101C102 97.2 111.1 91.6 123.1 83.7C126 81.5 128.1 79.4 129.8 77.5C131.7 75.3 132.7 74.1 132.9 74.1C132.9 74.1 132.9 74.1 132.9 74.3C133 74.6 132.5 76.1 131.5 78.5L131.5 78.5L131.5 78.5L131.5 78.5L131.5 78.5ZM285.4 5.5C285.4 9.10001 283.5 12.2 279.9 15.1C276.3 17.7 272.2 19.2 267.7 19.2C267 19.2 265.8 19 264.6 18.5C263.4 18.3 262.4 18 261.7 18C256.9 18 251.9 20.4 246.8 25.2C243.2 28.8 239.6 32.4 236 36C233.8 37.7 231.7 38.9 229.3 39.6C226.7 40.3 225.2 40.8 224.7 40.8L224.7 40.6C224.7 40.6 225.7 39.9 227.6 38.7C229.5 37.5 232.4 35.6 236.5 32.5C238.4 30.6 241.3 27.5 244.9 23.4C247.3 20.3 249.9 17.9 252.8 15.7C256.2 13.3 259 11.9 261.9 11.4C261.4 11.6 263.3 11.6 266.9 11.6C269.1 9.40002 271.5 7.30002 273.6 5.10002C276.5 2.50002 278.9 1.30002 280.8 1.30002C283.9 1.2 285.4 2.60001 285.4 5.5L285.4 5.5L285.4 5.5L285.4 5.5L285.4 5.5ZM283 7.7C282.5 6.3 281.1 5.8 278.7 5.8C276.5 5.8 273.2 8 268.9 12.3C269.4 12.3 269.9 12.5 270.3 12.5C272.7 12.5 275.3 11.8 278 10.6C280.6 9.60001 282.3 8.60001 283 7.7L283 7.7L283 7.7L283 7.7L283 7.7ZM211 19.9C211 19.7 211.2 19.4 211.2 19.4C211.4 19.2 211.4 19.2 211.4 19.4C211.6 19.6 211.6 19.9 211.4 20.1C210.2 27.3 208 30.9 204.9 30.9C201.8 30.9 200.3 28.3 200.3 23C200.3 16.5 202 9.60001 205.8 2.60001C206.8 0.900009 207.2 0 207.5 0L207.5 0C207.5 0.199997 207.3 1.2 206.8 2.89999C204.4 10.3 203.2 15.4 203.2 18.5C203.2 22.3 204.2 24.5 206.3 24.5C207.9 24.5 209.3 22.8 211 19.9L211 19.9L211 19.9L211 19.9L211 19.9ZM197.8 55.4C200.7 55.4 203.1 56.8 205.2 60.2C207.4 63.3 209 67.6 209.8 72.9C210 73.4 210 73.6 210 73.9L210.2 73.9C210.2 73.7 210.4 73.4 210.4 72.9C210.9 69.8 212.1 65 213.8 58.7C215.7 54.4 217.6 52.2 219.8 52.2C221 52.2 222.2 52.9 223.2 54.4C224.2 55.8 224.6 56.8 224.6 57.8C224.6 58.3 224.6 59.2 224.1 60.2C223.6 61.6 223.1 62.4 222.7 62.4C222.5 62.4 222 61.7 221 60.7C220.3 59.7 219.3 59.3 218.4 59.3C216.5 59.3 214.8 63.9 213.1 73C212.4 77.1 211.4 80 210.7 81.6C210 82.6 209.5 83.3 209 83.3C208.5 83.3 208.5 82.6 208.3 81.6C208.5 79.9 207.6 76.8 205.7 72.2C203.8 67.4 202.6 65.2 201.6 65.2C201.1 65.2 200.9 65.2 200.6 65.7C200.4 65.9 200.1 66.2 199.4 66.2C198.4 66.2 197.5 65.5 196 64.3C194.6 63.1 194.1 62.1 194.1 61.4C194.1 61.2 194.6 60 195.8 58C196.8 56.2 197.5 55.4 197.8 55.4L197.8 55.4L197.8 55.4L197.8 55.4L197.8 55.4ZM232.6 92.6C232.6 95.2 231.4 98.1 229.5 101.2C227.3 104.3 224.7 107.2 221.3 109.6C219.9 110.6 219.1 111 218.9 111L218.9 110.8C218.9 110.6 219.4 110.1 220.3 108.9C225.8 102.9 228.7 99.1 228.7 96.9C228.7 95.2 227.7 94.3 226.1 94.3C225.1 94.3 224.2 94.5 223.5 95C222.8 95.2 222.5 95.5 222.3 95.5C222.3 95.5 222.1 95.5 222.1 95.3C222.1 95.3 222.1 94.8 222.3 93.9C223.3 89.8 225.2 87.9 228.5 87.9C231.1 87.8 232.6 89.5 232.6 92.6L232.6 92.6L232.6 92.6L232.6 92.6L232.6 92.6ZM158.4 87.6C158.4 90.2 157.2 93.1 155.3 96.2C153.1 99.3 150.5 102.2 147.1 104.6C145.7 105.6 144.9 106 144.7 106L144.7 105.8C144.7 105.6 145.2 105.1 146.1 103.9C151.6 97.9 154.5 94.1 154.5 91.9C154.5 90.2 153.5 89.3 151.9 89.3C150.9 89.3 150 89.5 149.3 90C148.6 90.2 148.3 90.5 148.1 90.5C148.1 90.5 147.9 90.5 147.9 90.3C147.9 90.3 147.9 89.8 148.1 88.9C149.1 84.8 151 82.9 154.3 82.9C157 82.8 158.4 84.5 158.4 87.6L158.4 87.6L158.4 87.6L158.4 87.6L158.4 87.6ZM58.3 26.4C61.2 26.4 63.6 27.8 65.7 31.2C67.9 34.3 69.5 38.6 70.3 43.9C70.5 44.4 70.5 44.6 70.5 44.9L70.7 44.9C70.7 44.7 70.9 44.4 70.9 43.9C71.4 40.8 72.6 36 74.3 29.7C76.2 25.4 78.1 23.2 80.3 23.2C81.5 23.2 82.7 23.9 83.7 25.4C84.7 26.8 85.1 27.8 85.1 28.8C85.1 29.3 85.1 30.2 84.6 31.2C84.1 32.6 83.6 33.4 83.2 33.4C83 33.4 82.5 32.7 81.5 31.7C80.8 30.7 79.8 30.3 78.9 30.3C77 30.3 75.3 34.9 73.6 44C72.9 48.1 71.9 51 71.2 52.6C70.5 53.6 70 54.3 69.5 54.3C69 54.3 69 53.6 68.8 52.6C69 50.9 68.1 47.8 66.2 43.2C64.3 38.4 63.1 36.2 62.1 36.2C61.6 36.2 61.4 36.2 61.1 36.7C60.9 36.9 60.6 37.2 59.9 37.2C58.9 37.2 58 36.5 56.5 35.3C55.1 34.1 54.6 33.1 54.6 32.4C54.6 32.2 55.1 31 56.3 29C57.4 27.1 58.1 26.4 58.3 26.4L58.3 26.4L58.3 26.4L58.3 26.4L58.3 26.4ZM49.9 114.5C49.9 114.3 50.1 114 50.1 114C50.3 113.8 50.3 113.8 50.3 114C50.5 114.2 50.5 114.5 50.3 114.7C49.1 121.9 46.9 125.5 43.8 125.5C40.7 125.5 39.2 122.9 39.2 117.6C39.2 111.1 40.9 104.2 44.7 97.2C45.7 95.5 46.1 94.6 46.4 94.6L46.4 94.6C46.4 94.8 46.2 95.8 45.7 97.5C43.3 104.9 42.1 110 42.1 113.1C42.1 116.9 43.1 119.1 45.2 119.1C46.8 119 48.3 117.4 49.9 114.5L49.9 114.5L49.9 114.5L49.9 114.5L49.9 114.5ZM513.9 111.4C515.1 110.4 516.1 110 516.8 110C517.3 110 517.5 110.5 517.5 111.4C517.5 112.1 517.3 113.6 516.8 115.5C516.3 117.4 516.1 118.9 516.1 120.1C516.1 125.4 519.9 128.3 527.4 128.3C533.4 128.3 538.4 125.7 542.3 120.6C544.7 116.5 547.3 112.7 549.7 108.8C550.7 107.8 551.4 107.4 552.1 107.4C553.1 107.4 553.3 108.4 552.8 110.5C551.8 114.6 551.1 116.5 551.1 116C551.1 117.7 552.1 119.4 554 120.8C555.7 122.2 558.1 123.2 560.7 123.2C564.1 123.2 566.2 122.2 567.2 120.6C567.2 120.4 566.2 118.4 564.1 114.8C564.3 112.9 565.3 109.5 566.7 105C566.9 103.6 567.4 102.8 567.9 102.8C568.4 102.8 568.9 103 569.6 104C571.5 106.9 572.7 110.2 572.7 114.1C572.7 120.1 571.3 125.1 568.6 129.5C565.7 134.8 561.4 137.4 555.6 137.4C551.8 137.4 548.2 134.3 545 128.5C539.7 138.1 532.8 142.9 524.4 142.9C514.3 142.9 509.5 137.1 509.5 126.1C505.7 130.7 499.2 134.7 490.8 138.6L490.8 125.4C497 122.3 501.1 120.4 502.3 119.6C506.2 117.6 510 114.7 513.9 111.4L513.9 111.4L513.9 111.4L513.9 111.4L513.9 111.4ZM477.1 127.2C473.5 122.6 470.4 120.5 467.5 120.5C463.2 120.5 461.3 121.5 461.3 123.9C461.3 126.8 464.2 128.2 469.9 128.2C472.1 128.2 474.5 127.7 477.1 127.2L477.1 127.2L477.1 127.2L477.1 127.2L477.1 127.2ZM484.6 144.7C484.6 143.3 484.1 141.6 483.6 139.9C480.7 140.9 476.4 141.6 471.1 141.6C459.6 141.6 453.8 137.5 453.8 129.6C453.8 123.6 455.5 118.3 459.3 113.5C462.9 109.4 466.7 107.3 470.8 107.3C473.9 107.3 477 109.2 480.6 112.8C483.7 116.4 486.6 120.5 489 125.5C489.2 125.5 489.7 125.5 490.7 125L490.7 138.2L490.2 138.7C490.2 141.6 489.5 144.9 488 149.3C486.3 154.8 483.7 159.4 480.6 163C473.4 171.6 465.5 179.1 456.8 185.6C443.8 195.2 432.8 200.2 423.2 200.2C415 200.2 408.8 197.1 404.5 191.1C400.7 186.1 398.7 179.3 398.7 171.4C398.7 161.3 400.9 151 404.9 140.2C406.1 137.8 406.6 136.8 407.1 136.8C407.3 136.8 407.3 137 407.3 137.5C407.3 138.2 407.1 139.4 406.8 140.9C403.7 151.5 402.2 159.4 402.2 164.9C402.2 169.9 403.4 174.3 405.8 177.9C409.6 182.9 415.6 185.6 424 185.6C431.2 185.6 439.8 182.5 450.2 176.2C458.4 171.2 466.3 165.2 474 158C481 151.2 484.6 146.9 484.6 144.7L484.6 144.7L484.6 144.7L484.6 144.7L484.6 144.7ZM419.3 108.2C418.8 106 418.1 104.4 417.1 103.2C416.4 101.8 415.9 101 415.7 100.6C415.7 100.1 415.7 98.4 416.2 95.1C416.7 92 416.9 89.8 417.4 88.6C417.6 87.4 417.9 86.9 418.4 86.9C418.6 86.9 418.9 87.1 419.4 87.6C422.8 91.4 426.4 95.3 430.4 99.4C432.1 101.1 432.8 102 432.8 102.5C432.8 102.7 432.6 103 432.1 103C431.4 103 429.5 102.5 426.6 101.8C428.3 105.9 430.2 110 431.9 113.8C434.5 120.5 436 126 436 131.1C436 133.5 435.5 136.4 434.6 140C433.4 144.1 432 147.2 430 149.4C423 157.3 411.3 166 394.7 175.3C380.3 183.7 371.9 187.8 369.3 187.8C368.8 187.8 361.6 189.5 347.9 192.8C333.5 196.2 324.4 198.3 320.8 198.8C317 199.5 314.6 199.8 313.6 199.8C313.1 199.8 313.1 199.8 313.1 199.6C313.1 199.4 315.7 197.9 321 195.5C322.9 194.5 334 189.7 354.4 181.1C368.6 175.1 380.3 169.6 389.7 164.5C403.9 156.8 414.7 150.1 422.1 144.6C427.6 140.3 430.5 137.2 430.5 135.2C430.5 134.7 429.1 131.4 426.2 125.1C422.9 118.1 420.5 112.3 419.3 108.2L419.3 108.2L419.3 108.2L419.3 108.2L419.3 108.2ZM399.6 74.9C399.6 78.7 397.7 84 393.8 90.5C391.4 94.6 387.8 100.1 383 107.3C387.8 112.8 391.2 117.9 392.8 122.2C393.8 125.3 394.5 129.4 394.5 134C394.5 135.9 394 138.3 393.1 141.4C392.4 144.3 391.4 146.4 390.5 147.9C388.6 150.8 385.5 153.7 380.7 156.5C375.7 159.9 371.3 161.5 367.7 161.5C361.9 161.5 359.1 157.2 359.1 148.5C359.1 142.7 360.1 137 362 131.7C363.9 127.1 367 121.1 372.1 113.2C367.8 109.1 363.2 103.4 358.2 96.2C357.7 95.5 356.5 94.3 354.6 92.4C353.6 91.4 353.2 90.2 353.2 88.8C353.2 86.6 353.4 84.2 353.9 81.4C354.6 78.5 355.1 77.3 355.3 77.3C356 77.3 358.2 78.5 362.3 81.1C366.1 83.7 369.3 85.7 371.2 87.3C372.4 88 372.9 88.7 372.9 88.7L372.9 88.9C372.9 89.1 372.2 89.4 370.5 89.4C367.4 89.4 365.7 89.6 365.7 89.9C365.7 90.1 366.2 90.6 367.1 91.8C370.9 96.6 374.8 100.2 378.9 103.1C379.9 101.7 383.2 96.9 388.5 88.7C393.1 81.7 395.7 76.9 396.9 74.1C398.1 71.2 398.8 70 399.3 70C399.4 70.1 399.6 71.5 399.6 74.9L399.6 74.9L399.6 74.9L399.6 74.9L399.6 74.9ZM390.3 133.9C387.7 128.6 383.1 123.1 376.9 117.8C374.7 120 372.1 124 368.7 129.8C364.9 136.3 363.2 140.4 363.2 142.5C363.2 145.4 365.1 146.8 369.4 146.8C371.3 146.8 373.7 146.1 376.8 144.9C381.1 143 385.2 140.3 388.6 137C390 135.6 390.5 134.6 390.3 133.9L390.3 133.9L390.3 133.9L390.3 133.9L390.3 133.9ZM376.8 56.9L380.6 49C380.8 48.5 381.1 48.3 381.6 48.3C382.1 48.3 384 49.5 387.8 52.1C391.4 54.5 393.3 55.9 393.3 56.4C393.3 58.1 391.6 61.7 388.5 67C388 67.7 387.5 67.7 387.1 67.5C384 65.1 380.4 62.7 376.3 60.1C374.9 63 373.7 65.6 372.2 67.8C372 68.5 371.5 68.8 371 68.5C367.4 65.6 363.6 63 359.7 60.6C359.5 60.4 359.5 60.1 359.7 59.6L364.3 50C364.5 49.5 365 49 365.3 49C365.8 49 367.5 50.2 370.6 52.4C373.7 54.2 375.9 55.9 376.8 56.9L376.8 56.9L376.8 56.9L376.8 56.9L376.8 56.9ZM503.3 190.8C500.7 191.5 499.2 192 498.7 192L498.7 191.8C498.7 191.8 499.7 191.1 501.6 189.9C503.5 188.7 506.4 186.8 510.5 183.7C512.4 181.8 515.3 178.7 518.9 174.3C521.3 171.4 523.9 168.8 526.8 166.9C530.4 164.3 533.8 163.1 537.4 163.1C538.1 163.1 539.3 163.3 540.8 163.8C542 164.3 543.2 164.5 544.2 164.5C546.1 164.5 547.6 163.8 548.8 162.3C549.5 160.9 550.5 159.7 551.4 158.2C551.9 157.2 552.6 156.8 553.1 156.8C553.3 156.8 553.3 157 553.3 157.5C553.3 158 553.1 159.2 552.6 160.6C552.1 161.3 554 161.6 557.6 161.6C558.1 161.6 558.3 161.6 558.3 161.4C558.3 161.4 558.1 160.4 557.6 158.8C557.4 158.3 557.6 157.6 558.3 156.6C559.3 154.9 559.7 154.2 560 154.4C561 155.1 561.4 156.6 561.4 158.2C561.4 159.9 560.9 161.6 560.2 163.5C559.5 165.7 558.8 166.9 558.3 167.3C556.6 168.3 554 168 550.4 166.3C547.5 169.2 544.6 170.9 541.8 170.9C541.1 170.9 539.9 170.7 538.7 170.2C537.5 169.7 536.5 169.5 535.8 169.5C531 169.5 526 171.7 520.9 176.5C517.3 180.1 513.7 183.7 510.1 187.3C507.9 188.9 505.7 190.1 503.3 190.8L503.3 190.8L503.3 190.8L503.3 190.8L503.3 190.8ZM451.7 61.2C454.6 61.2 457 62.6 459.1 66C461.3 69.1 462.9 73.4 463.7 78.7C463.9 79.2 463.9 79.4 463.9 79.7L464.1 79.7C464.1 79.5 464.3 79.2 464.3 78.7C464.8 75.6 466 70.8 467.7 64.5C469.6 60.2 471.5 58 473.7 58C474.9 58 476.1 58.7 477.1 60.2C478.1 61.6 478.5 62.6 478.5 63.6C478.5 64.1 478.5 65 478 66C477.5 67.4 477 68.2 476.6 68.2C476.4 68.2 475.9 67.5 474.9 66.5C474.2 65.5 473.2 65.1 472.3 65.1C470.4 65.1 468.7 69.7 467 78.8C466.3 82.9 465.3 85.8 464.6 87.4C463.9 88.4 463.4 89.1 462.9 89.1C462.4 89.1 462.4 88.4 462.2 87.4C462.4 85.7 461.5 82.6 459.6 78C457.7 73.2 456.5 71 455.5 71C455 71 454.8 71 454.5 71.5C454.3 71.7 454 72 453.3 72C452.3 72 451.4 71.3 449.9 70.1C448.5 68.9 448 67.9 448 67.2C448 67 448.5 65.8 449.7 63.8C450.7 61.9 451.5 61.2 451.7 61.2L451.7 61.2L451.7 61.2L451.7 61.2L451.7 61.2ZM410.9 58.1C435.1 49 460.3 39.9 486.3 30.3C487 30.1 487.5 29.8 487.5 30.1C487.7 30.1 487.7 30.6 487.5 31.3C486.5 33.5 485.8 34.7 485.3 35.1C485.1 35.3 472.8 39.9 449.1 48.8C424.9 57.7 411.2 63.2 408.5 64.9C409 62.6 409.7 60.5 410.9 58.1L410.9 58.1L410.9 58.1L410.9 58.1L410.9 58.1ZM387.4 14.2C387.9 12.8 387.9 11.3 387.6 9.89999C387.4 8.5 386.6 7.7 385.4 7.7C384.9 7.7 384.2 7.89999 383.2 8.39999C382.2 8.89999 381.8 9.39999 381.8 9.79999C381.9 11 383.8 12.5 387.4 14.2L387.4 14.2L387.4 14.2L387.4 14.2L387.4 14.2ZM384.5 20.4C379.9 18 377.8 15.6 377.8 13C377.8 9.89999 379.2 7 382.1 4.60001C385 2 387.4 1 389.3 1.70001C391 2.20001 391.7 3.90001 391.7 6.70001C391.7 9.30002 391.2 12.2 390 15.6C392.4 16.8 393.8 18 394.3 19C394.3 20.2 393.3 22.4 391.2 25.2C390.7 24.2 389.3 23 387.1 21.8C384.5 25.4 381.3 28.5 377.5 31.4C372.9 34.5 368.9 37.2 365.3 38.6C364.3 39.1 360 40.8 352.3 43.6C351.1 44.1 350.1 44.3 349.9 44.3C349.7 44.3 349.7 44.1 349.7 44.1C349.7 43.9 350.2 43.1 351.6 42.4C357.4 38.8 363.1 35.4 369.1 32.1C376.1 27.8 381.1 24 384.5 20.4L384.5 20.4L384.5 20.4L384.5 20.4L384.5 20.4ZM536.2 50.4C536.7 49 536.7 47.5 536.4 46.1C536.2 44.7 535.4 43.9 534.2 43.9C533.7 43.9 533 44.1 532 44.6C531 45.1 530.6 45.6 530.6 46C530.7 47.3 532.6 48.7 536.2 50.4L536.2 50.4L536.2 50.4L536.2 50.4L536.2 50.4ZM541.5 59.3C539.1 65.1 537.9 69.6 537.9 73C537.9 77.1 538.9 79.2 541 79.2C542.2 79.2 543.6 77.5 545.3 74.6C545.5 74.4 545.5 74.1 545.8 73.9C545.8 73.9 546 73.9 546 74.1C546 74.1 546 74.3 546 74.8C544.6 82 542.4 85.6 539.5 85.6C536.4 85.6 534.9 83 534.9 77.7C534.9 75.1 535.4 71.7 536.8 67.4C538.2 63.1 539 60.9 539 60.7C539 60.2 538 59.3 535.9 58.1C532.1 63.1 526.8 67.9 520.1 72C515.5 74.6 511 77 506.2 79C497.3 82.6 492 84.5 490.8 85.2C489.6 85.7 488.9 85.9 488.4 85.9C488.2 85.9 488.2 85.7 488.2 85.7C488.2 85.2 488.7 84.7 490.1 83.8C497.8 79.5 505.2 75.2 512.9 70.8C523 65 529.9 60.2 533.3 56.6C528.7 54.2 526.6 51.8 526.6 49.2C526.6 46.1 528 43.2 530.9 40.6C533.8 38.2 536.2 37.2 538.1 38C539.5 38.5 540.5 40.2 540.5 43C540.5 45.6 540 48.5 538.8 51.6C541.2 53 542.2 54.5 542.2 55.9C542.2 56.6 541.9 57.8 541.5 59.3L541.5 59.3L541.5 59.3L541.5 59.3L541.5 59.3ZM432.3 24.5C432.3 24.3 432.5 24 432.5 24C432.7 23.8 432.7 23.8 432.7 24C432.9 24.2 432.9 24.5 432.7 24.7C431.5 31.9 429.3 35.5 426.2 35.5C423.1 35.5 421.6 32.9 421.6 27.6C421.6 21.1 423.3 14.2 427.1 7.20001C428.1 5.50002 428.5 4.60001 428.8 4.60001L428.8 4.60001C428.8 4.8 428.6 5.8 428.1 7.5C425.7 14.9 424.5 20 424.5 23.1C424.5 26.9 425.5 29.1 427.6 29.1C429.1 29 430.6 27.4 432.3 24.5L432.3 24.5L432.3 24.5L432.3 24.5L432.3 24.5Z" id="Group" fill="#595959" stroke="none" clip-path="url(#clip_1)" />
  </g>
</svg>