<?xml version="1.0" encoding="utf-8"?>
<svg width="474.90012px" height="204.89998px" viewBox="0 0 474.90012 204.89998" version="1.1" xmlns:xlink="http://www.w3.org/1999/xlink" xmlns="http://www.w3.org/2000/svg">
  <defs>
    <path d="M474.9 0L474.9 0L474.9 204.9L0 204.9L0 0L474.9 0Z" id="path_1" />
    <clipPath id="clip_1">
      <use xlink:href="#path_1" clip-rule="evenodd" fill-rule="evenodd" />
    </clipPath>
  </defs>
  <g id="Surah_97_of_114_(modified)">
    <path d="M474.9 0L474.9 0L474.9 204.9L0 204.9L0 0L474.9 0Z" id="Surah_97_of_114_(modified)" fill="none" stroke="none" />
    <path d="M157.1 19.4C157.1 19.4 156.9 19.7 156.9 19.9C155.3 22.8 153.8 24.5 152.2 24.5C150.1 24.5 149.1 22.3 149.1 18.5C149.1 15.4 150.3 10.3 152.7 2.89999C153.2 1.2 153.4 0.199997 153.4 0C153.1 0 152.7 0.900009 151.7 2.60001C147.9 9.60001 146.2 16.5 146.2 23C146.2 28.3 147.7 30.9 150.8 30.9C153.9 30.9 156.1 27.3 157.3 20.1C157.5 19.9 157.5 19.6 157.3 19.4C157.3 19.3093 157.3 19.2598 157.281 19.2513C157.259 19.2411 157.209 19.2906 157.1 19.4ZM92.1 23.7C92.1 23.5 92.3 23.2 92.3 23.2C92.4094 23.0906 92.4589 23.0411 92.4814 23.0513C92.5 23.0598 92.5 23.1093 92.5 23.2C92.7 23.4 92.7 23.7 92.5 23.9C91.3 31.1 89.1 34.7 86 34.7C82.9 34.7 81.4 32.1 81.4 26.8C81.4 20.3 83.1 13.4 86.9 6.40001C87.9 4.70001 88.3 3.8 88.6 3.8C88.6 4 88.4 5 87.9 6.7C85.5 14.1 84.3 19.2 84.3 22.3C84.3 26.1 85.3 28.3 87.4 28.3C89 28.3 90.5 26.6 92.1 23.7ZM280.1 15.6C280.1 18.2 282.2 20.6 286.8 23C283.4 26.6 278.4 30.5 271.4 34.7C265.4 38 259.7 41.4 253.9 45C252.5 45.7 252 46.5 252 46.7C252 46.7 252 46.9 252.2 46.9C252.4 46.9 253.4 46.7 254.6 46.2C262.3 43.4 266.6 41.7 267.6 41.2C271.2 39.8 275.2 37.1 279.8 34C283.6 31.1 286.8 28 289.4 24.4C291.6 25.6 293 26.8 293.5 27.8C295.6 25 296.6 22.8 296.6 21.6C296.1 20.6 294.7 19.4 292.3 18.2C293.5 14.8 294 11.9 294 9.3C294 6.5 293.3 4.8 291.6 4.3C289.7 3.59999 287.3 4.59999 284.4 7.2C281.5 9.59999 280.1 12.5 280.1 15.6ZM182.9 6.89999C183.6 5.7 184.6 5.2 185.3 5.2C185.8 5.2 186.3 5.39999 186.3 5.89999C186.3 5.89999 186.1 6.09999 186.1 6.39999C185.1 8.59999 184.2 11 183.5 13.4C188.5 17 190.9 20.8 190.7 24.4C190.2 28.5 189.7 31.1 189 32.1C186.6 35 184 36.7 180.6 36.7C177.2 36.7 175.8 34.5 175.8 30.7C175.8 30 175.8 29 176 28.1C177.1 20.4 179.5 13.4 182.9 6.89999ZM214 171.1C219.1 162.9 221.7 151.9 221.7 137.7C221.7 132.7 220.5 114.5 218.4 82.8C216 51.1 215 35 215 34.8C215 33.6 215.3 33.4 215.5 34.1C219.5 38.9 221.7 40.1 221.7 37.9C221.7 37.2 221.5 36.2 221 34.8C220.6 33.1 218.9 28.1 216 20.4C213.1 13 211.2 8.39999 210.5 6.5C210.2 5.7 209.7 5.5 209.5 5.5C209.2 5.5 209 5.8 208.5 6.5C205.8 12.9 204.4 17 204.4 18.7C205.8 21.8 206.8 25.6 206.8 30.2C206.8 35.5 208 55.4 210.4 90.7C212.8 125.7 214.2 145.4 214.2 149.5C214.2 156.3 213.5 160.3 212.3 161.3C208 164.9 203.5 166.8 198.9 166.8L198.9 181.2L198.9 166.8C191.7 166.8 186.6 166.5 184 165.8C188 160.5 190.2 153.1 190.2 143.7C190.2 139.8 189.5 136 188.3 132.4C186.7 127.8 184 125.4 180.9 125.4C177.5 125.4 173.7 128.8 168.9 135C163.8 141.7 161.2 148.7 161.2 155.4C161.2 160.2 161.9 164 163.6 166.9C160.392 168.261 157.089 169.244 153.6 169.298L153.6 168.9C150 168.9 147.1 168.4 145.4 167.2C142.1 165.1 139.9 160.8 138.7 153.8C136.1 138 133.7 125.5 132 116.6C127.9 96.7 121.4 80.8999 113 69.6C112 68.3999 111.3 68.8999 110.8 70.6C110.3 72 110.1 74.4 109.6 77.8C108.9 81.4 108.7 83.3 108.9 83.8C116.1 99.6 120.9 111.1 122.8 118.8C125.2 128.8 126.6 136 126.6 140.6C126.6 142.6 126.3 144 125.6 145.2C125.6 145.2 124.9 146.4 123 148.8C117.5 156.2 109.8 163.2 100 169.9C87.3 178.6 75.5 182.9 64.5 182.9C56.9 182.9 53 179 53.1 171C53.1 165.5 54.5 157.6 57.4 147C57.9 145.5 58.1 144.3 58.1 143.6C58.1 143.392 58.1 143.236 58.0857 143.125C67.262 137.129 74.4548 131.336 79.3 126.2C80.9 124.6 82.6 121.7 84.3 117.6C86.2 112.8 87.2 108.2 87.2 103.9C87.2 100.6 86.7 97.4 85.5 94.8C81.2 86.3999 77.9 80.3999 75.7 76.6C78.6 77.6 80.5 77.8 81 77.8C81.8 77.8 82 77.8 82 77.3C82 76.8 81.1 75.9 79.4 74.2C75.3 70.1 71.7 66.2 68.6 62.4C68.1 61.9 67.9 61.7 67.4 61.7C67.1 61.7 66.6 62.2 66.4 63.4C66.1 64.6 65.9 66.8 65.4 69.9C64.9 73.2 64.7 74.9 64.9 75.4C66.4 78.5 67.8 81.2 69 83.1C74 92.4 78.1 99.4 81 104.2C82.5 106.6 83.2 108.2 83.2 109.2C83.2 110.1 82.5 111.1 81.5 112.3C76.3 117.1 69.1 122.7 59.7 128.9C44.9 138.5 32.4 143.3 22.3 143.3C16.8 143.3 12 140.6 8.2 135.6C4.99998 131.3 3.59999 126.7 3.59999 121.9C3.59999 116.6 5 108.4 7.89999 98.1C8.03798 97.6309 8.15312 97.215 8.24751 96.8441C8.48693 96.8814 8.73774 96.9 9 96.9C12.1 96.9 14.3 93.3 15.5 86.1C15.7 85.9 15.7 85.6 15.5 85.4C15.5 85.3093 15.5 85.2597 15.4814 85.2513C15.4589 85.2411 15.4093 85.2906 15.3 85.4C15.3 85.4 15.1 85.7 15.1 85.9C13.4 88.8 12 90.5 10.4 90.5C8.29999 90.5 7.29999 88.3 7.29999 84.5C7.29999 81.4 8.5 76.3 10.9 68.9C11.4 67.2 11.6 66.2 11.6 66C11.3 66 10.9 66.9 9.89999 68.6C6.09999 75.6 4.39999 82.5 4.39999 89C4.39999 92.7663 5.15747 95.1691 6.70831 96.2444C6.54809 96.5863 6.37884 96.9708 6.2 97.4C2.2 108 0 118.5 0 128.6C0 135.3 1.20001 141.1 4.10001 146.1C8 153.6 14.2 157.4 22.6 157.4C31.7384 157.4 43.1461 152.861 56.9212 143.882C56.5734 144.454 56.1698 145.266 55.7 146.3C51.7 156.9 49.5 167.4 49.5 177.5C49.5 182.8 50.4001 187.1 52.6001 190.7C55.3 195 59.4001 197.2 64.4001 197.2C74.2001 197.2 85.0001 193.3 96.8001 185.9C106.9 179.5 115.8 171.8 123 162.9C126.6 158.3 129 152.6 130.2 145.6C131.4 154.5 132.3 160.2 132.8 163.1C134.4 171.5 137.1 177.3 141.4 180.4C144.147 182.46 148.145 183.462 153.3 183.499L153.3 183.9C158.6 183.9 164.8 181.2 171.8 176.2C177.3 179.5 186.4 181.2 198.9 181.2L198.9 181.4C204.6 181.4 209.7 177.8 214 171.1ZM334.7 26.4C334.7 26.4 334.5 26.7 334.5 26.9C332.9 29.7 331.4 31.4 329.8 31.5C327.7 31.5 326.7 29.3 326.7 25.5C326.7 22.4 327.9 17.3 330.3 9.89999C330.8 8.2 331 7.2 331 7C330.7 7 330.3 7.90001 329.3 9.60001C325.5 16.6 323.8 23.5 323.8 30C323.8 35.3 325.3 37.9 328.4 37.9C331.5 37.9 333.7 34.3 334.9 27.1C335.1 26.9 335.1 26.6 334.9 26.4C334.9 26.3093 334.9 26.2598 334.881 26.2513C334.859 26.2411 334.809 26.2907 334.7 26.4ZM228.7 21.1C230.2 24.3 230.9 28.1 230.9 32.9C230.9 36.9 232.1 55.9 234.6 89.8C237 123.6 238.2 142.8 238.2 147.6C238.2 152.7 238 157.2 237.5 161.3C237.471 161.679 237.442 162.044 237.414 162.393C237.25 164.436 237.129 165.946 237.3 166.8C237.5 167.5 237.8 167.5 238.5 166.3C239 165.4 239.4 164.2 240.4 162.5C243.7 153.9 245.4 143.8 245.4 132.5C245.4 128.7 244.5 112.1 242.3 82.6C240.1 52.9 238.9 38 238.9 37.5C238.9 36.3 239.1 35.8 239.6 36.5C243.9 41.3 245.8 42.5 245.8 40.3C245.8 39.8 245.8 38.6 245.3 37.4C244.8 35.5 243.1 30.7 240 22.8C237.1 15.3 235.4 10.8 234.7 9.09999C234.2 8.39999 234 7.89999 233.5 7.89999C233.3 7.89999 233 8.39999 232.8 9.09999C229.9 15.3 228.7 19.4 228.7 21.1ZM289.9 12.5C290.2 13.9 290.2 15.4 289.7 16.8C286.1 15.1 284.1 13.7 284.1 12.4C284.1 12 284.5 11.5 285.5 11C286.5 10.5 287.2 10.3 287.7 10.3C288.9 10.3 289.7 11.1 289.9 12.5ZM188.1 26.1C188.1 24.9 185.7 22.7 180.7 19.9C179 22.8 178.3 25.4 178.3 27.8C178.3 29.2 179 30.2 180.5 30.2C181.7 30.2 183.1 29.7 184.8 28.8C186.5 28.1 187.7 27.1 188.1 26.1ZM116.1 25.2C116.8 24 117.8 23.5 118.5 23.5C119 23.5 119.5 23.7 119.5 24.2C119.5 24.2 119.3 24.4 119.3 24.7C118.3 26.9 117.4 29.3 116.7 31.7C121.7 35.3 124.1 39.1 123.9 42.7C123.4 46.8 122.9 49.4 122.2 50.4C119.8 53.3 117.2 55 113.8 55C110.4 55 109 52.8 109 49C109 48.3 109 47.3 109.2 46.4C110.4 38.6 112.8 31.7 116.1 25.2ZM34.3 36.9C32.2 33.5 29.8 32.1 26.9 32.1C26.6 32.1 25.9 32.9 24.9 34.7C23.7 36.7 23.2 37.9 23.2 38.1C23.2 38.8 23.7 39.8 25.1 41C26.6 42.2 27.5 42.9 28.5 42.9C29.2 42.9 29.5 42.6 29.7 42.4C30 41.9 30.2 41.9 30.7 41.9C31.7 41.9 32.9 44.1 34.8 48.9C36.7 53.5 37.6 56.6 37.4 58.3C37.6 59.3 37.6 60 38.1 60C38.6 60 39.1 59.3 39.8 58.3C40.5 56.7 41.5 53.8 42.2 49.7C43.9 40.6 45.6 36 47.5 36C48.4 36 49.4 36.4 50.1 37.4C51.1 38.4 51.6 39.1 51.8 39.1C52.2 39.1 52.7 38.3 53.2 36.9C53.7 35.9 53.7 35 53.7 34.5C53.7 33.5 53.3 32.5 52.3 31.1C51.3 29.6 50.1 28.9 48.9 28.9C46.7 28.9 44.8 31.1 42.9 35.4C41.2 41.7 40 46.5 39.5 49.6C39.5 50.1 39.3 50.4 39.3 50.6L39.1 50.6C39.1 50.3 39.1 50.1 38.9 49.6C38.1 44.3 36.5 40 34.3 36.9ZM313.2 60.7C337.4 51.6 362.6 42.5 388.6 32.9C388.802 32.8422 388.988 32.7761 389.149 32.7186C389.547 32.5768 389.8 32.4866 389.8 32.7C390 32.7 390 33.2 389.8 33.9C388.8 36.1 388.1 37.3 387.6 37.7C387.4 37.9 375.1 42.5 351.4 51.4C327.2 60.3 313.5 65.8 310.8 67.5C311.3 65.3 312 63.1 313.2 60.7ZM121.4 44.4C121.4 43.2 119 41 114 38.2C112.3 41.1 111.6 43.7 111.6 46.1C111.6 47.5 112.3 48.5 113.8 48.5C115 48.5 116.4 48 118.1 47.1C119.7 46.3 120.9 45.3 121.4 44.4ZM443.7 61.9C441.3 67.7 440.1 72.2 440.1 75.6C440.1 79.7 441.1 81.8 443.2 81.8C444.4 81.8 445.8 80.1 447.5 77.2C447.7 77 447.7 76.7 448 76.5C448 76.5 448.2 76.5 448.2 76.7L448.2 77.4C446.8 84.6 444.6 88.2 441.7 88.2C438.6 88.2 437.1 85.6 437.1 80.3C437.1 77.7 437.6 74.3 439 70C440.4 65.7 441.2 63.5 441.2 63.3C441.2 62.8 440.2 61.9 438.1 60.7C434.3 65.7 429 70.5 422.3 74.6C417.7 77.2 413.2 79.6 408.4 81.6C399.5 85.2 394.2 87.1 393 87.8C391.8 88.3 391.1 88.5 390.6 88.5C390.4 88.5 390.4 88.3 390.4 88.3C390.4 87.8 390.9 87.3 392.3 86.4C400 82.1 407.4 77.8 415.1 73.4C425.2 67.6 432.1 62.8 435.5 59.2C430.9 56.8 428.8 54.4 428.8 51.8C428.8 48.7 430.2 45.8 433.1 43.2C436 40.8 438.4 39.8 440.3 40.6C441.7 41.1 442.7 42.8 442.7 45.6C442.7 48.2 442.2 51.1 441 54.2C443.4 55.6 444.4 57.1 444.4 58.5C444.5 59.3 444.2 60.5 443.7 61.9ZM152.4 49.2C152.4 51.8 151.2 54.7 149.3 57.8C147.1 60.9 144.5 63.8 141.1 66.2C139.7 67.2 138.9 67.6 138.7 67.6L138.7 67.4C138.7 67.2 139.2 66.7 140.1 65.5C145.6 59.5 148.5 55.7 148.5 53.5C148.5 51.8 147.5 50.9 145.9 50.9C144.9 50.9 144 51.1 143.3 51.6C142.6 51.8 142.3 52.1 142.1 52.1C142.1 52.1 141.9 52.1 141.9 51.9C141.9 51.9 141.9 51.4 142.1 50.5C143.1 46.4 145 44.5 148.3 44.5C150.9 44.4 152.4 46.1 152.4 49.2ZM438.5 53C439 51.6 439 50.1 438.7 48.7C438.5 47.3 437.7 46.5 436.5 46.5C436 46.5 435.3 46.7 434.3 47.2C433.3 47.7 432.9 48.2 432.9 48.6C432.9 49.9 434.9 51.3 438.5 53ZM282.7 51.6L278.9 59.5C277.9 58.5 275.7 56.9 272.7 55C269.6 52.8 267.9 51.6 267.4 51.6C267.1 51.6 266.6 52.1 266.4 52.6L261.8 62.2C261.6 62.7 261.6 63 261.8 63.2C265.7 65.6 269.5 68.2 273.1 71.1C273.6 71.4 274.1 71.1 274.3 70.4C275.8 68.2 277 65.6 278.4 62.7C282.5 65.3 286.1 67.7 289.2 70.1C289.6 70.3 290.1 70.3 290.6 69.6C293.7 64.3 295.4 60.7 295.4 59C295.4 58.5 293.5 57.1 289.9 54.7C286.1 52.1 284.2 50.9 283.7 50.9C283.2 50.9 282.9 51.1 282.7 51.6ZM193.4 58.7C173.3 66.2 154.1 73.4 135.6 80.1C134.4 82.5 133.7 84.7 133.1 86.8C155.7 77.4 175.6 69.7 192.4 63.5C192.9 63.1 193.6 61.9 194.6 59.7C194.8 59 194.8 58.5 194.8 58.5C194.651 58.2764 194.335 58.3861 193.894 58.5392C193.744 58.5916 193.578 58.649 193.4 58.7ZM361.4 68.6C359.3 65.2 356.9 63.8 354 63.8C353.7 63.8 353 64.5 352 66.4C350.8 68.4 350.3 69.6 350.3 69.8C350.3 70.5 350.8 71.5 352.2 72.7C353.7 73.9 354.6 74.6 355.6 74.6C356.3 74.6 356.6 74.3 356.8 74.1C357.1 73.6 357.3 73.6 357.8 73.6C358.8 73.6 360 75.8 361.9 80.6C363.8 85.2 364.7 88.3 364.5 90C364.7 91 364.7 91.7 365.2 91.7C365.7 91.7 366.2 91 366.9 90C367.6 88.4 368.6 85.5 369.3 81.4C371 72.3 372.7 67.7 374.6 67.7C375.5 67.7 376.5 68.1 377.2 69.1C378.2 70.1 378.7 70.8 378.9 70.8C379.3 70.8 379.8 70 380.3 68.6C380.8 67.6 380.8 66.7 380.8 66.2C380.8 65.2 380.4 64.2 379.4 62.8C378.4 61.3 377.2 60.6 376 60.6C373.8 60.6 371.9 62.8 370 67.1C368.3 73.4 367.1 78.2 366.6 81.3C366.6 81.8 366.4 82.1 366.4 82.3L366.2 82.3C366.2 82 366.2 81.8 366 81.3C365.2 76 363.6 71.7 361.4 68.6ZM301.7 77.5C301.7 81.3 299.8 86.6 295.9 93.1C293.5 97.2 289.9 102.7 285.1 109.9C289.9 115.4 293.3 120.5 294.9 124.8C295.9 127.9 296.6 132 296.6 136.6C296.6 138.5 296.1 140.9 295.2 144C294.5 146.9 293.5 149 292.6 150.5C290.7 153.4 287.6 156.3 282.8 159.1C277.8 162.5 273.4 164.1 269.8 164.1C264 164.1 261.2 159.8 261.2 151.1C261.2 145.3 262.2 139.6 264.1 134.3C266 129.7 269.1 123.7 274.2 115.8C269.9 111.7 265.3 106 260.3 98.8C259.8 98.1 258.6 96.9 256.7 95C255.7 94 255.3 92.8 255.3 91.4C255.3 89.2 255.5 86.8 256 84C256.7 81.1 257.2 79.9 257.4 79.9C258.1 79.9 260.3 81.1 264.4 83.7C268.2 86.3 271.4 88.3 273.3 89.9C274.5 90.6 275 91.3 275 91.3L275 91.5C275 91.7 274.3 92 272.6 92C269.5 92 267.8 92.2 267.8 92.5C267.8 92.8 268.3 93.2 269.2 94.4C273 99.2 276.9 102.8 281 105.7C282 104.3 285.3 99.5 290.6 91.3C295.2 84.3 297.8 79.5 299 76.7C300.2 73.8 300.9 72.6 301.4 72.6C301.4 72.6146 301.406 72.6573 301.418 72.7301C301.482 73.1537 301.7 74.5987 301.7 77.5ZM48.9 102.9C48.9 102.7 49.1 102.4 49.1 102.4C49.2093 102.291 49.2589 102.241 49.2814 102.251C49.3 102.26 49.3 102.309 49.3 102.4C49.5 102.6 49.5 102.9 49.3 103.1C48.1 110.3 45.9 113.9 42.8 113.9C39.7 113.9 38.2 111.3 38.2 106C38.2 99.5 39.9 92.6 43.7 85.6C44.7 83.9 45.1 83 45.4 83C45.4 83.2 45.2 84.2 44.7 85.9C42.3 93.3 41.1 98.4 41.1 101.5C41.1 105.3 42.1 107.5 44.2 107.5C45.8 107.5 47.3 105.8 48.9 102.9ZM319.1 105.9C320.1 107.1 320.8 108.7 321.3 110.9C322.5 114.9 324.9 120.7 328.2 127.8C331.1 134.1 332.5 137.4 332.5 137.9C332.5 139.9 329.6 143 324.1 147.3C319.26 150.897 312.967 155.007 305.219 159.574C305.947 155.085 307.234 149.682 309.1 143.3C309.4 141.8 309.6 140.6 309.6 139.9C309.6 139.4 309.6 139.2 309.4 139.2C308.9 139.2 308.4 140.2 307.2 142.6C304.819 149.029 303.076 155.281 302.055 161.419C298.831 163.276 295.38 165.204 291.7 167.2C282.3 172.3 270.6 177.8 256.4 183.8C236 192.4 224.9 197.2 223 198.2C217.7 200.6 215.1 202.1 215.1 202.3C215.1 202.5 215.1 202.5 215.6 202.5C216.6 202.5 219 202.2 222.8 201.5C226.4 201 235.5 198.9 249.9 195.5C263.6 192.2 270.8 190.5 271.3 190.5C273.9 190.5 282.3 186.4 296.7 178C298.183 177.169 299.627 176.343 301.032 175.522C301.303 182.689 303.279 188.867 306.8 193.5C311.1 199.5 317.3 202.6 325.5 202.6C335.1 202.6 346.1 197.6 359.1 188C367.8 181.5 375.7 174 382.9 165.4C386 161.8 388.6 157.2 390.3 151.7C391.8 147.3 392.5 144 392.5 141.1L393 140.6L393 127.4C392 127.9 391.5 127.9 391.3 127.9C388.9 122.9 386 118.8 382.9 115.2C379.3 111.6 376.2 109.7 373.1 109.7C369 109.7 365.2 111.8 361.6 115.9C357.8 120.7 356.1 126 356.1 132C356.1 139.9 361.9 144 373.4 144C378.7 144 383 143.3 385.9 142.3C386.4 144 386.9 145.7 386.9 147.1C386.9 149.3 383.3 153.6 376.3 160.4C368.6 167.6 360.7 173.6 352.5 178.6C342.1 184.9 333.5 188 326.3 188C317.9 188 311.9 185.3 308.1 180.3C306.677 178.165 305.676 175.749 305.096 173.094C317.315 165.629 326.245 158.594 332 152.1C334 149.9 335.4 146.8 336.6 142.7C337.5 139.1 338 136.2 338 133.8C338 128.7 336.5 123.2 333.9 116.5C332.2 112.7 330.3 108.6 328.6 104.5C331.5 105.2 333.4 105.7 334.1 105.7C334.6 105.7 334.8 105.4 334.8 105.2C334.8 104.7 334.1 103.8 332.4 102.1C328.4 98 324.8 94.1 321.4 90.3C320.9 89.8 320.6 89.6 320.4 89.6C319.9 89.6 319.6 90.1 319.4 91.3C318.9 92.5 318.7 94.7 318.2 97.8C317.7 101.1 317.7 102.8 317.7 103.3C317.9 103.7 318.4 104.5 319.1 105.9ZM177.3 93.1L173.5 101C172.5 100.1 170.4 98.4 167.3 96.5C164.2 94.3 162.5 93.1 162 93.1C161.7 93.1 161.2 93.6 161 94.1L156.4 103.7C156.2 104.2 156.2 104.5 156.4 104.7C160.3 107.1 164.1 109.7 167.7 112.6C168.2 112.9 168.7 112.6 168.9 111.9C170.4 109.7 171.6 107.1 173 104.2C177.1 106.8 180.7 109.2 183.8 111.6C184.2 111.8 184.7 111.8 185.2 111.1C188.3 105.8 190 102.2 190 100.5C190 100 188.1 98.6 184.5 96.2C180.7 93.6 178.8 92.4 178.3 92.4C177.8 92.4 177.5 92.6 177.3 93.1ZM419 112.3C418.3 112.3 417.3 112.7 416.1 113.7C412.3 117.1 408.5 120 404.5 121.9C403.3 122.7 399.2 124.6 393 127.7L393 140.9C401.4 137 407.9 133 411.7 128.4C411.7 139.4 416.5 145.2 426.6 145.2C435 145.2 441.9 140.4 447.2 130.8C450.4 136.6 454 139.7 457.8 139.7C463.6 139.7 467.9 137.1 470.8 131.8C473.5 127.4 474.9 122.4 474.9 116.4C474.9 112.5 473.7 109.2 471.8 106.3C471.1 105.3 470.6 105.1 470.1 105.1C469.6 105.1 469.1 105.9 468.9 107.3C467.5 111.8 466.5 115.2 466.3 117.1C468.4 120.7 469.4 122.7 469.4 122.9C468.4 124.5 466.3 125.5 462.9 125.5C460.3 125.5 457.9 124.5 456.2 123.1C454.3 121.7 453.3 120 453.3 118.3C453.3 118.8 454 116.9 455 112.8C455.5 110.7 455.3 109.7 454.3 109.7C453.6 109.7 452.9 110.1 451.9 111.1C449.5 115 446.9 118.8 444.5 122.9C440.6 128 435.6 130.6 429.6 130.6C422.1 130.6 418.3 127.7 418.3 122.4C418.3 121.2 418.5 119.7 419 117.8C419.5 115.9 419.7 114.4 419.7 113.7C419.7 112.8 419.5 112.3 419 112.3ZM292.3 136.5C289.7 131.2 285.1 125.7 278.9 120.4C276.7 122.6 274.1 126.6 270.7 132.4C266.9 138.9 265.2 143 265.2 145.1C265.2 148 267.1 149.4 271.4 149.4C273.3 149.4 275.7 148.7 278.8 147.5C283.1 145.6 287.2 142.9 290.6 139.6C292.1 138.2 292.5 137.3 292.3 136.5ZM379.4 129.6C375.8 125 372.7 122.9 369.8 122.9C365.5 122.9 363.6 123.9 363.6 126.3C363.6 129.2 366.5 130.6 372.2 130.6C374.4 130.5 376.8 130.1 379.4 129.6ZM184.8 153.1C184.8 151.2 184.1 148.3 182.6 144.9C180.9 141.1 179.5 139.1 178.3 139.1C176.9 139.1 174.5 140.8 171.3 144.1C168.2 147.5 166.3 150.3 165.1 153C165.6 154.4 166.8 156.1 168.5 157.8C170.2 159.7 172.1 160.9 174 161.6C179.3 159.1 182.9 156.2 184.8 153.1ZM100.1 144C89 147.8 78.7 151.6 69.1 155C67.9 157.4 67.2 159.6 66.8 161.8C79 156.2 89.8 152.2 99.4 148.8C99.9 148.4 100.6 147.2 101.3 145C101.7 144.3 101.7 143.8 101.5 143.8C101.377 143.616 101.254 143.658 100.945 143.764C100.752 143.831 100.485 143.923 100.1 144ZM405.3 193.4C402.7 194.1 401.2 194.6 400.7 194.6L400.7 194.4C400.7 194.4 401.7 193.7 403.6 192.5C405.5 191.3 408.4 189.4 412.5 186.3C414.4 184.4 417.3 181.3 420.9 176.9C423.3 174 425.9 171.4 428.8 169.5C432.4 166.9 435.8 165.7 439.4 165.7C440.1 165.7 441.3 165.9 442.8 166.4C444 166.9 445.2 167.1 446.2 167.1C448.1 167.1 449.6 166.4 450.8 164.9C451.5 163.5 452.5 162.3 453.4 160.8C453.9 159.8 454.6 159.4 455.1 159.4C455.3 159.4 455.3 159.6 455.3 160.1C455.3 160.6 455.1 161.8 454.6 163.2C454.1 163.9 456 164.2 459.6 164.2C460.1 164.2 460.3 164.2 460.3 164C460.3 164 460.1 163 459.6 161.4C459.4 160.9 459.6 160.2 460.3 159.2L460.38 159.064C461.322 157.463 461.708 156.805 462 157C463 157.7 463.4 159.2 463.4 160.8C463.4 162.5 462.9 164.2 462.2 166.1C461.5 168.3 460.8 169.5 460.3 169.9C458.6 170.9 456 170.6 452.4 168.9C449.5 171.8 446.6 173.5 443.8 173.5C443.1 173.5 441.9 173.3 440.7 172.8C439.5 172.3 438.5 172.1 437.8 172.1C433 172.1 428 174.3 422.9 179.1L412.1 189.9C409.9 191.5 407.7 192.7 405.3 193.4ZM128.6 186.5C128.6 189.1 127.4 192 125.5 195.1C123.3 198.2 120.7 201.1 117.3 203.5C115.9 204.5 115.1 204.9 114.9 204.9L114.9 204.7C114.9 204.5 115.4 204 116.3 202.8C121.8 196.8 124.7 193 124.7 190.8C124.7 189.1 123.7 188.2 122.1 188.2C121.1 188.2 120.2 188.4 119.5 188.9C118.8 189.1 118.5 189.4 118.3 189.4C118.3 189.4 118.1 189.4 118.1 189.2C118.1 189.2 118.1 188.7 118.3 187.8C119.3 183.7 121.2 181.8 124.5 181.8C127.2 181.7 128.6 183.3 128.6 186.5Z" id="Group" fill="#595959" fill-rule="evenodd" stroke="none" clip-path="url(#clip_1)" />
  </g>
</svg>