<?xml version="1.0" encoding="utf-8"?>
<svg width="533.1001px" height="205.90004px" viewBox="0 0 533.1001 205.90004" version="1.1" xmlns:xlink="http://www.w3.org/1999/xlink" xmlns="http://www.w3.org/2000/svg">
  <defs>
    <path d="M533.1 0L533.1 0L533.1 205.9L0 205.9L0 0L533.1 0Z" id="path_1" />
    <clipPath id="clip_1">
      <use xlink:href="#path_1" clip-rule="evenodd" fill-rule="evenodd" />
    </clipPath>
  </defs>
  <g id="Surah_102_of_114_(modified)">
    <path d="M533.1 0L533.1 0L533.1 205.9L0 205.9L0 0L533.1 0Z" id="Surah_102_of_114_(modified)" fill="none" stroke="none" />
    <path d="M289.1 30C289.1 25.2 288.4 21.4 286.9 18.2C286.9 16.5 288.1 12.4 291 6.20001C291.2 5.50002 291.5 5.00002 291.7 5.00002C292.2 5.00002 292.4 5.50002 292.9 6.20001C293.6 7.90001 295.3 12.4 298.2 19.9C301.3 27.8 303 32.6 303.5 34.5C304 35.7 304 36.9 304 37.4C304 39.6 302.1 38.4 297.8 33.6C297.3 32.9 297.1 33.4 297.1 34.6C297.1 35.1 298.3 50 300.5 79.7C302.7 109.2 303.6 125.8 303.6 129.6C303.6 140.9 301.9 151 298.6 159.6C297.6 161.3 297.2 162.5 296.7 163.4L296.7 163.4C296 164.6 295.7 164.6 295.5 163.9C295.3 162.9 295.5 161 295.7 158.4C296.2 154.3 296.4 149.8 296.4 144.7C296.4 139.9 295.2 120.7 292.8 86.9C290.3 53 289.1 34 289.1 30L289.1 30L289.1 30L289.1 30L289.1 30ZM277.1 118.3C277.1 132.5 274.5 143.5 269.4 151.7C265.1 158.4 260 162 254.3 162L254.3 147.4C258.9 147.4 263.4 145.5 267.7 141.9C268.9 140.9 269.6 136.9 269.6 130.1C269.6 126 268.4 109.5 266.2 80.7C264 51.9 263.1 34.9 263.1 29.6C263.1 25 262.4 21.2 260.9 18.1C260.9 16.4 262.3 12.3 265 5.89999C265.2 5.2 265.5 4.89999 266 4.89999C266.2 4.89999 266.5 5.09999 267 6.09999C267.7 7.79999 269.6 12.3 272.5 19.8C275.4 27.7 277.1 32.5 277.8 34.2C278 35.6 278.3 36.8 278.3 37.3C278.3 39.5 276.1 38.3 272.1 33.5C271.6 33 271.4 33.3 271.4 34.5C271.4 34.7 272.4 47.7 274.3 73.1C276.1 98.1 277.1 113.2 277.1 118.3L277.1 118.3L277.1 118.3L277.1 118.3L277.1 118.3ZM254 162C245.4 162 240.8 157 240.3 146.9C240.3 146.4 240.1 146.2 239.6 145.9C238.9 146.1 238.2 146.4 237.4 147.3C232.4 153.1 229.2 156.4 227.8 157.6C221.6 163.1 215.1 165.8 208.4 165.8L208.4 151.2C215.4 151.2 221.6 149.3 227.1 145.4C229.3 144 234.1 139.4 241.7 131.7C242.4 131 243.4 130.5 244.3 130.5C245.3 130.5 245.5 131 245.5 131.9C245.5 132.4 245.5 133.1 245.3 134.1C245.1 135.1 245.1 135.8 245.1 136.3C245.1 139.2 245.6 141.6 247 143.5C248.4 145.9 250.8 147.3 254 147.3L254 162L254 162L254 162L254 162ZM208.4 151.2L208.4 165.8C200.5 165.8 195.4 162.7 193 156.4C192 154.2 191.8 151.6 191.8 148.2C191.8 146 192 143.6 192.5 140.8C193 136.7 193.7 134.8 194.9 134.8C195.4 134.8 195.6 135.8 195.9 137.9C195.9 139.1 195.9 140.5 195.9 141.7C196.4 145.1 197.3 147.5 199.3 148.9C201 150.4 204.1 151.2 208.4 151.2L208.4 151.2L208.4 151.2L208.4 151.2L208.4 151.2ZM197.9 123.3C197.9 129.3 196.7 134.3 194.5 138.4C192.1 142.5 187.8 146.8 181.3 151.4C174.8 156 168.8 159.1 163.1 160.8C158.1 162.5 152.3 163.2 145.6 163.2L145.6 148.6C165 148.6 180.9 141.6 192.9 127.7C193.6 127 194.1 126.3 194.1 125.8C194.1 125.1 193.1 123.9 191.7 122.4C186.9 118.3 179.9 113.3 170.8 107.8C159.8 100.8 152.3 96 149 93.4C141.1 87.6 134.8 81.4 130.3 74.9C130.1 74.9 129.3 74.4 127.9 73.9C126.7 73.2 126 72.7 126 72.2C126 59 127.7 51.1 131 48C139.2 40.6 157.2 30.7 184.5 18.5C212.1 6.3 230.3 0 239.2 0C241.8 0 243.8 0.5 244.7 1.39999C245.7 2.59999 246.1 4.29999 246.1 6.89999C246.1 12.7 242.7 19.9 235.8 28.5C233.2 31.4 230.5 34.5 227.9 37.4C223.8 42.2 220.9 46 219.5 49.2C218.5 51.4 217.8 52.3 217.6 52.3C217.4 52.3 217.6 50.9 218.1 48.2C218.3 46.5 219.5 44.1 221.5 40.3C223.4 36.9 224.9 34.8 225.6 33.6C233.5 24.7 238.3 19 239.8 16.1C240 15.9 240 15.6 240 15.4C240 13.7 237.8 12.8 233.3 12.8C226.3 12.8 209.8 18.8 183.9 30.6C157.5 42.8 139.7 52.7 130.1 60.4C129.4 60.9 129.6 61.4 130.3 61.8L144.2 68.3C147.3 69.7 148.8 70.9 148.8 71.9C148.8 72.9 147.6 73.3 145.2 73.1C144 73.3 142.3 73.1 140.6 72.9C143.7 76.7 150.4 82 161 88C173.7 95.7 182.1 101 185.7 103.8C193.8 110.1 197.9 116.8 197.9 123.3L197.9 123.3L197.9 123.3L197.9 123.3L197.9 123.3ZM130.7 133.4C131.9 140.1 134.3 144.7 137.4 146.8C139.3 147.8 142 148.5 145.6 148.5L145.6 163.1C140.3 163.1 136.2 161.9 133.4 159.7C129.1 156.6 126.4 151.1 125 142.7C124 137.4 123.1 122.3 122.4 96.9C121.4 69.5 120.7 52.7 120.2 46.5C119 36.4 117.1 27.1001 114.4 17.9C114.4 15.5 115.4 12.1 117.3 7.30003C117.8 6.10004 118 5.40004 118.5 5.40004C118.7 5.40004 119.2 6.10004 119.7 7.10004C122.8 13.1 125 23.4 126.7 37.8C127.7 46.9 128.6 64.9 129.3 91.8C129.7 117.1 130.4 131 130.7 133.4L130.7 133.4L130.7 133.4L130.7 133.4L130.7 133.4ZM109.5 112.5C109.5 120.9 107.6 127.4 104 132.2C100.9 136.3 97.3 138.4 93.2 138.4L93.2 123.8C98.7 123.8 102.6 122.4 104.2 119.5C104.2 118.1 103.2 115.7 101.3 112.5C100.3 111.1 100.1 109.6 100.1 108.2C100.1 107.5 101.1 104.1 102.7 97.9001C103.2 96.9001 103.7 96.2001 103.9 96.2001C104.4 96.2001 105.1 97.2001 105.8 98.6001C108.3 103.6 109.5 108.2 109.5 112.5L109.5 112.5L109.5 112.5L109.5 112.5L109.5 112.5ZM3.00002 176.6C3.00002 166.3 5.20001 156 9.20001 145.2C10.2 143 10.9 141.8 11.4 141.8C11.6 141.8 11.6 142 11.6 142.5C11.6 143.2 11.4 144.4 10.9 145.9C8.00002 156.5 6.60001 164.4 6.60001 169.9C6.60001 174.7 8 179.3 11.2 183.3C14.8 188.6 19.6 191 25.1 191C31.8 191 40.2 188.4 50.1 183.1C58 178.8 65.7 173.5 73.6 167.3C80.3 161.5 84.4 157.7 85.4 155.5C85.4 147.3 83 138.7 78.4 129.6C77.4 127.9 77 126.5 77 125.5C77 124.8 78 121.2 79.9 115.2C80.1 114 80.6 113.3 81.1 113.3C81.6 113.3 82.1 114.3 82.8 115.7C84.2 118.8 85.2 120.5 85.9 121C87.3 122.9 90 123.6 93.3 123.6L93.3 138.2C91.6 138.2 90.4 138.2 89.7 137.7C89.7 155.5 87.1 167.5 81.8 173.5C76.5 180 68.6 186.5 58.5 192.9C45.8 201.1 34.7 205.1 25.6 205.1C17.2 205.1 11 201.5 7.10001 194.1C4.20001 189.1 3.00002 183.1 3.00002 176.6L3.00002 176.6L3.00002 176.6L3.00002 176.6L3.00002 176.6ZM93.7 74.1L97.5 66.4C97.7 65.7 98 65.4 98.5 65.4C99 65.4 100.9 66.6 104.7 69.2C108.3 71.8 110.2 73.3 110.2 73.8C110.2 75.5 108.5 78.8 105.4 84.1C104.9 84.8 104.4 84.8 104 84.6C100.9 82.2 97.3 79.8 93.2 77.2C91.8 80.1 90.6 82.7 89.1 84.9C88.9 85.6 88.4 85.9 87.9 85.6C84.3 82.7 80.5 80.1 76.6 77.7C76.4 77.5 76.4 77.2 76.6 76.7L81.2 67.1C81.4 66.6 81.9 66.1 82.2 66.1C82.7 66.1 84.4 67.3 87.5 69.5C90.6 71.5 92.7 73.2 93.7 74.1L93.7 74.1L93.7 74.1L93.7 74.1L93.7 74.1ZM80.5 59.2C80.3 59 80.3 58.7 80.5 58.2L85.3 48.6C85.5 48.1 85.8 47.9 86.3 47.9C86.8 47.9 88.7 49.1 92.5 51.5C96.1 54.1 98 55.6 98 56.1C98 57.8 96.3 61.1 93.2 66.4C92.7 67.1 92.2 67.4 91.8 66.9C88.2 64.3 84.3 61.6 80.5 59.2L80.5 59.2L80.5 59.2L80.5 59.2L80.5 59.2ZM252.6 78.2C252.6 80.1 252.1 82.3 251.2 84.2C250 86.8 248.6 88.3 246.9 88.3C244 88.3 242.1 86.4 240.9 82.5C239.5 87.3 237.1 89.9 233.5 89.9C232.3 89.9 231.1 89.2 230.1 87.7C228.9 86.3 228.4 84.1 228.4 81.7L228.4 75.5C228.4 75 227.9 74.8 227.4 74.5C226.7 74.3 226.4 73.8 226.4 73.1C226.4 71.7 226.9 70.5 227.8 69.3C228.8 68.1 229.5 67.6 230 67.6C230.7 67.6 231.2 68.8 231.2 71.4C231.2 72.8 231 74 231 75C230.8 76 230.8 76.7 230.8 77.4C230.8 78.8 231 80.3 231.5 81.5C232.2 82.9 233.2 83.9 234.1 83.9C235.5 83.9 236.7 83.2 237.9 82C239.1 80.8 239.8 79.4 239.8 77.7C239.8 76.7 239.3 75.3 238.8 72.9C238.1 70.7 237.8 69.3 237.8 68.8C237.8 68.3 238 67.6 238.5 66.4C239 65.4 239.5 65 239.7 65C240.2 65 240.7 66.4 241.4 69.3C242.1 72.4 242.6 74.6 242.6 76C242.6 80.1 244 82.2 247.2 82.2C248.6 82.2 249.6 81.5 249.8 80C247.2 75.2 245.7 71.6 245.7 69C245.7 67.6 245.9 66.4 246.9 65.2C247.4 64.5 247.6 64 247.9 64C248.1 64 248.4 64.5 248.4 65.4C248.6 66.6 248.9 67.8 249.1 68.8C249.1 68.8 249.8 70.5 251 73.8C252.1 75.8 252.6 77.2 252.6 78.2L252.6 78.2L252.6 78.2L252.6 78.2L252.6 78.2ZM238.7 109.2L242.5 101.3C242.7 100.8 243 100.6 243.5 100.6C244 100.6 245.9 101.8 249.7 104.4C253.3 106.8 255.2 108.2 255.2 108.7C255.2 110.4 253.5 114 250.4 119.3C249.9 120 249.4 120 249 119.8C245.9 117.4 242.3 115 238.2 112.4C236.8 115.3 235.6 117.9 234.1 120.1C233.9 120.8 233.4 121.1 232.9 120.8C229.3 117.9 225.5 115.3 221.6 112.9C221.4 112.7 221.4 112.4 221.6 111.9L226.2 102.3C226.4 101.8 226.9 101.3 227.2 101.3C227.7 101.3 229.4 102.5 232.5 104.7C235.5 106.5 237.7 108.2 238.7 109.2L238.7 109.2L238.7 109.2L238.7 109.2L238.7 109.2ZM81 25.2C81.5 23.8 81.5 22.3 81.2 20.9C81 19.5 80.2 18.7 79 18.7C78.5 18.7 77.8 18.9 76.8 19.4C75.8 19.9 75.4 20.4 75.4 20.8C75.5 22 77.4 23.5 81 25.2L81 25.2L81 25.2L81 25.2L81 25.2ZM78.1 31.4C73.5 29 71.4 26.6 71.4 24C71.4 20.9 72.8 18 75.7 15.6C78.6 13 81 12 82.9 12.7C84.6 13.2 85.3 14.9 85.3 17.7C85.3 20.3 84.8 23.2 83.6 26.6C86 27.8 87.4 29 87.9 30C87.9 31.2 86.9 33.4 84.8 36.2C84.3 35.2 82.9 34 80.7 32.8C78.1 36.4 74.9 39.5 71.1 42.4C66.5 45.5 62.5 48.2 58.9 49.6C57.9 50.1 53.6 51.8 45.9 54.6C44.7 55.1 43.7 55.3 43.5 55.3C43.3 55.3 43.3 55.1 43.3 55.1C43.3 54.9 43.8 54.1 45.2 53.4C51 49.8 56.7 46.4 62.7 43.1C69.7 38.8 74.7 35 78.1 31.4L78.1 31.4L78.1 31.4L78.1 31.4L78.1 31.4ZM75.5 198C85.1 194.6 95.4 190.8 106.5 187C107.5 186.8 107.7 186.5 107.9 186.8C108.1 186.8 108.1 187.3 107.7 188C107 190.2 106.3 191.4 105.8 191.8C96.2 195.2 85.4 199.2 73.2 204.8C73.5 202.5 74.3 200.4 75.5 198L75.5 198L75.5 198L75.5 198L75.5 198ZM137.4 19.2C151.1 14.4 165.5 9.10001 180.6 3.60001C181.6 3.40001 181.8 3.10001 182 3.40001C182.2 3.40001 182.2 3.90001 181.8 4.60001C181.1 6.8 180.4 8 179.9 8.40001C166.9 13 152.1 18.7 135 25.9C135.5 23.7 136.2 21.6 137.4 19.2L137.4 19.2L137.4 19.2L137.4 19.2L137.4 19.2ZM171.5 74.1C195.7 65 220.9 55.9 246.9 46.3C247.6 46.1 248.1 45.8 248.1 46.1C248.3 46.1 248.3 46.6 248.1 47.3C247.1 49.5 246.4 50.7 245.9 51.1C245.7 51.3 233.4 55.9 209.7 64.8C185.5 73.7 171.8 79.2 169.1 80.9C169.5 78.7 170.3 76.5 171.5 74.1L171.5 74.1L171.5 74.1L171.5 74.1L171.5 74.1ZM16.4 132.2C16.4 132 16.6 131.7 16.6 131.7C16.8 131.5 16.8 131.5 16.8 131.7C17 131.9 17 132.2 16.8 132.4C15.6 139.6 13.4 143.2 10.3 143.2C7.20001 143.2 5.70001 140.6 5.70001 135.3C5.70001 128.8 7.40001 121.9 11.2 114.9C12.2 113.2 12.6 112.3 12.9 112.3L12.9 112.3C12.9 112.5 12.7 113.5 12.2 115.2C9.80002 122.6 8.60001 127.7 8.60001 130.8C8.60001 134.6 9.60001 136.8 11.7 136.8C13.3 136.8 14.7 135.1 16.4 132.2L16.4 132.2L16.4 132.2L16.4 132.2L16.4 132.2ZM3.70001 69.1C6.60001 69.1 9.00002 70.5 11.1 73.9C13.3 77 14.9 81.3 15.7 86.6C15.9 87.1 15.9 87.3 15.9 87.6L16.1 87.6C16.1 87.4 16.3 87.1 16.3 86.6C16.8 83.5 18 78.7 19.7 72.4C21.6 68.1 23.5 65.9 25.7 65.9C26.9 65.9 28.1 66.6 29.1 68.1C30.1 69.5 30.5 70.5 30.5 71.5C30.5 72 30.5 72.9 30 73.9C29.5 75.3 29 76.1 28.6 76.1C28.4 76.1 27.9 75.4 26.9 74.4C26.2 73.4 25.2 73 24.3 73C22.4 73 20.7 77.6 19 86.7C18.3 90.8 17.3 93.7 16.6 95.3C15.9 96.3 15.4 97 14.9 97C14.4 97 14.4 96.3 14.2 95.3C14.4 93.6 13.5 90.5 11.6 85.9C9.7 81.1001 8.49998 78.9 7.49999 78.9C6.99998 78.9 6.79999 78.9 6.49998 79.4C6.29999 79.6001 5.99998 79.9 5.29999 79.9C4.29999 79.9 3.39999 79.2 1.89999 78C0.5 76.8 0 75.8 0 75.1001C0 74.9 0.5 73.7001 1.7 71.7001C2.70001 69.8 3.50002 69.1 3.70001 69.1L3.70001 69.1L3.70001 69.1L3.70001 69.1L3.70001 69.1ZM53.6 147.3C53.6 147.1 53.8 146.8 53.8 146.8C54 146.6 54 146.6 54 146.8C54.2 147 54.2 147.3 54 147.5C52.8 154.7 50.6 158.3 47.5 158.3C44.4 158.3 42.9 155.7 42.9 150.4C42.9 143.9 44.6 137 48.4 130C49.4 128.3 49.8 127.4 50.1 127.4L50.1 127.4C50.1 127.6 49.9 128.6 49.4 130.3C47 137.7 45.8 142.8 45.8 145.9C45.8 149.7 46.8 151.9 48.9 151.9C50.5 151.9 51.9 150.2 53.6 147.3L53.6 147.3L53.6 147.3L53.6 147.3L53.6 147.3ZM57.9 90.4C57.9 93 56.7 95.9 54.8 99C52.6 102.1 50 105 46.6 107.4C45.2 108.4 44.4 108.8 44.2 108.8L44.2 108.6C44.2 108.4 44.7 107.9 45.6 106.7C51.1 100.7 54 96.9 54 94.7C54 93 53 92.1 51.4 92.1C50.4 92.1 49.5 92.3 48.8 92.8C48.1 93 47.8 93.3 47.6 93.3C47.6 93.3 47.4 93.3 47.4 93.1C47.4 93.1 47.4 92.6 47.6 91.7C48.6 87.6 50.5 85.7 53.8 85.7C56.5 85.6 57.9 87.3 57.9 90.4L57.9 90.4L57.9 90.4L57.9 90.4L57.9 90.4ZM215.4 85.9C215.4 88.5 214.2 91.4 212.3 94.5C210.1 97.6 207.5 100.5 204.1 102.9C202.7 103.9 201.9 104.3 201.7 104.3L201.7 104.1C201.7 103.9 202.2 103.4 203.1 102.2C208.6 96.2 211.5 92.4 211.5 90.2C211.5 88.5 210.5 87.6 208.9 87.6C207.9 87.6 207 87.8 206.3 88.3C205.6 88.5 205.3 88.8 205.1 88.8C205.1 88.8 204.9 88.8 204.9 88.6C204.9 88.6 204.9 88.1 205.1 87.2C206.1 83.1 208 81.2 211.3 81.2C213.9 81.1 215.4 82.8 215.4 85.9L215.4 85.9L215.4 85.9L215.4 85.9L215.4 85.9ZM157.8 121.9C157.8 124.5 156.6 127.4 154.7 130.5C152.5 133.6 149.9 136.5 146.5 138.9C145.1 139.9 144.3 140.3 144.1 140.3L144.1 140.1C144.1 139.9 144.6 139.4 145.5 138.2C151 132.2 153.9 128.4 153.9 126.2C153.9 124.5 152.9 123.6 151.3 123.6C150.3 123.6 149.4 123.8 148.7 124.3C148 124.5 147.7 124.8 147.5 124.8C147.5 124.8 147.3 124.8 147.3 124.6C147.3 124.6 147.3 124.1 147.5 123.2C148.5 119.1 150.4 117.2 153.7 117.2C156.3 117.1 157.8 118.8 157.8 121.9L157.8 121.9L157.8 121.9L157.8 121.9L157.8 121.9ZM231.9 176.8C234.8 176.8 237.2 178.2 239.3 181.6C241.5 184.7 243.1 189 243.9 194.3C244.1 194.8 244.1 195 244.1 195.3L244.3 195.3C244.3 195.1 244.5 194.8 244.5 194.3C245 191.2 246.2 186.4 247.9 180.1C249.8 175.8 251.7 173.6 253.9 173.6C255.1 173.6 256.3 174.3 257.3 175.8C258.3 177.2 258.7 178.2 258.7 179.2C258.7 179.7 258.7 180.6 258.2 181.6C257.7 183 257.2 183.8 256.8 183.8C256.6 183.8 256.1 183.1 255.1 182.1C254.4 181.1 253.4 180.7 252.5 180.7C250.6 180.7 248.9 185.3 247.2 194.4C246.5 198.5 245.5 201.4 244.8 203C244.1 204 243.6 204.7 243.1 204.7C242.6 204.7 242.6 204 242.4 203C242.6 201.3 241.7 198.2 239.8 193.6C237.9 188.8 236.7 186.6 235.7 186.6C235.2 186.6 235 186.6 234.7 187.1C234.5 187.3 234.2 187.6 233.5 187.6C232.5 187.6 231.6 186.9 230.1 185.7C228.7 184.5 228.2 183.5 228.2 182.8C228.2 182.6 228.7 181.4 229.9 179.4C231 177.6 231.7 176.8 231.9 176.8L231.9 176.8L231.9 176.8L231.9 176.8L231.9 176.8ZM134.7 178C137.6 178 140 179.4 142.1 182.8C144.3 185.9 145.9 190.2 146.7 195.5C146.9 196 146.9 196.2 146.9 196.5L147.1 196.5C147.1 196.3 147.3 196 147.3 195.5C147.8 192.4 149 187.6 150.7 181.3C152.6 177 154.5 174.8 156.7 174.8C157.9 174.8 159.1 175.5 160.1 177C161.1 178.4 161.5 179.4 161.5 180.4C161.5 180.9 161.5 181.8 161 182.8C160.5 184.2 160 185 159.6 185C159.4 185 158.9 184.3 157.9 183.3C157.2 182.3 156.2 181.9 155.3 181.9C153.4 181.9 151.7 186.5 150 195.6C149.3 199.7 148.3 202.6 147.6 204.2C146.9 205.2 146.4 205.9 145.9 205.9C145.4 205.9 145.4 205.2 145.2 204.2C145.4 202.5 144.5 199.4 142.6 194.8C140.7 190 139.5 187.8 138.5 187.8C138 187.8 137.8 187.8 137.5 188.3C137.3 188.5 137 188.8 136.3 188.8C135.3 188.8 134.4 188.1 132.9 186.9C131.5 185.7 131 184.7 131 184C131 183.8 131.5 182.6 132.7 180.6C133.8 178.8 134.5 178 134.7 178L134.7 178L134.7 178L134.7 178L134.7 178ZM200.3 194.4C200.3 194.2 200.5 193.9 200.5 193.9C200.7 193.7 200.7 193.7 200.7 193.9C200.9 194.1 200.9 194.4 200.7 194.6C199.5 201.8 197.3 205.4 194.2 205.4C191.1 205.4 189.6 202.8 189.6 197.5C189.6 191 191.3 184.1 195.1 177.1C196.1 175.4 196.5 174.5 196.8 174.5L196.8 174.5C196.8 174.7 196.6 175.7 196.1 177.4C193.7 184.8 192.5 189.9 192.5 193C192.5 196.8 193.5 199 195.6 199C197.1 198.9 198.6 197.2 200.3 194.4L200.3 194.4L200.3 194.4L200.3 194.4L200.3 194.4ZM474.3 115.4C475.5 114.4 476.5 114 477.2 114C477.7 114 477.9 114.5 477.9 115.4C477.9 116.1 477.7 117.6 477.2 119.5C476.7 121.4 476.5 122.9 476.5 124.1C476.5 129.4 480.3 132.3 487.8 132.3C493.8 132.3 498.8 129.7 502.7 124.6C505.1 120.5 507.7 116.7 510.1 112.8C511.1 111.8 511.8 111.4 512.5 111.4C513.5 111.4 513.7 112.4 513.2 114.5C512.2 118.6 511.5 120.5 511.5 120C511.5 121.7 512.5 123.4 514.4 124.8C516.1 126.2 518.5 127.2 521.1 127.2C524.5 127.2 526.6 126.2 527.6 124.6C527.6 124.4 526.6 122.4 524.5 118.8C524.7 116.9 525.7 113.5 527.1 109C527.3 107.6 527.8 106.8 528.3 106.8C528.8 106.8 529.3 107 530 108C531.9 110.9 533.1 114.2 533.1 118.1C533.1 124.1 531.7 129.1 529 133.5C526.1 138.8 521.8 141.4 516 141.4C512.2 141.4 508.6 138.3 505.4 132.5C500.1 142.1 493.2 146.9 484.8 146.9C474.7 146.9 469.9 141.1 469.9 130.1C466.1 134.7 459.6 138.7 451.2 142.6L451.2 129.4C457.4 126.3 461.5 124.4 462.7 123.6C466.7 121.6 470.5 118.8 474.3 115.4L474.3 115.4L474.3 115.4L474.3 115.4L474.3 115.4ZM437.6 131.2C434 126.6 430.9 124.5 428 124.5C423.7 124.5 421.8 125.5 421.8 127.9C421.8 130.8 424.7 132.2 430.4 132.2C432.6 132.2 435 131.7 437.6 131.2L437.6 131.2L437.6 131.2L437.6 131.2L437.6 131.2ZM445.1 148.8C445.1 147.4 444.6 145.7 444.1 144C441.2 145 436.9 145.7 431.6 145.7C420.1 145.7 414.3 141.6 414.3 133.7C414.3 127.7 416 122.4 419.8 117.6C423.4 113.5 427.2 111.4 431.3 111.4C434.4 111.4 437.5 113.3 441.1 116.9C444.2 120.5 447.1 124.6 449.5 129.6C449.7 129.6 450.2 129.6 451.2 129.1L451.2 142.3L450.7 142.8C450.7 145.7 450 149 448.5 153.4C446.8 158.9 444.2 163.5 441.1 167.1C433.9 175.7 426 183.2 417.3 189.7C404.3 199.3 393.3 204.3 383.7 204.3C375.5 204.3 369.3 201.2 365 195.2C361.2 190.2 359.2 183.4 359.2 175.5C359.2 165.4 361.4 155.1 365.4 144.3C366.6 141.9 367.1 140.9 367.6 140.9C367.8 140.9 367.8 141.1 367.8 141.6C367.8 142.3 367.6 143.5 367.3 145C364.2 155.6 362.7 163.5 362.7 169C362.7 174 363.9 178.4 366.3 182C370.1 187 376.1 189.7 384.5 189.7C391.7 189.7 400.3 186.6 410.7 180.3C418.9 175.3 426.8 169.3 434.5 162.1C441.5 155.2 445.1 150.9 445.1 148.8L445.1 148.8L445.1 148.8L445.1 148.8L445.1 148.8ZM379.5 112.5C379 110.3 378.3 108.7 377.3 107.5C376.6 106.1 376.1 105.3 375.9 104.9C375.9 104.4 375.9 102.7 376.4 99.4C376.9 96.3 377.1 94.1 377.6 92.9C377.8 91.7 378.1 91.2 378.6 91.2C378.8 91.2 379.1 91.4 379.6 91.9C383 95.7 386.6 99.6 390.6 103.7C392.3 105.4 393 106.3 393 106.8C393 107 392.8 107.3 392.3 107.3C391.6 107.3 389.7 106.8 386.8 106.1C388.5 110.2 390.4 114.3 392.1 118.1C394.7 124.8 396.2 130.3 396.2 135.4C396.2 137.8 395.7 140.7 394.8 144.3C393.6 148.4 392.2 151.5 390.2 153.7C383.2 161.6 371.5 170.3 354.9 179.6C340.5 188 332.1 192.1 329.5 192.1C329 192.1 321.8 193.8 308.1 197.1C293.7 200.5 284.6 202.6 281 203.1C277.2 203.8 274.8 204.1 273.8 204.1C273.3 204.1 273.3 204.1 273.3 203.9C273.3 203.7 275.9 202.2 281.2 199.8C283.1 198.8 294.2 194 314.6 185.4C328.8 179.4 340.5 173.9 349.9 168.8C364.1 161.1 374.9 154.4 382.3 148.9C387.8 144.6 390.7 141.5 390.7 139.5C390.7 139 389.3 135.7 386.4 129.4C383.1 122.4 380.7 116.6 379.5 112.5L379.5 112.5L379.5 112.5L379.5 112.5L379.5 112.5ZM359.9 79.2C359.9 83 358 88.3 354.1 94.8C351.7 98.9 348.1 104.4 343.3 111.6C348.1 117.1 351.5 122.2 353.1 126.5C354.1 129.6 354.8 133.7 354.8 138.3C354.8 140.2 354.3 142.6 353.4 145.7C352.7 148.6 351.7 150.7 350.8 152.2C348.9 155.1 345.8 158 341 160.8C336 164.2 331.6 165.8 328 165.8C322.2 165.8 319.4 161.5 319.4 152.8C319.4 147 320.4 141.3 322.3 136C324.2 131.4 327.3 125.4 332.4 117.5C328.1 113.4 323.5 107.7 318.5 100.5C318 99.8 316.8 98.6 314.9 96.7C313.9 95.7 313.5 94.5 313.5 93.1C313.5 90.9 313.7 88.5 314.2 85.7C314.9 82.8 315.4 81.6 315.6 81.6C316.3 81.6 318.5 82.8 322.6 85.4C326.4 88 329.6 90 331.5 91.6C332.7 92.3 333.2 93 333.2 93L333.2 93.2C333.2 93.4 332.5 93.7 330.8 93.7C327.7 93.7 326 93.9 326 94.2C326 94.4 326.5 94.9 327.4 96.1C331.2 100.9 335.1 104.5 339.2 107.4C340.2 106 343.5 101.2 348.8 93C353.4 86 356 81.2 357.2 78.4C358.4 75.5 359.1 74.3 359.6 74.3C359.6 74.4 359.9 75.8 359.9 79.2L359.9 79.2L359.9 79.2L359.9 79.2L359.9 79.2ZM350.5 138.2C347.9 132.9 343.3 127.4 337.1 122.1C334.9 124.3 332.3 128.3 328.9 134.1C325.1 140.6 323.4 144.7 323.4 146.8C323.4 149.7 325.3 151.1 329.6 151.1C331.5 151.1 333.9 150.4 337 149.2C341.3 147.3 345.4 144.6 348.8 141.3C350.3 139.9 350.7 138.9 350.5 138.2L350.5 138.2L350.5 138.2L350.5 138.2L350.5 138.2ZM337.1 61.2L340.9 53.3C341.1 52.8 341.4 52.6 341.9 52.6C342.4 52.6 344.3 53.8 348.1 56.4C351.7 58.8 353.6 60.2 353.6 60.7C353.6 62.4 351.9 66 348.8 71.3C348.3 72 347.8 72 347.4 71.8C344.3 69.4 340.7 67 336.6 64.4C335.2 67.3 334 69.9 332.5 72.1C332.3 72.8 331.8 73.1 331.3 72.8C327.7 69.9 323.9 67.3 320 64.9C319.8 64.7 319.8 64.4 320 63.9L324.6 54.3C324.8 53.8 325.3 53.3 325.6 53.3C326.1 53.3 327.8 54.5 330.9 56.7C333.9 58.5 336.1 60.2 337.1 61.2L337.1 61.2L337.1 61.2L337.1 61.2L337.1 61.2ZM463.5 195.1C460.9 195.8 459.4 196.3 458.9 196.3L458.9 196.1C458.9 196.1 459.9 195.4 461.8 194.2C463.7 193 466.6 191.1 470.7 188C472.6 186.1 475.5 183 479.1 178.6C481.5 175.7 484.1 173.1 487 171.2C490.6 168.6 494 167.4 497.6 167.4C498.3 167.4 499.5 167.6 501 168.1C502.2 168.6 503.4 168.8 504.4 168.8C506.3 168.8 507.8 168.1 509 166.6C509.7 165.2 510.7 164 511.6 162.5C512.1 161.5 512.8 161.1 513.3 161.1C513.5 161.1 513.5 161.3 513.5 161.8C513.5 162.3 513.3 163.5 512.8 164.9C512.3 165.6 514.2 165.9 517.8 165.9C518.3 165.9 518.5 165.9 518.5 165.7C518.5 165.7 518.3 164.7 517.8 163.1C517.6 162.6 517.8 161.9 518.5 160.9C519.5 159.2 519.9 158.5 520.2 158.7C521.2 159.4 521.6 160.9 521.6 162.5C521.6 164.1 521.1 165.9 520.4 167.8C519.7 170 519 171.2 518.5 171.6C516.8 172.6 514.2 172.3 510.6 170.6C507.7 173.5 504.8 175.2 502 175.2C501.3 175.2 500.1 175 498.9 174.5C497.7 174 496.7 173.8 496 173.8C491.2 173.8 486.2 176 481.1 180.8C477.5 184.4 473.9 188 470.3 191.6C468.1 193.2 465.9 194.4 463.5 195.1L463.5 195.1L463.5 195.1L463.5 195.1L463.5 195.1ZM412.2 65.2C415.1 65.2 417.5 66.6 419.6 70C421.8 73.1 423.4 77.4 424.2 82.7C424.4 83.2 424.4 83.4 424.4 83.7L424.6 83.7C424.6 83.5 424.8 83.2 424.8 82.7C425.3 79.6 426.5 74.8 428.2 68.5C430.1 64.2 432 62 434.2 62C435.4 62 436.6 62.7 437.6 64.2C438.6 65.6 439 66.6 439 67.6C439 68.1 439 69 438.5 70C438 71.4 437.5 72.2 437.1 72.2C436.9 72.2 436.4 71.5 435.4 70.5C434.7 69.5 433.7 69.1 432.8 69.1C430.9 69.1 429.2 73.7 427.5 82.8C426.8 86.9 425.8 89.8 425.1 91.4C424.4 92.4 423.9 93.1 423.4 93.1C422.9 93.1 422.9 92.4 422.7 91.4C422.9 89.7 422 86.6 420.1 82C418.2 77.2 417 75 416 75C415.5 75 415.3 75 415 75.5C414.8 75.7 414.5 76 413.8 76C412.8 76 411.9 75.3 410.4 74.1C409 72.9 408.5 71.9 408.5 71.2C408.5 71 409 69.8 410.2 67.8C411.2 66 411.9 65.2 412.2 65.2L412.2 65.2L412.2 65.2L412.2 65.2L412.2 65.2ZM371.4 62.4C395.6 53.3 420.8 44.2 446.8 34.6C447.5 34.4 448 34.1 448 34.4C448.2 34.4 448.2 34.9 448 35.6C447 37.8 446.3 39 445.8 39.4C445.6 39.6 433.3 44.2 409.6 53.1C385.4 62 371.7 67.5 369 69.2C369.5 66.9 370.2 64.8 371.4 62.4L371.4 62.4L371.4 62.4L371.4 62.4L371.4 62.4ZM347.9 18.4C348.4 17 348.4 15.5 348.1 14.1C347.9 12.7 347.1 11.9 345.9 11.9C345.4 11.9 344.7 12.1 343.7 12.6C342.7 13.1 342.3 13.6 342.3 14C342.3 15.3 344.3 16.8 347.9 18.4L347.9 18.4L347.9 18.4L347.9 18.4L347.9 18.4ZM345 24.7C340.4 22.3 338.3 19.9 338.3 17.3C338.3 14.2 339.7 11.3 342.6 8.90002C345.5 6.30002 347.9 5.30002 349.8 6.00003C351.5 6.50003 352.2 8.20003 352.2 11C352.2 13.6 351.7 16.5 350.5 19.9C352.9 21.1 354.3 22.3 354.8 23.3C354.8 24.5 353.8 26.7 351.7 29.5C351.2 28.5 349.8 27.3 347.6 26.1C345 29.7 341.8 32.8 338 35.7C333.4 38.8 329.4 41.5 325.8 42.9C324.8 43.4 320.5 45.1 312.8 47.9C311.6 48.4 310.6 48.6 310.4 48.6C310.2 48.6 310.2 48.4 310.2 48.4C310.2 48.2 310.7 47.4 312.1 46.7C317.9 43.1 323.6 39.7 329.6 36.4C336.6 32.1 341.6 28.3 345 24.7L345 24.7L345 24.7L345 24.7L345 24.7ZM496.7 54.7C497.2 53.3 497.2 51.8 496.9 50.4C496.7 49 495.9 48.2 494.7 48.2C494.2 48.2 493.5 48.4 492.5 48.9C491.5 49.4 491.1 49.9 491.1 50.3C491.1 51.6 493.1 53 496.7 54.7L496.7 54.7L496.7 54.7L496.7 54.7L496.7 54.7ZM501.9 63.6C499.5 69.4 498.3 73.9 498.3 77.3C498.3 81.4 499.3 83.5 501.4 83.5C502.6 83.5 504 81.8 505.7 78.9C505.9 78.7 505.9 78.4 506.2 78.2C506.2 78.2 506.4 78.2 506.4 78.4C506.4 78.4 506.4 78.6001 506.4 79.1001C505 86.3001 502.8 89.9 499.9 89.9C496.8 89.9 495.3 87.3 495.3 82C495.3 79.4 495.8 76 497.2 71.7001C498.6 67.4001 499.4 65.2001 499.4 65C499.4 64.5 498.4 63.6001 496.3 62.4C492.5 67.4 487.2 72.2 480.5 76.3C475.9 78.9 471.4 81.3 466.6 83.3C457.7 86.9 452.4 88.8 451.2 89.5C450 90 449.3 90.2001 448.8 90.2001C448.6 90.2001 448.6 90 448.6 90C448.6 89.5 449.1 89 450.5 88.1001C458.2 83.8001 465.6 79.5 473.3 75.1001C483.4 69.3001 490.3 64.5 493.7 60.9C489.1 58.5 487 56.1001 487 53.5C487 50.4 488.4 47.5 491.3 44.9C494.2 42.5 496.6 41.5 498.5 42.3C499.9 42.8 500.9 44.5 500.9 47.3C500.9 49.9 500.4 52.8 499.2 55.9C501.6 57.3 502.6 58.8 502.6 60.2C502.7 60.9 502.4 62.1 501.9 63.6L501.9 63.6L501.9 63.6L501.9 63.6L501.9 63.6ZM392.7 28.5C392.7 28.3 392.9 28 392.9 28C393.1 27.8 393.1 27.8 393.1 28C393.3 28.2 393.3 28.5 393.1 28.7C391.9 35.9 389.7 39.5 386.6 39.5C383.5 39.5 382 36.9 382 31.6C382 25.1 383.7 18.2 387.5 11.2C388.5 9.50003 388.9 8.60002 389.2 8.60002L389.2 8.60002C389.2 8.80002 389 9.80002 388.5 11.5C386.1 18.9 384.9 24 384.9 27.1C384.9 30.9 385.9 33.1 388 33.1C389.6 33.1 391.1 31.4 392.7 28.5L392.7 28.5L392.7 28.5L392.7 28.5L392.7 28.5Z" id="Group" fill="#595959" stroke="none" clip-path="url(#clip_1)" />
  </g>
</svg>