<?xml version="1.0" encoding="utf-8"?>
<svg width="519.1001px" height="203.19997px" viewBox="0 0 519.1001 203.19997" version="1.1" xmlns:xlink="http://www.w3.org/1999/xlink" xmlns="http://www.w3.org/2000/svg">
  <defs>
    <path d="M519.1 0L519.1 0L519.1 203.2L0 203.2L0 0L519.1 0Z" id="path_1" />
    <clipPath id="clip_1">
      <use xlink:href="#path_1" clip-rule="evenodd" fill-rule="evenodd" />
    </clipPath>
  </defs>
  <g id="Surah_66_of_114_(modified)">
    <path d="M519.1 0L519.1 0L519.1 203.2L0 203.2L0 0L519.1 0Z" id="Surah_66_of_114_(modified)" fill="none" stroke="none" />
    <path d="M259.2 165.6C264.3 157.4 266.9 146.4 266.9 132.2C266.9 127.1 265.7 108.9 263.6 77.3C261.2 45.6 260.2 29.5 260.2 29.3C260.2 28.1 260.5 27.9 260.7 28.6C264.7 33.4 266.9 34.6 266.9 32.4C266.9 31.7 266.7 30.7 266.2 29.3C265.8 27.6 264.1 22.6 261.2 14.9C258.3 7.5 256.4 2.89999 255.7 1C255.4 0.199997 254.9 0 254.7 0C254.4 0 254.2 0.300003 253.7 1C251 7.39999 249.6 11.5 249.6 13.2C251 16.3 252 20.1 252 24.7C252 30 253.2 49.9 255.6 85.2C258 120.2 259.4 139.9 259.4 144C259.4 150.8 258.7 154.8 257.5 155.8C253.2 159.4 248.7 161.3 244.1 161.3L244.1 161.1C240.9 161.1 238.5 159.7 237.1 157.3C235.7 155.4 235.2 153 235.2 150.1C235.2 149.6 235.2 148.9 235.4 147.9C235.6 146.9 235.6 146.2 235.6 145.7C235.6 144.8 235.3 144.3 234.4 144.3C233.5 144.3 232.5 144.8 231.8 145.5C224.2 153.2 219.4 157.8 217.2 159.2C211.7 163.1 205.5 165 198.5 165C194.2 165 191 164.3 189.4 162.7C187.4 161.3 186.5 158.9 186 155.5L186 154.662C186.25 154.067 186.4 153.113 186.4 151.8C186.4 150.1 186.1 147.7 185.9 144.8C205.6 137.1 225.3 130.9 245.2 126.1C245.7 126.1 246.2 125.9 246.4 125.4C246.7 125.1 246.9 124.4 247.4 123.2L250.8 113.4C251.3 112.2 251 111.3 249.8 111.3C227.7 105.3 216.2 102.1 215.2 101.9C193.6 96.6 177.5 93.7 167.7 93.7C162.2 93.7 157.6 95.3 154 98.7C150.4 101.8 148.5 105.6 148.5 110.2C148.5 112.8 149.3 115.4 150.7 117.6C152.1 120 155.5 123.6 161 127.9C167.5 133.1 170.8 136 171.3 136.5C166.857 138.573 162.999 140.257 160.4 141.454L160.4 141.3C148.4 146.3 140 150.2 135.2 152.8C126.8 157.4 120 162.4 115 168.2C111.1 172.7 107.3 177.5 103.2 181.9C97.2 187.9 91 191 85 191C81.7 191 79 189.8 77.1 187.2C75.2 185.1 74.2 181.9 74.2 178.1C74.2 173.1 75.8 166.4 79.2 157.5C80.7279 153.261 81.9156 149.873 82.7274 147.359C85.7072 149.29 88.6135 151.355 91.4 153.6C91.9 153.9 92.4 153.6 92.6 152.9C94.1 150.7 95.3 148.1 96.7 145.2C100.8 147.8 104.4 150.2 107.5 152.6C107.9 152.8 108.4 152.8 108.9 152.1C112 146.8 113.7 143.2 113.7 141.5C113.7 141 111.8 139.6 108.2 137.2C104.4 134.6 102.5 133.4 102 133.4C101.5 133.4 101.2 133.6 101 134.1L97.2 142C96.2 141 94.1 139.4 91 137.5C87.9 135.3 86.2 134.1 85.7 134.1C85.4 134.1 84.9 134.6 84.7 135.1L80.1 144.7C79.9 145.2 79.9 145.5 80.1 145.7C80.3571 145.858 80.6137 146.017 80.8699 146.177C74.1657 159.907 70.9 170.923 70.9 179.4C70.9 185.9 72.6 191.7 76.4 196C80 200.5 84.3 202.7 89.1 202.7C94.9 202.7 100.6 199.3 106.4 192.6C116 181.6 123.5 174.1 128.5 170.3C131.1 168.1 136.2 165.5 143.6 161.9C147.184 160.307 152.652 157.921 160.3 154.544L160.3 154.7C169.2 150.8 175.4 148.2 179 147C180.5 149.806 181.766 151.863 182.786 153.239C182.721 153.663 182.659 154.116 182.6 154.6C182.1 157.4 181.9 159.8 181.9 162C181.9 165.4 182.1 168 183.1 170.2C185.5 176.5 190.6 179.6 198.5 179.6C205.2 179.6 211.7 176.9 217.9 171.4C219.3 170.2 222.5 166.9 227.5 161.1C228.3 160.2 229 159.9 229.7 159.7C230.2 160 230.4 160.2 230.4 160.7C230.9 170.8 235.5 175.8 244.1 175.8L244.1 175.9C249.8 175.9 254.9 172.3 259.2 165.6ZM228.4 0.599991C208.3 8.09999 189.1 15.3 170.6 22C169.4 24.4 168.7 26.6 168.1 28.7C190.7 19.3 210.6 11.6 227.4 5.39999C227.9 4.99998 228.6 3.79999 229.6 1.59999C229.8 0.899994 229.8 0.399994 229.8 0.399994C229.651 0.176421 229.335 0.286077 228.894 0.439236C228.744 0.491595 228.578 0.549039 228.4 0.599991ZM135.8 4.69998C138.7 4.69998 141.1 6.09998 143.2 9.49998C145.4 12.6 147 16.9 147.8 22.2C148 22.7 148 22.9 148 23.2L148.2 23.2C148.2 23 148.4 22.7 148.4 22.2C148.9 19.1 150.1 14.3 151.8 7.99998C153.7 3.69998 155.6 1.49998 157.8 1.49998C159 1.49998 160.2 2.19998 161.2 3.69998C162.2 5.09998 162.6 6.09998 162.6 7.09998C162.6 7.59998 162.6 8.49997 162.1 9.49997C161.6 10.9 161.1 11.7 160.7 11.7C160.5 11.7 160 11 159 9.99997C158.3 8.99997 157.3 8.59998 156.4 8.59998C154.5 8.59998 152.8 13.2 151.1 22.3C150.4 26.4 149.4 29.3 148.7 30.9C148 31.9 147.5 32.6 147 32.6C146.5 32.6 146.5 31.9 146.3 30.9C146.5 29.2 145.6 26.1 143.7 21.5C141.8 16.7 140.6 14.5 139.6 14.5C139.1 14.5 138.9 14.5 138.6 15C138.4 15.2 138.1 15.5 137.4 15.5C136.4 15.5 135.5 14.8 134 13.6C132.6 12.4 132.1 11.4 132.1 10.7C132.1 10.5 132.6 9.3 133.8 7.3C134.9 5.39998 135.6 4.69998 135.8 4.69998ZM272.6 16C274.1 19.2 274.8 23 274.8 27.8C274.8 31.8 276 50.8 278.5 84.7C280.9 118.5 282.1 137.7 282.1 142.5C282.1 147.6 281.9 152.1 281.4 156.2C281.371 156.579 281.342 156.944 281.314 157.293C281.15 159.335 281.029 160.846 281.2 161.7C281.4 162.4 281.7 162.4 282.4 161.2C282.9 160.3 283.3 159.1 284.3 157.4C287.6 148.8 289.3 138.7 289.3 127.4C289.3 123.6 288.4 107 286.2 77.5C284 47.8 282.8 32.9 282.8 32.4C282.8 31.2 283 30.7 283.5 31.4C287.8 36.2 289.7 37.4 289.7 35.2C289.7 34.7 289.7 33.5 289.2 32.3C288.7 30.4 287 25.6 283.9 17.7C281 10.2 279.3 5.69998 278.6 3.99998C278.1 3.29999 277.9 2.79999 277.4 2.79999C277.2 2.79999 276.9 3.29999 276.7 3.99998C273.8 10.2 272.6 14.3 272.6 16ZM324.3 15.1C324.3 17.7 326.4 20.1 331 22.5C327.6 26.1 322.6 29.9 315.6 34.2C309.6 37.5 303.9 40.9 298.1 44.5C296.7 45.2 296.2 46 296.2 46.2C296.2 46.2 296.2 46.4 296.4 46.4C296.6 46.4 297.6 46.2 298.8 45.7C306.5 42.9 310.8 41.2 311.8 40.7C315.4 39.3 319.4 36.6 324 33.5C327.8 30.6 331 27.5 333.6 23.9C335.8 25.1 337.2 26.3 337.7 27.3C339.8 24.5 340.8 22.3 340.8 21.1C340.3 20.1 338.9 18.9 336.5 17.7C337.7 14.3 338.2 11.4 338.2 8.8C338.2 6 337.5 4.3 335.8 3.8C333.9 3.09999 331.5 4.09999 328.6 6.7C325.7 9.09999 324.3 12 324.3 15.1ZM378.9 26.1C378.9 26.1 378.7 26.4 378.7 26.6C377 29.4 375.6 31.1 374 31.2C371.9 31.2 370.9 29 370.9 25.2C370.9 22.1 372.1 17 374.5 9.59999C375 7.89999 375.2 6.89999 375.2 6.7C374.9 6.7 374.5 7.60001 373.5 9.3C369.7 16.3 368 23.2 368 29.7C368 35 369.5 37.6 372.6 37.6C375.7 37.6 377.9 34 379.1 26.8C379.3 26.6 379.3 26.3 379.1 26.1C379.1 26.0093 379.1 25.9597 379.081 25.9513C379.059 25.9411 379.009 25.9907 378.9 26.1ZM108.9 27.7C108.9 27.7 108.7 28 108.7 28.2C107 31.1 105.6 32.8 104 32.8C101.9 32.8 100.9 30.6 100.9 26.8C100.9 23.7 102.1 18.6 104.5 11.2C105 9.49998 105.2 8.49998 105.2 8.29999C104.9 8.29999 104.5 9.2 103.5 10.9C99.7 17.9 98 24.8 98 31.3C98 36.6 99.5 39.2 102.6 39.2C105.7 39.2 107.9 35.6 109.1 28.4C109.3 28.2 109.3 27.9 109.1 27.7C109.1 27.6093 109.1 27.5597 109.081 27.5513C109.059 27.5411 109.009 27.5907 108.9 27.7ZM334 11.9C334.3 13.3 334.3 14.8 333.8 16.2C330.2 14.6 328.3 13.1 328.2 11.8C328.2 11.4 328.6 10.9 329.6 10.4C330.6 9.89998 331.3 9.69998 331.8 9.69998C333 9.69998 333.8 10.5 334 11.9ZM49.4 41.5C51.1 45.6 52.3 48.9 52.8 51.8C50.6 52.7 49.2 55.8 48.6 60.9999C48.4 62.1999 48.4 62.6999 48.6 62.6999C48.8 62.6999 49.3 62 50.5 60.7999C51.5 59.6 52.2 58.8999 52.7 58.8999C53.9 58.8999 55.1 59.3999 56.3 60.6C53.2 61.5 51.3 62.5 50.1 63.2C47.9 65.1 46.7 68 46.7 72.1C46.7 73.3 47.7 77.9 49.1 85.8C50.7 93.7 51.7 100.7 51.7 106.2C51.7 109.6 51.7 111.5 51.9 111.5C52.1 111.2 52.4 110.8 52.6 109.8C53.1 106.7 53.6 103.8 53.6 100.9C53.6 91 52 81.2 48.6 71.1C49.8 69.9 51.9 68.7 54.8 67.7C57.2 67 59.6 66.5 62 65.8C62.5 65.6 63 64.9 63.7 63.2C64.5 61.5 64.7 60.6 64.7 60.1C64.4 58.6 63 57 60.6 54.8C58 52.9 56.1 51.7 54.4 51.7C55.6 49.6 56.3 46.7 57 43.1C58.7 34 60.4 29.4 62.3 29.4C63.2 29.4 64.2 29.8 64.9 30.8C65.9 31.8 66.4 32.5 66.6 32.5C67 32.5 67.5 31.7 68 30.3C68.5 29.3 68.5 28.4 68.5 27.9C68.5 26.9 68.1 25.9 67.1 24.5C66.1 23 64.9 22.3 63.7 22.3C61.5 22.3 59.6 24.5 57.7 28.8C56 35.1 54.8 39.9 54.3 43C54.3 43.5 54.1 43.8 54.1 44L53.9 44C53.9 43.7 53.9 43.5 53.7 43C52.9 37.7 51.3 33.4 49.1 30.3C47 26.9 44.6 25.5 41.7 25.5C41.5 25.5 40.8 26.2 39.8 28.1C38.6 30.1 38.1 31.3 38.1 31.5C38.1 32.2 38.6 33.2 40 34.4C41.5 35.6 42.4 36.3 43.4 36.3C44.1 36.3 44.4 36 44.6 35.8C44.9 35.3 45.1 35.3 45.6 35.3C46.3 35.3 47.7 37.4 49.4 41.5ZM225.4 39.5C225.4 41.4 224.9 43.6 224 45.5C222.8 48.1 221.4 49.6 219.7 49.6C216.8 49.6 214.9 47.7 213.7 43.8C212.3 48.6 209.9 51.2 206.3 51.2C205.1 51.2 203.9 50.5 202.9 49C201.7 47.6 201.2 45.4 201.2 43L201.2 36.8C201.2 36.3 200.7 36.1 200.2 35.8C199.5 35.6 199.2 35.1 199.2 34.4C199.2 33 199.7 31.8 200.6 30.6C201.6 29.4 202.3 28.9 202.8 28.9C203.5 28.9 204 30.1 204 32.7C204 34.1 203.8 35.3 203.8 36.3C203.6 37.3 203.6 38 203.6 38.7C203.6 40.1 203.8 41.6 204.3 42.8C205 44.2 206 45.2 206.9 45.2C208.3 45.2 209.5 44.5 210.7 43.3C211.9 42.1 212.6 40.7 212.6 39C212.6 38 212.1 36.6 211.6 34.2C210.9 32 210.6 30.6 210.6 30.1C210.6 29.6 210.8 28.9 211.3 27.7C211.8 26.7 212.3 26.3 212.5 26.3C213 26.3 213.5 27.7 214.2 30.6C214.9 33.7 215.4 35.9 215.4 37.3C215.4 41.4 216.8 43.5 220 43.5C221.4 43.5 222.4 42.8 222.6 41.3C220 36.5 218.5 32.9 218.5 30.3C218.5 28.9 218.7 27.7 219.7 26.5C220.2 25.8 220.4 25.3 220.7 25.3C220.9 25.3 221.2 25.8 221.2 26.7C221.4 27.9 221.7 29.1 221.9 30.1C221.9 30.1 222.6 31.8 223.8 35.1C224.9 37.1 225.4 38.6 225.4 39.5ZM357.4 60.2C381.6 51.1 406.8 42 432.8 32.4C433.002 32.3422 433.188 32.2761 433.349 32.2186C433.747 32.0768 434 31.9866 434 32.2C434.2 32.2 434.2 32.7 434 33.4C433 35.6 432.3 36.8 431.8 37.2C431.6 37.4 419.3 42 395.6 50.9C371.4 59.8 357.7 65.3 355 67C355.4 64.7 356.2 62.6 357.4 60.2ZM171.8 41C172.5 39.8 173.5 39.3 174.2 39.3C174.7 39.3 175.2 39.5 175.2 40C175.2 40 175 40.2 175 40.5C174 42.7 173.1 45.1 172.4 47.5C177.4 51.1 179.8 54.9 179.6 58.5C179.1 62.6 178.6 65.2 177.9 66.2C175.5 69.1 172.9 70.8 169.5 70.8C166.1 70.8 164.7 68.6 164.7 64.8C164.7 64.1 164.7 63.1 164.9 62.2C166.1 54.4 168.5 47.4 171.8 41ZM487.9 61.4C485.5 67.2 484.3 71.7 484.3 75.1C484.3 79.2 485.3 81.3 487.4 81.3C488.6 81.3 490 79.6 491.7 76.7C491.9 76.5 491.9 76.2 492.2 76C492.2 76 492.4 76 492.4 76.2L492.4 76.9C491 84.1 488.8 87.7 485.9 87.7C482.8 87.7 481.3 85.1 481.3 79.8C481.3 77.2 481.8 73.8 483.2 69.5C484.6 65.2 485.4 63 485.4 62.8C485.4 62.3 484.4 61.4 482.3 60.2C478.5 65.2 473.2 70 466.5 74.1C461.9 76.7 457.4 79.1 452.6 81.1C443.7 84.7 438.4 86.6 437.2 87.3C436 87.8 435.3 88 434.8 88C434.6 88 434.6 87.8 434.6 87.8C434.6 87.3 435.1 86.8 436.5 85.9C444.2 81.6 451.6 77.3 459.3 72.9C469.4 67.1 476.3 62.3 479.7 58.7C475.1 56.3 473 53.9 473 51.3C473 48.2 474.4 45.3 477.3 42.7C480.2 40.3 482.6 39.3 484.5 40.1C485.9 40.6 486.9 42.3 486.9 45.1C486.9 47.7 486.4 50.6 485.2 53.7C487.6 55.1 488.6 56.6 488.6 58C488.6 58.7 488.4 59.9 487.9 61.4ZM482.6 52.5C483.1 51.1 483.1 49.6 482.8 48.2C482.6 46.8 481.8 46 480.6 46C480.1 46 479.4 46.2 478.4 46.7C477.4 47.2 477 47.7 477 48.1C477.1 49.4 479 50.8 482.6 52.5ZM326.8 51.1L323 59C322.1 58 319.9 56.3 316.8 54.5C313.7 52.3 312 51.1 311.5 51.1C311.2 51.1 310.7 51.6 310.5 52.1L305.9 61.7C305.7 62.2 305.7 62.5 305.9 62.7C309.8 65.1 313.6 67.7 317.2 70.6C317.7 70.9 318.2 70.6 318.4 69.9C319.9 67.7 321.1 65.1 322.5 62.2C326.6 64.8 330.2 67.2 333.3 69.6C333.7 69.8 334.2 69.8 334.7 69.1C337.8 63.8 339.5 60.2 339.5 58.5C339.5 58 337.6 56.6 334 54.2C330.2 51.6 328.3 50.4 327.8 50.4C327.3 50.4 327 50.6 326.8 51.1ZM146.4 77.7C141.6 82 135.1 84.4 127.4 84.4C125.2 84.4 123.1 83.7 121.6 82.5C120.2 81.3 119.4 79.6 119.4 77.7C119.4 74.3 120.6 71 123.5 67.6C126.4 64.5 129.3 61.6 131.9 58.5C132.6 58 132.4 57.5 131.4 57.1C129.5 56.4 127.1 56.1 124.7 56.1C123.5 56.1 122.1 56.3 120.4 57.3C120.337 57.3 120.263 57.3201 120.186 57.3411C120.02 57.3866 119.837 57.4367 119.7 57.3C119.7 57.3 119.7 57.1 119.9 56.6C120.9 54.2 121.8 52.5 122.8 51.8C124 50.8 125.9 50.4 128.6 50.4C134.4 50.4 137 51.6001 137 54.5C137 56.7001 135.3 59.5 131.7 63.6001L123.8 71.5C122.8 72.9 122.4 74.4 122.4 75.3C122.4 77.7 125 78.9 130.1 78.9C135.2 78.9 140.2 77.9 145.9 76.3C147.3 75.8 148.1 75.8 148.1 76.1C148.1 76.0627 148.03 76.1368 147.88 76.297L147.879 76.298C147.627 76.5664 147.151 77.0745 146.4 77.7ZM177.1 60.2C177.1 59 174.7 56.8 169.7 54C168 56.9 167.3 59.5 167.3 61.9C167.3 63.3 168 64.3 169.5 64.3C170.7 64.3 172.1 63.8 173.8 62.9C175.4 62.1 176.6 61.1 177.1 60.2ZM89.0964 99.3543C86.5957 91.3745 84.6764 83.4847 83.8 75.5C83.6 74.1 83.6 73.3 83.3 72.9C83.1 71.9 82.3 70.7 81.4 69.5L84.8 61.3C85.3 60.1 85.8 59.4 86.2 59.4C86.4 59.4 87.2 60.1 87.9 61.3L96.3 74.7C97.5 76.6 98 78.1 98 78.8C98 79.3 97.8 79.8 97.3 79.8C96.1 79.8 94.4 78.8 91.8 77.2C92.5 82.5 94.2 89 96.8 96.9C96.8 96.9472 96.791 96.9963 96.7735 97.0472C97.3834 98.8894 99.4465 100.99 102.7 103C106.1 105.4 110.4 107.3 115.2 109C117.4 109.7 118.3 111.2 117.8 113.1L116.1 122.7C115.9 123.9 114.9 123.9 113 122.7C107.7 119.8 101.2 118.4 93.6 118.4C83 118.4 70.6 124.2 55.9 135.7C48.2 141.9 40.8 148.2 33.3 154.2C27.8 158.6 22.8 160.7 18.5 160.7C13.5 160.7 9.10001 158.3 5.5 154C1.7 149.4 0 143.9 0 137.4C0 128.3 3.60001 116.5 11 102.1C11.3329 101.434 11.6659 100.904 11.9773 100.531C11.2552 99.2192 10.9 97.2793 10.9 94.7C10.9 88.2 12.6 81.3 16.4 74.3C17.4 72.6 17.8 71.7 18.1 71.7C18.1 71.9 17.9 72.9 17.4 74.6C15 82 13.8 87.1 13.8 90.2C13.8 94 14.8 96.2 16.9 96.2C18.5 96.2 19.9 94.5 21.6 91.6C21.6 91.4 21.8 91.1 21.8 91.1C21.9093 90.9907 21.9589 90.9411 21.9813 90.9513C22 90.9597 22 91.0093 22 91.1C22.2 91.3 22.2 91.6 22 91.8C20.8 99 18.6 102.6 15.5 102.6C14.4488 102.6 13.5816 102.301 12.8945 101.699C12.3563 104.003 10.7739 108.637 8.29999 115.5C4.89999 124.1 3.49998 131.1 3.49998 136.1C3.49998 139.9 4.19998 143.1 6.09999 145.5C7.99998 147.9 10.7 149.1 14 149.1C19.5 149.1 24.8 147.2 29.6 143.6C35.6 138.6 41.6 133.3 47.6 128C57.4 120.1 66.6 113.8 75.4 109.5C81.9 106.1 86.9 104.5 90 104.5C89.8 103.8 89.5 102.1 89 99.7C89 99.5849 89.0324 99.4698 89.0964 99.3543ZM405.3 68.1C403.2 64.7 400.8 63.3 397.9 63.3C397.7 63.3 397 64 395.9 65.9C394.7 67.9 394.2 69.1 394.2 69.3C394.2 70 394.7 71 396.1 72.2C397.6 73.4 398.5 74.1 399.5 74.1C400.2 74.1 400.5 73.8 400.7 73.6C401 73.1 401.2 73.1 401.7 73.1C402.7 73.1 403.9 75.3 405.8 80.1C407.7 84.7 408.6 87.8 408.4 89.5C408.6 90.5 408.6 91.2 409.1 91.2C409.6 91.2 410.1 90.5 410.8 89.5C411.5 87.9 412.5 85 413.2 80.9C414.9 71.8 416.6 67.2 418.5 67.2C419.4 67.2 420.4 67.6 421.1 68.6C422.1 69.6 422.6 70.3 422.8 70.3C423.2 70.3 423.7 69.5 424.2 68.1C424.7 67.1 424.7 66.2 424.7 65.7C424.7 64.7 424.3 63.7 423.3 62.3C422.3 60.8 421.1 60.1 419.9 60.1C417.7 60.1 415.8 62.3 413.9 66.6C412.2 72.9 411 77.7 410.5 80.8C410.5 81.3 410.3 81.6 410.3 81.8L410.1 81.8C410.1 81.5 410.1 81.3 409.9 80.8C409.1 75.5 407.5 71.2 405.3 68.1ZM228.4 69.1L224.6 77C223.7 76 221.5 74.3 218.4 72.5C215.3 70.3 213.6 69.1 213.1 69.1C212.8 69.1 212.3 69.6 212.1 70.1L207.5 79.7C207.3 80.2 207.3 80.5 207.5 80.7C211.4 83.1 215.2 85.7 218.8 88.6C219.3 88.9 219.8 88.6 220 87.9C221.5 85.7 222.7 83.1 224.1 80.2C228.2 82.8 231.8 85.2 234.9 87.6C235.3 87.8 235.8 87.8 236.3 87.1C239.4 81.7999 241.1 78.2 241.1 76.5C241.1 76 239.2 74.6 235.6 72.2C231.8 69.6 229.9 68.4 229.4 68.4C228.9 68.4 228.6 68.6 228.4 69.1ZM345.8 77C345.8 80.8 343.9 86.1 340 92.6C337.6 96.7 334 102.2 329.2 109.4C334 114.9 337.4 120 339 124.3C340 127.4 340.7 131.5 340.7 136.1C340.7 138 340.2 140.4 339.3 143.5C338.6 146.4 337.6 148.5 336.7 150C334.8 152.9 331.7 155.8 326.9 158.6C321.9 162 317.5 163.6 313.9 163.6C308.1 163.6 305.3 159.3 305.3 150.6C305.3 144.8 306.3 139.1 308.2 133.8C310.1 129.2 313.2 123.2 318.3 115.3C314 111.2 309.4 105.5 304.4 98.3C303.9 97.6 302.7 96.4 300.8 94.5C299.8 93.5 299.4 92.3 299.4 90.9C299.4 88.7 299.6 86.3 300.1 83.5C300.8 80.6 301.3 79.4 301.5 79.4C302.2 79.4 304.4 80.6 308.5 83.2C312.3 85.8 315.5 87.8 317.4 89.4C318.6 90.1 319.1 90.8 319.1 90.8L319.1 91C319.1 91.2 318.4 91.5 316.7 91.5C313.6 91.5 311.9 91.7 311.9 92C311.9 92.2 312.4 92.7 313.3 93.9C317.1 98.7 321 102.3 325.1 105.2C326.1 103.8 329.4 99 334.7 90.8C339.3 83.8 341.9 79 343.1 76.2C344.3 73.3 345 72.1 345.5 72.1C345.6 72.2 345.8 73.6 345.8 77ZM363.3 105.3C364.3 106.5 365 108.1 365.5 110.3C366.7 114.4 369.1 120.2 372.4 127.2C375.3 133.5 376.7 136.8 376.7 137.3C376.7 139.3 373.8 142.4 368.3 146.7C363.449 150.306 357.136 154.427 349.363 159.008C350.098 154.571 351.371 149.256 353.2 143C353.5 141.5 353.7 140.3 353.7 139.6C353.7 139.1 353.7 138.9 353.5 138.9C353 138.9 352.5 139.9 351.3 142.3C348.954 148.635 347.227 154.798 346.2 160.85C342.992 162.698 339.559 164.616 335.9 166.6C326.5 171.7 314.8 177.2 300.6 183.2C280.2 191.8 269.1 196.6 267.2 197.6C261.9 200 259.3 201.5 259.3 201.7C259.3 201.9 259.3 201.9 259.8 201.9C260.8 201.9 263.2 201.6 267 200.9C270.6 200.4 279.7 198.3 294.1 194.9C307.8 191.6 315 189.9 315.5 189.9C318.1 189.9 326.5 185.8 340.9 177.4C342.345 176.59 343.753 175.785 345.124 174.985C345.36 182.253 347.34 188.516 350.9 193.2C355.2 199.2 361.4 202.3 369.6 202.3C379.2 202.3 390.2 197.3 403.2 187.7C411.9 181.2 419.8 173.7 427 165.1C430.1 161.5 432.7 156.9 434.4 151.4C435.9 147 436.6 143.7 436.6 140.8L437.1 140.3L437.1 127.1C436.1 127.6 435.6 127.6 435.4 127.6C433 122.6 430.1 118.5 427 114.9C423.4 111.3 420.3 109.4 417.2 109.4C413.1 109.4 409.3 111.5 405.7 115.6C401.9 120.4 400.2 125.7 400.2 131.7C400.2 139.6 406 143.7 417.5 143.7C422.8 143.7 427.1 143 430 142C430.5 143.7 431 145.4 431 146.8C431 149 427.4 153.3 420.4 160.1C412.7 167.3 404.8 173.3 396.6 178.3C386.2 184.6 377.6 187.7 370.4 187.7C362 187.7 356 185 352.2 180C350.739 177.809 349.723 175.321 349.151 172.582C361.444 165.085 370.423 158.02 376.2 151.5C378.2 149.3 379.6 146.2 380.8 142.1C381.7 138.5 382.2 135.6 382.2 133.2C382.2 128.1 380.7 122.6 378.1 115.9C376.4 112.1 374.5 108 372.8 103.9C375.7 104.6 377.6 105.1 378.3 105.1C378.8 105.1 379 104.8 379 104.6C379 104.1 378.3 103.2 376.6 101.5C372.6 97.4 369 93.5 365.6 89.7C365.1 89.2 364.8 89 364.6 89C364.1 89 363.8 89.5 363.6 90.7C363.1 91.9 362.9 94.1 362.4 97.2C361.9 100.5 361.9 102.2 361.9 102.7C362.1 103.1 362.6 103.9 363.3 105.3ZM463.2 112C462.5 112 461.5 112.4 460.3 113.4C456.5 116.8 452.6 119.7 448.7 121.6C447.5 122.4 443.4 124.3 437.2 127.4L437.2 140.6C445.6 136.7 452.1 132.7 455.9 128.1C455.9 139.1 460.7 144.9 470.8 144.9C479.2 144.9 486.1 140.1 491.4 130.5C494.6 136.3 498.2 139.4 502 139.4C507.8 139.4 512.1 136.8 515 131.5C517.7 127.1 519.1 122.1 519.1 116.1C519.1 112.2 517.9 108.9 516 106C515.3 105 514.8 104.8 514.3 104.8C513.8 104.8 513.3 105.6 513.1 107C511.7 111.5 510.7 114.9 510.5 116.8C512.6 120.4 513.6 122.4 513.6 122.6C512.6 124.2 510.5 125.2 507.1 125.2C504.5 125.2 502.1 124.2 500.4 122.8C498.5 121.4 497.5 119.7 497.5 118C497.5 118.5 498.2 116.6 499.2 112.5C499.7 110.4 499.5 109.4 498.5 109.4C497.8 109.4 497.1 109.8 496.1 110.8C493.7 114.7 491.1 118.5 488.7 122.6C484.8 127.7 479.8 130.3 473.8 130.3C466.3 130.3 462.5 127.4 462.5 122.1C462.5 120.9 462.7 119.4 463.2 117.5C463.7 115.6 463.9 114.1 463.9 113.4C463.9 112.5 463.7 112 463.2 112ZM226.1 119.4C220.8 117.5 212.4 114.8 201.1 112.2C186.5 108.6 174.9 106.9 166.1 106.9C159.1 106.9 155.5 107.4 155.5 108.6C155.5 109.1 156.7 110.3 158.6 112.2C162.7 115.3 166.8 118.7 170.6 122C176.6 126.8 180.2 130.4 181.9 132.6C197.8 127.1 212.4 122.6 226.1 119.4ZM336.5 136C333.9 130.7 329.3 125.2 323.1 119.9C320.9 122.1 318.3 126.1 314.9 131.9C311.1 138.4 309.4 142.5 309.4 144.6C309.4 147.5 311.3 148.9 315.6 148.9C317.5 148.9 319.9 148.2 323 147C327.3 145.1 331.4 142.4 334.8 139.1C336.2 137.7 336.7 136.7 336.5 136ZM423.6 129.3C420 124.7 416.9 122.6 414 122.6C409.7 122.6 407.8 123.6 407.8 126C407.8 128.9 410.7 130.3 416.4 130.3C418.6 130.2 421 129.8 423.6 129.3ZM449.5 192.9C446.9 193.6 445.4 194.1 444.9 194.1L444.9 193.9C444.9 193.9 445.9 193.2 447.8 192C449.7 190.8 452.6 188.9 456.7 185.8C458.6 183.9 461.5 180.8 465.1 176.4C467.5 173.5 470.1 170.9 473 169C476.6 166.4 480 165.2 483.6 165.2C484.3 165.2 485.5 165.4 487 165.9C488.2 166.4 489.4 166.6 490.4 166.6C492.3 166.6 493.8 165.9 495 164.4C495.7 163 496.7 161.8 497.6 160.3C498.1 159.3 498.8 158.9 499.3 158.9C499.5 158.9 499.5 159.1 499.5 159.6C499.5 160.1 499.3 161.3 498.8 162.7C498.3 163.4 500.2 163.7 503.8 163.7C504.3 163.7 504.5 163.7 504.5 163.5C504.5 163.5 504.3 162.5 503.8 160.9C503.6 160.4 503.8 159.7 504.5 158.7L504.58 158.564C505.522 156.963 505.908 156.305 506.2 156.5C507.2 157.2 507.6 158.7 507.6 160.3C507.6 161.9 507.1 163.7 506.4 165.6C505.7 167.8 505 169 504.5 169.4C502.8 170.4 500.2 170.1 496.6 168.4C493.7 171.3 490.8 173 488 173C487.3 173 486.1 172.8 484.9 172.3C483.7 171.8 482.7 171.6 482 171.6C477.2 171.6 472.2 173.8 467.1 178.6L456.3 189.4C454.1 191 451.9 192.2 449.5 192.9ZM32.2 173.2C41.8 169.8 52.1 166 63.2 162.2C63.5851 162.123 63.8515 162.031 64.0451 161.964C64.354 161.858 64.477 161.816 64.6 162C64.8 162 64.8 162.5 64.4 163.2C63.7 165.4 63 166.6 62.5 167C52.9 170.4 42.1 174.4 29.9 180C30.2 177.8 31 175.6 32.2 173.2ZM231.4 184.7C231.4 187.3 230.2 190.2 228.3 193.3C226.1 196.4 223.5 199.3 220.1 201.7C218.7 202.7 217.9 203.1 217.7 203.1L217.7 203C217.7 202.8 218.2 202.3 219.1 201.1C224.6 195.1 227.5 191.3 227.5 189.1C227.5 187.4 226.5 186.5 224.9 186.5C223.9 186.5 223 186.7 222.3 187.2C221.6 187.4 221.3 187.7 221.1 187.7C221.1 187.7 220.9 187.7 220.9 187.5C220.9 187.5 220.9 187 221.1 186.1C222.1 182 224 180.1 227.3 180.1C229.9 179.9 231.4 181.6 231.4 184.7ZM168.5 180.9C153.4 186.4 139 191.7 125.3 196.5C124.1 198.9 123.4 201 122.9 203.2C140 196 154.8 190.3 167.8 185.7C168.3 185.3 169 184.1 169.7 181.9C170.1 181.2 170.1 180.7 169.9 180.7C169.777 180.516 169.654 180.558 169.345 180.664C169.152 180.731 168.885 180.823 168.5 180.9Z" id="Group" fill="#595959" fill-rule="evenodd" stroke="none" clip-path="url(#clip_1)" />
  </g>
</svg>