<?xml version="1.0" encoding="utf-8"?>
<svg width="495.60013px" height="204.51584px" viewBox="0 0 495.60013 204.51584" version="1.1" xmlns:xlink="http://www.w3.org/1999/xlink" xmlns="http://www.w3.org/2000/svg">
  <defs>
    <path d="M495.6 0L495.6 0L495.6 204.516L0 204.516L0 0L495.6 0Z" id="path_1" />
    <clipPath id="clip_1">
      <use xlink:href="#path_1" clip-rule="evenodd" fill-rule="evenodd" />
    </clipPath>
  </defs>
  <g id="Surah_105_of_114_(modified)">
    <path d="M495.6 0L495.6 0L495.6 204.516L0 204.516L0 0L495.6 0Z" id="Surah_105_of_114_(modified)" fill="none" stroke="none" />
    <path d="M196.1 1.7C196.8 0.5 197.8 0 198.5 0C199 0 199.5 0.199997 199.5 0.699997C199.5 0.699997 199.3 0.899994 199.3 1.2C198.3 3.39999 197.4 5.8 196.7 8.2C201.7 11.8 204.1 15.6 203.9 19.2C203.4 23.3 202.9 25.9 202.2 26.9C199.8 29.8 197.2 31.5 193.8 31.5C190.4 31.5 189 29.3 189 25.5C189 24.8 189 23.8 189.2 22.9C190.4 15.2 192.8 8.2 196.1 1.7ZM239.3 115.5C239.3 129.7 236.7 140.7 231.6 148.9C227.3 155.6 222.2 159.2 216.5 159.2L216.5 144.5C221.1 144.5 225.6 142.6 229.9 139C231.1 138 231.8 134 231.8 127.2C231.8 123.1 230.6 106.6 228.4 77.8C226.2 49 225.3 32 225.3 26.7C225.3 22.1 224.6 18.3 223.1 15.2C223.1 13.5 224.5 9.40001 227.2 3.00002C227.4 2.30002 227.7 2.00002 228.2 2.00002C228.4 2.00002 228.7 2.20001 229.2 3.20001C229.9 4.90001 231.8 9.40001 234.7 16.9C237.6 24.8 239.3 29.6 240 31.3C240.2 32.7 240.5 33.9 240.5 34.4C240.5 36.6 238.3 35.4 234.3 30.6C233.8 30.1 233.6 30.4 233.6 31.6C233.6 31.8 234.6 44.8 236.5 70.2C238.4 95.3 239.3 110.5 239.3 115.5ZM251.3 28.1C251.3 23.3 250.6 19.5 249.1 16.3C249.1 14.6 250.3 10.5 253.2 4.3C253.4 3.60001 253.7 3.10001 253.9 3.10001C254.4 3.10001 254.6 3.60001 255.1 4.3C255.8 6 257.5 10.5 260.4 18C263.5 25.9 265.2 30.7 265.7 32.6C266.2 33.8 266.2 35 266.2 35.5C266.2 37.7 264.3 36.5 260 31.7C259.5 31 259.3 31.5 259.3 32.7C259.3 33.2 260.5 48.1 262.7 77.8C264.9 107.3 265.8 123.9 265.8 127.7C265.8 139 264.1 149.1 260.8 157.7C259.8 159.4 259.4 160.6 258.9 161.5C258.2 162.7 257.9 162.7 257.7 162C257.529 161.146 257.65 159.635 257.814 157.593C257.842 157.244 257.871 156.879 257.9 156.5C258.4 152.4 258.6 147.9 258.6 142.8C258.6 138 257.4 118.8 255 85C252.5 51.2 251.3 32.2 251.3 28.1ZM140.2 11.3C138.1 7.89999 135.7 6.5 132.8 6.5C132.5 6.5 131.8 7.3 130.8 9.10002C129.6 11.1 129.1 12.3 129.1 12.5C129.1 13.2 129.6 14.2 131 15.4C132.5 16.6 133.4 17.3 134.4 17.3C135.1 17.3 135.4 17 135.6 16.8C135.9 16.3 136.1 16.3 136.6 16.3C137.6 16.3 138.8 18.5 140.7 23.3C142.6 27.9 143.5 31 143.3 32.7C143.5 33.7 143.5 34.4 144 34.4C144.5 34.4 145 33.7 145.7 32.7C146.4 31.1 147.4 28.2 148.1 24.1C149.8 15 151.5 10.4 153.4 10.4C154.3 10.4 155.3 10.8 156 11.8C157 12.8 157.5 13.5 157.7 13.5C158.1 13.5 158.6 12.7 159.1 11.3C159.6 10.3 159.6 9.39999 159.6 8.89999C159.6 7.89999 159.2 6.89999 158.2 5.5C157.2 4 156 3.3 154.8 3.3C152.6 3.3 150.7 5.5 148.8 9.8C147.1 16.1 145.9 20.9 145.4 24C145.4 24.5 145.2 24.8 145.2 25L145 25C145 24.7 145 24.5 144.8 24C144 18.7 142.4 14.4 140.2 11.3ZM300.8 15.5C300.8 18.1 302.9 20.5 307.5 22.9C304.1 26.5 299.1 30.3 292.1 34.6C286.1 37.9 280.4 41.3 274.6 44.9C273.2 45.6 272.7 46.4 272.7 46.6C272.7 46.6 272.7 46.8 272.9 46.8C273.1 46.8 274.1 46.6 275.3 46.1C283 43.3 287.3 41.6 288.3 41.1C291.9 39.7 295.9 37 300.5 33.9C304.3 31 307.5 27.9 310.1 24.3C312.3 25.5 313.7 26.7 314.2 27.7C316.3 24.9 317.3 22.7 317.3 21.5C316.8 20.5 315.4 19.3 313 18.1C314.2 14.7 314.7 11.8 314.7 9.20001C314.7 6.40001 314 4.70001 312.3 4.20001C310.4 3.5 308 4.5 305.1 7.10001C302.2 9.5 300.8 12.4 300.8 15.5ZM355.4 26.2C355.4 26.2 355.2 26.5 355.2 26.7C353.6 29.6 352.1 31.3 350.5 31.3C348.4 31.3 347.4 29.1 347.4 25.3C347.4 22.2 348.6 17.1 351 9.7C351.5 8 351.7 7 351.7 6.8C351.4 6.8 351 7.70001 350 9.40001C346.2 16.4 344.5 23.3 344.5 29.8C344.5 35.1 346 37.7 349.1 37.7C352.2 37.7 354.4 34.1 355.6 26.9C355.8 26.7 355.8 26.4 355.6 26.2C355.6 26.1093 355.6 26.0598 355.581 26.0513C355.559 26.0411 355.509 26.0907 355.4 26.2ZM5.5 130.1C1.7 137.3 0 146.5 0 157.5C0 167.3 1.5 175.3 4.89998 181.6C10.1 191.2 18.5 196.2 30.3 196.2C38.9 196.2 48.8 192.9 60.3 186.4C69.1 181.6 78 175.4 86.9 167.7C94.1 161.7 98.6 157.1 100.3 154.5C102 152.4 103.5 146.8 104.9 138.2C105.6 146.9 107 153.1 109.2 156.7C112.5 162.4 117.8 165.3 125 165.3L125 150.7C121.9 150.7 119.3 149.9 117.6 148.5C115.2 146.4 113.3 142.8 112.1 137C111.1 132.2 110.4 119.5 109.9 99.0999C109.2 76.6 108.2 59.8 106.8 49.2C104.9 33.2 102.2 20 99.1 9.39995C98.6 8.49995 98.3 7.99995 98.1 7.99995C97.6 7.99995 97.4 8.39995 96.9 9.39995C96.4 10.7999 95.5 15.0999 94.5 22.0999C96.7 34.2999 97.9 43.8999 98.6 50.3999C101 69.9 102.2 91.7 102.2 116.2C102.2 126.6 102.2 133.3 101.7 136.4C101.3 139.5 100.5 141.9 99.1 143.6C93.1 150.6 83.9 158.3 71.7 166.2C55.9 176.7 42.4 182 30.9 182C19.8 182 12.2 177.9 7.59999 170.2C4.69998 165.2 3.29999 159.2 3.29999 152.2C3.29999 145.7 4.5 138.7 7.39999 130.8C7.54684 130.521 7.67643 130.253 7.79068 129.995C10.4241 129.355 12.3183 125.79 13.4 119.3C13.6 119.1 13.6 118.8 13.4 118.6C13.4 118.509 13.4 118.46 13.3814 118.451C13.3589 118.441 13.3093 118.491 13.2 118.6C13.2 118.6 13 118.9 13 119.1C11.3 122 9.90001 123.7 8.29999 123.7C6.19998 123.7 5.19998 121.5 5.19998 117.7C5.19998 114.6 6.39999 109.5 8.79999 102.1C9.29999 100.4 9.49998 99.4 9.49998 99.2C9.19998 99.2 8.79999 100.1 7.79999 101.8C3.99998 108.8 2.29999 115.7 2.29999 122.2C2.29999 126.682 3.37253 129.233 5.57809 129.914C5.55206 129.975 5.52603 130.037 5.5 130.1ZM310.6 12.3C310.9 13.7 310.9 15.2 310.4 16.6C306.8 14.9 304.8 13.5 304.8 12.2C304.8 11.8 305.2 11.3 306.2 10.8C307.2 10.3 307.9 10.1 308.4 10.1C309.6 10.1 310.4 10.9 310.6 12.3ZM201.4 20.9C201.4 19.7 199 17.5 194 14.7C192.3 17.6 191.6 20.2 191.6 22.6C191.6 24 192.3 25 193.8 25C195 25 196.4 24.5 198.1 23.6C199.7 22.9 200.9 21.9 201.4 20.9ZM52.4 26.9C55.3 26.9 57.7 28.3 59.8 31.7C62 34.8 63.6 39.1 64.4 44.4C64.6 44.9 64.6 45.1 64.6 45.4L64.8 45.4C64.8 45.2 65 44.9 65 44.4C65.5 41.3 66.7 36.5 68.4 30.2C70.3 25.9 72.2 23.7 74.4 23.7C75.6 23.7 76.8 24.4 77.8 25.9C78.8 27.3 79.2 28.3 79.2 29.3C79.2 29.8 79.2 30.7 78.7 31.7C78.2 33.1 77.7 33.9 77.3 33.9C77.1 33.9 76.6 33.2 75.6 32.2C74.9 31.2 73.9 30.8 73 30.8C71.1 30.8 69.4 35.4 67.7 44.5C67 48.6 66 51.5 65.3 53.1C64.6 54.1 64.1 54.8 63.6 54.8C63.1 54.8 63.1 54.1 62.9 53.1C63.1 51.4 62.2 48.3 60.3 43.7C58.4 38.9 57.2 36.7 56.2 36.7C55.7 36.7 55.5 36.7 55.2 37.2C55 37.4 54.7 37.7 54 37.7C53 37.7 52.1 37 50.6 35.8C49.2 34.6 48.7 33.6 48.7 32.9C48.7 32.7 49.2 31.5 50.4 29.5C51.4 27.7 52.1 26.9 52.4 26.9ZM169 50C169 50 168.8 50.3 168.8 50.5C167.1 53.3 165.6 55 164.1 55.1C162 55.1 161 52.9 161 49.1C161 46 162.2 40.9 164.6 33.5C165.1 31.8 165.3 30.8 165.3 30.6C165 30.6 164.6 31.5 163.6 33.2C159.8 40.2 158.1 47.1 158.1 53.6C158.1 58.9 159.6 61.5 162.7 61.5C165.8 61.5 168 57.9 169.2 50.7C169.4 50.5 169.4 50.2 169.2 50C169.2 49.9093 169.2 49.8598 169.181 49.8513C169.159 49.8411 169.109 49.8907 169 50ZM333.9 60.5C358.1 51.4 383.3 42.3 409.3 32.7C409.502 32.6422 409.688 32.5761 409.849 32.5186C410.247 32.3768 410.5 32.2866 410.5 32.5C410.7 32.5 410.7 33 410.5 33.7C409.5 35.9 408.8 37.1 408.3 37.5C408.1 37.7 395.8 42.3 372.1 51.2C347.9 60.1 334.2 65.6 331.5 67.3C332 65.1 332.7 62.9 333.9 60.5ZM464.4 61.7C462 67.5 460.8 72 460.8 75.4C460.8 79.5 461.8 81.6 463.9 81.6C465.1 81.6 466.5 79.9 468.2 77C468.4 76.8 468.4 76.5 468.7 76.3C468.7 76.3 468.9 76.3 468.9 76.5L468.9 77.2C467.5 84.4001 465.3 88 462.4 88C459.3 88 457.8 85.4 457.8 80.1C457.8 77.5 458.3 74.1 459.7 69.8C461.1 65.5001 461.9 63.3 461.9 63.1C461.9 62.6 460.9 61.7 458.8 60.5C455 65.5 449.7 70.3 443 74.4C438.4 77 433.9 79.4 429.1 81.4C420.2 85 414.9 86.9 413.7 87.6C412.5 88.1 411.8 88.3 411.3 88.3C411.1 88.3 411.1 88.1 411.1 88.1C411.1 87.6 411.6 87.1 413 86.2C420.7 81.9001 428.1 77.6 435.8 73.2C445.9 67.4001 452.8 62.6 456.2 59C451.6 56.6 449.5 54.2 449.5 51.6C449.5 48.5 450.9 45.6 453.8 43C456.7 40.6 459.1 39.6 461 40.4C462.4 40.9 463.4 42.6 463.4 45.4C463.4 48 462.9 50.9 461.7 54C464.1 55.4 465.1 56.9 465.1 58.3C465.2 59.1 464.9 60.3 464.4 61.7ZM459.2 52.9C459.7 51.5 459.7 50 459.4 48.6C459.2 47.2 458.4 46.4 457.2 46.4C456.7 46.4 456 46.6 455 47.1C454 47.6 453.6 48.1 453.6 48.5C453.6 49.7 455.6 51.2 459.2 52.9ZM303.4 51.4L299.6 59.3C298.6 58.4 296.4 56.7 293.4 54.8C290.3 52.6 288.6 51.4 288.1 51.4C287.8 51.4 287.3 51.9 287.1 52.4L282.5 62C282.3 62.5 282.3 62.8 282.5 63C286.4 65.4 290.2 68 293.8 70.9C294.3 71.2 294.8 70.9 295 70.2C296.5 68 297.7 65.4 299.1 62.5C303.2 65.1 306.8 67.5 309.9 69.9C310.3 70.1 310.8 70.1 311.3 69.4C314.4 64.1 316.1 60.5 316.1 58.8C316.1 58.3 314.2 56.9 310.6 54.5C306.8 51.9 304.9 50.7 304.4 50.7C303.9 50.7 303.6 50.9 303.4 51.4ZM29.3 71.6C29.3 71.6 29.1 71.9 29.1 72.1C27.4 74.9 26 76.6 24.4 76.7C22.3 76.7 21.3 74.5 21.3 70.7C21.3 67.6 22.5 62.5 24.9 55.1C25.4 53.4 25.6 52.4 25.6 52.2C25.3 52.2 24.9 53.1 23.9 54.8C20.1 61.8 18.4 68.7 18.4 75.2C18.4 80.5 19.9 83.1 23 83.1C26.1 83.1 28.3 79.5 29.5 72.3C29.7 72.1 29.7 71.8 29.5 71.6C29.5 71.5093 29.5 71.4598 29.4814 71.4513C29.4589 71.4411 29.4093 71.4907 29.3 71.6ZM381.8 68.5C379.7 65.1 377.3 63.7 374.4 63.7C374.2 63.7 373.5 64.4 372.4 66.3C371.2 68.3 370.7 69.5 370.7 69.7C370.7 70.4 371.2 71.4 372.6 72.6C374.1 73.8 375 74.5 376 74.5C376.7 74.5 377 74.2 377.2 74C377.5 73.5 377.7 73.5 378.2 73.5C379.2 73.5 380.4 75.7 382.3 80.5C384.2 85.1 385.1 88.2 384.9 89.9C385.1 90.9 385.1 91.6 385.6 91.6C386.1 91.6 386.6 90.9 387.3 89.9C388 88.3 389 85.4 389.7 81.3C391.4 72.2 393.1 67.6 395 67.6C395.9 67.6 396.9 68 397.6 69C398.6 70 399.1 70.7 399.3 70.7C399.7 70.7 400.2 69.9 400.7 68.5C401.2 67.5 401.2 66.6 401.2 66.1C401.2 65.1 400.8 64.1 399.8 62.7C398.8 61.2 397.6 60.5 396.4 60.5C394.2 60.5 392.3 62.7 390.4 67C388.7 73.3 387.5 78.1 387 81.2C387 81.7 386.8 82 386.8 82.2L386.6 82.2C386.6 81.9 386.6 81.7 386.4 81.2C385.6 75.9 384 71.6 381.8 68.5ZM85.5 69.9C85.5 72.5 84.3 75.4 82.4 78.5C80.2 81.6 77.6 84.5 74.2 86.9C72.8 87.9 72 88.3 71.8 88.3L71.8 88.1C71.8 87.9 72.3 87.4 73.2 86.2C78.7 80.2 81.6 76.4 81.6 74.2C81.6 72.5 80.6 71.6 79 71.6C78 71.6 77.1 71.8 76.4 72.3C75.7 72.5 75.4 72.8 75.2 72.8C75.2 72.8 75 72.8 75 72.6C75 72.6 75 72.1 75.2 71.2C76.2 67.1 78.1 65.2 81.4 65.2C84 65.1 85.5 66.8 85.5 69.9ZM185.3 82.1C185.1 81.9 185.1 81.6 185.3 81.1L189.9 71.5C190.1 71 190.6 70.8 190.9 70.8C191.4 70.8 193.5 72 197.1 74.4C200.9 77 202.9 78.5 202.9 79C202.9 80.7 201.2 84 197.9 89.3L197.871 89.3403C197.392 90.0114 197.19 90.2942 196.7 90C193 87.2 189.2 84.5 185.3 82.1ZM322.4 77.3C322.4 81.1 320.5 86.4 316.6 92.9C314.2 97 310.6 102.5 305.8 109.7C310.6 115.2 314 120.3 315.6 124.6C316.6 127.7 317.3 131.8 317.3 136.4C317.3 138.3 316.8 140.7 315.9 143.8C315.2 146.7 314.2 148.8 313.3 150.3C311.4 153.2 308.3 156.1 303.5 158.9C298.5 162.3 294.1 163.9 290.5 163.9C284.7 163.9 281.9 159.6 281.9 150.9C281.9 145.1 282.9 139.4 284.8 134.1C286.7 129.5 289.8 123.5 294.9 115.6C290.6 111.5 286 105.8 281 98.6C280.5 97.9 279.3 96.7 277.4 94.8C276.4 93.8 276 92.6 276 91.2C276 89 276.2 86.6 276.7 83.8C277.4 80.9 277.9 79.7 278.1 79.7C278.8 79.7 281 80.9 285.1 83.5C288.9 86.1 292.1 88.1 294 89.7C295.2 90.4 295.7 91.1 295.7 91.1L295.7 91.3C295.7 91.5 295 91.8 293.3 91.8C290.2 91.8 288.5 92 288.5 92.3C288.5 92.5 289 93 289.9 94.2C293.7 99 297.6 102.6 301.7 105.5C302.7 104.1 306 99.3 311.3 91.1C315.9 84.1 318.5 79.3 319.7 76.5C320.9 73.6 321.6 72.4 322.1 72.4C322.1 72.4148 322.107 72.4605 322.118 72.5383C322.182 72.9849 322.4 74.4898 322.4 77.3ZM134.4 89.8C137.3 89.8 139.7 91.2 141.8 94.6C144 97.7 145.6 102 146.4 107.3C146.6 107.8 146.6 108 146.6 108.3L146.8 108.3C146.8 108.1 147 107.8 147 107.3C147.5 104.2 148.7 99.4 150.4 93.1C152.3 88.8 154.2 86.6 156.4 86.6C157.6 86.6 158.8 87.3 159.8 88.8C160.8 90.2 161.2 91.2 161.2 92.2C161.2 92.7 161.2 93.6 160.7 94.6C160.2 96 159.7 96.8 159.3 96.8C159.1 96.8 158.6 96.1 157.6 95.1C156.9 94.1 155.9 93.7 155 93.7C153.1 93.7 151.4 98.3 149.7 107.4C149 111.5 148 114.4 147.3 116C146.6 117 146.1 117.7 145.6 117.7C145.1 117.7 145.1 117 144.9 116C145.1 114.3 144.2 111.2 142.3 106.6C140.4 101.8 139.2 99.6 138.2 99.6C137.7 99.6 137.5 99.6 137.2 100.1C137 100.3 136.7 100.6 136 100.6C135 100.6 134.1 99.9 132.6 98.7C131.2 97.5 130.7 96.5 130.7 95.8C130.7 95.6 131.2 94.4 132.4 92.4C133.5 90.5 134.2 89.8 134.4 89.8ZM339.8 105.7C340.8 106.9 341.5 108.5 342 110.7C343.2 114.8 345.6 120.5 348.9 127.6C351.8 133.9 353.2 137.2 353.2 137.7C353.2 139.7 350.3 142.8 344.8 147.1C339.964 150.694 333.677 154.801 325.937 159.364C326.668 154.896 327.949 149.529 329.8 143.2C330.1 141.7 330.3 140.5 330.3 139.8C330.3 139.3 330.3 139.1 330.1 139.1C329.6 139.1 329.1 140.1 327.9 142.5C325.533 148.89 323.797 155.106 322.773 161.208C319.545 163.069 316.087 165.001 312.4 167C303 172.1 291.3 177.6 277.1 183.6C256.7 192.2 245.6 197 243.7 198C238.4 200.4 235.8 201.9 235.8 202.1C235.8 202.3 235.8 202.3 236.3 202.3C237.3 202.3 239.7 202 243.5 201.3C247.1 200.8 256.2 198.7 270.6 195.3C284.3 192 291.5 190.3 292 190.3C294.6 190.3 303 186.2 317.4 177.8C318.882 176.97 320.325 176.144 321.729 175.324C321.985 182.532 323.963 188.746 327.5 193.4C331.8 199.4 338 202.5 346.2 202.5C355.8 202.5 366.8 197.5 379.8 187.9C388.5 181.4 396.4 173.9 403.6 165.3C406.7 161.7 409.3 157.1 411 151.6C412.5 147.2 413.2 143.9 413.2 141L413.7 140.5L413.7 127.2C412.7 127.7 412.2 127.7 412 127.7C409.6 122.7 406.7 118.6 403.6 115C400 111.4 396.9 109.5 393.8 109.5C389.7 109.5 385.9 111.6 382.3 115.7C378.5 120.5 376.8 125.8 376.8 131.8C376.8 139.7 382.6 143.8 394.1 143.8C399.4 143.8 403.7 143.1 406.6 142.1C407.1 143.8 407.6 145.5 407.6 146.9C407.6 149.1 404 153.4 397 160.3C389.3 167.5 381.4 173.5 373.2 178.5C362.8 184.8 354.2 187.9 347 187.9C338.6 187.9 332.6 185.2 328.8 180.2C327.361 178.042 326.354 175.596 325.777 172.906C338.005 165.437 346.942 158.398 352.7 151.9C354.7 149.7 356.1 146.6 357.3 142.5C358.2 138.9 358.7 136 358.7 133.6C358.7 128.5 357.2 123 354.6 116.3C352.9 112.5 351 108.4 349.3 104.3C352.2 105 354.1 105.5 354.8 105.5C355.3 105.5 355.5 105.2 355.5 105C355.5 104.5 354.8 103.6 353.1 101.9C349.1 97.8 345.5 93.9 342.1 90.1C341.6 89.6 341.3 89.4 341.1 89.4C340.6 89.4 340.3 89.9 340.1 91.1C339.6 92.3 339.4 94.5 338.9 97.6C338.4 100.9 338.4 102.6 338.4 103.1C338.6 103.5 339.1 104.3 339.8 105.7ZM189.2 153.9C194.7 157.2 203.8 158.9 216.3 158.9L216.3 144.5C209.1 144.5 204 144.2 201.4 143.5C205.4 138.2 207.6 130.8 207.6 121.4C207.6 117.5 206.9 113.7 205.7 110.1C204.1 105.5 201.4 103.1 198.3 103.1C194.9 103.1 191.1 106.5 186.3 112.7C181.2 119.4 178.6 126.4 178.6 133.1C178.6 137.9 179.3 141.7 181 144.6C177.7 146 174.3 147 170.7 147L170.7 146.9C167.5 146.9 165.1 145.5 163.7 143.1C162.3 141.2 161.8 138.8 161.8 135.9C161.8 135.4 161.8 134.7 162 133.7C162.2 132.7 162.2 132 162.2 131.5C162.2 130.6 161.9 130.1 161 130.1C160.1 130.1 159.1 130.6 158.4 131.3C150.8 139 146 143.6 143.8 145C138.3 148.9 132.1 150.8 125.1 150.8L125.1 165.4C131.8 165.4 138.3 162.7 144.5 157.2C145.9 156 149.1 152.7 154.1 146.9C154.9 146 155.6 145.7 156.3 145.5C156.8 145.8 157 146 157 146.5C157.5 156.6 162.1 161.6 170.7 161.6C176 161.6 182.2 158.9 189.2 153.9ZM81.2 109C81.2 109.5 81 110.4 80.5 111.4C80.3 112.8 79.8 113.6 79.1 113.6C78.9 113.6 78.4 112.9 77.4 111.9C76.7 110.9 75.7 110.5 75 110.5C73.1 110.5 71.2 115.1 69.5 124.2C68.8 128.3 68.1 131.2 67.1 132.8C66.8493 133.158 66.6242 133.478 66.4157 133.741C66.1783 134.442 65.8022 135.395 65.3 136.6C63.6 140.4 60.3 144.3 55.2 147.9C50.6 151.3 46.6 153.7 43 155.3C42.3 155.8 38 157.5 30 160.3C28.8 160.8 28.1 161 27.6 161C27.4 161 27.4 160.8 27.4 160.8C27.4 160.6 28.1 159.8 29.3 159.1C35.8 155.3 44.9 149.7 56.9 141.8C59.8 139.6 61.9 137.5 63.6 135.6C64.1582 134.954 64.6387 134.394 65.044 133.925C65.1481 134.286 65.2894 134.5 65.4 134.5C65.7209 134.5 66.0419 134.212 66.4156 133.741C66.6509 133.046 66.7498 132.599 66.7 132.4L66.7 132.2C66.5588 132.2 66.0185 132.798 65.044 133.925C64.9599 133.634 64.9 133.247 64.9 132.8C64.9 131.1 63.9 128 62 123.4C60.1001 118.6 58.9 116.4 58.2 116.4C57.5 116.4 57.2 116.4 57 116.9C57 117.1 56.5 117.4 55.8 117.4C54.8 117.4 53.9001 116.7 52.4001 115.5C51.2001 114.3 50.5001 113.3 50.5001 112.6C50.5001 112.4 51.0001 111.2 52.2001 109.2C53.4001 107.3 54.1001 106.6 54.4001 106.6C57.0001 106.6 59.4001 108 61.6001 111.4C64 114.8 65.4001 118.8 66.4001 124.1L66.4001 125.1C66.5094 125.209 66.5589 125.259 66.5814 125.249C66.6001 125.24 66.6001 125.191 66.6001 125.1C66.6001 124.9 66.8 124.6 67.1001 124.1C67.3 121 68.5 116.2 70.2001 109.9C72.1001 105.6 74.0001 103.4 76.2001 103.4C77.4001 103.4 78.6001 104.1 79.8001 105.6C80.7 107.1 81.2 108.1 81.2 109ZM439.7 112.2C439 112.2 438 112.6 436.8 113.6C433 116.9 429.2 119.8 425.2 121.7C424 122.5 419.9 124.4 413.7 127.5L413.7 140.8C422.1 136.9 428.6 132.9 432.4 128.3C432.4 139.3 437.2 145.1 447.3 145.1C455.7 145.1 462.6 140.3 467.9 130.7C471.1 136.5 474.7 139.6 478.5 139.6C484.3 139.6 488.6 137 491.5 131.7C494.2 127.3 495.6 122.3 495.6 116.3C495.6 112.4 494.4 109.1 492.5 106.2C491.8 105.2 491.3 105 490.8 105C490.3 105 489.8 105.8 489.6 107.2C488.2 111.7 487.2 115.1 487 117C489.1 120.6 490.1 122.6 490.1 122.8C489.1 124.4 487 125.4 483.6 125.4C481 125.4 478.6 124.4 476.9 123C475 121.6 474 119.9 474 118.2C474 118.7 474.7 116.8 475.7 112.7C476.2 110.6 476 109.6 475 109.6C474.3 109.6 473.6 110 472.6 111C470.2 114.9 467.6 118.7 465.2 122.8C461.3 127.9 456.3 130.5 450.3 130.5C442.8 130.5 439 127.6 439 122.3C439 121.1 439.2 119.6 439.7 117.7C440.2 115.8 440.4 114.3 440.4 113.6C440.4 112.7 440.2 112.2 439.7 112.2ZM199.9 122.7C201.4 126.1 202.1 129 202.1 130.9C200.2 134 196.6 136.9 191.3 139.4C189.4 138.7 187.5 137.5 185.8 135.6C184.1 133.9 182.9 132.2 182.4 130.8C183.6 128.1 185.5 125.3 188.6 121.9C191.8 118.6 194.2 116.9 195.6 116.9C196.8 116.9 198.2 118.9 199.9 122.7ZM313 136.4C310.4 131.1 305.8 125.6 299.6 120.3C297.4 122.5 294.8 126.5 291.4 132.3C287.6 138.8 285.9 142.9 285.9 145C285.9 147.9 287.8 149.3 292.1 149.3C294 149.3 296.4 148.6 299.5 147.4C303.8 145.5 307.9 142.8 311.3 139.5C312.8 138.1 313.2 137.1 313 136.4ZM400.1 129.4C396.5 124.8 393.4 122.7 390.5 122.7C386.2 122.7 384.3 123.7 384.3 126.1C384.3 129 387.2 130.4 392.9 130.4C394.93 130.4 397.13 129.974 399.5 129.516C399.699 129.477 399.899 129.439 400.1 129.4ZM426 193.3C423.4 194 421.9 194.5 421.4 194.5L421.4 194.3C421.4 194.3 422.4 193.6 424.3 192.4C426.2 191.2 429.1 189.3 433.2 186.2C435.1 184.3 438 181.2 441.6 176.8C444 173.9 446.6 171.3 449.5 169.4C453.1 166.8 456.5 165.6 460.1 165.6C460.8 165.6 462 165.8 463.5 166.3C464.7 166.8 465.9 167 466.9 167C468.8 167 470.3 166.3 471.5 164.8C472.2 163.4 473.2 162.2 474.1 160.7C474.6 159.7 475.3 159.3 475.8 159.3C476 159.3 476 159.5 476 160C476 160.5 475.8 161.7 475.3 163.1C474.8 163.8 476.7 164.1 480.3 164.1C480.8 164.1 481 164.1 481 163.9C481 163.9 480.8 162.9 480.3 161.3C480.1 160.8 480.3 160.1 481 159.1L481.08 158.964C482.022 157.363 482.408 156.705 482.7 156.9C483.7 157.6 484.1 159.1 484.1 160.7C484.1 162.4 483.6 164.1 482.9 166C482.2 168.2 481.5 169.4 481 169.8C479.3 170.8 476.7 170.5 473.1 168.8C470.2 171.7 467.3 173.4 464.5 173.4C463.8 173.4 462.6 173.2 461.4 172.7C460.2 172.2 459.2 172 458.5 172C453.7 172 448.7 174.2 443.6 179L432.8 189.8C430.6 191.3 428.4 192.5 426 193.3ZM236.9 176.4C216.8 183.9 197.6 191.1 179.1 197.8C177.9 200.2 177.2 202.4 176.6 204.5C199.2 195.1 219.1 187.4 235.9 181.2C236.4 180.8 237.1 179.6 238.1 177.4C238.3 176.7 238.3 176.2 238.3 176.2C238.151 175.976 237.835 176.086 237.394 176.239C237.244 176.292 237.078 176.349 236.9 176.4ZM151.7 184.9L147.9 192.8C146.9 191.8 144.8 190.1 141.7 188.3C138.6 186.1 136.9 184.9 136.4 184.9C136.1 184.9 135.6 185.4 135.4 185.9L130.8 195.5C130.6 196 130.6 196.3 130.8 196.5C134.7 198.9 138.5 201.5 142.1 204.4C142.6 204.7 143.1 204.4 143.3 203.7C144.8 201.5 146 198.9 147.4 196C151.5 198.6 155.1 201 158.2 203.4C158.6 203.6 159.1 203.6 159.6 202.9C162.7 197.6 164.4 194 164.4 192.3C164.4 191.8 162.5 190.4 158.9 188C155.1 185.4 153.2 184.2 152.7 184.2C152.2 184.2 151.9 184.4 151.7 184.9ZM72.8 197.6C82.4 194.2 92.7 190.4 103.8 186.6C104.185 186.523 104.452 186.431 104.645 186.364C104.954 186.258 105.077 186.216 105.2 186.4C105.4 186.4 105.4 186.9 105 187.6C104.3 189.8 103.6 191 103.1 191.4C93.5 194.8 82.7 198.8 70.5 204.4C70.8 202.1 71.6 200 72.8 197.6Z" id="Group" fill="#595959" fill-rule="evenodd" stroke="none" clip-path="url(#clip_1)" />
  </g>
</svg>