<?xml version="1.0" encoding="utf-8"?>
<svg width="452.8001px" height="210.60005px" viewBox="0 0 452.8001 210.60005" version="1.1" xmlns:xlink="http://www.w3.org/1999/xlink" xmlns="http://www.w3.org/2000/svg">
  <defs>
    <path d="M452.8 0L452.8 0L452.8 210.6L0 210.6L0 0L452.8 0Z" id="path_1" />
    <clipPath id="clip_1">
      <use xlink:href="#path_1" clip-rule="evenodd" fill-rule="evenodd" />
    </clipPath>
  </defs>
  <g id="Surah_24_of_114_(modified)">
    <path d="M452.8 0L452.8 0L452.8 210.6L0 210.6L0 0L452.8 0Z" id="Surah_24_of_114_(modified)" fill="none" stroke="none" />
    <path d="M191.7 146.8C196.8 138.6 199.4 127.6 199.4 113.4C199.4 108.3 198.4 93.2 196.6 68.2C194.7 42.8 193.7 29.8 193.7 29.6C193.7 28.4 193.9 28.1 194.4 28.6C198.4 33.4 200.6 34.6 200.6 32.4C200.6 31.9 200.3 30.7 200.1 29.3C199.4 27.6 197.7 22.8 194.8 14.9C191.9 7.39999 190 2.89999 189.3 1.2C188.8 0.199997 188.5 0 188.3 0C187.8 0 187.5 0.300003 187.3 1C184.6 7.39999 183.2 11.5 183.2 13.2C184.7 16.3 185.4 20.1 185.4 24.7C185.4 30 186.3 47 188.5 75.8C190.7 104.6 191.9 121.1 191.9 125.2C191.9 132 191.2 136 190 137C185.7 140.6 181.2 142.5 176.6 142.5L176.6 157.1C182.3 157.1 187.4 153.5 191.7 146.8ZM150.4 16.4C150.4 19 152.5 21.4 157.1 23.8C153.8 27.4 148.7 31.3 141.7 35.5C135.7 38.8 130 42.2 124.2 45.8C122.8 46.5 122.3 47.3 122.3 47.5C122.3 47.5 122.3 47.7 122.5 47.7C122.7 47.7 123.7 47.5 124.9 47C132.6 44.2 136.9 42.5 137.9 42C141.5 40.6 145.5 37.9 150.1 34.8C153.9 31.9 157.1 28.8 159.7 25.2C161.9 26.4 163.3 27.6 163.8 28.6C165.9 25.8 166.9 23.6 166.9 22.4C166.4 21.4 165 20.2 162.6 19C163.8 15.6 164.3 12.7 164.3 10.1C164.3 7.30002 163.6 5.60002 161.9 5.10002C160 4.40001 157.6 5.40001 154.7 8.00002C151.8 10.4 150.4 13.3 150.4 16.4ZM258 17.9C258 20.5 260.1 22.9 264.7 25.3C261.3 28.9 256.3 32.7 249.3 37C243.3 40.3 237.6 43.7 231.8 47.3C230.4 48 229.9 48.8 229.9 49C229.9 49 229.9 49.2 230.1 49.2C230.3 49.2 231.3 49 232.5 48.5C240.2 45.7 244.5 44 245.5 43.5C249.1 42.1 253.1 39.4 257.7 36.3C261.5 33.4 264.7 30.3 267.3 26.7C269.5 27.9 270.9 29.1 271.4 30.1C273.5 27.3 274.5 25.1 274.5 23.9C274 22.9 272.6 21.7 270.2 20.5C271.4 17.1 271.9 14.2 271.9 11.6C271.9 8.80002 271.2 7.10002 269.5 6.60002C267.6 5.90001 265.2 6.90001 262.3 9.50002C259.4 11.9 258 14.8 258 17.9ZM206.3 23.8C207.8 27 208.5 30.8 208.5 35.6C208.5 39.7 209.7 58.6 212.2 92.4999C214.6 126.3 215.8 145.5 215.8 150.3C215.8 155.4 215.6 159.9 215.1 164C215.071 164.379 215.042 164.744 215.014 165.093C214.85 167.136 214.729 168.646 214.9 169.5C215.1 170.2 215.4 170.2 216.1 169C216.6 168.1 217 166.9 218 165.2C221.3 156.6 223 146.5 223 135.2C223 131.4 222.1 114.8 219.9 85.3C217.7 55.6 216.5 40.7 216.5 40.2C216.5 39 216.7 38.5 217.2 39.2C221.5 44 223.4 45.2 223.4 43C223.4 42.5 223.4 41.3 222.9 40.1C222.4 38.2 220.7 33.4 217.6 25.5C214.7 18 213 13.5 212.3 11.8C211.8 11.1 211.6 10.6 211.1 10.6C210.9 10.6 210.6 11.1 210.4 11.8C207.5 18 206.3 22.1 206.3 23.8ZM160.2 13.3C160.5 14.7 160.5 16.2 160 17.6C156.4 15.9 154.5 14.5 154.4 13.2C154.4 12.8 154.8 12.3 155.8 11.8C156.8 11.3 157.5 11.1 158 11.1C159.2 11.1 160 11.9 160.2 13.3ZM267.7 14.7C268 16.1 268 17.6 267.5 19C263.9 17.4 262 15.9 261.9 14.6C261.9 14.2 262.3 13.7 263.3 13.2C264.3 12.7 265 12.5 265.5 12.5C266.7 12.5 267.5 13.3 267.7 14.7ZM309.3 32C309.3 32 309.1 32.3 309.1 32.5C307.4 35.4 305.9 37 304.4 37.1C302.3 37.1 301.3 34.9 301.3 31.1C301.3 28 302.5 22.9 304.9 15.5C305.4 13.8 305.6 12.8 305.6 12.6C305.3 12.6 304.9 13.5 303.9 15.2C300.1 22.2 298.4 29.1 298.4 35.6C298.4 40.9 299.9 43.5 303 43.5C306.1 43.5 308.3 39.9 309.5 32.7C309.7 32.5 309.7 32.2 309.5 32C309.5 31.9093 309.5 31.8598 309.481 31.8513C309.459 31.8411 309.409 31.8907 309.3 32ZM96.4 29.6C94.3 26.2 91.9 24.8 89 24.8C88.7 24.8 88 25.5 87 27.4C85.8 29.4 85.3 30.6 85.3 30.8C85.3 31.5 85.8 32.5 87.2 33.7C88.7 34.9 89.6 35.6 90.6 35.6C91.3 35.6 91.6 35.3 91.8 35.1C92.1 34.6 92.3 34.6 92.8 34.6C93.8 34.6 95 36.8 96.9 41.6C98.8 46.2 99.7 49.3 99.5 51C99.7 52 99.7 52.7 100.2 52.7C100.7 52.7 101.2 52 101.9 51C102.6 49.4 103.6 46.5 104.3 42.4C106 33.3 107.7 28.7 109.6 28.7C110.5 28.7 111.5 29.1 112.2 30.1C113.2 31.1 113.7 31.8 113.9 31.8C114.3 31.8 114.8 31 115.3 29.6C115.8 28.6 115.8 27.7 115.8 27.2C115.8 26.2 115.4 25.2 114.4 23.8C113.4 22.3 112.2 21.6 111 21.6C108.8 21.6 106.9 23.8 105 28.1C103.3 34.4 102.1 39.2 101.6 42.3C101.6 42.8 101.4 43.1 101.4 43.3L101.2 43.3C101.2 43 101.2 42.8 101 42.3C100.2 37 98.6 32.7 96.4 29.6ZM291.1 63C315.3 53.9 340.5 44.8 366.5 35.2C366.702 35.1422 366.888 35.0761 367.049 35.0185C367.447 34.8767 367.7 34.7866 367.7 35C367.9 35 367.9 35.5 367.7 36.2C366.7 38.4 366 39.6 365.5 40C365.3 40.2 353 44.8 329.3 53.7C305.1 62.6 291.4 68.1 288.7 69.8C289.1 67.5 289.9 65.4 291.1 63ZM52.5 60.5C52.5 60.5 52.3 60.8 52.3 61C50.6 63.9 49.1 65.6 47.6 65.6C45.5 65.6 44.5 63.4 44.5 59.6C44.5 56.5 45.7 51.4 48.1 44C48.6 42.3 48.8 41.3 48.8 41.1C48.5 41.1 48.1 42 47.1 43.7C43.3 50.7 41.6 57.6 41.6 64.1C41.6 69.4 43.1 72 46.2 72C49.3 72 51.5 68.4 52.7 61.2C52.9 61 52.9 60.7 52.7 60.5C52.7 60.4093 52.7 60.3597 52.6814 60.3513C52.6589 60.3411 52.6093 60.3907 52.5 60.5ZM421.6 64.2C419.2 70 418 74.5 418 77.9C418 82 419 84.1 421.1 84.1C422.3 84.1 423.7 82.4 425.4 79.5C425.6 79.3 425.6 79 425.9 78.8C425.9 78.8 426.1 78.8 426.1 79L426.1 79.7C424.7 86.9 422.5 90.5 419.6 90.5C416.5 90.5 415 87.9 415 82.6C415 80 415.5 76.6 416.9 72.3C418.3 68 419.1 65.8 419.1 65.6C419.1 65.1 418.1 64.2 416 63C412.2 68 406.9 72.8 400.2 76.9C395.6 79.5 391.1 81.9 386.3 83.9C377.4 87.5 372.1 89.4 370.9 90.1C369.7 90.6 369 90.8 368.5 90.8C368.3 90.8 368.3 90.6 368.3 90.6C368.3 90.1 368.8 89.6 370.2 88.7C377.9 84.4 385.3 80.1 393 75.7C403.1 69.9 410 65.1 413.4 61.5C408.8 59.1 406.7 56.7 406.7 54.1C406.7 51 408.1 48.1 411 45.5C413.9 43.1 416.3 42.1 418.2 42.9C419.6 43.4 420.6 45.1 420.6 47.9C420.6 50.5 420.1 53.4 418.9 56.5C421.3 57.9 422.3 59.4 422.3 60.8C422.3 61.5 422.1 62.7 421.6 64.2ZM169.9 60.3C169.9 62.2 169.4 64.4 168.5 66.3C167.3 68.9 165.9 70.4 164.2 70.4C161.3 70.4 159.4 68.5 158.2 64.6C156.8 69.4 154.4 72 150.8 72C149.6 72 148.4 71.3 147.4 69.8C146.2 68.4 145.7 66.2 145.7 63.8L145.7 57.6C145.7 57.1 145.2 56.9 144.7 56.6C144 56.4 143.7 55.9 143.7 55.2C143.7 53.8 144.2 52.6 145.1 51.4C146.1 50.2 146.8 49.7 147.3 49.7C148 49.7 148.5 50.9 148.5 53.5C148.5 54.9 148.3 56.1 148.3 57.1C148.1 58.1 148.1 58.8 148.1 59.5C148.1 60.9 148.3 62.4 148.8 63.6C149.5 65 150.5 66 151.4 66C152.8 66 154 65.3 155.2 64.1C156.4 62.9 157.1 61.5 157.1 59.8C157.1 58.8 156.6 57.4 156.1 55C155.4 52.8 155.1 51.4 155.1 50.9C155.1 50.4 155.3 49.7 155.8 48.5C156.3 47.5 156.8 47.1 157 47.1C157.5 47.1 158 48.5 158.7 51.4C159.4 54.5 159.9 56.7 159.9 58.1C159.9 62.2 161.3 64.3 164.5 64.3C165.9 64.3 166.9 63.6 167.1 62.1C164.5 57.3 163 53.7 163 51.1C163 49.7 163.2 48.5 164.2 47.3C164.7 46.6 164.9 46.1 165.2 46.1C165.4 46.1 165.7 46.6 165.7 47.5C165.9 48.7 166.2 49.9 166.4 50.9C166.4 50.9 167.1 52.6 168.3 55.9C169.4 57.9 169.9 59.4 169.9 60.3ZM416.3 55.3C416.8 53.9 416.8 52.4 416.5 51C416.3 49.6 415.5 48.8 414.3 48.8C413.8 48.8 413.1 49 412.1 49.5C411.1 50 410.7 50.5 410.7 50.9C410.8 52.2 412.7 53.6 416.3 55.3ZM260.5 53.9L256.7 61.8C255.8 60.8 253.6 59.1 250.5 57.3C247.4 55.1 245.7 53.9 245.2 53.9C244.9 53.9 244.4 54.4 244.2 54.9L239.6 64.5C239.4 65 239.4 65.3 239.6 65.5C243.5 67.9 247.3 70.5 250.9 73.4C251.4 73.7 251.9 73.4 252.1 72.7C253.6 70.5 254.8 67.9 256.2 65C260.3 67.6 263.9 70 267 72.4C267.4 72.6 267.9 72.6 268.4 71.9C271.5 66.6 273.2 63 273.2 61.3C273.2 60.8 271.3 59.4 267.7 57C263.9 54.4 262 53.2 261.5 53.2C261 53.2 260.7 53.4 260.5 53.9ZM339 70.6C336.9 67.2 334.5 65.8 331.6 65.8C331.4 65.8 330.7 66.6 329.6 68.4C328.4 70.4 327.9 71.6 327.9 71.8C327.9 72.5 328.4 73.5 329.8 74.7C331.3 75.9 332.2 76.6 333.2 76.6C333.9 76.6 334.2 76.3 334.4 76.1C334.7 75.6 334.9 75.6 335.4 75.6C336.4 75.6 337.6 77.8 339.5 82.6C341.4 87.2 342.3 90.3 342.1 92C342.3 93 342.3 93.7 342.8 93.7C343.3 93.7 343.8 93 344.5 92C345.2 90.4 346.2 87.5 346.9 83.4C348.6 74.3 350.3 69.7 352.2 69.7C353.1 69.7 354.1 70.1 354.8 71.1C355.8 72.1 356.3 72.8 356.5 72.8C356.9 72.8 357.4 72 357.9 70.6C358.4 69.6 358.4 68.7 358.4 68.2C358.4 67.2 358 66.2 357 64.8C356 63.3 354.8 62.6 353.6 62.6C351.4 62.6 349.5 64.8 347.6 69.1C345.9 75.4 344.7 80.2 344.2 83.3C344.2 83.8 344 84.1 344 84.3L343.8 84.3C343.8 84 343.8 83.8 343.6 83.3C342.8 78 341.2 73.7 339 70.6ZM22.3 148.2C32.4 148.2 44.9 143.4 59.7 133.8C69.1 127.6 76.3 122 81.5 117.2C82.5 116 83.2 115 83.2 114.1C83.2 113.1 82.5 111.5 81 109.1C78.1 104.3 74 97.3 69 88C67.8 86.1 66.4 83.4 64.9 80.3C64.7 79.8 64.9 78.1 65.4 74.8C65.9 71.7 66.1 69.5 66.4 68.3C66.6 67.1 67.1 66.6 67.4 66.6C67.9 66.6 68.1 66.8 68.6 67.3C71.7 71.1 75.3 75 79.4 79.1C81.1 80.8 82 81.7 82 82.2C82 82.7 81.8 82.7 81 82.7C80.5 82.7 78.6 82.5 75.7 81.5C77.9 85.2999 81.2 91.2999 85.5 99.7C86.7 102.3 87.2 105.5 87.2 108.8C87.2 113.1 86.2 117.7 84.3 122.5C82.6 126.6 80.9 129.5 79.3 131.1C74.3 136.4 66.8 142.4 57.2 148.6C43.3 157.7 31.8 162.3 22.6 162.3C14.2 162.3 8 158.5 4.10001 151C1.20001 146 0 140.2 0 133.5C0 123.4 2.2 112.9 6.2 102.3C6.75464 100.969 7.21699 100.068 7.60411 99.5304C5.71872 98.642 4.79999 96.1479 4.79999 92C4.79999 85.5 6.49998 78.6 10.3 71.6C11.3 69.9 11.7 69 12 69C12 69.2 11.8 70.2 11.3 71.9C8.89999 79.3 7.69998 84.4 7.69998 87.5C7.69998 91.3 8.69998 93.5 10.8 93.5C12.4 93.4 13.9 91.8 15.5 88.9C15.5 88.7 15.7 88.4 15.7 88.4C15.8093 88.2907 15.8589 88.2411 15.8814 88.2513C15.9 88.2598 15.9 88.3093 15.9 88.4C16.1 88.6 16.1 88.9 15.9 89.1C14.7 96.3 12.5 99.9 9.39999 99.9C9.11776 99.9 8.84879 99.8785 8.59301 99.8353C8.5538 100.522 8.34655 101.482 7.89999 103C5 113.3 3.59999 121.5 3.59999 126.8C3.59999 131.6 4.99998 136.2 8.2 140.5C11.9 145.5 16.7 148.2 22.3 148.2ZM105.5 75.2C103.4 71.8 101 70.4 98.1 70.4C97.9 70.4 97.1 71.1 96.1 73C94.9 75 94.4 76.2 94.4 76.4C94.4 77.1 94.9 78.1 96.3 79.3C97.8 80.5 98.7 81.2 99.7 81.2C100.4 81.2 100.7 80.9 100.9 80.7C101.2 80.2 101.4 80.2 101.9 80.2C102.9 80.2 104.1 82.4 106 87.2C107.9 91.8 108.8 94.9 108.6 96.6C108.8 97.6 108.8 98.3 109.3 98.3C109.8 98.3 110.3 97.6 111 96.6C111.7 95 112.7 92.1 113.4 88C115.1 78.9 116.8 74.3 118.7 74.3C119.6 74.3 120.6 74.7 121.3 75.7C122.3 76.7 122.8 77.4 123 77.4C123.4 77.4 123.9 76.6 124.4 75.2C124.9 74.2 124.9 73.3 124.9 72.8C124.9 71.8 124.5 70.8 123.5 69.4C122.5 67.9 121.3 67.2 120.1 67.2C117.9 67.2 116 69.4 114.1 73.7C112.4 80 111.2 84.8 110.7 87.9C110.7 88.4 110.5 88.7 110.5 88.9L110.3 88.9C110.3 88.6 110.3 88.4 110.1 87.9C109.3 82.6 107.7 78.3 105.5 75.2ZM279.5 79.8C279.5 83.6 277.6 88.9 273.7 95.4C271.3 99.5 267.7 105 262.9 112.2C267.7 117.7 271.1 122.8 272.7 127.1C273.7 130.2 274.4 134.3 274.4 138.9C274.4 140.8 273.9 143.2 273 146.3C272.3 149.2 271.3 151.3 270.4 152.8C268.5 155.7 265.4 158.6 260.6 161.4C255.6 164.8 251.2 166.4 247.6 166.4C241.8 166.4 239 162.1 239 153.4C239 147.6 240 141.9 241.9 136.6C243.8 132 246.9 126 252 118.1C247.7 114 243.1 108.3 238.1 101.1C237.6 100.4 236.4 99.2 234.5 97.3C233.5 96.3 233.1 95.1 233.1 93.7C233.1 91.5 233.3 89.1 233.8 86.3C234.5 83.4 235 82.2 235.2 82.2C235.9 82.2 238.1 83.4 242.2 86C246 88.6 249.2 90.6 251.1 92.2C252.3 92.9 252.8 93.6 252.8 93.6L252.8 93.8C252.8 94 252.1 94.3 250.4 94.3C247.3 94.3 245.6 94.5 245.6 94.8C245.6 95 246.1 95.5 247 96.7C250.8 101.5 254.7 105.1 258.8 108C259.8 106.6 263.1 101.8 268.4 93.6C273 86.6 275.6 81.8 276.8 79C278 76.1 278.7 74.9 279.2 74.9C279.3 75 279.5 76.4 279.5 79.8ZM149.9 95.8C149.7 96.3 149.7 96.6 149.9 96.8C153.8 99.2 157.6 101.8 161.3 104.7C161.79 104.994 161.992 104.711 162.471 104.04L162.5 104C165.8 98.7 167.5 95.4 167.5 93.7C167.5 93.2 165.5 91.7 161.7 89.1C158.1 86.7 156 85.5 155.5 85.5C155.2 85.5 154.7 85.7 154.5 86.2L149.9 95.8ZM297 108.1C298 109.3 298.7 110.9 299.2 113.1C300.4 117.2 302.8 123 306.1 130C309 136.3 310.4 139.6 310.4 140.1C310.4 142.1 307.5 145.2 302 149.5C297.141 153.111 290.817 157.24 283.026 161.829C283.756 157.348 285.04 151.96 286.9 145.6C287.2 144.1 287.4 142.9 287.4 142.2C287.4 141.7 287.4 141.5 287.2 141.5C286.7 141.5 286.2 142.5 285 144.9C282.625 151.313 280.885 157.549 279.862 163.672C276.666 165.513 273.245 167.424 269.6 169.4C260.2 174.5 248.5 180 234.3 186C213.9 194.6 202.8 199.4 200.9 200.4C195.6 202.8 193 204.3 193 204.5C193 204.7 193 204.7 193.5 204.7C194.5 204.7 196.9 204.4 200.7 203.7C204.3 203.2 213.4 201.1 227.8 197.7C241.5 194.4 248.7 192.7 249.2 192.7C251.8 192.7 260.2 188.6 274.6 180.2C276.047 179.389 277.458 178.583 278.831 177.781C279.096 184.965 281.072 191.158 284.6 195.8C288.9 201.8 295.1 204.9 303.3 204.9C312.9 204.9 323.9 199.9 336.9 190.3C345.6 183.8 353.5 176.3 360.7 167.7C363.8 164.1 366.4 159.5 368.1 154C369.6 149.6 370.3 146.3 370.3 143.4L370.8 142.9L370.8 129.7C369.8 130.2 369.3 130.2 369.1 130.2C366.7 125.2 363.8 121.1 360.7 117.5C357.1 113.9 354 112 350.9 112C346.8 112 343 114.1 339.4 118.2C335.6 123 333.9 128.3 333.9 134.3C333.9 142.2 339.7 146.3 351.2 146.3C356.5 146.3 360.8 145.6 363.7 144.6C364.2 146.3 364.7 148 364.7 149.4C364.7 151.5 361.1 155.8 354.1 162.7C346.4 169.9 338.5 175.9 330.3 180.9C319.9 187.2 311.3 190.3 304.1 190.3C295.7 190.3 289.7 187.6 285.9 182.6C284.471 180.456 283.467 178.029 282.889 175.36C295.162 167.871 304.129 160.813 309.9 154.3C311.9 152.1 313.3 149 314.5 144.9C315.4 141.3 315.9 138.4 315.9 136C315.9 130.9 314.4 125.4 311.8 118.7C310.1 114.9 308.2 110.8 306.5 106.7C309.4 107.4 311.3 107.9 312 107.9C312.5 107.9 312.7 107.6 312.7 107.4C312.7 106.9 312 106 310.3 104.3C306.3 100.2 302.7 96.3 299.3 92.5C298.8 92 298.5 91.8 298.3 91.8C297.8 91.8 297.5 92.3 297.3 93.5C296.8 94.7 296.6 96.9 296.1 100C295.6 103.3 295.6 105 295.6 105.5C295.8 105.9 296.3 106.7 297 108.1ZM50.1 103.8C50.1 106.4 48.9 109.3 47 112.4C44.8 115.5 42.2 118.4 38.8 120.8C37.4 121.8 36.6 122.2 36.4 122.2L36.4 122C36.4 121.8 36.9 121.3 37.8 120.1C43.3 114.1 46.2 110.3 46.2 108.1C46.2 106.4 45.2 105.5 43.6 105.5C42.6 105.5 41.7 105.7 41 106.2C40.3 106.4 40 106.7 39.8 106.7C39.8 106.7 39.6 106.7 39.6 106.5C39.6 106.5 39.6 106 39.8 105.1C40.8 101 42.7 99.1 46 99.1C48.7 99 50.1 100.6 50.1 103.8ZM396.9 114.6C396.2 114.6 395.2 115 394 116C390.2 119.4 386.3 122.2 382.4 124.2C381.2 125 377.1 126.9 370.9 130L370.9 143.2C379.3 139.3 385.8 135.3 389.6 130.7C389.6 141.7 394.4 147.5 404.5 147.5C412.9 147.5 419.8 142.7 425.1 133.1C428.3 138.9 431.9 142 435.7 142C441.5 142 445.8 139.4 448.7 134.1C451.4 129.7 452.8 124.7 452.8 118.7C452.8 114.8 451.6 111.5 449.7 108.6C449 107.6 448.5 107.4 448 107.4C447.5 107.4 447 108.2 446.8 109.6C445.4 114.1 444.4 117.5 444.2 119.4C446.3 123 447.3 125 447.3 125.2C446.3 126.8 444.2 127.8 440.8 127.8C438.2 127.8 435.8 126.8 434.1 125.4C432.2 124 431.2 122.3 431.2 120.6C431.2 121.1 431.9 119.2 432.9 115.1C433.4 113 433.2 112 432.2 112C431.5 112 430.8 112.4 429.8 113.4C427.4 117.3 424.8 121.1 422.4 125.2C418.5 130.3 413.5 132.9 407.5 132.9C400 132.9 396.2 130 396.2 124.7C396.2 123.5 396.4 122 396.9 120.1C397.4 118.2 397.6 116.7 397.6 116C397.6 115.1 397.4 114.6 396.9 114.6ZM136.5 150.3C137 152 137.5 153.7 137.5 155.1C137.5 157.3 133.9 161.6 126.9 168.4C119.2 175.6 111.3 181.6 103.1 186.6C92.7 192.9 84.1 196 76.9 196C68.5 196 62.5 193.3 58.7 188.3C56.3 184.7 55.1 180.3 55.1 175.3C55.1 169.8 56.6 161.9 59.7 151.3C60 149.8 60.2 148.6 60.2 147.9C60.2 147.4 60.2 147.2 60 147.2C59.5 147.2 59 148.2 57.8 150.6C53.8 161.4 51.6 171.7 51.6 181.8C51.6 189.7 53.6 196.5 57.4 201.5C61.7 207.5 67.9 210.6 76.1 210.6C85.7 210.6 96.7 205.6 109.7 196C118.4 189.5 126.3 182 133.5 173.4C136.6 169.8 139.2 165.2 140.9 159.7C142.4 155.3 143.1 152 143.1 149.1L143.6 148.6L143.6 135.4C142.6 135.9 142.1 135.9 141.9 135.9C139.5 130.9 136.6 126.8 133.5 123.2C129.9 119.6 126.8 117.7 123.7 117.7C119.6 117.7 115.8 119.8 112.2 123.9C108.4 128.7 106.7 134 106.7 140C106.7 147.9 112.5 152 124 152C129.3 152 133.6 151.3 136.5 150.3ZM270.2 138.8C267.6 133.5 263 128 256.8 122.7C254.6 124.9 252 128.9 248.6 134.7C244.8 141.2 243.1 145.3 243.1 147.4C243.1 150.3 245 151.7 249.3 151.7C251.2 151.7 253.6 151 256.7 149.8C261 147.9 265.1 145.2 268.5 141.9C269.9 140.5 270.4 139.5 270.2 138.8ZM176.3 142.2L176.3 157.1C170.1 157.1 165.5 155.4 162.4 152.5C160 150.1 158.8 146.7 158.8 142.7L158.8 139.6C152.6 144.2 147.5 147.3 143.7 149L143.7 135.6C148.5 133.7 154.5 130.3 161.5 125.8C162.5 125.1 163.2 124.8 163.7 124.8C164.4 124.8 164.9 125.3 164.9 126.2C164.9 126.7 164.7 127.6 164.4 129.1C164.4 130.5 164.2 131.5 164.2 132C164.2 134.4 165.2 136.6 167.3 138.7C169.6 141 172.7 142.4 176.3 142.2ZM357.3 131.8C353.7 127.2 350.6 125.1 347.7 125.1C343.4 125.1 341.5 126.1 341.5 128.5C341.5 131.4 344.4 132.8 350.1 132.8C352.13 132.8 354.33 132.374 356.7 131.916C356.899 131.877 357.099 131.839 357.3 131.8ZM120.4 130.9C123.3 130.9 126.4 133 130 137.6C129.799 137.639 129.599 137.677 129.4 137.716C127.029 138.174 124.83 138.6 122.8 138.6C117.1 138.6 114.2 137.2 114.2 134.3C114.2 131.9 116.1 130.9 120.4 130.9ZM66.4 154.9C76 151.5 86.3 147.7 97.4 143.9C97.7851 143.823 98.0515 143.731 98.245 143.664C98.554 143.558 98.677 143.516 98.8 143.7C99 143.7 99 144.2 98.6 144.9C97.9 147.1 97.2 148.3 96.7 148.7C87.1 152.1 76.3 156.1 64.1 161.7C64.5 159.4 65.2 157.3 66.4 154.9ZM383.2 195.4C380.6 196.1 379.1 196.6 378.6 196.6L378.6 196.4C378.6 196.4 379.6 195.7 381.5 194.5C383.4 193.3 386.3 191.4 390.4 188.3C392.3 186.4 395.2 183.3 398.8 178.9C401.2 176 403.8 173.4 406.7 171.5C410.3 168.9 413.7 167.7 417.3 167.7C418 167.7 419.2 167.9 420.7 168.4C421.9 168.9 423.1 169.1 424.1 169.1C426 169.1 427.5 168.4 428.7 166.9C429.4 165.5 430.4 164.3 431.3 162.8C431.8 161.8 432.5 161.4 433 161.4C433.2 161.4 433.2 161.6 433.2 162.1C433.2 162.6 433 163.8 432.5 165.2C432 165.9 433.9 166.2 437.5 166.2C438 166.2 438.2 166.2 438.2 166C438.2 166 438 165 437.5 163.4C437.3 162.9 437.5 162.2 438.2 161.2L438.28 161.064C439.222 159.463 439.608 158.805 439.9 159C440.9 159.7 441.3 161.2 441.3 162.8C441.3 164.5 440.8 166.2 440.1 168.1C439.4 170.3 438.7 171.5 438.2 171.9C436.5 172.9 433.9 172.6 430.3 170.9C427.4 173.8 424.5 175.5 421.7 175.5C421 175.5 419.8 175.3 418.6 174.8C417.4 174.3 416.4 174.1 415.7 174.1C410.9 174.1 405.9 176.3 400.8 181.1L390 191.9C387.8 193.5 385.6 194.7 383.2 195.4ZM154.5 176.2C157.4 176.2 159.8 177.6 161.9 181C164.1 184.1 165.7 188.4 166.5 193.7C166.7 194.2 166.7 194.4 166.7 194.7L166.9 194.7C166.9 194.5 167.1 194.2 167.1 193.7C167.6 190.6 168.8 185.8 170.5 179.5C172.4 175.2 174.3 173 176.5 173C177.7 173 178.9 173.7 179.9 175.2C180.9 176.6 181.3 177.6 181.3 178.6C181.3 179.1 181.3 180 180.8 181C180.3 182.4 179.8 183.2 179.4 183.2C179.2 183.2 178.7 182.5 177.7 181.5C177 180.5 176 180.1 175.1 180.1C173.2 180.1 171.5 184.7 169.8 193.8C169.1 197.9 168.1 200.8 167.4 202.4C166.7 203.4 166.2 204.1 165.7 204.1C165.2 204.1 165.2 203.4 165 202.4C165.2 200.7 164.3 197.6 162.4 193C160.5 188.2 159.3 186 158.3 186C157.8 186 157.6 186 157.3 186.5C157.1 186.7 156.8 187 156.1 187C155.1 187 154.2 186.3 152.7 185.1C151.3 183.9 150.8 182.9 150.8 182.2C150.8 182 151.3 180.8 152.5 178.8C153.5 177 154.3 176.2 154.5 176.2Z" id="Group" fill="#595959" fill-rule="evenodd" stroke="none" clip-path="url(#clip_1)" />
  </g>
</svg>