<?xml version="1.0" encoding="utf-8"?>
<svg width="499.6001px" height="213.40001px" viewBox="0 0 499.6001 213.40001" version="1.1" xmlns:xlink="http://www.w3.org/1999/xlink" xmlns="http://www.w3.org/2000/svg">
  <defs>
    <path d="M499.6 0L499.6 0L499.6 213.4L0 213.4L0 0L499.6 0Z" id="path_1" />
    <clipPath id="clip_1">
      <use xlink:href="#path_1" clip-rule="evenodd" fill-rule="evenodd" />
    </clipPath>
  </defs>
  <g id="Surah_59_of_114_(modified)">
    <path d="M499.6 0L499.6 0L499.6 213.4L0 213.4L0 0L499.6 0Z" id="Surah_59_of_114_(modified)" fill="none" stroke="none" />
    <path d="M184.8 119.3L185.198 119.4L184.2 119.4C182.1 123.7 180.4 127.1 179.2 129.5C179 129.7 179 130 179 130.2C179 130.7 180.4 131.2 183.3 131.4C198.2 132.6 213.3 134.3 228.7 136.7C211.6 146.3 199.4 151.1 192.2 151.1L192.2 165.7C195.5 165.7 201.3 163.5 209.7 159.2C222.2 152.7 229.6 149.1 232.5 147.9C239.361 145.041 246.941 143.033 255.221 141.836C255.34 144.342 255.4 146.129 255.4 147.2C255.4 152.3 255.2 156.8 254.7 160.9C254.671 161.279 254.642 161.644 254.614 161.993C254.45 164.036 254.329 165.546 254.5 166.4C254.7 167.1 255 167.1 255.7 165.9C256.2 165 256.6 163.8 257.6 162.1C260.004 155.835 261.559 148.773 262.226 141.032C266.329 140.676 270.587 140.5 275 140.5C276 140.5 276.5 140 277.2 138.8L282.2 128.7C282.7 128.2 282.7 127.7 282.7 127.6C282.7 126.8 281.2 126.6 278.6 126.6C273.878 126.6 268.467 126.409 262.384 125.993C262.002 118.113 261.09 103.528 259.5 82.2C257.3 52.5 256.1 37.6 256.1 37.1C256.1 35.9 256.3 35.4 256.8 36.1C261.1 40.9 263 42.1 263 39.9C263 39.4 263 38.2 262.5 37C262 35.1 260.3 30.3 257.2 22.4C254.3 14.9 252.6 10.4 251.9 8.70001C251.4 8.00002 251.2 7.50002 250.7 7.50002C250.5 7.50002 250.2 8.00002 250 8.70001C247.1 14.9 245.9 19 245.9 20.7C247.4 23.9 248.1 27.7 248.1 32.5C248.1 36.5 249.3 55.5 251.8 89.4C252.848 104.156 253.667 116.13 254.257 125.338C248.528 124.809 242.305 124.104 235.6 123.2C227.453 122.11 221.149 121.25 216.613 120.583C220.391 116.491 223.129 111.639 224.7 105.9C226.6 99.7 227.6 89.6 227.6 75.9C227.6 70.9 227.2 62 226.2 49.3C225.3 36.3 224.8 29.8 224.8 29.6C224.8 28.4 225 27.9 225.5 28.6C229.5 33.4 231.7 34.6 231.7 32.4C231.7 31.9 231.4 30.7 231.2 29.3C230.5 27.6 228.8 22.8 225.9 14.9C223 7.39999 221.1 2.89999 220.4 1.2C219.9 0.199997 219.6 0 219.4 0C219.1 0 218.6 0.300003 218.4 1C215.7 7.39999 214.3 11.5 214.3 13.2C215.8 16.3 216.5 20.1 216.5 24.7C216.5 28.8 217 38.9 218.4 55.2C219.6 71.8 220.3 82.3 220.3 87.6C220.3 98.1 220 103.9 219.8 105.1C219.3 106.8 217.8 108.2 215.2 109.2C210 111.3 203 113.5 194.6 115.9C188.4 117.6 185 118.8 184.8 119.3ZM254.257 125.338C257.087 125.598 259.796 125.816 262.384 125.993C262.531 129.012 262.6 131.047 262.6 132.1C262.6 135.168 262.475 138.147 262.226 141.032C259.838 141.239 257.503 141.507 255.221 141.836C255.039 138.013 254.717 132.516 254.257 125.338ZM216.613 120.583C214.861 122.481 212.886 124.216 210.7 125.8L185.198 119.4L209.4 119.4C210.849 119.698 213.243 120.088 216.613 120.583ZM284.6 27.4C284.6 27.2 284.8 26.9 284.8 26.9C284.909 26.7907 284.959 26.7411 284.981 26.7513C285 26.7598 285 26.8093 285 26.9C285.2 27.1 285.2 27.4 285 27.6C283.8 34.8 281.6 38.4 278.5 38.4C275.4 38.4 273.9 35.8 273.9 30.5C273.9 24 275.6 17.1 279.4 10.1C280.4 8.40002 280.8 7.50002 281.1 7.50002C281.1 7.70001 280.9 8.70001 280.4 10.4C278 17.8 276.8 22.9 276.8 26C276.8 29.8 277.8 32 279.9 32C281.5 32 282.9 30.3 284.6 27.4ZM161.9 16.1C159.8 12.7 157.4 11.3 154.5 11.3C154.3 11.3 153.5 12.1 152.5 13.9C151.3 15.9 150.8 17.1 150.8 17.3C150.8 18 151.3 19 152.7 20.2C154.2 21.4 155.1 22.1 156.1 22.1C156.8 22.1 157.1 21.8 157.3 21.6C157.6 21.1 157.8 21.1 158.3 21.1C159.3 21.1 160.5 23.3 162.4 28.1C164.3 32.7 165.2 35.8 165 37.5C165.2 38.5 165.2 39.2 165.7 39.2C166.2 39.2 166.7 38.5 167.4 37.5C168.1 35.9 169.1 33 169.8 28.9C171.5 19.8 173.2 15.2 175.1 15.2C176 15.2 177 15.6 177.7 16.6C178.7 17.6 179.2 18.3 179.4 18.3C179.8 18.3 180.3 17.5 180.8 16.1C181.3 15.1 181.3 14.2 181.3 13.7C181.3 12.7 180.9 11.7 179.9 10.3C178.9 8.8 177.7 8.10001 176.5 8.10001C174.3 8.10001 172.4 10.3 170.5 14.6C168.8 20.9 167.6 25.7 167.1 28.8C167.1 29.3 166.9 29.6 166.9 29.8L166.7 29.8C166.7 29.5 166.7 29.3 166.5 28.8C165.7 23.5 164.1 19.2 161.9 16.1ZM304.8 24.8C304.8 27.4 306.9 29.8 311.5 32.2C308.1 35.8 303.1 39.7 296.1 43.9C290.1 47.2 284.4 50.6 278.6 54.2C277.2 54.9 276.7 55.7 276.7 55.9C276.7 55.9 276.7 56.1 276.9 56.1C277.1 56.1 278.1 55.9 279.3 55.4C287 52.6 291.3 50.9 292.3 50.4C295.9 49 299.9 46.3 304.5 43.2C308.3 40.3 311.5 37.2 314.1 33.6C316.3 34.8 317.7 36 318.2 37C320.3 34.2 321.3 32 321.3 30.8C320.8 29.8 319.4 28.6 317 27.4C318.2 24 318.7 21.1 318.7 18.5C318.7 15.7 318 14 316.3 13.5C314.4 12.8 312 13.8 309.1 16.4C306.2 18.8 304.8 21.7 304.8 24.8ZM359.4 35.6C359.4 35.6 359.2 35.9 359.2 36.1C357.5 38.9 356.1 40.6 354.5 40.7C352.4 40.7 351.4 38.5 351.4 34.7C351.4 31.6 352.6 26.5 355 19.1C355.5 17.4 355.7 16.4 355.7 16.2C355.4 16.2 355 17.1 354 18.8C350.2 25.8 348.5 32.7 348.5 39.2C348.5 44.5 350 47.1 353.1 47.1C356.2 47.1 358.4 43.5 359.6 36.3C359.8 36.1 359.8 35.8 359.6 35.6C359.6 35.5093 359.6 35.4598 359.581 35.4513C359.559 35.4411 359.509 35.4907 359.4 35.6ZM314.5 21.7C314.8 23.1 314.8 24.6 314.3 26C310.7 24.3 308.8 22.9 308.7 21.6C308.7 21.2 309.1 20.7 310.1 20.2C311.1 19.7 311.8 19.5 312.3 19.5C313.5 19.5 314.3 20.3 314.5 21.7ZM105.8 27.2C105.8 29.8 104.6 32.7 102.7 35.8C100.5 38.9 97.9 41.8 94.5 44.2C93.1 45.2 92.3 45.6 92.1 45.6L92.1 45.4C92.1 45.2 92.6 44.7 93.5 43.5C99 37.5 101.9 33.7 101.9 31.5C101.9 29.8 100.9 28.9 99.3 28.9C98.3 28.9 97.4 29.1 96.7 29.6C96 29.8 95.7 30.1 95.5 30.1C95.5 30.1 95.3 30.1 95.3 29.9C95.3 29.9 95.3 29.4 95.5 28.5C96.5 24.4 98.3999 22.5 101.7 22.5C104.3 22.4 105.8 24.1 105.8 27.2ZM141.7 44.7C142.2 44.4 142.9 43 143.9 40.6C144.2 39.9 144.2 39.4 143.9 39.5C143.751 39.2765 143.435 39.3861 142.994 39.5393C142.844 39.5916 142.678 39.6491 142.5 39.7C120 47.8 97.9 56 76.3 63.9C41.0999 76.8 22.0999 84.3 19.7 85.7C18.0999 86.9 16.3999 88.9 14.7 91.5C13 94.1 12.3 96.3 12.3 98.2C12.3 101 15.2 103.2 21.2 104.4C21.8999 104.4 22.5999 104.4 22.5999 104.2C22.7999 104 22.7999 103 22.7999 101.6C22.7999 99.9 22.5999 98.9 22.0999 98.7C19.7 97.7 17.7999 97 16.5999 96.5C15.3999 95.8 14.8999 95.3 14.8999 94.8C14.8999 94.3 16.5999 92.9 20.2 91.2C24.0999 89.1 42.8 81.9 76.3999 69.4C119.9 53.1 141.7 44.9 141.7 44.7ZM337.9 69.7C362.1 60.6 387.3 51.5 413.3 41.9C413.502 41.8422 413.688 41.7761 413.849 41.7186C414.247 41.5768 414.5 41.4866 414.5 41.7C414.7 41.7 414.7 42.2 414.5 42.9C413.5 45.1 412.8 46.3 412.3 46.7C412.1 46.9 399.8 51.5 376.1 60.4C351.9 69.3 338.2 74.8 335.5 76.5C335.9 74.2 336.7 72.1 337.9 69.7ZM190.3 43.7C148 59.6 106.8 74.9 66.2 90.3C65 92.7 64.3 94.9 63.8 97C108.7 79 150.7 62.9 189.3 48.5C189.8 48.1 190.5 46.9 191.5 44.7C191.7 44 191.7 43.5 191.5 43.5C191.5 43.2866 191.247 43.3768 190.849 43.5186C190.688 43.5761 190.502 43.6422 190.3 43.7ZM468.4 70.9C466 76.7 464.8 81.2 464.8 84.6C464.8 88.7 465.8 90.8 467.9 90.8C469.1 90.8 470.5 89.1 472.2 86.2C472.4 86 472.4 85.7 472.7 85.5C472.7 85.5 472.9 85.5 472.9 85.7L472.9 86.4C471.5 93.6001 469.3 97.2 466.4 97.2C463.3 97.2 461.8 94.6 461.8 89.3C461.8 86.7 462.3 83.3 463.7 79C465.1 74.7001 465.9 72.5 465.9 72.3C465.9 71.8 464.9 70.9 462.8 69.7C459 74.7 453.7 79.5 447 83.6C442.4 86.2 437.9 88.6 433.1 90.6C424.2 94.2 418.9 96.1 417.7 96.8C416.5 97.3 415.8 97.5 415.3 97.5C415.1 97.5 415.1 97.3 415.1 97.3C415.1 96.8 415.6 96.3 417 95.4C424.7 91.1001 432.1 86.8 439.8 82.4C449.9 76.6001 456.8 71.8 460.2 68.2C455.6 65.8 453.5 63.4 453.5 60.8C453.5 57.7 454.9 54.8 457.8 52.2C460.7 49.8 463.1 48.8 465 49.6C466.4 50.1 467.4 51.8 467.4 54.6C467.4 57.2 466.9 60.1 465.7 63.2C468.1 64.6 469.1 66.1 469.1 67.5C469.1 68.2 468.9 69.4 468.4 70.9ZM463.1 62C463.6 60.6 463.6 59.1 463.3 57.7C463.1 56.3 462.3 55.5 461.1 55.5C460.6 55.5 459.9 55.7 458.9 56.2C457.9 56.7 457.5 57.2 457.5 57.6C457.6 58.9 459.5 60.3 463.1 62ZM307.3 60.6L303.5 68.5C302.6 67.5 300.4 65.8 297.3 64C294.2 61.8 292.5 60.6 292 60.6C291.7 60.6 291.2 61.1 291 61.6L286.4 71.2C286.2 71.7 286.2 72 286.4 72.2C290.3 74.6 294.1 77.2 297.7 80.1C298.2 80.4 298.7 80.1 298.9 79.4C300.4 77.2 301.6 74.6 303 71.7C307.1 74.3 310.7 76.7 313.8 79.1C314.2 79.3 314.7 79.3 315.2 78.6C318.3 73.3 320 69.7 320 68C320 67.5 318.1 66.1 314.5 63.7C310.7 61.1 308.8 59.9 308.3 59.9C307.8 59.9 307.5 60.1 307.3 60.6ZM190 85.5C190 85.3 190.2 85 190.2 85L190.2 84.9998C190.31 84.8902 190.359 84.8411 190.381 84.8513C190.4 84.8598 190.4 84.9093 190.4 85C190.6 85.2 190.6 85.5 190.4 85.7C189.2 92.9 187 96.5 183.9 96.5C180.8 96.5 179.3 93.9 179.3 88.6C179.3 82.1 181 75.2 184.8 68.2C185.8 66.5 186.2 65.6 186.5 65.6C186.5 65.8 186.3 66.8 185.8 68.5C183.4 75.9 182.2 81 182.2 84.1C182.2 87.9 183.2 90.1 185.3 90.1C186.9 90.1 188.3 88.4 190 85.5ZM386.1 77.6C384 74.2 381.6 72.8 378.7 72.8C378.4 72.8 377.7 73.5 376.7 75.4C375.5 77.4 375 78.6 375 78.8C375 79.5 375.5 80.5 376.9 81.7C378.4 82.9 379.3 83.6 380.3 83.6C381 83.6 381.3 83.3 381.5 83.1C381.8 82.6 382 82.6 382.5 82.6C383.5 82.6 384.7 84.8 386.6 89.6C388.5 94.2 389.4 97.3 389.2 99C389.4 100 389.4 100.7 389.9 100.7C390.4 100.7 390.9 100 391.6 99C392.3 97.4 393.3 94.5 394 90.4C395.7 81.3 397.4 76.7 399.3 76.7C400.2 76.7 401.2 77.1 401.9 78.1C402.9 79.1 403.4 79.8 403.6 79.8C404 79.8 404.5 79 405 77.6C405.5 76.6 405.5 75.7 405.5 75.2C405.5 74.2 405.1 73.2 404.1 71.8C403.1 70.3 401.9 69.6 400.7 69.6C398.5 69.6 396.6 71.8 394.7 76.1C393 82.4 391.8 87.2 391.3 90.3C391.3 90.8 391.1 91.1 391.1 91.3L390.9 91.3C390.9 91 390.9 90.8 390.7 90.3C389.9 85 388.3 80.7 386.1 77.6ZM326.3 86.7C326.3 90.5 324.4 95.8 320.5 102.3C318.1 106.4 314.5 111.9 309.7 119.1C314.5 124.6 317.9 129.7 319.5 134C320.5 137.1 321.2 141.2 321.2 145.8C321.2 147.7 320.7 150.1 319.8 153.2C319.1 156.1 318.1 158.2 317.2 159.7C315.3 162.6 312.2 165.5 307.4 168.3C302.4 171.7 298 173.3 294.4 173.3C288.6 173.3 285.8 169 285.8 160.3C285.8 154.5 286.8 148.8 288.7 143.5C290.6 138.9 293.7 132.9 298.8 125C294.5 120.9 289.9 115.2 284.9 108C284.4 107.3 283.2 106.1 281.3 104.2C280.3 103.2 279.9 102 279.9 100.6C279.9 98.4 280.1 96 280.6 93.2C281.3 90.3 281.8 89.1 282 89.1C282.7 89.1 284.9 90.3 289 92.9C292.8 95.5 296 97.5 297.9 99.1C299.1 99.8 299.6 100.5 299.6 100.5L299.6 100.7C299.6 100.9 298.9 101.2 297.2 101.2C294.1 101.2 292.4 101.4 292.4 101.7C292.4 101.9 292.9 102.4 293.8 103.6C297.6 108.4 301.5 112 305.6 114.9C306.6 113.5 309.9 108.7 315.2 100.5C319.8 93.5 322.4 88.7 323.6 85.9C324.8 83 325.5 81.8 326 81.8C326.1 81.9 326.3 83.3 326.3 86.7ZM127.6 94.6C127.4 95.1 127.4 95.4 127.6 95.6C131.5 98 135.3 100.6 138.9 103.3C139.3 103.8 139.8 103.5 140.3 102.8C143.4 97.5 145.1 94.2 145.1 92.5C145.1 92 143.2 90.5 139.6 87.9C135.8 85.5 133.9 84.3 133.4 84.3C132.9 84.3 132.6 84.5 132.4 85L127.6 94.6ZM343.8 115.1C344.8 116.3 345.5 117.9 346 120.1C347.2 124.1 349.6 129.9 352.9 137C355.8 143.3 357.2 146.6 357.2 147.1C357.2 149.1 354.3 152.2 348.8 156.5C343.937 160.114 337.607 164.246 329.809 168.84C330.535 164.337 331.825 158.913 333.7 152.5C334 151 334.2 149.8 334.2 149.1C334.2 148.6 334.2 148.4 334 148.4C333.5 148.4 333 149.4 331.8 151.8C329.411 158.251 327.664 164.524 326.644 170.682C323.453 172.52 320.038 174.427 316.4 176.4C307 181.5 295.3 187 281.1 193C260.7 201.6 249.6 206.4 247.7 207.4C242.4 209.8 239.8 211.3 239.8 211.5C239.8 211.7 239.8 211.7 240.3 211.7C241.3 211.7 243.7 211.4 247.5 210.7C251.1 210.2 260.2 208.1 274.6 204.7C288.3 201.4 295.5 199.7 296 199.7C298.6 199.7 307 195.6 321.4 187.2C322.849 186.388 324.26 185.581 325.634 184.779C325.914 191.922 327.888 198.079 331.4 202.7C335.7 208.7 341.9 211.8 350.1 211.8C359.7 211.8 370.7 206.8 383.7 197.2C392.4 190.7 400.3 183.2 407.5 174.6C410.6 171 413.2 166.4 414.9 160.9C416.4 156.5 417.1 153.2 417.1 150.3L417.6 149.8L417.6 136.6C416.6 137.1 416.1 137.1 415.9 137.1C413.5 132.1 410.6 128 407.5 124.4C403.9 120.8 400.8 118.9 397.7 118.9C393.6 118.9 389.8 121 386.2 125.1C382.4 129.9 380.7 135.2 380.7 141.2C380.7 149.1 386.5 153.2 398 153.2C403.3 153.2 407.6 152.5 410.5 151.5C411 153.2 411.5 154.9 411.5 156.3C411.5 158.5 407.9 162.8 400.9 169.6C393.2 176.8 385.3 182.8 377.1 187.8C366.7 194.1 358.1 197.2 350.9 197.2C342.5 197.2 336.5 194.5 332.7 189.5C331.287 187.38 330.289 184.982 329.708 182.348C341.972 174.863 350.932 167.81 356.7 161.3C358.7 159.1 360.1 156 361.3 151.9C362.2 148.3 362.7 145.4 362.7 143C362.7 137.9 361.2 132.4 358.6 125.7C356.9 121.9 355 117.8 353.3 113.7C356.2 114.4 358.1 114.9 358.8 114.9C359.3 114.9 359.5 114.6 359.5 114.4C359.5 113.9 358.8 113 357.1 111.3C353.1 107.2 349.5 103.3 346.1 99.5C345.6 99 345.3 98.8 345.1 98.8C344.6 98.8 344.3 99.3 344.1 100.5C343.6 101.7 343.4 103.9 342.9 107C342.4 110.3 342.4 112 342.4 112.5C342.6 112.9 343.1 113.7 343.8 115.1ZM100 105.2C100 107.8 98.8 110.7 96.9 113.8C94.7 116.9 92.1 119.8 88.7 122.2C87.3 123.2 86.5 123.6 86.3 123.6L86.3 123.4C86.3 123.2 86.8 122.7 87.7 121.5C93.2 115.5 96.1 111.7 96.1 109.5C96.1 107.8 95.1 106.9 93.5 106.9C92.5 106.9 91.6 107.1 90.8999 107.6C90.2 107.8 89.8999 108.1 89.7 108.1C89.7 108.1 89.5 108.1 89.5 107.9C89.5 107.9 89.5 107.4 89.7 106.5C90.7 102.4 92.5999 100.5 95.8999 100.5C98.6 100.4 100 102.1 100 105.2ZM144.6 102.8L140.8 110.5C139.9 109.5 137.7 107.8 134.6 105.9C131.5 103.7 129.8 102.5 129.3 102.5C129 102.5 128.5 103 128.3 103.5L123.7 113.1C123.5 113.6 123.5 113.9 123.7 114.1C127.6 116.5 131.4 119.1 135 122C135.5 122.3 136 122 136.2 121.3C137.7 119.1 138.9 116.5 140.3 113.6C144.4 116.2 148 118.6 151.1 121C151.5 121.2 152 121.2 152.5 120.5C155.6 115.2 157.3 111.9 157.3 110.2C157.3 109.7 155.4 108.2 151.8 105.6C148 103 146.1 101.8 145.6 101.8C145.1 101.8 144.8 102.1 144.6 102.8ZM56.1 123.9C56.1 123.9 55.9 124.2 55.9 124.4C54.2 127.3 52.7 128.9 51.2 129C49.1 129 48.1 126.8 48.1 123C48.1 119.9 49.3 114.8 51.7 107.4C52.2 105.7 52.4 104.7 52.4 104.5C52.1 104.5 51.7 105.4 50.7 107.1C46.9 114.1 45.2 121 45.2 127.5C45.2 132.8 46.7 135.4 49.8 135.4C52.9 135.4 55.1 131.8 56.3 124.6C56.5 124.4 56.5 124.1 56.3 123.9C56.3 123.809 56.3 123.76 56.2813 123.751C56.2589 123.741 56.2093 123.791 56.1 123.9ZM443.7 121.5C443 121.5 442 121.9 440.8 122.9C437 126.3 433.1 129.2 429.2 131.1C428 131.9 423.9 133.8 417.7 136.9L417.7 150.1C426.1 146.2 432.6 142.2 436.4 137.6C436.4 148.6 441.2 154.4 451.3 154.4C459.7 154.4 466.6 149.6 471.9 140C475.1 145.8 478.7 148.9 482.5 148.9C488.3 148.9 492.6 146.3 495.5 141C498.2 136.6 499.6 131.6 499.6 125.6C499.6 121.7 498.4 118.4 496.5 115.5C495.8 114.5 495.3 114.3 494.8 114.3C494.3 114.3 493.8 115.1 493.6 116.5C492.2 121 491.2 124.4 491 126.3C493.1 129.9 494.1 131.9 494.1 132.1C493.1 133.7 491 134.7 487.6 134.7C485 134.7 482.6 133.7 480.9 132.3C479 130.9 478 129.2 478 127.5C478 128 478.7 126.1 479.7 122C480.2 119.9 480 118.9 479 118.9C478.3 118.9 477.6 119.3 476.6 120.3C474.2 124.2 471.6 128 469.2 132.1C465.3 137.2 460.3 139.8 454.3 139.8C446.8 139.8 443 136.9 443 131.6C443 130.4 443.2 128.9 443.7 127C444.2 125.1 444.4 123.6 444.4 122.9C444.4 122 444.2 121.5 443.7 121.5ZM19.4 142.9C19.4 142.7 19.6 142.4 19.6 142.4C19.7093 142.291 19.7589 142.241 19.7813 142.251C19.8 142.26 19.8 142.309 19.8 142.4C20 142.6 20 142.9 19.8 143.1C18.6 150.3 16.4 153.9 13.3 153.9C13.2001 153.9 13.1019 153.897 13.0054 153.892C12.6088 156.013 10.976 160.99 8.29997 168.5C4.89998 177.1 3.29997 183.9 3.29997 188.9C3.29997 192.7 4.29997 195.9 6.19997 198.3C8.09996 200.7 10.8 201.9 14.1 201.9C19.4 201.9 25.9 198.1 33.5 189.9C40 182.5 46.5 174.8 52.9 167.3C69.2 148.6 83.6 139.2 96.0999 139.2L96.0999 139.6C100.665 139.632 105.137 141.831 110.2 146.1C115.4 150.3 120.2 152.5 124.5 152.5C129.3 152.5 133.4 151.3 136.3 148.9C136.8 148.7 139.2 146.3 143 141.9C146.8 137.8 148.8 135.9 149.2 135.9C149.9 135.9 150.2 136.9 149.4 138.5C148.7 140.9 148.4 142.3 148.4 143.1C148.4 144.8 149.1 146.7 150.3 148.9C152.2 151.5 154.6 153 157.7 153C165.6 153 172.6 147.2 178.3 135.7C178.8 134.5 179.5 134 180.2 134C180.9 134 181.2 134.5 181.2 135.7L181.2 137.6C181 138.3 181 139 181 139.5C181 142.9 182 145.5 184.1 147.7C186.3 149.9 188.9 150.8 192 150.8L192 165.4C184.6 165.4 179.3 160.8 176.2 151.5C175.7 150.3 175.5 150.3 174.8 151.5C170.7 162.3 164.7 167.6 157 167.6C149.3 167.6 144.5 162.8 143.1 153C143.1 152 142.9 151.8 142.9 151.6C142.7 151.8 142.4 152.3 141.9 153C136.1 162.4 129.9 167.2 122.9 167.2C118.6 167.2 114.5 166 111.4 163.8C109 161.6 106.6 159.5 104.2 157.6C101.6 155.2 98.9 154.2 96 154.2L96 153.9C85.4264 153.944 73.7575 160.942 60.2999 174.3C56.1999 178.6 50.9 184.9 44.1999 193C38.3999 200.2 34.0999 205 31.1999 207.4C26.8 211.5 22.5 213.4 18.2 213.4C13.4 213.4 9.09998 211.2 5.49998 206.9C1.69998 202.3 -1.52588e-05 196.8 -1.52588e-05 190.1C-1.52588e-05 181.2 3.59999 169.5 11 154.8C11.2324 154.335 11.4647 153.937 11.6898 153.611C9.679 152.801 8.69997 150.282 8.69997 146C8.69997 139.5 10.4 132.6 14.2 125.6C15.2 123.9 15.6 123 15.9 123C15.9 123.2 15.7 124.2 15.2 125.9C12.8 133.3 11.6 138.4 11.6 141.5C11.6 145.3 12.6 147.5 14.7 147.5C16.3 147.4 17.7 145.7 19.4 142.9ZM317 145.7C314.4 140.4 309.8 134.9 303.6 129.6C301.4 131.8 298.8 135.8 295.4 141.6C291.6 148.1 289.9 152.2 289.9 154.3C289.9 157.2 291.8 158.6 296.1 158.6C298 158.6 300.4 157.9 303.5 156.7C307.8 154.8 311.9 152.1 315.3 148.8C316.7 147.4 317.2 146.5 317 145.7ZM404.1 138.8C400.5 134.2 397.4 132.1 394.5 132.1C390.2 132.1 388.3 133.1 388.3 135.5C388.3 138.4 391.2 139.8 396.9 139.8C399.1 139.7 401.5 139.3 404.1 138.8ZM430 202.4C427.4 203.1 425.9 203.6 425.4 203.6L425.4 203.4C425.4 203.4 426.4 202.7 428.3 201.5C430.2 200.3 433.1 198.4 437.2 195.3C439.1 193.4 442 190.3 445.6 185.9C448 183 450.6 180.4 453.5 178.5C457.1 175.9 460.5 174.7 464.1 174.7C464.8 174.7 466 174.9 467.5 175.4C468.7 175.9 469.9 176.1 470.9 176.1C472.8 176.1 474.3 175.4 475.5 173.9C476.2 172.5 477.2 171.3 478.1 169.8C478.6 168.8 479.3 168.4 479.8 168.4C480 168.4 480 168.6 480 169.1C480 169.6 479.8 170.8 479.3 172.2C478.8 172.9 480.7 173.2 484.3 173.2C484.8 173.2 485 173.2 485 173C485 173 484.8 172 484.3 170.4C484.1 169.9 484.3 169.2 485 168.2L485.08 168.064C486.022 166.463 486.408 165.805 486.7 166C487.7 166.7 488.1 168.2 488.1 169.8C488.1 171.5 487.6 173.2 486.9 175.1C486.2 177.3 485.5 178.5 485 178.9C483.3 179.9 480.7 179.6 477.1 177.9C474.2 180.8 471.3 182.5 468.5 182.5C467.8 182.5 466.6 182.3 465.4 181.8C464.2 181.3 463.2 181.1 462.5 181.1C457.7 181.1 452.7 183.3 447.6 188.1L436.8 198.9C434.6 200.5 432.4 201.7 430 202.4ZM221.9 209.1C229.6 209.1 236.1 206.7 240.9 202.4C241.651 201.775 242.127 201.266 242.379 200.998C242.53 200.837 242.6 200.763 242.6 200.8C242.6 200.5 241.8 200.5 240.4 201C234.7 202.6 229.6 203.6 224.6 203.6C219.5 203.6 216.9 202.4 216.9 200C216.9 199.1 217.3 197.6 218.3 196.2L226.2 188.3C229.8 184.2 231.5 181.4 231.5 179.2C231.5 176.3 228.9 175.1 223.1 175.1C220.4 175.1 218.5 175.5 217.3 176.5C216.3 177.2 215.4 178.9 214.4 181.3C214.2 181.8 214.2 182 214.2 182C214.337 182.137 214.52 182.087 214.686 182.041C214.763 182.02 214.837 182 214.9 182C216.6 181 218 180.8 219.2 180.8C221.6 180.8 224 181.1 225.9 181.8C226.9 182.2 227.1 182.7 226.4 183.2C223.8 186.3 220.9 189.2 218 192.3C215.1 195.7 213.9 199 213.9 202.4C213.9 204.3 214.7 206 216.1 207.2C217.6 208.4 219.7 209.1 221.9 209.1ZM139.3 197.3C139.3 197.3 139.1 197.6 139.1 197.8C137.5 200.7 136 202.4 134.4 202.4C132.3 202.4 131.3 200.2 131.3 196.4C131.3 193.3 132.5 188.2 134.9 180.8C135.4 179.1 135.6 178.1 135.6 177.9C135.3 177.9 134.9 178.8 133.9 180.5C130.1 187.5 128.4 194.4 128.4 200.9C128.4 206.2 129.9 208.8 133 208.8C136.1 208.8 138.3 205.2 139.5 198C139.7 197.8 139.7 197.5 139.5 197.3C139.5 197.209 139.5 197.16 139.481 197.151C139.459 197.141 139.409 197.191 139.3 197.3ZM162.2 182.2C165.1 182.2 167.5 183.6 169.6 187C171.8 190.1 173.4 194.4 174.2 199.7C174.4 200.2 174.4 200.4 174.4 200.7L174.6 200.7C174.6 200.5 174.8 200.2 174.8 199.7C175.3 196.6 176.5 191.8 178.2 185.5C180.1 181.2 182 179 184.2 179C185.4 179 186.6 179.7 187.6 181.2C188.6 182.6 189 183.6 189 184.6C189 185.1 189 186 188.5 187C188 188.4 187.5 189.2 187.1 189.2C186.9 189.2 186.4 188.5 185.4 187.5C184.7 186.5 183.7 186.1 182.8 186.1C180.9 186.1 179.2 190.7 177.5 199.8C176.8 203.9 175.8 206.8 175.1 208.4C174.4 209.4 173.9 210.1 173.4 210.1C172.9 210.1 172.9 209.4 172.7 208.4C172.9 206.7 172 203.6 170.1 199C168.2 194.2 167 192 166 192C165.5 192 165.3 192 165 192.5C164.8 192.7 164.5 193 163.8 193C162.8 193 161.9 192.3 160.4 191.1C159 189.9 158.5 188.9 158.5 188.2C158.5 188 159 186.8 160.2 184.8C161.2 182.9 161.9 182.2 162.2 182.2ZM59.9 202.9C73.6 198.1 88 192.8 103.1 187.3C103.485 187.223 103.752 187.131 103.945 187.064C104.254 186.958 104.377 186.916 104.5 187.1C104.7 187.1 104.7 187.6 104.3 188.3C103.6 190.5 102.9 191.7 102.4 192.1C89.4 196.7 74.6 202.4 57.5 209.6C58 207.4 58.7 205.3 59.9 202.9Z" id="Group" fill="#595959" fill-rule="evenodd" stroke="none" clip-path="url(#clip_1)" />
  </g>
</svg>