<?xml version="1.0" encoding="utf-8"?>
<svg width="653.8002px" height="208.4px" viewBox="0 0 653.8002 208.4" version="1.1" xmlns:xlink="http://www.w3.org/1999/xlink" xmlns="http://www.w3.org/2000/svg">
  <defs>
    <path d="M653.8 0L653.8 0L653.8 208.4L0 208.4L0 0L653.8 0Z" id="path_1" />
    <clipPath id="clip_1">
      <use xlink:href="#path_1" clip-rule="evenodd" fill-rule="evenodd" />
    </clipPath>
  </defs>
  <g id="Surah_29_of_114_(modified)">
    <path d="M653.8 0L653.8 0L653.8 208.4L0 208.4L0 0L653.8 0Z" id="Surah_29_of_114_(modified)" fill="none" stroke="none" />
    <path d="M408.5 30.4C408.5 25.6 407.8 21.8 406.3 18.6C406.3 16.9 407.5 12.8 410.4 6.59999C410.6 5.89999 410.9 5.39999 411.1 5.39999C411.6 5.39999 411.8 5.89999 412.3 6.59999C413 8.29999 414.7 12.8 417.6 20.3C420.7 28.2 422.4 33 422.9 34.9C423.4 36.1 423.4 37.3 423.4 37.8C423.4 40 421.5 38.8 417.2 34C416.7 33.3 416.5 33.8 416.5 35C416.5 35.5 417.7 50.4 419.9 80.1C422.1 109.6 423 126.2 423 130C423 141.3 421.3 151.4 418 160C417 161.7 416.6 162.9 416.1 163.8L416.1 163.8C415.4 165 415.1 165 414.9 164.3C414.7 163.3 414.9 161.4 415.1 158.8C415.6 154.7 415.8 150.2 415.8 145.1C415.8 140.3 414.6 121.1 412.2 87.2999C409.7 53.4 408.5 34.5 408.5 30.4L408.5 30.4L408.5 30.4L408.5 30.4L408.5 30.4ZM399.6 94.5C399.6 108.7 397 119.7 391.9 127.9C387.6 134.6 382.5 138.2 376.8 138.2L376.8 123.6C381.4 123.6 385.9 121.7 390.2 118.1C391.4 117.1 392.1 113.1 392.1 106.3C392.1 102 391.1 88.3 389.5 65.5C387.8 42.5 387.1 28.8 387.1 24.7C387.1 20.1 386.1 16.3 384.7 13.2C384.7 11.5 386.1 7.39999 389 1C389.2 0.300003 389.5 0 389.7 0C390.2 0 390.4 0.199997 390.9 1C391.6 2.89999 393.5 7.5 396.2 14.9C399.3 22.6 401 27.4 401.7 29.3C401.9 30.7 402.2 31.7 402.2 32.4C402.2 34.6 400 33.1 396 28.3C395.5 27.8 395.3 28.1 395.3 29.3C395.3 29.5 396 39.4 397.5 58.6C398.9 77.4 399.6 89.4 399.6 94.5L399.6 94.5L399.6 94.5L399.6 94.5L399.6 94.5ZM360 103.1C357.4 101.2 352.1 100.2 344.6 100C342 100.2 339.3 100.2 337.2 100.7C342 103.8 345.4 106.7 347.5 109.1C351.4 106.9 355.7 104.8 360 103.1L360 103.1L360 103.1L360 103.1L360 103.1ZM343.9 123.5C334.5 129.7 329 133.3 326.9 134.3C322.3 136.9 317.5 138.1 312.7 138.1L312.7 123.5C319.4 123.5 327.1 120.9 335.5 115.6C332.9 112.7 329.5 110.3 325.7 108.2C322.3 106.3 319.7 105.3 318 105.3C314.4 105.3 311.8 105.8 310.1 107C309.4 107.2 308.9 107.5 308.4 107.5C307.9 107.5 307.7 107.3 307.7 106.5C307.7 106 307.7 105.5 308.2 104.8L312.5 94.7C313.2 92.8 317.5 91.1 325.5 89.2C332.9 87.5 340.1 86.8 346.9 86.8C360.1 86.8 370.7 89.7 378.3 95.4C380.2 96.8 381.2 97.8 381.2 98.5C381.2 98.7 381 99.7 380.5 100.7L375.9 109.1C371.3 110.8 365.1 113.4 356.9 116.8C361.5 121.4 368.2 123.5 376.6 123.5L376.6 138.1C370.1 138.1 365.1 137.4 361.5 135.7C357.1 134.1 351.4 130 343.9 123.5L343.9 123.5L343.9 123.5L343.9 123.5L343.9 123.5ZM312.5 137.9C308.7 137.9 305.1 136.9 302.2 135C298.4 132.4 296.2 128 295.5 122.5C293.8 125.6 291.2 129 287.1 132.6C281.1 137.6 274.9 140.3 268.4 140.3L268.4 125.7C276.6 125.7 283.5 123.3 289 119C289.5 118.5 291.6 116.4 295.5 112C299.1 107.9 301 106 301.5 106C302 106 302.5 106.5 302.5 107.4C302.5 107.9 302.3 108.6 302 109.1C301.5 111 301.3 112.7 301.3 114.4C301.3 120.4 305.1 123.3 312.6 123.3L312.6 137.9L312.5 137.9L312.5 137.9L312.5 137.9ZM226.6 116.8C228.8 121.6 229.7 125.4 229.7 127.8C229.7 135.2 227.3 142 222 147.2C217.7 152.2 213.1 154.6 208.6 154.6L208.6 140C215.1 140 220.6 137.1 225.2 131.6C225.9 131.1 225.9 130.4 225.7 129.4C223.5 123.2 216.8 115.5 206 106.8C193.5 97.2 181.3 87.5999 168.8 77.8C168.6 77.5999 168.3 76.5999 168.3 74.9C168.3 72 168.8 68.2 170 63.9C171.2 59.3 172.4 56.5 173.8 55.3C182 47.9 200 38 227.3 25.5C254.9 13.3 273.1 6.99995 282 6.99995C284.6 6.99995 286.6 7.49995 287.5 8.69995C288.5 9.69995 288.9 11.3 288.9 14C288.9 19.8 285.3 27 278.6 35.6C276 38.7 273.3 41.6 270.7 44.5C266.4 49.3 263.7 53.4 262.3 56.3C261.3 58.5 260.6 59.4 260.4 59.4C260.2 59.4 260.4 58.2 260.9 55.3C261.1 53.9 262.3 51.2 264.3 47.4C266.2 44 267.4 41.9 268.4 40.9C276.3 32 281.1 26 282.6 23.4C282.8 23.2 282.8 22.7 282.8 22.4C282.8 20.7 280.6 20 276.1 20C269.1 20 252.6 25.8 226.7 37.8C200.3 49.8 182.5 59.6 172.9 67.3C172.2 68 172.4 68.5 173.1 68.7C180.1 72.1 186.8 75.7 193.5 79.3C209.6 88.4 223.7 98 236 107.9C243.7 114.4 248.7 118.5 251.1 119.9C257.1 123.7 262.9 125.7 268.4 125.7L268.4 140.3C262.9 140.3 257.8 139.1 253.5 136.7C250.9 135 247 132.1 242 127.3C236.2 122.3 231.4 118.2 227.4 115.5C226.7 114.8 226 114.5 226 114.5C225.6 114.6 225.8 115.3 226.6 116.8L226.6 116.8L226.6 116.8L226.6 116.8L226.6 116.8ZM208.6 139.8L208.6 154.7C202.4 154.7 197.8 153 194.7 150.1C192.3 147.7 191.1 144.3 191.1 140.3C191.1 139.3 191.1 138.4 191.1 137.2C184.9 141.8 179.8 144.9 176 146.6L176 133.2C180.8 131.3 186.8 127.9 193.8 123.4C194.8 122.7 195.5 122.4 196 122.4C196.7 122.4 197.2 122.9 197.2 123.8C197.2 124.3 197 125.2 196.7 126.7C196.7 128.1 196.5 129.1 196.5 129.6C196.5 132 197.5 134.2 199.6 136.3C201.8 138.6 205 140.1 208.6 139.8L208.6 139.8L208.6 139.8L208.6 139.8L208.6 139.8ZM162.2 135.3C158.6 130.7 155.5 128.6 152.6 128.6C148.3 128.6 146.4 129.6 146.4 132C146.4 134.9 149.3 136.3 155 136.3C157.2 136.2 159.6 135.7 162.2 135.3L162.2 135.3L162.2 135.3L162.2 135.3L162.2 135.3ZM169.7 152.8C169.7 151.4 169.2 149.7 168.7 148C165.8 149 161.5 149.7 156.2 149.7C144.7 149.7 138.9 145.6 138.9 137.7C138.9 131.7 140.6 126.4 144.4 121.6C148 117.5 151.8 115.4 155.9 115.4C159 115.4 162.1 117.3 165.7 120.9C168.8 124.5 171.7 128.6 174.1 133.6C174.3 133.6 174.8 133.6 175.8 133.1L175.8 146.3L175.3 146.8C175.3 149.7 174.6 153 173.1 157.4C171.4 162.9 168.8 167.5 165.7 171.1C158.5 179.7 150.6 187.2 141.9 193.7C128.9 203.3 117.9 208.3 108.3 208.3C100.1 208.3 93.9 205.2 89.6 199.2C85.8 194.2 83.8 187.4 83.8 179.5C83.8 169.4 86 159.1 90 148.3C91.2 145.9 91.7 144.9 92.2 144.9C92.4 144.9 92.4 145.1 92.4 145.6C92.4 146.3 92.2 147.5 91.9 149C88.8 159.6 87.3 167.5 87.3 173C87.3 178 88.5 182.4 90.9 186C94.7 191 100.7 193.7 109.1 193.7C116.3 193.7 124.9 190.6 135.3 184.3C143.5 179.3 151.4 173.3 159.1 166.1C166.1 159.3 169.7 154.9 169.7 152.8L169.7 152.8L169.7 152.8L169.7 152.8L169.7 152.8ZM46.1 140.1C61.9 140.1 79.7 136.7 100.1 130.5C116.4 125.2 127 120.9 131.8 117.3C132.3 117.1 132.3 116.6 132.3 115.9C132.3 114 129.4 108.9 123.2 101.3C122 99.9 121.5 98.2 122 96.5C122.7 93.1 123.7 90.3 124.9 87.9C125.6 86.2 126.3 85.3 126.8 85.3C127 85.3 128 86 129.2 87.5C130.9 89.2 132.6 91.8 134.2 95.7C136.8 100.3 138 104.3 138 107.7C138 119 134.4 127.4 127 132.4C122.2 136 111.4 140.3 94.8 145.4C73.9 151.9 55.9 155 40.1 155C24.7 155 13.9 150.9 6.99999 142.8C2.19999 137.3 -7.62939e-06 130.1 -7.62939e-06 121.4C-7.62939e-06 112.3 2.19999 103.9 6.49999 96C7.89999 93.6 8.89999 92.2 9.39999 92.2C9.39999 92.2 9.59999 92.4 9.59999 92.9C9.59999 93.6 9.09999 95.1 8.39999 97.2C7.39999 100.1 6.2 102.7 5.3 105.6C4.1 109.2 3.6 113 3.6 117.1C3.6 122.4 6 126.9 11.3 131C18.7 136.9 30.2 140.1 46.1 140.1L46.1 140.1L46.1 140.1L46.1 140.1L46.1 140.1ZM281.5 79.1C281.3 78.9 281.3 78.6 281.5 78.1L286.1 68.5C286.3 68 286.8 67.8 287.1 67.8C287.6 67.8 289.7 69 293.3 71.4C297.1 74 299.1 75.5 299.1 76C299.1 77.7 297.4 81 294.1 86.3C293.6 87 293.4 87.3 292.9 87C289.2 84.1 285.4 81.5 281.5 79.1L281.5 79.1L281.5 79.1L281.5 79.1L281.5 79.1ZM179.3 186.9C179.1 186.7 179.1 186.4 179.3 185.9L183.9 176.3C184.1 175.8 184.6 175.6 184.9 175.6C185.4 175.6 187.5 176.8 191.1 179.2C194.9 181.8 196.9 183.3 196.9 183.8C196.9 185.5 195.2 188.8 191.9 194.1C191.4 194.8 191.2 195.1 190.7 194.8C187 191.9 183.1 189.3 179.3 186.9L179.3 186.9L179.3 186.9L179.3 186.9L179.3 186.9ZM66 85.3L69.8 77.4C70 76.9 70.3 76.7 70.8 76.7C71.3 76.7 73.2 77.9 77 80.5C80.6 82.9 82.5 84.3 82.5 84.8C82.5 86.5 80.8 90.0999 77.7 95.4C77.2 96.1 76.7 96.1 76.3 95.9C73.2 93.5 69.6 91.1 65.5 88.5C64.1 91.4 62.9 94 61.4 96.2C61.2 96.9 60.7 97.2 60.2 96.9C56.6 94 52.8 91.4 48.9 89C48.7 88.8 48.7 88.5 48.9 88L53.5 78.4C53.7 77.9 54.2 77.4 54.5 77.4C55 77.4 56.7 78.6 59.8 80.8C62.9 82.7 65 84.4 66 85.3L66 85.3L66 85.3L66 85.3L66 85.3ZM371 28.5C371 27.3 368.6 25.1 363.6 22.3C361.9 25.2 361.2 27.8 361.2 30.2C361.2 31.6 361.9 32.6 363.4 32.6C364.6 32.6 366 32.1 367.7 31.2C369.4 30.4 370.6 29.4 371 28.5L371 28.5L371 28.5L371 28.5L371 28.5ZM365.8 9.29999C366.5 8.09999 367.5 7.59999 368.2 7.59999C368.7 7.59999 369.2 7.79999 369.2 8.29999C369.2 8.29999 369 8.49998 369 8.79999C368 11 367.1 13.4 366.4 15.8C371.4 19.4 373.8 23.2 373.6 26.8C373.1 30.9 372.6 33.5 371.9 34.5C369.5 37.4 366.9 39.1 363.5 39.1C360.1 39.1 358.7 36.9 358.7 33.1C358.7 32.4 358.7 31.4 358.9 30.5C360 22.7 362.4 15.7 365.8 9.29999L365.8 9.29999L365.8 9.29999L365.8 9.29999L365.8 9.29999ZM316.1 71.2C334.6 64.5 353.8 57.3 373.9 49.8C374.6 49.6 375.1 49.3 375.3 49.6C375.3 49.6 375.3 50.1 375.1 50.8C374.1 53 373.4 54.2 372.9 54.6C356.1 60.8 336.2 68.5 313.6 77.9C314.2 75.7 314.9 73.6 316.1 71.2L316.1 71.2L316.1 71.2L316.1 71.2L316.1 71.2ZM307.4 39C307.4 37.8 305 35.6 300 32.8C298.3 35.7 297.6 38.3 297.6 40.7C297.6 42.1 298.3 43.1 299.8 43.1C301 43.1 302.4 42.6 304.1 41.7C305.8 40.9 307 40 307.4 39L307.4 39L307.4 39L307.4 39L307.4 39ZM302.2 19.8C302.9 18.6 303.9 18.1 304.6 18.1C305.1 18.1 305.6 18.3 305.6 18.8C305.6 18.8 305.4 19 305.4 19.3C304.4 21.5 303.5 23.9 302.8 26.3C307.8 29.9 310.2 33.7 310 37.3C309.5 41.4 309 44 308.3 45C305.9 47.9 303.3 49.6 299.9 49.6C296.5 49.6 295.1 47.4 295.1 43.6C295.1 42.9 295.1 41.9 295.3 41C296.4 33.3 298.8 26.3 302.2 19.8L302.2 19.8L302.2 19.8L302.2 19.8L302.2 19.8ZM344.9 25.1C344.9 24.9 345.1 24.6 345.1 24.6C345.3 24.4 345.3 24.4 345.3 24.6C345.5 24.8 345.5 25.1 345.3 25.3C344.1 32.5 341.9 36.1 338.8 36.1C335.7 36.1 334.2 33.5 334.2 28.2C334.2 21.7 335.9 14.8 339.7 7.8C340.7 6.10001 341.1 5.2 341.4 5.2L341.4 5.2C341.4 5.39999 341.2 6.39999 340.7 8.09999C338.3 15.5 337.1 20.6 337.1 23.7C337.1 27.5 338.1 29.7 340.2 29.7C341.8 29.7 343.2 28 344.9 25.1L344.9 25.1L344.9 25.1L344.9 25.1L344.9 25.1ZM237.1 48.4C239.5 48.4 240.2 49.4 239.7 51.3C239 53.5 238.5 54.4 238 54.4C238 54.4 237.8 54.4 237.3 53.9C236.8 53.4 236.3 53.2 235.4 53.2C234.7 53.2 232.8 53.9 230.1 55.8C227.2 57.7 224.8 59.4 223.4 61.3C223.2 61.5 222.9 62 222.9 62.3C222.9 63 224.6 63.5 227.5 63.5C229.7 63.5 232.1 63 234.9 62.5C237.8 62 239.5 61.8 240.2 61.8C244.3 61.8 246.7 63 247.9 65.4C248.1 65.9 248.4 66.6 248.4 67.6C248.4 68.8 247.9 70.2 247.2 71.7C246.7 73.4 246 74.1 245.5 74.3C235.9 77.2 228.9 78.6 223.9 78.6C221.5 78.6 219.3 77.6 217.4 76.2C216 75 215 73.8 214.8 72.1C216.5 73.1 219.4 73.8 223.4 73.8C225.3 73.8 229.4 73.1 235.9 71.9C241.7 70.7 245.3 70 246.5 69.7C246 67.8 243.4 67.1 238.8 67.1C237.8 67.1 235.9 67.3 232.8 67.8C229.9 68.3 228 68.5 226.8 68.5C222.2 68.5 220.1 67.3 220.1 65.4C220.1 64.4 220.3 63.2 221.1 61.8C223.3 57.7 226.1 54.4 229.7 51.7C232.6 49.3 235 48.4 237.1 48.4L237.1 48.4L237.1 48.4L237.1 48.4L237.1 48.4ZM272.9 90.1C272.9 92.7 271.7 95.6 269.8 98.7C267.6 101.8 265 104.7 261.6 107.1C260.2 108.1 259.4 108.5 259.2 108.5L259.2 108.3C259.2 108.1 259.7 107.6 260.6 106.4C266.1 100.4 269 96.6 269 94.4C269 92.7 268 91.8 266.4 91.8C265.4 91.8 264.5 92 263.8 92.5C263.1 92.7 262.8 93 262.6 93C262.6 93 262.4 93 262.4 92.8C262.4 92.8 262.4 92.3 262.6 91.4C263.6 87.3 265.5 85.4 268.8 85.4C271.4 85.3 272.9 87 272.9 90.1L272.9 90.1L272.9 90.1L272.9 90.1L272.9 90.1ZM323.5 191.4C328.3 191.4 333.3 190.4 339.1 188.8C340.5 188.3 341.3 188.3 341.3 188.6C341.3 188.8 340.8 189.3 339.6 190.3C334.8 194.6 328.3 197 320.6 197C318.4 197 316.3 196.3 314.8 195.1C313.4 193.9 312.6 192.2 312.6 190.3C312.6 185.3 314.8 180 319.1 174.5C315.3 173.3 313.3 171.4 313.3 168.5C313.3 165.9 314.7 163 317.9 159.6C321 156.2 323.4 154.6 325.3 154.6C325.8 154.6 326.3 154.8 326.7 155.8C327.2 156.5 327.4 157.2 327.4 158.2C327.4 158.7 326.9 159.6 326 161.1C325 162.5 324.3 163 324.3 162.8C323.8 161.4 323.1 160.6 321.7 160.6C321 160.6 320.3 161.1 319.3 162.3C318.1 163.5 317.6 164.5 317.6 165.2C318.8 167.1 321 168.3 323.8 168.3C324.8 168.3 326.4 167.3 328.4 165.4C329.8 164.4 331 163.2 332.2 162C332.7 161.8 332.9 162 332.9 163C332.9 165.4 331.9 167.6 330.5 170C324 174.3 319.2 179.4 316.1 184.9C315.6 186.1 315.4 187.1 315.4 187.8C315.6 190 318.2 191.4 323.5 191.4L323.5 191.4L323.5 191.4L323.5 191.4L323.5 191.4ZM163.7 28C182.2 21.3 201.4 14.1 221.5 6.59999C222.2 6.39999 222.7 6.09999 222.9 6.39999C222.9 6.39999 222.9 6.89999 222.7 7.59999C221.7 9.79999 221 11 220.5 11.4C203.7 17.6 183.8 25.3 161.2 34.7C161.8 32.5 162.5 30.4 163.7 28L163.7 28L163.7 28L163.7 28L163.7 28ZM138.2 37.3C138.7 35.9 138.7 34.4 138.4 33C138.2 31.6 137.4 30.8 136.2 30.8C135.7 30.8 135 31 134 31.5C133 32 132.6 32.5 132.6 32.9C132.7 34.2 134.6 35.7 138.2 37.3L138.2 37.3L138.2 37.3L138.2 37.3L138.2 37.3ZM143.5 46.2C141.1 52 139.9 56.5 139.9 59.9C139.9 64 140.9 66.1 143 66.1C144.4 66.1 145.9 64.4 147.3 61.5C147.5 61.3 147.5 61 147.8 60.8C148 60.8 148 60.8 148 61C148 61 148 61.2 148 61.7C146.8 68.9 144.6 72.5 141.5 72.5C138.4 72.5 136.9 69.9 136.9 64.6C136.9 62 137.6 58.6 138.8 54.3C140.2 50 141 47.8 141 47.6C141 47.1 140 46.2 137.9 45C135.3 48.6 132.1 51.7 128.3 54.6C123.7 58 119.7 60.4 116.1 62C115.1 62.2 110.8 63.9 103.1 66.8C101.9 67.3 100.9 67.5 100.7 67.5C100.5 67.5 100.5 67.5 100.5 67.3C100.5 67.1 101 66.6 102.4 65.6C108.2 62.2 113.9 58.6 119.9 55.3C126.9 51 131.9 47.1 135.3 43.5C130.7 41.1 128.6 38.7 128.6 36.1C128.6 33 130 30.1 132.9 27.5C135.8 25.1 138.2 24.1 140.1 24.9C141.8 25.4 142.5 27.1 142.5 29.9C142.5 32.5 142 35.4 140.8 38.5C143.2 39.9 144.4 41.4 144.4 42.8C144.5 43.6 144 44.8 143.5 46.2L143.5 46.2L143.5 46.2L143.5 46.2L143.5 46.2ZM267.8 156.4C267.8 156.9 267.6 157.8 267.1 158.8C266.9 160.2 266.4 161 265.7 161C265.5 161 265 160.3 264 159.3C263.3 158.3 262.3 157.9 261.6 157.9C259.7 157.9 257.8 162.5 256.1 171.6C255.4 175.7 254.7 178.6 253.7 180.2C253 181.2 252.5 181.9 252 181.9C251.8 181.9 251.5 181.2 251.5 180.2C251.5 178.5 250.5 175.4 248.6 170.8C246.7 166 245.5 163.8 244.8 163.8C244.1 163.8 243.8 163.8 243.6 164.3C243.6 164.5 243.1 164.8 242.4 164.8C241.4 164.8 240.5 164.1 239 162.9C237.8 161.7 237.1 160.7 237.1 160C237.1 159.8 237.6 158.6 238.8 156.6C240 154.7 240.7 154 241 154C243.6 154 246 155.4 248.2 158.8C250.6 162.2 252 166.2 253 171.5C253 172 253 172.2 253 172.5C253.2 172.7 253.2 172.7 253.2 172.5C253.2 172.3 253.4 172 253.7 171.5C253.9 168.4 255.1 163.6 256.8 157.3C258.7 153 260.6 150.8 262.8 150.8C264 150.8 265.2 151.5 266.4 153C267.4 154.5 267.8 155.4 267.8 156.4L267.8 156.4L267.8 156.4L267.8 156.4L267.8 156.4ZM252 184C250.3 187.8 247 191.7 241.9 195.3C237.3 198.7 233.3 201.1 229.7 202.7C229 203.2 224.7 204.9 216.7 207.7C215.5 208.2 214.8 208.4 214.3 208.4C214.1 208.4 214.1 208.2 214.1 208.2C214.1 208 214.8 207.2 216 206.5C222.5 202.7 231.6 197.1 243.6 189.2C246.5 187 248.6 184.9 250.3 183C252.2 180.8 253.2 179.6 253.4 179.6C253.4 179.6 253.4 179.6 253.4 179.8C253.4 180.1 253 181.6 252 184L252 184L252 184L252 184L252 184ZM288.2 196C288.2 195.8 288.4 195.5 288.4 195.5C288.6 195.3 288.6 195.3 288.6 195.5C288.8 195.7 288.8 196 288.6 196.2C287.4 203.4 285.2 207 282.1 207C279 207 277.5 204.4 277.5 199.1C277.5 192.6 279.2 185.7 283 178.7C284 177 284.4 176.1 284.7 176.1L284.7 176.1C284.7 176.3 284.5 177.3 284 179C281.6 186.4 280.4 191.5 280.4 194.6C280.4 198.4 281.4 200.6 283.5 200.6C285.1 200.5 286.6 198.9 288.2 196L288.2 196L288.2 196L288.2 196L288.2 196ZM122.4 157.8C122.4 160.4 121.2 163.3 119.3 166.4C117.1 169.5 114.5 172.4 111.1 174.8C109.7 175.8 108.9 176.2 108.7 176.2L108.7 176C108.7 175.8 109.2 175.3 110.1 174.1C115.6 168.1 118.5 164.3 118.5 162.1C118.5 160.4 117.5 159.5 115.9 159.5C114.9 159.5 114 159.7 113.3 160.2C112.6 160.4 112.3 160.7 112.1 160.7C112.1 160.7 111.9 160.7 111.9 160.5C111.9 160.5 111.9 160 112.1 159.1C113.1 155 115 153.1 118.3 153.1C121 153 122.4 154.7 122.4 157.8L122.4 157.8L122.4 157.8L122.4 157.8L122.4 157.8ZM160.3 83.7C160.3 86.3 159.1 89.2 157.2 92.3C155 95.4 152.4 98.3 149 100.7C147.6 101.7 146.8 102.1 146.6 102.1L146.6 101.9C146.6 101.7 147.1 101.2 148 100C153.5 94 156.4 90.2 156.4 88C156.4 86.3 155.4 85.4 153.8 85.4C152.8 85.4 151.9 85.6 151.2 86.1C150.5 86.3 150.2 86.6 150 86.6C150 86.6 149.8 86.6 149.8 86.4C149.8 86.4 149.8 85.9 150 85C151 80.9 152.9 79 156.2 79C158.9 78.9 160.3 80.5 160.3 83.7L160.3 83.7L160.3 83.7L160.3 83.7L160.3 83.7ZM397.7 155.9C397.7 156.4 397.5 157.3 397 158.3C396.8 159.7 396.3 160.5 395.6 160.5C395.4 160.5 394.9 159.8 393.9 158.8C393.2 157.8 392.2 157.4 391.5 157.4C389.6 157.4 387.7 162 386 171.1C385.3 175.2 384.6 178.1 383.6 179.7C382.9 180.7 382.4 181.4 381.9 181.4C381.7 181.4 381.4 180.7 381.4 179.7C381.4 178 380.4 174.9 378.5 170.3C376.6 165.5 375.4 163.3 374.7 163.3C374 163.3 373.7 163.3 373.5 163.8C373.5 164 373 164.3 372.3 164.3C371.3 164.3 370.4 163.6 368.9 162.4C367.7 161.2 367 160.2 367 159.5C367 159.3 367.5 158.1 368.7 156.1C369.9 154.2 370.6 153.5 370.9 153.5C373.5 153.5 375.9 154.9 378.1 158.3C380.5 161.7 381.9 165.7 382.9 171C382.9 171.5 382.9 171.7 382.9 172C383.1 172.2 383.1 172.2 383.1 172C383.1 171.8 383.3 171.5 383.6 171C383.8 167.9 385 163.1 386.7 156.8C388.6 152.5 390.5 150.3 392.7 150.3C393.9 150.3 395.1 151 396.3 152.5C397.2 154 397.7 154.9 397.7 155.9L397.7 155.9L397.7 155.9L397.7 155.9L397.7 155.9ZM381.8 183.5C380.1 187.3 376.8 191.2 371.7 194.8C367.1 198.2 363.1 200.6 359.5 202.2C358.8 202.7 354.5 204.4 346.5 207.2C345.3 207.7 344.6 207.9 344.1 207.9C343.9 207.9 343.9 207.7 343.9 207.7C343.9 207.5 344.6 206.7 345.8 206C352.3 202.2 361.4 196.6 373.4 188.7C376.3 186.5 378.4 184.4 380.1 182.5C382 180.3 383 179.1 383.2 179.1C383.2 179.1 383.2 179.1 383.2 179.3C383.2 179.5 382.8 181.1 381.8 183.5L381.8 183.5L381.8 183.5L381.8 183.5L381.8 183.5ZM43.2 173.9C52.8 170.5 63.1 166.7 74.2 162.9C75.2 162.7 75.4 162.4 75.6 162.7C75.8 162.7 75.8 163.2 75.4 163.9C74.7 166.1 74 167.3 73.5 167.7C63.9 171.1 53.1 175.1 40.9 180.7C41.3 178.5 42 176.3 43.2 173.9L43.2 173.9L43.2 173.9L43.2 173.9L43.2 173.9ZM16.1 82C16.1 81.8 16.3 81.5 16.3 81.5C16.5 81.3 16.5 81.3 16.5 81.5C16.7 81.7 16.7 82 16.5 82.2C15.3 89.4 13.1 93 10 93C6.9 93 5.4 90.4 5.4 85.1C5.4 78.6 7.1 71.7 10.9 64.7C11.9 63 12.3 62.1 12.6 62.1L12.6 62.1C12.6 62.3 12.4 63.3 11.9 65C9.5 72.4 8.3 77.5 8.3 80.6C8.3 84.4 9.3 86.6 11.4 86.6C13 86.5 14.4 84.9 16.1 82L16.1 82L16.1 82L16.1 82L16.1 82ZM51.4 34.7C54.3 34.7 56.7 36.1 58.8 39.5C61 42.6 62.6 46.9 63.4 52.2C63.6 52.7 63.6 52.9 63.6 53.2L63.8 53.2C63.8 53 64 52.7 64 52.2C64.5 49.1 65.7 44.3 67.4 38C69.3 33.7 71.2 31.5 73.4 31.5C74.6 31.5 75.8 32.2 76.8 33.7C77.8 35.1 78.2 36.1 78.2 37.1C78.2 37.6 78.2 38.5 77.7 39.5C77.2 40.9 76.7 41.7 76.3 41.7C76.1 41.7 75.6 41 74.6 40C73.9 39 72.9 38.6 72 38.6C70.1 38.6 68.4 43.2 66.7 52.3C66 56.4 65 59.3 64.3 60.9C63.6 61.9 63.1 62.6 62.6 62.6C62.1 62.6 62.1 61.9 61.9 60.9C62.1 59.2 61.2 56.1 59.3 51.5C57.4 46.7 56.2 44.5 55.2 44.5C54.7 44.5 54.5 44.5 54.2 45C54 45.2 53.7 45.5 53 45.5C52 45.5 51.1 44.8 49.6 43.6C48.2 42.4 47.7 41.4 47.7 40.7C47.7 40.5 48.2 39.3 49.4 37.3C50.4 35.4 51.1 34.7 51.4 34.7L51.4 34.7L51.4 34.7L51.4 34.7L51.4 34.7ZM115.4 32.8C115.4 32.6 115.6 32.3 115.6 32.3C115.8 32.1 115.8 32.1 115.8 32.3C116 32.5 116 32.8 115.8 33C114.6 40.2 112.4 43.8 109.3 43.8C106.2 43.8 104.7 41.2 104.7 35.9C104.7 29.4 106.4 22.5 110.2 15.5C111.2 13.8 111.6 12.9 111.9 12.9L111.9 12.9C111.9 13.1 111.7 14.1 111.2 15.8C108.8 23.2 107.6 28.3 107.6 31.4C107.6 35.2 108.6 37.4 110.7 37.4C112.3 37.3 113.8 35.7 115.4 32.8L115.4 32.8L115.4 32.8L115.4 32.8L115.4 32.8ZM595 118C596.2 117 597.2 116.6 597.9 116.6C598.4 116.6 598.6 117.1 598.6 118C598.6 118.7 598.4 120.2 597.9 122.1C597.4 124 597.2 125.5 597.2 126.7C597.2 132 601 134.9 608.5 134.9C614.5 134.9 619.5 132.3 623.4 127.2C625.8 123.1 628.4 119.3 630.8 115.4C631.8 114.4 632.5 114 633.2 114C634.2 114 634.4 115 633.9 117.1C632.9 121.2 632.2 123.1 632.2 122.6C632.2 124.3 633.2 126 635.1 127.4C636.8 128.8 639.2 129.8 641.8 129.8C645.2 129.8 647.3 128.8 648.3 127.2C648.3 127 647.3 125 645.2 121.4C645.4 119.5 646.4 116.1 647.8 111.6C648 110.2 648.5 109.4 649 109.4C649.5 109.4 650 109.6 650.7 110.6C652.6 113.5 653.8 116.8 653.8 120.7C653.8 126.7 652.4 131.7 649.7 136.1C646.8 141.4 642.5 144 636.7 144C632.9 144 629.3 140.9 626.1 135.1C620.8 144.7 613.9 149.5 605.5 149.5C595.4 149.5 590.6 143.7 590.6 132.7C586.8 137.3 580.3 141.3 571.9 145.2L571.9 132C578.1 128.9 582.2 127 583.4 126.2C587.3 124.2 591.1 121.3 595 118L595 118L595 118L595 118L595 118ZM558.2 133.8C554.6 129.2 551.5 127.1 548.6 127.1C544.3 127.1 542.4 128.1 542.4 130.5C542.4 133.4 545.3 134.8 551 134.8C553.2 134.8 555.6 134.3 558.2 133.8L558.2 133.8L558.2 133.8L558.2 133.8L558.2 133.8ZM565.7 151.3C565.7 149.9 565.2 148.2 564.7 146.5C561.8 147.5 557.5 148.2 552.2 148.2C540.7 148.2 534.9 144.1 534.9 136.2C534.9 130.2 536.6 124.9 540.4 120.1C544 116 547.8 113.9 551.9 113.9C555 113.9 558.1 115.8 561.7 119.4C564.8 123 567.7 127.1 570.1 132.1C570.3 132.1 570.8 132.1 571.8 131.6L571.8 144.8L571.3 145.3C571.3 148.2 570.6 151.5 569.1 155.9C567.4 161.4 564.8 166 561.7 169.6C554.5 178.2 546.6 185.7 537.9 192.2C524.9 201.8 513.9 206.8 504.3 206.8C496.1 206.8 489.9 203.7 485.6 197.7C481.8 192.7 479.8 185.9 479.8 178C479.8 167.9 482 157.6 486 146.8C487.2 144.4 487.7 143.4 488.2 143.4C488.4 143.4 488.4 143.6 488.4 144.1C488.4 144.8 488.2 146 487.9 147.5C484.8 158.1 483.3 166 483.3 171.5C483.3 176.5 484.5 180.9 486.9 184.5C490.7 189.5 496.7 192.2 505.1 192.2C512.3 192.2 520.9 189.1 531.3 182.8C539.5 177.8 547.4 171.8 555.1 164.6C562.1 157.8 565.7 153.5 565.7 151.3L565.7 151.3L565.7 151.3L565.7 151.3L565.7 151.3ZM500.4 115.1C499.9 112.9 499.2 111.3 498.2 110.1C497.5 108.7 497 107.9 496.8 107.5C496.8 107 496.8 105.3 497.3 102C497.8 98.9 498 96.7 498.5 95.5C498.7 94.3 499 93.8 499.5 93.8C499.7 93.8 500 94 500.5 94.5C503.9 98.3 507.5 102.2 511.5 106.3C513.2 108 513.9 108.9 513.9 109.4C513.9 109.6 513.7 109.9 513.2 109.9C512.5 109.9 510.6 109.4 507.7 108.7C509.4 112.8 511.3 116.9 513 120.7C515.6 127.4 517.1 132.9 517.1 138C517.1 140.4 516.6 143.3 515.7 146.9C514.5 151 513.1 154.1 511.1 156.3C504.1 164.2 492.4 172.9 475.8 182.2C461.4 190.6 453 194.7 450.4 194.7C449.9 194.7 442.7 196.4 429 199.7C414.6 203.1 405.5 205.2 401.9 205.7C398.1 206.4 395.7 206.7 394.7 206.7C394.2 206.7 394.2 206.7 394.2 206.5C394.2 206.3 396.8 204.8 402.1 202.4C404 201.4 415.1 196.6 435.5 188C449.7 182 461.4 176.5 470.8 171.4C485 163.7 495.8 157 503.2 151.5C508.7 147.2 511.6 144.1 511.6 142.1C511.6 141.6 510.2 138.3 507.3 132C504 124.9 501.6 119.2 500.4 115.1L500.4 115.1L500.4 115.1L500.4 115.1L500.4 115.1ZM480.7 81.7C480.7 85.5 478.8 90.8 474.9 97.3C472.5 101.4 468.9 106.9 464.1 114.1C468.9 119.6 472.3 124.7 473.9 129C474.9 132.1 475.6 136.2 475.6 140.8C475.6 142.7 475.1 145.1 474.2 148.2C473.5 151.1 472.5 153.2 471.6 154.7C469.7 157.6 466.6 160.5 461.8 163.3C456.8 166.7 452.4 168.3 448.8 168.3C443 168.3 440.2 164 440.2 155.3C440.2 149.5 441.2 143.8 443.1 138.5C445 133.9 448.1 127.9 453.2 120C448.9 115.9 444.3 110.2 439.3 103C438.8 102.3 437.6 101.1 435.7 99.2C434.7 98.2 434.3 97 434.3 95.6C434.3 93.4 434.5 91 435 88.2C435.7 85.3 436.2 84.1 436.4 84.1C437.1 84.1 439.3 85.3 443.4 87.9C447.2 90.5 450.4 92.5 452.3 94.1C453.5 94.8 454 95.5 454 95.5L454 95.7C454 95.9 453.3 96.2 451.6 96.2C448.5 96.2 446.8 96.4 446.8 96.7C446.8 96.9 447.3 97.4 448.2 98.6C452 103.4 455.9 107 460 109.9C461 108.5 464.3 103.7 469.6 95.5C474.2 88.5 476.8 83.7 478 80.9C479.2 78 479.9 76.8 480.4 76.8C480.5 76.9 480.7 78.4 480.7 81.7L480.7 81.7L480.7 81.7L480.7 81.7L480.7 81.7ZM471.4 140.8C468.8 135.5 464.2 130 458 124.7C455.8 126.9 453.2 130.9 449.8 136.7C446 143.2 444.3 147.3 444.3 149.4C444.3 152.3 446.2 153.7 450.5 153.7C452.4 153.7 454.8 153 457.9 151.8C462.2 149.9 466.3 147.2 469.7 143.9C471.1 142.5 471.6 141.5 471.4 140.8L471.4 140.8L471.4 140.8L471.4 140.8L471.4 140.8ZM457.9 63.7L461.7 55.8C461.9 55.3 462.2 55.1 462.7 55.1C463.2 55.1 465.1 56.3 468.9 58.9C472.5 61.3 474.4 62.7 474.4 63.2C474.4 64.9 472.7 68.4999 469.6 73.8C469.1 74.5 468.6 74.5 468.2 74.3C465.1 71.9 461.5 69.5 457.4 66.9C456 69.8 454.8 72.4 453.3 74.6C453.1 75.3 452.6 75.6 452.1 75.3C448.5 72.4 444.7 69.8 440.8 67.4C440.6 67.2 440.6 66.9 440.8 66.4L445.4 56.8C445.6 56.3 446.1 55.8 446.4 55.8C446.9 55.8 448.6 57 451.7 59.2C454.8 61.1 457 62.8 457.9 63.7L457.9 63.7L457.9 63.7L457.9 63.7L457.9 63.7ZM584.4 197.7C581.8 198.4 580.3 198.9 579.8 198.9L579.8 198.7C579.8 198.7 580.8 198 582.7 196.8C584.6 195.6 587.5 193.7 591.6 190.6C593.5 188.7 596.4 185.6 600 181.2C602.4 178.3 605 175.7 607.9 173.8C611.5 171.2 614.9 170 618.5 170C619.2 170 620.4 170.2 621.9 170.7C623.1 171.2 624.3 171.4 625.3 171.4C627.2 171.4 628.7 170.7 629.9 169.2C630.6 167.8 631.6 166.6 632.5 165.1C633 164.1 633.7 163.7 634.2 163.7C634.4 163.7 634.4 163.9 634.4 164.4C634.4 164.9 634.2 166.1 633.7 167.5C633.2 168.2 635.1 168.5 638.7 168.5C639.2 168.5 639.4 168.5 639.4 168.3C639.4 168.3 639.2 167.3 638.7 165.7C638.5 165.2 638.7 164.5 639.4 163.5C640.4 161.8 640.8 161.1 641.1 161.3C642.1 162 642.5 163.5 642.5 165.1C642.5 166.8 642 168.5 641.3 170.4C640.6 172.6 639.9 173.8 639.4 174.2C637.7 175.2 635.1 174.9 631.5 173.2C628.6 176.1 625.7 177.8 622.9 177.8C622.2 177.8 621 177.6 619.8 177.1C618.6 176.6 617.6 176.4 616.9 176.4C612.1 176.4 607.1 178.6 602 183.4C598.4 187 594.8 190.6 591.2 194.2C589 195.7 586.8 196.9 584.4 197.7L584.4 197.7L584.4 197.7L584.4 197.7L584.4 197.7ZM532.8 67.8C535.7 67.8 538.1 69.2 540.2 72.6C542.4 75.7 544 80 544.8 85.3C545 85.8 545 86 545 86.3L545.2 86.3C545.2 86.1 545.4 85.8 545.4 85.3C545.9 82.2 547.1 77.4 548.8 71.1C550.7 66.8 552.6 64.6 554.8 64.6C556 64.6 557.2 65.3 558.2 66.8C559.2 68.2 559.6 69.2 559.6 70.2C559.6 70.7 559.6 71.6 559.1 72.6C558.6 74 558.1 74.8 557.7 74.8C557.5 74.8 557 74.1 556 73.1C555.3 72.1 554.3 71.7 553.4 71.7C551.5 71.7 549.8 76.3 548.1 85.4C547.4 89.5 546.4 92.4 545.7 94C545 95 544.5 95.7 544 95.7C543.5 95.7 543.5 95 543.3 94C543.5 92.3 542.6 89.2 540.7 84.6C538.8 79.8 537.6 77.6 536.6 77.6C536.1 77.6 535.9 77.6 535.6 78.1C535.4 78.3 535.1 78.6 534.4 78.6C533.4 78.6 532.5 77.9 531 76.7C529.6 75.5 529.1 74.5 529.1 73.8C529.1 73.6 529.6 72.4 530.8 70.4C531.8 68.5 532.6 67.8 532.8 67.8L532.8 67.8L532.8 67.8L532.8 67.8L532.8 67.8ZM492 64.9C516.2 55.8 541.4 46.7 567.4 37.1C568.1 36.9 568.6 36.6 568.6 36.9C568.8 36.9 568.8 37.4 568.6 38.1C567.6 40.3 566.9 41.5 566.4 41.9C566.2 42.1 553.9 46.7 530.2 55.6C506 64.5 492.3 70 489.6 71.7C490.1 69.5 490.8 67.3 492 64.9L492 64.9L492 64.9L492 64.9L492 64.9ZM468.5 21C469 19.6 469 18.1 468.7 16.7C468.5 15.3 467.7 14.5 466.5 14.5C466 14.5 465.3 14.7 464.3 15.2C463.3 15.7 462.9 16.2 462.9 16.6C463 17.9 464.9 19.3 468.5 21L468.5 21L468.5 21L468.5 21L468.5 21ZM465.6 27.3C461 24.9 458.9 22.5 458.9 19.9C458.9 16.8 460.3 13.9 463.2 11.5C466.1 8.89999 468.5 7.89999 470.4 8.60001C472.1 9.10001 472.8 10.8 472.8 13.6C472.8 16.2 472.3 19.1 471.1 22.5C473.5 23.7 474.9 24.9 475.4 25.9C475.4 27.1 474.4 29.3 472.3 32.1C471.8 31.1 470.4 29.9 468.2 28.7C465.6 32.3 462.4 35.4 458.6 38.3C454 41.4 450 44.1 446.4 45.5C445.4 46 441.1 47.7 433.4 50.5C432.2 51 431.2 51.2 431 51.2C430.8 51.2 430.8 51 430.8 51C430.8 50.8 431.3 50 432.7 49.3C438.5 45.7 444.2 42.3 450.2 39C457.2 34.7 462.2 30.9 465.6 27.3L465.6 27.3L465.6 27.3L465.6 27.3L465.6 27.3ZM617.3 57.3C617.8 55.9 617.8 54.4 617.5 53C617.3 51.6 616.5 50.8 615.3 50.8C614.8 50.8 614.1 51 613.1 51.5C612.1 52 611.7 52.5 611.7 52.9C611.8 54.1 613.7 55.6 617.3 57.3L617.3 57.3L617.3 57.3L617.3 57.3L617.3 57.3ZM622.6 66.1C620.2 71.9 619 76.4 619 79.8C619 83.9 620 86 622.1 86C623.3 86 624.7 84.3 626.4 81.4C626.6 81.2 626.6 80.9 626.9 80.7C626.9 80.7 627.1 80.7 627.1 80.9C627.1 80.9 627.1 81.1 627.1 81.6C625.7 88.8 623.5 92.4 620.6 92.4C617.5 92.4 616 89.8 616 84.5C616 81.9 616.5 78.5 617.9 74.2C619.3 69.9 620.1 67.7 620.1 67.5C620.1 67 619.1 66.1 617 64.9C613.2 69.9 607.9 74.7 601.2 78.8C596.6 81.4 592.1 83.8 587.3 85.8C578.4 89.4 573.1 91.3 571.9 92C570.7 92.5 570 92.7 569.5 92.7C569.3 92.7 569.3 92.5 569.3 92.5C569.3 92 569.8 91.5 571.2 90.6C578.9 86.3 586.3 82 594 77.6C604.1 71.8 611 67 614.4 63.4C609.8 61 607.7 58.6 607.7 56C607.7 52.9 609.1 50 612 47.4C614.9 45 617.3 44 619.2 44.8C620.6 45.3 621.6 47 621.6 49.8C621.6 52.4 621.1 55.3 619.9 58.4C622.3 59.8 623.3 61.3 623.3 62.7C623.3 63.5 623 64.7 622.6 66.1L622.6 66.1L622.6 66.1L622.6 66.1L622.6 66.1ZM510.2 34.5C510.2 34.3 510.4 34 510.4 34C510.6 33.8 510.6 33.8 510.6 34C510.8 34.2 510.8 34.5 510.6 34.7C509.4 41.9 507.2 45.5 504.1 45.5C501 45.5 499.5 42.9 499.5 37.6C499.5 31.1 501.2 24.2 505 17.2C506 15.5 506.4 14.6 506.7 14.6L506.7 14.6C506.7 14.8 506.5 15.8 506 17.5C503.6 24.9 502.4 30 502.4 33.1C502.4 36.9 503.4 39.1 505.5 39.1C507.1 39 508.6 37.3 510.2 34.5L510.2 34.5L510.2 34.5L510.2 34.5L510.2 34.5Z" id="Group" fill="#595959" stroke="none" clip-path="url(#clip_1)" />
  </g>
</svg>