<?xml version="1.0" encoding="utf-8"?>
<svg width="533.1001px" height="215.39998px" viewBox="0 0 533.1001 215.39998" version="1.1" xmlns:xlink="http://www.w3.org/1999/xlink" xmlns="http://www.w3.org/2000/svg">
  <defs>
    <path d="M533.1 0L533.1 0L533.1 215.4L0 215.4L0 0L533.1 0Z" id="path_1" />
    <clipPath id="clip_1">
      <use xlink:href="#path_1" clip-rule="evenodd" fill-rule="evenodd" />
    </clipPath>
  </defs>
  <g id="Surah_93_of_114_(modified)">
    <path d="M533.1 0L533.1 0L533.1 215.4L0 215.4L0 0L533.1 0Z" id="Surah_93_of_114_(modified)" fill="none" stroke="none" />
    <path d="M264 24.7C264 20.1 263.3 16.3 261.8 13.2C261.8 11.5 263 7.39999 265.9 1C266.1 0.300003 266.4 0 266.6 0C267.1 0 267.3 0.199997 267.8 1.2C268.5 2.89999 270.4 7.39999 273.3 14.9C276.2 22.8 277.9 27.6 278.6 29.3C278.8 30.7 279.1 31.9 279.1 32.4C279.1 34.6 276.9 33.4 272.9 28.6C272.4 28.1 272.2 28.4 272.2 29.6C272.2 29.8 273.2 42.8 275.1 68.2C277 93.4 278 108.5 278 113.6C278 121.5 276.6 129.2 273.7 136.6C269.6 146.9 263.6 153.9 255.9 157.2L255.9 157.028C236.296 165.344 216.296 169.6 196 169.6C190.3 169.7 184.8 168.5 179.3 166.5C177.4 172.3 175.7 175.1 174.7 175.1C174.5 175.1 174.2 174.6 174.2 173.9C174.2 172 174.9 169.1 176.1 165.3C170.3 161.7 167.5 156.2 167.5 148.5C163.4 152.6 158.9 156.2 153.8 159.3C147.643 163.074 142.078 165.269 137.3 165.3L137.3 165.3C137.278 165.3 137.257 165.3 137.235 165.3L137.2 165.3C129.357 165.274 124.29 162.173 121.9 155.9C120.9 153.7 120.7 151.1 120.7 147.7C120.7 145.5 120.9 143.1 121.4 140.3C121.581 138.815 121.788 137.618 122.036 136.696C117.445 138.142 112.668 139.676 107.7 141.3C107.3 141.3 107.1 142.3 107.1 144.5C107.1 150 106.6 152.9 105.9 152.9C105.2 152.9 104.2 150 102.5 144.7C102 143.5 101.5 143 101.1 143.3C97.5809 144.989 93.4179 146.926 88.7504 149.006C97.1572 151.452 102.751 153.355 105.3 154.9C109.6 157.1 111.8 160.2 111.8 164C111.8 166.9 110.8 170.2 108.9 174.1C106.7 178.9 103.9 182.7 100.3 186.1C93.1 192.3 82.5 198.8 68.1 205.1C53.2 212.1 41.5 215.4 33.1 215.4C21.6 215.4 12.9 211.6 7.2 203.9C2.39999 197.5 0 189.3 0 179C0 162.9 3.8 148.5 11.5 136.5C11.7357 136.167 11.9559 135.858 12.1627 135.571C10.8448 134.389 10.2 132.075 10.2 128.6C10.2 122.1 11.9 115.2 15.7 108.2C16.7 106.5 17.1 105.6 17.4 105.6C17.4 105.8 17.2 106.8 16.7 108.5C14.3 115.9 13.1 121 13.1 124.1C13.1 127.9 14.1 130.1 16.2 130.1C17.8 130.1 19.2 128.4 20.9 125.5C20.9 125.3 21.1 125 21.1 125C21.2093 124.891 21.2589 124.841 21.2813 124.851C21.3 124.86 21.3 124.909 21.3 125C21.5 125.2 21.5 125.5 21.3 125.7C20.1 132.9 17.9 136.5 14.8 136.5C14.6184 136.5 14.4423 136.491 14.2717 136.473C14.1562 136.8 14.0316 137.143 13.9 137.5C7.7 150.5 4.79999 161.5 4.79999 170.1C4.79999 177.8 6.69998 184.5 10.8 189.8C16.1 197 24.2 200.6 35.3 200.6C43.5 200.6 53.5 198.2 65.8 193.4C74.9 189.6 84.3 185 93.4 179.5C101.6 174.7 105.6 171.6 105.6 170.6C105.6 169.2 99.8 167 88.8 163.9C81.1 162 73.4 159.8 66 157.7C64.1 157 63.4 155.8 63.8 154.1C64 152.4 64.5 150 65.5 146.7L65.6 146.7C65.8 145.7 69.4 144.1 76.6 141.2C87.2 137.1 93.6 134.5 96.5 133.3C95.8 132.6 92.2 129.7 85.9 124.7C80.4 120.4 77 116.8 75.6 114.4C74.2 112 73.4 109.6 73.4 107C73.4 102.7 75.1 98.8 78.7 95.5C82.5 92.1 87.1 90.7 92.6 90.7C102.4 90.7 118.3 93.3 140.1 98.6C141.1 98.8 152.6 102 174.7 108C175.9 108.2 176.1 109.2 175.7 110.4L172.3 120.2C171.8 121.4 171.6 122.1 171.3 122.4C171.1 122.6 170.6 122.9 170.1 123.1C157.688 126.03 142.601 130.267 124.565 135.903C124.641 136.319 124.717 136.817 124.8 137.4L124.8 141.2C125.3 144.6 126.2 147 128.2 148.4C129.887 149.988 132.952 150.689 137.2 150.7L137.236 150.7C147.527 150.688 158.814 145.689 170.8 136.1C171.5 135.6 172 135.6 172.5 135.9C172.7 136.1 173 136.9 172.5 137.8C172 139.5 171.8 140.9 171.8 142.1C171.8 145.9 174.7 149.5 180.7 152.4C188.9 137 195.1 126.5 199.2 121C208.3 109.2 217 103.2 225.4 103.2C233.1 103.2 239.8 106.1 245.6 111.6C250.4 116.2 252.6 120.5 252.6 124.3C252.6 129.1 251.9 133.2 250.2 136.5C248.3 140.6 244.9 145.1 240.1 149.7C243.5 148.7 248.7 146.8 256.2 143.7L256.2 143.871C265.604 139.77 270.5 133.612 270.5 125.3C270.5 121.2 269.3 104.7 267.1 75.9C265 47 264 30 264 24.7ZM201.9 12.3C201.9 14.9 204 17.3 208.6 19.7C205.2 23.3 200.2 27.1 193.2 31.4C187.2 34.7 181.5 38.1 175.7 41.7C174.3 42.4 173.8 43.2 173.8 43.4C173.8 43.4 173.8 43.6 174 43.6C174.2 43.6 175.2 43.4 176.4 42.9C184.1 40.1 188.4 38.4 189.4 37.9C193 36.5 197 33.8 201.6 30.7C205.4 27.8 208.6 24.7 211.2 21.1C213.4 22.3 214.8 23.5 215.3 24.5C217.4 21.7 218.4 19.5 218.4 18.3C217.9 17.3 216.5 16.1 214.1 14.9C215.3 11.5 215.8 8.60002 215.8 6.00002C215.8 3.20001 215.1 1.50002 213.4 1.00002C211.5 0.300003 209.1 1.3 206.2 3.90001C203.3 6.3 201.9 9.2 201.9 12.3ZM211.7 9.09999C212 10.5 212 12 211.5 13.4C207.9 11.7 205.9 10.3 205.9 8.99998C205.9 8.59999 206.3 8.09999 207.3 7.59999C208.3 7.09999 209 6.89999 209.5 6.89999C210.7 6.89999 211.5 7.7 211.7 9.09999ZM288.7 33.6C288.7 28.8 288 25 286.5 21.8C286.5 20.1 287.7 16 290.6 9.79999C290.8 9.09999 291.1 8.59999 291.3 8.59999C291.8 8.59999 292 9.09999 292.5 9.79999C293.2 11.5 294.9 16 297.8 23.5C300.9 31.4 302.6 36.2 303.1 38.1C303.6 39.3 303.6 40.5 303.6 41C303.6 43.2 301.7 42 297.4 37.2C296.9 36.5 296.7 37 296.7 38.2C296.7 38.7 297.9 53.6 300.1 83.3C302.3 112.8 303.2 129.4 303.2 133.2C303.2 144.5 301.5 154.6 298.2 163.2C297.2 164.9 296.8 166.1 296.3 167C295.6 168.2 295.3 168.2 295.1 167.5C294.929 166.646 295.05 165.135 295.214 163.093C295.242 162.744 295.271 162.379 295.3 162C295.8 157.9 296 153.4 296 148.3C296 143.5 294.8 124.3 292.4 90.4999C289.9 56.6 288.7 37.7 288.7 33.6ZM338.2 20.9C338.2 23.5 340.3 25.9 344.9 28.3C341.5 31.9 336.5 35.7 329.5 40C323.5 43.3 317.8 46.7 312 50.3C310.6 51 310.1 51.8 310.1 52C310.1 52 310.1 52.2 310.3 52.2C310.5 52.2 311.5 52 312.7 51.5C320.4 48.7 324.7 47 325.7 46.5C329.3 45.1 333.3 42.4 337.9 39.3C341.7 36.4 344.9 33.3 347.5 29.7C349.7 30.9 351.1 32.1 351.6 33.1C353.7 30.3 354.7 28.1 354.7 26.9C354.2 25.9 352.8 24.7 350.4 23.5C351.6 20.1 352.1 17.2 352.1 14.6C352.1 11.8 351.4 10.1 349.7 9.60001C347.8 8.89999 345.4 9.89999 342.5 12.5C339.6 14.9 338.2 17.8 338.2 20.9ZM150 20.1C147.9 16.7 145.5 15.3 142.6 15.3C142.3 15.3 141.6 16.1 140.6 17.9C139.4 19.9 138.9 21.1 138.9 21.3C138.9 22 139.4 23 140.8 24.2C142.3 25.4 143.2 26.1 144.2 26.1C144.9 26.1 145.2 25.8 145.4 25.6C145.7 25.1 145.9 25.1 146.4 25.1C147.4 25.1 148.6 27.3 150.5 32.1C152.4 36.7 153.3 39.8 153.1 41.5C153.3 42.5 153.3 43.2 153.8 43.2C154.3 43.2 154.8 42.5 155.5 41.5C156.2 39.9 157.2 37 157.9 32.9C159.6 23.8 161.3 19.2 163.2 19.2C164.1 19.2 165.1 19.6 165.8 20.6C166.8 21.6 167.3 22.3 167.5 22.3C167.9 22.3 168.4 21.5 168.9 20.1C169.4 19.1 169.4 18.2 169.4 17.7C169.4 16.7 169 15.7 168 14.3C167 12.8 165.8 12.1 164.6 12.1C162.4 12.1 160.5 14.3 158.6 18.6C156.9 24.9 155.7 29.7 155.2 32.8C155.2 33.3 155 33.6 155 33.8L154.8 33.8C154.8 33.5 154.8 33.3 154.6 32.8C153.8 27.5 152.2 23.2 150 20.1ZM392.9 31.9C392.9 31.9 392.7 32.2 392.7 32.4C391 35.3 389.5 36.9 388 37C385.9 37 384.9 34.8 384.9 31C384.9 27.9 386.1 22.8 388.5 15.4C389 13.7 389.2 12.7 389.2 12.5C388.9 12.5 388.5 13.4 387.5 15.1C383.7 22.1 382 29 382 35.5C382 40.8 383.5 43.4 386.6 43.4C389.7 43.4 391.9 39.8 393.1 32.6C393.3 32.4 393.3 32.1 393.1 31.9C393.1 31.8093 393.1 31.7598 393.081 31.7513C393.059 31.7411 393.009 31.7907 392.9 31.9ZM348 17.8C348.3 19.2 348.3 20.7 347.8 22.1C344.2 20.4 342.3 18.9 342.2 17.7C342.2 17.3 342.6 16.8 343.6 16.3C344.6 15.8 345.3 15.6 345.8 15.6C347 15.6 347.8 16.4 348 17.8ZM246.7 42C246.7 41.8 246.9 41.5 246.9 41.5C247.009 41.3906 247.059 41.3411 247.081 41.3513C247.1 41.3597 247.1 41.4093 247.1 41.5C247.3 41.7 247.3 42 247.1 42.2C245.9 49.4 243.7 53 240.6 53C237.5 53 236 50.4 236 45.1C236 38.6 237.7 31.7 241.5 24.7C242.5 23 242.9 22.1 243.2 22.1C243.2 22.3 243 23.3 242.5 25C240.1 32.4 238.9 37.5 238.9 40.6C238.9 44.4 239.9 46.6 242 46.6C243.6 46.5 245.1 44.9 246.7 42ZM79.2 38.1C77.1 34.7 74.7 33.3 71.8 33.3C71.5 33.3 70.8 34.1 69.8 35.9C68.6 37.9 68.1 39.1 68.1 39.3C68.1 40 68.6 41 70 42.2C71.5 43.4 72.4 44.1 73.4 44.1C74.1 44.1 74.4 43.8 74.6 43.6C74.9 43.1 75.1 43.1 75.6 43.1C76.6 43.1 77.8 45.3 79.7 50.1C81.6 54.7 82.5 57.8 82.3 59.5C82.5 60.5 82.5 61.2 83 61.2C83.5 61.2 84 60.5 84.7 59.5C85.4 57.9 86.4 55 87.1 50.9C88.8 41.8 90.5 37.2 92.4 37.2C93.3 37.2 94.3 37.6 95 38.6C96 39.6 96.5 40.3 96.7 40.3C97.1 40.3 97.6 39.5 98.1 38.1C98.6 37.1 98.6 36.2 98.6 35.7C98.6 34.7 98.2 33.7 97.2 32.3C96.2 30.8 95 30.1 93.8 30.1C91.6 30.1 89.7 32.3 87.8 36.6C86.1 42.9 84.9 47.7 84.4 50.8C84.4 51.3 84.2 51.6 84.2 51.8L84 51.8C84 51.5 84 51.3 83.8 50.8C83 45.5 81.4 41.2 79.2 38.1ZM371.3 66C395.5 56.9 420.7 47.8 446.7 38.2C446.902 38.1422 447.088 38.0761 447.249 38.0185C447.647 37.8767 447.9 37.7866 447.9 38C448.1 38 448.1 38.5 447.9 39.2C446.9 41.4 446.2 42.6 445.7 43C445.5 43.2 433.2 47.8 409.5 56.7C385.3 65.6 371.6 71.1 368.9 72.8C369.4 70.5 370.1 68.4 371.3 66ZM223.5 54.5C223.5 56.4 223 58.6 222.1 60.5C220.9 63.1 219.5 64.6 217.8 64.6C214.9 64.6 213 62.7 211.8 58.8C210.4 63.6 208 66.2 204.4 66.2C203.2 66.2 202 65.5 201 64C199.8 62.6 199.3 60.4 199.3 58L199.3 51.8C199.3 51.3 198.8 51.1 198.3 50.8C197.6 50.6 197.3 50.1 197.3 49.4C197.3 48 197.8 46.8 198.7 45.6C199.7 44.4 200.4 43.9 200.9 43.9C201.6 43.9 202.1 45.1 202.1 47.7C202.1 49.1 201.9 50.3 201.9 51.3C201.7 52.3 201.7 53 201.7 53.7C201.7 55.1 201.9 56.6 202.4 57.8C203.1 59.2 204.1 60.2 205 60.2C206.4 60.2 207.6 59.5 208.8 58.3C210 57.1 210.7 55.7 210.7 54C210.7 53 210.2 51.6 209.7 49.2C209 47 208.7 45.6 208.7 45.1C208.7 44.6 208.9 43.9 209.4 42.7C209.9 41.7 210.4 41.3 210.6 41.3C211.1 41.3 211.6 42.7 212.3 45.6C213 48.7 213.5 50.9 213.5 52.3C213.5 56.4 214.9 58.5 218.1 58.5C219.5 58.5 220.5 57.8 220.7 56.3C218.1 51.5 216.6 47.9 216.6 45.3C216.6 43.9 216.8 42.7 217.8 41.5C218.3 40.8 218.5 40.3 218.8 40.3C219 40.3 219.3 40.8 219.3 41.7C219.5 42.9 219.8 44.1 220 45.1C220 45.1 220.7 46.8 221.9 50.1C223 52.1 223.5 53.5 223.5 54.5ZM501.9 67.2C499.5 73 498.3 77.5 498.3 80.9C498.3 85 499.3 87.1 501.4 87.1C502.6 87.1 504 85.4 505.7 82.5C505.9 82.3 505.9 82 506.2 81.8C506.2 81.8 506.4 81.8 506.4 82L506.4 82.7C505 89.9 502.8 93.5 499.9 93.5C496.8 93.5 495.3 90.9 495.3 85.6C495.3 83 495.8 79.6 497.2 75.3C498.6 71 499.4 68.8 499.4 68.6C499.4 68.1 498.4 67.2 496.3 66C492.5 71 487.2 75.8 480.5 79.9C475.9 82.5 471.4 84.9 466.6 86.9C457.7 90.5 452.4 92.4 451.2 93.1C450 93.6 449.3 93.8 448.8 93.8C448.6 93.8 448.6 93.6 448.6 93.6C448.6 93.1 449.1 92.6 450.5 91.7C458.2 87.4 465.6 83.1 473.3 78.7C483.4 72.9 490.3 68.1 493.7 64.5C489.1 62.1 487 59.7 487 57.1C487 54 488.4 51.1 491.3 48.5C494.2 46.1 496.6 45.1 498.5 45.9C499.9 46.4 500.9 48.1 500.9 50.9C500.9 53.5 500.4 56.4 499.2 59.5C501.6 60.9 502.6 62.4 502.6 63.8C502.6 64.5 502.3 65.7 501.9 67.2ZM67.7 79.9C91.9 70.8 117.1 61.7 143.1 52.1C143.302 52.0422 143.488 51.9761 143.649 51.9185C144.047 51.7767 144.3 51.6866 144.3 51.9C144.5 51.9 144.5 52.4 144.3 53.1C143.3 55.3 142.6 56.5 142.1 56.9C141.9 57.1 129.6 61.7 105.9 70.6C81.7 79.5 68 85 65.3 86.7C65.8 84.5 66.5 82.3 67.7 79.9ZM496.6 58.3C497.1 56.9 497.1 55.4 496.8 54C496.6 52.6 495.8 51.8 494.6 51.8C494.1 51.8 493.4 52 492.4 52.5C491.4 53 491 53.5 491 53.9C491.1 55.2 493 56.6 496.6 58.3ZM340.8 56.9L337 64.8C336 63.8 333.9 62.1 330.8 60.3C327.7 58.1001 326 56.9 325.5 56.9C325.2 56.9 324.7 57.4 324.5 57.9L319.9 67.5C319.7 68 319.7 68.3 319.9 68.5C323.8 70.9 327.6 73.5 331.2 76.4C331.7 76.7 332.2 76.4 332.4 75.7C333.9 73.5 335.1 70.9 336.5 68C340.6 70.6 344.2 73 347.3 75.4C347.7 75.6 348.2 75.6 348.7 74.9C351.8 69.6 353.5 66 353.5 64.3C353.5 63.8 351.6 62.4 348 60C344.2 57.4 342.3 56.2 341.8 56.2C341.3 56.2 341 56.4 340.8 56.9ZM156.3 66C159.2 66 161.6 67.4 163.7 70.8C165.9 73.9 167.5 78.2 168.3 83.5C168.5 84 168.5 84.2 168.5 84.5L168.7 84.5C168.7 84.3 168.9 84 168.9 83.5C169.4 80.4 170.6 75.6 172.3 69.3C174.2 65 176.1 62.8 178.3 62.8C179.5 62.8 180.7 63.5 181.7 65C182.7 66.4 183.1 67.4 183.1 68.4C183.1 68.9 183.1 69.8 182.6 70.8C182.1 72.2 181.6 73 181.2 73C181 73 180.5 72.3 179.5 71.3C178.8 70.3 177.8 69.9 176.9 69.9C175 69.9 173.3 74.5 171.6 83.6C170.9 87.7 169.9 90.6 169.2 92.2C168.5 93.2 168 93.9 167.5 93.9C167 93.9 167 93.2 166.8 92.2C167 90.5 166.1 87.4 164.2 82.8C162.3 78 161.1 75.8 160.1 75.8C159.6 75.8 159.4 75.8 159.1 76.3C158.9 76.5 158.6 76.8 157.9 76.8C156.9 76.8 156 76.1 154.5 74.9C153.1 73.7 152.6 72.7 152.6 72C152.6 71.8 153.1 70.6 154.3 68.6C155.3 66.7 156 66 156.3 66ZM419.5 73.9C417.4 70.5 415 69.1 412.1 69.1C411.9 69.1 411.1 69.8 410.1 71.7C408.9 73.7 408.4 74.9 408.4 75.1C408.4 75.8 408.9 76.8 410.3 78C411.8 79.2 412.7 79.9 413.7 79.9C414.4 79.9 414.7 79.6 414.9 79.4C415.2 78.9 415.4 78.9 415.9 78.9C416.9 78.9 418.1 81.1 420 85.9C421.9 90.5 422.8 93.6 422.6 95.3C422.8 96.3 422.8 97 423.3 97C423.8 97 424.3 96.3 425 95.3C425.7 93.7 426.7 90.8 427.4 86.7C429.1 77.6 430.8 73 432.7 73C433.6 73 434.6 73.4 435.3 74.4C436.3 75.4 436.8 76.1 437 76.1C437.4 76.1 437.9 75.3 438.4 73.9C438.9 72.9 438.9 72 438.9 71.5C438.9 70.5 438.5 69.5 437.5 68.1C436.5 66.6 435.3 65.9 434.1 65.9C431.9 65.9 430 68.1 428.1 72.4C426.4 78.7 425.2 83.5 424.7 86.6C424.7 87.1 424.5 87.4 424.5 87.6L424.3 87.6C424.3 87.3 424.3 87.1 424.1 86.6C423.3 81.3 421.7 77 419.5 73.9ZM37.5 98.6C36.8 99.8 36.5 100.5 36.1 100.5C35.6 100.5 35.6 99.5 35.9 98.1C36.1 96.9 36.4 95 36.4 93.1C36.4 86.1 32.6 79.4 24.6 72.5C24.1 72.3 24.1 71.5 24.6 71.1L26.8 67.3C27 66.8 27.3 66.8 27.8 67.3C35.5 72.8 39.3 80.5 39.3 90.1C39.1 93.1 38.4 96 37.5 98.6ZM211 85.9C210.8 86.4 210.8 86.7 211 86.9C214.8 89.3 218.7 91.9 222.4 94.8C222.89 95.0941 223.092 94.8114 223.571 94.1403L223.6 94.1C226.9 88.8 228.6 85.5 228.6 83.8C228.6 83.3 226.6 81.8 222.8 79.2C219.2 76.8 217.1 75.6 216.6 75.6C216.3 75.6 215.8 75.8 215.6 76.3L211 85.9ZM359.8 82.8C359.8 86.6 357.9 91.9 354 98.4C351.6 102.5 348 108 343.2 115.2C348 120.7 351.4 125.8 353 130.1C354 133.2 354.7 137.3 354.7 141.9C354.7 143.8 354.2 146.2 353.3 149.3C352.6 152.2 351.6 154.3 350.7 155.8C348.8 158.7 345.7 161.6 340.9 164.4C335.9 167.8 331.5 169.4 327.9 169.4C322.1 169.4 319.3 165.1 319.3 156.4C319.3 150.6 320.3 144.9 322.2 139.6C324.1 135 327.2 129 332.3 121.1C328 117 323.4 111.3 318.4 104.1C317.9 103.4 316.7 102.2 314.8 100.3C313.8 99.3 313.4 98.1 313.4 96.7C313.4 94.5 313.6 92.1 314.1 89.3C314.8 86.4 315.3 85.2 315.5 85.2C316.2 85.2 318.4 86.4 322.5 89C326.3 91.6 329.5 93.6 331.4 95.2C332.6 95.9 333.1 96.6 333.1 96.6L333.1 96.8C333.1 97 332.4 97.3 330.7 97.3C327.6 97.3 325.9 97.5 325.9 97.8C325.9 98 326.4 98.5 327.3 99.7C331.1 104.5 335 108.1 339.1 111C340.1 109.6 343.4 104.8 348.7 96.6C353.3 89.6 355.9 84.8 357.1 82C358.3 79.1 359 77.9 359.5 77.9C359.5 77.9146 359.506 77.9572 359.517 78.0299C359.581 78.4532 359.8 79.8982 359.8 82.8ZM377.3 111.1C378.3 112.3 379 113.9 379.5 116.1C380.7 120.2 383.1 126 386.4 133C389.3 139.3 390.7 142.6 390.7 143.1C390.7 145.1 387.8 148.2 382.3 152.5C377.449 156.106 371.136 160.227 363.363 164.808C364.098 160.371 365.371 155.056 367.2 148.8C367.5 147.3 367.7 146.1 367.7 145.4C367.7 144.9 367.7 144.7 367.5 144.7C367 144.7 366.5 145.7 365.3 148.1C362.954 154.435 361.227 160.599 360.2 166.65C356.992 168.498 353.559 170.416 349.9 172.4C340.5 177.5 328.8 183 314.6 189C294.2 197.6 283.1 202.4 281.2 203.4C275.9 205.8 273.3 207.3 273.3 207.5C273.3 207.7 273.3 207.7 273.8 207.7C274.8 207.7 277.2 207.4 281 206.7C284.6 206.2 293.7 204.1 308.1 200.7C321.8 197.4 329 195.7 329.5 195.7C332.1 195.7 340.5 191.6 354.9 183.2C356.345 182.39 357.753 181.585 359.124 180.785C359.36 188.053 361.34 194.316 364.9 199C369.2 205 375.4 208.1 383.6 208.1C393.2 208.1 404.2 203.1 417.2 193.5C425.9 187 433.8 179.5 441 170.9C444.1 167.3 446.7 162.7 448.4 157.2C449.9 152.8 450.6 149.5 450.6 146.6L451.1 146.1L451.1 132.9C450.1 133.4 449.6 133.4 449.4 133.4C447 128.4 444.1 124.3 441 120.7C437.4 117.1 434.3 115.2 431.2 115.2C427.1 115.2 423.3 117.3 419.7 121.4C415.9 126.2 414.2 131.5 414.2 137.5C414.2 145.4 420 149.5 431.5 149.5C436.8 149.5 441.1 148.8 444 147.8C444.5 149.5 445 151.2 445 152.6C445 154.8 441.4 159.1 434.4 165.9C426.7 173.1 418.8 179.1 410.6 184.1C400.2 190.4 391.6 193.5 384.4 193.5C376 193.5 370 190.8 366.2 185.8C364.739 183.609 363.723 181.121 363.151 178.382C375.444 170.885 384.423 163.82 390.2 157.3C392.2 155.1 393.6 152 394.8 147.9C395.7 144.3 396.2 141.4 396.2 139C396.2 133.9 394.7 128.4 392.1 121.7C390.4 117.9 388.5 113.8 386.8 109.7C389.7 110.4 391.6 110.9 392.3 110.9C392.8 110.9 393 110.6 393 110.4C393 109.9 392.3 109 390.6 107.3C386.6 103.2 383 99.3 379.6 95.5C379.1 95 378.8 94.8 378.6 94.8C378.1 94.8 377.8 95.3 377.6 96.5C377.1 97.7 376.9 99.9 376.4 103C375.9 106.3 375.9 108 375.9 108.5C376.1 108.9 376.6 109.7 377.3 111.1ZM125.8 109C137.3 111.8 145.7 114.2 151 116.4C137.3 119.5 122.4 123.8 106.8 129.4C105.1 127.2 101.5 123.6 95.5 118.8C91.4 115.5 87.6 112.4 83.5 109C81.4 107.3 80.4 106.1 80.4 105.4C80.4 104.5 83.8 104 91 104C99.6 104 111.4 105.6 125.8 109ZM477.2 117.9C476.5 117.9 475.5 118.3 474.3 119.3C470.4 122.6 466.6 125.5 462.7 127.5C461.5 128.3 457.4 130.2 451.2 133.3L451.2 146.5C459.6 142.6 466.1 138.6 469.9 134C469.9 145 474.7 150.8 484.8 150.8C493.2 150.8 500.1 146 505.4 136.4C508.6 142.2 512.2 145.3 516 145.3C521.8 145.3 526.1 142.7 529 137.4C531.7 133 533.1 128 533.1 122C533.1 118.1 531.9 114.8 530 111.9C529.3 110.9 528.8 110.7 528.3 110.7C527.8 110.7 527.3 111.5 527.1 112.9C525.7 117.4 524.7 120.8 524.5 122.7C526.6 126.3 527.6 128.3 527.6 128.5C526.6 130.1 524.5 131.1 521.1 131.1C518.5 131.1 516.1 130.1 514.4 128.7C512.5 127.3 511.5 125.6 511.5 123.9C511.5 124.4 512.2 122.5 513.2 118.4C513.7 116.3 513.5 115.3 512.5 115.3C511.8 115.3 511.1 115.7 510.1 116.7C507.7 120.6 505.1 124.4 502.7 128.5C498.8 133.6 493.8 136.2 487.8 136.2C480.3 136.2 476.5 133.3 476.5 128C476.5 126.8 476.7 125.3 477.2 123.4C477.7 121.5 477.9 120 477.9 119.3C477.9 118.4 477.7 117.9 477.2 117.9ZM247 132.7L247 133.2C244.1 137.7 237.9 142.5 228.2 147.4C217.1 153.1 207.1 156 197.7 156C192.4 156 188.3 155.3 185.2 154.1C198.1 129.1 210.6 116.9 222.6 116.9C228.1 116.9 233.8 119 239.6 123.6C244.6 127.4 247 130.5 247 132.7ZM350.4 141.8C347.8 136.5 343.2 131 337 125.7C334.8 127.9 332.2 131.9 328.8 137.7C325 144.2 323.3 148.3 323.3 150.4C323.3 153.3 325.2 154.7 329.5 154.7C331.4 154.7 333.8 154 336.9 152.8C341.2 150.9 345.3 148.2 348.7 144.9C350.2 143.5 350.7 142.5 350.4 141.8ZM437.5 135.1C433.9 130.5 430.8 128.4 427.9 128.4C423.6 128.4 421.7 129.4 421.7 131.8C421.7 134.7 424.6 136.1 430.3 136.1C432.33 136.1 434.53 135.674 436.9 135.216C437.099 135.177 437.299 135.139 437.5 135.1ZM43.4 161.7C43.4 161.7 43.2 162 43.2 162.2C41.5 165.1 40.1 166.8 38.5 166.8C36.4 166.8 35.4 164.6 35.4 160.8C35.4 157.7 36.6 152.6 39 145.2C39.5 143.5 39.7 142.5 39.7 142.3C39.4 142.3 39 143.2 38 144.9C34.2 151.9 32.5 158.8 32.5 165.3C32.5 170.6 34 173.2 37.1 173.2C40.2 173.2 42.4 169.6 43.6 162.4C43.8 162.2 43.8 161.9 43.6 161.7C43.6 161.609 43.6 161.56 43.5813 161.551C43.5589 161.541 43.5093 161.591 43.4 161.7ZM463.5 198.7C460.9 199.4 459.4 199.9 458.9 199.9L458.9 199.7C458.9 199.7 459.9 199 461.8 197.8C463.7 196.6 466.6 194.7 470.7 191.6C472.6 189.7 475.5 186.6 479.1 182.2C481.5 179.3 484.1 176.7 487 174.8C490.6 172.2 494 171 497.6 171C498.3 171 499.5 171.2 501 171.7C502.2 172.2 503.4 172.4 504.4 172.4C506.3 172.4 507.8 171.7 509 170.2C509.7 168.8 510.7 167.6 511.6 166.1C512.1 165.1 512.8 164.7 513.3 164.7C513.5 164.7 513.5 164.9 513.5 165.4C513.5 165.9 513.3 167.1 512.8 168.5C512.3 169.2 514.2 169.5 517.8 169.5C518.3 169.5 518.5 169.5 518.5 169.3C518.5 169.3 518.3 168.3 517.8 166.7C517.6 166.2 517.8 165.5 518.5 164.5L518.58 164.364C519.522 162.763 519.908 162.105 520.2 162.3C521.2 163 521.6 164.5 521.6 166.1C521.6 167.8 521.1 169.5 520.4 171.4C519.7 173.6 519 174.8 518.5 175.2C516.8 176.2 514.2 175.9 510.6 174.2C507.7 177.1 504.8 178.8 502 178.8C501.3 178.8 500.1 178.6 498.9 178.1C497.7 177.6 496.7 177.4 496 177.4C491.2 177.4 486.2 179.6 481.1 184.4L470.3 195.2C468 196.8 465.9 198 463.5 198.7ZM161.8 204C157 208.3 150.5 210.7 142.8 210.7C140.6 210.7 138.5 210 137 208.8C135.6 207.6 134.8 205.9 134.8 204C134.8 200.6 136 197.3 138.9 193.9C141.8 190.8 144.7 187.9 147.3 184.8C148 184.3 147.8 183.8 146.8 183.4C144.9 182.7 142.5 182.4 140.1 182.4C138.9 182.4 137.5 182.6 135.8 183.6C135.737 183.6 135.663 183.62 135.586 183.641C135.42 183.687 135.237 183.737 135.1 183.6C135.1 183.6 135.1 183.4 135.3 182.9C136.3 180.5 137.2 178.8 138.2 178.1C139.4 177.1 141.3 176.7 144 176.7C149.8 176.7 152.4 177.9 152.4 180.8C152.4 183 150.7 185.8 147.1 189.9L139.2 197.8C138.2 199.2 137.8 200.7 137.8 201.6C137.8 204 140.4 205.2 145.5 205.2C150.5 205.2 155.6 204.2 161.3 202.6C162.7 202.1 163.5 202.1 163.5 202.4C163.5 202.363 163.43 202.437 163.279 202.598C163.027 202.866 162.551 203.374 161.8 204ZM207.9 199.2C207.9 199 208.1 198.7 208.1 198.7C208.209 198.591 208.259 198.541 208.281 198.551C208.3 198.56 208.3 198.609 208.3 198.7C208.5 198.9 208.5 199.2 208.3 199.4C207.1 206.6 204.9 210.2 201.8 210.2C198.7 210.2 197.2 207.6 197.2 202.3C197.2 195.8 198.9 188.9 202.7 181.9C203.7 180.2 204.1 179.3 204.4 179.3C204.4 179.5 204.2 180.5 203.7 182.2C201.3 189.6 200.1 194.7 200.1 197.8C200.1 201.6 201.1 203.8 203.2 203.8C204.7 203.7 206.2 202.1 207.9 199.2ZM248.9 188.4C246.8 185 244.4 183.6 241.5 183.6C241.2 183.6 240.5 184.3 239.5 186.2C238.3 188.2 237.8 189.4 237.8 189.6C237.8 190.3 238.3 191.3 239.7 192.5C241.2 193.7 242.1 194.4 243.1 194.4C243.8 194.4 244.1 194.1 244.3 193.9C244.6 193.4 244.8 193.4 245.3 193.4C246.3 193.4 247.5 195.6 249.4 200.4C251.3 205 252.2 208.1 252 209.8C252.2 210.8 252.2 211.5 252.7 211.5C253.2 211.5 253.7 210.8 254.4 209.8C255.1 208.2 256.1 205.3 256.8 201.2C258.5 192.1 260.2 187.5 262.1 187.5C263 187.5 264 187.9 264.7 188.9C265.7 189.9 266.2 190.6 266.4 190.6C266.8 190.6 267.3 189.8 267.8 188.4C268.3 187.4 268.3 186.5 268.3 186C268.3 185 267.9 184 266.9 182.6C265.9 181.1 264.7 180.4 263.5 180.4C261.3 180.4 259.4 182.6 257.5 186.9C255.8 193.2 254.6 198 254.1 201.1C254.1 201.6 253.9 201.9 253.9 202.1L253.7 202.1C253.7 201.8 253.7 201.6 253.5 201.1C252.7 195.8 251.1 191.5 248.9 188.4Z" id="Group" fill="#595959" fill-rule="evenodd" stroke="none" clip-path="url(#clip_1)" />
  </g>
</svg>