<?xml version="1.0" encoding="utf-8"?>
<svg width="518.40015px" height="201.72691px" viewBox="0 0 518.40015 201.72691" version="1.1" xmlns:xlink="http://www.w3.org/1999/xlink" xmlns="http://www.w3.org/2000/svg">
  <defs>
    <path d="M518.4 0L518.4 0L518.4 201.727L0 201.727L0 0L518.4 0Z" id="path_1" />
    <clipPath id="clip_1">
      <use xlink:href="#path_1" clip-rule="evenodd" fill-rule="evenodd" />
    </clipPath>
  </defs>
  <g id="Surah_80_of_114_(modified)">
    <path d="M518.4 0L518.4 0L518.4 201.727L0 201.727L0 0L518.4 0Z" id="Surah_80_of_114_(modified)" fill="none" stroke="none" />
    <path d="M280.9 0.32692C238.6 16.2269 197.4 31.5269 156.8 46.9269C155.6 49.3269 154.8 51.5269 154.4 53.7269C199.3 35.7269 241.3 19.6269 279.9 5.12692C280.4 4.72691 281.1 3.52692 282.1 1.32692C282.3 0.626923 282.3 0.126923 282.1 0.126923C282.1 -0.0864214 281.847 0.0036693 281.449 0.145444L281.449 0.14545L281.449 0.14547L281.449 0.145485C281.288 0.203064 281.102 0.269162 280.9 0.32692ZM323.6 13.6269C323.6 16.2269 325.7 18.6269 330.3 21.0269C326.9 24.6269 321.9 28.5269 314.9 32.7269C308.9 36.0269 303.2 39.4269 297.4 43.0269C296 43.7269 295.5 44.5269 295.5 44.7269C295.5 44.7269 295.5 44.9269 295.7 44.9269C295.9 44.9269 296.9 44.7269 298.1 44.2269C305.8 41.4269 310.1 39.7269 311.1 39.2269C314.7 37.8269 318.7 35.1269 323.3 32.0269C327.1 29.1269 330.3 26.0269 332.9 22.4269C335.1 23.6269 336.5 24.8269 337 25.8269C339.1 23.0269 340.1 20.8269 340.1 19.6269C339.6 18.6269 338.2 17.4269 335.8 16.2269C337 12.8269 337.5 9.92694 337.5 7.32693C337.5 4.52693 336.8 2.82693 335.1 2.32693C333.2 1.62692 330.8 2.62692 327.9 5.22693C325 7.62692 323.6 10.5269 323.6 13.6269ZM141.4 9.72691C141.4 12.3269 140.2 15.2269 138.3 18.3269C136.1 21.4269 133.5 24.3269 130.1 26.7269C128.7 27.7269 127.9 28.1269 127.7 28.1269L127.7 27.9269C127.7 27.7269 128.2 27.2269 129.1 26.0269C134.6 20.0269 137.5 16.2269 137.5 14.0269C137.5 12.3269 136.5 11.4269 134.9 11.4269C133.9 11.4269 133 11.6269 132.3 12.1269C131.6 12.3269 131.3 12.6269 131.1 12.6269C131.1 12.6269 130.9 12.6269 130.9 12.4269C130.9 12.4269 130.9 11.9269 131.1 11.0269C132.1 6.92691 134 5.02692 137.3 5.02692C140 4.92691 141.4 6.62691 141.4 9.72691ZM378.3 24.4269C378.3 24.4269 378.1 24.7269 378.1 24.9269C376.4 27.7269 374.9 29.4269 373.4 29.5269C371.3 29.5269 370.3 27.3269 370.3 23.5269C370.3 20.4269 371.5 15.3269 373.9 7.92691C374.4 6.22691 374.6 5.22691 374.6 5.02692C374.3 5.02692 373.9 5.92693 372.9 7.62692C369.1 14.6269 367.4 21.5269 367.4 28.0269C367.4 33.3269 368.9 35.9269 372 35.9269C375.1 35.9269 377.3 32.3269 378.5 25.1269C378.7 24.9269 378.7 24.6269 378.5 24.4269C378.5 24.3362 378.5 24.2867 378.481 24.2782C378.459 24.268 378.409 24.3176 378.3 24.4269ZM333.4 10.5269C333.7 11.9269 333.7 13.4269 333.2 14.8269C329.6 13.1269 327.6 11.7269 327.6 10.4269C327.6 10.0269 328 9.52692 329 9.02692C330 8.52692 330.7 8.32692 331.2 8.32692C332.4 8.32692 333.2 9.12692 333.4 10.5269ZM26 77.7269C33.2 74.3269 58.2 64.5269 101.1 48.2269C134.5 36.0269 168.1 23.2269 202.4 10.5269C202.785 10.4499 203.052 10.358 203.245 10.2913C203.554 10.1848 203.677 10.1424 203.8 10.3269C203.8 10.3269 203.8 10.8269 203.6 11.5269C202.6 13.4269 201.9 14.6269 201.2 15.3269C183.9 22.0269 151 34.5269 102.3 53.0269C55.3 71.0269 28.9 81.6269 23.6 84.7269C24.1 82.5269 24.8 80.1269 26 77.7269ZM225.6 46.0269C249.8 36.9269 275 27.8269 301 18.2269C301.202 18.1692 301.388 18.1031 301.549 18.0455C301.947 17.9037 302.2 17.8136 302.2 18.0269C302.4 18.0269 302.4 18.5269 302.2 19.2269C301.2 21.4269 300.5 22.6269 300 23.0269C299.8 23.2269 287.5 27.8269 263.8 36.7269C239.6 45.6269 225.9 51.1269 223.2 52.8269C223.7 50.6269 224.4 48.4269 225.6 46.0269ZM65.3 26.3269C63.2 22.9269 60.8 21.5269 57.9 21.5269C57.6 21.5269 56.9 22.2269 55.9 24.1269C54.7 26.1269 54.2 27.3269 54.2 27.5269C54.2 28.2269 54.7 29.2269 56.1 30.4269C57.6 31.6269 58.5 32.3269 59.5 32.3269C60.2 32.3269 60.5 32.0269 60.7 31.8269C61 31.3269 61.2 31.3269 61.7 31.3269C62.7 31.3269 63.9 33.5269 65.8 38.3269C67.7 42.9269 68.6 46.0269 68.4 47.7269C68.6 48.7269 68.6 49.4269 69.1 49.4269C69.6 49.4269 70.1 48.7269 70.8 47.7269C71.5 46.1269 72.5 43.2269 73.2 39.1269C74.9 30.0269 76.6 25.4269 78.5 25.4269C79.4 25.4269 80.4 25.8269 81.1 26.8269C82.1 27.8269 82.6 28.5269 82.8 28.5269C83.2 28.5269 83.7 27.7269 84.2 26.3269C84.7 25.3269 84.7 24.4269 84.7 23.9269C84.7 22.9269 84.3 21.9269 83.3 20.5269C82.3 19.0269 81.1 18.3269 79.9 18.3269C77.7 18.3269 75.8 20.5269 73.9 24.8269C72.2 31.1269 71 35.9269 70.5 39.0269C70.5 39.5269 70.3 39.8269 70.3 40.0269L70.1 40.0269C70.1 39.7269 70.1 39.5269 69.9 39.0269C69.1 33.7269 67.5 29.4269 65.3 26.3269ZM356.7 58.7269C380.9 49.6269 406.1 40.5269 432.1 30.9269C432.302 30.8692 432.488 30.8031 432.649 30.7455C433.047 30.6037 433.3 30.5136 433.3 30.7269C433.5 30.7269 433.5 31.2269 433.3 31.9269C432.3 34.1269 431.6 35.3269 431.1 35.7269C430.9 35.9269 418.6 40.5269 394.9 49.4269C370.7 58.3269 357 63.8269 354.3 65.5269C354.8 63.3269 355.5 61.1269 356.7 58.7269ZM487.3 59.9269C484.9 65.7269 483.7 70.2269 483.7 73.6269C483.7 77.7269 484.7 79.827 486.8 79.827C488 79.827 489.4 78.1269 491.1 75.2269C491.3 75.0269 491.3 74.7269 491.6 74.5269C491.6 74.5269 491.8 74.5269 491.8 74.7269L491.8 75.427C490.4 82.627 488.2 86.2269 485.3 86.2269C482.2 86.2269 480.7 83.6269 480.7 78.327C480.7 75.7269 481.2 72.327 482.6 68.027C484 63.727 484.8 61.527 484.8 61.327C484.8 60.827 483.8 59.927 481.7 58.7269C477.9 63.7269 472.6 68.5269 465.9 72.6269C461.3 75.2269 456.8 77.6269 452 79.6269C443.1 83.2269 437.8 85.1269 436.6 85.827C435.4 86.327 434.7 86.527 434.2 86.527C434 86.527 434 86.327 434 86.327C434 85.827 434.5 85.327 435.9 84.427C443.6 80.127 451 75.827 458.7 71.427C468.8 65.627 475.7 60.827 479.1 57.2269C474.5 54.827 472.4 52.427 472.4 49.827C472.4 46.7269 473.8 43.827 476.7 41.2269C479.6 38.827 482 37.827 483.9 38.6269C485.3 39.1269 486.3 40.8269 486.3 43.6269C486.3 46.2269 485.8 49.1269 484.6 52.2269C487 53.6269 488 55.1269 488 56.5269C488 57.3269 487.7 58.5269 487.3 59.9269ZM482 51.0269C482.5 49.6269 482.5 48.1269 482.2 46.7269C482 45.3269 481.2 44.5269 480 44.5269C479.5 44.5269 478.8 44.7269 477.8 45.2269C476.8 45.7269 476.4 46.2269 476.4 46.6269C476.4 47.9269 478.4 49.3269 482 51.0269ZM282.3 52.2269C282.3 54.8269 281.1 57.7269 279.2 60.8269C277 63.9269 274.4 66.8269 271 69.2269C269.6 70.2269 268.8 70.6269 268.6 70.6269L268.6 70.4269C268.6 70.2269 269.1 69.7269 270 68.5269C275.5 62.5269 278.4 58.7269 278.4 56.5269C278.4 54.8269 277.4 53.9269 275.8 53.9269C274.8 53.9269 273.9 54.1269 273.2 54.6269C272.5 54.8269 272.2 55.1269 272 55.1269C272 55.1269 271.8 55.1269 271.8 54.9269C271.8 54.9269 271.8 54.4269 272 53.5269C273 49.4269 274.9 47.5269 278.2 47.5269C280.8 47.4269 282.3 49.1269 282.3 52.2269ZM326.4 49.6269L322.6 57.5269C321.6 56.6269 319.5 54.9269 316.4 53.0269C313.3 50.827 311.6 49.6269 311.1 49.6269C310.8 49.6269 310.3 50.1269 310.1 50.6269L305.5 60.2269C305.3 60.7269 305.3 61.0269 305.5 61.2269C309.4 63.6269 313.2 66.2269 316.8 69.1269C317.3 69.4269 317.8 69.1269 318 68.4269C319.5 66.2269 320.7 63.6269 322.1 60.7269C326.2 63.3269 329.8 65.7269 332.9 68.1269C333.3 68.3269 333.8 68.3269 334.3 67.6269C337.4 62.3269 339.1 58.7269 339.1 57.0269C339.1 56.5269 337.2 55.1269 333.6 52.7269C329.8 50.1269 327.9 48.9269 327.4 48.9269C326.9 48.9269 326.6 49.1269 326.4 49.6269ZM404.9 66.6269C402.8 63.2269 400.4 61.8269 397.5 61.8269C397.3 61.8269 396.5 62.6269 395.5 64.427C394.3 66.427 393.8 67.6269 393.8 67.827C393.8 68.5269 394.3 69.5269 395.7 70.7269C397.2 71.9269 398.1 72.6269 399.1 72.6269C399.8 72.6269 400.1 72.327 400.3 72.1269C400.6 71.6269 400.8 71.6269 401.3 71.6269C402.3 71.6269 403.5 73.827 405.4 78.6269C407.3 83.2269 408.2 86.3269 408 88.0269C408.2 89.0269 408.2 89.7269 408.7 89.7269C409.2 89.7269 409.7 89.0269 410.4 88.0269C411.1 86.4269 412.1 83.5269 412.8 79.4269C414.5 70.3269 416.2 65.7269 418.1 65.7269C419 65.7269 420 66.1269 420.7 67.1269C421.7 68.1269 422.2 68.8269 422.4 68.8269C422.8 68.8269 423.3 68.0269 423.8 66.6269C424.3 65.6269 424.3 64.7269 424.3 64.2269C424.3 63.2269 423.9 62.2269 422.9 60.8269C421.9 59.3269 420.7 58.6269 419.5 58.6269C417.3 58.6269 415.4 60.8269 413.5 65.1269C411.8 71.4269 410.6 76.2269 410.1 79.3269C410.1 79.8269 409.9 80.1269 409.9 80.3269L409.7 80.3269C409.7 80.0269 409.7 79.8269 409.5 79.3269C408.7 74.0269 407.1 69.7269 404.9 66.6269ZM201.2 96.1269C202.6 102.627 203.1 106.427 203.1 108.127C203.1 114.627 199.5 118.027 192.4 117.827L192.4 132.427C195.5 132.427 198.4 130.827 201 127.427C203.9 124.027 205.8 119.227 206.5 113.227C209.095 126.9 218.463 137.186 234.207 143.688L234.3 144.127C236.7 145.027 240.1 145.527 244.9 145.527C254.2 145.527 263.6 142.927 272.7 137.627C278.2 134.727 284.9 129.727 293.3 122.727C295.5 118.727 297.1 114.827 298.1 111.727C298.8 110.327 298.6 109.627 297.9 109.727C297.4 109.727 296.7 110.127 295.5 111.127C290.3 115.627 284.5 119.727 278.5 123.327C270.8 127.627 264.6 129.827 259.8 129.827C250.6 129.827 243 125.827 237.2 117.627C232.4 110.927 230 104.027 229.8 97.0269C233.2 94.3269 238 91.9269 244.7 90.0269C251.6 88.1269 258.1 87.1269 264.6 87.1269C268.9 87.1269 273.9 88.0269 279.7 90.2269C281.2 90.7269 282.4 90.9269 283.1 90.9269C283.6 90.9269 283.8 90.6269 283.8 90.4269C283.8 89.9269 283 89.2269 281.6 88.0269C273.2 81.0269 263.6 77.4269 252.8 77.4269C244.6 77.4269 237.9 79.8269 232.4 84.6269C225.9 90.1269 222.8 98.3269 222.8 108.627C222.8 114.264 224.853 120.114 228.78 126.116C218.396 119.45 212.087 109.003 209.6 95.0269C207 79.6269 203.9 68.6269 200.5 62.1269C200 61.2269 199.7 60.7269 199.5 60.7269C199.3 60.7269 198.8 61.5269 198.1 62.9269C196.6 66.3269 195.9 70.6269 195.9 76.1269C195.9 76.4269 196.2 77.3269 196.9 79.5269C198.3 84.1269 199.8 89.6269 201.2 96.1269ZM72 101.927C72.5 101.927 74 101.427 76.6 100.727C79 100.027 81.2 98.8269 83.4 97.2269C87 93.6269 90.6 90.0269 94.2 86.4269C99.3 81.6269 104.3 79.4269 109.1 79.4269C109.8 79.4269 110.8 79.6269 112 80.1269C113.2 80.6269 114.4 80.8269 115.1 80.8269C117.9 80.8269 120.8 79.1269 123.7 76.2269C127.3 77.9269 129.9 78.2269 131.6 77.2269C132.1 76.8269 132.8 75.6269 133.5 73.4269C134.2 71.5269 134.7 69.7269 134.7 68.1269C134.7 66.5269 134.3 65.0269 133.3 64.3269C133.008 64.1324 132.622 64.7896 131.68 66.391L131.6 66.5269C130.9 67.5269 130.7 68.2269 130.9 68.7269C131.4 70.327 131.6 71.327 131.6 71.327C131.6 71.527 131.4 71.527 130.9 71.527C127.3 71.527 125.4 71.227 125.9 70.527C126.4 69.127 126.6 67.927 126.6 67.427C126.6 66.927 126.6 66.7269 126.4 66.7269C125.9 66.7269 125.2 67.1269 124.7 68.1269C123.8 69.6269 122.8 70.827 122.1 72.2269C120.9 73.7269 119.4 74.427 117.5 74.427C116.5 74.427 115.3 74.2269 114.1 73.7269C112.6 73.2269 111.4 73.0269 110.7 73.0269C107.1 73.0269 103.7 74.2269 100.1 76.8269C97.2 78.7269 94.6 81.3269 92.2 84.2269C88.6 88.6269 85.7 91.7269 83.8 93.6269C79.7 96.7269 76.8 98.6269 74.9 99.8269C73 101.027 72 101.727 72 101.727L72 101.927ZM171.4 74.1269C171.4 76.7269 170.2 79.6269 168.3 82.7269C166.1 85.8269 163.5 88.7269 160.1 91.1269C158.7 92.1269 157.9 92.5269 157.7 92.5269L157.7 92.3269C157.7 92.1269 158.2 91.6269 159.1 90.4269C164.6 84.4269 167.5 80.6269 167.5 78.4269C167.5 76.7269 166.5 75.8269 164.9 75.8269C163.9 75.8269 163 76.0269 162.3 76.5269C161.6 76.7269 161.3 77.0269 161.1 77.0269C161.1 77.0269 160.9 77.0269 160.9 76.8269C160.9 76.8269 160.9 76.3269 161.1 75.4269C162.1 71.3269 164 69.4269 167.3 69.4269C170 69.3269 171.4 70.9269 171.4 74.1269ZM345.2 75.5269C345.2 79.3269 343.3 84.6269 339.4 91.1269C337 95.2269 333.4 100.727 328.6 107.927C333.4 113.427 336.8 118.527 338.4 122.827C339.4 125.927 340.1 130.027 340.1 134.627C340.1 136.527 339.6 138.927 338.7 142.027C338 144.927 337 147.027 336.1 148.527C334.2 151.427 331.1 154.327 326.3 157.127C321.3 160.527 316.9 162.127 313.3 162.127C307.5 162.127 304.7 157.827 304.7 149.127C304.7 143.327 305.7 137.627 307.6 132.327C309.5 127.727 312.6 121.727 317.7 113.827C313.4 109.727 308.8 104.027 303.8 96.8269C303.3 96.1269 302.1 94.9269 300.2 93.0269C299.2 92.0269 298.8 90.8269 298.8 89.4269C298.8 87.2269 299 84.8269 299.5 82.0269C300.2 79.1269 300.7 77.9269 300.9 77.9269C301.6 77.9269 303.8 79.1269 307.9 81.7269C311.7 84.3269 314.9 86.3269 316.8 87.9269C318 88.6269 318.5 89.3269 318.5 89.3269L318.5 89.5269C318.5 89.7269 317.8 90.0269 316.1 90.0269C313 90.0269 311.3 90.2269 311.3 90.5269C311.3 90.7269 311.8 91.2269 312.7 92.4269C316.5 97.2269 320.4 100.827 324.5 103.727C325.5 102.327 328.8 97.5269 334.1 89.3269C338.7 82.3269 341.3 77.5269 342.5 74.7269C343.7 71.8269 344.4 70.6269 344.9 70.6269C344.9 70.6415 344.906 70.6841 344.917 70.7568C344.981 71.1802 345.2 72.6251 345.2 75.5269ZM51.6 103.627C51.6 103.627 51.4 103.927 51.4 104.127C49.7 106.927 48.3 108.627 46.7 108.727C44.6 108.727 43.6 106.527 43.6 102.727C43.6 99.6269 44.8 94.5269 47.2 87.1269C47.7 85.4269 47.9 84.4269 47.9 84.2269C47.6 84.2269 47.2 85.1269 46.2 86.8269C42.4 93.8269 40.7 100.727 40.7 107.227C40.7 112.527 42.2 115.127 45.3 115.127C48.4 115.127 50.6 111.527 51.8 104.327C52 104.127 52 103.827 51.8 103.627C51.8 103.536 51.8 103.487 51.7813 103.478C51.7589 103.468 51.7093 103.518 51.6 103.627ZM362.6 103.927C363.6 105.127 364.3 106.727 364.8 108.927C366.1 112.927 368.4 118.727 371.7 125.827C374.6 132.127 376 135.427 376 135.927C376 137.927 373.1 141.027 367.6 145.327C362.76 148.924 356.467 153.034 348.719 157.601C349.447 153.112 350.734 147.709 352.6 141.327C352.9 139.827 353.1 138.627 353.1 137.927C353.1 137.427 353.1 137.227 352.9 137.227C352.4 137.227 351.9 138.227 350.7 140.627C348.319 147.056 346.576 153.308 345.555 159.446C342.331 161.303 338.88 163.231 335.2 165.227C325.8 170.327 314.1 175.827 299.9 181.827C279.5 190.427 268.4 195.227 266.5 196.227C261.2 198.627 258.6 200.127 258.6 200.327C258.6 200.527 258.6 200.527 259.1 200.527C260.1 200.527 262.5 200.227 266.3 199.527C269.9 199.027 279 196.927 293.4 193.527C307.1 190.227 314.3 188.527 314.8 188.527C317.4 188.527 325.8 184.427 340.2 176.027C341.683 175.196 343.127 174.37 344.532 173.549C344.803 180.716 346.779 186.894 350.3 191.527C354.6 197.527 360.8 200.627 369 200.627C378.6 200.627 389.6 195.627 402.6 186.027C411.3 179.527 419.2 172.027 426.4 163.427C429.5 159.827 432.1 155.227 433.8 149.727C435.3 145.327 436 142.027 436 139.127L436.5 138.627L436.5 125.427C435.5 125.927 435 125.927 434.8 125.927C432.4 120.927 429.5 116.827 426.4 113.227C422.8 109.627 419.7 107.727 416.6 107.727C412.5 107.727 408.7 109.827 405.1 113.927C401.3 118.727 399.6 124.027 399.6 130.027C399.6 137.927 405.4 142.027 416.9 142.027C422.2 142.027 426.5 141.327 429.4 140.327C429.9 142.027 430.4 143.727 430.4 145.127C430.4 147.327 426.8 151.627 419.8 158.427C412.1 165.627 404.2 171.627 396 176.627C385.6 182.927 377 186.027 369.8 186.027C361.4 186.027 355.4 183.327 351.6 178.327C350.177 176.192 349.176 173.776 348.596 171.121C360.815 163.656 369.745 156.621 375.5 150.127C377.5 147.927 378.9 144.827 380.1 140.727C381 137.127 381.5 134.227 381.5 131.827C381.5 126.727 380 121.227 377.4 114.527C375.7 110.727 373.8 106.627 372.1 102.527C375 103.227 376.9 103.727 377.6 103.727C378.1 103.727 378.3 103.427 378.3 103.227C378.3 102.727 377.6 101.827 375.9 100.127C371.9 96.0269 368.3 92.1269 364.9 88.3269C364.4 87.8269 364.1 87.6269 363.9 87.6269C363.4 87.6269 363.1 88.1269 362.9 89.3269C362.4 90.5269 362.2 92.7269 361.7 95.8269C361.2 99.1269 361.2 100.827 361.2 101.327C361.4 101.727 361.9 102.527 362.6 103.927ZM11 119.227C11 119.227 10.8 119.527 10.8 119.727C9.2 122.627 7.7 124.227 6.09998 124.327C3.99997 124.327 2.99997 122.127 2.99997 118.327C2.99997 115.227 4.19998 110.127 6.59998 102.727C7.09998 101.027 7.29997 100.027 7.29997 99.8269C6.99997 99.8269 6.59998 100.727 5.59998 102.427C1.79997 109.427 0.0999756 116.327 0.0999756 122.827C0.0999756 127.948 1.50036 130.548 4.39133 130.718C4.36023 130.786 4.32976 130.855 4.3 130.927C2.89999 135.027 1.7 139.827 0.699997 145.327C0.199997 148.727 0 152.327 0 155.927C0 167.727 2.39999 177.327 7.7 184.727C14.5 194.827 25.3 199.627 39.9 199.627C53.6 199.627 68.4 195.327 84.2 186.327C96.7 179.327 106 172.127 112.5 164.727C117.5 158.927 119.9 149.827 119.9 137.127C121.6 137.627 123.5 137.827 125.7 137.827C130.2 137.827 134.8 136.127 139.6 132.327C143 129.927 145.4 127.327 146.8 125.127C147.3 124.127 147.8 124.127 148 125.127C149.2 128.227 151.1 130.927 154 132.827C156.4 134.527 158.8 135.427 161.2 135.227C167.9 135.527 172.9 130.427 176.3 120.627C176.8 119.927 177.1 119.927 177.3 120.627C179.9 128.527 185 132.627 192.4 132.627L192.4 118.027C184.7 118.027 180.9 114.627 180.9 107.927C180.9 107.027 181.1 105.827 181.1 104.827C181.6 103.127 181.1 102.427 179.9 102.427C179.4 102.427 178.7 102.827 178.2 103.827C173.4 115.127 168.6 120.827 164 120.627C160.9 120.927 158.5 119.727 156.6 117.527C154.9 115.827 154.2 114.327 154.2 112.927C154.2 112.227 154.5 111.227 154.7 109.827C155.2 108.627 155.4 107.727 155.4 107.227C155.4 106.027 155 105.527 154 105.527C153 105.527 152.3 105.927 151.6 106.927C148 111.227 145.3 114.527 143.9 116.727C141.1 119.827 138.2 121.727 135.3 122.727C133.4 123.227 130.7 123.427 126.9 123.427C121.1 123.427 116.1 119.627 112.5 111.927C111.8 110.527 111.1 109.527 110.6 109.527C110.1 109.527 109.9 110.227 109.4 111.227C107.5 117.427 106.5 120.827 106.5 121.527C106.5 122.727 106.9 124.127 107.9 125.827C112.4 134.227 114.6 142.127 114.6 149.127C114.6 151.527 111 155.527 103.6 161.327C95.2 167.527 85.8 172.827 75.5 177.127C63 182.427 51 184.827 39.5 184.827C26.8 184.827 16.9 180.827 10.2 172.627C5.2 166.427 2.8 159.427 2.8 152.027C2.8 150.627 3.8 143.627 6.2 131.427C6.27466 131.004 6.33074 130.643 6.36516 130.339C8.5981 129.233 10.2275 125.762 11.2 119.927C11.4 119.727 11.4 119.427 11.2 119.227C11.2 119.136 11.2 119.087 11.1813 119.078C11.1589 119.068 11.1093 119.118 11 119.227ZM462.5 110.327C461.8 110.327 460.8 110.727 459.6 111.727C455.8 115.127 452 118.027 448 119.927C446.8 120.727 442.7 122.627 436.5 125.727L436.5 138.927C444.9 135.027 451.4 131.027 455.2 126.427C455.2 137.427 460 143.227 470.1 143.227C478.5 143.227 485.4 138.427 490.7 128.827C493.9 134.627 497.5 137.727 501.3 137.727C507.1 137.727 511.4 135.127 514.3 129.827C517 125.427 518.4 120.427 518.4 114.427C518.4 110.527 517.2 107.227 515.3 104.327C514.6 103.327 514.1 103.127 513.6 103.127C513.1 103.127 512.6 103.927 512.4 105.327C511 109.827 510 113.227 509.8 115.127C511.9 118.727 512.9 120.727 512.9 120.927C511.9 122.527 509.8 123.527 506.4 123.527C503.8 123.527 501.4 122.527 499.7 121.127C497.8 119.727 496.8 118.027 496.8 116.327C496.8 116.827 497.5 114.927 498.5 110.827C499 108.727 498.8 107.727 497.8 107.727C497.1 107.727 496.4 108.127 495.4 109.127C493 113.027 490.4 116.827 488 120.927C484.1 126.027 479.1 128.627 473.1 128.627C465.6 128.627 461.8 125.727 461.8 120.427C461.8 119.227 462 117.727 462.5 115.827C463 113.927 463.2 112.427 463.2 111.727C463.2 110.827 463 110.327 462.5 110.327ZM314.2 130.527C310.4 137.027 308.7 141.127 308.7 143.227C308.7 146.127 310.6 147.527 314.9 147.527C316.8 147.527 319.2 146.827 322.3 145.627C326.6 143.727 330.7 141.027 334.1 137.727C335.6 136.227 336.1 135.327 335.8 134.627C333.2 129.327 328.6 123.827 322.4 118.527C320.2 120.727 317.6 124.727 314.2 130.527ZM422.9 127.627C419.3 123.027 416.2 120.927 413.3 120.927C409 120.927 407.1 121.927 407.1 124.327C407.1 127.227 410 128.627 415.7 128.627C417.73 128.627 419.93 128.201 422.3 127.743C422.499 127.704 422.699 127.666 422.9 127.627ZM69.8 134.327C67.7 130.927 65.3 129.527 62.4 129.527C62.2 129.527 61.5 130.227 60.4 132.127C59.2 134.127 58.7 135.327 58.7 135.527C58.7 136.227 59.2 137.227 60.6 138.427C62.1 139.627 63 140.327 64 140.327C64.7 140.327 65 140.027 65.2 139.827C65.5 139.327 65.7 139.327 66.2 139.327C67.2 139.327 68.4 141.527 70.3 146.327C72.2 150.927 73.1 154.027 72.9 155.727C73.1 156.727 73.1 157.427 73.6 157.427C74.1 157.427 74.6 156.727 75.3 155.727C76 154.127 77 151.227 77.7 147.127C79.4 138.027 81.1 133.427 83 133.427C83.9 133.427 84.9 133.827 85.6 134.827C86.6 135.827 87.1 136.527 87.3 136.527C87.7 136.527 88.2 135.727 88.7 134.327C89.2 133.327 89.2 132.427 89.2 131.927C89.2 130.927 88.8 129.927 87.8 128.527C86.8 127.027 85.6 126.327 84.4 126.327C82.2 126.327 80.3 128.527 78.4 132.827C76.7 139.127 75.5 143.927 75 147.027C75 147.527 74.8 147.827 74.8 148.027L74.6 148.027C74.6 147.727 74.6 147.527 74.4 147.027C73.6 141.727 72 137.427 69.8 134.327ZM44.7 141.527C44.7 144.127 43.5 147.027 41.6 150.127C39.4 153.227 36.8 156.127 33.4 158.527C32 159.527 31.2 159.927 31 159.927L31 159.727C31 159.527 31.5 159.027 32.4 157.827C37.9 151.827 40.8 148.027 40.8 145.827C40.8 144.127 39.8 143.227 38.2 143.227C37.2 143.227 36.3 143.427 35.6 143.927C34.9 144.127 34.6 144.427 34.4 144.427C34.4 144.427 34.2 144.427 34.2 144.227C34.2 144.227 34.2 143.727 34.4 142.827C35.4 138.727 37.3 136.827 40.6 136.827C43.3 136.727 44.7 138.427 44.7 141.527ZM191.6 159.527C191.4 160.027 191.4 160.327 191.6 160.527C195.4 162.927 199.3 165.527 203 168.427C203.49 168.721 203.692 168.438 204.171 167.767L204.2 167.727C207.5 162.427 209.2 159.127 209.2 157.427C209.2 156.927 207.2 155.427 203.4 152.827C199.8 150.427 197.7 149.227 197.2 149.227C196.9 149.227 196.4 149.427 196.2 149.927L191.6 159.527ZM448.8 191.427C446.2 192.127 444.7 192.627 444.2 192.627L444.2 192.427C444.2 192.427 445.2 191.727 447.1 190.527C449 189.327 451.9 187.427 456 184.327C457.9 182.427 460.8 179.327 464.4 174.927C466.8 172.027 469.4 169.427 472.3 167.527C475.9 164.927 479.3 163.727 482.9 163.727C483.6 163.727 484.8 163.927 486.3 164.427C487.5 164.927 488.7 165.127 489.7 165.127C491.6 165.127 493.1 164.427 494.3 162.927C495 161.527 496 160.327 496.9 158.827C497.4 157.827 498.1 157.427 498.6 157.427C498.8 157.427 498.8 157.627 498.8 158.127C498.8 158.627 498.6 159.827 498.1 161.227C497.6 161.927 499.5 162.227 503.1 162.227C503.6 162.227 503.8 162.227 503.8 162.027C503.8 162.027 503.6 161.027 503.1 159.427C502.9 158.927 503.1 158.227 503.8 157.227L503.88 157.091C504.822 155.49 505.208 154.832 505.5 155.027C506.5 155.727 506.9 157.227 506.9 158.827C506.9 160.427 506.4 162.227 505.7 164.127C505 166.327 504.3 167.527 503.8 167.927C502.1 168.927 499.5 168.627 495.9 166.927C493 169.827 490.1 171.527 487.3 171.527C486.6 171.527 485.4 171.327 484.2 170.827C483 170.327 482 170.127 481.3 170.127C476.5 170.127 471.5 172.327 466.4 177.127L455.6 187.927C453.4 189.527 451.3 190.727 448.8 191.427ZM237.2 195.027C242 195.027 247 194.027 252.8 192.427C254.2 191.927 255 191.927 255 192.227C255 192.427 254.5 192.927 253.3 193.927C248.5 198.227 242 200.627 234.3 200.627C232.1 200.627 230 199.927 228.5 198.727C227.1 197.527 226.3 195.827 226.3 193.927C226.3 188.927 228.5 183.627 232.8 178.127C229 176.927 227 175.027 227 172.127C227 169.527 228.4 166.627 231.6 163.227C234.7 159.827 237.1 158.227 239 158.227C239.5 158.227 240 158.427 240.4 159.427C240.9 160.127 241.1 160.827 241.1 161.827C241.1 162.327 240.6 163.227 239.7 164.727C238.7 166.127 238 166.627 238 166.427C237.5 165.027 236.8 164.227 235.4 164.227C234.7 164.227 234 164.727 233 165.927C231.8 167.127 231.3 168.127 231.3 168.827C232.5 170.727 234.7 171.927 237.5 171.927C238.5 171.927 240.1 170.927 242.1 169.027C243.5 168.027 244.7 166.827 245.9 165.627C246.4 165.427 246.6 165.627 246.6 166.627C246.6 169.027 245.6 171.227 244.2 173.627C237.7 177.927 232.9 183.027 229.8 188.527C229.3 189.727 229.1 190.727 229.1 191.427C229.3 193.627 231.9 195.027 237.2 195.027ZM128.2 178.527C126.1 175.127 123.7 173.727 120.8 173.727C120.5 173.727 119.8 174.427 118.8 176.327C117.6 178.327 117.1 179.527 117.1 179.727C117.1 180.427 117.6 181.427 119 182.627C120.5 183.827 121.4 184.527 122.4 184.527C123.1 184.527 123.4 184.227 123.6 184.027C123.9 183.527 124.1 183.527 124.6 183.527C125.6 183.527 126.8 185.727 128.7 190.527C130.6 195.127 131.5 198.227 131.3 199.927C131.5 200.927 131.5 201.627 132 201.627C132.5 201.627 133 200.927 133.7 199.927C134.4 198.327 135.4 195.427 136.1 191.327C137.8 182.227 139.5 177.627 141.4 177.627C142.3 177.627 143.3 178.027 144 179.027C145 180.027 145.5 180.727 145.7 180.727C146.1 180.727 146.6 179.927 147.1 178.527C147.6 177.527 147.6 176.627 147.6 176.127C147.6 175.127 147.2 174.127 146.2 172.727C145.2 171.227 144 170.527 142.8 170.527C140.6 170.527 138.7 172.727 136.8 177.027C135.1 183.327 133.9 188.127 133.4 191.227C133.4 191.727 133.2 192.027 133.2 192.227L133 192.227C133 191.927 133 191.727 132.8 191.227C132 185.927 130.4 181.627 128.2 178.527ZM183.2 190.727C183.2 190.527 183.4 190.227 183.4 190.227C183.509 190.118 183.559 190.068 183.581 190.078C183.6 190.087 183.6 190.136 183.6 190.227C183.8 190.427 183.8 190.727 183.6 190.927C182.4 198.127 180.2 201.727 177.1 201.727C174 201.727 172.5 199.127 172.5 193.827C172.5 187.327 174.2 180.427 178 173.427C179 171.727 179.4 170.827 179.7 170.827C179.7 171.027 179.5 172.027 179 173.727C176.6 181.127 175.4 186.227 175.4 189.327C175.4 193.127 176.4 195.327 178.5 195.327C180.1 195.327 181.5 193.627 183.2 190.727Z" id="Group" fill="#595959" fill-rule="evenodd" stroke="none" clip-path="url(#clip_1)" />
  </g>
</svg>