<?xml version="1.0" encoding="utf-8"?>
<svg width="649.1001px" height="206.30008px" viewBox="0 0 649.1001 206.30008" version="1.1" xmlns:xlink="http://www.w3.org/1999/xlink" xmlns="http://www.w3.org/2000/svg">
  <defs>
    <path d="M649.1 0L649.1 0L649.1 206.3L0 206.3L0 0L649.1 0Z" id="path_1" />
    <clipPath id="clip_1">
      <use xlink:href="#path_1" clip-rule="evenodd" fill-rule="evenodd" />
    </clipPath>
  </defs>
  <g id="Surah_84_of_114_(modified)">
    <path d="M649.1 0L649.1 0L649.1 206.3L0 206.3L0 0L649.1 0Z" id="Surah_84_of_114_(modified)" fill="none" stroke="none" />
    <path d="M404.7 31.8C404.7 27 404 23.2 402.5 20C402.5 18.3 403.7 14.2 406.6 8.00002C406.8 7.30002 407.1 6.80002 407.3 6.80002C407.8 6.80002 408 7.30002 408.5 8.00002C409.2 9.70001 410.9 14.2 413.8 21.7C416.9 29.6 418.6 34.4 419.1 36.3C419.6 37.5 419.6 38.7 419.6 39.2C419.6 41.4 417.7 40.2 413.4 35.4C412.9 34.7 412.7 35.2 412.7 36.4C412.7 36.9 413.9 51.8 416.1 81.5C418.3 111 419.2 127.6 419.2 131.4C419.2 142.7 417.5 152.8 414.2 161.4C413.2 163.1 412.8 164.3 412.3 165.2L412.3 165.2C411.6 166.4 411.3 166.4 411.1 165.7C410.9 164.7 411.1 162.8 411.3 160.2C411.8 156.1 412 151.6 412 146.5C412 141.7 410.8 122.5 408.4 88.7C405.9 54.8 404.7 35.9 404.7 31.8L404.7 31.8L404.7 31.8L404.7 31.8L404.7 31.8ZM379.8 127.3C378.8 136.2 378.1 140.5 377.6 140.5C377.1 140.5 376.4 136.9 375.4 129.5C373.5 117.5 364.6 104.1 348.8 88.7C341.8 82.2 334.9 75.7 327.9 69C320.5 61.8 314.7 55.8 310.9 51C308.3 47.6 305.4 43.8 302.3 39C300.6 35.9 298.9 33 297.3 30.4C296.1 28.5 294.7 27 293.2 26.1C292.5 25.9 292.2 25.1 292.2 23.9L292.2 14.1C292.2 12.2 292.4 11.2 293.2 11.2C293.7 11.2 294.6 11.7 295.8 12.6L314.3 26.8C315.7 28 316.5 28.7 316.5 29.4C316.5 29.9 316 29.9 314.8 29.9C313.4 29.9 310.7 29.7 307.1 28.7C309.5 33.3 316.5 41.4 328 52.9C336.6 61.5 345.3 70.2 354.2 78.8C371.5 96.1 380.1 111.2 380.1 123.9C380 124.9 380 126.1 379.8 127.3L379.8 127.3L379.8 127.3L379.8 127.3L379.8 127.3ZM377.4 24.1C377.4 22.2 376.9 19.8 376 17.1C375 14.5 374.6 13 374.6 12.8C374.6 12.3 375.1 10.4 376 7C377 3.60001 377.4 1.7 377.7 1.2C378.2 0.199997 378.4 0 378.7 0C378.9 0 379.4 0.199997 379.9 1C380.9 3.2 383 7.2 386.1 13.7C389.5 20.9 391.6 25.7 392.3 27.9C392.8 29.6 393 30.5 393 31.3C393 33.2 390.8 32 386.8 27.2C386.3 26.7 386.1 27.2 386.1 28.4C386.1 32.2 387.3 45.2 389.9 67C392.5 89.1 394 104 394 111.6C394 127.7 390.2 141.1 382.5 151.4C376.7 159.8 370 165.6 362.6 168.9C359.7 170.3 354.7 171.8 347.7 173.7C340.5 175.6 335.2 176.6 331.9 177.1C330.7 177.1 330 177.1 330 176.6C330 176.4 330.5 175.6 331.9 174.7C338.4 171.1 348.9 164.9 363.6 155.7C368.4 152.8 373 148.7 377.8 143.5C384 136.8 387.4 131 387.4 126.5C387.4 116.9 385.7 98.2 382.4 70.7999C378.8 43.3 377.4 27.7 377.4 24.1L377.4 24.1L377.4 24.1L377.4 24.1L377.4 24.1ZM320.5 152.7C320.5 151.3 319.3 148.4 316.9 143.8C314 138 311.9 133.5 310.7 129.9C308.3 122.2 306.6 115.3 305.7 108.8C305.5 106.2 305.2 104.7 305 104C304.8 102.8 304 101.4 303.1 99.9C303.8 97.7 304.8 94.6 306.2 90.5C306.9 89.3 307.2 88.8 307.6 88.8C307.8 88.8 308.6 89.3 309.5 90.5C313.3 95.8 316.5 100.8 319.1 104.9C320.3 106.8 320.8 108 320.8 108.7C320.8 109.2 320.6 109.4 320.1 109.4C319.1 109.4 317.2 108.7 314.8 107C314.6 107 314.3 107.2 314.1 107.5C315.1 110.6 316.5 115.2 318.4 120.7C323 133.2 325.1 142.3 325.1 148.1C325.1 152.9 323.7 157.9 321.3 163C317.9 170 313.4 173.3 307.9 173.3L307.9 158.7C314.5 158.7 318.8 156.6 320.5 152.7L320.5 152.7L320.5 152.7L320.5 152.7L320.5 152.7ZM234.8 163.3C240.8 163.3 246.6 161.1 252.1 156.6C252.6 156.4 254.7 154 258.8 149.6C262.4 145.8 264.6 143.8 264.8 143.8C265.8 143.8 265.8 144.5 265.3 146.4C264.3 148.6 264.1 150 264.1 150.7C264.1 152.4 264.8 154.3 266.3 156.5C268 159.4 270.6 160.8 273.5 160.8C281.7 160.8 288.4 155 294.1 143.5C294.8 142.3 295.3 141.6 296.3 141.6C296.8 141.6 297.3 142.3 297.3 143.3C297.3 143.8 297.1 144.5 297.1 145.2C296.9 146.2 296.9 146.9 296.9 147.1C296.9 150.5 298.1 153.3 300 155.5C302.2 157.4 304.8 158.6 307.9 158.6L307.9 173.2C300.7 173.2 295.4 168.4 292.1 159C291.9 157.8 291.4 157.8 290.9 159C286.6 169.8 280.6 175.3 272.9 175.3C265.2 175.3 260.7 170.3 259 160.4C259 159.7 258.8 159.2 258.8 159.2C258.6 159.2 258.3 159.7 257.8 160.4C255.9 163.5 253.2 166.6 249.6 170C243.6 175 237.8 177.7 232.1 177.7C225.9 177.7 221.5 175.8 218.9 171.9C217.5 169.5 216.5 165.9 216.3 161.3C216.3 160.8 216.1 160.6 215.6 160.3C214.9 160.5 214.2 160.8 213.4 161.7C208.4 167.5 205.2 170.8 203.8 172C197.6 177.5 191.1 180.2 184.4 180.2L184.4 165.6C191.6 165.6 197.8 163.7 203.1 159.8C205.3 158.4 210.1 153.8 217.7 146.1C218.7 145.1 219.4 144.9 220.3 144.7C221.5 144.9 222 145.7 221.5 147.3C220.8 149.2 220.5 150.9 220.5 152.3C220.5 155.7 221.9 158.3 224.6 160.2C227.1 162.3 230.7 163.3 234.8 163.3L234.8 163.3L234.8 163.3L234.8 163.3L234.8 163.3ZM170.3 140C170.3 138.3 169.1 135.7 166.7 131.8C164.3 127.7 161.9 125.6 160.2 125.6C158.5 125.6 157.1 126.8 155.6 128.7C154.2 130.6 153.4 132.5 153.4 134.5C153.4 138.6 155.1 143.4 158.4 149.1C166.4 144.8 170.3 141.7 170.3 140L170.3 140L170.3 140L170.3 140L170.3 140ZM97.1 179.4C83.4 179.4 74.1 178.4 68.5 176.3L68.5 161.7C73.1 163.9 82.7 164.8 97.5 164.8C107.8 164.8 118.9 163.4 130.9 160C141.2 157.1 148.7 154.2 153.7 151.4C151.3 143.2 150.1 138.2 150.1 136C150.1 128.8 151.3 123 153.7 118.5C156.1 113.9 159.2 111.8 162.8 111.8C165.9 111.8 169 114.4 171.7 119.7C174.3 124.5 175.5 128.6 175.5 132.4C175.5 137.9 174.3 143.4 172.1 148.5C169.9 153.3 167.5 156.7 165.1 158.3C168.5 163.3 174.9 166 184.3 166L184.3 180.6C172.3 180.6 163.4 174.6 157.4 162.6C150.4 166.4 142.3 169.8 132.9 172.9C119.9 177.2 107.9 179.4 97.1 179.4L97.1 179.4L97.1 179.4L97.1 179.4L97.1 179.4ZM56.5 153C60.3 156.6 64.2 159.5 68.5 161.6L68.5 176.2C62.7 173.8 58.4 171.4 55.3 169.2C51 165.8 47.6 161.8 45.2 156.5C42.6 150.7 40.6 135.9 39.9 111.9C38.7 79.5 38 61.7 37.5 58.1C36.3 46.3 34.4 37.7 32 31.9C32 29.7 33 25.9 35.4 20.4C35.9 19.2 36.4 18.5 36.6 18.5C36.8 18.5 37.3 19.2 37.8 20.2C40.7 25.7 42.8 35.6 44.3 49.5C45 54.5 45.5 65.1 46 80.7C46.2 90.8 46.5 100.9 47 110.7C47.9 133.5 51 147.7 56.5 153L56.5 153L56.5 153L56.5 153L56.5 153ZM104.7 85.8C101.3 80.5 97.3 77.9 92.9 77.9C89.8 77.9 88.1 78.9 88.1 81C88.1 83.2 90 84.6 94.1 85.1C96.3 85.1 99.9 85.3 104.7 85.8L104.7 85.8L104.7 85.8L104.7 85.8L104.7 85.8ZM0.800034 109.3C1.80003 103.5 3.00003 99 4.40003 94.9C4.90003 93.5 5.60003 93 6.10003 93C6.60003 93 6.60003 93.7 6.30003 95.4C3.90002 107.6 2.90002 114.4 2.90002 116C2.90002 123.4 5.30003 130.2 10.3 136.4C17 144.8 26.9 148.9 39.6 148.9C50.2 148.9 61.7 145.8 74.4 139.8C84 135 93.6 129 102.7 121.8C110.4 115.8 114.7 111.5 115.9 109.3C115.9 106.2 114.2 103.8 110.9 101.6C107.8 99.9 104.4 99.2 100.3 99.2L90.7 99.2C87.1 99.2 84.2 98 82.1 95.6C79.9 93.2 79 90.3 79 86.7C79 81.7 80.7 76.6 84.3 71.3C87.7 66.3 91.3 63.9 94.9 63.9C100.9 63.9 106.7 67.3 111.9 74C117.4 81.4 120.3 90.1 120.3 100.4C120.3 110.5 117.7 118.2 112.6 124.2C105.9 132.1 96.5 140 84.8 147.5C68.2 158.3 53.4 163.6 39.9 163.6C25.3 163.6 14.5 158.6 7.7 148.7C2.39999 141.3 0 131.7 0 119.9C0.100029 116.3 0.300034 112.7 0.800034 109.3L0.800034 109.3L0.800034 109.3L0.800034 109.3L0.800034 109.3ZM92.3 37.1L96.1 29.2C96.3 28.7 96.6 28.5 97.1 28.5C97.6 28.5 99.5 29.7 103.3 32.3C106.9 34.7 108.8 36.1 108.8 36.6C108.8 38.3 107.1 41.9 104 47.2C103.5 47.9 103 47.9 102.6 47.7C99.5 45.3 95.9 42.9 91.8 40.3C90.4 43.2 89.2 45.8 87.7 48C87.5 48.7 87 49 86.5 48.7C82.9 45.8 79.1 43.2 75.2 40.8C75 40.6 75 40.3 75.2 39.8L79.8 30.2C80 29.7 80.5 29.2 80.8 29.2C81.3 29.2 83 30.4 86.1 32.6C89.1 34.4 91.3 36.1 92.3 37.1L92.3 37.1L92.3 37.1L92.3 37.1L92.3 37.1ZM395.1 175.8C394.6 178 394.1 179.2 393.4 179.9C390.8 181.6 384.8 185.4 375.6 191.7C375.4 191.9 374.9 192.2 374.4 192.7C374.2 192.5 374.2 192.5 374.2 192L374.7 188.9C374.9 188.2 376.4 186.7 379.3 184.6C375.7 183.4 374 181.7 374 179.8C374 177.6 374.7 175.5 376.6 173.3C380.2 169 383.3 166.8 385.7 166.8C387.9 166.8 388.8 168 388.8 170.4C388.8 171.8 388.3 173.3 387.1 175.2C386.9 175.7 386.6 175.7 386.1 175C385.6 173.8 384.7 173.3 383.5 173.3C382.8 173.3 381.8 173.5 380.6 174.5C379.4 175.2 378.7 175.9 378.7 176.4C378.7 177.1 379.4 177.8 380.9 178.6C382.3 179.6 383.5 179.8 384.5 179.8C385.2 179.8 386.7 179.3 388.8 178.1C390.2 177.1 391.4 176.2 392.9 175.2C394.1 174.7 394.8 174.2 395.1 174.5C395.4 174.3 395.4 174.8 395.1 175.8L395.1 175.8L395.1 175.8L395.1 175.8L395.1 175.8ZM290.7 69.9C290.5 69.7 290.5 69.4 290.7 68.9L295.3 59.3C295.5 58.8 296 58.6 296.3 58.6C296.8 58.6 298.9 59.8 302.5 62.2C306.3 64.8 308.3 66.3 308.3 66.8C308.3 68.5 306.6 71.8 303.3 77.1C302.8 77.8 302.6 78.1 302.1 77.8C298.4 75 294.6 72.3 290.7 69.9L290.7 69.9L290.7 69.9L290.7 69.9L290.7 69.9ZM259.5 117.5L263.3 109.8C263.5 109.1 263.8 108.8 264.3 108.8C264.8 108.8 266.7 110 270.5 112.6C274.1 115.2 276 116.7 276 117.2C276 118.9 274.3 122.2 271.2 127.5C270.7 128.2 270.2 128.2 269.8 128C266.7 125.6 263.1 123.2 259 120.6C257.6 123.5 256.4 126.1 254.9 128.3C254.7 129 254.2 129.3 253.7 129C250.1 126.1 246.3 123.5 242.4 121.1C242.2 120.9 242.2 120.6 242.4 120.1L247 110.5C247.2 110 247.7 109.5 248 109.5C248.5 109.5 250.2 110.7 253.3 112.9C256.4 114.8 258.6 116.5 259.5 117.5L259.5 117.5L259.5 117.5L259.5 117.5L259.5 117.5ZM246.3 102.6C246.1 102.4 246.1 102.1 246.3 101.6L251.1 92C251.3 91.5 251.6 91.3 252.1 91.3C252.6 91.3 254.5 92.5 258.3 94.9C261.9 97.5 263.8 99 263.8 99.5C263.8 101.2 262.1 104.5 259 109.8C258.5 110.5 258 110.8 257.6 110.3C254 107.6 250.2 105 246.3 102.6L246.3 102.6L246.3 102.6L246.3 102.6L246.3 102.6ZM153.5 92.5L157.3 84.6C157.5 84.1 157.8 83.9 158.3 83.9C158.8 83.9 160.7 85.1 164.5 87.7C168.1 90.1 170 91.5 170 92C170 93.7 168.3 97.3 165.2 102.6C164.7 103.3 164.2 103.3 163.8 103.1C160.7 100.7 157.1 98.3 153 95.7C151.6 98.6 150.4 101.2 148.9 103.4C148.7 104.1 148.2 104.4 147.7 104.1C144.1 101.2 140.3 98.6 136.4 96.2C136.2 96 136.2 95.7 136.4 95.2L141 85.6C141.2 85.1 141.7 84.6 142 84.6C142.5 84.6 144.2 85.8 147.3 88C150.3 89.9 152.5 91.5 153.5 92.5L153.5 92.5L153.5 92.5L153.5 92.5L153.5 92.5ZM13.3 82.4C13.3 82.2 13.5 81.9 13.5 81.9C13.7 81.7 13.7 81.7 13.7 81.9C13.9 82.1 13.9 82.4 13.7 82.6C12.5 89.8 10.3 93.4 7.20003 93.4C4.10003 93.4 2.60003 90.8 2.60003 85.5C2.60003 79 4.30003 72.1 8.10003 65.1C9.10003 63.4 9.50003 62.5 9.80003 62.5L9.80003 62.5C9.80003 62.7 9.60003 63.7 9.10003 65.4C6.70003 72.8 5.50003 77.9 5.50003 81C5.50003 84.8 6.50003 87 8.60003 87C10.2 87 11.6 85.3 13.3 82.4L13.3 82.4L13.3 82.4L13.3 82.4L13.3 82.4ZM57.9 99C58.4 95.6 59.6 91.8 61.5 87C62.9 83.4 63.7 79.8 63.7 76.2C63.7 69.2 60.3 62.8 53.9 56.3C53.4 55.8 53.4 55.3 53.9 54.9L56.1 51.1C56.3 50.6 56.6 50.6 57.1 51.1C63.3 56.1 66.7 63.6 66.7 73.4C66.7 78 65.5 83 63.6 88C61.4 93.3 60.5 96.9 60.5 98.8C60.5 102.9 61.5 105 63.6 105C65 105 66.5 103.3 68.2 100.4C68.2 100.2 68.4 99.9 68.4 99.9C68.6 99.7 68.6 99.7 68.6 99.9C68.6 99.9 68.6 100.4 68.6 100.6C67.4 107.8 65.2 111.4 62.1 111.4C59.2 111.4 57.5 108.3 57.5 102.5C57.5 101.4 57.7 100.2 57.9 99L57.9 99L57.9 99L57.9 99L57.9 99ZM75.9 197.4C85.5 194 95.8 190.2 106.9 186.4C107.9 186.2 108.1 185.9 108.3 186.2C108.5 186.2 108.5 186.7 108.1 187.4C107.4 189.6 106.7 190.8 106.2 191.2C96.6 194.6 85.8 198.6 73.6 204.2C74 201.9 74.7 199.8 75.9 197.4L75.9 197.4L75.9 197.4L75.9 197.4L75.9 197.4ZM278 24.8C278 23.6 275.6 21.4 270.6 18.6C268.9 21.5 268.2 24.1 268.2 26.5C268.2 27.9 268.9 28.9 270.4 28.9C271.6 28.9 273 28.4 274.7 27.5C276.3 26.7 277.5 25.8 278 24.8L278 24.8L278 24.8L278 24.8L278 24.8ZM272.7 5.60001C273.4 4.40001 274.4 3.90001 275.1 3.90001C275.6 3.90001 276.1 4.10001 276.1 4.60001C276.1 4.60001 275.9 4.8 275.9 5.10001C274.9 7.3 274 9.70001 273.3 12.1C278.3 15.7 280.7 19.5 280.5 23.1C280 27.2 279.5 29.8 278.8 30.8C276.4 33.7 273.8 35.4 270.4 35.4C267 35.4 265.6 33.2 265.6 29.4C265.6 28.7 265.6 27.7 265.8 26.8C267 19.1 269.4 12.1 272.7 5.60001L272.7 5.60001L272.7 5.60001L272.7 5.60001L272.7 5.60001ZM233.6 197.1C247.3 192.3 261.7 187 276.8 181.5C277.8 181.3 278 181 278.2 181.3C278.4 181.3 278.4 181.8 278 182.5C277.3 184.7 276.6 185.9 276.1 186.3C263.1 190.9 248.3 196.6 231.2 203.8C231.7 201.7 232.4 199.5 233.6 197.1L233.6 197.1L233.6 197.1L233.6 197.1L233.6 197.1ZM126.1 59.9C166.7 44.5 207.9 29.2 250.2 13.3C250.9 13.1 251.4 12.8 251.4 13.1C251.6 13.1 251.6 13.6 251.4 14.3C250.4 16.5 249.7 17.7 249.2 18.1C210.6 32.5 168.6 48.6 123.7 66.6C124.2 64.4 124.9 62.3 126.1 59.9L126.1 59.9L126.1 59.9L126.1 59.9L126.1 59.9ZM198.3 75.7C198.3 75.5 198.5 75.2 198.5 75.2C198.7 75 198.7 75 198.7 75.2C198.9 75.4 198.9 75.7 198.7 75.9C197.5 83.1 195.3 86.7 192.2 86.7C189.1 86.7 187.6 84.1 187.6 78.8C187.6 72.3 189.3 65.4 193.1 58.4C194.1 56.7 194.5 55.8 194.8 55.8L194.8 55.8C194.8 56 194.6 57 194.1 58.7C191.7 66.1 190.5 71.2 190.5 74.3C190.5 78.1 191.5 80.3 193.6 80.3C195.2 80.3 196.7 78.6 198.3 75.7L198.3 75.7L198.3 75.7L198.3 75.7L198.3 75.7ZM243.9 73.8C243.9 74.3 243.7 75.2 243.2 76.2C243 77.6 242.5 78.4 241.8 78.4C241.6 78.4 241.1 77.7 240.1 76.7C239.4 75.7 238.4 75.3 237.7 75.3C235.8 75.3 233.9 79.9 232.2 89C231.5 93.1 230.8 96 229.8 97.6C229.1 98.6 228.6 99.3 228.1 99.3C227.9 99.3 227.6 98.6 227.6 97.6C227.6 95.9 226.6 92.8 224.7 88.2C222.8 83.4001 221.6 81.2 220.9 81.2C220.2 81.2 219.9 81.2 219.7 81.7C219.7 81.9001 219.2 82.2 218.5 82.2C217.5 82.2 216.6 81.5 215.1 80.3C213.9 79.1 213.2 78.1 213.2 77.4001C213.2 77.2 213.7 76.0001 214.9 74.0001C216.1 72.1001 216.8 71.4001 217.1 71.4001C219.7 71.4001 222.1 72.8 224.3 76.2C226.7 79.6 228.1 83.6 229.1 88.9001C229.1 89.4001 229.1 89.6001 229.1 89.9001C229.3 90.1001 229.3 90.1001 229.3 89.9001C229.3 89.7 229.5 89.4001 229.8 88.9001C230 85.8 231.2 81.0001 232.9 74.7C234.8 70.4001 236.7 68.2 238.9 68.2C240.1 68.2 241.3 68.9001 242.5 70.4001C243.5 71.9 243.9 72.8 243.9 73.8L243.9 73.8L243.9 73.8L243.9 73.8L243.9 73.8ZM228.1 101.4C226.4 105.2 223.1 109.1 218 112.7C213.4 116.1 209.4 118.5 205.8 120.1C205.1 120.6 200.8 122.3 192.8 125.1C191.6 125.6 190.9 125.8 190.4 125.8C190.2 125.8 190.2 125.6 190.2 125.6C190.2 125.4 190.9 124.6 192.1 123.9C198.6 120.1 207.7 114.5 219.7 106.6C222.6 104.4 224.7 102.3 226.4 100.4C228.3 98.2 229.3 97 229.5 97C229.5 97 229.5 97 229.5 97.2C229.5 97.5 229.1 99 228.1 101.4L228.1 101.4L228.1 101.4L228.1 101.4L228.1 101.4ZM248 35.1C248 37.7 246.8 40.6 244.9 43.7C242.7 46.8 240.1 49.7 236.7 52.1C235.3 53.1 234.5 53.5 234.3 53.5L234.3 53.3C234.3 53.1 234.8 52.6 235.7 51.4C241.2 45.4 244.1 41.6 244.1 39.4C244.1 37.7 243.1 36.8 241.5 36.8C240.5 36.8 239.6 37 238.9 37.5C238.2 37.7 237.9 38 237.7 38C237.7 38 237.5 38 237.5 37.8C237.5 37.8 237.5 37.3 237.7 36.4C238.7 32.3 240.6 30.4 243.9 30.4C246.6 30.3 248 32 248 35.1L248 35.1L248 35.1L248 35.1L248 35.1ZM142.9 28.7C142.9 28.5 143.1 28.2 143.1 28.2C143.3 28 143.3 28 143.3 28.2C143.5 28.4 143.5 28.7 143.3 28.9C142.1 36.1 139.9 39.7 136.8 39.7C133.7 39.7 132.2 37.1 132.2 31.8C132.2 25.3 133.9 18.4 137.7 11.4C138.7 9.70003 139.1 8.80002 139.4 8.80002L139.4 8.80002C139.4 9.00002 139.2 10 138.7 11.7C136.3 19.1 135.1 24.2 135.1 27.3C135.1 31.1 136.1 33.3 138.2 33.3C139.8 33.2 141.2 31.5 142.9 28.7L142.9 28.7L142.9 28.7L142.9 28.7L142.9 28.7ZM201.5 8.00002C201.5 10.6 200.3 13.5 198.4 16.6C196.2 19.7 193.6 22.6 190.2 25C188.8 26 188 26.4 187.8 26.4L187.8 26.2C187.8 26 188.3 25.5 189.2 24.3C194.7 18.3 197.6 14.5 197.6 12.3C197.6 10.6 196.6 9.70001 195 9.70001C194 9.70001 193.1 9.90001 192.4 10.4C191.7 10.6 191.4 10.9 191.2 10.9C191.2 10.9 191 10.9 191 10.7C191 10.7 191 10.2 191.2 9.30002C192.2 5.20001 194.1 3.30002 197.4 3.30002C200 3.20001 201.5 4.90001 201.5 8.00002L201.5 8.00002L201.5 8.00002L201.5 8.00002L201.5 8.00002ZM273 56.7C273 59.3 271.8 62.2 269.9 65.3C267.7 68.4 265.1 71.3 261.7 73.7C260.3 74.7 259.5 75.1 259.3 75.1L259.3 74.9C259.3 74.7 259.8 74.2 260.7 73C266.2 67 269.1 63.2 269.1 61C269.1 59.3 268.1 58.4 266.5 58.4C265.5 58.4 264.6 58.6 263.9 59.1C263.2 59.3 262.9 59.6 262.7 59.6C262.7 59.6 262.5 59.6 262.5 59.4C262.5 59.4 262.5 58.9 262.7 58C263.7 53.9 265.6 52 268.9 52C271.5 51.9 273 53.6 273 56.7L273 56.7L273 56.7L273 56.7L273 56.7ZM348.1 116.7C348.1 119.3 346.9 122.2 345 125.3C342.8 128.4 340.2 131.3 336.8 133.7C335.4 134.7 334.6 135.1 334.4 135.1L334.4 134.9C334.4 134.7 334.9 134.2 335.8 133C341.3 127 344.2 123.2 344.2 121C344.2 119.3 343.2 118.4 341.6 118.4C340.6 118.4 339.7 118.6 339 119.1C338.3 119.3 338 119.6 337.8 119.6C337.8 119.6 337.6 119.6 337.6 119.4C337.6 119.4 337.6 118.9 337.8 118C338.8 113.9 340.7 112 344 112C346.7 111.9 348.1 113.6 348.1 116.7L348.1 116.7L348.1 116.7L348.1 116.7L348.1 116.7ZM351.5 21.9C351.5 20.7 349.1 18.5 344.1 15.7C342.4 18.6 341.7 21.2 341.7 23.6C341.7 25 342.4 26 343.9 26C345.1 26 346.5 25.5 348.2 24.6C349.8 23.9 351 22.9 351.5 21.9L351.5 21.9L351.5 21.9L351.5 21.9L351.5 21.9ZM346.2 2.70001C346.9 1.50002 347.9 1.00002 348.6 1.00002C349.1 1.00002 349.6 1.20001 349.6 1.70001C349.6 1.70001 349.4 1.90001 349.4 2.20001C348.4 4.40001 347.5 6.80002 346.8 9.20001C351.8 12.8 354.2 16.6 354 20.2C353.5 24.3 353 26.9 352.3 27.9C349.9 30.8 347.3 32.5 343.9 32.5C340.5 32.5 339.1 30.3 339.1 26.5C339.1 25.8 339.1 24.8 339.3 23.9C340.4 16.2 342.8 9.20001 346.2 2.70001L346.2 2.70001L346.2 2.70001L346.2 2.70001L346.2 2.70001ZM322.4 185.1C322.4 187.7 321.2 190.6 319.3 193.7C317.1 196.8 314.5 199.7 311.1 202.1C309.7 203.1 308.9 203.5 308.7 203.5L308.7 203.3C308.7 203.1 309.2 202.6 310.1 201.4C315.6 195.4 318.5 191.6 318.5 189.4C318.5 187.7 317.5 186.8 315.9 186.8C314.9 186.8 314 187 313.3 187.5C312.6 187.7 312.3 188 312.1 188C312.1 188 311.9 188 311.9 187.8C311.9 187.8 311.9 187.3 312.1 186.4C313.1 182.3 315 180.4 318.3 180.4C321 180.3 322.4 182 322.4 185.1L322.4 185.1L322.4 185.1L322.4 185.1L322.4 185.1ZM161.1 186.6C161.1 189.2 159.9 192.1 158 195.2C155.8 198.3 153.2 201.2 149.8 203.6C148.4 204.6 147.6 205 147.4 205L147.4 204.8C147.4 204.6 147.9 204.1 148.8 202.9C154.3 196.9 157.2 193.1 157.2 190.9C157.2 189.2 156.2 188.3 154.6 188.3C153.6 188.3 152.7 188.5 152 189C151.3 189.2 151 189.5 150.8 189.5C150.8 189.5 150.6 189.5 150.6 189.3C150.6 189.3 150.6 188.8 150.8 187.9C151.8 183.8 153.7 181.9 157 181.9C159.7 181.8 161.1 183.5 161.1 186.6L161.1 186.6L161.1 186.6L161.1 186.6L161.1 186.6ZM590.3 117.5C591.5 116.5 592.5 116.1 593.2 116.1C593.7 116.1 593.9 116.6 593.9 117.5C593.9 118.2 593.7 119.7 593.2 121.6C592.7 123.5 592.5 125 592.5 126.2C592.5 131.5 596.3 134.4 603.8 134.4C609.8 134.4 614.8 131.8 618.7 126.7C621.1 122.6 623.7 118.8 626.1 114.9C627.1 113.9 627.8 113.5 628.5 113.5C629.5 113.5 629.7 114.5 629.2 116.6C628.2 120.7 627.5 122.6 627.5 122.1C627.5 123.8 628.5 125.5 630.4 126.9C632.1 128.3 634.5 129.3 637.1 129.3C640.5 129.3 642.6 128.3 643.6 126.7C643.6 126.5 642.6 124.5 640.5 120.9C640.7 119 641.7 115.6 643.1 111.1C643.3 109.7 643.8 108.9 644.3 108.9C644.8 108.9 645.3 109.1 646 110.1C647.9 113 649.1 116.3 649.1 120.2C649.1 126.2 647.7 131.2 645 135.6C642.1 140.9 637.8 143.5 632 143.5C628.2 143.5 624.6 140.4 621.4 134.6C616.1 144.2 609.2 149 600.8 149C590.7 149 585.9 143.2 585.9 132.2C582.1 136.8 575.6 140.8 567.2 144.7L567.2 131.5C573.4 128.4 577.5 126.5 578.7 125.7C582.6 123.7 586.4 120.8 590.3 117.5L590.3 117.5L590.3 117.5L590.3 117.5L590.3 117.5ZM553.5 133.3C549.9 128.7 546.8 126.6 543.9 126.6C539.6 126.6 537.7 127.6 537.7 130C537.7 132.9 540.6 134.3 546.3 134.3C548.5 134.3 550.9 133.8 553.5 133.3L553.5 133.3L553.5 133.3L553.5 133.3L553.5 133.3ZM561 150.8C561 149.4 560.5 147.7 560 146C557.1 147 552.8 147.7 547.5 147.7C536 147.7 530.2 143.6 530.2 135.7C530.2 129.7 531.9 124.4 535.7 119.6C539.3 115.5 543.1 113.4 547.2 113.4C550.3 113.4 553.4 115.3 557 118.9C560.1 122.5 563 126.6 565.4 131.6C565.6 131.6 566.1 131.6 567.1 131.1L567.1 144.3L566.6 144.8C566.6 147.7 565.9 151 564.4 155.4C562.7 160.9 560.1 165.5 557 169.1C549.8 177.7 541.9 185.2 533.2 191.7C520.2 201.3 509.2 206.3 499.6 206.3C491.4 206.3 485.2 203.2 480.9 197.2C477.1 192.2 475.1 185.4 475.1 177.5C475.1 167.4 477.3 157.1 481.3 146.3C482.5 143.9 483 142.9 483.5 142.9C483.7 142.9 483.7 143.1 483.7 143.6C483.7 144.3 483.5 145.5 483.2 147C480.1 157.6 478.6 165.5 478.6 171C478.6 176 479.8 180.4 482.2 184C486 189 492 191.7 500.4 191.7C507.6 191.7 516.2 188.6 526.6 182.3C534.8 177.3 542.7 171.3 550.4 164.1C557.4 157.3 561 153 561 150.8L561 150.8L561 150.8L561 150.8L561 150.8ZM495.5 114.6C495 112.4 494.3 110.8 493.3 109.6C492.6 108.2 492.1 107.4 491.9 107C491.9 106.5 491.9 104.8 492.4 101.5C492.9 98.4 493.1 96.2 493.6 95C493.8 93.8 494.1 93.3 494.6 93.3C494.8 93.3 495.1 93.5 495.6 94C499 97.8 502.6 101.7 506.6 105.8C508.3 107.5 509 108.4 509 108.9C509 109.1 508.8 109.4 508.3 109.4C507.6 109.4 505.7 108.9 502.8 108.2C504.5 112.3 506.4 116.4 508.1 120.2C510.7 126.9 512.2 132.4 512.2 137.5C512.2 139.9 511.7 142.8 510.8 146.4C509.6 150.5 508.2 153.6 506.2 155.8C499.2 163.7 487.5 172.4 470.9 181.7C456.5 190.1 448.1 194.2 445.5 194.2C445 194.2 437.8 195.9 424.1 199.2C409.7 202.6 400.6 204.7 397 205.2C393.2 205.9 390.8 206.2 389.8 206.2C389.3 206.2 389.3 206.2 389.3 206C389.3 205.8 391.9 204.3 397.2 201.9C399.1 200.9 410.2 196.1 430.6 187.5C444.8 181.5 456.5 176 465.9 170.9C480.1 163.2 490.9 156.5 498.3 151C503.8 146.7 506.7 143.6 506.7 141.6C506.7 141.1 505.3 137.8 502.4 131.5C499.1 124.4 496.7 118.7 495.5 114.6L495.5 114.6L495.5 114.6L495.5 114.6L495.5 114.6ZM475.8 81.2C475.8 85 473.9 90.3 470 96.8C467.6 100.9 464 106.4 459.2 113.6C464 119.1 467.4 124.2 469 128.5C470 131.6 470.7 135.7 470.7 140.3C470.7 142.2 470.2 144.6 469.3 147.7C468.6 150.6 467.6 152.7 466.7 154.2C464.8 157.1 461.7 160 456.9 162.8C451.9 166.2 447.5 167.8 443.9 167.8C438.1 167.8 435.3 163.5 435.3 154.8C435.3 149 436.3 143.3 438.2 138C440.1 133.4 443.2 127.4 448.3 119.5C444 115.4 439.4 109.7 434.4 102.5C433.9 101.8 432.7 100.6 430.8 98.7C429.8 97.7 429.4 96.5 429.4 95.1C429.4 92.9 429.6 90.5 430.1 87.7C430.8 84.8 431.3 83.6 431.5 83.6C432.2 83.6 434.4 84.8 438.5 87.4C442.3 90 445.5 92 447.4 93.6C448.6 94.3 449.1 95 449.1 95L449.1 95.2C449.1 95.4 448.4 95.7 446.7 95.7C443.6 95.7 441.9 95.9 441.9 96.2C441.9 96.4 442.4 96.9 443.3 98.1C447.1 102.9 451 106.5 455.1 109.4C456.1 108 459.4 103.2 464.7 95C469.3 88 471.9 83.2 473.1 80.4C474.3 77.5 475 76.3 475.5 76.3C475.5 76.4 475.8 77.9 475.8 81.2L475.8 81.2L475.8 81.2L475.8 81.2L475.8 81.2ZM466.4 140.3C463.8 135 459.2 129.5 453 124.2C450.8 126.4 448.2 130.4 444.8 136.2C441 142.7 439.3 146.8 439.3 148.9C439.3 151.8 441.2 153.2 445.5 153.2C447.4 153.2 449.8 152.5 452.9 151.3C457.2 149.4 461.3 146.7 464.7 143.4C466.2 141.9 466.7 141 466.4 140.3L466.4 140.3L466.4 140.3L466.4 140.3L466.4 140.3ZM453 63L456.8 55.1C457 54.6 457.3 54.4 457.8 54.4C458.3 54.4 460.2 55.6 464 58.2C467.6 60.6 469.5 62 469.5 62.5C469.5 64.2 467.8 67.8 464.7 73.1C464.2 73.8 463.7 73.8 463.3 73.6C460.2 71.2 456.6 68.8 452.5 66.2C451.1 69.1 449.9 71.7 448.4 73.9C448.2 74.6 447.7 74.9 447.2 74.6C443.6 71.7 439.8 69.1 435.9 66.7C435.7 66.5 435.7 66.2 435.9 65.7L440.5 56.1C440.7 55.6 441.2 55.1 441.5 55.1C442 55.1 443.7 56.3 446.8 58.5C449.9 60.3 452 62 453 63L453 63L453 63L453 63L453 63ZM579.5 196.9C576.9 197.6 575.4 198.1 574.9 198.1L574.9 197.9C574.9 197.9 575.9 197.2 577.8 196C579.7 194.8 582.6 192.9 586.7 189.8C588.6 187.9 591.5 184.8 595.1 180.4C597.5 177.5 600.1 174.9 603 173C606.6 170.4 610 169.2 613.6 169.2C614.3 169.2 615.5 169.4 617 169.9C618.2 170.4 619.4 170.6 620.4 170.6C622.3 170.6 623.8 169.9 625 168.4C625.7 167 626.7 165.8 627.6 164.3C628.1 163.3 628.8 162.9 629.3 162.9C629.5 162.9 629.5 163.1 629.5 163.6C629.5 164.1 629.3 165.3 628.8 166.7C628.3 167.4 630.2 167.7 633.8 167.7C634.3 167.7 634.5 167.7 634.5 167.5C634.5 167.5 634.3 166.5 633.8 164.9C633.6 164.4 633.8 163.7 634.5 162.7C635.5 161 635.9 160.3 636.2 160.5C637.2 161.2 637.6 162.7 637.6 164.3C637.6 166 637.1 167.7 636.4 169.6C635.7 171.8 635 173 634.5 173.4C632.8 174.4 630.2 174.1 626.6 172.4C623.7 175.3 620.8 177 618 177C617.3 177 616.1 176.8 614.9 176.3C613.7 175.8 612.7 175.6 612 175.6C607.2 175.6 602.2 177.8 597.1 182.6C593.5 186.2 589.9 189.8 586.3 193.4C584 195 581.9 196.2 579.5 196.9L579.5 196.9L579.5 196.9L579.5 196.9L579.5 196.9ZM527.9 67.3C530.8 67.3 533.2 68.7 535.3 72.1C537.5 75.2 539.1 79.5 539.9 84.8C540.1 85.3 540.1 85.5 540.1 85.8L540.3 85.8C540.3 85.6 540.5 85.3 540.5 84.8C541 81.7 542.2 76.9 543.9 70.6C545.8 66.3 547.7 64.1 549.9 64.1C551.1 64.1 552.3 64.8 553.3 66.3C554.3 67.7 554.7 68.7 554.7 69.7C554.7 70.2 554.7 71.1 554.2 72.1C553.7 73.5 553.2 74.3 552.8 74.3C552.6 74.3 552.1 73.6 551.1 72.6C550.4 71.6 549.4 71.2 548.5 71.2C546.6 71.2 544.9 75.8 543.2 84.9C542.5 89 541.5 91.9 540.8 93.5C540.1 94.5 539.6 95.2 539.1 95.2C538.6 95.2 538.6 94.5 538.4 93.5C538.6 91.8 537.7 88.7 535.8 84.1C533.9 79.3 532.7 77.1 531.7 77.1C531.2 77.1 531 77.1 530.7 77.6C530.5 77.8 530.2 78.1 529.5 78.1C528.5 78.1 527.6 77.4 526.1 76.2C524.7 75 524.2 74 524.2 73.3C524.2 73.1 524.7 71.9001 525.9 69.9001C526.9 68 527.6 67.3 527.9 67.3L527.9 67.3L527.9 67.3L527.9 67.3L527.9 67.3ZM487.3 64.2C511.5 55.1 536.7 46 562.7 36.4C563.4 36.2 563.9 35.9 563.9 36.2C564.1 36.2 564.1 36.7 563.9 37.4C562.9 39.6 562.2 40.8 561.7 41.2C561.5 41.4 549.2 46 525.5 54.9C501.3 63.8 487.6 69.3 484.9 71C485.4 68.7 486.1 66.6 487.3 64.2L487.3 64.2L487.3 64.2L487.3 64.2L487.3 64.2ZM463.8 20.5C464.3 19.1 464.3 17.6 464 16.2C463.8 14.8 463 14 461.8 14C461.3 14 460.6 14.2 459.6 14.7C458.6 15.2 458.2 15.7 458.2 16.1C458.3 17.4 460.2 18.8 463.8 20.5L463.8 20.5L463.8 20.5L463.8 20.5L463.8 20.5ZM460.9 26.7C456.3 24.3 454.2 21.9 454.2 19.3C454.2 16.2 455.6 13.3 458.5 10.9C461.4 8.30002 463.8 7.30002 465.7 8.00003C467.4 8.50003 468.1 10.2 468.1 13C468.1 15.6 467.6 18.5 466.4 21.9C468.8 23.1 470.2 24.3 470.7 25.3C470.7 26.5 469.7 28.7 467.6 31.5C467.1 30.5 465.7 29.3 463.5 28.1C460.9 31.7 457.7 34.8 453.9 37.7C449.3 40.8 445.3 43.5 441.7 44.9C440.7 45.4 436.4 47.1 428.7 49.9C427.5 50.4 426.5 50.6 426.3 50.6C426.1 50.6 426.1 50.4 426.1 50.4C426.1 50.2 426.6 49.4 428 48.7C433.8 45.1 439.5 41.7 445.5 38.4C452.5 34.2 457.5 30.3 460.9 26.7L460.9 26.7L460.9 26.7L460.9 26.7L460.9 26.7ZM612.6 56.5C613.1 55.1 613.1 53.6 612.8 52.2C612.6 50.8 611.8 50 610.6 50C610.1 50 609.4 50.2 608.4 50.7C607.4 51.2 607 51.7 607 52.1C607.1 53.4 609 54.8 612.6 56.5L612.6 56.5L612.6 56.5L612.6 56.5L612.6 56.5ZM617.9 65.4C615.5 71.2 614.3 75.7 614.3 79.1C614.3 83.2 615.3 85.3 617.4 85.3C618.6 85.3 620 83.6 621.7 80.7C621.9 80.5 621.9 80.2 622.2 80C622.2 80 622.4 80 622.4 80.2C622.4 80.2 622.4 80.4001 622.4 80.9001C621 88.1001 618.8 91.7 615.9 91.7C612.8 91.7 611.3 89.1 611.3 83.8C611.3 81.2 611.8 77.8 613.2 73.5001C614.6 69.2001 615.4 67.0001 615.4 66.8C615.4 66.3 614.4 65.4001 612.3 64.2C608.5 69.2 603.2 74 596.5 78.1C591.9 80.7 587.4 83.1 582.6 85.1C573.7 88.7 568.4 90.6 567.2 91.3C566 91.8 565.3 92.0001 564.8 92.0001C564.6 92.0001 564.6 91.8 564.6 91.8C564.6 91.3 565.1 90.8 566.5 89.9001C574.2 85.6001 581.6 81.3 589.3 76.9001C599.4 71.1001 606.3 66.3 609.7 62.7C605.1 60.3 603 57.9001 603 55.3C603 52.2 604.4 49.3 607.3 46.7C610.2 44.3 612.6 43.3 614.5 44.1C615.9 44.6 616.9 46.3 616.9 49.1C616.9 51.7 616.4 54.6 615.2 57.7C617.6 59.1 618.6 60.6 618.6 62C618.6 62.7 618.3 63.9 617.9 65.4L617.9 65.4L617.9 65.4L617.9 65.4L617.9 65.4ZM508.7 30.6C508.7 30.4 508.9 30.1 508.9 30.1C509.1 29.9 509.1 29.9 509.1 30.1C509.3 30.3 509.3 30.6 509.1 30.8C507.9 38 505.7 41.6 502.6 41.6C499.5 41.6 498 39 498 33.7C498 27.2 499.7 20.3 503.5 13.3C504.5 11.6 504.9 10.7 505.2 10.7L505.2 10.7C505.2 10.9 505 11.9 504.5 13.6C502.1 21 500.9 26.1 500.9 29.2C500.9 33 501.9 35.2 504 35.2C505.5 35.1 507 33.5 508.7 30.6L508.7 30.6L508.7 30.6L508.7 30.6L508.7 30.6Z" id="Group" fill="#595959" stroke="none" clip-path="url(#clip_1)" />
  </g>
</svg>