<?xml version="1.0" encoding="utf-8"?>
<svg width="533.6001px" height="201.8px" viewBox="0 0 533.6001 201.8" version="1.1" xmlns:xlink="http://www.w3.org/1999/xlink" xmlns="http://www.w3.org/2000/svg">
  <defs>
    <path d="M533.6 0L533.6 0L533.6 201.8L0 201.8L0 0L533.6 0Z" id="path_1" />
    <clipPath id="clip_1">
      <use xlink:href="#path_1" clip-rule="evenodd" fill-rule="evenodd" />
    </clipPath>
  </defs>
  <g id="Surah_106_of_114_(modified)">
    <path d="M533.6 0L533.6 0L533.6 201.8L0 201.8L0 0L533.6 0Z" id="Surah_106_of_114_(modified)" fill="none" stroke="none" />
    <path d="M295.5 137.6C292.9 140.2 281.8 145.5 262.4 153.9L262.4 140.7C269.6 137.6 276.6 134.7 283.8 131.6C294.4 127 299.6 124.2 299.6 123C299.6 120.8 297.7 118.7 294.3 116.8C290.9 115.1 287.6 114.2 284 114.2L274.4 114.2C270.8 114.2 267.9 113 265.8 110.8C263.6 108.4 262.7 105.3 262.7 101.7C262.7 96.6999 264.4 91.5999 267.7 86.5999C271.3 81.5999 274.9 78.8999 278.5 78.8999C284.5 78.8999 290.3 82.2999 295.5 88.9999C301 96.3999 303.9 105.3 303.9 115.4C303.9 124.6 301 132 295.5 137.6L295.5 137.6L295.5 137.6L295.5 137.6L295.5 137.6ZM288.3 100.8C284.9 95.3 280.9 92.6 276.5 92.6C273.4 92.6 271.7 93.8 271.7 95.7C271.7 98.1 273.6 99.5 277.7 100C279.9 100.1 283.5 100.4 288.3 100.8L288.3 100.8L288.3 100.8L288.3 100.8L288.3 100.8ZM217 167.3C222 161.5 228.8 156.5 237.2 151.9C242 149.3 250.4 145.4 262.4 140.4L262.4 153.6C254.7 157 249.2 159.4 245.6 161C238.2 164.6 233.1 167.2 230.5 169.4C225.5 173.2 218 180.7 208.4 191.7C202.6 198.4 196.9 201.8 191.1 201.8C186.3 201.8 182 199.6 178.4 195.1C174.6 190.8 172.9 185 172.9 178.5C172.9 169.6 176.5 157.9 183.9 143.2C184.6 141.8 185.3 141 185.8 141C185.8 141 186 141.2 186 141.5C186 142.9 184.3 148 181.2 156.6C177.8 165.5 176.2 172.2 176.2 177.2C176.2 181 177.2 184.2 179.1 186.3C181 188.9 183.7 190.1 187 190.1C193 190.1 199.2 187 205.2 181C209.3 176.7 213.2 171.9 217 167.3L217 167.3L217 167.3L217 167.3L217 167.3ZM205 101.6C205 100.2 203.8 97.3 201.4 92.7C198.5 86.9 196.4 82.4 195.2 78.8C192.8 71.1 191.1 64.2 190.2 57.7C190 55.1 189.7 53.6 189.5 52.9C189.3 51.7 188.5 50.3 187.6 48.8C188.3 46.6 189.3 43.5 190.7 39.4C191.4 38.2 191.7 37.7 192.1 37.7C192.3 37.7 193.1 38.2 194 39.4C197.8 44.7 201 49.7 203.6 53.8C204.8 55.7 205.3 56.9 205.3 57.6C205.3 58.1 205.1 58.3 204.6 58.3C203.6 58.3 201.7 57.6 199.3 55.9C199.1 55.9 198.8 56.1 198.6 56.4C199.6 59.5 201 64.1 202.9 69.6C207.5 82.1 209.6 91.2 209.6 97C209.6 101.8 208.2 106.8 205.8 111.9C202.4 118.9 197.9 122.2 192.4 122.2L192.4 107.6C199 107.6 203.3 105.4 205 101.6L205 101.6L205 101.6L205 101.6L205 101.6ZM39.9 189.2C25.3 189.2 14.5 184.4 7.7 174.3C2.39999 166.9 0 157.3 0 145.5C0 141.9 0.199997 138.3 0.699997 134.9C1.7 129.4 2.89999 124.6 4.3 120.5C4.8 119.3 5.5 118.6 6 118.6C6.5 118.6 6.5 119.3 6.2 121C3.89999 133.2 2.89999 140.2 2.89999 141.6C2.89999 149 5.29999 156 10.3 162.2C17 170.4 26.9 174.4 39.6 174.4C51.1 174.4 63.1 172 75.6 166.7C85.9 162.4 95.3 157.1 103.7 150.9C111.1 145.1 114.7 141.1 114.7 138.7C114.7 131.7 112.5 123.8 108 115.4C107 113.7 106.6 112.3 106.6 111.1C106.6 110.4 107.6 107 109.5 100.8C110 99.8 110.2 99.1 110.7 99.1C111.2 99.1 111.9 100.1 112.6 101.5C116.2 109.2 121.2 113 127 113C130.8 113 133.5 112.8 135.4 112.3C138.3 111.3 141.2 109.4 144 106.3C145.4 104.1 148.1 100.8 151.7 96.5C152.4 95.5 153.1 95.1 154.1 95.1C155.1 95.1 155.5 95.6 155.5 96.8C155.5 97.3 155.3 98.2 154.8 99.4C154.6 100.8 154.3 101.8 154.3 102.5C154.3 103.9 155 105.4 156.7 107.1C158.6 109.3 161 110.5 164.1 110.2C168.7 110.4 173.5 104.7 178.3 93.4001C178.8 92.4001 179.5 92.0001 180 92.0001C181.2 92.0001 181.7 92.7001 181.2 94.4001C181.2 95.4001 181 96.6001 181 97.5001C181 104.2 184.8 107.6 192.5 107.6L192.5 122.2C185.1 122.2 180 118.1 177.4 110.2C177.2 109.5 176.9 109.5 176.4 110.2C173 120 168 125.1 161.3 124.8C158.9 125 156.5 124.1 154.1 122.4C151.2 120.5 149.3 117.8 148.1 114.7C147.9 113.7 147.4 113.7 146.9 114.7C145.5 116.9 143.1 119.5 139.7 121.9C134.9 125.7 130.3 127.4 125.8 127.4C123.6 127.4 121.7 127.2 120 126.7C120 139.4 117.6 148.5 112.6 154.3C106.1 161.7 96.8 168.9 84.3 175.9C68.5 184.8 53.6 189.2 39.9 189.2L39.9 189.2L39.9 189.2L39.9 189.2L39.9 189.2ZM200.2 140.9L204 133C204.2 132.5 204.5 132.3 205 132.3C205.5 132.3 207.4 133.5 211.2 136.1C214.8 138.5 216.7 139.9 216.7 140.4C216.7 142.1 215 145.7 211.9 151C211.4 151.7 210.9 151.7 210.5 151.5C207.4 149.1 203.8 146.7 199.7 144.1C198.3 147 197.1 149.6 195.6 151.8C195.4 152.5 194.9 152.8 194.4 152.5C190.8 149.6 187 147 183.1 144.6C182.9 144.4 182.9 144.1 183.1 143.6L187.7 134C187.9 133.5 188.4 133 188.7 133C189.2 133 190.9 134.2 194 136.4C197.1 138.3 199.3 140 200.2 140.9L200.2 140.9L200.2 140.9L200.2 140.9L200.2 140.9ZM152.2 59.8L156 52.1C156.2 51.4 156.5 51.1 157 51.1C157.5 51.1 159.4 52.3 163.2 54.9C166.8 57.5 168.7 59 168.7 59.5C168.7 61.2 167 64.5 163.9 69.8C163.4 70.5 162.9 70.5 162.5 70.3C159.4 67.9 155.8 65.5 151.7 62.9C150.3 65.8 149.1 68.4 147.6 70.6C147.4 71.3 146.9 71.6 146.4 71.3C142.8 68.4 139 65.8 135.1 63.4C134.9 63.2 134.9 62.9 135.1 62.4L139.7 52.8C139.9 52.3 140.4 51.8 140.7 51.8C141.2 51.8 142.9 53 146 55.2C149.1 57.2 151.3 58.8 152.2 59.8L152.2 59.8L152.2 59.8L152.2 59.8L152.2 59.8ZM139 44.9C138.8 44.7 138.8 44.4 139 43.9L143.8 34.3C144 33.8 144.3 33.6 144.8 33.6C145.3 33.6 147.2 34.8 151 37.2C154.6 39.8 156.5 41.3 156.5 41.8C156.5 43.5 154.8 46.8 151.7 52.1C151.2 52.8 150.7 53.1 150.3 52.6C146.7 50 142.9 47.3 139 44.9L139 44.9L139 44.9L139 44.9L139 44.9ZM279.2 51.9L283 44C283.2 43.5 283.5 43.3 284 43.3C284.5 43.3 286.4 44.5 290.2 47.1C293.8 49.5 295.7 50.9 295.7 51.4C295.7 53.1 294 56.7 290.9 62C290.4 62.7 289.9 62.7 289.5 62.5C286.4 60.1 282.8 57.7 278.7 55.1C277.3 58 276.1 60.6 274.6 62.8C274.4 63.5 273.9 63.8 273.4 63.5C269.8 60.6001 266 58 262.1 55.6001C261.9 55.4 261.9 55.1001 262.1 54.6001L266.7 45C266.9 44.5 267.4 44 267.7 44C268.2 44 269.9 45.2 273 47.4C276.1 49.2 278.2 50.9 279.2 51.9L279.2 51.9L279.2 51.9L279.2 51.9L279.2 51.9ZM278.7 13.2C279.2 11.8 279.2 10.3 278.9 8.89999C278.7 7.5 277.9 6.7 276.7 6.7C276.2 6.7 275.5 6.89999 274.5 7.39999C273.5 7.89999 273.1 8.39999 273.1 8.79999C273.2 10.1 275.1 11.6 278.7 13.2L278.7 13.2L278.7 13.2L278.7 13.2L278.7 13.2ZM275.8 19.5C271.2 17.1 269.1 14.7 269.1 12.1C269.1 9 270.5 6.10001 273.4 3.70001C276.3 1.10001 278.7 0.100006 280.6 0.800018C282.3 1.30002 283 3.00002 283 5.80002C283 8.40002 282.5 11.3 281.3 14.7C283.7 15.9 285.1 17.1 285.6 18.1C285.6 19.3 284.6 21.5 282.5 24.3C282 23.3 280.6 22.1 278.4 20.9C275.8 24.5 272.6 27.6 268.8 30.5C264.2 33.6 260.2 36.3 256.6 37.7C255.6 38.2 251.3 39.9 243.6 42.7C242.4 43.2 241.4 43.4 241.2 43.4C241 43.4 241 43.2 241 43.2C241 43 241.5 42.2 242.9 41.5C248.7 37.9 254.4 34.5 260.4 31.2C267.4 26.9 272.5 23.1 275.8 19.5L275.8 19.5L275.8 19.5L275.8 19.5L275.8 19.5ZM218.7 84.3C232.4 79.5 246.8 74.2 261.9 68.7C262.9 68.5 263.1 68.2 263.3 68.5C263.5 68.5 263.5 69 263.1 69.7C262.4 71.9 261.7 73.1 261.2 73.5C248.2 78.1 233.4 83.8 216.3 91C216.8 88.8 217.5 86.7 218.7 84.3L218.7 84.3L218.7 84.3L218.7 84.3L218.7 84.3ZM216.8 3.2C219.7 3.2 222.1 4.59999 224.2 8C226.4 11.1 228 15.4 228.8 20.7C229 21.2 229 21.4 229 21.7L229.2 21.7C229.2 21.5 229.4 21.2 229.4 20.7C229.9 17.6 231.1 12.8 232.8 6.5C234.7 2.2 236.6 0 238.8 0C240 0 241.2 0.699997 242.2 2.2C243.2 3.59999 243.6 4.59999 243.6 5.59999C243.6 6.09999 243.6 6.99998 243.1 7.99999C242.6 9.39998 242.1 10.2 241.7 10.2C241.5 10.2 241 9.49998 240 8.49998C239.3 7.49999 238.3 7.09999 237.4 7.09999C235.5 7.09999 233.8 11.7 232.1 20.8C231.4 24.9 230.4 27.8 229.7 29.4C229 30.4 228.5 31.1 228 31.1C227.5 31.1 227.5 30.4 227.3 29.4C227.5 27.7 226.6 24.6 224.7 20C222.8 15.2 221.6 13 220.6 13C220.1 13 219.9 13 219.6 13.5C219.4 13.7 219.1 14 218.4 14C217.4 14 216.5 13.3 215 12.1C213.6 10.9 213.1 9.90001 213.1 9.20001C213.1 9.00002 213.6 7.80002 214.8 5.80002C215.8 3.89999 216.5 3.2 216.8 3.2L216.8 3.2L216.8 3.2L216.8 3.2L216.8 3.2ZM243.4 119.3C243.4 119.1 243.6 118.8 243.6 118.8C243.8 118.6 243.8 118.6 243.8 118.8C244 119 244 119.3 243.8 119.5C242.6 126.7 240.4 130.3 237.3 130.3C234.2 130.3 232.7 127.7 232.7 122.4C232.7 115.9 234.4 109 238.2 102C239.2 100.3 239.6 99.4 239.9 99.4L239.9 99.4C239.9 99.6 239.7 100.6 239.2 102.3C236.8 109.7 235.6 114.8 235.6 117.9C235.6 121.7 236.6 123.9 238.7 123.9C240.3 123.9 241.7 122.2 243.4 119.3L243.4 119.3L243.4 119.3L243.4 119.3L243.4 119.3ZM232.9 51.4C232.9 54 231.7 56.9 229.8 60C227.6 63.1 225 66 221.6 68.4C220.2 69.4 219.4 69.8 219.2 69.8L219.2 69.6C219.2 69.4 219.7 68.9 220.6 67.7C226.1 61.7 229 57.9 229 55.7C229 54 228 53.1 226.4 53.1C225.4 53.1 224.5 53.3 223.8 53.8C223.1 54 222.8 54.3 222.6 54.3C222.6 54.3 222.4 54.3 222.4 54.1C222.4 54.1 222.4 53.6 222.6 52.7C223.6 48.6 225.5 46.7 228.8 46.7C231.4 46.6 232.9 48.3 232.9 51.4L232.9 51.4L232.9 51.4L232.9 51.4L232.9 51.4ZM183.7 22.8C183.7 21.6 181.3 19.4 176.3 16.6C174.6 19.5 173.9 22.1 173.9 24.5C173.9 25.9 174.6 26.9 176.1 26.9C177.3 26.9 178.7 26.4 180.4 25.5C182 24.8 183.2 23.8 183.7 22.8L183.7 22.8L183.7 22.8L183.7 22.8L183.7 22.8ZM178.4 3.59999C179.1 2.39999 180.1 1.89999 180.8 1.89999C181.3 1.89999 181.8 2.09999 181.8 2.59999C181.8 2.59999 181.6 2.79999 181.6 3.09999C180.6 5.29999 179.7 7.7 179 10.1C184 13.7 186.4 17.5 186.2 21.1C185.7 25.2 185.2 27.8 184.5 28.8C182.1 31.7 179.5 33.4 176.1 33.4C172.7 33.4 171.3 31.2 171.3 27.4C171.3 26.7 171.3 25.7 171.5 24.8C172.6 17.1 175 10.1 178.4 3.59999L178.4 3.59999L178.4 3.59999L178.4 3.59999L178.4 3.59999ZM95.1 194.4C113.6 187.7 132.8 180.5 152.9 173C153.6 172.8 154.1 172.5 154.3 172.8C154.3 172.8 154.3 173.3 154.1 174C153.1 176.2 152.4 177.4 151.9 177.8C135.1 184 115.2 191.7 92.6 201.1C93.2 199 93.9 196.8 95.1 194.4L95.1 194.4L95.1 194.4L95.1 194.4L95.1 194.4ZM148.9 145C148.9 147.6 147.7 150.5 145.8 153.6C143.6 156.7 141 159.6 137.6 162C136.2 163 135.4 163.4 135.2 163.4L135.2 163.2C135.2 163 135.7 162.5 136.6 161.3C142.1 155.3 145 151.5 145 149.3C145 147.6 144 146.7 142.4 146.7C141.4 146.7 140.5 146.9 139.8 147.4C139.1 147.6 138.8 147.9 138.6 147.9C138.6 147.9 138.4 147.9 138.4 147.7C138.4 147.7 138.4 147.2 138.6 146.3C139.6 142.2 141.5 140.3 144.8 140.3C147.4 140.2 148.9 141.9 148.9 145L148.9 145L148.9 145L148.9 145L148.9 145ZM11.1 109.7C11.1 109.5 11.3 109.2 11.3 109.2C11.5 109 11.5 109 11.5 109.2C11.7 109.4 11.7 109.7 11.5 109.9C10.3 117.1 8.09999 120.7 4.99998 120.7C1.89998 120.7 0.399979 118.1 0.399979 112.8C0.399979 106.3 2.09998 99.4 5.89998 92.4C6.89998 90.7 7.29997 89.8 7.59998 89.8L7.59998 89.8C7.59998 90 7.39998 91 6.89998 92.7C4.49998 100.1 3.29997 105.2 3.29997 108.3C3.29997 112.1 4.29997 114.3 6.39998 114.3C8 114.3 9.39999 112.6 11.1 109.7L11.1 109.7L11.1 109.7L11.1 109.7L11.1 109.7ZM84.1 104.7C84.1 105.2 83.9 106.1 83.4 107.1C83.2 108.5 82.7 109.3 82 109.3C81.8 109.3 81.3 108.6 80.3 107.6C79.6 106.6 78.6 106.2 77.9 106.2C76 106.2 74.1 110.8 72.4 119.9C71.7 124 71 126.9 70 128.5C69.3 129.5 68.8 130.2 68.3 130.2C68.1 130.2 67.8 129.5 67.8 128.5C67.8 126.8 66.8 123.7 64.9 119.1C63 114.3 61.8 112.1 61.1 112.1C60.4 112.1 60.1 112.1 59.9 112.6C59.9 112.8 59.4 113.1 58.7 113.1C57.7 113.1 56.8 112.4 55.3 111.2C54.1 110 53.4 109 53.4 108.3C53.4 108.1 53.9 106.9 55.1 104.9C56.3 103 57 102.3 57.3 102.3C59.9 102.3 62.3 103.7 64.5 107.1C66.9 110.5 68.3 114.5 69.3 119.8C69.3 120.3 69.3 120.5 69.3 120.8C69.5 121 69.5 121 69.5 120.8C69.5 120.6 69.7 120.3 70 119.8C70.2 116.7 71.4 111.9 73.1 105.6C75 101.3 76.9 99.1 79.1 99.1C80.3 99.1 81.5 99.8 82.7 101.3C83.6 102.8 84.1 103.7 84.1 104.7L84.1 104.7L84.1 104.7L84.1 104.7L84.1 104.7ZM68.2 132.3C66.5 136.1 63.2 140 58.1 143.6C53.5 147 49.5 149.4 45.9 151C45.2 151.5 40.9 153.2 32.9 156C31.7 156.5 31 156.7 30.5 156.7C30.3 156.7 30.3 156.5 30.3 156.5C30.3 156.3 31 155.5 32.2 154.8C38.7 151 47.8 145.4 59.8 137.5C62.7 135.3 64.8 133.2 66.5 131.3C68.4 129.1 69.4 127.9 69.6 127.9C69.6 127.9 69.6 127.9 69.6 128.1C69.7 128.4 69.2 129.9 68.2 132.3L68.2 132.3L68.2 132.3L68.2 132.3L68.2 132.3ZM125.6 26.9C125.6 26.7 125.8 26.4 125.8 26.4C126 26.2 126 26.2 126 26.4C126.2 26.6 126.2 26.9 126 27.1C124.8 34.3 122.6 37.9 119.5 37.9C116.4 37.9 114.9 35.3 114.9 30C114.9 23.5 116.6 16.6 120.4 9.60001C121.4 7.90001 121.8 7 122.1 7L122.1 7C122.1 7.2 121.9 8.2 121.4 9.89999C119 17.3 117.8 22.4 117.8 25.5C117.8 29.3 118.8 31.5 120.9 31.5C122.5 31.5 123.9 29.8 125.6 26.9L125.6 26.9L125.6 26.9L125.6 26.9L125.6 26.9ZM63.9 27.9C66.8 27.9 69.2 29.3 71.3 32.7C73.5 35.8 75.1 40.1 75.9 45.4C76.1 45.9 76.1 46.1 76.1 46.4L76.3 46.4C76.3 46.2 76.5 45.9 76.5 45.4C77 42.3 78.2 37.5 79.9 31.2C81.8 26.9 83.7 24.7 85.9 24.7C87.1 24.7 88.3 25.4 89.3 26.9C90.3 28.3 90.7 29.3 90.7 30.3C90.7 30.8 90.7 31.7 90.2 32.7C89.7 34.1 89.2 34.9 88.8 34.9C88.6 34.9 88.1 34.2 87.1 33.2C86.4 32.2 85.4 31.8 84.5 31.8C82.6 31.8 80.9 36.4 79.2 45.5C78.5 49.6 77.5 52.5 76.8 54.1C76.1 55.1 75.6 55.8 75.1 55.8C74.6 55.8 74.6 55.1 74.4 54.1C74.6 52.4 73.7 49.3 71.8 44.7C69.9 39.9 68.7 37.7 67.7 37.7C67.2 37.7 67 37.7 66.7 38.2C66.5 38.4 66.2 38.7 65.5 38.7C64.5 38.7 63.6 38 62.1 36.8C60.7 35.6 60.2 34.6 60.2 33.9C60.2 33.7 60.7 32.5 61.9 30.5C62.9 28.6 63.7 27.9 63.9 27.9L63.9 27.9L63.9 27.9L63.9 27.9L63.9 27.9ZM38.9 67.7C38.9 67.5 39.1 67.2 39.1 67.2C39.3 67 39.3 67 39.3 67.2C39.5 67.4 39.5 67.7 39.3 67.9C38.1 75.1 35.9 78.7 32.8 78.7C29.7 78.7 28.2 76.1 28.2 70.8C28.2 64.3 29.9 57.4 33.7 50.4C34.7 48.7 35.1 47.8 35.4 47.8L35.4 47.8C35.4 48 35.2 49 34.7 50.7C32.3 58.1 31.1 63.2 31.1 66.3C31.1 70.1 32.1 72.3 34.2 72.3C35.8 72.3 37.3 70.6 38.9 67.7L38.9 67.7L38.9 67.7L38.9 67.7L38.9 67.7ZM105.7 70.6C105.7 70.4 105.9 70.1 105.9 70.1C106.1 69.9 106.1 69.9 106.1 70.1C106.3 70.3 106.3 70.6 106.1 70.8C104.9 78 102.7 81.6 99.6 81.6C96.5 81.6 95 79 95 73.7C95 67.2 96.7 60.3 100.5 53.3C101.5 51.6 101.9 50.7 102.2 50.7L102.2 50.7C102.2 50.9 102 51.9 101.5 53.6C99.1 61 97.9 66.1 97.9 69.2C97.9 73 98.9 75.2 101 75.2C102.5 75.2 104 73.5 105.7 70.6L105.7 70.6L105.7 70.6L105.7 70.6L105.7 70.6ZM269.3 174C269.3 176.6 268.1 179.5 266.2 182.6C264 185.7 261.4 188.6 258 191C256.6 192 255.8 192.4 255.6 192.4L255.6 192.2C255.6 192 256.1 191.5 257 190.3C262.5 184.3 265.4 180.5 265.4 178.3C265.4 176.6 264.4 175.7 262.8 175.7C261.8 175.7 260.9 175.9 260.2 176.4C259.5 176.6 259.2 176.9 259 176.9C259 176.9 258.8 176.9 258.8 176.7C258.8 176.7 258.8 176.2 259 175.3C260 171.2 261.9 169.3 265.2 169.3C267.9 169.2 269.3 170.9 269.3 174L269.3 174L269.3 174L269.3 174L269.3 174ZM474.8 110.7C476 109.7 477 109.3 477.7 109.3C478.2 109.3 478.4 109.8 478.4 110.7C478.4 111.4 478.2 112.9 477.7 114.8C477.2 116.7 477 118.2 477 119.4C477 124.7 480.8 127.6 488.3 127.6C494.3 127.6 499.3 125 503.2 119.9C505.6 115.8 508.2 112 510.6 108.1C511.6 107.1 512.3 106.7 513 106.7C514 106.7 514.2 107.7 513.7 109.8C512.7 113.9 512 115.8 512 115.3C512 117 513 118.7 514.9 120.1C516.6 121.5 519 122.5 521.6 122.5C525 122.5 527.1 121.5 528.1 119.9C528.1 119.7 527.1 117.7 525 114.1C525.2 112.2 526.2 108.8 527.6 104.3C527.8 102.9 528.3 102.1 528.8 102.1C529.3 102.1 529.8 102.3 530.5 103.3C532.4 106.2 533.6 109.5 533.6 113.4C533.6 119.4 532.2 124.4 529.5 128.8C526.6 134.1 522.3 136.7 516.5 136.7C512.7 136.7 509.1 133.6 505.9 127.8C500.6 137.4 493.7 142.2 485.3 142.2C475.2 142.2 470.4 136.4 470.4 125.4C466.6 130 460.1 134 451.7 137.9L451.7 124.7C457.9 121.6 462 119.7 463.2 118.9C467.1 116.9 470.9 114 474.8 110.7L474.8 110.7L474.8 110.7L474.8 110.7L474.8 110.7ZM438.1 126.5C434.5 121.9 431.4 119.8 428.5 119.8C424.2 119.8 422.3 120.8 422.3 123.2C422.3 126.1 425.2 127.5 430.9 127.5C433 127.5 435.4 127 438.1 126.5L438.1 126.5L438.1 126.5L438.1 126.5L438.1 126.5ZM445.5 144C445.5 142.6 445 140.9 444.5 139.2C441.6 140.2 437.3 140.9 432 140.9C420.5 140.9 414.7 136.8 414.7 128.9C414.7 122.9 416.4 117.6 420.2 112.8C423.8 108.7 427.6 106.6 431.7 106.6C434.8 106.6 437.9 108.5 441.5 112.1C444.6 115.7 447.5 119.8 449.9 124.8C450.1 124.8 450.6 124.8 451.6 124.3L451.6 137.5L451.1 138C451.1 140.9 450.4 144.2 448.9 148.6C447.2 154.1 444.6 158.7 441.5 162.3C434.3 170.9 426.4 178.4 417.7 184.9C404.7 194.5 393.7 199.5 384.1 199.5C375.9 199.5 369.7 196.4 365.4 190.4C361.6 185.4 359.6 178.6 359.6 170.7C359.6 160.6 361.8 150.3 365.8 139.5C367 137.1 367.5 136.1 368 136.1C368.2 136.1 368.2 136.3 368.2 136.8C368.2 137.5 368 138.7 367.7 140.2C364.6 150.8 363.1 158.7 363.1 164.2C363.1 169.2 364.3 173.6 366.7 177.2C370.5 182.2 376.5 184.9 384.9 184.9C392.1 184.9 400.7 181.8 411.1 175.5C419.3 170.5 427.2 164.5 434.9 157.3C441.9 150.5 445.5 146.2 445.5 144L445.5 144L445.5 144L445.5 144L445.5 144ZM380 107.8C379.5 105.6 378.8 104 377.8 102.8C377.1 101.4 376.6 100.6 376.4 100.2C376.4 99.7 376.4 98 376.9 94.7C377.4 91.6 377.6 89.4 378.1 88.2C378.3 87 378.6 86.5 379.1 86.5C379.3 86.5 379.6 86.7 380.1 87.2C383.5 91 387.1 94.9 391.1 99C392.8 100.7 393.5 101.6 393.5 102.1C393.5 102.3 393.3 102.6 392.8 102.6C392.1 102.6 390.2 102.1 387.3 101.4C389 105.5 390.9 109.6 392.6 113.4C395.2 120.1 396.7 125.6 396.7 130.7C396.7 133.1 396.2 136 395.3 139.6C394.1 143.7 392.7 146.8 390.7 149C383.7 156.9 372 165.6 355.4 174.9C340.9 183.2 332.5 187.2 329.8 187.2C329.3 187.2 322.1 188.9 308.4 192.2C294 195.6 284.9 197.7 281.3 198.2C277.5 198.9 275.1 199.2 274.1 199.2C273.6 199.2 273.6 199.2 273.6 199C273.6 198.8 276.2 197.3 281.5 194.9C283.4 193.9 294.5 189.1 314.9 180.5C329.1 174.5 340.8 169 350.2 163.9C364.4 156.2 375.2 149.5 382.6 144C388.1 139.7 391 136.6 391 134.6C391 134.1 389.6 130.8 386.7 124.5C383.6 117.6 381.2 111.9 380 107.8L380 107.8L380 107.8L380 107.8L380 107.8ZM360.3 74.4C360.3 78.2 358.4 83.5 354.5 90C352.1 94.1 348.5 99.6 343.7 106.8C348.5 112.3 351.9 117.4 353.5 121.7C354.5 124.8 355.2 128.9 355.2 133.5C355.2 135.4 354.7 137.8 353.8 140.9C353.1 143.8 352.1 145.9 351.2 147.4C349.3 150.3 346.2 153.2 341.4 156C336.4 159.4 332 161 328.4 161C322.6 161 319.8 156.7 319.8 148C319.8 142.2 320.8 136.5 322.7 131.2C324.6 126.6 327.7 120.6 332.8 112.7C328.5 108.6 323.9 102.9 318.9 95.7C318.4 95 317.2 93.8 315.3 91.9C314.3 90.9 313.9 89.7 313.9 88.3C313.9 86.1 314.1 83.7 314.6 80.9C315.3 78 315.8 76.8 316 76.8C316.7 76.8 318.9 78 323 80.6C326.8 83.2 330 85.2 331.9 86.8C333.1 87.5 333.6 88.2 333.6 88.2L333.6 88.4C333.6 88.6 332.9 88.9 331.2 88.9C328.1 88.9 326.4 89.1 326.4 89.4C326.4 89.6 326.9 90.1 327.8 91.3C331.6 96.1 335.5 99.7 339.6 102.6C340.6 101.2 343.9 96.4 349.2 88.2C353.8 81.2 356.4 76.4 357.6 73.6C358.8 70.7 359.5 69.5 360 69.5C360.1 69.6 360.3 71.1 360.3 74.4L360.3 74.4L360.3 74.4L360.3 74.4L360.3 74.4ZM350.9 133.5C348.3 128.2 343.7 122.7 337.5 117.4C335.3 119.6 332.7 123.6 329.3 129.4C325.5 135.9 323.8 140 323.8 142.1C323.8 145 325.7 146.4 330 146.4C331.9 146.4 334.3 145.7 337.4 144.5C341.7 142.6 345.8 139.9 349.2 136.6C350.7 135.2 351.2 134.2 350.9 133.5L350.9 133.5L350.9 133.5L350.9 133.5L350.9 133.5ZM337.5 56.4L341.3 48.5C341.5 48 341.8 47.8 342.3 47.8C342.8 47.8 344.7 49 348.5 51.6C352.1 54 354 55.4 354 55.9C354 57.6 352.3 61.2 349.2 66.5C348.7 67.2 348.2 67.2 347.8 67C344.7 64.6 341.1 62.2 337 59.6C335.6 62.5 334.4 65.1 332.9 67.3C332.7 68 332.2 68.3 331.7 68C328.1 65.1001 324.3 62.5 320.4 60.1001C320.2 59.9 320.2 59.6001 320.4 59.1001L325 49.5C325.2 49 325.7 48.5 326 48.5C326.5 48.5 328.2 49.7 331.3 51.9C334.4 53.8 336.5 55.5 337.5 56.4L337.5 56.4L337.5 56.4L337.5 56.4L337.5 56.4ZM464 190.4C461.4 191.1 459.9 191.6 459.4 191.6L459.4 191.4C459.4 191.4 460.4 190.7 462.3 189.5C464.2 188.3 467.1 186.4 471.2 183.3C473.1 181.4 476 178.3 479.6 173.9C482 171 484.6 168.4 487.5 166.5C491.1 163.9 494.5 162.7 498.1 162.7C498.8 162.7 500 162.9 501.5 163.4C502.7 163.9 503.9 164.1 504.9 164.1C506.8 164.1 508.3 163.4 509.5 161.9C510.2 160.5 511.2 159.3 512.1 157.8C512.6 156.8 513.3 156.4 513.8 156.4C514 156.4 514 156.6 514 157.1C514 157.6 513.8 158.8 513.3 160.2C512.8 160.9 514.7 161.2 518.3 161.2C518.8 161.2 519 161.2 519 161C519 161 518.8 160 518.3 158.4C518.1 157.9 518.3 157.2 519 156.2C520 154.5 520.4 153.8 520.7 154C521.7 154.7 522.1 156.2 522.1 157.8C522.1 159.5 521.6 161.2 520.9 163.1C520.2 165.3 519.5 166.5 519 166.9C517.3 167.9 514.7 167.6 511.1 165.9C508.2 168.8 505.3 170.5 502.5 170.5C501.8 170.5 500.6 170.3 499.4 169.8C498.2 169.3 497.2 169.1 496.5 169.1C491.7 169.1 486.7 171.3 481.6 176.1C478 179.7 474.4 183.3 470.8 186.9C468.5 188.4 466.4 189.6 464 190.4L464 190.4L464 190.4L464 190.4L464 190.4ZM412.4 60.8C415.3 60.8 417.7 62.2 419.8 65.6C422 68.7 423.6 73 424.4 78.3C424.6 78.8 424.6 79 424.6 79.3L424.8 79.3C424.8 79.1 425 78.8 425 78.3C425.5 75.2 426.7 70.4 428.4 64.1C430.3 59.8 432.2 57.6 434.4 57.6C435.6 57.6 436.8 58.3 437.8 59.8C438.8 61.2 439.2 62.2 439.2 63.2C439.2 63.7 439.2 64.6 438.7 65.6C438.2 67 437.7 67.8 437.3 67.8C437.1 67.8 436.6 67.1 435.6 66.1C434.9 65.1 433.9 64.7 433 64.7C431.1 64.7 429.4 69.3 427.7 78.4C427 82.5 426 85.4 425.3 87C424.6 88 424.1 88.7 423.6 88.7C423.1 88.7 423.1 88 422.9 87C423.1 85.3 422.2 82.2 420.3 77.6C418.4 72.8 417.2 70.6 416.2 70.6C415.7 70.6 415.5 70.6 415.2 71.1C415 71.3 414.7 71.6 414 71.6C413 71.6 412.1 70.9 410.6 69.7C409.2 68.5 408.7 67.5 408.7 66.8C408.7 66.6 409.2 65.4 410.4 63.4C411.4 61.5 412.1 60.8 412.4 60.8L412.4 60.8L412.4 60.8L412.4 60.8L412.4 60.8ZM371.8 57.6C396 48.5 421.2 39.4 447.2 29.8C447.9 29.6 448.4 29.3 448.4 29.6C448.6 29.6 448.6 30.1 448.4 30.8C447.4 33 446.7 34.2 446.2 34.6C446 34.8 433.7 39.4 410 48.3C385.8 57.2 372.1 62.7 369.4 64.4C369.9 62.2 370.6 60 371.8 57.6L371.8 57.6L371.8 57.6L371.8 57.6L371.8 57.6ZM348.3 13.7C348.8 12.3 348.8 10.8 348.5 9.39999C348.3 8 347.5 7.2 346.3 7.2C345.8 7.2 345.1 7.39999 344.1 7.89999C343.1 8.39999 342.7 8.89999 342.7 9.29999C342.8 10.6 344.7 12 348.3 13.7L348.3 13.7L348.3 13.7L348.3 13.7L348.3 13.7ZM345.4 20C340.8 17.6 338.7 15.2 338.7 12.6C338.7 9.5 340.1 6.60001 343 4.20001C345.9 1.60001 348.3 0.600006 350.2 1.30002C351.9 1.80002 352.6 3.50002 352.6 6.30002C352.6 8.90002 352.1 11.8 350.9 15.2C353.3 16.4 354.7 17.6 355.2 18.6C355.2 19.8 354.2 22 352.1 24.8C351.6 23.8 350.2 22.6 348 21.4C345.4 25 342.2 28.1 338.4 31C333.8 34.1 329.8 36.8 326.2 38.2C325.2 38.7 320.9 40.4 313.2 43.2C312 43.7 311 43.9 310.8 43.9C310.6 43.9 310.6 43.7 310.6 43.7C310.6 43.5 311.1 42.7 312.5 42C318.3 38.4 324 35 330 31.7C337 27.4 342.1 23.6 345.4 20L345.4 20L345.4 20L345.4 20L345.4 20ZM497.1 50C497.6 48.6 497.6 47.1 497.3 45.7C497.1 44.3 496.3 43.5 495.1 43.5C494.6 43.5 493.9 43.7 492.9 44.2C491.9 44.7 491.5 45.2 491.5 45.6C491.6 46.8 493.5 48.3 497.1 50L497.1 50L497.1 50L497.1 50L497.1 50ZM502.4 58.8C500 64.6 498.8 69.1 498.8 72.5C498.8 76.6 499.8 78.7 501.9 78.7C503.1 78.7 504.5 77 506.2 74.1C506.4 73.9 506.4 73.6 506.7 73.4C506.7 73.4 506.9 73.4 506.9 73.6C506.9 73.6 506.9 73.8 506.9 74.3C505.5 81.5 503.3 85.1 500.4 85.1C497.3 85.1 495.8 82.5 495.8 77.2C495.8 74.6 496.3 71.2 497.7 66.9C499.1 62.6001 499.9 60.4 499.9 60.2C499.9 59.7 498.9 58.8 496.8 57.6C493 62.6 487.7 67.4 481 71.5C476.4 74.1 471.9 76.5 467.1 78.5C458.2 82.1 452.9 84 451.7 84.7C450.5 85.2 449.8 85.4 449.3 85.4C449.1 85.4 449.1 85.2 449.1 85.2C449.1 84.7 449.6 84.2 451 83.3C458.7 79 466.1 74.7 473.8 70.3C483.9 64.5 490.8 59.7 494.2 56.1C489.6 53.7 487.5 51.3 487.5 48.7C487.5 45.6 488.9 42.7 491.8 40.1C494.7 37.7 497.1 36.7 499 37.5C500.4 38 501.4 39.7 501.4 42.5C501.4 45.1 500.9 48 499.7 51.1C502.1 52.5 503.1 54 503.1 55.4C503.1 56.2 502.9 57.4 502.4 58.8L502.4 58.8L502.4 58.8L502.4 58.8L502.4 58.8ZM393.2 23.8C393.2 23.6 393.4 23.3 393.4 23.3C393.6 23.1 393.6 23.1 393.6 23.3C393.8 23.5 393.8 23.8 393.6 24C392.4 31.2 390.2 34.8 387.1 34.8C384 34.8 382.5 32.2 382.5 26.9C382.5 20.4 384.2 13.5 388 6.50002C389 4.80002 389.4 3.90001 389.7 3.90001L389.7 3.90001C389.7 4.10001 389.5 5.10001 389 6.8C386.6 14.2 385.4 19.3 385.4 22.4C385.4 26.2 386.4 28.4 388.5 28.4C390.1 28.4 391.5 26.7 393.2 23.8L393.2 23.8L393.2 23.8L393.2 23.8L393.2 23.8Z" id="Group" fill="#595959" stroke="none" clip-path="url(#clip_1)" />
  </g>
</svg>