<?xml version="1.0" encoding="utf-8"?>
<svg width="514.0001px" height="203.99994px" viewBox="0 0 514.0001 203.99994" version="1.1" xmlns:xlink="http://www.w3.org/1999/xlink" xmlns="http://www.w3.org/2000/svg">
  <defs>
    <path d="M514 0L514 0L514 204L0 204L0 0L514 0Z" id="path_1" />
    <clipPath id="clip_1">
      <use xlink:href="#path_1" clip-rule="evenodd" fill-rule="evenodd" />
    </clipPath>
  </defs>
  <g id="Surah_6_of_114_(modified)">
    <path d="M514 0L514 0L514 204L0 204L0 0L514 0Z" id="Surah_6_of_114_(modified)" fill="none" stroke="none" />
    <path d="M209.7 0C209 0 208 0.5 207.3 1.7C204 8.2 201.6 15.1 200.4 22.9C200.2 23.8 200.2 24.8 200.2 25.5C200.2 29.3 201.6 31.5 205 31.5C208.4 31.5 211 29.8 213.4 26.9C214.1 25.9 214.6 23.3 215.1 19.2C215.3 15.6 212.9 11.8 207.9 8.2C208.6 5.8 209.5 3.39999 210.5 1.2C210.5 0.899994 210.7 0.699997 210.7 0.699997C210.7 0.199997 210.2 0 209.7 0ZM266.6 15.1C268.1 18.3 268.8 22.1 268.8 26.9C268.8 31 270 49.9 272.5 83.7999C274.9 117.6 276.1 136.8 276.1 141.6C276.1 146.7 275.9 151.2 275.4 155.3C275.371 155.679 275.342 156.044 275.314 156.393C275.15 158.435 275.029 159.946 275.2 160.8C275.4 161.5 275.7 161.5 276.4 160.3C276.9 159.4 277.3 158.2 278.3 156.5C281.6 147.9 283.3 137.8 283.3 126.5C283.3 122.7 282.4 106.1 280.2 76.6C278 46.9 276.8 32 276.8 31.5C276.8 30.3 277 29.8 277.5 30.5C281.8 35.3 283.7 36.5 283.7 34.3C283.7 33.8 283.7 32.6 283.2 31.4C282.7 29.5 281 24.7 277.9 16.8C275 9.29999 273.3 4.79999 272.6 3.09999C272.1 2.39999 271.9 1.89999 271.4 1.89999C271.2 1.89999 270.9 2.39999 270.7 3.09999C267.8 9.29999 266.6 13.4 266.6 15.1ZM156.2 17.5C156.9 16.8 157.4 15.6 157.9 13.4C158.1 12.5 158.1 12 157.9 12.1C157.683 11.8835 157.259 12.0837 156.588 12.4C156.329 12.5218 156.034 12.6609 155.7 12.8C154.2 13.8 153 14.7 151.6 15.7C149.5 16.9 148 17.4 147.3 17.4C146.3 17.4 145.1 17.2 143.7 16.2C142.2 15.4 141.5 14.7 141.5 14C141.5 13.5 142.2 12.8 143.4 12.1C144.6 11.1 145.6 10.9 146.3 10.9C147.5 10.9 148.4 11.4 148.9 12.6C149.4 13.3 149.7 13.3 149.9 12.8C151.1 10.9 151.6 9.39999 151.6 8C151.6 5.59999 150.7 4.39999 148.5 4.39999C146.1 4.39999 143 6.59999 139.4 10.9C137.5 13.1 136.8 15.2 136.8 17.4C136.8 19.3 138.5 21 142.1 22.2C139.2 24.3 137.7 25.8 137.5 26.5L137 29.6C137 30.1 137 30.1 137.2 30.3C137.7 29.8 138.2 29.5 138.4 29.3C147.6 23 153.6 19.2 156.2 17.5ZM319.2 16.4C319.2 19 321.3 21.4 325.9 23.8C322.5 27.4 317.5 31.2 310.5 35.5C304.5 38.8 298.8 42.2 293 45.8C291.6 46.5 291.1 47.3 291.1 47.5C291.1 47.5 291.1 47.7 291.3 47.7C291.5 47.7 292.5 47.5 293.7 47C301.4 44.2 305.7 42.5 306.7 42C310.3 40.6 314.3 37.9 318.9 34.8C322.7 31.9 325.9 28.8 328.5 25.2C330.7 26.4 332.1 27.6 332.6 28.6C334.7 25.8 335.7 23.6 335.7 22.4C335.2 21.4 333.8 20.2 331.4 19C332.6 15.6 333.1 12.7 333.1 10.1C333.1 7.30002 332.4 5.60002 330.7 5.10002C328.8 4.40001 326.4 5.40001 323.5 8.00002C320.6 10.4 319.2 13.3 319.2 16.4ZM125.2 39.9C119.4 41.5 114.4 42.5 109.6 42.5C104.4 42.5 101.7 41 101.5 38.9C101.5 38.2 101.7 37.2 102.2 36C105.3 30.5 110.1 25.4 116.6 21.1C118 18.7 119 16.5 119 14.1C119 13.1 118.8 12.9 118.3 13.1C117.1 14.3 115.9 15.5 114.5 16.5C112.5 18.4 110.9 19.4 109.9 19.4C107.1 19.4 104.9 18.2 103.7 16.3C103.7 15.6 104.2 14.6 105.4 13.4C106.4 12.2 107.1 11.7 107.8 11.7C109.2 11.7 109.9 12.5 110.4 13.9C110.4 14.1 111.1 13.6 112.1 12.2C113 10.7 113.5 9.79999 113.5 9.29999C113.5 8.29999 113.3 7.59999 112.8 6.89999C112.4 5.89999 111.9 5.7 111.4 5.7C109.5 5.7 107.1 7.3 104 10.7C100.8 14.1 99.4 17 99.4 19.6C99.4 22.5 101.4 24.4 105.2 25.6C100.9 31.1 98.7 36.4 98.7 41.4C98.7 43.3 99.5 45 100.9 46.2C102.4 47.4 104.5 48.1 106.7 48.1C114.4 48.1 120.9 45.7 125.7 41.4C126.9 40.4 127.4 39.9 127.4 39.7C127.4 39.4 126.6 39.4 125.2 39.9ZM329 13.2C329.3 14.6 329.3 16.1 328.8 17.5C325.2 15.8 323.2 14.4 323.2 13.1C323.2 12.7 323.6 12.2 324.6 11.7C325.6 11.2 326.3 11 326.8 11C328 11 328.8 11.8 329 13.2ZM370.7 30.5C370.7 30.5 370.5 30.8 370.5 31C368.8 33.8 367.4 35.5 365.8 35.6C363.7 35.6 362.7 33.4 362.7 29.6C362.7 26.5 363.9 21.4 366.3 14C366.8 12.3 367 11.3 367 11.1C366.7 11.1 366.3 12 365.3 13.7C361.5 20.7 359.8 27.6 359.8 34.1C359.8 39.4 361.3 42 364.4 42C367.5 42 369.7 38.4 370.9 31.2C371.1 31 371.1 30.7 370.9 30.5C370.9 30.4093 370.9 30.3598 370.881 30.3513C370.859 30.3411 370.809 30.3907 370.7 30.5ZM245.8 29.2C246.7 31.9 247.2 34.3 247.2 36.2C247.2 40.5999 248.8 58.5999 252.8 90.7999C256.7 122.7 258.6 143.6 258.6 153.4C258.6 157.9 255.2 163.7 249 170.4C244.2 175.6 239.6 179.7 234.8 182.6C220.1 191.8 209.6 198 203.1 201.6C201.7 202.5 201.2 203.3 201.2 203.5C201.2 204 201.9 204 203.1 204C206.4 203.5 211.7 202.5 218.9 200.6C225.9 198.7 230.9 197.2 233.8 195.8C241.3 192.5 248 186.7 254 178.3C261.5 168 265.3 154.6 265.3 138.5C265.3 131 263.6 113.7 260.5 87.1C257.3 60.4 255.9 44.8 255.9 40.5C255.9 39.3 256.1 38.8 256.6 39.3C260.6 44.1 262.8 45.3 262.8 43.4C262.8 42.6 262.6 41.7 262.1 40C261.4 37.8 259.3 33 255.9 25.8C252.8 19.3 250.7 15.3 249.7 13.1C249.2 12.3 248.7 12.1 248.5 12.1C248.2 12.1 248 12.3 247.5 13.3C247.2 13.8 246.8 15.7 245.8 19.1C244.9 22.5 244.4 24.4 244.4 24.9C244.4 25.1 244.8 26.6 245.8 29.2ZM205.2 14.7C210.2 17.5 212.6 19.7 212.6 20.9C212.1 21.8 210.9 22.8 209.3 23.6C207.6 24.5 206.2 25 205 25C203.5 25 202.8 24 202.8 22.6C202.8 20.2 203.5 17.6 205.2 14.7ZM91.6 172.6C92.8 179.3 95.2 183.9 98.3 186C100.2 187 102.9 187.7 106.5 187.7C113.2 187.7 120.9 185.1 129.3 179.8C126.7 176.9 123.3 174.5 119.5 172.4C116.1 170.5 113.5 169.5 111.8 169.5C108.2 169.5 105.6 170 103.9 171.2C103.2 171.4 102.7 171.7 102.2 171.7C101.7 171.7 101.5 171.5 101.5 170.7C101.5 170.2 101.5 169.7 102 169L106.3 158.9C107 157 111.3 155.3 119.3 153.4C126.7 151.7 133.9 151 140.7 151C153.9 151 164.5 153.9 172.1 159.6C174 161 175 162 175 162.7C175 162.9 174.8 163.9 174.3 164.9L169.7 173.3C165.1 175 158.9 177.6 150.7 181C155.3 185.6 162 187.7 170.4 187.7C174.2 187.7 178.8 186.3 183.6 183.9C188.2 181.5 191 179.3 192.5 177.2C192.7 177 192.7 176.2 192.5 175.5C190.3 171.9 188.2 168.1 186 164.2C182.4 158.2 180.2 153.2 179.3 149.6C179.1 148.6 178.6 147.9 177.4 147.4C176.4 147.2 176 146.4 176.2 145.5L177.6 134C177.8 132.8 178.1 132.1 178.6 132.1C179.1 132.1 179.6 132.6 180.3 133.1L191.6 143.2C193 144.4 193.8 145.4 193.8 146.1C193.8 147.3 191.4 147.3 186.8 146.1C194 157.6 197.6 165.5 197.6 169.9C197.6 181.4 194 190.1 186.8 196.1C181.4 200.2 175.9 202.3 170.4 202.3C163.9 202.3 158.9 201.6 155.3 199.9C150.9 198.2 145.2 194.2 137.7 187.7C128.3 193.9 122.8 197.5 120.7 198.5C116.1 201.1 111.3 202.3 106.5 202.3C101.2 202.3 97.1 201.1 94.3 198.9C90 195.8 87.3 190.3 85.9 181.9C84.9 176.6 84 158.4 82.8 126.7C82.6151 120.451 82.4337 114.674 82.2575 109.368C76.9296 112.161 72.6236 114.848 69.4 117.4C62.2 123.2 54.8 130.1 47.1 138.5C38.5 147.9 33.7 153.1 32.2 154.3C27.4 158.6 22.8 160.8 18.5 160.8C13.5 160.8 9.10002 158.4 5.50002 154.1C1.70001 149.5 1.52588e-05 144 1.52588e-05 137.5C1.52588e-05 128.948 3.17916 118.013 9.70342 104.775C7.75097 103.928 6.79999 101.42 6.79999 97.2C6.79999 90.7 8.49998 83.8 12.3 76.8C13.3 75.1 13.7 74.2 14 74.2C14 74.4 13.8 75.4 13.3 77.1C10.9 84.5 9.69998 89.6 9.69998 92.7C9.69998 96.5 10.7 98.7 12.8 98.7C14.4 98.6 15.8 97 17.5 94.1C17.5 93.9 17.7 93.6 17.7 93.6C17.8093 93.4907 17.8589 93.4411 17.8814 93.4513C17.9 93.4598 17.9 93.5093 17.9 93.6C18.1 93.8 18.1 94.1 17.9 94.3C16.7729 101.062 14.7638 104.649 11.9554 105.06C11.1426 107.61 9.91017 111.133 8.3 115.6C4.90001 124.2 3.5 131.2 3.5 136.2C3.5 140 4.2 143.2 6.10001 145.6C8 148 10.7 149.2 14 149.2C18.8 149.2 23.8 146.8 29.4 142.2C32.5 139.8 37.6 134.5 44.5 126.6C51.6 119.3 57.1 113.8 61.6 110.4C68.4881 104.951 75.2177 100.401 81.8159 96.7216C81.2282 80.7748 80.728 70.7676 80.4 66.7C79.2 56.9 77.3 47.3 74.6 38.4C74.6 36 75.6 32.4 77.5 27.6C78 26.4 78.2 25.9 78.7 25.9C78.9 25.9 79.4 26.4 79.9 27.3C83 33.3 85.2 43.6 86.9 58.3C87.5754 64.4464 88.2052 75.9762 88.8511 93.1049C92.6742 91.3077 96.4553 89.808 100.2 88.6C99.2 87.2 98 84.5 96.4 81.2C95.4 79.5 95.2 77.6 95.2 75.2C95.2 71.4 96.2 68.2 98.1 65.6C100.3 62.2 103.6 60.8 108.2 60.8C111.8 60.8 116.8 63 123.3 67.5C130.3 72.3 133.9 76.1 133.9 79.3C132.7 83.4 131.5 87.2 130.1 90.8C124.6 92.5 117.9 94.6 109.9 97C110.1 101.6 109.7 104 108.5 104C107.8 104 106.8 102.3 105.9 98.7C102.3 100.1 97.3 102.3 90.8 105.2C90.2945 105.431 89.7953 105.662 89.3025 105.892C89.4661 110.809 89.6317 116.078 89.8 121.7C90.7 153.1 91.4 170.2 91.6 172.6ZM153.1 42.5C154.5 43.2 155.7 44.6 156.9 46.3C158.1 48.2 159.3 49.9 160.2 51.7C161.9 54.3 163.8 57 166 59.6C176.6 72.8 194.6 91.5 220 115.5C235.8 130.9 244.7 144.5 246.6 156.3C247.6 163.7 248.3 167.3 248.8 167.3C249.3 167.3 250 163 251 154.1C251.2 152.9 251.2 151.7 251.2 150.7C251.2 138 242.6 122.9 225.3 105.6C188.6 68.9 169.2 48.7 167 44.9C170.6 45.8 173.3 46.3 174.7 46.3C175.9 46.3 176.4 46.1 176.4 45.6C176.4 45.1 175.6 44.2 174.2 43.2L155.7 28.8C154.5 28.1 153.6 27.6 153.1 27.6C152.3 27.6 152.1 28.6 152.1 30.5L152.1 40.1C152.1 41.3 152.4 42 153.1 42.5ZM427.7 33.6C401.7 43.2 376.5 52.3 352.3 61.4C351.1 63.8 350.4 66 349.9 68.2C352.6 66.5 366.3 61 390.5 52.1C414.2 43.2 426.5 38.6 426.7 38.4C427.2 38 427.9 36.8 428.9 34.6C429.1 33.9 429.1 33.4 428.9 33.4C428.9 33.1866 428.647 33.2768 428.249 33.4186C428.088 33.4761 427.902 33.5422 427.7 33.6ZM479.2 76.3C479.2 72.9 480.4 68.4 482.8 62.6C483.3 61.2 483.6 60 483.5 59.2C483.5 57.8 482.5 56.3 480.1 54.9C481.3 51.8 481.8 48.9 481.8 46.3C481.8 43.5 480.8 41.8 479.4 41.3C477.5 40.5 475.1 41.5 472.2 43.9C469.3 46.5 467.9 49.4 467.9 52.5C467.9 55.1 470 57.5 474.6 59.9C471.2 63.5 464.3 68.3 454.2 74.1C446.5 78.5 439.1 82.8 431.4 87.1C430 88 429.5 88.5 429.5 89C429.5 89 429.5 89.2 429.7 89.2C430.2 89.2 430.9 89 432.1 88.5C433.3 87.8 438.6 85.9 447.5 82.3C452.3 80.3 456.8 77.9 461.4 75.3C468.1 71.2 473.4 66.4 477.2 61.4C479.3 62.6 480.3 63.5 480.3 64C480.3 64.2 479.5 66.4 478.1 70.7C476.7 75 476.2 78.4 476.2 81C476.2 86.3 477.7 88.9 480.8 88.9C483.7 88.9 485.9 85.3 487.3 78.1L487.3 77.4C487.3 77.2 487.1 77.2 487.1 77.2C486.8 77.4 486.8 77.7 486.6 77.9C484.9 80.8 483.5 82.5 482.3 82.5C480.2 82.5 479.2 80.4 479.2 76.3ZM46 41.8C47.7 41.8 49.6 42.8 52.2 44.9C54.8 46.8 56.3 48.7 56.5 50.2C56.7 50.7 56.3 51.6 55.5 53.3C54.8 55 54.3 55.7 54.1 55.7C51.7 56.4 49.3 57.1 46.9 57.9C43.8 58.9 41.9 60.1 40.7 61.3C44.1 71.4 45.7 81.2 45.7 91.1C45.7 94 45.2 96.9 44.7 100C44.5 101 44.2 101.4 44 101.7C43.8 101.7 43.8 99.8 43.8 96.4C43.8 90.9 42.8 83.9 41.2 76C39.5 68.1 38.8 63.3 38.8 62.3C38.8 58.2 39.8 55.3 42.2 53.4C43.2 52.7 45.3 51.7 48.2 50.8C47 49.6 45.8 49.1 44.6 49.1C44.1 49.1 43.4 49.6 42.4 50.8C41.4 52.2 40.7 52.7 40.7 52.7C40.5 52.7 40.2 52.2 40.5 51.3C41.2 44.9 43.2 41.8 46 41.8ZM222.4 65.7C222.4 65.7 222.2 66 222.2 66.2C220.5 69.1 219.1 70.8 217.5 70.8C215.4 70.8 214.4 68.6 214.4 64.8C214.4 61.7 215.6 56.6 218 49.2C218.5 47.5 218.7 46.5 218.7 46.3C218.4 46.3 218 47.2 217 48.9C213.2 55.9 211.5 62.8 211.5 69.3C211.5 74.6 213 77.2 216.1 77.2C219.2 77.2 221.4 73.6 222.6 66.4C222.8 66.2 222.8 65.9 222.6 65.7C222.6 65.6093 222.6 65.5598 222.581 65.5513C222.559 65.5411 222.51 65.5905 222.4 65.6998L222.4 65.7ZM477.8 49.5C478.1 50.9 478.1 52.4 477.6 53.8C474 52.1 472 50.6 472 49.4C472 49 472.4 48.5 473.4 48C474.4 47.5 475.1 47.3 475.6 47.3C476.8 47.3 477.6 48.1 477.8 49.5ZM321.8 52.3L318 60.2C317 59.3 314.8 57.6 311.8 55.7C308.7 53.5001 307 52.3 306.5 52.3C306.2 52.3 305.7 52.8 305.5 53.3L300.9 62.9001C300.7 63.4001 300.7 63.7 300.9 63.9001C304.8 66.3 308.6 68.9001 312.2 71.8C312.7 72.1 313.2 71.8 313.4 71.1C314.9 68.9 316.1 66.3 317.5 63.4C321.6 66 325.2 68.4 328.3 70.8C328.7 71 329.2 71 329.7 70.3C332.8 65 334.5 61.4 334.5 59.7C334.5 59.2 332.6 57.8 329 55.4C325.2 52.8 323.3 51.6 322.8 51.6C322.3 51.6 322 51.8 321.8 52.3ZM154.8 57.3C154.1 57.3 153.1 57.8 152.4 59C149 65.5 146.6 72.5 145.5 80.2C145.3 81.1 145.3 82.1 145.3 82.8C145.3 86.6 146.7 88.8 150.1 88.8C153.5 88.8 156.1 87.1 158.5 84.2C159.2 83.2 159.7 80.6 160.2 76.5C160.4 72.9 158 69.1 153 65.5C153.7 63.1 154.6 60.7 155.6 58.5C155.6 58.2 155.8 58 155.8 58C155.8 57.5 155.3 57.3 154.8 57.3ZM400.5 69.4C398.4 66 396 64.6 393.1 64.6C392.8 64.6 392.1 65.3 391.1 67.2C389.9 69.2 389.4 70.4 389.4 70.6C389.4 71.3 389.9 72.3 391.3 73.5C392.8 74.7 393.7 75.4 394.7 75.4C395.4 75.4 395.7 75.1 395.9 74.9C396.2 74.4 396.4 74.4 396.9 74.4C397.9 74.4 399.1 76.6 401 81.4C402.9 86 403.8 89.1 403.6 90.8C403.8 91.8 403.8 92.5 404.3 92.5C404.8 92.5 405.3 91.8 406 90.8C406.7 89.2 407.7 86.3 408.4 82.2C410.1 73.1 411.8 68.5 413.7 68.5C414.6 68.5 415.6 68.9 416.3 69.9C417.3 70.9 417.8 71.6 418 71.6C418.4 71.6 418.9 70.8 419.4 69.4C419.9 68.4 419.9 67.5 419.9 67C419.9 66 419.5 65 418.5 63.6C417.5 62.1 416.3 61.4 415.1 61.4C412.9 61.4 411 63.6 409.1 67.9C407.4 74.2 406.2 79 405.7 82.1C405.7 82.6 405.5 82.9 405.5 83.1L405.3 83.1C405.3 82.8 405.3 82.6 405.1 82.1C404.3 76.8 402.7 72.5 400.5 69.4ZM150.2 72C155.2 74.8 157.6 77 157.6 78.2C157.2 79.2 156 80.2 154.3 80.9C152.6 81.8 151.2 82.3 150 82.3C148.5 82.3 147.8 81.3 147.8 79.9C147.8 77.5 148.5 74.9 150.2 72ZM335 93.8C338.9 87.3 340.8 82 340.8 78.2C340.8 75.3893 340.582 73.8844 340.518 73.4381C340.507 73.3604 340.5 73.3148 340.5 73.3C340 73.3 339.3 74.5 338.1 77.4C336.9 80.2 334.3 85 329.7 92C324.4 100.2 321.1 105 320.1 106.4C316 103.5 312.1 99.9 308.3 95.1C307.4 93.9 306.9 93.4 306.9 93.2C306.9 92.9 308.6 92.7 311.7 92.7C313.4 92.7 314.1 92.4 314.1 92.2L314.1 92C314.1 92 313.6 91.3 312.4 90.6C310.5 89 307.3 87 303.5 84.4C299.4 81.8 297.2 80.6 296.5 80.6C296.3 80.6 295.8 81.8 295.1 84.7C294.6 87.5 294.4 89.9 294.4 92.1C294.4 93.5 294.8 94.7 295.8 95.7C297.7 97.6 298.9 98.8 299.4 99.5C304.4 106.7 309 112.4 313.3 116.5C308.2 124.4 305.1 130.4 303.2 135C301.3 140.3 300.3 146 300.3 151.8C300.3 160.5 303.1 164.8 308.9 164.8C312.5 164.8 316.9 163.2 321.9 159.8C326.7 157 329.8 154.1 331.7 151.2C332.6 149.7 333.6 147.6 334.3 144.7C335.2 141.6 335.7 139.2 335.7 137.3C335.7 132.7 335 128.6 334 125.5C332.4 121.2 329 116.1 324.2 110.6C329 103.4 332.6 97.9 335 93.8ZM111.6 76.8C116.1 78.8 118.3 80.4 118.3 81.4C116.4 82.6 112.3 84 105.5 86.1C102.9 81.1 101.2 77.5 100.5 75.3C100.3 75.1 100.5 74.8 101.5 74.6C103.7 74.2 107 74.9 111.6 76.8ZM360.4 111.6C359.9 109.4 359.2 107.8 358.2 106.6C357.5 105.2 357 104.4 356.8 104C356.8 103.5 356.8 101.8 357.3 98.5C357.8 95.4 358 93.2 358.5 92C358.7 90.8 359 90.3 359.5 90.3C359.7 90.3 360 90.5 360.5 91C363.9 94.8 367.5 98.7 371.5 102.8C373.2 104.5 373.9 105.4 373.9 105.9C373.9 106.1 373.7 106.4 373.2 106.4C372.5 106.4 370.6 105.9 367.7 105.2C369.4 109.3 371.3 113.4 373 117.2C375.6 123.9 377.1 129.4 377.1 134.5C377.1 136.9 376.6 139.8 375.7 143.4C374.5 147.5 373.1 150.6 371.1 152.8C365.337 159.304 356.387 166.351 344.14 173.828C344.71 176.589 345.73 179.094 347.2 181.3C351 186.3 357 189 365.4 189C372.6 189 381.2 185.9 391.6 179.6C399.8 174.6 407.7 168.6 415.4 161.4C422.4 154.6 426 150.2 426 148.1C426 146.7 425.5 145 425 143.3C422.1 144.3 417.8 145 412.5 145C401 145 395.2 140.9 395.2 133C395.2 127 396.9 121.7 400.7 116.9C404.3 112.8 408.1 110.7 412.2 110.7C415.3 110.7 418.4 112.6 422 116.2C425.1 119.8 428 123.9 430.4 128.9C430.6 128.9 431.1 128.9 432.1 128.4L432.1 141.6L431.6 142.1C431.6 145 430.9 148.3 429.4 152.7C427.7 158.2 425.1 162.8 422 166.4C414.8 175 406.9 182.5 398.2 189C385.2 198.6 374.2 203.6 364.6 203.6C356.4 203.6 350.2 200.5 345.9 194.5C342.331 189.804 340.35 183.52 340.122 176.228C338.72 177.047 337.28 177.871 335.8 178.7C321.4 187.1 313 191.2 310.4 191.2C309.9 191.2 302.7 192.9 289 196.2C274.6 199.6 265.5 201.7 261.9 202.2C258.1 202.9 255.7 203.2 254.7 203.2C254.2 203.2 254.2 203.2 254.2 203C254.2 202.8 256.8 201.3 262.1 198.9C264 197.9 275.1 193.1 295.5 184.5C309.7 178.5 321.4 173 330.8 167.9C334.501 165.893 337.971 163.954 341.211 162.086C342.239 156.055 343.962 149.913 346.3 143.6C347.5 141.2 348 140.2 348.5 140.2C348.7 140.2 348.7 140.4 348.7 140.9C348.7 141.6 348.5 142.8 348.2 144.3C346.38 150.525 345.111 155.819 344.374 160.242C352.096 155.688 358.372 151.588 363.2 148C368.7 143.7 371.6 140.6 371.6 138.6C371.6 138.1 370.2 134.8 367.3 128.5C364 121.4 361.6 115.7 360.4 111.6ZM163.6 106C163.4 106.5 163.4 106.8 163.6 107C167.5 109.4 171.3 112.1 175 114.9C175.49 115.194 175.692 114.911 176.171 114.24L176.2 114.2C179.5 108.9 181.2 105.6 181.2 103.9C181.2 103.4 179.2 101.9 175.4 99.3C171.8 96.9 169.7 95.7 169.2 95.7C168.9 95.7 168.4 95.9 168.2 96.4L163.6 106ZM455.2 114.7C456.4 113.7 457.4 113.3 458.1 113.3C458.6 113.3 458.8 113.8 458.8 114.7C458.8 115.4 458.6 116.9 458.1 118.8C457.6 120.7 457.4 122.2 457.4 123.4C457.4 128.7 461.2 131.6 468.7 131.6C474.7 131.6 479.7 129 483.6 123.9C486 119.8 488.6 116 491 112.1C492 111.1 492.7 110.7 493.4 110.7C494.4 110.7 494.6 111.7 494.1 113.8C493.1 117.9 492.4 119.8 492.4 119.3C492.4 121 493.4 122.7 495.3 124.1C497 125.5 499.4 126.5 502 126.5C505.4 126.5 507.5 125.5 508.5 123.9C508.5 123.7 507.5 121.7 505.4 118.1C505.6 116.2 506.6 112.8 508 108.3C508.2 106.9 508.7 106.1 509.2 106.1C509.7 106.1 510.2 106.3 510.9 107.3C512.8 110.2 514 113.5 514 117.4C514 123.4 512.6 128.4 509.9 132.8C507 138.1 502.7 140.7 496.9 140.7C493.1 140.7 489.5 137.6 486.3 131.8C481 141.4 474.1 146.2 465.7 146.2C455.6 146.2 450.8 140.4 450.8 129.4C447 134 440.5 138 432.1 141.9L432.1 128.7C438.3 125.6 442.4 123.7 443.6 122.9C447.6 121 451.4 118.1 455.2 114.7ZM157.1 117.3C137 124.8 117.8 132 99.3 138.7C98.1 141.1 97.4 143.3 96.8 145.4C119.4 136 139.3 128.3 156.1 122.1C156.6 121.7 157.3 120.5 158.3 118.3C158.5 117.6 158.5 117.1 158.5 117.1C158.351 116.876 158.035 116.986 157.594 117.139C157.444 117.192 157.278 117.249 157.1 117.3ZM318 121.2C324.2 126.5 328.8 132 331.4 137.3C331.6 138 331.2 139 329.7 140.4C326.3 143.7 322.2 146.4 317.9 148.3C314.8 149.5 312.4 150.2 310.5 150.2C306.2 150.2 304.3 148.8 304.3 145.9C304.3 143.8 306 139.7 309.8 133.2C313.2 127.4 315.8 123.4 318 121.2ZM408.9 123.9C411.8 123.9 414.9 126 418.5 130.6C415.9 131 413.5 131.5 411.3 131.6C405.6 131.6 402.7 130.2 402.7 127.3C402.7 124.9 404.6 123.9 408.9 123.9ZM217.8 146.9C217.8 146.9 217.6 147.2 217.6 147.4C216 150.2 214.5 151.9 212.9 152C210.8 152 209.8 149.8 209.8 146C209.8 142.9 211 137.8 213.4 130.4C213.9 128.7 214.1 127.7 214.1 127.5C213.8 127.5 213.4 128.4 212.4 130.1C208.6 137.1 206.9 144 206.9 150.5C206.9 155.8 208.4 158.4 211.5 158.4C214.6 158.4 216.8 154.8 218 147.6C218.2 147.4 218.2 147.1 218 146.9C218 146.809 218 146.76 217.981 146.751C217.959 146.741 217.909 146.791 217.8 146.9ZM69.8 148C71.7 144.9 72.9 142 72.9 139.4C72.9 136.3 71.5 134.6 68.8 134.7C65.5 134.7 63.6 136.6 62.6 140.7C62.4 141.6 62.4 142.1 62.4 142.1C62.4 142.3 62.6 142.3 62.6 142.3C62.8 142.3 63.1 142 63.8 141.8C64.5 141.3 65.4 141.1 66.4 141.1C68 141.1 69 142 69 143.7C69 145.9 66.1 149.7 60.6 155.7C59.7 156.9 59.2 157.4 59.2 157.6L59.2 157.8C59.4 157.8 60.2 157.4 61.6 156.4C65 154 67.6 151.1 69.8 148ZM439.8 195.4C440.3 195.4 441.8 194.9 444.4 194.2C446.8 193.4 449 192.2 451.2 190.7L462 179.9C467.1 175.1 472.1 172.9 476.9 172.9C477.6 172.9 478.6 173.1 479.8 173.6C481 174.1 482.2 174.3 482.9 174.3C485.7 174.3 488.6 172.6 491.5 169.7C495.1 171.4 497.7 171.7 499.4 170.7C499.9 170.3 500.6 169.1 501.3 166.9C502 165 502.5 163.3 502.5 161.6C502.5 160 502.1 158.5 501.1 157.8C500.808 157.605 500.422 158.263 499.48 159.864L499.4 160C498.7 161 498.5 161.7 498.7 162.2C499.2 163.8 499.4 164.8 499.4 164.8C499.4 165 499.2 165 498.7 165C495.1 165 493.2 164.7 493.7 164C494.2 162.6 494.4 161.4 494.4 160.9C494.4 160.4 494.4 160.2 494.2 160.2C493.7 160.2 493 160.6 492.5 161.6C491.6 163.1 490.6 164.3 489.9 165.7C488.7 167.2 487.2 167.9 485.3 167.9C484.3 167.9 483.1 167.7 481.9 167.2C480.4 166.7 479.2 166.5 478.5 166.5C474.9 166.5 471.5 167.7 467.9 170.3C465 172.2 462.4 174.8 460 177.7C456.4 182.1 453.5 185.2 451.6 187.1C447.5 190.2 444.6 192.1 442.7 193.3C440.8 194.5 439.8 195.2 439.8 195.2L439.8 195.4ZM138.4 164.2C145.9 164.4 151.2 165.4 153.8 167.3C149.5 169 145.2 171.1 141.3 173.3C139.2 170.9 135.8 168 131 164.9C133.1 164.4 135.8 164.4 138.4 164.2ZM64.8 171.4C53.7 175.2 43.4 179 33.8 182.4C32.6 184.8 31.9 187 31.5 189.2C43.7 183.6 54.5 179.6 64.1 176.2C64.6 175.8 65.3 174.6 66 172.4C66.4 171.7 66.4 171.2 66.2 171.2C66.077 171.016 65.954 171.058 65.6451 171.164C65.4516 171.231 65.1851 171.323 64.8 171.4Z" id="Group" fill="#595959" fill-rule="evenodd" stroke="none" clip-path="url(#clip_1)" />
  </g>
</svg>