<?xml version="1.0" encoding="utf-8"?>
<svg width="639.0001px" height="207.50005px" viewBox="0 0 639.0001 207.50005" version="1.1" xmlns:xlink="http://www.w3.org/1999/xlink" xmlns="http://www.w3.org/2000/svg">
  <defs>
    <path d="M639 0L639 0L639 207.5L0 207.5L0 0L639 0Z" id="path_1" />
    <clipPath id="clip_1">
      <use xlink:href="#path_1" clip-rule="evenodd" fill-rule="evenodd" />
    </clipPath>
  </defs>
  <g id="Surah_63_of_114_(modified)">
    <path d="M639 0L639 0L639 207.5L0 207.5L0 0L639 0Z" id="Surah_63_of_114_(modified)" fill="none" stroke="none" />
    <path d="M396.4 30.1C396.4 25.3 395.7 21.5 394.2 18.3C394.2 16.6 395.4 12.5 398.3 6.29999C398.5 5.59999 398.8 5.09999 399 5.09999C399.5 5.09999 399.7 5.59999 400.2 6.29999C400.9 7.99998 402.6 12.5 405.5 20C408.6 27.9 410.3 32.7 410.8 34.6C411.3 35.8 411.3 37 411.3 37.5C411.3 39.7 409.4 38.5 405.1 33.7C404.6 33 404.4 33.5 404.4 34.7C404.4 35.2 405.6 50.1 407.8 79.8C410 109.3 410.9 125.9 410.9 129.7C410.9 141 409.2 151.1 405.9 159.7C404.9 161.4 404.5 162.6 404 163.5L404 163.5C403.3 164.7 403 164.7 402.8 164C402.6 163 402.8 161.1 403 158.5C403.5 154.4 403.7 149.9 403.7 144.8C403.7 140 402.5 120.8 400.1 86.9999C397.6 53.1 396.4 34.2 396.4 30.1L396.4 30.1L396.4 30.1L396.4 30.1L396.4 30.1ZM386.8 120.8C386.8 135 384.2 146 379.1 154.2C374.8 160.9 369.7 164.5 364 164.5L364 149.9C368.6 149.9 373.1 148 377.4 144.4C378.6 143.4 379.3 139.4 379.3 132.6C379.3 128.5 378.1 112 375.9 83.2C373.7 54.4 372.8 37.4 372.8 32.1C372.8 27.5 372.1 23.7 370.6 20.6C370.6 18.9 372 14.8 374.7 8.39999C374.9 7.7 375.2 7.39999 375.7 7.39999C375.9 7.39999 376.2 7.59999 376.7 8.59999C377.4 10.3 379.3 14.8 382.2 22.3C385.1 30.2 386.8 35 387.5 36.7C387.7 38.1 388 39.3 388 39.8C388 42 385.8 40.8 381.8 36C381.3 35.5 381.1 35.8 381.1 37C381.1 37.2 382.1 50.2 384 75.6C385.8 100.6 386.8 115.8 386.8 120.8L386.8 120.8L386.8 120.8L386.8 120.8L386.8 120.8ZM364 164.2C364.7 166.4 365.2 169.2 365.2 172.4C365.2 176.2 364.5 179.6 363.3 182.5C362.6 183.9 362.1 184.9 361.4 184.9C360.4 184.9 359.2 184.2 357.3 183.2C351.5 179.8 347.5 175.8 345.3 171C344.1 168.4 343.1 163.8 342.7 158C342.5 157 342.5 156.3 342.2 156.3C341.7 156.3 341.2 157 340.8 158C338.4 160.6 336 163.5 333.6 166.6C329.3 170.4 324.5 172.6 319 172.6L319 157.7C326 157.7 331.5 156 336 152.7C337 152 339.4 149.3 343 145.3C344.4 143.4 345.6 142.7 346.6 142.7C347.1 142.7 347.8 142.9 348.8 143.7C351.7 146.1 353.6 147.5 354.6 148C357 149.2 360.1 149.7 364.2 149.7L364.2 164.2L364 164.2L364 164.2L364 164.2ZM360.2 171.7C360.2 169.5 359.2 167.4 357.1 165C354.9 162.6 352.5 161.2 350.4 160.4C350.4 162.8 351.6 165.2 354 167.6C356.1 170.2 358.2 171.7 360.2 171.7L360.2 171.7L360.2 171.7L360.2 171.7L360.2 171.7ZM318.9 172.6C310.3 172.6 305.7 167.6 305.2 157.5C305.2 157 305 156.8 304.5 156.5C303.8 156.7 303.1 157 302.3 157.9C297.3 163.7 294.1 167 292.7 168.2C286.5 173.7 280 176.4 273.3 176.4L273.3 161.8C280.3 161.8 286.5 159.9 292 156C294.2 154.6 299 150 306.6 142.3C307.3 141.6 308.3 141.1 309.2 141.1C310.1 141.1 310.4 141.6 310.4 142.5C310.4 143 310.4 143.7 310.2 144.7C310 145.7 310 146.4 310 146.9C310 149.8 310.5 152.2 311.9 154.1C313.3 156.5 315.7 157.9 318.9 157.9L318.9 172.6L318.9 172.6L318.9 172.6L318.9 172.6ZM258.4 146.7C259.6 153.4 262 158 265.1 160.1C267 161.1 269.7 161.8 273.3 161.8L273.3 176.4C268 176.4 263.9 175.2 261.1 173C256.8 169.9 254.1 164.4 252.7 156C251.7 150.7 250.8 132.5 249.6 100.8C248.6 67 247.7 47 247.2 40.8C246 31 244.1 21.4 241.4 12.5C241.4 10.1 242.4 6.5 244.3 1.7C244.8 0.5 245 0 245.5 0C245.7 0 246.2 0.5 246.7 1.39999C249.8 7.39999 252 17.7 253.7 32.4C254.7 41.5 255.6 62.4 256.6 95.8C257.4 127.3 258.2 144.3 258.4 146.7L258.4 146.7L258.4 146.7L258.4 146.7L258.4 146.7ZM244 117.4C244 126.5 241.1 134 235.6 139.7C226 149.3 214.5 154.1 201 154.1L201 139.5C206.8 139.5 213.5 138.1 221.2 135.2C229.4 132.3 235.4 129 239.7 124.9C239.7 122.5 238 120.3 234.4 118.7C231 117 227.7 116.3 224.1 116.3L214.5 116.3C210.9 116.3 208 115.1 205.9 112.7C203.7 110.3 202.8 107.4 202.8 103.8C202.8 98.8 204.5 93.7 208.1 88.4C211.5 83.4 215.1 81 218.7 81C224.7 81 230.5 84.4 235.7 91.1C241.1 98.5 244 107.1 244 117.4L244 117.4L244 117.4L244 117.4L244 117.4ZM228.4 102.8C225 97.5 221 94.9 216.6 94.9C213.5 94.9 211.8 95.9 211.8 98C211.8 100.2 213.7 101.6 217.8 102.1C220 102.1 223.6 102.3 228.4 102.8L228.4 102.8L228.4 102.8L228.4 102.8L228.4 102.8ZM201 154.2C195.5 154.2 190 151.8 184.2 147C181.3 144.6 178.9 141.7 177.2 138.8L161.1 145.8L161.1 132.6L172.9 127.6C171.2 122.8 170.5 118 170.5 113.2C170.5 106 171.5 100 173.6 95.7C175.8 91.1 178.6 89 182.2 89C185.3 89 188.4 91.6 191.1 96.8999C193.7 101.5 194.9 105.8 194.9 109.6C194.9 119.2 192 127.1 186.5 133.4C190.3 137.5 195.1 139.6 200.9 139.6L200.9 154.2L201 154.2L201 154.2L201 154.2ZM191.2 115.8C191.2 114.1 190 111.7 187.6 108.4C185 104.8 182.6 102.9 180.4 102.9C179 102.9 177.5 103.9 176.1 105.8C174.4 107.7 173.7 109.4 173.7 111.1C173.7 112.5 174.7 114.9 176.1 118.5C177.5 121.6 178.7 123.5 179.5 124.7C181.7 123.7 183.8 122.3 186.5 120.4C189.8 118.2 191.2 116.7 191.2 115.8L191.2 115.8L191.2 115.8L191.2 115.8L191.2 115.8ZM147.5 134.5C143.9 129.9 140.8 127.8 137.9 127.8C133.6 127.8 131.7 128.8 131.7 131.2C131.7 134.1 134.6 135.5 140.3 135.5C142.5 135.4 144.9 135 147.5 134.5L147.5 134.5L147.5 134.5L147.5 134.5L147.5 134.5ZM155 152C155 150.6 154.5 148.9 154 147.2C151.1 148.2 146.8 148.9 141.5 148.9C130 148.9 124.2 144.8 124.2 136.9C124.2 130.9 125.9 125.6 129.7 120.8C133.3 116.7 137.1 114.6 141.2 114.6C144.3 114.6 147.4 116.5 151 120.1C154.1 123.7 157 127.8 159.4 132.8C159.6 132.8 160.1 132.8 161.1 132.3L161.1 145.5L160.6 146C160.6 148.9 159.9 152.2 158.4 156.6C156.7 162.1 154.1 166.7 151 170.3C143.8 178.9 135.9 186.4 127.2 192.9C114.2 202.5 103.2 207.5 93.6 207.5C85.4 207.5 79.2 204.4 74.9 198.4C71.1 193.4 69.1 186.6 69.1 178.7C69.1 168.6 71.3 158.3 75.3 147.5C76.5 145.1 77 144.1 77.5 144.1C77.7 144.1 77.7 144.3 77.7 144.8C77.7 145.5 77.5 146.7 77.2 148.2C74.1 158.8 72.6 166.7 72.6 172.2C72.6 177.2 73.8 181.6 76.2 185.2C80 190.2 86 192.9 94.4 192.9C101.6 192.9 110.2 189.8 120.6 183.5C128.8 178.5 136.7 172.5 144.4 165.3C151.4 158.5 155 154.2 155 152L155 152L155 152L155 152L155 152ZM119 100.4C119 109.5 116.8 116.5 112.8 121.3C106.3 128.7 96.7 135.9 84.2 143.1C68.4 151.7 53.7 156.3 39.8 156.3C21.6 156.3 8.80001 147.2 1.90001 129.2C0.500008 125.6 7.62939e-06 121.3 7.62939e-06 115.8C7.62939e-06 112.2 0.200005 108.6 0.700005 104.8C1.7 99.3 2.9 94.5 4.3 90.4C5 89.2 5.5 88.5 6 88.5C6.5 88.5 6.5 89.5 6.2 91.1C5.5 93.5 5 96.1 4.5 98.5C3.5 103.1 3.1 106.4 3.1 108.6C3.1 116 5.5 122.8 10.5 129.2C17.2 137.4 27.1 141.7 39.8 141.7C51.1 141.7 63.1 139.1 75.6 133.8C85.9 129.5 95 124.2 103.2 118C110.4 112.2 114.2 108.2 114.2 105.8C114.2 105.3 112.5 102.2 109.4 96.2C105.8 89.2 103.2 82.3 101.5 75.6C100.8 73.4 99.8 72 99.1 71.3C98.1 70.3 97.7 69.6 97.7 68.7C97.7 68 98.4 64.4 99.6 57.9C99.8 56.7 100.1 56.2 100.6 56.2C101.1 56.2 101.6 56.4 102 56.9C103.9 59.1001 108 63.1001 114 69.1001C115 70.1001 115.4 70.8001 115.4 71.5C115.4 72.2001 114.9 72.5 113.7 72.5C112.5 72.5 110.6 72 107.9 71.3C108.1 72 110.3 76.3 114.1 84.3C117.3 90.3 119 95.8 119 100.4L119 100.4L119 100.4L119 100.4L119 100.4ZM209.2 58.9C209 58.7 209 58.4 209.2 57.9L213.8 48.3C214 47.8 214.5 47.6 214.8 47.6C215.3 47.6 217.4 48.8 221 51.2C224.8 53.8 226.8 55.3 226.8 55.8C226.8 57.5 225.1 60.8 221.8 66.1C221.3 66.8 221.1 67.1 220.6 66.8C216.9 63.9 213 61.3 209.2 58.9L209.2 58.9L209.2 58.9L209.2 58.9L209.2 58.9ZM178 63L181.8 55.1C182 54.6 182.3 54.4 182.8 54.4C183.3 54.4 185.2 55.6 189 58.2C192.6 60.6 194.5 62 194.5 62.5C194.5 64.2 192.8 67.7999 189.7 73.1C189.2 73.8 188.7 73.8 188.3 73.6C185.2 71.2 181.6 68.8 177.5 66.2C176.1 69.1 174.9 71.7 173.4 73.9C173.2 74.6 172.7 74.9 172.2 74.6C168.6 71.7 164.8 69.1 160.9 66.7C160.7 66.5 160.7 66.2 160.9 65.7L165.5 56.1C165.7 55.6 166.2 55.1 166.5 55.1C167 55.1 168.7 56.3 171.8 58.5C174.9 60.3 177 62 178 63L178 63L178 63L178 63L178 63ZM41.4 57C41.2 56.8 41.2 56.5 41.4 56L46 46.4C46.2 45.9 46.7 45.7 47 45.7C47.5 45.7 49.6 46.9 53.2 49.3C57 51.9 59 53.4 59 53.9C59 55.6 57.3 58.9 54 64.2C53.5 64.9 53.3 65.2 52.8 64.9C49.1 62 45.3 59.4 41.4 57L41.4 57L41.4 57L41.4 57L41.4 57ZM295.8 111C295.6 110.8 295.6 110.5 295.8 110L300.4 100.4C300.6 99.9 301.1 99.7 301.4 99.7C301.9 99.7 304 100.9 307.6 103.3C311.4 105.9 313.4 107.4 313.4 107.9C313.4 109.6 311.7 112.9 308.4 118.2C307.9 118.9 307.7 119.2 307.2 118.9C303.5 116 299.7 113.4 295.8 111L295.8 111L295.8 111L295.8 111L295.8 111ZM12.9 79C12.9 78.8 13.1 78.5 13.1 78.5C13.3 78.3 13.3 78.3 13.3 78.5C13.5 78.7 13.5 79 13.3 79.2C12.1 86.4 9.90001 90 6.80001 90C3.70001 90 2.20001 87.4 2.20001 82.1C2.20001 75.6 3.90001 68.7 7.70001 61.7C8.70001 60 9.10001 59.1 9.40001 59.1L9.40001 59.1C9.40001 59.3 9.20001 60.3 8.70001 62C6.30001 69.4 5.10001 74.5 5.10001 77.6C5.10001 81.4 6.10001 83.6 8.20001 83.6C9.80002 83.6 11.2 81.9 12.9 79L12.9 79L12.9 79L12.9 79L12.9 79ZM346 26.7C346 25.5 343.6 23.3 338.6 20.5C336.9 23.4 336.2 26 336.2 28.4C336.2 29.8 336.9 30.8 338.4 30.8C339.6 30.8 341 30.3 342.7 29.4C344.3 28.6 345.5 27.7 346 26.7L346 26.7L346 26.7L346 26.7L346 26.7ZM340.7 7.5C341.4 6.3 342.4 5.8 343.1 5.8C343.6 5.8 344.1 6 344.1 6.5C344.1 6.5 343.9 6.7 343.9 7C342.9 9.2 342 11.6 341.3 14C346.3 17.6 348.7 21.4 348.5 25C348 29.1 347.5 31.7 346.8 32.7C344.4 35.6 341.8 37.3 338.4 37.3C335 37.3 333.6 35.1 333.6 31.3C333.6 30.6 333.6 29.6 333.8 28.7C335 21 337.4 14 340.7 7.5L340.7 7.5L340.7 7.5L340.7 7.5L340.7 7.5ZM354.9 96.8C355.4 95.4 355.4 93.9 355.1 92.5C354.9 91.1 354.1 90.3 352.9 90.3C352.4 90.3 351.7 90.5 350.7 91C349.7 91.5 349.3 92 349.3 92.4C349.4 93.7 351.3 95.1 354.9 96.8L354.9 96.8L354.9 96.8L354.9 96.8L354.9 96.8ZM352 103C347.4 100.6 345.3 98.2 345.3 95.6C345.3 92.5 346.7 89.6 349.6 87.2C352.5 84.6 354.9 83.6 356.8 84.3C358.5 84.8 359.2 86.5 359.2 89.3C359.2 91.9 358.7 94.8 357.5 98.2C359.9 99.4 361.3 100.6 361.8 101.6C361.8 102.8 360.8 105 358.7 107.8C358.2 106.8 356.8 105.6 354.6 104.4C352 108 348.8 111.1 345 114C340.4 117.1 336.4 119.8 332.8 121.2C331.8 121.7 327.5 123.4 319.8 126.2C318.6 126.7 317.6 126.9 317.4 126.9C317.2 126.9 317.2 126.7 317.2 126.7C317.2 126.5 317.7 125.7 319.1 125C324.9 121.4 330.6 118 336.6 114.7C343.6 110.5 348.6 106.6 352 103L352 103L352 103L352 103L352 103ZM305 194C305 193.8 305.2 193.5 305.2 193.5C305.4 193.3 305.4 193.3 305.4 193.5C305.6 193.7 305.6 194 305.4 194.2C304.2 201.4 302 205 298.9 205C295.8 205 294.3 202.4 294.3 197.1C294.3 190.6 296 183.7 299.8 176.7C300.8 175 301.2 174.1 301.5 174.1L301.5 174.1C301.5 174.3 301.3 175.3 300.8 177C298.4 184.4 297.2 189.5 297.2 192.6C297.2 196.4 298.2 198.6 300.3 198.6C301.8 198.6 303.3 196.9 305 194L305 194L305 194L305 194L305 194ZM277.4 8.2C280.3 8.2 282.7 9.59999 284.8 13C287 16.1 288.6 20.4 289.4 25.7C289.6 26.2 289.6 26.4 289.6 26.7L289.8 26.7C289.8 26.5 290 26.2 290 25.7C290.5 22.6 291.7 17.8 293.4 11.5C295.3 7.2 297.2 5 299.4 5C300.6 5 301.8 5.7 302.8 7.2C303.8 8.59999 304.2 9.59999 304.2 10.6C304.2 11.1 304.2 12 303.7 13C303.2 14.4 302.7 15.2 302.3 15.2C302.1 15.2 301.6 14.5 300.6 13.5C299.9 12.5 298.9 12.1 298 12.1C296.1 12.1 294.4 16.7 292.7 25.8C292 29.9 291 32.8 290.3 34.4C289.6 35.4 289.1 36.1 288.6 36.1C288.1 36.1 288.1 35.4 287.9 34.4C288.1 32.7 287.2 29.6 285.3 25C283.4 20.2 282.2 18 281.2 18C280.7 18 280.5 18 280.2 18.5C280 18.7 279.7 19 279 19C278 19 277.1 18.3 275.6 17.1C274.2 15.9 273.7 14.9 273.7 14.2C273.7 14 274.2 12.8 275.4 10.8C276.4 9 277.1 8.2 277.4 8.2L277.4 8.2L277.4 8.2L277.4 8.2L277.4 8.2ZM275.9 87.2C300.1 78.1 325.3 69 351.3 59.4C352 59.2 352.5 58.9 352.5 59.2C352.7 59.2 352.7 59.7 352.5 60.4C351.5 62.6 350.8 63.8 350.3 64.2C350.1 64.4 337.8 69 314.1 77.9C289.9 86.8 276.2 92.3 273.5 94C274 91.8 274.7 89.6 275.9 87.2L275.9 87.2L275.9 87.2L275.9 87.2L275.9 87.2ZM319.4 48.3C319.4 48.1 319.6 47.8 319.6 47.8C319.8 47.6 319.8 47.6 319.8 47.8C320 48 320 48.3 319.8 48.5C318.6 55.7 316.4 59.3 313.3 59.3C310.2 59.3 308.7 56.7 308.7 51.4C308.7 44.9 310.4 38 314.2 31C315.2 29.3 315.6 28.4 315.9 28.4L315.9 28.4C315.9 28.6 315.7 29.6 315.2 31.3C312.8 38.7 311.6 43.8 311.6 46.9C311.6 50.7 312.6 52.9 314.7 52.9C316.2 52.9 317.7 51.2 319.4 48.3L319.4 48.3L319.4 48.3L319.4 48.3L319.4 48.3ZM285 57.4C285 60 283.8 62.9 281.9 66C279.7 69.1 277.1 72 273.7 74.4C272.3 75.4 271.5 75.8 271.3 75.8L271.3 75.6C271.3 75.4 271.8 74.9 272.7 73.7C278.2 67.7 281.1 63.9 281.1 61.7C281.1 60 280.1 59.1 278.5 59.1C277.5 59.1 276.6 59.3 275.9 59.8C275.2 60 274.9 60.3 274.7 60.3C274.7 60.3 274.5 60.3 274.5 60.1C274.5 60.1 274.5 59.6 274.7 58.7C275.7 54.6 277.6 52.7 280.9 52.7C283.6 52.6 285 54.3 285 57.4L285 57.4L285 57.4L285 57.4L285 57.4ZM339.3 186.8C339.3 189.4 338.1 192.3 336.2 195.4C334 198.5 331.4 201.4 328 203.8C326.6 204.8 325.8 205.2 325.6 205.2L325.6 205C325.6 204.8 326.1 204.3 327 203.1C332.5 197.1 335.4 193.3 335.4 191.1C335.4 189.4 334.4 188.5 332.8 188.5C331.8 188.5 330.9 188.7 330.2 189.2C329.5 189.4 329.2 189.7 329 189.7C329 189.7 328.8 189.7 328.8 189.5C328.8 189.5 328.8 189 329 188.1C330 184 331.9 182.1 335.2 182.1C337.8 182 339.3 183.7 339.3 186.8L339.3 186.8L339.3 186.8L339.3 186.8L339.3 186.8ZM209 200C222.7 195.2 237.1 189.9 252.2 184.4C253.2 184.2 253.4 183.9 253.6 184.2C253.8 184.2 253.8 184.7 253.4 185.4C252.7 187.6 252 188.8 251.5 189.2C238.5 193.8 223.7 199.5 206.6 206.7C207 204.6 207.8 202.4 209 200L209 200L209 200L209 200L209 200ZM180.6 18.6C181.1 17.2 181.1 15.7 180.8 14.3C180.6 12.9 179.8 12.1 178.6 12.1C178.1 12.1 177.4 12.3 176.4 12.8C175.4 13.3 175 13.8 175 14.2C175.1 15.4 177 16.9 180.6 18.6L180.6 18.6L180.6 18.6L180.6 18.6L180.6 18.6ZM177.8 24.8C173.2 22.4 171.1 20 171.1 17.4C171.1 14.3 172.5 11.4 175.4 9.00002C178.3 6.40001 180.7 5.40001 182.6 6.10002C184.3 6.60002 185 8.30002 185 11.1C185 13.7 184.5 16.6 183.3 20C185.7 21.2 187.1 22.4 187.6 23.4C187.6 24.6 186.6 26.8 184.5 29.6C184 28.6 182.6 27.4 180.4 26.2C177.8 29.8 174.6 32.9 170.8 35.8C166.2 38.9 162.2 41.6 158.6 43C157.6 43.5 153.3 45.2 145.6 48C144.4 48.5 143.4 48.7 143.2 48.7C143 48.7 143 48.5 143 48.5C143 48.3 143.5 47.5 144.9 46.8C150.7 43.2 156.4 39.8 162.4 36.5C169.4 32.2 174.4 28.4 177.8 24.8L177.8 24.8L177.8 24.8L177.8 24.8L177.8 24.8ZM146.8 83.8C146.8 83.6 147 83.3 147 83.3C147.2 83.1 147.2 83.1 147.2 83.3C147.4 83.5 147.4 83.8 147.2 84C146 91.2 143.8 94.8 140.7 94.8C137.6 94.8 136.1 92.2 136.1 86.9C136.1 80.4 137.8 73.5 141.6 66.5C142.6 64.8 143 63.9 143.3 63.9L143.3 63.9C143.3 64.1 143.1 65.1 142.6 66.8C140.2 74.2 139 79.3 139 82.4C139 86.2 140 88.4 142.1 88.4C143.7 88.4 145.1 86.7 146.8 83.8L146.8 83.8L146.8 83.8L146.8 83.8L146.8 83.8ZM85.6 167.6C95.2 164.2 105.5 160.4 116.6 156.6C117.6 156.4 117.8 156.1 118 156.4C118.2 156.4 118.2 156.9 117.8 157.6C117.1 159.8 116.4 161 115.9 161.4C106.3 164.8 95.5 168.8 83.3 174.4C83.7 172.2 84.4 170 85.6 167.6L85.6 167.6L85.6 167.6L85.6 167.6L85.6 167.6ZM47.9 89.8C50.8 89.8 53.2 91.2 55.3 94.6C57.5 97.7 59.1 102 59.9 107.3C60.1 107.8 60.1 108 60.1 108.3L60.3 108.3C60.3 108.1 60.5 107.8 60.5 107.3C61 104.2 62.2 99.4 63.9 93.1C65.8 88.8 67.7 86.6 69.9 86.6C71.1 86.6 72.3 87.3 73.3 88.8C74.3 90.2 74.7 91.2 74.7 92.2C74.7 92.7 74.7 93.6 74.2 94.6C73.7 96 73.2 96.8 72.8 96.8C72.6 96.8 72.1 96.1 71.1 95.1C70.4 94.1 69.4 93.7 68.5 93.7C66.6 93.7 64.9 98.3 63.2 107.4C62.5 111.5 61.5 114.4 60.8 116C60.1 117 59.6 117.7 59.1 117.7C58.6 117.7 58.6 117 58.4 116C58.6 114.3 57.7 111.2 55.8 106.6C53.9 101.8 52.7 99.6 51.7 99.6C51.2 99.6 51 99.6 50.7 100.1C50.5 100.3 50.2 100.6 49.5 100.6C48.5 100.6 47.6 99.9 46.1 98.7C44.7 97.5 44.2 96.5 44.2 95.8C44.2 95.6 44.7 94.4 45.9 92.4C47 90.6 47.7 89.8 47.9 89.8L47.9 89.8L47.9 89.8L47.9 89.8L47.9 89.8ZM143.7 14C143.7 14.5 143.5 15.4 143.2 16.4C142.7 17.8 142.2 18.6 141.5 18.6C141.3 18.6 140.8 17.9 139.8 16.9C139.1 15.9 138.1 15.5 137.4 15.5C135.5 15.5 133.6 20.1 131.9 29.2C131.2 33.3 130.5 35.9 129.5 37.6C128.8 38.8 128.3 39.3 127.8 39.3C127.6 39.3 127.3 38.8 127.3 37.9C127.3 36.2 126.3 33.1 124.4 28.5C122.7 23.7 121.3 21.5 120.6 21.5C120.1 21.5 119.6 21.5 119.6 22C119.4 22.2 118.9 22.5 118.2 22.5C117.2 22.5 116 21.8 114.6 20.6C113.2 19.2 112.7 18.2 112.9 17.7C115.1 13.6 116.3 11.7 116.7 11.7C119.3 11.7 122 13.1 124.1 16.5C126.3 19.6 127.7 23.9 128.7 29C128.7 29.7 128.7 30 128.7 30C128.9 30.2 128.9 30.2 128.9 30C128.9 30 129.1 29.8 129.4 29C129.9 26.1 130.8 21.3 132.5 15.1C134.4 10.8 136.3 8.60002 138.7 8.60002C139.7 8.60002 140.9 9.30002 142.1 10.8C143.2 12.1 143.7 13 143.7 14L143.7 14L143.7 14L143.7 14L143.7 14ZM113 17.6C113.5 16.6 114 16.2 114.2 16.2C114.2 16.2 114.4 16.4 114.2 16.4C114.4 17.1 113.7 18.8 112.3 21.4C109.9 26 106.5 29.6 102.2 32.7C97.6 36.1 93.6 38.5 90 40.1C89.3 40.6 85 42.3 77 45.1C75.8 45.6 75.1 45.8 74.6 45.8C74.4 45.8 74.4 45.6 74.4 45.6C74.4 45.4 75.1 44.6 76.3 43.9C83 40.3 92.1 34.5 103.9 26.6C108.6 23.1 111.5 20 113 17.6L113 17.6L113 17.6L113 17.6L113 17.6ZM224.3 24.3C224.3 24.1 224.5 23.8 224.5 23.8C224.7 23.6 224.7 23.6 224.7 23.8C224.9 24 224.9 24.3 224.7 24.5C223.5 31.7 221.3 35.3 218.2 35.3C215.1 35.3 213.6 32.7 213.6 27.4C213.6 20.9 215.3 14 219.1 7.00002C220.1 5.30002 220.5 4.40001 220.8 4.40001L220.8 4.40001C220.8 4.60001 220.6 5.60001 220.1 7.3C217.7 14.7 216.5 19.8 216.5 22.9C216.5 26.7 217.5 28.9 219.6 28.9C221.2 28.9 222.6 27.2 224.3 24.3L224.3 24.3L224.3 24.3L224.3 24.3L224.3 24.3ZM291.3 123.7C291.3 126.3 290.1 129.2 288.2 132.3C286 135.4 283.4 138.3 280 140.7C278.6 141.7 277.8 142.1 277.6 142.1L277.6 141.9C277.6 141.7 278.1 141.2 279 140C284.5 134 287.4 130.2 287.4 128C287.4 126.3 286.4 125.4 284.8 125.4C283.8 125.4 282.9 125.6 282.2 126.1C281.5 126.3 281.2 126.6 281 126.6C281 126.6 280.8 126.6 280.8 126.4C280.8 126.4 280.8 125.9 281 125C282 120.9 283.9 119 287.2 119C289.8 118.9 291.3 120.6 291.3 123.7L291.3 123.7L291.3 123.7L291.3 123.7L291.3 123.7ZM166.5 175C169.4 175 171.8 176.4 173.9 179.8C176.1 182.9 177.7 187.2 178.5 192.5C178.7 193 178.7 193.2 178.7 193.5L178.9 193.5C178.9 193.3 179.1 193 179.1 192.5C179.6 189.4 180.8 184.6 182.5 178.3C184.4 174 186.3 171.8 188.5 171.8C189.7 171.8 190.9 172.5 191.9 174C192.9 175.4 193.3 176.4 193.3 177.4C193.3 177.9 193.3 178.8 192.8 179.8C192.3 181.2 191.8 182 191.4 182C191.2 182 190.7 181.3 189.7 180.3C189 179.3 188 178.9 187.1 178.9C185.2 178.9 183.5 183.5 181.8 192.6C181.1 196.7 180.1 199.6 179.4 201.2C178.7 202.2 178.2 202.9 177.7 202.9C177.2 202.9 177.2 202.2 177 201.2C177.2 199.5 176.3 196.4 174.4 191.8C172.5 187 171.3 184.8 170.3 184.8C169.8 184.8 169.6 184.8 169.3 185.3C169.1 185.5 168.8 185.8 168.1 185.8C167.1 185.8 166.2 185.1 164.7 183.9C163.3 182.7 162.8 181.7 162.8 181C162.8 180.8 163.3 179.6 164.5 177.6C165.5 175.8 166.2 175 166.5 175L166.5 175L166.5 175L166.5 175L166.5 175ZM231.3 166.4C231.3 169 230.1 171.9 228.2 175C226 178.1 223.4 181 220 183.4C218.6 184.4 217.8 184.8 217.6 184.8L217.6 184.6C217.6 184.4 218.1 183.9 219 182.7C224.5 176.7 227.4 172.9 227.4 170.7C227.4 169 226.4 168.1 224.8 168.1C223.8 168.1 222.9 168.3 222.2 168.8C221.5 169 221.2 169.3 221 169.3C221 169.3 220.8 169.3 220.8 169.1C220.8 169.1 220.8 168.6 221 167.7C222 163.6 223.9 161.7 227.2 161.7C229.8 161.6 231.3 163.3 231.3 166.4L231.3 166.4L231.3 166.4L231.3 166.4L231.3 166.4ZM580.2 117.2C581.4 116.2 582.4 115.8 583.1 115.8C583.6 115.8 583.8 116.3 583.8 117.2C583.8 117.9 583.6 119.4 583.1 121.3C582.6 123.2 582.4 124.7 582.4 125.9C582.4 131.2 586.2 134.1 593.7 134.1C599.7 134.1 604.7 131.5 608.6 126.4C611 122.3 613.6 118.5 616 114.6C617 113.6 617.7 113.2 618.4 113.2C619.4 113.2 619.6 114.2 619.1 116.3C618.1 120.4 617.4 122.3 617.4 121.8C617.4 123.5 618.4 125.2 620.3 126.6C622 128 624.4 129 627 129C630.4 129 632.5 128 633.5 126.4C633.5 126.2 632.5 124.2 630.4 120.6C630.6 118.7 631.6 115.3 633 110.8C633.2 109.4 633.7 108.6 634.2 108.6C634.7 108.6 635.2 108.8 635.9 109.8C637.8 112.7 639 116 639 119.9C639 125.9 637.6 130.9 634.9 135.3C632 140.6 627.7 143.2 621.9 143.2C618.1 143.2 614.5 140.1 611.3 134.3C606 143.9 599.1 148.7 590.7 148.7C580.6 148.7 575.8 142.9 575.8 131.9C572 136.5 565.5 140.5 557.1 144.4L557.1 131.2C563.3 128.1 567.4 126.2 568.6 125.4C572.6 123.4 576.4 120.6 580.2 117.2L580.2 117.2L580.2 117.2L580.2 117.2L580.2 117.2ZM543.5 133C539.9 128.4 536.8 126.3 533.9 126.3C529.6 126.3 527.7 127.3 527.7 129.7C527.7 132.6 530.6 134 536.3 134C538.5 134 540.9 133.5 543.5 133L543.5 133L543.5 133L543.5 133L543.5 133ZM551 150.6C551 149.2 550.5 147.5 550 145.8C547.1 146.8 542.8 147.5 537.5 147.5C526 147.5 520.2 143.4 520.2 135.5C520.2 129.5 521.9 124.2 525.7 119.4C529.3 115.3 533.1 113.2 537.2 113.2C540.3 113.2 543.4 115.1 547 118.7C550.1 122.3 553 126.4 555.4 131.4C555.6 131.4 556.1 131.4 557.1 130.9L557.1 144.1L556.6 144.6C556.6 147.5 555.9 150.8 554.4 155.2C552.7 160.7 550.1 165.3 547 168.9C539.8 177.5 531.9 185 523.2 191.5C510.2 201.1 499.2 206.1 489.6 206.1C481.4 206.1 475.2 203 470.9 197C467.1 192 465.1 185.2 465.1 177.3C465.1 167.2 467.3 156.9 471.3 146.1C472.5 143.7 473 142.7 473.5 142.7C473.7 142.7 473.7 142.9 473.7 143.4C473.7 144.1 473.5 145.3 473.2 146.8C470.1 157.4 468.6 165.3 468.6 170.8C468.6 175.8 469.8 180.2 472.2 183.8C476 188.8 482 191.5 490.4 191.5C497.6 191.5 506.2 188.4 516.6 182.1C524.8 177.1 532.7 171.1 540.4 163.9C547.4 157 551 152.7 551 150.6L551 150.6L551 150.6L551 150.6L551 150.6ZM485.4 114.3C484.9 112.1 484.2 110.5 483.2 109.3C482.5 107.9 482 107.1 481.8 106.7C481.8 106.2 481.8 104.5 482.3 101.2C482.8 98.1 483 95.9 483.5 94.7C483.7 93.5 484 93 484.5 93C484.7 93 485 93.2 485.5 93.7C488.9 97.5 492.5 101.4 496.5 105.5C498.2 107.2 498.9 108.1 498.9 108.6C498.9 108.8 498.7 109.1 498.2 109.1C497.5 109.1 495.6 108.6 492.7 107.9C494.4 112 496.3 116.1 498 119.9C500.6 126.6 502.1 132.1 502.1 137.2C502.1 139.6 501.6 142.5 500.7 146.1C499.5 150.2 498.1 153.3 496.1 155.5C489.1 163.4 477.4 172.1 460.8 181.4C446.4 189.8 438 193.9 435.4 193.9C434.9 193.9 427.7 195.6 414 198.9C399.6 202.3 390.5 204.4 386.9 204.9C383.1 205.6 380.7 205.9 379.7 205.9C379.2 205.9 379.2 205.9 379.2 205.7C379.2 205.5 381.8 204 387.1 201.6C389 200.6 400.1 195.8 420.5 187.2C434.7 181.2 446.4 175.7 455.8 170.6C470 162.9 480.8 156.2 488.2 150.7C493.7 146.4 496.6 143.3 496.6 141.3C496.6 140.8 495.2 137.5 492.3 131.2C489 124.2 486.6 118.4 485.4 114.3L485.4 114.3L485.4 114.3L485.4 114.3L485.4 114.3ZM465.8 81C465.8 84.8 463.9 90.1 460 96.6C457.6 100.7 454 106.2 449.2 113.4C454 118.9 457.4 124 459 128.3C460 131.4 460.7 135.5 460.7 140.1C460.7 142 460.2 144.4 459.3 147.5C458.6 150.4 457.6 152.5 456.7 154C454.8 156.9 451.7 159.8 446.9 162.6C441.9 166 437.5 167.6 433.9 167.6C428.1 167.6 425.3 163.3 425.3 154.6C425.3 148.8 426.3 143.1 428.2 137.8C430.1 133.2 433.2 127.2 438.3 119.3C434 115.2 429.4 109.5 424.4 102.3C423.9 101.6 422.7 100.4 420.8 98.5C419.8 97.5 419.4 96.3 419.4 94.9C419.4 92.7 419.6 90.3 420.1 87.5C420.8 84.6 421.3 83.4 421.5 83.4C422.2 83.4 424.4 84.6 428.5 87.2C432.3 89.8 435.5 91.8 437.4 93.4C438.6 94.1 439.1 94.8 439.1 94.8L439.1 95C439.1 95.2 438.4 95.5 436.7 95.5C433.6 95.5 431.9 95.7 431.9 96C431.9 96.2 432.4 96.7 433.3 97.9C437.1 102.7 441 106.3 445.1 109.2C446.1 107.8 449.4 103 454.7 94.8C459.3 87.8 461.9 83 463.1 80.2C464.3 77.3 465 76.1 465.5 76.1C465.5 76.2 465.8 77.6 465.8 81L465.8 81L465.8 81L465.8 81L465.8 81ZM456.4 140C453.8 134.7 449.2 129.2 443 123.9C440.8 126.1 438.2 130.1 434.8 135.9C431 142.4 429.3 146.5 429.3 148.6C429.3 151.5 431.2 152.9 435.5 152.9C437.4 152.9 439.8 152.2 442.9 151C447.2 149.1 451.3 146.4 454.7 143.1C456.2 141.7 456.6 140.7 456.4 140L456.4 140L456.4 140L456.4 140L456.4 140ZM443 63L446.8 55.1C447 54.6 447.3 54.4 447.8 54.4C448.3 54.4 450.2 55.6 454 58.2C457.6 60.6 459.5 62 459.5 62.5C459.5 64.2 457.8 67.7999 454.7 73.1C454.2 73.8 453.7 73.8 453.3 73.6C450.2 71.2 446.6 68.8 442.5 66.2C441.1 69.1 439.9 71.7 438.4 73.9C438.2 74.6 437.7 74.9 437.2 74.6C433.6 71.7 429.8 69.1 425.9 66.7C425.7 66.5 425.7 66.2 425.9 65.7L430.5 56.1C430.7 55.6 431.2 55.1 431.5 55.1C432 55.1 433.7 56.3 436.8 58.5C439.8 60.3 442 62 443 63L443 63L443 63L443 63L443 63ZM569.4 196.6C566.8 197.3 565.3 197.8 564.8 197.8L564.8 197.6C564.8 197.6 565.8 196.9 567.7 195.7C569.6 194.5 572.5 192.6 576.6 189.5C578.5 187.6 581.4 184.5 585 180.1C587.4 177.2 590 174.6 592.9 172.7C596.5 170.1 599.9 168.9 603.5 168.9C604.2 168.9 605.4 169.1 606.9 169.6C608.1 170.1 609.3 170.3 610.3 170.3C612.2 170.3 613.7 169.6 614.9 168.1C615.6 166.7 616.6 165.5 617.5 164C618 163 618.7 162.6 619.2 162.6C619.4 162.6 619.4 162.8 619.4 163.3C619.4 163.8 619.2 165 618.7 166.4C618.2 167.1 620.1 167.4 623.7 167.4C624.2 167.4 624.4 167.4 624.4 167.2C624.4 167.2 624.2 166.2 623.7 164.6C623.5 164.1 623.7 163.4 624.4 162.4C625.4 160.7 625.8 160 626.1 160.2C627.1 160.9 627.5 162.4 627.5 164C627.5 165.7 627 167.4 626.3 169.3C625.6 171.5 624.9 172.7 624.4 173.1C622.7 174.1 620.1 173.8 616.5 172.1C613.6 175 610.7 176.7 607.9 176.7C607.2 176.7 606 176.5 604.8 176C603.6 175.5 602.6 175.3 601.9 175.3C597.1 175.3 592.1 177.5 587 182.3C583.4 185.9 579.8 189.5 576.2 193.1C574 194.7 571.8 195.9 569.4 196.6L569.4 196.6L569.4 196.6L569.4 196.6L569.4 196.6ZM518.1 67C521 67 523.4 68.4 525.5 71.8C527.7 74.9 529.3 79.2 530.1 84.5C530.3 85 530.3 85.2 530.3 85.5L530.5 85.5C530.5 85.3 530.7 85 530.7 84.5C531.2 81.4 532.4 76.6 534.1 70.3C536 66 537.9 63.8 540.1 63.8C541.3 63.8 542.5 64.5 543.5 66C544.5 67.4 544.9 68.4 544.9 69.4C544.9 69.9 544.9 70.8 544.4 71.8C543.9 73.2 543.4 74 543 74C542.8 74 542.3 73.3 541.3 72.3C540.6 71.3 539.6 70.9 538.7 70.9C536.8 70.9 535.1 75.5 533.4 84.6C532.7 88.7 531.7 91.6 531 93.2C530.3 94.2 529.8 94.9 529.3 94.9C528.8 94.9 528.8 94.2 528.6 93.2C528.8 91.5 527.9 88.4 526 83.8C524.1 79 522.9 76.8 521.9 76.8C521.4 76.8 521.2 76.8 520.9 77.3C520.7 77.5 520.4 77.8 519.7 77.8C518.7 77.8 517.8 77.1 516.3 75.9C514.9 74.7 514.4 73.7 514.4 73C514.4 72.8 514.9 71.6 516.1 69.6C517.1 67.8 517.8 67 518.1 67L518.1 67L518.1 67L518.1 67L518.1 67ZM477.3 64.2C501.5 55.1 526.7 46 552.7 36.4C553.4 36.2 553.9 35.9 553.9 36.2C554.1 36.2 554.1 36.7 553.9 37.4C552.9 39.6 552.2 40.8 551.7 41.2C551.5 41.4 539.2 46 515.5 54.9C491.3 63.8 477.6 69.3 474.9 71C475.4 68.7 476.1 66.6 477.3 64.2L477.3 64.2L477.3 64.2L477.3 64.2L477.3 64.2ZM453.8 20.2C454.3 18.8 454.3 17.3 454 15.9C453.8 14.5 453 13.7 451.8 13.7C451.3 13.7 450.6 13.9 449.6 14.4C448.6 14.9 448.2 15.4 448.2 15.8C448.2 17.1 450.2 18.6 453.8 20.2L453.8 20.2L453.8 20.2L453.8 20.2L453.8 20.2ZM450.9 26.5C446.3 24.1 444.2 21.7 444.2 19.1C444.2 16 445.6 13.1 448.5 10.7C451.4 8.10001 453.8 7.10001 455.7 7.80002C457.4 8.30002 458.1 10 458.1 12.8C458.1 15.4 457.6 18.3 456.4 21.7C458.8 22.9 460.2 24.1 460.7 25.1C460.7 26.3 459.7 28.5 457.6 31.3C457.1 30.3 455.7 29.1 453.5 27.9C450.9 31.5 447.7 34.6 443.9 37.5C439.3 40.6 435.3 43.3 431.7 44.7C430.7 45.2 426.4 46.9 418.7 49.7C417.5 50.2 416.5 50.4 416.3 50.4C416.1 50.4 416.1 50.2 416.1 50.2C416.1 50 416.6 49.2 418 48.5C423.8 44.9 429.5 41.5 435.5 38.2C442.5 33.9 447.5 30.1 450.9 26.5L450.9 26.5L450.9 26.5L450.9 26.5L450.9 26.5ZM602.6 56.2C603.1 54.8 603.1 53.3 602.8 51.9C602.6 50.5 601.8 49.7 600.6 49.7C600.1 49.7 599.4 49.9 598.4 50.4C597.4 50.9 597 51.4 597 51.8C597 53.1 599 54.6 602.6 56.2L602.6 56.2L602.6 56.2L602.6 56.2L602.6 56.2ZM607.8 65.1C605.4 70.9 604.2 75.4 604.2 78.8C604.2 82.9 605.2 85 607.3 85C608.5 85 609.9 83.3 611.6 80.4C611.8 80.2 611.8 79.9 612.1 79.7C612.1 79.7 612.3 79.7 612.3 79.9C612.3 79.9 612.3 80.1 612.3 80.6C610.9 87.8 608.7 91.4 605.8 91.4C602.7 91.4 601.2 88.8 601.2 83.5C601.2 80.9 601.7 77.5 603.1 73.2C604.5 68.9 605.3 66.7 605.3 66.5C605.3 66 604.3 65.1 602.2 63.9C598.4 68.9 593.1 73.7 586.4 77.8C581.8 80.4 577.3 82.8 572.5 84.8C563.6 88.4 558.3 90.3 557.1 91C555.9 91.5 555.2 91.7 554.7 91.7C554.5 91.7 554.5 91.5 554.5 91.5C554.5 91 555 90.5 556.4 89.6C564.1 85.3 571.5 81 579.2 76.6C589.3 70.8 596.2 66 599.6 62.4C595 60 592.9 57.6 592.9 55C592.9 51.9 594.3 49 597.2 46.4C600.1 44 602.5 43 604.4 43.8C605.8 44.3 606.8 46 606.8 48.8C606.8 51.4 606.3 54.3 605.1 57.4C607.5 58.8 608.5 60.3 608.5 61.7C608.6 62.5 608.3 63.7 607.8 65.1L607.8 65.1L607.8 65.1L607.8 65.1L607.8 65.1ZM498.6 30.3C498.6 30.1 498.8 29.8 498.8 29.8C499 29.6 499 29.6 499 29.8C499.2 30 499.2 30.3 499 30.5C497.8 37.7 495.6 41.3 492.5 41.3C489.4 41.3 487.9 38.7 487.9 33.4C487.9 26.9 489.6 20 493.4 13C494.4 11.3 494.8 10.4 495.1 10.4L495.1 10.4C495.1 10.6 494.9 11.6 494.4 13.3C492 20.7 490.8 25.8 490.8 28.9C490.8 32.7 491.8 34.9 493.9 34.9C495.5 34.9 497 33.2 498.6 30.3L498.6 30.3L498.6 30.3L498.6 30.3L498.6 30.3Z" id="Group" fill="#595959" stroke="none" clip-path="url(#clip_1)" />
  </g>
</svg>