<?xml version="1.0" encoding="utf-8"?>
<svg width="514.2001px" height="205.59999px" viewBox="0 0 514.2001 205.59999" version="1.1" xmlns:xlink="http://www.w3.org/1999/xlink" xmlns="http://www.w3.org/2000/svg">
  <defs>
    <path d="M514.2 0L514.2 0L514.2 205.6L0 205.6L0 0L514.2 0Z" id="path_1" />
    <clipPath id="clip_1">
      <use xlink:href="#path_1" clip-rule="evenodd" fill-rule="evenodd" />
    </clipPath>
  </defs>
  <g id="Surah_99_of_114_(modified)">
    <path d="M514.2 0L514.2 0L514.2 205.6L0 205.6L0 0L514.2 0Z" id="Surah_99_of_114_(modified)" fill="none" stroke="none" />
    <path d="M270.1 25C270.1 20.2 269.4 16.4 267.9 13.2C267.9 11.5 269.1 7.39999 272 1.2C272.2 0.5 272.5 0 272.7 0C273.2 0 273.4 0.5 273.9 1.2C274.6 2.89999 276.3 7.39999 279.2 14.9C282.3 22.8 284 27.6 284.5 29.5C285 30.7 285 31.9 285 32.4C285 34.6 283.1 33.4 278.8 28.6C278.3 27.9 278.1 28.4 278.1 29.6C278.1 30.1 279.3 45 281.5 74.7C283.7 104.2 284.6 120.8 284.6 124.6C284.6 135.9 282.9 146 279.6 154.6C278.6 156.3 278.2 157.5 277.7 158.4L277.7 158.4C277 159.6 276.7 159.6 276.5 158.9C276.3 157.9 276.5 156 276.7 153.4C277.2 149.3 277.4 144.8 277.4 139.7C277.4 134.9 276.2 115.7 273.8 81.9C271.3 48 270.1 29 270.1 25L270.1 25L270.1 25L270.1 25L270.1 25ZM246.8 25.2C246.8 20.6 246.1 16.8 244.6 13.7C244.6 12 245.8 7.89999 248.7 1.5C248.9 0.800003 249.2 0.5 249.4 0.5C249.9 0.5 250.1 0.699997 250.6 1.7C251.3 3.39999 253.2 7.89999 256.1 15.4C259 23.3 260.7 28.1 261.4 29.8C261.6 31.2 261.9 32.4 261.9 32.9C261.9 35.1 259.7 33.9 255.7 29.1C255.2 28.6 255 28.9 255 30.1C255 30.3 256 43.3 257.9 68.7C259.8 93.9 260.8 109 260.8 114.1C260.8 122 259.4 129.7 256.5 137.1C252.4 147.4 246.4 154.4 238.7 157.7L238.7 144.5C248.3 140.4 253.3 134.2 253.3 125.8C253.3 121.7 252.1 105.2 249.9 76.4C247.8 47.5 246.8 30.5 246.8 25.2L246.8 25.2L246.8 25.2L246.8 25.2L246.8 25.2ZM193.3 171.1C198.3 165.3 205.1 160.3 213.5 155.7C218.3 153.1 226.7 149.2 238.7 144.2L238.7 157.4C231 160.8 225.5 163.2 221.9 164.8C214.5 168.4 209.4 171 206.8 173.2C201.8 177 194.3 184.5 184.7 195.5C178.9 202.2 173.2 205.6 167.4 205.6C162.6 205.6 158.3 203.4 154.7 198.9C150.9 194.6 149.2 188.8 149.2 182.3C149.2 173.4 152.8 161.7 160.2 147C160.9 145.6 161.6 144.8 162.1 144.8C162.1 144.8 162.3 145 162.3 145.3C162.3 146.7 160.6 151.8 157.5 160.4C154.1 169.3 152.5 176 152.5 181C152.5 184.8 153.5 188 155.4 190.1C157.3 192.7 160 193.9 163.3 193.9C169.3 193.9 175.5 190.8 181.5 184.8C185.6 180.5 189.5 175.7 193.3 171.1L193.3 171.1L193.3 171.1L193.3 171.1L193.3 171.1ZM152.7 154.1L152.7 140.9C162.3 136.8 167.1 130.6 167.1 122.2C167.1 117.9 166.1 104.2 164.5 81.4C162.8 58.4 162.1 44.7 162.1 40.6C162.1 36 161.4 32.2 159.9 29.1C159.9 27.4 161.3 23.3 164 16.9C164.2 16.2 164.7 15.9 165 15.9C165.2 15.9 165.5 16.1 166 16.9C166.7 18.8 168.6 23.4 171.5 30.8C174.4 38.5 176.1 43.3 176.8 45.2C177 46.6 177.3 47.6 177.3 48.3C177.3 50.5 175.1 49 171.1 44.2C170.6 43.7 170.4 44 170.4 45.2C170.4 45.4 171.1 55.3 172.6 74.5C174 93.5 174.8 105.5 174.8 110.5C174.8 118.4 173.4 126.1 170.5 133.5C166.4 143.8 160.4 150.7 152.7 154.1L152.7 154.1L152.7 154.1L152.7 154.1L152.7 154.1ZM107.4 167.5C112.4 161.7 119.2 156.7 127.6 152.1C132.4 149.5 140.8 145.6 152.8 140.6L152.8 153.8C145.1 157.2 139.6 159.6 136 161.2C128.6 164.8 123.5 167.4 120.9 169.6C115.9 173.4 108.4 180.9 98.8 191.9C93 198.6 87.3 202 81.5 202C76.7 202 72.4 199.8 68.8 195.3C65 191 63.3 185.2 63.3 178.7C63.3 169.8 66.9001 158.1 74.3 143.4C75 142 75.7 141.2 76.2 141.2C76.2 141.2 76.4 141.4 76.4 141.7C76.4 143.1 74.7 148.2 71.6 156.8C68.2 165.7 66.6 172.4 66.6 177.4C66.6 181.2 67.6 184.4 69.5 186.5C71.4 189.1 74.1 190.3 77.4 190.3C83.4 190.3 89.6 187.2 95.6 181.2C99.7 176.9 103.5 172.1 107.4 167.5L107.4 167.5L107.4 167.5L107.4 167.5L107.4 167.5ZM116.5 108.2C116.5 122.4 113.9 133.4 108.8 141.6C104.5 148.3 99.4 151.9 93.7 151.9L93.7 137.3C98.3 137.3 102.8 135.4 107.1 131.8C108.3 130.8 109 126.8 109 120C109 115.7 108 102 106.4 79.2C104.7 56.2 104 42.5 104 38.4C104 33.8 103 30 101.6 26.9C101.6 25.2 103 21.1 105.9 14.7C106.1 14 106.4 13.7 106.6 13.7C107.1 13.7 107.3 13.9 107.8 14.7C108.5 16.6 110.4 21.2 113.1 28.6C116.2 36.3 117.9 41.1 118.6 43C118.8 44.4 119.1 45.4 119.1 46.1C119.1 48.3 116.9 46.8 112.9 42C112.4 41.5 112.2 41.8 112.2 43C112.2 43.2 112.9 53.1 114.4 72.3C115.8 91.2 116.5 103.2 116.5 108.2L116.5 108.2L116.5 108.2L116.5 108.2L116.5 108.2ZM93.7 151.9C88.7 151.9 85.1 151.4 82.9 150.9C78.1 149.5 74.3 146.3 71.1 141.5C69.2 138.4 67.3 135 65.3 131.7C63.4 128.8 61.7 127.6 60 127.6C54.5 127.6 48.7 132.2 42.5 141.5C41.5 143.2 39.6 147.5 36.7 154.5C34.1 161.5 31.7 166.5 29.5 169.9C26.4 174.7 22.8 177.1 19.2 177.1C13.9 177.1 9.39999 172.8 5.5 164.4C2.10001 157 0.699997 149.3 0.699997 141.4C0.699997 131.8 1.7 123.9 3.59999 118.1C4.09999 116.2 4.59999 115.2 4.99998 115.2C5.69998 115.2 5.99998 116.4 5.49998 118.8C4.79999 125 4.49998 130.3 4.49998 134.6C4.49998 155 9.09999 165.3 18.7 165.3C22.5 165.3 25.9 162.2 29.3 156.2C32.4 149 35.8 141.8 39.1 134.6C42 128.8 45.6 123.8 49.9 119.5C54 115.2 58.1 113.3 61.4 113.3C64 113.3 66.7 115 68.8 118.1C70.7 121.2 72.4 124.3 74.3 127.5C76.9 131.1 79.6 133.7 82.5 135.2C85.4 136.4 89 137.1 93.5 137.1L93.5 151.9L93.7 151.9L93.7 151.9L93.7 151.9ZM133.3 116.2C133.1 116 133.1 115.7 133.3 115.2L137.9 105.6C138.1 105.1 138.6 104.9 138.9 104.9C139.4 104.9 141.5 106.1 145.1 108.5C148.9 111.1 150.9 112.6 150.9 113.1C150.9 114.8 149.2 118.1 145.9 123.4C145.4 124.1 145.2 124.4 144.7 124.1C141 121.2 137.1 118.6 133.3 116.2L133.3 116.2L133.3 116.2L133.3 116.2L133.3 116.2ZM207.9 119.5C207.7 119.3 207.7 119 207.9 118.5L212.5 108.9C212.7 108.4 213.2 108.2 213.5 108.2C214 108.2 216.1 109.4 219.7 111.8C223.5 114.4 225.5 115.9 225.5 116.4C225.5 118.1 223.8 121.4 220.5 126.7C220 127.4 219.8 127.7 219.3 127.4C215.6 124.6 211.8 121.9 207.9 119.5L207.9 119.5L207.9 119.5L207.9 119.5L207.9 119.5ZM55.3 81.1L59.1 73.2C59.3 72.7 59.6 72.5 60.1 72.5C60.6 72.5 62.5 73.7 66.3 76.3C69.9 78.7 71.8 80.1 71.8 80.6C71.8 82.3 70.1 85.8999 67 91.2C66.5 91.9 66 91.9 65.6 91.7C62.5 89.3 58.9 86.9 54.8 84.3C53.4 87.2 52.2 89.8 50.7 92C50.5 92.7 50 93 49.5 92.7C45.9 89.8 42.1 87.2 38.2 84.8C38 84.6 38 84.3 38.2 83.8L42.8 74.2C43 73.7 43.5 73.2 43.8 73.2C44.3 73.2 46 74.4 49.1 76.6C52.2 78.5 54.3 80.2 55.3 81.1L55.3 81.1L55.3 81.1L55.3 81.1L55.3 81.1ZM221.1 21.4C221.1 20.2 218.7 18 213.7 15.2C212 18.1 211.3 20.7 211.3 23.1C211.3 24.5 212 25.5 213.5 25.5C214.7 25.5 216.1 25 217.8 24.1C219.5 23.3 220.7 22.3 221.1 21.4L221.1 21.4L221.1 21.4L221.1 21.4L221.1 21.4ZM215.9 2.2C216.6 1 217.6 0.5 218.3 0.5C218.8 0.5 219.3 0.699997 219.3 1.2C219.3 1.2 219.1 1.39999 219.1 1.7C218.1 3.89999 217.2 6.3 216.5 8.7C221.5 12.3 223.9 16.1 223.7 19.7C223.2 23.8 222.7 26.4 222 27.4C219.6 30.3 217 32 213.6 32C210.2 32 208.8 29.8 208.8 26C208.8 25.3 208.8 24.3 209 23.4C210.1 15.6 212.5 8.60001 215.9 2.2L215.9 2.2L215.9 2.2L215.9 2.2L215.9 2.2ZM184.7 100.6C203.2 93.9 222.4 86.7 242.5 79.2C243.2 79 243.7 78.7 243.9 79C243.9 79 243.9 79.5 243.7 80.2C242.7 82.4 242 83.6 241.5 84C224.7 90.2 204.8 97.9 182.2 107.3C182.7 105.1 183.5 103 184.7 100.6L184.7 100.6L184.7 100.6L184.7 100.6L184.7 100.6ZM145.8 25C145.8 23.8 143.4 21.6 138.4 18.8C136.7 21.7 136 24.3 136 26.7C136 28.1 136.7 29.1 138.2 29.1C139.4 29.1 140.8 28.6 142.5 27.7C144.1 26.9 145.3 25.9 145.8 25L145.8 25L145.8 25L145.8 25L145.8 25ZM140.5 5.8C141.2 4.60001 142.2 4.10001 142.9 4.10001C143.4 4.10001 143.9 4.3 143.9 4.8C143.9 4.8 143.7 5 143.7 5.3C142.7 7.5 141.8 9.90001 141.1 12.3C146.1 15.9 148.5 19.7 148.3 23.3C147.8 27.4 147.3 30 146.6 31C144.2 33.9 141.6 35.6 138.2 35.6C134.8 35.6 133.4 33.4 133.4 29.6C133.4 28.9 133.4 27.9 133.6 27C134.7 19.2 137.1 12.2 140.5 5.8L140.5 5.8L140.5 5.8L140.5 5.8L140.5 5.8ZM122.3 89C131.9 85.6 142.2 81.8 153.3 78C154.3 77.8 154.5 77.5 154.7 77.8C154.9 77.8 154.9 78.3 154.5 79C153.8 81.2 153.1 82.4 152.6 82.8C143 86.2 132.2 90.2 120 95.8C120.3 93.6 121.1 91.4 122.3 89L122.3 89L122.3 89L122.3 89L122.3 89ZM57.2 25.4C66.8 22 77.1 18.2 88.2 14.4C89.2 14.2 89.4 13.9 89.6 14.2C89.8 14.2 89.8 14.7 89.4 15.4C88.7 17.6 88 18.8 87.5 19.2C77.9 22.6 67.1 26.6 54.9 32.2C55.3 30 56 27.8 57.2 25.4L57.2 25.4L57.2 25.4L57.2 25.4L57.2 25.4ZM24.3 183.4C33.9 180 44.2 176.2 55.3 172.4C56.3 172.2 56.5 171.9 56.7 172.2C56.9 172.2 56.9 172.7 56.5 173.4C55.8 175.6 55.1 176.8 54.6 177.2C45 180.6 34.2 184.6 22 190.2C22.4 187.9 23.1 185.8 24.3 183.4L24.3 183.4L24.3 183.4L24.3 183.4L24.3 183.4ZM227.4 173.3C230.3 173.3 232.7 174.7 234.8 178.1C237 181.2 238.6 185.5 239.4 190.8C239.6 191.3 239.6 191.5 239.6 191.8L239.8 191.8C239.8 191.6 240 191.3 240 190.8C240.5 187.7 241.7 182.9 243.4 176.6C245.3 172.3 247.2 170.1 249.4 170.1C250.6 170.1 251.8 170.8 252.8 172.3C253.8 173.7 254.2 174.7 254.2 175.7C254.2 176.2 254.2 177.1 253.7 178.1C253.2 179.5 252.7 180.3 252.3 180.3C252.1 180.3 251.6 179.6 250.6 178.6C249.9 177.6 248.9 177.2 248 177.2C246.1 177.2 244.4 181.8 242.7 190.9C242 195 241 197.9 240.3 199.5C239.6 200.5 239.1 201.2 238.6 201.2C238.1 201.2 238.1 200.5 237.9 199.5C238.1 197.8 237.2 194.7 235.3 190.1C233.4 185.3 232.2 183.1 231.2 183.1C230.7 183.1 230.5 183.1 230.2 183.6C230 183.8 229.7 184.1 229 184.1C228 184.1 227.1 183.4 225.6 182.2C224.2 181 223.7 180 223.7 179.3C223.7 179.1 224.2 177.9 225.4 175.9C226.4 174 227.1 173.3 227.4 173.3L227.4 173.3L227.4 173.3L227.4 173.3L227.4 173.3ZM10.7 105.6C10.7 105.4 10.9 105.1 10.9 105.1C11.1 104.9 11.1 104.9 11.1 105.1C11.3 105.3 11.3 105.6 11.1 105.8C9.90001 113 7.70001 116.6 4.60001 116.6C1.5 116.6 0 114 0 108.7C0 102.2 1.7 95.3 5.5 88.3C6.5 86.6 6.89999 85.7 7.2 85.7L7.2 85.7C7.2 85.9 7 86.9 6.5 88.6C4.10001 96 2.89999 101.1 2.89999 104.2C2.89999 108 3.89999 110.2 6 110.2C7.50002 110.2 9.00002 108.5 10.7 105.6L10.7 105.6L10.7 105.6L10.7 105.6L10.7 105.6ZM145.5 51.8C145.5 54.4 144.3 57.3 142.4 60.4C140.2 63.5 137.6 66.4 134.2 68.8C132.8 69.8 132 70.2 131.8 70.2L131.8 70C131.8 69.8 132.3 69.3 133.2 68.1C138.7 62.1 141.6 58.3 141.6 56.1C141.6 54.4 140.6 53.5 139 53.5C138 53.5 137.1 53.7 136.4 54.2C135.7 54.4 135.4 54.7 135.2 54.7C135.2 54.7 135 54.7 135 54.5C135 54.5 135 54 135.2 53.1C136.2 49 138.1 47.1 141.4 47.1C144.1 47 145.5 48.7 145.5 51.8L145.5 51.8L145.5 51.8L145.5 51.8L145.5 51.8ZM198.8 49.2C201.7 49.2 204.1 50.6 206.2 54C208.4 57.1 210 61.4 210.8 66.7C211 67.2 211 67.4 211 67.7L211.2 67.7C211.2 67.5 211.4 67.2 211.4 66.7C211.9 63.6 213.1 58.8 214.8 52.5C216.7 48.2 218.6 46 220.8 46C222 46 223.2 46.7 224.2 48.2C225.2 49.6 225.6 50.6 225.6 51.6C225.6 52.1 225.6 53 225.1 54C224.6 55.4 224.1 56.2 223.7 56.2C223.5 56.2 223 55.5 222 54.5C221.3 53.5 220.3 53.1 219.4 53.1C217.5 53.1 215.8 57.7 214.1 66.8C213.4 70.9 212.4 73.8 211.7 75.4C211 76.4 210.5 77.1 210 77.1C209.5 77.1 209.5 76.4 209.3 75.4C209.5 73.7 208.6 70.6 206.7 66C204.8 61.2 203.6 59 202.6 59C202.1 59 201.9 59 201.6 59.5C201.4 59.7 201.1 60 200.4 60C199.4 60 198.5 59.3 197 58.1C195.6 56.9 195.1 55.9 195.1 55.2C195.1 55 195.6 53.8 196.8 51.8C197.9 49.9 198.6 49.2 198.8 49.2L198.8 49.2L198.8 49.2L198.8 49.2L198.8 49.2ZM194.5 138.7C194.5 141.3 193.3 144.2 191.4 147.3C189.2 150.4 186.6 153.3 183.2 155.7C181.8 156.7 181 157.1 180.8 157.1L180.8 156.9C180.8 156.7 181.3 156.2 182.2 155C187.7 149 190.6 145.2 190.6 143C190.6 141.3 189.6 140.4 188 140.4C187 140.4 186.1 140.6 185.4 141.1C184.7 141.3 184.4 141.6 184.2 141.6C184.2 141.6 184 141.6 184 141.4C184 141.4 184 140.9 184.2 140C185.2 135.9 187.1 134 190.4 134C193.1 133.9 194.5 135.6 194.5 138.7L194.5 138.7L194.5 138.7L194.5 138.7L194.5 138.7ZM15.2 37.4C18.1 37.4 20.5 38.8 22.6 42.2C24.8 45.3 26.4 49.6 27.2 54.9C27.4 55.4 27.4 55.6 27.4 55.9L27.6 55.9C27.6 55.7 27.8 55.4 27.8 54.9C28.3 51.8 29.5 47 31.2 40.7C33.1 36.4 35 34.2 37.2 34.2C38.4 34.2 39.6 34.9 40.6 36.4C41.6 37.8 42 38.8 42 39.8C42 40.3 42 41.2 41.5 42.2C41 43.6 40.5 44.4 40.1 44.4C39.9 44.4 39.4 43.7 38.4 42.7C37.7 41.7 36.7 41.3 35.8 41.3C33.9 41.3 32.2 45.9 30.5 55C29.8 59.1 28.8 62 28.1 63.6C27.4 64.6 26.9 65.3 26.4 65.3C25.9 65.3 25.9 64.6 25.7 63.6C25.9 61.9 25 58.8 23.1 54.2C21.2 49.4 20 47.2 19 47.2C18.5 47.2 18.3 47.2 18 47.7C17.8 47.9 17.5 48.2 16.8 48.2C15.8 48.2 14.9 47.5 13.4 46.3C12 45.1 11.5 44.1 11.5 43.4C11.5 43.2 12 42 13.2 40C14.3 38.2 15 37.4 15.2 37.4L15.2 37.4L15.2 37.4L15.2 37.4L15.2 37.4ZM85.5 46.6C85.5 49.2 84.3 52.1 82.4 55.2C80.2 58.3 77.6 61.2 74.2 63.6C72.8 64.6 72 65 71.8 65L71.8 64.8C71.8 64.6 72.3 64.1 73.2 62.9C78.7 56.9 81.6 53.1 81.6 50.9C81.6 49.2 80.6 48.3 79 48.3C78 48.3 77.1 48.5 76.4 49C75.7 49.2 75.4 49.5 75.2 49.5C75.2 49.5 75 49.5 75 49.3C75 49.3 75 48.8 75.2 47.9C76.2 43.8 78.1 41.9 81.4 41.9C84.1 41.8 85.5 43.4 85.5 46.6L85.5 46.6L85.5 46.6L85.5 46.6L85.5 46.6ZM455.4 110.4C456.6 109.4 457.6 109 458.3 109C458.8 109 459 109.5 459 110.4C459 111.1 458.8 112.6 458.3 114.5C457.8 116.4 457.6 117.9 457.6 119.1C457.6 124.4 461.4 127.3 468.9 127.3C474.9 127.3 479.9 124.7 483.8 119.6C486.2 115.5 488.8 111.7 491.2 107.8C492.2 106.8 492.9 106.4 493.6 106.4C494.6 106.4 494.8 107.4 494.3 109.5C493.3 113.6 492.6 115.5 492.6 115C492.6 116.7 493.6 118.4 495.5 119.8C497.2 121.2 499.6 122.2 502.2 122.2C505.6 122.2 507.7 121.2 508.7 119.6C508.7 119.4 507.7 117.4 505.6 113.8C505.8 111.9 506.8 108.5 508.2 104C508.4 102.6 508.9 101.8 509.4 101.8C509.9 101.8 510.4 102 511.1 103C513 105.9 514.2 109.2 514.2 113.1C514.2 119.1 512.8 124.1 510.1 128.5C507.2 133.8 502.9 136.4 497.1 136.4C493.3 136.4 489.7 133.3 486.5 127.5C481.3 137 474.3 141.8 465.9 141.8C455.8 141.8 451 136 451 125C447.2 129.6 440.7 133.6 432.3 137.5L432.3 124.3C438.5 121.2 442.6 119.3 443.8 118.5C447.7 116.6 451.5 113.8 455.4 110.4L455.4 110.4L455.4 110.4L455.4 110.4L455.4 110.4ZM418.7 126.2C415.1 121.6 412 119.5 409.1 119.5C404.8 119.5 402.9 120.5 402.9 122.9C402.9 125.8 405.8 127.2 411.5 127.2C413.6 127.2 416 126.7 418.7 126.2L418.7 126.2L418.7 126.2L418.7 126.2L418.7 126.2ZM426.1 143.8C426.1 142.4 425.6 140.7 425.1 139C422.2 140 417.9 140.7 412.6 140.7C401.1 140.7 395.3 136.6 395.3 128.7C395.3 122.7 397 117.4 400.8 112.6C404.4 108.5 408.2 106.4 412.3 106.4C415.4 106.4 418.5 108.3 422.1 111.9C425.2 115.5 428.1 119.6 430.5 124.6C430.7 124.6 431.2 124.6 432.2 124.1L432.2 137.3L431.7 137.8C431.7 140.7 431 144 429.5 148.4C427.8 153.9 425.2 158.5 422.1 162.1C414.9 170.7 407 178.2 398.3 184.7C385.3 194.3 374.3 199.3 364.7 199.3C356.5 199.3 350.3 196.2 346 190.2C342.2 185.2 340.2 178.4 340.2 170.5C340.2 160.4 342.4 150.1 346.4 139.3C347.6 136.9 348.1 135.9 348.6 135.9C348.8 135.9 348.8 136.1 348.8 136.6C348.8 137.3 348.6 138.5 348.3 140C345.2 150.6 343.7 158.5 343.7 164C343.7 169 344.9 173.4 347.3 177C351.1 182 357.1 184.7 365.5 184.7C372.7 184.7 381.3 181.6 391.7 175.3C399.9 170.3 407.8 164.3 415.5 157.1C422.5 150.2 426.1 145.9 426.1 143.8L426.1 143.8L426.1 143.8L426.1 143.8L426.1 143.8ZM360.6 107.5C360.1 105.3 359.4 103.7 358.4 102.5C357.7 101.1 357.2 100.3 357 99.9C357 99.4 357 97.7 357.5 94.4C358 91.3 358.2 89.1 358.7 87.9C358.9 86.7 359.2 86.2 359.7 86.2C359.9 86.2 360.2 86.4 360.7 86.9C364.1 90.7 367.7 94.6 371.7 98.7C373.4 100.4 374.1 101.3 374.1 101.8C374.1 102 373.9 102.3 373.4 102.3C372.7 102.3 370.8 101.8 367.9 101.1C369.6 105.2 371.5 109.3 373.2 113.1C375.8 119.8 377.3 125.3 377.3 130.4C377.3 132.8 376.8 135.7 375.9 139.3C374.7 143.4 373.3 146.5 371.3 148.7C364.3 156.6 352.6 165.3 336 174.6C321.6 183 313.2 187.1 310.6 187.1C310.1 187.1 302.9 188.8 289.2 192.1C274.8 195.5 265.7 197.6 262.1 198.1C258.3 198.8 255.9 199.1 254.9 199.1C254.4 199.1 254.4 199.1 254.4 198.9C254.4 198.7 257 197.2 262.3 194.8C264.2 193.8 275.3 189 295.7 180.4C309.9 174.4 321.6 168.9 331 163.8C345.2 156.1 356 149.4 363.4 143.9C368.9 139.6 371.8 136.5 371.8 134.5C371.8 134 370.4 130.7 367.5 124.4C364.2 117.4 361.8 111.6 360.6 107.5L360.6 107.5L360.6 107.5L360.6 107.5L360.6 107.5ZM340.9 74.2C340.9 78 339 83.3 335.1 89.8C332.7 93.9 329.1 99.4 324.3 106.6C329.1 112.1 332.5 117.2 334.1 121.5C335.1 124.6 335.8 128.7 335.8 133.3C335.8 135.2 335.3 137.6 334.4 140.7C333.7 143.6 332.7 145.7 331.8 147.2C329.9 150.1 326.8 153 322 155.8C317 159.2 312.6 160.8 309 160.8C303.2 160.8 300.4 156.5 300.4 147.8C300.4 142 301.4 136.3 303.3 131C305.2 126.4 308.3 120.4 313.4 112.5C309.1 108.4 304.5 102.7 299.5 95.5C299 94.8 297.8 93.6 295.9 91.7C294.9 90.7 294.5 89.5 294.5 88.1C294.5 85.9 294.7 83.5 295.2 80.7C295.9 77.8 296.4 76.6 296.6 76.6C297.3 76.6 299.5 77.8 303.6 80.4C307.4 83 310.6 85 312.5 86.6C313.7 87.3 314.2 88 314.2 88L314.2 88.2C314.2 88.4 313.5 88.7 311.8 88.7C308.7 88.7 307 88.9 307 89.2C307 89.5 307.5 89.9 308.4 91.1C312.2 95.9 316.1 99.5 320.2 102.4C321.2 101 324.5 96.2 329.8 88C334.4 81 337 76.2 338.2 73.4C339.4 70.5 340.1 69.3 340.6 69.3C340.7 69.4 340.9 70.8 340.9 74.2L340.9 74.2L340.9 74.2L340.9 74.2L340.9 74.2ZM331.5 133.2C328.9 127.9 324.3 122.4 318.1 117.1C315.9 119.3 313.3 123.3 309.9 129.1C306.1 135.6 304.4 139.7 304.4 141.8C304.4 144.7 306.3 146.1 310.6 146.1C312.5 146.1 314.9 145.4 318 144.2C322.3 142.3 326.4 139.6 329.8 136.3C331.3 134.9 331.8 133.9 331.5 133.2L331.5 133.2L331.5 133.2L331.5 133.2L331.5 133.2ZM318.1 56.2L321.9 48.3C322.1 47.8 322.4 47.6 322.9 47.6C323.4 47.6 325.3 48.8 329.1 51.4C332.7 53.8 334.6 55.2 334.6 55.7C334.6 57.4 332.9 61 329.8 66.3C329.3 67 328.8 67 328.4 66.8C325.3 64.4 321.7 62 317.6 59.4C316.2 62.3 315 64.9 313.5 67.1C313.3 67.8 312.8 68.1 312.3 67.8C308.7 64.9 304.9 62.3 301 59.9C300.8 59.7 300.8 59.4 301 58.9L305.6 49.3C305.8 48.8 306.3 48.3 306.6 48.3C307.1 48.3 308.8 49.5 311.9 51.7C315 53.5 317.1 55.2 318.1 56.2L318.1 56.2L318.1 56.2L318.1 56.2L318.1 56.2ZM444.6 190.1C442 190.8 440.5 191.3 440 191.3L440 191.1C440 191.1 441 190.4 442.9 189.2C444.8 188 447.7 186.1 451.8 183C453.7 181.1 456.6 178 460.2 173.6C462.6 170.7 465.2 168.1 468.1 166.2C471.7 163.6 475.1 162.4 478.7 162.4C479.4 162.4 480.6 162.6 482.1 163.1C483.3 163.6 484.5 163.8 485.5 163.8C487.4 163.8 488.9 163.1 490.1 161.6C490.8 160.2 491.8 159 492.7 157.5C493.2 156.5 493.9 156.1 494.4 156.1C494.6 156.1 494.6 156.3 494.6 156.8C494.6 157.3 494.4 158.5 493.9 159.9C493.4 160.6 495.3 160.9 498.9 160.9C499.4 160.9 499.6 160.9 499.6 160.7C499.6 160.7 499.4 159.7 498.9 158.1C498.7 157.6 498.9 156.9 499.6 155.9C500.6 154.2 501 153.5 501.3 153.7C502.3 154.4 502.7 155.9 502.7 157.5C502.7 159.2 502.2 160.9 501.5 162.8C500.8 165 500.1 166.2 499.6 166.6C497.9 167.6 495.3 167.3 491.7 165.6C488.8 168.5 485.9 170.2 483.1 170.2C482.4 170.2 481.2 170 480 169.5C478.8 169 477.8 168.8 477.1 168.8C472.3 168.8 467.3 171 462.2 175.8C458.6 179.4 455 183 451.4 186.6C449.1 188.2 447 189.4 444.6 190.1L444.6 190.1L444.6 190.1L444.6 190.1L444.6 190.1ZM393.2 60.5C396.1 60.5 398.5 61.9 400.6 65.3C402.8 68.4 404.4 72.7 405.2 78C405.4 78.5 405.4 78.7 405.4 79L405.6 79C405.6 78.8 405.8 78.5 405.8 78C406.3 74.9 407.5 70.1 409.2 63.8C411.1 59.5 413 57.3 415.2 57.3C416.4 57.3 417.6 58 418.6 59.5C419.6 60.9 420 61.9 420 62.9C420 63.4 420 64.3 419.5 65.3C419 66.7 418.5 67.5 418.1 67.5C417.9 67.5 417.4 66.8 416.4 65.8C415.7 64.8 414.7 64.4 413.8 64.4C411.9 64.4 410.2 69 408.5 78.1C407.8 82.2 406.8 85.1 406.1 86.7C405.4 87.7 404.9 88.4 404.4 88.4C403.9 88.4 403.9 87.7 403.7 86.7C403.9 85 403 81.9 401.1 77.3C399.2 72.5 398 70.3 397 70.3C396.5 70.3 396.3 70.3 396 70.8C395.8 71 395.5 71.3 394.8 71.3C393.8 71.3 392.9 70.6 391.4 69.4C390 68.2 389.5 67.2 389.5 66.5C389.5 66.3 390 65.1001 391.2 63.1001C392.3 61.2 393 60.5 393.2 60.5L393.2 60.5L393.2 60.5L393.2 60.5L393.2 60.5ZM352.4 57.4C376.6 48.3 401.8 39.2 427.8 29.6C428.5 29.4 429 29.1 429 29.4C429.2 29.4 429.2 29.9 429 30.6C428 32.8 427.3 34 426.8 34.4C426.6 34.6 414.3 39.2 390.6 48.1C366.4 57 352.7 62.5 350 64.2C350.5 61.9 351.2 59.8 352.4 57.4L352.4 57.4L352.4 57.4L352.4 57.4L352.4 57.4ZM328.9 13.4C329.4 12 329.4 10.5 329.1 9.10001C328.9 7.70001 328.1 6.90001 326.9 6.90001C326.4 6.90001 325.7 7.10001 324.7 7.60001C323.7 8.10001 323.3 8.60001 323.3 9C323.4 10.3 325.3 11.8 328.9 13.4L328.9 13.4L328.9 13.4L328.9 13.4L328.9 13.4ZM326 19.7C321.4 17.3 319.3 14.9 319.3 12.3C319.3 9.2 320.7 6.3 323.6 3.90001C326.5 1.3 328.9 0.300003 330.8 1.00002C332.5 1.50002 333.2 3.20001 333.2 6.00002C333.2 8.60002 332.7 11.5 331.5 14.9C333.9 16.1 335.3 17.3 335.8 18.3C335.8 19.5 334.8 21.7 332.7 24.5C332.2 23.5 330.8 22.3 328.6 21.1C326 24.7 322.8 27.8 319 30.7C314.4 33.8 310.4 36.5 306.8 37.9C305.8 38.4 301.5 40.1 293.8 42.9C292.6 43.4 291.6 43.6 291.4 43.6C291.2 43.6 291.2 43.4 291.2 43.4C291.2 43.2 291.7 42.4 293.1 41.7C298.9 38.1 304.6 34.7 310.6 31.4C317.6 27.1 322.7 23.3 326 19.7L326 19.7L326 19.7L326 19.7L326 19.7ZM477.7 49.7C478.2 48.3 478.2 46.8 477.9 45.4C477.7 44 476.9 43.2 475.7 43.2C475.2 43.2 474.5 43.4 473.5 43.9C472.5 44.4 472.1 44.9 472.1 45.3C472.2 46.6 474.1 48 477.7 49.7L477.7 49.7L477.7 49.7L477.7 49.7L477.7 49.7ZM483 58.6C480.6 64.4 479.4 68.9 479.4 72.3C479.4 76.4 480.4 78.5 482.5 78.5C483.7 78.5 485.1 76.8 486.8 73.9C487 73.7 487 73.4 487.3 73.2C487.3 73.2 487.5 73.2 487.5 73.4C487.5 73.4 487.5 73.6 487.5 74.1C486.1 81.3 483.9 84.9 481 84.9C477.9 84.9 476.4 82.3 476.4 77C476.4 74.4 476.9 71 478.3 66.7C479.7 62.4 480.5 60.2 480.5 60C480.5 59.5 479.5 58.6 477.4 57.4C473.6 62.4 468.3 67.2 461.6 71.3C457 73.9 452.5 76.3 447.7 78.3C438.8 81.9 433.5 83.8 432.3 84.5C431.1 85 430.4 85.2 429.9 85.2C429.7 85.2 429.7 85 429.7 85C429.7 84.5 430.2 84 431.6 83.1C439.3 78.8 446.7 74.5 454.4 70.1C464.5 64.3 471.4 59.5 474.8 55.9C470.2 53.5 468.1 51.1 468.1 48.5C468.1 45.4 469.5 42.5 472.4 39.9C475.3 37.5 477.7 36.5 479.6 37.3C481 37.8 482 39.5 482 42.3C482 44.9 481.5 47.8 480.3 50.9C482.7 52.3 483.7 53.8 483.7 55.2C483.7 55.9 483.5 57.1 483 58.6L483 58.6L483 58.6L483 58.6L483 58.6ZM373.8 23.5C373.8 23.3 374 23 374 23C374.2 22.8 374.2 22.8 374.2 23C374.4 23.2 374.4 23.5 374.2 23.7C373 30.9 370.8 34.5 367.7 34.5C364.6 34.5 363.1 31.9 363.1 26.6C363.1 20.1 364.8 13.2 368.6 6.20001C369.6 4.50002 370 3.60001 370.3 3.60001L370.3 3.60001C370.3 3.8 370.1 4.8 369.6 6.5C367.2 13.9 366 19 366 22.1C366 25.9 367 28.1 369.1 28.1C370.7 28.1 372.1 26.4 373.8 23.5L373.8 23.5L373.8 23.5L373.8 23.5L373.8 23.5Z" id="Group" fill="#595959" stroke="none" clip-path="url(#clip_1)" />
  </g>
</svg>