<?xml version="1.0" encoding="utf-8"?>
<svg width="488.6001px" height="203.60007px" viewBox="0 0 488.6001 203.60007" version="1.1" xmlns:xlink="http://www.w3.org/1999/xlink" xmlns="http://www.w3.org/2000/svg">
  <defs>
    <path d="M488.6 0L488.6 0L488.6 203.6L0 203.6L0 0L488.6 0Z" id="path_1" />
    <clipPath id="clip_1">
      <use xlink:href="#path_1" clip-rule="evenodd" fill-rule="evenodd" />
    </clipPath>
  </defs>
  <g id="Surah_35_of_114_(modified)">
    <path d="M488.6 0L488.6 0L488.6 203.6L0 203.6L0 0L488.6 0Z" id="Surah_35_of_114_(modified)" fill="none" stroke="none" />
    <path d="M188.3 3.2C191.2 3.2 193.6 4.59999 195.7 8C197.9 11.1 199.5 15.4 200.3 20.7C200.5 21.2 200.5 21.4 200.5 21.7L200.7 21.7C200.7 21.5 200.9 21.2 200.9 20.7C201.4 17.6 202.6 12.8 204.3 6.5C206.2 2.2 208.1 0 210.3 0C211.5 0 212.7 0.699997 213.7 2.2C214.7 3.59999 215.1 4.59999 215.1 5.59999C215.1 6.09999 215.1 6.99998 214.6 7.99999C214.1 9.39998 213.6 10.2 213.2 10.2C213 10.2 212.5 9.49998 211.5 8.49998C210.8 7.49999 209.8 7.09999 208.9 7.09999C207 7.09999 205.3 11.7 203.6 20.8C202.9 24.9 201.9 27.8 201.2 29.4C200.5 30.4 200 31.1 199.5 31.1C199 31.1 199 30.4 198.8 29.4C199 27.7 198.1 24.6 196.2 20C194.3 15.2 193.1 13 192.1 13C191.6 13 191.4 13 191.1 13.5C190.9 13.7 190.6 14 189.9 14C188.9 14 188 13.3 186.5 12.1C185.1 10.9 184.6 9.90001 184.6 9.20001C184.6 9.00002 185.1 7.80002 186.3 5.80002C187.4 3.89999 188.1 3.2 188.3 3.2ZM157.9 51.2C198.5 35.8 239.7 20.5 282 4.60001C282.202 4.54225 282.388 4.47615 282.549 4.41857C282.947 4.27675 283.2 4.18667 283.2 4.40001C283.4 4.40001 283.4 4.90001 283.2 5.60001C282.2 7.8 281.5 9 281 9.40001C242.4 23.8 200.4 39.9 155.5 57.9C155.9 55.7 156.7 53.6 157.9 51.2ZM293.7 16.7C293.7 19.3 295.8 21.7 300.4 24.1C297.1 27.7 292 31.5 285 35.8C279 39.1 273.3 42.5 267.5 46.1C266.1 46.8 265.6 47.6 265.6 47.8C265.6 47.8 265.6 48 265.8 48C266 48 267 47.8 268.2 47.3C275.9 44.5 280.2 42.8 281.2 42.3C284.8 40.9 288.8 38.2 293.4 35.1C297.2 32.2 300.4 29.1 303 25.5C305.2 26.7 306.6 27.9 307.1 28.9C309.2 26.1 310.2 23.9 310.2 22.7C309.7 21.7 308.3 20.5 305.9 19.3C307.1 15.9 307.6 13 307.6 10.4C307.6 7.60002 306.9 5.90002 305.2 5.40002C303.3 4.70001 300.9 5.70001 298 8.30002C295.1 10.7 293.7 13.6 293.7 16.7ZM128.1 61.5C129.3 78.8 129.8 88.4 129.8 90.3C129.8 100.4 129.8 105.7 129.9 106.2C129.9 109 129.2 111 128.2 112.4C122 121.1 117.4 128 114.3 133.3L114.3 146.5C127.5 141.7 137.9 137.9 145.3 135C163.8 127.5 176.3 122 182.5 118.4C186.3 116 189.7 112.6 192.3 108.3C194.7 104.2 195.9 99.9 195.9 95.6C195.9 93 193.7 89.4 189.4 84.8C184.1 79.3 178.4 76.4 172.6 76.4C165.1 76.4 157.9 80 150.5 86.7C148.4 89.1 142.8 95.5 134.2 106.1C136.1 92.9 137.1 82.3 137.1 74.9C137.1 72.3 136.7 65.3 135.7 53.8C135 42.3 134.5 36.3 134.5 36.3C134.5 35.1 134.7 34.8 135.2 35.3C139.2 40.1 141.4 41.5 141.4 39.1C141.4 38.6 141.2 37.4 140.7 36.2C140.2 34.3 138.5 29.5 135.4 21.6C132.7 14.1 130.8 9.59999 130.1 7.89999C129.6 7.2 129.4 6.7 129.1 6.7C128.8 6.7 128.3 7.2 128.1 7.89999C125.4 14.4 124 18.2 124 19.9C125.5 23.1 126.2 26.9 126.2 31.7C126.2 34.1 126.9 44.2 128.1 61.5ZM303.5 13.5C303.8 14.9 303.8 16.4 303.3 17.8C299.7 16.1 297.8 14.7 297.7 13.4C297.7 13 298.1 12.5 299.1 12C300.1 11.5 300.8 11.3 301.3 11.3C302.5 11.3 303.3 12.1 303.5 13.5ZM345 30.8C345 30.8 344.8 31.1 344.8 31.3C343.1 34.1 341.7 35.8 340.1 35.9C338 35.9 337 33.7 337 29.9C337 26.8 338.2 21.7 340.6 14.3C341.1 12.6 341.3 11.6 341.3 11.4C341 11.4 340.6 12.3 339.6 14C335.8 21 334.1 27.9 334.1 34.4C334.1 39.7 335.6 42.3 338.7 42.3C341.8 42.3 344 38.7 345.2 31.5C345.4 31.3 345.4 31 345.2 30.8C345.2 30.7093 345.2 30.6598 345.181 30.6513C345.159 30.6411 345.109 30.6907 345 30.8ZM109.6 175.5C113.4 179.1 117.5 182 121.6 184.1L121.6 198.7C115.8 196.3 111.5 193.9 108.6 191.7C104.3 188.3 100.9 184.3 98.3 179C96.5607 175.12 95.0899 167.213 94.0972 155.218C88.4658 158.004 84.4933 160.144 82.3 162C77.3 165.8 69.8 173.3 60.2 184.3C54.4 191 48.7 194.4 42.9 194.4C38.1 194.4 33.8 192.2 30.2 187.7C26.4 183.4 24.7 177.6 24.7 171.1C24.7 162.2 28.3 150.5 35.7 135.8C35.9871 135.226 36.2741 134.753 36.5474 134.394C33.6185 134.255 32.2 131.654 32.2 126.5C32.2 120 33.9 113.1 37.7 106.1C38.7 104.4 39.1 103.5 39.4 103.5C39.4 103.7 39.2 104.7 38.7 106.4C36.3 113.8 35.1 118.9 35.1 122C35.1 125.8 36.1 128 38.2 128C39.8 128 41.2 126.3 42.9 123.4C42.9 123.2 43.1 122.9 43.1 122.9C43.2093 122.791 43.2589 122.741 43.2813 122.751C43.3 122.76 43.3 122.809 43.3 122.9C43.5 123.1 43.5 123.4 43.3 123.6C42.2324 130.006 40.3733 133.562 37.7932 134.268C37.6737 135.878 35.9865 140.915 33 149.2C29.6 158.1 28 164.8 28 169.8C28 173.6 29 176.8 30.9 178.9C32.8 181.5 35.5 182.7 38.8 182.7C44.8 182.7 51 179.6 57 173.6C61.1 169.3 65 164.5 68.8 159.9C73.8 154.1 80.6 149.1 89 144.5C90.204 143.848 91.6344 143.114 93.2914 142.301C93.1778 139.789 93.0803 137.155 93 134.4C91.6 91.9 90.4 67.7 89.9 61.7C88.7 50.4 86.8 41.8 84.4 35.5C84.4 33.6 85.4 29.7 87.8 24C88.3 22.8 88.8 22.3 89 22.3C89.2 22.3 89.7 22.8 90.2 23.7C93.1 29.5 95.2 39.1 96.7 53.2C97.4 59.4 98.1 73.6 98.9 95.7C99.4 108.2 99.6 120.7 100.1 133.1C100.196 135.121 100.307 137.072 100.433 138.952C104.323 137.193 108.912 135.203 114.2 133L114.2 146.2C109.078 148.462 104.929 150.281 101.666 151.717C103.291 163.964 105.913 171.813 109.6 175.5ZM326.8 61.7C351 52.6 376.2 43.5 402.2 33.9C402.402 33.8423 402.588 33.7762 402.749 33.7186C403.147 33.5768 403.4 33.4867 403.4 33.7C403.6 33.7 403.6 34.2 403.4 34.9C402.4 37.1 401.7 38.3 401.2 38.7C401 38.9 388.7 43.5 365 52.4C340.8 61.3 327.1 66.8 324.4 68.5C324.9 66.3 325.6 64.1 326.8 61.7ZM245.3 59.8C246.2 57.9 246.7 56.7 246.7 55.7C246.7 54.8 245.9 53.6 244.4 52.6C242.9 51.8 242 51.6 241 51.6C238.1 51.6 234 53.8 229.2 58.1C232.3 52.4 234 47.6 234 44.2C234 39.2 232.1 36.8 228.7 36.8C227.2 36.8 225.8 37.6 224.1 39C222.6 40.7 221.9 42.3 221.9 44.5L221.9 46.2C222.1 46.2 222.4 45.9 223.1 45.2C224.5 43.8 225.7 43.3 227.4 43.3C228.1 43.3 228.8 43.7 229.3 44.7C230 45.9 230.5 47.1 230.5 48.5C230.5 48.8 229.1 52.9 226.7 60.3C225.1 62.5 223.4 64.1 221.7 65.1C216.9 66 212.1 66.3 207.8 65.8C206.6 65.6 205.9 65.6 205.9 65.6C205.781 65.6793 205.709 65.7271 205.697 65.7871C205.679 65.8785 205.798 65.9981 206.1 66.3L207.1 67.3C208.1 68 209.8 68.9 212.4 69.9C215.3 70.9 217.5 71.6 218.9 71.6C227.5 71.6 235.2 68.9 242.4 63.9C243.4 63.4 244.3 62 245.3 59.8ZM457.4 62.9C455 68.7 453.8 73.2 453.8 76.6C453.8 80.7 454.8 82.8 456.9 82.8C458.1 82.8 459.5 81.1 461.2 78.2C461.4 78 461.4 77.7 461.7 77.5C461.7 77.5 461.9 77.5 461.9 77.7L461.9 78.4C460.5 85.6 458.3 89.2 455.4 89.2C452.3 89.2 450.8 86.6 450.8 81.3C450.8 78.7 451.3 75.3 452.7 71C454.1 66.7 454.9 64.5 454.9 64.3C454.9 63.8 453.9 62.9 451.8 61.7C448 66.7 442.7 71.5 436 75.6C431.4 78.2 426.9 80.6 422.1 82.6C413.2 86.2 407.9 88.1 406.7 88.8C405.5 89.3 404.8 89.5 404.3 89.5C404.1 89.5 404.1 89.3 404.1 89.3C404.1 88.8 404.6 88.3 406 87.4C413.7 83.1 421.1 78.8 428.8 74.4C438.9 68.6 445.8 63.8 449.2 60.2C444.6 57.8 442.5 55.4 442.5 52.8C442.5 49.7 443.9 46.8 446.8 44.2C449.7 41.8 452.1 40.8 454 41.6C455.4 42.1 456.4 43.8 456.4 46.6C456.4 49.2 455.9 52.1 454.7 55.2C457.1 56.6 458.1 58.1 458.1 59.5C458.1 60.3 457.9 61.5 457.4 62.9ZM452.1 54.1C452.6 52.7 452.6 51.2 452.3 49.8C452.1 48.4 451.3 47.6 450.1 47.6C449.6 47.6 448.9 47.8 447.9 48.3C446.9 48.8 446.5 49.3 446.5 49.7C446.6 50.9 448.5 52.4 452.1 54.1ZM296.3 52.6L292.5 60.5C291.5 59.6 289.4 57.9 286.3 56C283.2 53.8 281.5 52.6 281 52.6C280.7 52.6 280.2 53.1 280 53.6L275.4 63.2C275.2 63.7 275.2 64 275.4 64.2C279.3 66.6 283.1 69.2 286.7 72.1C287.2 72.4 287.7 72.1 287.9 71.4C289.4 69.2 290.6 66.6 292 63.7C296.1 66.3 299.7 68.7 302.8 71.1C303.2 71.3 303.7 71.3 304.2 70.6C307.3 65.3 309 61.7 309 60C309 59.5 307.1 58.1 303.5 55.7C299.7 53.1 297.8 51.9 297.3 51.9C296.8 51.9 296.5 52.1 296.3 52.6ZM240.1 57.9C240.9 58.4 241.1 58.6 241.1 59.1C241.1 59.3 239.5 60.3 236 61.7C232.4 63.4 229.3 64.4 226.9 64.6C227.8 63.2 229.8 61.7 232.4 59.8C235 58.1 236.7 57.4 237.9 57.4C238.7 57.4 239.4 57.4 240.1 57.9ZM374.8 69.7C372.7 66.3 370.3 64.9 367.4 64.9C367.1 64.9 366.4 65.6 365.4 67.5C364.2 69.5 363.7 70.7 363.7 70.9C363.7 71.6 364.2 72.6 365.6 73.8C367.1 75 368 75.7 369 75.7C369.7 75.7 370 75.4 370.2 75.2C370.5 74.7 370.7 74.7 371.2 74.7C372.2 74.7 373.4 76.9 375.3 81.7C377.2 86.3 378.1 89.4 377.9 91.1C378.1 92.1 378.1 92.8 378.6 92.8C379.1 92.8 379.6 92.1 380.3 91.1C381 89.5 382 86.6 382.7 82.5C384.4 73.4 386.1 68.8 388 68.8C388.9 68.8 389.9 69.2 390.6 70.2C391.6 71.2 392.1 71.9 392.3 71.9C392.7 71.9 393.2 71.1 393.7 69.7C394.2 68.7 394.2 67.8 394.2 67.3C394.2 66.3 393.8 65.3 392.8 63.9C391.8 62.4 390.6 61.7 389.4 61.7C387.2 61.7 385.3 63.9 383.4 68.2C381.7 74.5 380.5 79.3 380 82.4C380 82.9 379.8 83.2 379.8 83.4L379.6 83.4C379.6 83.1 379.6 82.9 379.4 82.4C378.6 77.1 377 72.8 374.8 69.7ZM69.3 68C69.3 68.5 69.1 69.4 68.8 70.4C68.3 71.8 67.8 72.6 67.1 72.6C66.9 72.6 66.4 71.9 65.4 70.9C64.7 69.9 63.7 69.5 63 69.5C61.1 69.5 59.2 74.1 57.5 83.2C56.8 87.3 56.1 89.9 55.1 91.6C54.4 92.8 53.9 93.3 53.4 93.3C53.2 93.3 52.9 92.8 52.9 91.9C52.9 90.2 51.9 87.1 50 82.5C48.3 77.7 46.9 75.5 46.2 75.5C45.7 75.5 45.2 75.5 45.2 76C45 76.2 44.5 76.5 43.8 76.5C42.8 76.5 41.6 75.8 40.2 74.6C39.6828 74.0829 39.2885 73.6203 39.0069 73.2173C38.7113 73.8538 38.3402 74.5824 37.9 75.4C35.5 80 32.1 83.6 27.8 86.7C23.2 90.1 19.2 92.5 15.6 94.1C14.9 94.6 10.6 96.3 2.59999 99.1C1.39999 99.6 0.699997 99.8 0.199997 99.8C0 99.8 0 99.6 0 99.6C0 99.4 0.699997 98.6 1.89999 97.9C8.59999 94.3 17.7 88.5 29.5 80.6C34.1644 77.1989 36.9402 74.1755 38.4697 71.8051C38.4092 72.1245 38.5763 72.6012 39.0069 73.2173C39.6512 71.8297 39.9371 70.8799 39.8 70.4C40 70.4 39.8 70.2 39.8 70.2C39.6 70.2 39.1 70.6 38.6 71.6C38.5576 71.6678 38.5142 71.7362 38.4697 71.8051C38.4767 71.768 38.4869 71.7329 38.5 71.7C40.7 67.6 41.9 65.7 42.3 65.7C44.9 65.7 47.6 67.1 49.7 70.5C51.9 73.6 53.3 77.9 54.3 83L54.3 84C54.4093 84.1094 54.4589 84.1589 54.4814 84.1487C54.5 84.1403 54.5 84.0907 54.5 84C54.5 84 54.7 83.8 55 83C55.5 80.1 56.4 75.3 58.1 69.1C60 64.8 61.9 62.6 64.3 62.6C65.3 62.6 66.5 63.3 67.7 64.8C68.8 66.1 69.3 67 69.3 68ZM315.3 78.5C315.3 82.3 313.4 87.6 309.5 94.1C307.1 98.2 303.5 103.7 298.7 110.9C303.5 116.4 306.9 121.5 308.5 125.8C309.5 128.9 310.2 133 310.2 137.6C310.2 139.5 309.7 141.9 308.8 145C308.1 147.9 307.1 150 306.2 151.5C304.3 154.4 301.2 157.3 296.4 160.1C291.4 163.5 287 165.1 283.4 165.1C277.6 165.1 274.8 160.8 274.8 152.1C274.8 146.3 275.8 140.6 277.7 135.3C279.6 130.7 282.7 124.7 287.8 116.8C283.5 112.7 278.9 107 273.9 99.8C273.4 99.1 272.2 97.9 270.3 96C269.3 95 268.9 93.8 268.9 92.4C268.9 90.2 269.1 87.8 269.6 85C270.3 82.1 270.8 80.9 271 80.9C271.7 80.9 273.9 82.1 278 84.7C281.8 87.3 285 89.3 286.9 90.9C288.1 91.6 288.6 92.3 288.6 92.3L288.6 92.5C288.6 92.7 287.9 93 286.2 93C283.1 93 281.4 93.2 281.4 93.5C281.4 93.7 281.9 94.2 282.8 95.4C286.6 100.2 290.5 103.8 294.6 106.7C295.6 105.3 298.9 100.5 304.2 92.3C308.8 85.3 311.4 80.5 312.6 77.7C313.8 74.8 314.5 73.6 315 73.6C315.1 73.7 315.3 75.2 315.3 78.5ZM224.3 95.3C224.1 95.8 224.1 96.1 224.3 96.3C228.2 98.7 232 101.3 235.7 104.2C236.19 104.494 236.392 104.211 236.871 103.54L236.9 103.5C240.2 98.2 241.9 94.9 241.9 93.2C241.9 92.7 239.9 91.2 236.1 88.6C232.5 86.2 230.4 85 229.9 85C229.6 85 229.1 85.2 228.9 85.7L224.3 95.3ZM187.6 100.2C188.3 101.4 188.3 102.1 187.6 102.8C183.8 105.2 173 110 155.1 117.5C139.2 124.2 127.5 128.8 119.8 131.4C124.1 126.1 128.2 121.1 132.5 115.8C138.7 108.4 144.5 102.6 149.5 98.8C156.2 93.5 162.7 90.6 168.2 90.6C176.1 90.6 182.6 94 187.6 100.2ZM332.8 106.9C333.8 108.1 334.5 109.7 335 111.9C336.2 116 338.6 121.7 341.9 128.8C344.8 135.1 346.2 138.4 346.2 138.9C346.2 140.9 343.3 144 337.8 148.3C332.937 151.914 326.607 156.046 318.808 160.64C319.535 156.137 320.825 150.713 322.7 144.3C323 142.8 323.2 141.6 323.2 140.9C323.2 140.4 323.2 140.2 323 140.2C322.5 140.2 322 141.2 320.8 143.6C318.411 150.051 316.664 156.324 315.644 162.482C312.452 164.32 309.038 166.227 305.4 168.2C296 173.3 284.3 178.8 270.1 184.8C249.7 193.4 238.6 198.2 236.7 199.2C231.4 201.6 228.8 203.1 228.8 203.3C228.8 203.5 228.8 203.5 229.3 203.5C230.3 203.5 232.7 203.2 236.5 202.5C240.1 202 249.2 199.9 263.6 196.5C277.3 193.2 284.5 191.5 285 191.5C287.6 191.5 296 187.4 310.4 179C311.849 178.188 313.26 177.381 314.634 176.579C314.914 183.722 316.888 189.879 320.4 194.5C324.7 200.5 330.9 203.6 339.1 203.6C348.7 203.6 359.7 198.6 372.7 189C381.4 182.5 389.3 175 396.5 166.4C399.6 162.8 402.2 158.2 403.9 152.7C405.4 148.3 406.1 145 406.1 142.1L406.6 141.6L406.6 128.4C405.6 128.9 405.1 128.9 404.9 128.9C402.5 123.9 399.6 119.8 396.5 116.2C392.9 112.6 389.8 110.7 386.7 110.7C382.6 110.7 378.8 112.8 375.2 116.9C371.4 121.7 369.7 127 369.7 133C369.7 140.9 375.5 145 387 145C392.3 145 396.6 144.3 399.5 143.3C400 145 400.5 146.7 400.5 148.1C400.5 150.3 396.9 154.6 389.9 161.4C382.2 168.6 374.3 174.6 366.1 179.6C355.7 185.9 347.1 189 339.9 189C331.5 189 325.5 186.3 321.7 181.3C320.287 179.18 319.289 176.782 318.708 174.148C330.972 166.663 339.932 159.61 345.7 153.1C347.7 150.9 349.1 147.8 350.3 143.7C351.2 140.1 351.7 137.2 351.7 134.8C351.7 129.7 350.2 124.2 347.6 117.5C345.9 113.7 344 109.6 342.3 105.5C345.2 106.2 347.1 106.7 347.8 106.7C348.3 106.7 348.5 106.4 348.5 106.2C348.5 105.7 347.8 104.8 346.1 103.1C342.1 99 338.5 95.1 335.1 91.3C334.6 90.8 334.3 90.6 334.1 90.6C333.6 90.6 333.3 91.1 333.1 92.3C332.6 93.5 332.4 95.7 331.9 98.8C331.4 102.1 331.4 103.8 331.4 104.3C331.6 104.7 332.1 105.5 332.8 106.9ZM72.6 123.9C72.6 123.9 72.4 124.2 72.4 124.4C70.7 127.3 69.3 128.9 67.7 129C65.6 129 64.6 126.8 64.6 123C64.6 119.9 65.8 114.8 68.2 107.4C68.7 105.7 68.9 104.7 68.9 104.5C68.6 104.5 68.2 105.4 67.2 107.1C63.4 114.1 61.7 121 61.7 127.5C61.7 132.8 63.2 135.4 66.3 135.4C69.4 135.4 71.6 131.8 72.8 124.6C73 124.4 73 124.1 72.8 123.9C72.8 123.809 72.8 123.76 72.7813 123.751C72.7589 123.741 72.7093 123.791 72.6 123.9ZM432.7 113.4C432 113.4 431 113.8 429.8 114.8C425.9 118.1 422.1 121 418.2 123C417 123.8 412.9 125.7 406.7 128.8L406.7 142C415.1 138.1 421.6 134.1 425.4 129.5C425.4 140.5 430.2 146.3 440.3 146.3C448.7 146.3 455.6 141.5 460.9 131.9C464.1 137.7 467.7 140.8 471.5 140.8C477.3 140.8 481.6 138.2 484.5 132.9C487.2 128.5 488.6 123.5 488.6 117.5C488.6 113.6 487.4 110.3 485.5 107.4C484.8 106.4 484.3 106.2 483.8 106.2C483.3 106.2 482.8 107 482.6 108.4C481.2 112.9 480.2 116.3 480 118.2C482.1 121.8 483.1 123.8 483.1 124C482.1 125.6 480 126.6 476.6 126.6C474 126.6 471.6 125.6 469.9 124.2C468 122.8 467 121.1 467 119.4C467 119.9 467.7 118 468.7 113.9C469.2 111.8 469 110.8 468 110.8C467.3 110.8 466.6 111.2 465.6 112.2C463.2 116.1 460.6 119.9 458.2 124C454.3 129.1 449.3 131.7 443.3 131.7C435.8 131.7 432 128.8 432 123.5C432 122.3 432.2 120.8 432.7 118.9C433.2 117 433.4 115.5 433.4 114.8C433.4 113.9 433.2 113.4 432.7 113.4ZM256.5 164.9C257 164.9 257.5 164.4 257.5 163.7C257.5 162 255.8 160.1 252.9 158.2C249.5 156 245.7 155.1 241.4 155.1L231.5 155.1C227.9 155.1 225 153.9 222.9 151.5C221 149.1 219.8 146.2 219.8 142.4C219.8 137.6 221.7 132.6 225.1 127.3C228.7 122.3 232.1 119.9 235.9 119.9C241.9 119.9 247.4 123.3 252.7 130C258.5 137.4 261.1 146.1 261.1 156.4C261.1 167 258.5 174.4 252.7 178.7C250.8 180.1 245.5 182.5 236.4 185.9C224.4 190.7 211.9 194.3 199 197.2C181.7 201.3 165.4 203.2 149.6 203.2C144.6 203.2 139 202.5 132.6 201.5C127.6 200.5 124 199.6 122 198.9L122 184.3C128.2 187.2 139.5 188.6 155.6 188.6C189.8 188.5 223.4 180.5 256.5 164.9ZM305.9 137.6C303.3 132.3 298.7 126.8 292.5 121.5C290.3 123.7 287.7 127.7 284.3 133.5C280.5 140 278.8 144.1 278.8 146.2C278.8 149.1 280.7 150.5 285 150.5C286.9 150.5 289.3 149.8 292.4 148.6C296.7 146.7 300.8 144 304.2 140.7C305.7 139.3 306.2 138.3 305.9 137.6ZM393.1 130.6C389.5 126 386.4 123.9 383.5 123.9C379.2 123.9 377.3 124.9 377.3 127.3C377.3 130.2 380.2 131.6 385.9 131.6C387.764 131.6 389.864 131.206 392.2 130.768C392.496 130.712 392.796 130.656 393.1 130.6ZM190.5 132.5C170.4 140 151.2 147.2 132.7 153.9C131.5 156.3 130.7 158.5 130.2 160.6C152.8 151.2 172.7 143.5 189.5 137.3C190 136.9 190.7 135.7 191.7 133.5C191.9 132.8 191.9 132.3 191.9 132.3C191.751 132.076 191.435 132.186 190.994 132.339C190.844 132.392 190.678 132.449 190.5 132.5ZM245.7 141.7C242.1 136.4 238.3 133.8 233.7 133.8C230.6 133.8 229.1 134.8 229.1 136.9C229.1 139.1 231 140.5 234.9 141C237.3 140.9 240.9 141.2 245.7 141.7ZM194.1 156.3C194.1 158.9 192.9 161.8 191 164.9C188.8 168 186.2 170.9 182.8 173.3C181.4 174.3 180.6 174.7 180.4 174.7L180.4 174.5C180.4 174.3 180.9 173.8 181.8 172.6C187.3 166.6 190.2 162.8 190.2 160.6C190.2 158.9 189.2 158 187.6 158C186.6 158 185.7 158.2 185 158.7C184.3 158.9 184 159.2 183.8 159.2C183.8 159.2 183.6 159.2 183.6 159C183.6 159 183.6 158.5 183.8 157.6C184.8 153.5 186.7 151.6 190 151.6C192.7 151.5 194.1 153.2 194.1 156.3ZM419 194.5C416.4 195.2 414.9 195.7 414.4 195.7L414.4 195.5C414.4 195.5 415.4 194.8 417.3 193.6C419.2 192.4 422.1 190.5 426.2 187.4C428.1 185.5 431 182.4 434.6 178C437 175.1 439.6 172.5 442.5 170.6C446.1 168 449.5 166.8 453.1 166.8C453.8 166.8 455 167 456.5 167.5C457.7 168 458.9 168.2 459.9 168.2C461.8 168.2 463.3 167.5 464.5 166C465.2 164.6 466.2 163.4 467.1 161.9C467.6 160.9 468.3 160.5 468.8 160.5C469 160.5 469 160.7 469 161.2C469 161.7 468.8 162.9 468.3 164.3C467.8 165 469.7 165.3 473.3 165.3C473.8 165.3 474 165.3 474 165.1C474 165.1 473.8 164.1 473.3 162.5C473.1 162 473.3 161.3 474 160.3L474.08 160.164C475.022 158.563 475.408 157.905 475.7 158.1C476.7 158.8 477.1 160.3 477.1 161.9C477.1 163.6 476.6 165.3 475.9 167.2C475.2 169.4 474.5 170.6 474 171C472.3 172 469.7 171.7 466.1 170C463.2 172.9 460.3 174.6 457.5 174.6C456.8 174.6 455.6 174.4 454.4 173.9C453.2 173.4 452.2 173.2 451.5 173.2C446.7 173.2 441.7 175.4 436.6 180.2L425.8 191C423.5 192.5 421.4 193.7 419 194.5ZM58.3 195.9C67.9 192.5 78.2 188.7 89.3 184.9C89.6851 184.823 89.9515 184.731 90.145 184.664C90.454 184.558 90.577 184.516 90.7 184.7C90.9 184.7 90.9 185.2 90.5 185.9C89.8 188.1 89.1 189.3 88.6 189.7C79 193.1 68.2 197.1 56 202.7C56.3 200.5 57.1 198.3 58.3 195.9Z" id="Group" fill="#595959" fill-rule="evenodd" stroke="none" clip-path="url(#clip_1)" />
  </g>
</svg>