<?xml version="1.0" encoding="utf-8"?>
<svg width="596.00006px" height="206.00005px" viewBox="0 0 596.00006 206.00005" version="1.1" xmlns:xlink="http://www.w3.org/1999/xlink" xmlns="http://www.w3.org/2000/svg">
  <defs>
    <path d="M596 0L596 0L596 206L0 206L0 0L596 0Z" id="path_1" />
    <clipPath id="clip_1">
      <use xlink:href="#path_1" clip-rule="evenodd" fill-rule="evenodd" />
    </clipPath>
  </defs>
  <g id="Surah_7_of_114_(modified)">
    <path d="M596 0L596 0L596 206L0 206L0 0L596 0Z" id="Surah_7_of_114_(modified)" fill="none" stroke="none" />
    <path d="M350.7 29.5C350.7 24.7 350 20.9 348.5 17.7C348.5 16 349.7 11.9 352.6 5.69998C352.8 4.99998 353.1 4.49998 353.3 4.49998C353.8 4.49998 354 4.99998 354.5 5.69998C355.2 7.39998 356.9 11.9 359.8 19.4C362.9 27.3 364.6 32.1 365.1 34C365.6 35.2 365.6 36.4 365.6 36.9C365.6 39.1 363.7 37.9 359.4 33.1C358.9 32.4 358.7 32.9 358.7 34.1C358.7 34.6 359.9 49.5 362.1 79.2C364.3 108.7 365.2 125.3 365.2 129.1C365.2 140.4 363.5 150.5 360.2 159.1C359.2 160.8 358.8 162 358.3 162.9L358.3 162.9C357.6 164.1 357.3 164.1 357.1 163.4C356.9 162.4 357.1 160.5 357.3 157.9C357.8 153.8 358 149.3 358 144.2C358 139.4 356.8 120.2 354.4 86.3999C351.9 52.6 350.7 33.6 350.7 29.5L350.7 29.5L350.7 29.5L350.7 29.5L350.7 29.5ZM328.1 37.7C328.1 35.8 327.6 33.4 326.7 30.7C325.7 28.1 325.3 26.6 325.3 26.4C325.3 25.9 325.8 24 326.7 20.6C327.7 17.2 328.1 15.3 328.4 14.8C328.9 13.8 329.1 13.6 329.4 13.6C329.7 13.6 330.1 13.8 330.6 14.6C331.6 16.8 333.7 20.8 336.8 27.3C340.2 34.5 342.3 39.3 343 41.5C343.5 43.2 343.7 44.1 343.7 44.9C343.7 46.8 341.5 45.6 337.5 40.8C337 40.3 336.8 40.8 336.8 42C336.8 46.3 338.2 61.9 341.4 88.6C344.5 115.2 346.2 132.5 346.2 140C346.2 156.1 342.4 169.5 334.9 179.8C328.9 188.2 322.2 194 314.7 197.3C311.8 198.7 306.8 200.2 299.8 202.1C292.6 204 287.3 205 284 205.5C282.8 205.5 282.1 205.5 282.1 205C282.1 204.8 282.6 204 284 203.1C290.5 199.5 301 193.3 315.7 184.1C320.5 181.2 325.1 177.1 329.9 171.9C336.1 165.2 339.5 159.4 339.5 154.9C339.5 145.1 337.6 124.2 333.7 92.2999C329.8 60 328.1 42 328.1 37.7L328.1 37.7L328.1 37.7L328.1 37.7L328.1 37.7ZM237.9 47.8C236.7 46.1 235.5 44.7 234.1 44C233.4 43.5 233.1 42.8 233.1 41.6L233.1 32C233.1 30.1 233.3 29.1 234.1 29.1C234.6 29.1 235.5 29.6 236.7 30.3L255.2 44.7C256.6 45.7 257.4 46.6 257.4 47.1C257.4 47.6 256.9 47.8 255.7 47.8C254.3 47.8 251.6 47.3 248 46.4C250.2 50.2 269.6 70.4 306.3 107.1C323.6 124.4 332.2 139.5 332.2 152.2C332.2 153.2 332.2 154.4 332 155.6C331 164.5 330.3 168.8 329.8 168.8C329.3 168.8 328.6 165.2 327.6 157.8C325.7 146 316.8 132.4 301 117C275.6 93.0001 257.6 74.3001 247 61.1001C244.8 58.5001 242.9 55.8001 241.2 53.2001C240.3 51.4 239.1 49.7 237.9 47.8L237.9 47.8L237.9 47.8L237.9 47.8L237.9 47.8ZM276.3 111.1C277.7 110.6 278.7 110.4 278.9 110.9C279.4 111.1 279.4 112.1 278.7 113.3L273.7 122.2C273 123.2 272.3 123.9 271.1 124.4C248.3 134.5 223.6 145.3 197.2 156.8L197.2 143.6C198.2 143.1 204.6 140.5 216.9 135.7C210.9 132.6 206.1 128.3 202 123.2C197 116.5 194.6 109 194.6 100.9C194.6 92.7 197.5 86 203.2 80.7C209.7 74.7 217.8 71.8 227 71.8C232.8 71.8 238.8 72.8 245 75.2C249.8 77.1 253.6 79.3 256.8 81.4C259.2 83.6 260.4 84.8 260.4 85.2C260.4 85.2 260.2 85.2 259.9 85.2C259.4 85.2 258.2 85 256.8 84.5C251.8 83.1 246 82.6 239.5 82.6C230.6 82.6 222 83.8 213.6 86.2C205.7 88.6 201.4 91 200.9 93.4C201.6 99.9 205.5 106.4 211.7 113.1C219.4 121 227.8 125.1 236.7 125.1C240.5 125.1 245.8 123.7 252.8 121.3C260.4 117.9 268.4 114.5 276.3 111.1L276.3 111.1L276.3 111.1L276.3 111.1L276.3 111.1ZM151.5 170.2C156.5 164.4 163.3 159.4 171.7 154.8C176.5 152.2 184.9 148.3 196.9 143.3L196.9 156.5C189.2 159.9 183.7 162.3 180.1 163.9C172.7 167.5 167.6 170.1 165 172.3C160 176.1 152.5 183.6 142.9 194.6C137.1 201.3 131.4 204.7 125.6 204.7C120.8 204.7 116.5 202.5 112.9 198C109.1 193.7 107.4 187.9 107.4 181.4C107.4 172.5 111 160.8 118.4 146.1C119.1 144.7 119.8 143.9 120.3 143.9C120.3 143.9 120.5 144.1 120.5 144.4C120.5 145.8 118.8 150.9 115.7 159.5C112.3 168.4 110.7 175.1 110.7 180.1C110.7 183.9 111.7 187.1 113.6 189.2C115.5 191.8 118.2 193 121.5 193C127.5 193 133.7 189.9 139.7 183.9C143.8 179.5 147.6 174.7 151.5 170.2L151.5 170.2L151.5 170.2L151.5 170.2L151.5 170.2ZM141.4 39.4C141.4 34.8 140.7 31 139.2 27.9C139.2 26.2 140.4 22.1 143.3 15.7C143.5 15 143.8 14.7 144 14.7C144.5 14.7 144.7 14.9 145.2 15.9C145.9 17.6 147.6 22.1 150.5 29.6C153.6 37.5 155.3 42.3 155.8 44C156.3 45.4 156.5 46.4 156.5 47.1C156.5 49.3 154.3 48.1 150.3 43.3C149.8 42.6 149.6 42.8 149.6 44.3C149.6 44.5 150.6 58 152.7 84.4C154.9 111 156.1 125.9 156.1 129.8C156.1 141.1 154.2 151.2 150.8 159.8C150.1 161.5 149.4 162.7 148.9 163.6L148.9 163.6C148.2 164.6 147.9 164.8 147.7 164.1C147.5 163.1 147.5 161.2 147.9 158.3C148.4 154.5 148.6 149.9 148.6 144.9C148.6 140.1 147.4 122.6 145 91.9C142.6 61 141.4 43.5 141.4 39.4L141.4 39.4L141.4 39.4L141.4 39.4L141.4 39.4ZM122.4 103C118.8 97.7 115 95.1 110.6 95.1C107.2 95.1 105.8 96.3 105.8 98.2C105.8 100.6 107.7 101.8 111.6 102.3C114 102.5 117.6 102.7 122.4 103L122.4 103L122.4 103L122.4 103L122.4 103ZM46.1 152.2C61.7 152.2 79.7 148.6 99.6 141.6C114.7 136.3 126 131.3 133.4 126.5C133.4 123.4 131.7 121 128.4 119.1C125.5 117.4 122.2 116.5 118.1 116.5L108.3 116.5C104.7 116.5 101.8 115.3 99.9 112.9C97.7 110.7 96.5 107.6 96.5 104C96.5 99 98.4 93.9 101.8 88.9C105.4 83.9 109 81.2 112.6 81.2C118.6 81.2 124.4 84.6 129.4 91.3C135.2 98.7 138 107.6 138 117.7C138 123.2 137.5 127.3 136.6 129.5C135.6 132.4 133.2 135.5 129.4 139.3C124.8 143.9 113.3 149.4 95.1 155.9C74 163.3 55.7 166.9 40.1 166.9C24.7 166.9 13.9 162.8 7.00001 154.9C2.2 149.1 7.62939e-06 141.9 7.62939e-06 133.3C7.62939e-06 124.2 2.2 115.8 6.50001 107.9C7.90001 105.5 8.90001 104.1 9.40001 104.1C9.40001 104.3 9.60001 104.3 9.60001 104.8C9.60001 105.5 9.10001 107 8.40001 109.1C7.40001 112 6.20001 114.6 5.30001 117.5C4.10001 121.1 3.60001 124.9 3.60001 129C3.60001 134.3 6.00002 138.8 11.3 142.9C18.8 149.1 30.3 152.2 46.1 152.2L46.1 152.2L46.1 152.2L46.1 152.2L46.1 152.2ZM99.9 61.7C99.7 61.5 99.7 61.2 99.9 60.7L104.5 51.1C104.7 50.6 105.2 50.4 105.5 50.4C106 50.4 108.1 51.6 111.7 54C115.5 56.6 117.5 58.1 117.5 58.6C117.5 60.3 115.8 63.6 112.5 68.9C112 69.6 111.8 69.9 111.3 69.6C107.6 66.7 103.7 64.1 99.9 61.7L99.9 61.7L99.9 61.7L99.9 61.7L99.9 61.7ZM238.8 11.5C238.3 13.7 237.8 14.9 237.1 15.6C234.5 17.3 228.5 21.1 219.3 27.4C219.1 27.6 218.6 27.9 218.1 28.4C217.9 28.2 217.9 28.2 217.9 27.7L218.4 24.6C218.6 23.9 220.1 22.4 223 20.3C219.4 19.1 217.7 17.4 217.7 15.5C217.7 13.3 218.4 11.2 220.3 8.99998C223.9 4.69998 227 2.49998 229.4 2.49998C231.6 2.49998 232.5 3.69998 232.5 6.09999C232.5 7.49998 232 8.99998 230.8 10.9C230.6 11.4 230.3 11.4 229.8 10.7C229.3 9.5 228.4 9 227.2 9C226.5 9 225.5 9.2 224.3 10.2C223.1 10.9 222.4 11.6 222.4 12.1C222.4 12.8 223.1 13.5 224.6 14.3C226 15.3 227.2 15.5 228.2 15.5C228.9 15.5 230.4 15 232.5 13.8C233.9 12.8 235.1 11.9 236.6 10.9C237.8 10.4 238.5 9.89999 238.8 10.2C239.1 10.1 239.1 10.6 238.8 11.5L238.8 11.5L238.8 11.5L238.8 11.5L238.8 11.5ZM299.1 20.9C299.1 19.7 296.7 17.5 291.7 14.7C290 17.6 289.3 20.2 289.3 22.6C289.3 24 290 25 291.5 25C292.7 25 294.1 24.5 295.8 23.6C297.4 22.8 298.6 21.9 299.1 20.9L299.1 20.9L299.1 20.9L299.1 20.9L299.1 20.9ZM293.8 1.7C294.5 0.5 295.5 0 296.2 0C296.7 0 297.2 0.199997 297.2 0.699997C297.2 0.699997 297 0.899994 297 1.2C296 3.39999 295.1 5.8 294.4 8.2C299.4 11.8 301.8 15.6 301.6 19.2C301.1 23.3 300.6 25.9 299.9 26.9C297.5 29.8 294.9 31.5 291.5 31.5C288.1 31.5 286.7 29.3 286.7 25.5C286.7 24.8 286.7 23.8 286.9 22.9C288 15.1 290.4 8.2 293.8 1.7L293.8 1.7L293.8 1.7L293.8 1.7L293.8 1.7ZM304.6 67.7C304.6 67.5 304.8 67.2 304.8 67.2C305 67 305 67 305 67.2C305.2 67.4 305.2 67.7 305 67.9C303.8 75.1 301.6 78.7 298.5 78.7C295.4 78.7 293.9 76.1 293.9 70.8C293.9 64.3 295.6 57.4 299.4 50.4C300.4 48.7 300.8 47.8 301.1 47.8L301.1 47.8C301.1 48 300.9 49 300.4 50.7C298 58.1 296.8 63.2 296.8 66.3C296.8 70.1 297.8 72.3 299.9 72.3C301.5 72.3 302.9 70.6 304.6 67.7L304.6 67.7L304.6 67.7L304.6 67.7L304.6 67.7ZM259.7 197.8C264.5 197.8 269.5 196.8 275.3 195.2C276.7 194.7 277.5 194.7 277.5 195C277.5 195.2 277 195.7 275.8 196.7C271 201 264.5 203.4 256.8 203.4C254.6 203.4 252.5 202.7 251 201.5C249.6 200.3 248.8 198.6 248.8 196.7C248.8 191.7 251 186.4 255.3 180.9C251.5 179.7 249.5 177.8 249.5 174.9C249.5 172.3 250.9 169.4 254.1 166C257.2 162.6 259.6 161 261.5 161C262 161 262.5 161.2 262.9 162.2C263.4 162.9 263.6 163.6 263.6 164.6C263.6 165.1 263.1 166 262.2 167.5C261.2 168.9 260.5 169.4 260.5 169.2C260 167.8 259.3 167 257.9 167C257.2 167 256.5 167.5 255.5 168.7C254.3 169.9 253.8 170.9 253.8 171.6C255 173.5 257.2 174.7 260 174.7C261 174.7 262.6 173.7 264.6 171.8C266 170.8 267.2 169.6 268.4 168.4C268.9 168.2 269.1 168.4 269.1 169.4C269.1 171.8 268.1 174 266.7 176.4C260.2 180.7 255.4 185.8 252.3 191.3C251.8 192.5 251.6 193.5 251.6 194.2C251.8 196.3 254.4 197.8 259.7 197.8L259.7 197.8L259.7 197.8L259.7 197.8L259.7 197.8ZM193 28.8C193 27.6 190.6 25.4 185.6 22.6C183.9 25.5 183.2 28.1 183.2 30.5C183.2 31.9 183.9 32.9 185.4 32.9C186.6 32.9 188 32.4 189.7 31.5C191.3 30.7 192.5 29.8 193 28.8L193 28.8L193 28.8L193 28.8L193 28.8ZM187.7 9.59999C188.4 8.39999 189.4 7.89999 190.1 7.89999C190.6 7.89999 191.1 8.09999 191.1 8.59999C191.1 8.59999 190.9 8.79999 190.9 9.09999C189.9 11.3 189 13.7 188.3 16.1C193.3 19.7 195.7 23.5 195.5 27.1C195 31.2 194.5 33.8 193.8 34.8C191.4 37.7 188.8 39.4 185.4 39.4C182 39.4 180.6 37.2 180.6 33.4C180.6 32.7 180.6 31.7 180.8 30.8C182 23.1 184.4 16.1 187.7 9.59999L187.7 9.59999L187.7 9.59999L187.7 9.59999L187.7 9.59999ZM161.8 67.9C180.3 61.2 199.5 54 219.6 46.5C220.3 46.3 220.8 46 221 46.3C221 46.3 221 46.8 220.8 47.5C219.8 49.7 219.1 50.9 218.6 51.3C201.8 57.5 181.9 65.2 159.3 74.6C159.9 72.5 160.6 70.3 161.8 67.9L161.8 67.9L161.8 67.9L161.8 67.9L161.8 67.9ZM180.8 118.6C180.8 118.4 181 118.1 181 118.1C181.2 117.9 181.2 117.9 181.2 118.1C181.4 118.3 181.4 118.6 181.2 118.8C180 126 177.8 129.6 174.7 129.6C171.6 129.6 170.1 127 170.1 121.7C170.1 115.2 171.8 108.3 175.6 101.3C176.6 99.6 177 98.7 177.3 98.7L177.3 98.7C177.3 98.9 177.1 99.9 176.6 101.6C174.2 109 173 114.1 173 117.2C173 121 174 123.2 176.1 123.2C177.6 123.1 179.1 121.5 180.8 118.6L180.8 118.6L180.8 118.6L180.8 118.6L180.8 118.6ZM232.4 172.8C232.4 173.3 232.2 174.2 231.9 175.2C231.4 176.6 230.9 177.4 230.2 177.4C230 177.4 229.5 176.7 228.5 175.7C227.8 174.7 226.8 174.3 226.1 174.3C224.2 174.3 222.3 178.9 220.6 188C219.9 192.1 219.2 194.7 218.2 196.4C217.5 197.6 217 198.1 216.5 198.1C216.3 198.1 216 197.6 216 196.7C216 195 215 191.9 213.1 187.3C211.4 182.5 210 180.3 209.3 180.3C208.8 180.3 208.3 180.3 208.3 180.8C208.1 181 207.6 181.3 206.9 181.3C205.9 181.3 204.7 180.6 203.3 179.4C201.9 178 201.4 177 201.6 176.5C203.8 172.4 205 170.5 205.4 170.5C208 170.5 210.7 171.9 212.8 175.3C215 178.4 216.4 182.7 217.4 187.8C217.4 188.5 217.4 188.8 217.4 188.8C217.6 189 217.6 189 217.6 188.8C217.6 188.8 217.8 188.6 218.1 187.8C218.6 184.9 219.5 180.1 221.2 173.9C223.1 169.6 225 167.4 227.4 167.4C228.4 167.4 229.6 168.1 230.8 169.6C231.9 170.9 232.4 171.9 232.4 172.8L232.4 172.8L232.4 172.8L232.4 172.8L232.4 172.8ZM201.6 176.4C202.1 175.4 202.6 175 202.8 175C202.8 175 203 175.2 202.8 175.2C203 175.9 202.3 177.6 200.9 180.2C198.5 184.8 195.1 188.4 190.8 191.5C186.2 194.9 182.2 197.3 178.6 198.9C177.9 199.4 173.6 201.1 165.6 203.9C164.4 204.4 163.7 204.6 163.2 204.6C163 204.6 163 204.4 163 204.4C163 204.2 163.7 203.4 164.9 202.7C171.6 199.1 180.7 193.3 192.5 185.4C197.3 181.9 200.2 178.8 201.6 176.4L201.6 176.4L201.6 176.4L201.6 176.4L201.6 176.4ZM297.2 155.3C297.2 155.1 297.4 154.8 297.4 154.8C297.6 154.6 297.6 154.6 297.6 154.8C297.8 155 297.8 155.3 297.6 155.5C296.4 162.7 294.2 166.3 291.1 166.3C288 166.3 286.5 163.7 286.5 158.4C286.5 151.9 288.2 145 292 138C293 136.3 293.4 135.4 293.7 135.4L293.7 135.4C293.7 135.6 293.5 136.6 293 138.3C290.6 145.7 289.4 150.8 289.4 153.9C289.4 157.7 290.4 159.9 292.5 159.9C294 159.9 295.5 158.2 297.2 155.3L297.2 155.3L297.2 155.3L297.2 155.3L297.2 155.3ZM15.2 97.7C15.2 97.5 15.4 97.2 15.4 97.2C15.6 97 15.6 97 15.6 97.2C15.8 97.4 15.8 97.7 15.6 97.9C14.4 105.1 12.2 108.7 9.09996 108.7C5.99996 108.7 4.49996 106.1 4.49996 100.8C4.49996 94.3 6.19996 87.4 9.99996 80.4C11 78.7 11.4 77.8 11.7 77.8L11.7 77.8C11.7 78 11.5 79 11 80.7C8.59996 88.1 7.39996 93.2 7.39996 96.3C7.39996 100.1 8.39996 102.3 10.5 102.3C12 102.3 13.5 100.6 15.2 97.7L15.2 97.7L15.2 97.7L15.2 97.7L15.2 97.7ZM53.6 188.2C67.3 183.4 81.7 178.1 96.8 172.6C97.8 172.4 98 172.1 98.2 172.4C98.4 172.4 98.4 172.9 98 173.6C97.3 175.8 96.6 177 96.1 177.4C83.1 182 68.3 187.7 51.2 194.9C51.6 192.7 52.4 190.6 53.6 188.2L53.6 188.2L53.6 188.2L53.6 188.2L53.6 188.2ZM83.8 80.4C83.8 80.9 83.6 81.8 83.1 82.8C82.9 84.2 82.4 85 81.7 85C81.5 85 81 84.3 80 83.3C79.3 82.3 78.3 81.9 77.6 81.9C75.7 81.9 73.8 86.5 72.1 95.6C71.4 99.7 70.7 102.6 69.7 104.2C69 105.2 68.5 105.9 68 105.9C67.8 105.9 67.5 105.2 67.5 104.2C67.5 102.5 66.5 99.4 64.6 94.8C62.7 90 61.5 87.8 60.8 87.8C60.1 87.8 59.8 87.8 59.6 88.3C59.6 88.5 59.1 88.8 58.4 88.8C57.4 88.8 56.5 88.1 55 86.9C53.8 85.7 53.1 84.7 53.1 84C53.1 83.8 53.6 82.6 54.8 80.6C56 78.7 56.7 78 57 78C59.6 78 62 79.4 64.2 82.8C66.6 86.2 68 90.2 69 95.5C69 96 69 96.2 69 96.5C69.2 96.7 69.2 96.7 69.2 96.5C69.2 96.3 69.4 96 69.7 95.5C69.9 92.4 71.1 87.6 72.8 81.3C74.7 77 76.6 74.8 78.8 74.8C80 74.8 81.2 75.5 82.4 77C83.3 78.5 83.8 79.5 83.8 80.4L83.8 80.4L83.8 80.4L83.8 80.4L83.8 80.4ZM68 108C66.3 111.8 63 115.7 57.9 119.3C53.3 122.7 49.3 125.1 45.7 126.7C45 127.2 40.7 128.9 32.7 131.7C31.5 132.2 30.8 132.4 30.3 132.4C30.1 132.4 30.1 132.2 30.1 132.2C30.1 132 30.8 131.2 32 130.5C38.5 126.7 47.6 121.1 59.6 113.2C62.5 111 64.6 108.9 66.3 107C68.2 104.8 69.2 103.6 69.4 103.6C69.4 103.6 69.4 103.6 69.4 103.8C69.4 104.2 68.9 105.6 68 108L68 108L68 108L68 108L68 108ZM77.6 48.7C77.6 48.5 77.8 48.2 77.8 48.2C78 48 78 48 78 48.2C78.2 48.4 78.2 48.7 78 48.9C76.8 56.1 74.6 59.7 71.5 59.7C68.4 59.7 66.9 57.1 66.9 51.8C66.9 45.3 68.6 38.4 72.4 31.4C73.4 29.7 73.8 28.8 74.1 28.8L74.1 28.8C74.1 29 73.9 30 73.4 31.7C71 39.1 69.8 44.2 69.8 47.3C69.8 51.1 70.8 53.3 72.9 53.3C74.4 53.3 75.9 51.6 77.6 48.7L77.6 48.7L77.6 48.7L77.6 48.7L77.6 48.7ZM39.9 54.7C39.9 57.3 38.7 60.2 36.8 63.3C34.6 66.4 32 69.3 28.6 71.7C27.2 72.7 26.4 73.1 26.2 73.1L26.2 72.9C26.2 72.7 26.7 72.2 27.6 71C33.1 65 36 61.2 36 59C36 57.3 35 56.4 33.3999 56.4C32.3999 56.4 31.5 56.6 30.7999 57.1C30.0999 57.3 29.7999 57.6 29.5999 57.6C29.5999 57.6 29.3999 57.6 29.3999 57.4C29.3999 57.4 29.3999 56.9 29.5999 56C30.5999 51.9 32.4999 50 35.7999 50C38.4 49.9 39.9 51.6 39.9 54.7L39.9 54.7L39.9 54.7L39.9 54.7L39.9 54.7ZM118.6 21.9C118.6 24.5 117.4 27.4 115.5 30.5C113.3 33.6 110.7 36.5 107.3 38.9C105.9 39.9 105.1 40.3 104.9 40.3L104.9 40.1C104.9 39.9 105.4 39.4 106.3 38.2C111.8 32.2 114.7 28.4 114.7 26.2C114.7 24.5 113.7 23.6 112.1 23.6C111.1 23.6 110.2 23.8 109.5 24.3C108.8 24.5 108.5 24.8 108.3 24.8C108.3 24.8 108.1 24.8 108.1 24.6C108.1 24.6 108.1 24.1 108.3 23.2C109.3 19.1 111.2 17.2 114.5 17.2C117.2 17.1 118.6 18.7 118.6 21.9L118.6 21.9L118.6 21.9L118.6 21.9L118.6 21.9ZM537.2 117.1C538.4 116.1 539.4 115.7 540.1 115.7C540.6 115.7 540.8 116.2 540.8 117.1C540.8 117.8 540.6 119.3 540.1 121.2C539.6 123.1 539.4 124.6 539.4 125.8C539.4 131.1 543.2 134 550.7 134C556.7 134 561.7 131.4 565.6 126.3C568 122.2 570.6 118.4 573 114.5C574 113.5 574.7 113.1 575.4 113.1C576.4 113.1 576.6 114.1 576.1 116.2C575.1 120.3 574.4 122.2 574.4 121.7C574.4 123.4 575.4 125.1 577.3 126.5C579 127.9 581.4 128.9 584 128.9C587.4 128.9 589.5 127.9 590.5 126.3C590.5 126.1 589.5 124.1 587.4 120.5C587.6 118.6 588.6 115.2 590 110.7C590.2 109.3 590.7 108.5 591.2 108.5C591.7 108.5 592.2 108.7 592.9 109.7C594.8 112.6 596 115.9 596 119.8C596 125.8 594.6 130.8 591.9 135.2C589 140.5 584.7 143.1 578.9 143.1C575.1 143.1 571.5 140 568.3 134.2C563 143.8 556.1 148.6 547.7 148.6C537.6 148.6 532.8 142.8 532.8 131.8C529 136.4 522.5 140.4 514.1 144.3L514.1 131.1C520.3 128 524.4 126.1 525.6 125.3C529.5 123.4 533.3 120.5 537.2 117.1L537.2 117.1L537.2 117.1L537.2 117.1L537.2 117.1ZM500.4 133C496.8 128.4 493.7 126.3 490.8 126.3C486.5 126.3 484.6 127.3 484.6 129.7C484.6 132.6 487.5 134 493.2 134C495.4 133.9 497.8 133.5 500.4 133L500.4 133L500.4 133L500.4 133L500.4 133ZM507.9 150.5C507.9 149.1 507.4 147.4 506.9 145.7C504 146.7 499.7 147.4 494.4 147.4C482.9 147.4 477.1 143.3 477.1 135.4C477.1 129.4 478.8 124.1 482.6 119.3C486.2 115.2 490 113.1 494.1 113.1C497.2 113.1 500.3 115 503.9 118.6C507 122.2 509.9 126.3 512.3 131.3C512.5 131.3 513 131.3 514 130.8L514 144L513.5 144.5C513.5 147.4 512.8 150.7 511.3 155.1C509.6 160.6 507 165.2 503.9 168.8C496.7 177.4 488.8 184.9 480.1 191.4C467.1 201 456.1 206 446.5 206C438.3 206 432.1 202.9 427.8 196.9C424 191.9 422 185.1 422 177.2C422 167.1 424.2 156.8 428.2 146C429.4 143.6 429.9 142.6 430.4 142.6C430.6 142.6 430.6 142.8 430.6 143.3C430.6 144 430.4 145.2 430.1 146.7C427 157.3 425.5 165.2 425.5 170.7C425.5 175.7 426.7 180.1 429.1 183.7C432.9 188.7 438.9 191.4 447.3 191.4C454.5 191.4 463.1 188.3 473.5 182C481.7 177 489.6 171 497.3 163.8C504.3 157 507.9 152.7 507.9 150.5L507.9 150.5L507.9 150.5L507.9 150.5L507.9 150.5ZM442.6 114.3C442.1 112.1 441.4 110.5 440.4 109.3C439.7 107.9 439.2 107.1 439 106.7C439 106.2 439 104.5 439.5 101.2C440 98.1 440.2 95.9 440.7 94.7C440.9 93.5 441.2 93 441.7 93C441.9 93 442.2 93.2 442.7 93.7C446.1 97.5 449.7 101.4 453.7 105.5C455.4 107.2 456.1 108.1 456.1 108.6C456.1 108.8 455.9 109.1 455.4 109.1C454.7 109.1 452.8 108.6 449.9 107.9C451.6 112 453.5 116.1 455.2 119.9C457.8 126.6 459.3 132.1 459.3 137.2C459.3 139.6 458.8 142.5 457.9 146.1C456.7 150.2 455.3 153.3 453.3 155.5C446.3 163.4 434.6 172.1 418 181.4C403.6 189.8 395.2 193.9 392.6 193.9C392.1 193.9 384.9 195.6 371.2 198.9C356.8 202.3 347.7 204.4 344.1 204.9C340.3 205.6 337.9 205.9 336.9 205.9C336.4 205.9 336.4 205.9 336.4 205.7C336.4 205.5 339 204 344.3 201.6C346.2 200.6 357.3 195.8 377.7 187.2C391.9 181.2 403.6 175.7 413 170.6C427.2 162.9 438 156.2 445.4 150.7C450.9 146.4 453.8 143.3 453.8 141.3C453.8 140.8 452.4 137.5 449.5 131.2C446.2 124.1 443.8 118.3 442.6 114.3L442.6 114.3L442.6 114.3L442.6 114.3L442.6 114.3ZM422.9 80.9C422.9 84.7 421 90 417.1 96.5C414.7 100.6 411.1 106.1 406.3 113.3C411.1 118.8 414.5 123.9 416.1 128.2C417.1 131.3 417.8 135.4 417.8 140C417.8 141.9 417.3 144.3 416.4 147.4C415.7 150.3 414.7 152.4 413.8 153.9C411.9 156.8 408.8 159.7 404 162.5C399 165.9 394.6 167.5 391 167.5C385.2 167.5 382.4 163.2 382.4 154.5C382.4 148.7 383.4 143 385.3 137.7C387.2 133.1 390.3 127.1 395.4 119.2C391.1 115.1 386.5 109.4 381.5 102.2C381 101.5 379.8 100.3 377.9 98.4C376.9 97.4 376.5 96.2 376.5 94.8C376.5 92.6 376.7 90.2 377.2 87.4C377.9 84.5 378.4 83.3 378.6 83.3C379.3 83.3 381.5 84.5 385.6 87.1C389.4 89.7 392.6 91.7 394.5 93.3C395.7 94 396.2 94.7 396.2 94.7L396.2 94.9C396.2 95.1 395.5 95.4 393.8 95.4C390.7 95.4 389 95.6 389 95.9C389 96.1 389.5 96.6 390.4 97.8C394.2 102.6 398.1 106.2 402.2 109.1C403.2 107.7 406.5 102.9 411.8 94.7C416.4 87.7 419 82.9 420.2 80.1C421.4 77.2 422.1 76 422.6 76C422.7 76.1 422.9 77.5 422.9 80.9L422.9 80.9L422.9 80.9L422.9 80.9L422.9 80.9ZM413.6 139.9C411 134.6 406.4 129.1 400.2 123.8C398 126 395.4 130 392 135.8C388.2 142.3 386.5 146.4 386.5 148.5C386.5 151.4 388.4 152.8 392.7 152.8C394.6 152.8 397 152.1 400.1 150.9C404.4 149 408.5 146.3 411.9 143C413.3 141.6 413.8 140.7 413.6 139.9L413.6 139.9L413.6 139.9L413.6 139.9L413.6 139.9ZM400.1 62.9L403.9 55C404.1 54.5 404.4 54.3 404.9 54.3C405.4 54.3 407.3 55.5 411.1 58.1C414.7 60.5 416.6 61.8999 416.6 62.3999C416.6 64.1 414.9 67.6999 411.8 73C411.3 73.7 410.8 73.7 410.4 73.5C407.3 71.1 403.7 68.7 399.6 66.1C398.2 69 397 71.6 395.5 73.8C395.3 74.5 394.8 74.8 394.3 74.5C390.7 71.6 386.9 69 383 66.6C382.8 66.4 382.8 66.1 383 65.6L387.6 56C387.8 55.5 388.3 55 388.6 55C389.1 55 390.8 56.2 393.9 58.4C397 60.3 399.2 61.9 400.1 62.9L400.1 62.9L400.1 62.9L400.1 62.9L400.1 62.9ZM526.6 196.6C524 197.3 522.5 197.8 522 197.8L522 197.6C522 197.6 523 196.9 524.9 195.7C526.8 194.5 529.7 192.6 533.8 189.5C535.7 187.6 538.6 184.5 542.2 180.1C544.6 177.2 547.2 174.6 550.1 172.7C553.7 170.1 557.1 168.9 560.7 168.9C561.4 168.9 562.6 169.1 564.1 169.6C565.3 170.1 566.5 170.3 567.5 170.3C569.4 170.3 570.9 169.6 572.1 168.1C572.8 166.7 573.8 165.5 574.7 164C575.2 163 575.9 162.6 576.4 162.6C576.6 162.6 576.6 162.8 576.6 163.3C576.6 163.8 576.4 165 575.9 166.4C575.4 167.1 577.3 167.4 580.9 167.4C581.4 167.4 581.6 167.4 581.6 167.2C581.6 167.2 581.4 166.2 580.9 164.6C580.7 164.1 580.9 163.4 581.6 162.4C582.6 160.7 583 160 583.3 160.2C584.3 160.9 584.7 162.4 584.7 164C584.7 165.7 584.2 167.4 583.5 169.3C582.8 171.5 582.1 172.7 581.6 173.1C579.9 174.1 577.3 173.8 573.7 172.1C570.8 175 567.9 176.7 565.1 176.7C564.4 176.7 563.2 176.5 562 176C560.8 175.5 559.8 175.3 559.1 175.3C554.3 175.3 549.3 177.5 544.2 182.3C540.6 185.9 537 189.5 533.4 193.1C531.2 194.7 529 195.9 526.6 196.6L526.6 196.6L526.6 196.6L526.6 196.6L526.6 196.6ZM475 67C477.9 67 480.3 68.4 482.4 71.8C484.6 74.9 486.2 79.2 487 84.5C487.2 85 487.2 85.2 487.2 85.5L487.4 85.5C487.4 85.3 487.6 85 487.6 84.5C488.1 81.4 489.3 76.6 491 70.3C492.9 66 494.8 63.8 497 63.8C498.2 63.8 499.4 64.5 500.4 66C501.4 67.4 501.8 68.4 501.8 69.4C501.8 69.9 501.8 70.8 501.3 71.8C500.8 73.2 500.3 74 499.9 74C499.7 74 499.2 73.3 498.2 72.3C497.5 71.3 496.5 70.9 495.6 70.9C493.7 70.9 492 75.5 490.3 84.6C489.6 88.7 488.6 91.6 487.9 93.2C487.2 94.2 486.7 94.9 486.2 94.9C485.7 94.9 485.7 94.2 485.5 93.2C485.7 91.5 484.8 88.4 482.9 83.8C481 79 479.8 76.8 478.8 76.8C478.3 76.8 478.1 76.8 477.8 77.3C477.6 77.5 477.3 77.8 476.6 77.8C475.6 77.8 474.7 77.1 473.2 75.9C471.8 74.7 471.3 73.7 471.3 73C471.3 72.8 471.8 71.6 473 69.6C474 67.7 474.8 67 475 67L475 67L475 67L475 67L475 67ZM434.2 64.1C458.4 55 483.6 45.9 509.6 36.3C510.3 36.1 510.8 35.8 510.8 36.1C511 36.1 511 36.6 510.8 37.3C509.8 39.5 509.1 40.7 508.6 41.1C508.4 41.3 496.1 45.9 472.4 54.8C448.2 63.7 434.5 69.2 431.8 70.9C432.3 68.7 433 66.5 434.2 64.1L434.2 64.1L434.2 64.1L434.2 64.1L434.2 64.1ZM410.9 20.2C411.4 18.8 411.4 17.3 411.1 15.9C410.9 14.5 410.1 13.7 408.9 13.7C408.4 13.7 407.7 13.9 406.7 14.4C405.7 14.9 405.3 15.4 405.3 15.8C405.4 17.1 407.3 18.5 410.9 20.2L410.9 20.2L410.9 20.2L410.9 20.2L410.9 20.2ZM408 26.4C403.4 24 401.3 21.6 401.3 19C401.3 15.9 402.7 13 405.6 10.6C408.5 8 410.9 7 412.8 7.70001C414.5 8.20001 415.2 9.90001 415.2 12.7C415.2 15.3 414.7 18.2 413.5 21.6C415.9 22.8 417.3 24 417.8 25C417.8 26.2 416.8 28.4 414.7 31.2C414.2 30.2 412.8 29 410.6 27.8C408 31.4 404.8 34.5 401 37.4C396.4 40.5 392.4 43.2 388.8 44.6C387.8 45.1 383.5 46.8 375.8 49.6C374.6 50.1 373.6 50.3 373.4 50.3C373.2 50.3 373.2 50.1 373.2 50.1C373.2 49.9 373.7 49.1 375.1 48.4C380.9 44.8 386.6 41.4 392.6 38.1C399.6 33.9 404.7 30 408 26.4L408 26.4L408 26.4L408 26.4L408 26.4ZM559.7 56.4C560.2 55 560.2 53.5 559.9 52.1C559.7 50.7 558.9 49.9 557.7 49.9C557.2 49.9 556.5 50.1 555.5 50.6C554.5 51.1 554.1 51.6 554.1 52C554.2 53.3 556.1 54.7 559.7 56.4L559.7 56.4L559.7 56.4L559.7 56.4L559.7 56.4ZM565 65.3C562.6 71.1 561.4 75.6 561.4 79C561.4 83.1 562.4 85.2 564.5 85.2C565.7 85.2 567.1 83.5 568.8 80.6C569 80.4 569 80.1 569.3 79.9C569.3 79.9 569.5 79.9 569.5 80.1C569.5 80.1 569.5 80.3 569.5 80.8C568.1 88 565.9 91.6 563 91.6C559.9 91.6 558.4 89 558.4 83.7C558.4 81.1 558.9 77.7 560.3 73.4C561.7 69.1001 562.5 66.9 562.5 66.7C562.5 66.2 561.5 65.3 559.4 64.1C555.6 69.1 550.3 73.9 543.6 78C539 80.6 534.5 83 529.7 85C520.8 88.6 515.5 90.5 514.3 91.2C513.1 91.7 512.4 91.9 511.9 91.9C511.7 91.9 511.7 91.7 511.7 91.7C511.7 91.2 512.2 90.7 513.6 89.8C521.3 85.5 528.7 81.2 536.4 76.8C546.5 71 553.4 66.2 556.8 62.6C552.2 60.2 550.1 57.8 550.1 55.2C550.1 52.1 551.5 49.2 554.4 46.6C557.3 44.2 559.7 43.2 561.6 44C563 44.5 564 46.2 564 49C564 51.6 563.5 54.5 562.3 57.6C564.7 59 565.7 60.5 565.7 61.9C565.7 62.7 565.5 63.9 565 65.3L565 65.3L565 65.3L565 65.3L565 65.3ZM452.4 33.6C452.4 33.4 452.6 33.1 452.6 33.1C452.8 32.9 452.8 32.9 452.8 33.1C453 33.3 453 33.6 452.8 33.8C451.6 41 449.4 44.6 446.3 44.6C443.2 44.6 441.7 42 441.7 36.7C441.7 30.2 443.4 23.3 447.2 16.3C448.2 14.6 448.6 13.7 448.9 13.7L448.9 13.7C448.9 13.9 448.7 14.9 448.2 16.6C445.8 24 444.6 29.1 444.6 32.2C444.6 36 445.6 38.2 447.7 38.2C449.3 38.2 450.8 36.5 452.4 33.6L452.4 33.6L452.4 33.6L452.4 33.6L452.4 33.6Z" id="Group" fill="#595959" stroke="none" clip-path="url(#clip_1)" />
  </g>
</svg>