<?xml version="1.0" encoding="utf-8"?>
<svg width="507.50012px" height="210.99998px" viewBox="0 0 507.50012 210.99998" version="1.1" xmlns:xlink="http://www.w3.org/1999/xlink" xmlns="http://www.w3.org/2000/svg">
  <defs>
    <path d="M507.5 0L507.5 0L507.5 211L0 211L0 0L507.5 0Z" id="path_1" />
    <clipPath id="clip_1">
      <use xlink:href="#path_1" clip-rule="evenodd" fill-rule="evenodd" />
    </clipPath>
  </defs>
  <g id="Surah_55_of_114_(modified)">
    <path d="M507.5 0L507.5 0L507.5 211L0 211L0 0L507.5 0Z" id="Surah_55_of_114_(modified)" fill="none" stroke="none" />
    <path d="M236.3 24.7C236.3 20.1 235.6 16.3 234.1 13.2C234.1 11.5 235.3 7.39999 238.2 1C238.4 0.300003 238.7 0 238.9 0C239.4 0 239.6 0.199997 240.1 1.2C240.8 2.89999 242.7 7.39999 245.6 14.9C248.5 22.8 250.2 27.6 250.9 29.3C251.1 30.7 251.4 31.9 251.4 32.4C251.4 34.6 249.2 33.4 245.2 28.6C244.7 28.1 244.5 28.4 244.5 29.6C244.5 29.8 245.5 42.8 247.4 68.2C248.364 80.9808 249.096 91.1636 249.583 98.7615C246.453 98.2098 243.596 97.7112 241.012 97.2465C240.557 91.102 240.018 83.9857 239.4 75.9C237.3 47.1 236.3 30 236.3 24.7ZM242.115 112.625C241.832 108.451 241.463 103.324 241.012 97.2465C236.459 96.4275 232.755 95.7138 229.9 95C225.1 94.1 216.7 91.4 204.7 87.6C193.9 84 188.1 82.1 187.9 82.1C180.2 82.1 173.5 82.5 167.7 83.5C166.8 83.5 165.8 84.3 165.1 85.7L160.5 94.3C159.7 95.5 159.5 96.2 159.5 96.7C159.5 97.4 160.5 97.9 161.9 98.1C169.8 98.6 176 99.1 180.6 99.3C182.1 99.3 183.3 99 184 98.3C185 97.3 185.9 96.9 186.9 97.1L214.5 105.5C201.3 110.7 192.9 113.9 188.8 115.3C179.692 118.497 172.462 120.193 167.2 120.295L167.2 120.2C163.1 120.2 160 119.7 157.6 118.5C156.6 118 154.7 116.6 151.8 114.2C150.8 113.4 150.1 113.2 149.6 113.2C148.6 113.2 147.4 113.9 146 115.8C142.4 119.8 140 122.5 139 123.2C134.5 126.5 129 128.2 122 128.2L122 143.1C127.5 143.1 132.3 140.9 136.6 137.1C139 134 141.4 131.1 143.8 128.5C144.2 127.5 144.7 126.8 145.2 126.8C145.5 126.8 145.5 127.5 145.7 128.5C146.1 134.3 147.1 138.9 148.3 141.5C148.9 142.809 149.634 144.059 150.503 145.254C150.243 145.605 149.971 146.057 149.7 146.6C142.3 161.3 138.7 173 138.7 181.9C138.7 188.4 140.4 194.2 144.2 198.5C147.8 203 152.1 205.2 156.9 205.2C162.7 205.2 168.4 201.8 174.2 195.1C183.8 184.1 191.3 176.6 196.3 172.8C198.9 170.6 204 168 211.4 164.4C215 162.8 220.5 160.4 228.2 157L228.2 157.2C235.9 153.9 241.9 146.9 246 136.6C248.9 129.2 250.3 121.5 250.3 113.6C250.3 113.395 250.298 113.174 250.295 112.936C251.24 113.034 252.207 113.154 253.2 113.3C256.8 113.8 259.2 114 260.2 114C261.4 114 262.1 113.6 262.6 112.6L267.6 103.2C268.3 102.3 268.3 101.5 267.8 101.3L266.6 101.3C265.4 101.3 260.4 100.5 251.5 99.1C250.85 98.9849 250.211 98.8721 249.583 98.7615C250.018 105.542 250.259 110.264 250.295 112.936C248.006 112.7 245.853 112.6 243.8 112.6C243.244 112.6 242.682 112.608 242.115 112.625ZM242.115 112.625C234.124 112.86 225.098 114.758 215.2 118.4C206.6 122 197.9 125.6 189.5 129.2C180.099 132.921 172.807 134.821 167.062 134.898C167.729 137.067 168.2 139.795 168.2 142.9C168.2 146.7 167.5 150.1 166.3 153C165.6 154.4 165.1 155.4 164.4 155.4C163.4 155.4 162.2 154.7 160.3 153.7C156.662 151.567 153.732 149.199 151.51 146.544C150.903 148.949 149.356 153.464 147 160C143.6 168.9 142 175.6 142 180.6C142 184.4 143 187.6 144.9 189.7C146.8 192.3 149.5 193.5 152.8 193.5C158.8 193.5 165 190.4 171 184.4C175.1 180 179 175.2 182.8 170.7C187.8 164.9 194.6 159.9 203 155.3C207.8 152.7 216.2 148.8 228.2 143.8L228.2 144C237.8 139.9 242.8 133.7 242.8 125.3C242.8 123.49 242.566 119.262 242.115 112.625ZM227.2 2.40001C184.9 18.3 143.7 33.6 103.1 49C101.9 51.4 101.2 53.5 100.7 55.7C145.6 37.7 187.6 21.6 226.2 7.20001C226.7 6.8 227.4 5.60001 228.4 3.40001C228.6 2.70001 228.6 2.20001 228.4 2.20001C228.4 1.98665 228.147 2.07678 227.749 2.21858C227.588 2.27615 227.402 2.34225 227.2 2.40001ZM268.3 29.3C268.3 24.5 267.6 20.7 266.1 17.5C266.1 15.8 267.3 11.7 270.2 5.5C270.4 4.8 270.7 4.3 270.9 4.3C271.4 4.3 271.6 4.8 272.1 5.5C272.8 7.2 274.5 11.7 277.4 19.2C280.5 27.1 282.2 31.9 282.7 33.8C283.2 35 283.2 36.2 283.2 36.7C283.2 38.9 281.3 37.7 277 32.9C276.5 32.2 276.3 32.7 276.3 33.9C276.3 34.4 277.5 49.3 279.7 79C281.9 108.5 282.8 125.1 282.8 128.9C282.8 140.2 281.1 150.3 277.8 158.9C276.8 160.6 276.4 161.8 275.9 162.7C275.2 163.9 274.9 163.9 274.7 163.2C274.529 162.346 274.65 160.835 274.814 158.793C274.842 158.444 274.871 158.079 274.9 157.7C275.4 153.6 275.6 149.1 275.6 144C275.6 139.2 274.4 120 272 86.2C269.5 52.3 268.3 33.4 268.3 29.3ZM145.9 11.3C145.9 13.9 144.7 16.8 142.8 19.9C140.6 23 138 25.9 134.6 28.3C133.2 29.3 132.4 29.7 132.2 29.7L132.2 29.5C132.2 29.3 132.7 28.8 133.6 27.6C139.1 21.6 142 17.8 142 15.6C142 13.9 141 13 139.4 13C138.4 13 137.5 13.2 136.8 13.7C136.1 13.9 135.8 14.2 135.6 14.2C135.6 14.2 135.4 14.2 135.4 14C135.4 14 135.4 13.5 135.6 12.6C136.6 8.5 138.5 6.60001 141.8 6.60001C144.4 6.5 145.9 8.2 145.9 11.3ZM312.7 18.3C312.7 20.9 314.8 23.3 319.4 25.7C316 29.3 311 33.1 304 37.4C298 40.7 292.3 44.1 286.5 47.7C285.1 48.4 284.6 49.2 284.6 49.4C284.6 49.4 284.6 49.6 284.8 49.6C285 49.6 286 49.4 287.2 48.9C294.9 46.1 299.2 44.4 300.2 43.9C303.8 42.5 307.8 39.8 312.4 36.7C316.2 33.8 319.4 30.7 322 27.1C324.2 28.3 325.6 29.5 326.1 30.5C328.2 27.7 329.2 25.5 329.2 24.3C328.7 23.3 327.3 22.1 324.9 20.9C326.1 17.5 326.6 14.6 326.6 12C326.6 9.20001 325.9 7.50002 324.2 7.00002C322.3 6.3 319.9 7.3 317 9.90001C314.1 12.3 312.7 15.2 312.7 18.3ZM367.3 29C367.3 29 367.1 29.3 367.1 29.5C365.5 32.4 364 34.1 362.4 34.1C360.3 34.1 359.3 31.9 359.3 28.1C359.3 25 360.5 19.9 362.9 12.5C363.4 10.8 363.6 9.8 363.6 9.60001C363.3 9.60001 362.9 10.5 361.9 12.2C358.1 19.2 356.4 26.1 356.4 32.6C356.4 37.9 357.9 40.5 361 40.5C364.1 40.5 366.3 36.9 367.5 29.7C367.7 29.5 367.7 29.2 367.5 29C367.5 28.9093 367.5 28.8598 367.481 28.8513C367.459 28.8411 367.409 28.8907 367.3 29ZM322.5 15.2C322.8 16.6 322.8 18.1 322.3 19.5C318.7 17.8 316.7 16.3 316.7 15.1C316.7 14.7 317.1 14.2 318.1 13.7C319.1 13.2 319.8 13 320.3 13C321.5 13 322.3 13.8 322.5 15.2ZM74.8 41.8C76.5 45.9 77.7 49.2 78.2 52.1C76 53.1 74.6 56.2 74 61.2999C73.8 62.5 73.8 63 74 63C74.2 63 74.7 62.3 75.9 61.1C76.9 59.9 77.6 59.2 78.1 59.2C79.3 59.2 80.5 59.7 81.7 60.9C78.6 61.8 76.7 62.8 75.5 63.5C73.3 65.4 72.1 68.3 72.1 72.4C72.1 73.6 73.1 78.2 74.5 86.1C76.1 94 77.1 101 77.1 106.5C77.1 109.9 77.1 111.8 77.3 111.8C77.5 111.5 77.8 111.1 78 110.1C78.5 107 79 104.1 79 101.2C79 91.3 77.4 81.5 74 71.4C75.2 70.2 77.3 69 80.2 68C82.6 67.3 85 66.8 87.4 66.1C87.9 65.9 88.4 65.2 89.1 63.5C89.9 61.8 90.1 60.9 90.1 60.4C89.8 58.9 88.4 57.3 86 55.1C83.4 53.2 81.5 52 79.8 52C81 49.9 81.7 47 82.4 43.4C84.1 34.3 85.8 29.7 87.7 29.7C88.6 29.7 89.6 30.1 90.3 31.1C91.3 32.1 91.8 32.8 92 32.8C92.4 32.8 92.9 32 93.4 30.6C93.9 29.6 93.9 28.7 93.9 28.2C93.9 27.2 93.5 26.2 92.5 24.8C91.5 23.3 90.3 22.6 89.1 22.6C86.9 22.6 85 24.8 83.1 29.1C81.4 35.4 80.2 40.2 79.7 43.3C79.7 43.8 79.5 44.1 79.5 44.3L79.3 44.3C79.3 44 79.3 43.8 79.1 43.3C78.3 38 76.7 33.7 74.5 30.6C72.4 27.2 70 25.8 67.1 25.8C66.9 25.8 66.2 26.5 65.2 28.4C64 30.4 63.5 31.6 63.5 31.8C63.5 32.5 64 33.5 65.4 34.7C66.9 35.9 67.8 36.6 68.8 36.6C69.5 36.6 69.8 36.3 70 36.1C70.3 35.6 70.5 35.6 71 35.6C71.7 35.6 73.1 37.7 74.8 41.8ZM219.1 41.5C219.1 43.4 218.6 45.6 217.7 47.5C216.5 50.1 215.1 51.6 213.4 51.6C210.5 51.6 208.6 49.7 207.4 45.8C206 50.6 203.6 53.2 200 53.2C198.8 53.2 197.6 52.5 196.6 51C195.4 49.6 194.9 47.4 194.9 45L194.9 38.8C194.9 38.3 194.4 38.1 193.9 37.8C193.2 37.6 192.9 37.1 192.9 36.4C192.9 35 193.4 33.8 194.3 32.6C195.3 31.4 196 30.9 196.5 30.9C197.2 30.9 197.7 32.1 197.7 34.7C197.7 36.1 197.5 37.3 197.5 38.3C197.3 39.3 197.3 40 197.3 40.7C197.3 42.1 197.5 43.6 198 44.8C198.7 46.2 199.7 47.2 200.6 47.2C202 47.2 203.2 46.5 204.4 45.3C205.6 44.1 206.3 42.7 206.3 41C206.3 40 205.8 38.6 205.3 36.2C204.6 34 204.3 32.6 204.3 32.1C204.3 31.6 204.5 30.9 205 29.7C205.5 28.7 206 28.3 206.2 28.3C206.7 28.3 207.2 29.7 207.9 32.6C208.6 35.7 209.1 37.9 209.1 39.3C209.1 43.4 210.5 45.5 213.7 45.5C215.1 45.5 216.1 44.8 216.3 43.3C213.7 38.5 212.2 34.9 212.2 32.3C212.2 30.9 212.4 29.7 213.4 28.5C213.9 27.8 214.1 27.3 214.4 27.3C214.6 27.3 214.9 27.8 214.9 28.7C215.1 29.9 215.4 31.1 215.6 32.1C215.6 32.1 216.3 33.8 217.5 37.1C218.6 39.1 219.1 40.6 219.1 41.5ZM345.8 63.4C370 54.3 395.2 45.2 421.2 35.6C421.402 35.5422 421.588 35.4762 421.749 35.4186C422.147 35.2768 422.4 35.1866 422.4 35.4C422.6 35.4 422.6 35.9 422.4 36.6C421.4 38.8 420.7 40 420.2 40.4C420 40.6 407.7 45.2 384 54.1C359.8 63 346.1 68.5 343.4 70.2C343.9 67.9 344.6 65.8 345.8 63.4ZM161.9 43C162.6 41.8 163.6 41.3 164.3 41.3C164.8 41.3 165.3 41.5 165.3 42C165.3 42 165.1 42.2 165.1 42.5C164.1 44.7 163.2 47.1 162.5 49.5C167.5 53.1 169.9 56.9 169.7 60.5C169.2 64.6 168.7 67.2 168 68.2C165.6 71.1 163 72.8 159.6 72.8C156.2 72.8 154.8 70.6 154.8 66.8C154.8 66.1 154.8 65.1 155 64.2C156.2 56.4 158.6 49.5 161.9 43ZM476.3 64.6C473.9 70.4 472.7 74.9 472.7 78.3C472.7 82.4 473.7 84.5 475.8 84.5C477 84.5 478.4 82.8 480.1 79.9C480.3 79.7 480.3 79.4 480.6 79.2C480.6 79.2 480.8 79.2 480.8 79.4L480.8 80.1C479.4 87.3 477.2 90.9 474.3 90.9C471.2 90.9 469.7 88.3 469.7 83C469.7 80.4 470.2 77 471.6 72.7C473 68.4 473.8 66.2 473.8 66C473.8 65.5 472.8 64.6 470.7 63.4C466.9 68.4 461.6 73.2 454.9 77.3C450.3 79.9 445.8 82.3 441 84.3C432.1 87.9 426.8 89.8 425.6 90.5C424.4 91 423.7 91.2 423.2 91.2C423 91.2 423 91 423 91C423 90.5 423.5 90 424.9 89.1C432.6 84.8 440 80.5 447.7 76.1C457.8 70.3 464.7 65.5 468.1 61.9C463.5 59.5 461.4 57.1 461.4 54.5C461.4 51.4 462.8 48.5 465.7 45.9C468.6 43.5 471 42.5 472.9 43.3C474.3 43.8 475.3 45.5 475.3 48.3C475.3 50.9 474.8 53.8 473.6 56.9C476 58.3 477 59.8 477 61.2C477.1 61.9 476.8 63.1 476.3 64.6ZM471.1 55.7C471.6 54.3 471.6 52.8 471.3 51.4C471.1 50 470.3 49.2 469.1 49.2C468.6 49.2 467.9 49.4 466.9 49.9C465.9 50.4 465.5 50.9 465.5 51.3C465.5 52.6 467.5 54 471.1 55.7ZM315.3 54.3L311.5 62.2C310.5 61.2 308.3 59.5 305.3 57.7C302.2 55.5 300.5 54.3 300 54.3C299.7 54.3 299.2 54.8 299 55.3L294.4 64.9C294.2 65.4 294.2 65.7 294.4 65.9C298.3 68.3 302.1 70.9 305.7 73.8C306.2 74.1 306.7 73.8 306.9 73.1C308.4 70.9 309.6 68.3 311 65.4C315.1 68 318.7 70.4 321.8 72.8C322.2 73 322.7 73 323.2 72.3C326.3 67 328 63.4 328 61.7C328 61.2 326.1 59.8 322.5 57.4C318.7 54.8 316.8 53.6 316.3 53.6C315.8 53.6 315.5 53.8 315.3 54.3ZM167.2 62.2C167.2 61 164.8 58.8 159.8 56C158.1 58.9 157.4 61.5 157.4 63.9C157.4 65.3 158.1 66.3 159.6 66.3C160.8 66.3 162.2 65.8 163.9 64.9C165.5 64.1 166.7 63.1 167.2 62.2ZM19.1 62.4C22 62.4 24.4 63.8 26.5 67.2C28.7 70.3 30.3 74.6 31.1 79.9C31.3 80.4 31.3 80.6 31.3 80.9L31.5 80.9C31.5 80.7 31.7 80.4 31.7 79.9C32.2 76.8 33.4 72 35.1 65.7C37 61.4 38.9 59.2 41.1 59.2C42.3 59.2 43.5 59.9 44.5 61.4C45.5 62.8 45.9 63.8 45.9 64.8C45.9 65.3 45.9 66.2 45.4 67.2C44.9 68.6 44.4 69.4 44 69.4C43.8 69.4 43.3 68.7 42.3 67.7C41.6 66.7 40.6 66.3 39.7 66.3C37.8 66.3 36.1 70.9 34.4 80C33.7 84.1 32.7 87 32 88.6C31.3 89.6 30.8 90.3 30.3 90.3C29.8 90.3 29.8 89.6 29.6 88.6C29.8 86.9 28.9 83.8 27 79.2C25.1 74.4 23.9 72.2 22.9 72.2C22.4 72.2 22.2 72.2 21.9 72.7C21.7 72.9 21.4 73.2 20.7 73.2C19.7 73.2 18.8 72.5 17.3 71.3C15.9 70.1 15.4 69.1 15.4 68.4C15.4 68.2 15.9 67 17.1 65C18.2 63.1 18.9 62.4 19.1 62.4ZM393.7 71.1C391.6 67.7 389.2 66.3 386.3 66.3C386.1 66.3 385.4 67 384.3 68.9C383.1 70.9 382.6 72.1 382.6 72.3C382.6 73 383.1 74 384.5 75.2C386 76.4 386.9 77.1 387.9 77.1C388.6 77.1 388.9 76.8 389.1 76.6C389.4 76.1 389.6 76.1 390.1 76.1C391.1 76.1 392.3 78.3 394.2 83.1C396.1 87.7 397 90.8 396.8 92.5C397 93.5 397 94.2 397.5 94.2C398 94.2 398.5 93.5 399.2 92.5C399.9 90.9 400.9 88 401.6 83.9C403.3 74.8 405 70.2 406.9 70.2C407.8 70.2 408.8 70.6 409.5 71.6C410.5 72.6 411 73.3 411.2 73.3C411.6 73.3 412.1 72.5 412.6 71.1C413.1 70.1 413.1 69.2 413.1 68.7C413.1 67.7 412.7 66.7 411.7 65.3C410.7 63.8 409.5 63.1 408.3 63.1C406.1 63.1 404.2 65.3 402.3 69.6C400.6 75.9 399.4 80.7 398.9 83.8C398.9 84.3 398.7 84.6 398.7 84.8L398.5 84.8C398.5 84.5 398.5 84.3 398.3 83.8C397.5 78.5 395.9 74.2 393.7 71.1ZM137.7 96.7C137 97.9 136.7 98.6 136.3 98.6C135.8 98.6 135.8 97.6 136.1 96.2C136.3 95 136.6 93.1 136.6 91.2C136.6 84.2 132.8 77.5 124.8 70.6C124.3 70.4 124.3 69.6 124.8 69.2L127 65.4C127.2 64.9 127.5 64.9 128 65.4C135.7 70.9 139.5 78.6 139.5 88.2C139.4 91.2 138.7 94.1 137.7 96.7ZM334.3 80.2C334.3 84 332.4 89.3 328.5 95.8C326.1 99.9 322.5 105.4 317.7 112.6C322.5 118.1 325.9 123.2 327.5 127.5C328.5 130.6 329.2 134.7 329.2 139.3C329.2 141.2 328.7 143.6 327.8 146.7C327.1 149.6 326.1 151.7 325.2 153.2C323.3 156.1 320.2 159 315.4 161.8C310.4 165.2 306 166.8 302.4 166.8C296.6 166.8 293.8 162.5 293.8 153.8C293.8 148 294.8 142.3 296.7 137C298.6 132.4 301.7 126.4 306.8 118.5C302.5 114.4 297.9 108.7 292.9 101.5C292.4 100.8 291.2 99.6 289.3 97.7C288.3 96.7 287.9 95.5 287.9 94.1C287.9 91.9 288.1 89.5 288.6 86.7C289.3 83.8 289.8 82.6 290 82.6C290.7 82.6 292.9 83.8 297 86.4C300.8 89 304 91 305.9 92.6C307.1 93.3 307.6 94 307.6 94L307.6 94.2C307.6 94.4 306.9 94.7 305.2 94.7C302.1 94.7 300.4 94.9 300.4 95.2C300.4 95.4 300.9 95.9 301.8 97.1C305.6 101.9 309.5 105.5 313.6 108.4C314.6 107 317.9 102.2 323.2 94C327.8 87 330.4 82.2 331.6 79.4C332.8 76.5 333.5 75.3 334 75.3C334 75.3146 334.006 75.3572 334.017 75.4299C334.081 75.8533 334.3 77.2982 334.3 80.2ZM106.3 97.4C108.2 94.3 109.4 91.4 109.4 88.8C109.4 85.7 107.9 84 105.3 84.1C102 84.1 100.1 86 99.1 90.1C98.9 91 98.9 91.5 98.9 91.5C98.9 91.7 99.1 91.7 99.1 91.7C99.3 91.7 99.6 91.4 100.3 91.2C101 90.7 101.9 90.5 102.9 90.5C104.5 90.5 105.5 91.4 105.5 93.1C105.5 95.3 102.6 99.1 97.1 105.1C96.2 106.3 95.7 106.8 95.7 107L95.7 107.2C95.9 107.2 96.7 106.8 98.1 105.8C101.5 103.4 104.1 100.5 106.3 97.4ZM351.7 108.5C352.7 109.7 353.4 111.3 353.9 113.5C355.1 117.6 357.5 123.4 360.8 130.4C363.7 136.7 365.1 140 365.1 140.5C365.1 142.5 362.2 145.6 356.7 149.9C351.864 153.494 345.577 157.601 337.837 162.164C338.568 157.696 339.849 152.329 341.7 146C342 144.5 342.2 143.3 342.2 142.6C342.2 142.1 342.2 141.9 342 141.9C341.5 141.9 341 142.9 339.8 145.3C337.433 151.69 335.697 157.906 334.673 164.008C331.445 165.869 327.987 167.801 324.3 169.8C314.9 174.9 303.2 180.4 289 186.4C268.6 195 257.5 199.8 255.6 200.8C250.3 203.2 247.7 204.7 247.7 204.9C247.7 205.1 247.7 205.1 248.2 205.1C249.2 205.1 251.6 204.8 255.4 204.1C259 203.6 268.1 201.5 282.5 198.1C296.2 194.8 303.4 193.1 303.9 193.1C306.5 193.1 314.9 189 329.3 180.6C330.782 179.77 332.225 178.944 333.629 178.124C333.885 185.332 335.863 191.546 339.4 196.2C343.7 202.2 349.9 205.3 358.1 205.3C367.7 205.3 378.7 200.3 391.7 190.7C400.4 184.2 408.3 176.7 415.5 168.1C418.6 164.5 421.2 159.9 422.9 154.4C424.4 150 425.1 146.7 425.1 143.8L425.6 143.3L425.6 130.1C424.6 130.6 424.1 130.6 423.9 130.6C421.5 125.6 418.6 121.5 415.5 117.9C411.9 114.3 408.8 112.4 405.7 112.4C401.6 112.4 397.8 114.5 394.2 118.6C390.4 123.4 388.7 128.7 388.7 134.7C388.7 142.6 394.5 146.7 406 146.7C411.3 146.7 415.6 146 418.5 145C419 146.7 419.5 148.4 419.5 149.8C419.5 151.9 415.9 156.3 408.9 163.1C401.2 170.3 393.3 176.3 385.1 181.3C374.7 187.6 366.1 190.7 358.9 190.7C350.5 190.7 344.5 188 340.7 183C339.261 180.842 338.254 178.396 337.677 175.706C349.905 168.237 358.843 161.198 364.6 154.7C366.6 152.5 368 149.4 369.2 145.3C370.1 141.7 370.6 138.8 370.6 136.4C370.6 131.3 369.1 125.8 366.5 119.1C364.8 115.3 362.9 111.2 361.2 107.1C364.1 107.8 366 108.3 366.7 108.3C367.2 108.3 367.4 108 367.4 107.8C367.4 107.3 366.7 106.4 365 104.7C361 100.6 357.4 96.7 354 92.9C353.5 92.4 353.2 92.2 353 92.2C352.5 92.2 352.2 92.7 352 93.9C351.5 95.1 351.3 97.3 350.8 100.4C350.3 103.7 350.3 105.4 350.3 105.9C350.5 106.3 351 107.1 351.7 108.5ZM42.7 114.7C42.5 115.2 42.5 115.5 42.7 115.7C46.5 118.1 50.3 120.7 54.1 123.6C54.5903 123.894 54.7921 123.611 55.2712 122.94L55.3 122.9C58.6 117.6 60.3 114.3 60.3 112.6C60.3 112.1 58.3 110.6 54.5 108C50.9 105.6 48.8 104.4 48.3 104.4C48 104.4 47.5 104.6 47.3 105.1L42.7 114.7ZM451.6 115C450.9 115 449.9 115.4 448.7 116.4C444.9 119.8 441.1 122.7 437.1 124.6C435.9 125.4 431.8 127.3 425.6 130.4L425.6 143.6C434 139.7 440.5 135.7 444.3 131.1C444.3 142.1 449.1 147.9 459.2 147.9C467.6 147.9 474.5 143.1 479.8 133.5C483 139.3 486.6 142.4 490.4 142.4C496.2 142.4 500.5 139.8 503.4 134.5C506.1 130.1 507.5 125.1 507.5 119.1C507.5 115.2 506.3 111.9 504.4 109C503.7 108 503.2 107.8 502.7 107.8C502.2 107.8 501.7 108.6 501.5 110C500.1 114.5 499.1 117.9 498.9 119.8C501 123.4 502 125.4 502 125.6C501 127.2 498.9 128.2 495.5 128.2C492.9 128.2 490.5 127.2 488.8 125.8C486.9 124.4 485.9 122.7 485.9 121C485.9 121.5 486.6 119.6 487.6 115.5C488.1 113.4 487.9 112.4 486.9 112.4C486.2 112.4 485.5 112.8 484.5 113.8C482.1 117.7 479.5 121.5 477.1 125.6C473.2 130.7 468.2 133.3 462.2 133.3C454.7 133.3 450.9 130.4 450.9 125.1C450.9 123.9 451.1 122.4 451.6 120.5C452.1 118.6 452.3 117.1 452.3 116.4C452.3 115.5 452.1 115 451.6 115ZM12.4 132.5C12.4 132.3 12.6 132 12.6 132C12.7093 131.891 12.7589 131.841 12.7814 131.851C12.8 131.86 12.8 131.909 12.8 132C13 132.2 13 132.5 12.8 132.7C11.6 139.9 9.40002 143.5 6.30002 143.5C6.28495 143.5 6.26993 143.5 6.25494 143.5C6.48617 143.747 6.43558 144.465 6.20001 145.8C5.50001 148.4 5.00001 150.8 4.50001 153.5C3.50001 157.8 3.10001 161.2 3.10001 163.3C3.10001 170.7 5.50001 177.7 10.5 183.9C17.2 192.1 27.1 196.4 39.8 196.4C50.8 196.4 62.6 193.8 74.8 188.5C84.4 184.2 93.5 178.9 101.9 172.4C108.6 167.1 112.7 163 113.9 160.4C113.9 152.2 111.7 143.6 106.9 134.5C105.9 132.6 105.7 131.4 105.7 130.4C105.7 129.7 106.4 126.1 108.3 119.8C108.8 118.8 109 118.4 109.5 118.4C110 118.4 110.7 119.1 111.4 120.6C112.6 123.5 113.6 125.2 114.3 125.9C116 127.6 118.4 128.5 122 128.5L122 142.9C120.3 142.9 118.9 142.9 118.2 142.7C118.2 152.8 117.7 160.2 116.5 165.5C115.3 171.3 113.1 175.6 110.3 178.7C102.1 186.6 92.5 193.6 81 199.6C66.4 207.1 52.7 211 39.8 211C21.6 211 8.80002 201.9 1.90002 183.9C0.500015 180.5 1.52588e-05 176 1.52588e-05 170.5C1.52588e-05 166.9 0.200012 163.3 0.700012 159.5C1.70001 154.2 2.90001 149.4 4.30001 145.3C4.85854 144.183 5.28974 143.639 5.69521 143.465C3.00471 143.137 1.70002 140.543 1.70002 135.6C1.70002 129.1 3.40002 122.2 7.20002 115.2C8.20002 113.5 8.60002 112.6 8.90002 112.6C8.90002 112.8 8.70002 113.8 8.20002 115.5C5.80002 122.9 4.60002 128 4.60002 131.1C4.60002 134.9 5.60002 137.1 7.70002 137.1C9.30003 137.1 10.7 135.4 12.4 132.5ZM311.5 123.1C309.3 125.3 306.7 129.3 303.3 135.1C299.5 141.6 297.8 145.7 297.8 147.8C297.8 150.7 299.7 152.1 304 152.1C305.9 152.1 308.3 151.4 311.4 150.2C315.7 148.3 319.8 145.6 323.2 142.3C324.7 140.9 325.1 139.9 324.9 139.2C322.3 133.9 317.7 128.4 311.5 123.1ZM412 132.3C408.4 127.7 405.3 125.6 402.4 125.6C398.1 125.6 396.2 126.6 396.2 129C396.2 131.9 399.1 133.3 404.8 133.3C407 133.2 409.4 132.7 412 132.3ZM80.5 147.1C80.5 147.1 80.3 147.4 80.3 147.6C78.7 150.5 77.2 152.2 75.6 152.2C73.5 152.2 72.5 150 72.5 146.2C72.5 143.1 73.7 138 76.1 130.6C76.6 128.9 76.8 127.9 76.8 127.7C76.5 127.7 76.1 128.6 75.1 130.3C71.3 137.3 69.6 144.2 69.6 150.7C69.6 156 71.1 158.6 74.2 158.6C77.3 158.6 79.5 155 80.7 147.8C80.9 147.6 80.9 147.3 80.7 147.1C80.7 147.009 80.7 146.96 80.6814 146.951C80.6589 146.941 80.6093 146.991 80.5 147.1ZM47.7 165.1C49.6 162 50.8 159.1 50.8 156.5C50.8 153.4 49.4 151.7 46.7 151.8C43.4 151.8 41.5 153.7 40.5 157.8C40.3 158.7 40.3 159.2 40.3 159.2C40.3 159.4 40.5 159.4 40.5 159.4C40.7 159.4 41 159.1 41.7 158.9C42.4 158.4 43.3 158.2 44.3 158.2C45.9 158.2 46.9 159.1 46.9 160.8C46.9 163 44 166.8 38.5 172.8C37.6 174 37.1 174.5 37.1 174.7L37.1 174.9C37.3 174.9 38.1 174.5 39.5 173.5C42.9 171.1 45.5 168.2 47.7 165.1ZM437.9 196.1C435.3 196.8 433.8 197.3 433.3 197.3L433.3 197.1C433.3 197.1 434.3 196.4 436.2 195.2C438.1 194 441 192.1 445.1 189C447 187.1 449.9 184 453.5 179.6C455.9 176.7 458.5 174.1 461.4 172.2C465 169.6 468.4 168.4 472 168.4C472.7 168.4 473.9 168.6 475.4 169.1C476.6 169.6 477.8 169.8 478.8 169.8C480.7 169.8 482.2 169.1 483.4 167.6C484.1 166.2 485.1 165 486 163.5C486.5 162.5 487.2 162.1 487.7 162.1C487.9 162.1 487.9 162.3 487.9 162.8C487.9 163.3 487.7 164.5 487.2 165.9C486.7 166.6 488.6 166.9 492.2 166.9C492.7 166.9 492.9 166.9 492.9 166.7C492.9 166.7 492.7 165.7 492.2 164.1C492 163.6 492.2 162.9 492.9 161.9L492.98 161.764C493.922 160.163 494.308 159.505 494.6 159.7C495.6 160.4 496 161.9 496 163.5C496 165.2 495.5 166.9 494.8 168.8C494.1 171 493.4 172.2 492.9 172.6C491.2 173.6 488.6 173.3 485 171.6C482.1 174.5 479.2 176.2 476.4 176.2C475.7 176.2 474.5 176 473.3 175.5C472.1 175 471.1 174.8 470.4 174.8C465.6 174.8 460.6 177 455.5 181.8L444.7 192.6C442.5 194.2 440.3 195.4 437.9 196.1ZM221.4 205.7C229.1 205.7 235.6 203.3 240.4 199C241.151 198.374 241.627 197.866 241.879 197.598C242.03 197.437 242.1 197.363 242.1 197.4C242.1 197.1 241.3 197.1 239.9 197.6C234.2 199.2 229.1 200.2 224.1 200.2C219 200.2 216.4 199 216.4 196.6C216.4 195.7 216.8 194.2 217.8 192.8L225.7 184.9C229.3 180.8 231 178 231 175.8C231 172.9 228.4 171.7 222.6 171.7C219.9 171.7 218 172.1 216.8 173.1C215.8 173.8 214.9 175.5 213.9 177.9C213.7 178.4 213.7 178.6 213.7 178.6C213.837 178.737 214.02 178.687 214.186 178.641C214.263 178.62 214.337 178.6 214.4 178.6C216.1 177.6 217.5 177.4 218.7 177.4C221.1 177.4 223.5 177.7 225.4 178.4C226.4 178.8 226.6 179.3 225.9 179.8C223.3 182.9 220.4 185.8 217.5 188.9C214.6 192.3 213.4 195.6 213.4 199C213.4 200.9 214.2 202.6 215.6 203.8C217.1 205 219.2 205.7 221.4 205.7ZM98.6 200.2C108.2 196.8 118.5 193 129.6 189.2C129.985 189.123 130.252 189.031 130.445 188.964C130.754 188.858 130.877 188.816 131 189C131.2 189 131.2 189.5 130.8 190.2C130.1 192.4 129.4 193.6 128.9 194C119.3 197.4 108.5 201.4 96.3 207C96.7 204.7 97.4 202.6 98.6 200.2Z" id="Group" fill="#595959" fill-rule="evenodd" stroke="none" clip-path="url(#clip_1)" />
  </g>
</svg>