<?xml version="1.0" encoding="utf-8"?>
<svg width="472.50012px" height="209.42694px" viewBox="0 0 472.50012 209.42694" version="1.1" xmlns:xlink="http://www.w3.org/1999/xlink" xmlns="http://www.w3.org/2000/svg">
  <defs>
    <path d="M472.5 0L472.5 0L472.5 209.427L0 209.427L0 0L472.5 0Z" id="path_1" />
    <clipPath id="clip_1">
      <use xlink:href="#path_1" clip-rule="evenodd" fill-rule="evenodd" />
    </clipPath>
  </defs>
  <g id="Surah_53_of_114_(modified)">
    <path d="M472.5 0L472.5 0L472.5 209.427L0 209.427L0 0L472.5 0Z" id="Surah_53_of_114_(modified)" fill="none" stroke="none" />
    <path d="M125.7 21.7269C144.2 15.0269 163.4 7.82692 183.5 0.32692C183.678 0.275967 183.844 0.218524 183.994 0.166165C184.435 0.0130054 184.751 -0.09665 184.9 0.126923C184.9 0.126923 184.9 0.626923 184.7 1.32692C183.7 3.52692 183 4.72691 182.5 5.12692C165.7 11.3269 145.8 19.0269 123.2 28.4269C123.8 26.2269 124.5 24.1269 125.7 21.7269ZM210.1 148.927C205.8 155.627 200.7 159.227 195 159.227L195 144.627C199.6 144.627 204.1 142.727 208.4 139.127C209.6 138.127 210.3 134.127 210.3 127.327C210.3 123.227 209.1 106.727 206.9 77.9269C204.7 49.1269 203.8 32.1269 203.8 26.8269C203.8 22.2269 203.1 18.4269 201.6 15.3269C201.6 13.6269 203 9.5269 205.7 3.12691C205.9 2.42691 206.2 2.12691 206.7 2.12691C206.9 2.12691 207.2 2.3269 207.7 3.3269C208.4 5.0269 210.3 9.5269 213.2 17.0269C216.1 24.9269 217.8 29.7269 218.5 31.4269C218.7 32.8269 219 34.0269 219 34.5269C219 36.7269 216.8 35.5269 212.8 30.7269C212.3 30.2269 212.1 30.5269 212.1 31.7269C212.1 31.9269 213.1 44.9269 215 70.3269C216.9 95.4269 217.8 110.527 217.8 115.527C217.8 129.727 215.2 140.727 210.1 148.927ZM227.2 28.7269C227.2 23.9269 226.5 20.1269 225 16.9269C225 15.2269 226.2 11.1269 229.1 4.92691C229.3 4.22691 229.6 3.72691 229.8 3.72691C230.3 3.72691 230.5 4.22691 231 4.92691C231.7 6.62691 233.4 11.1269 236.3 18.6269C239.4 26.5269 241.1 31.3269 241.6 33.2269C242.1 34.4269 242.1 35.6269 242.1 36.1269C242.1 38.3269 240.2 37.1269 235.9 32.3269C235.4 31.6269 235.2 32.1269 235.2 33.3269C235.2 33.8269 236.4 48.7269 238.6 78.4269C240.8 107.927 241.7 124.527 241.7 128.327C241.7 139.627 240 149.727 236.7 158.327C235.7 160.027 235.3 161.227 234.8 162.127C234.1 163.327 233.8 163.327 233.6 162.627C233.429 161.773 233.55 160.263 233.714 158.22C233.742 157.871 233.771 157.506 233.8 157.127C234.3 153.027 234.5 148.527 234.5 143.427C234.5 138.627 233.3 119.427 230.9 85.6269C228.4 51.7269 227.2 32.7269 227.2 28.7269ZM277.6 18.1269C277.6 20.7269 279.7 23.1269 284.3 25.5269C280.9 29.1269 275.9 33.0269 268.9 37.2269C262.9 40.5269 257.2 43.9269 251.4 47.5269C250 48.2269 249.5 49.0269 249.5 49.2269C249.5 49.2269 249.5 49.4269 249.7 49.4269C249.9 49.4269 250.9 49.2269 252.1 48.7269C259.8 45.9269 264.1 44.2269 265.1 43.7269C268.7 42.3269 272.7 39.6269 277.3 36.5269C281.1 33.6269 284.3 30.5269 286.9 26.9269C289.1 28.1269 290.5 29.3269 291 30.3269C293.1 27.5269 294.1 25.3269 294.1 24.1269C293.6 23.1269 292.2 21.9269 289.8 20.7269C291 17.3269 291.5 14.4269 291.5 11.8269C291.5 9.02693 290.8 7.32693 289.1 6.82693C287.2 6.12692 284.8 7.12692 281.9 9.72693C279 12.1269 277.6 15.0269 277.6 18.1269ZM332.3 28.9269C332.3 28.9269 332.1 29.2269 332.1 29.4269C330.4 32.2269 328.9 33.9269 327.4 34.0269C325.3 34.0269 324.3 31.8269 324.3 28.0269C324.3 24.9269 325.5 19.8269 327.9 12.4269C328.4 10.7269 328.6 9.72691 328.6 9.52692C328.3 9.52692 327.9 10.4269 326.9 12.1269C323.1 19.1269 321.4 26.0269 321.4 32.5269C321.4 37.8269 322.9 40.4269 326 40.4269C329.1 40.4269 331.3 36.8269 332.5 29.6269C332.7 29.4269 332.7 29.1269 332.5 28.9269C332.5 28.8362 332.5 28.7867 332.481 28.7782C332.459 28.768 332.409 28.8176 332.3 28.9269ZM287.4 15.0269C287.7 16.4269 287.7 17.9269 287.2 19.3269C283.6 17.6269 281.7 16.2269 281.6 14.9269C281.6 14.5269 282 14.0269 283 13.5269C284 13.0269 284.7 12.8269 285.2 12.8269C286.4 12.8269 287.2 13.6269 287.4 15.0269ZM177.5 37.0269C177.5 36.1269 177 34.7269 175.9 32.7269C174.7 29.4269 174 27.7269 174 27.7269C173.8 26.7269 173.5 25.5269 173.3 24.3269C173.3 23.4269 173 22.9269 172.8 22.9269C172.5 22.9269 172.3 23.4269 171.8 24.1269C170.8 25.3269 170.6 26.5269 170.6 27.9269C170.6 30.5269 172.1 34.1269 174.7 38.9269C174.5 40.4269 173.5 41.1269 172.1 41.1269C168.9 41.1269 167.5 39.0269 167.5 34.9269C167.5 33.5269 167 31.3269 166.3 28.2269C165.6 25.3269 165.1 23.9269 164.6 23.9269C164.4 23.9269 163.9 24.3269 163.4 25.3269C162.9 26.5269 162.7 27.2269 162.7 27.7269C162.7 28.2269 163 29.6269 163.7 31.8269C164.2 34.2269 164.7 35.6269 164.7 36.6269C164.7 38.3269 164 39.7269 162.8 40.9269C161.6 42.1269 160.4 42.8269 159 42.8269C158.1 42.8269 157.1 41.8269 156.4 40.4269C155.9 39.2269 155.7 37.7269 155.7 36.3269C155.7 35.6269 155.7 34.9269 155.9 33.9269C155.9 32.9269 156.1 31.7269 156.1 30.3269C156.1 27.7269 155.6 26.5269 154.9 26.5269C154.4 26.5269 153.7 27.0269 152.7 28.2269C151.8 29.4269 151.3 30.6269 151.3 32.0269C151.3 32.7269 151.6 33.2269 152.3 33.4269C152.8 33.7269 153.3 33.9269 153.3 34.4269L153.3 40.5269C153.3 42.9269 153.8 45.1269 155 46.5269C156 48.0269 157.2 48.7269 158.4 48.7269C162 48.7269 164.4 46.1269 165.8 41.3269C167 45.2269 168.9 47.1269 171.8 47.1269C173.5 47.1269 174.9 45.6269 176.1 43.0269C177 41.1269 177.5 38.9269 177.5 37.0269ZM97.1 25.7269C96.4 25.7269 95.4 26.2269 94.7 27.4269C91.3 33.9269 88.9 40.9269 87.8 48.6269C87.6 49.5269 87.6 50.5269 87.6 51.2269C87.6 55.0269 89 57.2269 92.4 57.2269C95.8 57.2269 98.4 55.5269 100.8 52.6269C101.5 51.6269 102 49.0269 102.5 44.9269C102.7 41.3269 100.3 37.5269 95.3 33.9269C96 31.5269 96.9 29.1269 97.9 26.9269C97.9 26.6269 98.1 26.4269 98.1 26.4269C98.1 25.9269 97.6 25.7269 97.1 25.7269ZM310.7 63.2269C334.9 54.1269 360.1 45.0269 386.1 35.4269C386.302 35.3691 386.488 35.303 386.649 35.2455C387.047 35.1037 387.3 35.0135 387.3 35.2269C387.5 35.2269 387.5 35.7269 387.3 36.4269C386.3 38.6269 385.6 39.8269 385.1 40.2269C384.9 40.4269 372.6 45.0269 348.9 53.9269C324.7 62.8269 311 68.3269 308.3 70.0269C308.8 67.8269 309.5 65.6269 310.7 63.2269ZM135.3 44.7269C135.3 47.3269 134.1 50.2269 132.2 53.3269C130 56.4269 127.4 59.3269 124 61.7269C122.6 62.7269 121.8 63.1269 121.6 63.1269L121.6 62.9269C121.6 62.7269 122.1 62.2269 123 61.0269C128.5 55.0269 131.4 51.2269 131.4 49.0269C131.4 47.3269 130.4 46.4269 128.8 46.4269C127.8 46.4269 126.9 46.6269 126.2 47.1269C125.5 47.3269 125.2 47.6269 125 47.6269C125 47.6269 124.8 47.6269 124.8 47.4269C124.8 47.4269 124.8 46.9269 125 46.0269C126 41.9269 127.9 40.0269 131.2 40.0269C133.8 39.9269 135.3 41.6269 135.3 44.7269ZM92.6 40.5269C97.6 43.3269 100 45.5269 100 46.7269C99.5 47.6269 98.3 48.6269 96.7 49.4269C95 50.3269 93.6 50.8269 92.4 50.8269C90.9 50.8269 90.2 49.8269 90.2 48.4269C90.2 46.0269 90.9 43.4269 92.6 40.5269ZM39.3 71.6269C38.8 68.7269 37.6 65.4269 35.9 61.3269C34.2 57.2269 32.8 55.1269 32.1 55.1269C31.6 55.1269 31.4 55.1269 31.1 55.6269C30.9 55.8269 30.6 56.1269 29.9 56.1269C28.9 56.1269 28 55.4269 26.5 54.2269C25.1 53.0269 24.6 52.0269 24.6 51.3269C24.6 51.1269 25.1 49.9269 26.3 47.9269C27.3 46.0269 28 45.3269 28.2 45.3269C31.1 45.3269 33.5 46.7269 35.6 50.1269C37.8 53.2269 39.4 57.5269 40.2 62.8269C40.4 63.3269 40.4 63.5269 40.4 63.8269L40.6 63.8269C40.6 63.6269 40.8 63.3269 40.8 62.8269C41.3 59.7269 42.5 54.9269 44.2 48.6269C46.1 44.3269 48 42.1269 50.2 42.1269C51.4 42.1269 52.6 42.8269 53.6 44.3269C54.6 45.7269 55 46.7269 55 47.7269C55 48.2269 55 49.1269 54.5 50.1269C54 51.5269 53.5 52.3269 53.1 52.3269C52.9 52.3269 52.4 51.6269 51.4 50.6269C50.7 49.6269 49.7 49.2269 48.8 49.2269C46.9 49.2269 45.2 53.8269 43.5 62.9269C42.8 66.5269 42.1 69.4269 40.9 71.5269C42.6 71.5269 44.5 72.727 47.1 74.627C49.5 76.827 50.9 78.4269 51.2 79.9269C51.2 80.4269 51 81.3269 50.2 83.0269C49.5 84.727 49 85.4269 48.5 85.627C46.1 86.327 43.7 86.827 41.3 87.5269C38.4 88.5269 36.3 89.727 35.1 90.9269C38.5 101.027 40.1 110.827 40.1 120.727C40.1 123.627 39.6 126.527 39.1 129.627C38.9 130.627 38.6 131.027 38.4 131.327C38.2 131.327 38.2 129.427 38.2 126.027C38.2 120.527 37.2 113.527 35.6 105.627C34.2 97.727 33.2 93.127 33.2 91.9269C33.2 87.8269 34.4 84.9269 36.6 83.0269C37.8 82.3269 39.7 81.3269 42.8 80.4269C41.6 79.2269 40.4 78.7269 39.2 78.7269C38.7 78.7269 38 79.4269 37 80.6269C35.8 81.8269 35.3 82.5269 35.1 82.5269C34.9 82.5269 34.9 82.0269 35.1 80.8269C35.7 75.7269 37.1 72.6269 39.3 71.6269ZM441.3 64.4269C438.9 70.2269 437.7 74.7269 437.7 78.1269C437.7 82.2269 438.7 84.3269 440.8 84.3269C442 84.3269 443.4 82.6269 445.1 79.7269C445.3 79.5269 445.3 79.2269 445.6 79.0269C445.6 79.0269 445.8 79.0269 445.8 79.2269L445.8 79.9269C444.4 87.127 442.2 90.7269 439.3 90.7269C436.2 90.7269 434.7 88.1269 434.7 82.8269C434.7 80.2269 435.2 76.8269 436.6 72.5269C438 68.227 438.8 66.0269 438.8 65.8269C438.8 65.3269 437.8 64.4269 435.7 63.2269C431.9 68.2269 426.6 73.0269 419.9 77.1269C415.3 79.7269 410.8 82.1269 406 84.1269C397.1 87.7269 391.8 89.6269 390.6 90.3269C389.4 90.8269 388.7 91.0269 388.2 91.0269C388 91.0269 388 90.8269 388 90.8269C388 90.3269 388.5 89.8269 389.9 88.9269C397.6 84.627 405 80.3269 412.7 75.9269C422.8 70.127 429.7 65.3269 433.1 61.7269C428.5 59.3269 426.4 56.9269 426.4 54.3269C426.4 51.2269 427.8 48.3269 430.7 45.7269C433.6 43.3269 436 42.3269 437.9 43.1269C439.3 43.6269 440.3 45.3269 440.3 48.1269C440.3 50.7269 439.8 53.6269 438.6 56.7269C441 58.1269 442 59.6269 442 61.0269C442 61.8269 441.8 63.0269 441.3 64.4269ZM436 55.5269C436.5 54.1269 436.5 52.6269 436.2 51.2269C436 49.8269 435.2 49.0269 434 49.0269C433.5 49.0269 432.8 49.2269 431.8 49.7269C430.8 50.2269 430.4 50.7269 430.4 51.1269C430.5 52.4269 432.4 53.8269 436 55.5269ZM280.2 54.1269L276.4 62.0269C275.4 61.0269 273.3 59.4269 270.2 57.5269C267.1 55.327 265.4 54.127 264.9 54.127C264.6 54.127 264.1 54.627 263.9 55.127L259.3 64.727C259.1 65.227 259.1 65.5269 259.3 65.727C263.2 68.127 267 70.727 270.6 73.627C271.1 73.9269 271.6 73.627 271.8 72.9269C273.3 70.7269 274.5 68.1269 275.9 65.2269C280 67.8269 283.6 70.2269 286.7 72.6269C287.1 72.8269 287.6 72.8269 288.1 72.1269C291.2 66.8269 292.9 63.2269 292.9 61.5269C292.9 61.0269 291 59.6269 287.4 57.2269C283.6 54.6269 281.7 53.4269 281.2 53.4269C280.7 53.4269 280.4 53.6269 280.2 54.1269ZM169.3 68.2269C169.1 68.7269 169.1 69.0269 169.3 69.2269C173.2 71.6269 177 74.2269 180.7 77.1269C181.19 77.4211 181.392 77.1383 181.871 76.4672L181.9 76.4269C185.2 71.1269 186.9 67.8269 186.9 66.1269C186.9 65.6269 184.9 64.1269 181.1 61.5269C177.5 59.1269 175.4 57.9269 174.9 57.9269C174.6 57.9269 174.1 58.1269 173.9 58.6269L169.3 68.2269ZM358.7 70.9269C356.6 67.5269 354.2 66.1269 351.3 66.1269C351 66.1269 350.3 66.8269 349.3 68.727C348.1 70.727 347.6 71.9269 347.6 72.127C347.6 72.8269 348.1 73.8269 349.5 75.0269C351 76.2269 351.9 76.9269 352.9 76.9269C353.6 76.9269 353.9 76.627 354.1 76.4269C354.4 75.9269 354.6 75.9269 355.1 75.9269C356.1 75.9269 357.3 78.127 359.2 82.9269C361.1 87.5269 362 90.6269 361.8 92.3269C362 93.3269 362 94.0269 362.5 94.0269C363 94.0269 363.5 93.3269 364.2 92.3269C364.9 90.7269 365.9 87.8269 366.6 83.7269C368.3 74.6269 370 70.0269 371.9 70.0269C372.8 70.0269 373.8 70.4269 374.5 71.4269C375.5 72.4269 376 73.1269 376.2 73.1269C376.6 73.1269 377.1 72.3269 377.6 70.9269C378.1 69.9269 378.1 69.0269 378.1 68.5269C378.1 67.5269 377.7 66.5269 376.7 65.1269C375.7 63.6269 374.5 62.9269 373.3 62.9269C371.1 62.9269 369.2 65.1269 367.3 69.4269C365.6 75.7269 364.4 80.5269 363.9 83.6269C363.9 84.1269 363.7 84.4269 363.7 84.6269L363.5 84.6269C363.5 84.3269 363.5 84.1269 363.3 83.6269C362.5 78.3269 360.9 74.0269 358.7 70.9269ZM299.2 80.0269C299.2 83.8269 297.3 89.1269 293.4 95.6269C291 99.7269 287.4 105.227 282.6 112.427C287.4 117.927 290.8 123.027 292.4 127.327C293.4 130.427 294.1 134.527 294.1 139.127C294.1 141.027 293.6 143.427 292.7 146.527C292 149.427 291 151.527 290.1 153.027C288.2 155.927 285.1 158.827 280.3 161.627C275.3 165.027 270.9 166.627 267.3 166.627C261.5 166.627 258.7 162.327 258.7 153.627C258.7 147.827 259.7 142.127 261.6 136.827C263.5 132.227 266.6 126.227 271.7 118.327C267.4 114.227 262.8 108.527 257.8 101.327C257.3 100.627 256.1 99.4269 254.2 97.5269C253.2 96.5269 252.8 95.3269 252.8 93.9269C252.8 91.7269 253 89.3269 253.5 86.5269C254.2 83.6269 254.7 82.4269 254.9 82.4269C255.6 82.4269 257.8 83.6269 261.9 86.2269C265.7 88.8269 268.9 90.8269 270.8 92.4269C272 93.1269 272.5 93.8269 272.5 93.8269L272.5 94.0269C272.5 94.2269 271.8 94.5269 270.1 94.5269C267 94.5269 265.3 94.7269 265.3 95.0269C265.3 95.2269 265.8 95.7269 266.7 96.9269C270.5 101.727 274.4 105.327 278.5 108.227C279.5 106.827 282.8 102.027 288.1 93.8269C292.7 86.8269 295.3 82.0269 296.5 79.2269C297.7 76.3269 298.4 75.1269 298.9 75.1269C298.9 75.1417 298.907 75.1875 298.918 75.2654C298.983 75.7122 299.2 77.2171 299.2 80.0269ZM197.9 106.627L201.3 96.8269C201.8 95.6269 201.5 94.7269 200.3 94.727C178.2 88.727 166.7 85.527 165.7 85.327C144.1 80.0269 128 77.127 118.2 77.127C112.7 77.127 108.1 78.727 104.5 82.127C100.9 85.227 99 89.0269 99 93.627C99 96.227 99.8 98.8269 101.2 101.027C102.6 103.427 106 107.027 111.5 111.327C118 116.527 121.3 119.427 121.8 119.927C117.3 122.027 113.4 123.727 110.8 124.927C108 126.127 103.4 127.527 97.4 129.227C93.6 130.427 91.4 131.327 91.2 132.327L87.1 142.427C86.6 143.327 86.8 143.827 87.8 144.327C88.2 144.527 89.9 145.227 92.8 146.227C83.4 147.727 69.7 156.127 52.2 170.727C45.3 177.027 38.3 183.227 31.3 189.227C24.6 194.927 18.8 197.827 14 197.827C10.7 197.827 7.99998 196.627 6.09999 194.227C4.19998 191.827 3.49998 188.627 3.49998 184.827C3.49998 179.827 4.89999 172.827 8.29999 164.227C10.2452 158.956 11.6392 155.024 12.4078 152.406C15.2935 152.1 17.3533 148.507 18.5 141.627C18.7 141.427 18.7 141.127 18.5 140.927C18.5 140.836 18.5 140.787 18.4814 140.778C18.4589 140.768 18.4093 140.818 18.3 140.927C18.3 140.927 18.1 141.227 18.1 141.427C16.5 144.327 15 146.027 13.4 146.027C11.3 146.027 10.3 143.827 10.3 140.027C10.3 136.927 11.5 131.827 13.9 124.427C14.4 122.727 14.6 121.727 14.6 121.527C14.3 121.527 13.9 122.427 12.9 124.127C9.10001 131.127 7.40001 138.027 7.40001 144.527C7.40001 148.775 8.36374 151.289 10.3427 152.119C3.38675 165.934 0 177.301 0 186.127C0 192.627 1.7 198.127 5.5 202.727C9.10001 207.027 13.5 209.427 18.5 209.427C22.1 209.427 27.9 206.227 35.3 200.027L60.5 178.427C77 165.427 90.5 158.727 100.3 158.727C107.2 158.727 113.5 160.227 118.5 163.327C119.5 164.127 120.2 164.327 120.7 164.327C121.4 164.327 122.4 162.627 123.1 158.827C124 155.227 124.5 152.827 124.5 151.627C124.5 150.127 123.7 148.727 122.3 147.027C117.126 142.829 113.382 139.775 110.974 138.051C119.781 134.193 125.923 131.619 129.5 130.427C131.083 133.388 132.405 135.515 133.453 136.888C133.4 137.247 133.349 137.626 133.3 138.027C132.8 140.827 132.6 143.227 132.6 145.427C132.6 148.827 132.8 151.427 133.8 153.627C136.2 159.927 141.3 163.027 149.2 163.027C155.9 163.027 162.4 160.327 168.6 154.827C170 153.627 173.2 150.327 178.2 144.527C179 143.627 179.7 143.327 180.4 143.127C180.9 143.427 181.1 143.627 181.1 144.127C181.6 154.227 186.2 159.227 194.8 159.227L194.8 144.527C191.6 144.527 189.2 143.127 187.8 140.727C186.4 138.827 185.9 136.427 185.9 133.527C185.9 133.027 185.9 132.327 186.1 131.327C186.3 130.327 186.3 129.627 186.3 129.127C186.3 128.227 186.1 127.727 185.1 127.727C184.2 127.727 183.2 128.227 182.5 128.927C174.9 136.627 170.1 141.227 167.9 142.627C162.4 146.527 156.2 148.427 149.2 148.427C144.9 148.427 141.8 147.727 140.1 146.127C138.1 144.727 137.2 142.327 136.7 138.927L136.7 137.442C136.828 136.877 136.9 136.139 136.9 135.227C136.9 133.527 136.6 131.127 136.4 128.227C156.1 120.527 175.8 114.327 195.7 109.527C196.2 109.527 196.7 109.327 196.9 108.827C197.2 108.527 197.4 107.827 197.9 106.627ZM82.4 99.4269C82.4 99.4269 82.2 99.7269 82.2 99.9269C80.5 102.827 79.1 104.527 77.5 104.527C75.4 104.527 74.4 102.327 74.4 98.5269C74.4 95.4269 75.6 90.3269 78 82.9269C78.5 81.2269 78.7 80.2269 78.7 80.0269C78.4 80.0269 78 80.9269 77 82.6269C73.2 89.6269 71.5 96.5269 71.5 103.027C71.5 108.327 73 110.927 76.1 110.927C79.2 110.927 81.4 107.327 82.6 100.127C82.8 99.9269 82.8 99.6269 82.6 99.4269C82.6 99.3362 82.6 99.2867 82.5814 99.2782C82.5589 99.268 82.5093 99.3176 82.4 99.4269ZM151.5 95.6269C162.8 98.2269 171.2 100.927 176.5 102.827C162.9 105.927 148.2 110.527 132.3 116.027C130.6 113.827 127 110.227 121 105.427C117.2 102.127 113.1 98.7269 109 95.6269C107.1 93.7269 105.9 92.5269 105.9 92.0269C105.9 90.8269 109.5 90.3269 116.5 90.3269C125.3 90.3269 136.9 92.0269 151.5 95.6269ZM316.7 108.427C317.7 109.627 318.4 111.227 318.9 113.427C320.1 117.427 322.5 123.227 325.8 130.327C328.7 136.627 330.1 139.927 330.1 140.427C330.1 142.427 327.2 145.527 321.7 149.827C316.837 153.441 310.507 157.573 302.709 162.166C303.435 157.664 304.725 152.239 306.6 145.827C306.9 144.327 307.1 143.127 307.1 142.427C307.1 141.927 307.1 141.727 306.9 141.727C306.4 141.727 305.9 142.727 304.7 145.127C302.311 151.578 300.564 157.851 299.544 164.009C296.353 165.847 292.938 167.754 289.3 169.727C279.9 174.827 268.2 180.327 254 186.327C233.6 194.927 222.5 199.727 220.6 200.727C215.3 203.127 212.7 204.627 212.7 204.827C212.7 205.027 212.7 205.027 213.2 205.027C214.2 205.027 216.6 204.727 220.4 204.027C224 203.527 233.1 201.427 247.5 198.027C261.2 194.727 268.4 193.027 268.9 193.027C271.5 193.027 279.9 188.927 294.3 180.527C295.749 179.715 297.16 178.908 298.535 178.106C298.814 185.248 300.788 191.406 304.3 196.027C308.6 202.027 314.8 205.127 323 205.127C332.6 205.127 343.6 200.127 356.6 190.527C365.3 184.027 373.2 176.527 380.4 167.927C383.5 164.327 386.1 159.727 387.8 154.227C389.3 149.827 390 146.527 390 143.627L390.5 143.127L390.5 129.927C389.5 130.427 389 130.427 388.8 130.427C386.4 125.427 383.5 121.327 380.4 117.727C376.8 114.127 373.7 112.227 370.6 112.227C366.5 112.227 362.7 114.327 359.1 118.427C355.3 123.227 353.6 128.527 353.6 134.527C353.6 142.427 359.4 146.527 370.9 146.527C376.2 146.527 380.5 145.827 383.4 144.827C383.9 146.527 384.4 148.227 384.4 149.627C384.4 151.827 380.8 156.127 373.8 162.927C366.1 170.127 358.2 176.127 350 181.127C339.6 187.427 331 190.527 323.8 190.527C315.4 190.527 309.4 187.827 305.6 182.827C304.187 180.707 303.189 178.309 302.608 175.675C314.872 168.19 323.832 161.137 329.6 154.627C331.6 152.427 333 149.327 334.2 145.227C335.1 141.627 335.6 138.727 335.6 136.327C335.6 131.227 334.1 125.727 331.5 119.027C329.8 115.227 327.9 111.127 326.2 107.027C329.1 107.727 331 108.227 331.7 108.227C332.2 108.227 332.4 107.927 332.4 107.727C332.4 107.227 331.7 106.327 330 104.627C326 100.527 322.4 96.6269 319 92.8269C318.5 92.3269 318.2 92.1269 318 92.1269C317.5 92.1269 317.2 92.6269 317 93.8269C316.5 95.0269 316.3 97.2269 315.8 100.327C315.3 103.627 315.3 105.327 315.3 105.827C315.5 106.227 316 107.027 316.7 108.427ZM416.6 114.827C415.9 114.827 414.9 115.227 413.7 116.227C409.8 119.627 406 122.527 402.1 124.427C400.9 125.227 396.8 127.127 390.6 130.227L390.6 143.427C399 139.527 405.5 135.527 409.3 130.927C409.3 141.927 414.1 147.727 424.2 147.727C432.6 147.727 439.5 142.927 444.8 133.327C448 139.127 451.6 142.227 455.4 142.227C461.2 142.227 465.5 139.627 468.4 134.327C471.1 129.927 472.5 124.927 472.5 118.927C472.5 115.027 471.3 111.727 469.4 108.827C468.7 107.827 468.2 107.627 467.7 107.627C467.2 107.627 466.7 108.427 466.5 109.827C465.1 114.327 464.1 117.727 463.9 119.627C466 123.227 467 125.227 467 125.427C466 127.027 463.9 128.027 460.5 128.027C457.9 128.027 455.5 127.027 453.8 125.627C451.9 124.227 450.9 122.527 450.9 120.827C450.9 121.327 451.6 119.427 452.6 115.327C453.1 113.227 452.9 112.227 451.9 112.227C451.2 112.227 450.5 112.627 449.5 113.627C447.1 117.527 444.5 121.327 442.1 125.427C438.2 130.527 433.2 133.127 427.2 133.127C419.7 133.127 415.9 130.227 415.9 124.927C415.9 123.727 416.1 122.227 416.6 120.327C417.1 118.427 417.3 116.927 417.3 116.227C417.3 115.327 417.1 114.827 416.6 114.827ZM289.8 139.027C287.2 133.727 282.6 128.227 276.4 122.927C274.2 125.127 271.6 129.127 268.2 134.927C264.4 141.427 262.7 145.527 262.7 147.627C262.7 150.527 264.6 151.927 268.9 151.927C270.8 151.927 273.2 151.227 276.3 150.027C280.6 148.127 284.7 145.427 288.1 142.127C289.6 140.727 290.1 139.827 289.8 139.027ZM376.9 132.127C373.3 127.527 370.2 125.427 367.3 125.427C363 125.427 361.1 126.427 361.1 128.827C361.1 131.727 364 133.127 369.7 133.127C371.9 133.027 374.3 132.627 376.9 132.127ZM57 140.227C57 142.827 55.8 145.727 53.9 148.827C51.7 151.927 49.1 154.827 45.7 157.227C44.3 158.227 43.5 158.627 43.3 158.627L43.3 158.427C43.3 158.227 43.8 157.727 44.7 156.527C50.2 150.527 53.1 146.727 53.1 144.527C53.1 142.827 52.1 141.927 50.5 141.927C49.5 141.927 48.6 142.127 47.9 142.627C47.2 142.827 46.9 143.127 46.7 143.127C46.7 143.127 46.5 143.127 46.5 142.927C46.5 142.927 46.5 142.427 46.7 141.527C47.7 137.427 49.6 135.527 52.9 135.527C55.6 135.427 57 137.127 57 140.227ZM402.9 195.927C400.3 196.627 398.8 197.127 398.3 197.127L398.3 196.927C398.3 196.927 399.3 196.227 401.2 195.027C403.1 193.827 406 191.927 410.1 188.827C412 186.927 414.9 183.827 418.5 179.427C420.9 176.527 423.5 173.927 426.4 172.027C430 169.427 433.4 168.227 437 168.227C437.7 168.227 438.9 168.427 440.4 168.927C441.6 169.427 442.8 169.627 443.8 169.627C445.7 169.627 447.2 168.927 448.4 167.427C449.1 166.027 450.1 164.827 451 163.327C451.5 162.327 452.2 161.927 452.7 161.927C452.9 161.927 452.9 162.127 452.9 162.627C452.9 163.127 452.7 164.327 452.2 165.727C451.7 166.427 453.6 166.727 457.2 166.727C457.7 166.727 457.9 166.727 457.9 166.527C457.9 166.527 457.7 165.527 457.2 163.927C457 163.427 457.2 162.727 457.9 161.727L457.98 161.591C458.922 159.99 459.308 159.332 459.6 159.527C460.6 160.227 461 161.727 461 163.327C461 165.027 460.5 166.727 459.8 168.627C459.1 170.827 458.4 172.027 457.9 172.427C456.2 173.427 453.6 173.127 450 171.427C447.1 174.327 444.2 176.027 441.4 176.027C440.7 176.027 439.5 175.827 438.3 175.327C437.1 174.827 436.1 174.627 435.4 174.627C430.6 174.627 425.6 176.827 420.5 181.627L409.7 192.427C407.4 194.027 405.3 195.227 402.9 195.927ZM88 179.827C90.9 179.827 93.3 181.227 95.4 184.627C97.6 187.727 99.2 192.027 100 197.327C100.2 197.827 100.2 198.027 100.2 198.327L100.4 198.327C100.4 198.127 100.6 197.827 100.6 197.327C101.1 194.227 102.3 189.427 104 183.127C105.9 178.827 107.8 176.627 110 176.627C111.2 176.627 112.4 177.327 113.4 178.827C114.4 180.227 114.8 181.227 114.8 182.227C114.8 182.727 114.8 183.627 114.3 184.627C113.8 186.027 113.3 186.827 112.9 186.827C112.7 186.827 112.2 186.127 111.2 185.127C110.5 184.127 109.5 183.727 108.6 183.727C106.7 183.727 105 188.327 103.3 197.427C102.6 201.527 101.6 204.427 100.9 206.027C100.2 207.027 99.7 207.727 99.2 207.727C98.7 207.727 98.7 207.027 98.5 206.027C98.7 204.327 97.8 201.227 95.9 196.627C94 191.827 92.8 189.627 91.8 189.627C91.3 189.627 91.1 189.627 90.8 190.127C90.6 190.327 90.3 190.627 89.6 190.627C88.6 190.627 87.7 189.927 86.2 188.727C84.8 187.527 84.3 186.527 84.3 185.827C84.3 185.627 84.8 184.427 86 182.427C87 180.627 87.8 179.827 88 179.827ZM138.6 189.027C138.4 188.827 138.4 188.527 138.6 188.027L143.2 178.427C143.4 177.927 143.9 177.727 144.2 177.727C144.7 177.727 146.8 178.927 150.4 181.327C154.2 183.927 156.2 185.427 156.2 185.927C156.2 187.627 154.5 190.927 151.2 196.227L151.171 196.267C150.692 196.938 150.49 197.221 150 196.927C146.3 194.027 142.5 191.427 138.6 189.027ZM191.9 185.827C189.8 182.427 187.4 181.027 184.5 181.027C184.2 181.027 183.5 181.827 182.5 183.627C181.3 185.627 180.8 186.827 180.8 187.027C180.8 187.727 181.3 188.727 182.7 189.927C184.2 191.127 185.1 191.827 186.1 191.827C186.8 191.827 187.1 191.527 187.3 191.327C187.6 190.827 187.8 190.827 188.3 190.827C189.3 190.827 190.5 193.027 192.4 197.827C194.3 202.427 195.2 205.527 195 207.227C195.2 208.227 195.2 208.927 195.7 208.927C196.2 208.927 196.7 208.227 197.4 207.227C198.1 205.627 199.1 202.727 199.8 198.627C201.5 189.527 203.2 184.927 205.1 184.927C206 184.927 207 185.327 207.7 186.327C208.7 187.327 209.2 188.027 209.4 188.027C209.8 188.027 210.3 187.227 210.8 185.827C211.3 184.827 211.3 183.927 211.3 183.427C211.3 182.427 210.9 181.427 209.9 180.027C208.9 178.527 207.7 177.827 206.5 177.827C204.3 177.827 202.4 180.027 200.5 184.327C198.8 190.627 197.6 195.427 197.1 198.527C197.1 199.027 196.9 199.327 196.9 199.527L196.7 199.527C196.7 199.227 196.7 199.027 196.5 198.527C195.7 193.227 194.1 188.927 191.9 185.827Z" id="Group" fill="#595959" fill-rule="evenodd" stroke="none" clip-path="url(#clip_1)" />
  </g>
</svg>