<?xml version="1.0" encoding="utf-8"?>
<svg width="568.30005px" height="204.90005px" viewBox="0 0 568.30005 204.90005" version="1.1" xmlns:xlink="http://www.w3.org/1999/xlink" xmlns="http://www.w3.org/2000/svg">
  <defs>
    <path d="M568.3 0L568.3 0L568.3 204.9L0 204.9L0 0L568.3 0Z" id="path_1" />
    <clipPath id="clip_1">
      <use xlink:href="#path_1" clip-rule="evenodd" fill-rule="evenodd" />
    </clipPath>
  </defs>
  <g id="Surah_43_of_114_(modified)">
    <path d="M568.3 0L568.3 0L568.3 204.9L0 204.9L0 0L568.3 0Z" id="Surah_43_of_114_(modified)" fill="none" stroke="none" />
    <path d="M304.1 127.9C309.2 119.7 311.8 108.7 311.8 94.5C311.8 89.5 311.1 77.5 309.7 58.6C308.2 39.4 307.5 29.5 307.5 29.3C307.5 28.1 307.7 27.8 308.2 28.3C312.2 33.1 314.4 34.6 314.4 32.4C314.4 31.7 314.1 30.7 313.9 29.3C313.2 27.4 311.5 22.6 308.4 14.9C305.7 7.5 303.8 2.89999 303.1 1C302.6 0.199997 302.4 0 301.9 0C301.7 0 301.4 0.300003 301.2 1C298.3 7.39999 296.9 11.5 296.9 13.2C298.3 16.3 299.3 20.1 299.3 24.7C299.3 28.8 300 42.5 301.7 65.5C303.3 88.3 304.3 102 304.3 106.3C304.3 113.1 303.6 117.1 302.4 118.1C298.1 121.7 293.6 123.6 289 123.6L289 138.2C294.7 138.2 299.8 134.6 304.1 127.9ZM320.9 13.4C322.4 16.6 323.1 20.4 323.1 25.2C323.1 29.3 324.3 48.2 326.8 82.0999C329.2 115.9 330.4 135.1 330.4 139.9C330.4 145 330.2 149.5 329.7 153.6C329.671 153.979 329.642 154.344 329.614 154.693C329.45 156.735 329.329 158.246 329.5 159.1C329.7 159.8 330 159.8 330.7 158.6C331.2 157.7 331.6 156.5 332.6 154.8C335.9 146.2 337.6 136.1 337.6 124.8C337.6 121 336.7 104.4 334.5 74.9C332.3 45.2 331.1 30.3 331.1 29.8C331.1 28.6 331.3 28.1 331.8 28.8C336.1 33.6 338 34.8 338 32.6C338 32.1 338 30.9 337.5 29.7C337 27.8 335.3 23 332.2 15.1C329.3 7.59998 327.6 3.09998 326.9 1.39998C326.4 0.699982 326.2 0.199982 325.7 0.199982C325.5 0.199982 325.2 0.699982 325 1.39998C322.1 7.59998 320.9 11.7 320.9 13.4ZM251.5 20.9C246.9 18.5 244.8 16.1 244.8 13.5C244.8 10.4 246.2 7.5 249.1 5.10001C252 2.5 254.4 1.5 256.3 2.20001C258 2.70001 258.7 4.40001 258.7 7.20001C258.7 9.80002 258.2 12.7 257 16.1C259.4 17.3 260.8 18.5 261.3 19.5C261.3 20.7 260.3 22.9 258.2 25.7C257.7 24.7 256.3 23.5 254.1 22.3C251.5 25.9 248.3 29 244.5 31.9C239.9 35 235.9 37.7 232.3 39.1C231.3 39.6 227 41.3 219.3 44.1C218.1 44.6 217.1 44.8 216.9 44.8C216.7 44.8 216.7 44.6 216.7 44.6C216.7 44.4 217.2 43.6 218.6 42.9C224.4 39.3 230.1 35.9 236.1 32.6C243.1 28.3 248.2 24.5 251.5 20.9ZM204 2.39999C203.3 2.39999 202.3 2.89999 201.6 4.09999C198.3 10.5 195.9 17.5 194.7 25.3C194.5 26.2 194.5 27.2 194.5 27.9C194.5 31.7 195.9 33.9 199.3 33.9C202.7 33.9 205.3 32.2 207.7 29.3C208.4 28.3 208.9 25.7 209.4 21.6C209.6 18 207.2 14.2 202.2 10.6C202.9 8.2 203.8 5.79999 204.8 3.59999C204.8 3.29999 205 3.09999 205 3.09999C205 2.59999 204.5 2.39999 204 2.39999ZM373.5 14.7C373.5 17.3 375.6 19.7 380.2 22.1C376.8 25.7 371.8 29.5 364.8 33.8C358.8 37.1 353.1 40.5 347.3 44.1C345.9 44.8 345.4 45.6 345.4 45.8C345.4 45.8 345.4 46 345.6 46C345.8 46 346.8 45.8 348 45.3C355.7 42.5 360 40.8 361 40.3C364.6 38.9 368.6 36.2 373.2 33.1C377 30.2 380.2 27.1 382.8 23.5C385 24.7 386.4 25.9 386.9 26.9C389 24.1 390 21.9 390 20.7C389.5 19.7 388.1 18.5 385.7 17.3C386.9 13.9 387.4 11 387.4 8.40001C387.4 5.60001 386.7 3.90001 385 3.40001C383.1 2.7 380.7 3.7 377.8 6.3C374.9 8.7 373.5 11.6 373.5 14.7ZM174 26.1C171.6 31.9 170.4 36.4 170.4 39.8C170.4 43.9 171.4 46 173.5 46C174.9 46 176.4 44.3 177.8 41.4C178 41.2 178 40.9 178.3 40.7C178.5 40.7 178.5 40.7 178.5 40.9L178.5 41.6C177.3 48.8 175.1 52.4 172 52.4C168.9 52.4 167.4 49.8 167.4 44.5C167.4 41.9 168.1 38.5 169.3 34.2C170.7 29.9 171.5 27.7 171.5 27.5C171.5 27 170.5 26.1 168.4 24.9C165.8 28.5 162.6 31.6 158.8 34.5C154.2 37.9 150.2 40.3 146.6 41.9C145.6 42.1 141.3 43.8 133.6 46.7C132.4 47.2 131.4 47.4 131.2 47.4C131 47.4 131 47.4 131 47.2C131 47 131.5 46.5 132.9 45.5C138.7 42.1 144.4 38.5 150.4 35.2C157.4 30.9 162.4 27 165.8 23.4C161.2 21 159.1 18.6 159.1 16C159.1 12.9 160.5 9.99997 163.4 7.39996C166.3 4.99997 168.7 3.99997 170.6 4.79996C172.3 5.29996 173 6.99995 173 9.79996C173 12.4 172.5 15.3 171.3 18.4C173.7 19.8 174.9 21.3 174.9 22.7C174.986 23.3894 174.627 24.3758 174.206 25.5315C174.138 25.7168 174.069 25.9065 174 26.1ZM428.1 25.4C428.1 25.4 427.9 25.7 427.9 25.9C426.3 28.8 424.8 30.5 423.2 30.5C421.1 30.5 420.1 28.3 420.1 24.5C420.1 21.4 421.3 16.3 423.7 8.89999C424.2 7.2 424.4 6.2 424.4 6C424.1 6 423.7 6.90001 422.7 8.60001C418.9 15.6 417.2 22.5 417.2 29C417.2 34.3 418.7 36.9 421.8 36.9C424.9 36.9 427.1 33.3 428.3 26.1C428.5 25.9 428.5 25.6 428.3 25.4C428.3 25.3093 428.3 25.2598 428.281 25.2513C428.259 25.2411 428.209 25.2907 428.1 25.4ZM254.4 14.6C254.9 13.2 254.9 11.7 254.6 10.3C254.4 8.89999 253.6 8.09999 252.4 8.09999C251.9 8.09999 251.2 8.29999 250.2 8.79999C249.2 9.29999 248.8 9.79999 248.8 10.2C248.9 11.5 250.8 12.9 254.4 14.6ZM383.3 11.5C383.6 12.9 383.6 14.4 383.1 15.8C379.5 14.1 377.5 12.7 377.5 11.4C377.5 11 377.9 10.5 378.9 9.99998C379.9 9.49998 380.6 9.29999 381.1 9.29999C382.3 9.29999 383.1 10.1 383.3 11.5ZM168.7 17.3C169.2 15.9 169.2 14.4 168.9 13C168.7 11.6 167.9 10.8 166.7 10.8C166.2 10.8 165.5 11 164.5 11.5C163.5 12 163.1 12.5 163.1 12.9C163.2 14.1 165.1 15.6 168.7 17.3ZM74.1 22.1C72 18.7 69.6 17.3 66.7 17.3C66.5 17.3 65.8 18 64.7 19.9C63.5 21.9 63 23.1 63 23.3C63 24 63.5 25 64.9 26.2C66.4 27.4 67.3 28.1 68.3 28.1C69 28.1 69.3 27.8 69.5 27.6C69.8 27.1 70 27.1 70.5 27.1C71.5 27.1 72.7 29.3 74.6 34.1C76.5 38.7 77.4 41.8 77.2 43.5C77.4 44.5 77.4 45.2 77.9 45.2C78.4 45.2 78.9 44.5 79.6 43.5C80.3 41.9 81.3 39 82 34.9C83.7 25.8 85.4 21.2 87.3 21.2C88.2 21.2 89.2 21.6 89.9 22.6C90.9 23.6 91.4 24.3 91.6 24.3C92 24.3 92.5 23.5 93 22.1C93.5 21.1 93.5 20.2 93.5 19.7C93.5 18.7 93.1 17.7 92.1 16.3C91.1 14.8 89.9 14.1 88.7 14.1C86.5 14.1 84.6 16.3 82.7 20.6C81 26.9 79.8 31.7 79.3 34.8C79.3 35.3 79.1 35.6 79.1 35.8L78.9 35.8C78.9 35.5 78.9 35.3 78.7 34.8C77.9 29.5 76.3 25.2 74.1 22.1ZM199.5 17.1C204.5 19.9 206.9 22.1 206.9 23.3C206.4 24.2 205.2 25.2 203.6 26C201.9 26.9 200.5 27.4 199.3 27.4C197.8 27.4 197.1 26.4 197.1 25C197.1 22.6 197.8 20 199.5 17.1ZM406.6 59.7C430.8 50.6 456 41.5 482 31.9C482.202 31.8422 482.388 31.7761 482.549 31.7185C482.947 31.5767 483.2 31.4866 483.2 31.7C483.4 31.7 483.4 32.2 483.2 32.9C482.2 35.1 481.5 36.3 481 36.7C480.8 36.9 468.5 41.5 444.8 50.4C420.6 59.3 406.9 64.8 404.2 66.5C404.7 64.3 405.4 62.1 406.6 59.7ZM100.8 45.8C100.6 46.3 100.6 46.6 100.8 46.8C104.7 49.2 108.5 51.8 112.2 54.7C112.69 54.9942 112.892 54.7114 113.371 54.0404L113.4 54C116.7 48.7 118.4 45.4 118.4 43.7C118.4 43.2 116.4 41.7 112.6 39.1C109 36.7 106.9 35.5 106.4 35.5C106.1 35.5 105.6 35.7 105.4 36.2L100.8 45.8ZM271.5 55.7C272.4 53.8 272.9 51.6 272.9 49.7C272.9 48.7 272.4 47.3 271.3 45.3C270.1 42 269.4 40.3 269.4 40.3C269.2 39.3 268.9 38.1 268.7 36.9C268.7 36 268.4 35.5 268.2 35.5C267.9 35.5 267.7 36 267.2 36.7C266.2 37.9 266 39.1 266 40.5C266 43.1 267.5 46.7 270.1 51.5C269.9 53 268.9 53.7 267.5 53.7C264.3 53.7 262.9 51.6 262.9 47.5C262.9 46.1 262.4 43.9 261.7 40.8C261 37.9 260.5 36.5 260 36.5C259.8 36.5 259.3 36.9 258.8 37.9C258.3 39.1 258.1 39.8 258.1 40.3C258.1 40.8 258.4 42.2 259.1 44.4C259.6 46.8 260.1 48.2 260.1 49.2C260.1 50.9 259.4 52.3 258.2 53.5C257 54.7 255.8 55.4 254.4 55.4C253.5 55.4 252.5 54.4 251.8 53C251.3 51.8 251.1 50.3 251.1 48.9C251.1 48.2 251.1 47.5 251.3 46.5C251.3 45.5 251.5 44.3 251.5 42.9C251.5 40.3 251 39.1 250.3 39.1C249.8 39.1 249.1 39.6 248.1 40.8C247.2 42 246.7 43.2 246.7 44.6C246.7 45.3 247 45.8 247.7 46C248.2 46.3 248.7 46.5 248.7 47L248.7 53.2C248.7 55.6 249.2 57.8 250.4 59.2C251.4 60.7 252.6 61.4 253.8 61.4C257.4 61.4 259.8 58.8 261.2 54C262.4 57.9 264.3 59.8 267.2 59.8C268.9 59.8 270.3 58.3 271.5 55.7ZM537.1 60.7C534.7 66.5 533.5 71 533.5 74.4C533.5 78.5 534.5 80.6 536.6 80.6C537.8 80.6 539.2 78.9 540.9 76C541.1 75.8 541.1 75.5 541.4 75.3C541.4 75.3 541.6 75.3 541.6 75.5L541.6 76.2C540.2 83.4 538 87 535.1 87C532 87 530.5 84.4 530.5 79.1C530.5 76.5 531 73.1 532.4 68.8C533.8 64.5 534.6 62.3 534.6 62.1C534.6 61.6 533.6 60.7 531.5 59.5C527.7 64.5 522.4 69.3 515.7 73.4C511.1 76 506.6 78.4 501.8 80.4C492.9 84 487.6 85.9 486.4 86.6C485.2 87.1 484.5 87.3 484 87.3C483.8 87.3 483.8 87.1 483.8 87.1C483.8 86.6 484.3 86.1 485.7 85.2C493.4 80.9 500.8 76.6 508.5 72.2C518.6 66.4 525.5 61.6 528.9 58C524.3 55.6 522.2 53.2 522.2 50.6C522.2 47.5 523.6 44.6 526.5 42C529.4 39.6 531.8 38.6 533.7 39.4C535.1 39.9 536.1 41.6 536.1 44.4C536.1 47 535.6 49.9 534.4 53C536.8 54.4 537.8 55.9 537.8 57.3C537.9 58.1 537.6 59.3 537.1 60.7ZM531.9 51.8C532.4 50.4 532.4 48.9 532.1 47.5C531.9 46.1 531.1 45.3 529.9 45.3C529.4 45.3 528.7 45.5 527.7 46C526.7 46.5 526.3 47 526.3 47.4C526.3 48.7 528.3 50.1 531.9 51.8ZM376.1 50.6L372.3 58.5C371.3 57.6 369.1 55.9 366.1 54C363 51.8 361.3 50.6 360.8 50.6C360.5 50.6 360 51.1 359.8 51.6L355.2 61.2C355 61.7 355 62 355.2 62.2C359.1 64.6 362.9 67.2 366.5 70.1C367 70.4 367.5 70.1 367.7 69.4C369.2 67.2 370.4 64.6 371.8 61.7C375.9 64.3 379.5 66.7 382.6 69.1C383 69.3 383.5 69.3 384 68.6C387.1 63.3 388.8 59.7 388.8 58C388.8 57.5 386.9 56.1 383.3 53.7C379.5 51.1 377.6 49.9 377.1 49.9C376.6 49.9 376.3 50.1 376.1 50.6ZM160.4 71.5C162.3 68.4 163.5 65.5 163.5 62.9C163.5 59.7 162 58.1 159.4 58.2C156.1 58.2 154.2 60.1 153.2 64.2C153 65.1 153 65.6 153 65.6C153 65.8 153.2 65.8 153.2 65.8C153.4 65.8 153.7 65.5 154.4 65.3C155.1 64.8 156 64.6 157 64.6C158.6 64.6 159.6 65.5 159.6 67.2C159.6 69.4 156.7 73.2 151.2 79.2C150.3 80.4 149.8 80.9 149.8 81.1L149.8 81.3C150 81.3 150.8 80.9 152.2 79.9C155.6 77.5 158.2 74.6 160.4 71.5ZM454.8 67.4C452.7 64 450.3 62.6 447.4 62.6C447.1 62.6 446.4 63.3 445.4 65.2C444.2 67.2 443.7 68.4 443.7 68.6C443.7 69.3 444.2 70.3 445.6 71.5C447.1 72.7 448 73.4 449 73.4C449.7 73.4 450 73.1 450.2 72.9C450.5 72.4 450.7 72.4 451.2 72.4C452.2 72.4 453.4 74.6 455.3 79.4C457.2 84 458.1 87.1 457.9 88.8C458.1 89.8 458.1 90.5 458.6 90.5C459.1 90.5 459.6 89.8 460.3 88.8C461 87.2 462 84.3 462.7 80.2C464.4 71.1 466.1 66.5 468 66.5C468.9 66.5 469.9 66.9 470.6 67.9C471.6 68.9 472.1 69.6 472.3 69.6C472.7 69.6 473.2 68.8 473.7 67.4C474.2 66.4 474.2 65.5 474.2 65C474.2 64 473.8 63 472.8 61.6C471.8 60.1 470.6 59.4 469.4 59.4C467.2 59.4 465.3 61.6 463.4 65.9C461.7 72.2 460.5 77 460 80.1C460 80.6 459.8 80.9 459.8 81.1L459.6 81.1C459.6 80.8 459.6 80.6 459.4 80.1C458.6 74.8 457 70.5 454.8 67.4ZM200.2 73.2C200 73 200 72.7 200.2 72.2L204.8 62.6C205 62.1 205.5 61.9 205.8 61.9C206.3 61.9 208.4 63.1 212 65.5C215.8 68.1 217.8 69.6 217.8 70.1C217.8 71.8 216.1 75.1 212.8 80.4L212.771 80.4403C212.292 81.1114 212.09 81.3941 211.6 81.1C207.9 78.2 204 75.6 200.2 73.2ZM79.5 68.4C79.5 68.9 79.3 69.8 78.8 70.8C78.6 72.2 78.1 73 77.4 73C77.2 73 76.7 72.3 75.7 71.3C75 70.3 74 69.9 73.3 69.9C71.4 69.9 69.5 74.5 67.8 83.6C67.1 87.7 66.4 90.6 65.4 92.2C65.1405 92.5707 64.9086 92.9001 64.6939 93.168C64.9447 92.4233 65.0513 91.9538 65 91.8L65 91.6C64.8587 91.6 64.3185 92.1985 63.344 93.3251C63.2599 93.0337 63.2 92.6468 63.2 92.2C63.2 90.5 62.2 87.4 60.3 82.8C58.4 78 57.2 75.8 56.5 75.8C55.8 75.8 55.5 75.8 55.3 76.3C55.3 76.5 54.8 76.8 54.1 76.8C53.1 76.8 52.2 76.1 50.7 74.9C49.5 73.7 48.8 72.7 48.8 72C48.8 71.8 49.3 70.6 50.5 68.6C51.7 66.7 52.4 66 52.7 66C55.3 66 57.7 67.4 59.9 70.8C62.3 74.2 63.7 78.2 64.7 83.5L64.7 84.5C64.8093 84.6094 64.8589 84.6589 64.8814 84.6487C64.9 84.6403 64.9 84.5907 64.9 84.5C64.9 84.3 65.1 84 65.4 83.5C65.6 80.4 66.8 75.6 68.5 69.3C70.4 65 72.3 62.8 74.5 62.8C75.7 62.8 76.9 63.5 78.1 65C79 66.5 79.5 67.4 79.5 68.4ZM61.9 95C62.4581 94.3537 62.9386 93.7937 63.344 93.3251C63.4481 93.6858 63.5894 93.9 63.7 93.9C64.0147 93.9 64.3294 93.6228 64.6939 93.168C64.4556 93.8753 64.0871 94.8308 63.6 96C61.9 99.8 58.6 103.7 53.5 107.3C48.9 110.7 44.9 113.1 41.3 114.7C40.6 115.2 36.3 116.9 28.3 119.7C27.1 120.2 26.4 120.4 25.9 120.4C25.7 120.4 25.7 120.2 25.7 120.2C25.7 120 26.4 119.2 27.6 118.5C34.1 114.7 43.2 109.1 55.2 101.2C58.1 99 60.2 96.9 61.9 95ZM15.1 82.5C15.1 82.5 14.9 82.8 14.9 83C13.2 85.9 11.8 87.6 10.2 87.6C8.09998 87.6 7.09998 85.4 7.09998 81.6C7.09998 78.5 8.29997 73.4 10.7 66C11.2 64.3 11.4 63.3 11.4 63.1C11.1 63.1 10.7 64 9.69997 65.7C5.89997 72.7 4.19997 79.6 4.19997 86.1C4.19997 90.7177 5.33865 93.2859 7.68214 93.8705C7.3284 94.4099 6.93337 95.057 6.50001 95.7999C2.2 103.7 7.62939e-06 112.1 7.62939e-06 121.2C7.62939e-06 129.8 2.2 137 7.00001 142.8C13.9 150.7 24.7 154.8 40.1 154.8C55.1635 154.8 72.7444 151.443 92.9329 144.55C92.6945 144.886 92.4472 145.306 92.2 145.8C84.8 160.5 81.2 172.2 81.2 181.1C81.2 187.6 82.9 193.4 86.7 197.7C90.3 202.2 94.6 204.4 99.4 204.4C105.2 204.4 110.9 201 116.7 194.3C126.3 183.3 133.8 175.8 138.8 172C141.4 169.8 146.5 167.2 153.9 163.6C157.484 162.007 162.952 159.621 170.6 156.244L170.6 156.5C179.5 152.6 185.7 150 189.3 148.8C192.4 154.6 194.5 157.2 195.5 157.2C196.2 157.2 196.7 156 196.7 153.6C196.7 151.9 196.4 149.5 196.2 146.6C199.357 145.366 202.515 144.17 205.673 143.013C205.385 143.538 205.062 144.203 204.7 145C200.7 155.8 198.5 166.1 198.5 176.4C198.5 182.9 199.7 188.9 202.6 193.9C206.5 201.3 212.7 204.9 221.1 204.9C230.2 204.9 241.3 200.9 254 192.7C264.1 186.3 272 179.8 277.3 173.3C282.6 167.3 285.2 155.3 285.2 137.5C285.9 138 287.1 138 288.8 138L288.8 123.4C285.5 123.4 282.8 122.7 281.4 120.8C280.7 120.3 279.7 118.6 278.3 115.5C277.6 114.1 277.1 113.1 276.6 113.1C276.1 113.1 275.6 113.8 275.4 115C273.5 121 272.5 124.6 272.5 125.3C272.5 126.3 272.9 127.7 273.9 129.4C278.5 138.5 280.9 147.1 280.9 155.3C279.9 157.5 275.8 161.3 269.1 167.1C261.2 173.3 253.5 178.6 245.6 182.9C235.7 188.2 227.3 190.8 220.6 190.8C215.1 190.8 210.3 188.4 206.7 183.1C203.5 179.1 202.1 174.5 202.1 169.7C202.1 164.2 203.5 156.3 206.4 145.7C206.856 144.331 207.063 143.211 207.095 142.494C223.17 136.662 239.268 131.815 255.5 127.9C256 127.9 256.5 127.7 256.7 127.2C257 126.9 257.2 126.2 257.7 125L261.1 115.2C261.6 114 261.4 113 260.1 113.1C238 107.1 226.5 103.9 225.5 103.7C203.9 98.4 187.8 95.5 178 95.5C172.5 95.5 167.9 97.1 164.3 100.5C160.7 103.6 158.8 107.4 158.8 112C158.8 114.6 159.6 117.2 161 119.4C162.4 121.8 165.8 125.4 171.3 129.7C177.8 134.9 181.1 137.8 181.6 138.3C177.157 140.373 173.299 142.057 170.7 143.254L170.7 143C158.7 148 150.3 151.9 145.5 154.5C137.1 159.1 130.3 164.1 125.3 169.9C121.5 174.5 117.6 179.3 113.5 183.6C107.5 189.6 101.3 192.7 95.3 192.7C92 192.7 89.3 191.5 87.4 188.9C85.5 186.8 84.5 183.6 84.5 179.8C84.5 174.8 86.1 168.1 89.5 159.2C92.6 150.6 94.3 145.5 94.3 144.1C94.3 144.093 94.2999 144.086 94.2997 144.079C94.566 143.987 94.8328 143.894 95.1 143.8C113.3 137.3 124.8 131.8 129.4 127.2C133.2 123.4 135.6 120.3 136.6 117.4C137.5 115.2 138 111.1 138 105.6C138 95.4999 135.2 86.5999 129.4 79.2C124.4 72.4999 118.6 69.0999 112.6 69.0999C109 69.0999 105.4 71.8 101.8 76.8C98.4 81.8 96.5 86.9 96.5 91.9C96.5 95.5 97.7 98.5999 99.9 100.8C101.8 103.2 104.7 104.4 108.3 104.4L118.1 104.4C122.2 104.4 125.5 105.3 128.4 107C131.7 108.9 133.4 111.3 133.4 114.4C126 119.2 114.7 124.2 99.6 129.5C79.7 136.5 61.7 140.1 46.1 140.1C30.3 140.1 18.7 137 11.3 130.8C6.00002 126.7 3.60001 122.2 3.60001 116.9C3.60001 112.8 4.10001 109 5.30001 105.4C6.20001 102.5 7.40001 99.8999 8.40001 96.9999C8.81163 95.7651 9.15409 94.7377 9.3664 93.9585C12.169 93.5396 14.1744 89.9534 15.3 83.2C15.5 83 15.5 82.7 15.3 82.5C15.3 82.4093 15.3 82.3597 15.2813 82.3513C15.2589 82.3411 15.2093 82.3907 15.1 82.5ZM395.1 76.5C395.1 80.3 393.2 85.6 389.3 92.1C386.9 96.2 383.3 101.7 378.5 108.9C383.3 114.4 386.7 119.5 388.3 123.8C389.3 126.9 390 131 390 135.6C390 137.5 389.5 139.9 388.6 143C387.9 145.9 386.9 148 386 149.5C384.1 152.4 381 155.3 376.2 158.1C371.2 161.5 366.8 163.1 363.2 163.1C357.4 163.1 354.6 158.8 354.6 150.1C354.6 144.3 355.6 138.6 357.5 133.3C359.4 128.7 362.5 122.7 367.6 114.8C363.3 110.7 358.7 105 353.7 97.8C353.2 97.1 352 95.9 350.1 94C349.1 93 348.7 91.8 348.7 90.4C348.7 88.2 348.9 85.8 349.4 83C350.1 80.1 350.6 78.9 350.8 78.9C351.5 78.9 353.7 80.1 357.8 82.7C361.6 85.3 364.8 87.3 366.7 88.9C367.9 89.6 368.4 90.3 368.4 90.3L368.4 90.5C368.4 90.7 367.7 91 366 91C362.9 91 361.2 91.2 361.2 91.5C361.2 91.7 361.7 92.2 362.6 93.4C366.4 98.2 370.3 101.8 374.4 104.7C375.4 103.3 378.7 98.5 384 90.3C388.6 83.3 391.2 78.5 392.4 75.7C393.6 72.8 394.3 71.6 394.8 71.6C394.8 71.6148 394.807 71.6605 394.818 71.7383C394.882 72.1848 395.1 73.6897 395.1 76.5ZM262.6 84.7C262.4 84.5 262.4 84.2 262.6 83.7L267.2 74.1C267.4 73.6 267.9 73.4 268.2 73.4C268.7 73.4 270.8 74.6 274.4 77C278.2 79.6 280.2 81.1 280.2 81.6C280.2 83.3 278.5 86.6 275.2 91.9L275.171 91.9403C274.692 92.6114 274.49 92.8941 274 92.6C270.3 89.7 266.4 87.1 262.6 84.7ZM110.6 83C115 83 118.8 85.6 122.4 90.9C117.6 90.7 114 90.5 111.6 90.2C107.7 89.7 105.8 88.5 105.8 86.1C105.8 84.2 107.2 83 110.6 83ZM412.5 104.9C413.5 106.1 414.2 107.7 414.7 109.9C415.9 114 418.3 119.7 421.6 126.8C424.5 133.1 425.9 136.4 425.9 136.9C425.9 138.9 423 142 417.5 146.3C412.66 149.897 406.367 154.007 398.619 158.574C399.347 154.085 400.634 148.682 402.5 142.3C402.8 140.8 403 139.6 403 138.9C403 138.4 403 138.2 402.8 138.2C402.3 138.2 401.8 139.2 400.6 141.6C398.219 148.029 396.476 154.281 395.455 160.419C392.231 162.276 388.78 164.204 385.1 166.2C375.7 171.3 364 176.8 349.8 182.8C329.4 191.4 318.3 196.2 316.4 197.2C311.1 199.6 308.5 201.1 308.5 201.3C308.5 201.5 308.5 201.5 309 201.5C310 201.5 312.4 201.2 316.2 200.5C319.8 200 328.9 197.9 343.3 194.5C357 191.2 364.2 189.5 364.7 189.5C367.3 189.5 375.7 185.4 390.1 177C391.583 176.169 393.027 175.343 394.432 174.522C394.703 181.689 396.679 187.867 400.2 192.5C404.5 198.5 410.7 201.6 418.9 201.6C428.5 201.6 439.5 196.6 452.5 187C461.2 180.5 469.1 173 476.3 164.4C479.4 160.8 482 156.2 483.7 150.7C485.2 146.3 485.9 143 485.9 140.1L486.4 139.6L486.4 126.4C485.4 126.9 484.9 126.9 484.7 126.9C482.3 121.9 479.4 117.8 476.3 114.2C472.7 110.6 469.6 108.7 466.5 108.7C462.4 108.7 458.6 110.8 455 114.9C451.2 119.7 449.5 125 449.5 131C449.5 138.9 455.3 143 466.8 143C472.1 143 476.4 142.3 479.3 141.3C479.8 143 480.3 144.7 480.3 146.1C480.3 148.3 476.7 152.6 469.7 159.4C462 166.6 454.1 172.6 445.9 177.6C435.5 183.9 426.9 187 419.7 187C411.3 187 405.3 184.3 401.5 179.3C400.077 177.165 399.076 174.749 398.496 172.094C410.715 164.629 419.645 157.594 425.4 151.1C427.4 148.9 428.8 145.8 430 141.7C430.9 138.1 431.4 135.2 431.4 132.8C431.4 127.7 429.9 122.2 427.3 115.5C425.6 111.7 423.7 107.6 422 103.5C424.9 104.2 426.8 104.7 427.5 104.7C428 104.7 428.2 104.4 428.2 104.2C428.2 103.7 427.5 102.8 425.8 101.1C421.8 97 418.2 93.1 414.8 89.3C414.3 88.8 414 88.6 413.8 88.6C413.3 88.6 413 89.1 412.8 90.3C412.3 91.5 412.1 93.7 411.6 96.8C411.1 100.1 411.1 101.8 411.1 102.3C411.3 102.7 411.8 103.5 412.5 104.9ZM512.4 111.4C511.7 111.4 510.7 111.8 509.5 112.8C505.7 116.1 501.9 119 497.9 121C496.7 121.8 492.6 123.7 486.4 126.8L486.4 140C494.8 136.1 501.3 132.1 505.1 127.5C505.1 138.5 509.9 144.3 520 144.3C528.4 144.3 535.3 139.5 540.6 129.9C543.8 135.7 547.4 138.8 551.2 138.8C557 138.8 561.3 136.2 564.2 130.9C566.9 126.5 568.3 121.5 568.3 115.5C568.3 111.6 567.1 108.3 565.2 105.4C564.5 104.4 564 104.2 563.5 104.2C563 104.2 562.5 105 562.3 106.4C560.9 110.9 559.9 114.3 559.7 116.2C561.8 119.8 562.8 121.8 562.8 122C561.8 123.6 559.7 124.6 556.3 124.6C553.7 124.6 551.3 123.6 549.6 122.2C547.7 120.8 546.7 119.1 546.7 117.4C546.7 117.9 547.4 116 548.4 111.9C548.9 109.8 548.7 108.8 547.7 108.8C547 108.8 546.3 109.2 545.3 110.2C542.9 114.1 540.3 117.9 537.9 122C534 127.1 529 129.7 523 129.7C515.5 129.7 511.7 126.8 511.7 121.5C511.7 120.3 511.9 118.8 512.4 116.9C512.9 115 513.1 113.5 513.1 112.8C513.1 111.9 512.9 111.4 512.4 111.4ZM211.4 114C222.7 116.6 231.1 119.3 236.4 121.2C222.7 124.3 208.1 128.9 192.2 134.4C190.5 132.2 186.9 128.6 180.9 123.8C177.1 120.5 173 117.1 168.9 114C167 112.1 165.8 110.9 165.8 110.4C165.8 109.2 169.4 108.7 176.4 108.7C185.2 108.7 196.8 110.4 211.4 114ZM385.7 135.6C383.1 130.3 378.5 124.8 372.3 119.5C370.1 121.7 367.5 125.7 364.1 131.5C360.3 138 358.6 142.1 358.6 144.2C358.6 147.1 360.5 148.5 364.8 148.5C366.7 148.5 369.1 147.8 372.2 146.6C376.5 144.7 380.6 142 384 138.7C385.5 137.3 385.9 136.3 385.7 135.6ZM472.8 128.6C469.2 124 466.1 121.9 463.2 121.9C458.9 121.9 457 122.9 457 125.3C457 128.2 459.9 129.6 465.6 129.6C467.63 129.6 469.83 129.174 472.2 128.716C472.399 128.677 472.599 128.639 472.8 128.6ZM248.9 148.5C248.9 151.1 247.7 154 245.8 157.1C243.6 160.2 241 163.1 237.6 165.5C236.2 166.5 235.4 166.9 235.2 166.9L235.2 166.7C235.2 166.5 235.7 166 236.6 164.8C242.1 158.8 245 155 245 152.8C245 151.1 244 150.2 242.4 150.2C241.4 150.2 240.5 150.4 239.8 150.9C239.1 151.1 238.8 151.4 238.6 151.4C238.6 151.4 238.4 151.4 238.4 151.2C238.4 151.2 238.4 150.7 238.6 149.8C239.6 145.7 241.5 143.8 244.8 143.8C247.5 143.7 248.9 145.4 248.9 148.5ZM306.7 173.7C306.7 173.5 306.9 173.2 306.9 173.2C307.009 173.091 307.059 173.041 307.081 173.051C307.1 173.06 307.1 173.109 307.1 173.2C307.3 173.4 307.3 173.7 307.1 173.9C305.9 181.1 303.7 184.7 300.6 184.7C297.5 184.7 296 182.1 296 176.8C296 170.3 297.7 163.4 301.5 156.4C302.5 154.7 302.9 153.8 303.2 153.8C303.2 154 303 155 302.5 156.7C300.1 164.1 298.9 169.2 298.9 172.3C298.9 176.1 299.9 178.3 302 178.3C303.6 178.3 305.1 176.6 306.7 173.7ZM498.7 192.2C496.1 192.9 494.6 193.4 494.1 193.4L494.1 193.2C494.1 193.2 495.1 192.5 497 191.3C498.9 190.1 501.8 188.2 505.9 185.1C507.8 183.2 510.7 180.1 514.3 175.7C516.7 172.8 519.3 170.2 522.2 168.3C525.8 165.7 529.2 164.5 532.8 164.5C533.5 164.5 534.7 164.7 536.2 165.2C537.4 165.7 538.6 165.9 539.6 165.9C541.5 165.9 543 165.2 544.2 163.7C544.9 162.3 545.9 161.1 546.8 159.6C547.3 158.6 548 158.2 548.5 158.2C548.7 158.2 548.7 158.4 548.7 158.9C548.7 159.4 548.5 160.6 548 162C547.5 162.7 549.4 163 553 163C553.5 163 553.7 163 553.7 162.8C553.7 162.8 553.5 161.8 553 160.2C552.8 159.7 553 159 553.7 158L553.78 157.864C554.722 156.263 555.108 155.605 555.4 155.8C556.4 156.5 556.8 158 556.8 159.6C556.8 161.2 556.3 163 555.6 164.9C554.9 167.1 554.2 168.3 553.7 168.7C552 169.7 549.4 169.4 545.8 167.7C542.9 170.6 540 172.3 537.2 172.3C536.5 172.3 535.3 172.1 534.1 171.6C532.9 171.1 531.9 170.9 531.2 170.9C526.4 170.9 521.4 173.1 516.3 177.9L505.5 188.7C503.3 190.3 501.1 191.5 498.7 192.2ZM44.2 168.5C53.8 165.1 64.1 161.3 75.2 157.5C75.5851 157.423 75.8515 157.331 76.045 157.264C76.354 157.158 76.477 157.116 76.6 157.3C76.8 157.3 76.8 157.8 76.4 158.5C75.7 160.7 75 161.9 74.5 162.3C64.9 165.7 54.1 169.7 41.9 175.3C42.3 173 43 170.9 44.2 168.5ZM163.9 177.6C161.8 174.2 159.4 172.8 156.5 172.8C156.3 172.8 155.5 173.5 154.5 175.4C153.3 177.4 152.8 178.6 152.8 178.8C152.8 179.5 153.3 180.5 154.7 181.7C156.2 182.9 157.1 183.6 158.1 183.6C158.8 183.6 159.1 183.3 159.3 183.1C159.6 182.6 159.8 182.6 160.3 182.6C161.3 182.6 162.5 184.8 164.4 189.6C166.3 194.2 167.2 197.3 167 199C167.2 200 167.2 200.7 167.7 200.7C168.2 200.7 168.7 200 169.4 199C170.1 197.4 171.1 194.5 171.8 190.4C173.5 181.3 175.2 176.7 177.1 176.7C178 176.7 179 177.1 179.7 178.1C180.7 179.1 181.2 179.8 181.4 179.8C181.8 179.8 182.3 179 182.8 177.6C183.3 176.6 183.3 175.7 183.3 175.2C183.3 174.2 182.9 173.2 181.9 171.8C180.9 170.3 179.7 169.6 178.5 169.6C176.3 169.6 174.4 171.8 172.5 176.1C170.8 182.4 169.6 187.2 169.1 190.3C169.1 190.8 168.9 191.1 168.9 191.3L168.7 191.3C168.7 191 168.7 190.8 168.5 190.3C167.7 185 166.1 180.7 163.9 177.6Z" id="Group" fill="#595959" fill-rule="evenodd" stroke="none" clip-path="url(#clip_1)" />
  </g>
</svg>