<?xml version="1.0" encoding="utf-8"?>
<svg width="641.3002px" height="205.2px" viewBox="0 0 641.3002 205.2" version="1.1" xmlns:xlink="http://www.w3.org/1999/xlink" xmlns="http://www.w3.org/2000/svg">
  <defs>
    <path d="M641.3 0L641.3 0L641.3 205.2L0 205.2L0 0L641.3 0Z" id="path_1" />
    <clipPath id="clip_1">
      <use xlink:href="#path_1" clip-rule="evenodd" fill-rule="evenodd" />
    </clipPath>
  </defs>
  <g id="Surah_49_of_114_(modified)">
    <path d="M641.3 0L641.3 0L641.3 205.2L0 205.2L0 0L641.3 0Z" id="Surah_49_of_114_(modified)" fill="none" stroke="none" />
    <path d="M371.1 25.5C371.1 20.7 370.4 16.9 368.9 13.7C368.9 11.8 370.1 7.70001 373 1.70001C373.5 0.300018 374.2 0.300018 374.9 1.70001C375.6 3.40001 377.3 7.90001 380.2 15.4C383.3 23.3 385 28.1 385.5 30C386 31.2 386.2 32.4 386.2 32.9C386.2 35.1 384 33.9 380 29.1C379.5 28.4 379.3 28.9 379.3 30.1C379.3 30.6 380.5 47.1 383.1 79.8C385.7 112.4 387.2 130.7 387.2 134.5C387.2 145.8 385.3 155.9 381.7 164.5C381 166.2 380.5 167.4 380 168.3L380 168.3C379.3 169.3 378.8 169.5 378.8 168.8C378.6 167.8 378.6 166.2 379 163.3C379.5 159.2 379.7 154.9 379.7 149.6C379.7 145 378.3 124.2 375.4 87.2C372.5 50 371.1 29.6 371.1 25.5L371.1 25.5L371.1 25.5L371.1 25.5L371.1 25.5ZM335.1 125.8L309.2 119.3C309.4 118.8 312.8 117.6 319 115.9C327.4 113.5 334.4 111.3 339.6 109.2C342.2 108.2 343.7 106.8 344.2 105.1C344.4 103.9 344.7 98.1 344.7 87.6C344.7 82.3 344 71.8 342.8 55.2C341.4 38.9 340.9 28.8 340.9 24.7C340.9 20.1 340.2 16.3 338.7 13.2C338.7 11.5 340.1 7.39999 342.8 1C343 0.300003 343.5 0 343.8 0C344 0 344.3 0.199997 344.8 1.2C345.5 2.89999 347.4 7.39999 350.3 14.9C353.2 22.8 354.9 27.6 355.6 29.3C355.8 30.7 356.1 31.9 356.1 32.4C356.1 34.6 353.9 33.4 349.9 28.6C349.4 27.9 349.2 28.4 349.2 29.6C349.2 29.8 349.7 36.3 350.6 49.3C351.6 62 352 70.9 352 75.9C352 89.6 351 99.7 349.1 105.9C346.9 114.3 342.1 120.8 335.1 125.8L335.1 125.8L335.1 125.8L335.1 125.8L335.1 125.8ZM425.1 138L420.1 148.1C419.6 149.1 418.9 149.8 418.2 149.5C418.2 149.7 416.3 149.5 412.9 149.3C409.3 149.3 405.9 149.1 402.8 149.1C389.6 149.1 378.3 150.5 369.2 153.4C358.6 157 347.8 160.4 337 164C318.5 169.5 303.4 172.4 291.4 172.4C276.3 172.4 264 170.5 254.9 166.9L254.9 152.3C262.6 155.9 275.1 157.8 291.9 157.8C311.3 157.8 335.6 152.5 364.9 142.2C363.7 142.2 354.8 140 338 136C323.4 132.6 314.2 130.7 310.6 130.7C306 130.7 303.9 130.5 303.9 129.7C303.9 129.5 304.1 129 304.6 128.5C305.3 126.6 307 123.5 308.9 119.6L334.1 119.6C367.2 128.7 396.3 134 421.5 135.9C424.1 136.1 425.6 136.4 425.6 137.1C425.6 137.3 425.3 137.6 425.1 138L425.1 138L425.1 138L425.1 138L425.1 138ZM254.9 152L254.9 166.9C237.9 159.7 229.5 149.1 229.5 135C229.5 133.1 229.7 130.7 230.2 127.6C230.7 123.3 231.6 121.4 232.6 121.4C233.1 121.4 233.6 122.1 233.6 124C233.6 136.1 240.5 145.5 254.9 152L254.9 152L254.9 152L254.9 152L254.9 152ZM297.7 90.8L294.3 100.6C293.8 101.8 293.6 102.5 293.3 102.8C293.1 103.3 292.6 103.5 292.1 103.5C272.2 108.3 252.5 114.5 232.8 122.2C233 125.1 233.3 127.5 233.3 129.2C233.3 131.6 232.8 132.8 232.1 132.8C231.1 132.8 229 130.2 225.9 124.4C222.3 125.6 216.1 128.2 207.2 132.1L207.2 118.9C209.8 117.7 213.7 116 218.2 113.9C217.7 113.4 214.4 110.5 207.9 105.3C202.4 101 199 97.4 197.6 95C196.2 92.8 195.4 90.2001 195.4 87.6001C195.4 83 197.3 79.2001 200.9 76.1001C204.5 72.7001 209.1 71.1001 214.6 71.1001C224.4 71.1001 240.5 74 262.1 79.3001C263.1 79.5001 274.6 82.7001 296.7 88.7001C297.9 88.6 298.1 89.6 297.7 90.8L297.7 90.8L297.7 90.8L297.7 90.8L297.7 90.8ZM272.9 96.8C267.6 94.9 259.2 92.2 247.9 89.6C233.3 86 221.7 84.3 212.9 84.3C205.9 84.3 202.3 84.8 202.3 86C202.3 86.5 203.5 87.7 205.4 89.6C209.5 92.7 213.6 96.1 217.4 99.4C223.4 104.2 227 107.8 228.7 110C244.6 104.4 259.3 99.9 272.9 96.8L272.9 96.8L272.9 96.8L272.9 96.8L272.9 96.8ZM161.8 145.5C166.8 139.7 173.6 134.7 182 130.1C186.8 127.5 195.2 123.6 207.2 118.6L207.2 131.8C199.5 135.2 194 137.6 190.4 139.2C183 142.8 177.9 145.4 175.3 147.6C170.3 151.4 162.8 158.9 153.2 169.9C147.4 176.6 141.7 180 135.9 180C131.1 180 126.8 177.8 123.2 173.3C119.4 169 117.7 163.2 117.7 156.7C117.7 147.8 121.3 136.1 128.7 121.4C129.4 120 130.1 119.2 130.6 119.2C130.6 119.2 130.8 119.4 130.8 119.7C130.8 121.1 129.1 126.2 126 134.8C122.6 143.7 121 150.4 121 155.4C121 159.2 122 162.4 123.9 164.5C125.8 167.1 128.5 168.3 131.8 168.3C137.8 168.3 144 165.2 150 159.2C154.1 154.8 158 150 161.8 145.5L161.8 145.5L161.8 145.5L161.8 145.5L161.8 145.5ZM140.5 44C140.5 39.4 139.8 35.6 138.3 32.5C138.3 30.8 139.5 26.7 142.4 20.3C142.6 19.6 142.9 19.3 143.4 19.3C143.6 19.3 143.9 19.5 144.4 20.5C145.1 22.2 146.8 26.7 149.7 34.2C152.8 42.1 154.5 46.9 155 48.6C155.5 50 155.5 51 155.5 51.7C155.5 53.9 153.6 52.7 149.3 47.9C148.8 47.2 148.6 47.7 148.6 48.9C148.6 49.1 149.6 61.1 151.2 84.4C152.9 107.7 153.8 121.1 153.8 125C153.8 136.3 152.1 146.4 148.5 155C147.8 156.7 147.3 158.1 146.8 158.8L146.8 158.8C146.1 160 145.6 160 145.4 159.3C145.4 158.3 145.4 156.7 145.6 153.8C146.1 150 146.3 145.4 146.3 140.1C146.3 135.3 145.3 119.2 143.4 91.6C141.4 63.9 140.5 48 140.5 44L140.5 44L140.5 44L140.5 44L140.5 44ZM46.1 131.6C61.9 131.6 79.7 128.2 100.1 122C116.4 116.7 127 112.4 131.8 108.8C132.3 108.6 132.3 108.1 132.3 107.4C132.3 105.5 129.4 100.4 123.2 92.8C122 91.4 121.5 89.7 122 88C122.7 84.6 123.7 81.8 124.9 79.4C125.6 77.7 126.3 76.8 126.8 76.8C127 76.8 128 77.5 129.2 79C130.9 80.7 132.6 83.3 134.2 87.2C136.8 91.8 138 95.8 138 99.2C138 110.5 134.4 118.9 127 123.9C122.2 127.5 111.4 131.8 94.8 136.9C73.9 143.4 55.9 146.5 40.1 146.5C24.7 146.5 13.9 142.4 6.99999 134.3C2.19999 128.8 -7.62939e-06 121.6 -7.62939e-06 112.9C-7.62939e-06 103.8 2.19999 95.4 6.49999 87.5C7.89999 85.1001 8.89999 83.7001 9.39999 83.7001C9.39999 83.7001 9.59999 83.9001 9.59999 84.4001C9.59999 85.1001 9.09999 86.6001 8.39999 88.7001C7.39999 91.6001 6.2 94.2001 5.3 97.1001C4.1 100.7 3.6 104.5 3.6 108.6C3.6 113.9 6 118.4 11.3 122.5C18.8 128.4 30.3 131.6 46.1 131.6L46.1 131.6L46.1 131.6L46.1 131.6L46.1 131.6ZM254 136.6C253.8 136.4 253.8 136.1 254 135.6L258.6 126C258.8 125.5 259.3 125.3 259.6 125.3C260.1 125.3 262.2 126.5 265.8 128.9C269.6 131.5 271.6 133 271.6 133.5C271.6 135.2 269.9 138.5 266.6 143.8C266.1 144.5 265.9 144.8 265.4 144.5C261.7 141.6 257.8 139 254 136.6L254 136.6L254 136.6L254 136.6L254 136.6ZM65.8 83.1L69.6 75.2C69.8 74.7 70.1 74.5 70.6 74.5C71.1 74.5 73 75.7 76.8 78.3C80.4 80.7 82.3 82.1 82.3 82.6C82.3 84.3 80.6 87.9 77.5 93.2C77 93.9 76.5 93.9 76.1 93.7C73 91.3 69.4 88.9 65.3 86.3C63.9 89.2 62.7 91.8 61.2 94C61 94.7 60.5 95 60 94.7C56.4 91.8 52.6 89.2 48.7 86.8C48.5 86.6 48.5 86.3 48.7 85.8L53.3 76.2C53.5 75.7 54 75.2 54.3 75.2C54.8 75.2 56.5 76.4 59.6 78.6C62.7 80.4 64.9 82.1 65.8 83.1L65.8 83.1L65.8 83.1L65.8 83.1L65.8 83.1ZM318.3 23.1C318.3 21.9 315.9 19.7 310.9 16.9C309.2 19.8 308.5 22.4 308.5 24.8C308.5 26.2 309.2 27.2 310.7 27.2C311.9 27.2 313.3 26.7 315 25.8C316.6 25 317.8 24 318.3 23.1L318.3 23.1L318.3 23.1L318.3 23.1L318.3 23.1ZM313 3.90001C313.7 2.70001 314.7 2.20001 315.4 2.20001C315.9 2.20001 316.4 2.40001 316.4 2.90001C316.4 2.90001 316.2 3.10001 316.2 3.40001C315.2 5.60001 314.3 8.00002 313.6 10.4C318.6 14 321 17.8 320.8 21.4C320.3 25.5 319.8 28.1 319.1 29.1C316.7 32 314.1 33.7 310.7 33.7C307.3 33.7 305.9 31.5 305.9 27.7C305.9 27 305.9 26 306.1 25.1C307.3 17.3 309.7 10.4 313 3.90001L313 3.90001L313 3.90001L313 3.90001L313 3.90001ZM286.4 34.1C286.9 32.7 286.9 31.2 286.6 29.8C286.4 28.4 285.6 27.6 284.4 27.6C283.9 27.6 283.2 27.8 282.2 28.3C281.2 28.8 280.8 29.3 280.8 29.7C280.9 31 282.8 32.4 286.4 34.1L286.4 34.1L286.4 34.1L286.4 34.1L286.4 34.1ZM283.5 40.4C278.9 38 276.8 35.6 276.8 33C276.8 29.9 278.2 27 281.1 24.6C284 22 286.4 21 288.3 21.7C290 22.2 290.7 23.9 290.7 26.7C290.7 29.3 290.2 32.2 289 35.6C291.4 36.8 292.8 38 293.3 39C293.3 40.2 292.3 42.4 290.2 45.2C289.7 44.2 288.3 43 286.1 41.8C283.5 45.4 280.3 48.5 276.5 51.4C271.9 54.5 267.9 57.2 264.3 58.6C263.3 59.1 259 60.8 251.3 63.6C250.1 64.1 249.1 64.3 248.9 64.3C248.7 64.3 248.7 64.1 248.7 64.1C248.7 63.9 249.2 63.1 250.6 62.4C256.4 58.8 262.1 55.4 268.1 52.1C275.1 47.8 280.1 44 283.5 40.4L283.5 40.4L283.5 40.4L283.5 40.4L283.5 40.4ZM227.6 13.2C228.1 11.8 228.1 10.3 227.8 8.90001C227.6 7.50002 226.8 6.70001 225.6 6.70001C225.1 6.70001 224.4 6.90001 223.4 7.40001C222.4 7.90001 222 8.40001 222 8.8C222.1 10.1 224 11.6 227.6 13.2L227.6 13.2L227.6 13.2L227.6 13.2L227.6 13.2ZM232.9 22.1C230.5 27.9 229.3 32.4 229.3 35.8C229.3 39.9 230.3 42 232.4 42C233.8 42 235.3 40.3 236.7 37.4C236.9 37.2 236.9 36.9 237.2 36.7C237.4 36.7 237.4 36.7 237.4 36.9C237.4 36.9 237.4 37.1 237.4 37.6C236.2 44.8 234 48.4 230.9 48.4C227.8 48.4 226.3 45.8 226.3 40.5C226.3 37.9 227 34.5 228.2 30.2C229.6 25.9 230.4 23.7 230.4 23.5C230.4 23 229.4 22.1 227.3 20.9C224.7 24.5 221.5 27.6 217.7 30.5C213.1 33.9 209.1 36.3 205.5 37.9C204.5 38.1 200.2 39.8 192.5 42.7C191.3 43.2 190.3 43.4 190.1 43.4C189.9 43.4 189.9 43.4 189.9 43.2C189.9 43 190.4 42.5 191.8 41.5C197.6 38.1 203.3 34.5 209.3 31.2C216.3 26.9 221.3 23 224.7 19.4C220.1 17 218 14.6 218 12C218 8.90001 219.4 6.00002 222.3 3.40001C225.2 1.00002 227.6 1.52588e-05 229.5 0.800003C231.2 1.3 231.9 3 231.9 5.8C231.9 8.40001 231.4 11.3 230.2 14.4C232.6 15.8 233.8 17.3 233.8 18.7C233.8 19.5 233.3 20.7 232.9 22.1L232.9 22.1L232.9 22.1L232.9 22.1L232.9 22.1ZM157.7 69.9C176.2 63.2 195.4 56 215.5 48.5C216.2 48.3 216.7 48 216.9 48.3C216.9 48.3 216.9 48.8 216.7 49.5C215.7 51.7 215 52.9 214.5 53.3C197.7 59.5 177.8 67.2 155.2 76.6C155.8 74.4 156.5 72.3 157.7 69.9L157.7 69.9L157.7 69.9L157.7 69.9L157.7 69.9ZM46.6 164.7C56.2 161.3 66.5 157.5 77.6 153.7C78.6 153.5 78.8 153.2 79 153.5C79.2 153.5 79.2 154 78.8 154.7C78.1 156.9 77.4 158.1 76.9 158.5C67.3 161.9 56.5 165.9 44.3 171.5C44.7 169.2 45.4 167.1 46.6 164.7L46.6 164.7L46.6 164.7L46.6 164.7L46.6 164.7ZM249.4 194.9C244.6 199.2 238.1 201.6 230.4 201.6C228.2 201.6 226.1 200.9 224.6 199.7C223.2 198.5 222.4 196.8 222.4 194.9C222.4 191.5 223.6 188.2 226.5 184.8C229.4 181.7 232.3 178.8 234.9 175.7C235.6 175.2 235.4 174.7 234.4 174.3C232.5 173.6 230.1 173.3 227.7 173.3C226.5 173.3 225.1 173.5 223.4 174.5C223.2 174.5 222.9 174.7 222.7 174.5C222.7 174.5 222.7 174.3 222.9 173.8C223.9 171.4 224.8 169.7 225.8 169C227 168 228.9 167.6 231.6 167.6C237.4 167.6 240 168.8 240 171.7C240 173.9 238.3 176.7 234.7 180.8C232.1 183.4 229.4 186.1 226.8 188.7C225.8 190.1 225.4 191.6 225.4 192.5C225.4 194.9 228 196.1 233.1 196.1C238.2 196.1 243.2 195.1 248.9 193.5C250.3 193 251.1 193 251.1 193.3C251.1 193.2 250.6 194 249.4 194.9L249.4 194.9L249.4 194.9L249.4 194.9L249.4 194.9ZM410.2 101.6C410.2 104.2 409 107.1 407.1 110.2C404.9 113.3 402.3 116.2 398.9 118.6C397.5 119.6 396.7 120 396.5 120L396.5 119.8C396.5 119.6 397 119.1 397.9 117.9C403.4 111.9 406.3 108.1 406.3 105.9C406.3 104.2 405.3 103.3 403.7 103.3C402.7 103.3 401.8 103.5 401.1 104C400.4 104.2 400.1 104.5 399.9 104.5C399.9 104.5 399.7 104.5 399.7 104.3C399.7 104.3 399.7 103.8 399.9 102.9C400.9 98.8 402.8 96.9 406.1 96.9C408.8 96.8 410.2 98.4 410.2 101.6L410.2 101.6L410.2 101.6L410.2 101.6L410.2 101.6ZM397 3.40001C399.9 3.40001 402.3 4.8 404.4 8.20001C406.6 11.3 408.2 15.6 409 20.9C409.2 21.4 409.2 21.6 409.2 21.9L409.4 21.9C409.4 21.7 409.6 21.4 409.6 20.9C410.1 17.8 411.3 13 413 6.70001C414.9 2.40001 416.8 0.200012 419 0.200012C420.2 0.200012 421.4 0.900009 422.4 2.40001C423.4 3.8 423.8 4.8 423.8 5.8C423.8 6.3 423.8 7.2 423.3 8.2C422.8 9.59999 422.3 10.4 421.9 10.4C421.7 10.4 421.2 9.7 420.2 8.7C419.5 7.7 418.5 7.3 417.6 7.3C415.7 7.3 414 11.9 412.3 21C411.6 25.1 410.6 28 409.9 29.6C409.2 30.6 408.7 31.3 408.2 31.3C407.7 31.3 407.7 30.6 407.5 29.6C407.7 27.9 406.8 24.8 404.9 20.2C403 15.4 401.8 13.2 400.8 13.2C400.3 13.2 400.1 13.2 399.8 13.7C399.6 13.9 399.3 14.2 398.6 14.2C397.6 14.2 396.7 13.5 395.2 12.3C393.8 11.1 393.3 10.1 393.3 9.40002C393.3 9.20003 393.8 8.00003 395 6.00003C396.1 4.10002 396.8 3.40001 397 3.40001L397 3.40001L397 3.40001L397 3.40001L397 3.40001ZM408.3 69.2C408.3 69 408.5 68.7 408.5 68.7C408.7 68.5 408.7 68.5 408.7 68.7C408.9 68.9 408.9 69.2 408.7 69.4C407.5 76.6001 405.3 80.2 402.2 80.2C399.1 80.2 397.6 77.6 397.6 72.3C397.6 65.8 399.3 58.9 403.1 51.9C404.1 50.2 404.5 49.3 404.8 49.3L404.8 49.3C404.8 49.5 404.6 50.5 404.1 52.2C401.7 59.6 400.5 64.7 400.5 67.8C400.5 71.6 401.5 73.8 403.6 73.8C405.2 73.7 406.6 72 408.3 69.2L408.3 69.2L408.3 69.2L408.3 69.2L408.3 69.2ZM300.3 57.2C303.2 57.2 305.6 58.6 307.7 62C309.9 65.1 311.5 69.4 312.3 74.7C312.5 75.2 312.5 75.4 312.5 75.7L312.7 75.7C312.7 75.5 312.9 75.2 312.9 74.7C313.4 71.6 314.6 66.8 316.3 60.5C318.2 56.2 320.1 54 322.3 54C323.5 54 324.7 54.7 325.7 56.2C326.7 57.6 327.1 58.6 327.1 59.6C327.1 60.1 327.1 61 326.6 62C326.1 63.4 325.6 64.2 325.2 64.2C325 64.2 324.5 63.5 323.5 62.5C322.8 61.5 321.8 61.1 320.9 61.1C319 61.1 317.3 65.7 315.6 74.8C314.9 78.9 313.9 81.8 313.2 83.4C312.5 84.4 312 85.1001 311.5 85.1001C311 85.1001 311 84.4 310.8 83.4C311 81.7 310.1 78.6001 308.2 74C306.3 69.2001 305.1 67 304.1 67C303.6 67 303.4 67 303.1 67.5C302.9 67.7001 302.6 68 301.9 68C300.9 68 300 67.3 298.5 66.1001C297.1 64.9 296.6 63.9 296.6 63.2001C296.6 63 297.1 61.8001 298.3 59.8001C299.3 57.9 300.1 57.2 300.3 57.2L300.3 57.2L300.3 57.2L300.3 57.2L300.3 57.2ZM272.2 5.10002C272.2 7.70003 271 10.6 269.1 13.7C266.9 16.8 264.3 19.7 260.9 22.1C259.5 23.1 258.7 23.5 258.5 23.5L258.5 23.3C258.5 23.1 259 22.6 259.9 21.4C265.4 15.4 268.3 11.6 268.3 9.40002C268.3 7.70003 267.3 6.80002 265.7 6.80002C264.7 6.80002 263.8 7.00002 263.1 7.50001C262.4 7.70001 262.1 8.00002 261.9 8.00002C261.9 8.00002 261.7 8.00002 261.7 7.80002C261.7 7.80002 261.7 7.30002 261.9 6.40002C262.9 2.30002 264.8 0.400024 268.1 0.400024C270.8 0.300018 272.2 2.00002 272.2 5.10002L272.2 5.10002L272.2 5.10002L272.2 5.10002L272.2 5.10002ZM356 190.4C356 190.2 356.2 189.9 356.2 189.9C356.4 189.7 356.4 189.7 356.4 189.9C356.6 190.1 356.6 190.4 356.4 190.6C355.2 197.8 353 201.4 349.9 201.4C346.8 201.4 345.3 198.8 345.3 193.5C345.3 187 347 180.1 350.8 173.1C351.8 171.4 352.2 170.5 352.5 170.5L352.5 170.5C352.5 170.7 352.3 171.7 351.8 173.4C349.4 180.8 348.2 185.9 348.2 189C348.2 192.8 349.2 195 351.3 195C352.9 194.9 354.3 193.2 356 190.4L356 190.4L356 190.4L356 190.4L356 190.4ZM303.2 186.8C303.2 189.4 302 192.3 300.1 195.4C297.9 198.5 295.3 201.4 291.9 203.8C290.5 204.8 289.7 205.2 289.5 205.2L289.5 205C289.5 204.8 290 204.3 290.9 203.1C296.4 197.1 299.3 193.3 299.3 191.1C299.3 189.4 298.3 188.5 296.7 188.5C295.7 188.5 294.8 188.7 294.1 189.2C293.4 189.4 293.1 189.7 292.9 189.7C292.9 189.7 292.7 189.7 292.7 189.5C292.7 189.5 292.7 189 292.9 188.1C293.9 184 295.8 182.1 299.1 182.1C301.7 182 303.2 183.6 303.2 186.8L303.2 186.8L303.2 186.8L303.2 186.8L303.2 186.8ZM169 6.00002C171.9 6.00002 174.3 7.40001 176.4 10.8C178.6 13.9 180.2 18.2 181 23.5C181.2 24 181.2 24.2 181.2 24.5L181.4 24.5C181.4 24.3 181.6 24 181.6 23.5C182.1 20.4 183.3 15.6 185 9.30002C186.9 5.00002 188.8 2.80002 191 2.80002C192.2 2.80002 193.4 3.50002 194.4 5.00002C195.4 6.50002 195.8 7.40001 195.8 8.40001C195.8 8.90001 195.8 9.8 195.3 10.8C194.8 12.2 194.3 13 193.9 13C193.7 13 193.2 12.3 192.2 11.3C191.5 10.3 190.5 9.90001 189.6 9.90001C187.7 9.90001 186 14.5 184.3 23.6C183.6 27.7 182.6 30.6 181.9 32.2C181.2 33.2 180.7 33.9 180.2 33.9C179.7 33.9 179.7 33.2 179.5 32.2C179.7 30.5 178.8 27.4 176.9 22.8C175 18 173.8 15.8 172.8 15.8C172.3 15.8 172.1 15.8 171.8 16.3C171.6 16.5 171.3 16.8 170.6 16.8C169.6 16.8 168.7 16.1 167.2 14.9C165.8 13.7 165.3 12.7 165.3 12C165.3 11.8 165.8 10.6 167 8.60004C168.1 6.80002 168.8 6.00002 169 6.00002L169 6.00002L169 6.00002L169 6.00002L169 6.00002ZM119.3 32.7C119.3 32.5 119.5 32.2 119.5 32.2C119.7 32 119.7 32 119.7 32.2C119.9 32.4 119.9 32.7 119.7 32.9C118.5 40.1 116.3 43.7 113.2 43.7C110.1 43.7 108.6 41.1 108.6 35.8C108.6 29.3 110.3 22.4 114.1 15.4C115.1 13.7 115.5 12.8 115.8 12.8L115.8 12.8C115.8 13 115.6 14 115.1 15.7C112.7 23.1 111.5 28.2 111.5 31.3C111.5 35.1 112.5 37.3 114.6 37.3C116.2 37.2 117.7 35.6 119.3 32.7L119.3 32.7L119.3 32.7L119.3 32.7L119.3 32.7ZM18.3 75.9C18.3 75.7 18.5 75.4 18.5 75.4C18.7 75.2 18.7 75.2 18.7 75.4C18.9 75.6 18.9 75.9 18.7 76.1C17.5 83.3 15.3 86.9 12.2 86.9C9.1 86.9 7.6 84.3 7.6 79C7.6 72.5 9.3 65.6 13.1 58.6C14.1 56.9 14.5 56 14.8 56L14.8 56C14.8 56.2 14.6 57.2 14.1 58.9C11.7 66.3 10.5 71.4 10.5 74.5C10.5 78.3 11.5 80.5 13.6 80.5C15.2 80.4 16.6 78.8 18.3 75.9L18.3 75.9L18.3 75.9L18.3 75.9L18.3 75.9ZM59.3 33.2C62.2 33.2 64.6 34.6 66.7 38C68.9 41.1 70.5 45.4 71.3 50.7C71.5 51.2 71.5 51.4 71.5 51.7L71.7 51.7C71.7 51.5 71.9 51.2 71.9 50.7C72.4 47.6 73.6 42.8 75.3 36.5C77.2 32.2 79.1 30 81.3 30C82.5 30 83.7 30.7 84.7 32.2C85.7 33.6 86.1 34.6 86.1 35.6C86.1 36.1 86.1 37 85.6 38C85.1 39.4 84.6 40.2 84.2 40.2C84 40.2 83.5 39.5 82.5 38.5C81.8 37.5 80.8 37.1 79.9 37.1C78 37.1 76.3 41.7 74.6 50.8C73.9 54.9 72.9 57.8 72.2 59.4C71.5 60.4 71 61.1 70.5 61.1C70 61.1 70 60.4 69.8 59.4C70 57.7 69.1 54.6 67.2 50C65.3 45.2 64.1 43 63.1 43C62.6 43 62.4 43 62.1 43.5C61.9 43.7 61.6 44 60.9 44C59.9 44 59 43.3 57.5 42.1C56.1 40.9 55.6 39.9 55.6 39.2C55.6 39 56.1 37.8 57.3 35.8C58.4 33.9 59.1 33.2 59.3 33.2L59.3 33.2L59.3 33.2L59.3 33.2L59.3 33.2ZM185.1 98.2C185.1 100.8 183.9 103.7 182 106.8C179.8 109.9 177.2 112.8 173.8 115.2C172.4 116.2 171.6 116.6 171.4 116.6L171.4 116.4C171.4 116.2 171.9 115.7 172.8 114.5C178.3 108.5 181.2 104.7 181.2 102.5C181.2 100.8 180.2 99.9 178.6 99.9C177.6 99.9 176.7 100.1 176 100.6C175.3 100.8 175 101.1 174.8 101.1C174.8 101.1 174.6 101.1 174.6 100.9C174.6 100.9 174.6 100.4 174.8 99.5C175.8 95.4 177.7 93.5 181 93.5C183.7 93.4 185.1 95.1 185.1 98.2L185.1 98.2L185.1 98.2L185.1 98.2L185.1 98.2ZM104.7 179.3C104.7 179.1 104.9 178.8 104.9 178.8C105.1 178.6 105.1 178.6 105.1 178.8C105.3 179 105.3 179.3 105.1 179.5C103.9 186.7 101.7 190.3 98.6 190.3C95.5 190.3 94 187.7 94 182.4C94 175.9 95.7 169 99.5 162C100.5 160.3 100.9 159.4 101.2 159.4L101.2 159.4C101.2 159.6 101 160.6 100.5 162.3C98.1 169.7 96.9 174.8 96.9 177.9C96.9 181.7 97.9 183.9 100 183.9C101.6 183.9 103 182.2 104.7 179.3L104.7 179.3L104.7 179.3L104.7 179.3L104.7 179.3ZM171.7 173.3C174.6 173.3 177 174.7 179.1 178.1C181.3 181.2 182.9 185.5 183.7 190.8C183.9 191.3 183.9 191.5 183.9 191.8L184.1 191.8C184.1 191.6 184.3 191.3 184.3 190.8C184.8 187.7 186 182.9 187.7 176.6C189.6 172.3 191.5 170.1 193.7 170.1C194.9 170.1 196.1 170.8 197.1 172.3C198.1 173.7 198.5 174.7 198.5 175.7C198.5 176.2 198.5 177.1 198 178.1C197.5 179.5 197 180.3 196.6 180.3C196.4 180.3 195.9 179.6 194.9 178.6C194.2 177.6 193.2 177.2 192.3 177.2C190.4 177.2 188.7 181.8 187 190.9C186.3 195 185.3 197.9 184.6 199.5C183.9 200.5 183.4 201.2 182.9 201.2C182.4 201.2 182.4 200.5 182.2 199.5C182.4 197.8 181.5 194.7 179.6 190.1C177.7 185.3 176.5 183.1 175.5 183.1C175 183.1 174.8 183.1 174.5 183.6C174.3 183.8 174 184.1 173.3 184.1C172.3 184.1 171.4 183.4 169.9 182.2C168.5 181 168 180 168 179.3C168 179.1 168.5 177.9 169.7 175.9C170.7 174 171.4 173.3 171.7 173.3L171.7 173.3L171.7 173.3L171.7 173.3L171.7 173.3ZM582.5 113.3C583.7 112.3 584.7 111.9 585.4 111.9C585.9 111.9 586.1 112.4 586.1 113.3C586.1 114 585.9 115.5 585.4 117.4C584.9 119.3 584.7 120.8 584.7 122C584.7 127.3 588.5 130.2 596 130.2C602 130.2 607 127.6 610.9 122.5C613.3 118.4 615.9 114.6 618.3 110.7C619.3 109.7 620 109.3 620.7 109.3C621.7 109.3 621.9 110.3 621.4 112.4C620.4 116.5 619.7 118.4 619.7 117.9C619.7 119.6 620.7 121.3 622.6 122.7C624.3 124.1 626.7 125.1 629.3 125.1C632.7 125.1 634.8 124.1 635.8 122.5C635.8 122.3 634.8 120.3 632.7 116.7C632.9 114.8 633.9 111.4 635.3 106.9C635.5 105.5 636 104.7 636.5 104.7C637 104.7 637.5 104.9 638.2 105.9C640.1 108.8 641.3 112.1 641.3 116C641.3 122 639.9 127 637.2 131.4C634.3 136.7 630 139.3 624.2 139.3C620.4 139.3 616.8 136.2 613.6 130.4C608.3 140 601.4 144.8 593 144.8C582.9 144.8 578.1 139 578.1 128C574.3 132.6 567.8 136.6 559.4 140.5L559.4 127.3C565.6 124.2 569.7 122.3 570.9 121.5C574.9 119.6 578.7 116.7 582.5 113.3L582.5 113.3L582.5 113.3L582.5 113.3L582.5 113.3ZM545.8 129.2C542.2 124.6 539.1 122.5 536.2 122.5C531.9 122.5 530 123.5 530 125.9C530 128.8 532.9 130.2 538.6 130.2C540.8 130.1 543.2 129.6 545.8 129.2L545.8 129.2L545.8 129.2L545.8 129.2L545.8 129.2ZM553.3 146.7C553.3 145.3 552.8 143.6 552.3 141.9C549.4 142.9 545.1 143.6 539.8 143.6C528.3 143.6 522.5 139.5 522.5 131.6C522.5 125.6 524.2 120.3 528 115.5C531.6 111.4 535.4 109.3 539.5 109.3C542.6 109.3 545.7 111.2 549.3 114.8C552.4 118.4 555.3 122.5 557.7 127.5C557.9 127.5 558.4 127.5 559.4 127L559.4 140.2L558.9 140.7C558.9 143.6 558.2 146.9 556.7 151.3C555 156.8 552.4 161.4 549.3 165C542.1 173.6 534.2 181.1 525.5 187.6C512.5 197.2 501.5 202.2 491.9 202.2C483.7 202.2 477.5 199.1 473.2 193.1C469.4 188.1 467.4 181.3 467.4 173.4C467.4 163.3 469.6 153 473.6 142.2C474.8 139.8 475.3 138.8 475.8 138.8C476 138.8 476 139 476 139.5C476 140.2 475.8 141.4 475.5 142.9C472.4 153.5 470.9 161.4 470.9 166.9C470.9 171.9 472.1 176.3 474.5 179.9C478.3 184.9 484.3 187.6 492.7 187.6C499.9 187.6 508.5 184.5 518.9 178.2C527.1 173.2 535 167.2 542.7 160C549.7 153.2 553.3 148.8 553.3 146.7L553.3 146.7L553.3 146.7L553.3 146.7L553.3 146.7ZM487.7 110.4C487.2 108.2 486.5 106.6 485.5 105.4C484.8 104 484.3 103.2 484.1 102.8C484.1 102.3 484.1 100.6 484.6 97.3C485.1 94.2 485.3 92 485.8 90.8C486 89.6 486.3 89.1 486.8 89.1C487 89.1 487.3 89.3 487.8 89.8C491.2 93.6 494.8 97.5 498.8 101.6C500.5 103.3 501.2 104.2 501.2 104.7C501.2 104.9 501 105.2 500.5 105.2C499.8 105.2 497.9 104.7 495 104C496.7 108.1 498.6 112.2 500.3 116C502.9 122.7 504.4 128.2 504.4 133.3C504.4 135.7 503.9 138.6 503 142.2C501.8 146.3 500.4 149.4 498.4 151.6C491.4 159.5 479.7 168.2 463.1 177.5C448.7 185.9 440.3 190 437.7 190C437.2 190 430 191.7 416.3 195C401.9 198.4 392.8 200.5 389.2 201C385.4 201.7 383 202 382 202C381.5 202 381.5 202 381.5 201.8C381.5 201.6 384.1 200.1 389.4 197.7C391.3 196.7 402.4 191.9 422.8 183.3C437 177.3 448.7 171.8 458.1 166.7C472.3 159 483.1 152.3 490.5 146.8C496 142.5 498.9 139.4 498.9 137.4C498.9 136.9 497.5 133.6 494.6 127.3C491.3 120.3 488.9 114.5 487.7 110.4L487.7 110.4L487.7 110.4L487.7 110.4L487.7 110.4ZM468.1 77.1C468.1 80.9 466.2 86.2 462.3 92.7C459.9 96.8 456.3 102.3 451.5 109.5C456.3 115 459.7 120.1 461.3 124.4C462.3 127.5 463 131.6 463 136.2C463 138.1 462.5 140.5 461.6 143.6C460.9 146.5 459.9 148.6 459 150.1C457.1 153 454 155.9 449.2 158.7C444.2 162.1 439.8 163.7 436.2 163.7C430.4 163.7 427.6 159.4 427.6 150.7C427.6 144.9 428.6 139.2 430.5 133.9C432.4 129.3 435.5 123.3 440.6 115.4C436.3 111.3 431.7 105.6 426.7 98.4C426.2 97.7 425 96.5 423.1 94.6C422.1 93.6 421.7 92.4 421.7 91C421.7 88.8 421.9 86.4 422.4 83.6C423.1 80.7 423.6 79.5 423.8 79.5C424.5 79.5 426.7 80.7 430.8 83.3C434.6 85.9 437.8 87.9 439.7 89.5C440.9 90.2 441.4 90.9 441.4 90.9L441.4 91.1C441.4 91.3 440.7 91.6 439 91.6C435.9 91.6 434.2 91.8 434.2 92.1C434.2 92.3 434.7 92.8 435.6 94C439.4 98.8 443.3 102.4 447.4 105.3C448.4 103.9 451.7 99.1 457 90.9C461.6 83.9 464.2 79.1 465.4 76.3C466.6 73.4 467.3 72.2 467.8 72.2C467.8 72.3 468.1 73.7 468.1 77.1L468.1 77.1L468.1 77.1L468.1 77.1L468.1 77.1ZM458.7 136.1C456.1 130.8 451.5 125.3 445.3 120C443.1 122.2 440.5 126.2 437.1 132C433.3 138.5 431.6 142.6 431.6 144.7C431.6 147.6 433.5 149 437.8 149C439.7 149 442.1 148.3 445.2 147.1C449.5 145.2 453.6 142.5 457 139.2C458.5 137.8 458.9 136.8 458.7 136.1L458.7 136.1L458.7 136.1L458.7 136.1L458.7 136.1ZM445.3 59.1L449.1 51.2C449.3 50.7 449.6 50.5 450.1 50.5C450.6 50.5 452.5 51.7 456.3 54.3C459.9 56.7 461.8 58.1 461.8 58.6C461.8 60.3 460.1 63.9 457 69.2C456.5 69.9 456 69.9 455.6 69.7C452.5 67.3 448.9 64.9 444.8 62.3C443.4 65.2 442.2 67.8 440.7 70C440.5 70.7001 440 71 439.5 70.7001C435.9 67.8001 432.1 65.2001 428.2 62.8001C428 62.6001 428 62.3001 428.2 61.8001L432.8 52.2001C433 51.7001 433.5 51.2001 433.8 51.2001C434.3 51.2001 436 52.4001 439.1 54.6001C442.1 56.4 444.3 58.1 445.3 59.1L445.3 59.1L445.3 59.1L445.3 59.1L445.3 59.1ZM571.7 192.8C569.1 193.5 567.6 194 567.1 194L567.1 193.8C567.1 193.8 568.1 193.1 570 191.9C571.9 190.7 574.8 188.8 578.9 185.7C580.8 183.8 583.7 180.7 587.3 176.3C589.7 173.4 592.3 170.8 595.2 168.9C598.8 166.3 602.2 165.1 605.8 165.1C606.5 165.1 607.7 165.3 609.2 165.8C610.4 166.3 611.6 166.5 612.6 166.5C614.5 166.5 616 165.8 617.2 164.3C617.9 162.9 618.9 161.7 619.8 160.2C620.3 159.2 621 158.8 621.5 158.8C621.7 158.8 621.7 159 621.7 159.5C621.7 160 621.5 161.2 621 162.6C620.5 163.3 622.4 163.6 626 163.6C626.5 163.6 626.7 163.6 626.7 163.4C626.7 163.4 626.5 162.4 626 160.8C625.8 160.3 626 159.6 626.7 158.6C627.7 156.9 628.1 156.2 628.4 156.4C629.4 157.1 629.8 158.6 629.8 160.2C629.8 161.9 629.3 163.6 628.6 165.5C627.9 167.7 627.2 168.9 626.7 169.3C625 170.3 622.4 170 618.8 168.3C615.9 171.2 613 172.9 610.2 172.9C609.5 172.9 608.3 172.7 607.1 172.2C605.9 171.7 604.9 171.5 604.2 171.5C599.4 171.5 594.4 173.7 589.3 178.5C585.7 182.1 582.1 185.7 578.5 189.3C576.3 190.8 574.1 192 571.7 192.8L571.7 192.8L571.7 192.8L571.7 192.8L571.7 192.8ZM520.1 63.2C523 63.2 525.4 64.6 527.5 68C529.7 71.1 531.3 75.4 532.1 80.7C532.3 81.2 532.3 81.4 532.3 81.7L532.5 81.7C532.5 81.5 532.7 81.2 532.7 80.7C533.2 77.6 534.4 72.8 536.1 66.5C538 62.2 539.9 60 542.1 60C543.3 60 544.5 60.7 545.5 62.2C546.5 63.6 546.9 64.6 546.9 65.6C546.9 66.1 546.9 67 546.4 68C545.9 69.4 545.4 70.2 545 70.2C544.8 70.2 544.3 69.5 543.3 68.5C542.6 67.5 541.6 67.1 540.7 67.1C538.8 67.1 537.1 71.7 535.4 80.8C534.7 84.9 533.7 87.8 533 89.4C532.3 90.4 531.8 91.1001 531.3 91.1001C530.8 91.1001 530.8 90.4 530.6 89.4C530.8 87.7 529.9 84.6001 528 80C526.1 75.2001 524.9 73 523.9 73C523.4 73 523.2 73 522.9 73.5C522.7 73.7001 522.4 74 521.7 74C520.7 74 519.8 73.3 518.3 72.1001C516.9 70.9 516.4 69.9 516.4 69.2001C516.4 69 516.9 67.8001 518.1 65.8001C519.2 63.9 519.9 63.2 520.1 63.2L520.1 63.2L520.1 63.2L520.1 63.2L520.1 63.2ZM479.6 60.3C503.8 51.2 529 42.1 555 32.5C555.7 32.3 556.2 32 556.2 32.3C556.4 32.3 556.4 32.8 556.2 33.5C555.2 35.7 554.5 36.9 554 37.3C553.8 37.5 541.5 42.1 517.8 51C493.6 59.9 479.9 65.4 477.2 67.1C477.7 64.8 478.4 62.7 479.6 60.3L479.6 60.3L479.6 60.3L479.6 60.3L479.6 60.3ZM456.1 16.4C456.6 15 456.6 13.5 456.3 12.1C456.1 10.7 455.3 9.90001 454.1 9.90001C453.6 9.90001 452.9 10.1 451.9 10.6C450.9 11.1 450.5 11.6 450.5 12C450.5 13.2 452.5 14.7 456.1 16.4L456.1 16.4L456.1 16.4L456.1 16.4L456.1 16.4ZM453.2 22.6C448.6 20.2 446.5 17.8 446.5 15.2C446.5 12.1 447.9 9.20003 450.8 6.80003C453.7 4.20003 456.1 3.20003 458 3.90004C459.7 4.40004 460.4 6.10004 460.4 8.90004C460.4 11.5 459.9 14.4 458.7 17.8C461.1 19 462.5 20.2 463 21.2C463 22.4 462 24.6 459.9 27.4C459.4 26.4 458 25.2 455.8 24C453.2 27.6 450 30.7 446.2 33.6C441.6 36.7 437.6 39.4 434 40.8C433 41.3 428.7 43 421 45.8C419.8 46.3 418.8 46.5 418.6 46.5C418.4 46.5 418.4 46.3 418.4 46.3C418.4 46.1 418.9 45.3 420.3 44.6C426.1 41 431.8 37.6 437.8 34.3C444.8 30 449.8 26.2 453.2 22.6L453.2 22.6L453.2 22.6L453.2 22.6L453.2 22.6ZM604.9 52.6C605.4 51.2 605.4 49.7 605.1 48.3C604.9 46.9 604.1 46.1 602.9 46.1C602.4 46.1 601.7 46.3 600.7 46.8C599.7 47.3 599.3 47.8 599.3 48.2C599.3 49.5 601.3 50.9 604.9 52.6L604.9 52.6L604.9 52.6L604.9 52.6L604.9 52.6ZM610.1 61.5C607.7 67.3 606.5 71.8 606.5 75.2C606.5 79.3 607.5 81.4 609.6 81.4C610.8 81.4 612.2 79.7 613.9 76.8C614.1 76.6 614.1 76.3 614.4 76.1C614.4 76.1 614.6 76.1 614.6 76.3C614.6 76.3 614.6 76.5 614.6 77C613.2 84.2001 611 87.8 608.1 87.8C605 87.8 603.5 85.2 603.5 79.9C603.5 77.3 604 73.9 605.4 69.6001C606.8 65.3001 607.6 63.1001 607.6 62.9C607.6 62.4 606.6 61.5 604.5 60.3C600.7 65.3 595.4 70.1 588.7 74.2C584.1 76.8 579.6 79.2 574.8 81.2C565.9 84.8 560.6 86.7 559.4 87.4C558.2 87.9 557.5 88.1001 557 88.1001C556.8 88.1001 556.8 87.9 556.8 87.9C556.8 87.4 557.3 86.9 558.7 86C566.4 81.7001 573.8 77.4 581.5 73C591.6 67.2001 598.5 62.4 601.9 58.8C597.3 56.4 595.2 54 595.2 51.4C595.2 48.3 596.6 45.4 599.5 42.8C602.4 40.4 604.8 39.4 606.7 40.2C608.1 40.7 609.1 42.4 609.1 45.2C609.1 47.8 608.6 50.7 607.4 53.8C609.8 55.2 610.8 56.7 610.8 58.1C610.9 58.8 610.6 60 610.1 61.5L610.1 61.5L610.1 61.5L610.1 61.5L610.1 61.5ZM500.9 26.4C500.9 26.2 501.1 25.9 501.1 25.9C501.3 25.7 501.3 25.7 501.3 25.9C501.5 26.1 501.5 26.4 501.3 26.6C500.1 33.8 497.9 37.4 494.8 37.4C491.7 37.4 490.2 34.8 490.2 29.5C490.2 23 491.9 16.1 495.7 9.10002C496.7 7.40002 497.1 6.50002 497.4 6.50002L497.4 6.50002C497.4 6.70001 497.2 7.70001 496.7 9.40001C494.3 16.8 493.1 21.9 493.1 25C493.1 28.8 494.1 31 496.2 31C497.8 31 499.3 29.3 500.9 26.4L500.9 26.4L500.9 26.4L500.9 26.4L500.9 26.4Z" id="Group" fill="#595959" stroke="none" clip-path="url(#clip_1)" />
  </g>
</svg>