<?xml version="1.0" encoding="utf-8"?>
<svg width="520.70013px" height="203.90001px" viewBox="0 0 520.70013 203.90001" version="1.1" xmlns:xlink="http://www.w3.org/1999/xlink" xmlns="http://www.w3.org/2000/svg">
  <defs>
    <path d="M520.7 0L520.7 0L520.7 203.9L0 203.9L0 0L520.7 0Z" id="path_1" />
    <clipPath id="clip_1">
      <use xlink:href="#path_1" clip-rule="evenodd" fill-rule="evenodd" />
    </clipPath>
  </defs>
  <g id="Surah_48_of_114_(modified)">
    <path d="M520.7 0L520.7 0L520.7 203.9L0 203.9L0 0L520.7 0Z" id="Surah_48_of_114_(modified)" fill="none" stroke="none" />
    <path d="M123.7 8C121.6 4.59999 119.2 3.2 116.3 3.2C116 3.2 115.3 3.89999 114.3 5.80002C113.1 7.80002 112.6 9.00002 112.6 9.20001C112.6 9.90001 113.1 10.9 114.5 12.1C116 13.3 116.9 14 117.9 14C118.6 14 118.9 13.7 119.1 13.5C119.4 13 119.6 13 120.1 13C121.1 13 122.3 15.2 124.2 20C126.1 24.6 127 27.7 126.8 29.4C127 30.4 127 31.1 127.5 31.1C128 31.1 128.5 30.4 129.2 29.4C129.9 27.8 130.9 24.9 131.6 20.8C133.3 11.7 135 7.09999 136.9 7.09999C137.8 7.09999 138.8 7.49999 139.5 8.49998C140.5 9.49998 141 10.2 141.2 10.2C141.6 10.2 142.1 9.39998 142.6 7.99999C143.1 6.99998 143.1 6.09999 143.1 5.59999C143.1 4.59999 142.7 3.59999 141.7 2.2C140.7 0.699997 139.5 0 138.3 0C136.1 0 134.2 2.2 132.3 6.5C130.6 12.8 129.4 17.6 128.9 20.7C128.9 21.2 128.7 21.5 128.7 21.7L128.5 21.7C128.5 21.4 128.5 21.2 128.3 20.7C127.5 15.4 125.9 11.1 123.7 8ZM190.9 20.7C190.9 20.5 191.1 20.2 191.1 20.2C191.209 20.0906 191.259 20.0411 191.281 20.0513C191.3 20.0598 191.3 20.1093 191.3 20.2C191.5 20.4 191.5 20.7 191.3 20.9C190.1 28.1 187.9 31.7 184.8 31.7C181.7 31.7 180.2 29.1 180.2 23.8C180.2 17.3 181.9 10.4 185.7 3.40001C186.7 1.70001 187.1 0.800003 187.4 0.800003C187.4 1 187.2 2 186.7 3.7C184.3 11.1 183.1 16.2 183.1 19.3C183.1 23.1 184.1 25.3 186.2 25.3C187.8 25.3 189.2 23.6 190.9 20.7ZM224.3 2C223.6 2 222.6 2.5 221.9 3.7C218.5 10.2 216.1 17.1 215 24.9C214.8 25.8 214.8 26.8 214.8 27.5C214.8 31.3 216.2 33.5 219.6 33.5C223 33.5 225.6 31.8 228 28.9C228.7 27.9 229.2 25.3 229.7 21.2C229.9 17.6 227.5 13.8 222.5 10.2C223.2 7.8 224.1 5.39999 225.1 3.2C225.1 2.89999 225.3 2.7 225.3 2.7C225.3 2.2 224.8 2 224.3 2ZM325.8 14.5C325.8 17.1 327.9 19.5 332.5 21.9C329.1 25.5 324.1 29.4 317.1 33.6C311.1 36.9 305.4 40.3 299.6 43.9C298.2 44.6 297.7 45.4 297.7 45.6C297.7 45.6 297.7 45.8 297.9 45.8C298.1 45.8 299.1 45.6 300.3 45.1C308 42.3 312.3 40.6 313.3 40.1C316.9 38.7 320.9 36 325.5 32.9C329.3 30 332.5 26.9 335.1 23.3C337.3 24.5 338.7 25.7 339.2 26.7C341.3 23.9 342.3 21.7 342.3 20.5C341.8 19.5 340.4 18.3 338 17.1C339.2 13.7 339.7 10.8 339.7 8.20001C339.7 5.40001 339 3.70001 337.3 3.20001C335.4 2.5 333 3.5 330.1 6.10001C327.2 8.5 325.8 11.4 325.8 14.5ZM267.9 117.9C267.9 132.1 265.3 143.1 260.2 151.3C255.9 158 250.8 161.6 245.1 161.6L245.1 147C249.7 147 254.2 145.1 258.5 141.5C259.7 140.5 260.4 136.5 260.4 129.7C260.4 125.6 259.2 109.1 257 80.3C254.8 51.5 253.9 34.5 253.9 29.2C253.9 24.6 253.2 20.8 251.7 17.7C251.7 16 253.1 11.9 255.8 5.5C256 4.8 256.3 4.5 256.8 4.5C257 4.5 257.3 4.7 257.8 5.7C258.5 7.39999 260.4 11.9 263.3 19.4C266.2 27.3 267.9 32.1 268.6 33.8C268.8 35.2 269.1 36.4 269.1 36.9C269.1 39.1 266.9 37.9 262.9 33.1C262.4 32.6 262.2 32.9 262.2 34.1C262.2 34.3 263.2 47.3 265.1 72.7C267 97.8 267.9 112.9 267.9 117.9ZM274.9 30.1C274.9 25.3 274.2 21.5 272.7 18.3C272.7 16.6 273.9 12.5 276.8 6.29999C277 5.59999 277.3 5.09999 277.5 5.09999C278 5.09999 278.2 5.59999 278.7 6.29999C279.4 7.99998 281.1 12.5 284 20C287.1 27.9 288.8 32.7 289.3 34.6C289.8 35.8 289.8 37 289.8 37.5C289.8 39.7 287.9 38.5 283.6 33.7C283.1 33 282.9 33.5 282.9 34.7C282.9 35.2 284.1 50.1 286.3 79.8C288.5 109.3 289.4 125.9 289.4 129.7C289.4 141 287.7 151.1 284.4 159.7C283.4 161.4 283 162.6 282.5 163.5C281.8 164.7 281.5 164.7 281.3 164C281.129 163.146 281.25 161.635 281.414 159.593C281.442 159.244 281.471 158.879 281.5 158.5C282 154.4 282.2 149.9 282.2 144.8C282.2 140 281 120.8 278.6 86.9999C276.1 53.1 274.9 34.2 274.9 30.1ZM380.5 25.3C380.5 25.3 380.3 25.6 380.3 25.8C378.6 28.7 377.1 30.3 375.6 30.4C373.5 30.4 372.5 28.2 372.5 24.4C372.5 21.3 373.7 16.2 376.1 8.8C376.6 7.10001 376.8 6.10001 376.8 5.90001C376.5 5.90001 376.1 6.80002 375.1 8.50002C371.3 15.5 369.6 22.4 369.6 28.9C369.6 34.2 371.1 36.8 374.2 36.8C377.3 36.8 379.5 33.2 380.7 26C380.9 25.8 380.9 25.5 380.7 25.3C380.7 25.2093 380.7 25.1598 380.681 25.1513C380.659 25.1411 380.609 25.1907 380.5 25.3ZM93 13.3C93 15.9 91.8 18.8 89.9 21.9C87.7 25 85.1 27.9 81.7 30.3C80.3 31.3 79.5 31.7 79.3 31.7L79.3 31.5C79.3 31.3 79.8 30.8 80.7 29.6C86.2 23.6 89.1 19.8 89.1 17.6C89.1 15.9 88.1 15 86.5 15C85.5 15 84.6 15.2 83.9 15.7C83.2 15.9 82.9 16.2 82.7 16.2C82.7 16.2 82.5 16.2 82.5 16C82.5 16 82.5 15.5 82.7 14.6C83.7 10.5 85.6 8.60001 88.9 8.60001C91.5 8.5 93 10.2 93 13.3ZM335.6 11.4C335.9 12.8 335.9 14.3 335.4 15.7C331.8 14 329.9 12.6 329.8 11.3C329.8 10.9 330.2 10.4 331.2 9.89999C332.2 9.39999 332.9 9.2 333.4 9.2C334.6 9.2 335.4 10 335.6 11.4ZM219.7 16.7C224.7 19.5 227.1 21.7 227.1 22.9C226.7 23.9 225.5 24.8 223.8 25.6C222.1 26.5 220.7 27 219.5 27C218 27 217.3 26 217.3 24.6C217.3 22.2 218 19.6 219.7 16.7ZM158 23.8C157.3 23.8 156.3 24.3 155.6 25.5C152.3 32 149.9 39 148.7 46.7C148.5 47.6 148.5 48.6 148.5 49.3C148.5 53.1 149.9 55.3 153.3 55.3C156.7 55.3 159.3 53.6 161.7 50.7C162.4 49.7 162.9 47.1 163.4 43C163.6 39.4 161.2 35.6 156.2 32C156.9 29.6 157.8 27.2 158.8 25C158.8 24.7 159 24.5 159 24.5C159 24 158.5 23.8 158 23.8ZM358.9 59.6C383.1 50.5 408.3 41.4 434.3 31.8C434.502 31.7422 434.688 31.6761 434.849 31.6186C435.247 31.4767 435.5 31.3866 435.5 31.6C435.7 31.6 435.7 32.1 435.5 32.8C434.5 35 433.8 36.2 433.3 36.6C433.1 36.8 420.8 41.4 397.1 50.3C372.9 59.2 359.2 64.7 356.5 66.4C357 64.2 357.7 62 358.9 59.6ZM117.7 85.1C158.3 69.7 199.5 54.4 241.8 38.5C242.002 38.4422 242.188 38.3761 242.349 38.3186C242.747 38.1768 243 38.0866 243 38.3C243.2 38.3 243.2 38.8 243 39.5C242 41.7 241.3 42.9 240.8 43.3C202.2 57.7 160.2 73.8 115.3 91.8C115.8 89.6 116.5 87.5 117.7 85.1ZM153.5 38.5C158.5 41.3 160.9 43.5 160.9 44.7C160.4 45.7 159.2 46.7 157.6 47.4C155.9 48.3 154.5 48.8 153.3 48.8C151.8 48.8 151.1 47.8 151.1 46.4C151.1 44 151.8 41.4 153.5 38.5ZM489.5 60.8C487.1 66.6 485.9 71.1 485.9 74.5C485.9 78.6 486.9 80.7 489 80.7C490.2 80.7 491.6 79 493.3 76.1C493.5 75.9 493.5 75.6 493.8 75.4C493.8 75.4 494 75.4 494 75.6L494 76.3C492.6 83.5 490.4 87.1 487.5 87.1C484.4 87.1 482.9 84.5 482.9 79.2C482.9 76.6 483.4 73.2 484.8 68.9C486.2 64.6001 487 62.4 487 62.2C487 61.7 486 60.8 483.9 59.6C480.1 64.6 474.8 69.4 468.1 73.5C463.5 76.1 459 78.5 454.2 80.5C445.3 84.1 440 86 438.8 86.7C437.6 87.2 436.9 87.4 436.4 87.4C436.2 87.4 436.2 87.2 436.2 87.2C436.2 86.7 436.7 86.2 438.1 85.3C445.8 81 453.2 76.7 460.9 72.3C471 66.5 477.9 61.7 481.3 58.1C476.7 55.7 474.6 53.3 474.6 50.7C474.6 47.6 476 44.7 478.9 42.1C481.8 39.7 484.2 38.7 486.1 39.5C487.5 40 488.5 41.7 488.5 44.5C488.5 47.1 488 50 486.8 53.1C489.2 54.5 490.2 56 490.2 57.4C490.2 58.2 489.9 59.4 489.5 60.8ZM126.8 60.3C104.2 69.9 85.8 79 71.4 87.4C71.4 92.9 70.9 95.6 69.7 95.6C69 95.6 67.5 94.2 65.9 90.8C62.5 93.7 59.4 96.8 56.3 100.2C64.9 101.4 79.3 102.4 99.5 103.1C113.9 103.6 123.3 104.8 127.3 106.5C131.4 108.4 134.7 111.1 137.1 115.1C140 119.7 141.4 124.7 141.4 130.7C141.4 133.194 141.234 135.652 140.9 138.073C140.999 138.546 141.093 139.154 141.2 139.9L141.2 143.7C141.7 147.1 142.6 149.5 144.6 150.9C146.3 152.5 149.4 153.2 153.7 153.2C160.7 153.2 166.9 151.3 172.4 147.4C174.6 146 179.4 141.4 187 133.7C187.7 133 188.7 132.5 189.6 132.5C190.6 132.5 190.8 133 190.8 133.9C190.8 134.4 190.8 135.1 190.6 136.1C190.4 137.1 190.4 137.8 190.4 138.3C190.4 141.2 190.9 143.6 192.3 145.5C193.7 147.9 196.1 149.3 199.3 149.3L199.3 149.5C202.9 149.5 206.3 148.5 209.6 147.1C207.9 144.2 207.2 140.4 207.2 135.6C207.2 128.9 209.8 121.9 214.9 115.2C219.7 109 223.5 105.6 226.9 105.6C230 105.6 232.7 108 234.3 112.6C235.5 116.2 236.2 120 236.2 123.9C236.2 133.3 234 140.7 230 146C232.6 146.7 237.7 147 244.9 147L244.9 161.4C232.4 161.4 223.3 159.7 217.8 156.4C210.8 161.4 204.6 164.1 199.3 164.1L199.3 164C190.7 164 186.1 159 185.6 148.9C185.6 148.4 185.4 148.2 184.9 147.9C184.2 148.1 183.5 148.4 182.7 149.3C177.7 155.1 174.5 158.4 173.1 159.6C166.9 165.1 160.4 167.8 153.7 167.8C145.8 167.8 140.7 164.7 138.3 158.4C137.443 156.515 137.174 154.336 137.114 151.612C133.832 159.225 128.648 166.426 121.5 173.2C108.5 185.4 94.1 191.7 78.3 191.7C49.7 191.7 35.6 176.1 35.6 144.4C35.6 130 39.2 116.1 46.6 102.6C44.2 101.2 43 100.2 43 99.5C43 99 43.7 98.8 44.9 98.8C45.9 98.8 47.1 99 48.7 99.3C50.9 95.7 54.5 91.1 60 85.4C56.6 82.3 51.8 78.2 45.4 73.2C40.6 69.8 37.5 66.7 35.8 63.8C34.8 62.1 34.4 60 34.4 57.6C34.4 53.3 36.1 49.4 39.4 46.3C43.5 42.5 49.2 40.5 56.9 40.5C65.5 40.5 79.5 41.2 98.7 42.9C116 44.1 126.5 45.3 130.6 45.8C132.3 46 132.8 47 132.5 48.2L129.4 57.6C129 58.9 128 59.9 126.8 60.3ZM484.2 51.9C484.7 50.5 484.7 49 484.4 47.6C484.2 46.2 483.4 45.4 482.2 45.4C481.7 45.4 481 45.6 480 46.1C479 46.6 478.6 47.1 478.6 47.5C478.7 48.8 480.6 50.3 484.2 51.9ZM328.4 50.5L324.6 58.4C323.6 57.5 321.5 55.8 318.4 53.9C315.3 51.7001 313.6 50.5 313.1 50.5C312.8 50.5 312.3 51 312.1 51.5L307.5 61.1001C307.3 61.6001 307.3 61.9 307.5 62.1001C311.4 64.5 315.2 67.1001 318.8 70C319.3 70.3 319.8 70 320 69.3C321.5 67.1 322.7 64.5 324.1 61.6C328.2 64.2 331.8 66.6 334.9 69C335.3 69.2 335.8 69.2 336.3 68.5C339.4 63.2 341.1 59.6 341.1 57.9C341.1 57.4 339.2 56 335.6 53.6C331.8 51 329.9 49.8 329.4 49.8C328.9 49.8 328.6 50 328.4 50.5ZM105.5 58.4C106.7 57.9 107.4 57.7 107.4 57.4C107.4 57.2 106.4 56.9 104.3 56.7C91.1 54.8 76 53.8 58.9 53.8C50.3 53.8 45 54.3 42.6 55C41.6 55.2 41.2 55.5 41.2 55.7C41.2 55.9 41.9 56.7 43.4 57.9C47.2 61 51.3 64.1001 55.4 67.3C62.4 73.1 66.9 76.9 68.4 78.8C81.2 69.9 93.5 63.2 105.5 58.4ZM407.1 67.3C405 63.9 402.6 62.5 399.7 62.5C399.5 62.5 398.7 63.2 397.7 65.1C396.5 67.1 396 68.3 396 68.5C396 69.2 396.5 70.2 397.9 71.4C399.4 72.6 400.3 73.3 401.3 73.3C402 73.3 402.3 73 402.5 72.8C402.8 72.3 403 72.3 403.5 72.3C404.5 72.3 405.7 74.5 407.6 79.3C409.5 83.9 410.4 87 410.2 88.7C410.4 89.7 410.4 90.4 410.9 90.4C411.4 90.4 411.9 89.7 412.6 88.7C413.3 87.1 414.3 84.2 415 80.1C416.7 71 418.4 66.4 420.3 66.4C421.2 66.4 422.2 66.8 422.9 67.8C423.9 68.8 424.4 69.5 424.6 69.5C425 69.5 425.5 68.7 426 67.3C426.5 66.3 426.5 65.4 426.5 64.9C426.5 63.9 426.1 62.9 425.1 61.5C424.1 60 422.9 59.3 421.7 59.3C419.5 59.3 417.6 61.5 415.7 65.8C414 72.1 412.8 76.9 412.3 80C412.3 80.5 412.1 80.8 412.1 81L411.9 81C411.9 80.7 411.9 80.5 411.7 80C410.9 74.7 409.3 70.4 407.1 67.3ZM347.4 76.4C347.4 80.2 345.5 85.5 341.6 92C339.2 96.1 335.6 101.6 330.8 108.8C335.6 114.3 339 119.4 340.6 123.7C341.6 126.8 342.3 130.9 342.3 135.5C342.3 137.4 341.8 139.8 340.9 142.9C340.2 145.8 339.2 147.9 338.3 149.4C336.4 152.3 333.3 155.2 328.5 158C323.5 161.4 319.1 163 315.5 163C309.7 163 306.9 158.7 306.9 150C306.9 144.2 307.9 138.5 309.8 133.2C311.7 128.6 314.8 122.6 319.9 114.7C315.6 110.6 311 104.9 306 97.7C305.5 97 304.3 95.8 302.4 93.9C301.4 92.9 301 91.7 301 90.3C301 88.1 301.2 85.7 301.7 82.9C302.4 80 302.9 78.8 303.1 78.8C303.8 78.8 306 80 310.1 82.6C313.9 85.2 317.1 87.2 319 88.8C320.2 89.5 320.7 90.2 320.7 90.2L320.7 90.4C320.7 90.6 320 90.9 318.3 90.9C315.2 90.9 313.5 91.1 313.5 91.4C313.5 91.6 314 92.1 314.9 93.3C318.7 98.1 322.6 101.7 326.7 104.6C327.7 103.2 331 98.4 336.3 90.2C340.9 83.2 343.5 78.4 344.7 75.6C345.9 72.7 346.6 71.5 347.1 71.5C347.1 71.5148 347.107 71.5605 347.118 71.6383C347.182 72.0848 347.4 73.5897 347.4 76.4ZM213.7 81.9C213.5 82.4 213.5 82.7 213.7 82.9C217.5 85.3 221.4 87.9 225.1 90.8C225.59 91.0942 225.792 90.8114 226.271 90.1403L226.3 90.1C229.6 84.8 231.3 81.5 231.3 79.8C231.3 79.3 229.3 77.8 225.5 75.2C221.9 72.8 219.8 71.6 219.3 71.6C219 71.6 218.5 71.8 218.3 72.3L213.7 81.9ZM27 107.9C22.2 112.2 15.7 114.6 8 114.6C5.8 114.6 3.7 113.9 2.2 112.7C0.800003 111.5 0 109.8 0 107.9C0 104.5 1.2 101.2 4.10001 97.8C7 94.7 9.90001 91.8 12.5 88.7C13.2 88.2 13 87.7 12 87.3C10.1 86.6 7.7 86.3 5.3 86.3C4.10001 86.3 2.7 86.5 1 87.5C0.936676 87.5 0.863327 87.5201 0.7863 87.5412C0.620053 87.5866 0.436676 87.6367 0.300003 87.5C0.300003 87.5 0.300003 87.3 0.5 86.8C1.5 84.4 2.39999 82.7 3.39999 82C4.59999 81 6.5 80.6001 9.2 80.6001C15 80.6001 17.6 81.8001 17.6 84.7001C17.6 86.9001 15.9 89.7001 12.3 93.8001L4.39999 101.7C3.39999 103.1 3 104.6 3 105.5C3 107.9 5.60001 109.1 10.7 109.1C15.7 109.1 20.8 108.1 26.5 106.5C27.9 106 28.7 106 28.7 106.3C28.7 106.263 28.6299 106.337 28.4791 106.498C28.2273 106.766 27.7506 107.275 27 107.9ZM364.9 104.8C365.9 106 366.6 107.6 367.1 109.8C368.3 113.9 370.7 119.6 374 126.7C376.9 133 378.3 136.3 378.3 136.8C378.3 138.8 375.4 141.9 369.9 146.2C365.037 149.814 358.707 153.946 350.908 158.54C351.635 154.037 352.925 148.613 354.8 142.2C355.1 140.7 355.3 139.5 355.3 138.8C355.3 138.3 355.3 138.1 355.1 138.1C354.6 138.1 354.1 139.1 352.9 141.5C350.511 147.951 348.764 154.224 347.744 160.382C344.552 162.22 341.138 164.127 337.5 166.1C328.1 171.2 316.4 176.7 302.2 182.7C281.8 191.3 270.7 196.1 268.8 197.1C263.5 199.5 260.9 201 260.9 201.2C260.9 201.4 260.9 201.4 261.4 201.4C262.4 201.4 264.8 201.1 268.6 200.4C272.2 199.9 281.3 197.8 295.7 194.4C309.4 191.1 316.6 189.4 317.1 189.4C319.7 189.4 328.1 185.3 342.5 176.9C343.949 176.088 345.36 175.281 346.734 174.479C347.014 181.622 348.988 187.779 352.5 192.4C356.8 198.4 363 201.5 371.2 201.5C380.8 201.5 391.8 196.5 404.8 186.9C413.5 180.4 421.4 172.9 428.6 164.3C431.7 160.7 434.3 156.1 436 150.6C437.5 146.2 438.2 142.9 438.2 140L438.7 139.5L438.7 126.3C437.7 126.8 437.2 126.8 437 126.8C434.6 121.8 431.7 117.7 428.6 114.1C425 110.5 421.9 108.6 418.8 108.6C414.7 108.6 410.9 110.7 407.3 114.8C403.5 119.6 401.8 124.9 401.8 130.9C401.8 138.8 407.6 142.9 419.1 142.9C424.4 142.9 428.7 142.2 431.6 141.2C432.1 142.9 432.6 144.6 432.6 146C432.6 148.2 429 152.5 422 159.3C414.3 166.5 406.4 172.5 398.2 177.5C387.8 183.8 379.2 186.9 372 186.9C363.6 186.9 357.6 184.2 353.8 179.2C352.387 177.08 351.389 174.682 350.808 172.048C363.072 164.563 372.032 157.51 377.8 151C379.8 148.8 381.2 145.7 382.4 141.6C383.3 138 383.8 135.1 383.8 132.7C383.8 127.6 382.3 122.1 379.7 115.4C378 111.6 376.1 107.5 374.4 103.4C377.3 104.1 379.2 104.6 379.9 104.6C380.4 104.6 380.6 104.3 380.6 104.1C380.6 103.6 379.9 102.7 378.2 101C374.2 96.9 370.6 93 367.2 89.2C366.7 88.7 366.4 88.5 366.2 88.5C365.7 88.5 365.4 89 365.2 90.2C364.7 91.4 364.5 93.6 364 96.7C363.5 100 363.5 101.7 363.5 102.2C363.7 102.6 364.2 103.4 364.9 104.8ZM181.8 107.1L185.6 99.2C185.8 98.7 186.1 98.5 186.6 98.5C187.1 98.5 189 99.7 192.8 102.3C196.4 104.7 198.3 106.1 198.3 106.6C198.3 108.3 196.6 111.9 193.5 117.2C193 117.9 192.5 117.9 192.1 117.7C189 115.3 185.4 112.9 181.3 110.3C179.9 113.2 178.7 115.8 177.2 118C177 118.7 176.5 119 176 118.7C172.4 115.8 168.6 113.2 164.7 110.8C164.5 110.6 164.5 110.3 164.7 109.8L169.3 100.2C169.5 99.7 170 99.2 170.3 99.2C170.8 99.2 172.5 100.4 175.6 102.6C178.7 104.5 180.8 106.2 181.8 107.1ZM464.8 111.3C464.1 111.3 463.1 111.7 461.9 112.7C458 116 454.2 118.9 450.3 120.9C449.1 121.7 445 123.6 438.8 126.7L438.8 139.9C447.2 136 453.7 132 457.5 127.4C457.5 138.4 462.3 144.2 472.4 144.2C480.8 144.2 487.7 139.4 493 129.8C496.2 135.6 499.8 138.7 503.6 138.7C509.4 138.7 513.7 136.1 516.6 130.8C519.3 126.4 520.7 121.4 520.7 115.4C520.7 111.5 519.5 108.2 517.6 105.3C516.9 104.3 516.4 104.1 515.9 104.1C515.4 104.1 514.9 104.9 514.7 106.3C513.3 110.8 512.3 114.2 512.1 116.1C514.2 119.7 515.2 121.7 515.2 121.9C514.2 123.5 512.1 124.5 508.7 124.5C506.1 124.5 503.7 123.5 502 122.1C500.1 120.7 499.1 119 499.1 117.3C499.1 117.8 499.8 115.9 500.8 111.8C501.3 109.7 501.1 108.7 500.1 108.7C499.4 108.7 498.7 109.1 497.7 110.1C495.3 114 492.7 117.8 490.3 121.9C486.4 127 481.4 129.6 475.4 129.6C467.9 129.6 464.1 126.7 464.1 121.4C464.1 120.2 464.3 118.7 464.8 116.8C465.3 114.9 465.5 113.4 465.5 112.7C465.5 111.8 465.3 111.3 464.8 111.3ZM137.6 137.9C137.6 133.8 136.4 130.2 133.5 126.6C130.4 122.8 126.1 119.9 120.8 118.4C116.2 117.2 108.6 116.2 97.8 116C86.5 115.8 78.8 115 74.8 114.1C67.1 112.4 59.7 109.5 52.2 105.5C49.6 109.1 47.2 113.4 45 118.9C42.1 126.6 40.4 134 40.4 141.2C40.4 165 53.8 177 80.5 177C89.6 177 98.7 174.6 107.9 169.8C116.3 165.7 123.5 160.4 129.3 154.2C134.7 147.9 137.6 142.4 137.6 137.9ZM228.5 125.1C230 128.5 230.7 131.4 230.7 133.3C228.8 136.4 225.2 139.3 219.9 141.8C218 141.1 216.1 139.9 214.4 138C212.7 136.3 211.5 134.6 211 133.2C212.2 130.5 214.1 127.7 217.2 124.3C220.4 121 222.8 119.3 224.2 119.3C225.4 119.3 226.8 121.3 228.5 125.1ZM338 135.5C335.4 130.2 330.8 124.7 324.6 119.4C322.4 121.6 319.8 125.6 316.4 131.4C312.6 137.9 310.9 142 310.9 144.1C310.9 147 312.8 148.4 317.1 148.4C319 148.4 321.4 147.7 324.5 146.5C328.8 144.6 332.9 141.9 336.3 138.6C337.8 137.1 338.3 136.2 338 135.5ZM425.1 128.5C421.5 123.9 418.4 121.8 415.5 121.8C411.2 121.8 409.3 122.8 409.3 125.2C409.3 128.1 412.2 129.5 417.9 129.5C419.93 129.5 422.13 129.074 424.5 128.616C424.699 128.577 424.899 128.539 425.1 128.5ZM60.1 150.8C78.6 144.1 97.8 136.9 117.9 129.4C118.078 129.349 118.244 129.292 118.394 129.239C118.835 129.086 119.151 128.976 119.3 129.2C119.3 129.2 119.3 129.7 119.1 130.4C118.1 132.6 117.4 133.8 116.9 134.2C100.1 140.4 80.2 148.1 57.6 157.5C58.2 155.4 58.9 153.2 60.1 150.8ZM451.1 192.3C448.5 193 447 193.5 446.5 193.5L446.5 193.3C446.5 193.3 447.5 192.6 449.4 191.4C451.3 190.2 454.2 188.3 458.3 185.2C460.2 183.3 463.1 180.2 466.7 175.8C469.1 172.9 471.7 170.3 474.6 168.4C478.2 165.8 481.6 164.6 485.2 164.6C485.9 164.6 487.1 164.8 488.6 165.3C489.8 165.8 491 166 492 166C493.9 166 495.4 165.3 496.6 163.8C497.3 162.4 498.3 161.2 499.2 159.7C499.7 158.7 500.4 158.3 500.9 158.3C501.1 158.3 501.1 158.5 501.1 159C501.1 159.5 500.9 160.7 500.4 162.1C499.9 162.8 501.8 163.1 505.4 163.1C505.9 163.1 506.1 163.1 506.1 162.9C506.1 162.9 505.9 161.9 505.4 160.3C505.2 159.8 505.4 159.1 506.1 158.1L506.18 157.964C507.122 156.363 507.508 155.705 507.8 155.9C508.8 156.6 509.2 158.1 509.2 159.7C509.2 161.4 508.7 163.1 508 165C507.3 167.2 506.6 168.4 506.1 168.8C504.4 169.8 501.8 169.5 498.2 167.8C495.3 170.7 492.4 172.4 489.6 172.4C488.9 172.4 487.7 172.2 486.5 171.7C485.3 171.2 484.3 171 483.6 171C478.8 171 473.8 173.2 468.7 178L457.9 188.8C455.6 190.4 453.5 191.6 451.1 192.3ZM211.3 180.8C209.2 177.4 206.8 176 203.9 176C203.6 176 202.9 176.7 201.9 178.6C200.7 180.6 200.2 181.8 200.2 182C200.2 182.7 200.7 183.7 202.1 184.9C203.6 186.1 204.5 186.8 205.5 186.8C206.2 186.8 206.5 186.5 206.7 186.3C207 185.8 207.2 185.8 207.7 185.8C208.7 185.8 209.9 188 211.8 192.8C213.7 197.4 214.6 200.5 214.4 202.2C214.6 203.2 214.6 203.9 215.1 203.9C215.6 203.9 216.1 203.2 216.8 202.2C217.5 200.6 218.5 197.7 219.2 193.6C220.9 184.5 222.6 179.9 224.5 179.9C225.4 179.9 226.4 180.3 227.1 181.3C228.1 182.3 228.6 183 228.8 183C229.2 183 229.7 182.2 230.2 180.8C230.7 179.8 230.7 178.9 230.7 178.4C230.7 177.4 230.3 176.4 229.3 175C228.3 173.5 227.1 172.8 225.9 172.8C223.7 172.8 221.8 175 219.9 179.3C218.2 185.6 217 190.4 216.5 193.5C216.5 194 216.3 194.3 216.3 194.5L216.1 194.5C216.1 194.2 216.1 194 215.9 193.5C215.1 188.2 213.5 183.9 211.3 180.8ZM164.3 191.6C166.2 188.5 167.4 185.6 167.4 183C167.4 179.9 165.9 178.2 163.3 178.3C160 178.3 158.1 180.2 157.1 184.3C156.9 185.2 156.9 185.7 156.9 185.7C156.9 185.9 157.1 185.9 157.1 185.9C157.3 185.9 157.6 185.6 158.3 185.4C159 184.9 159.9 184.7 160.9 184.7C162.5 184.7 163.5 185.6 163.5 187.3C163.5 189.5 160.6 193.3 155.1 199.3C154.2 200.5 153.7 201 153.7 201.2L153.7 201.4C153.9 201.4 154.7 201 156.1 200C159.5 197.6 162.1 194.7 164.3 191.6Z" id="Group" fill="#595959" fill-rule="evenodd" stroke="none" clip-path="url(#clip_1)" />
  </g>
</svg>