<?xml version="1.0" encoding="utf-8"?>
<svg width="451.8001px" height="200.81703px" viewBox="0 0 451.8001 200.81703" version="1.1" xmlns:xlink="http://www.w3.org/1999/xlink" xmlns="http://www.w3.org/2000/svg">
  <defs>
    <path d="M451.8 0L451.8 0L451.8 200.817L0 200.817L0 0L451.8 0Z" id="path_1" />
    <clipPath id="clip_1">
      <use xlink:href="#path_1" clip-rule="evenodd" fill-rule="evenodd" />
    </clipPath>
  </defs>
  <g id="Surah_47_of_114_(modified)">
    <path d="M451.8 0L451.8 0L451.8 200.817L0 200.817L0 0L451.8 0Z" id="Surah_47_of_114_(modified)" fill="none" stroke="none" />
    <path d="M199.6 11.517C199.6 14.117 201.7 16.517 206.3 18.917C202.9 22.517 197.9 26.317 190.9 30.6171C184.9 33.9171 179.2 37.317 173.4 40.9171C172 41.6171 171.5 42.4171 171.5 42.6171C171.5 42.6171 171.5 42.817 171.7 42.817C171.9 42.817 172.9 42.6171 174.1 42.1171C181.8 39.317 186.1 37.6171 187.1 37.1171C190.7 35.7171 194.7 33.0171 199.3 29.9171C203.1 27.017 206.3 23.9171 208.9 20.317C211.1 21.517 212.5 22.717 213 23.717C215.1 20.917 216.1 18.717 216.1 17.517C215.6 16.517 214.2 15.317 211.8 14.1171C213 10.7171 213.5 7.81706 213.5 5.21706C213.5 2.41705 212.8 0.717056 211.1 0.217056C209.2 -0.482956 206.8 0.517044 203.9 3.11705C201 5.51704 199.6 8.41704 199.6 11.517ZM128.7 3.31703C131.6 3.31703 134 4.71703 136.1 8.11703C138.3 11.217 139.9 15.517 140.7 20.817C140.9 21.317 140.9 21.517 140.9 21.817L141.1 21.817C141.1 21.617 141.3 21.317 141.3 20.817C141.8 17.717 143 12.917 144.7 6.61703C146.6 2.31703 148.5 0.117035 150.7 0.117035C151.9 0.117035 153.1 0.817032 154.1 2.31703C155.1 3.71703 155.5 4.71703 155.5 5.71703C155.5 6.21703 155.5 7.11702 155 8.11702C154.5 9.51701 154 10.317 153.6 10.317C153.4 10.317 152.9 9.61702 151.9 8.61702C151.2 7.61702 150.2 7.21703 149.3 7.21703C147.4 7.21703 145.7 11.817 144 20.917C143.3 25.017 142.3 27.917 141.6 29.517C140.9 30.517 140.4 31.217 139.9 31.217C139.4 31.217 139.4 30.517 139.2 29.517C139.4 27.817 138.5 24.717 136.6 20.117C134.7 15.317 133.5 13.117 132.5 13.117C132 13.117 131.8 13.117 131.5 13.617C131.3 13.817 131 14.117 130.3 14.117C129.3 14.117 128.4 13.417 126.9 12.217C125.5 11.017 125 10.017 125 9.31705C125 9.11705 125.5 7.91705 126.7 5.91705C127.8 4.01704 128.5 3.31703 128.7 3.31703ZM256.9 13.217C256.9 15.817 259 18.217 263.6 20.617C260.3 24.217 255.2 28.017 248.2 32.317C242.2 35.6171 236.5 39.017 230.7 42.6171C229.3 43.3171 228.8 44.1171 228.8 44.3171C228.8 44.3171 228.8 44.517 229 44.517C229.2 44.517 230.2 44.3171 231.4 43.817C239.1 41.017 243.4 39.317 244.4 38.817C248 37.4171 252 34.7171 256.6 31.6171C260.4 28.717 263.6 25.6171 266.2 22.017C268.4 23.217 269.8 24.417 270.3 25.417C272.4 22.617 273.4 20.417 273.4 19.217C272.9 18.217 271.5 17.017 269.1 15.817C270.3 12.4171 270.8 9.51706 270.8 6.91705C270.8 4.11705 270.1 2.41705 268.4 1.91705C266.5 1.21704 264.1 2.21704 261.2 4.81705C258.3 7.21704 256.9 10.117 256.9 13.217ZM311.6 24.117C311.6 24.117 311.4 24.417 311.4 24.617C309.7 27.517 308.3 29.217 306.7 29.217C304.6 29.217 303.6 27.017 303.6 23.217C303.6 20.117 304.8 15.017 307.2 7.61703C307.7 5.91704 307.9 4.91704 307.9 4.71704C307.6 4.71704 307.2 5.61705 306.2 7.31705C302.4 14.317 300.7 21.217 300.7 27.717C300.7 33.017 302.2 35.617 305.3 35.617C308.4 35.617 310.6 32.017 311.8 24.817C312 24.617 312 24.317 311.8 24.117C311.8 24.0264 311.8 23.9768 311.781 23.9683C311.759 23.9582 311.709 24.0077 311.6 24.117ZM209.3 8.31703C209.6 9.71704 209.6 11.217 209.1 12.617C205.5 11.017 203.6 9.51704 203.5 8.21703C203.5 7.81703 203.9 7.31703 204.9 6.81703C205.9 6.31703 206.6 6.11703 207.1 6.11703C208.3 6.11703 209.1 6.91704 209.3 8.31703ZM99.9 26.317C99.9 26.317 99.7 26.617 99.7 26.817C98 29.717 96.6 31.417 95 31.417C92.9 31.417 91.9 29.217 91.9 25.417C91.9 22.317 93.1001 17.217 95.5 9.81703C96 8.11703 96.2 7.11703 96.2 6.91704C95.9 6.91704 95.5 7.81705 94.5 9.51704C90.7 16.517 89 23.417 89 29.917C89 35.217 90.5 37.817 93.6001 37.817C96.7001 37.817 98.9 34.217 100.1 27.017C100.3 26.817 100.3 26.517 100.1 26.317C100.1 26.2264 100.1 26.1768 100.081 26.1683C100.059 26.1581 100.009 26.2077 99.9 26.317ZM266.7 10.017C267 11.417 267 12.917 266.5 14.317C262.9 12.617 261 11.217 260.9 9.91702C260.9 9.51703 261.3 9.01703 262.3 8.51703C263.3 8.01703 264 7.81703 264.5 7.81703C265.7 7.81703 266.5 8.61703 266.7 10.017ZM104.3 51.817C128.5 42.717 153.7 33.617 179.7 24.017C179.902 23.9593 180.088 23.8932 180.249 23.8356C180.647 23.6938 180.9 23.6037 180.9 23.817C181.1 23.817 181.1 24.317 180.9 25.017C179.9 27.217 179.2 28.417 178.7 28.817C178.5 29.017 166.2 33.617 142.5 42.517C118.3 51.417 104.6 56.917 101.9 58.617C102.3 56.317 103.1 54.217 104.3 51.817ZM290 58.217C314.2 49.117 339.4 40.017 365.4 30.417C365.602 30.3593 365.788 30.2932 365.949 30.2356C366.347 30.0938 366.6 30.0037 366.6 30.217C366.8 30.217 366.8 30.717 366.6 31.417C365.6 33.617 364.9 34.817 364.4 35.217C364.2 35.417 351.9 40.017 328.2 48.917C304 57.817 290.3 63.317 287.6 65.017C288.1 62.817 288.8 60.6171 290 58.217ZM37.5 61.1171C37 58.2171 35.8 54.917 34.1 50.8171C32.4 46.7171 31 44.6171 30.3 44.6171C29.8 44.6171 29.6 44.6171 29.3 45.1171C29.1 45.3171 28.8 45.6171 28.1 45.6171C27.1 45.6171 26.2 44.9171 24.7 43.7171C23.3 42.5171 22.8 41.5171 22.8 40.8171C22.8 40.6171 23.3 39.4171 24.5 37.4171C25.5 35.5171 26.2 34.8171 26.4 34.8171C29.3 34.8171 31.7 36.2171 33.8 39.6171C36 42.7171 37.6 47.0171 38.4 52.3171C38.6 52.8171 38.6 53.0171 38.6 53.3171L38.8 53.3171C38.8 53.1171 39 52.8171 39 52.3171C39.5 49.2171 40.7 44.4171 42.4 38.1171C44.3 33.8171 46.2 31.6171 48.4 31.6171C49.6 31.6171 50.8 32.3171 51.8 33.8171C52.8 35.2171 53.2 36.2171 53.2 37.2171C53.2 37.7171 53.2 38.6171 52.7 39.6171C52.2 41.0171 51.7 41.8171 51.3 41.8171C51.1 41.8171 50.6 41.1171 49.6 40.1171C48.9 39.1171 47.9 38.7171 47 38.7171C45.1 38.7171 43.4 43.3171 41.7 52.4171C41 56.0171 40.3 58.9171 39.1 61.0171C40.8 61.0171 42.7 62.2171 45.3 64.1171C47.7 66.3171 49.1 67.9171 49.4 69.4171C49.4 69.9171 49.2 70.8171 48.4 72.5171C47.7 74.2171 47.2 74.9171 46.7 75.1171C44.3 75.8171 41.9 76.3171 39.5 77.0171C36.6 78.0171 34.5 79.2171 33.3 80.4171C36.7 90.5171 38.3 100.317 38.3 110.217C38.3 113.117 37.8 116.017 37.3 119.117C37.1 120.117 36.8 120.517 36.6 120.817C36.4 120.817 36.4 118.917 36.4 115.517C36.4 110.017 35.4 103.017 33.8 95.1171C32.4 87.2171 31.4 82.6171 31.4 81.4171C31.4 77.3171 32.6 74.4171 34.8 72.5171C36 71.8171 37.9 70.8171 41 69.9171C39.8 68.7171 38.6 68.2171 37.4 68.2171C36.9 68.2171 36.2 68.9171 35.2 70.1171C34 71.3171 33.5 72.0171 33.3 72.0171C33.1 72.0171 33.1 71.5171 33.3 70.3171C33.9 65.217 35.4 62.1171 37.5 61.1171ZM420.6 59.417C418.2 65.217 417 69.717 417 73.1171C417 77.2171 418 79.3171 420.1 79.3171C421.3 79.3171 422.7 77.6171 424.4 74.7171C424.6 74.517 424.6 74.2171 424.9 74.017C424.9 74.017 425.1 74.017 425.1 74.2171L425.1 74.9171C423.7 82.1171 421.5 85.7171 418.6 85.7171C415.5 85.7171 414 83.1171 414 77.8171C414 75.2171 414.5 71.8171 415.9 67.5171C417.3 63.2171 418.1 61.0171 418.1 60.8171C418.1 60.3171 417.1 59.4171 415 58.2171C411.2 63.2171 405.9 68.017 399.2 72.1171C394.6 74.7171 390.1 77.1171 385.3 79.1171C376.4 82.7171 371.1 84.6171 369.9 85.3171C368.7 85.8171 368 86.0171 367.5 86.0171C367.3 86.0171 367.3 85.8171 367.3 85.8171C367.3 85.3171 367.8 84.8171 369.2 83.9171C376.9 79.6171 384.3 75.3171 392 70.9171C402.1 65.1171 409 60.3171 412.4 56.7171C407.8 54.3171 405.7 51.9171 405.7 49.3171C405.7 46.2171 407.1 43.3171 410 40.7171C412.9 38.3171 415.3 37.3171 417.2 38.1171C418.6 38.6171 419.6 40.317 419.6 43.1171C419.6 45.7171 419.1 48.6171 417.9 51.7171C420.3 53.1171 421.3 54.6171 421.3 56.017C421.3 56.817 421.1 58.017 420.6 59.417ZM50.5 144.117C37.8 152.817 26 157.117 15 157.117C7.30003 157.117 3.50003 153.317 3.59999 145.217C3.59999 139.717 5 131.817 7.89999 121.217C8.39999 119.717 8.59999 118.517 8.59999 117.817C8.59999 117.696 8.59999 117.592 8.59712 117.504C10.7112 116.277 12.2615 112.848 13.2 107.217C13.4 107.017 13.4 106.717 13.2 106.517C13.2 106.426 13.2 106.377 13.1814 106.368C13.1589 106.358 13.1093 106.408 13 106.517C13 106.517 12.8 106.817 12.8 107.017C11.1 109.817 9.70003 111.517 8.10002 111.617C6.00002 111.617 5.00002 109.417 5.00002 105.617C5.00002 102.517 6.20003 97.417 8.60002 90.017C9.10002 88.3171 9.30002 87.3171 9.30002 87.1171C9.00002 87.1171 8.60002 88.017 7.60002 89.7171C3.80002 96.7171 2.10002 103.617 2.10002 110.117C2.10002 115.417 3.60002 118.017 6.70003 118.017C6.98407 118.017 7.26055 117.987 7.5294 117.926C7.15785 118.501 6.71939 119.374 6.2 120.517C2.2 131.117 0 141.617 0 151.717C0 157.017 0.900009 161.317 3.10001 164.917C5.8 169.217 9.90001 171.417 14.9 171.417C24.7 171.417 35.5 167.517 47.3 160.117C57.4 153.717 66.3 146.017 73.5 137.117C77.1 132.517 79.5 126.817 80.7 119.817C81.9 128.717 82.8 134.417 83.3 137.317C84.9 145.717 87.6 151.517 91.9 154.617C94.6647 156.691 98.6968 157.692 103.9 157.717L103.9 158.117C109.4 158.117 114.2 155.917 118.5 152.117C120.9 149.017 123.3 146.117 125.7 143.517C126.1 142.517 126.6 141.817 127.1 141.817C127.4 141.817 127.4 142.517 127.6 143.517C128 149.317 129 153.917 130.2 156.517C132.4 161.317 136.4 165.317 142.2 168.717C144.1 169.717 145.3 170.417 146.3 170.417C147 170.417 147.5 169.417 148.2 168.017C149.4 165.117 150.1 161.717 150.1 157.917C150.1 154.858 149.643 152.165 148.991 150.012C152.336 149.889 158.042 147.693 166.2 143.517C178.7 137.017 186.1 133.417 189 132.217C201 127.217 215.2 124.817 231.5 124.817C232.5 124.817 233 124.317 233.7 123.117L238.7 113.017C239.1 112.517 239.1 112.017 239.2 111.917C239.2 111.117 237.7 110.917 235.1 110.917C224.3 110.917 209.9 109.917 192.1 107.517C177.9 105.617 169.3 104.417 165.9 103.717L156.037 103.717C157.295 102.649 158.275 101.742 159 101.017C164 97.1171 171 93.017 180.7 88.717C187.2 85.817 192.2 83.617 195.8 82.217C196.7 85.817 197.7 87.517 198.4 87.517C199.6 87.517 200 85.117 199.8 80.517C207.8 78.117 214.5 76.017 220 74.317C221.4 70.717 222.6 66.917 223.8 62.817C223.8 59.617 220.2 55.817 213.2 51.017C206.7 46.517 201.7 44.317 198.1 44.317C193.5 44.317 190.2 45.717 188 49.117C186.1 51.717 185.1 54.917 185.1 58.717C185.1 61.117 185.4 63.017 186.1 64.717C187.7 68.317 189.2 70.717 189.9 72.117C177.7 76.217 164.7 83.617 151.3 94.217C145.883 98.4523 142.503 101.523 141.256 103.717L140.7 103.717C138.6 108.017 136.9 111.417 135.7 113.817C135.5 114.017 135.5 114.317 135.5 114.517C135.5 115.017 136.9 115.517 139.8 115.717C154.7 116.917 169.8 118.617 185.2 121.017C168.413 130.441 156.348 135.24 149.1 135.412L149.1 135.217C145 135.217 141.9 134.717 139.5 133.517C138.5 133.017 136.6 131.617 133.7 129.217C132.7 128.417 132 128.217 131.5 128.217C130.5 128.217 129.3 128.917 127.9 130.817C124.3 134.817 121.9 137.517 120.9 138.217C116.443 141.486 111.005 143.184 104.1 143.217L104.1 143.117C100.5 143.117 97.6 142.617 95.9 141.417C92.6 139.317 90.4 135.017 89.2 128.017C86.6 112.217 84.2 99.7171 82.5 90.8171C78.4 70.917 71.9 55.1171 63.5 43.817C62.5 42.6171 61.8 43.1171 61.3 44.817C60.8 46.217 60.6 48.6171 60.1 52.017C59.4 55.6171 59.2 57.517 59.4 58.017C66.6 73.817 71.4 85.317 73.3 93.017C75.7 103.017 77.1 110.217 77.1 114.817C77.1 116.817 76.8 118.217 76.1 119.417C76.1 119.417 75.4 120.617 73.5 123.017C68 130.417 60.3 137.417 50.5 144.117ZM141.256 103.717L156.037 103.717C155.213 104.417 154.269 105.186 153.2 106.017L141.2 103.817C141.218 103.784 141.237 103.751 141.256 103.717ZM415.3 50.6171C415.8 49.2171 415.8 47.7171 415.5 46.317C415.3 44.9171 414.5 44.1171 413.3 44.1171C412.8 44.1171 412.1 44.317 411.1 44.817C410.1 45.317 409.7 45.817 409.7 46.217C409.8 47.417 411.7 48.917 415.3 50.6171ZM259.5 49.1171L255.7 57.017C254.7 56.1171 252.6 54.417 249.5 52.5171C246.4 50.3171 244.7 49.1171 244.2 49.1171C243.9 49.1171 243.4 49.6171 243.2 50.1171L238.6 59.7171C238.4 60.2171 238.4 60.5171 238.6 60.7171C242.5 63.1171 246.3 65.7171 249.9 68.6171C250.4 68.9171 250.9 68.6171 251.1 67.9171C252.6 65.7171 253.8 63.1171 255.2 60.2171C259.3 62.8171 262.9 65.2171 266 67.6171C266.4 67.8171 266.9 67.8171 267.4 67.1171C270.5 61.817 272.2 58.2171 272.2 56.517C272.2 56.017 270.3 54.6171 266.7 52.2171C262.9 49.6171 261 48.4171 260.5 48.4171C260 48.4171 259.7 48.6171 259.5 49.1171ZM93.9 76.717C112.4 70.017 131.6 62.817 151.7 55.317C151.878 55.2661 152.044 55.2086 152.194 55.1563C152.635 55.0031 152.951 54.8935 153.1 55.117C153.1 55.117 153.1 55.617 152.9 56.317C151.9 58.517 151.2 59.717 150.7 60.117C133.9 66.317 114 74.017 91.4 83.417C92 81.317 92.7 79.1171 93.9 76.717ZM201.2 60.417C205.7 62.417 207.9 64.017 207.9 65.017C206.3 66.217 201.9 67.6171 195.1 69.717C192.7 64.717 191.1 61.1171 190.1 58.917C190.1 58.717 190.4 58.417 191.1 58.217C193.3 57.817 196.6 58.517 201.2 60.417ZM338 66.217C335.9 62.817 333.5 61.417 330.6 61.417C330.3 61.417 329.6 62.1171 328.6 64.0171C327.4 66.0171 326.9 67.2171 326.9 67.4171C326.9 68.1171 327.4 69.1171 328.8 70.3171C330.3 71.517 331.2 72.2171 332.2 72.2171C332.9 72.2171 333.2 71.9171 333.4 71.7171C333.7 71.2171 333.9 71.2171 334.4 71.2171C335.4 71.2171 336.6 73.4171 338.5 78.2171C340.4 82.8171 341.3 85.917 341.1 87.6171C341.3 88.6171 341.3 89.3171 341.8 89.3171C342.3 89.3171 342.8 88.6171 343.5 87.6171C344.2 86.017 345.2 83.1171 345.9 79.017C347.6 69.917 349.3 65.317 351.2 65.317C352.1 65.317 353.1 65.717 353.8 66.717C354.8 67.717 355.3 68.417 355.5 68.417C355.9 68.417 356.4 67.617 356.9 66.217C357.4 65.217 357.4 64.317 357.4 63.817C357.4 62.817 357 61.817 356 60.417C355 58.917 353.8 58.217 352.6 58.217C350.4 58.217 348.5 60.417 346.6 64.717C344.9 71.017 343.7 75.817 343.2 78.917C343.2 79.417 343 79.717 343 79.917L342.8 79.917C342.8 79.6171 342.8 79.417 342.6 78.917C341.8 73.617 340.2 69.317 338 66.217ZM278.5 75.017C278.5 78.817 276.6 84.1171 272.7 90.6171C270.3 94.7171 266.7 100.217 261.9 107.417C266.7 112.917 270.1 118.017 271.7 122.317C272.7 125.417 273.4 129.517 273.4 134.117C273.4 136.017 272.9 138.417 272 141.517C271.3 144.417 270.3 146.517 269.4 148.017C267.5 150.917 264.4 153.817 259.6 156.617C254.6 160.017 250.2 161.617 246.6 161.617C240.8 161.617 238 157.317 238 148.617C238 142.817 239 137.117 240.9 131.817C242.8 127.217 245.9 121.217 251 113.317C246.7 109.217 242.1 103.517 237.1 96.317C236.6 95.617 235.4 94.417 233.5 92.517C232.5 91.517 232.1 90.317 232.1 88.917C232.1 86.717 232.3 84.317 232.8 81.517C233.5 78.6171 234 77.417 234.2 77.417C234.9 77.417 237.1 78.6171 241.2 81.217C245 83.817 248.2 85.817 250.1 87.417C251.3 88.1171 251.8 88.817 251.8 88.817L251.8 89.017C251.8 89.2171 251.1 89.517 249.4 89.517C246.3 89.517 244.6 89.7171 244.6 90.017C244.6 90.2171 245.1 90.7171 246 91.917C249.8 96.717 253.7 100.317 257.8 103.217C258.8 101.817 262.1 97.017 267.4 88.817C272 81.817 274.6 77.017 275.8 74.217C277 71.317 277.7 70.117 278.2 70.117C278.3 70.217 278.5 71.717 278.5 75.017ZM296 103.417C297 104.617 297.7 106.217 298.2 108.417C299.4 112.517 301.8 118.217 305.1 125.317C308 131.617 309.4 134.917 309.4 135.417C309.4 137.417 306.5 140.517 301 144.817C296.149 148.423 289.836 152.544 282.063 157.125C282.798 152.688 284.071 147.373 285.9 141.117C286.2 139.617 286.4 138.417 286.4 137.717C286.4 137.217 286.4 137.017 286.2 137.017C285.7 137.017 285.2 138.017 284 140.417C281.654 146.752 279.927 152.916 278.9 158.967C275.692 160.815 272.259 162.733 268.6 164.717C259.2 169.817 247.5 175.317 233.3 181.317C212.9 189.917 201.8 194.717 199.9 195.717C194.6 198.117 192 199.617 192 199.817C192 200.017 192 200.017 192.5 200.017C193.5 200.017 195.9 199.717 199.7 199.017C203.3 198.517 212.4 196.417 226.8 193.017C240.5 189.717 247.7 188.017 248.2 188.017C250.8 188.017 259.2 183.917 273.6 175.517C275.045 174.707 276.453 173.902 277.824 173.102C278.06 180.37 280.04 186.633 283.6 191.317C287.9 197.317 294.1 200.417 302.3 200.417C311.9 200.417 322.9 195.417 335.9 185.817C344.6 179.317 352.5 171.817 359.7 163.217C362.8 159.617 365.4 155.017 367.1 149.517C368.6 145.117 369.3 141.817 369.3 138.917L369.8 138.417L369.8 125.217C368.8 125.717 368.3 125.717 368.1 125.717C365.7 120.717 362.8 116.617 359.7 113.017C356.1 109.417 353 107.517 349.9 107.517C345.8 107.517 342 109.617 338.4 113.717C334.6 118.517 332.9 123.817 332.9 129.817C332.9 137.717 338.7 141.817 350.2 141.817C355.5 141.817 359.8 141.117 362.7 140.117C363.2 141.817 363.7 143.517 363.7 144.917C363.7 147.017 360.1 151.417 353.1 158.217C345.4 165.417 337.5 171.417 329.3 176.417C318.9 182.717 310.3 185.817 303.1 185.817C294.7 185.817 288.7 183.117 284.9 178.117C283.439 175.926 282.423 173.438 281.851 170.7C294.144 163.202 303.123 156.137 308.9 149.617C310.9 147.417 312.3 144.317 313.5 140.217C314.4 136.617 314.9 133.717 314.9 131.317C314.9 126.217 313.4 120.717 310.8 114.017C309.1 110.217 307.2 106.117 305.5 102.017C308.4 102.717 310.3 103.217 311 103.217C311.5 103.217 311.7 102.917 311.7 102.717C311.7 102.217 311 101.317 309.3 99.617C305.3 95.517 301.7 91.617 298.3 87.817C297.8 87.317 297.5 87.117 297.3 87.117C296.8 87.117 296.5 87.617 296.3 88.817C295.8 90.017 295.6 92.217 295.1 95.317C294.6 98.617 294.6 100.317 294.6 100.817C294.8 101.217 295.3 102.017 296 103.417ZM124 107.917C124.9 106.017 125.4 103.817 125.4 101.917C125.4 101.017 124.9 99.517 123.8 97.517C122.6 94.2171 121.9 92.517 121.9 92.517C121.7 91.517 121.4 90.3171 121.2 89.1171C121.2 88.2171 120.9 87.7171 120.7 87.7171C120.4 87.7171 120.2 88.2171 119.7 88.9171C118.7 90.1171 118.5 91.3171 118.5 92.7171C118.5 95.3171 120 98.9171 122.6 103.717C122.4 105.217 121.4 105.917 120 105.917C116.8 105.917 115.4 103.817 115.4 99.7171C115.4 98.317 114.9 96.1171 114.2 93.017C113.5 90.1171 113 88.7171 112.5 88.7171C112.3 88.7171 111.8 89.1171 111.3 90.1171C110.8 91.317 110.6 92.017 110.6 92.517C110.6 93.017 110.9 94.417 111.6 96.6171C112.1 99.017 112.6 100.417 112.6 101.417C112.6 103.117 111.9 104.517 110.7 105.717C109.5 106.917 108.3 107.617 106.9 107.617C106 107.617 105 106.617 104.3 105.217C103.8 104.017 103.6 102.517 103.6 101.117C103.6 100.417 103.6 99.717 103.8 98.717C103.8 97.717 104 96.517 104 95.117C104 92.517 103.5 91.317 102.8 91.317C102.3 91.317 101.6 91.817 100.6 93.017C99.7001 94.217 99.2001 95.417 99.2001 96.817C99.2001 97.517 99.5 98.017 100.2 98.217C100.7 98.517 101.2 98.717 101.2 99.217L101.2 105.417C101.2 107.817 101.7 110.017 102.9 111.417C103.9 112.917 105.1 113.617 106.3 113.617C109.9 113.617 112.3 111.017 113.7 106.217C114.9 110.117 116.8 112.017 119.7 112.017C121.4 112.017 122.8 110.517 124 107.917ZM395.9 110.117C395.2 110.117 394.2 110.517 393 111.517C389.1 114.917 385.3 117.817 381.4 119.617C380.2 120.417 376.1 122.317 369.9 125.417L369.9 138.717C378.3 134.817 384.8 130.817 388.6 126.217C388.6 137.217 393.4 143.017 403.5 143.017C411.9 143.017 418.8 138.217 424.1 128.617C427.3 134.417 430.9 137.517 434.7 137.517C440.5 137.517 444.8 134.917 447.7 129.617C450.4 125.217 451.8 120.217 451.8 114.217C451.8 110.317 450.6 107.017 448.7 104.117C448 103.117 447.5 102.917 447 102.917C446.5 102.917 446 103.717 445.8 105.117C444.4 109.617 443.4 113.017 443.2 114.917C445.3 118.517 446.3 120.517 446.3 120.717C445.3 122.317 443.2 123.317 439.8 123.317C437.2 123.317 434.8 122.317 433.1 120.917C431.2 119.517 430.2 117.817 430.2 116.117C430.2 116.617 430.9 114.717 431.9 110.617C432.4 108.517 432.2 107.517 431.2 107.517C430.5 107.517 429.8 107.917 428.8 108.917C426.4 112.817 423.8 116.617 421.4 120.717C417.5 125.817 412.5 128.417 406.5 128.417C399 128.417 395.2 125.517 395.2 120.217C395.2 119.017 395.4 117.517 395.9 115.617C396.4 113.717 396.6 112.217 396.6 111.517C396.6 110.617 396.4 110.117 395.9 110.117ZM269.1 134.117C266.5 128.817 261.9 123.317 255.7 118.017C253.5 120.217 250.9 124.217 247.5 130.017C243.7 136.517 242 140.617 242 142.717C242 145.617 243.9 147.017 248.2 147.017C250.1 147.017 252.5 146.317 255.6 145.117C259.9 143.217 264 140.517 267.4 137.217C268.9 135.817 269.4 134.817 269.1 134.117ZM356.3 127.417C352.7 122.817 349.6 120.717 346.7 120.717C342.4 120.717 340.5 121.717 340.5 124.117C340.5 127.017 343.4 128.417 349.1 128.417C351.2 128.317 353.6 127.817 356.3 127.417ZM224 170.117C219.2 174.417 212.7 176.817 205 176.817C202.8 176.817 200.7 176.117 199.2 174.917C197.8 173.717 197 172.017 197 170.117C197 166.717 198.2 163.417 201.1 160.017C204 156.917 206.9 154.017 209.5 150.917C210.2 150.417 210 149.917 209 149.517C207.1 148.817 204.7 148.517 202.3 148.517C201.1 148.517 199.7 148.717 198 149.717C197.937 149.717 197.863 149.737 197.786 149.758C197.62 149.804 197.437 149.854 197.3 149.717C197.3 149.717 197.3 149.517 197.5 149.017C198.5 146.617 199.4 144.917 200.4 144.217C201.6 143.217 203.5 142.817 206.2 142.817C212 142.817 214.6 144.017 214.6 146.917C214.6 149.117 212.9 151.917 209.3 156.017L201.4 163.917C200.4 165.317 200 166.817 200 167.717C200 170.117 202.6 171.317 207.7 171.317C212.7 171.317 217.8 170.317 223.5 168.717C224.9 168.217 225.7 168.217 225.7 168.517C225.7 168.48 225.63 168.554 225.479 168.715C225.227 168.983 224.751 169.492 224 170.117ZM145.1 157.117C145.1 154.917 144.1 152.817 142 150.417C139.8 148.017 137.4 146.617 135.3 145.817C135.3 148.217 136.5 150.617 138.9 153.017C141 155.717 143.1 157.117 145.1 157.117ZM382.2 191.017C379.6 191.717 378.1 192.217 377.6 192.217L377.6 192.017C377.6 192.017 378.6 191.317 380.5 190.117C382.4 188.917 385.3 187.017 389.4 183.917C391.3 182.017 394.2 178.917 397.8 174.517C400.2 171.617 402.8 169.017 405.7 167.117C409.3 164.517 412.7 163.317 416.3 163.317C417 163.317 418.2 163.517 419.7 164.017C420.9 164.517 422.1 164.717 423.1 164.717C425 164.717 426.5 164.017 427.7 162.517C428.4 161.117 429.4 159.917 430.3 158.417C430.8 157.417 431.5 157.017 432 157.017C432.2 157.017 432.2 157.217 432.2 157.717C432.2 158.217 432 159.417 431.5 160.817C431 161.517 432.9 161.817 436.5 161.817C437 161.817 437.2 161.817 437.2 161.617C437.2 161.617 437 160.617 436.5 159.017C436.3 158.517 436.5 157.817 437.2 156.817L437.28 156.681C438.222 155.08 438.608 154.422 438.9 154.617C439.9 155.317 440.3 156.817 440.3 158.417C440.3 160.117 439.8 161.817 439.1 163.717C438.4 165.917 437.7 167.117 437.2 167.517C435.5 168.517 432.9 168.217 429.3 166.517C426.4 169.417 423.5 171.117 420.7 171.117C420 171.117 418.8 170.917 417.6 170.417C416.4 169.917 415.4 169.717 414.7 169.717C409.9 169.717 404.9 171.917 399.8 176.717L389 187.517C386.7 189.017 384.6 190.217 382.2 191.017ZM164.2 165.617C163.8 165.117 163.3 165.117 162.8 165.817C160.7 168.917 159.2 171.817 157.9 173.917C155.5 177.517 149.8 181.817 140.9 186.617C128.4 192.617 119.3 196.717 113.3 199.117C111.2 200.117 110.2 200.617 110.2 200.817C110.2 200.817 111.1 200.817 113.3 200.617C114.7 200.417 118.3 199.417 124.1 198.017C129.6 196.817 132.5 196.117 132.5 196.117C134 196.117 137.1 194.917 141.9 192.017C148.4 188.617 153.2 185.017 157 180.717C159.2 178.317 160.9 175.017 162.3 170.917C163.3 172.117 164.7 173.517 166.9 174.717C169 176.117 171 177.117 172.4 177.117C174.1 177.117 175.3 175.117 176 171.317C176.2 170.417 176.2 169.717 176.2 168.717C176.2 166.517 175.7 164.417 174.3 162.717C173.1 160.817 171.6 160.117 170.2 160.117C168 160.117 166.1 162.017 164.2 165.617ZM172 167.517C172.9 168.417 173.4 169.417 173.4 170.117C173.6 170.817 173.6 171.317 173.5 171.417C173.2 171.617 173 171.617 172.5 171.417C169.8 170.217 167.9 169.017 166.7 167.817C167.4 166.617 168.4 166.117 169.6 166.117C170.3 166.117 171.3 166.517 172 167.517ZM64 173.717C52.9 178.017 45.7 181.217 42.6 182.617C41.4 185.017 40.7 186.917 40.2 188.817C48.6 185.217 55.8 182.117 61.6 179.217C70.2 175.917 76.5 173.217 80.3 171.817C81.1 171.317 81.8 169.917 82.5 167.717C82.7 167.017 82.7 166.517 82.5 166.517C82.5 166.305 82.1497 166.393 81.5907 166.533C81.3595 166.591 81.0926 166.659 80.8 166.717C79.1 167.517 73.6 169.617 64 173.717ZM61.8 182.617C50.7 187.117 43.5 190.017 40.4 191.717C39.5 193.817 38.7 196.017 38.3 197.917C46.4 194.117 53.6 190.917 59.4 188.317C68 184.717 74.3 182.317 78.1 180.617C78.9 180.217 79.6 178.717 80.3 176.817C80.5 175.917 80.5 175.417 80.5 175.417C80.3 175.217 79.8 175.417 78.6 175.917C76.9 176.417 71.4 178.817 61.8 182.617Z" id="Group" fill="#595959" fill-rule="evenodd" stroke="none" clip-path="url(#clip_1)" />
  </g>
</svg>