<?xml version="1.0" encoding="utf-8"?>
<svg width="510.90015px" height="216.80005px" viewBox="0 0 510.90015 216.80005" version="1.1" xmlns:xlink="http://www.w3.org/1999/xlink" xmlns="http://www.w3.org/2000/svg">
  <defs>
    <path d="M510.9 0L510.9 0L510.9 216.8L0 216.8L0 0L510.9 0Z" id="path_1" />
    <clipPath id="clip_1">
      <use xlink:href="#path_1" clip-rule="evenodd" fill-rule="evenodd" />
    </clipPath>
  </defs>
  <g id="Surah_52_of_114_(modified)">
    <path d="M510.9 0L510.9 0L510.9 216.8L0 216.8L0 0L510.9 0Z" id="Surah_52_of_114_(modified)" fill="none" stroke="none" />
    <path d="M251.8 117.6C254.7 110.2 256.1 102.5 256.1 94.6C256.1 89.6 255.3 77.6 253.9 58.6C252.4 39.4 251.7 29.5 251.7 29.3C251.7 28.1 251.9 27.8 252.4 28.3C256.4 33.1 258.6 34.6 258.6 32.4C258.6 31.7 258.3 30.7 258.1 29.3C257.4 27.4 255.7 22.6 252.8 14.9C249.9 7.5 248 2.89999 247.3 1C246.8 0.199997 246.5 0 246.3 0C246 0 245.5 0.300003 245.3 1C242.6 7.39999 241.2 11.5 241.2 13.2C242.7 16.3 243.4 20.1 243.4 24.7C243.4 28.8 244.1 42.5 245.8 65.5C247.4 88.3 248.4 102 248.4 106.3C248.4 114.7 243.6 120.9 234 125L234 138.2C241.6 134.9 247.6 127.9 251.8 117.6ZM263.4 17C264.9 20.2 265.6 24 265.6 28.8C265.6 32.9 266.8 51.8 269.3 85.7C271.7 119.5 272.9 138.7 272.9 143.5C272.9 148.6 272.7 153.1 272.2 157.2C272.171 157.579 272.142 157.944 272.114 158.293C271.95 160.335 271.829 161.846 272 162.7C272.2 163.4 272.5 163.4 273.2 162.2C273.7 161.3 274.1 160.1 275.1 158.4C278.4 149.8 280.1 139.7 280.1 128.4C280.1 124.6 279.2 108 277 78.5C274.8 48.8 273.6 33.9 273.6 33.4C273.6 32.2 273.8 31.7 274.3 32.4C278.6 37.2 280.5 38.4 280.5 36.2C280.5 35.7 280.5 34.5 280 33.3C279.5 31.4 277.8 26.6 274.7 18.7C271.8 11.2 270.1 6.7 269.4 5C268.9 4.3 268.7 3.8 268.2 3.8C268 3.8 267.7 4.3 267.5 5C264.6 11.2 263.4 15.3 263.4 17ZM316.1 18.3C316.1 20.9 318.2 23.3 322.8 25.7C319.4 29.3 314.4 33.1 307.4 37.4C301.4 40.7 295.7 44.1 289.9 47.7C288.5 48.4 288 49.2 288 49.4C288 49.4 288 49.6 288.2 49.6C288.4 49.6 289.4 49.4 290.6 48.9C298.3 46.1 302.6 44.4 303.6 43.9C307.2 42.5 311.2 39.8 315.8 36.7C319.6 33.8 322.8 30.7 325.4 27.1C327.6 28.3 329 29.5 329.5 30.5C331.6 27.7 332.6 25.5 332.6 24.3C332.1 23.3 330.7 22.1 328.3 20.9C329.5 17.5 330 14.6 330 12C330 9.20001 329.3 7.50002 327.6 7.00002C325.7 6.3 323.3 7.3 320.4 9.90001C317.5 12.3 316.1 15.2 316.1 18.3ZM210 26.2C205.4 23.8 203.3 21.4 203.3 18.8C203.3 15.7 204.7 12.8 207.6 10.4C210.5 7.8 212.9 6.8 214.8 7.50002C216.5 8.00002 217.2 9.70001 217.2 12.5C217.2 15.1 216.7 18 215.5 21.4C217.9 22.6 219.3 23.8 219.8 24.8C219.8 26 218.8 28.2 216.7 31C216.2 30 214.8 28.8 212.6 27.6C210 31.2 206.8 34.3 203 37.2C198.4 40.3 194.4 43 190.8 44.4C189.8 44.9 185.5 46.6 177.8 49.4C176.6 49.9 175.6 50.1 175.4 50.1C175.2 50.1 175.2 49.9 175.2 49.9C175.2 49.7 175.7 48.9 177.1 48.2C182.9 44.6 188.6 41.2 194.6 37.9C201.6 33.6 206.6 29.8 210 26.2ZM370.7 29C370.7 29 370.5 29.3 370.5 29.5C368.8 32.4 367.4 34.1 365.8 34.1C363.7 34.1 362.7 31.9 362.7 28.1C362.7 25 363.9 19.9 366.3 12.5C366.8 10.8 367 9.8 367 9.60001C366.7 9.60001 366.3 10.5 365.3 12.2C361.5 19.2 359.8 26.1 359.8 32.6C359.8 37.9 361.3 40.5 364.4 40.5C367.5 40.5 369.7 36.9 370.9 29.7C371.1 29.5 371.1 29.2 370.9 29C370.9 28.9093 370.9 28.8598 370.881 28.8513C370.859 28.8411 370.809 28.8907 370.7 29ZM325.8 15.1C326.1 16.5 326.1 18 325.6 19.4C322 17.8 320.1 16.3 320 15C320 14.6 320.4 14.1 321.4 13.6C322.4 13.1 323.1 12.9 323.6 12.9C324.8 12.9 325.6 13.7 325.8 15.1ZM212.8 19.9C213.3 18.5 213.3 17 213 15.6C212.8 14.2 212 13.4 210.8 13.4C210.3 13.4 209.6 13.6 208.6 14.1C207.6 14.6 207.2 15.1 207.2 15.5C207.3 16.8 209.2 18.2 212.8 19.9ZM131.7 21.1C131.7 21.6 131.5 22.5 131.2 23.5C130.7 24.9 130.2 25.7 129.5 25.7C129.3 25.7 128.8 25 127.8 24C127.1 23 126.1 22.6 125.4 22.6C123.5 22.6 121.6 27.2 119.9 36.3C119.2 40.4 118.5 43 117.5 44.7C116.8 45.9 116.3 46.4 115.8 46.4C115.6 46.4 115.3 45.9 115.3 45C115.3 43.3 114.3 40.2 112.4 35.6C110.7 30.8 109.3 28.6 108.6 28.6C108.1 28.6 107.6 28.6 107.6 29.1C107.4 29.3 106.9 29.6 106.2 29.6C105.2 29.6 104 28.9 102.6 27.7C102.083 27.1828 101.688 26.7203 101.407 26.3173C102.051 24.9297 102.337 23.9799 102.2 23.5C102.4 23.5 102.2 23.3 102.2 23.3C102 23.3 101.5 23.7 101 24.7C100.957 24.7739 100.912 24.8484 100.866 24.9236C100.816 25.2427 100.984 25.7129 101.407 26.3173C101.111 26.9538 100.74 27.6824 100.3 28.5C97.9 33.1 94.5 36.7 90.2 39.8C85.6 43.2 81.6 45.6 78 47.2C77.3 47.7 73 49.4 65 52.2C63.8 52.7 63.1 52.9 62.6 52.9C62.4 52.9 62.4 52.7 62.4 52.7C62.4 52.5 63.1 51.7 64.3 51C71 47.4 80.1 41.6 91.9 33.7C96.5523 30.3077 99.4197 27.2912 100.866 24.9236C100.873 24.8795 100.885 24.8383 100.9 24.8C103.1 20.7 104.3 18.8 104.7 18.8C107.3 18.8 110 20.2 112.1 23.6C114.3 26.7 115.7 31 116.7 36.1L116.7 37.1C116.809 37.2093 116.859 37.2589 116.881 37.2487C116.9 37.2403 116.9 37.1907 116.9 37.1C116.9 37.1 117.1 36.9 117.4 36.1C117.9 33.2 118.8 28.4 120.5 22.2C122.4 17.9 124.3 15.7 126.7 15.7C127.7 15.7 128.9 16.4 130.1 17.9C131.2 19.2 131.7 20.2 131.7 21.1ZM141.3 139.4C144.9 134.8 149.2 128.8 154.5 121.9C155.5 120.5 156.2 118.5 156.4 115.7L156.4 99.9C156.4 98 155.7 88.1 154.5 70.9C153.3 53.6 152.8 43.8 152.8 41.1C152.8 36.5 151.8 32.7 150.4 29.6C150.4 27.9 151.8 23.8 154.5 17.4C154.7 16.7 155.2 16.4 155.5 16.4C155.7 16.4 156 16.6 156.5 17.6C157.2 19.3 158.9 23.8 161.8 31.3C164.9 39.2 166.6 44 167.1 45.7C167.6 47.1 167.8 48.1 167.8 48.8C167.8 51 165.6 49.8 161.6 45C161.1 44.5 160.9 44.8 160.9 46C160.9 46 161.4 52 162.3 63.3C163.3 74.8 163.7 82 163.7 84.7C163.7 92.1 162.5 102.5 160.6 115.9C171.4 105.3 177.9 99.1 180 97.2C188.2 91 195.8 87.8 203.3 87.8C209.3 87.8 215.1 90.2 220.8 94.8C225.8 99.1 228.2 102.2 228.2 104.6C228.2 110.6 225.8 116.6 221 122.6C218.6 125.5 213.8 128.6 206.6 132C218.6 130.1 227.7 127.7 234 125L234 138C230.4 139.7 223.9 141.1 214.3 143C198.2 145.6 180.7 147.1 161.3 147.1L134.9 155L134.9 141.8C136.3 141.4 138.4 140.6 141.3 139.4ZM349.2 63.4C373.4 54.3 398.6 45.2 424.6 35.6C424.802 35.5422 424.988 35.4761 425.149 35.4186C425.547 35.2768 425.8 35.1866 425.8 35.4C426 35.4 426 35.9 425.8 36.6C424.8 38.8 424.1 40 423.6 40.4C423.4 40.6 411.1 45.2 387.4 54.1C363.2 63 349.5 68.5 346.8 70.2C347.2 67.9 348 65.8 349.2 63.4ZM479.7 64.6C477.3 70.4 476.1 74.9 476.1 78.3C476.1 82.4 477.1 84.5 479.2 84.5C480.4 84.5 481.8 82.8 483.5 79.9C483.7 79.7 483.7 79.4 484 79.2C484 79.2 484.2 79.2 484.2 79.4L484.2 80.1C482.8 87.3 480.6 90.9 477.7 90.9C474.6 90.9 473.1 88.3 473.1 83C473.1 80.4 473.6 77 475 72.7C476.4 68.4001 477.2 66.2 477.2 66C477.2 65.5 476.2 64.6 474.1 63.4C470.3 68.4 465 73.2 458.3 77.3C453.7 79.9 449.2 82.3 444.4 84.3C435.5 87.9 430.2 89.8 429 90.5C427.8 91 427.1 91.2 426.6 91.2C426.4 91.2 426.4 91 426.4 91C426.4 90.5 426.9 90 428.3 89.1C436 84.8 443.4 80.5 451.1 76.1C461.2 70.3 468.1 65.5 471.5 61.9C466.9 59.5 464.8 57.1 464.8 54.5C464.8 51.4 466.2 48.5 469.1 45.9C472 43.5 474.4 42.5 476.3 43.3C477.7 43.8 478.7 45.5 478.7 48.3C478.7 50.9 478.2 53.8 477 56.9C479.4 58.3 480.4 59.8 480.4 61.2C480.4 61.9 480.2 63.1 479.7 64.6ZM43.4 64.5C43.4 64.5 43.2 64.8 43.2 65C41.5 67.9 40 69.6 38.5 69.6C36.4 69.6 35.4 67.4 35.4 63.6C35.4 60.5 36.6 55.4 39 48C39.5 46.3 39.7 45.3 39.7 45.1C39.4 45.1 39 46 38 47.7C34.2 54.7 32.5 61.6 32.5 68.1C32.5 73.4 34 76 37.1 76C40.2 76 42.4 72.4 43.6 65.2C43.8 65 43.8 64.7 43.6 64.5C43.6 64.4093 43.6 64.3597 43.5814 64.3513C43.5589 64.3411 43.5093 64.3907 43.4 64.5ZM219.6 68.9C220.5 67 221 64.8 221 62.9C221 61.9 220.5 60.5 219.4 58.5C218.2 55.2 217.5 53.5 217.5 53.5C217.3 52.5 217 51.3 216.8 50.1C216.8 49.2 216.5 48.7 216.3 48.7C216 48.7 215.8 49.2 215.3 49.9C214.3 51.1 214.1 52.3 214.1 53.7C214.1 56.3 215.6 59.9 218.2 64.7C218 66.2 217 66.9 215.6 66.9C212.4 66.9 211 64.8 211 60.7C211 59.3 210.5 57.1 209.8 54C209.1 51.1 208.6 49.7 208.1 49.7C207.9 49.7 207.4 50.1 206.9 51.1C206.4 52.3 206.2 53 206.2 53.5C206.2 54 206.5 55.4 207.2 57.6C207.7 60 208.2 61.4 208.2 62.4C208.2 64.1 207.5 65.5 206.3 66.7C205.1 67.9 203.9 68.6 202.5 68.6C201.6 68.6 200.6 67.6 199.9 66.2C199.4 65 199.2 63.5 199.2 62.1C199.2 61.4 199.2 60.7 199.4 59.7C199.4 58.7 199.6 57.5 199.6 56.1C199.6 53.5 199.1 52.3 198.4 52.3C197.9 52.3 197.2 52.8 196.2 54C195.3 55.2 194.8 56.4 194.8 57.8C194.8 58.5 195.1 59 195.8 59.2C196.3 59.5 196.8 59.7 196.8 60.2L196.8 66.4C196.8 68.8 197.3 71 198.5 72.4C199.5 73.9 200.7 74.6 201.9 74.6C205.5 74.6 207.9 72 209.3 67.2C210.5 71.1 212.4 73 215.3 73C217 73 218.4 71.5 219.6 68.9ZM474.4 55.7C474.9 54.3 474.9 52.8 474.6 51.4C474.4 50 473.6 49.2 472.4 49.2C471.9 49.2 471.2 49.4 470.2 49.9C469.2 50.4 468.8 50.9 468.8 51.3C468.9 52.6 470.8 54 474.4 55.7ZM318.6 54.3L314.8 62.2C313.9 61.2 311.7 59.5 308.6 57.7C305.5 55.5 303.8 54.3 303.3 54.3C303 54.3 302.5 54.8 302.3 55.3L297.7 64.9001C297.5 65.4001 297.5 65.7 297.7 65.9001C301.6 68.3 305.4 70.9001 309 73.8C309.5 74.1 310 73.8 310.2 73.1C311.7 70.9 312.9 68.3 314.3 65.4C318.4 68 322 70.4 325.1 72.8C325.5 73 326 73 326.5 72.3C329.6 67 331.3 63.4 331.3 61.7C331.3 61.2 329.4 59.8 325.8 57.4C322 54.8 320.1 53.6 319.6 53.6C319.1 53.6 318.8 53.8 318.6 54.3ZM114.9 65.5C114.9 68.1 113.7 71 111.8 74.1C109.6 77.2 107 80.1 103.6 82.5C102.2 83.5 101.4 83.9 101.2 83.9L101.2 83.7C101.2 83.5 101.7 83 102.6 81.8C108.1 75.8 111 72 111 69.8C111 68.1 110 67.2 108.4 67.2C107.4 67.2 106.5 67.4 105.8 67.9C105.1 68.1 104.8 68.4 104.6 68.4C104.6 68.4 104.4 68.4 104.4 68.2C104.4 68.2 104.4 67.7 104.6 66.8C105.6 62.7 107.5 60.8 110.8 60.8C113.5 60.7 114.9 62.4 114.9 65.5ZM397.1 71C395 67.6 392.6 66.2 389.7 66.2C389.5 66.2 388.8 67 387.7 68.8C386.5 70.8 386 72 386 72.2C386 72.9 386.5 73.9 387.9 75.1C389.4 76.3 390.3 77 391.3 77C392 77 392.3 76.7 392.5 76.5C392.8 76 393 76 393.5 76C394.5 76 395.7 78.2 397.6 83C399.5 87.6 400.4 90.7 400.2 92.4C400.4 93.4 400.4 94.1 400.9 94.1C401.4 94.1 401.9 93.4 402.6 92.4C403.3 90.8 404.3 87.9 405 83.8C406.7 74.7 408.4 70.1 410.3 70.1C411.2 70.1 412.2 70.5 412.9 71.5C413.9 72.5 414.4 73.2 414.6 73.2C415 73.2 415.5 72.4 416 71C416.5 70 416.5 69.1 416.5 68.6C416.5 67.6 416.1 66.6 415.1 65.2C414.1 63.7 412.9 63 411.7 63C409.5 63 407.6 65.2 405.7 69.5C404 75.8 402.8 80.6 402.3 83.7C402.3 84.2 402.1 84.5 402.1 84.7L401.9 84.7C401.9 84.4 401.9 84.2 401.7 83.7C400.9 78.4 399.3 74.1 397.1 71ZM22.3 150.2C32.4 150.2 44.9 145.4 59.7 135.8C69.1 129.6 76.3 124 81.5 119.2C82.5 118 83.2 117 83.2 116.1C83.2 115.2 82.5 113.5 81 111.1C78.1 106.3 74 99.3 69 90C67.8 88.1 66.4 85.4 64.9 82.3C64.7 81.8 64.9 80.1 65.4 76.8C65.9 73.7 66.1 71.5 66.4 70.3C66.6 69.1 67.1 68.6 67.4 68.6C67.9 68.6 68.1 68.8 68.6 69.3C71.7 73.1 75.3 77 79.4 81.1C81.1 82.8 82 83.7 82 84.2C82 84.7 81.8 84.7 81 84.7C80.5 84.7 78.6 84.5 75.7 83.5C77.9 87.3 81.2 93.3 85.5 101.7C86.7 104.3 87.2 107.5 87.2 110.8C87.2 115.1 86.2 119.7 84.3 124.5C82.6 128.6 80.9 131.5 79.3 133.1C74.3 138.4 66.8 144.4 57.2 150.6C55.1815 151.921 53.2137 153.148 51.2961 154.279C51.267 154.996 51.0758 156.121 50.8 157.5C47.7 168.1 46.2 176 46.2 181.5C46.2 186.5 47.4 190.9 49.8 194.5C53.6 199.5 59.6 202.2 68 202.2C75.2 202.2 83.8 199.1 94.2 192.8C102.4 187.8 110.3 181.8 118 174.6C125 167.8 128.6 163.4 128.6 161.3C128.6 159.9 128.1 158.2 127.6 156.5C124.7 157.5 120.4 158.2 115.1 158.2C103.6 158.2 97.8 154.1 97.8 146.2C97.8 140.2 99.5 134.9 103.3 130.1C106.9 126 110.7 123.9 114.8 123.9C117.9 123.9 121 125.8 124.6 129.4C127.7 133 130.6 137.1 133 142.1C133.2 142.1 133.7 142.1 134.7 141.6L134.7 154.8L134.2 155.3C134.2 158.2 133.5 161.5 132 165.9C130.3 171.4 127.7 176 124.6 179.6C117.4 188.2 109.5 195.7 100.8 202.2C87.8 211.8 76.8 216.8 67.2 216.8C59 216.8 52.8 213.7 48.5 207.7C44.7 202.7 42.7 195.9 42.7 188C42.7 177.9 44.9 167.6 48.9 156.8C49.213 156.174 49.4783 155.643 49.7084 155.201C39.1108 161.249 30.0926 164.3 22.6 164.3C14.2 164.3 8 160.5 4.10001 153C1.20001 148 0 142.2 0 135.5C0 125.4 2.2 114.9 6.2 104.3C6.38078 103.866 6.55176 103.478 6.71352 103.133C4.95679 102.169 4.10001 99.7056 4.10001 95.7C4.10001 89.2 5.8 82.3 9.60001 75.3C10.6 73.6 11 72.7 11.3 72.7C11.3 72.9 11.1 73.9 10.6 75.6C8.20001 83 7 88.1 7 91.2C7 95 8 97.2 10.1 97.2C11.7 97.2 13.2 95.5 14.8 92.6C14.8 92.4 15 92.1 15 92.1C15.1093 91.9907 15.1589 91.9411 15.1814 91.9513C15.2 91.9598 15.2 92.0093 15.2 92.1C15.4 92.3 15.4 92.6 15.2 92.8C14 100 11.8 103.6 8.70001 103.6C8.55927 103.6 8.42183 103.595 8.28767 103.584C8.18637 103.994 8.0582 104.462 7.89999 105C5 115.3 3.59999 123.5 3.59999 128.8C3.59999 133.6 4.99998 138.2 8.2 142.5C12 147.6 16.8 150.2 22.3 150.2ZM337.6 80.2C337.6 84 335.7 89.3 331.8 95.8C329.4 99.9 325.8 105.4 321 112.6C325.8 118.1 329.2 123.2 330.8 127.5C331.8 130.6 332.5 134.7 332.5 139.3C332.5 141.2 332 143.6 331.1 146.7C330.4 149.6 329.4 151.7 328.5 153.2C326.6 156.1 323.5 159 318.7 161.8C313.7 165.2 309.3 166.8 305.7 166.8C299.9 166.8 297.1 162.5 297.1 153.8C297.1 148 298.1 142.3 300 137C301.9 132.4 305 126.4 310.1 118.5C305.8 114.4 301.2 108.7 296.2 101.5C295.7 100.8 294.5 99.6 292.6 97.7C291.6 96.7 291.2 95.5 291.2 94.1C291.2 91.9 291.4 89.5 291.9 86.7C292.6 83.8 293.1 82.6 293.3 82.6C294 82.6 296.2 83.8 300.3 86.4C304.1 89 307.3 91 309.2 92.6C310.4 93.3 310.9 94 310.9 94L310.9 94.2C310.9 94.4 310.2 94.7 308.5 94.7C305.4 94.7 303.7 94.9 303.7 95.2C303.7 95.4 304.2 95.9 305.1 97.1C308.9 101.9 312.8 105.5 316.9 108.4C317.9 107 321.2 102.2 326.5 94C331.1 87 333.7 82.2 334.9 79.4C336.1 76.5 336.8 75.3 337.3 75.3C337.4 75.4 337.6 76.8 337.6 80.2ZM135.3 96.5C135.3 96.5 135.1 96.8 135.1 97C133.4 99.8 132 101.5 130.4 101.6C128.3 101.6 127.3 99.4 127.3 95.6C127.3 92.5 128.5 87.4 130.9 80C131.4 78.3 131.6 77.3 131.6 77.1C131.3 77.1 130.9 78 129.9 79.7C126.1 86.7 124.4 93.6 124.4 100.1C124.4 105.4 125.9 108 129 108C132.1 108 134.3 104.4 135.5 97.2C135.7 97 135.7 96.7 135.5 96.5C135.5 96.4093 135.5 96.3597 135.481 96.3513C135.459 96.3411 135.41 96.3902 135.3 96.4998L135.3 96.5ZM355.1 108.5C356.1 109.7 356.8 111.3 357.3 113.5C358.5 117.6 360.9 123.4 364.1 130.3C367 136.6 368.4 139.9 368.4 140.4C368.4 142.4 365.5 145.5 360 149.8C355.168 153.391 348.886 157.494 341.155 162.053C341.89 157.607 343.164 152.277 345 146C345.3 144.5 345.5 143.3 345.5 142.6C345.5 142.1 345.5 141.9 345.3 141.9C344.8 141.9 344.3 142.9 343.1 145.3C340.748 151.652 339.018 157.83 337.992 163.897C334.758 165.761 331.294 167.697 327.6 169.7C318.2 174.8 306.5 180.3 292.3 186.3C271.9 194.9 260.8 199.7 258.9 200.7C253.6 203.1 251 204.6 251 204.8C251 205 251 205 251.5 205C252.5 205 254.9 204.7 258.7 204C262.3 203.5 271.4 201.4 285.8 198C299.5 194.7 306.7 193 307.2 193C309.8 193 318.2 188.9 332.7 180.6C334.147 179.789 335.558 178.983 336.931 178.181C337.196 185.365 339.172 191.558 342.7 196.2C347 202.2 353.2 205.3 361.4 205.3C371 205.3 382 200.3 395 190.7C403.7 184.2 411.6 176.7 418.8 168.1C421.9 164.5 424.5 159.9 426.2 154.4C427.7 150 428.4 146.7 428.4 143.8L428.9 143.3L428.9 130.1C427.9 130.6 427.4 130.6 427.2 130.6C424.8 125.6 421.9 121.5 418.8 117.9C415.2 114.3 412.1 112.4 409 112.4C404.9 112.4 401.1 114.5 397.5 118.6C393.7 123.4 392 128.7 392 134.7C392 142.6 397.8 146.7 409.3 146.7C414.6 146.7 418.9 146 421.8 145C422.3 146.7 422.8 148.4 422.8 149.8C422.8 151.9 419.2 156.2 412.2 163.1C404.5 170.3 396.6 176.3 388.4 181.3C378 187.6 369.4 190.7 362.2 190.7C353.8 190.7 347.8 188 344 183C342.571 180.856 341.567 178.429 340.989 175.76C353.262 168.271 362.229 161.213 368 154.7C370 152.5 371.4 149.4 372.6 145.3C373.5 141.7 374 138.8 374 136.4C374 131.3 372.5 125.8 369.9 119.1C368.2 115.3 366.3 111.2 364.6 107.1C367.5 107.8 369.4 108.3 370.1 108.3C370.6 108.3 370.8 108 370.8 107.8C370.8 107.3 370.1 106.4 368.4 104.7C364.4 100.6 360.8 96.7 357.4 92.9C356.9 92.4 356.6 92.2 356.4 92.2C355.9 92.2 355.6 92.7 355.4 93.9C354.9 95.1 354.7 97.3 354.2 100.4C353.7 103.7 353.7 105.4 353.7 105.9C353.9 106.3 354.4 107.1 355.1 108.5ZM49.4 103.2C49.4 105.8 48.2 108.7 46.3 111.8C44.1 114.9 41.5 117.8 38.1 120.2C36.7 121.2 35.9 121.6 35.7 121.6L35.7 121.4C35.7 121.2 36.2 120.7 37.1 119.5C42.6 113.5 45.5 109.7 45.5 107.5C45.5 105.8 44.5 104.9 42.9 104.9C41.9 104.9 41 105.1 40.3 105.6C39.6 105.8 39.3 106.1 39.1 106.1C39.1 106.1 38.9 106.1 38.9 105.9C38.9 105.9 38.9 105.4 39.1 104.5C40.1 100.4 42 98.5 45.3 98.5C48 98.4 49.4 100.1 49.4 103.2ZM218.4 113.8C219.4 113.3 219.4 112.4 218.4 111.2C213.4 105 206.9 101.8 199 101.8C190.8 101.8 181 106.4 169.2 116C161.5 122.2 153.8 129.7 146.2 138.6C162.8 134 174.8 130.4 182.7 128C198.2 122.9 210.2 118.1 218.4 113.8ZM455 115C454.3 115 453.3 115.4 452.1 116.4C448.3 119.8 444.4 122.6 440.5 124.6C439.3 125.4 435.2 127.3 429 130.4L429 143.6C437.4 139.7 443.9 135.7 447.7 131.1C447.7 142.1 452.5 147.9 462.6 147.9C471 147.9 477.9 143.1 483.2 133.5C486.4 139.3 490 142.4 493.8 142.4C499.6 142.4 503.9 139.8 506.8 134.5C509.5 130.1 510.9 125.1 510.9 119.1C510.9 115.2 509.7 111.9 507.8 109C507.1 108 506.6 107.8 506.1 107.8C505.6 107.8 505.1 108.6 504.9 110C503.5 114.5 502.5 117.9 502.3 119.8C504.4 123.4 505.4 125.4 505.4 125.6C504.4 127.2 502.3 128.2 498.9 128.2C496.3 128.2 493.9 127.2 492.2 125.8C490.3 124.4 489.3 122.7 489.3 121C489.3 121.5 490 119.6 491 115.5C491.5 113.4 491.3 112.4 490.3 112.4C489.6 112.4 488.9 112.8 487.9 113.8C485.5 117.7 482.9 121.5 480.5 125.6C476.6 130.7 471.6 133.3 465.6 133.3C458.1 133.3 454.3 130.4 454.3 125.1C454.3 123.9 454.5 122.4 455 120.5C455.5 118.6 455.7 117.1 455.7 116.4C455.7 115.5 455.5 115 455 115ZM306.7 135.1C302.9 141.6 301.2 145.7 301.2 147.8C301.2 150.7 303.1 152.1 307.4 152.1C309.3 152.1 311.7 151.4 314.8 150.2C319.1 148.3 323.2 145.6 326.6 142.3C328 140.9 328.5 139.9 328.3 139.2C325.7 133.9 321.1 128.4 314.9 123.1C312.7 125.3 310.1 129.3 306.7 135.1ZM415.4 132.2C411.8 127.6 408.7 125.5 405.8 125.5C401.5 125.5 399.6 126.5 399.6 128.9C399.6 131.8 402.5 133.2 408.2 133.2C410.23 133.2 412.43 132.774 414.8 132.316C414.999 132.277 415.199 132.239 415.4 132.2ZM111.6 137.1C114.5 137.1 117.6 139.2 121.2 143.8C118.5 144.2 116.1 144.7 114 144.8C108.3 144.8 105.4 143.4 105.4 140.5C105.4 138.1 107.3 137.1 111.6 137.1ZM258.4 158.2C258.4 158.7 258.2 159.6 257.7 160.6C257.5 162 257 162.8 256.3 162.8C256.1 162.8 255.6 162.1 254.6 161.1C253.9 160.1 252.9 159.7 252.2 159.7C250.3 159.7 248.4 164.3 246.7 173.4C246 177.5 245.3 180.4 244.3 182C244.083 182.31 243.885 182.592 243.7 182.832C243.907 182.166 244 181.744 244 181.6L244 181.4C243.855 181.4 243.291 182.029 242.27 183.21C242.173 182.911 242.1 182.492 242.1 182C242.1 180.3 241.1 177.2 239.2 172.6C237.3 167.8 236.1 165.6 235.4 165.6C234.7 165.6 234.4 165.6 234.2 166.1C234.2 166.3 233.7 166.6 233 166.6C232 166.6 231.1 165.9 229.6 164.7C228.4 163.5 227.7 162.5 227.7 161.8C227.7 161.6 228.2 160.4 229.4 158.4C230.6 156.5 231.3 155.8 231.6 155.8C234.2 155.8 236.6 157.2 238.8 160.6C241.2 164 242.6 168 243.6 173.3L243.6 174.3C243.709 174.409 243.759 174.459 243.781 174.449C243.8 174.44 243.8 174.391 243.8 174.3C243.8 174.1 244 173.8 244.3 173.3C244.5 170.2 245.7 165.4 247.4 159.1C249.3 154.8 251.2 152.6 253.4 152.6C254.6 152.6 255.8 153.3 257 154.8C258 156.2 258.4 157.2 258.4 158.2ZM242.27 183.21C241.881 183.661 241.425 184.192 240.9 184.8C239.2 186.7 237.1 188.8 234.2 191C222.2 198.9 213.1 204.5 206.6 208.3C205.4 209 204.7 209.8 204.7 210C204.7 210 204.7 210.2 204.9 210.2C205.4 210.2 206.1 210 207.3 209.5C215.3 206.7 219.6 205 220.3 204.5C223.9 202.9 227.9 200.5 232.5 197.1C237.6 193.5 240.9 189.6 242.6 185.8C243.119 184.554 243.476 183.551 243.7 182.832C243.29 183.367 242.945 183.7 242.6 183.7C242.498 183.7 242.371 183.519 242.27 183.21ZM203.5 171.8C205.4 168.7 206.6 165.8 206.6 163.2C206.6 160.1 205.2 158.4 202.5 158.5C199.2 158.5 197.3 160.4 196.3 164.5C196.1 165.4 196.1 165.9 196.1 165.9C196.1 166.1 196.3 166.1 196.3 166.1C196.5 166.1 196.8 165.8 197.5 165.6C198.2 165.1 199.1 164.9 200.1 164.9C201.7 164.9 202.7 165.8 202.7 167.5C202.7 169.7 199.8 173.5 194.3 179.5C193.4 180.7 192.9 181.2 192.9 181.4L192.9 181.6C193.1 181.6 193.9 181.2 195.3 180.2C198.7 177.8 201.3 174.9 203.5 171.8ZM441.3 196.1C438.7 196.8 437.2 197.3 436.7 197.3L436.7 197C436.7 197 437.7 196.3 439.6 195.1C441.5 193.9 444.4 192 448.5 188.9C450.4 187 453.3 183.9 456.9 179.5C459.3 176.6 461.9 174 464.8 172.1C468.4 169.5 471.8 168.3 475.4 168.3C476.1 168.3 477.3 168.5 478.8 169C480 169.5 481.2 169.7 482.2 169.7C484.1 169.7 485.6 169 486.8 167.5C487.5 166.1 488.5 164.9 489.4 163.4C489.9 162.4 490.6 162 491.1 162C491.3 162 491.3 162.2 491.3 162.7C491.3 163.2 491.1 164.4 490.6 165.8C490.1 166.5 492 166.8 495.6 166.8C496.1 166.8 496.3 166.8 496.3 166.6C496.3 166.6 496.1 165.6 495.6 164C495.4 163.5 495.6 162.8 496.3 161.8L496.38 161.664C497.322 160.063 497.708 159.405 498 159.6C499 160.3 499.4 161.8 499.4 163.4C499.4 165.1 498.9 166.8 498.2 168.7C497.5 170.9 496.8 172.1 496.3 172.5C494.6 173.5 492 173.2 488.4 171.5C485.5 174.4 482.6 176.1 479.8 176.1C479.1 176.1 477.9 175.9 476.7 175.4C475.5 174.9 474.5 174.7 473.8 174.7C469 174.7 464 176.9 458.9 181.7L448.1 192.5C445.9 194.2 443.7 195.4 441.3 196.1ZM88.1 160.8C77 164.6 66.7 168.4 57.1 171.8C55.9 174.2 55.2 176.4 54.8 178.6C67 173 77.8 169 87.4 165.6C87.9 165.2 88.6 164 89.3 161.8C89.7 161.1 89.7 160.6 89.5 160.6C89.377 160.416 89.254 160.458 88.9451 160.564C88.7516 160.631 88.4851 160.723 88.1 160.8ZM177.4 197.1C178.3 195.2 178.8 194 178.8 193C178.8 192 178 190.8 176.5 189.9C175 189.1 174.1 188.9 173.1 188.9C170.2 188.9 166.1 191.1 161.3 195.4C164.4 189.7 166.1 184.9 166.1 181.5C166.1 176.5 164.2 174.1 160.8 174.1C159.3 174.1 157.9 174.9 156.2 176.3C154.7 178 154 179.6 154 181.8L154 183.5C154.2 183.5 154.5 183.2 155.2 182.5C156.6 181.1 157.8 180.6 159.5 180.6C160.2 180.6 160.9 181 161.4 182C162.1 183.2 162.6 184.4 162.6 185.8C162.6 186.1 161.2 190.2 158.8 197.6C157.2 199.8 155.5 201.4 153.8 202.4C149 203.3 144.2 203.6 139.9 203.1C138.7 202.9 138 202.9 138 202.9C137.881 202.979 137.809 203.027 137.797 203.087C137.779 203.178 137.898 203.298 138.2 203.6L139.2 204.6C140.2 205.3 141.9 206.2 144.5 207.2C147.4 208.2 149.6 208.9 151 208.9C159.6 208.9 167.3 206.2 174.5 201.2C175.5 200.7 176.4 199.3 177.4 197.1ZM172.2 195.1C173 195.6 173.2 195.8 173.2 196.3C173.2 196.6 171.6 197.5 168.1 198.9C164.5 200.6 161.4 201.6 159 201.8C159.9 200.4 161.9 198.9 164.5 197C167.1 195.3 168.8 194.6 170 194.6C170.8 194.6 171.5 194.6 172.2 195.1Z" id="Group" fill="#595959" fill-rule="evenodd" stroke="none" clip-path="url(#clip_1)" />
  </g>
</svg>