<?xml version="1.0" encoding="utf-8"?>
<svg width="499.60004px" height="205.09999px" viewBox="0 0 499.60004 205.09999" version="1.1" xmlns:xlink="http://www.w3.org/1999/xlink" xmlns="http://www.w3.org/2000/svg">
  <defs>
    <path d="M499.6 0L499.6 0L499.6 205.1L0 205.1L0 0L499.6 0Z" id="path_1" />
    <clipPath id="clip_1">
      <use xlink:href="#path_1" clip-rule="evenodd" fill-rule="evenodd" />
    </clipPath>
  </defs>
  <g id="Surah_30_of_114_(modified)">
    <path d="M499.6 0L499.6 0L499.6 205.1L0 205.1L0 0L499.6 0Z" id="Surah_30_of_114_(modified)" fill="none" stroke="none" />
    <path d="M230.6 13.2C232.1 16.3 232.8 20.1 232.8 24.7C232.8 29.9 233.7 47 235.9 75.9C238.1 104.7 239.3 121.2 239.3 125.3C239.3 133.7 234.3 139.9 224.7 144L224.7 157.2C232.4 153.9 238.4 146.9 242.5 136.6C245.4 129.2 246.8 121.5 246.8 113.6C246.8 108.5 245.8 93.4 243.9 68.2C242 42.8 241 29.8 241 29.6C241 28.4 241.2 28.1 241.7 28.6C245.7 33.4 247.9 34.6 247.9 32.4C247.9 31.9 247.6 30.7 247.4 29.3C246.7 27.6 245 22.8 242.1 14.9C239.2 7.39999 237.3 2.89999 236.6 1.2C236.1 0.199997 235.9 0 235.4 0C235.2 0 234.9 0.300003 234.7 1C231.8 7.39999 230.6 11.5 230.6 13.2ZM252.2 14.1C253.7 17.3 254.4 21.1 254.4 25.9C254.4 29.9 255.6 48.9 258.1 82.8C260.5 116.6 261.7 135.8 261.7 140.6C261.7 145.7 261.5 150.2 261 154.3C260.971 154.679 260.942 155.044 260.914 155.393C260.75 157.435 260.629 158.946 260.8 159.8C261 160.5 261.3 160.5 262 159.3C262.5 158.4 262.9 157.2 263.9 155.5C267.2 146.9 268.9 136.8 268.9 125.5C268.9 121.7 268 105.1 265.8 75.6C263.6 45.9 262.4 31 262.4 30.5C262.4 29.3 262.6 28.8 263.1 29.5C267.4 34.3 269.3 35.5 269.3 33.3C269.3 32.8 269.3 31.6 268.8 30.4C268.3 28.5 266.6 23.7 263.5 15.8C260.6 8.29999 258.9 3.79999 258.2 2.09999C257.7 1.39999 257.5 0.899994 257 0.899994C256.8 0.899994 256.5 1.39999 256.3 2.09999C253.4 8.29999 252.2 12.4 252.2 14.1ZM209 23.2C206.6 29 205.4 33.5 205.4 36.9C205.4 41 206.4 43.1 208.5 43.1C209.9 43.1 211.4 41.4 212.8 38.5C213 38.3 213 38 213.3 37.8C213.5 37.8 213.5 37.8 213.5 38L213.5 38.7C212.3 45.9 210.1 49.5 207 49.5C203.9 49.5 202.4 46.9 202.4 41.6C202.4 39 203.1 35.6 204.3 31.3C205.7 27 206.5 24.8 206.5 24.6C206.5 24.1 205.5 23.2 203.4 22C200.8 25.6 197.6 28.7 193.8 31.6C189.2 35 185.2 37.4 181.6 39C180.6 39.2 176.3 40.9 168.6 43.8C167.4 44.3 166.4 44.5 166.2 44.5C166 44.5 166 44.5 166 44.3C166 44.1 166.5 43.6 167.9 42.6C173.7 39.2 179.4 35.6 185.4 32.3C192.4 28 197.4 24.1 200.8 20.5C196.2 18.1 194.1 15.7 194.1 13.1C194.1 9.99998 195.5 7.09999 198.4 4.49998C201.3 2.09999 203.7 1.09999 205.6 1.89998C207.3 2.39998 208 4.09998 208 6.89998C208 9.49998 207.5 12.4 206.3 15.5C208.7 16.9 209.9 18.4 209.9 19.8C209.986 20.4892 209.627 21.4753 209.206 22.6315C209.138 22.8168 209.069 23.0065 209 23.2ZM144.9 11.2C142.8 7.79999 140.4 6.39999 137.5 6.39999C137.2 6.39999 136.5 7.09999 135.5 9.00002C134.3 11 133.8 12.2 133.8 12.4C133.8 13.1 134.3 14.1 135.7 15.3C137.2 16.5 138.1 17.2 139.1 17.2C139.8 17.2 140.1 16.9 140.3 16.7C140.6 16.2 140.8 16.2 141.3 16.2C142.3 16.2 143.5 18.4 145.4 23.2C147.3 27.8 148.2 30.9 148 32.6C148.2 33.6 148.2 34.3 148.7 34.3C149.2 34.3 149.7 33.6 150.4 32.6C151.1 31 152.1 28.1 152.8 24C154.5 14.9 156.2 10.3 158.1 10.3C159 10.3 160 10.7 160.7 11.7C161.7 12.7 162.2 13.4 162.4 13.4C162.8 13.4 163.3 12.6 163.8 11.2C164.3 10.2 164.3 9.29999 164.3 8.79999C164.3 7.79999 163.9 6.79999 162.9 5.39999C161.9 3.89999 160.7 3.2 159.5 3.2C157.3 3.2 155.4 5.39999 153.5 9.7C151.8 16 150.6 20.8 150.1 23.9C150.1 24.4 149.9 24.7 149.9 24.9L149.7 24.9C149.7 24.6 149.7 24.4 149.5 23.9C148.7 18.6 147.1 14.3 144.9 11.2ZM304.8 15.3C304.8 17.9 306.9 20.3 311.5 22.7C308.1 26.3 303.1 30.2 296.1 34.4C290.1 37.7 284.4 41.1 278.6 44.7C277.2 45.4 276.7 46.2 276.7 46.4C276.7 46.4 276.7 46.6 276.9 46.6C277.1 46.6 278.1 46.4 279.3 45.9C287 43.1 291.3 41.4 292.3 40.9C295.9 39.5 299.9 36.8 304.5 33.7C308.3 30.8 311.5 27.7 314.1 24.1C316.3 25.3 317.7 26.5 318.2 27.5C320.3 24.7 321.3 22.5 321.3 21.3C320.8 20.3 319.4 19.1 317 17.9C318.2 14.5 318.7 11.6 318.7 9.00002C318.7 6.20001 318 4.50002 316.3 4.00002C314.4 3.3 312 4.3 309.1 6.90001C306.2 9.3 304.8 12.2 304.8 15.3ZM203.7 14.3C204.2 12.9 204.2 11.4 203.9 10C203.7 8.60001 202.9 7.8 201.7 7.8C201.2 7.8 200.5 8 199.5 8.5C198.5 9 198.1 9.5 198.1 9.89999C198.2 11.2 200.1 12.7 203.7 14.3ZM314.6 12.2C314.9 13.6 314.9 15.1 314.4 16.5C310.8 14.8 308.8 13.4 308.8 12.1C308.8 11.7 309.2 11.2 310.2 10.7C311.2 10.2 311.9 10 312.4 10C313.6 10 314.4 10.8 314.6 12.2ZM356.1 29.4C356.1 29.4 355.9 29.7 355.9 29.9C354.2 32.8 352.8 34.5 351.2 34.5C349.1 34.5 348.1 32.3 348.1 28.5C348.1 25.4 349.3 20.3 351.7 12.9C352.2 11.2 352.4 10.2 352.4 10C352.1 10 351.7 10.9 350.7 12.6C346.9 19.6 345.2 26.5 345.2 33C345.2 38.3 346.7 40.9 349.8 40.9C352.9 40.9 355.1 37.3 356.3 30.1C356.5 29.9 356.5 29.6 356.3 29.4C356.3 29.3093 356.3 29.2598 356.281 29.2513C356.259 29.2411 356.209 29.2907 356.1 29.4ZM106.8 30.7C106.8 30.5 107 30.2 107 30.2C107.109 30.0906 107.159 30.0411 107.181 30.0513C107.2 30.0598 107.2 30.1093 107.2 30.2C107.4 30.4 107.4 30.7 107.2 30.9C106 38.1 103.8 41.7 100.7 41.7C97.6 41.7 96.1 39.1 96.1 33.8C96.1 27.3 97.8 20.4 101.6 13.4C102.6 11.7 103 10.8 103.3 10.8C103.3 11 103.1 12 102.6 13.7C100.2 21.1 99 26.2 99 29.3C99 33.1 100 35.3 102.1 35.3C103.6 35.2 105.1 33.5 106.8 30.7ZM337.9 60.4C362.1 51.3 387.3 42.2 413.3 32.6C413.502 32.5422 413.688 32.4762 413.849 32.4186C414.247 32.2768 414.5 32.1866 414.5 32.4C414.7 32.4 414.7 32.9 414.5 33.6C413.5 35.8 412.8 37 412.3 37.4C412.1 37.6 399.8 42.2 376.1 51.1C351.9 60 338.2 65.5 335.5 67.2C336 65 336.7 62.8 337.9 60.4ZM468.4 61.6C466 67.4 464.8 71.9 464.8 75.3C464.8 79.4 465.8 81.5 467.9 81.5C469.1 81.5 470.5 79.8 472.2 76.9C472.4 76.7 472.4 76.4 472.7 76.2C472.7 76.2 472.9 76.2 472.9 76.4L472.9 77.1C471.5 84.3 469.3 87.9 466.4 87.9C463.3 87.9 461.8 85.3 461.8 80C461.8 77.4 462.3 74 463.7 69.7C465.1 65.4 465.9 63.2 465.9 63C465.9 62.5 464.9 61.6 462.8 60.4C459 65.4 453.7 70.2 447 74.3C442.4 76.9 437.9 79.3 433.1 81.3C424.2 84.9 418.9 86.8 417.7 87.5C416.5 88 415.8 88.2 415.3 88.2C415.1 88.2 415.1 88 415.1 88C415.1 87.5 415.6 87 417 86.1C424.7 81.8 432.1 77.5 439.8 73.1C449.9 67.3 456.8 62.5 460.2 58.9C455.6 56.5 453.5 54.1 453.5 51.5C453.5 48.4 454.9 45.5 457.8 42.9C460.7 40.5 463.1 39.5 465 40.3C466.4 40.8 467.4 42.5 467.4 45.3C467.4 47.9 466.9 50.8 465.7 53.9C468.1 55.3 469.1 56.8 469.1 58.2C469.2 59 468.9 60.2 468.4 61.6ZM80.1 48.4C80.1 48.9 79.9 49.8 79.4 50.8C79.2 52.2 78.7 53 78 53C77.8 53 77.3 52.3 76.3 51.3C75.6 50.3 74.6 49.9 73.9 49.9C72 49.9 70.1 54.5 68.4 63.6C67.7 67.7 67 70.6 66 72.2C65.7667 72.5332 65.5557 72.8331 65.3595 73.0849C65.5827 72.422 65.7 71.9937 65.7 71.8L65.7 71.6C65.5552 71.6 64.9912 72.2287 63.9702 73.4104C63.8726 73.1113 63.8 72.6919 63.8 72.2C63.8 70.5 62.8 67.4 60.9 62.8C59 58 57.8 55.8 57.1 55.8C56.4 55.8 56.1 55.8 55.9 56.3C55.9 56.5 55.4 56.8 54.7 56.8C53.7 56.8 52.8 56.1 51.3 54.9C50.1 53.7 49.4 52.7 49.4 52C49.4 51.8 49.9 50.6 51.1 48.6C52.3 46.7 53 46 53.3 46C55.9 46 58.3 47.4 60.5 50.8C62.9 54.2 64.3 58.2 65.3 63.5L65.3 64.5C65.4093 64.6093 65.4589 64.6589 65.4814 64.6487C65.5 64.6403 65.5 64.5907 65.5 64.5C65.5 64.3 65.7 64 66 63.5C66.2 60.4 67.4 55.6 69.1 49.3C71 45 72.9 42.8 75.1 42.8C76.3 42.8 77.5 43.5 78.7 45C79.6 46.5 80.1 47.5 80.1 48.4ZM65.3595 73.0849C65.1218 73.7907 64.7641 74.7624 64.3 76C62.6 79.8 59.3 83.7 54.2 87.3C49.6 90.7 45.6 93.1 42 94.7C41.3 95.2 37 96.9 29 99.7C27.8 100.2 27.1 100.4 26.6 100.4C26.4 100.4 26.4 100.2 26.4 100.2C26.4 100 27.1 99.2 28.3 98.5C34.8 94.7 43.9 89.1 55.9 81.2C58.8 79 60.9 76.9 62.6 75C63.1246 74.3924 63.5807 73.8612 63.9702 73.4104C64.071 73.7193 64.1984 73.9 64.3 73.9C64.6334 73.9 64.9668 73.5888 65.3595 73.0849ZM463.2 52.7C463.7 51.3 463.7 49.8 463.4 48.4C463.2 47 462.4 46.2 461.2 46.2C460.7 46.2 460 46.4 459 46.9C458 47.4 457.6 47.9 457.6 48.3C457.6 49.6 459.6 51.1 463.2 52.7ZM307.4 51.3L303.6 59.2C302.6 58.3 300.4 56.6 297.4 54.7C294.3 52.5 292.6 51.3 292.1 51.3C291.8 51.3 291.3 51.8 291.1 52.3L286.5 61.9C286.3 62.4 286.3 62.7 286.5 62.9C290.4 65.3 294.2 67.9 297.8 70.8C298.3 71.1 298.8 70.8 299 70.1C300.5 67.9 301.7 65.3 303.1 62.4C307.2 65 310.8 67.4 313.9 69.8C314.3 70 314.8 70 315.3 69.3C318.4 64 320.1 60.4 320.1 58.7C320.1 58.2 318.2 56.8 314.6 54.4C310.8 51.8 308.9 50.6 308.4 50.6C307.9 50.6 307.6 50.8 307.4 51.3ZM61.6 107.7C75 97.1 87.8 89.9 100.2 85.9C99.2 84.5 98 81.8 96.4 78.5C95.4 76.8 95.2 74.9 95.2 72.5C95.2 68.7 96.2 65.5 98.1 62.9C100.3 59.5 103.6 58.1 108.2 58.1C111.8 58.1 116.8 60.3 123.3 64.8C130.3 69.6 133.9 73.4 133.9 76.6C132.7 80.7 131.5 84.5 130.1 88.1C124.6 89.8 117.9 91.9 109.9 94.3C110.1 98.9 109.7 101.3 108.5 101.3C107.8 101.3 106.8 99.6 105.9 96C104.444 96.5665 102.758 97.2638 100.836 98.0855C100.751 98.6051 100.636 99.2309 100.5 100C97.4 110.6 95.9 118.5 95.9 123.8C95.9 129.1 97.1 133.4 99.5 136.8C103.4 142 109.4 144.7 117.8 144.7C124.3 144.7 132.4 141.8 142 136.1C149.7 131.5 157.4 126 164.8 119.3C171.3 113.3 175.1 109 176.1 106.6C175.4 102.8 170.3 100.8 161 100.8C149.5 100.8 143.7 96.7 143.7 89C143.7 83 145.6 77.7 149.5 72.9C153.1 68.8 156.9 66.7 160.8 66.7C165.4 66.7 169.4 69.6 173.5 75.3C176.9 80.1 179.3 85.6 180.2 91.6C180.9 94.2 181.2 96.9 181.2 99.5C181.2 109.1 178.6 116.5 173.8 122.1C167.3 129.5 159.9 136.3 151.7 142.7C150.492 143.67 149.3 144.597 148.124 145.483C147.761 147.506 146.119 152.357 143.4 159.9C140 168.8 138.4 175.5 138.4 180.5C138.4 184.3 139.4 187.5 141.3 189.6C143.2 192.2 145.9 193.4 149.2 193.4C155.2 193.4 161.4 190.3 167.4 184.3C171.6 179.9 175.4 175.1 179.2 170.6C184.2 164.8 191 159.8 199.4 155.2C204.2 152.6 212.6 148.7 224.6 143.7L224.6 156.9C216.9 160.3 211.4 162.7 207.8 164.3C200.4 167.9 195.3 170.5 192.7 172.7C187.7 176.5 180.2 184 170.6 195C164.8 201.7 159.1 205.1 153.3 205.1C148.5 205.1 144.2 202.9 140.6 198.4C136.8 194.1 135.1 188.3 135.1 181.8C135.1 173.051 138.579 161.596 145.727 147.245C134.574 155.24 124.903 159.3 116.9 159.3C108.7 159.3 102.5 156.2 98.2 150.2C94.4 144.9 92.4 138.4 92.4 130.5C92.4 120.4 94.6 109.9 98.6 99.3C98.6544 99.1911 98.7074 99.0851 98.7591 98.9819C96.411 100.003 93.7612 101.179 90.8 102.5C81.4 106.8 74.2 110.9 69.4 114.7C62.2 120.5 54.8 127.4 47.1 135.8C38.5 145.2 33.7 150.4 32.2 151.6C27.4 155.9 22.8 158.1 18.5 158.1C13.5 158.1 9.10001 155.7 5.5 151.4C1.7 146.8 0 141.3 0 134.8C0 125.7 3.60001 113.9 11 99.5C11.1825 99.1351 11.3649 98.7973 11.5439 98.4974C11.4961 98.4991 11.4482 98.5 11.4 98.5C8.29996 98.5 6.79996 95.9 6.79996 90.6C6.79996 84.1 8.49995 77.2 12.3 70.2C13.3 68.5 13.7 67.6 14 67.6C14 67.8 13.8 68.8 13.3 70.5C10.9 77.9 9.69995 83 9.69995 86.1C9.69995 89.9 10.7 92.1 12.8 92.1C14.4 92.1 15.8 90.4 17.5 87.5C17.5 87.3 17.7 87 17.7 87C17.8093 86.8907 17.8588 86.8411 17.8813 86.8513C17.9 86.8597 17.9 86.9093 17.9 87C18.1 87.2 18.1 87.5 17.9 87.7C16.9296 93.522 15.3055 96.9901 13.0803 98.1044C12.883 99.8484 11.2071 104.835 8.29999 112.9C4.89999 121.5 3.49998 128.5 3.49998 133.5C3.49998 137.3 4.19998 140.5 6.09999 142.9C7.99998 145.3 10.7 146.5 14 146.5C18.8 146.5 23.8 144.1 29.4 139.5C32.5 137.1 37.6 131.8 44.5 123.9C51.6 116.6 57.1 111.1 61.6 107.7ZM385.8 68.1C383.7 64.7 381.3 63.3 378.4 63.3C378.2 63.3 377.5 64 376.4 65.9C375.2 67.9 374.7 69.1 374.7 69.3C374.7 70 375.2 71 376.6 72.2C378.1 73.4 379 74.1 380 74.1C380.7 74.1 381 73.8 381.2 73.6C381.5 73.1 381.7 73.1 382.2 73.1C383.2 73.1 384.4 75.3 386.3 80.1C388.2 84.7 389.1 87.8 388.9 89.5C389.1 90.5 389.1 91.2 389.6 91.2C390.1 91.2 390.6 90.5 391.3 89.5C392 87.9 393 85 393.7 80.9C395.4 71.8 397.1 67.2 399 67.2C399.9 67.2 400.9 67.6 401.6 68.6C402.6 69.6 403.1 70.3 403.3 70.3C403.7 70.3 404.2 69.5 404.7 68.1C405.2 67.1 405.2 66.2 405.2 65.7C405.2 64.7 404.8 63.7 403.8 62.3C402.8 60.8 401.6 60.1 400.4 60.1C398.2 60.1 396.3 62.3 394.4 66.6C392.7 72.9 391.5 77.7 391 80.8C391 81.3 390.8 81.6 390.8 81.8L390.6 81.8C390.6 81.5 390.6 81.3 390.4 80.8C389.6 75.5 388 71.2 385.8 68.1ZM218.9 86.3C219.8 84.4 220.3 82.2 220.3 80.3C220.3 79.4 219.8 77.9 218.7 76C217.5 72.7 216.8 71 216.8 71C216.6 70 216.3 68.8 216.1 67.6C216.1 66.7 215.8 66.2 215.6 66.2C215.3 66.2 215.1 66.7 214.6 67.4C213.6 68.6 213.4 69.8 213.4 71.2C213.4 73.8 214.9 77.4 217.5 82.2C217.3 83.7 216.3 84.4 214.9 84.4C211.7 84.4 210.3 82.3 210.3 78.2C210.3 76.8 209.8 74.6 209.1 71.5C208.4 68.6 207.9 67.2 207.4 67.2C207.2 67.2 206.7 67.6 206.2 68.6C205.7 69.8 205.5 70.5 205.5 71C205.5 71.5 205.8 72.9 206.5 75.1C207 77.5 207.5 78.9 207.5 79.9C207.5 81.6 206.8 83 205.6 84.2C204.4 85.4 203.2 86.1 201.8 86.1C200.9 86.1 199.9 85.1 199.2 83.7C198.7 82.5 198.5 81 198.5 79.6C198.5 78.9 198.5 78.2 198.7 77.2C198.7 76.2 198.9 75 198.9 73.6C198.9 71 198.4 69.8 197.7 69.8C197.2 69.8 196.5 70.3 195.5 71.5C194.6 72.7 194.1 73.9 194.1 75.3C194.1 76 194.4 76.5 195.1 76.7C195.6 77 196.1 77.2 196.1 77.7L196.1 83.8C196.1 86.2 196.6 88.4 197.8 89.8C198.8 91.3 200 92 201.2 92C204.8 92 207.2 89.4 208.6 84.6C209.8 88.5 211.7 90.4 214.6 90.4C216.3 90.4 217.7 88.9 218.9 86.3ZM118.3 78.7C118.3 77.7 116.1 76.1 111.6 74.1C107 72.2 103.7 71.5 101.5 71.9C100.5 72.1 100.3 72.4 100.5 72.6C101.2 74.8 102.9 78.4 105.5 83.4C112.3 81.3 116.4 79.9 118.3 78.7ZM326.4 77.2C326.4 81 324.5 86.3 320.6 92.8C318.2 96.9 314.6 102.4 309.8 109.6C314.6 115.1 318 120.2 319.6 124.5C320.6 127.6 321.3 131.7 321.3 136.3C321.3 138.2 320.8 140.6 319.9 143.7C319.2 146.6 318.2 148.7 317.3 150.2C315.4 153.1 312.3 156 307.5 158.8C302.5 162.2 298.1 163.8 294.5 163.8C288.7 163.8 285.9 159.5 285.9 150.8C285.9 145 286.9 139.3 288.8 134C290.7 129.4 293.8 123.4 298.9 115.5C294.6 111.4 290 105.7 285 98.5C284.5 97.8 283.3 96.6 281.4 94.7C280.4 93.7 280 92.5 280 91.1C280 88.9 280.2 86.5 280.7 83.7C281.4 80.8 281.9 79.6 282.1 79.6C282.8 79.6 285 80.8 289.1 83.4C292.9 86 296.1 88 298 89.6C299.2 90.3 299.7 91 299.7 91L299.7 91.2C299.7 91.4 299 91.7 297.3 91.7C294.2 91.7 292.5 91.9 292.5 92.2C292.5 92.4 293 92.9 293.9 94.1C297.7 98.9 301.6 102.5 305.7 105.4C306.7 104 310 99.2 315.3 91C319.9 84 322.5 79.2 323.7 76.4C324.9 73.5 325.6 72.3 326.1 72.3C326.1 72.3148 326.107 72.3606 326.118 72.4386C326.182 72.8854 326.4 74.3902 326.4 77.2ZM163.6 82.2C165.3 83.9 166.7 85.6 167.7 87.5C166.8 87.3 163.9 87.3 159.6 87.3C153.8 87.3 151.2 85.9 151.2 83C151.2 80.8 153.3 79.6 157.4 79.6C159.3 79.6 161.2 80.3 163.6 82.2ZM343.8 105.6C344.8 106.8 345.5 108.4 346 110.6C347.2 114.7 349.6 120.4 352.9 127.5C355.8 133.8 357.2 137.1 357.2 137.6C357.2 139.6 354.3 142.7 348.8 147C343.96 150.597 337.667 154.707 329.919 159.274C330.647 154.785 331.934 149.382 333.8 143C334.1 141.5 334.3 140.3 334.3 139.6C334.3 139.1 334.3 138.9 334.1 138.9C333.6 138.9 333.1 139.9 331.9 142.3C329.519 148.729 327.776 154.981 326.755 161.119C323.531 162.976 320.08 164.904 316.4 166.9C307 172 295.3 177.5 281.1 183.5C260.7 192.1 249.6 196.9 247.7 197.9C242.4 200.3 239.8 201.8 239.8 202C239.8 202.2 239.8 202.2 240.3 202.2C241.3 202.2 243.7 201.9 247.5 201.2C251.1 200.7 260.2 198.6 274.6 195.2C288.3 191.9 295.5 190.2 296 190.2C298.6 190.2 307 186.1 321.4 177.7C322.883 176.869 324.327 176.043 325.732 175.222C326.003 182.389 327.979 188.567 331.5 193.2C335.8 199.2 342 202.3 350.2 202.3C359.8 202.3 370.8 197.3 383.8 187.7C392.5 181.2 400.4 173.7 407.6 165.1C410.7 161.5 413.3 156.9 415 151.4C416.5 147 417.2 143.7 417.2 140.8L417.7 140.3L417.7 140.7C426.1 136.8 432.6 132.8 436.4 128.2C436.4 139.2 441.2 145 451.3 145C459.7 145 466.6 140.2 471.9 130.6C475.1 136.4 478.7 139.5 482.5 139.5C488.3 139.5 492.6 136.9 495.5 131.6C498.2 127.2 499.6 122.2 499.6 116.2C499.6 112.3 498.4 109 496.5 106.1C495.8 105.1 495.3 104.9 494.8 104.9C494.3 104.9 493.8 105.7 493.6 107.1C492.2 111.6 491.2 115 491 116.9C493.1 120.5 494.1 122.5 494.1 122.7C493.1 124.3 491 125.3 487.6 125.3C485 125.3 482.6 124.3 480.9 122.9C479 121.5 478 119.8 478 118.1C478 118.6 478.7 116.7 479.7 112.6C480.2 110.5 480 109.5 479 109.5C478.3 109.5 477.6 109.9 476.6 110.9C474.2 114.8 471.6 118.6 469.2 122.7C465.3 127.8 460.3 130.4 454.3 130.4C446.8 130.4 443 127.5 443 122.2C443 121 443.2 119.5 443.7 117.6C444.2 115.7 444.4 114.2 444.4 113.5C444.4 112.6 444.2 112.1 443.7 112.1C443 112.1 442 112.5 440.8 113.5C437 116.8 433.2 119.7 429.2 121.7C428 122.5 423.9 124.4 417.7 127.5L417.7 127.1C416.7 127.6 416.2 127.6 416 127.6C413.6 122.6 410.7 118.5 407.6 114.9C404 111.3 400.9 109.4 397.8 109.4C393.7 109.4 389.9 111.5 386.3 115.6C382.5 120.4 380.8 125.7 380.8 131.7C380.8 139.6 386.6 143.7 398.1 143.7C403.4 143.7 407.7 143 410.6 142C411.1 143.7 411.6 145.4 411.6 146.8C411.6 149 408 153.3 401 160.1C393.3 167.3 385.4 173.3 377.2 178.3C366.8 184.6 358.2 187.7 351 187.7C342.6 187.7 336.6 185 332.8 180C331.377 177.865 330.376 175.449 329.796 172.794C342.015 165.329 350.945 158.294 356.7 151.8C358.7 149.6 360.1 146.5 361.3 142.4C362.2 138.8 362.7 135.9 362.7 133.5C362.7 128.4 361.2 122.9 358.6 116.2C356.9 112.4 355 108.3 353.3 104.2C356.2 104.9 358.1 105.4 358.8 105.4C359.3 105.4 359.5 105.1 359.5 104.9C359.5 104.4 358.8 103.5 357.1 101.8C353.1 97.7 349.5 93.8 346.1 90C345.6 89.5 345.3 89.3 345.1 89.3C344.6 89.3 344.3 89.8 344.1 91C343.6 92.2 343.4 94.4 342.9 97.5C342.4 100.8 342.4 102.5 342.4 103C342.6 103.4 343.1 104.2 343.8 105.6ZM200.6 129C202.5 125.9 203.7 123 203.7 120.4C203.7 117.3 202.3 115.6 199.6 115.8C196.3 115.8 194.4 117.7 193.4 121.8C193.2 122.7 193.2 123.2 193.2 123.2C193.2 123.4 193.4 123.4 193.4 123.4C193.6 123.4 193.9 123.1 194.6 122.9C195.3 122.4 196.2 122.2 197.2 122.2C198.8 122.2 199.8 123.1 199.8 124.8C199.8 127 196.9 130.8 191.4 136.8C190.5 138 190 138.5 190 138.7L190 138.8C190.2 138.8 191 138.4 192.4 137.4C195.8 135 198.4 132.1 200.6 129ZM317 136.3C314.4 131 309.8 125.5 303.6 120.2C301.4 122.4 298.8 126.4 295.4 132.2C291.6 138.7 289.9 142.8 289.9 144.9C289.9 147.8 291.8 149.2 296.1 149.2C298 149.2 300.4 148.5 303.5 147.3C307.8 145.4 311.9 142.7 315.3 139.4C316.8 137.9 317.2 137 317 136.3ZM404.1 129.3C400.5 124.7 397.4 122.6 394.5 122.6C390.2 122.6 388.3 123.6 388.3 126C388.3 128.9 391.2 130.3 396.9 130.3C398.93 130.3 401.129 129.874 403.5 129.416C403.699 129.377 403.899 129.339 404.1 129.3ZM65.5 141.8C67.2 141.8 69.1 142.8 71.7 144.9C74.3 146.8 75.8 148.7 76 150.2C76.2 150.7 75.8 151.6 75 153.3C74.3 155 73.8 155.7 73.6 155.7C71.2 156.4 68.8 157.1 66.4 157.9C63.3 158.9 61.4 160.1 60.2 161.3C63.6 171.4 65.2 181.2 65.2 191.1C65.2 194 64.7 196.9 64.2 200C64 201 63.7 201.4 63.5 201.7C63.3 201.7 63.3 199.8 63.3 196.4C63.3 190.9 62.3 183.9 60.7 176C59 168.1 58.3 163.3 58.3 162.3C58.3 158.2 59.3 155.3 61.7 153.4C62.7 152.7 64.8 151.7 67.7 150.8C66.5 149.6 65.3 149.1 64.1 149.1C63.6 149.1 62.9 149.6 61.9 150.8C60.9 152.2 60.2 152.7 60.2 152.7C60 152.7 59.7 152.2 60 151.3C60.7 144.9 62.6 141.8 65.5 141.8ZM430 192.9C427.4 193.6 425.9 194.1 425.4 194.1L425.4 193.9C425.4 193.9 426.4 193.2 428.3 192C430.2 190.8 433.1 188.9 437.2 185.8C439.1 183.9 442 180.8 445.6 176.4C448 173.5 450.6 170.9 453.5 169C457.1 166.4 460.5 165.2 464.1 165.2C464.8 165.2 466 165.4 467.5 165.9C468.7 166.4 469.9 166.6 470.9 166.6C472.8 166.6 474.3 165.9 475.5 164.4C476.2 163 477.2 161.8 478.1 160.3C478.6 159.3 479.3 158.9 479.8 158.9C480 158.9 480 159.1 480 159.6C480 160.1 479.8 161.3 479.3 162.7C478.8 163.4 480.7 163.7 484.3 163.7C484.8 163.7 485 163.7 485 163.5C485 163.5 484.8 162.5 484.3 160.9C484.1 160.4 484.3 159.7 485 158.7L485.08 158.564C486.022 156.963 486.408 156.305 486.7 156.5C487.7 157.2 488.1 158.7 488.1 160.3C488.1 162 487.6 163.7 486.9 165.6C486.2 167.8 485.5 169 485 169.4C483.3 170.4 480.7 170.1 477.1 168.4C474.2 171.3 471.3 173 468.5 173C467.8 173 466.6 172.8 465.4 172.3C464.2 171.8 463.2 171.6 462.5 171.6C457.7 171.6 452.7 173.8 447.6 178.6L436.8 189.4C434.6 191 432.4 192.2 430 192.9ZM97.8 178C95.7 174.6 93.3 173.2 90.4 173.2C90.2 173.2 89.5 173.9 88.3999 175.8C87.1999 177.8 86.6999 179 86.6999 179.2C86.6999 179.9 87.1999 180.9 88.5999 182.1C90.0999 183.3 90.9999 184 91.9999 184C92.6999 184 92.9999 183.7 93.1999 183.5C93.4999 183 93.6999 183 94.1999 183C95.1999 183 96.3999 185.2 98.2999 190C100.2 194.6 101.1 197.7 100.9 199.4C101.1 200.4 101.1 201.1 101.6 201.1C102.1 201.1 102.6 200.4 103.3 199.4C104 197.8 105 194.9 105.7 190.8C107.4 181.7 109.1 177.1 111 177.1C111.9 177.1 112.9 177.5 113.6 178.5C114.6 179.5 115.1 180.2 115.3 180.2C115.7 180.2 116.2 179.4 116.7 178C117.2 177 117.2 176.1 117.2 175.6C117.2 174.6 116.8 173.6 115.8 172.2C114.8 170.7 113.6 170 112.4 170C110.2 170 108.3 172.2 106.4 176.5C104.7 182.8 103.5 187.6 103 190.7C103 191.2 102.8 191.5 102.8 191.7L102.6 191.7C102.6 191.4 102.6 191.2 102.4 190.7C101.6 185.4 100 181.1 97.8 178ZM225.3 190.7C225.3 190.5 225.5 190.2 225.5 190.2C225.609 190.091 225.659 190.041 225.681 190.051C225.7 190.06 225.7 190.109 225.7 190.2C225.9 190.4 225.9 190.7 225.7 190.9C224.5 198.1 222.3 201.7 219.2 201.7C216.1 201.7 214.6 199.1 214.6 193.8C214.6 187.3 216.3 180.4 220.1 173.4C221.1 171.7 221.5 170.8 221.8 170.8C221.8 171 221.6 172 221.1 173.7C218.7 181.1 217.5 186.2 217.5 189.3C217.5 193.1 218.5 195.3 220.6 195.3C222.2 195.3 223.6 193.6 225.3 190.7Z" id="Group" fill="#595959" fill-rule="evenodd" stroke="none" clip-path="url(#clip_1)" />
  </g>
</svg>