<?xml version="1.0" encoding="utf-8"?>
<svg width="572.8002px" height="202.51701px" viewBox="0 0 572.8002 202.51701" version="1.1" xmlns:xlink="http://www.w3.org/1999/xlink" xmlns="http://www.w3.org/2000/svg">
  <defs>
    <path d="M572.8 0L572.8 0L572.8 202.517L0 202.517L0 0L572.8 0Z" id="path_1" />
    <clipPath id="clip_1">
      <use xlink:href="#path_1" clip-rule="evenodd" fill-rule="evenodd" />
    </clipPath>
  </defs>
  <g id="Surah_44_of_114_(modified)">
    <path d="M572.8 0L572.8 0L572.8 202.517L0 202.517L0 0L572.8 0Z" id="Surah_44_of_114_(modified)" fill="none" stroke="none" />
    <path d="M266.1 18.917C261.5 16.517 259.4 14.117 259.4 11.517C259.4 8.41704 260.8 5.51704 263.7 3.11705C266.6 0.517044 269 -0.482956 270.9 0.217056C272.6 0.717056 273.3 2.41705 273.3 5.21706C273.3 7.81706 272.8 10.7171 271.6 14.1171C274 15.317 275.4 16.517 275.9 17.517C275.9 18.717 274.9 20.917 272.8 23.717C272.3 22.717 270.9 21.517 268.7 20.317C266.1 23.9171 262.9 27.017 259.1 29.9171C254.5 33.0171 250.5 35.7171 246.9 37.1171C245.9 37.6171 241.6 39.317 233.9 42.1171C232.7 42.6171 231.7 42.817 231.5 42.817C231.3 42.817 231.3 42.6171 231.3 42.6171C231.3 42.4171 231.8 41.6171 233.2 40.9171C239 37.317 244.7 33.9171 250.7 30.6171C257.7 26.417 262.7 22.517 266.1 18.917ZM378 14.417C378 17.017 380.1 19.417 384.7 21.817C381.3 25.417 376.3 29.217 369.3 33.517C363.3 36.817 357.6 40.217 351.8 43.817C350.4 44.517 349.9 45.317 349.9 45.517C349.9 45.517 349.9 45.717 350.1 45.717C350.3 45.717 351.3 45.517 352.5 45.017C360.2 42.217 364.5 40.517 365.5 40.017C369.1 38.6171 373.1 35.9171 377.7 32.817C381.5 29.917 384.7 26.817 387.3 23.217C389.5 24.417 390.9 25.617 391.4 26.617C393.5 23.817 394.5 21.617 394.5 20.417C394 19.417 392.6 18.217 390.2 17.017C391.4 13.6171 391.9 10.7171 391.9 8.11705C391.9 5.31705 391.2 3.61705 389.5 3.11705C387.6 2.41704 385.2 3.41704 382.3 6.01704C379.4 8.41704 378 11.317 378 14.417ZM164.8 6.71703C167.7 6.71703 170.1 8.11702 172.2 11.517C174.4 14.617 176 18.917 176.8 24.217C177 24.717 177 24.917 177 25.217L177.2 25.217C177.2 25.017 177.4 24.717 177.4 24.217C177.9 21.117 179.1 16.317 180.8 10.017C182.7 5.71703 184.6 3.51703 186.8 3.51703C188 3.51703 189.2 4.21703 190.2 5.71703C191.2 7.11702 191.6 8.11702 191.6 9.11702C191.6 9.61702 191.6 10.517 191.1 11.517C190.6 12.917 190.1 13.717 189.7 13.717C189.5 13.717 189 13.017 188 12.017C187.3 11.017 186.3 10.617 185.4 10.617C183.5 10.617 181.8 15.217 180.1 24.317C179.4 28.417 178.4 31.317 177.7 32.917C177 33.917 176.5 34.617 176 34.617C175.5 34.617 175.5 33.917 175.3 32.917C175.5 31.217 174.6 28.117 172.7 23.517C170.8 18.717 169.6 16.517 168.6 16.517C168.1 16.517 167.9 16.517 167.6 17.017C167.4 17.217 167.1 17.517 166.4 17.517C165.4 17.517 164.5 16.817 163 15.617C161.6 14.417 161.1 13.417 161.1 12.717C161.1 12.517 161.6 11.317 162.8 9.31705C163.9 7.41704 164.6 6.71703 164.8 6.71703ZM325.3 17.017C326.8 20.217 327.5 24.017 327.5 28.817C327.5 32.817 328.7 51.817 331.2 85.717C333.6 119.517 334.8 138.717 334.8 143.517C334.8 148.617 334.6 153.117 334.1 157.217C334.071 157.596 334.042 157.961 334.014 158.31C333.85 160.352 333.729 161.863 333.9 162.717C334.1 163.417 334.4 163.417 335.1 162.217C335.6 161.317 336 160.117 337 158.417C340.3 149.817 342 139.717 342 128.417C342 124.617 341.1 108.017 338.9 78.517C336.7 48.817 335.5 33.917 335.5 33.417C335.5 32.217 335.7 31.717 336.2 32.417C340.5 37.217 342.4 38.417 342.4 36.217C342.4 35.717 342.4 34.517 341.9 33.317C341.4 31.417 339.7 26.617 336.6 18.717C333.7 11.217 332 6.71703 331.3 5.01703C330.8 4.31703 330.6 3.81703 330.1 3.81703C329.9 3.81703 329.6 4.31703 329.4 5.01703C326.5 11.217 325.3 15.317 325.3 17.017ZM432.6 25.117C432.6 25.117 432.4 25.417 432.4 25.617C430.7 28.517 429.3 30.217 427.7 30.217C425.6 30.217 424.6 28.017 424.6 24.217C424.6 21.117 425.8 16.017 428.2 8.61703C428.7 6.91704 428.9 5.91704 428.9 5.71704C428.6 5.71704 428.2 6.61705 427.2 8.31705C423.4 15.317 421.7 22.217 421.7 28.717C421.7 34.017 423.2 36.617 426.3 36.617C429.4 36.617 431.6 33.017 432.8 25.817C433 25.617 433 25.317 432.8 25.117C432.8 25.0264 432.8 24.9768 432.781 24.9683C432.759 24.9582 432.709 25.0077 432.6 25.117ZM269 12.717C269.5 11.317 269.5 9.81703 269.2 8.41702C269 7.01703 268.2 6.21703 267 6.21703C266.5 6.21703 265.8 6.41702 264.8 6.91702C263.8 7.41702 263.4 7.91702 263.4 8.31702C263.5 9.61703 265.4 11.017 269 12.717ZM146.6 142.517C148.982 144.774 151.404 146.756 153.939 148.438C152.362 142.864 151.7 138.562 151.7 135.217C151.7 127.817 152.7 122.217 154.8 119.117C158.9 112.417 165.1 109.017 173.3 109.017C177.1 109.017 185.3 110.917 198.3 114.517C212.9 118.617 221.6 120.717 224.7 121.217C226.479 121.464 228.137 121.698 229.676 121.915C236.876 122.932 241.476 123.582 243.7 123.417C245.1 123.617 245.9 123.917 245.6 124.817C245.5 125.017 245.5 125.517 245.2 126.217L241.4 135.617C241.2 136.817 240.4 137.317 239.5 137.317C234.5 137.317 229.9 138.017 225.8 139.517C221.266 141.312 213.074 145.248 201.478 151.409C201.398 151.697 201.306 152 201.2 152.317C198.3 162.917 196.9 170.817 196.9 176.317C196.7 184.317 200.6 188.117 208.3 188.117C219.3 188.117 231.1 183.817 243.8 175.117C253.6 168.417 261.3 161.417 266.8 154.017C268.7 151.617 269.4 150.417 269.4 150.417C270.1 149.217 270.4 147.817 270.4 145.817C270.4 141.217 269 134.017 266.6 124.017C264.7 116.317 259.9 104.817 252.7 89.017C252.5 88.517 252.7 86.617 253.4 83.017C253.9 79.617 254.1 77.217 254.6 75.817C255.1 74.117 255.8 73.617 256.8 74.817C265.2 86.117 271.7 101.917 275.8 121.817C277.5 130.717 279.9 143.217 282.5 159.017C283.7 166.017 285.9 170.317 289.2 172.417C290.9 173.617 293.8 174.117 297.4 174.117L297.4 174.517C301.965 174.489 306.431 172.591 310.7 169.017C311.9 168.017 312.6 164.017 312.6 157.217C312.6 153.117 311.4 136.617 309.2 107.817C307 79.017 306.1 62.017 306.1 56.717C306.1 52.117 305.4 48.317 303.9 45.217C303.9 43.517 305.3 39.417 308 33.017C308.2 32.317 308.5 32.017 309 32.017C309.2 32.017 309.5 32.217 310 33.217C310.7 34.917 312.6 39.417 315.5 46.917C318.4 54.817 320.1 59.617 320.8 61.317C321 62.717 321.3 63.917 321.3 64.417C321.3 66.6171 319.1 65.417 315.1 60.6171C314.6 60.1171 314.4 60.417 314.4 61.6171C314.4 61.8171 315.4 74.8171 317.3 100.217C319.1 125.217 320.1 140.417 320.1 145.417C320.1 159.617 317.5 170.617 312.4 178.817C308.1 185.517 303 189.117 297.3 189.117L297.3 188.817C292.049 188.804 287.982 187.804 285.2 185.717C280.9 182.617 278.2 176.817 276.6 168.417C276.1 165.517 275.2 159.817 274 150.917C272.8 157.917 270.4 163.617 266.8 168.217C259.6 177.117 250.7 184.817 240.6 191.217C228.8 198.617 218 202.517 208.2 202.517C203.2 202.517 199.1 200.317 196.4 196.017C194.2 192.417 193.3 188.117 193.3 182.817C193.3 173.052 195.357 162.913 199.108 152.672C182.455 161.469 170.054 165.917 162.2 165.917C161.2 169.517 160.5 171.417 159.8 171.417C159.1 171.417 158.6 169.717 158.1 166.117C158.1 166.117 158.3 165.917 158.6 165.917C158.597 165.883 158.594 165.848 158.59 165.813C152.795 163.414 148.498 161.016 145.4 158.817C141.1 155.417 137.7 151.417 135.3 146.117C132.7 140.317 130.7 125.517 130 101.517C128.8 69.117 128.1 51.317 127.6 47.717C126.4 35.917 124.5 27.317 122.1 21.517C122.1 19.317 123.1 15.517 125.5 10.017C126 8.81702 126.5 8.11702 126.7 8.11702C126.9 8.11702 127.4 8.81702 127.9 9.81702C130.8 15.317 132.9 25.217 134.4 39.117C135.1 44.117 135.6 54.717 136.1 70.317C136.3 80.417 136.6 90.5171 137.1 100.317C137.9 123.117 141.1 137.217 146.6 142.517ZM387.7 11.317C388 12.717 388 14.217 387.5 15.617C383.9 13.917 382 12.417 381.9 11.217C381.9 10.817 382.3 10.317 383.3 9.81703C384.3 9.31703 385 9.11703 385.5 9.11703C386.7 9.11703 387.5 9.91704 387.7 11.317ZM72.2 23.517C75.1 23.517 77.5 24.917 79.6 28.317C81.8 31.417 83.4 35.717 84.2 41.017C84.4 41.517 84.4 41.717 84.4 42.017L84.6 42.017C84.6 41.817 84.8 41.517 84.8 41.017C85.3 37.917 86.5 33.117 88.2 26.817C90.1 22.517 92 20.317 94.2 20.317C95.4 20.317 96.6 21.017 97.6 22.517C98.6 23.917 99 24.917 99 25.917C99 26.417 99 27.317 98.5 28.317C98 29.717 97.5 30.517 97.1 30.517C96.9 30.517 96.4 29.817 95.4 28.817C94.7 27.817 93.7 27.417 92.8 27.417C90.9 27.417 89.2 32.017 87.5 41.117C86.8 45.217 85.8 48.117 85.1 49.717C84.4 50.717 83.9 51.417 83.4 51.417C82.9 51.417 82.9 50.717 82.7 49.717C82.9 48.017 82 44.917 80.1 40.317C78.2 35.517 77 33.317 76 33.317C75.5 33.317 75.3 33.317 75 33.817C74.8 34.017 74.5 34.317 73.8 34.317C72.8 34.317 71.9 33.6171 70.4 32.4171C69 31.2171 68.5 30.2171 68.5 29.5171C68.5 29.3171 69 28.1171 70.2 26.1171C71.2 24.217 71.9 23.517 72.2 23.517ZM234.2 21.817C208.2 31.417 183 40.517 158.8 49.617C157.6 52.017 156.9 54.217 156.4 56.417C159.1 54.717 172.8 49.217 197 40.317C220.7 31.417 233 26.817 233.2 26.617C233.7 26.217 234.4 25.017 235.4 22.817C235.6 22.117 235.6 21.617 235.4 21.617C235.4 21.4037 235.147 21.4938 234.749 21.6356C234.588 21.6932 234.402 21.7593 234.2 21.817ZM411.1 59.517C435.3 50.417 460.5 41.317 486.5 31.717C486.702 31.6593 486.888 31.5932 487.049 31.5356C487.447 31.3938 487.7 31.3037 487.7 31.517C487.9 31.517 487.9 32.017 487.7 32.717C486.7 34.917 486 36.117 485.5 36.517C485.3 36.717 473 41.317 449.3 50.217C425.1 59.1171 411.4 64.6171 408.7 66.317C409.1 64.017 409.9 61.917 411.1 59.517ZM285.3 55.917C286.2 54.017 286.7 51.817 286.7 49.917C286.7 48.917 286.3 47.517 285.1 45.517C283.9 42.217 283.2 40.517 283.2 40.517C283 39.517 282.7 38.317 282.5 37.1171C282.5 36.2171 282.2 35.7171 282 35.7171C281.7 35.7171 281.5 36.2171 281 36.9171C280 38.1171 279.8 39.3171 279.8 40.7171C279.8 43.3171 281.3 46.9171 283.9 51.7171C283.7 53.2171 282.7 53.9171 281.3 53.9171C278.1 53.9171 276.7 51.8171 276.7 47.7171C276.7 46.3171 276.2 44.1171 275.5 41.0171C274.8 38.1171 274.3 36.7171 273.8 36.7171C273.6 36.7171 273.1 37.1171 272.6 38.1171C272.1 39.317 271.9 40.017 271.9 40.517C271.9 41.017 272.2 42.4171 272.9 44.6171C273.4 47.0171 273.9 48.4171 273.9 49.4171C273.9 51.1171 273.2 52.517 272 53.7171C270.8 54.917 269.6 55.6171 268.2 55.6171C267.3 55.6171 266.3 54.6171 265.6 53.2171C265.1 52.017 264.9 50.517 264.9 49.1171C264.9 48.4171 264.9 47.7171 265.1 46.7171C265.1 45.7171 265.3 44.517 265.3 43.1171C265.3 40.517 264.8 39.317 264.1 39.317C263.6 39.317 262.9 39.817 261.9 41.017C261 42.217 260.5 43.4171 260.5 44.817C260.5 45.517 260.8 46.017 261.5 46.217C262 46.517 262.5 46.717 262.5 47.217L262.5 53.417C262.5 55.817 263 58.017 264.2 59.417C265.2 60.917 266.4 61.6171 267.6 61.6171C271.2 61.6171 273.6 59.017 275 54.2171C276.2 58.1171 278.1 60.017 281 60.017C282.7 60.017 284.1 58.517 285.3 55.917ZM541.6 60.417C539.2 66.217 538 70.717 538 74.1171C538 78.2171 539 80.3171 541.1 80.3171C542.3 80.3171 543.7 78.6171 545.4 75.7171C545.6 75.517 545.6 75.2171 545.9 75.017C545.9 75.017 546.1 75.017 546.1 75.2171L546.1 75.9171C544.7 83.1171 542.5 86.7171 539.6 86.7171C536.5 86.7171 535 84.1171 535 78.8171C535 76.2171 535.5 72.8171 536.9 68.5171C538.3 64.2171 539.1 62.0171 539.1 61.8171C539.1 61.3171 538.1 60.4171 536 59.2171C532.2 64.2171 526.9 69.017 520.2 73.1171C515.6 75.7171 511.1 78.1171 506.3 80.1171C497.4 83.7171 492.1 85.6171 490.9 86.3171C489.7 86.8171 489 87.0171 488.5 87.0171C488.3 87.0171 488.3 86.8171 488.3 86.8171C488.3 86.3171 488.8 85.8171 490.2 84.9171C497.9 80.6171 505.3 76.3171 513 71.9171C523.1 66.1171 530 61.3171 533.4 57.7171C528.8 55.3171 526.7 52.9171 526.7 50.3171C526.7 47.2171 528.1 44.3171 531 41.7171C533.9 39.3171 536.3 38.3171 538.2 39.1171C539.6 39.6171 540.6 41.317 540.6 44.1171C540.6 46.7171 540.1 49.6171 538.9 52.7171C541.3 54.1171 542.3 55.6171 542.3 57.017C542.3 57.817 542.1 59.017 541.6 60.417ZM536.3 51.617C536.8 50.217 536.8 48.717 536.5 47.317C536.3 45.917 535.5 45.117 534.3 45.117C533.8 45.117 533.1 45.317 532.1 45.817C531.1 46.317 530.7 46.817 530.7 47.217C530.8 48.417 532.7 49.917 536.3 51.617ZM38.1 58.717C37.9 59.217 37.9 59.517 38.1 59.717C41.9 62.117 45.8 64.817 49.5 67.617C49.9903 67.9112 50.1922 67.6285 50.6712 66.9574L50.7 66.917C54 61.617 55.7 58.317 55.7 56.617C55.7 56.117 53.7 54.617 49.9 52.017C46.3 49.617 44.2 48.417 43.7 48.417C43.4 48.417 42.9 48.617 42.7 49.117L38.1 58.717ZM380.5 50.417L376.7 58.317C375.8 57.317 373.6 55.617 370.5 53.8171C367.4 51.6171 365.7 50.4171 365.2 50.4171C364.9 50.4171 364.4 50.9171 364.2 51.4171L359.6 61.0171C359.4 61.5171 359.4 61.8171 359.6 62.0171C363.5 64.4171 367.3 67.0171 370.9 69.9171C371.4 70.2171 371.9 69.9171 372.1 69.2171C373.6 67.017 374.8 64.417 376.2 61.517C380.3 64.1171 383.9 66.517 387 68.917C387.4 69.1171 387.9 69.1171 388.4 68.417C391.5 63.117 393.2 59.517 393.2 57.817C393.2 57.317 391.3 55.917 387.7 53.517C383.9 50.917 382 49.717 381.5 49.717C381 49.717 380.7 49.917 380.5 50.417ZM234.7 76.017C234.7 75.817 234.9 75.517 234.9 75.517L234.9 75.5169C235.01 75.4072 235.059 75.3582 235.081 75.3683C235.1 75.3768 235.1 75.4264 235.1 75.517C235.3 75.7171 235.3 76.017 235.1 76.2171C233.9 83.4171 231.7 87.017 228.6 87.017C225.5 87.017 224 84.417 224 79.1171C224 72.6171 225.7 65.7171 229.5 58.7171C230.5 57.017 230.9 56.1171 231.2 56.1171C231.2 56.3171 231 57.3171 230.5 59.017C228.1 66.417 226.9 71.517 226.9 74.6171C226.9 78.417 227.9 80.6171 230 80.6171C231.5 80.617 233 78.917 234.7 76.017ZM112.8 123.317C116.8 118.517 119 111.517 119 102.417C119 97.917 117.3 92.417 114.1 86.3171C110.3 78.3171 108.1 74.0171 107.9 73.3171C110.6 74.0171 112.5 74.5171 113.7 74.5171C114.9 74.5171 115.4 74.2171 115.4 73.5171C115.4 72.8171 115 72.1171 114 71.1171C108 65.1171 103.9 61.1171 102 58.9171C101.6 58.4171 101.1 58.2171 100.6 58.2171C100.1 58.2171 99.8 58.7171 99.6 59.9171C98.4 66.4171 97.7 70.017 97.7 70.7171C97.7 71.6171 98.1 72.3171 99.1 73.3171C99.8 74.017 100.8 75.417 101.5 77.6171C103.2 84.3171 105.8 91.2171 109.4 98.2171C112.5 104.217 114.2 107.317 114.2 107.817C114.2 110.217 110.4 114.217 103.2 120.017C95 126.217 85.9 131.517 75.6 135.817C63.1 141.117 51.1 143.717 39.8 143.717C27.1 143.717 17.2 139.417 10.5 131.217C5.50001 124.817 3.10001 118.017 3.10001 110.617C3.10001 108.417 3.50001 105.117 4.50001 100.517C5.00001 98.1171 5.50001 95.517 6.2 93.1171C6.36695 92.2267 6.441 91.5221 6.38766 91.0722C9.17921 90.6385 11.1773 87.0534 12.3 80.317C12.5 80.117 12.5 79.817 12.3 79.617C12.3 79.5263 12.3 79.4768 12.2814 79.4683C12.2589 79.4581 12.2094 79.5077 12.1 79.617C12.1 79.617 11.9 79.917 11.9 80.117C10.3 83.017 8.80003 84.717 7.20004 84.717C5.10004 84.717 4.10004 82.517 4.10004 78.717C4.10004 75.617 5.30003 70.517 7.70004 63.117C8.20004 61.417 8.40003 60.417 8.40003 60.217C8.10004 60.217 7.70004 61.117 6.70004 62.817C2.90003 69.817 1.20004 76.717 1.20004 83.217C1.20004 88.1468 2.4978 90.7406 5.17379 91.0789C4.91278 91.4011 4.62841 91.8541 4.30001 92.417C2.90001 96.517 1.70001 101.317 0.700012 106.817C0.200012 110.617 1.52588e-05 114.217 1.52588e-05 117.817C1.52588e-05 123.317 0.500015 127.617 1.90002 131.217C8.80002 149.217 21.6 158.317 39.8 158.317C53.7 158.317 68.4 153.717 84.2 145.117C96.7 137.917 106.3 130.717 112.8 123.317ZM459.3 67.217C457.2 63.817 454.8 62.417 451.9 62.417C451.6 62.417 450.9 63.117 449.9 65.0171C448.7 67.0171 448.2 68.2171 448.2 68.4171C448.2 69.1171 448.7 70.1171 450.1 71.3171C451.6 72.517 452.5 73.2171 453.5 73.2171C454.2 73.2171 454.5 72.9171 454.7 72.7171C455 72.2171 455.2 72.2171 455.7 72.2171C456.7 72.2171 457.9 74.4171 459.8 79.2171C461.7 83.8171 462.6 86.917 462.4 88.6171C462.6 89.6171 462.6 90.3171 463.1 90.3171C463.6 90.3171 464.1 89.6171 464.8 88.6171C465.5 87.017 466.5 84.1171 467.2 80.017C468.9 70.917 470.6 66.317 472.5 66.317C473.4 66.317 474.4 66.717 475.1 67.717C476.1 68.717 476.6 69.417 476.8 69.417C477.2 69.417 477.7 68.617 478.2 67.217C478.7 66.217 478.7 65.317 478.7 64.817C478.7 63.817 478.3 62.817 477.3 61.417C476.3 59.917 475.1 59.217 473.9 59.217C471.7 59.217 469.8 61.417 467.9 65.717C466.2 72.017 465 76.817 464.5 79.917C464.5 80.417 464.3 80.717 464.3 80.917L464.1 80.917C464.1 80.6171 464.1 80.417 463.9 79.917C463.1 74.617 461.5 70.317 459.3 67.217ZM167 82.517C168.9 79.417 170.1 76.517 170.1 73.917C170.1 70.817 168.7 69.117 166 69.217C162.7 69.217 160.8 71.117 159.8 75.217C159.6 76.117 159.6 76.617 159.6 76.617C159.6 76.817 159.8 76.817 159.8 76.817C160 76.817 160.3 76.517 161 76.317C161.7 75.817 162.6 75.617 163.6 75.617C165.2 75.617 166.2 76.517 166.2 78.217C166.2 80.417 163.3 84.217 157.8 90.217C156.9 91.417 156.4 91.917 156.4 92.117L156.4 92.317C156.6 92.317 157.4 91.917 158.8 90.917C162.2 88.517 164.8 85.6171 167 82.517ZM183.5 80.817C183.3 80.617 183.3 80.317 183.5 79.817L188.1 70.217C188.3 69.717 188.8 69.517 189.1 69.517C189.6 69.517 191.7 70.717 195.3 73.117C199.1 75.717 201.1 77.217 201.1 77.717C201.1 79.417 199.4 82.717 196.1 88.017L196.071 88.0573C195.592 88.7284 195.39 89.0112 194.9 88.717C191.2 85.917 187.4 83.217 183.5 80.817ZM399.5 76.317C399.5 80.117 397.6 85.417 393.7 91.917C391.3 96.017 387.7 101.517 382.9 108.717C387.7 114.217 391.1 119.317 392.7 123.617C393.7 126.717 394.4 130.817 394.4 135.417C394.4 137.317 393.9 139.717 393 142.817C392.3 145.717 391.3 147.817 390.4 149.317C388.5 152.217 385.4 155.117 380.6 157.917C375.6 161.317 371.2 162.917 367.6 162.917C361.8 162.917 359 158.617 359 149.917C359 144.117 360 138.417 361.9 133.117C363.8 128.517 366.9 122.517 372 114.617C367.7 110.517 363.1 104.817 358.1 97.617C357.6 96.917 356.4 95.717 354.5 93.817C353.5 92.817 353.1 91.617 353.1 90.217C353.1 88.017 353.3 85.617 353.8 82.817C354.5 79.917 355 78.717 355.2 78.717C355.9 78.717 358.1 79.917 362.2 82.517C366 85.117 369.2 87.117 371.1 88.717C372.3 89.417 372.8 90.117 372.8 90.117L372.8 90.317C372.8 90.517 372.1 90.817 370.4 90.817C367.3 90.817 365.6 91.017 365.6 91.317C365.6 91.517 366.1 92.017 367 93.217C370.8 98.017 374.7 101.617 378.8 104.517C379.8 103.117 383.1 98.317 388.4 90.117C393 83.117 395.6 78.317 396.8 75.517C398 72.617 398.7 71.417 399.2 71.417C399.3 71.517 399.5 72.917 399.5 76.317ZM47.7 94.817C45.6 91.417 43.2 90.017 40.3 90.017C40 90.017 39.3 90.717 38.3 92.6171C37.1 94.6171 36.6 95.8171 36.6 96.0171C36.6 96.7171 37.1 97.7171 38.5 98.9171C40 100.117 40.9 100.817 41.9 100.817C42.6 100.817 42.9 100.517 43.1 100.317C43.4 99.8171 43.6 99.8171 44.1 99.8171C45.1 99.8171 46.3 102.017 48.2 106.817C50.1 111.417 51 114.517 50.8 116.217C51 117.217 51 117.917 51.5 117.917C52 117.917 52.5 117.217 53.2 116.217C53.9 114.617 54.9 111.717 55.6 107.617C57.3 98.517 59 93.917 60.9 93.917C61.8 93.917 62.8 94.317 63.5 95.317C64.5 96.317 65 97.017 65.2 97.017C65.6 97.017 66.1 96.217 66.6 94.817C67.1 93.817 67.1 92.917 67.1 92.417C67.1 91.417 66.7 90.417 65.7 89.017C64.7 87.517 63.5 86.817 62.3 86.817C60.1 86.817 58.2 89.017 56.3 93.317C54.6 99.6171 53.4 104.417 52.9 107.517C52.9 108.017 52.7 108.317 52.7 108.517L52.5 108.517C52.5 108.217 52.5 108.017 52.3 107.517C51.5 102.217 49.9 97.917 47.7 94.817ZM417 104.617C418 105.817 418.7 107.417 419.2 109.617C420.4 113.717 422.8 119.517 426.1 126.517C429 132.817 430.4 136.117 430.4 136.617C430.4 138.617 427.5 141.717 422 146.017C417.141 149.628 410.817 153.757 403.026 158.346C403.756 153.865 405.04 148.477 406.9 142.117C407.2 140.617 407.4 139.417 407.4 138.717C407.4 138.217 407.4 138.017 407.2 138.017C406.7 138.017 406.2 139.017 405 141.417C402.625 147.83 400.885 154.066 399.862 160.189C396.666 162.03 393.245 163.941 389.6 165.917C380.2 171.017 368.5 176.517 354.3 182.517C333.9 191.117 322.8 195.917 320.9 196.917C315.6 199.317 313 200.817 313 201.017C313 201.217 313 201.217 313.5 201.217C314.5 201.217 316.9 200.917 320.7 200.217C324.3 199.717 333.4 197.617 347.8 194.217C361.5 190.917 368.7 189.217 369.2 189.217C371.8 189.217 380.2 185.117 394.6 176.717C396.047 175.906 397.458 175.1 398.831 174.298C399.096 181.482 401.072 187.675 404.6 192.317C408.9 198.317 415.1 201.417 423.3 201.417C432.9 201.417 443.9 196.417 456.9 186.817C465.6 180.317 473.5 172.817 480.7 164.217C483.8 160.617 486.4 156.017 488.1 150.517C489.6 146.117 490.3 142.817 490.3 139.917L490.8 139.417L490.8 126.217C489.8 126.717 489.3 126.717 489.1 126.717C486.7 121.717 483.8 117.617 480.7 114.017C477.1 110.417 474 108.517 470.9 108.517C466.8 108.517 463 110.617 459.4 114.717C455.6 119.517 453.9 124.817 453.9 130.817C453.9 138.717 459.7 142.817 471.2 142.817C476.5 142.817 480.8 142.117 483.7 141.117C484.2 142.817 484.7 144.517 484.7 145.917C484.7 148.017 481.1 152.417 474.1 159.217C466.4 166.417 458.5 172.417 450.3 177.417C439.9 183.717 431.3 186.817 424.1 186.817C415.7 186.817 409.7 184.117 405.9 179.117C404.471 176.973 403.467 174.546 402.889 171.877C415.162 164.388 424.129 157.33 429.9 150.817C431.9 148.617 433.3 145.517 434.5 141.417C435.4 137.817 435.9 134.917 435.9 132.517C435.9 127.417 434.4 121.917 431.8 115.217C430.1 111.417 428.2 107.317 426.5 103.217C429.4 103.917 431.3 104.417 432 104.417C432.5 104.417 432.7 104.117 432.7 103.917C432.7 103.417 432 102.517 430.3 100.817C426.3 96.717 422.7 92.817 419.3 89.017C418.8 88.517 418.5 88.317 418.3 88.317C417.8 88.317 417.5 88.817 417.3 90.017C416.8 91.217 416.6 93.417 416.1 96.517C415.6 99.817 415.6 101.517 415.6 102.017C415.8 102.417 416.3 103.217 417 104.617ZM516.9 111.117C516.2 111.117 515.2 111.517 514 112.517C510.2 115.917 506.3 118.817 502.4 120.717C501.2 121.517 497.1 123.417 490.9 126.517L490.9 139.717C499.3 135.817 505.8 131.817 509.6 127.217C509.6 138.217 514.4 144.017 524.5 144.017C532.9 144.017 539.8 139.217 545.1 129.617C548.3 135.417 551.9 138.517 555.7 138.517C561.5 138.517 565.8 135.917 568.7 130.617C571.4 126.217 572.8 121.217 572.8 115.217C572.8 111.317 571.6 108.017 569.7 105.117C569 104.117 568.5 103.917 568 103.917C567.5 103.917 567 104.717 566.8 106.117C565.4 110.617 564.4 114.017 564.2 115.917C566.3 119.517 567.3 121.517 567.3 121.717C566.3 123.317 564.2 124.317 560.8 124.317C558.2 124.317 555.8 123.317 554.1 121.917C552.2 120.517 551.2 118.817 551.2 117.117C551.2 117.617 551.9 115.717 552.9 111.617C553.4 109.517 553.2 108.517 552.2 108.517C551.5 108.517 550.8 108.917 549.8 109.917C547.4 113.817 544.8 117.617 542.4 121.717C538.5 126.817 533.5 129.417 527.5 129.417C520 129.417 516.2 126.517 516.2 121.217C516.2 120.017 516.4 118.517 516.9 116.617C517.4 114.717 517.6 113.217 517.6 112.517C517.6 111.617 517.4 111.117 516.9 111.117ZM390.2 135.317C387.6 130.017 383 124.517 376.8 119.217C374.6 121.417 372 125.417 368.6 131.217C364.8 137.717 363.1 141.817 363.1 143.917C363.1 146.817 365 148.217 369.3 148.217C371.2 148.217 373.6 147.517 376.7 146.317C381 144.417 385.1 141.717 388.5 138.417C389.9 137.017 390.4 136.017 390.2 135.317ZM477.3 128.417C473.7 123.817 470.6 121.717 467.7 121.717C463.4 121.717 461.5 122.717 461.5 125.117C461.5 128.017 464.4 129.417 470.1 129.417C472.3 129.317 474.7 128.817 477.3 128.417ZM169.1 122.417C176.3 122.417 191.5 126.017 214.5 133.217L193.8 142.517C181.1 148.217 171.7 151.117 165.7 151.117C164.5 151.117 163.1 150.917 161.9 150.917C159 142.517 156.9 136.217 155.2 132.417C155.2 130.517 156.4 128.417 159 126.217C161.9 123.617 165.3 122.417 169.1 122.417ZM503.2 192.017C500.6 192.717 499.1 193.217 498.6 193.217L498.6 193.017C498.6 193.017 499.6 192.317 501.5 191.117C503.4 189.917 506.3 188.017 510.4 184.917C512.3 183.017 515.2 179.917 518.8 175.517C521.2 172.617 523.8 170.017 526.7 168.117C530.3 165.517 533.7 164.317 537.3 164.317C538 164.317 539.2 164.517 540.7 165.017C541.9 165.517 543.1 165.717 544.1 165.717C546 165.717 547.5 165.017 548.7 163.517C549.4 162.117 550.4 160.917 551.3 159.417C551.8 158.417 552.5 158.017 553 158.017C553.2 158.017 553.2 158.217 553.2 158.717C553.2 159.217 553 160.417 552.5 161.817C552 162.517 553.9 162.817 557.5 162.817C558 162.817 558.2 162.817 558.2 162.617C558.2 162.617 558 161.617 557.5 160.017C557.3 159.517 557.5 158.817 558.2 157.817L558.28 157.681C559.222 156.08 559.608 155.422 559.9 155.617C560.9 156.317 561.3 157.817 561.3 159.417C561.3 161.117 560.8 162.817 560.1 164.717C559.4 166.917 558.7 168.117 558.2 168.517C556.5 169.517 553.9 169.217 550.3 167.517C547.4 170.417 544.5 172.117 541.7 172.117C541 172.117 539.8 171.917 538.6 171.417C537.4 170.917 536.4 170.717 535.7 170.717C530.9 170.717 525.9 172.917 520.8 177.717L510 188.517C507.8 190.017 505.6 191.217 503.2 192.017ZM88 163.417C90.9 163.417 93.3 164.817 95.4 168.217C97.6 171.317 99.2 175.617 100 180.917C100.2 181.417 100.2 181.617 100.2 181.917L100.4 181.917C100.4 181.717 100.6 181.417 100.6 180.917C101.1 177.817 102.3 173.017 104 166.717C105.9 162.417 107.8 160.217 110 160.217C111.2 160.217 112.4 160.917 113.4 162.417C114.4 163.817 114.8 164.817 114.8 165.817C114.8 166.317 114.8 167.217 114.3 168.217C113.8 169.617 113.3 170.417 112.9 170.417C112.7 170.417 112.2 169.717 111.2 168.717C110.5 167.717 109.5 167.317 108.6 167.317C106.7 167.317 105 171.917 103.3 181.017C102.6 185.117 101.6 188.017 100.9 189.617C100.2 190.617 99.7 191.317 99.2 191.317C98.7 191.317 98.7 190.617 98.5 189.617C98.7 187.917 97.8 184.817 95.9 180.217C94 175.417 92.8 173.217 91.8 173.217C91.3 173.217 91.1 173.217 90.8 173.717C90.6 173.917 90.3 174.217 89.6 174.217C88.6 174.217 87.7 173.517 86.2 172.317C84.8 171.117 84.3 170.117 84.3 169.417C84.3 169.217 84.8 168.017 86 166.017C87.1 164.117 87.8 163.417 88 163.417ZM152.3 190.317C152.3 190.317 152.1 190.617 152.1 190.817C150.4 193.617 149 195.317 147.4 195.417C145.3 195.417 144.3 193.217 144.3 189.417C144.3 186.317 145.5 181.217 147.9 173.817C148.4 172.117 148.6 171.117 148.6 170.917C148.3 170.917 147.9 171.817 146.9 173.517C143.1 180.517 141.4 187.417 141.4 193.917C141.4 199.217 142.9 201.817 146 201.817C149.1 201.817 151.3 198.217 152.5 191.017C152.7 190.817 152.7 190.517 152.5 190.317C152.5 190.226 152.5 190.177 152.481 190.168C152.459 190.158 152.409 190.208 152.3 190.317Z" id="Group" fill="#595959" fill-rule="evenodd" stroke="none" clip-path="url(#clip_1)" />
  </g>
</svg>