<?xml version="1.0" encoding="utf-8"?>
<svg width="509.8001px" height="218.40005px" viewBox="0 0 509.8001 218.40005" version="1.1" xmlns:xlink="http://www.w3.org/1999/xlink" xmlns="http://www.w3.org/2000/svg">
  <defs>
    <path d="M509.8 0L509.8 0L509.8 218.4L0 218.4L0 0L509.8 0Z" id="path_1" />
    <clipPath id="clip_1">
      <use xlink:href="#path_1" clip-rule="evenodd" fill-rule="evenodd" />
    </clipPath>
  </defs>
  <g id="Surah_108_of_114_(modified)">
    <path d="M509.8 0L509.8 0L509.8 218.4L0 218.4L0 0L509.8 0Z" id="Surah_108_of_114_(modified)" fill="none" stroke="none" />
    <path d="M253.9 94.5C253.9 108.7 251.3 119.7 246.2 127.9C241.9 134.6 236.8 138.2 231.1 138.2L231.1 123.6C235.7 123.6 240.2 121.7 244.5 118.1C245.7 117.1 246.4 113.1 246.4 106.3C246.4 102 245.4 88.3 243.8 65.5C242.703 50.6582 242.022 39.689 241.678 32.673C241.488 32.9142 241.295 33.1566 241.1 33.4C238.5 36.3 235.8 39.2 233.2 42.3C229.1 47.1 226.2 50.9 224.8 54.1C223.8 56.3 223.1 57.2 222.9 57.2C222.7 57.2 222.9 55.8 223.4 53.1C223.6 51.4 224.8 48.8 226.8 45.2C228.7 41.8 230.2 39.7 231.1 38.5C235.534 33.375 239.006 29.3111 241.422 26.2319C241.407 25.624 241.4 25.1132 241.4 24.7C241.4 22.1485 241.092 19.8432 240.579 17.767C240.006 17.7225 239.379 17.7 238.7 17.7C231.5 17.7 214.9 23.7 189 35.5C162.8 47.7 144.8 57.6 135.2 65.3C134.9 65.7 134.9 66.2 135.6 66.7C142.6 69.8 149.3 73.4 156 77.3C172.1 86.4 186.2 95.8 198.5 105.9C206.2 112.4 211.2 116.2 213.6 117.7C219.6 121.8 225.4 123.7 230.9 123.7L230.9 138.3C225.4 138.3 220.3 137.1 216 134.5C213.4 133.1 209.5 129.9 204.5 125.4C198.7 120.1 193.9 116.3 190.1 113.6C189.1 112.9 188.7 112.6 188.4 112.6C188.2 112.6 188.4 113.3 189.1 114.5C191.3 119.5 192.2 123.1 192.2 125.5C192.2 133.9 189.8 140.1 185 144.5C181.6 147.4 174 151.5 162 156.7L162 143.5C168.7 140.4 173.3 138.7 175 137.7C180.8 135.1 184.8 132.7 187.2 130.7C188.4 129.7 188.6 128.5 188.2 127.3C186 120.8 179.6 113.4 168.5 104.7C156.3 95.1 143.8 85.3 131.3 75.7C131.1 75.5 130.8 74.5 130.8 72.8C130.8 69.7 131.3 66.1 132.5 61.8C133.7 57.2 134.9 54.1 136.3 52.9C144.7 45.5 162.5 35.6 189.8 23.4C214.615 12.1613 231.831 6.17705 241.522 5.08381C242.034 3.8473 242.627 2.48562 243.3 1C243.5 0.300003 243.8 0 244 0C244.5 0 244.7 0.199997 245.2 1C245.506 1.83044 246.041 3.17668 246.772 5.04707C248.256 5.25653 249.385 5.68483 250 6.30002C251 7.50002 251.4 9.20001 251.4 11.8C251.4 13.0909 251.232 14.4512 250.894 15.8808C253.745 23.0089 255.33 27.482 256 29.3C256.2 30.7 256.5 31.7 256.5 32.4C256.5 34.6 254.3 33.1 250.3 28.3C249.8 27.8 249.6 28.1 249.6 29.3C249.6 29.5 250.3 39.4 251.8 58.6C253.2 77.5 253.9 89.5 253.9 94.5ZM179.7 10C159.6 17.5 140.4 24.7 121.9 31.4C120.7 33.8 120 36 119.4 38.1C142 28.7 161.9 21 178.7 14.8C179.2 14.4 179.9 13.2 180.9 11C181.1 10.3 181.1 9.8 181.1 9.8C180.951 9.57643 180.635 9.68609 180.194 9.83925C180.044 9.8916 179.878 9.94905 179.7 10ZM265.7 35.3C265.7 30.5 265 26.7 263.5 23.5C263.5 21.8 264.7 17.7 267.6 11.5C267.8 10.8 268.1 10.3 268.3 10.3C268.8 10.3 269 10.8 269.5 11.5C270.2 13.2 271.9 17.7 274.8 25.2C277.9 33.1 279.6 37.9 280.1 39.8C280.6 41 280.6 42.2 280.6 42.7C280.6 44.9 278.7 43.7 274.4 38.9C273.9 38.2 273.7 38.7 273.7 39.9C273.7 40.4 274.9 55.3 277.1 85C279.3 114.5 280.2 131.1 280.2 134.9C280.2 146.2 278.5 156.3 275.2 164.9C274.2 166.6 273.8 167.8 273.3 168.7C272.6 169.9 272.3 169.9 272.1 169.2C271.929 168.346 272.05 166.835 272.214 164.793C272.242 164.444 272.271 164.079 272.3 163.7C272.8 159.6 273 155.1 273 150C273 145.2 271.8 126 269.4 92.1999C266.9 58.3 265.7 39.3 265.7 35.3ZM315.2 22.8C315.2 25.4 317.3 27.8 321.9 30.2C318.5 33.8 313.5 37.7 306.5 41.9C300.5 45.2 294.8 48.6 289 52.2C287.6 52.9 287.1 53.7 287.1 53.9C287.1 53.9 287.1 54.1 287.3 54.1C287.5 54.1 288.5 53.9 289.7 53.4C297.4 50.6 301.7 48.9 302.7 48.4C306.3 47 310.3 44.3 314.9 41.2C318.7 38.3 321.9 35.2 324.5 31.6C326.7 32.8 328.1 34 328.6 35C330.7 32.2 331.7 30 331.7 28.8C331.2 27.8 329.8 26.6 327.4 25.4C328.6 22 329.1 19.1 329.1 16.5C329.1 13.7 328.4 12 326.7 11.5C324.8 10.8 322.4 11.8 319.5 14.4C316.6 16.8 315.2 19.7 315.2 22.8ZM369.8 33.6C369.8 33.6 369.6 33.9 369.6 34.1C367.9 36.9 366.5 38.6 364.9 38.7C362.8 38.7 361.8 36.5 361.8 32.7C361.8 29.6 363 24.5 365.4 17.1C365.9 15.4 366.1 14.4 366.1 14.2C365.8 14.2 365.4 15.1 364.4 16.8C360.6 23.8 358.9 30.7 358.9 37.2C358.9 42.5 360.4 45.1 363.5 45.1C366.6 45.1 368.8 41.5 370 34.3C370.2 34.1 370.2 33.8 370 33.6C370 33.5093 370 33.4597 369.981 33.4513C369.959 33.4411 369.909 33.4907 369.8 33.6ZM324.9 19.7C325.2 21.1 325.2 22.6 324.7 24C321.1 22.3 319.2 20.9 319.1 19.6C319.1 19.2 319.5 18.7 320.5 18.2C321.5 17.7 322.2 17.5 322.7 17.5C323.9 17.5 324.7 18.3 324.9 19.7ZM50.9 39.3C69.4 32.6 88.6 25.4 108.7 17.9C108.878 17.849 109.044 17.7916 109.194 17.7392C109.635 17.5861 109.951 17.4764 110.1 17.7C110.1 17.7 110.1 18.2 109.9 18.9C108.9 21.1 108.2 22.3 107.7 22.7C90.9 28.9 71 36.6 48.4 46C49 43.9 49.7 41.7 50.9 39.3ZM83.3 46.5C83.1 47 83.1 47.3 83.3 47.5C87.1 49.9 91 52.5 94.6 55.2C95 55.7 95.5 55.4 96 54.7C99.1 49.4 100.8 46.1 100.8 44.4C100.8 43.9 98.9 42.4 95.3 39.8C91.5 37.4 89.6 36.2 89.1 36.2C88.6 36.2 88.3 36.4 88.1 36.9L83.3 46.5ZM348 67.9C372.2 58.8 397.4 49.7 423.4 40.1C423.602 40.0422 423.788 39.9761 423.949 39.9186C424.347 39.7768 424.6 39.6866 424.6 39.9C424.8 39.9 424.8 40.4 424.6 41.1C423.6 43.3 422.9 44.5 422.4 44.9C422.2 45.1 409.9 49.7 386.2 58.6C362 67.5 348.3 73 345.6 74.7C346.1 72.5 346.8 70.3 348 67.9ZM478.8 68.9C476.4 74.7 475.2 79.2 475.2 82.6C475.2 86.7 476.2 88.8 478.3 88.8C479.5 88.8 480.9 87.1 482.6 84.2C482.8 84 482.8 83.7 483.1 83.5C483.1 83.5 483.3 83.5 483.3 83.7L483.3 84.4C481.9 91.6 479.7 95.2 476.8 95.2C473.7 95.2 472.2 92.6 472.2 87.3C472.2 84.7 472.7 81.3 474.1 77C475.5 72.7 476.3 70.5 476.3 70.3C476.3 69.8 475.3 68.9 473.2 67.7C469.4 72.7 464.1 77.5 457.4 81.6C452.8 84.2 448.3 86.6 443.5 88.6C434.6 92.2 429.3 94.1 428.1 94.8C426.9 95.3 426.2 95.5 425.7 95.5C425.5 95.5 425.5 95.3 425.5 95.3C425.5 94.8 426 94.3 427.4 93.4C435.1 89.1 442.5 84.8 450.2 80.4C460.3 74.6 467.2 69.8 470.6 66.2C466 63.8 463.9 61.4 463.9 58.8C463.9 55.7 465.3 52.8 468.2 50.2C471.1 47.8 473.5 46.8 475.4 47.6C476.8 48.1 477.8 49.8 477.8 52.6C477.8 55.2 477.3 58.1 476.1 61.2C478.5 62.6 479.5 64.1 479.5 65.5C479.5 66.2 479.3 67.4 478.8 68.9ZM181.5 51.8C184.4 51.8 186.8 53.2 188.9 56.6C191.1 59.7 192.7 64 193.5 69.3C193.7 69.8 193.7 70 193.7 70.3L193.9 70.3C193.9 70.1 194.1 69.8 194.1 69.3C194.6 66.2 195.8 61.4 197.5 55.1C199.4 50.8 201.3 48.6 203.5 48.6C204.7 48.6 205.9 49.3 206.9 50.8C207.9 52.2 208.3 53.2 208.3 54.2C208.3 54.7 208.3 55.6 207.8 56.6C207.3 58 206.8 58.8 206.4 58.8C206.2 58.8 205.7 58.1 204.7 57.1C204 56.1 203 55.7 202.1 55.7C200.2 55.7 198.5 60.3 196.8 69.4C196.1 73.5 195.1 76.4 194.4 78C193.7 79 193.2 79.7 192.7 79.7C192.2 79.7 192.2 79 192 78C192.2 76.3 191.3 73.2 189.4 68.6C187.5 63.8 186.3 61.6 185.3 61.6C184.8 61.6 184.6 61.6 184.3 62.1C184.1 62.3 183.8 62.6 183.1 62.6C182.1 62.6 181.2 61.9 179.7 60.7C178.3 59.5 177.8 58.5 177.8 57.8C177.8 57.6 178.3 56.4 179.5 54.4C180.5 52.5 181.2 51.8 181.5 51.8ZM473.5 60C474 58.6 474 57.1 473.7 55.7C473.5 54.3 472.7 53.5 471.5 53.5C471 53.5 470.3 53.7 469.3 54.2C468.3 54.7 467.9 55.2 467.9 55.6C468 56.9 469.9 58.3 473.5 60ZM100.3 54.7L96.5 62.4C95.5 61.4 93.4 59.7 90.3 57.8C87.2 55.6 85.5 54.4 85 54.4C84.7 54.4 84.2 54.9 84 55.4L79.4 65C79.2 65.5 79.2 65.8 79.4 66C83.3 68.4 87.1 71 90.7 73.9C91.2 74.2 91.7 73.9 91.9 73.2C93.4 71 94.6 68.4 96 65.5C100.1 68.1 103.7 70.5 106.8 72.9C107.2 73.1 107.7 73.1 108.2 72.4C111.3 67.1 113 63.8 113 62.1C113 61.6 111.1 60.1 107.5 57.5C103.7 54.9 101.8 53.7 101.3 53.7C100.8 53.7 100.5 54 100.3 54.7ZM317.7 58.6L313.9 66.5C313 65.5 310.8 63.8 307.7 62C304.6 59.8 302.9 58.6 302.4 58.6C302.1 58.6 301.6 59.1 301.4 59.6L296.8 69.2C296.6 69.7 296.6 70 296.8 70.2C300.7 72.6 304.5 75.2 308.1 78.1C308.6 78.4 309.1 78.1 309.3 77.4C310.8 75.2 312 72.6 313.4 69.7C317.5 72.3 321.1 74.7 324.2 77.1C324.6 77.3 325.1 77.3 325.6 76.6C328.7 71.3 330.4 67.7 330.4 66C330.4 65.5 328.5 64.1 324.9 61.7C321.1 59.1 319.2 57.9 318.7 57.9C318.2 57.9 317.9 58.1 317.7 58.6ZM30.5 66.9C28.4 63.5 26 62.1 23.1 62.1C22.8 62.1 22.1 62.9 21.1 64.7C19.9 66.7 19.4 67.9 19.4 68.1C19.4 68.8 19.9 69.8 21.3 71C22.8 72.2 23.7 72.9 24.7 72.9C25.4 72.9 25.7 72.6 25.9 72.4C26.2 71.9 26.4 71.9 26.9 71.9C27.9 71.9 29.1 74.1 31 78.9C32.9 83.5 33.8 86.6 33.6 88.3C33.8 89.3 33.8 90 34.3 90C34.8 90 35.3 89.3 36 88.3C36.7 86.7 37.7 83.8 38.4 79.7C40.1 70.6 41.8 66 43.7 66C44.6 66 45.6 66.4 46.3 67.4C47.3 68.4 47.8 69.1 48 69.1C48.4 69.1 48.9 68.3 49.4 66.9C49.9 65.9 49.9 65 49.9 64.5C49.9 63.5 49.5 62.5 48.5 61.1C47.5 59.6 46.3 58.9 45.1 58.9C42.9 58.9 41 61.1 39.1 65.4C37.4 71.7 36.2 76.5 35.7 79.6C35.7 80.1 35.5 80.4 35.5 80.6L35.3 80.6C35.3 80.3 35.3 80.1 35.1 79.6C34.3 74.3 32.7 70 30.5 66.9ZM224.9 67.9C225.6 66.7 226.6 66.2 227.3 66.2C227.8 66.2 228.3 66.4 228.3 66.9C228.3 66.9 228.1 67.1 228.1 67.4C227.1 69.6 226.2 72 225.5 74.4C230.5 78 232.9 81.8 232.7 85.4C232.2 89.5 231.7 92.1 231 93.1C228.6 96 226 97.7 222.6 97.7C219.2 97.7 217.8 95.5 217.8 91.7C217.8 91 217.8 90 218 89.1C219.1 81.3 221.5 74.4 224.9 67.9ZM396.2 75.6C394.1 72.2 391.7 70.8 388.8 70.8C388.6 70.8 387.9 71.5 386.8 73.4C385.6 75.4 385.1 76.6 385.1 76.8C385.1 77.5 385.6 78.5 387 79.7C388.5 80.9 389.4 81.6 390.4 81.6C391.1 81.6 391.4 81.3 391.6 81.1C391.9 80.6 392.1 80.6 392.6 80.6C393.6 80.6 394.8 82.8 396.7 87.6C398.6 92.2 399.5 95.3 399.3 97C399.5 98 399.5 98.7 400 98.7C400.5 98.7 401 98 401.7 97C402.4 95.4 403.4 92.5 404.1 88.4C405.8 79.3 407.5 74.7 409.4 74.7C410.3 74.7 411.3 75.1 412 76.1C413 77.1 413.5 77.8 413.7 77.8C414.1 77.8 414.6 77 415.1 75.6C415.6 74.6 415.6 73.7 415.6 73.2C415.6 72.2 415.2 71.2 414.2 69.8C413.2 68.3 412 67.6 410.8 67.6C408.6 67.6 406.7 69.8 404.8 74.1C403.1 80.4 401.9 85.2 401.4 88.3C401.4 88.8 401.2 89.1 401.2 89.3L401 89.3C401 89 401 88.8 400.8 88.3C400 83 398.4 78.7 396.2 75.6ZM101.1 113.5C104.7 108.7 106.6 102.2 106.6 93.8C106.6 89.5 105.4 84.9 102.9 79.9C102.2 78.5 101.5 77.5 101 77.5C100.8 77.5 100.3 78.2 99.8 79.2C98.2 85.4 97.2 88.8 97.2 89.5C97.2 90.9 97.4 92.4 98.4 93.8C100.3 97 101.3 99.4 101.3 100.8C99.7 103.7 95.8 105.1 90.3 105.1L90.3 104.9C87 104.9 84.3 104.2 82.9 102.3C82.2 101.8 81.2 100.1 79.8 97.0001C79.1 95.6001 78.6 94.6001 78.1 94.6001C77.6 94.6001 77.1 95.3 76.9 96.5001C75 102.5 74 106.1 74 106.8C74 107.8 74.4 109.2 75.4 110.9C80 120 82.4 128.6 82.4 136.8C81.4 139 77.3 142.8 70.6 148.6C62.7 154.8 55 160.1 47.1 164.4C37.2 169.7 28.8 172.3 22.1 172.3C16.6 172.3 11.8 169.9 8.2 164.6C4.99998 160.6 3.59999 156 3.59999 151.2C3.59999 145.7 5 137.8 7.89999 127.2C8.39999 125.7 8.59999 124.5 8.59999 123.8L8.59996 123.726C10.6616 122.448 12.1767 119.04 13.1 113.5C13.3 113.3 13.3 113 13.1 112.8C13.1 112.709 13.1 112.66 13.0813 112.651C13.0589 112.641 13.0093 112.691 12.9 112.8C12.9 112.8 12.7 113.1 12.7 113.3C11.1 116.1 9.59999 117.8 7.99999 117.9C5.89998 117.9 4.89998 115.7 4.89998 111.9C4.89998 108.8 6.09999 103.7 8.49998 96.3C8.99998 94.6 9.19998 93.6 9.19998 93.4C8.89998 93.4 8.49998 94.3 7.49998 96C3.69998 103 1.99998 109.9 1.99998 116.4C1.99998 121.7 3.49998 124.3 6.59999 124.3C6.85032 124.3 7.09477 124.277 7.33331 124.23C7.00588 124.79 6.63077 125.552 6.2 126.5C2.2 137.3 0 147.6 0 157.9C0 164.4 1.2 170.4 4.09999 175.4C7.99998 182.8 14.2 186.4 22.6 186.4C31.7 186.4 42.8 182.4 55.5 174.2C64.3284 168.606 71.4759 162.935 76.6753 157.255C76.5029 157.594 76.3124 157.975 76.1 158.4C72.1 169.2 69.9 179.5 69.9 189.6C69.9 197.5 71.9 204.3 75.7 209.3C80 215.3 86.2 218.4 94.4 218.4C104 218.4 115 213.4 128 203.8C136.7 197.3 144.6 189.8 151.8 181.2C154.9 177.6 157.5 173 159.2 167.5C160.7 163.1 161.4 159.8 161.4 156.9L161.9 156.4L161.9 143.2C160.9 143.7 160.4 143.7 160.2 143.7C157.8 138.7 154.9 134.6 151.8 131C148.2 127.4 145.1 125.5 142 125.5C137.9 125.5 134.1 127.6 130.5 131.7C126.7 136.5 125 141.8 125 147.8C125 155.7 130.8 159.8 142.3 159.8C147.6 159.8 151.9 159.1 154.8 158.1C155.3 159.8 155.8 161.5 155.8 162.9C155.8 165.1 152.2 169.4 145.2 176.2C137.5 183.4 129.6 189.4 121.4 194.4C111 200.7 102.4 203.8 95.2 203.8C86.8 203.8 80.8 201.1 77 196.1C74.6 192.5 73.4 188.1 73.4 183.1C73.4 177.6 74.9 169.7 78 159.1C78.3 157.6 78.5 156.4 78.5 155.7C78.5 155.469 78.5 155.301 78.4801 155.189C78.5878 155.059 78.6944 154.93 78.8 154.8C84.1 148.8 86.7 136.8 86.7 119C87.4 119.5 88.6 119.5 90.3 119.5L90.3 119.7C94.4 119.7 98 117.6 101.1 113.5ZM336.7 84.7C336.7 88.5 334.8 93.8 330.9 100.3C328.5 104.4 324.9 109.9 320.1 117.1C324.9 122.6 328.3 127.7 329.9 132C330.9 135.1 331.6 139.2 331.6 143.8C331.6 145.7 331.1 148.1 330.2 151.2C329.5 154.1 328.5 156.2 327.6 157.7C325.7 160.6 322.6 163.5 317.8 166.3C312.8 169.7 308.4 171.3 304.8 171.3C299 171.3 296.2 167 296.2 158.3C296.2 152.5 297.2 146.8 299.1 141.5C301 136.9 304.1 130.9 309.2 123C304.9 118.9 300.3 113.2 295.3 106C294.8 105.3 293.6 104.1 291.7 102.2C290.7 101.2 290.3 100 290.3 98.6C290.3 96.4 290.5 94 291 91.2C291.7 88.3 292.2 87.1 292.4 87.1C293.1 87.1 295.3 88.3 299.4 90.9C303.2 93.5 306.4 95.5 308.3 97.1C309.5 97.8 310 98.5 310 98.5L310 98.7C310 98.9 309.3 99.2 307.6 99.2C304.5 99.2 302.8 99.4 302.8 99.7C302.8 99.9 303.3 100.4 304.2 101.6C308 106.4 311.9 110 316 112.9C317 111.5 320.3 106.7 325.6 98.5C330.2 91.5 332.8 86.7 334 83.9C335.2 81 335.9 79.8 336.4 79.8C336.5 79.9 336.7 81.3 336.7 84.7ZM230.2 87.1C230.2 85.9 227.8 83.7 222.8 80.9C221.1 83.8 220.4 86.4 220.4 88.8C220.4 90.2 221.1 91.2 222.6 91.2C223.8 91.2 225.2 90.7 226.9 89.8C228.5 89 229.7 88.1 230.2 87.1ZM135.9 96.5C135.9 99.1 134.7 102 132.8 105.1C130.6 108.2 128 111.1 124.6 113.5C123.2 114.5 122.4 114.9 122.2 114.9L122.2 114.7C122.2 114.5 122.7 114 123.6 112.8C129.1 106.8 132 103 132 100.8C132 99.1 131 98.2 129.4 98.2C128.4 98.2 127.5 98.4 126.8 98.9C126.1 99.1 125.8 99.4 125.6 99.4C125.6 99.4 125.4 99.4 125.4 99.2C125.4 99.2 125.4 98.7 125.6 97.8C126.6 93.7 128.5 91.8 131.8 91.8C134.4 91.7 135.9 93.3 135.9 96.5ZM354.2 113.1C355.2 114.3 355.9 115.9 356.4 118.1C357.6 122.1 360 127.9 363.3 135C366.2 141.3 367.6 144.6 367.6 145.1C367.6 147.1 364.7 150.2 359.2 154.5C354.292 158.148 347.888 162.324 339.988 166.969C340.71 162.441 342.007 156.974 343.9 150.5C344.2 149 344.4 147.8 344.4 147.1C344.4 146.6 344.4 146.4 344.2 146.4C343.7 146.4 343.2 147.4 342 149.8C339.594 156.296 337.84 162.61 336.823 168.809C333.695 170.608 330.354 172.473 326.8 174.4C317.4 179.5 305.7 185 291.5 191C271.1 199.6 260 204.4 258.1 205.4C252.8 207.8 250.2 209.3 250.2 209.5C250.2 209.7 250.2 209.7 250.7 209.7C251.7 209.7 254.1 209.4 257.9 208.7C261.5 208.2 270.6 206.1 285 202.7C298.7 199.4 305.9 197.7 306.4 197.7C309 197.7 317.4 193.6 331.8 185.2C333.18 184.427 334.526 183.658 335.839 182.893C336.135 189.987 338.107 196.104 341.6 200.7C345.9 206.7 352.1 209.8 360.3 209.8C369.9 209.8 380.9 204.8 393.9 195.2C402.6 188.7 410.5 181.2 417.7 172.6C420.8 169 423.4 164.4 425.1 158.9C426.6 154.5 427.3 151.2 427.3 148.3L427.8 147.8L427.8 134.6C426.8 135.1 426.3 135.1 426.1 135.1C423.7 130.1 420.8 126 417.7 122.4C414.1 118.8 411 116.9 407.9 116.9C403.8 116.9 400 119 396.4 123.1C392.6 127.9 390.9 133.2 390.9 139.2C390.9 147.1 396.7 151.2 408.2 151.2C413.5 151.2 417.8 150.5 420.7 149.5C421.2 151.2 421.7 152.9 421.7 154.3C421.7 156.5 418.1 160.8 411.1 167.6C403.4 174.8 395.5 180.8 387.3 185.8C376.9 192.1 368.3 195.2 361.1 195.2C352.7 195.2 346.7 192.5 342.9 187.5C341.506 185.409 340.517 183.047 339.932 180.455C352.286 172.931 361.304 165.841 367.1 159.3C369.1 157.1 370.5 154 371.7 149.9C372.6 146.3 373.1 143.4 373.1 141C373.1 135.9 371.6 130.4 369 123.7C367.3 119.9 365.4 115.8 363.7 111.7C366.6 112.4 368.5 112.9 369.2 112.9C369.7 112.9 369.9 112.6 369.9 112.4C369.9 111.9 369.2 111 367.5 109.3C363.5 105.2 359.9 101.3 356.5 97.5C356 97 355.7 96.8 355.5 96.8C355 96.8 354.7 97.3 354.5 98.5C354 99.7 353.8 101.9 353.3 105C352.8 108.3 352.8 110 352.8 110.5C353 110.9 353.5 111.7 354.2 113.1ZM50.4 127.2C50.4 127 50.6 126.7 50.6 126.7C50.7093 126.591 50.7589 126.541 50.7813 126.551C50.8 126.56 50.8 126.609 50.8 126.7C51 126.9 51 127.2 50.8 127.4C49.6 134.6 47.4 138.2 44.3 138.2C41.2 138.2 39.7 135.6 39.7 130.3C39.7 123.8 41.4 116.9 45.2 109.9C46.2 108.2 46.6 107.3 46.9 107.3C46.9 107.5 46.7 108.5 46.2 110.2C43.8 117.6 42.6 122.7 42.6 125.8C42.6 129.6 43.6 131.8 45.7 131.8C47.3 131.7 48.7 130.1 50.4 127.2ZM453.9 119.5C453.2 119.5 452.2 119.9 451 120.9C447.1 124.3 443.3 127.2 439.4 129.1C438.2 129.9 434.1 131.8 427.9 134.9L427.9 148.1C436.3 144.2 442.8 140.2 446.6 135.6C446.6 146.6 451.4 152.4 461.5 152.4C469.9 152.4 476.8 147.6 482.1 138C485.3 143.8 488.9 146.9 492.7 146.9C498.5 146.9 502.8 144.3 505.7 139C508.4 134.6 509.8 129.6 509.8 123.6C509.8 119.7 508.6 116.4 506.7 113.5C506 112.5 505.5 112.3 505 112.3C504.5 112.3 504 113.1 503.8 114.5C502.4 119 501.4 122.4 501.2 124.3C503.3 127.9 504.3 129.9 504.3 130.1C503.3 131.7 501.2 132.7 497.8 132.7C495.2 132.7 492.8 131.7 491.1 130.3C489.2 128.9 488.2 127.2 488.2 125.5C488.2 126 488.9 124.1 489.9 120C490.4 117.9 490.2 116.9 489.2 116.9C488.5 116.9 487.8 117.3 486.8 118.3C484.4 122.2 481.8 126 479.4 130.1C475.5 135.2 470.5 137.8 464.5 137.8C457 137.8 453.2 134.9 453.2 129.6C453.2 128.4 453.4 126.9 453.9 125C454.4 123.1 454.6 121.6 454.6 120.9C454.6 120 454.4 119.5 453.9 119.5ZM327.4 143.7C324.8 138.4 320.2 132.9 314 127.6C311.8 129.8 309.2 133.8 305.8 139.6C302 146.1 300.3 150.2 300.3 152.3C300.3 155.2 302.2 156.6 306.5 156.6C308.4 156.6 310.8 155.9 313.9 154.7C318.2 152.8 322.3 150.1 325.7 146.8C327.1 145.4 327.6 144.5 327.4 143.7ZM414.3 136.8C410.7 132.2 407.6 130.1 404.7 130.1C400.4 130.1 398.5 131.1 398.5 133.5C398.5 136.4 401.4 137.8 407.1 137.8C409.2 137.7 411.6 137.3 414.3 136.8ZM148.3 145.4C144.7 140.8 141.6 138.7 138.7 138.7C134.4 138.7 132.5 139.7 132.5 142.1C132.5 145 135.4 146.4 141.1 146.4C143.13 146.4 145.33 145.974 147.7 145.516C147.899 145.477 148.099 145.439 148.3 145.4ZM109.2 164.8C109.2 164.8 109 165.1 109 165.3C107.3 168.2 105.9 169.9 104.3 169.9C102.2 169.9 101.2 167.7 101.2 163.9C101.2 160.8 102.4 155.7 104.8 148.3C105.3 146.6 105.5 145.6 105.5 145.4C105.2 145.4 104.8 146.3 103.8 148C100 155 98.3 161.9 98.3 168.4C98.3 173.7 99.8 176.3 102.9 176.3C106 176.3 108.2 172.7 109.4 165.5C109.6 165.3 109.6 165 109.4 164.8C109.4 164.709 109.4 164.66 109.381 164.651C109.359 164.641 109.309 164.691 109.2 164.8ZM253 162.2C253.5 161.2 253.7 160.3 253.7 159.8C253.7 158.9 253.2 157.9 252.3 156.4C251.1 154.9 249.9 154.2 248.7 154.2C246.5 154.2 244.6 156.4 242.7 160.7C241 167 239.8 171.8 239.6 174.9C239.3 175.4 239.1 175.7 239.1 175.9C239.1 175.991 239.1 176.04 239.081 176.049C239.059 176.059 239.009 176.009 238.9 175.9L238.9 174.9C237.9 169.6 236.5 165.6 234.1 162.2C231.9 158.8 229.5 157.4 226.9 157.4C226.6 157.4 225.9 158.1 224.7 160C223.5 162 223 163.2 223 163.4C223 164.1 223.7 165.1 224.9 166.3C226.4 167.5 227.3 168.2 228.3 168.2C229 168.2 229.5 167.9 229.5 167.7C229.7 167.2 230 167.2 230.7 167.2C231.4 167.2 232.6 169.4 234.5 174.2C236.4 178.8 237.4 181.9 237.4 183.6C237.4 184.092 237.473 184.511 237.57 184.81C237.181 185.261 236.725 185.792 236.2 186.4C234.5 188.3 232.4 190.4 229.5 192.6C217.5 200.5 208.4 206.1 201.9 209.9C200.7 210.6 200 211.4 200 211.6C200 211.6 200 211.8 200.2 211.8C200.7 211.8 201.4 211.6 202.6 211.1C210.6 208.3 214.9 206.6 215.6 206.1C219.2 204.5 223.2 202.1 227.8 198.7C232.9 195.1 236.2 191.2 237.9 187.4C238.364 186.162 238.722 185.191 238.96 184.485C239.156 184.233 239.367 183.933 239.6 183.6C240.6 182 241.3 179.1 242 175C243.7 165.9 245.6 161.3 247.5 161.3C248.2 161.3 249.2 161.7 249.9 162.7C250.9 163.7 251.4 164.4 251.6 164.4C252.3 164.4 252.8 163.6 253 162.2ZM238.96 184.485C239.183 183.822 239.3 183.394 239.3 183.2L239.3 183C239.155 183 238.591 183.629 237.57 184.81C237.671 185.119 237.798 185.3 237.9 185.3C238.233 185.3 238.567 184.989 238.96 184.485ZM204.5 163.2C204.5 165.8 203.3 168.7 201.4 171.8C199.2 174.9 196.6 177.8 193.2 180.2C191.8 181.2 191 181.6 190.8 181.6L190.8 181.4C190.8 181.2 191.3 180.7 192.2 179.5C197.7 173.5 200.6 169.7 200.6 167.5C200.6 165.8 199.6 164.9 198 164.9C197 164.9 196.1 165.1 195.4 165.6C194.7 165.8 194.4 166.1 194.2 166.1C194.2 166.1 194 166.1 194 165.9C194 165.9 194 165.4 194.2 164.5C195.2 160.4 197.1 158.5 200.4 158.5C203.1 158.4 204.5 160.1 204.5 163.2ZM440.4 200.4C437.8 201.1 436.3 201.6 435.8 201.6L435.8 201.3C435.8 201.3 436.8 200.6 438.7 199.4C440.6 198.2 443.5 196.3 447.6 193.2C449.5 191.3 452.4 188.2 456 183.8C458.4 180.9 461 178.3 463.9 176.4C467.5 173.8 470.9 172.6 474.5 172.6C475.2 172.6 476.4 172.8 477.9 173.3C479.1 173.8 480.3 174 481.3 174C483.2 174 484.7 173.3 485.9 171.8C486.6 170.4 487.6 169.2 488.5 167.7C489 166.7 489.7 166.3 490.2 166.3C490.4 166.3 490.4 166.5 490.4 167C490.4 167.5 490.2 168.7 489.7 170.1C489.2 170.8 491.1 171.1 494.7 171.1C495.2 171.1 495.4 171.1 495.4 170.9C495.4 170.9 495.2 169.9 494.7 168.3C494.5 167.8 494.7 167.1 495.4 166.1L495.48 165.964C496.422 164.363 496.808 163.705 497.1 163.9C498.1 164.6 498.5 166.1 498.5 167.7C498.5 169.4 498 171.1 497.3 173C496.6 175.2 495.9 176.4 495.4 176.8C493.7 177.8 491.1 177.5 487.5 175.8C484.6 178.7 481.7 180.4 478.9 180.4C478.2 180.4 477 180.2 475.8 179.7C474.6 179.2 473.6 179 472.9 179C468.1 179 463.1 181.2 458 186L447.2 196.8C445 198.5 442.8 199.7 440.4 200.4ZM177.3 200.1C177.3 200.1 177.1 200.4 177.1 200.6C175.5 203.5 174 205.2 172.4 205.2C170.3 205.2 169.3 203 169.3 199.2C169.3 196.1 170.5 191 172.9 183.6C173.4 181.9 173.6 180.9 173.6 180.7C173.3 180.7 172.9 181.6 171.9 183.3C168.1 190.3 166.4 197.2 166.4 203.7C166.4 209 167.9 211.6 171 211.6C174.1 211.6 176.3 208 177.5 200.8C177.7 200.6 177.7 200.3 177.5 200.1C177.5 200.009 177.5 199.96 177.481 199.951C177.459 199.941 177.409 199.991 177.3 200.1ZM30.3 198.7C39.9 195.3 50.2 191.5 61.3 187.7C61.6851 187.623 61.9516 187.531 62.1451 187.464C62.454 187.358 62.577 187.316 62.7 187.5C62.9 187.5 62.9 188 62.5 188.7C61.8 190.9 61.1 192.1 60.6 192.5C51 195.9 40.2 199.9 28 205.5C28.3 203.3 29.1 201.1 30.3 198.7Z" id="Group" fill="#595959" fill-rule="evenodd" stroke="none" clip-path="url(#clip_1)" />
  </g>
</svg>