<?xml version="1.0" encoding="utf-8"?>
<svg width="594.2001px" height="204.40007px" viewBox="0 0 594.2001 204.40007" version="1.1" xmlns:xlink="http://www.w3.org/1999/xlink" xmlns="http://www.w3.org/2000/svg">
  <defs>
    <path d="M594.2 0L594.2 0L594.2 204.4L0 204.4L0 0L594.2 0Z" id="path_1" />
    <clipPath id="clip_1">
      <use xlink:href="#path_1" clip-rule="evenodd" fill-rule="evenodd" />
    </clipPath>
  </defs>
  <g id="Surah_107_of_114_(modified)">
    <path d="M594.2 0L594.2 0L594.2 204.4L0 204.4L0 0L594.2 0Z" id="Surah_107_of_114_(modified)" fill="none" stroke="none" />
    <path d="M349.8 25.1C349.8 20.3 349.1 16.5 347.6 13.3C347.6 11.6 348.8 7.50002 351.7 1.30002C351.9 0.600021 352.2 0.100021 352.4 0.100021C352.9 0.100021 353.1 0.600021 353.6 1.30002C354.3 3.00002 356 7.50002 358.9 15C362 22.9 363.7 27.7 364.2 29.6C364.7 30.8 364.7 32 364.7 32.5C364.7 34.7 362.8 33.5 358.5 28.7C358 28 357.8 28.5 357.8 29.7C357.8 30.2 359 45.1 361.2 74.8C363.4 104.3 364.3 120.9 364.3 124.7C364.3 136 362.6 146.1 359.3 154.7C358.3 156.4 357.9 157.6 357.4 158.5L357.4 158.5C356.7 159.7 356.4 159.7 356.2 159C356 158 356.2 156.1 356.4 153.5C356.9 149.4 357.1 144.9 357.1 139.8C357.1 135 355.9 115.8 353.5 82C351 48.1 349.8 29.2 349.8 25.1L349.8 25.1L349.8 25.1L349.8 25.1L349.8 25.1ZM342.9 113.4C342.9 127.6 340.3 138.6 335.2 146.8C330.9 153.5 325.8 157.1 320.1 157.1L320.1 142.5C324.7 142.5 329.2 140.6 333.5 137C334.7 136 335.4 132 335.4 125.2C335.4 121.1 334.2 104.6 332 75.8C329.8 47 328.9 30 328.9 24.7C328.9 20.1 328.2 16.3 326.7 13.2C326.7 11.5 328.1 7.39999 330.8 1C331 0.300003 331.3 0 331.8 0C332 0 332.3 0.199997 332.8 1.2C333.5 2.89999 335.4 7.39999 338.3 14.9C341.2 22.8 342.9 27.6 343.6 29.3C343.8 30.7 344.1 31.9 344.1 32.4C344.1 34.6 341.9 33.4 337.9 28.6C337.4 28.1 337.2 28.4 337.2 29.6C337.2 29.8 338.2 42.8 340.1 68.2C341.9 93.2 342.9 108.4 342.9 113.4L342.9 113.4L342.9 113.4L342.9 113.4L342.9 113.4ZM320.1 156.8C320.8 159 321.3 161.8 321.3 165C321.3 168.8 320.6 172.2 319.4 175.1C318.7 176.5 318.2 177.5 317.5 177.5C316.5 177.5 315.3 176.8 313.4 175.8C307.6 172.4 303.6 168.4 301.4 163.6C300.2 161 299.2 156.4 298.8 150.6C298.6 149.6 298.6 148.9 298.3 148.9C297.8 148.9 297.3 149.6 296.9 150.6C294.5 153.2 292.1 156.1 289.7 159.2C285.4 163 280.6 165.2 275.1 165.2L275.1 150.3C282.1 150.3 287.6 148.6 292.1 145.3C293.1 144.6 295.5 141.9 299.1 137.9C300.5 136 301.7 135.3 302.7 135.3C303.2 135.3 303.9 135.5 304.9 136.3C307.8 138.7 309.7 140.1 310.7 140.6C313.1 141.8 316.2 142.3 320.3 142.3L320.3 156.8L320.1 156.8L320.1 156.8L320.1 156.8ZM260.1 135.5C261.3 142.2 263.7 146.8 266.8 148.9C268.7 149.9 271.4 150.6 275 150.6L275 165.2C269.7 165.2 265.6 164 262.8 161.8C258.5 158.7 255.8 153.2 254.4 144.8C253.4 139.5 252.5 124.4 251.8 99C250.8 71.6001 250.1 54.8 249.6 48.6C248.4 38.5 246.5 29.2001 243.8 20C243.8 17.6001 244.8 14.2 246.7 9.40004C247.2 8.20004 247.4 7.50005 247.9 7.50005C248.1 7.50005 248.6 8.20004 249.1 9.20004C252.2 15.2 254.4 25.5 256.1 39.9C257.1 49 258 67 258.7 93.9C259.1 119.2 259.8 133.1 260.1 135.5L260.1 135.5L260.1 135.5L260.1 135.5L260.1 135.5ZM244 97.1C245.4 96.6 246.4 96.4 246.6 96.9C247.1 97.1 247.1 98.1 246.4 99.3L241.4 108.2C240.7 109.2 240 109.9 238.8 110.4C216 120.5 191.3 131.3 164.9 142.8L164.9 129.6C165.9 129.1 172.3 126.5 184.6 121.7C178.6 118.6 173.8 114.3 169.7 109.2C164.7 102.5 162.3 95 162.3 86.9C162.3 78.8 165.2 72 170.9 66.7C177.4 60.7 185.5 57.8 194.7 57.8C200.5 57.8 206.5 58.8 212.7 61.2C217.5 63.1 221.3 65.3 224.5 67.4C226.9 69.6 228.1 70.8 228.1 71.2C228.1 71.2 227.9 71.2 227.6 71.2C227.1 71.2 225.9 71 224.5 70.5C219.5 69.1 213.7 68.6 207.2 68.6C198.3 68.6 189.7 69.8 181.3 72.2C173.4 74.6 169.1 77 168.6 79.4C169.3 85.9 173.2 92.4 179.4 99.1C187.1 107 195.5 111.1 204.4 111.1C208.2 111.1 213.5 109.7 220.5 107.3C228.2 103.8 236.1 100.4 244 97.1L244 97.1L244 97.1L244 97.1L244 97.1ZM150.9 131.4C147.3 126.8 144.2 124.7 141.3 124.7C137 124.7 135.1 125.7 135.1 128.1C135.1 131 138 132.4 143.7 132.4C145.8 132.4 148.2 131.9 150.9 131.4L150.9 131.4L150.9 131.4L150.9 131.4L150.9 131.4ZM158.3 148.9C158.3 147.5 157.8 145.8 157.3 144.1C154.4 145.1 150.1 145.8 144.8 145.8C133.3 145.8 127.5 141.7 127.5 133.8C127.5 127.8 129.2 122.5 133 117.7C136.6 113.6 140.4 111.5 144.5 111.5C147.6 111.5 150.7 113.4 154.3 117C157.4 120.6 160.3 124.7 162.7 129.7C162.9 129.7 163.4 129.7 164.4 129.2L164.4 142.4L163.9 142.9C163.9 145.8 163.2 149.1 161.7 153.5C160 159 157.4 163.6 154.3 167.2C147.1 175.8 139.2 183.3 130.5 189.8C117.5 199.4 106.5 204.4 96.9 204.4C88.7 204.4 82.5 201.3 78.2 195.3C74.4 190.3 72.4 183.5 72.4 175.6C72.4 165.5 74.6 155.2 78.6 144.4C79.8 142 80.3 141 80.8 141C81 141 81 141.2 81 141.7C81 142.4 80.8 143.6 80.5 145.1C77.4 155.7 75.9 163.6 75.9 169.1C75.9 174.1 77.1 178.5 79.5 182.1C83.3 187.1 89.3 189.8 97.7 189.8C104.9 189.8 113.5 186.7 123.9 180.4C132.1 175.4 140 169.4 147.7 162.2C154.7 155.4 158.3 151.1 158.3 148.9L158.3 148.9L158.3 148.9L158.3 148.9L158.3 148.9ZM119 97.1C119 106.2 116.8 113.2 112.8 118C106.3 125.4 96.7 132.6 84.2 139.8C68.4 148.4 53.7 153 39.8 153C21.6 153 8.79999 143.9 1.89999 125.9C0.499985 122.3 -1.52588e-05 118 -1.52588e-05 112.5C-1.52588e-05 108.9 0.199982 105.3 0.699982 101.5C1.69998 96 2.89998 91.2 4.29998 87.1C4.99998 85.9 5.49998 85.2 5.99998 85.2C6.49998 85.2 6.49998 86.2 6.19997 87.8C5.49998 90.2 4.99998 92.8 4.49998 95.2C3.49998 99.8 3.09998 103.1 3.09998 105.3C3.09998 112.7 5.49998 119.5 10.5 125.9C17.2 134.1 27.1 138.4 39.8 138.4C51.1 138.4 63.1 135.8 75.6 130.5C85.9 126.2 95 120.9 103.2 114.7C110.4 108.9 114.2 104.9 114.2 102.5C114.2 102 112.5 98.9 109.4 92.9C105.8 85.9 103.2 79 101.5 72.3C100.8 70.1 99.8 68.7 99.1 68C98.1 67 97.7 66.3 97.7 65.4C97.7 64.7 98.4 61.1001 99.6 54.6001C99.8 53.4 100.1 52.9 100.6 52.9C101.1 52.9 101.6 53.1001 102 53.6001C103.9 55.8001 108 59.8001 114 65.8001C115 66.8001 115.4 67.5001 115.4 68.2001C115.4 68.9 114.9 69.2001 113.7 69.2001C112.5 69.2001 110.6 68.7001 107.9 68C108.1 68.7001 110.3 73 114.1 81C117.3 87 119 92.5 119 97.1L119 97.1L119 97.1L119 97.1L119 97.1ZM40.2 57.2C40 57 40 56.7 40.2 56.2L44.8 46.6C45 46.1 45.5 45.9 45.8 45.9C46.3 45.9 48.4 47.1 52 49.5C55.8 52.1 57.8 53.6 57.8 54.1C57.8 55.8 56.1 59.1 52.8 64.4C52.3 65.1 52.1 65.4 51.6 65.1C47.9 62.3 44.1 59.6 40.2 57.2L40.2 57.2L40.2 57.2L40.2 57.2L40.2 57.2ZM266.3 124.4C284.8 117.7 304 110.5 324.1 103C324.8 102.8 325.3 102.5 325.5 102.8C325.5 102.8 325.5 103.3 325.3 104C324.3 106.2 323.6 107.4 323.1 107.8C306.3 114 286.4 121.7 263.8 131.1C264.4 129 265.1 126.8 266.3 124.4L266.3 124.4L266.3 124.4L266.3 124.4L266.3 124.4ZM298.7 21.7C298.7 20.5 296.3 18.3 291.3 15.5C289.6 18.4 288.9 21 288.9 23.4C288.9 24.8 289.6 25.8 291.1 25.8C292.3 25.8 293.7 25.3 295.4 24.4C297 23.6 298.2 22.7 298.7 21.7L298.7 21.7L298.7 21.7L298.7 21.7L298.7 21.7ZM293.4 2.50002C294.1 1.30002 295.1 0.800018 295.8 0.800018C296.3 0.800018 296.8 1.00002 296.8 1.50002C296.8 1.50002 296.6 1.70001 296.6 2.00002C295.6 4.20001 294.7 6.60002 294 9.00002C299 12.6 301.4 16.4 301.2 20C300.7 24.1 300.2 26.7 299.5 27.7C297.1 30.6 294.5 32.3 291.1 32.3C287.7 32.3 286.3 30.1 286.3 26.3C286.3 25.6 286.3 24.6 286.5 23.7C287.7 16 290.1 9.00002 293.4 2.50002L293.4 2.50002L293.4 2.50002L293.4 2.50002L293.4 2.50002ZM293.4 46.7C295.1 46.7 297 47.7 299.6 49.8C302.2 51.7 303.7 53.6 303.9 55.1C304.1 55.6 303.7 56.5 302.9 58.2C302.2 59.9 301.7 60.6 301.5 60.6C299.1 61.3 296.7 62 294.3 62.8C291.2 63.8 289.3 65 288.1 66.2C291.5 76.3 293.1 86.1 293.1 96C293.1 98.9 292.6 101.8 292.1 104.9C291.9 105.9 291.6 106.3 291.4 106.6C291.2 106.6 291.2 104.7 291.2 101.3C291.2 95.8 290.2 88.8 288.6 80.9C286.9 73 286.2 68.2 286.2 67.2C286.2 63.1 287.2 60.2 289.6 58.3C290.6 57.6 292.7 56.6 295.6 55.7C294.4 54.5 293.2 54 292 54C291.5 54 290.8 54.5 289.8 55.7C288.8 57.1 288.1 57.6 288.1 57.6C287.9 57.6 287.6 57.1 287.9 56.2C288.6 49.8 290.6 46.7 293.4 46.7L293.4 46.7L293.4 46.7L293.4 46.7L293.4 46.7ZM221.4 15.7C221.9 14.3 221.9 12.8 221.6 11.4C221.4 10 220.6 9.20001 219.4 9.20001C218.9 9.20001 218.2 9.40001 217.2 9.90001C216.2 10.4 215.8 10.9 215.8 11.3C215.9 12.6 217.8 14 221.4 15.7L221.4 15.7L221.4 15.7L221.4 15.7L221.4 15.7ZM226.7 24.6C224.3 30.4 223.1 34.9 223.1 38.3C223.1 42.4 224.1 44.5 226.2 44.5C227.6 44.5 229.1 42.8 230.5 39.9C230.7 39.7 230.7 39.4 231 39.2C231.2 39.2 231.2 39.2 231.2 39.4C231.2 39.4 231.2 39.6 231.2 40.1C230 47.3 227.8 50.9 224.7 50.9C221.6 50.9 220.1 48.3 220.1 43C220.1 40.4 220.8 37 222 32.7C223.4 28.4 224.2 26.2 224.2 26C224.2 25.5 223.2 24.6 221.1 23.4C218.5 27 215.3 30.1 211.5 33C206.9 36.4 202.9 38.8 199.3 40.4C198.3 40.6 194 42.3 186.3 45.2C185.1 45.7 184.1 45.9 183.9 45.9C183.7 45.9 183.7 45.9 183.7 45.7C183.7 45.5 184.2 45 185.6 44C191.4 40.6 197.1 37 203.1 33.7C210.1 29.4 215.1 25.5 218.5 21.9C213.9 19.5 211.8 17.1 211.8 14.5C211.8 11.4 213.2 8.50002 216.1 5.90001C219 3.50002 221.4 2.50002 223.3 3.3C225 3.8 225.7 5.5 225.7 8.3C225.7 10.9 225.2 13.8 224 16.9C226.4 18.3 227.6 19.8 227.6 21.2C227.7 22 227.2 23.2 226.7 24.6L226.7 24.6L226.7 24.6L226.7 24.6L226.7 24.6ZM184 197.2C188.8 197.2 193.8 196.2 199.6 194.6C201 194.1 201.8 194.1 201.8 194.4C201.8 194.6 201.3 195.1 200.1 196.1C195.3 200.4 188.8 202.8 181.1 202.8C178.9 202.8 176.8 202.1 175.3 200.9C173.9 199.7 173.1 198 173.1 196.1C173.1 191.1 175.3 185.8 179.6 180.3C175.8 179.1 173.8 177.2 173.8 174.3C173.8 171.7 175.2 168.8 178.4 165.4C181.5 162 183.9 160.4 185.8 160.4C186.3 160.4 186.8 160.6 187.2 161.6C187.7 162.3 187.9 163 187.9 164C187.9 164.5 187.4 165.4 186.5 166.9C185.5 168.3 184.8 168.8 184.8 168.6C184.3 167.2 183.6 166.4 182.2 166.4C181.5 166.4 180.8 166.9 179.8 168.1C178.6 169.3 178.1 170.3 178.1 171C179.3 172.9 181.5 174.1 184.3 174.1C185.3 174.1 186.9 173.1 188.9 171.2C190.3 170.2 191.5 169 192.7 167.8C193.2 167.6 193.4 167.8 193.4 168.8C193.4 171.2 192.4 173.4 191 175.8C184.5 180.1 179.7 185.2 176.6 190.7C176.1 191.9 175.9 192.9 175.9 193.6C176.1 195.7 178.7 197.2 184 197.2L184 197.2L184 197.2L184 197.2L184 197.2ZM177 24.8C177 24.6 177.2 24.3 177.2 24.3C177.4 24.1 177.4 24.1 177.4 24.3C177.6 24.5 177.6 24.8 177.4 25C176.2 32.2 174 35.8 170.9 35.8C167.8 35.8 166.3 33.2 166.3 27.9C166.3 21.4 168 14.5 171.8 7.50003C172.8 5.80003 173.2 4.90002 173.5 4.90002L173.5 4.90002C173.5 5.10002 173.3 6.10002 172.8 7.80002C170.4 15.2 169.2 20.3 169.2 23.4C169.2 27.2 170.2 29.4 172.3 29.4C173.9 29.4 175.4 27.7 177 24.8L177 24.8L177 24.8L177 24.8L177 24.8ZM13.6 77.2C13.6 77 13.8 76.7 13.8 76.7C14 76.5 14 76.5 14 76.7C14.2 76.9 14.2 77.2 14 77.4C12.8 84.6001 10.6 88.2 7.49998 88.2C4.39999 88.2 2.89999 85.6 2.89999 80.3C2.89999 73.8 4.59998 66.9 8.39999 59.9C9.39999 58.2 9.79999 57.3 10.1 57.3L10.1 57.3C10.1 57.5 9.89999 58.5 9.39999 60.2C6.99998 67.6 5.79999 72.7 5.79999 75.8C5.79999 79.6 6.79999 81.8 8.89999 81.8C10.5 81.7 11.9 80 13.6 77.2L13.6 77.2L13.6 77.2L13.6 77.2L13.6 77.2ZM90.9 159.7C100.5 156.3 110.8 152.5 121.9 148.7C122.9 148.5 123.1 148.2 123.3 148.5C123.5 148.5 123.5 149 123.1 149.7C122.4 151.9 121.7 153.1 121.2 153.5C111.6 156.9 100.8 160.9 88.6 166.5C89 164.3 89.7 162.1 90.9 159.7L90.9 159.7L90.9 159.7L90.9 159.7L90.9 159.7ZM231.8 188C232.3 184.6 233.5 180.8 235.4 176C236.8 172.4 237.6 168.8 237.6 165.2C237.6 158.2 234.2 151.8 227.8 145.3C227.3 144.8 227.3 144.3 227.8 143.9L230 140.1C230.2 139.6 230.5 139.6 231 140.1C237.2 145.1 240.6 152.6 240.6 162.4C240.6 167 239.4 172 237.5 177C235.3 182.3 234.4 185.9 234.4 187.8C234.4 191.9 235.4 194 237.5 194C238.9 194 240.4 192.3 242.1 189.4C242.1 189.2 242.3 188.9 242.3 188.9C242.5 188.7 242.5 188.7 242.5 188.9C242.5 188.9 242.5 189.4 242.5 189.6C241.3 196.8 239.1 200.4 236 200.4C233.1 200.4 231.4 197.3 231.4 191.5C231.3 190.4 231.5 189.2 231.8 188L231.8 188L231.8 188L231.8 188L231.8 188ZM290.6 182.5C290.6 185.1 289.4 188 287.5 191.1C285.3 194.2 282.7 197.1 279.3 199.5C277.9 200.5 277.1 200.9 276.9 200.9L276.9 200.7C276.9 200.5 277.4 200 278.3 198.8C283.8 192.8 286.7 189 286.7 186.8C286.7 185.1 285.7 184.2 284.1 184.2C283.1 184.2 282.2 184.4 281.5 184.9C280.8 185.1 280.5 185.4 280.3 185.4C280.3 185.4 280.1 185.4 280.1 185.2C280.1 185.2 280.1 184.7 280.3 183.8C281.3 179.7 283.2 177.8 286.5 177.8C289.1 177.7 290.6 179.4 290.6 182.5L290.6 182.5L290.6 182.5L290.6 182.5L290.6 182.5ZM43.4 86.8C46.3 86.8 48.7 88.2 50.8 91.6C53 94.7 54.6 99 55.4 104.3C55.6 104.8 55.6 105 55.6 105.3L55.8 105.3C55.8 105.1 56 104.8 56 104.3C56.5 101.2 57.7 96.4 59.4 90.1C61.3 85.8 63.2 83.6 65.4 83.6C66.6 83.6 67.8 84.3 68.8 85.8C69.8 87.2 70.2 88.2 70.2 89.2C70.2 89.7 70.2 90.6 69.7 91.6C69.2 93 68.7 93.8 68.3 93.8C68.1 93.8 67.6 93.1 66.6 92.1C65.9 91.1 64.9 90.7 64 90.7C62.1 90.7 60.4 95.3 58.7 104.4C58 108.5 57 111.4 56.3 113C55.6 114 55.1 114.7 54.6 114.7C54.1 114.7 54.1 114 53.9 113C54.1 111.3 53.2 108.2 51.3 103.6C49.4 98.8 48.2 96.6 47.2 96.6C46.7 96.6 46.5 96.6 46.2 97.1C46 97.3 45.7 97.6 45 97.6C44 97.6 43.1 96.9 41.6 95.7C40.2 94.5 39.7 93.5 39.7 92.8C39.7 92.6 40.2 91.4 41.4 89.4C42.4 87.5 43.1 86.8 43.4 86.8L43.4 86.8L43.4 86.8L43.4 86.8L43.4 86.8ZM142.2 17.2C142.2 17.7 142 18.6 141.7 19.6C141.2 21 140.7 21.8 140 21.8C139.8 21.8 139.3 21.1 138.3 20.1C137.6 19.1 136.6 18.7 135.9 18.7C134 18.7 132.1 23.3 130.4 32.4C129.7 36.5 129 39.1 128 40.8C127.3 42 126.8 42.5 126.3 42.5C126.1 42.5 125.8 42 125.8 41.1C125.8 39.4 124.8 36.3 122.9 31.7C121.2 26.9 119.8 24.7 119.1 24.7C118.6 24.7 118.1 24.7 118.1 25.2C117.9 25.4 117.4 25.7 116.7 25.7C115.7 25.7 114.5 25 113.1 23.8C111.7 22.4 111.2 21.4 111.4 20.9C113.6 16.8 114.8 14.9 115.2 14.9C117.8 14.9 120.5 16.3 122.6 19.7C124.8 22.8 126.2 27.1 127.2 32.2C127.2 32.9 127.2 33.2 127.2 33.2C127.4 33.4 127.4 33.4 127.4 33.2C127.4 33.2 127.6 33 127.9 32.2C128.4 29.3 129.3 24.5 131 18.3C132.9 14 134.8 11.8 137.2 11.8C138.2 11.8 139.4 12.5 140.6 14C141.8 15.2 142.2 16.2 142.2 17.2L142.2 17.2L142.2 17.2L142.2 17.2L142.2 17.2ZM111.5 20.8C112 19.8 112.5 19.4 112.7 19.4C112.7 19.4 112.9 19.6 112.7 19.6C112.9 20.3 112.2 22 110.8 24.6C108.4 29.2 105 32.8 100.7 35.9C96.1 39.3 92.1 41.7 88.5 43.3C87.8 43.8 83.5 45.5 75.5 48.3C74.3 48.8 73.6 49 73.1 49C72.9 49 72.9 48.8 72.9 48.8C72.9 48.6 73.6 47.8 74.8 47.1C81.5 43.5 90.6 37.7 102.4 29.8C107.2 26.3 110.1 23.2 111.5 20.8L111.5 20.8L111.5 20.8L111.5 20.8L111.5 20.8ZM151.1 50C151.1 52.6 149.9 55.5 148 58.6C145.8 61.7 143.2 64.6 139.8 67C138.4 68 137.6 68.4 137.4 68.4L137.4 68.2C137.4 68 137.9 67.5 138.8 66.3C144.3 60.3 147.2 56.5 147.2 54.3C147.2 52.6 146.2 51.7 144.6 51.7C143.6 51.7 142.7 51.9 142 52.4C141.3 52.6 141 52.9 140.8 52.9C140.8 52.9 140.6 52.9 140.6 52.7C140.6 52.7 140.6 52.2 140.8 51.3C141.8 47.2 143.7 45.3 147 45.3C149.7 45.2 151.1 46.9 151.1 50L151.1 50L151.1 50L151.1 50L151.1 50ZM347 168.8C347 171.4 345.8 174.3 343.9 177.4C341.7 180.5 339.1 183.4 335.7 185.8C334.3 186.8 333.5 187.2 333.3 187.2L333.3 187C333.3 186.8 333.8 186.3 334.7 185.1C340.2 179.1 343.1 175.3 343.1 173.1C343.1 171.4 342.1 170.5 340.5 170.5C339.5 170.5 338.6 170.7 337.9 171.2C337.2 171.4 336.9 171.7 336.7 171.7C336.7 171.7 336.5 171.7 336.5 171.5C336.5 171.5 336.5 171 336.7 170.1C337.7 166 339.6 164.1 342.9 164.1C345.5 164 347 165.7 347 168.8L347 168.8L347 168.8L347 168.8L347 168.8ZM535.4 110.5C536.6 109.5 537.6 109.1 538.3 109.1C538.8 109.1 539 109.6 539 110.5C539 111.2 538.8 112.7 538.3 114.6C537.8 116.5 537.6 118 537.6 119.2C537.6 124.5 541.4 127.4 548.9 127.4C554.9 127.4 559.9 124.8 563.8 119.7C566.2 115.6 568.8 111.8 571.2 107.9C572.2 106.9 572.9 106.5 573.6 106.5C574.6 106.5 574.8 107.5 574.3 109.6C573.3 113.7 572.6 115.6 572.6 115.1C572.6 116.8 573.6 118.5 575.5 119.9C577.2 121.3 579.6 122.3 582.2 122.3C585.6 122.3 587.7 121.3 588.7 119.7C588.7 119.5 587.7 117.5 585.6 113.9C585.8 112 586.8 108.6 588.2 104.1C588.4 102.7 588.9 101.9 589.4 101.9C589.9 101.9 590.4 102.1 591.1 103.1C593 106 594.2 109.3 594.2 113.2C594.2 119.2 592.8 124.2 590.1 128.6C587.2 133.9 582.9 136.5 577.1 136.5C573.3 136.5 569.7 133.4 566.5 127.6C561.2 137.2 554.3 142 545.9 142C535.8 142 531 136.2 531 125.2C527.2 129.8 520.7 133.8 512.3 137.7L512.3 124.5C518.5 121.4 522.6 119.5 523.8 118.7C527.7 116.8 531.5 113.9 535.4 110.5L535.4 110.5L535.4 110.5L535.4 110.5L535.4 110.5ZM498.6 126.4C495 121.8 491.9 119.7 489 119.7C484.7 119.7 482.8 120.7 482.8 123.1C482.8 126 485.7 127.4 491.4 127.4C493.6 127.3 496 126.8 498.6 126.4L498.6 126.4L498.6 126.4L498.6 126.4L498.6 126.4ZM506.1 143.9C506.1 142.5 505.6 140.8 505.1 139.1C502.2 140.1 497.9 140.8 492.6 140.8C481.1 140.8 475.3 136.7 475.3 128.8C475.3 122.8 477 117.5 480.8 112.7C484.4 108.6 488.2 106.5 492.3 106.5C495.4 106.5 498.5 108.4 502.1 112C505.2 115.6 508.1 119.7 510.5 124.7C510.7 124.7 511.2 124.7 512.2 124.2L512.2 137.4L511.7 137.9C511.7 140.8 511 144.1 509.5 148.5C507.8 154 505.2 158.6 502.1 162.2C494.9 170.8 487 178.3 478.3 184.8C465.3 194.4 454.3 199.4 444.7 199.4C436.5 199.4 430.3 196.3 426 190.3C422.2 185.3 420.2 178.5 420.2 170.6C420.2 160.5 422.4 150.2 426.4 139.4C427.6 137 428.1 136 428.6 136C428.8 136 428.8 136.2 428.8 136.7C428.8 137.4 428.6 138.6 428.3 140.1C425.2 150.7 423.7 158.6 423.7 164.1C423.7 169.1 424.9 173.5 427.3 177.1C431.1 182.1 437.1 184.8 445.5 184.8C452.7 184.8 461.3 181.7 471.7 175.4C479.9 170.4 487.8 164.4 495.5 157.2C502.5 150.4 506.1 146 506.1 143.9L506.1 143.9L506.1 143.9L506.1 143.9L506.1 143.9ZM440.6 107.6C440.1 105.4 439.4 103.8 438.4 102.6C437.7 101.2 437.2 100.4 437 100C437 99.5 437 97.8 437.5 94.5C438 91.4 438.2 89.2 438.7 88C438.9 86.8 439.2 86.3 439.7 86.3C439.9 86.3 440.2 86.5 440.7 87C444.1 90.8 447.7 94.7 451.7 98.8C453.4 100.5 454.1 101.4 454.1 101.9C454.1 102.1 453.9 102.4 453.4 102.4C452.7 102.4 450.8 101.9 447.9 101.2C449.6 105.3 451.5 109.4 453.2 113.2C455.8 119.9 457.3 125.4 457.3 130.5C457.3 132.9 456.8 135.8 455.9 139.4C454.7 143.5 453.3 146.6 451.3 148.8C444.3 156.7 432.6 165.4 416 174.7C401.6 183.1 393.2 187.2 390.6 187.2C390.1 187.2 382.9 188.9 369.2 192.2C354.8 195.6 345.7 197.7 342.1 198.2C338.3 198.9 335.9 199.2 334.9 199.2C334.4 199.2 334.4 199.2 334.4 199C334.4 198.8 337 197.3 342.3 194.9C344.2 193.9 355.3 189.1 375.7 180.5C389.9 174.5 401.6 169 411 163.9C425.2 156.2 436 149.5 443.4 144C448.9 139.7 451.8 136.6 451.8 134.6C451.8 134.1 450.4 130.8 447.5 124.5C444.2 117.5 441.8 111.7 440.6 107.6L440.6 107.6L440.6 107.6L440.6 107.6L440.6 107.6ZM420.9 74.3C420.9 78.1 419 83.4 415.1 89.9C412.7 94 409.1 99.5 404.3 106.7C409.1 112.2 412.5 117.3 414.1 121.6C415.1 124.7 415.8 128.8 415.8 133.4C415.8 135.3 415.3 137.7 414.4 140.8C413.7 143.7 412.7 145.8 411.8 147.3C409.9 150.2 406.8 153.1 402 155.9C397 159.3 392.6 160.9 389 160.9C383.2 160.9 380.4 156.6 380.4 147.9C380.4 142.1 381.4 136.4 383.3 131.1C385.2 126.5 388.3 120.5 393.4 112.6C389.1 108.5 384.5 102.8 379.5 95.6C379 94.9 377.8 93.7 375.9 91.8C374.9 90.8 374.5 89.6 374.5 88.2C374.5 86 374.7 83.6 375.2 80.8C375.9 77.9 376.4 76.7 376.6 76.7C377.3 76.7 379.5 77.9 383.6 80.5C387.4 83.1 390.6 85.1 392.5 86.7C393.7 87.4 394.2 88.1 394.2 88.1L394.2 88.3C394.2 88.5 393.5 88.8 391.8 88.8C388.7 88.8 387 89 387 89.3C387 89.5 387.5 90 388.4 91.2C392.2 96 396.1 99.6 400.2 102.5C401.2 101.1 404.5 96.3 409.8 88.1C414.4 81.1 417 76.3 418.2 73.5C419.4 70.6 420.1 69.4 420.6 69.4C420.6 69.5 420.9 70.9 420.9 74.3L420.9 74.3L420.9 74.3L420.9 74.3L420.9 74.3ZM411.5 133.3C408.9 128 404.3 122.5 398.1 117.2C395.9 119.4 393.3 123.4 389.9 129.2C386.1 135.7 384.4 139.8 384.4 141.9C384.4 144.8 386.3 146.2 390.6 146.2C392.5 146.2 394.9 145.5 398 144.3C402.3 142.4 406.4 139.7 409.8 136.4C411.3 135 411.8 134 411.5 133.3L411.5 133.3L411.5 133.3L411.5 133.3L411.5 133.3ZM398.1 56.3L401.9 48.4C402.1 47.9 402.4 47.7 402.9 47.7C403.4 47.7 405.3 48.9 409.1 51.5C412.7 53.9 414.6 55.3 414.6 55.8C414.6 57.5 412.9 61.1 409.8 66.4C409.3 67.1 408.8 67.1 408.4 66.9C405.3 64.5 401.7 62.1 397.6 59.5C396.2 62.4 395 65 393.5 67.2C393.3 67.9 392.8 68.2 392.3 67.9C388.7 65 384.9 62.4 381 60C380.8 59.8 380.8 59.5 381 59L385.6 49.4C385.8 48.9 386.3 48.4 386.6 48.4C387.1 48.4 388.8 49.6 391.9 51.8C395 53.6 397.1 55.3 398.1 56.3L398.1 56.3L398.1 56.3L398.1 56.3L398.1 56.3ZM524.6 190C522 190.7 520.5 191.2 520 191.2L520 191C520 191 521 190.3 522.9 189.1C524.8 187.9 527.7 186 531.8 182.9C533.7 181 536.6 177.9 540.2 173.5C542.6 170.6 545.2 168 548.1 166.1C551.7 163.5 555.1 162.3 558.7 162.3C559.4 162.3 560.6 162.5 562.1 163C563.3 163.5 564.5 163.7 565.5 163.7C567.4 163.7 568.9 163 570.1 161.5C570.8 160.1 571.8 158.9 572.7 157.4C573.2 156.4 573.9 156 574.4 156C574.6 156 574.6 156.2 574.6 156.7C574.6 157.2 574.4 158.4 573.9 159.8C573.4 160.5 575.3 160.8 578.9 160.8C579.4 160.8 579.6 160.8 579.6 160.6C579.6 160.6 579.4 159.6 578.9 158C578.7 157.5 578.9 156.8 579.6 155.8C580.6 154.1 581 153.4 581.3 153.6C582.3 154.3 582.7 155.8 582.7 157.4C582.7 159.1 582.2 160.8 581.5 162.7C580.8 164.9 580.1 166.1 579.6 166.5C577.9 167.5 575.3 167.2 571.7 165.5C568.8 168.4 565.9 170.1 563.1 170.1C562.4 170.1 561.2 169.9 560 169.4C558.8 168.9 557.8 168.7 557.1 168.7C552.3 168.7 547.3 170.9 542.2 175.7C538.6 179.3 535 182.9 531.4 186.5C529.1 188 527 189.2 524.6 190L524.6 190L524.6 190L524.6 190L524.6 190ZM473 60.4C475.9 60.4 478.3 61.8 480.4 65.2C482.6 68.3 484.2 72.6 485 77.9C485.2 78.4 485.2 78.6 485.2 78.9L485.4 78.9C485.4 78.7 485.6 78.4 485.6 77.9C486.1 74.8 487.3 70 489 63.7C490.9 59.4 492.8 57.2 495 57.2C496.2 57.2 497.4 57.9 498.4 59.4C499.4 60.8 499.8 61.8 499.8 62.8C499.8 63.3 499.8 64.2 499.3 65.2C498.8 66.6 498.3 67.4 497.9 67.4C497.7 67.4 497.2 66.7 496.2 65.7C495.5 64.7 494.5 64.3 493.6 64.3C491.7 64.3 490 68.9 488.3 78C487.6 82.1 486.6 85 485.9 86.6C485.2 87.6 484.7 88.3 484.2 88.3C483.7 88.3 483.7 87.6 483.5 86.6C483.7 84.9 482.8 81.8 480.9 77.2C479 72.4 477.8 70.2 476.8 70.2C476.3 70.2 476.1 70.2 475.8 70.7C475.6 70.9 475.3 71.2 474.6 71.2C473.6 71.2 472.7 70.5 471.2 69.3C469.8 68.1 469.3 67.1 469.3 66.4C469.3 66.2 469.8 65 471 63C472 61.1 472.7 60.4 473 60.4L473 60.4L473 60.4L473 60.4L473 60.4ZM432.4 57.5C456.6 48.4 481.8 39.3 507.8 29.7C508.5 29.5 509 29.2 509 29.5C509.2 29.5 509.2 30 509 30.7C508 32.9 507.3 34.1 506.8 34.5C506.6 34.7 494.3 39.3 470.6 48.2C446.4 57.1 432.7 62.6 430 64.3C430.5 62 431.2 59.9 432.4 57.5L432.4 57.5L432.4 57.5L432.4 57.5L432.4 57.5ZM408.9 13.6C409.4 12.2 409.4 10.7 409.1 9.30002C408.9 7.90002 408.1 7.10002 406.9 7.10002C406.4 7.10002 405.7 7.30002 404.7 7.80002C403.7 8.30002 403.3 8.80002 403.3 9.20001C403.4 10.4 405.3 11.9 408.9 13.6L408.9 13.6L408.9 13.6L408.9 13.6L408.9 13.6ZM406 19.8C401.4 17.4 399.3 15 399.3 12.4C399.3 9.30002 400.7 6.40002 403.6 4.00003C406.5 1.40002 408.9 0.400024 410.8 1.10004C412.5 1.60004 413.2 3.30003 413.2 6.10004C413.2 8.70004 412.7 11.6 411.5 15C413.9 16.2 415.3 17.4 415.8 18.4C415.8 19.6 414.8 21.8 412.7 24.6C412.2 23.6 410.8 22.4 408.6 21.2C406 24.8 402.8 27.9 399 30.8C394.4 33.9 390.4 36.6 386.8 38C385.8 38.5 381.5 40.2 373.8 43C372.6 43.5 371.6 43.7 371.4 43.7C371.2 43.7 371.2 43.5 371.2 43.5C371.2 43.3 371.7 42.5 373.1 41.8C378.9 38.2 384.6 34.8 390.6 31.5C397.6 27.2 402.6 23.4 406 19.8L406 19.8L406 19.8L406 19.8L406 19.8ZM557.7 49.8C558.2 48.4 558.2 46.9 557.9 45.5C557.7 44.1 556.9 43.3 555.7 43.3C555.2 43.3 554.5 43.5 553.5 44C552.5 44.5 552.1 45 552.1 45.4C552.2 46.7 554.1 48.1 557.7 49.8L557.7 49.8L557.7 49.8L557.7 49.8L557.7 49.8ZM563 58.7C560.6 64.5 559.4 69 559.4 72.4C559.4 76.5 560.4 78.6001 562.5 78.6001C563.7 78.6001 565.1 76.9 566.8 74C567 73.8 567 73.5 567.3 73.3C567.3 73.3 567.5 73.3 567.5 73.5C567.5 73.5 567.5 73.7001 567.5 74.2001C566.1 81.4001 563.9 85 561 85C557.9 85 556.4 82.4 556.4 77.1001C556.4 74.5 556.9 71.1001 558.3 66.8001C559.7 62.5001 560.5 60.3001 560.5 60.1001C560.5 59.6001 559.5 58.7001 557.4 57.5C553.6 62.5 548.3 67.3 541.6 71.4C537 74 532.5 76.4 527.7 78.4C518.8 82 513.5 83.9 512.3 84.6001C511.1 85.1001 510.4 85.3001 509.9 85.3001C509.7 85.3001 509.7 85.1001 509.7 85.1001C509.7 84.6001 510.2 84.1001 511.6 83.2001C519.3 78.9001 526.7 74.6001 534.4 70.2001C544.5 64.4001 551.4 59.6001 554.8 56C550.2 53.6001 548.1 51.2 548.1 48.6001C548.1 45.5 549.5 42.6001 552.4 40C555.3 37.6001 557.7 36.6001 559.6 37.4C561 37.9 562 39.6 562 42.4C562 45 561.5 47.9 560.3 51C562.7 52.4 563.7 53.9 563.7 55.3C563.7 56 563.4 57.2 563 58.7L563 58.7L563 58.7L563 58.7L563 58.7ZM453.8 23.6C453.8 23.4 454 23.1 454 23.1C454.2 22.9 454.2 22.9 454.2 23.1C454.4 23.3 454.4 23.6 454.2 23.8C453 31 450.8 34.6 447.7 34.6C444.6 34.6 443.1 32 443.1 26.7C443.1 20.2 444.8 13.3 448.6 6.30003C449.6 4.60004 450 3.70003 450.3 3.70003L450.3 3.70003C450.3 3.90002 450.1 4.90002 449.6 6.60002C447.2 14 446 19.1 446 22.2C446 26 447 28.2 449.1 28.2C450.6 28.2 452.1 26.5 453.8 23.6L453.8 23.6L453.8 23.6L453.8 23.6L453.8 23.6Z" id="Group" fill="#595959" stroke="none" clip-path="url(#clip_1)" />
  </g>
</svg>