<?xml version="1.0" encoding="utf-8"?>
<svg width="482.40015px" height="204.02692px" viewBox="0 0 482.40015 204.02692" version="1.1" xmlns:xlink="http://www.w3.org/1999/xlink" xmlns="http://www.w3.org/2000/svg">
  <defs>
    <path d="M482.4 0L482.4 0L482.4 204.027L0 204.027L0 0L482.4 0Z" id="path_1" />
    <clipPath id="clip_1">
      <use xlink:href="#path_1" clip-rule="evenodd" fill-rule="evenodd" />
    </clipPath>
  </defs>
  <g id="Surah_16_of_114_(modified)">
    <path d="M482.4 0L482.4 0L482.4 204.027L0 204.027L0 0L482.4 0Z" id="Surah_16_of_114_(modified)" fill="none" stroke="none" />
    <path d="M128.2 21.7269C146.7 15.0269 165.9 7.82692 186 0.32692C186.178 0.275967 186.344 0.218524 186.494 0.166165C186.935 0.0130054 187.251 -0.09665 187.4 0.126923C187.4 0.126923 187.4 0.626923 187.2 1.32692C186.2 3.52692 185.5 4.72691 185 5.12692C168.2 11.3269 148.3 19.0269 125.7 28.4269C126.2 26.2269 127 24.0269 128.2 21.7269ZM237.1 26.2269C237.1 21.4269 236.4 17.6269 234.9 14.4269C234.9 12.7269 236.1 8.62691 239 2.42691C239.2 1.72691 239.5 1.22691 239.7 1.22691C240.2 1.22691 240.4 1.72691 240.9 2.42691C241.6 4.12691 243.3 8.62691 246.2 16.1269C249.3 24.0269 251 28.8269 251.5 30.7269C252 31.9269 252 33.1269 252 33.6269C252 35.8269 250.1 34.6269 245.8 29.8269C245.3 29.1269 245.1 29.6269 245.1 30.8269C245.1 31.3269 246.3 46.2269 248.5 75.9269C250.7 105.427 251.6 122.027 251.6 125.827C251.6 137.127 249.9 147.227 246.6 155.827C245.6 157.527 245.2 158.727 244.7 159.627C244 160.827 243.7 160.827 243.5 160.127C243.329 159.273 243.45 157.763 243.614 155.72C243.642 155.371 243.671 155.006 243.7 154.627C244.2 150.527 244.4 146.027 244.4 140.927C244.4 136.127 243.2 116.927 240.8 83.1269C238.3 49.3269 237.1 30.3269 237.1 26.2269ZM287.5 15.7269C287.5 18.3269 289.6 20.7269 294.2 23.1269C290.9 26.7269 285.8 30.5269 278.8 34.8269C272.8 38.1269 267.1 41.5269 261.3 45.1269C259.9 45.8269 259.4 46.6269 259.4 46.8269C259.4 46.8269 259.4 47.0269 259.6 47.0269C259.8 47.0269 260.8 46.8269 262 46.3269C269.7 43.5269 274 41.8269 275 41.3269C278.6 39.9269 282.6 37.2269 287.2 34.1269C291 31.2269 294.2 28.1269 296.8 24.5269C299 25.7269 300.4 26.9269 300.9 27.9269C303 25.1269 304 22.9269 304 21.7269C303.5 20.7269 302.1 19.5269 299.7 18.3269C300.9 14.9269 301.4 12.0269 301.4 9.42694C301.4 6.62694 300.7 4.92694 299 4.42694C297.1 3.72693 294.7 4.72693 291.8 7.32693C288.9 9.72693 287.5 12.6269 287.5 15.7269ZM225.4 84.5269C225.4 98.7269 222.8 109.727 217.7 117.927C213.4 124.627 208.3 128.227 202.6 128.227L202.6 113.627C207.2 113.627 211.7 111.727 216 108.127C217.2 107.127 217.9 103.127 217.9 96.3269C217.9 91.3269 217.2 80.5269 216 64.1269C214.6 47.5269 214.1 37.5269 214.1 33.4269C214.1 28.8269 213.4 25.0269 211.9 21.9269C211.9 20.2269 213.3 16.1269 216 9.7269C216.2 9.0269 216.5 8.7269 217 8.7269C217.2 8.7269 217.5 8.9269 218 9.9269C218.7 11.6269 220.6 16.1269 223.5 23.6269C226.4 31.5269 228.1 36.3269 228.8 38.0269C229 39.4269 229.3 40.6269 229.3 41.1269C229.3 43.3269 227.1 42.1269 223.1 37.3269C222.6 36.6269 222.4 37.1269 222.4 38.3269C222.4 38.5269 222.9 45.0269 223.8 58.0269C224.6 70.6269 225.4 79.5269 225.4 84.5269ZM297.3 12.6269C297.6 14.0269 297.6 15.5269 297.1 16.9269C293.5 15.2269 291.6 13.7269 291.5 12.5269C291.5 12.1269 291.9 11.6269 292.9 11.1269C293.9 10.6269 294.6 10.4269 295.1 10.4269C296.3 10.4269 297.1 11.2269 297.3 12.6269ZM338.8 29.8269C338.8 29.8269 338.6 30.1269 338.6 30.3269C337 33.2269 335.5 34.9269 333.9 34.9269C331.8 34.9269 330.8 32.7269 330.8 28.9269C330.8 25.8269 332 20.7269 334.4 13.3269C334.9 11.6269 335.1 10.6269 335.1 10.4269C334.8 10.4269 334.4 11.3269 333.4 13.0269C329.6 20.0269 327.9 26.9269 327.9 33.4269C327.9 38.7269 329.4 41.3269 332.5 41.3269C335.6 41.3269 337.8 37.7269 339 30.5269C339.2 30.3269 339.2 30.0269 339 29.8269C339 29.7362 339 29.6867 338.981 29.6782C338.959 29.668 338.909 29.7176 338.8 29.8269ZM5.5 137.327C1.7 144.527 0 153.727 0 164.727C0 174.527 1.39999 182.527 4.90001 188.827C10.1 198.427 18.5 203.427 30.3 203.427C38.9 203.427 48.8 200.127 60.3 193.627C69.1 188.827 78 182.627 86.9 174.927C94.1 168.927 98.6 164.327 100.3 161.727C102 159.627 103.5 154.027 104.9 145.427C105.6 154.127 107 160.327 109.2 163.927C112.5 169.627 117.8 172.527 125 172.527L125 172.727C128.3 172.727 134.1 170.527 142.5 166.227C155 159.727 162.4 156.127 165.3 154.927C177.3 149.927 191.5 147.527 207.8 147.527C208.8 147.527 209.3 147.027 210 145.827L215 135.727C215.5 135.227 215.5 134.727 215.5 134.527C215.5 133.727 214 133.527 211.4 133.527C200.6 133.527 186.2 132.527 168.4 130.127C154.773 128.304 146.303 127.125 142.637 126.414C148.803 121.328 155.754 114.665 163.1 106.327C167.9 101.027 171.7 98.4269 174.6 98.4269C175.1 98.4269 176.1 100.527 176.8 104.627C178 109.927 179.5 113.827 180.9 116.427C185.7 124.427 192.9 128.227 202.3 128.227L202.3 113.527C195.1 113.527 189.3 109.727 185 102.027C183.6 99.4269 182.6 95.3269 181.4 89.3269C180.9 85.7269 179.5 83.8269 177.1 83.8269C174.9 83.8269 172 85.7269 168.9 89.3269C165.1 93.9269 161.2 98.4269 157.4 103.027C153.1 107.627 147.6 111.727 141.1 114.827C139.2 115.727 134.4 117.927 126.2 121.027C121.569 122.86 118.52 124.507 117.234 126.327L117 126.327C114.9 130.627 113.2 134.027 112 136.427C111.8 136.627 111.8 136.927 111.8 137.127C111.8 137.627 113.2 138.127 116.1 138.327C131 139.527 146.1 141.227 161.5 143.627C144.4 153.227 132.2 158.027 125 158.027L125 157.927C121.9 157.927 119.3 157.127 117.6 155.727C115.2 153.627 113.3 150.027 112.1 144.227C111.1 139.427 110.4 126.727 109.9 106.327C109.2 83.8269 108.2 67.0269 106.8 56.4269C104.9 40.4269 102.2 27.2269 99.1 16.6269C98.6 15.7269 98.3 15.2269 98.1 15.2269C97.6 15.2269 97.4 15.6269 96.9 16.6269C96.4 18.0269 95.5 22.3269 94.5 29.3269C96.7 41.5269 97.9 51.1269 98.6 57.6269C101 77.1269 102.2 98.9269 102.2 123.427C102.2 133.827 102.2 140.527 101.7 143.627C101.3 146.727 100.5 149.127 99.1 150.827C93.1 157.827 83.9 165.527 71.7 173.427C55.9 183.927 42.4 189.227 30.9 189.227C19.8 189.227 12.2 185.127 7.59999 177.427C4.69998 172.427 3.29999 166.427 3.29999 159.427C3.29999 152.927 4.5 145.927 7.39999 138.027C8.06959 136.755 8.3805 135.707 8.51285 134.853C10.8757 133.888 12.5912 130.38 13.6 124.327C13.8 124.127 13.8 123.827 13.6 123.627C13.6 123.536 13.6 123.487 13.5813 123.478C13.5589 123.468 13.5093 123.518 13.4 123.627C13.4 123.627 13.2 123.927 13.2 124.127C11.5 127.027 10.1 128.727 8.49998 128.727C6.39998 128.727 5.39998 126.527 5.39998 122.727C5.39998 119.627 6.59999 114.527 8.99998 107.127C9.49998 105.427 9.69998 104.427 9.69998 104.227C9.39998 104.227 8.99998 105.127 7.99998 106.827C4.19998 113.827 2.49998 120.727 2.49998 127.227C2.49998 132.232 3.83746 134.829 6.59662 135.103C6.24504 135.69 5.87252 136.427 5.5 137.327ZM117.234 126.327L142.2 126.327C142.337 126.355 142.483 126.384 142.637 126.414C142.591 126.452 142.546 126.489 142.5 126.527L117.1 126.527C117.142 126.46 117.187 126.393 117.234 126.327ZM179.3 40.4269C180.2 38.5269 180.7 36.3269 180.7 34.4269C180.7 33.4269 180.2 32.0269 179.1 30.0269C177.9 26.7269 177.2 25.0269 177.2 25.0269C177 24.0269 176.7 22.8269 176.5 21.6269C176.5 20.7269 176.2 20.2269 176 20.2269C175.7 20.2269 175.5 20.7269 175 21.4269C174 22.6269 173.8 23.8269 173.8 25.2269C173.8 27.8269 175.3 31.4269 177.9 36.2269C177.7 37.7269 176.7 38.4269 175.3 38.4269C172.1 38.4269 170.7 36.3269 170.7 32.2269C170.7 30.8269 170.2 28.6269 169.5 25.5269C168.8 22.6269 168.3 21.2269 167.8 21.2269C167.6 21.2269 167.1 21.6269 166.6 22.6269C166.1 23.8269 165.9 24.5269 165.9 25.0269C165.9 25.5269 166.2 26.9269 166.9 29.1269C167.4 31.5269 167.9 32.9269 167.9 33.9269C167.9 35.6269 167.2 37.0269 166 38.2269C164.8 39.4269 163.6 40.1269 162.2 40.1269C161.3 40.1269 160.3 39.1269 159.6 37.7269C159.1 36.5269 158.9 35.0269 158.9 33.6269C158.9 32.9269 158.9 32.2269 159.1 31.2269C159.1 30.2269 159.3 29.0269 159.3 27.6269C159.3 25.0269 158.8 23.8269 158.1 23.8269C157.6 23.8269 156.9 24.3269 155.9 25.5269C155 26.7269 154.5 27.9269 154.5 29.3269C154.5 30.0269 154.8 30.5269 155.5 30.7269C156 31.0269 156.5 31.2269 156.5 31.7269L156.5 37.9269C156.5 40.3269 157 42.5269 158.2 43.9269C159.2 45.4269 160.4 46.1269 161.6 46.1269C165.2 46.1269 167.6 43.5269 169 38.7269C170.2 42.6269 172.1 44.5269 175 44.5269C176.7 44.5269 178.1 43.0269 179.3 40.4269ZM77 42.8269C77 42.8269 76.8 43.1269 76.8 43.3269C75.1 46.1269 73.7 47.8269 72.1 47.9269C70 47.9269 69 45.7269 69 41.9269C69 38.8269 70.2 33.7269 72.6 26.3269C73.1 24.6269 73.3 23.6269 73.3 23.4269C73 23.4269 72.6 24.3269 71.6 26.0269C67.8 33.0269 66.1 39.9269 66.1 46.4269C66.1 51.7269 67.6 54.3269 70.7 54.3269C73.8 54.3269 76 50.7269 77.2 43.5269C77.4 43.3269 77.4 43.0269 77.2 42.8269C77.2 42.7362 77.2 42.6867 77.1814 42.6782C77.1589 42.668 77.1095 42.7174 77 42.8269ZM320.6 60.8269C344.8 51.7269 370 42.6269 396 33.0269C396.202 32.9691 396.388 32.903 396.549 32.8455C396.947 32.7037 397.2 32.6135 397.2 32.8269C397.4 32.8269 397.4 33.3269 397.2 34.0269C396.2 36.2269 395.5 37.4269 395 37.8269C394.8 38.0269 382.5 42.6269 358.8 51.5269C334.6 60.4269 320.9 65.9269 318.2 67.6269C318.7 65.3269 319.4 63.2269 320.6 60.8269ZM451.2 62.0269C448.8 67.8269 447.6 72.3269 447.6 75.7269C447.6 79.8269 448.6 81.9269 450.7 81.9269C451.9 81.9269 453.3 80.2269 455 77.3269C455.2 77.1269 455.2 76.8269 455.5 76.6269C455.5 76.6269 455.7 76.6269 455.7 76.8269L455.7 77.5269C454.3 84.727 452.1 88.3269 449.2 88.3269C446.1 88.3269 444.6 85.7269 444.6 80.4269C444.6 77.8269 445.1 74.4269 446.5 70.127C447.9 65.827 448.7 63.627 448.7 63.4269C448.7 62.9269 447.7 62.0269 445.6 60.8269C441.8 65.8269 436.5 70.6269 429.8 74.7269C425.2 77.3269 420.7 79.7269 415.9 81.7269C407 85.3269 401.7 87.2269 400.5 87.9269C399.3 88.4269 398.6 88.627 398.1 88.627C397.9 88.627 397.9 88.4269 397.9 88.4269C397.9 87.9269 398.4 87.4269 399.8 86.5269C407.5 82.227 414.9 77.9269 422.6 73.5269C432.7 67.727 439.6 62.9269 443 59.3269C438.4 56.9269 436.3 54.5269 436.3 51.9269C436.3 48.8269 437.7 45.9269 440.6 43.3269C443.5 40.9269 445.9 39.9269 447.8 40.7269C449.2 41.2269 450.2 42.9269 450.2 45.7269C450.2 48.3269 449.7 51.2269 448.5 54.3269C450.9 55.7269 451.9 57.2269 451.9 58.6269C451.9 59.3269 451.7 60.5269 451.2 62.0269ZM445.9 53.1269C446.4 51.7269 446.4 50.2269 446.1 48.8269C445.9 47.4269 445.1 46.6269 443.9 46.6269C443.4 46.6269 442.7 46.8269 441.7 47.3269C440.7 47.8269 440.3 48.3269 440.3 48.7269C440.4 50.0269 442.3 51.4269 445.9 53.1269ZM290.1 51.7269L286.3 59.6269C285.4 58.6269 283.2 56.9269 280.1 55.127C277 52.927 275.3 51.727 274.8 51.727C274.5 51.727 274 52.227 273.8 52.727L269.2 62.327C269 62.827 269 63.127 269.2 63.327C273.1 65.727 276.9 68.327 280.5 71.227C281 71.5269 281.5 71.227 281.7 70.5269C283.2 68.3269 284.4 65.7269 285.8 62.8269C289.9 65.4269 293.5 67.8269 296.6 70.2269C297 70.4269 297.5 70.4269 298 69.7269C301.1 64.4269 302.8 60.8269 302.8 59.1269C302.8 58.6269 300.9 57.2269 297.3 54.8269C293.5 52.2269 291.6 51.0269 291.1 51.0269C290.6 51.0269 290.3 51.2269 290.1 51.7269ZM163.9 66.8269C163.7 66.6269 163.7 66.3269 163.9 65.8269L168.5 56.2269C168.7 55.7269 169.2 55.5269 169.5 55.5269C170 55.5269 172.1 56.7269 175.7 59.1269C179.5 61.7269 181.5 63.2269 181.5 63.7269C181.5 65.4269 179.8 68.7269 176.5 74.0269L176.471 74.0672C175.992 74.7383 175.79 75.0211 175.3 74.7269C171.6 71.8269 167.8 69.2269 163.9 66.8269ZM137.5 56.7269C136.8 56.7269 135.8 57.2269 135.1 58.4269C131.8 64.9269 129.4 71.8269 128.2 79.6269C128 80.5269 128 81.5269 128 82.2269C128 86.0269 129.4 88.2269 132.8 88.2269C136.2 88.2269 138.8 86.5269 141.2 83.6269C141.9 82.6269 142.4 80.0269 142.9 75.9269C143.1 72.3269 140.7 68.5269 135.7 64.9269C136.4 62.5269 137.3 60.1269 138.3 57.9269C138.3 57.6269 138.5 57.4269 138.5 57.4269C138.5 56.9269 138 56.7269 137.5 56.7269ZM20.4 60.0269C23.3 60.0269 25.7 61.4269 27.8 64.8269C30 67.9269 31.6 72.2269 32.4 77.5269C32.6 78.0269 32.6 78.2269 32.6 78.5269L32.8 78.5269C32.8 78.3269 33 78.0269 33 77.5269C33.5 74.4269 34.7 69.6269 36.4 63.3269C38.3 59.0269 40.2 56.8269 42.4 56.8269C43.6 56.8269 44.8 57.5269 45.8 59.0269C46.8 60.4269 47.2 61.4269 47.2 62.4269C47.2 62.9269 47.2 63.8269 46.7 64.8269C46.2 66.2269 45.7 67.0269 45.3 67.0269C45.1 67.0269 44.6 66.3269 43.6 65.3269C42.9 64.3269 41.9 63.9269 41 63.9269C39.1 63.9269 37.4 68.5269 35.7 77.6269C35 81.7269 34 84.6269 33.3 86.2269C32.6 87.2269 32.1 87.9269 31.6 87.9269C31.1 87.9269 31.1 87.2269 30.9 86.2269C31.1 84.5269 30.2 81.4269 28.3 76.8269C26.4 72.0269 25.2 69.8269 24.2 69.8269C23.7 69.8269 23.5 69.8269 23.2 70.3269C23 70.5269 22.7 70.8269 22 70.8269C21 70.8269 20.1 70.1269 18.6 68.9269C17.2 67.7269 16.7 66.7269 16.7 66.0269C16.7 65.8269 17.2 64.627 18.4 62.627C19.4 60.8269 20.2 60.0269 20.4 60.0269ZM368.6 68.7269C366.5 65.3269 364.1 63.9269 361.2 63.9269C361 63.9269 360.2 64.6269 359.2 66.5269C358 68.5269 357.5 69.7269 357.5 69.9269C357.5 70.6269 358 71.6269 359.4 72.8269C360.9 74.0269 361.8 74.7269 362.8 74.7269C363.5 74.7269 363.8 74.4269 364 74.2269C364.3 73.7269 364.5 73.7269 365 73.7269C366 73.7269 367.2 75.9269 369.1 80.7269C371 85.3269 371.9 88.4269 371.7 90.1269C371.9 91.1269 371.9 91.8269 372.4 91.8269C372.9 91.8269 373.4 91.1269 374.1 90.1269C374.8 88.5269 375.8 85.6269 376.5 81.5269C378.2 72.4269 379.9 67.8269 381.8 67.8269C382.7 67.8269 383.7 68.2269 384.4 69.2269C385.4 70.2269 385.9 70.9269 386.1 70.9269C386.5 70.9269 387 70.1269 387.5 68.7269C388 67.7269 388 66.8269 388 66.3269C388 65.3269 387.6 64.3269 386.6 62.9269C385.6 61.4269 384.4 60.7269 383.2 60.7269C381 60.7269 379.1 62.9269 377.2 67.2269C375.5 73.5269 374.3 78.3269 373.8 81.4269C373.8 81.9269 373.6 82.2269 373.6 82.4269L373.4 82.4269C373.4 82.1269 373.4 81.9269 373.2 81.4269C372.4 76.1269 370.8 71.8269 368.6 68.7269ZM133 71.4269C138 74.2269 140.4 76.4269 140.4 77.6269C139.9 78.5269 138.7 79.5269 137.1 80.3269C135.4 81.2269 134 81.7269 132.8 81.7269C131.3 81.7269 130.6 80.7269 130.6 79.3269C130.6 76.9269 131.3 74.3269 133 71.4269ZM309.1 77.6269C309.1 81.4269 307.2 86.7269 303.3 93.2269C300.9 97.3269 297.3 102.827 292.5 110.027C297.3 115.527 300.7 120.627 302.3 124.927C303.3 128.027 304 132.127 304 136.727C304 138.627 303.5 141.027 302.6 144.127C301.9 147.027 300.9 149.127 300 150.627C298.1 153.527 295 156.427 290.2 159.227C285.2 162.627 280.8 164.227 277.2 164.227C271.4 164.227 268.6 159.927 268.6 151.227C268.6 145.427 269.6 139.727 271.5 134.427C273.4 129.827 276.5 123.827 281.6 115.927C277.3 111.827 272.7 106.127 267.7 98.9269C267.2 98.2269 266 97.0269 264.1 95.1269C263.1 94.1269 262.7 92.9269 262.7 91.5269C262.7 89.3269 262.9 86.9269 263.4 84.1269C264.1 81.2269 264.6 80.0269 264.8 80.0269C265.5 80.0269 267.7 81.2269 271.8 83.8269C275.6 86.4269 278.8 88.4269 280.7 90.0269C281.9 90.7269 282.4 91.4269 282.4 91.4269L282.4 91.6269C282.4 91.8269 281.7 92.1269 280 92.1269C276.9 92.1269 275.2 92.3269 275.2 92.6269C275.2 92.8269 275.7 93.3269 276.6 94.5269C280.4 99.3269 284.3 102.927 288.4 105.827C289.4 104.427 292.7 99.6269 298 91.4269C302.6 84.4269 305.2 79.6269 306.4 76.8269C307.6 73.9269 308.3 72.7269 308.8 72.7269C308.9 72.8269 309.1 74.2269 309.1 77.6269ZM326.6 105.927C327.6 107.127 328.3 108.727 328.8 110.927C330 115.027 332.4 120.827 335.7 127.827C338.6 134.127 340 137.427 340 137.927C340 139.927 337.1 143.027 331.6 147.327C326.749 150.932 320.436 155.054 312.663 159.634C313.398 155.198 314.671 149.883 316.5 143.627C316.8 142.127 317 140.927 317 140.227C317 139.727 317 139.527 316.8 139.527C316.3 139.527 315.8 140.527 314.6 142.927C312.254 149.262 310.527 155.425 309.5 161.477C306.292 163.325 302.859 165.243 299.2 167.227C289.8 172.327 278.1 177.827 263.9 183.827C243.5 192.427 232.4 197.227 230.5 198.227C225.2 200.627 222.6 202.127 222.6 202.327C222.6 202.527 222.6 202.527 223.1 202.527C224.1 202.527 226.5 202.227 230.3 201.527C233.9 201.027 243 198.927 257.4 195.527C271.1 192.227 278.3 190.527 278.8 190.527C281.4 190.527 289.8 186.427 304.2 178.027C305.645 177.217 307.053 176.412 308.424 175.612C308.66 182.88 310.64 189.143 314.2 193.827C318.5 199.827 324.7 202.927 332.9 202.927C342.5 202.927 353.5 197.927 366.5 188.327C375.2 181.827 383.1 174.327 390.3 165.727C393.4 162.127 396 157.527 397.7 152.027C399.2 147.627 399.9 144.327 399.9 141.427L400.4 140.927L400.4 127.727C399.4 128.227 398.9 128.227 398.7 128.227C396.3 123.227 393.4 119.127 390.3 115.527C386.7 111.927 383.6 110.027 380.5 110.027C376.4 110.027 372.6 112.127 369 116.227C365.2 121.027 363.5 126.327 363.5 132.327C363.5 140.227 369.3 144.327 380.8 144.327C386.1 144.327 390.4 143.627 393.3 142.627C393.8 144.327 394.3 146.027 394.3 147.427C394.3 149.627 390.7 153.927 383.7 160.727C376 167.927 368.1 173.927 359.9 178.927C349.5 185.227 340.9 188.327 333.7 188.327C325.3 188.327 319.3 185.627 315.5 180.627C314.039 178.436 313.023 175.948 312.451 173.209C324.744 165.712 333.723 158.647 339.5 152.127C341.5 149.927 342.9 146.827 344.1 142.727C345 139.127 345.5 136.227 345.5 133.827C345.5 128.727 344 123.227 341.4 116.527C339.7 112.727 337.8 108.627 336.1 104.527C339 105.227 340.9 105.727 341.6 105.727C342.1 105.727 342.3 105.427 342.3 105.227C342.3 104.727 341.6 103.827 339.9 102.127C335.9 98.0269 332.3 94.1269 328.9 90.3269C328.4 89.8269 328.1 89.6269 327.9 89.6269C327.4 89.6269 327.1 90.1269 326.9 91.3269C326.4 92.5269 326.2 94.7269 325.7 97.8269C325.2 101.127 325.2 102.827 325.2 103.327C325.4 103.727 325.9 104.527 326.6 105.927ZM79.9 102.327C79.9 102.827 79.7 103.727 79.2 104.727C79 106.127 78.5 106.927 77.8 106.927C77.6 106.927 77.1 106.227 76.1 105.227C75.4 104.227 74.4 103.827 73.7 103.827C71.8 103.827 69.9 108.427 68.2 117.527C67.5 121.627 66.8 124.527 65.8 126.127C65.5495 126.485 65.3246 126.804 65.1161 127.067C65.3675 126.304 65.5 125.83 65.5 125.727L65.5 125.527C65.3552 125.527 64.7913 126.156 63.7702 127.337C63.6726 127.038 63.6 126.619 63.6 126.127C63.6 124.427 62.6 121.327 60.7 116.727C58.8 111.927 57.6 109.727 56.9 109.727C56.2 109.727 55.9 109.727 55.7 110.227C55.7 110.427 55.2 110.727 54.5 110.727C53.5 110.727 52.6 110.027 51.1 108.827C49.9 107.627 49.2 106.627 49.2 105.927C49.2 105.727 49.7 104.527 50.9 102.527C52.1 100.627 52.8 99.9269 53.1 99.9269C55.7 99.9269 58.1 101.327 60.3 104.727C62.7 108.127 64.1 112.127 65.1 117.427L65.1 118.427C65.2094 118.536 65.2589 118.586 65.2814 118.576C65.3 118.567 65.3 118.518 65.3 118.427C65.3 118.227 65.5 117.927 65.8 117.427C66 114.327 67.2 109.527 68.9 103.227C70.8 98.9269 72.7 96.7269 74.9 96.7269C76.1 96.7269 77.3 97.4269 78.5 98.9269C79.4 100.427 79.9 101.327 79.9 102.327ZM63.7702 127.337C63.3807 127.788 62.9247 128.319 62.4 128.927C60.7 130.827 58.6 132.927 55.7 135.127C43.7 143.027 34.6 148.627 28.1 152.427C26.9 153.127 26.2 153.927 26.2 154.127C26.2 154.127 26.2 154.327 26.4 154.327C26.9 154.327 27.6 154.127 28.8 153.627C36.8 150.827 41.1 149.127 41.8 148.627C45.4 147.027 49.4 144.627 54 141.227C59.1 137.627 62.4 133.727 64.1 129.927C64.5367 128.762 64.8792 127.786 65.1161 127.067C64.7421 127.538 64.4211 127.827 64.1 127.827C63.9984 127.827 63.871 127.646 63.7702 127.337ZM426.5 112.627C425.8 112.627 424.8 113.027 423.6 114.027C419.8 117.427 415.9 120.327 412 122.227C410.8 123.027 406.7 124.927 400.5 128.027L400.5 141.227C408.9 137.327 415.4 133.327 419.2 128.727C419.2 139.727 424 145.527 434.1 145.527C442.5 145.527 449.4 140.727 454.7 131.127C457.9 136.927 461.5 140.027 465.3 140.027C471.1 140.027 475.4 137.427 478.3 132.127C481 127.727 482.4 122.727 482.4 116.727C482.4 112.827 481.2 109.527 479.3 106.627C478.6 105.627 478.1 105.427 477.6 105.427C477.1 105.427 476.6 106.227 476.4 107.627C475 112.127 474 115.527 473.8 117.427C475.9 121.027 476.9 123.027 476.9 123.227C475.9 124.827 473.8 125.827 470.4 125.827C467.8 125.827 465.4 124.827 463.7 123.427C461.8 122.027 460.8 120.327 460.8 118.627C460.8 119.127 461.5 117.227 462.5 113.127C463 111.027 462.8 110.027 461.8 110.027C461.1 110.027 460.4 110.427 459.4 111.427C457 115.327 454.4 119.127 452 123.227C448.1 128.327 443.1 130.927 437.1 130.927C429.6 130.927 425.8 128.027 425.8 122.727C425.8 121.527 426 120.027 426.5 118.127C427 116.227 427.2 114.727 427.2 114.027C427.2 113.127 427 112.627 426.5 112.627ZM299.8 136.627C297.2 131.327 292.6 125.827 286.4 120.527C284.2 122.727 281.6 126.727 278.2 132.527C274.4 139.027 272.7 143.127 272.7 145.227C272.7 148.127 274.6 149.527 278.9 149.527C280.8 149.527 283.2 148.827 286.3 147.627C290.6 145.727 294.7 143.027 298.1 139.727C299.5 138.327 300 137.327 299.8 136.627ZM386.9 129.927C383.3 125.327 380.2 123.227 377.3 123.227C373 123.227 371.1 124.227 371.1 126.627C371.1 129.527 374 130.927 379.7 130.927C381.564 130.927 383.664 130.533 386 130.095C386.296 130.039 386.596 129.983 386.9 129.927ZM215.8 176.027C215.8 175.827 216 175.527 216 175.527C216.109 175.418 216.159 175.368 216.181 175.378C216.2 175.387 216.2 175.436 216.2 175.527C216.4 175.727 216.4 176.027 216.2 176.227C215 183.427 212.8 187.027 209.7 187.027C206.6 187.027 205.1 184.427 205.1 179.127C205.1 172.627 206.8 165.727 210.6 158.727C211.6 157.027 212 156.127 212.3 156.127C212.3 156.327 212.1 157.327 211.6 159.027C209.2 166.427 208 171.527 208 174.627C208 178.427 209 180.627 211.1 180.627C212.6 180.527 214.1 178.927 215.8 176.027ZM412.8 193.527C410.2 194.227 408.7 194.727 408.2 194.727L408.2 194.527C408.2 194.527 409.2 193.827 411.1 192.627C413 191.427 415.9 189.527 420 186.427C421.9 184.527 424.8 181.427 428.4 177.027C430.8 174.127 433.4 171.527 436.3 169.627C439.9 167.027 443.3 165.827 446.9 165.827C447.6 165.827 448.8 166.027 450.3 166.527C451.5 167.027 452.7 167.227 453.7 167.227C455.6 167.227 457.1 166.527 458.3 165.027C459 163.627 460 162.427 460.9 160.927C461.4 159.927 462.1 159.527 462.6 159.527C462.8 159.527 462.8 159.727 462.8 160.227C462.8 160.727 462.6 161.927 462.1 163.327C461.6 164.027 463.5 164.327 467.1 164.327C467.6 164.327 467.8 164.327 467.8 164.127C467.8 164.127 467.6 163.127 467.1 161.527C466.9 161.027 467.1 160.327 467.8 159.327L467.88 159.191C468.822 157.59 469.208 156.932 469.5 157.127C470.5 157.827 470.9 159.327 470.9 160.927C470.9 162.627 470.4 164.327 469.7 166.227C469 168.427 468.3 169.627 467.8 170.027C466.1 171.027 463.5 170.727 459.9 169.027C457 171.927 454.1 173.627 451.3 173.627C450.6 173.627 449.4 173.427 448.2 172.927C447 172.427 446 172.227 445.3 172.227C440.5 172.227 435.5 174.427 430.4 179.227L419.6 190.027C417.4 191.627 415.2 192.827 412.8 193.527ZM167.7 204.027C175.4 204.027 181.9 201.627 186.7 197.327C187.9 196.427 188.4 195.727 188.4 195.727C188.4 195.427 187.6 195.427 186.2 195.927C180.5 197.527 175.4 198.527 170.4 198.527C165.3 198.527 162.7 197.327 162.7 194.927C162.7 194.027 163.1 192.527 164.1 191.127L172 183.227C175.6 179.127 177.3 176.327 177.3 174.127C177.3 171.227 174.7 170.027 168.9 170.027C166.2 170.027 164.3 170.427 163.1 171.427C162.1 172.127 161.2 173.827 160.2 176.227C160 176.727 160 176.927 160 176.927C160.137 177.064 160.32 177.014 160.486 176.968C160.563 176.947 160.637 176.927 160.7 176.927C162.4 175.927 163.8 175.727 165 175.727C167.4 175.727 169.8 176.027 171.7 176.727C172.7 177.127 172.9 177.627 172.2 178.127C169.6 181.227 166.7 184.127 163.8 187.227C160.9 190.627 159.7 193.927 159.7 197.327C159.7 199.227 160.5 200.927 161.9 202.127C163.4 203.327 165.5 204.027 167.7 204.027ZM79.4 195.927C89 192.527 99.3 188.727 110.4 184.927C110.785 184.85 111.052 184.758 111.245 184.691C111.554 184.585 111.677 184.542 111.8 184.727C112 184.727 112 185.227 111.6 185.927C110.9 188.127 110.2 189.327 109.7 189.727C100.1 193.127 89.3 197.127 77.1 202.727C77.5 200.527 78.2 198.327 79.4 195.927Z" id="Group" fill="#595959" fill-rule="evenodd" stroke="none" clip-path="url(#clip_1)" />
  </g>
</svg>