<?xml version="1.0" encoding="utf-8"?>
<svg width="492.60016px" height="210.60005px" viewBox="0 0 492.60016 210.60005" version="1.1" xmlns:xlink="http://www.w3.org/1999/xlink" xmlns="http://www.w3.org/2000/svg">
  <defs>
    <path d="M492.6 0L492.6 0L492.6 210.6L0 210.6L0 0L492.6 0Z" id="path_1" />
    <clipPath id="clip_1">
      <use xlink:href="#path_1" clip-rule="evenodd" fill-rule="evenodd" />
    </clipPath>
  </defs>
  <g id="Surah_9_of_114_(modified)">
    <path d="M492.6 0L492.6 0L492.6 210.6L0 210.6L0 0L492.6 0Z" id="Surah_9_of_114_(modified)" fill="none" stroke="none" />
    <path d="M230.8 146.8C235.9 138.6 238.5 127.6 238.5 113.4C238.5 108.3 237.5 93.2 235.7 68.2C233.8 42.8 232.8 29.8 232.8 29.6C232.8 28.4 233 28.1 233.5 28.6C237.5 33.4 239.7 34.6 239.7 32.4C239.7 31.9 239.4 30.7 239.2 29.3C238.5 27.6 236.8 22.8 233.9 14.9C231 7.39999 229.1 2.89999 228.4 1.2C227.9 0.199997 227.6 0 227.4 0C226.9 0 226.6 0.300003 226.4 1C223.7 7.39999 222.3 11.5 222.3 13.2C223.8 16.3 224.5 20.1 224.5 24.7C224.5 30 225.4 47 227.6 75.8C229.8 104.6 231 121.1 231 125.2C231 132 230.3 136 229.1 137C224.8 140.6 220.3 142.5 215.7 142.5L215.7 157.1C221.4 157.1 226.5 153.5 230.8 146.8ZM245.2 16.8C246.7 20 247.4 23.8 247.4 28.6C247.4 32.7 248.6 51.7 251.1 85.4999C253.5 119.3 254.7 138.5 254.7 143.3C254.7 148.4 254.5 152.9 254 157C253.971 157.379 253.942 157.744 253.914 158.093C253.75 160.136 253.629 161.646 253.8 162.5C254 163.2 254.3 163.2 255 162C255.5 161.1 255.9 159.9 256.9 158.2C260.2 149.6 261.9 139.5 261.9 128.2C261.9 124.4 261 107.8 258.8 78.3C256.6 48.6 255.4 33.7 255.4 33.2C255.4 32 255.6 31.5 256.1 32.2C260.4 37 262.3 38.2 262.3 36C262.3 35.5 262.3 34.3 261.8 33.1C261.3 31.2 259.6 26.4 256.5 18.5C253.6 11 251.9 6.49998 251.2 4.79999C250.7 4.09999 250.5 3.59999 250 3.59999C249.8 3.59999 249.5 4.09999 249.3 4.79999C246.4 11 245.2 15.1 245.2 16.8ZM297.8 18.1C297.8 20.7 299.9 23.1 304.5 25.5C301.1 29.1 296.1 33 289.1 37.2C283.1 40.5 277.4 43.9 271.6 47.5C270.2 48.2 269.7 49 269.7 49.2C269.7 49.2 269.7 49.4 269.9 49.4C270.1 49.4 271.1 49.2 272.3 48.7C280 45.9 284.3 44.2 285.3 43.7C288.9 42.3 292.9 39.6 297.5 36.5C301.3 33.6 304.5 30.5 307.1 26.9C309.3 28.1 310.7 29.3 311.2 30.3C313.3 27.5 314.3 25.3 314.3 24.1C313.8 23.1 312.4 21.9 310 20.7C311.2 17.3 311.7 14.4 311.7 11.8C311.7 9.00002 311 7.30002 309.3 6.80002C307.4 6.10001 305 7.10001 302.1 9.70001C299.2 12.1 297.8 15 297.8 18.1ZM134.8 33.9C153.3 27.2 172.5 20 192.6 12.5C192.778 12.449 192.944 12.3916 193.094 12.3392C193.535 12.1861 193.851 12.0764 194 12.3C194 12.3 194 12.8 193.8 13.5C192.8 15.7 192.1 16.9 191.6 17.3C174.8 23.5 154.9 31.2 132.3 40.6C132.9 38.5 133.6 36.3 134.8 33.9ZM307.6 15C307.9 16.4 307.9 17.9 307.4 19.3C303.8 17.6 301.8 16.2 301.8 14.9C301.8 14.5 302.2 14 303.2 13.5C304.2 13 304.9 12.8 305.4 12.8C306.6 12.8 307.4 13.6 307.6 15ZM349.3 32.2C349.3 32.2 349.1 32.5 349.1 32.7C347.4 35.6 346 37.3 344.4 37.3C342.3 37.3 341.3 35.1 341.3 31.3C341.3 28.2 342.5 23.1 344.9 15.7C345.4 14 345.6 13 345.6 12.8C345.3 12.8 344.9 13.7 343.9 15.4C340.1 22.4 338.4 29.3 338.4 35.8C338.4 41.1 339.9 43.7 343 43.7C346.1 43.7 348.3 40.1 349.5 32.9C349.7 32.7 349.7 32.4 349.5 32.2C349.5 32.1093 349.5 32.0598 349.481 32.0513C349.459 32.0411 349.409 32.0907 349.3 32.2ZM78.9 25.8C81.8 25.8 84.2 27.2 86.3 30.6C88.5 33.7 90.1 38 90.9 43.3C91.1 43.8 91.1 44 91.1 44.3L91.3 44.3C91.3 44.1 91.5 43.8 91.5 43.3C92 40.2 93.2 35.4 94.9 29.1C96.8 24.8 98.7 22.6 100.9 22.6C102.1 22.6 103.3 23.3 104.3 24.8C105.3 26.2 105.7 27.2 105.7 28.2C105.7 28.7 105.7 29.6 105.2 30.6C104.7 32 104.2 32.8 103.8 32.8C103.6 32.8 103.1 32.1 102.1 31.1C101.4 30.1 100.4 29.7 99.5 29.7C97.6 29.7 95.9 34.3 94.2 43.4C93.5 47.5 92.5 50.4 91.8 52C91.1 53 90.6 53.7 90.1 53.7C89.6 53.7 89.6 53 89.4 52C89.6 50.3 88.7 47.2 86.8 42.6C84.9 37.8 83.7 35.6 82.7 35.6C82.2 35.6 82 35.6 81.7 36.1C81.5 36.3 81.2 36.6 80.5 36.6C79.5 36.6 78.6 35.9 77.1 34.7C75.7 33.5 75.2 32.5 75.2 31.8C75.2 31.6 75.7 30.4 76.9 28.4C77.9 26.5 78.6 25.8 78.9 25.8ZM201.8 53.4C202.7 51.5 203.2 49.3 203.2 47.4C203.2 46.4 202.7 45 201.6 43C200.4 39.7 199.7 38 199.7 38C199.5 37 199.2 35.8 199 34.6C199 33.7 198.8 33.2 198.5 33.2C198.2 33.2 198 33.7 197.5 34.4C196.5 35.6 196.3 36.8 196.3 38.2C196.3 40.8 197.8 44.4 200.4 49.2C200.2 50.7 199.2 51.4 197.8 51.4C194.6 51.4 193.2 49.3 193.2 45.2C193.2 43.8 192.7 41.6 192 38.5C191.3 35.6 190.8 34.2 190.3 34.2C190.1 34.2 189.6 34.6 189.1 35.6C188.6 36.8 188.4 37.5 188.4 38C188.4 38.5 188.7 39.9 189.4 42.1C189.9 44.5 190.4 45.9 190.4 46.9C190.4 48.6 189.7 50 188.5 51.2C187.3 52.4 186.1 53.1 184.7 53.1C183.8 53.1 182.8 52.1 182.1 50.7C181.6 49.5 181.4 48 181.4 46.6C181.4 45.9 181.4 45.2 181.6 44.2C181.6 43.2 181.8 42 181.8 40.6C181.8 38 181.3 36.8 180.6 36.8C180.1 36.8 179.4 37.3 178.4 38.5C177.5 39.7 177 40.9 177 42.3C177 43 177.3 43.5 178 43.7C178.5 44 179 44.2 179 44.7L179 50.9C179 53.3 179.5 55.5 180.7 56.9C181.7 58.4 182.9 59.1 184.1 59.1C187.7 59.1 190.1 56.5 191.5 51.7C192.7 55.6 194.6 57.5 197.5 57.5C199.2 57.5 200.6 56 201.8 53.4ZM330.9 63.2C355.1 54.1 380.3 45 406.3 35.4C406.502 35.3422 406.688 35.2761 406.849 35.2186C407.247 35.0768 407.5 34.9866 407.5 35.2C407.7 35.2 407.7 35.7 407.5 36.4C406.5 38.6 405.8 39.8 405.3 40.2C405.1 40.4 392.8 45 369.1 53.9C344.9 62.8 331.2 68.3 328.5 70C329 67.8 329.7 65.6 330.9 63.2ZM461.4 64.4C459 70.2 457.8 74.7 457.8 78.1C457.8 82.2 458.8 84.3 460.9 84.3C462.1 84.3 463.5 82.6 465.2 79.7C465.4 79.5 465.4 79.2 465.7 79C465.7 79 465.9 79 465.9 79.2L465.9 79.9C464.5 87.1001 462.3 90.7 459.4 90.7C456.3 90.7 454.8 88.1 454.8 82.8C454.8 80.2 455.3 76.8 456.7 72.5C458.1 68.2001 458.9 66 458.9 65.8C458.9 65.3 457.9 64.4 455.8 63.2C452 68.2 446.7 73 440 77.1C435.4 79.7 430.9 82.1 426.1 84.1C417.2 87.7 411.9 89.6 410.7 90.3C409.5 90.8 408.8 91 408.3 91C408.1 91 408.1 90.8 408.1 90.8C408.1 90.3 408.6 89.8 410 88.9C417.7 84.6001 425.1 80.3 432.8 75.9C442.9 70.1001 449.8 65.3 453.2 61.7C448.6 59.3 446.5 56.9 446.5 54.3C446.5 51.2 447.9 48.3 450.8 45.7C453.7 43.3 456.1 42.3 458 43.1C459.4 43.6 460.4 45.3 460.4 48.1C460.4 50.7 459.9 53.6 458.7 56.7C461.1 58.1 462.1 59.6 462.1 61C462.2 61.8 461.9 63 461.4 64.4ZM151.3 46.4C131.2 53.9 112 61.1 93.5 67.8C92.3 70.2 91.6 72.3 91 74.5C113.6 65.1 133.5 57.4 150.3 51.2C150.8 50.8 151.5 49.6 152.5 47.4C152.7 46.7 152.7 46.2 152.7 46.2C152.551 45.9764 152.235 46.0861 151.794 46.2393C151.644 46.2916 151.478 46.3491 151.3 46.4ZM456.2 55.5C456.7 54.1 456.7 52.6 456.4 51.2C456.2 49.8 455.4 49 454.2 49C453.7 49 453 49.2 452 49.7C451 50.2 450.6 50.7 450.6 51.1C450.6 52.4 452.6 53.8 456.2 55.5ZM300.6 54.1L296.8 62C295.8 61 293.7 59.4 290.6 57.5C287.5 55.3 285.8 54.1 285.3 54.1C285 54.1 284.5 54.6 284.3 55.1L279.7 64.7C279.5 65.2 279.5 65.5 279.7 65.7C283.6 68.1 287.4 70.7 291 73.6C291.5 73.9 292 73.6 292.2 72.9C293.7 70.7 294.9 68.1 296.3 65.2C300.4 67.8 304 70.2 307.1 72.6C307.5 72.8 308 72.8 308.5 72.1C311.6 66.8 313.3 63.2 313.3 61.5C313.3 61 311.4 59.6 307.8 57.2C304 54.6 302.1 53.4 301.6 53.4C301.1 53.4 300.8 53.6 300.6 54.1ZM379.1 71.1C377 67.7 374.6 66.3 371.7 66.3C371.4 66.3 370.7 67 369.7 68.9C368.5 70.9 368 72.1 368 72.3C368 73 368.5 74 369.9 75.2C371.4 76.4 372.3 77.1 373.3 77.1C374 77.1 374.3 76.8 374.5 76.6C374.8 76.1 375 76.1 375.5 76.1C376.5 76.1 377.7 78.3 379.6 83.1C381.5 87.7 382.4 90.8 382.2 92.5C382.4 93.5 382.4 94.2 382.9 94.2C383.4 94.2 383.9 93.5 384.6 92.5C385.3 90.9 386.3 88 387 83.9C388.7 74.8 390.4 70.2 392.3 70.2C393.2 70.2 394.2 70.6 394.9 71.6C395.9 72.6 396.4 73.3 396.6 73.3C397 73.3 397.5 72.5 398 71.1C398.5 70.1 398.5 69.2 398.5 68.7C398.5 67.7 398.1 66.7 397.1 65.3C396.1 63.8 394.9 63.1 393.7 63.1C391.5 63.1 389.6 65.3 387.7 69.6C386 75.9 384.8 80.7 384.3 83.8C384.3 84.3 384.1 84.6 384.1 84.8L383.9 84.8C383.9 84.5 383.9 84.3 383.7 83.8C382.9 78.5 381.3 74.2 379.1 71.1ZM56.8 75.2L60.6 67.3C60.8 66.8 61.1 66.6 61.6 66.6C62.1 66.6 64 67.8 67.8 70.4C71.4 72.8 73.3 74.2 73.3 74.7C73.3 76.4 71.6 80 68.5 85.3C68 86 67.5 86 67.1 85.8C64 83.4 60.4 81 56.3 78.4C54.9 81.3 53.7 83.9 52.2 86.1C52 86.8 51.5 87.1 51 86.8C47.4 83.9 43.6 81.3 39.7 78.9C39.5 78.7 39.5 78.4 39.7 77.9L44.3 68.3C44.5 67.8 45 67.3 45.3 67.3C45.8 67.3 47.5 68.5 50.6 70.7C53.7 72.6 55.8 74.2 56.8 75.2ZM135.8 75.2C138.7 75.2 141.1 76.6 143.2 80C145.4 83.1 147 87.4 147.8 92.7C148 93.2 148 93.4 148 93.7L148.2 93.7C148.2 93.5 148.4 93.2 148.4 92.7C148.9 89.6 150.1 84.8 151.8 78.5C153.7 74.2 155.6 72 157.8 72C159 72 160.2 72.7 161.2 74.2C162.2 75.6 162.6 76.6 162.6 77.6C162.6 78.1 162.6 79 162.1 80C161.6 81.4 161.1 82.2 160.7 82.2C160.5 82.2 160 81.5 159 80.5C158.3 79.5 157.3 79.1 156.4 79.1C154.5 79.1 152.8 83.7 151.1 92.8C150.4 96.9 149.4 99.8 148.7 101.4C148 102.4 147.5 103.1 147 103.1C146.5 103.1 146.5 102.4 146.3 101.4C146.5 99.7 145.6 96.6 143.7 92C141.8 87.2 140.6 85 139.6 85C139.1 85 138.9 85 138.6 85.5C138.4 85.7 138.1 86 137.4 86C136.4 86 135.5 85.3 134 84.1C132.6 82.9 132.1 81.9 132.1 81.2C132.1 81 132.6 79.8 133.8 77.8C134.8 75.9 135.5 75.2 135.8 75.2ZM319.6 80C319.6 83.8 317.7 89.1 313.8 95.6C311.4 99.7 307.8 105.2 303 112.4C307.8 117.9 311.2 123 312.8 127.3C313.8 130.4 314.5 134.5 314.5 139.1C314.5 141 314 143.4 313.1 146.5C312.4 149.4 311.4 151.5 310.5 153C308.6 155.9 305.5 158.8 300.7 161.6C295.7 165 291.3 166.6 287.7 166.6C281.9 166.6 279.1 162.3 279.1 153.6C279.1 147.8 280.1 142.1 282 136.8C283.9 132.2 287 126.2 292.1 118.3C287.8 114.2 283.2 108.5 278.2 101.3C277.7 100.6 276.5 99.4 274.6 97.5C273.6 96.5 273.2 95.3 273.2 93.9C273.2 91.7 273.4 89.3 273.9 86.5C274.6 83.6 275.1 82.4 275.3 82.4C276 82.4 278.2 83.6 282.3 86.2C286.1 88.8 289.3 90.8 291.2 92.4C292.4 93.1 292.9 93.8 292.9 93.8L292.9 94C292.9 94.2 292.2 94.5 290.5 94.5C287.4 94.5 285.7 94.7 285.7 95C285.7 95.2 286.2 95.7 287.1 96.9C290.9 101.7 294.8 105.3 298.9 108.2C299.9 106.8 303.2 102 308.5 93.8C313.1 86.8 315.7 82 316.9 79.2C318.1 76.3 318.8 75.1 319.3 75.1C319.4 75.2 319.6 76.6 319.6 80ZM199.6 88.9L203.4 81C203.6 80.5 203.9 80.3 204.4 80.3C204.9 80.3 206.8 81.5 210.6 84.1C214.2 86.5 216.1 87.9 216.1 88.4C216.1 90.1 214.4 93.7 211.3 99C210.8 99.7 210.3 99.7 209.9 99.5C206.8 97.1 203.2 94.7 199.1 92.1C197.7 95 196.5 97.6 195 99.8C194.8 100.5 194.3 100.8 193.8 100.5C190.2 97.6 186.4 95 182.5 92.6C182.3 92.4 182.3 92.1 182.5 91.6L187.1 82C187.3 81.5 187.8 81 188.1 81C188.6 81 190.3 82.2 193.4 84.4C196.5 86.2 198.6 87.9 199.6 88.9ZM10.9 102.1C10.9 102.1 10.7 102.4 10.7 102.6C9.00002 105.4 7.60001 107.1 6 107.2C3.89999 107.2 2.89999 105 2.89999 101.2C2.89999 98.1 4.10001 93 6.5 85.6C7 83.9 7.2 82.9 7.2 82.7C6.89999 82.7 6.5 83.6 5.5 85.3C1.7 92.3 0 99.2 0 105.7C0 111 1.5 113.6 4.60001 113.6C4.82999 113.6 5.05503 113.58 5.27507 113.541C5.1511 113.903 5.02555 114.323 4.89999 114.8C3 120.6 2 128.5 2 138.1C2 146 3.40001 153.7 6.8 161.1C10.7 169.5 15.2 173.8 20.5 173.8C24.1 173.8 27.7 171.4 30.8 166.6C33 163.2 35.4 158.2 38 151.2C40.9 144.2 42.8 139.9 43.8 138.2C50 128.9 55.8 124.3 61.3 124.3C63 124.3 64.7 125.5 66.6 128.4C68.6 131.7 70.5 135.1 72.4 138.2C75.6 143 79.4 146.2 84.2 147.6C86.3706 148.093 89.9039 148.587 94.8 148.6L94.8 148.7C95.8899 148.7 96.9427 148.643 97.9587 148.53C97.6751 149.05 97.3331 149.734 96.9 150.6C92.9 161.4 90.7 171.7 90.7 181.8C90.7 189.7 92.7 196.5 96.5 201.5C100.8 207.5 107 210.6 115.2 210.6C124.8 210.6 135.8 205.6 148.8 196C157.5 189.5 165.4 182 172.6 173.4C175.7 169.8 178.3 165.2 180 159.7C181.5 155.3 182.2 152 182.2 149.1L182.7 148.6L182.7 135.4C181.7 135.9 181.2 135.9 181 135.9C178.6 130.9 175.7 126.8 172.6 123.2C169 119.6 165.9 117.7 162.8 117.7C158.7 117.7 154.9 119.8 151.3 123.9C147.5 128.7 145.8 134 145.8 140C145.8 147.9 151.6 152 163.1 152C168.4 152 172.7 151.3 175.6 150.3C176.1 152 176.6 153.7 176.6 155.1C176.6 157.3 173 161.6 166 168.4C158.3 175.6 150.4 181.6 142.2 186.6C131.8 192.9 123.2 196 116 196C107.6 196 101.6 193.3 97.8 188.3C95.4 184.7 94.2 180.3 94.2 175.3C94.2 169.8 95.7 161.9 98.8 151.3C99.0435 150.083 99.2211 149.063 99.2794 148.348C105.444 147.332 110.166 144.141 113.5 139.1C116.8 134 118.5 127.3 118.5 118.9C118.5 114.1 117.8 110 116.3 106.7C115.6 104.8 113.9 101.9 111 97.8C110.3 96.6 109.8 96.6 109.1 97.8C107.5 101.4 106.5 105.2 106.5 108.8C106.5 109.5 106.8 110 107 110.5C111.8 118 114 122.5 114 124.7C110.9 131 104.4 134.1 94.8 134.1L94.8 133.8C90.3 133.8 86.7 133.1 83.8 131.9C80.9 130.4 78.2 127.8 75.6 124.2C73.7 121 72 117.9 70.1 114.8C68 111.7 65.3 110 62.7 110C59.4 110 55.3 111.9 51.2 116.2C46.9 120.5 43.3 125.5 40.4 131.3C37.1 138.5 33.7 145.7 30.6 152.9C27.2 158.9 23.8 162 20 162C10.4 162 5.79999 151.7 5.79999 131.3C5.79999 127 6.09999 121.7 6.79999 115.5C7.05673 114.268 7.10254 113.352 6.99157 112.752C8.85432 111.3 10.2362 107.983 11.1 102.8C11.3 102.6 11.3 102.3 11.1 102.1C11.1 102.009 11.1 101.96 11.0814 101.951C11.0589 101.941 11.0093 101.991 10.9 102.1ZM336.8 108.4C337.8 109.6 338.5 111.2 339 113.4C340.2 117.4 342.6 123.2 345.9 130.3C348.8 136.6 350.2 139.9 350.2 140.4C350.2 142.4 347.3 145.5 341.8 149.8C336.968 153.391 330.686 157.494 322.955 162.053C323.69 157.607 324.964 152.277 326.8 146C327.1 144.5 327.3 143.3 327.3 142.6C327.3 142.1 327.3 141.9 327.1 141.9C326.6 141.9 326.1 142.9 324.9 145.3C322.548 151.652 320.818 157.83 319.792 163.897C316.558 165.761 313.094 167.697 309.4 169.7C300 174.8 288.3 180.3 274.1 186.3C253.7 194.9 242.6 199.7 240.7 200.7C235.4 203.1 232.8 204.6 232.8 204.8C232.8 205 232.8 205 233.3 205C234.3 205 236.7 204.7 240.5 204C244.1 203.5 253.2 201.4 267.6 198C281.3 194.7 288.5 193 289 193C291.6 193 300 188.9 314.4 180.5C315.881 179.67 317.322 178.846 318.725 178.026C318.967 185.276 320.947 191.525 324.5 196.2C328.8 202.2 335 205.3 343.2 205.3C352.8 205.3 363.8 200.3 376.8 190.7C385.5 184.2 393.4 176.7 400.6 168.1C403.7 164.5 406.3 159.9 408 154.4C409.5 150 410.2 146.7 410.2 143.8L410.7 143.3L410.7 130.1C409.7 130.6 409.2 130.6 409 130.6C406.6 125.6 403.7 121.5 400.6 117.9C397 114.3 393.9 112.4 390.8 112.4C386.7 112.4 382.9 114.5 379.3 118.6C375.5 123.4 373.8 128.7 373.8 134.7C373.8 142.6 379.6 146.7 391.1 146.7C396.4 146.7 400.7 146 403.6 145C404.1 146.7 404.6 148.4 404.6 149.8C404.6 152 401 156.3 394 163.1C386.3 170.3 378.4 176.3 370.2 181.3C359.8 187.6 351.2 190.7 344 190.7C335.6 190.7 329.6 188 325.8 183C324.345 180.818 323.332 178.342 322.759 175.617C334.996 168.144 343.94 161.101 349.7 154.6C351.7 152.4 353.1 149.3 354.3 145.2C355.2 141.6 355.7 138.7 355.7 136.3C355.7 131.2 354.2 125.7 351.6 119C349.9 115.2 348 111.1 346.3 107C349.2 107.7 351.1 108.2 351.8 108.2C352.3 108.2 352.5 107.9 352.5 107.7C352.5 107.2 351.8 106.3 350.1 104.6C346.1 100.5 342.5 96.6 339.1 92.8C338.6 92.3 338.3 92.1 338.1 92.1C337.6 92.1 337.3 92.6 337.1 93.8C336.6 95 336.4 97.2 335.9 100.3C335.4 103.6 335.4 105.3 335.4 105.8C335.6 106.2 336.1 107 336.8 108.4ZM436.7 115.1C436 115.1 435 115.5 433.8 116.5C430 119.8 426.2 122.7 422.2 124.7C421 125.5 416.9 127.4 410.7 130.5L410.7 143.7C419.1 139.8 425.6 135.8 429.4 131.2C429.4 142.2 434.2 148 444.3 148C452.7 148 459.6 143.2 464.9 133.6C468.1 139.4 471.7 142.5 475.5 142.5C481.3 142.5 485.6 139.9 488.5 134.6C491.2 130.2 492.6 125.2 492.6 119.2C492.6 115.3 491.4 112 489.5 109.1C488.8 108.1 488.3 107.9 487.8 107.9C487.3 107.9 486.8 108.7 486.6 110.1C485.2 114.6 484.2 118 484 119.9C486.1 123.5 487.1 125.5 487.1 125.7C486.1 127.3 484 128.3 480.6 128.3C478 128.3 475.6 127.3 473.9 125.9C472 124.5 471 122.8 471 121.1C471 121.6 471.7 119.7 472.7 115.6C473.2 113.5 473 112.5 472 112.5C471.3 112.5 470.6 112.9 469.6 113.9C467.2 117.8 464.6 121.6 462.2 125.7C458.3 130.8 453.3 133.4 447.3 133.4C439.8 133.4 436 130.5 436 125.2C436 124 436.2 122.5 436.7 120.6C437.2 118.7 437.4 117.2 437.4 116.5C437.4 115.6 437.2 115.1 436.7 115.1ZM310.2 139C307.6 133.7 303 128.2 296.8 122.9C294.6 125.1 292 129.1 288.6 134.9C284.8 141.4 283.1 145.5 283.1 147.6C283.1 150.5 285 151.9 289.3 151.9C291.2 151.9 293.6 151.2 296.7 150C301 148.1 305.1 145.4 308.5 142.1C310 140.7 310.5 139.8 310.2 139ZM215.4 142.2L215.4 157.1C209.2 157.1 204.6 155.4 201.5 152.5C199.1 150.1 197.9 146.7 197.9 142.7L197.9 139.6C191.7 144.2 186.6 147.3 182.8 149L182.8 135.6C187.6 133.7 193.6 130.3 200.6 125.8C201.6 125.1 202.3 124.8 202.8 124.8C203.5 124.8 204 125.3 204 126.2C204 126.7 203.8 127.6 203.5 129.1C203.5 130.5 203.3 131.5 203.3 132C203.3 134.4 204.3 136.6 206.4 138.7C208.7 141 211.8 142.4 215.4 142.2ZM397.1 132.3C393.5 127.7 390.4 125.6 387.5 125.6C383.2 125.6 381.3 126.6 381.3 129C381.3 131.9 384.2 133.3 389.9 133.3C391.93 133.3 394.129 132.874 396.5 132.416C396.699 132.377 396.899 132.339 397.1 132.3ZM159.5 130.9C162.4 130.9 165.5 133 169.1 137.6C168.899 137.639 168.699 137.677 168.5 137.716C166.13 138.174 163.93 138.6 161.9 138.6C156.2 138.6 153.3 137.2 153.3 134.3C153.3 131.9 155.2 130.9 159.5 130.9ZM423.3 195.9C420.7 196.6 419.2 197.1 418.7 197.1L418.7 196.9C418.7 196.9 419.7 196.2 421.6 195C423.5 193.8 426.4 191.9 430.5 188.8C432.4 186.9 435.3 183.8 438.9 179.4C441.3 176.5 443.9 173.9 446.8 172C450.4 169.4 453.8 168.2 457.4 168.2C458.1 168.2 459.3 168.4 460.8 168.9C462 169.4 463.2 169.6 464.2 169.6C466.1 169.6 467.6 168.9 468.8 167.4C469.5 166 470.5 164.8 471.4 163.3C471.9 162.3 472.6 161.9 473.1 161.9C473.3 161.9 473.3 162.1 473.3 162.6C473.3 163.1 473.1 164.3 472.6 165.7C472.1 166.4 474 166.7 477.6 166.7C478.1 166.7 478.3 166.7 478.3 166.5C478.3 166.5 478.1 165.5 477.6 163.9C477.4 163.4 477.6 162.7 478.3 161.7L478.38 161.564C479.322 159.963 479.708 159.305 480 159.5C481 160.2 481.4 161.7 481.4 163.3C481.4 165 480.9 166.7 480.2 168.6C479.5 170.8 478.8 172 478.3 172.4C476.6 173.4 474 173.1 470.4 171.4C467.5 174.3 464.6 176 461.8 176C461.1 176 459.9 175.8 458.7 175.3C457.5 174.8 456.5 174.6 455.8 174.6C451 174.6 446 176.8 440.9 181.6L430.1 192.4C427.8 194 425.7 195.2 423.3 195.9ZM110.1 171.4C109.9 171.9 109.9 172.2 110.1 172.4C113.9 174.8 117.8 177.4 121.5 180.3C121.99 180.594 122.192 180.311 122.671 179.64L122.7 179.6C126 174.3 127.7 171 127.7 169.3C127.7 168.8 125.7 167.3 121.9 164.7C118.3 162.3 116.2 161.1 115.7 161.1C115.4 161.1 114.9 161.3 114.7 161.8L110.1 171.4ZM194.3 177.2C197.2 177.2 199.6 178.6 201.7 182C203.9 185.1 205.5 189.4 206.3 194.7C206.5 195.2 206.5 195.4 206.5 195.7L206.7 195.7C206.7 195.5 206.9 195.2 206.9 194.7C207.4 191.6 208.6 186.8 210.3 180.5C212.2 176.2 214.1 174 216.3 174C217.5 174 218.7 174.7 219.7 176.2C220.7 177.6 221.1 178.6 221.1 179.6C221.1 180.1 221.1 181 220.6 182C220.1 183.4 219.6 184.2 219.2 184.2C219 184.2 218.5 183.5 217.5 182.5C216.8 181.5 215.8 181.1 214.9 181.1C213 181.1 211.3 185.7 209.6 194.8C208.9 198.9 207.9 201.8 207.2 203.4C206.5 204.4 206 205.1 205.5 205.1C205 205.1 205 204.4 204.8 203.4C205 201.7 204.1 198.6 202.2 194C200.3 189.2 199.1 187 198.1 187C197.6 187 197.4 187 197.1 187.5C196.9 187.7 196.6 188 195.9 188C194.9 188 194 187.3 192.5 186.1C191.1 184.9 190.6 183.9 190.6 183.2C190.6 183 191.1 181.8 192.3 179.8C193.4 177.9 194.1 177.2 194.3 177.2ZM66.9 178.7C55.8 182.5 45.5 186.3 35.9 189.7C34.7 192.1 34 194.2 33.6 196.5C45.8 190.9 56.6 186.9 66.2 183.5C66.7 183.1 67.4 181.9 68.1 179.7C68.5 179 68.5 178.5 68.3 178.5C68.177 178.316 68.054 178.358 67.7451 178.464C67.5516 178.531 67.2851 178.623 66.9 178.7Z" id="Group" fill="#595959" fill-rule="evenodd" stroke="none" clip-path="url(#clip_1)" />
  </g>
</svg>