<?xml version="1.0" encoding="utf-8"?>
<svg width="505.3001px" height="200.37126px" viewBox="0 0 505.3001 200.37126" version="1.1" xmlns:xlink="http://www.w3.org/1999/xlink" xmlns="http://www.w3.org/2000/svg">
  <defs>
    <path d="M505.3 0L505.3 0L505.3 200.371L0 200.371L0 0L505.3 0Z" id="path_1" />
    <clipPath id="clip_1">
      <use xlink:href="#path_1" clip-rule="evenodd" fill-rule="evenodd" />
    </clipPath>
  </defs>
  <g id="Surah_10_of_114_(modified)">
    <path d="M505.3 0L505.3 0L505.3 200.371L0 200.371L0 0L505.3 0Z" id="Surah_10_of_114_(modified)" fill="none" stroke="none" />
    <path d="M255.9 35.2712C255.9 31.8712 257.1 27.3712 259.5 21.5712C259.569 21.3776 259.638 21.1879 259.706 21.0024C260.127 19.847 260.486 18.8606 260.4 18.1712C260.4 16.7712 259.2 15.2712 256.8 13.8712C258 10.7712 258.5 7.87123 258.5 5.27122C258.5 2.47122 257.8 0.771225 256.1 0.271225C254.2 -0.528763 251.8 0.471237 248.9 2.87123C246 5.47124 244.6 8.37123 244.6 11.4712C244.6 14.0712 246.7 16.4712 251.3 18.8712C247.9 22.4712 242.9 26.3712 235.9 30.6712C229.9 33.9712 224.2 37.5712 218.4 40.9712C217 41.9712 216.5 42.4712 216.5 42.6712C216.5 42.8712 216.5 42.8712 216.7 42.8712C216.9 42.8712 217.9 42.6712 219.1 42.1712C226.8 39.2712 231.1 37.5712 232.1 37.3712C235.7 35.7712 239.7 33.3712 244.3 29.9712C248.1 27.0712 251.3 23.9712 253.9 20.3712C256 21.5712 257 22.4712 257 22.9712C257 23.1712 256.2 25.3712 254.8 29.6712C253.6 33.9712 252.9 37.3712 252.9 39.9712C252.9 45.2712 254.4 47.8712 257.5 47.8712C260.6 47.8712 262.8 44.2712 264 37.0712L264 36.3712C264 36.1712 264 36.1712 263.8 36.1712C263.5 36.3712 263.5 36.6712 263.3 36.8712C261.9 39.7712 260.4 41.4712 259 41.4712C256.9 41.4712 255.9 39.3712 255.9 35.2712ZM310.4 12.4713C310.4 15.0712 312.5 17.4713 317.1 19.8712C313.8 23.4713 308.7 27.3712 301.7 31.5713C295.7 34.8713 290 38.2713 284.2 41.8713C282.8 42.5713 282.3 43.3713 282.3 43.5713C282.3 43.5713 282.3 43.7713 282.5 43.7713C282.7 43.7713 283.7 43.5713 284.9 43.0713C292.6 40.2713 296.9 38.5713 297.9 38.0713C301.5 36.6713 305.5 33.9713 310.1 30.8713C313.9 27.9713 317.1 24.8713 319.7 21.2713C321.9 22.4713 323.3 23.6712 323.8 24.6712C325.9 21.8712 326.9 19.6712 326.9 18.4713C326.4 17.4713 325 16.2713 322.6 15.0713C323.8 11.6713 324.3 8.77127 324.3 6.17126C324.3 3.37126 323.6 1.67126 321.9 1.17126C320 0.471252 317.6 1.47125 314.7 4.07126C311.8 6.47125 310.4 9.37125 310.4 12.4713ZM162.3 24.1712C157.7 21.7713 155.6 19.3712 155.6 16.7713C155.6 13.6712 157 10.7713 159.9 8.37126C162.8 5.77126 165.2 4.77126 167.1 5.47127C168.8 5.97127 169.5 7.67126 169.5 10.4713C169.5 13.0713 169 15.9713 167.8 19.3713C170.2 20.5713 171.6 21.7713 172.1 22.7713C172.1 23.9713 171.1 26.1712 169 28.9713C168.5 27.9713 167.1 26.7713 164.9 25.5713C162.3 29.1713 159.1 32.2713 155.3 35.1713C150.7 38.2713 146.7 40.9713 143.1 42.3713C142.1 42.8713 137.8 44.5713 130.1 47.3713C128.9 47.8713 127.9 48.0713 127.7 48.0713C127.5 48.0713 127.5 47.8713 127.5 47.8713C127.5 47.6713 128 46.8713 129.4 46.1713C135.2 42.5713 140.9 39.1713 146.9 35.8713C153.9 31.6712 159 27.7713 162.3 24.1712ZM254.5 8.37125C254.8 9.77126 254.8 11.2713 254.3 12.6712C250.7 10.9713 248.7 9.57124 248.7 8.27124C248.7 7.87125 249.1 7.37125 250.1 6.87125C251.1 6.37125 251.8 6.17125 252.3 6.17125C253.5 6.17125 254.3 6.97125 254.5 8.37125ZM320.2 9.37125C320.5 10.7713 320.5 12.2713 320 13.6712C316.4 11.9713 314.5 10.5712 314.4 9.27124C314.4 8.87125 314.8 8.37125 315.8 7.87125C316.8 7.37125 317.5 7.17125 318 7.17125C319.2 7.17125 320 7.97125 320.2 9.37125ZM362 26.5712C362 26.5712 361.8 26.8712 361.8 27.0712C360.1 29.9713 358.7 31.6712 357.1 31.6712C355 31.6712 354 29.4713 354 25.6712C354 22.5712 355.2 17.4712 357.6 10.0712C358.1 8.37125 358.3 7.37125 358.3 7.17125C358 7.17125 357.6 8.07126 356.6 9.77126C352.8 16.7713 351.1 23.6712 351.1 30.1712C351.1 35.4712 352.6 38.0712 355.7 38.0712C358.8 38.0712 361 34.4712 362.2 27.2712C362.4 27.0712 362.4 26.7712 362.2 26.5712C362.2 26.4806 362.2 26.431 362.181 26.4225C362.159 26.4124 362.109 26.4619 362 26.5712ZM165.2 17.9713C165.7 16.5713 165.7 15.0713 165.4 13.6712C165.2 12.2713 164.4 11.4713 163.2 11.4713C162.7 11.4713 162 11.6712 161 12.1712C160 12.6712 159.6 13.1712 159.6 13.5712C159.7 14.8712 161.6 16.2713 165.2 17.9713ZM180.6 31.1712C180.4 31.6712 180.4 31.9713 180.6 32.1712C184.4 34.5712 188.3 37.1712 192 40.0713C192.49 40.3654 192.692 40.0827 193.171 39.4116L193.2 39.3713C196.5 34.0713 198.2 30.7713 198.2 29.0713C198.2 28.5713 196.2 27.0713 192.4 24.4713C188.8 22.0712 186.7 20.8712 186.2 20.8712C185.9 20.8712 185.4 21.0712 185.2 21.5712L180.6 31.1712ZM343.5 57.5712C367.7 48.4712 392.9 39.3712 418.9 29.7712C419.102 29.7135 419.288 29.6474 419.449 29.5898C419.847 29.448 420.1 29.3579 420.1 29.5712C420.3 29.5712 420.3 30.0712 420.1 30.7712C419.1 32.9712 418.4 34.1712 417.9 34.5712C417.7 34.7712 405.4 39.3712 381.7 48.2712C357.5 57.1712 343.8 62.6712 341.1 64.3712C341.6 62.1712 342.3 59.9712 343.5 57.5712ZM81.7 37.6712C79.6 34.2712 77.2 32.8712 74.3 32.8712C74 32.8712 73.3 33.5712 72.3 35.4713C71.1 37.4713 70.6 38.6713 70.6 38.8713C70.6 39.5713 71.1 40.5713 72.5 41.7713C74 42.9713 74.9 43.6713 75.9 43.6713C76.6 43.6713 76.9 43.3713 77.1 43.1713C77.4 42.6713 77.6 42.6713 78.1 42.6713C79.1 42.6713 80.3 44.8713 82.2 49.6713C84.1 54.2713 85 57.3713 84.8 59.0713C85 60.0713 85 60.7713 85.5 60.7713C86 60.7713 86.5 60.0713 87.2 59.0713C87.9 57.4713 88.9 54.5713 89.6 50.4713C91.3 41.3713 93 36.7713 94.9 36.7713C95.8 36.7713 96.8 37.1712 97.5 38.1712C98.5 39.1712 99 39.8712 99.2 39.8712C99.6 39.8712 100.1 39.0712 100.6 37.6712C101.1 36.6712 101.1 35.7713 101.1 35.2713C101.1 34.2713 100.7 33.2713 99.7 31.8713C98.7 30.3713 97.5 29.6713 96.3 29.6713C94.1 29.6713 92.2 31.8713 90.3 36.1713C88.6 42.4713 87.4 47.2713 86.9 50.3713C86.9 50.8713 86.7 51.1712 86.7 51.3713L86.5 51.3713C86.5 51.0713 86.5 50.8713 86.3 50.3713C85.5 45.0712 83.9 40.7713 81.7 37.6712ZM474.1 58.7713C471.7 64.5712 470.5 69.0712 470.5 72.4713C470.5 76.5713 471.5 78.6713 473.6 78.6713C474.8 78.6713 476.2 76.9713 477.9 74.0713C478.1 73.8713 478.1 73.5713 478.4 73.3713C478.4 73.3713 478.6 73.3713 478.6 73.5713L478.6 74.2713C477.2 81.4713 475 85.0713 472.1 85.0713C469 85.0713 467.5 82.4713 467.5 77.1713C467.5 74.5713 468 71.1713 469.4 66.8713C470.8 62.5713 471.6 60.3713 471.6 60.1713C471.6 59.6713 470.6 58.7713 468.5 57.5713C464.7 62.5713 459.4 67.3713 452.7 71.4713C448.1 74.0713 443.6 76.4713 438.8 78.4713C429.9 82.0713 424.6 83.9713 423.4 84.6713C422.2 85.1713 421.5 85.3713 421 85.3713C420.8 85.3713 420.8 85.1713 420.8 85.1713C420.8 84.6713 421.3 84.1713 422.7 83.2713C430.4 78.9713 437.8 74.6713 445.5 70.2713C455.6 64.4713 462.5 59.6713 465.9 56.0713C461.3 53.6713 459.2 51.2713 459.2 48.6713C459.2 45.5713 460.6 42.6713 463.5 40.0713C466.4 37.6713 468.8 36.6713 470.7 37.4713C472.1 37.9713 473.1 39.6713 473.1 42.4713C473.1 45.0713 472.6 47.9713 471.4 51.0713C473.8 52.4713 474.8 53.9713 474.8 55.3713C474.8 56.1712 474.6 57.3713 474.1 58.7713ZM468.8 49.8712C469.3 48.4713 469.3 46.9713 469 45.5712C468.8 44.1712 468 43.3712 466.8 43.3712C466.3 43.3712 465.6 43.5712 464.6 44.0712C463.6 44.5712 463.2 45.0712 463.2 45.4712C463.3 46.7713 465.2 48.1712 468.8 49.8712ZM313.3 48.4713L309.5 56.3713C308.5 55.3713 306.3 53.7713 303.3 51.8713C300.2 49.6713 298.5 48.4713 298 48.4713C297.7 48.4713 297.2 48.9713 297 49.4713L292.4 59.0713C292.2 59.5713 292.2 59.8713 292.4 60.0713C296.3 62.4713 300.1 65.0713 303.7 67.9713C304.2 68.2713 304.7 67.9713 304.9 67.2713C306.4 65.0713 307.6 62.4713 309 59.5713C313.1 62.1713 316.7 64.5713 319.8 66.9713C320.2 67.1713 320.7 67.1713 321.2 66.4713C324.3 61.1712 326 57.5713 326 55.8713C326 55.3713 324.1 53.9713 320.5 51.5713C316.7 48.9713 314.8 47.7713 314.3 47.7713C313.8 47.7713 313.5 47.9713 313.3 48.4713ZM205.1 112.771C205.1 111.371 203.9 108.471 201.5 103.871C198.6 98.0713 196.5 93.5713 195.3 89.9713C192.9 82.2713 191.2 75.3713 190.3 68.8713C190.1 66.2713 189.8 64.7713 189.6 64.0713C189.4 62.8713 188.6 61.4713 187.7 59.9713C188.4 57.7713 189.4 54.6713 190.8 50.5713C191.5 49.3713 191.8 48.8713 192.2 48.8713C192.4 48.8713 193.2 49.3713 194.1 50.5713C197.9 55.8713 201.1 60.8713 203.7 64.9713C204.9 66.8713 205.4 68.0713 205.4 68.7713C205.4 69.2713 205.2 69.4713 204.7 69.4713C203.7 69.4713 201.8 68.7713 199.4 67.0713C199.2 67.0713 198.9 67.2713 198.7 67.5713C199.7 70.6713 201.1 75.2713 203 80.7713C207.6 93.2713 209.7 102.371 209.7 108.171C209.7 112.971 208.3 117.971 205.9 123.071C202.5 130.071 198 133.371 192.5 133.371L192.5 118.771C199.1 118.771 203.4 116.571 205.1 112.771ZM42.6 75.3713C42.6 75.1712 42.8 74.8713 42.8 74.8713C42.9093 74.7619 42.9589 74.7124 42.9813 74.7226C43 74.731 43 74.7806 43 74.8713C43.2 75.0713 43.2 75.3713 43 75.5713C41.8 82.7713 39.6 86.3713 36.5 86.3713C33.4 86.3713 31.9 83.7713 31.9 78.4713C31.9 71.9713 33.6 65.0713 37.4 58.0713C38.4 56.3713 38.8 55.4713 39.1 55.4713C39.1 55.6713 38.9 56.6713 38.4 58.3713C36 65.7713 34.8 70.8713 34.8 73.9713C34.8 77.7713 35.8 79.9713 37.9 79.9713C39.5 79.8713 40.9 78.1712 42.6 75.3713ZM98.7 93.5712C96.1 94.2713 94.6 94.7713 94.1 94.7713L94.1 94.5712C94.1 94.5712 95.1 93.8712 97 92.6712C98.9 91.4712 101.8 89.5712 105.9 86.4712C107.8 84.5712 110.7 81.4712 114.3 77.0712C116.7 74.1712 119.3 71.5712 122.2 69.6712C125.8 67.0712 129.2 65.8713 132.8 65.8713C133.5 65.8713 134.7 66.0713 136.2 66.5713C137.4 67.0713 138.6 67.2713 139.6 67.2713C141.5 67.2713 143 66.5713 144.2 65.0713C144.9 63.6713 145.9 62.4713 146.8 60.9713C147.3 59.9713 148 59.5713 148.5 59.5713C148.7 59.5713 148.7 59.7713 148.7 60.2713C148.7 60.7713 148.5 61.9713 148 63.3713C147.5 64.0713 149.4 64.3713 153 64.3713C153.5 64.3713 153.7 64.3713 153.7 64.1713C153.7 64.1713 153.5 63.1713 153 61.5713C152.8 61.0713 153 60.3713 153.7 59.3713L153.78 59.2354C154.722 57.634 155.108 56.9767 155.4 57.1712C156.4 57.8713 156.8 59.3713 156.8 60.9712C156.8 62.6712 156.3 64.3712 155.6 66.2712C154.9 68.4712 154.2 69.6712 153.7 70.0712C152 71.0712 149.4 70.7712 145.8 69.0712C142.9 71.9712 140 73.6712 137.2 73.6712C136.5 73.6712 135.3 73.4712 134.1 72.9712C132.9 72.4712 131.9 72.2712 131.2 72.2712C126.4 72.2712 121.4 74.4712 116.3 79.2712C112.7 82.8712 109.1 86.4712 105.5 90.0712C103.3 91.6712 101.1 92.8713 98.7 93.5712ZM391.7 65.4712C389.6 62.0712 387.2 60.6712 384.3 60.6712C384.1 60.6712 383.4 61.3713 382.3 63.2713C381.1 65.2713 380.6 66.4713 380.6 66.6713C380.6 67.3713 381.1 68.3713 382.5 69.5713C384 70.7713 384.9 71.4713 385.9 71.4713C386.6 71.4713 386.9 71.1713 387.1 70.9713C387.4 70.4713 387.6 70.4713 388.1 70.4713C389.1 70.4713 390.3 72.6713 392.2 77.4713C394.1 82.0713 395 85.1712 394.8 86.8713C395 87.8713 395 88.5713 395.5 88.5713C396 88.5713 396.5 87.8713 397.2 86.8713C397.9 85.2713 398.9 82.3713 399.6 78.2713C401.3 69.1712 403 64.5712 404.9 64.5712C405.8 64.5712 406.8 64.9712 407.5 65.9712C408.5 66.9712 409 67.6712 409.2 67.6712C409.6 67.6712 410.1 66.8712 410.6 65.4712C411.1 64.4712 411.1 63.5712 411.1 63.0712C411.1 62.0712 410.7 61.0712 409.7 59.6712C408.7 58.1712 407.5 57.4712 406.3 57.4712C404.1 57.4712 402.2 59.6712 400.3 63.9712C398.6 70.2713 397.4 75.0712 396.9 78.1712C396.9 78.6712 396.7 78.9712 396.7 79.1712L396.5 79.1712C396.5 78.8713 396.5 78.6712 396.3 78.1712C395.5 72.8712 393.9 68.5712 391.7 65.4712ZM262.4 113.971C261 116.371 257.6 118.571 252.6 120.971L252.5 120.971L252.5 134.071C262.1 130.071 266.9 120.671 266.9 106.271C266.9 101.971 263.3 94.2713 256.1 82.7713C260.7 83.9712 263.1 83.7713 263.1 82.5712C263.1 81.8713 262.4 81.0712 261.2 79.6712L249.7 69.5712C249 69.0712 248.5 68.5712 248 68.5712C247.5 68.5712 247.2 69.2712 247 70.4712L245.6 81.9712C245.6 82.8712 245.8 83.6712 246.8 83.8712C248 84.3712 248.8 85.0712 249 86.0712C249.7 89.6712 252.3 95.1712 256.4 102.171C260.5 108.671 262.4 112.571 262.4 113.971ZM332.3 74.3713C332.3 78.1712 330.4 83.4713 326.5 89.9713C324.1 94.0713 320.5 99.5713 315.7 106.771C320.5 112.271 323.9 117.371 325.5 121.671C326.5 124.771 327.2 128.871 327.2 133.471C327.2 135.371 326.7 137.771 325.8 140.871C325.1 143.771 324.1 145.871 323.2 147.371C321.3 150.271 318.2 153.171 313.4 155.971C308.4 159.371 304 160.971 300.4 160.971C294.6 160.971 291.8 156.671 291.8 147.971C291.8 142.171 292.8 136.471 294.7 131.171C296.6 126.571 299.7 120.571 304.8 112.671C300.5 108.571 295.9 102.871 290.9 95.6712C290.4 94.9712 289.2 93.7713 287.3 91.8713C286.3 90.8713 285.9 89.6712 285.9 88.2713C285.9 86.0712 286.1 83.6712 286.6 80.8713C287.3 77.9713 287.8 76.7713 288 76.7713C288.7 76.7713 290.9 77.9713 295 80.5712C298.8 83.1712 302 85.1712 303.9 86.7713C305.1 87.4713 305.6 88.1712 305.6 88.1712L305.6 88.3713C305.6 88.5713 304.9 88.8713 303.2 88.8713C300.1 88.8713 298.4 89.0713 298.4 89.3713C298.4 89.5713 298.9 90.0713 299.8 91.2713C303.6 96.0712 307.5 99.6712 311.6 102.571C312.6 101.171 315.9 96.3712 321.2 88.1712C325.8 81.1712 328.4 76.3713 329.6 73.5712C330.8 70.6712 331.5 69.4712 332 69.4712C332 69.4859 332.006 69.5285 332.017 69.6013C332.082 70.0249 332.3 71.4698 332.3 74.3713ZM349.5 102.771C350.5 103.971 351.2 105.571 351.7 107.771C352.9 111.771 355.3 117.571 358.6 124.671C361.5 130.971 362.9 134.271 362.9 134.771C362.9 136.771 360 139.871 354.5 144.171C349.645 147.78 343.326 151.905 335.544 156.49C336.277 152.031 337.555 146.679 339.4 140.371C339.7 138.871 339.9 137.671 339.9 136.971C339.9 136.471 339.9 136.271 339.7 136.271C339.2 136.271 338.7 137.271 337.5 139.671C335.139 146.045 333.406 152.245 332.381 158.332C329.179 160.177 325.752 162.091 322.1 164.071C312.7 169.171 301 174.671 286.8 180.671C266.4 189.271 255.3 194.071 253.4 195.071C248.1 197.471 245.5 198.971 245.5 199.171C245.5 199.371 245.5 199.371 246 199.371C247 199.371 249.4 199.071 253.2 198.371C256.8 197.871 265.9 195.771 280.3 192.371C294 189.071 301.2 187.371 301.7 187.371C304.3 187.371 312.7 183.271 327.1 174.871C328.546 174.061 329.955 173.255 331.327 172.454C331.578 179.68 333.556 185.908 337.1 190.571C341.4 196.571 347.6 199.671 355.8 199.671C365.4 199.671 376.4 194.671 389.4 185.071C398.1 178.571 406 171.071 413.2 162.471C416.3 158.871 418.9 154.271 420.6 148.771C422.1 144.371 422.8 141.071 422.8 138.171L423.3 137.671L423.3 124.471C422.3 124.971 421.8 124.971 421.6 124.971C419.2 119.971 416.3 115.871 413.2 112.271C409.6 108.671 406.5 106.771 403.4 106.771C399.3 106.771 395.5 108.871 391.9 112.971C388.1 117.771 386.4 123.071 386.4 129.071C386.4 136.971 392.2 141.071 403.7 141.071C409 141.071 413.3 140.371 416.2 139.371C416.7 141.071 417.2 142.771 417.2 144.171C417.2 146.371 413.6 150.671 406.6 157.471C398.9 164.671 391 170.671 382.8 175.671C372.4 181.971 363.8 185.071 356.6 185.071C348.2 185.071 342.2 182.371 338.4 177.371C336.955 175.204 335.945 172.746 335.37 170.042C347.653 162.549 356.626 155.488 362.4 148.971C364.4 146.771 365.8 143.671 367 139.571C367.9 135.971 368.4 133.071 368.4 130.671C368.4 125.571 366.9 120.071 364.3 113.371C362.6 109.571 360.7 105.471 359 101.371C361.9 102.071 363.8 102.571 364.5 102.571C365 102.571 365.2 102.271 365.2 102.071C365.2 101.571 364.5 100.671 362.8 98.9712C358.8 94.8713 355.2 90.9712 351.8 87.1712C351.3 86.6712 351 86.4712 350.8 86.4712C350.3 86.4712 350 86.9712 349.8 88.1712C349.3 89.3713 349.1 91.5712 348.6 94.6712C348.1 97.9712 348.1 99.6712 348.1 100.171C348.3 100.571 348.8 101.371 349.5 102.771ZM55.3 102.171C53.2 98.7713 50.8 97.3713 47.9 97.3713C47.6 97.3713 46.9 98.1712 45.9 99.9713C44.7 101.971 44.2 103.171 44.2 103.371C44.2 104.071 44.7 105.071 46.1 106.271C47.6 107.471 48.5 108.171 49.5 108.171C50.2 108.171 50.5 107.871 50.7 107.671C51 107.171 51.2 107.171 51.7 107.171C52.7 107.171 53.9 109.371 55.8 114.171C57.7 118.771 58.6 121.871 58.4 123.571C58.6 124.571 58.6 125.271 59.1 125.271C59.6 125.271 60.1 124.571 60.8 123.571C61.5 121.971 62.5 119.071 63.2 114.971C64.9 105.871 66.6 101.271 68.5 101.271C69.4 101.271 70.4 101.671 71.1 102.671C72.1 103.671 72.6 104.371 72.8 104.371C73.2 104.371 73.7 103.571 74.2 102.171C74.7 101.171 74.7 100.271 74.7 99.7713C74.7 98.7713 74.3 97.7713 73.3 96.3713C72.3 94.8713 71.1 94.1712 69.9 94.1712C67.7 94.1712 65.8 96.3713 63.9 100.671C62.2 106.971 61 111.771 60.5 114.871C60.5 115.371 60.3 115.671 60.3 115.871L60.1 115.871C60.1 115.571 60.1 115.371 59.9 114.871C59.1 109.571 57.5 105.271 55.3 102.171ZM14 119.671C14 119.671 13.8 119.971 13.8 120.171C12.1 123.071 10.7 124.771 9.09999 124.771C6.99998 124.771 5.99998 122.571 5.99998 118.771C5.99998 115.671 7.2 110.571 9.59999 103.171C10.1 101.471 10.3 100.471 10.3 100.271C9.99998 100.271 9.59999 101.171 8.59999 102.871C4.79999 109.871 3.09999 116.771 3.09999 123.271C3.09999 126.801 3.76545 129.134 5.12591 130.298C4.83397 130.622 4.54331 131.087 4.3 131.671C2.89999 135.771 1.7 140.571 0.699997 146.071C0.199997 149.471 0 153.071 0 156.671C0 168.471 2.39999 178.071 7.7 185.471C14.5 195.571 25.3 200.371 39.9 200.371C53.6 200.371 68.5 196.071 84.2 187.071C96.7 180.071 106 172.871 112.5 165.471C117.5 159.671 119.9 150.571 119.9 137.871C121.6 138.371 123.5 138.571 125.7 138.571C130.2 138.571 134.8 136.871 139.6 133.071C143 130.671 145.4 128.071 146.8 125.871C147.3 124.871 147.8 124.871 148 125.871C149.2 128.971 151.1 131.671 154 133.571C156.4 135.271 158.8 136.171 161.2 135.971C163.408 136.07 165.431 135.583 167.274 134.534C167.076 134.92 166.854 135.364 166.6 135.871C162.6 146.671 160.4 156.971 160.4 167.071C160.4 174.971 162.4 181.771 166.2 186.771C170.5 192.771 176.7 195.871 184.9 195.871C194.5 195.871 205.5 190.871 218.5 181.271C227.2 174.771 235.1 167.271 242.3 158.671C245.4 155.071 248 150.471 249.7 144.971C251.2 140.571 251.9 137.271 251.9 134.371L252.4 133.871L252.4 120.671C251.4 121.171 250.9 121.171 250.7 121.171C248.3 116.171 245.4 112.071 242.3 108.471C238.7 104.871 235.6 102.971 232.5 102.971C228.4 102.971 224.6 105.071 221 109.171C217.2 113.971 215.5 119.271 215.5 125.271C215.5 133.171 221.3 137.271 232.8 137.271C238.1 137.271 242.4 136.571 245.3 135.571C245.8 137.271 246.3 138.971 246.3 140.371C246.3 142.571 242.7 146.871 235.7 153.671C228 160.871 220.1 166.871 211.9 171.871C201.5 178.171 192.9 181.271 185.7 181.271C177.3 181.271 171.3 178.571 167.5 173.571C165.1 169.971 163.9 165.571 163.9 160.571C163.9 155.071 165.4 147.171 168.5 136.571C168.776 135.19 168.968 134.064 168.996 133.347C171.953 130.936 174.381 126.902 176.3 121.371C176.8 120.671 177.1 120.671 177.3 121.371C179.9 129.271 185 133.371 192.4 133.371L192.4 118.771C184.7 118.771 180.9 115.371 180.9 108.671C180.9 107.771 181.1 106.571 181.1 105.571C181.6 103.871 181.1 103.171 179.9 103.171C179.4 103.171 178.7 103.571 178.2 104.571C173.4 115.871 168.6 121.571 164 121.371C160.9 121.671 158.5 120.471 156.6 118.271C154.9 116.571 154.2 115.071 154.2 113.671C154.2 112.971 154.5 111.971 154.7 110.571C155.2 109.371 155.4 108.471 155.4 107.971C155.4 106.771 155 106.271 154 106.271C153 106.271 152.3 106.671 151.6 107.671C148 111.971 145.3 115.271 143.9 117.471C141.1 120.571 138.2 122.471 135.3 123.471C133.4 123.971 130.7 124.171 126.9 124.171C121.1 124.171 116.1 120.371 112.5 112.671C111.8 111.271 111.1 110.271 110.6 110.271C110.1 110.271 109.9 110.971 109.4 111.971C107.5 118.171 106.5 121.571 106.5 122.271C106.5 123.471 106.9 124.871 107.9 126.571C112.4 134.971 114.6 142.871 114.6 149.871C114.6 152.271 111 156.271 103.6 162.071C95.2 168.271 85.8 173.571 75.5 177.871C63 183.171 51 185.571 39.5 185.571C26.8 185.571 16.9 181.571 10.2 173.371C5.2 167.171 2.8 160.171 2.8 152.771C2.8 151.371 3.8 144.371 6.2 132.171C6.28294 131.701 6.34296 131.308 6.37581 130.984C6.77916 131.109 7.22043 131.171 7.7 131.171C10.8 131.171 13 127.571 14.2 120.371C14.4 120.171 14.4 119.871 14.2 119.671C14.2 119.581 14.2 119.531 14.1814 119.523C14.1589 119.512 14.1093 119.562 14 119.671ZM449.4 109.471C448.7 109.471 447.7 109.871 446.5 110.871C442.7 114.171 438.8 117.071 434.9 119.071C433.7 119.871 429.6 121.771 423.4 124.871L423.4 138.071C431.8 134.171 438.3 130.171 442.1 125.571C442.1 136.571 446.9 142.371 457 142.371C465.4 142.371 472.3 137.571 477.6 127.971C480.8 133.771 484.4 136.871 488.2 136.871C494 136.871 498.3 134.271 501.2 128.971C503.9 124.571 505.3 119.571 505.3 113.571C505.3 109.671 504.1 106.371 502.2 103.471C501.5 102.471 501 102.271 500.5 102.271C500 102.271 499.5 103.071 499.3 104.471C497.9 108.971 496.9 112.371 496.7 114.271C498.8 117.871 499.8 119.871 499.8 120.071C498.8 121.671 496.7 122.671 493.3 122.671C490.7 122.671 488.3 121.671 486.6 120.271C484.7 118.871 483.7 117.171 483.7 115.471C483.7 115.971 484.4 114.071 485.4 109.971C485.9 107.871 485.7 106.871 484.7 106.871C484 106.871 483.3 107.271 482.3 108.271C479.9 112.171 477.3 115.971 474.9 120.071C471 125.171 466 127.771 460 127.771C452.5 127.771 448.7 124.871 448.7 119.571C448.7 118.371 448.9 116.871 449.4 114.971C449.9 113.071 450.1 111.571 450.1 110.871C450.1 109.971 449.9 109.471 449.4 109.471ZM229.3 116.171C232.2 116.171 235.3 118.271 238.9 122.871C236.3 123.371 233.9 123.771 231.7 123.871C226 123.871 223.1 122.471 223.1 119.571C223.1 117.171 225 116.171 229.3 116.171ZM322.9 133.371C320.3 128.071 315.7 122.571 309.5 117.271C307.3 119.471 304.7 123.471 301.3 129.271C297.5 135.771 295.8 139.871 295.8 141.971C295.8 144.871 297.7 146.271 302 146.271C303.9 146.271 306.3 145.571 309.4 144.371C313.7 142.471 317.8 139.771 321.2 136.471C322.7 135.071 323.1 134.171 322.9 133.371ZM409.8 126.671C406.2 122.071 403.1 119.971 400.2 119.971C395.9 119.971 394 120.971 394 123.371C394 126.271 396.9 127.671 402.6 127.671C404.464 127.671 406.564 127.277 408.9 126.839C409.196 126.784 409.496 126.727 409.8 126.671ZM29.1 153.371C47.6 146.671 66.8 139.471 86.9 131.971C87.0783 131.92 87.2436 131.863 87.3944 131.811C87.8353 131.657 88.1509 131.548 88.3 131.771C88.3 131.771 88.3 132.271 88.1 132.971C87.1 135.171 86.4 136.371 85.9 136.771C69.1 142.971 49.2 150.671 26.6 160.071C27.2 157.871 27.9 155.771 29.1 153.371ZM435.9 190.271C433.3 190.971 431.8 191.471 431.3 191.471L431.3 191.271C431.3 191.271 432.3 190.571 434.2 189.371C436.1 188.171 439 186.271 443.1 183.171C445 181.271 447.9 178.171 451.5 173.771C453.9 170.871 456.5 168.271 459.4 166.371C463 163.771 466.4 162.571 470 162.571C470.7 162.571 471.9 162.771 473.4 163.271C474.6 163.771 475.8 163.971 476.8 163.971C478.7 163.971 480.2 163.271 481.4 161.771C482.1 160.371 483.1 159.171 484 157.671C484.5 156.671 485.2 156.271 485.7 156.271C485.9 156.271 485.9 156.471 485.9 156.971C485.9 157.471 485.7 158.671 485.2 160.071C484.7 160.771 486.6 161.071 490.2 161.071C490.7 161.071 490.9 161.071 490.9 160.871C490.9 160.871 490.7 159.871 490.2 158.271C490 157.771 490.2 157.071 490.9 156.071L490.98 155.936C491.922 154.334 492.308 153.677 492.6 153.871C493.6 154.571 494 156.071 494 157.671C494 159.371 493.5 161.071 492.8 162.971C492.1 165.171 491.4 166.371 490.9 166.771C489.2 167.771 486.6 167.471 483 165.771C480.1 168.671 477.2 170.371 474.4 170.371C473.7 170.371 472.5 170.171 471.3 169.671C470.1 169.171 469.1 168.971 468.4 168.971C463.6 168.971 458.6 171.171 453.5 175.971L442.7 186.771C440.5 188.371 438.3 189.571 435.9 190.271ZM265.1 164.571L268.9 156.671C269.1 156.171 269.4 155.971 269.9 155.971C270.4 155.971 272.3 157.171 276.1 159.771C279.7 162.171 281.6 163.571 281.6 164.071C281.6 165.771 279.9 169.371 276.8 174.671C276.3 175.371 275.8 175.371 275.4 175.171C272.3 172.771 268.7 170.371 264.6 167.771C263.2 170.671 262 173.271 260.5 175.471C260.3 176.171 259.8 176.471 259.3 176.171C255.7 173.271 251.9 170.671 248 168.271C247.8 168.071 247.8 167.771 248 167.271L252.6 157.671C252.8 157.171 253.3 156.671 253.6 156.671C254.1 156.671 255.8 157.871 258.9 160.071C261.9 161.971 264.1 163.671 265.1 164.571ZM142.7 184.071C142.7 183.871 142.9 183.571 142.9 183.571C143.009 183.462 143.059 183.412 143.081 183.423C143.1 183.431 143.1 183.481 143.1 183.571C143.3 183.771 143.3 184.071 143.1 184.271C141.9 191.471 139.7 195.071 136.6 195.071C133.5 195.071 132 192.471 132 187.171C132 180.671 133.7 173.771 137.5 166.771C138.5 165.071 138.9 164.171 139.2 164.171C139.2 164.371 139 165.371 138.5 167.071C136.1 174.471 134.9 179.571 134.9 182.671C134.9 186.471 135.9 188.671 138 188.671C139.5 188.571 141 186.971 142.7 184.071Z" id="Group" fill="#595959" fill-rule="evenodd" stroke="none" clip-path="url(#clip_1)" />
  </g>
</svg>