<?xml version="1.0" encoding="utf-8"?>
<svg width="602.9001px" height="202.50002px" viewBox="0 0 602.9001 202.50002" version="1.1" xmlns:xlink="http://www.w3.org/1999/xlink" xmlns="http://www.w3.org/2000/svg">
  <defs>
    <path d="M602.9 0L602.9 0L602.9 202.5L0 202.5L0 0L602.9 0Z" id="path_1" />
    <clipPath id="clip_1">
      <use xlink:href="#path_1" clip-rule="evenodd" fill-rule="evenodd" />
    </clipPath>
  </defs>
  <g id="Surah_46_of_114_(modified)">
    <path d="M602.9 0L602.9 0L602.9 202.5L0 202.5L0 0L602.9 0Z" id="Surah_46_of_114_(modified)" fill="none" stroke="none" />
    <path d="M357.6 25C357.6 20.2 356.9 16.4 355.4 13.2C355.4 11.5 356.6 7.39999 359.5 1.2C359.7 0.5 360 0 360.2 0C360.7 0 360.9 0.5 361.4 1.2C362.1 2.89999 363.8 7.39999 366.7 14.9C369.8 22.8 371.5 27.6 372 29.5C372.5 30.7 372.5 31.9 372.5 32.4C372.5 34.6 370.6 33.4 366.3 28.6C365.8 27.9 365.6 28.4 365.6 29.6C365.6 30.1 366.8 45 369 74.7C371.2 104.2 372.1 120.8 372.1 124.6C372.1 135.9 370.4 146 367.1 154.6C366.1 156.3 365.7 157.5 365.2 158.4L365.2 158.4C364.5 159.6 364.2 159.6 364 158.9C363.8 157.9 364 156 364.2 153.4C364.7 149.3 364.9 144.8 364.9 139.7C364.9 134.9 363.7 115.7 361.3 81.9C358.8 48.1 357.6 29.1 357.6 25L357.6 25L357.6 25L357.6 25L357.6 25ZM333.9 34.4C333.9 32.5 333.4 30.1 332.5 27.4C331.5 24.8 331.1 23.3 331.1 23.1C331.1 22.6 331.6 20.7 332.5 17.3C333.5 13.9 333.9 12 334.2 11.5C334.7 10.5 334.9 10.3 335.2 10.3C335.4 10.3 335.9 10.5 336.4 11.3C337.4 13.5 339.5 17.5 342.6 24C346 31.2 348.1 36 348.8 38.2C349.3 39.9 349.5 40.8 349.5 41.6C349.5 43.5 347.3 42.3 343.3 37.5C342.8 37 342.6 37.5 342.6 38.7C342.6 43 344 58.6 347.2 85.3C350.3 111.9 352 129.2 352 136.7C352 152.8 348.2 166.2 340.7 176.5C334.7 184.9 328 190.7 320.5 194C317.6 195.4 312.6 196.9 305.6 198.8C298.4 200.7 293.1 201.7 289.8 202.2C288.6 202.2 287.9 202.2 287.9 201.7C287.9 201.5 288.4 200.7 289.8 199.8C296.3 196.2 306.8 190 321.5 180.8C326.3 177.9 330.9 173.8 335.7 168.6C341.9 161.9 345.3 156.1 345.3 151.6C345.3 141.8 343.4 120.9 339.5 88.9999C335.5 56.7 333.9 38.7 333.9 34.4L333.9 34.4L333.9 34.4L333.9 34.4L333.9 34.4ZM243.6 44.5C242.4 42.8 241.2 41.4 239.8 40.7C239.1 40.2 238.8 39.5 238.8 38.3L238.8 28.7C238.8 26.8 239 25.8 239.8 25.8C240.3 25.8 241.2 26.3 242.4 27L260.9 41.4C262.3 42.4 263.1 43.3 263.1 43.8C263.1 44.3 262.6 44.5 261.4 44.5C260 44.5 257.3 44 253.7 43.1C255.9 46.9 275.3 67.1 312 103.8C329.3 121.1 337.9 136.2 337.9 148.9C337.9 149.9 337.9 151.1 337.7 152.3C336.7 161.2 336 165.5 335.5 165.5C335 165.5 334.3 161.9 333.3 154.5C331.4 142.7 322.5 129.1 306.7 113.7C281.3 89.7 263.3 71 252.7 57.8C250.5 55.2 248.6 52.5 246.9 49.9C246 48.1 244.8 46.4 243.6 44.5L243.6 44.5L243.6 44.5L243.6 44.5L243.6 44.5ZM213.9 159L213.9 144.4C219.2 144.4 226.6 142.7 236 139.4C240.1 138 248.5 134.8 261.7 129.6L234.1 121.2C233.1 121 232.2 121.4 231.2 122.4C230.5 123.1 229.3 123.4 227.8 123.4C223.2 123.2 217 122.7 209.1 122.2C207.7 122 206.7 121.5 206.7 120.8C206.7 120.3 206.9 119.6 207.7 118.4L212.3 109.8C213 108.4 214 107.6 214.9 107.6C220.7 106.6 227.4 106.2 235.1 106.2C235.3 106.2 241.1 108.1 251.9 111.7C263.9 115.5 272.3 118.2 277.1 119.1C281.9 120.3 289.1 121.5 298.7 123.2C307.6 124.6 312.6 125.4 313.8 125.4C314.5 125.4 314.8 125.4 315 125.4C315.5 125.6 315.5 126.4 314.8 127.3L309.8 136.7C309.3 137.7 308.6 138.1 307.4 138.1C306.4 138.1 304 137.9 300.4 137.4C297 136.9 293.9 136.7 291 136.7C282.6 136.7 273 138.6 262.4 142.5C253.8 146.1 245.1 149.7 236.7 153.3C227.1 157 219.6 159 213.9 159L213.9 159L213.9 159L213.9 159L213.9 159ZM213.9 158.7C201.4 158.7 192.3 157 186.8 153.7C179.8 158.7 173.6 161.4 168.3 161.4L168.3 146.8C171.9 146.8 175.3 145.8 178.6 144.4C176.9 141.5 176.2 137.7 176.2 132.9C176.2 126.2 178.8 119.2 183.9 112.5C188.7 106.3 192.5 102.9 195.9 102.9C199 102.9 201.7 105.3 203.3 109.9C204.5 113.5 205.2 117.3 205.2 121.2C205.2 130.6 203 138 199 143.3C201.6 144 206.7 144.3 213.9 144.3L213.9 158.7L213.9 158.7L213.9 158.7L213.9 158.7ZM199.7 130.6C199.7 128.7 199 125.8 197.5 122.4C195.8 118.6 194.4 116.6 193.2 116.6C191.8 116.6 189.4 118.3 186.2 121.6C183.1 125 181.2 127.8 180 130.5C180.5 131.9 181.7 133.6 183.4 135.3C185.1 137.2 187 138.4 188.9 139.1C194.2 136.6 197.8 133.8 199.7 130.6L199.7 130.6L199.7 130.6L199.7 130.6L199.7 130.6ZM153.4 131.6C154.6 138.3 157 142.9 160.1 145C162 146 164.7 146.7 168.3 146.7L168.3 161.3C163 161.3 158.9 160.1 156.1 157.9C151.8 154.8 149.1 149.3 147.7 140.9C146.7 135.6 145.8 120.5 145.1 95.1C144.1 67.7 143.4 50.9 142.9 44.7C141.7 34.6 139.8 25.3 137.1 16.1C137.1 13.7 138.1 10.3 140 5.50002C140.5 4.30002 140.7 3.60002 141.2 3.60002C141.4 3.60002 141.9 4.30002 142.4 5.30002C145.5 11.3 147.7 21.6 149.4 36C150.4 45.1 151.3 63.1 152 90C152.4 115.3 153.1 129.2 153.4 131.6L153.4 131.6L153.4 131.6L153.4 131.6L153.4 131.6ZM122.4 104.7C118.8 99.4 115 96.8 110.6 96.8C107.2 96.8 105.8 98 105.8 99.9C105.8 102.3 107.7 103.5 111.6 104C114 104.2 117.6 104.5 122.4 104.7L122.4 104.7L122.4 104.7L122.4 104.7L122.4 104.7ZM46.1 153.9C61.7 153.9 79.7 150.3 99.6 143.3C114.7 138 126 133 133.4 128.2C133.4 125.1 131.7 122.7 128.4 120.8C125.5 119.1 122.2 118.2 118.1 118.2L108.3 118.2C104.7 118.2 101.8 117 99.9 114.6C97.7 112.4 96.5 109.3 96.5 105.7C96.5 100.7 98.4 95.6 101.8 90.6C105.4 85.6 109 82.9 112.6 82.9C118.6 82.9 124.4 86.3 129.4 93C135.2 100.4 138 109.3 138 119.4C138 124.9 137.5 129 136.6 131.2C135.6 134.1 133.2 137.2 129.4 141C124.8 145.6 113.3 151.1 95.1 157.6C74 165 55.7 168.6 40.1 168.6C24.7 168.6 13.9 164.5 6.99999 156.6C2.19999 150.8 -7.62939e-06 143.6 -7.62939e-06 135C-7.62939e-06 125.9 2.19999 117.5 6.49999 109.6C7.89999 107.2 8.89999 105.8 9.39999 105.8C9.39999 106 9.59999 106 9.59999 106.5C9.59999 107.2 9.09999 108.7 8.39999 110.8C7.39999 113.7 6.19999 116.3 5.3 119.2C4.09999 122.8 3.59999 126.6 3.59999 130.7C3.59999 136 6 140.5 11.3 144.6C18.7 150.8 30.3 153.9 46.1 153.9L46.1 153.9L46.1 153.9L46.1 153.9L46.1 153.9ZM98.7 61.8C98.5 61.6 98.5 61.3 98.7 60.8L103.3 51.2C103.5 50.7 104 50.5 104.3 50.5C104.8 50.5 106.9 51.7 110.5 54.1C114.3 56.7 116.3 58.2 116.3 58.7C116.3 60.4 114.6 63.7 111.3 69C110.8 69.7 110.6 70 110.1 69.7C106.3 66.8 102.5 64.2 98.7 61.8L98.7 61.8L98.7 61.8L98.7 61.8L98.7 61.8ZM187.9 76.6L191.7 68.7C191.9 68.2 192.2 68 192.7 68C193.2 68 195.1 69.2 198.9 71.8C202.5 74.2 204.4 75.6 204.4 76.1C204.4 77.8 202.7 81.3999 199.6 86.7C199.1 87.4 198.6 87.4 198.2 87.2C195.1 84.8 191.5 82.4 187.4 79.8C186 82.7 184.8 85.3 183.3 87.5C183.1 88.2 182.6 88.5 182.1 88.2C178.5 85.3 174.7 82.7 170.8 80.3C170.6 80.1 170.6 79.8 170.8 79.3L175.4 69.7C175.6 69.2 176.1 68.7 176.4 68.7C176.9 68.7 178.6 69.9 181.7 72.1C184.8 74 187 75.7 187.9 76.6L187.9 76.6L187.9 76.6L187.9 76.6L187.9 76.6ZM242.2 10.4C241.7 12.6 241.2 13.8 240.5 14.5C237.9 16.2 231.9 20 222.7 26.3C222.5 26.5 222 26.8 221.5 27.3C221.3 27.1 221.3 27.1 221.3 26.6L221.8 23.5C222 22.8 223.5 21.3 226.4 19.2C222.8 18 221.1 16.3 221.1 14.4C221.1 12.2 221.8 10.1 223.7 7.90001C227.3 3.60001 230.4 1.40001 232.8 1.40001C235 1.40001 235.9 2.60001 235.9 5.00002C235.9 6.40001 235.4 7.90001 234.2 9.80002C234 10.3 233.7 10.3 233.2 9.60002C232.7 8.40002 231.8 7.90002 230.6 7.90002C229.9 7.90002 228.9 8.10002 227.7 9.10002C226.5 9.80002 225.8 10.5 225.8 11C225.8 11.7 226.5 12.4 228 13.2C229.4 14.2 230.6 14.4 231.6 14.4C232.3 14.4 233.8 13.9 235.9 12.7C237.3 11.7 238.5 10.8 240 9.80002C241.2 9.30002 241.9 8.80002 242.2 9.10002C242.4 9 242.4 9.40001 242.2 10.4L242.2 10.4L242.2 10.4L242.2 10.4L242.2 10.4ZM303.6 22.4C303.6 21.2 301.2 19 296.2 16.2C294.5 19.1 293.8 21.7 293.8 24.1C293.8 25.5 294.5 26.5 296 26.5C297.2 26.5 298.6 26 300.3 25.1C301.9 24.3 303.1 23.4 303.6 22.4L303.6 22.4L303.6 22.4L303.6 22.4L303.6 22.4ZM298.3 3.2C299 2 300 1.5 300.7 1.5C301.2 1.5 301.7 1.7 301.7 2.2C301.7 2.2 301.5 2.39999 301.5 2.7C300.5 4.89999 299.6 7.3 298.9 9.7C303.9 13.3 306.3 17.1 306.1 20.7C305.6 24.8 305.1 27.4 304.4 28.4C302 31.3 299.4 33 296 33C292.6 33 291.2 30.8 291.2 27C291.2 26.3 291.2 25.3 291.4 24.4C292.6 16.6 295 9.7 298.3 3.2L298.3 3.2L298.3 3.2L298.3 3.2L298.3 3.2ZM316.8 69.9C316.8 69.7 317 69.4 317 69.4C317.2 69.2 317.2 69.2 317.2 69.4C317.4 69.6 317.4 69.9 317.2 70.1C316 77.3 313.8 80.9 310.7 80.9C307.6 80.9 306.1 78.3 306.1 73C306.1 66.5 307.8 59.6 311.6 52.6C312.6 50.9 313 50 313.3 50L313.3 50C313.3 50.2 313.1 51.2 312.6 52.9C310.2 60.3 309 65.4 309 68.5C309 72.3 310 74.5 312.1 74.5C313.7 74.5 315.1 72.8 316.8 69.9L316.8 69.9L316.8 69.9L316.8 69.9L316.8 69.9ZM294.5 178.2C289.7 182.5 283.2 184.9 275.5 184.9C273.3 184.9 271.2 184.2 269.7 183C268.3 181.8 267.5 180.1 267.5 178.2C267.5 174.8 268.7 171.5 271.6 168.1C274.5 165 277.4 162.1 280 159C280.7 158.5 280.5 158 279.5 157.6C277.6 156.9 275.2 156.6 272.8 156.6C271.6 156.6 270.2 156.8 268.5 157.8C268.3 157.8 268 158 267.8 157.8C267.8 157.8 267.8 157.6 268 157.1C269 154.7 269.9 153 270.9 152.3C272.1 151.3 274 150.9 276.7 150.9C282.5 150.9 285.1 152.1 285.1 155C285.1 157.2 283.4 160 279.8 164.1C277.2 166.7 274.5 169.4 271.9 172C270.9 173.4 270.5 174.9 270.5 175.8C270.5 178.2 273.1 179.4 278.2 179.4C283.3 179.4 288.3 178.4 294 176.8C295.4 176.3 296.2 176.3 296.2 176.6C296.2 176.5 295.7 177.2 294.5 178.2L294.5 178.2L294.5 178.2L294.5 178.2L294.5 178.2ZM15.6 96.8C15.6 96.6 15.8 96.3 15.8 96.3C16 96.1 16 96.1 16 96.3C16.2 96.5 16.2 96.8 16 97C14.8 104.2 12.6 107.8 9.49996 107.8C6.39996 107.8 4.89996 105.2 4.89996 99.9C4.89996 93.4 6.59996 86.5 10.4 79.5C11.4 77.8 11.8 76.9 12.1 76.9L12.1 76.9C12.1 77.1 11.9 78.1 11.4 79.8C8.99996 87.2 7.79996 92.3 7.79996 95.4C7.79996 99.2 8.79996 101.4 10.9 101.4C12.5 101.4 13.9 99.7 15.6 96.8L15.6 96.8L15.6 96.8L15.6 96.8L15.6 96.8ZM80.4 77.8C80.4 78.3 80.2 79.2 79.7 80.2C79.5 81.6 79 82.4 78.3 82.4C78.1 82.4 77.6 81.7 76.6 80.7C75.9 79.7 74.9 79.3 74.2 79.3C72.3 79.3 70.4 83.9 68.7 93C68 97.1 67.3 100 66.3 101.6C65.6 102.6 65.1 103.3 64.6 103.3C64.4 103.3 64.1 102.6 64.1 101.6C64.1 99.9 63.1 96.8 61.2 92.2C59.3 87.4 58.1 85.2 57.4 85.2C56.7 85.2 56.4 85.2 56.2 85.7C56.2 85.9 55.7 86.2 55 86.2C54 86.2 53.1 85.5 51.6 84.3C50.4 83.1 49.7 82.1 49.7 81.4C49.7 81.2 50.2 80 51.4 78C52.6 76 53.3 75.4 53.6 75.4C56.2 75.4 58.6 76.8 60.7999 80.2C63.2 83.6 64.6 87.6 65.6 92.9C65.6 93.4 65.6 93.6001 65.6 93.9C65.7999 94.1001 65.7999 94.1001 65.7999 93.9C65.7999 93.7 65.9999 93.4 66.2999 92.9C66.4999 89.8 67.7 85 69.3999 78.7C71.2999 74.4 73.2 72.2 75.3999 72.2C76.5999 72.2 77.7999 72.9 78.9999 74.4C79.9 75.9 80.4 76.9 80.4 77.8L80.4 77.8L80.4 77.8L80.4 77.8L80.4 77.8ZM64.6 105.4C62.9 109.2 59.6 113.1 54.5 116.7C49.9 120.1 45.9 122.5 42.3 124.1C41.6 124.6 37.3 126.3 29.3 129.1C28.1 129.6 27.4 129.8 26.9 129.8C26.7 129.8 26.7 129.6 26.7 129.6C26.7 129.4 27.4 128.6 28.6 127.9C35.1 124.1 44.2 118.5 56.2 110.6C59.1 108.4 61.2 106.3 62.9 104.4C64.8 102.2 65.8 101 66 101C66 101 66 101 66 101.2C66 101.6 65.5 103 64.6 105.4L64.6 105.4L64.6 105.4L64.6 105.4L64.6 105.4ZM121.2 174.6C124.1 174.6 126.5 176 128.6 179.4C130.8 182.5 132.4 186.8 133.2 192.1C133.4 192.6 133.4 192.8 133.4 193.1L133.6 193.1C133.6 192.9 133.8 192.6 133.8 192.1C134.3 189 135.5 184.2 137.2 177.9C139.1 173.6 141 171.4 143.2 171.4C144.4 171.4 145.6 172.1 146.6 173.6C147.6 175 148 176 148 177C148 177.5 148 178.4 147.5 179.4C147 180.8 146.5 181.6 146.1 181.6C145.9 181.6 145.4 180.9 144.4 179.9C143.7 178.9 142.7 178.5 141.8 178.5C139.9 178.5 138.2 183.1 136.5 192.2C135.8 196.3 134.8 199.2 134.1 200.8C133.4 201.8 132.9 202.5 132.4 202.5C131.9 202.5 131.9 201.8 131.7 200.8C131.9 199.1 131 196 129.1 191.4C127.2 186.6 126 184.4 125 184.4C124.5 184.4 124.3 184.4 124 184.9C123.8 185.1 123.5 185.4 122.8 185.4C121.8 185.4 120.9 184.7 119.4 183.5C118 182.3 117.5 181.3 117.5 180.6C117.5 180.4 118 179.2 119.2 177.2C120.3 175.3 121 174.6 121.2 174.6L121.2 174.6L121.2 174.6L121.2 174.6L121.2 174.6ZM187.5 190.9C187.5 190.7 187.7 190.4 187.7 190.4C187.9 190.2 187.9 190.2 187.9 190.4C188.1 190.6 188.1 190.9 187.9 191.1C186.7 198.3 184.5 201.9 181.4 201.9C178.3 201.9 176.8 199.3 176.8 194C176.8 187.5 178.5 180.6 182.3 173.6C183.3 171.9 183.7 171 184 171L184 171C184 171.2 183.8 172.2 183.3 173.9C180.9 181.3 179.7 186.4 179.7 189.5C179.7 193.3 180.7 195.5 182.8 195.5C184.3 195.4 185.8 193.8 187.5 190.9L187.5 190.9L187.5 190.9L187.5 190.9L187.5 190.9ZM219.9 173.8C222.8 173.8 225.2 175.2 227.3 178.6C229.5 181.7 231.1 186 231.9 191.3C232.1 191.8 232.1 192 232.1 192.3L232.3 192.3C232.3 192.1 232.5 191.8 232.5 191.3C233 188.2 234.2 183.4 235.9 177.1C237.8 172.8 239.7 170.6 241.9 170.6C243.1 170.6 244.3 171.3 245.3 172.8C246.3 174.2 246.7 175.2 246.7 176.2C246.7 176.7 246.7 177.6 246.2 178.6C245.7 180 245.2 180.8 244.8 180.8C244.6 180.8 244.1 180.1 243.1 179.1C242.4 178.1 241.4 177.7 240.5 177.7C238.6 177.7 236.9 182.3 235.2 191.4C234.5 195.5 233.5 198.4 232.8 200C232.1 201 231.6 201.7 231.1 201.7C230.6 201.7 230.6 201 230.4 200C230.6 198.3 229.7 195.2 227.8 190.6C225.9 185.8 224.7 183.6 223.7 183.6C223.2 183.6 223 183.6 222.7 184.1C222.5 184.3 222.2 184.6 221.5 184.6C220.5 184.6 219.6 183.9 218.1 182.7C216.7 181.5 216.2 180.5 216.2 179.8C216.2 179.6 216.7 178.4 217.9 176.4C218.9 174.6 219.6 173.8 219.9 173.8L219.9 173.8L219.9 173.8L219.9 173.8L219.9 173.8ZM66 182.7C75.6 179.3 85.8999 175.5 97 171.7C98 171.5 98.2 171.2 98.3999 171.5C98.6 171.5 98.6 172 98.2 172.7C97.5 174.9 96.8 176.1 96.3 176.5C86.7 179.9 75.9 183.9 63.7 189.5C64.1 187.3 64.8 185.1 66 182.7L66 182.7L66 182.7L66 182.7L66 182.7ZM242.4 78.6C242.4 77.4 240 75.2 235 72.4C233.3 75.3 232.6 77.9 232.6 80.3C232.6 81.7 233.3 82.7 234.8 82.7C236 82.7 237.4 82.2 239.1 81.3C240.7 80.5 241.9 79.5 242.4 78.6L242.4 78.6L242.4 78.6L242.4 78.6L242.4 78.6ZM237.1 59.4C237.8 58.2 238.8 57.7 239.5 57.7C240 57.7 240.5 57.9 240.5 58.4C240.5 58.4 240.3 58.6 240.3 58.9C239.3 61.1 238.4 63.5 237.7 65.9C242.7 69.5 245.1 73.3 244.9 76.9C244.4 81 243.9 83.6 243.2 84.6C240.8 87.5 238.2 89.2 234.8 89.2C231.4 89.2 230 87 230 83.2C230 82.5 230 81.5 230.2 80.6C231.4 72.8 233.8 65.8 237.1 59.4L237.1 59.4L237.1 59.4L237.1 59.4L237.1 59.4ZM167.3 53.4C181 48.6 195.4 43.3 210.5 37.8C211.5 37.6 211.7 37.3 211.9 37.6C212.1 37.6 212.1 38.1 211.7 38.8C211 41 210.3 42.2 209.8 42.6C196.8 47.2 182 52.9 164.9 60.1C165.4 57.9 166.1 55.8 167.3 53.4L167.3 53.4L167.3 53.4L167.3 53.4L167.3 53.4ZM168.7 5.60001C171.6 5.60001 174 7 176.1 10.4C178.3 13.5 179.9 17.8 180.7 23.1C180.9 23.6 180.9 23.8 180.9 24.1L181.1 24.1C181.1 23.9 181.3 23.6 181.3 23.1C181.8 20 183 15.2 184.7 8.90001C186.6 4.60001 188.5 2.40001 190.7 2.40001C191.9 2.40001 193.1 3.10001 194.1 4.60001C195.1 6 195.5 7 195.5 8C195.5 8.5 195.5 9.39999 195 10.4C194.5 11.8 194 12.6 193.6 12.6C193.4 12.6 192.9 11.9 191.9 10.9C191.2 9.89999 190.2 9.5 189.3 9.5C187.4 9.5 185.7 14.1 184 23.2C183.3 27.3 182.3 30.2 181.6 31.8C180.9 32.8 180.4 33.5 179.9 33.5C179.4 33.5 179.4 32.8 179.2 31.8C179.4 30.1 178.5 27 176.6 22.4C174.7 17.6 173.5 15.4 172.5 15.4C172 15.4 171.8 15.4 171.5 15.9C171.3 16.1 171 16.4 170.3 16.4C169.3 16.4 168.4 15.7 166.9 14.5C165.5 13.3 165 12.3 165 11.6C165 11.4 165.5 10.2 166.7 8.20003C167.8 6.3 168.5 5.60001 168.7 5.60001L168.7 5.60001L168.7 5.60001L168.7 5.60001L168.7 5.60001ZM112.3 24.8C112.3 24.6 112.5 24.3 112.5 24.3C112.7 24.1 112.7 24.1 112.7 24.3C112.9 24.5 112.9 24.8 112.7 25C111.5 32.2 109.3 35.8 106.2 35.8C103.1 35.8 101.6 33.2 101.6 27.9C101.6 21.4 103.3 14.5 107.1 7.50002C108.1 5.80002 108.5 4.90001 108.8 4.90001L108.8 4.90001C108.8 5.10001 108.6 6.10001 108.1 7.8C105.7 15.2 104.5 20.3 104.5 23.4C104.5 27.2 105.5 29.4 107.6 29.4C109.2 29.4 110.7 27.7 112.3 24.8L112.3 24.8L112.3 24.8L112.3 24.8L112.3 24.8ZM39.9 35.1C42.8 35.1 45.2 36.5 47.3 39.9C49.5 43 51.1 47.3 51.9 52.6C52.1 53.1 52.1 53.3 52.1 53.6L52.3 53.6C52.3 53.4 52.5 53.1 52.5 52.6C53 49.5 54.2 44.7 55.9 38.4C57.8 34.1 59.7 31.9 61.9 31.9C63.1 31.9 64.3 32.6 65.3 34.1C66.3 35.5 66.7 36.5 66.7 37.5C66.7 38 66.7 38.9 66.2 39.9C65.7 41.3 65.2 42.1 64.8 42.1C64.6 42.1 64.1 41.4 63.1 40.4C62.4 39.4 61.4 39 60.5 39C58.6 39 56.9 43.6 55.2 52.7C54.5 56.8 53.5 59.7 52.8 61.3C52.1 62.3 51.6 63 51.1 63C50.6 63 50.6 62.3 50.4 61.3C50.6 59.6 49.7 56.5 47.8 51.9C45.9 47.1 44.7 44.9 43.7 44.9C43.2 44.9 43 44.9 42.7 45.4C42.5 45.6 42.2 45.9 41.5 45.9C40.5 45.9 39.6 45.2 38.1 44C36.7 42.8 36.2 41.8 36.2 41.1001C36.2 40.9001 36.7 39.7001 37.9 37.7001C38.9 35.8 39.6 35.1 39.9 35.1L39.9 35.1L39.9 35.1L39.9 35.1L39.9 35.1ZM544.1 112.6C545.3 111.6 546.3 111.2 547 111.2C547.5 111.2 547.7 111.7 547.7 112.6C547.7 113.3 547.5 114.8 547 116.7C546.5 118.6 546.3 120.1 546.3 121.3C546.3 126.6 550.1 129.5 557.6 129.5C563.6 129.5 568.6 126.9 572.5 121.8C574.9 117.7 577.5 113.9 579.9 110C580.9 109 581.6 108.6 582.3 108.6C583.3 108.6 583.5 109.6 583 111.7C582 115.8 581.3 117.7 581.3 117.2C581.3 118.9 582.3 120.6 584.2 122C585.9 123.4 588.3 124.4 590.9 124.4C594.3 124.4 596.4 123.4 597.4 121.8C597.4 121.6 596.4 119.6 594.3 116C594.5 114.1 595.5 110.7 596.9 106.2C597.1 104.8 597.6 104 598.1 104C598.6 104 599.1 104.2 599.8 105.2C601.7 108.1 602.9 111.4 602.9 115.3C602.9 121.3 601.5 126.3 598.8 130.7C595.9 136 591.6 138.6 585.8 138.6C582 138.6 578.4 135.5 575.2 129.7C569.9 139.3 563 144.1 554.6 144.1C544.5 144.1 539.7 138.3 539.7 127.3C535.9 131.9 529.4 135.9 521 139.8L521 126.6C527.2 123.5 531.3 121.6 532.5 120.8C536.4 118.9 540.3 116 544.1 112.6L544.1 112.6L544.1 112.6L544.1 112.6L544.1 112.6ZM507.4 128.5C503.8 123.9 500.7 121.8 497.8 121.8C493.5 121.8 491.6 122.8 491.6 125.2C491.6 128.1 494.5 129.5 500.2 129.5C502.3 129.4 504.7 129 507.4 128.5L507.4 128.5L507.4 128.5L507.4 128.5L507.4 128.5ZM514.8 146C514.8 144.6 514.3 142.9 513.8 141.2C510.9 142.2 506.6 142.9 501.3 142.9C489.8 142.9 484 138.8 484 130.9C484 124.9 485.7 119.6 489.5 114.8C493.1 110.7 496.9 108.6 501 108.6C504.1 108.6 507.2 110.5 510.8 114.1C513.9 117.7 516.8 121.8 519.2 126.8C519.4 126.8 519.9 126.8 520.9 126.3L520.9 139.5L520.4 140C520.4 142.9 519.7 146.2 518.2 150.6C516.5 156.1 513.9 160.7 510.8 164.3C503.6 172.9 495.7 180.4 487 186.9C474 196.5 463 201.5 453.4 201.5C445.2 201.5 439 198.4 434.7 192.4C430.9 187.4 428.9 180.6 428.9 172.7C428.9 162.6 431.1 152.3 435.1 141.5C436.3 139.1 436.8 138.1 437.3 138.1C437.5 138.1 437.5 138.3 437.5 138.8C437.5 139.5 437.3 140.7 437 142.2C433.9 152.8 432.4 160.7 432.4 166.2C432.4 171.2 433.6 175.6 436 179.2C439.8 184.2 445.8 186.9 454.2 186.9C461.4 186.9 470 183.8 480.4 177.5C488.6 172.5 496.5 166.5 504.2 159.3C511.2 152.5 514.8 148.2 514.8 146L514.8 146L514.8 146L514.8 146L514.8 146ZM449.3 109.8C448.8 107.6 448.1 106 447.1 104.8C446.4 103.4 445.9 102.6 445.7 102.2C445.7 101.7 445.7 100 446.2 96.7C446.7 93.6 446.9 91.4 447.4 90.2C447.6 89 447.9 88.5 448.4 88.5C448.6 88.5 448.9 88.7 449.4 89.2C452.8 93 456.4 96.9 460.4 101C462.1 102.7 462.8 103.6 462.8 104.1C462.8 104.3 462.6 104.6 462.1 104.6C461.4 104.6 459.5 104.1 456.6 103.4C458.3 107.5 460.2 111.6 461.9 115.4C464.5 122.1 466 127.6 466 132.7C466 135.1 465.5 138 464.6 141.6C463.4 145.7 462 148.8 460 151C453 158.9 441.3 167.6 424.7 176.9C410.3 185.3 401.9 189.4 399.3 189.4C398.8 189.4 391.6 191.1 377.9 194.4C363.5 197.8 354.4 199.9 350.8 200.4C347 201.1 344.6 201.4 343.6 201.4C343.1 201.4 343.1 201.4 343.1 201.2C343.1 201 345.7 199.5 351 197.1C352.9 196.1 364 191.3 384.4 182.7C398.6 176.7 410.3 171.2 419.7 166.1C433.9 158.4 444.7 151.7 452.1 146.2C457.6 141.9 460.5 138.8 460.5 136.8C460.5 136.3 459.1 133 456.2 126.7C452.9 119.6 450.5 113.8 449.3 109.8L449.3 109.8L449.3 109.8L449.3 109.8L449.3 109.8ZM429.6 76.4C429.6 80.2 427.7 85.5 423.8 92C421.4 96.1 417.8 101.6 413 108.8C417.8 114.3 421.2 119.4 422.8 123.7C423.8 126.8 424.5 130.9 424.5 135.5C424.5 137.4 424 139.8 423.1 142.9C422.4 145.8 421.4 147.9 420.5 149.4C418.6 152.3 415.5 155.2 410.7 158C405.7 161.4 401.3 163 397.7 163C391.9 163 389.1 158.7 389.1 150C389.1 144.2 390.1 138.5 392 133.2C393.9 128.6 397 122.6 402.1 114.7C397.8 110.6 393.2 104.9 388.2 97.7C387.7 97 386.5 95.8 384.6 93.9C383.6 92.9 383.2 91.7 383.2 90.3C383.2 88.1 383.4 85.7 383.9 82.9C384.6 80 385.1 78.8 385.3 78.8C386 78.8 388.2 80 392.3 82.6C396.1 85.2 399.3 87.2 401.2 88.8C402.4 89.5 402.9 90.2 402.9 90.2L402.9 90.4C402.9 90.6 402.2 90.9 400.5 90.9C397.4 90.9 395.7 91.1 395.7 91.4C395.7 91.6 396.2 92.1 397.1 93.3C400.9 98.1 404.8 101.7 408.9 104.6C409.9 103.2 413.2 98.4 418.5 90.2C423.1 83.2 425.7 78.4 426.9 75.6C428.1 72.7 428.8 71.5 429.3 71.5C429.4 71.6 429.6 73 429.6 76.4L429.6 76.4L429.6 76.4L429.6 76.4L429.6 76.4ZM420.3 135.4C417.7 130.1 413.1 124.6 406.9 119.3C404.7 121.5 402.1 125.5 398.7 131.3C394.9 137.8 393.2 141.9 393.2 144C393.2 146.9 395.1 148.3 399.4 148.3C401.3 148.3 403.7 147.6 406.8 146.4C411.1 144.5 415.2 141.8 418.6 138.5C420 137.1 420.5 136.2 420.3 135.4L420.3 135.4L420.3 135.4L420.3 135.4L420.3 135.4ZM406.8 58.4L410.6 50.5C410.8 50 411.1 49.8 411.6 49.8C412.1 49.8 414 51 417.8 53.6C421.4 56 423.3 57.4 423.3 57.9C423.3 59.6 421.6 63.2 418.5 68.5C418 69.2 417.5 69.2 417.1 69C414 66.6 410.4 64.2 406.3 61.6C404.9 64.5 403.7 67.1 402.2 69.3C402 70 401.5 70.3 401 70C397.4 67.1001 393.6 64.5 389.7 62.1001C389.5 61.9 389.5 61.6001 389.7 61.1001L394.3 51.5C394.5 51 395 50.5 395.3 50.5C395.8 50.5 397.5 51.7001 400.6 53.9C403.7 55.8 405.9 57.4 406.8 58.4L406.8 58.4L406.8 58.4L406.8 58.4L406.8 58.4ZM533.3 192.3C530.7 193 529.2 193.5 528.7 193.5L528.7 193.3C528.7 193.3 529.7 192.6 531.6 191.4C533.5 190.2 536.4 188.3 540.5 185.2C542.4 183.3 545.3 180.2 548.9 175.8C551.3 172.9 553.9 170.3 556.8 168.4C560.4 165.8 563.8 164.6 567.4 164.6C568.1 164.6 569.3 164.8 570.8 165.3C572 165.8 573.2 166 574.2 166C576.1 166 577.6 165.3 578.8 163.8C579.5 162.4 580.5 161.2 581.4 159.7C581.9 158.7 582.6 158.3 583.1 158.3C583.3 158.3 583.3 158.5 583.3 159C583.3 159.5 583.1 160.7 582.6 162.1C582.1 162.8 584 163.1 587.6 163.1C588.1 163.1 588.3 163.1 588.3 162.9C588.3 162.9 588.1 161.9 587.6 160.3C587.4 159.8 587.6 159.1 588.3 158.1C589.3 156.4 589.7 155.7 590 155.9C591 156.6 591.4 158.1 591.4 159.7C591.4 161.4 590.9 163.1 590.2 165C589.5 167.2 588.8 168.4 588.3 168.8C586.6 169.8 584 169.5 580.4 167.8C577.5 170.7 574.6 172.4 571.8 172.4C571.1 172.4 569.9 172.2 568.7 171.7C567.5 171.2 566.5 171 565.8 171C561 171 556 173.2 550.9 178C547.3 181.6 543.7 185.2 540.1 188.8C537.9 190.4 535.7 191.6 533.3 192.3L533.3 192.3L533.3 192.3L533.3 192.3L533.3 192.3ZM481.9 62.5C484.8 62.5 487.2 63.9 489.3 67.3C491.5 70.4 493.1 74.7 493.9 80C494.1 80.5 494.1 80.7 494.1 81L494.3 81C494.3 80.8 494.5 80.5 494.5 80C495 76.9 496.2 72.1 497.9 65.8C499.8 61.5 501.7 59.3 503.9 59.3C505.1 59.3 506.3 60 507.3 61.5C508.3 62.9 508.7 63.9 508.7 64.9C508.7 65.4 508.7 66.3 508.2 67.3C507.7 68.7 507.2 69.5 506.8 69.5C506.6 69.5 506.1 68.8 505.1 67.8C504.4 66.8 503.4 66.4 502.5 66.4C500.6 66.4 498.9 71 497.2 80.1C496.5 84.2 495.5 87.1 494.8 88.7C494.1 89.7 493.6 90.4 493.1 90.4C492.6 90.4 492.6 89.7 492.4 88.7C492.6 87 491.7 83.9 489.8 79.3C487.9 74.5 486.7 72.3 485.7 72.3C485.2 72.3 485 72.3 484.7 72.8C484.5 73 484.2 73.3 483.5 73.3C482.5 73.3 481.6 72.6 480.1 71.4C478.7 70.2 478.2 69.2 478.2 68.5C478.2 68.3 478.7 67.1001 479.9 65.1001C481 63.2 481.7 62.5 481.9 62.5L481.9 62.5L481.9 62.5L481.9 62.5L481.9 62.5ZM441.1 59.6C465.3 50.5 490.5 41.4 516.5 31.8C517.2 31.6 517.7 31.3 517.7 31.6C517.9 31.6 517.9 32.1 517.7 32.8C516.7 35 516 36.2 515.5 36.6C515.3 36.8 503 41.4 479.3 50.3C455.1 59.2 441.4 64.7 438.7 66.4C439.2 64.2 439.9 62 441.1 59.6L441.1 59.6L441.1 59.6L441.1 59.6L441.1 59.6ZM417.6 15.7C418.1 14.3 418.1 12.8 417.8 11.4C417.6 10 416.8 9.2 415.6 9.2C415.1 9.2 414.4 9.39999 413.4 9.89999C412.4 10.4 412 10.9 412 11.3C412.1 12.6 414 14 417.6 15.7L417.6 15.7L417.6 15.7L417.6 15.7L417.6 15.7ZM414.7 21.9C410.1 19.5 408 17.1 408 14.5C408 11.4 409.4 8.50002 412.3 6.10002C415.2 3.50002 417.6 2.50002 419.5 3.20003C421.2 3.70003 421.9 5.40002 421.9 8.20003C421.9 10.8 421.4 13.7 420.2 17.1C422.6 18.3 424 19.5 424.5 20.5C424.5 21.7 423.5 23.9 421.4 26.7C420.9 25.7 419.5 24.5 417.3 23.3C414.7 26.9 411.5 30 407.7 32.9C403.1 36 399.1 38.7 395.5 40.1C394.5 40.6 390.2 42.3 382.5 45.1C381.3 45.6 380.3 45.8 380.1 45.8C379.9 45.8 379.9 45.6 379.9 45.6C379.9 45.4 380.4 44.6 381.8 43.9C387.6 40.3 393.3 36.9 399.3 33.6C406.3 29.4 411.4 25.5 414.7 21.9L414.7 21.9L414.7 21.9L414.7 21.9L414.7 21.9ZM566.4 51.9C566.9 50.5 566.9 49 566.6 47.6C566.4 46.2 565.6 45.4 564.4 45.4C563.9 45.4 563.2 45.6 562.2 46.1C561.2 46.6 560.8 47.1 560.8 47.5C560.9 48.8 562.8 50.2 566.4 51.9L566.4 51.9L566.4 51.9L566.4 51.9L566.4 51.9ZM571.7 60.8C569.3 66.6 568.1 71.1 568.1 74.5C568.1 78.6 569.1 80.7 571.2 80.7C572.4 80.7 573.8 79 575.5 76.1C575.7 75.9 575.7 75.6 576 75.4C576 75.4 576.2 75.4 576.2 75.6C576.2 75.6 576.2 75.8 576.2 76.3C574.8 83.5 572.6 87.1 569.7 87.1C566.6 87.1 565.1 84.5 565.1 79.2C565.1 76.6 565.6 73.2 567 68.9C568.4 64.6001 569.2 62.4 569.2 62.2C569.2 61.7 568.2 60.8 566.1 59.6C562.3 64.6 557 69.4 550.3 73.5C545.7 76.1 541.2 78.5 536.4 80.5C527.5 84.1 522.2 86 521 86.7C519.8 87.2 519.1 87.4 518.6 87.4C518.4 87.4 518.4 87.2 518.4 87.2C518.4 86.7 518.9 86.2 520.3 85.3C528 81 535.4 76.7 543.1 72.3C553.2 66.5 560.1 61.7 563.5 58.1C558.9 55.7 556.8 53.3 556.8 50.7C556.8 47.6 558.2 44.7 561.1 42.1C564 39.7 566.4 38.7 568.3 39.5C569.7 40 570.7 41.7 570.7 44.5C570.7 47.1 570.2 50 569 53.1C571.4 54.5 572.4 56 572.4 57.4C572.4 58.2 572.2 59.4 571.7 60.8L571.7 60.8L571.7 60.8L571.7 60.8L571.7 60.8ZM462.5 25.8C462.5 25.6 462.7 25.3 462.7 25.3C462.9 25.1 462.9 25.1 462.9 25.3C463.1 25.5 463.1 25.8 462.9 26C461.7 33.2 459.5 36.8 456.4 36.8C453.3 36.8 451.8 34.2 451.8 28.9C451.8 22.4 453.5 15.5 457.3 8.50002C458.3 6.80002 458.7 5.90001 459 5.90001L459 5.90001C459 6.10001 458.8 7.10001 458.3 8.8C455.9 16.2 454.7 21.3 454.7 24.4C454.7 28.2 455.7 30.4 457.8 30.4C459.4 30.3 460.8 28.6 462.5 25.8L462.5 25.8L462.5 25.8L462.5 25.8L462.5 25.8Z" id="Group" fill="#595959" stroke="none" clip-path="url(#clip_1)" />
  </g>
</svg>