<?xml version="1.0" encoding="utf-8"?>
<svg width="547.40015px" height="201.87128px" viewBox="0 0 547.40015 201.87128" version="1.1" xmlns:xlink="http://www.w3.org/1999/xlink" xmlns="http://www.w3.org/2000/svg">
  <defs>
    <path d="M547.4 0L547.4 0L547.4 201.871L0 201.871L0 0L547.4 0Z" id="path_1" />
    <clipPath id="clip_1">
      <use xlink:href="#path_1" clip-rule="evenodd" fill-rule="evenodd" />
    </clipPath>
  </defs>
  <g id="Surah_12_of_114_(modified)">
    <path d="M547.4 0L547.4 0L547.4 201.871L0 201.871L0 0L547.4 0Z" id="Surah_12_of_114_(modified)" fill="none" stroke="none" />
    <path d="M292.8 35.2712C292.8 31.8712 294 27.3712 296.4 21.5712C296.9 20.0712 297.3 18.8712 297.3 18.1712C297.3 16.7712 296.1 15.2712 293.7 13.8712C294.9 10.7712 295.4 7.87123 295.4 5.27122C295.4 2.47122 294.7 0.771225 293 0.271225C291.1 -0.528763 288.7 0.471237 285.8 2.87123C282.9 5.47124 281.5 8.37123 281.5 11.4712C281.5 14.0712 283.6 16.4712 288.2 18.8712C284.8 22.4712 279.8 26.3712 272.8 30.6712C266.8 33.9712 261.1 37.5712 255.3 40.9712C253.9 41.9712 253.4 42.4712 253.4 42.6712C253.4 42.8712 253.4 42.8712 253.6 42.8712C253.8 42.8712 254.8 42.6712 256 42.1712C263.7 39.2712 268 37.5712 269 37.3712C272.6 35.7712 276.6 33.3712 281.2 29.9712C285 27.0712 288.2 23.9712 290.8 20.3712C292.9 21.5712 293.9 22.4712 293.9 22.9712C293.9 23.1712 293.1 25.3712 291.7 29.6712C290.5 33.9712 289.8 37.3712 289.8 39.9712C289.8 45.2712 291.3 47.8712 294.4 47.8712C297.5 47.8712 299.7 44.2712 300.9 37.0712L300.9 36.3712C300.9 36.1712 300.9 36.1712 300.7 36.1712C300.4 36.3712 300.4 36.6712 300.2 36.8712C298.8 39.7712 297.3 41.4712 295.9 41.4712C293.8 41.4712 292.8 39.3712 292.8 35.2712ZM158.8 8.37125C156.7 4.97124 154.3 3.57124 151.4 3.57124C151.2 3.57124 150.5 4.27124 149.4 6.17126C148.2 8.17126 147.7 9.37126 147.7 9.57126C147.7 10.2713 148.2 11.2713 149.6 12.4713C151.1 13.6713 152 14.3712 153 14.3712C153.7 14.3712 154 14.0712 154.2 13.8712C154.5 13.3712 154.7 13.3712 155.2 13.3712C156.2 13.3712 157.4 15.5712 159.3 20.3712C161.2 24.9712 162.1 28.0712 161.9 29.7712C162.1 30.7712 162.1 31.4712 162.6 31.4712C163.1 31.4712 163.6 30.7712 164.3 29.7712C165 28.1712 166 25.2712 166.7 21.1712C168.4 12.0712 170.1 7.47124 172 7.47124C172.9 7.47124 173.9 7.87123 174.6 8.87123C175.6 9.87123 176.1 10.5712 176.3 10.5712C176.7 10.5712 177.2 9.77122 177.7 8.37123C178.2 7.37123 178.2 6.47124 178.2 5.97124C178.2 4.97124 177.8 3.97124 176.8 2.57124C175.8 1.07124 174.6 0.371246 173.4 0.371246C171.2 0.371246 169.3 2.57124 167.4 6.87125C165.7 13.1712 164.5 17.9712 164 21.0712C164 21.5712 163.8 21.8712 163.8 22.0712L163.6 22.0712C163.6 21.7712 163.6 21.5712 163.4 21.0712C162.6 15.7712 161 11.4713 158.8 8.37125ZM228.7 8.37125C226.6 4.97124 224.2 3.57124 221.3 3.57124C221 3.57124 220.3 4.27124 219.3 6.17126C218.1 8.17126 217.6 9.37126 217.6 9.57126C217.6 10.2713 218.1 11.2713 219.5 12.4713C221 13.6713 221.9 14.3712 222.9 14.3712C223.6 14.3712 223.9 14.0712 224.1 13.8712C224.4 13.3712 224.6 13.3712 225.1 13.3712C226.1 13.3712 227.3 15.5712 229.2 20.3712C231.1 24.9712 232 28.0712 231.8 29.7712C232 30.7712 232 31.4712 232.5 31.4712C233 31.4712 233.5 30.7712 234.2 29.7712C234.9 28.1712 235.9 25.2712 236.6 21.1712C238.3 12.0712 240 7.47124 241.9 7.47124C242.8 7.47124 243.8 7.87123 244.5 8.87123C245.5 9.87123 246 10.5712 246.2 10.5712C246.6 10.5712 247.1 9.77122 247.6 8.37123C248.1 7.37123 248.1 6.47124 248.1 5.97124C248.1 4.97124 247.7 3.97124 246.7 2.57124C245.7 1.07124 244.5 0.371246 243.3 0.371246C241.1 0.371246 239.2 2.57124 237.3 6.87125C235.6 13.1712 234.4 17.9712 233.9 21.0712C233.9 21.5712 233.7 21.8712 233.7 22.0712L233.5 22.0712C233.5 21.7712 233.5 21.5712 233.3 21.0712C232.5 15.7712 230.9 11.4713 228.7 8.37125ZM352.6 13.4713C352.6 16.0712 354.7 18.4713 359.3 20.8712C355.9 24.4713 350.9 28.2712 343.9 32.5713C337.9 35.8713 332.2 39.2713 326.4 42.8713C325 43.5713 324.5 44.3713 324.5 44.5713C324.5 44.5713 324.5 44.7713 324.7 44.7713C324.9 44.7713 325.9 44.5713 327.1 44.0713C334.8 41.2713 339.1 39.5713 340.1 39.0713C343.7 37.6713 347.7 34.9713 352.3 31.8713C356.1 28.9713 359.3 25.8713 361.9 22.2713C364.1 23.4713 365.5 24.6712 366 25.6712C368.1 22.8712 369.1 20.6712 369.1 19.4713C368.6 18.4713 367.2 17.2713 364.8 16.0713C366 12.6713 366.5 9.77127 366.5 7.17126C366.5 4.37126 365.8 2.67126 364.1 2.17126C362.2 1.47125 359.8 2.47125 356.9 5.07126C354 7.47125 352.6 10.3712 352.6 13.4713ZM291.3 8.37125C291.6 9.77126 291.6 11.2713 291.1 12.6712C287.5 10.9713 285.6 9.57124 285.5 8.27124C285.5 7.87125 285.9 7.37125 286.9 6.87125C287.9 6.37125 288.6 6.17125 289.1 6.17125C290.3 6.17125 291.1 6.97125 291.3 8.37125ZM68.1 29.6712C86.6 22.9713 105.8 15.7713 125.9 8.27126C126.078 8.2203 126.244 8.16286 126.394 8.11051C126.835 7.95734 127.151 7.84768 127.3 8.07126C127.3 8.07126 127.3 8.57126 127.1 9.27126C126.1 11.4713 125.4 12.6712 124.9 13.0713C108.1 19.2713 88.2 26.9713 65.6 36.3713C66.2 34.2712 66.9 32.0712 68.1 29.6712ZM362.3 10.2712C362.6 11.6712 362.6 13.1712 362.1 14.5712C358.5 12.8712 356.6 11.4713 356.5 10.1712C356.5 9.77124 356.9 9.27124 357.9 8.77124C358.9 8.27124 359.6 8.07124 360.1 8.07124C361.3 8.07124 362.1 8.87125 362.3 10.2712ZM404.1 27.5712C404.1 27.5712 403.9 27.8712 403.9 28.0712C402.2 30.8712 400.8 32.5712 399.2 32.6712C397.1 32.6712 396.1 30.4713 396.1 26.6712C396.1 23.5712 397.3 18.4712 399.7 11.0712C400.2 9.37125 400.4 8.37125 400.4 8.17125C400.1 8.17125 399.7 9.07126 398.7 10.7713C394.9 17.7713 393.2 24.6712 393.2 31.1712C393.2 36.4712 394.7 39.0712 397.8 39.0712C400.9 39.0712 403.1 35.4712 404.3 28.2712C404.5 28.0712 404.5 27.7712 404.3 27.5712C404.3 27.4806 404.3 27.431 404.281 27.4225C404.259 27.4124 404.209 27.4619 404.1 27.5712ZM47 48.3712C47 48.3712 46.8 48.6712 46.8 48.8712C45.1 51.7712 43.7 53.4713 42.1 53.4713C40 53.4713 39 51.2712 39 47.4713C39 44.3712 40.2 39.2712 42.6 31.8712C43.1 30.1712 43.3 29.1712 43.3 28.9713C43 28.9713 42.6 29.8713 41.6 31.5713C37.8 38.5713 36.1 45.4713 36.1 51.9713C36.1 57.2712 37.6 59.8712 40.7 59.8712C43.8 59.8712 46 56.2712 47.2 49.0712C47.4 48.8712 47.4 48.5712 47.2 48.3712C47.2 48.2806 47.2 48.231 47.1813 48.2226C47.1589 48.2124 47.1093 48.2619 47 48.3712ZM385.7 58.2712C409.9 49.1712 435.1 40.0712 461.1 30.4712C461.302 30.4135 461.488 30.3474 461.649 30.2898C462.047 30.148 462.3 30.0579 462.3 30.2712C462.5 30.2712 462.5 30.7712 462.3 31.4712C461.3 33.6712 460.6 34.8712 460.1 35.2712C459.9 35.4712 447.6 40.0712 423.9 48.9712C399.7 57.8712 386 63.3712 383.3 65.0712C383.7 62.8712 384.5 60.6712 385.7 58.2712ZM516.2 59.4713C513.8 65.2712 512.6 69.7712 512.6 73.1713C512.6 77.2713 513.6 79.3713 515.7 79.3713C516.9 79.3713 518.3 77.6713 520 74.7713C520.2 74.5713 520.2 74.2713 520.5 74.0713C520.5 74.0713 520.7 74.0713 520.7 74.2713L520.7 74.9713C519.3 82.1713 517.1 85.7713 514.2 85.7713C511.1 85.7713 509.6 83.1713 509.6 77.8713C509.6 75.2713 510.1 71.8713 511.5 67.5713C512.9 63.2713 513.7 61.0713 513.7 60.8713C513.7 60.3713 512.7 59.4713 510.6 58.2713C506.8 63.2713 501.5 68.0713 494.8 72.1713C490.2 74.7713 485.7 77.1713 480.9 79.1713C472 82.7713 466.7 84.6713 465.5 85.3713C464.3 85.8713 463.6 86.0713 463.1 86.0713C462.9 86.0713 462.9 85.8713 462.9 85.8713C462.9 85.3713 463.4 84.8713 464.8 83.9713C472.5 79.6713 479.9 75.3713 487.6 70.9713C497.7 65.1713 504.6 60.3713 508 56.7713C503.4 54.3713 501.3 51.9713 501.3 49.3713C501.3 46.2713 502.7 43.3713 505.6 40.7713C508.5 38.3713 510.9 37.3713 512.8 38.1713C514.2 38.6713 515.2 40.3713 515.2 43.1713C515.2 45.7713 514.7 48.6713 513.5 51.7713C515.9 53.1713 516.9 54.6713 516.9 56.0713C516.9 56.8712 516.7 58.0713 516.2 59.4713ZM113.3 49.3712C113.1 49.1712 113.1 48.8712 113.3 48.3712L117.9 38.7712C118.1 38.2712 118.6 38.0712 118.9 38.0712C119.4 38.0712 121.5 39.2712 125.1 41.6712C128.9 44.2713 130.9 45.7713 130.9 46.2713C130.9 47.9713 129.2 51.2713 125.9 56.5713L125.871 56.6116C125.392 57.2827 125.19 57.5654 124.7 57.2713C120.9 54.4713 117.1 51.7712 113.3 49.3712ZM197.5 62.8712C195.1 68.6712 193.9 73.1712 193.9 76.5713C193.9 80.6713 194.9 82.7713 197 82.7713C198.4 82.7713 199.9 81.0713 201.3 78.1713C201.5 77.9713 201.5 77.6713 201.8 77.4713C202 77.4713 202 77.4713 202 77.6713L202 78.3713C200.8 85.5713 198.6 89.1713 195.5 89.1713C192.4 89.1713 190.9 86.5713 190.9 81.2713C190.9 78.6713 191.6 75.2713 192.8 70.9713C194.2 66.6713 195 64.4713 195 64.2713C195 63.7713 194 62.8713 191.9 61.6713C189.3 65.2713 186.1 68.3713 182.3 71.2713C177.7 74.6713 173.7 77.0713 170.1 78.6713C169.1 78.8713 164.8 80.5713 157.1 83.4713C155.9 83.9713 154.9 84.1713 154.7 84.1713C154.5 84.1713 154.5 84.1713 154.5 83.9713C154.5 83.7712 155 83.2712 156.4 82.2712C162.2 78.8712 167.9 75.2712 173.9 71.9713C180.9 67.6713 185.9 63.7712 189.3 60.1713C184.7 57.7713 182.6 55.3713 182.6 52.7713C182.6 49.6713 184 46.7713 186.9 44.1713C189.8 41.7713 192.2 40.7713 194.1 41.5713C195.8 42.0713 196.5 43.7713 196.5 46.5713C196.5 49.1713 196 52.0713 194.8 55.1713C197.2 56.5713 198.4 58.0713 198.4 59.4713C198.48 60.0339 198.173 60.9197 197.79 62.0248C197.696 62.2944 197.598 62.5771 197.5 62.8712ZM510.9 50.5712C511.4 49.1712 511.4 47.6712 511.1 46.2712C510.9 44.8712 510.1 44.0712 508.9 44.0712C508.4 44.0712 507.7 44.2712 506.7 44.7712C505.7 45.2712 505.3 45.7712 505.3 46.1712C505.4 47.4713 507.3 48.8712 510.9 50.5712ZM192.2 53.9713C192.7 52.5713 192.7 51.0713 192.4 49.6712C192.2 48.2713 191.4 47.4713 190.2 47.4713C189.7 47.4713 189 47.6712 188 48.1712C187 48.6712 186.6 49.1712 186.6 49.5712C186.7 50.8712 188.6 52.2712 192.2 53.9713ZM355.4 49.1713L351.6 57.0713C350.6 56.0713 348.5 54.4713 345.4 52.5713C342.3 50.3713 340.6 49.1713 340.1 49.1713C339.8 49.1713 339.3 49.6713 339.1 50.1713L334.5 59.7713C334.3 60.2713 334.3 60.5713 334.5 60.7713C338.4 63.1713 342.2 65.7713 345.8 68.6713C346.3 68.9713 346.8 68.6713 347 67.9713C348.5 65.7713 349.7 63.1713 351.1 60.2713C355.2 62.8713 358.8 65.2713 361.9 67.6713C362.3 67.8713 362.8 67.8713 363.3 67.1713C366.4 61.8712 368.1 58.2713 368.1 56.5713C368.1 56.0713 366.2 54.6713 362.6 52.2713C358.8 49.6713 356.9 48.4713 356.4 48.4713C355.9 48.4713 355.6 48.6713 355.4 49.1713ZM241.9 70.7712C241.9 70.5712 242.1 70.2712 242.1 70.2712L242.1 70.271C242.21 70.1614 242.259 70.1124 242.281 70.1225C242.3 70.131 242.3 70.1806 242.3 70.2712C242.5 70.4713 242.5 70.7712 242.3 70.9713C241.1 78.1713 238.9 81.7712 235.8 81.7712C232.7 81.7712 231.2 79.1712 231.2 73.8712C231.2 67.3712 232.9 60.4713 236.7 53.4713C237.7 51.7712 238.1 50.8712 238.4 50.8712C238.4 51.0713 238.2 52.0713 237.7 53.7712C235.3 61.1712 234.1 66.2712 234.1 69.3712C234.1 73.1712 235.1 75.3712 237.2 75.3712C238.8 75.2712 240.2 73.6712 241.9 70.7712ZM14.1 75.5713C14.1 75.5713 13.9 75.8712 13.9 76.0713C12.2 78.8712 10.8 80.5713 9.19998 80.6713C7.09998 80.6713 6.09998 78.4713 6.09998 74.6713C6.09998 71.5713 7.29999 66.4713 9.69998 59.0713C10.2 57.3713 10.4 56.3713 10.4 56.1713C10.1 56.1713 9.69998 57.0713 8.69998 58.7713C4.89997 65.7713 3.19997 72.6713 3.19997 79.1713C3.19997 83.5163 4.20815 86.0467 6.27962 86.8175C5.77824 87.3784 5.08154 88.4779 4.3 90.1712C1.4 96.3712 0 104.271 0 113.671C0 138.171 12.2 150.371 36.7 150.371C52.5 150.371 70.3 146.471 90.2 138.571C102.7 133.771 112.5 128.971 119.5 124.671C123.6 132.371 128.4 137.871 133.9 140.771C138.454 143.345 143.89 144.547 150.5 144.571L150.5 144.571C150.529 144.571 150.557 144.571 150.586 144.571C150.624 144.571 150.662 144.571 150.7 144.571L150.7 144.57C157.329 144.517 163.762 141.816 169.9 136.371C171.3 135.171 174.5 131.871 179.5 126.071C180.3 125.171 181 124.871 181.7 124.671C182.2 124.971 182.4 125.171 182.4 125.671C182.6 130.271 183.6 133.871 185 136.271C187.6 140.171 192 142.071 198.2 142.071C200.765 142.071 203.173 141.654 205.428 140.82C205.268 141.135 205.093 141.485 204.9 141.871C200.9 152.671 198.7 162.971 198.7 173.071C198.7 180.971 200.7 187.771 204.5 192.771C208.8 198.771 215 201.871 223.2 201.871C232.8 201.871 243.8 196.871 256.8 187.271C265.5 180.771 273.4 173.271 280.6 164.671C283.7 161.071 286.3 156.471 288 150.971C289.5 146.571 290.2 143.271 290.2 140.371L290.7 139.871L290.7 126.671C289.7 127.171 289.2 127.171 289 127.171C286.6 122.171 283.7 118.071 280.6 114.471C277 110.871 273.9 108.971 270.8 108.971C266.7 108.971 262.9 111.071 259.3 115.171C255.5 119.971 253.8 125.271 253.8 131.271C253.8 139.171 259.6 143.271 271.1 143.271C276.4 143.271 280.7 142.571 283.6 141.571C284.1 143.271 284.6 144.971 284.6 146.371C284.6 148.471 281 152.871 274 159.671C266.3 166.871 258.4 172.871 250.2 177.871C239.8 184.171 231.2 187.271 224 187.271C215.6 187.271 209.6 184.571 205.8 179.571C203.4 175.971 202.2 171.571 202.2 166.571C202.2 161.071 203.7 153.171 206.8 142.571C206.999 141.579 207.153 140.717 207.235 140.045C211.837 137.795 215.75 133.67 219 127.671C222.6 133.971 226.4 137.071 230.5 137.071C236.5 137.071 240.8 134.671 243.7 129.371C246.1 125.071 247.3 119.971 247.3 113.771C247.3 112.571 247 110.971 246.3 108.771C245.3 106.071 244.4 104.671 243.4 104.671C242.9 104.671 242.7 105.171 242.2 106.371C240.3 112.571 239.1 116.171 239.1 116.671C239.1 117.171 239.5 117.871 240.5 118.571C241.4 119.471 241.9 119.971 241.9 120.471C240.9 122.071 238.8 123.071 235.4 123.071C232.8 123.071 230.4 122.071 228.2 120.171C226.3 118.771 225.1 116.871 225.1 115.171C225.1 115.518 225.292 114.711 225.743 112.817L225.743 112.817L225.744 112.816L225.744 112.816L225.744 112.815C225.943 111.978 226.193 110.928 226.5 109.671C226.7 108.971 226.7 108.471 226.7 107.971C226.7 107.071 226.4 106.571 225.7 106.571C225.2 106.571 224.5 106.971 223.5 107.971C221.1 111.771 218.5 115.671 216.1 119.471C212 124.571 207 127.171 201 127.171C196.9 127.171 193.3 126.271 190.7 124.571C188 122.671 186.6 120.071 186.6 116.671C186.6 115.271 186.9 113.571 187.6 111.671C188.1 110.071 187.6 109.271 186.4 109.071C185.5 109.271 184.8 109.471 183.8 110.471C176.2 118.171 171.4 122.771 169.2 124.171C163.926 128.052 157.76 129.953 150.605 129.971C140.352 129.949 132.685 126.351 127.7 119.671C134.9 114.871 138.5 106.971 138.5 95.7712C138.5 91.1712 137.3 86.3712 134.7 81.5712C131.8 76.2712 128.7 73.8712 125.6 73.6712C122.5 73.8712 119.3 76.2712 116.7 81.0712C113.8 86.2712 112.1 92.2712 112.1 99.2712C112.1 102.671 113.3 107.671 115.9 114.171C108.9 118.271 100.3 122.171 89.7 125.971C71.7 132.371 54.9 135.771 39.3 135.771C30.2 135.771 22.5 133.771 16 129.971C7.60001 124.671 3.30001 116.771 3.30001 106.471C3.30001 103.871 4.50001 98.5712 6.40001 90.6712C6.90001 88.9712 7.10001 87.7712 7.10001 87.0712C7.10001 87.0549 7.09979 87.0388 7.09938 87.0231C7.32308 87.0552 7.55659 87.0713 7.79997 87.0713C10.9 87.0713 13.1 83.4713 14.3 76.2713C14.5 76.0713 14.5 75.7713 14.3 75.5713C14.3 75.4806 14.3 75.431 14.2813 75.4226C14.2589 75.4124 14.2093 75.4619 14.1 75.5713ZM433.9 66.1712C431.8 62.7712 429.4 61.3712 426.5 61.3712C426.2 61.3712 425.5 62.0713 424.5 63.9713C423.3 65.9713 422.8 67.1713 422.8 67.3713C422.8 68.0713 423.3 69.0713 424.7 70.2713C426.2 71.4713 427.1 72.1713 428.1 72.1713C428.8 72.1713 429.1 71.8713 429.3 71.6713C429.6 71.1713 429.8 71.1713 430.3 71.1713C431.3 71.1713 432.5 73.3713 434.4 78.1713C436.3 82.7713 437.2 85.8712 437 87.5713C437.2 88.5713 437.2 89.2713 437.7 89.2713C438.2 89.2713 438.7 88.5713 439.4 87.5713C440.1 85.9713 441.1 83.0713 441.8 78.9713C443.5 69.8712 445.2 65.2712 447.1 65.2712C448 65.2712 449 65.6712 449.7 66.6712C450.7 67.6712 451.2 68.3712 451.4 68.3712C451.8 68.3712 452.3 67.5712 452.8 66.1712C453.3 65.1712 453.3 64.2712 453.3 63.7712C453.3 62.7712 452.9 61.7712 451.9 60.3712C450.9 58.8712 449.7 58.1712 448.5 58.1712C446.3 58.1712 444.4 60.3712 442.5 64.6712C440.8 70.9713 439.6 75.7712 439.1 78.8712C439.1 79.3712 438.9 79.6712 438.9 79.8712L438.7 79.8712C438.7 79.5713 438.7 79.3712 438.5 78.8712C437.7 73.5712 436.1 69.2712 433.9 66.1712ZM87.3 64.0713C87.3 64.5713 87.1 65.4713 86.6 66.4713C86.4 67.8712 85.9 68.6713 85.2 68.6713C85 68.6713 84.5 67.9713 83.5 66.9713C82.8 65.9713 81.8 65.5713 81.1 65.5713C79.2 65.5713 77.3 70.1713 75.6 79.2713C74.9 83.3713 74.2 86.2713 73.2 87.8713C72.9828 88.1816 72.7848 88.4631 72.6001 88.7037C72.8074 88.0375 72.9 87.6155 72.9 87.4712L72.9 87.2712C72.7552 87.2712 72.1913 87.9 71.1702 89.0817C71.0726 88.7825 71 88.3632 71 87.8713C71 86.1713 70 83.0713 68.1 78.4713C66.2 73.6713 65 71.4713 64.3 71.4713C63.6 71.4713 63.3 71.4713 63.1 71.9713C63.1 72.1713 62.6 72.4713 61.9 72.4713C60.9 72.4713 60 71.7713 58.5 70.5713C57.3 69.3713 56.6 68.3713 56.6 67.6713C56.6 67.4713 57.1 66.2713 58.3 64.2713C59.5 62.3713 60.2 61.6713 60.5 61.6713C63.1 61.6713 65.5 63.0713 67.7 66.4713C70.1 69.8713 71.5 73.8713 72.5 79.1713L72.5 80.1713C72.6093 80.2806 72.6589 80.3302 72.6814 80.32C72.7 80.3115 72.7 80.262 72.7 80.1713C72.7 79.9713 72.9 79.6713 73.2 79.1713C73.4 76.0713 74.6 71.2713 76.3 64.9713C78.2 60.6713 80.1 58.4713 82.3 58.4713C83.5 58.4713 84.7 59.1713 85.9 60.6713C86.9 62.0713 87.3 63.0713 87.3 64.0713ZM71.1702 89.0817C70.7807 89.5324 70.3246 90.0637 69.8 90.6712C68.1 92.5712 66 94.6712 63.1 96.8712C51.1 104.771 42 110.371 35.5 114.171C34.3 114.871 33.6 115.671 33.6 115.871C33.6 115.871 33.6 116.071 33.8 116.071C34.3 116.071 35 115.871 36.2 115.371C44.2 112.571 48.5 110.871 49.2 110.371C52.8 108.771 56.8 106.371 61.4 102.971C66.5 99.3712 69.8 95.4712 71.5 91.6712C72.019 90.4257 72.3764 89.4225 72.6001 88.7037C72.1897 89.2384 71.8448 89.5713 71.5 89.5713C71.3984 89.5713 71.271 89.3906 71.1702 89.0817ZM374.4 75.2712C374.4 79.0712 372.5 84.3712 368.6 90.8712C366.2 94.9713 362.6 100.471 357.8 107.671C362.6 113.171 366 118.271 367.6 122.571C368.6 125.671 369.3 129.771 369.3 134.371C369.3 136.271 368.8 138.671 367.9 141.771C367.2 144.671 366.2 146.771 365.3 148.271C363.4 151.171 360.3 154.071 355.5 156.871C350.5 160.271 346.1 161.871 342.5 161.871C336.7 161.871 333.9 157.571 333.9 148.871C333.9 143.071 334.9 137.371 336.8 132.071C338.7 127.471 341.8 121.471 346.9 113.571C342.6 109.471 338 103.771 333 96.5712C332.5 95.8712 331.3 94.6712 329.4 92.7712C328.4 91.7712 328 90.5712 328 89.1712C328 86.9712 328.2 84.5712 328.7 81.7712C329.4 78.8712 329.9 77.6712 330.1 77.6712C330.8 77.6712 333 78.8712 337.1 81.4712C340.9 84.0712 344.1 86.0712 346 87.6712C347.2 88.3712 347.7 89.0712 347.7 89.0712L347.7 89.2712C347.7 89.4713 347 89.7712 345.3 89.7712C342.2 89.7712 340.5 89.9713 340.5 90.2712C340.5 90.4713 341 90.9713 341.9 92.1712C345.7 96.9712 349.6 100.571 353.7 103.471C354.7 102.071 358 97.2712 363.3 89.0712C367.9 82.0712 370.5 77.2712 371.7 74.4712C372.9 71.5712 373.6 70.3712 374.1 70.3712C374.1 70.3861 374.107 70.4318 374.118 70.5098C374.182 70.9566 374.4 72.4615 374.4 75.2712ZM290.9 126.871C295.9 124.471 299.3 122.271 300.7 119.871C300.7 118.471 298.8 114.571 294.7 108.071C290.6 101.071 288 95.5713 287.3 91.9713C287.1 90.9713 286.3 90.2712 285.1 89.7712C284.1 89.5712 283.9 88.7712 283.9 87.8712L285.3 76.3712C285.5 75.1712 285.8 74.4713 286.3 74.4713C286.8 74.4713 287.3 74.9713 288 75.4713L299.5 85.5713C300.7 86.9713 301.4 87.7713 301.4 88.4713C301.4 89.6713 299 89.8712 294.4 88.6713C301.6 100.171 305.2 107.871 305.2 112.171C305.2 126.571 300.4 135.971 290.8 139.971L290.8 126.871L290.9 126.871ZM391.6 103.671C392.6 104.871 393.3 106.471 393.8 108.671C395 112.771 397.4 118.471 400.7 125.571C403.6 131.871 405 135.171 405 135.671C405 137.671 402.1 140.771 396.6 145.071C391.737 148.685 385.407 152.817 377.608 157.411C378.335 152.908 379.625 147.484 381.5 141.071C381.8 139.571 382 138.371 382 137.671C382 137.171 382 136.971 381.8 136.971C381.3 136.971 380.8 137.971 379.6 140.371C377.211 146.822 375.464 153.095 374.444 159.253C371.252 161.091 367.838 162.999 364.2 164.971C354.8 170.071 343.1 175.571 328.9 181.571C308.5 190.171 297.4 194.971 295.5 195.971C290.2 198.371 287.6 199.871 287.6 200.071C287.6 200.271 287.6 200.271 288.1 200.271C289.1 200.271 291.5 199.971 295.3 199.271C298.9 198.771 308 196.671 322.4 193.271C336.1 189.971 343.3 188.271 343.8 188.271C346.4 188.271 354.8 184.171 369.2 175.771C370.649 174.96 372.06 174.152 373.434 173.35C373.714 180.493 375.688 186.651 379.2 191.271C383.5 197.271 389.7 200.371 397.9 200.371C407.5 200.371 418.5 195.371 431.5 185.771C440.2 179.271 448.1 171.771 455.3 163.171C458.4 159.571 461 154.971 462.7 149.471C464.2 145.071 464.9 141.771 464.9 138.871L465.4 138.371L465.4 125.171C464.4 125.671 463.9 125.671 463.7 125.671C461.3 120.671 458.4 116.571 455.3 112.971C451.7 109.371 448.6 107.471 445.5 107.471C441.4 107.471 437.6 109.571 434 113.671C430.2 118.471 428.5 123.771 428.5 129.771C428.5 137.671 434.3 141.771 445.8 141.771C451.1 141.771 455.4 141.071 458.3 140.071C458.8 141.771 459.3 143.471 459.3 144.871C459.3 147.071 455.7 151.371 448.7 158.171C441 165.371 433.1 171.371 424.9 176.371C414.5 182.671 405.9 185.771 398.7 185.771C390.3 185.771 384.3 183.071 380.5 178.071C379.087 175.951 378.089 173.553 377.508 170.919C389.772 163.434 398.732 156.381 404.5 149.871C406.5 147.671 407.9 144.571 409.1 140.471C410 136.871 410.5 133.971 410.5 131.571C410.5 126.471 409 120.971 406.4 114.271C404.7 110.471 402.8 106.371 401.1 102.271C404 102.971 405.9 103.471 406.6 103.471C407.1 103.471 407.3 103.171 407.3 102.971C407.3 102.471 406.6 101.571 404.9 99.8712C400.9 95.7712 397.3 91.8712 393.9 88.0712C393.4 87.5712 393.1 87.3712 392.9 87.3712C392.4 87.3712 392.1 87.8712 391.9 89.0712C391.4 90.2712 391.2 92.4712 390.7 95.5712C390.2 98.8712 390.2 100.571 390.2 101.071C390.4 101.471 390.9 102.271 391.6 103.671ZM133.2 102.471C133.2 100.571 132 97.8712 129.8 94.2712C127.6 90.1712 125.5 88.2712 123.6 88.2712C121.9 88.2712 120.5 89.2712 119 91.1712C117.6 92.8712 116.8 94.9712 116.8 97.1712C116.8 98.5712 117.5 100.971 118.7 104.171C119.7 107.571 120.9 109.971 122.1 111.571C124 110.571 126.2 108.971 128.8 106.971C131.7 104.871 133.2 103.371 133.2 102.471ZM491.5 110.171C490.8 110.171 489.8 110.571 488.6 111.571C484.8 114.871 480.9 117.771 477 119.771C475.8 120.571 471.7 122.471 465.5 125.571L465.5 138.771C473.9 134.871 480.4 130.871 484.2 126.271C484.2 137.271 489 143.071 499.1 143.071C507.5 143.071 514.4 138.271 519.7 128.671C522.9 134.471 526.5 137.571 530.3 137.571C536.1 137.571 540.4 134.971 543.3 129.671C546 125.271 547.4 120.271 547.4 114.271C547.4 110.371 546.2 107.071 544.3 104.171C543.6 103.171 543.1 102.971 542.6 102.971C542.1 102.971 541.6 103.771 541.4 105.171C540 109.671 539 113.071 538.8 114.971C540.9 118.571 541.9 120.571 541.9 120.771C540.9 122.371 538.8 123.371 535.4 123.371C532.8 123.371 530.4 122.371 528.7 120.971C526.8 119.571 525.8 117.871 525.8 116.171C525.8 116.671 526.5 114.771 527.5 110.671C528 108.571 527.8 107.571 526.8 107.571C526.1 107.571 525.4 107.971 524.4 108.971C522 112.871 519.4 116.671 517 120.771C513.1 125.871 508.1 128.471 502.1 128.471C494.6 128.471 490.8 125.571 490.8 120.271C490.8 119.071 491 117.571 491.5 115.671C492 113.771 492.2 112.271 492.2 111.571C492.2 110.671 492 110.171 491.5 110.171ZM365 134.371C362.4 129.071 357.8 123.571 351.6 118.271C349.4 120.471 346.8 124.471 343.4 130.271C339.6 136.771 337.9 140.871 337.9 142.971C337.9 145.871 339.8 147.271 344.1 147.271C346 147.271 348.4 146.571 351.5 145.371C355.8 143.471 359.9 140.771 363.3 137.471C364.8 136.071 365.3 135.071 365 134.371ZM451.9 127.371C448.3 122.771 445.2 120.671 442.3 120.671C438 120.671 436.1 121.671 436.1 124.071C436.1 126.971 439 128.371 444.7 128.371C446.73 128.371 448.93 127.946 451.3 127.487C451.499 127.449 451.699 127.41 451.9 127.371ZM277.2 128.871C273.6 124.271 270.5 122.171 267.6 122.171C263.3 122.171 261.4 123.171 261.4 125.571C261.4 128.471 264.3 129.871 270 129.871C272.1 129.771 274.5 129.271 277.2 128.871ZM478.1 190.971C475.5 191.671 474 192.171 473.5 192.171L473.5 191.971C473.5 191.971 474.5 191.271 476.4 190.071C478.3 188.871 481.2 186.971 485.3 183.871C487.2 181.971 490.1 178.871 493.7 174.471C496.1 171.571 498.7 168.971 501.6 167.071C505.2 164.471 508.6 163.271 512.2 163.271C512.9 163.271 514.1 163.471 515.6 163.971C516.8 164.471 518 164.671 519 164.671C520.9 164.671 522.4 163.971 523.6 162.471C524.3 161.071 525.3 159.871 526.2 158.371C526.7 157.371 527.4 156.971 527.9 156.971C528.1 156.971 528.1 157.171 528.1 157.671C528.1 158.171 527.9 159.371 527.4 160.771C526.9 161.471 528.8 161.771 532.4 161.771C532.9 161.771 533.1 161.771 533.1 161.571C533.1 161.571 532.9 160.571 532.4 158.971C532.2 158.471 532.4 157.771 533.1 156.771L533.18 156.636C534.122 155.034 534.508 154.377 534.8 154.571C535.8 155.271 536.2 156.771 536.2 158.371C536.2 160.071 535.7 161.771 535 163.671C534.3 165.871 533.6 167.071 533.1 167.471C531.4 168.471 528.8 168.171 525.2 166.471C522.3 169.371 519.4 171.071 516.6 171.071C515.9 171.071 514.7 170.871 513.5 170.371C512.3 169.871 511.3 169.671 510.6 169.671C505.8 169.671 500.8 171.871 495.7 176.671L484.9 187.471C482.6 189.071 480.5 190.271 478.1 190.971ZM311.9 155.271L308.1 163.171C307.2 162.171 305 160.471 301.9 158.671C298.8 156.471 297.1 155.271 296.6 155.271C296.3 155.271 295.8 155.771 295.6 156.271L291 165.871C290.8 166.371 290.8 166.671 291 166.871C294.9 169.271 298.7 171.871 302.3 174.771C302.8 175.071 303.3 174.771 303.5 174.071C305 171.871 306.2 169.271 307.6 166.371C311.7 168.971 315.3 171.371 318.4 173.771C318.8 173.971 319.3 173.971 319.8 173.271C322.9 167.971 324.6 164.371 324.6 162.671C324.6 162.171 322.7 160.771 319.1 158.371C315.3 155.771 313.4 154.571 312.9 154.571C312.4 154.571 312.1 154.771 311.9 155.271ZM56.6 175.671C56.6 175.471 56.8 175.171 56.8 175.171C56.9093 175.062 56.9589 175.012 56.9813 175.023C57 175.031 57 175.081 57 175.171C57.2 175.371 57.2 175.671 57 175.871C55.8 183.071 53.6 186.671 50.5 186.671C47.4 186.671 45.9 184.071 45.9 178.771C45.9 172.271 47.6 165.371 51.4 158.371C52.4 156.671 52.8 155.771 53.1 155.771C53.1 155.971 52.9 156.971 52.4 158.671C50 166.071 48.8 171.171 48.8 174.271C48.8 178.071 49.8 180.271 51.9 180.271C53.5 180.171 54.9 178.471 56.6 175.671ZM93.8 170.371C91.7 166.971 89.3 165.571 86.4 165.571C86.1 165.571 85.4 166.271 84.4 168.171C83.2 170.171 82.7 171.371 82.7 171.571C82.7 172.271 83.2 173.271 84.6 174.471C86.1 175.671 87 176.371 88 176.371C88.7 176.371 89 176.071 89.2 175.871C89.5 175.371 89.7 175.371 90.2 175.371C91.2 175.371 92.4 177.571 94.3 182.371C96.2 186.971 97.1 190.071 96.9 191.771C97.1 192.771 97.1 193.471 97.6 193.471C98.1 193.471 98.6 192.771 99.3 191.771C100 190.171 101 187.271 101.7 183.171C103.4 174.071 105.1 169.471 107 169.471C107.9 169.471 108.9 169.871 109.6 170.871C110.6 171.871 111.1 172.571 111.3 172.571C111.7 172.571 112.2 171.771 112.7 170.371C113.2 169.371 113.2 168.471 113.2 167.971C113.2 166.971 112.8 165.971 111.8 164.571C110.8 163.071 109.6 162.371 108.4 162.371C106.2 162.371 104.3 164.571 102.4 168.871C100.7 175.171 99.5 179.971 99 183.071C99 183.571 98.8 183.871 98.8 184.071L98.6 184.071C98.6 183.771 98.6 183.571 98.4 183.071C97.6 177.771 96 173.471 93.8 170.371ZM123.1 198.871C120.5 199.571 119 200.071 118.5 200.071L118.5 199.871C118.5 199.871 119.5 199.171 121.4 197.971C123.3 196.771 126.2 194.871 130.3 191.771C132.2 189.871 135.1 186.771 138.7 182.371C141.1 179.471 143.7 176.871 146.6 174.971C150.2 172.371 153.6 171.171 157.2 171.171C157.9 171.171 159.1 171.371 160.6 171.871C161.8 172.371 163 172.571 164 172.571C165.9 172.571 167.4 171.871 168.6 170.371C169.3 168.971 170.3 167.771 171.2 166.271C171.7 165.271 172.4 164.871 172.9 164.871C173.1 164.871 173.1 165.071 173.1 165.571C173.1 166.071 172.9 167.271 172.4 168.671C171.9 169.371 173.8 169.671 177.4 169.671C177.9 169.671 178.1 169.671 178.1 169.471C178.1 169.471 177.9 168.471 177.4 166.871C177.2 166.371 177.4 165.671 178.1 164.671L178.18 164.535C179.122 162.934 179.508 162.277 179.8 162.471C180.8 163.171 181.2 164.671 181.2 166.271C181.2 167.971 180.7 169.671 180 171.571C179.3 173.771 178.6 174.971 178.1 175.371C176.4 176.371 173.8 176.071 170.2 174.371C167.3 177.271 164.4 178.971 161.6 178.971C160.9 178.971 159.7 178.771 158.5 178.271C157.3 177.771 156.3 177.571 155.6 177.571C150.8 177.571 145.8 179.771 140.7 184.571L129.9 195.371C127.7 196.971 125.5 198.171 123.1 198.871Z" id="Group" fill="#595959" fill-rule="evenodd" stroke="none" clip-path="url(#clip_1)" />
  </g>
</svg>