<?xml version="1.0" encoding="utf-8"?>
<svg width="558.0001px" height="202.40001px" viewBox="0 0 558.0001 202.40001" version="1.1" xmlns:xlink="http://www.w3.org/1999/xlink" xmlns="http://www.w3.org/2000/svg">
  <defs>
    <path d="M558 0L558 0L558 202.4L0 202.4L0 0L558 0Z" id="path_1" />
    <clipPath id="clip_1">
      <use xlink:href="#path_1" clip-rule="evenodd" fill-rule="evenodd" />
    </clipPath>
  </defs>
  <g id="Surah_64_of_114_(modified)">
    <path d="M558 0L558 0L558 202.4L0 202.4L0 0L558 0Z" id="Surah_64_of_114_(modified)" fill="none" stroke="none" />
    <path d="M313.9 26.9C313.9 22.1 313.2 18.3 311.7 15.1C311.7 13.4 312.9 9.29999 315.8 3.09999C316 2.39999 316.3 1.89999 316.5 1.89999C317 1.89999 317.2 2.39999 317.7 3.09999C318.4 4.79999 320.1 9.29999 323 16.8C326.1 24.7 327.8 29.5 328.3 31.4C328.8 32.6 328.8 33.8 328.8 34.3C328.8 36.5 326.9 35.3 322.6 30.5C322.1 29.8 321.9 30.3 321.9 31.5C321.9 32 323.1 46.9 325.3 76.6C327.5 106.1 328.4 122.7 328.4 126.5C328.4 137.8 326.7 147.9 323.4 156.5C322.4 158.2 322 159.4 321.5 160.3L321.5 160.3C320.8 161.5 320.5 161.5 320.3 160.8C320.1 159.8 320.3 157.9 320.5 155.3C321 151.2 321.2 146.7 321.2 141.6C321.2 136.8 320 117.6 317.6 83.8C315.1 50 313.9 31 313.9 26.9L313.9 26.9L313.9 26.9L313.9 26.9L313.9 26.9ZM304 116.2C304 130.4 301.4 141.4 296.3 149.6C292 156.3 286.9 159.9 281.2 159.9L281.2 145.2C285.8 145.2 290.3 143.3 294.6 139.7C295.8 138.7 296.5 134.7 296.5 127.9C296.5 123.8 295.3 107.3 293.1 78.5C290.9 49.7 290 32.7 290 27.4C290 22.8 289.3 19 287.8 15.9C287.8 14.2 289.2 10.1 291.9 3.70001C292.1 3.00002 292.4 2.70001 292.9 2.70001C293.1 2.70001 293.4 2.90001 293.9 3.90001C294.6 5.60001 296.5 10.1 299.4 17.6C302.3 25.5 304 30.3 304.7 32C304.9 33.4 305.2 34.6 305.2 35.1C305.2 37.3 303 36.1 299 31.3C298.5 30.8 298.3 31.1 298.3 32.3C298.3 32.5 299.3 45.5 301.2 70.9C303.1 96 304 111.2 304 116.2L304 116.2L304 116.2L304 116.2L304 116.2ZM280.8 159.6C277 159.6 273.4 158.6 270.5 156.7C266.7 154.1 264.5 149.7 263.8 144.2C262.1 147.3 259.5 150.7 255.4 154.3C249.4 159.3 243.2 162 236.7 162L236.7 147.4C244.9 147.4 251.8 145 257.3 140.7C257.8 140.2 259.9 138.1 263.8 133.7C267.4 129.6 269.3 127.7 269.8 127.7C270.3 127.7 270.8 128.2 270.8 129.1C270.8 129.6 270.6 130.3 270.3 130.8C269.8 132.7 269.6 134.4 269.6 136.1C269.6 142.1 273.4 145 280.9 145L280.9 159.6L280.8 159.6L280.8 159.6L280.8 159.6ZM220 127C217.4 125.1 212.1 124.1 204.6 123.9C202 124.1 199.3 124.1 197.2 124.6C202 127.7 205.4 130.6 207.5 133C211.4 130.8 215.7 128.7 220 127L220 127L220 127L220 127L220 127ZM204 147.4C194.6 153.6 189.1 157.2 187 158.2C182.4 160.8 177.6 162 172.8 162L172.8 147.4C179.5 147.4 187.2 144.8 195.6 139.5C193 136.6 189.6 134.2 185.8 132.1C182.4 130.2 179.8 129.2 178.1 129.2C174.5 129.2 171.9 129.7 170.2 130.9C169.5 131.1 169 131.4 168.5 131.4C168 131.4 167.8 131.2 167.8 130.4C167.8 129.9 167.8 129.4 168.3 128.7L172.6 118.6C173.3 116.7 177.6 115 185.6 113.1C193 111.4 200.2 110.7 207 110.7C220.2 110.7 230.8 113.6 238.4 119.3C240.3 120.7 241.3 121.7 241.3 122.4C241.3 122.6 241.1 123.6 240.6 124.6L236 133C231.4 134.7 225.2 137.3 217 140.7C221.6 145.3 228.3 147.4 236.7 147.4L236.7 162C230.2 162 225.2 161.3 221.6 159.6C217.2 158 211.4 153.9 204 147.4L204 147.4L204 147.4L204 147.4L204 147.4ZM157.9 132.3C159.1 139 161.5 143.6 164.6 145.7C166.5 146.7 169.2 147.4 172.8 147.4L172.8 162C167.5 162 163.4 160.8 160.6 158.6C156.3 155.5 153.6 150 152.2 141.6C151.2 136.3 150.3 121.2 149.6 95.8C148.6 68.4 147.9 51.6 147.4 45.4C146.2 35.3 144.3 26 141.6 16.8C141.6 14.4 142.6 11 144.5 6.20003C145 5.00003 145.2 4.30003 145.7 4.30003C145.9 4.30003 146.4 5.00003 146.9 6.00003C150 12 152.2 22.3 153.9 36.7C154.9 45.8 155.8 63.8 156.5 90.7C156.9 116 157.6 129.9 157.9 132.3L157.9 132.3L157.9 132.3L157.9 132.3L157.9 132.3ZM138.2 76.1C138.2 84.5 136.3 91 132.7 95.8C129.6 99.9 126 102 121.9 102L121.9 87.4C127.4 87.4 131.3 86 132.9 83.1C132.9 81.7 131.9 79.3 130 76.1C129 74.7 128.8 73.2 128.8 71.8C128.8 71.1 129.8 67.7 131.4 61.5C131.9 60.5 132.4 59.8 132.6 59.8C133.1 59.8 133.8 60.8 134.5 62.2C137 67.2 138.2 71.8 138.2 76.1L138.2 76.1L138.2 76.1L138.2 76.1L138.2 76.1ZM39.8 170C21.6 170 8.79999 160.9 1.89999 142.9C0.499985 139.5 -1.52588e-05 135 -1.52588e-05 129.5C-1.52588e-05 125.9 0.199982 122.3 0.699982 118.5C1.69998 113.2 2.89998 108.4 4.29998 104.3C4.99998 102.9 5.49998 102.4 5.99998 102.4C6.49998 102.4 6.49998 103.1 6.19997 104.8C5.49998 107.4 4.99998 109.8 4.49998 112.5C3.49998 116.8 3.09998 120.2 3.09998 122.3C3.09998 129.7 5.49998 136.7 10.5 142.9C17.2 151.1 27.1 155.4 39.8 155.4C50.8 155.4 62.6 152.8 74.8 147.5C84.4 143.2 93.5 137.9 101.9 131.4C108.6 126.1 112.7 122 113.9 119.4C113.9 111.2 111.7 102.6 106.9 93.5C105.9 91.6 105.7 90.4 105.7 89.4C105.7 88.7 106.4 85.1 108.3 78.8C108.8 77.8 109 77.4 109.5 77.4C110 77.4 110.7 78.1 111.4 79.6C112.6 82.5 113.6 84.2 114.3 84.9C116 86.6 118.4 87.5 122 87.5L122 101.9C120.3 101.9 118.9 101.9 118.2 101.7C118.2 111.8 117.7 119.2 116.5 124.5C115.3 130.3 113.1 134.6 110.3 137.7C102.1 145.6 92.5 152.6 81 158.6C66.4 166.1 52.8 170 39.8 170L39.8 170L39.8 170L39.8 170L39.8 170ZM264.7 100.1L268.5 92.2C268.7 91.7 269 91.5 269.5 91.5C270 91.5 271.9 92.7 275.7 95.3C279.3 97.7 281.2 99.1 281.2 99.6C281.2 101.3 279.5 104.9 276.4 110.2C275.9 110.9 275.4 110.9 275 110.7C271.9 108.3 268.3 105.9 264.2 103.3C262.8 106.2 261.6 108.8 260.1 111C259.9 111.7 259.4 112 258.9 111.7C255.3 108.8 251.5 106.2 247.6 103.8C247.4 103.6 247.4 103.3 247.6 102.8L252.2 93.2C252.4 92.7 252.9 92.2 253.2 92.2C253.7 92.2 255.4 93.4 258.5 95.6C261.6 97.5 263.7 99.2 264.7 100.1L264.7 100.1L264.7 100.1L264.7 100.1L264.7 100.1ZM199.6 89.3C199.4 89.1 199.4 88.8 199.6 88.3L204.2 78.7C204.4 78.2 204.9 78 205.2 78C205.7 78 207.8 79.2 211.4 81.6C215.2 84.2 217.2 85.7 217.2 86.2C217.2 87.9 215.5 91.2 212.2 96.5C211.7 97.2 211.5 97.5 211 97.2C207.3 94.4 203.5 91.7 199.6 89.3L199.6 89.3L199.6 89.3L199.6 89.3L199.6 89.3ZM123.6 151C123.4 150.8 123.4 150.5 123.6 150L128.2 140.4C128.4 139.9 128.9 139.7 129.2 139.7C129.7 139.7 131.8 140.9 135.4 143.3C139.2 145.9 141.2 147.4 141.2 147.9C141.2 149.6 139.5 152.9 136.2 158.2C135.7 158.9 135.5 159.2 135 158.9C131.2 156 127.4 153.4 123.6 151L123.6 151L123.6 151L123.6 151L123.6 151ZM60.4 81.9C60.2 81.7 60.2 81.4 60.4 80.9L65 71.3C65.2 70.8 65.7 70.6 66 70.6C66.5 70.6 68.6 71.8 72.2 74.2C76 76.8 78 78.3 78 78.8C78 80.5 76.3 83.8 73 89.1C72.5 89.8 72.3 90.1 71.8 89.8C68.1 86.9 64.3 84.3 60.4 81.9L60.4 81.9L60.4 81.9L60.4 81.9L60.4 81.9ZM274.3 57.9C274.3 59.8 273.8 62 272.9 63.9C271.7 66.5 270.3 68 268.6 68C265.7 68 263.8 66.1 262.6 62.2C261.2 67 258.8 69.6 255.2 69.6C254 69.6 252.8 68.9 251.8 67.4C250.6 66 250.1 63.8 250.1 61.4L250.1 55.2C250.1 54.7 249.6 54.5 249.1 54.2C248.4 54 248.1 53.5 248.1 52.8C248.1 51.4 248.6 50.2 249.5 49C250.5 47.8 251.2 47.3 251.7 47.3C252.4 47.3 252.9 48.5 252.9 51.1C252.9 52.5 252.7 53.7 252.7 54.7C252.5 55.7 252.5 56.4 252.5 57.1C252.5 58.5 252.7 60 253.2 61.2C253.9 62.6 254.9 63.6 255.8 63.6C257.2 63.6 258.4 62.9 259.6 61.7C260.8 60.5 261.5 59.1 261.5 57.4C261.5 56.4 261 55 260.5 52.6C259.8 50.4 259.5 49 259.5 48.5C259.5 48 259.7 47.3 260.2 46.1C260.7 45.1 261.2 44.7 261.4 44.7C261.9 44.7 262.4 46.1 263.1 49C263.8 52.1 264.3 54.3 264.3 55.7C264.3 59.8 265.7 61.9 268.9 61.9C270.3 61.9 271.3 61.2 271.5 59.7C268.9 54.9 267.4 51.3 267.4 48.7C267.4 47.3 267.6 46.1 268.6 44.9C269.1 44.2 269.3 43.7 269.6 43.7C269.8 43.7 270.1 44.2 270.1 45.1C270.3 46.3 270.6 47.5 270.8 48.5C270.8 48.5 271.5 50.2 272.7 53.5C273.8 55.5 274.3 56.9 274.3 57.9L274.3 57.9L274.3 57.9L274.3 57.9L274.3 57.9ZM63.3 187C77 182.2 91.4 176.9 106.5 171.4C107.5 171.2 107.7 170.9 107.9 171.2C108.1 171.2 108.1 171.7 107.7 172.4C107 174.6 106.3 175.8 105.8 176.2C92.8 180.8 78 186.5 60.9 193.7C61.4 191.6 62.1 189.4 63.3 187L63.3 187L63.3 187L63.3 187L63.3 187ZM173.2 74.7C191.7 68 210.9 60.8 231 53.3C231.7 53.1 232.2 52.8 232.4 53.1C232.4 53.1 232.4 53.6 232.2 54.3C231.2 56.5 230.5 57.7 230 58.1C213.2 64.3 193.3 72 170.7 81.4C171.3 79.2 172 77.1 173.2 74.7L173.2 74.7L173.2 74.7L173.2 74.7L173.2 74.7ZM199.9 44.7C224.1 35.6 249.3 26.5 275.3 16.9C276 16.7 276.5 16.4 276.5 16.7C276.7 16.7 276.7 17.2 276.5 17.9C275.5 20.1 274.8 21.3 274.3 21.7C274.1 21.9 261.8 26.5 238.1 35.4C213.9 44.3 200.2 49.8 197.5 51.5C198 49.2 198.7 47.1 199.9 44.7L199.9 44.7L199.9 44.7L199.9 44.7L199.9 44.7ZM252.4 174.5C255.3 174.5 257.7 175.9 259.8 179.3C262 182.4 263.6 186.7 264.4 192C264.6 192.5 264.6 192.7 264.6 193L264.8 193C264.8 192.8 265 192.5 265 192C265.5 188.9 266.7 184.1 268.4 177.8C270.3 173.5 272.2 171.3 274.4 171.3C275.6 171.3 276.8 172 277.8 173.5C278.8 174.9 279.2 175.9 279.2 176.9C279.2 177.4 279.2 178.3 278.7 179.3C278.2 180.7 277.7 181.5 277.3 181.5C277.1 181.5 276.6 180.8 275.6 179.8C274.9 178.8 273.9 178.4 273 178.4C271.1 178.4 269.4 183 267.7 192.1C267 196.2 266 199.1 265.3 200.7C264.6 201.7 264.1 202.4 263.6 202.4C263.1 202.4 263.1 201.7 262.9 200.7C263.1 199 262.2 195.9 260.3 191.3C258.4 186.5 257.2 184.3 256.2 184.3C255.7 184.3 255.5 184.3 255.2 184.8C255 185 254.7 185.3 254 185.3C253 185.3 252.1 184.6 250.6 183.4C249.2 182.2 248.7 181.2 248.7 180.5C248.7 180.3 249.2 179.1 250.4 177.1C251.5 175.2 252.2 174.5 252.4 174.5L252.4 174.5L252.4 174.5L252.4 174.5L252.4 174.5ZM208.5 191.3C208.5 191.1 208.7 190.8 208.7 190.8C208.9 190.6 208.9 190.6 208.9 190.8C209.1 191 209.1 191.3 208.9 191.5C207.7 198.7 205.5 202.3 202.4 202.3C199.3 202.3 197.8 199.7 197.8 194.4C197.8 187.9 199.5 181 203.3 174C204.3 172.3 204.7 171.4 205 171.4L205 171.4C205 171.6 204.8 172.6 204.3 174.3C201.9 181.7 200.7 186.8 200.7 189.9C200.7 193.7 201.7 195.9 203.8 195.9C205.4 195.9 206.8 194.2 208.5 191.3L208.5 191.3L208.5 191.3L208.5 191.3L208.5 191.3ZM135.1 174C138 174 140.4 175.4 142.5 178.8C144.7 181.9 146.3 186.2 147.1 191.5C147.3 192 147.3 192.2 147.3 192.5L147.5 192.5C147.5 192.3 147.7 192 147.7 191.5C148.2 188.4 149.4 183.6 151.1 177.3C153 173 154.9 170.8 157.1 170.8C158.3 170.8 159.5 171.5 160.5 173C161.5 174.4 161.9 175.4 161.9 176.4C161.9 176.9 161.9 177.8 161.4 178.8C160.9 180.2 160.4 181 160 181C159.8 181 159.3 180.3 158.3 179.3C157.6 178.3 156.6 177.9 155.7 177.9C153.8 177.9 152.1 182.5 150.4 191.6C149.7 195.7 148.7 198.6 148 200.2C147.3 201.2 146.8 201.9 146.3 201.9C145.8 201.9 145.8 201.2 145.6 200.2C145.8 198.5 144.9 195.4 143 190.8C141.1 186 139.9 183.8 138.9 183.8C138.4 183.8 138.2 183.8 137.9 184.3C137.7 184.5 137.4 184.8 136.7 184.8C135.7 184.8 134.8 184.1 133.3 182.9C131.9 181.7 131.4 180.7 131.4 180C131.4 179.8 131.9 178.6 133.1 176.6C134.1 174.8 134.8 174 135.1 174L135.1 174L135.1 174L135.1 174L135.1 174ZM11 96.3C11 96.1 11.2 95.8 11.2 95.8C11.4 95.6 11.4 95.6 11.4 95.8C11.6 96 11.6 96.3 11.4 96.5C10.2 103.7 7.99998 107.3 4.89998 107.3C1.79998 107.3 0.29998 104.7 0.29998 99.4C0.29998 92.9 1.99998 86 5.79998 79C6.79998 77.3 7.19998 76.4 7.49998 76.4L7.49998 76.4C7.49998 76.6 7.29998 77.6 6.79998 79.3C4.39998 86.7 3.19998 91.8 3.19998 94.9C3.19998 98.7 4.19998 100.9 6.29998 100.9C7.89999 100.8 9.29999 99.2 11 96.3L11 96.3L11 96.3L11 96.3L11 96.3ZM44.4 125.3C44.4 125.1 44.6 124.8 44.6 124.8C44.8 124.6 44.8 124.6 44.8 124.8C45 125 45 125.3 44.8 125.5C43.6 132.7 41.4 136.3 38.3 136.3C35.2 136.3 33.7 133.7 33.7 128.4C33.7 121.9 35.4 115 39.2 108C40.2 106.3 40.6 105.4 40.9 105.4L40.9 105.4C40.9 105.6 40.7 106.6 40.2 108.3C37.8 115.7 36.6 120.8 36.6 123.9C36.6 127.7 37.6 129.9 39.7 129.9C41.2 129.9 42.7 128.2 44.4 125.3L44.4 125.3L44.4 125.3L44.4 125.3L44.4 125.3ZM74.6 29.1C74.6 29.6 74.4 30.5 73.9 31.5C73.7 32.9 73.2 33.7 72.5 33.7C72.3 33.7 71.8 33 70.8 32C70.1 31 69.1 30.6 68.4 30.6C66.5 30.6 64.6 35.2 62.9 44.3C62.2 48.4 61.5 51.3 60.5 52.9C59.8 53.9 59.3 54.6 58.8 54.6C58.6 54.6 58.3 53.9 58.3 52.9C58.3 51.2 57.3 48.1 55.4 43.5C53.5 38.7 52.3 36.5 51.6 36.5C50.9 36.5 50.6 36.5 50.4 37C50.4 37.2 49.9 37.5 49.2 37.5C48.2 37.5 47.3 36.8 45.8 35.6C44.6 34.4 43.9 33.4 43.9 32.7C43.9 32.5 44.4 31.3 45.6 29.3C46.8 27.4 47.5 26.7 47.8 26.7C50.4 26.7 52.8 28.1 55 31.5C57.4 34.9 58.8 38.9 59.8 44.2C59.8 44.7 59.8 44.9 59.8 45.2C60 45.4 60 45.4 60 45.2C60 45 60.2 44.7 60.5 44.2C60.7 41.1 61.9 36.3 63.6 30C65.5 25.7 67.4 23.5 69.6 23.5C70.8 23.5 72 24.2 73.2 25.7C74.1 27.2 74.6 28.1 74.6 29.1L74.6 29.1L74.6 29.1L74.6 29.1L74.6 29.1ZM58.8 56.7C57.1 60.5 53.8 64.4 48.7 68C44.1 71.4 40.1 73.8 36.5 75.4C35.8 75.9 31.5 77.6 23.5 80.4C22.3 80.9 21.6 81.1 21.1 81.1C20.9 81.1 20.9 80.9 20.9 80.9C20.9 80.7 21.6 79.9 22.8 79.2C29.3 75.4 38.4 69.8 50.4 61.9C53.3 59.7 55.4 57.6 57.1 55.7C59 53.5 60 52.3 60.2 52.3C60.2 52.3 60.2 52.3 60.2 52.5C60.2 52.8 59.7 54.3 58.8 56.7L58.8 56.7L58.8 56.7L58.8 56.7L58.8 56.7ZM250.3 4.8C250.3 7.40001 249.1 10.3 247.2 13.4C245 16.5 242.4 19.4 239 21.8C237.6 22.8 236.8 23.2 236.6 23.2L236.6 23C236.6 22.8 237.1 22.3 238 21.1C243.5 15.1 246.4 11.3 246.4 9.10001C246.4 7.40001 245.4 6.5 243.8 6.5C242.8 6.5 241.9 6.7 241.2 7.2C240.5 7.39999 240.2 7.7 240 7.7C240 7.7 239.8 7.7 239.8 7.5C239.8 7.5 239.8 7 240 6.10001C241 2 242.9 0.100006 246.2 0.100006C248.8 0 250.3 1.7 250.3 4.8L250.3 4.8L250.3 4.8L250.3 4.8L250.3 4.8ZM186 3.2C188.9 3.2 191.3 4.59999 193.4 8C195.6 11.1 197.2 15.4 198 20.7C198.2 21.2 198.2 21.4 198.2 21.7L198.4 21.7C198.4 21.5 198.6 21.2 198.6 20.7C199.1 17.6 200.3 12.8 202 6.5C203.9 2.2 205.8 0 208 0C209.2 0 210.4 0.699997 211.4 2.2C212.4 3.59999 212.8 4.59999 212.8 5.59999C212.8 6.09999 212.8 6.99998 212.3 7.99999C211.8 9.39998 211.3 10.2 210.9 10.2C210.7 10.2 210.2 9.49998 209.2 8.49998C208.5 7.49999 207.5 7.09999 206.6 7.09999C204.7 7.09999 203 11.7 201.3 20.8C200.6 24.9 199.6 27.8 198.9 29.4C198.2 30.4 197.7 31.1 197.2 31.1C196.7 31.1 196.7 30.4 196.5 29.4C196.7 27.7 195.8 24.6 193.9 20C192 15.2 190.8 13 189.8 13C189.3 13 189.1 13 188.8 13.5C188.6 13.7 188.3 14 187.6 14C186.6 14 185.7 13.3 184.2 12.1C182.8 10.9 182.3 9.90001 182.3 9.20001C182.3 9.00002 182.8 7.80002 184 5.80002C185 3.89999 185.7 3.2 186 3.2L186 3.2L186 3.2L186 3.2L186 3.2ZM181.9 38.7C181.9 41.3 180.7 44.2 178.8 47.3C176.6 50.4 174 53.3 170.6 55.7C169.2 56.7 168.4 57.1 168.2 57.1L168.2 56.9C168.2 56.7 168.7 56.2 169.6 55C175.1 49 178 45.2 178 43C178 41.3 177 40.4 175.4 40.4C174.4 40.4 173.5 40.6 172.8 41.1C172.1 41.3 171.8 41.6 171.6 41.6C171.6 41.6 171.4 41.6 171.4 41.4C171.4 41.4 171.4 40.9 171.6 40C172.6 35.9 174.5 34 177.8 34C180.4 33.9 181.9 35.6 181.9 38.7L181.9 38.7L181.9 38.7L181.9 38.7L181.9 38.7ZM89.7 110C89.7 112.6 88.5 115.5 86.6 118.6C84.4 121.7 81.8 124.6 78.4 127C77 128 76.2 128.4 76 128.4L76 128.2C76 128 76.5 127.5 77.4 126.3C82.9 120.3 85.8 116.5 85.8 114.3C85.8 112.6 84.8 111.7 83.2 111.7C82.2 111.7 81.3 111.9 80.6 112.4C79.9 112.6 79.6 112.9 79.4 112.9C79.4 112.9 79.2 112.9 79.2 112.7C79.2 112.7 79.2 112.2 79.4 111.3C80.4 107.2 82.3 105.3 85.6 105.3C88.3 105.2 89.7 106.8 89.7 110L89.7 110L89.7 110L89.7 110L89.7 110ZM122.6 19.2C123.1 17.8 123.1 16.3 122.8 14.9C122.6 13.5 121.8 12.7 120.6 12.7C120.1 12.7 119.4 12.9 118.4 13.4C117.4 13.9 117 14.4 117 14.8C117.1 16.1 119 17.6 122.6 19.2L122.6 19.2L122.6 19.2L122.6 19.2L122.6 19.2ZM119.7 25.5C115.1 23.1 113 20.7 113 18.1C113 15 114.4 12.1 117.3 9.70001C120.2 7.10001 122.6 6.10001 124.5 6.80002C126.2 7.30002 126.9 9.00002 126.9 11.8C126.9 14.4 126.4 17.3 125.2 20.7C127.6 21.9 129 23.1 129.5 24.1C129.5 25.3 128.5 27.5 126.4 30.3C125.9 29.3 124.5 28.1 122.3 26.9C119.7 30.5 116.5 33.6 112.7 36.5C108.1 39.6 104.1 42.3 100.5 43.7C99.5 44.2 95.2 45.9 87.5 48.7C86.3 49.2 85.3 49.4 85.1 49.4C84.9 49.4 84.9 49.2 84.9 49.2C84.9 49 85.4 48.2 86.8 47.5C92.6 43.9 98.3 40.5 104.3 37.2C111.3 32.9 116.4 29.1 119.7 25.5L119.7 25.5L119.7 25.5L119.7 25.5L119.7 25.5ZM499.2 112.4C500.4 111.4 501.4 111 502.1 111C502.6 111 502.8 111.5 502.8 112.4C502.8 113.1 502.6 114.6 502.1 116.5C501.6 118.4 501.4 119.9 501.4 121.1C501.4 126.4 505.2 129.3 512.7 129.3C518.7 129.3 523.7 126.7 527.6 121.6C530 117.5 532.6 113.7 535 109.8C536 108.8 536.7 108.4 537.4 108.4C538.4 108.4 538.6 109.4 538.1 111.5C537.1 115.6 536.4 117.5 536.4 117C536.4 118.7 537.4 120.4 539.3 121.8C541 123.2 543.4 124.2 546 124.2C549.4 124.2 551.5 123.2 552.5 121.6C552.5 121.4 551.5 119.4 549.4 115.8C549.6 113.9 550.6 110.5 552 106C552.2 104.6 552.7 103.8 553.2 103.8C553.7 103.8 554.2 104 554.9 105C556.8 107.9 558 111.2 558 115.1C558 121.1 556.6 126.1 553.9 130.5C551 135.8 546.7 138.4 540.9 138.4C537.1 138.4 533.5 135.3 530.3 129.5C525 139.1 518.1 143.9 509.7 143.9C499.6 143.9 494.8 138.1 494.8 127.1C491 131.7 484.5 135.7 476.1 139.6L476.1 126.4C482.3 123.3 486.4 121.4 487.6 120.6C491.5 118.6 495.3 115.7 499.2 112.4L499.2 112.4L499.2 112.4L499.2 112.4L499.2 112.4ZM462.4 128.2C458.8 123.6 455.7 121.5 452.8 121.5C448.5 121.5 446.6 122.5 446.6 124.9C446.6 127.8 449.5 129.2 455.2 129.2C457.4 129.2 459.8 128.7 462.4 128.2L462.4 128.2L462.4 128.2L462.4 128.2L462.4 128.2ZM469.9 145.7C469.9 144.3 469.4 142.6 468.9 140.9C466 141.9 461.7 142.6 456.4 142.6C444.9 142.6 439.1 138.5 439.1 130.6C439.1 124.6 440.8 119.3 444.6 114.5C448.2 110.4 452 108.3 456.1 108.3C459.2 108.3 462.3 110.2 465.9 113.8C469 117.4 471.9 121.5 474.3 126.5C474.5 126.5 475 126.5 476 126L476 139.2L475.5 139.7C475.5 142.6 474.8 145.9 473.3 150.3C471.6 155.8 469 160.4 465.9 164C458.7 172.6 450.8 180.1 442.1 186.6C429.1 196.2 418.1 201.2 408.5 201.2C400.3 201.2 394.1 198.1 389.8 192.1C386 187.1 384 180.3 384 172.4C384 162.3 386.2 152 390.2 141.2C391.4 138.8 391.9 137.8 392.4 137.8C392.6 137.8 392.6 138 392.6 138.5C392.6 139.2 392.4 140.4 392.1 141.9C389 152.5 387.5 160.4 387.5 165.9C387.5 170.9 388.7 175.3 391.1 178.9C394.9 183.9 400.9 186.6 409.3 186.6C416.5 186.6 425.1 183.5 435.5 177.2C443.7 172.2 451.6 166.2 459.3 159C466.3 152.2 469.9 147.9 469.9 145.7L469.9 145.7L469.9 145.7L469.9 145.7L469.9 145.7ZM404.6 109.5C404.1 107.3 403.4 105.7 402.4 104.5C401.7 103.1 401.2 102.3 401 101.9C401 101.4 401 99.7 401.5 96.4C402 93.3 402.2 91.1 402.7 89.9C402.9 88.7 403.2 88.2 403.7 88.2C403.9 88.2 404.2 88.4 404.7 88.9C408.1 92.7 411.7 96.6 415.7 100.7C417.4 102.4 418.1 103.3 418.1 103.8C418.1 104 417.9 104.3 417.4 104.3C416.7 104.3 414.8 103.8 411.9 103.1C413.6 107.2 415.5 111.3 417.2 115.1C419.8 121.8 421.3 127.3 421.3 132.4C421.3 134.8 420.8 137.7 419.9 141.3C418.7 145.4 417.3 148.5 415.3 150.7C408.3 158.6 396.6 167.3 380 176.6C365.6 185 357.2 189.1 354.6 189.1C354.1 189.1 346.9 190.8 333.2 194.1C318.8 197.5 309.7 199.6 306.1 200.1C302.3 200.8 299.9 201.1 298.9 201.1C298.4 201.1 298.4 201.1 298.4 200.9C298.4 200.7 301 199.2 306.3 196.8C308.2 195.8 319.3 191 339.7 182.4C353.9 176.4 365.6 170.9 375 165.8C389.2 158.1 400 151.4 407.4 145.9C412.9 141.6 415.8 138.5 415.8 136.5C415.8 136 414.4 132.7 411.5 126.4C408.2 119.3 405.8 113.6 404.6 109.5L404.6 109.5L404.6 109.5L404.6 109.5L404.6 109.5ZM384.9 76.1C384.9 79.9 383 85.2 379.1 91.7C376.7 95.8 373.1 101.3 368.3 108.5C373.1 114 376.5 119.1 378.1 123.4C379.1 126.5 379.8 130.6 379.8 135.2C379.8 137.1 379.3 139.5 378.4 142.6C377.7 145.5 376.7 147.6 375.8 149.1C373.9 152 370.8 154.9 366 157.7C361 161.1 356.6 162.7 353 162.7C347.2 162.7 344.4 158.4 344.4 149.7C344.4 143.9 345.4 138.2 347.3 132.9C349.2 128.3 352.3 122.3 357.4 114.4C353.1 110.3 348.5 104.6 343.5 97.4C343 96.7 341.8 95.5 339.9 93.6C338.9 92.6 338.5 91.4 338.5 90C338.5 87.8 338.7 85.4 339.2 82.6C339.9 79.7 340.4 78.5 340.6 78.5C341.3 78.5 343.5 79.7 347.6 82.3C351.4 84.9 354.6 86.9 356.5 88.5C357.7 89.2 358.2 89.9 358.2 89.9L358.2 90.1C358.2 90.3 357.5 90.6 355.8 90.6C352.7 90.6 351 90.8 351 91.1C351 91.3 351.5 91.8 352.4 93C356.2 97.8 360.1 101.4 364.2 104.3C365.2 102.9 368.5 98.1 373.8 89.9C378.4 82.9 381 78.1 382.2 75.3C383.4 72.4 384.1 71.2 384.6 71.2C384.7 71.3 384.9 72.8 384.9 76.1L384.9 76.1L384.9 76.1L384.9 76.1L384.9 76.1ZM375.6 135.2C373 129.9 368.4 124.4 362.2 119.1C360 121.3 357.4 125.3 354 131.1C350.2 137.6 348.5 141.7 348.5 143.8C348.5 146.7 350.4 148.1 354.7 148.1C356.6 148.1 359 147.4 362.1 146.2C366.4 144.3 370.5 141.6 373.9 138.3C375.3 136.8 375.8 135.9 375.6 135.2L375.6 135.2L375.6 135.2L375.6 135.2L375.6 135.2ZM362.1 58.1L365.9 50.2C366.1 49.7 366.4 49.5 366.9 49.5C367.4 49.5 369.3 50.7 373.1 53.3C376.7 55.7 378.6 57.1 378.6 57.6C378.6 59.3 376.9 62.9 373.8 68.2C373.3 68.9 372.8 68.9 372.4 68.7C369.3 66.3 365.7 63.9 361.6 61.3C360.2 64.2 359 66.8 357.5 69C357.3 69.7 356.8 70 356.3 69.7C352.7 66.8 348.9 64.2 345 61.8C344.8 61.6 344.8 61.3 345 60.8L349.6 51.2C349.8 50.7 350.3 50.2 350.6 50.2C351.1 50.2 352.8 51.4 355.9 53.6C359 55.5 361.2 57.2 362.1 58.1L362.1 58.1L362.1 58.1L362.1 58.1L362.1 58.1ZM488.6 191.8C486 192.5 484.5 193 484 193L484 192.8C484 192.8 485 192.1 486.9 190.9C488.8 189.7 491.7 187.8 495.8 184.7C497.7 182.8 500.6 179.7 504.2 175.3C506.6 172.4 509.2 169.8 512.1 167.9C515.7 165.3 519.1 164.1 522.7 164.1C523.4 164.1 524.6 164.3 526.1 164.8C527.3 165.3 528.5 165.5 529.5 165.5C531.4 165.5 532.9 164.8 534.1 163.3C534.8 161.9 535.8 160.7 536.7 159.2C537.2 158.2 537.9 157.8 538.4 157.8C538.6 157.8 538.6 158 538.6 158.5C538.6 159 538.4 160.2 537.9 161.6C537.4 162.3 539.3 162.6 542.9 162.6C543.4 162.6 543.6 162.6 543.6 162.4C543.6 162.4 543.4 161.4 542.9 159.8C542.7 159.3 542.9 158.6 543.6 157.6C544.6 155.9 545 155.2 545.3 155.4C546.3 156.1 546.7 157.6 546.7 159.2C546.7 160.9 546.2 162.6 545.5 164.5C544.8 166.7 544.1 167.9 543.6 168.3C541.9 169.3 539.3 169 535.7 167.3C532.8 170.2 529.9 171.9 527.1 171.9C526.4 171.9 525.2 171.7 524 171.2C522.8 170.7 521.8 170.5 521.1 170.5C516.3 170.5 511.3 172.7 506.2 177.5C502.6 181.1 499 184.7 495.4 188.3C493.2 189.9 491 191.1 488.6 191.8L488.6 191.8L488.6 191.8L488.6 191.8L488.6 191.8ZM437 62.2C439.9 62.2 442.3 63.6 444.4 67C446.6 70.1 448.2 74.4 449 79.7C449.2 80.2 449.2 80.4 449.2 80.7L449.4 80.7C449.4 80.5 449.6 80.2 449.6 79.7C450.1 76.6 451.3 71.8 453 65.5C454.9 61.2 456.8 59 459 59C460.2 59 461.4 59.7 462.4 61.2C463.4 62.6 463.8 63.6 463.8 64.6C463.8 65.1 463.8 66 463.3 67C462.8 68.4 462.3 69.2 461.9 69.2C461.7 69.2 461.2 68.5 460.2 67.5C459.5 66.5 458.5 66.1 457.6 66.1C455.7 66.1 454 70.7 452.3 79.8C451.6 83.9 450.6 86.8 449.9 88.4C449.2 89.4 448.7 90.1 448.2 90.1C447.7 90.1 447.7 89.4 447.5 88.4C447.7 86.7 446.8 83.6 444.9 79C443 74.2 441.8 72 440.8 72C440.3 72 440.1 72 439.8 72.5C439.6 72.7 439.3 73 438.6 73C437.6 73 436.7 72.3 435.2 71.1C433.8 69.9 433.3 68.9 433.3 68.2C433.3 68 433.8 66.8 435 64.8C436 62.9 436.8 62.2 437 62.2L437 62.2L437 62.2L437 62.2L437 62.2ZM396.2 59.3C420.4 50.2 445.6 41.1 471.6 31.5C472.3 31.3 472.8 31 472.8 31.3C473 31.3 473 31.8 472.8 32.5C471.8 34.7 471.1 35.9 470.6 36.3C470.4 36.5 458.1 41.1 434.4 50C410.2 58.9 396.5 64.4 393.8 66.1C394.3 63.9 395 61.7 396.2 59.3L396.2 59.3L396.2 59.3L396.2 59.3L396.2 59.3ZM372.9 15.4C373.4 14 373.4 12.5 373.1 11.1C372.9 9.7 372.1 8.89999 370.9 8.89999C370.4 8.89999 369.7 9.09999 368.7 9.59999C367.7 10.1 367.3 10.6 367.3 11C367.4 12.3 369.3 13.7 372.9 15.4L372.9 15.4L372.9 15.4L372.9 15.4L372.9 15.4ZM370 21.6C365.4 19.2 363.3 16.8 363.3 14.2C363.3 11.1 364.7 8.2 367.6 5.8C370.5 3.2 372.9 2.2 374.8 2.90001C376.5 3.40001 377.2 5.10001 377.2 7.90001C377.2 10.5 376.7 13.4 375.5 16.8C377.9 18 379.3 19.2 379.8 20.2C379.8 21.4 378.8 23.6 376.7 26.4C376.2 25.4 374.8 24.2 372.6 23C370 26.6 366.8 29.7 363 32.6C358.4 35.7 354.4 38.4 350.8 39.8C349.8 40.3 345.5 42 337.8 44.8C336.6 45.3 335.6 45.5 335.4 45.5C335.2 45.5 335.2 45.3 335.2 45.3C335.2 45.1 335.7 44.3 337.1 43.6C342.9 40 348.6 36.6 354.6 33.3C361.6 29.1 366.7 25.2 370 21.6L370 21.6L370 21.6L370 21.6L370 21.6ZM521.7 51.6C522.2 50.2 522.2 48.7 521.9 47.3C521.7 45.9 520.9 45.1 519.7 45.1C519.2 45.1 518.5 45.3 517.5 45.8C516.5 46.3 516.1 46.8 516.1 47.2C516.2 48.5 518.1 50 521.7 51.6L521.7 51.6L521.7 51.6L521.7 51.6L521.7 51.6ZM527 60.5C524.6 66.3 523.4 70.8 523.4 74.2C523.4 78.3 524.4 80.4 526.5 80.4C527.7 80.4 529.1 78.7 530.8 75.8C531 75.6 531 75.3 531.3 75.1C531.3 75.1 531.5 75.1 531.5 75.3C531.5 75.3 531.5 75.5 531.5 76C530.1 83.2 527.9 86.8 525 86.8C521.9 86.8 520.4 84.2 520.4 78.9C520.4 76.3 520.9 72.9 522.3 68.6C523.7 64.3 524.5 62.1 524.5 61.9C524.5 61.4 523.5 60.5 521.4 59.3C517.6 64.3 512.3 69.1 505.6 73.2C501 75.8 496.5 78.2 491.7 80.2C482.8 83.8 477.5 85.7 476.3 86.4C475.1 86.9 474.4 87.1 473.9 87.1C473.7 87.1 473.7 86.9 473.7 86.9C473.7 86.4 474.2 85.9 475.6 85C483.3 80.7 490.7 76.4 498.4 72C508.5 66.2 515.4 61.4 518.8 57.8C514.2 55.4 512.1 53 512.1 50.4C512.1 47.3 513.5 44.4 516.4 41.8C519.3 39.4 521.7 38.4 523.6 39.2C525 39.7 526 41.4 526 44.2C526 46.8 525.5 49.7 524.3 52.8C526.7 54.2 527.7 55.7 527.7 57.1C527.7 57.9 527.5 59.1 527 60.5L527 60.5L527 60.5L527 60.5L527 60.5ZM417.8 25.5C417.8 25.3 418 25 418 25C418.2 24.8 418.2 24.8 418.2 25C418.4 25.2 418.4 25.5 418.2 25.7C417 32.9 414.8 36.5 411.7 36.5C408.6 36.5 407.1 33.9 407.1 28.6C407.1 22.1 408.8 15.2 412.6 8.20001C413.6 6.50002 414 5.60001 414.3 5.60001L414.3 5.60001C414.3 5.8 414.1 6.8 413.6 8.5C411.2 15.9 410 21 410 24.1C410 27.9 411 30.1 413.1 30.1C414.7 30 416.1 28.4 417.8 25.5L417.8 25.5L417.8 25.5L417.8 25.5L417.8 25.5Z" id="Group" fill="#595959" stroke="none" clip-path="url(#clip_1)" />
  </g>
</svg>