<?xml version="1.0" encoding="utf-8"?>
<svg width="555.5001px" height="213.50005px" viewBox="0 0 555.5001 213.50005" version="1.1" xmlns:xlink="http://www.w3.org/1999/xlink" xmlns="http://www.w3.org/2000/svg">
  <defs>
    <path d="M555.5 0L555.5 0L555.5 213.5L0 213.5L0 0L555.5 0Z" id="path_1" />
    <clipPath id="clip_1">
      <use xlink:href="#path_1" clip-rule="evenodd" fill-rule="evenodd" />
    </clipPath>
  </defs>
  <g id="Surah_58_of_114_(modified)">
    <path d="M555.5 0L555.5 0L555.5 213.5L0 213.5L0 0L555.5 0Z" id="Surah_58_of_114_(modified)" fill="none" stroke="none" />
    <path d="M310.7 32.5C310.7 27.7 310 23.9 308.5 20.7C308.5 19 309.7 14.9 312.6 8.69998C312.8 7.99998 313.1 7.49998 313.3 7.49998C313.8 7.49998 314 7.99998 314.5 8.69998C315.2 10.4 316.9 14.9 319.8 22.4C322.9 30.3 324.6 35.1 325.1 37C325.6 38.2 325.6 39.4 325.6 39.9C325.6 42.1 323.7 40.9 319.4 36.1C318.9 35.4 318.7 35.9 318.7 37.1C318.7 37.6 319.9 52.5 322.1 82.2C324.3 111.7 325.2 128.3 325.2 132.1C325.2 143.4 323.5 153.5 320.2 162.1C319.2 163.8 318.8 165 318.3 165.9L318.3 165.9C317.6 167.1 317.3 167.1 317.1 166.4C316.9 165.4 317.1 163.5 317.3 160.9C317.8 156.8 318 152.3 318 147.2C318 142.4 316.8 123.2 314.4 89.3999C311.9 55.5 310.7 36.6 310.7 32.5L310.7 32.5L310.7 32.5L310.7 32.5L310.7 32.5ZM277.5 119.1C273.4 103.3 270.8 80.5 269.3 50.9C268.6 36.7 268.3 28.1 268.3 24.7C268.3 20.1 267.6 16.3 266.1 13.2C266.1 11.5 267.3 7.39999 269.9 1C270.4 0.300003 270.6 0 270.9 0C271.1 0 271.6 0.199997 271.9 1C272.9 2.89999 274.5 7.5 277.4 14.9C280.3 22.6 282 27.4 282.7 29.3C282.9 30.7 283.2 31.7 283.2 32.4C283.2 34.6 281 33.1 277 28.3C276.8 27.8 276.5 28.1 276.5 29.3C276.5 28.8 276.7 36.5 277.5 52.6C279.2 85.2 281.6 106.4 285.2 116C285.2 116.7 284.2 117.4 282.6 118.2C280.7 119.2 279.2 119.6 278.3 119.6C277.8 119.6 277.5 119.4 277.5 119.1L277.5 119.1L277.5 119.1L277.5 119.1L277.5 119.1ZM302.5 133.1C304.4 133.1 305.4 132.6 305.4 131.7C305.4 130.3 304.2 128.8 301.3 127.6C299.4 126.9 296.3 126.9 291.7 127.6C294.1 131.4 297.7 133.1 302.5 133.1L302.5 133.1L302.5 133.1L302.5 133.1L302.5 133.1ZM232.7 153.9L210.3 153.9C211 152.7 219.7 147.9 236.2 139.3C252.8 130.7 266.4 123.9 277.2 119.1L283.9 116C288.7 113.8 294 112.6 299.5 112.6C303.8 112.6 306.9 114.3 309.3 117.9C311.7 121.3 312.9 125.8 312.9 131.3C312.9 136.1 311.9 139.9 310 143.1C307.8 146.2 305.2 147.7 301.8 147.7C297 147.7 292.4 145.5 288.1 141.2C285 138.1 282.6 134.5 280.9 130.6C267 135.9 250.7 143.6 232.7 153.9L232.7 153.9L232.7 153.9L232.7 153.9L232.7 153.9ZM308.3 163.1L303.3 173.2C302.6 174.4 302.1 174.9 301.1 174.9C284.8 174.9 270.6 177.3 258.6 182.3C255.7 183.5 248.3 187.1 235.8 193.6C227.4 197.9 221.6 200.1 218.3 200.1L218.3 185.5C225.5 185.5 237.7 180.7 254.8 171.1C239.4 168.7 224.3 167 209.4 165.8C206.5 165.6 205.1 165.1 205.1 164.6C205.1 164.4 205.1 164.1 205.3 163.9C206.5 161.5 208.2 158.1 210.3 153.8L235.5 153.8C238.9 154.5 247.5 155.7 261.7 157.6C279.5 160 293.9 161 304.7 161C307.3 161 308.8 161.2 308.8 162C308.7 162.1 308.7 162.6 308.3 163.1L308.3 163.1L308.3 163.1L308.3 163.1L308.3 163.1ZM203.4 170.3C204.6 177 207 181.6 210.1 183.7C212 184.7 214.7 185.4 218.3 185.4L218.3 200C213 200 208.9 198.8 206.1 196.6C201.8 193.5 199.1 188 197.7 179.6C196.7 174.3 195.8 156.1 194.6 124.4C193.6 90.6 192.7 70.6 192.2 64.4C191 54.6 189.1 45 186.4 36.1C186.4 33.7 187.4 30.1 189.3 25.3C189.8 24.1 190 23.6 190.5 23.6C190.7 23.6 191.2 24.1 191.7 25C194.8 31 197 41.3 198.7 56C199.7 65.1 200.6 86 201.6 119.4C202.4 150.8 203.1 167.9 203.4 170.3L203.4 170.3L203.4 170.3L203.4 170.3L203.4 170.3ZM116.3 209.6C106.2 209.6 101.2 202.9 101.2 189.4C101.2 179.1 103.4 168.8 107.4 158.2C108.4 155.8 109.1 154.6 109.6 154.6C109.8 154.6 109.8 154.8 109.8 155.3C109.8 156 109.6 157.2 109.1 158.7C106.2 169.3 104.8 177.2 104.8 182.7C104.8 186.8 106 189.9 108.4 192.1C110.6 194 113 195 116.1 195C122.6 195 135.1 189 153.5 177C170.3 166.2 179.9 159.5 182.5 156.8C183.5 155.8 184.2 154.9 184.2 153.9C184.2 152.7 182.8 151 180.4 149.1C177.3 146.7 172.2 143.8 165 140.5C157.6 137.1 151.8 134 148 131.4C141.5 127.1 135.8 121.3 130.7 114.6C130 113.9 128.8 112.7 126.9 111.5C125.7 111 125 109.6 125 107.2L125 98.3C125 97.6 125.2 97.1 125.5 96.6C125.7 96.3999 126.5 96.6 127.7 97.1L142.8 104.5C143.5 104.7 144 105 144.5 105.2L144.5 105.2C146.9 106.6 147.9 107.6 147.4 108.3C146.4 109.3 143.8 109.5 138.8 109.3C144.6 114.8 151.8 119.6 160.9 123.9C171.9 129.2 178.4 132.3 180.6 134C185.4 137.4 187.8 143.1 187.8 151.3C187.8 153 187.6 154.7 187.3 156.3C186.6 160.9 185.6 164 184.7 165.9C184 167.3 182.5 169 180.1 171.2C175.5 175.3 166.2 182 151.8 191.6C133.5 203.6 121.8 209.6 116.3 209.6L116.3 209.6L116.3 209.6L116.3 209.6L116.3 209.6ZM116.3 125.1C116.3 139.3 113.7 150.3 108.6 158.5C104.3 165.2 99.2 168.8 93.5 168.8L93.5 154.2C98.1 154.2 102.6 152.3 106.9 148.7C108.1 147.7 108.8 143.7 108.8 136.9C108.8 132.6 107.8 118.9 106.2 96.1C104.5 73.1 103.8 59.4 103.8 55.3C103.8 50.7 102.8 46.9 101.4 43.8C101.4 42.1 102.8 38 105.7 31.6C105.9 30.9 106.2 30.6 106.4 30.6C106.9 30.6 107.1 30.8 107.6 31.6C108.3 33.5 110.2 38.1 112.9 45.5C116 53.2 117.7 58 118.4 59.9C118.6 61.3 118.9 62.3 118.9 63C118.9 65.2 116.7 63.7 112.7 58.9C112.2 58.4 112 58.7 112 59.9C112 60.1 112.7 70 114.2 89.2C115.5 108.1 116.3 120.1 116.3 125.1L116.3 125.1L116.3 125.1L116.3 125.1L116.3 125.1ZM93.5 168.8C88.5 168.8 84.9 168.3 82.7 167.8C77.9 166.4 74.1 163.2 70.9 158.4C69 155.3 67.1 151.9 65.1 148.6C63.2 145.7 61.5 144.5 59.8 144.5C54.3 144.5 48.5 149.1 42.3 158.4C41.3 160.1 39.4 164.4 36.5 171.4C33.9 178.4 31.5 183.4 29.3 186.8C26.2 191.6 22.6 194 19 194C13.7 194 9.19997 189.7 5.29997 181.3C1.89997 173.9 0.499969 166.2 0.499969 158.3C0.499969 148.7 1.49997 140.8 3.39997 135C3.89997 133.1 4.39997 132.1 4.79997 132.1C5.49997 132.1 5.79997 133.3 5.29997 135.7C4.59998 141.9 4.29997 147.2 4.29997 151.5C4.29997 171.9 8.89997 182.2 18.5 182.2C22.3 182.2 25.7 179.1 29.1 173.1C32.2 165.9 35.6 158.7 38.9 151.5C41.8 145.7 45.4 140.7 49.7 136.4C53.8 132.1 57.9 130.2 61.2 130.2C63.8 130.2 66.5 131.9 68.6 135C70.5 138.1 72.2 141.2 74.1 144.4C76.7 148 79.4 150.6 82.3 152.1C85.2 153.3 88.8 154 93.3 154L93.3 168.8L93.5 168.8L93.5 168.8L93.5 168.8ZM52.7 95.9L56.5 88C56.7 87.5 57 87.3 57.5 87.3C58 87.3 59.9 88.5 63.7 91.1C67.3 93.5 69.2 94.8999 69.2 95.3999C69.2 97.1 67.5 100.7 64.4 106C63.9 106.7 63.4 106.7 63 106.5C59.9 104.1 56.3 101.7 52.2 99.1C50.8 102 49.6 104.6 48.1 106.8C47.9 107.5 47.4 107.8 46.9 107.5C43.3 104.6 39.5 102 35.6 99.6C35.4 99.4 35.4 99.1 35.6 98.6L40.2 89C40.4 88.5 40.9 88 41.2 88C41.7 88 43.4 89.2 46.5 91.4C49.5 93.2 51.7 94.9 52.7 95.9L52.7 95.9L52.7 95.9L52.7 95.9L52.7 95.9ZM259.1 201.2C258.9 201 258.9 200.7 259.1 200.2L263.7 190.6C263.9 190.1 264.4 189.9 264.7 189.9C265.2 189.9 267.3 191.1 270.9 193.5C274.7 196.1 276.7 197.6 276.7 198.1C276.7 199.8 275 203.1 271.7 208.4C271.2 209.1 271 209.4 270.5 209.1C266.7 206.3 262.9 203.6 259.1 201.2L259.1 201.2L259.1 201.2L259.1 201.2L259.1 201.2ZM294.1 68.5C294.6 67.1 294.6 65.6 294.3 64.2C294.1 62.8 293.3 62 292.1 62C291.6 62 290.9 62.2 289.9 62.7C288.9 63.2 288.5 63.7 288.5 64.1C288.6 65.4 290.5 66.8 294.1 68.5L294.1 68.5L294.1 68.5L294.1 68.5L294.1 68.5ZM291.2 74.7C286.6 72.3 284.5 69.9 284.5 67.3C284.5 64.2 285.9 61.3 288.8 58.9C291.7 56.3 294.1 55.3 296 56C297.7 56.5 298.4 58.2 298.4 61C298.4 63.6 297.9 66.5 296.7 69.9C299.1 71.1 300.5 72.3 301 73.3C301 74.5 300 76.7 297.9 79.5C297.4 78.5 296 77.3 293.8 76.1C291.2 79.7 288 82.8 284.2 85.7C279.6 88.8 275.6 91.5 272 92.9C271 93.4 266.7 95.1001 259 97.9C257.8 98.4 256.8 98.6001 256.6 98.6001C256.4 98.6001 256.4 98.4 256.4 98.4C256.4 98.2 256.9 97.4 258.3 96.7C264.1 93.1 269.8 89.7 275.8 86.4C282.8 82.2 287.9 78.3 291.2 74.7L291.2 74.7L291.2 74.7L291.2 74.7L291.2 74.7ZM253.1 25.1C253.1 23.9 250.7 21.7 245.7 18.9C244 21.8 243.3 24.4 243.3 26.8C243.3 28.2 244 29.2 245.5 29.2C246.7 29.2 248.1 28.7 249.8 27.8C251.4 27 252.6 26 253.1 25.1L253.1 25.1L253.1 25.1L253.1 25.1L253.1 25.1ZM247.8 5.89999C248.5 4.7 249.5 4.2 250.2 4.2C250.7 4.2 251.2 4.39999 251.2 4.89999C251.2 4.89999 251 5.09999 251 5.39999C250 7.59999 249.1 10 248.4 12.4C253.4 16 255.8 19.8 255.6 23.4C255.1 27.5 254.6 30.1 253.9 31.1C251.5 34 248.9 35.7 245.5 35.7C242.1 35.7 240.7 33.5 240.7 29.7C240.7 29 240.7 28 240.9 27.1C242 19.3 244.4 12.3 247.8 5.89999L247.8 5.89999L247.8 5.89999L247.8 5.89999L247.8 5.89999ZM211.1 63.2C224.8 58.4 239.2 53.1 254.3 47.6C255.3 47.4 255.5 47.1 255.7 47.4C255.9 47.4 255.9 47.9 255.5 48.6C254.8 50.8 254.1 52 253.6 52.4C240.6 57 225.8 62.7 208.7 69.9C209.1 67.8 209.9 65.6 211.1 63.2L211.1 63.2L211.1 63.2L211.1 63.2L211.1 63.2ZM10.7 121.8C10.7 121.6 10.9 121.3 10.9 121.3C11.1 121.1 11.1 121.1 11.1 121.3C11.3 121.5 11.3 121.8 11.1 122C9.89999 129.2 7.69998 132.8 4.59998 132.8C1.49998 132.8 -1.52588e-05 130.2 -1.52588e-05 124.9C-1.52588e-05 118.4 1.69998 111.5 5.49998 104.5C6.49999 102.8 6.89999 101.9 7.19998 101.9L7.19998 101.9C7.19998 102.1 6.99999 103.1 6.49999 104.8C4.09998 112.2 2.89999 117.3 2.89999 120.4C2.89999 124.2 3.89999 126.4 5.99999 126.4C7.49998 126.3 8.99998 124.7 10.7 121.8L10.7 121.8L10.7 121.8L10.7 121.8L10.7 121.8ZM168.8 99C169.3 95.6 170.5 91.8 172.4 87C173.8 83.4 174.6 79.8 174.6 76.2C174.6 69.2 171.2 62.8 164.8 56.3C164.3 55.8 164.3 55.3 164.8 54.9L167 51.1C167.2 50.6 167.5 50.6 168 51.1C174.2 56.1 177.6 63.6 177.6 73.4C177.6 78 176.4 83 174.5 88C172.3 93.3 171.4 96.9 171.4 98.8C171.4 102.9 172.4 105 174.5 105C175.9 105 177.4 103.3 179.1 100.4C179.1 100.2 179.3 99.9 179.3 99.9C179.5 99.7 179.5 99.7 179.5 99.9C179.5 99.9 179.5 100.4 179.5 100.6C178.3 107.8 176.1 111.4 173 111.4C170.1 111.4 168.4 108.3 168.4 102.5C168.3 101.4 168.6 100.2 168.8 99L168.8 99L168.8 99L168.8 99L168.8 99ZM147.5 204.1C161.2 199.3 175.6 194 190.7 188.5C191.7 188.3 191.9 188 192.1 188.3C192.3 188.3 192.3 188.8 191.9 189.5C191.2 191.7 190.5 192.9 190 193.3C177 197.9 162.2 203.6 145.1 210.8C145.5 208.7 146.3 206.5 147.5 204.1L147.5 204.1L147.5 204.1L147.5 204.1L147.5 204.1ZM56.5 36.3C75 29.6 94.2 22.4 114.3 14.9C115 14.7 115.5 14.4 115.7 14.7C115.7 14.7 115.7 15.2 115.5 15.9C114.5 18.1 113.8 19.3 113.3 19.7C96.5 25.9 76.6 33.6 54 43C54.6 40.9 55.3 38.7 56.5 36.3L56.5 36.3L56.5 36.3L56.5 36.3L56.5 36.3ZM46.4 191.6C56 188.2 66.3 184.4 77.4 180.6C78.4 180.4 78.6 180.1 78.8 180.4C79 180.4 79 180.9 78.6 181.6C77.9 183.8 77.2 185 76.7 185.4C67.1 188.8 56.3 192.8 44.1 198.4C44.5 196.2 45.2 194 46.4 191.6L46.4 191.6L46.4 191.6L46.4 191.6L46.4 191.6ZM234.6 69.7C236.3 69.7 238.2 70.7 240.8 72.8C243.4 74.7 244.9 76.6 245.1 78.1C245.3 78.6 244.9 79.5 244.1 81.2C243.4 82.9 242.9 83.6 242.7 83.6C240.3 84.3 237.9 85 235.5 85.8C232.4 86.8 230.5 88 229.3 89.2C232.7 99.3 234.3 109.1 234.3 119C234.3 121.9 233.8 124.8 233.3 127.9C233.1 128.9 232.8 129.3 232.6 129.6C232.4 129.6 232.4 127.7 232.4 124.3C232.4 118.8 231.4 111.8 229.8 103.9C228.1 96 227.4 91.2 227.4 90.2C227.4 86.1 228.4 83.2 230.8 81.3C231.8 80.6 233.9 79.6 236.8 78.7C235.6 77.5 234.4 77 233.2 77C232.7 77 232 77.5 231 78.7C230 80.1 229.3 80.6 229.3 80.6C229.1 80.6 228.8 80.1 229.1 79.2C229.8 72.8 231.7 69.7 234.6 69.7L234.6 69.7L234.6 69.7L234.6 69.7L234.6 69.7ZM222.1 27C222.1 26.8 222.3 26.5 222.3 26.5C222.5 26.3 222.5 26.3 222.5 26.5C222.7 26.7 222.7 27 222.5 27.2C221.3 34.4 219.1 38 216 38C212.9 38 211.4 35.4 211.4 30.1C211.4 23.6 213.1 16.7 216.9 9.7C217.9 8 218.3 7.09999 218.6 7.09999L218.6 7.09999C218.6 7.29999 218.4 8.29999 217.9 9.99998C215.5 17.4 214.3 22.5 214.3 25.6C214.3 29.4 215.3 31.6 217.4 31.6C219 31.5 220.4 29.9 222.1 27L222.1 27L222.1 27L222.1 27L222.1 27ZM152.3 10.9C155.2 10.9 157.6 12.3 159.7 15.7C161.9 18.8 163.5 23.1 164.3 28.4C164.5 28.9 164.5 29.1 164.5 29.4L164.7 29.4C164.7 29.2 164.9 28.9 164.9 28.4C165.4 25.3 166.6 20.5 168.3 14.2C170.2 9.89999 172.1 7.7 174.3 7.7C175.5 7.7 176.7 8.39999 177.7 9.89999C178.7 11.3 179.1 12.3 179.1 13.3C179.1 13.8 179.1 14.7 178.6 15.7C178.1 17.1 177.6 17.9 177.2 17.9C177 17.9 176.5 17.2 175.5 16.2C174.8 15.2 173.8 14.8 172.9 14.8C171 14.8 169.3 19.4 167.6 28.5C166.9 32.6 165.9 35.5 165.2 37.1C164.5 38.1 164 38.8 163.5 38.8C163 38.8 163 38.1 162.8 37.1C163 35.4 162.1 32.3 160.2 27.7C158.3 22.9 157.1 20.7 156.1 20.7C155.6 20.7 155.4 20.7 155.1 21.2C154.9 21.4 154.6 21.7 153.9 21.7C152.9 21.7 152 21 150.5 19.8C149.1 18.6 148.6 17.6 148.6 16.9C148.6 16.7 149.1 15.5 150.3 13.5C151.3 11.6 152 10.9 152.3 10.9L152.3 10.9L152.3 10.9L152.3 10.9L152.3 10.9ZM149.4 62.7C149.4 65.3 148.2 68.2 146.3 71.3C144.1 74.4 141.5 77.3 138.1 79.7C136.7 80.7 135.9 81.1 135.7 81.1L135.7 80.9C135.7 80.7 136.2 80.2 137.1 79C142.6 73 145.5 69.2 145.5 67C145.5 65.3 144.5 64.4 142.9 64.4C141.9 64.4 141 64.6 140.3 65.1C139.6 65.3 139.3 65.6 139.1 65.6C139.1 65.6 138.9 65.6 138.9 65.4C138.9 65.4 138.9 64.9 139.1 64C140.1 59.9 142 58 145.3 58C147.9 57.9 149.4 59.6 149.4 62.7L149.4 62.7L149.4 62.7L149.4 62.7L149.4 62.7ZM143.4 149.9C143.4 152.5 142.2 155.4 140.3 158.5C138.1 161.6 135.5 164.5 132.1 166.9C130.7 167.9 129.9 168.3 129.7 168.3L129.7 168.1C129.7 167.9 130.2 167.4 131.1 166.2C136.6 160.2 139.5 156.4 139.5 154.2C139.5 152.5 138.5 151.6 136.9 151.6C135.9 151.6 135 151.8 134.3 152.3C133.6 152.5 133.3 152.8 133.1 152.8C133.1 152.8 132.9 152.8 132.9 152.6C132.9 152.6 132.9 152.1 133.1 151.2C134.1 147.1 136 145.2 139.3 145.2C141.9 145.1 143.4 146.7 143.4 149.9L143.4 149.9L143.4 149.9L143.4 149.9L143.4 149.9ZM86 65.4C86 65.2 86.2 64.9 86.2 64.9C86.4 64.7 86.4 64.7 86.4 64.9C86.6 65.1 86.6 65.4 86.4 65.6C85.2 72.8 83 76.4 79.9 76.4C76.8 76.4 75.3 73.8 75.3 68.5C75.3 62 77 55.1 80.8 48.1C81.8 46.4 82.2 45.5 82.5 45.5L82.5 45.5C82.5 45.7 82.3 46.7 81.8 48.4C79.4 55.8 78.2 60.9 78.2 64C78.2 67.8 79.2 70 81.3 70C82.9 69.9 84.3 68.3 86 65.4L86 65.4L86 65.4L86 65.4L86 65.4ZM10.9 56C13.8 56 16.2 57.4 18.3 60.8C20.5 63.9 22.1 68.2 22.9 73.5C23.1 74 23.1 74.2 23.1 74.5L23.3 74.5C23.3 74.3 23.5 74 23.5 73.5C24 70.4 25.2 65.6 26.9 59.3C28.8 55 30.7 52.8 32.9 52.8C34.1 52.8 35.3 53.5 36.3 55C37.3 56.4 37.7 57.4 37.7 58.4C37.7 58.9 37.7 59.8 37.2 60.8C36.7 62.2 36.2 63 35.8 63C35.6 63 35.1 62.3 34.1 61.3C33.4 60.3 32.4 59.9 31.5 59.9C29.6 59.9 27.9 64.5 26.2 73.6C25.5 77.7 24.5 80.6 23.8 82.2C23.1 83.2 22.6 83.9 22.1 83.9C21.6 83.9 21.6 83.2 21.4 82.2C21.6 80.5 20.7 77.4 18.8 72.8C16.9 68 15.7 65.8 14.7 65.8C14.2 65.8 14 65.8 13.7 66.3C13.5 66.5 13.2 66.8 12.5 66.8C11.5 66.8 10.6 66.1 9.09999 64.9C7.69999 63.7 7.19999 62.7 7.19999 62C7.19999 61.8 7.69999 60.6 8.89999 58.6C9.89999 56.7 10.7 56 10.9 56L10.9 56L10.9 56L10.9 56L10.9 56ZM97.8 107.1C97.8 109.7 96.6 112.6 94.7 115.7C92.5 118.8 89.9 121.7 86.5 124.1C85.1 125.1 84.3 125.5 84.1 125.5L84.1 125.3C84.1 125.1 84.6 124.6 85.5 123.4C91 117.4 93.9 113.6 93.9 111.4C93.9 109.7 92.9 108.8 91.3 108.8C90.3 108.8 89.4 109 88.7 109.5C88 109.7 87.7 110 87.5 110C87.5 110 87.3 110 87.3 109.8C87.3 109.8 87.3 109.3 87.5 108.4C88.5 104.3 90.4 102.4 93.7 102.4C96.3 102.3 97.8 104 97.8 107.1L97.8 107.1L97.8 107.1L97.8 107.1L97.8 107.1ZM496.7 124.7C497.9 123.7 498.9 123.3 499.6 123.3C500.1 123.3 500.3 123.8 500.3 124.7C500.3 125.4 500.1 126.9 499.6 128.8C499.1 130.7 498.9 132.2 498.9 133.4C498.9 138.7 502.7 141.6 510.2 141.6C516.2 141.6 521.2 139 525.1 133.9C527.5 129.8 530.1 126 532.5 122.1C533.5 121.1 534.2 120.7 534.9 120.7C535.9 120.7 536.1 121.7 535.6 123.8C534.6 127.9 533.9 129.8 533.9 129.3C533.9 131 534.9 132.7 536.8 134.1C538.5 135.5 540.9 136.5 543.5 136.5C546.9 136.5 549 135.5 550 133.9C550 133.7 549 131.7 546.9 128.1C547.1 126.2 548.1 122.8 549.5 118.3C549.7 116.9 550.2 116.1 550.7 116.1C551.2 116.1 551.7 116.3 552.4 117.3C554.3 120.2 555.5 123.5 555.5 127.4C555.5 133.4 554.1 138.4 551.4 142.8C548.5 148.1 544.2 150.7 538.4 150.7C534.6 150.7 531 147.6 527.8 141.8C522.5 151.4 515.6 156.2 507.2 156.2C497.1 156.2 492.3 150.4 492.3 139.4C488.5 144 482 148 473.6 151.9L473.6 138.7C479.8 135.6 483.9 133.7 485.1 132.9C489 130.9 492.8 128 496.7 124.7L496.7 124.7L496.7 124.7L496.7 124.7L496.7 124.7ZM459.9 140.5C456.3 135.9 453.2 133.8 450.3 133.8C446 133.8 444.1 134.8 444.1 137.2C444.1 140.1 447 141.5 452.7 141.5C454.9 141.5 457.3 141 459.9 140.5L459.9 140.5L459.9 140.5L459.9 140.5L459.9 140.5ZM467.4 158C467.4 156.6 466.9 154.9 466.4 153.2C463.5 154.2 459.2 154.9 453.9 154.9C442.4 154.9 436.6 150.8 436.6 142.9C436.6 136.9 438.3 131.6 442.1 126.8C445.7 122.7 449.5 120.6 453.6 120.6C456.7 120.6 459.8 122.5 463.4 126.1C466.5 129.7 469.4 133.8 471.8 138.8C472 138.8 472.5 138.8 473.5 138.3L473.5 151.5L473 152C473 154.9 472.3 158.2 470.8 162.6C469.1 168.1 466.5 172.7 463.4 176.3C456.2 184.9 448.3 192.4 439.6 198.9C426.6 208.5 415.6 213.5 406 213.5C397.8 213.5 391.6 210.4 387.3 204.4C383.5 199.4 381.5 192.6 381.5 184.7C381.5 174.6 383.7 164.3 387.7 153.5C388.9 151.1 389.4 150.1 389.9 150.1C390.1 150.1 390.1 150.3 390.1 150.8C390.1 151.5 389.9 152.7 389.6 154.2C386.5 164.8 385 172.7 385 178.2C385 183.2 386.2 187.6 388.6 191.2C392.4 196.2 398.4 198.9 406.8 198.9C414 198.9 422.6 195.8 433 189.5C441.2 184.5 449.1 178.5 456.8 171.3C463.8 164.5 467.4 160.2 467.4 158L467.4 158L467.4 158L467.4 158L467.4 158ZM401.9 121.8C401.4 119.6 400.7 118 399.7 116.8C399 115.4 398.5 114.6 398.3 114.2C398.3 113.7 398.3 112 398.8 108.7C399.3 105.6 399.5 103.4 400 102.2C400.2 101 400.5 100.5 401 100.5C401.2 100.5 401.5 100.7 402 101.2C405.4 105 409 108.9 413 113C414.7 114.7 415.4 115.6 415.4 116.1C415.4 116.3 415.2 116.6 414.7 116.6C414 116.6 412.1 116.1 409.2 115.4C410.9 119.5 412.8 123.6 414.5 127.4C417.1 134.1 418.6 139.6 418.6 144.7C418.6 147.1 418.1 150 417.2 153.6C416 157.7 414.6 160.8 412.6 163C405.6 170.9 393.9 179.6 377.3 188.9C362.9 197.3 354.5 201.4 351.9 201.4C351.4 201.4 344.2 203.1 330.5 206.4C316.1 209.8 307 211.9 303.4 212.4C299.6 213.1 297.2 213.4 296.2 213.4C295.7 213.4 295.7 213.4 295.7 213.2C295.7 213 298.3 211.5 303.6 209.1C305.5 208.1 316.6 203.3 337 194.7C351.2 188.7 362.9 183.2 372.3 178.1C386.5 170.4 397.3 163.7 404.7 158.2C410.2 153.9 413.1 150.8 413.1 148.8C413.1 148.3 411.7 145 408.8 138.7C405.5 131.6 403.1 125.9 401.9 121.8L401.9 121.8L401.9 121.8L401.9 121.8L401.9 121.8ZM382.2 88.4C382.2 92.2 380.3 97.5 376.4 104C374 108.1 370.4 113.6 365.6 120.8C370.4 126.3 373.8 131.4 375.4 135.7C376.4 138.8 377.1 142.9 377.1 147.5C377.1 149.4 376.6 151.8 375.7 154.9C375 157.8 374 159.9 373.1 161.4C371.2 164.3 368.1 167.2 363.3 170C358.3 173.4 353.9 175 350.3 175C344.5 175 341.7 170.7 341.7 162C341.7 156.2 342.7 150.5 344.6 145.2C346.5 140.6 349.6 134.6 354.7 126.7C350.4 122.6 345.8 116.9 340.8 109.7C340.3 109 339.1 107.8 337.2 105.9C336.2 104.9 335.8 103.7 335.8 102.3C335.8 100.1 336 97.7 336.5 94.9C337.2 92 337.7 90.8 337.9 90.8C338.6 90.8 340.8 92 344.9 94.6C348.7 97.2 351.9 99.2 353.8 100.8C355 101.5 355.5 102.2 355.5 102.2L355.5 102.4C355.5 102.6 354.8 102.9 353.1 102.9C350 102.9 348.3 103.1 348.3 103.4C348.3 103.6 348.8 104.1 349.7 105.3C353.5 110.1 357.4 113.7 361.5 116.6C362.5 115.2 365.8 110.4 371.1 102.2C375.7 95.2 378.3 90.4 379.5 87.6C380.7 84.7 381.4 83.5 381.9 83.5C381.9 83.6 382.2 85.1 382.2 88.4L382.2 88.4L382.2 88.4L382.2 88.4L382.2 88.4ZM372.8 147.5C370.2 142.2 365.6 136.7 359.4 131.4C357.2 133.6 354.6 137.6 351.2 143.4C347.4 149.9 345.7 154 345.7 156.1C345.7 159 347.6 160.4 351.9 160.4C353.8 160.4 356.2 159.7 359.3 158.5C363.6 156.6 367.7 153.9 371.1 150.6C372.6 149.1 373.1 148.2 372.8 147.5L372.8 147.5L372.8 147.5L372.8 147.5L372.8 147.5ZM359.4 70.4L363.2 62.5C363.4 62 363.7 61.8 364.2 61.8C364.7 61.8 366.6 63 370.4 65.6C374 68 375.9 69.3999 375.9 69.8999C375.9 71.6 374.2 75.1999 371.1 80.5C370.6 81.2 370.1 81.2 369.7 81C366.6 78.6 363 76.2 358.9 73.6C357.5 76.5 356.3 79.1 354.8 81.3C354.6 82 354.1 82.3 353.6 82C350 79.1 346.2 76.5 342.3 74.1C342.1 73.9 342.1 73.6 342.3 73.1L346.9 63.5C347.1 63 347.6 62.5 347.9 62.5C348.4 62.5 350.1 63.7 353.2 65.9C356.3 67.8 358.4 69.5 359.4 70.4L359.4 70.4L359.4 70.4L359.4 70.4L359.4 70.4ZM485.9 204.1C483.3 204.8 481.8 205.3 481.3 205.3L481.3 205.1C481.3 205.1 482.3 204.4 484.2 203.2C486.1 202 489 200.1 493.1 197C495 195.1 497.9 192 501.5 187.6C503.9 184.7 506.5 182.1 509.4 180.2C513 177.6 516.4 176.4 520 176.4C520.7 176.4 521.9 176.6 523.4 177.1C524.6 177.6 525.8 177.8 526.8 177.8C528.7 177.8 530.2 177.1 531.4 175.6C532.1 174.2 533.1 173 534 171.5C534.5 170.5 535.2 170.1 535.7 170.1C535.9 170.1 535.9 170.3 535.9 170.8C535.9 171.3 535.7 172.5 535.2 173.9C534.7 174.6 536.6 174.9 540.2 174.9C540.7 174.9 540.9 174.9 540.9 174.7C540.9 174.7 540.7 173.7 540.2 172.1C540 171.6 540.2 170.9 540.9 169.9C541.9 168.2 542.3 167.5 542.6 167.7C543.6 168.4 544 169.9 544 171.5C544 173.2 543.5 174.9 542.8 176.8C542.1 179 541.4 180.2 540.9 180.6C539.2 181.6 536.6 181.3 533 179.6C530.1 182.5 527.2 184.2 524.4 184.2C523.7 184.2 522.5 184 521.3 183.5C520.1 183 519.1 182.8 518.4 182.8C513.6 182.8 508.6 185 503.5 189.8C499.9 193.4 496.3 197 492.7 200.6C490.4 202.2 488.3 203.4 485.9 204.1L485.9 204.1L485.9 204.1L485.9 204.1L485.9 204.1ZM434.3 74.5C437.2 74.5 439.6 75.9 441.7 79.3C443.9 82.4 445.5 86.7 446.3 92C446.5 92.5 446.5 92.7 446.5 93L446.7 93C446.7 92.8 446.9 92.5 446.9 92C447.4 88.9 448.6 84.1 450.3 77.8C452.2 73.5 454.1 71.3 456.3 71.3C457.5 71.3 458.7 72 459.7 73.5C460.7 74.9 461.1 75.9 461.1 76.9C461.1 77.4 461.1 78.3 460.6 79.3C460.1 80.7 459.6 81.5 459.2 81.5C459 81.5 458.5 80.8 457.5 79.8C456.8 78.8 455.8 78.4 454.9 78.4C453 78.4 451.3 83 449.6 92.1C448.9 96.2 447.9 99.1 447.2 100.7C446.5 101.7 446 102.4 445.5 102.4C445 102.4 445 101.7 444.8 100.7C445 99 444.1 95.9 442.2 91.3C440.3 86.5 439.1 84.3 438.1 84.3C437.6 84.3 437.4 84.3 437.1 84.8C436.9 85 436.6 85.3 435.9 85.3C434.9 85.3 434 84.6 432.5 83.4C431.1 82.2 430.6 81.2 430.6 80.5C430.6 80.3 431.1 79.1 432.3 77.1C433.3 75.2 434 74.5 434.3 74.5L434.3 74.5L434.3 74.5L434.3 74.5L434.3 74.5ZM393.7 71.6C417.9 62.5 443.1 53.4 469.1 43.8C469.8 43.6 470.3 43.3 470.3 43.6C470.5 43.6 470.5 44.1 470.3 44.8C469.3 47 468.6 48.2 468.1 48.6C467.9 48.8 455.6 53.4 431.9 62.3C407.7 71.2 394 76.7 391.3 78.4C391.8 76.2 392.5 74 393.7 71.6L393.7 71.6L393.7 71.6L393.7 71.6L393.7 71.6ZM370.2 27.7C370.7 26.3 370.7 24.8 370.4 23.4C370.2 22 369.4 21.2 368.2 21.2C367.7 21.2 367 21.4 366 21.9C365 22.4 364.6 22.9 364.6 23.3C364.7 24.6 366.6 26 370.2 27.7L370.2 27.7L370.2 27.7L370.2 27.7L370.2 27.7ZM367.3 33.9C362.7 31.5 360.6 29.1 360.6 26.5C360.6 23.4 362 20.5 364.9 18.1C367.8 15.5 370.2 14.5 372.1 15.2C373.8 15.7 374.5 17.4 374.5 20.2C374.5 22.8 374 25.7 372.8 29.1C375.2 30.3 376.6 31.5 377.1 32.5C377.1 33.7 376.1 35.9 374 38.7C373.5 37.7 372.1 36.5 369.9 35.3C367.3 38.9 364.1 42 360.3 44.9C355.7 48 351.7 50.7 348.1 52.1C347.1 52.6 342.8 54.3 335.1 57.1C333.9 57.6 332.9 57.8 332.7 57.8C332.5 57.8 332.5 57.6 332.5 57.6C332.5 57.4 333 56.6 334.4 55.9C340.2 52.3 345.9 48.9 351.9 45.6C358.9 41.4 363.9 37.5 367.3 33.9L367.3 33.9L367.3 33.9L367.3 33.9L367.3 33.9ZM519 63.9C519.5 62.5 519.5 61 519.2 59.6C519 58.2 518.2 57.4 517 57.4C516.5 57.4 515.8 57.6 514.8 58.1C513.8 58.6 513.4 59.1 513.4 59.5C513.5 60.8 515.4 62.3 519 63.9L519 63.9L519 63.9L519 63.9L519 63.9ZM524.3 72.8C521.9 78.6 520.7 83.1 520.7 86.5C520.7 90.6 521.7 92.7 523.8 92.7C525 92.7 526.4 91 528.1 88.1C528.3 87.9 528.3 87.6 528.6 87.4C528.6 87.4 528.8 87.4 528.8 87.6C528.8 87.6 528.8 87.8 528.8 88.3C527.4 95.5 525.2 99.1 522.3 99.1C519.2 99.1 517.7 96.5 517.7 91.2C517.7 88.6 518.2 85.2 519.6 80.9C521 76.6001 521.8 74.4 521.8 74.2C521.8 73.7 520.8 72.8 518.7 71.6C514.9 76.6 509.6 81.4 502.9 85.5C498.3 88.1 493.8 90.5 489 92.5C480.1 96.1 474.8 98 473.6 98.7C472.4 99.2 471.7 99.4 471.2 99.4C471 99.4 471 99.2 471 99.2C471 98.7 471.5 98.2 472.9 97.3C480.6 93 488 88.7 495.7 84.3C505.8 78.5 512.7 73.7 516.1 70.1C511.5 67.7 509.4 65.3 509.4 62.7C509.4 59.6 510.8 56.7 513.7 54.1C516.6 51.7 519 50.7 520.9 51.5C522.3 52 523.3 53.7 523.3 56.5C523.3 59.1 522.8 62 521.6 65.1C524 66.5 525 68 525 69.4C525 70.2 524.7 71.4 524.3 72.8L524.3 72.8L524.3 72.8L524.3 72.8L524.3 72.8ZM415.1 37.8C415.1 37.6 415.3 37.3 415.3 37.3C415.5 37.1 415.5 37.1 415.5 37.3C415.7 37.5 415.7 37.8 415.5 38C414.3 45.2 412.1 48.8 409 48.8C405.9 48.8 404.4 46.2 404.4 40.9C404.4 34.4 406.1 27.5 409.9 20.5C410.9 18.8 411.3 17.9 411.6 17.9L411.6 17.9C411.6 18.1 411.4 19.1 410.9 20.8C408.5 28.2 407.3 33.3 407.3 36.4C407.3 40.2 408.3 42.4 410.4 42.4C411.9 42.3 413.4 40.7 415.1 37.8L415.1 37.8L415.1 37.8L415.1 37.8L415.1 37.8Z" id="Group" fill="#595959" stroke="none" clip-path="url(#clip_1)" />
  </g>
</svg>