<?xml version="1.0" encoding="utf-8"?>
<svg width="498.0001px" height="203.69998px" viewBox="0 0 498.0001 203.69998" version="1.1" xmlns:xlink="http://www.w3.org/1999/xlink" xmlns="http://www.w3.org/2000/svg">
  <defs>
    <path d="M498 0L498 0L498 203.7L0 203.7L0 0L498 0Z" id="path_1" />
    <clipPath id="clip_1">
      <use xlink:href="#path_1" clip-rule="evenodd" fill-rule="evenodd" />
    </clipPath>
  </defs>
  <g id="Surah_67_of_114_(modified)">
    <path d="M498 0L498 0L498 203.7L0 203.7L0 0L498 0Z" id="Surah_67_of_114_(modified)" fill="none" stroke="none" />
    <path d="M212.4 0C211.7 0 210.7 0.5 210 1.7C206.6 8.2 204.2 15.1 203.1 22.9C202.9 23.8 202.9 24.8 202.9 25.5C202.9 29.3 204.3 31.5 207.7 31.5C211.1 31.5 213.7 29.8 216.1 26.9C216.8 25.9 217.3 23.3 217.8 19.2C218 15.6 215.6 11.8 210.6 8.2C211.3 5.8 212.2 3.39999 213.2 1.2C213.2 0.899994 213.4 0.699997 213.4 0.699997C213.4 0.199997 212.9 0 212.4 0ZM180.7 16.1C182.6 13 183.8 10.1 183.8 7.5C183.8 4.29999 182.4 2.7 179.7 2.8C176.4 2.8 174.5 4.7 173.5 8.8C173.3 9.7 173.3 10.2 173.3 10.2C173.3 10.4 173.5 10.4 173.5 10.4C173.7 10.4 174 10.1 174.7 9.89999C175.4 9.39999 176.3 9.2 177.3 9.2C178.9 9.2 179.9 10.1 179.9 11.8C179.9 14 177 17.8 171.5 23.8C170.6 25 170.1 25.5 170.1 25.7L170.1 25.9C170.3 25.9 171.1 25.5 172.5 24.5C175.9 22.1 178.5 19.2 180.7 16.1ZM239.7 149.8C244.8 141.6 247.4 130.6 247.4 116.4C247.4 111.4 246.5 96.3 244.6 71.2C242.7 45.8 241.7 32.8 241.7 32.6C241.7 31.4 241.9 31.1 242.4 31.6C246.4 36.4 248.6 37.6 248.6 35.4C248.6 34.9 248.3 33.7 248.1 32.3C247.4 30.6 245.7 25.8 242.8 17.9C239.9 10.4 238 5.89998 237.3 4.19998C236.8 3.19998 236.5 2.99998 236.3 2.99998C235.8 2.99998 235.5 3.29999 235.3 3.99998C232.6 10.4 231.2 14.5 231.2 16.2C232.7 19.3 233.4 23.1 233.4 27.7C233.4 33 234.3 50 236.5 78.8C238.7 107.6 239.9 124.1 239.9 128.2C239.9 135 239.2 139 238 140C233.762 143.548 229.33 145.445 224.8 145.499L224.8 145.4C220.7 145.4 217.6 144.9 215.2 143.7C214.2 143.2 212.3 141.8 209.4 139.4C208.4 138.6 207.7 138.4 207.2 138.4C206.2 138.4 205 139.1 203.6 141C200 145 197.6 147.7 196.6 148.4C192.1 151.7 186.6 153.4 179.6 153.4L179.6 153.5C176.3 153.5 173.9 152.8 172.2 151.6C169.8 149.5 167.9 145.6 166.7 140.1C165.7 135 165 122.6 164.5 102.4C163.8 79.6 162.8 63 161.4 52.2C159.5 36.4 156.8 23.2 153.7 12.6C153.2 11.7 153 11.2 152.5 11.2C152.2 11.2 152 11.6 151.5 12.6C150.5 15 149.8 19.3 148.6 25.3C151.3 41.4 153 51 153.2 53.6C155.6 73.2 156.8 97.5 156.8 125.8C156.8 135.9 155.3 143.1 152.7 147.4C148.6 153.1 141.9 156 132.5 156L132.5 170.6C138.1 170.6 143.3 169 147.9 165.6C154.8 160.8 158.7 152.9 159.4 142.3C160.3 150.2 161.8 156 163.7 159.6C166.8 165.1 172.1 168 179.5 168L179.6 168L179.6 168.3C185.1 168.3 189.9 166.1 194.2 162.3C196.6 159.2 199 156.3 201.4 153.7C201.8 152.7 202.3 152 202.8 152C203.1 152 203.1 152.7 203.3 153.7C203.7 159.5 204.7 164.1 205.9 166.7C208.1 171.5 212.1 175.5 217.9 178.9C219.8 179.9 221 180.6 222 180.6C222.7 180.6 223.2 179.6 223.9 178.2C225.1 175.3 225.8 171.9 225.8 168.1C225.8 164.996 225.33 162.269 224.663 160.1C230.337 160.074 235.416 156.475 239.7 149.8ZM255.5 16.3C257 19.5 257.7 23.3 257.7 28.1C257.7 32.2 258.9 51.1 261.4 85C263.8 118.8 265 138 265 142.8C265 147.9 264.8 152.4 264.3 156.5C264.271 156.879 264.242 157.244 264.214 157.593C264.05 159.635 263.929 161.146 264.1 162C264.3 162.7 264.6 162.7 265.3 161.5C265.8 160.6 266.2 159.4 267.2 157.7C270.5 149.1 272.2 139 272.2 127.7C272.2 123.9 271.3 107.3 269.1 77.8C266.9 48.1 265.7 33.2 265.7 32.7C265.7 31.5 265.9 31 266.4 31.7C270.7 36.5 272.6 37.7 272.6 35.5C272.6 35 272.6 33.8 272.1 32.6C271.6 30.7 269.9 25.9 266.8 18C263.9 10.5 262.2 5.99998 261.5 4.29999C261 3.59999 260.8 3.09999 260.3 3.09999C260.1 3.09999 259.8 3.59999 259.6 4.29999C256.7 10.5 255.5 14.6 255.5 16.3ZM303.1 15.9C303.1 18.5 305.2 20.9 309.8 23.3C306.5 26.9 301.4 30.7 294.4 35C288.4 38.3 282.7 41.7 276.9 45.3C275.5 46 275 46.8 275 47C275 47 275 47.2 275.2 47.2C275.4 47.2 276.4 47 277.6 46.5C285.3 43.7 289.6 42 290.6 41.5C294.2 40.1 298.2 37.4 302.8 34.3C306.6 31.4 309.8 28.3 312.4 24.7C314.6 25.9 316 27.1 316.5 28.1C318.6 25.3 319.6 23.1 319.6 21.9C319.1 20.9 317.7 19.7 315.3 18.5C316.5 15.1 317 12.2 317 9.60001C317 6.8 316.3 5.10001 314.6 4.60001C312.7 3.89999 310.3 4.89999 307.4 7.5C304.5 9.89999 303.1 12.8 303.1 15.9ZM130.3 8.39999C131 7.2 132 6.7 132.7 6.7C133.2 6.7 133.7 6.89999 133.7 7.39999C133.7 7.39999 133.5 7.59999 133.5 7.89999C132.5 10.1 131.6 12.5 130.9 14.9C135.9 18.5 138.3 22.3 138.1 25.9C137.6 30 137.1 32.6 136.4 33.6C134 36.5 131.4 38.2 128 38.2C124.6 38.2 123.2 36 123.2 32.2C123.2 31.5 123.2 30.5 123.4 29.6C124.5 21.9 126.9 14.9 130.3 8.39999ZM357.8 26.9C357.8 26.9 357.6 27.2 357.6 27.4C355.9 30.3 354.5 31.9 352.9 32C350.8 32 349.8 29.8 349.8 26C349.8 22.9 351 17.8 353.4 10.4C353.9 8.7 354.1 7.7 354.1 7.5C353.8 7.5 353.4 8.40001 352.4 10.1C348.6 17.1 346.9 24 346.9 30.5C346.9 35.8 348.4 38.4 351.5 38.4C354.6 38.4 356.8 34.8 358 27.6C358.2 27.4 358.2 27.1 358 26.9C358 26.8093 358 26.7598 357.981 26.7513C357.959 26.7411 357.909 26.7907 357.8 26.9ZM312.9 12.8C313.2 14.2 313.2 15.7 312.7 17.1C309.1 15.4 307.2 13.9 307.1 12.7C307.1 12.3 307.5 11.8 308.5 11.3C309.5 10.8 310.2 10.6 310.7 10.6C311.9 10.6 312.7 11.4 312.9 12.8ZM35.3 179.8C21.9 179.8 12 175.7 6 167.8C1.89999 162.5 0 155.8 0 147.9C0 139 2.2 130.4 6.5 122.5C6.8627 121.878 7.19855 121.337 7.50582 120.876C5.55175 120.03 4.59999 117.522 4.59999 113.3C4.59999 106.8 6.29999 99.9 10.1 92.9C11.1 91.2 11.5 90.3 11.8 90.3C11.8 90.5 11.6 91.5 11.1 93.2C8.7 100.6 7.49998 105.7 7.49998 108.8C7.49998 112.6 8.49998 114.8 10.6 114.8C12.2 114.7 13.7 113.1 15.3 110.2C15.3 110 15.5 109.7 15.5 109.7C15.6093 109.591 15.6589 109.541 15.6814 109.551C15.7 109.56 15.7 109.609 15.7 109.7C15.9 109.9 15.9 110.2 15.7 110.4C14.5114 117.532 12.3415 121.132 9.28776 121.199C9.10023 121.899 8.85011 122.75 8.59999 123.7C7.39999 126.6 6.2 129.5 5.2 132.1C4 135.7 3.5 139.5 3.5 143.6C3.5 148.2 5.7 152.5 10.2 156.6C16.2 162.1 25.3 165 37.3 165C47.4 165 58.9 162.1 71.4 156.6C82.4 151.8 92 146 100 139.6C106.5 134.3 109.6 128.3 109.6 121.6C109.6 97.1 108.4 75 106 55.8C105.3 49.1 103.8 39.7 101.9 27.5C102.9 20.5 103.8 16.2 104.3 14.8C104.8 13.8 105 13.4 105.3 13.4C105.8 13.4 106 13.9 106.3 14.8C109.7 25.4 112.3 38.6 114.2 54.6C115.6 65.2 116.6 82 117.1 104.5C117.8 124.9 118.5 137.6 119.5 142.4C120.7 148.2 122.6 151.8 125 153.9C126.7 155.3 129.1 156.1 132.4 156.1L132.4 170.7C125 170.7 119.7 167.8 116.6 162.1C113.5 156.8 111.8 147 111.1 133.1C109.2 140.3 106.8 145.6 103.9 148.5C97.4 155.5 87.8 161.9 75.3 168.4C60.5 175.9 47 179.8 35.3 179.8ZM207.9 14.7C212.9 17.5 215.3 19.7 215.3 20.9C214.8 21.9 213.6 22.8 212 23.6C210.3 24.5 208.9 25 207.7 25C206.2 25 205.5 24 205.5 22.6C205.5 20.2 206.2 17.6 207.9 14.7ZM80.3 35.3C80.3 35.3 80.1 35.6 80.1 35.8C78.5 38.7 77 40.3 75.4 40.4C73.3 40.4 72.3 38.2 72.3 34.4C72.3 31.3 73.5 26.2 75.9 18.8C76.4 17.1 76.6 16.1 76.6 15.9C76.3 15.9 75.9 16.8 74.9 18.5C71.1 25.5 69.4 32.4 69.4 38.9C69.4 44.2 70.9 46.8 74 46.8C77.1 46.8 79.3 43.2 80.5 36C80.7 35.8 80.7 35.5 80.5 35.3C80.5 35.2093 80.5 35.1597 80.4814 35.1513C80.4589 35.1411 80.4096 35.1904 80.3 35.3ZM135.6 27.6C135.6 26.4 133.2 24.2 128.2 21.4C126.5 24.3 125.8 26.9 125.8 29.3C125.8 30.7 126.5 31.7 128 31.7C129.2 31.7 130.6 31.2 132.3 30.3C133.9 29.5 135.1 28.6 135.6 27.6ZM336.2 61C360.4 51.9 385.6 42.8 411.6 33.2C411.802 33.1422 411.988 33.0761 412.149 33.0186C412.547 32.8768 412.8 32.7866 412.8 33C413 33 413 33.5 412.8 34.2C411.8 36.4 411.1 37.6 410.6 38C410.4 38.2 398.1 42.8 374.4 51.7C350.2 60.6 336.5 66.1 333.8 67.8C334.3 65.5 335 63.4 336.2 61ZM466.8 62.2C464.4 68 463.2 72.5 463.2 75.9C463.2 80 464.2 82.1 466.3 82.1C467.5 82.1 468.9 80.4 470.6 77.5C470.8 77.3 470.8 77 471.1 76.8C471.1 76.8 471.3 76.8 471.3 77L471.3 77.7C469.9 84.9 467.7 88.5 464.8 88.5C461.7 88.5 460.2 85.9 460.2 80.6C460.2 78 460.7 74.6 462.1 70.3C463.5 66 464.3 63.8 464.3 63.6C464.3 63.1 463.3 62.2 461.2 61C457.4 66 452.1 70.8 445.4 74.9C440.8 77.5 436.3 79.9 431.5 81.9C422.6 85.5 417.3 87.4 416.1 88.1C414.9 88.6 414.2 88.8 413.7 88.8C413.5 88.8 413.5 88.6 413.5 88.6C413.5 88.1 414 87.6 415.4 86.7C423.1 82.4 430.5 78.1 438.2 73.7C448.3 67.9 455.2 63.1 458.6 59.5C454 57.1 451.9 54.7 451.9 52.1C451.9 49 453.3 46.1 456.2 43.5C459.1 41.1 461.5 40.1 463.4 40.9C464.8 41.4 465.8 43.1 465.8 45.9C465.8 48.5 465.3 51.4 464.1 54.5C466.5 55.9 467.5 57.4 467.5 58.8C467.5 59.5 467.3 60.7 466.8 62.2ZM461.5 53.3C462 51.9 462 50.4 461.7 49C461.5 47.6 460.7 46.8 459.5 46.8C459 46.8 458.3 47 457.3 47.5C456.3 48 455.9 48.5 455.9 48.9C456 50.2 457.9 51.6 461.5 53.3ZM28 55C25.9 51.6 23.5 50.2 20.6 50.2C20.4 50.2 19.7 50.9 18.6 52.8C17.4 54.8 16.9 56 16.9 56.2C16.9 56.9 17.4 57.9 18.8 59.1C20.3 60.3 21.2 61 22.2 61C22.9 61 23.2 60.7 23.4 60.5C23.7 60 23.9 60 24.4 60C25.4 60 26.6 62.2 28.5 67C30.4 71.6 31.3 74.7 31.1 76.4C31.3 77.4 31.3 78.1 31.8 78.1C32.3 78.1 32.8 77.4 33.5 76.4C34.2 74.8 35.2 71.9 35.9 67.8C37.6 58.7 39.3 54.1 41.2 54.1C42.1 54.1 43.1 54.5 43.8 55.5C44.8 56.5 45.3 57.2 45.5 57.2C45.9 57.2 46.4 56.4 46.9 55C47.4 54 47.4 53.1 47.4 52.6C47.4 51.6 47 50.6 46 49.2C45 47.7 43.8 47 42.6 47C40.4 47 38.5 49.2 36.6 53.5C34.9 59.8 33.7 64.6 33.2 67.7C33.2 68.2 33 68.5 33 68.7L32.8 68.7C32.8 68.4 32.8 68.2 32.6 67.7C31.8 62.4 30.2 58.1 28 55ZM186.2 47.8C187.9 47.8 189.8 48.8 192.4 50.9C195 52.8 196.5 54.7 196.7 56.2C196.9 56.7 196.5 57.6 195.7 59.3C195 61 194.5 61.7 194.3 61.7C191.9 62.4 189.5 63.1 187.1 63.9C184 64.9 182.1 66.1 180.9 67.3C184.3 77.4 185.9 87.2 185.9 97.1C185.9 100 185.4 102.9 184.9 106C184.7 107 184.4 107.4 184.2 107.7C184 107.7 184 105.8 184 102.4C184 96.9 183 89.9 181.4 82C179.7 74.1 179 69.3 179 68.3C179 64.2 180 61.3 182.4 59.4C183.4 58.7 185.5 57.7 188.4 56.8C187.2 55.6 186 55.1 184.8 55.1C184.3 55.1 183.6 55.6 182.6 56.8C181.6 58.2 180.9 58.7 180.9 58.7C180.7 58.7 180.4 58.2 180.7 57.3C181.4 50.9 183.3 47.8 186.2 47.8ZM305.7 51.9L301.9 59.8C300.9 58.8 298.8 57.1 295.7 55.3C292.6 53.1 290.9 51.9 290.4 51.9C290.1 51.9 289.6 52.4 289.4 52.9L284.8 62.5C284.6 63 284.6 63.3 284.8 63.5C288.7 65.9 292.5 68.5 296.1 71.4C296.6 71.7 297.1 71.4 297.3 70.7C298.8 68.5 300 65.9 301.4 63C305.5 65.6 309.1 68 312.2 70.4C312.6 70.6 313.1 70.6 313.6 69.9C316.7 64.5999 318.4 61 318.4 59.3C318.4 58.8 316.5 57.4 312.9 55C309.1 52.4 307.2 51.2 306.7 51.2C306.2 51.2 305.9 51.4 305.7 51.9ZM140.4 56.2C140.4 58.8 139.2 61.7 137.3 64.8C135.1 67.9 132.5 70.8 129.1 73.2C127.7 74.2 126.9 74.6 126.7 74.6L126.7 74.4C126.7 74.2 127.2 73.7 128.1 72.5C133.6 66.5 136.5 62.7 136.5 60.5C136.5 58.8 135.5 57.9 133.9 57.9C132.9 57.9 132 58.1 131.3 58.6C130.6 58.8 130.3 59.1 130.1 59.1C130.1 59.1 129.9 59.1 129.9 58.9C129.9 58.9 129.9 58.4 130.1 57.5C131.1 53.4 133 51.5 136.3 51.5C138.9 51.4 140.4 53.1 140.4 56.2ZM384.2 68.9C382.1 65.5 379.7 64.1 376.8 64.1C376.5 64.1 375.8 64.8 374.8 66.7C373.6 68.7 373.1 69.9 373.1 70.1C373.1 70.8 373.6 71.8 375 73C376.5 74.2 377.4 74.9 378.4 74.9C379.1 74.9 379.4 74.6 379.6 74.4C379.9 73.9 380.1 73.9 380.6 73.9C381.6 73.9 382.8 76.1 384.7 80.9C386.6 85.5 387.5 88.6 387.3 90.3C387.5 91.3 387.5 92 388 92C388.5 92 389 91.3 389.7 90.3C390.4 88.7 391.4 85.8 392.1 81.7C393.8 72.6 395.5 68 397.4 68C398.3 68 399.3 68.4 400 69.4C401 70.4 401.5 71.1 401.7 71.1C402.1 71.1 402.6 70.3 403.1 68.9C403.6 67.9 403.6 67 403.6 66.5C403.6 65.5 403.2 64.5 402.2 63.1C401.2 61.6 400 60.9 398.8 60.9C396.6 60.9 394.7 63.1 392.8 67.4C391.1 73.7 389.9 78.5 389.4 81.6C389.4 82.1 389.2 82.4 389.2 82.6L389 82.6C389 82.3 389 82.1 388.8 81.6C388 76.3 386.4 72 384.2 68.9ZM324.7 77.8C324.7 81.6 322.8 86.9 318.9 93.4C316.5 97.5 312.9 103 308.1 110.2C312.9 115.7 316.3 120.8 317.9 125.1C318.9 128.2 319.6 132.3 319.6 136.9C319.6 138.8 319.1 141.2 318.2 144.3C317.5 147.2 316.5 149.3 315.6 150.8C313.7 153.7 310.6 156.6 305.8 159.4C300.8 162.8 296.4 164.4 292.8 164.4C287 164.4 284.2 160.1 284.2 151.4C284.2 145.6 285.2 139.9 287.1 134.6C289 130 292.1 124 297.2 116.1C292.9 112 288.3 106.3 283.3 99.1C282.8 98.4 281.6 97.2 279.7 95.3C278.7 94.3 278.3 93.1 278.3 91.7C278.3 89.5 278.5 87.1 279 84.3C279.7 81.4 280.2 80.2 280.4 80.2C281.1 80.2 283.3 81.4 287.4 84C291.2 86.6 294.4 88.6 296.3 90.2C297.5 90.9 298 91.6 298 91.6L298 91.8C298 92 297.3 92.3 295.6 92.3C292.5 92.3 290.8 92.5 290.8 92.8C290.8 93 291.3 93.5 292.2 94.7C296 99.5 299.9 103.1 304 106C305 104.6 308.3 99.8 313.6 91.6C318.2 84.6 320.8 79.8 322 77C323.2 74.1 323.9 72.9 324.4 72.9C324.5 73 324.7 74.4 324.7 77.8ZM68.4 117.6C71.5 112.6 73.2 109.2 73.2 107.3C73.2 104.7 70.3 103 64.7 102.6C58.9 102.1 56.3 101.2 56.3 99.4999C56.3 98.4999 57.2 97.2999 59.4 95.3999C61.8 93.4999 63.3 92.4999 64 92.4999C64.9 92.4999 65.4 92.7999 65.4 93.4999C65.6 94.2 66.1 94.7 66.8 94.7C68.2 94.7 69.2 93.3 70.4 90.9C71.1 88.7 71.6 86.8 71.6 84.9C71.6 82.5 70.4 81.3 68.2 81.3C65.5 81.3 61.7 84.1 56.9 89.9C51.9 96.4 49.5 102.2 49.5 107.2C49.5 110.1 50.7 112 53.3 113C54.9 113.7 57.3 114.2 60.7 114.2C63.1 114.5 64.5 114.5 64.5 114.7C64.5 115.9 61.4 118 54.9 120.9C46.5 124.8 42.4 126.9 42.4 127.4C42.4 127.9 43.1 128.1 44.8 128.1C47.2 128.1 50.6 127.4 54.9 126.4C59.2 125.5 61.2 125 61.4 125C62.9 125 65 122.4 68.4 117.6ZM216.7 106.8C212.1 104.4 210 102 210 99.4C210 96.3 211.4 93.4 214.3 91C217.2 88.4 219.6 87.4 221.5 88.1C223.2 88.6 223.9 90.3 223.9 93.1C223.9 95.7 223.4 98.6 222.2 102C224.6 103.2 226 104.4 226.5 105.4C226.5 106.6 225.5 108.8 223.4 111.6C222.9 110.6 221.5 109.4 219.3 108.2C216.7 111.8 213.5 114.9 209.7 117.8C205.1 120.9 201.1 123.6 197.5 125C196.5 125.5 192.2 127.2 184.5 130C183.3 130.5 182.3 130.7 182.1 130.7C181.9 130.7 181.9 130.5 181.9 130.5C181.9 130.3 182.4 129.5 183.8 128.8C189.6 125.2 195.3 121.8 201.3 118.5C208.3 114.3 213.3 110.4 216.7 106.8ZM140.6 108C140.6 108 140.4 108.3 140.4 108.5C138.7 111.4 137.3 113.1 135.7 113.1C133.6 113.1 132.6 110.9 132.6 107.1C132.6 104 133.8 98.9 136.2 91.5C136.7 89.8 136.9 88.8 136.9 88.6C136.6 88.6 136.2 89.5 135.2 91.2C131.4 98.2 129.7 105.1 129.7 111.6C129.7 116.9 131.2 119.5 134.3 119.5C137.4 119.5 139.6 115.9 140.8 108.7C141 108.5 141 108.2 140.8 108C140.8 107.909 140.8 107.86 140.781 107.851C140.759 107.841 140.71 107.89 140.6 108L140.6 108ZM342.2 106.1C343.2 107.3 343.9 108.9 344.4 111.1C345.6 115.2 348 121 351.3 128C354.2 134.3 355.6 137.6 355.6 138.1C355.6 140.1 352.7 143.2 347.2 147.5C342.349 151.106 336.036 155.227 328.263 159.808C328.998 155.371 330.271 150.056 332.1 143.8C332.4 142.3 332.6 141.1 332.6 140.4C332.6 139.9 332.6 139.7 332.4 139.7C331.9 139.7 331.4 140.7 330.2 143.1C327.854 149.435 326.127 155.599 325.1 161.65C321.892 163.498 318.459 165.416 314.8 167.4C305.4 172.5 293.7 178 279.5 184C259.1 192.6 248 197.4 246.1 198.4C240.8 200.8 238.2 202.3 238.2 202.5C238.2 202.7 238.2 202.7 238.7 202.7C239.7 202.7 242.1 202.4 245.9 201.7C249.5 201.2 258.6 199.1 273 195.7C286.7 192.4 293.9 190.7 294.4 190.7C297 190.7 305.4 186.6 319.8 178.2C321.245 177.39 322.653 176.585 324.024 175.785C324.26 183.053 326.24 189.316 329.8 194C334.1 200 340.3 203.1 348.5 203.1C358.1 203.1 369.1 198.1 382.1 188.5C390.8 182 398.7 174.5 405.9 165.9C409 162.3 411.6 157.7 413.3 152.2C414.8 147.8 415.5 144.5 415.5 141.6L416 141.1L416 127.9C415 128.4 414.5 128.4 414.3 128.4C411.9 123.4 409 119.3 405.9 115.7C402.3 112.1 399.2 110.2 396.1 110.2C392 110.2 388.2 112.3 384.6 116.4C380.8 121.2 379.1 126.5 379.1 132.5C379.1 140.4 384.9 144.5 396.4 144.5C401.7 144.5 406 143.8 408.9 142.8C409.4 144.5 409.9 146.2 409.9 147.6C409.9 149.8 406.3 154.1 399.3 160.9C391.6 168.1 383.7 174.1 375.5 179.1C365.1 185.4 356.5 188.5 349.3 188.5C340.9 188.5 334.9 185.8 331.1 180.8C329.639 178.609 328.623 176.121 328.051 173.382C340.344 165.885 349.323 158.82 355.1 152.3C357.1 150.1 358.5 147 359.7 142.9C360.6 139.3 361.1 136.4 361.1 134C361.1 128.9 359.6 123.4 357 116.7C355.3 112.9 353.4 108.8 351.7 104.7C354.6 105.4 356.5 105.9 357.2 105.9C357.7 105.9 357.9 105.6 357.9 105.4C357.9 104.9 357.2 104 355.5 102.3C351.5 98.2 347.9 94.3 344.5 90.5C344 90 343.7 89.8 343.5 89.8C343 89.8 342.7 90.3 342.5 91.5C342 92.7 341.8 94.9 341.3 98C340.8 101.3 340.8 103 340.8 103.5C341 103.9 341.5 104.7 342.2 106.1ZM219.6 100.6C220.1 99.2 220.1 97.7 219.8 96.3C219.6 94.9 218.8 94.1 217.6 94.1C217.1 94.1 216.4 94.3 215.4 94.8C214.4 95.3 214 95.8 214 96.2C214.1 97.5 216 98.9 219.6 100.6ZM442.1 112.9C441.4 112.9 440.4 113.3 439.2 114.3C435.3 117.6 431.5 120.5 427.6 122.5C426.4 123.3 422.3 125.2 416.1 128.3L416.1 141.5C424.5 137.6 431 133.6 434.8 129C434.8 140 439.6 145.8 449.7 145.8C458.1 145.8 465 141 470.3 131.4C473.5 137.2 477.1 140.3 480.9 140.3C486.7 140.3 491 137.7 493.9 132.4C496.6 128 498 123 498 117C498 113.1 496.8 109.8 494.9 106.9C494.2 105.9 493.7 105.7 493.2 105.7C492.7 105.7 492.2 106.5 492 107.9C490.6 112.4 489.6 115.8 489.4 117.7C491.5 121.3 492.5 123.3 492.5 123.5C491.5 125.1 489.4 126.1 486 126.1C483.4 126.1 481 125.1 479.3 123.7C477.4 122.3 476.4 120.6 476.4 118.9C476.4 119.4 477.1 117.5 478.1 113.4C478.6 111.3 478.4 110.3 477.4 110.3C476.7 110.3 476 110.7 475 111.7C472.6 115.6 470 119.4 467.6 123.5C463.7 128.6 458.7 131.2 452.7 131.2C445.2 131.2 441.4 128.3 441.4 123C441.4 121.8 441.6 120.3 442.1 118.4C442.6 116.5 442.8 115 442.8 114.3C442.8 113.4 442.6 112.9 442.1 112.9ZM315.3 136.8C312.7 131.5 308.1 126 301.9 120.7C299.7 122.9 297.1 126.9 293.7 132.7C289.9 139.2 288.2 143.3 288.2 145.4C288.2 148.3 290.1 149.7 294.4 149.7C296.3 149.7 298.7 149 301.8 147.8C306.1 145.9 310.2 143.2 313.6 139.9C315.1 138.5 315.6 137.5 315.3 136.8ZM402.5 130.1C398.9 125.5 395.8 123.4 392.9 123.4C388.6 123.4 386.7 124.4 386.7 126.8C386.7 129.7 389.6 131.1 395.3 131.1C397.164 131.1 399.264 130.706 401.6 130.268C401.896 130.213 402.196 130.156 402.5 130.1ZM428.4 193.7C425.8 194.4 424.3 194.9 423.8 194.9L423.8 194.7C423.8 194.7 424.8 194 426.7 192.8C428.6 191.6 431.5 189.7 435.6 186.6C437.5 184.7 440.4 181.6 444 177.2C446.4 174.3 449 171.7 451.9 169.8C455.5 167.2 458.9 166 462.5 166C463.2 166 464.4 166.2 465.9 166.7C467.1 167.2 468.3 167.4 469.3 167.4C471.2 167.4 472.7 166.7 473.9 165.2C474.6 163.8 475.6 162.6 476.5 161.1C477 160.1 477.7 159.7 478.2 159.7C478.4 159.7 478.4 159.9 478.4 160.4C478.4 160.9 478.2 162.1 477.7 163.5C477.2 164.2 479.1 164.5 482.7 164.5C483.2 164.5 483.4 164.5 483.4 164.3C483.4 164.3 483.2 163.3 482.7 161.7C482.5 161.2 482.7 160.5 483.4 159.5L483.48 159.364C484.422 157.763 484.808 157.105 485.1 157.3C486.1 158 486.5 159.5 486.5 161.1C486.5 162.7 486 164.5 485.3 166.4C484.6 168.6 483.9 169.8 483.4 170.2C481.7 171.2 479.1 170.9 475.5 169.2C472.6 172.1 469.7 173.8 466.9 173.8C466.2 173.8 465 173.6 463.8 173.1C462.6 172.6 461.6 172.4 460.9 172.4C456.1 172.4 451.1 174.6 446 179.4L435.2 190.2C432.9 191.8 430.8 193 428.4 193.7ZM159.1 192.2C159.1 192.2 158.9 192.5 158.9 192.7C157.2 195.6 155.7 197.3 154.2 197.3C152.1 197.3 151.1 195.1 151.1 191.3C151.1 188.2 152.3 183.1 154.7 175.7C155.2 174 155.4 173 155.4 172.8C155.1 172.8 154.7 173.7 153.7 175.4C149.9 182.4 148.2 189.3 148.2 195.8C148.2 201.1 149.7 203.7 152.8 203.7C155.9 203.7 158.1 200.1 159.3 192.9C159.5 192.7 159.5 192.4 159.3 192.2C159.3 192.109 159.3 192.06 159.281 192.051C159.259 192.041 159.209 192.091 159.1 192.2ZM201.8 184.1C201.8 186.7 200.6 189.6 198.7 192.7C196.5 195.8 193.9 198.7 190.5 201.1C189.1 202.1 188.3 202.5 188.1 202.5L188.1 202.3C188.1 202.1 188.6 201.6 189.5 200.4C195 194.4 197.9 190.6 197.9 188.4C197.9 186.7 196.9 185.8 195.3 185.8C194.3 185.8 193.4 186 192.7 186.5C192 186.7 191.7 187 191.5 187C191.5 187 191.3 187 191.3 186.8C191.3 186.8 191.3 186.3 191.5 185.4C192.5 181.3 194.4 179.4 197.7 179.4C200.4 179.3 201.8 181 201.8 184.1ZM66.9 196.8C80.6 192 95 186.7 110.1 181.2C110.485 181.123 110.752 181.031 110.945 180.964C111.254 180.858 111.377 180.816 111.5 181C111.7 181 111.7 181.5 111.3 182.2C110.6 184.4 109.9 185.6 109.4 186C96.4 190.6 81.6 196.3 64.5 203.5C65 201.4 65.7 199.2 66.9 196.8Z" id="Group" fill="#595959" fill-rule="evenodd" stroke="none" clip-path="url(#clip_1)" />
  </g>
</svg>