<?xml version="1.0" encoding="utf-8"?>
<svg width="354.80017px" height="199.51704px" viewBox="0 0 354.80017 199.51704" version="1.1" xmlns:xlink="http://www.w3.org/1999/xlink" xmlns="http://www.w3.org/2000/svg">
  <defs>
    <path d="M354.8 0L354.8 0L354.8 199.517L0 199.517L0 0L354.8 0Z" id="path_1" />
    <clipPath id="clip_1">
      <use xlink:href="#path_1" clip-rule="evenodd" fill-rule="evenodd" />
    </clipPath>
  </defs>
  <g id="Surah_50_of_114_(modified)">
    <path d="M354.8 0L354.8 0L354.8 199.517L0 199.517L0 0L354.8 0Z" id="Surah_50_of_114_(modified)" fill="none" stroke="none" />
    <path d="M159.9 11.517C159.9 14.117 162 16.517 166.6 18.917C163.3 22.517 158.2 26.317 151.2 30.6171C145.2 33.9171 139.5 37.317 133.7 40.9171C132.3 41.6171 131.8 42.4171 131.8 42.6171C131.8 42.6171 131.8 42.817 132 42.817C132.2 42.817 133.2 42.6171 134.4 42.1171C142.1 39.317 146.4 37.6171 147.4 37.1171C151 35.7171 155 33.0171 159.6 29.9171C163.4 27.017 166.6 23.9171 169.2 20.317C171.4 21.517 172.8 22.717 173.3 23.717C175.4 20.917 176.4 18.717 176.4 17.517C175.9 16.517 174.5 15.317 172.1 14.1171C173.3 10.7171 173.8 7.81706 173.8 5.21706C173.8 2.41705 173.1 0.717056 171.4 0.217056C169.5 -0.482956 167.1 0.517044 164.2 3.11705C161.3 5.51704 159.9 8.41704 159.9 11.517ZM214.6 22.217C214.6 22.217 214.4 22.517 214.4 22.717C212.7 25.617 211.3 27.317 209.7 27.317C207.6 27.317 206.6 25.1171 206.6 21.317C206.6 18.217 207.8 13.117 210.2 5.71704C210.7 4.01704 210.9 3.01704 210.9 2.81705C210.6 2.81705 210.2 3.71706 209.2 5.41705C205.4 12.4171 203.7 19.317 203.7 25.817C203.7 31.117 205.2 33.717 208.3 33.717C211.4 33.717 213.6 30.117 214.8 22.917C215 22.717 215 22.417 214.8 22.217C214.8 22.1264 214.8 22.0768 214.781 22.0683C214.759 22.0582 214.709 22.1077 214.6 22.217ZM169.7 8.31703C170 9.71704 170 11.217 169.5 12.617C165.9 11.017 164 9.51704 163.9 8.21703C163.9 7.81703 164.3 7.31703 165.3 6.81703C166.3 6.31703 167 6.11703 167.5 6.11703C168.7 6.11703 169.5 6.91704 169.7 8.31703ZM129.9 12.217C132.8 12.217 134 13.417 134 16.017C134 17.417 133.8 19.1171 133 20.6171C132.5 21.6171 131.3 23.2171 129.2 25.6171C126.3 29.017 124.6 31.4171 123.4 32.6171C122 34.817 121 36.017 120.8 36.017L120.6 35.817C120.6 35.6171 121.1 34.817 121.6 33.6171C122.6 31.017 124.2 28.1171 126.9 25.4171C128.1 23.7171 129.5 22.317 131.2 20.6171C130.5 19.2171 129.8 18.7171 128.6 18.7171C127.6 18.7171 126.4 18.9171 125.2 19.7171C112.7 25.9171 100.7 29.3171 89.2 29.3171C83 29.3171 77.2 27.9171 71.9 25.0171C72.9 27.4171 72.4 30.3171 71.2 33.6171C70.7 35.0171 70.5 35.5171 70.2 35.8171C70 35.8171 70 34.8171 70 33.4171C70 30.3171 69.5 27.6171 68.6 25.5171C68.6 25.3171 66.9 22.9171 64 18.5171C64.5 15.4171 65.2 13.9171 66.2 13.9171C66.2 13.9171 67.2 14.4171 68.4 15.6171C70.3 17.0171 72 18.0171 73.7 19.0171C79 21.9171 84.7 23.3171 91 23.3171C97.5 23.3171 103.7 22.3171 110 20.4171C113.4 19.2171 117.7 17.5171 122.7 14.9171C126.3 13.117 128.7 12.217 129.9 12.217ZM193 56.6171C217.2 47.517 242.4 38.4171 268.4 28.817C268.602 28.7593 268.788 28.6932 268.949 28.6356C269.347 28.4938 269.6 28.4037 269.6 28.6171C269.8 28.6171 269.8 29.1171 269.6 29.817C268.6 32.017 267.9 33.217 267.4 33.6171C267.2 33.817 254.9 38.4171 231.2 47.317C207 56.2171 193.3 61.7171 190.6 63.417C191.1 61.1171 191.8 59.017 193 56.6171ZM323.6 57.517C321.2 63.317 320 67.817 320 71.2171C320 75.3171 321 77.4171 323.1 77.4171C324.3 77.4171 325.7 75.7171 327.4 72.8171C327.6 72.6171 327.6 72.3171 327.9 72.1171C327.9 72.1171 328.1 72.1171 328.1 72.3171L328.1 73.0171C326.7 80.2171 324.5 83.8171 321.6 83.8171C318.5 83.8171 317 81.2171 317 75.9171C317 73.3171 317.5 69.9171 318.9 65.6171C320.3 61.3171 321.1 59.1171 321.1 58.9171C321.1 58.4171 320.1 57.5171 318 56.3171C314.2 61.3171 308.9 66.1171 302.2 70.2171C297.6 72.8171 293.1 75.2171 288.3 77.2171C279.4 80.8171 274.1 82.7171 272.9 83.4171C271.7 83.9171 271 84.1171 270.5 84.1171C270.3 84.1171 270.3 83.9171 270.3 83.9171C270.3 83.4171 270.8 82.9171 272.2 82.0171C279.9 77.7171 287.3 73.4171 295 69.0171C305.1 63.2171 312 58.4171 315.4 54.8171C310.8 52.4171 308.7 50.0171 308.7 47.4171C308.7 44.3171 310.1 41.4171 313 38.8171C315.9 36.4171 318.3 35.4171 320.2 36.2171C321.6 36.7171 322.6 38.4171 322.6 41.2171C322.6 43.8171 322.1 46.7171 320.9 49.8171C323.3 51.2171 324.3 52.7171 324.3 54.1171C324.3 54.917 324.1 56.1171 323.6 57.517ZM22.6 40.217C25.5 40.217 27.9 41.617 30 45.017C32.2 48.1171 33.8 52.417 34.6 57.7171C34.8 58.2171 34.8 58.4171 34.8 58.7171L35 58.7171C35 58.517 35.2 58.2171 35.2 57.7171C35.7 54.6171 36.9 49.8171 38.6 43.5171C40.5 39.2171 42.4 37.0171 44.6 37.0171C45.8 37.0171 47 37.7171 48 39.2171C49 40.6171 49.4 41.6171 49.4 42.6171C49.4 43.1171 49.4 44.017 48.9 45.017C48.4 46.417 47.9 47.217 47.5 47.217C47.3 47.217 46.8 46.517 45.8 45.517C45.1 44.517 44.1 44.1171 43.2 44.1171C41.3 44.1171 39.6 48.7171 37.9 57.8171C37.2 61.9171 36.2 64.8171 35.5 66.4171C34.8 67.4171 34.3 68.1171 33.8 68.1171C33.3 68.1171 33.3 67.4171 33.1 66.4171C33.3 64.7171 32.4 61.6171 30.5 57.0171C28.6 52.2171 27.4 50.0171 26.4 50.0171C25.9 50.0171 25.7 50.0171 25.4 50.5171C25.2 50.7171 24.9 51.0171 24.2 51.0171C23.2 51.0171 22.3 50.3171 20.8 49.1171C19.4 47.9171 18.9 46.9171 18.9 46.2171C18.9 46.0171 19.4 44.8171 20.6 42.8171C21.7 41.017 22.4 40.217 22.6 40.217ZM318.3 48.617C318.8 47.217 318.8 45.717 318.5 44.317C318.3 42.917 317.5 42.117 316.3 42.117C315.8 42.117 315.1 42.317 314.1 42.817C313.1 43.317 312.7 43.817 312.7 44.217C312.8 45.517 314.7 47.017 318.3 48.617ZM97 46.7171L93.2 54.6171C92.2 53.717 90.1 52.017 87.0001 50.1171C83.9001 47.9171 82.2001 46.7171 81.7001 46.7171C81.4001 46.7171 80.9001 47.2171 80.7001 47.7171L76.1001 57.3171C75.9001 57.8171 75.9001 58.1171 76.1001 58.3171C80.0001 60.7171 83.8 63.3171 87.4001 66.2171C87.9001 66.5171 88.4001 66.2171 88.6001 65.5171C90.1001 63.3171 91.3001 60.7171 92.7001 57.8171C96.8 60.4171 100.4 62.8171 103.5 65.2171C103.9 65.4171 104.4 65.4171 104.9 64.7171C108 59.417 109.7 55.8171 109.7 54.1171C109.7 53.6171 107.8 52.2171 104.2 49.8171C100.4 47.2171 98.5 46.0171 98 46.0171C97.5 46.0171 97.2 46.2171 97 46.7171ZM162.5 47.517L158.7 55.417C157.8 54.417 155.6 52.717 152.5 50.9171C149.4 48.7171 147.7 47.5171 147.2 47.5171C146.9 47.5171 146.4 48.0171 146.2 48.5171L141.6 58.1171C141.4 58.6171 141.4 58.9171 141.6 59.1171C145.5 61.5171 149.3 64.1171 152.9 67.0171C153.4 67.3171 153.9 67.0171 154.1 66.3171C155.6 64.1171 156.8 61.517 158.2 58.6171C162.3 61.2171 165.9 63.6171 169 66.017C169.4 66.2171 169.9 66.2171 170.4 65.517C173.5 60.217 175.2 56.6171 175.2 54.917C175.2 54.417 173.3 53.017 169.7 50.6171C165.9 48.017 164 46.817 163.5 46.817C163 46.817 162.7 47.017 162.5 47.517ZM241.2 64.217C239.1 60.817 236.7 59.417 233.8 59.417C233.6 59.417 232.9 60.217 231.8 62.0171C230.6 64.0171 230.1 65.2171 230.1 65.4171C230.1 66.1171 230.6 67.1171 232 68.3171C233.5 69.517 234.4 70.2171 235.4 70.2171C236.1 70.2171 236.4 69.9171 236.6 69.7171C236.9 69.2171 237.1 69.2171 237.6 69.2171C238.6 69.2171 239.8 71.4171 241.7 76.2171C243.6 80.8171 244.5 83.917 244.3 85.6171C244.5 86.6171 244.5 87.3171 245 87.3171C245.5 87.3171 246 86.6171 246.7 85.6171C247.4 84.017 248.4 81.1171 249.1 77.017C250.8 67.917 252.5 63.317 254.4 63.317C255.3 63.317 256.3 63.717 257 64.717C258 65.717 258.5 66.417 258.7 66.417C259.1 66.417 259.6 65.617 260.1 64.217C260.6 63.217 260.6 62.317 260.6 61.817C260.6 60.817 260.2 59.817 259.2 58.417C258.2 56.917 257 56.217 255.8 56.217C253.6 56.217 251.7 58.417 249.8 62.717C248.1 69.017 246.9 73.817 246.4 76.917C246.4 77.417 246.2 77.717 246.2 77.917L246 77.917C246 77.6171 246 77.417 245.8 76.917C245 71.617 243.4 67.317 241.2 64.217ZM181.5 73.417C181.5 77.217 179.6 82.517 175.7 89.017C173.3 93.1171 169.7 98.6171 164.9 105.817C169.7 111.317 173.1 116.417 174.7 120.717C175.7 123.817 176.4 127.917 176.4 132.517C176.4 134.417 175.9 136.817 175 139.917C174.3 142.817 173.3 144.917 172.4 146.417C170.5 149.317 167.4 152.217 162.6 155.017C157.6 158.417 153.2 160.017 149.6 160.017C143.8 160.017 141 155.717 141 147.017C141 141.217 142 135.517 143.9 130.217C145.8 125.617 148.9 119.617 154 111.717C149.7 107.617 145.1 101.917 140.1 94.717C139.6 94.017 138.4 92.817 136.5 90.917C135.5 89.917 135.1 88.717 135.1 87.317C135.1 85.117 135.3 82.717 135.8 79.917C136.5 77.017 137 75.817 137.2 75.817C137.9 75.817 140.1 77.017 144.2 79.617C148 82.217 151.2 84.217 153.1 85.817C154.3 86.517 154.8 87.217 154.8 87.217L154.8 87.417C154.8 87.6171 154.1 87.917 152.4 87.917C149.3 87.917 147.6 88.1171 147.6 88.417C147.6 88.6171 148.1 89.1171 149 90.317C152.8 95.117 156.7 98.717 160.8 101.617C161.8 100.217 165.1 95.417 170.4 87.217C175 80.217 177.6 75.417 178.8 72.617C180 69.717 180.7 68.517 181.2 68.517C181.3 68.6171 181.5 70.017 181.5 73.417ZM72.3 79.817C72.3 80.317 72.1 81.217 71.6 82.217C71.4 83.617 70.9 84.417 70.2 84.417C70 84.417 69.5 83.717 68.5 82.717C67.8 81.717 66.8 81.317 66.1 81.317C64.2 81.317 62.3 85.917 60.6 95.017C59.9 99.1171 59.2 102.017 58.2 103.617C57.9668 103.95 57.7558 104.25 57.5595 104.502C57.7827 103.839 57.9 103.411 57.9001 103.217L57.9001 103.017C57.7553 103.017 57.1913 103.646 56.1702 104.827C56.271 105.136 56.3984 105.317 56.5 105.317C56.8334 105.317 57.1668 105.006 57.5595 104.502C57.3219 105.208 56.9641 106.179 56.5 107.417C54.8 111.217 51.5 115.117 46.4 118.717C41.8 122.117 37.8 124.517 34.2 126.117C33.5 126.617 29.2 128.317 21.2 131.117C20 131.617 19.3 131.817 18.8 131.817C18.6 131.817 18.6 131.617 18.6 131.617C18.6 131.417 19.3 130.617 20.5 129.917C27 126.117 36.1 120.517 48.1 112.617C51 110.417 53.1 108.317 54.8 106.417C55.3247 105.81 55.7807 105.278 56.1702 104.827C56.0726 104.528 56 104.109 56 103.617C56 101.917 55 98.8171 53.1 94.2171C51.2 89.4171 50 87.2171 49.3 87.2171C48.6 87.2171 48.3 87.2171 48.1 87.7171C48.1 87.9171 47.6 88.2171 46.9 88.2171C45.9 88.2171 45 87.517 43.5 86.3171C42.3 85.1171 41.6 84.1171 41.6 83.4171C41.6 83.2171 42.1 82.0171 43.3 80.0171C44.5001 78.1171 45.2 77.4171 45.5001 77.4171C48.1001 77.4171 50.5001 78.8171 52.7001 82.2171C55.1001 85.6171 56.5001 89.6171 57.5001 94.9171L57.5001 95.9171C57.6094 96.0264 57.659 96.076 57.6814 96.0658C57.7001 96.0573 57.7001 96.0078 57.7001 95.9171C57.7001 95.7171 57.9001 95.4171 58.2001 94.9171C58.4001 91.8171 59.6001 87.0171 61.3001 80.7171C63.2001 76.4171 65.1001 74.2171 67.3001 74.2171C68.5001 74.2171 69.7001 74.9171 70.9001 76.4171C71.8 77.917 72.3 78.917 72.3 79.817ZM13.5 97.817C13.5 97.617 13.7 97.317 13.7 97.317C13.8093 97.2077 13.8589 97.1581 13.8814 97.1683C13.9 97.1768 13.9 97.2263 13.9 97.317C14.1 97.517 14.1 97.817 13.9 98.017C12.7 105.217 10.5 108.817 7.40002 108.817C7.0821 108.817 6.781 108.79 6.49663 108.735C6.53081 109.12 6.45593 109.734 6.30003 110.617C3.90004 122.817 2.90004 129.617 2.90004 131.217C2.90004 138.617 5.30003 145.417 10.3 151.617C17 160.017 26.9 164.117 39.6 164.117C50.2 164.117 61.7001 161.017 74.4 155.017C84 150.217 93.6 144.217 102.7 137.017C110.4 131.017 114.7 126.717 115.9 124.517C115.9 121.417 114.2 119.017 110.9 116.817C107.8 115.117 104.4 114.417 100.3 114.417L90.7 114.417C87.1 114.417 84.2 113.217 82.1 110.817C79.9 108.417 79 105.517 79 101.917C79 96.917 80.7 91.817 84.3 86.517C87.7 81.517 91.3 79.1171 94.9 79.1171C100.9 79.1171 106.7 82.517 111.9 89.2171C117.4 96.6171 120.3 105.317 120.3 115.617C120.3 125.717 117.7 133.417 112.6 139.417C105.9 147.317 96.5 155.217 84.8 162.717C68.2 173.517 53.4 178.817 39.9 178.817C25.3 178.817 14.5 173.817 7.7 163.917C2.39999 156.517 0 146.917 0 135.117C0.100037 131.417 0.300034 127.817 0.800034 124.517C1.80003 118.717 3.00003 114.217 4.40004 110.117C4.72799 109.199 5.14198 108.668 5.52914 108.411C3.69438 107.492 2.80002 105.01 2.80002 100.917C2.80002 94.417 4.50002 87.517 8.30002 80.517C9.30002 78.817 9.70001 77.917 10 77.917C10 78.1171 9.80002 79.1171 9.30002 80.817C6.90002 88.217 5.70001 93.317 5.70001 96.417C5.70001 100.217 6.70001 102.417 8.80002 102.417C10.4 102.417 11.8 100.717 13.5 97.817ZM199 101.717C200 102.917 200.7 104.517 201.2 106.717C202.4 110.817 204.8 116.617 208.1 123.617C211 129.917 212.4 133.217 212.4 133.717C212.4 135.717 209.5 138.817 204 143.117C199.141 146.728 192.817 150.857 185.026 155.446C185.756 150.965 187.04 145.577 188.9 139.217C189.2 137.717 189.4 136.517 189.4 135.817C189.4 135.317 189.4 135.117 189.2 135.117C188.7 135.117 188.2 136.117 187 138.517C184.625 144.93 182.885 151.166 181.862 157.289C178.666 159.13 175.245 161.041 171.6 163.017C162.2 168.117 150.5 173.617 136.3 179.617C115.9 188.217 104.8 193.017 102.9 194.017C97.6 196.417 95 197.917 95 198.117C95 198.317 95 198.317 95.5 198.317C96.5 198.317 98.9001 198.017 102.7 197.317C106.3 196.817 115.4 194.717 129.8 191.317C143.5 188.017 150.7 186.317 151.2 186.317C153.8 186.317 162.2 182.217 176.6 173.817C178.048 173.006 179.458 172.2 180.831 171.398C181.096 178.582 183.072 184.775 186.6 189.417C190.9 195.417 197.1 198.517 205.3 198.517C214.9 198.517 225.9 193.517 238.9 183.917C247.6 177.417 255.5 169.917 262.7 161.317C265.8 157.717 268.4 153.117 270.1 147.617C271.6 143.217 272.3 139.917 272.3 137.017L272.8 136.517L272.8 123.317C271.8 123.817 271.3 123.817 271.1 123.817C268.7 118.817 265.8 114.717 262.7 111.117C259.1 107.517 256 105.617 252.9 105.617C248.8 105.617 245 107.717 241.4 111.817C237.6 116.617 235.9 121.917 235.9 127.917C235.9 135.817 241.7 139.917 253.2 139.917C258.5 139.917 262.8 139.217 265.7 138.217C266.2 139.917 266.7 141.617 266.7 143.017C266.7 145.117 263.1 149.417 256.1 156.317C248.4 163.517 240.5 169.517 232.3 174.517C221.9 180.817 213.3 183.917 206.1 183.917C197.7 183.917 191.7 181.217 187.9 176.217C186.471 174.073 185.467 171.646 184.889 168.977C197.162 161.488 206.129 154.43 211.9 147.917C213.9 145.717 215.3 142.617 216.5 138.517C217.4 134.917 217.9 132.017 217.9 129.617C217.9 124.517 216.4 119.017 213.8 112.317C212.1 108.517 210.2 104.417 208.5 100.317C211.4 101.017 213.3 101.517 214 101.517C214.5 101.517 214.7 101.217 214.7 101.017C214.7 100.517 214 99.617 212.3 97.917C208.3 93.817 204.7 89.917 201.3 86.117C200.8 85.617 200.5 85.417 200.3 85.417C199.8 85.417 199.5 85.917 199.3 87.117C198.8 88.317 198.6 90.517 198.1 93.617C197.6 96.917 197.6 98.617 197.6 99.117C197.8 99.517 198.3 100.317 199 101.717ZM92.9001 93.1171C97.3 93.1171 101.3 95.7171 104.7 101.017C99.9 100.517 96.3 100.217 94.1001 100.317C90.0001 99.8171 88.1001 98.4171 88.1001 96.2171C88.1001 94.1171 89.8 93.1171 92.9001 93.1171ZM298.9 108.217C298.2 108.217 297.2 108.617 296 109.617C292.2 113.017 288.3 115.817 284.4 117.817C283.2 118.617 279.1 120.517 272.9 123.617L272.9 136.817C281.3 132.917 287.8 128.917 291.6 124.317C291.6 135.317 296.4 141.117 306.5 141.117C314.9 141.117 321.8 136.317 327.1 126.717C330.3 132.517 333.9 135.617 337.7 135.617C343.5 135.617 347.8 133.017 350.7 127.717C353.4 123.317 354.8 118.317 354.8 112.317C354.8 108.417 353.6 105.117 351.7 102.217C351 101.217 350.5 101.017 350 101.017C349.5 101.017 349 101.817 348.8 103.217C347.4 107.717 346.4 111.117 346.2 113.017C348.3 116.617 349.3 118.617 349.3 118.817C348.3 120.417 346.2 121.417 342.8 121.417C340.2 121.417 337.8 120.417 336.1 119.017C334.2 117.617 333.2 115.917 333.2 114.217C333.2 114.717 333.9 112.817 334.9 108.717C335.4 106.617 335.2 105.617 334.2 105.617C333.5 105.617 332.8 106.017 331.8 107.017C329.4 110.917 326.8 114.717 324.4 118.817C320.5 123.917 315.5 126.517 309.5 126.517C302 126.517 298.2 123.617 298.2 118.317C298.2 117.117 298.4 115.617 298.9 113.717C299.4 111.817 299.6 110.317 299.6 109.617C299.6 108.717 299.4 108.217 298.9 108.217ZM172.2 132.417C169.6 127.117 165 121.617 158.8 116.317C156.6 118.517 154 122.517 150.6 128.317C146.8 134.817 145.1 138.917 145.1 141.017C145.1 143.917 147 145.317 151.3 145.317C153.2 145.317 155.6 144.617 158.7 143.417C163 141.517 167.1 138.817 170.5 135.517C171.9 134.117 172.4 133.117 172.2 132.417ZM259.3 125.417C255.7 120.817 252.6 118.717 249.7 118.717C245.4 118.717 243.5 119.717 243.5 122.117C243.5 125.017 246.4 126.417 252.1 126.417C253.964 126.417 256.064 126.023 258.4 125.585C258.696 125.53 258.996 125.473 259.3 125.417ZM70.7 134.517C72.6 131.417 73.8 128.517 73.8 125.917C73.8 122.817 72.3 121.117 69.7 121.217C66.4 121.217 64.5 123.117 63.5 127.217C63.3 128.117 63.3 128.617 63.3 128.617C63.3 128.817 63.5 128.817 63.5 128.817C63.7 128.817 64 128.517 64.7 128.317C65.4 127.817 66.3 127.617 67.3 127.617C68.9 127.617 69.9 128.517 69.9 130.217C69.9 132.417 67 136.217 61.5 142.217C60.6 143.417 60.1 143.917 60.1 144.117L60.1 144.317C60.3 144.317 61.1 143.917 62.5 142.917C65.9001 140.517 68.5 137.617 70.7 134.517ZM125.6 160.917C125.6 160.917 125.4 161.217 125.4 161.417C123.7 164.317 122.2 166.017 120.7 166.017C118.6 166.017 117.6 163.817 117.6 160.017C117.6 156.917 118.8 151.817 121.2 144.417C121.7 142.717 121.9 141.717 121.9 141.517C121.6 141.517 121.2 142.417 120.2 144.117C116.4 151.117 114.7 158.017 114.7 164.517C114.7 169.817 116.2 172.417 119.3 172.417C122.4 172.417 124.6 168.817 125.8 161.617C126 161.417 126 161.117 125.8 160.917C125.8 160.826 125.8 160.777 125.781 160.768C125.759 160.758 125.709 160.808 125.6 160.917ZM285.2 189.017C282.6 189.717 281.1 190.217 280.6 190.217L280.6 190.017C280.6 190.017 281.6 189.317 283.5 188.117C285.4 186.917 288.3 185.017 292.4 181.917C294.3 180.017 297.2 176.917 300.8 172.517C303.2 169.617 305.8 167.017 308.7 165.117C312.3 162.517 315.7 161.317 319.3 161.317C320 161.317 321.2 161.517 322.7 162.017C323.9 162.517 325.1 162.717 326.1 162.717C328 162.717 329.5 162.017 330.7 160.517C331.4 159.117 332.4 157.917 333.3 156.417C333.8 155.417 334.5 155.017 335 155.017C335.2 155.017 335.2 155.217 335.2 155.717C335.2 156.217 335 157.417 334.5 158.817C334 159.517 335.9 159.817 339.5 159.817C340 159.817 340.2 159.817 340.2 159.617C340.2 159.617 340 158.617 339.5 157.017C339.3 156.517 339.5 155.817 340.2 154.817L340.28 154.681C341.222 153.08 341.608 152.422 341.9 152.617C342.9 153.317 343.3 154.817 343.3 156.417C343.3 158.117 342.8 159.817 342.1 161.717C341.4 163.917 340.7 165.117 340.2 165.517C338.5 166.517 335.9 166.217 332.3 164.517C329.4 167.417 326.5 169.117 323.7 169.117C323 169.117 321.8 168.917 320.6 168.417C319.4 167.917 318.4 167.717 317.7 167.717C312.9 167.717 307.9 169.917 302.8 174.717L292 185.517C289.8 187.117 287.6 188.317 285.2 189.017ZM82.2 189.717C84.1 186.617 85.3 183.717 85.3 181.117C85.3 178.017 83.8 176.317 81.2 176.517C77.9 176.517 76 178.417 75 182.517C74.8 183.417 74.8 183.917 74.8 183.917C74.8 184.117 75 184.117 75 184.117C75.2 184.117 75.5 183.817 76.2 183.617C76.9 183.117 77.8 182.917 78.8 182.917C80.4 182.917 81.4 183.817 81.4 185.517C81.4 187.717 78.5 191.517 73 197.517C72.1 198.717 71.6 199.217 71.6 199.417L71.6 199.517C71.8 199.517 72.6 199.117 74 198.117C77.4001 195.717 80 192.817 82.2 189.717Z" id="Group" fill="#595959" fill-rule="evenodd" stroke="none" clip-path="url(#clip_1)" />
  </g>
</svg>