<?xml version="1.0" encoding="utf-8"?>
<svg width="542.70013px" height="203.90004px" viewBox="0 0 542.70013 203.90004" version="1.1" xmlns:xlink="http://www.w3.org/1999/xlink" xmlns="http://www.w3.org/2000/svg">
  <defs>
    <path d="M542.7 0L542.7 0L542.7 203.9L0 203.9L0 0L542.7 0Z" id="path_1" />
    <clipPath id="clip_1">
      <use xlink:href="#path_1" clip-rule="evenodd" fill-rule="evenodd" />
    </clipPath>
  </defs>
  <g id="Surah_86_of_114_(modified)">
    <path d="M542.7 0L542.7 0L542.7 203.9L0 203.9L0 0L542.7 0Z" id="Surah_86_of_114_(modified)" fill="none" stroke="none" />
    <path d="M222.5 8C220.4 4.59999 218 3.2 215.1 3.2C214.9 3.2 214.1 3.89999 213.1 5.80002C211.9 7.80002 211.4 9.00002 211.4 9.20001C211.4 9.90001 211.9 10.9 213.3 12.1C214.8 13.3 215.7 14 216.7 14C217.4 14 217.7 13.7 217.9 13.5C218.2 13 218.4 13 218.9 13C219.9 13 221.1 15.2 223 20C224.9 24.6 225.8 27.7 225.6 29.4C225.8 30.4 225.8 31.1 226.3 31.1C226.8 31.1 227.3 30.4 228 29.4C228.7 27.8 229.7 24.9 230.4 20.8C232.1 11.7 233.8 7.09999 235.7 7.09999C236.6 7.09999 237.6 7.49999 238.3 8.49998C239.3 9.49998 239.8 10.2 240 10.2C240.4 10.2 240.9 9.39998 241.4 7.99999C241.9 6.99998 241.9 6.09999 241.9 5.59999C241.9 4.59999 241.5 3.59999 240.5 2.2C239.5 0.699997 238.3 0 237.1 0C234.9 0 233 2.2 231.1 6.5C229.4 12.8 228.2 17.6 227.7 20.7C227.7 21.2 227.5 21.5 227.5 21.7L227.3 21.7C227.3 21.4 227.3 21.2 227.1 20.7C226.3 15.4 224.7 11.1 222.5 8ZM274.3 13.7C275.8 16.8 276.5 20.6 276.5 25.2C276.5 30.5 277.5 47.6 279.6 76.4C281.8 105.2 283 121.7 283 125.8C283 134.171 278.035 140.357 268.5 144.457L268.5 144.4C262.2 147 253.1 149.4 241.1 151.1C247.4 147.3 252.4 143 256 137.7C259.3 133.2 261 129.1 261 125.5C261 122.2 259.3 117.8 255.5 112.8C251.1 106.5 245.9 103.4 240.1 103.4C227.6 103.4 211.5 113 192.1 132.4C194.2 117.8 195.2 107.7 195.2 102.2C195.2 99.5 194.3 88 192.6 67.6C191 47.7 190 37.3 190 37.1C190 36.1 190.2 35.6 190.7 36.1C194.7 40.9 196.9 42.4 196.9 40.2C196.9 39.5 196.6 38.5 196.4 37.1C195.9 35.2 194 30.4 191.1 22.5C188.2 15 186.6 10.5 185.6 8.79999C185.3 8.09999 184.8 7.59999 184.6 7.59999C184.3 7.59999 184.1 8.09999 183.6 8.79999C180.9 15.2 179.5 19.3 179.5 21C181.2 24.3 181.9 28.2 181.7 32.5C181.7 35.2 182.7 49.3 184.6 75C186.7 100.9 187.7 114.8 187.7 116.5L187.7 132.6C187.4 135.2 187 137.4 186 138.6C182.9 142.6 179.3 147.2 175 152C172.02 152 167.573 150.614 162.247 148.357C163.818 146.879 165.236 145.427 166.5 144C168.5 141.8 169.9 138.7 171.1 134.6C172 131 172.5 128.1 172.5 125.7C172.5 120.6 171 115.1 168.4 108.4C166.7 104.6 164.8 100.5 163.1 96.4C166 97.1 167.9 97.6 168.6 97.6C169.1 97.6 169.3 97.3 169.3 97.1C169.3 96.6 168.6 95.7 166.9 94C162.9 89.9 159.3 86 155.9 82.2C155.4 81.7 155.1 81.5 154.9 81.5C154.4 81.5 154.1 82 153.9 83.2C153.4 84.4 153.2 86.6 152.7 89.7C152.2 93 152.2 94.7 152.2 95.2C152.4 95.6 152.9 96.4 153.6 97.8C154.6 99 155.3 100.6 155.8 102.8C157 106.8 159.4 112.6 162.7 119.7C165.6 126 167 129.3 167 129.8C167 131.8 164.1 134.9 158.6 139.2C156.986 140.399 155.211 141.655 153.274 142.967C151.617 141.707 150 140.315 148.4 138.8C142.9 133.5 139.7 119.3 138.9 96.5C138.4 86.7 138.1 76.6 137.9 66.5C137.4 50.9 136.9 40.3 136.2 35.3C134.7 21.4 132.6 11.5 129.7 6C129.2 5 128.7 4.3 128.5 4.3C128.3 4.3 127.8 5 127.3 6.2C124.9 11.7 123.9 15.5 123.9 17.7C126.3 23.5 128.2 32.1 129.4 43.9C129.9 47.5 130.6 65.3 131.8 97.7C132.5 121.7 134.5 136.5 137.1 142.3C138.441 145.262 140.095 147.819 142.044 150.091C137.342 152.914 132.061 155.922 126.2 159.1C116.8 164.2 105.1 169.7 90.9 175.7C70.5 184.3 59.4 189.1 57.5 190.1C52.2 192.5 49.6 194 49.6 194.2C49.6 194.4 49.6 194.4 50.1 194.4C51.1 194.4 53.5 194.1 57.3 193.4C60.9 192.9 70 190.8 84.4 187.4C98.1 184.1 105.3 182.4 105.8 182.4C108.4 182.4 116.8 178.3 131.2 169.9C138.846 165.616 145.452 161.46 151.039 157.45C153.599 158.932 156.693 160.466 160.4 162L160.4 150.041Q160.45 149.997 160.5 149.953L160.5 162.2C168 165.1 179.7 166.5 195.8 166.5C215.2 166.5 232.7 165.3 248.8 162.4C258.312 160.716 264.78 159.031 268.4 157.639L268.4 157.7C276.1 154.4 282.1 147.4 286.2 137.1C289.1 129.7 290.5 122 290.5 114.1C290.5 109 289.5 93.9 287.6 68.7C285.7 43.3 284.7 30.3 284.7 30.1C284.7 28.9 284.9 28.6 285.4 29.1C289.4 33.9 291.6 35.1 291.6 32.9C291.6 32.4 291.3 31.2 291.1 29.8C290.4 28.1 288.7 23.3 285.8 15.4C282.9 7.89999 281 3.39999 280.3 1.7C279.8 0.699997 279.6 0.5 279.1 0.5C278.9 0.5 278.6 0.800003 278.4 1.5C275.5 7.89999 274.3 12 274.3 13.7ZM155.8 50.9C156.3 47.5 157.5 43.7 159.4 38.9C160.8 35.3 161.6 31.7 161.6 28.1C161.6 21.1 158.2 14.7 151.8 8.19998C151.3 7.69998 151.3 7.19998 151.8 6.79999L154 2.99998C154.2 2.49998 154.5 2.49998 155 2.99998C161.2 7.99998 164.6 15.5 164.6 25.3C164.6 29.9 163.4 34.9 161.5 39.9C159.3 45.2 158.4 48.8 158.4 50.7C158.4 54.8 159.4 56.9 161.5 56.9C162.9 56.9 164.4 55.2 166.1 52.3C166.1 52.1 166.3 51.8 166.3 51.8C166.409 51.6906 166.459 51.6411 166.481 51.6513C166.5 51.6597 166.5 51.7093 166.5 51.8L166.5 52.5C165.3 59.7 163.1 63.3 160 63.3C157.1 63.3 155.4 60.2 155.4 54.4C155.321 53.5285 155.493 52.5942 155.667 51.6467C155.713 51.3984 155.758 51.1492 155.8 50.9ZM93.9 2.89999C93.2 2.89999 92.2 3.39999 91.5 4.59999C88.1 11.1 85.7 18 84.6 25.8C84.4 26.7 84.4 27.7 84.4 28.4C84.4 32.2 85.8 34.4 89.2 34.4C92.6 34.4 95.2 32.7 97.6 29.8C98.3 28.8 98.8 26.2 99.3 22.1C99.5 18.5 97.1 14.7 92.1 11.1C92.8 8.7 93.7 6.29999 94.7 4.09999C94.7 3.79999 94.9 3.59999 94.9 3.59999C94.9 3.09999 94.4 2.89999 93.9 2.89999ZM296.4 17.8C297.9 21 298.6 24.8 298.6 29.6C298.6 33.6 299.8 52.6 302.3 86.4999C304.7 120.3 305.9 139.5 305.9 144.3C305.9 149.4 305.7 153.9 305.2 158C305.171 158.379 305.142 158.744 305.114 159.093C304.95 161.135 304.829 162.646 305 163.5C305.2 164.2 305.5 164.2 306.2 163C306.7 162.1 307.1 160.9 308.1 159.2C311.4 150.6 313.1 140.5 313.1 129.2C313.1 125.4 312.2 108.8 310 79.3C307.8 49.6 306.6 34.7 306.6 34.2C306.6 33 306.8 32.5 307.3 33.2C311.6 38 313.5 39.2 313.5 37C313.5 36.5 313.5 35.3 313 34.1C312.5 32.2 310.8 27.4 307.7 19.5C304.8 12 303.1 7.49998 302.4 5.79999C301.9 5.09999 301.7 4.59999 301.2 4.59999C301 4.59999 300.7 5.09999 300.5 5.79999C297.6 12 296.4 16.1 296.4 17.8ZM347.8 16.9C347.8 19.5 349.9 21.9 354.5 24.3C351.2 27.9 346.1 31.7 339.1 36C333.1 39.3 327.4 42.7 321.6 46.3C320.2 47 319.7 47.8 319.7 48C319.7 48 319.7 48.2 319.9 48.2C320.1 48.2 321.1 48 322.3 47.5C330 44.7 334.3 43 335.3 42.5C338.9 41.1 342.9 38.4 347.5 35.3C351.3 32.4 354.5 29.3 357.1 25.7C359.3 26.9 360.7 28.1 361.2 29.1C363.3 26.3 364.3 24.1 364.3 22.9C363.8 21.9 362.4 20.7 360 19.5C361.2 16.1 361.7 13.2 361.7 10.6C361.7 7.8 361 6.10001 359.3 5.60001C357.4 4.89999 355 5.89999 352.1 8.5C349.2 10.9 347.8 13.8 347.8 16.9ZM402.5 27.6C402.5 27.6 402.3 27.9 402.3 28.1C400.6 31 399.2 32.7 397.6 32.7C395.5 32.7 394.5 30.5 394.5 26.7C394.5 23.6 395.7 18.5 398.1 11.1C398.6 9.39999 398.8 8.39999 398.8 8.2C398.5 8.2 398.1 9.10001 397.1 10.8C393.3 17.8 391.6 24.7 391.6 31.2C391.6 36.5 393.1 39.1 396.2 39.1C399.3 39.1 401.5 35.5 402.7 28.3C402.9 28.1 402.9 27.8 402.7 27.6C402.7 27.5093 402.7 27.4597 402.681 27.4513C402.659 27.4411 402.609 27.4907 402.5 27.6ZM357.6 13.7C357.9 15.1 357.9 16.6 357.4 18C353.8 16.4 351.9 14.9 351.8 13.6C351.8 13.2 352.2 12.7 353.2 12.2C354.2 11.7 354.9 11.5 355.4 11.5C356.6 11.5 357.4 12.3 357.6 13.7ZM89.4 17.6C94.4 20.4 96.8 22.6 96.8 23.8C96.3 24.8 95.1 25.7 93.5 26.5C91.8 27.4 90.4 27.9 89.2 27.9C87.7 27.9 87 26.9 87 25.5C87 23.1 87.7 20.5 89.4 17.6ZM41.3 47.8C41.3 47.6 41.5 47.3 41.5 47.3C41.6093 47.1907 41.6589 47.1411 41.6814 47.1513C41.7 47.1597 41.7 47.2093 41.7 47.3C41.9 47.5 41.9 47.8 41.7 48C40.5 55.2 38.3 58.8 35.2 58.8C32.1 58.8 30.6 56.2 30.6 50.9C30.6 44.4 32.3 37.5 36.1 30.5C37.1 28.8 37.5 27.9 37.8 27.9C37.8 28.1 37.6 29.1 37.1 30.8C34.7 38.2 33.5 43.3 33.5 46.4C33.5 50.2 34.5 52.4 36.6 52.4C38.2 52.4 39.7 50.7 41.3 47.8ZM260.9 29.3C240.8 36.8 221.6 44 203.1 50.7C201.9 53.1 201.2 55.2 200.6 57.4C223.2 48 243.1 40.3 259.9 34.1C260.4 33.7 261.1 32.5 262.1 30.3C262.3 29.6 262.3 29.1 262.3 29.1C262.151 28.8764 261.835 28.9861 261.394 29.1392C261.244 29.1916 261.078 29.2491 260.9 29.3ZM380.9 62C405.1 52.9 430.3 43.8 456.3 34.2C456.502 34.1422 456.688 34.0761 456.849 34.0185C457.247 33.8767 457.5 33.7866 457.5 34C457.7 34 457.7 34.5 457.5 35.2C456.5 37.4 455.8 38.6 455.3 39C455.1 39.2 442.8 43.8 419.1 52.7C394.9 61.6 381.2 67.1 378.5 68.8C379 66.5 379.7 64.4 380.9 62ZM511.5 63.2C509.1 69 507.9 73.5 507.9 76.9C507.9 81 508.9 83.1 511 83.1C512.2 83.1 513.6 81.4 515.3 78.5C515.5 78.3 515.5 78 515.8 77.8C515.8 77.8 516 77.8 516 78L516 78.7C514.6 85.9 512.4 89.5 509.5 89.5C506.4 89.5 504.9 86.9 504.9 81.6C504.9 79 505.4 75.6 506.8 71.3C508.2 67 509 64.8 509 64.6C509 64.1 508 63.2 505.9 62C502.1 67 496.8 71.8 490.1 75.9C485.5 78.5 481 80.9 476.2 82.9C467.3 86.5 462 88.4 460.8 89.1C459.6 89.6 458.9 89.8 458.4 89.8C458.2 89.8 458.2 89.6 458.2 89.6C458.2 89.1 458.7 88.6 460.1 87.7C467.8 83.4 475.2 79.1 482.9 74.7C493 68.9 499.9 64.1 503.3 60.5C498.7 58.1 496.6 55.7 496.6 53.1C496.6 50 498 47.1 500.9 44.5C503.8 42.1 506.2 41.1 508.1 41.9C509.5 42.4 510.5 44.1 510.5 46.9C510.5 49.5 510 52.4 508.8 55.5C511.2 56.9 512.2 58.4 512.2 59.8C512.2 60.5 512 61.7 511.5 63.2ZM95.1 51.9L98.9 44C99.1 43.5 99.4 43.3 99.9 43.3C100.4 43.3 102.3 44.5 106.1 47.1C109.7 49.5 111.6 50.9 111.6 51.4C111.6 53.1 109.9 56.7 106.8 62C106.3 62.7 105.8 62.7 105.4 62.5C102.3 60.1 98.7 57.7 94.6 55.1C93.2 58 92 60.6 90.5 62.8C90.3 63.5 89.8 63.8 89.3 63.5C85.7 60.6 81.9 58 78 55.6C77.8 55.4 77.8 55.1 78 54.6L82.6 45C82.8 44.5 83.3 44 83.6 44C84.1 44 85.8 45.2 88.9 47.4C92 49.2 94.1 50.9 95.1 51.9ZM506.2 54.3C506.7 52.9 506.7 51.4 506.4 50C506.2 48.6 505.4 47.8 504.2 47.8C503.7 47.8 503 48 502 48.5C501 49 500.6 49.5 500.6 49.9C500.7 51.2 502.6 52.6 506.2 54.3ZM350.4 52.9L346.6 60.8C345.7 59.8 343.5 58.1 340.4 56.3C337.3 54.1 335.6 52.9 335.1 52.9C334.8 52.9 334.3 53.4 334.1 53.9L329.5 63.5C329.3 64 329.3 64.3 329.5 64.5C333.4 66.9 337.2 69.5 340.8 72.4C341.3 72.7 341.8 72.4 342 71.7C343.5 69.5 344.7 66.9 346.1 64C350.2 66.6 353.8 69 356.9 71.4C357.3 71.6 357.8 71.6 358.3 70.9C361.4 65.6 363.1 62 363.1 60.3C363.1 59.8 361.2 58.4 357.6 56C353.8 53.4 351.9 52.2 351.4 52.2C350.9 52.2 350.6 52.4 350.4 52.9ZM250.1 70.4C250.1 72.3 249.6 74.5 248.7 76.4C247.5 79 246.1 80.5 244.4 80.5C241.5 80.5 239.6 78.6 238.4 74.7C237 79.5 234.6 82.1 231 82.1C229.8 82.1 228.6 81.4 227.6 79.9C226.4 78.5 225.9 76.3 225.9 73.9L225.9 67.7C225.9 67.2 225.4 67 224.9 66.7C224.2 66.5 223.9 66 223.9 65.3C223.9 63.9 224.4 62.7 225.3 61.5C226.3 60.3 227 59.8 227.5 59.8C228.2 59.8 228.7 61 228.7 63.6C228.7 65 228.5 66.2 228.5 67.2C228.3 68.2 228.3 68.9 228.3 69.6C228.3 71 228.5 72.5 229 73.7C229.7 75.1 230.7 76.1 231.6 76.1C233 76.1 234.2 75.3999 235.4 74.2C236.6 73 237.3 71.6 237.3 69.9C237.3 68.9 236.8 67.5 236.3 65.1C235.6 62.9 235.3 61.5 235.3 61C235.3 60.5 235.5 59.8 236 58.6C236.5 57.6 237 57.2 237.2 57.2C237.7 57.2 238.2 58.6 238.9 61.5C239.6 64.6 240.1 66.8 240.1 68.2C240.1 72.3 241.5 74.4 244.7 74.4C246.1 74.4 247.1 73.7 247.3 72.2C244.7 67.4 243.2 63.8 243.2 61.2C243.2 59.8 243.4 58.6 244.4 57.4C244.9 56.7 245.1 56.2 245.4 56.2C245.7 56.2 245.9 56.7 245.9 57.6C246.1 58.8 246.4 60 246.6 61C246.6 61 247.3 62.7 248.5 66C249.7 68 250.1 69.4 250.1 70.4ZM429.1 69.6C427 66.2 424.6 64.8 421.7 64.8C421.5 64.8 420.8 65.6 419.7 67.4C418.5 69.4 418 70.6 418 70.8C418 71.5 418.5 72.5 419.9 73.7C421.4 74.9 422.3 75.6 423.3 75.6C424 75.6 424.3 75.3 424.5 75.1C424.8 74.6 425 74.6 425.5 74.6C426.5 74.6 427.7 76.8 429.6 81.6C431.5 86.2 432.4 89.3 432.2 91C432.4 92 432.4 92.7 432.9 92.7C433.4 92.7 433.9 92 434.6 91C435.3 89.4 436.3 86.5 437 82.4C438.7 73.3 440.4 68.7 442.3 68.7C443.2 68.7 444.2 69.1 444.9 70.1C445.9 71.1 446.4 71.8 446.6 71.8C447 71.8 447.5 71 448 69.6C448.5 68.6 448.5 67.7 448.5 67.2C448.5 66.2 448.1 65.2 447.1 63.8C446.1 62.3 444.9 61.6 443.7 61.6C441.5 61.6 439.6 63.8 437.7 68.1C436 74.4 434.8 79.2 434.3 82.3C434.3 82.8 434.1 83.1 434.1 83.3L433.9 83.3C433.9 83 433.9 82.8 433.7 82.3C432.9 77 431.3 72.7 429.1 69.6ZM11.8 88.6C11.8 88.4 12 88.1 12 88.1C12.1093 87.9907 12.1589 87.9411 12.1814 87.9513C12.2 87.9597 12.2 88.0093 12.2 88.1C12.4 88.3 12.4 88.6 12.2 88.8C11.1012 95.3926 9.16406 98.967 6.46526 99.5231C6.55623 99.8807 6.48541 100.549 6.3 101.6C3.9 113.8 2.9 120.6 2.9 122.2C2.9 129.6 5.3 136.4 10.3 142.6C17 151 26.9 155.1 39.6 155.1C50.2 155.1 61.7 152 74.4 146C84 141.2 93.6 135.2 102.7 128C110.4 122 114.7 117.7 115.9 115.5C115.9 112.4 114.2 110 110.9 107.8C107.8 106.1 104.4 105.4 100.3 105.4L90.7 105.4C87.1 105.4 84.2 104.2 82.1 101.8C79.9 99.4 79 96.5 79 92.9C79 87.9 80.7 82.8 84.3 77.5C87.7 72.5 91.3 70.1 94.9 70.1C100.9 70.1 106.7 73.5 111.9 80.2C117.4 87.6 120.3 96.3 120.3 106.6C120.3 116.7 117.7 124.4 112.6 130.4C105.9 138.3 96.5 146.2 84.8 153.7C68.2 164.5 53.4 169.8 39.9 169.8C25.3 169.8 14.5 164.8 7.7 154.9C2.39999 147.5 0 137.9 0 126.1C0.0999985 122.4 0.300003 118.8 0.800003 115.5C1.8 109.7 3 105.2 4.4 101.1C4.66163 100.367 4.97803 99.8813 5.29189 99.5842C2.46825 99.3609 1.1 96.7619 1.1 91.7C1.1 85.2 2.8 78.3 6.60001 71.3C7.60001 69.6 8 68.7 8.3 68.7C8.3 68.9 8.10001 69.9 7.60001 71.6C5.20001 79 4.00001 84.1 4.00001 87.2C4.00001 91 5 93.2 7.10001 93.2C8.7 93.2 10.1 91.5 11.8 88.6ZM68.2 81.6C68.7 80.6 68.9 79.7 68.9 79.2C68.9 78.3 68.5 77.3 67.5 75.8C66.3 74.3 65.1 73.6 63.9 73.6C61.7 73.6 59.8 75.8 57.9 80.1C56.2 86.4 55 91.2 54.8 94.3C54.5 94.8 54.3 95.1 54.3 95.3C54.3 95.3907 54.3 95.4403 54.2814 95.4487C54.2589 95.4589 54.2094 95.4094 54.1 95.3L54.1 94.3C53.1 89 51.7 85 49.3 81.6C47.1 78.2 44.7 76.8 42.1 76.8C41.8 76.8 41.1 77.5 39.9 79.4C38.7 81.4 38.2 82.6 38.2 82.8C38.2 83.5 38.9 84.5 40.1 85.7C41.6 86.9 42.5 87.6 43.5 87.6C44.2 87.6 44.7 87.3 44.7 87.1C44.9 86.6 45.2 86.6 45.9 86.6C46.6 86.6 47.8 88.8 49.7 93.6C51.6 98.2 52.6 101.3 52.6 103C52.6 103.492 52.6726 103.911 52.7702 104.21C53.7913 103.029 54.3552 102.4 54.5 102.4L54.5 102.6C54.5 102.786 54.4136 103.188 54.2209 103.805C53.8013 104.356 53.4506 104.7 53.1 104.7C52.9984 104.7 52.871 104.519 52.7702 104.21C52.3807 104.661 51.9247 105.192 51.4 105.8C49.7 107.7 47.6 109.8 44.7 112C32.7 119.9 23.6 125.5 17.1 129.3C15.9 130 15.2 130.8 15.2 131C15.2 131 15.2 131.2 15.4 131.2C15.9 131.2 16.6 131 17.8 130.5C25.8 127.7 30.1 126 30.8 125.5C34.4 123.9 38.4 121.5 43 118.1C48.1 114.5 51.4 110.6 53.1 106.8C53.6354 105.515 53.9987 104.517 54.2209 103.805C54.3996 103.571 54.5909 103.299 54.8 103C55.8 101.4 56.5 98.5 57.2 94.4C58.9 85.3 60.8 80.7 62.7 80.7C63.4 80.7 64.4 81.1 65.1 82.1C66.1 83.1 66.6 83.8 66.8 83.8C67.5 83.8 68 83 68.2 81.6ZM369.4 78.8C369.4 82.6 367.5 87.9 363.6 94.4C361.2 98.5 357.6 104 352.8 111.2C357.6 116.7 361 121.8 362.6 126.1C363.6 129.2 364.3 133.3 364.3 137.9C364.3 139.8 363.8 142.2 362.9 145.3C362.2 148.2 361.2 150.3 360.3 151.8C358.4 154.7 355.3 157.6 350.5 160.4C345.5 163.8 341.1 165.4 337.5 165.4C331.7 165.4 328.9 161.1 328.9 152.4C328.9 146.6 329.9 140.9 331.8 135.6C333.7 131 336.8 125 341.9 117.1C337.6 113 333 107.3 328 100.1C327.5 99.4 326.3 98.2 324.4 96.3C323.4 95.3 323 94.1 323 92.7C323 90.5 323.2 88.1 323.7 85.3C324.4 82.4 324.9 81.2 325.1 81.2C325.8 81.2 328 82.4 332.1 85C335.9 87.6 339.1 89.6 341 91.2C342.2 91.9 342.7 92.6 342.7 92.6L342.7 92.8C342.7 93 342 93.3 340.3 93.3C337.2 93.3 335.5 93.5 335.5 93.8C335.5 94 336 94.5 336.9 95.7C340.7 100.5 344.6 104.1 348.7 107C349.7 105.6 353 100.8 358.3 92.6C362.9 85.6 365.5 80.8 366.7 78C367.9 75.1 368.6 73.9 369.1 73.9C369.2 74 369.4 75.4 369.4 78.8ZM92.9 84.1C97.3 84.1 101.3 86.7 104.7 92C99.9 91.5 96.3 91.2 94.1 91.3C90 90.8 88.1 89.4 88.1 87.2C88.1 85.1 89.8 84.1 92.9 84.1ZM386.9 107.1C387.9 108.3 388.6 109.9 389.1 112.1C390.3 116.2 392.7 122 396 129C398.9 135.3 400.3 138.6 400.3 139.1C400.3 141.1 397.4 144.2 391.9 148.5C387.041 152.111 380.717 156.24 372.926 160.829C373.656 156.348 374.94 150.96 376.8 144.6C377.1 143.1 377.3 141.9 377.3 141.2C377.3 140.7 377.3 140.5 377.1 140.5C376.6 140.5 376.1 141.5 374.9 143.9C372.525 150.313 370.785 156.549 369.762 162.672C366.566 164.513 363.145 166.423 359.5 168.4C350.1 173.5 338.4 179 324.2 185C303.8 193.6 292.7 198.4 290.8 199.4C285.5 201.8 282.9 203.3 282.9 203.5C282.9 203.7 282.9 203.7 283.4 203.7C284.4 203.7 286.8 203.4 290.6 202.7C294.2 202.2 303.3 200.1 317.7 196.7C331.4 193.4 338.6 191.7 339.1 191.7C341.7 191.7 350.1 187.6 364.5 179.2C365.947 178.389 367.358 177.583 368.731 176.781C368.996 183.965 370.972 190.158 374.5 194.8C378.8 200.8 385 203.9 393.2 203.9C402.8 203.9 413.8 198.9 426.8 189.3C435.5 182.8 443.4 175.3 450.6 166.7C453.7 163.1 456.3 158.5 458 153C459.5 148.6 460.2 145.3 460.2 142.4L460.7 141.9L460.7 128.7C459.7 129.2 459.2 129.2 459 129.2C456.6 124.2 453.7 120.1 450.6 116.5C447 112.9 443.9 111 440.8 111C436.7 111 432.9 113.1 429.3 117.2C425.5 122 423.8 127.3 423.8 133.3C423.8 141.2 429.6 145.3 441.1 145.3C446.4 145.3 450.7 144.6 453.6 143.6C454.1 145.3 454.6 147 454.6 148.4C454.6 150.5 451 154.8 444 161.7C436.3 168.9 428.4 174.9 420.2 179.9C409.8 186.2 401.2 189.3 394 189.3C385.6 189.3 379.6 186.6 375.8 181.6C374.371 179.456 373.367 177.029 372.789 174.359C385.062 166.871 394.029 159.813 399.8 153.3C401.8 151.1 403.2 148 404.4 143.9C405.3 140.3 405.8 137.4 405.8 135C405.8 129.9 404.3 124.4 401.7 117.7C400 113.9 398.1 109.8 396.4 105.7C399.3 106.4 401.2 106.9 401.9 106.9C402.4 106.9 402.6 106.6 402.6 106.4C402.6 105.9 401.9 105 400.2 103.3C396.2 99.2 392.6 95.3 389.2 91.5C388.7 91 388.4 90.8 388.2 90.8C387.7 90.8 387.4 91.3 387.2 92.5C386.7 93.7 386.5 95.9 386 99C385.5 102.3 385.5 104 385.5 104.5C385.7 104.9 386.2 105.7 386.9 107.1ZM486.8 113.6C486.1 113.6 485.1 114 483.9 115C480.1 118.4 476.2 121.2 472.3 123.2C471.1 124 467 125.9 460.8 129L460.8 142.2C469.2 138.3 475.7 134.3 479.5 129.7C479.5 140.7 484.3 146.5 494.4 146.5C502.8 146.5 509.7 141.7 515 132.1C518.2 137.9 521.8 141 525.6 141C531.4 141 535.7 138.4 538.6 133.1C541.3 128.7 542.7 123.7 542.7 117.7C542.7 113.8 541.5 110.5 539.6 107.6C538.9 106.6 538.4 106.4 537.9 106.4C537.4 106.4 536.9 107.2 536.7 108.6C535.3 113.1 534.3 116.5 534.1 118.4C536.2 122 537.2 124 537.2 124.2C536.2 125.8 534.1 126.8 530.7 126.8C528.1 126.8 525.7 125.8 524 124.4C522.1 123 521.1 121.3 521.1 119.6C521.1 120.1 521.8 118.2 522.8 114.1C523.3 112 523.1 111 522.1 111C521.4 111 520.7 111.4 519.7 112.4C517.3 116.3 514.7 120.1 512.3 124.2C508.4 129.3 503.4 131.9 497.4 131.9C489.9 131.9 486.1 129 486.1 123.7C486.1 122.5 486.3 121 486.8 119.1C487.3 117.2 487.5 115.7 487.5 115C487.5 114.1 487.3 113.6 486.8 113.6ZM251.1 134.9C252.3 134.2 252.8 133.5 252.1 132.3C247.3 122.2 241.3 117.2 234.1 117.2C219.2 117.2 201.2 129 180.3 152.5C206 152.4 229.5 146.7 251.1 134.9ZM360.1 137.8C357.5 132.5 352.9 127 346.7 121.7C344.5 123.9 341.9 127.9 338.5 133.7C334.7 140.2 333 144.3 333 146.4C333 149.3 334.9 150.7 339.2 150.7C341.1 150.7 343.5 150 346.6 148.8C350.9 146.9 355 144.2 358.4 140.9C359.8 139.5 360.3 138.5 360.1 137.8ZM447.2 130.8C443.6 126.2 440.5 124.1 437.6 124.1C433.3 124.1 431.4 125.1 431.4 127.5C431.4 130.4 434.3 131.8 440 131.8C441.864 131.8 443.964 131.406 446.3 130.968C446.596 130.913 446.896 130.856 447.2 130.8ZM88.9 158.7C98.5 155.3 108.8 151.5 119.9 147.7C120.285 147.623 120.552 147.531 120.745 147.464C121.054 147.358 121.177 147.316 121.3 147.5C121.5 147.5 121.5 148 121.1 148.7C120.4 150.9 119.7 152.1 119.2 152.5C109.6 155.9 98.8 159.9 86.6 165.5C86.9 163.2 87.7 161.1 88.9 158.7ZM473.1 194.7C470.5 195.4 469 195.9 468.5 195.9L468.5 195.6C468.5 195.6 469.5 194.9 471.4 193.7C473.3 192.5 476.2 190.6 480.3 187.5C482.2 185.6 485.1 182.5 488.7 178.1C491.1 175.2 493.7 172.6 496.6 170.7C500.2 168.1 503.6 166.9 507.2 166.9C507.9 166.9 509.1 167.1 510.6 167.6C511.8 168.1 513 168.3 514 168.3C515.9 168.3 517.4 167.6 518.6 166.1C519.3 164.7 520.3 163.5 521.2 162C521.7 161 522.4 160.6 522.9 160.6C523.1 160.6 523.1 160.8 523.1 161.3C523.1 161.8 522.9 163 522.4 164.4C521.9 165.1 523.8 165.4 527.4 165.4C527.9 165.4 528.1 165.4 528.1 165.2C528.1 165.2 527.9 164.2 527.4 162.6C527.2 162.1 527.4 161.4 528.1 160.4L528.18 160.264C529.122 158.663 529.508 158.005 529.8 158.2C530.8 158.9 531.2 160.4 531.2 162C531.2 163.6 530.7 165.4 530 167.3C529.3 169.5 528.6 170.7 528.1 171.1C526.4 172.1 523.8 171.8 520.2 170.1C517.3 173 514.4 174.7 511.6 174.7C510.9 174.7 509.7 174.5 508.5 174C507.3 173.5 506.3 173.3 505.6 173.3C500.8 173.3 495.8 175.5 490.7 180.3L479.9 191.1C477.7 192.8 475.5 194 473.1 194.7ZM244.9 172.1C247.8 172.1 250.2 173.5 252.3 176.9C254.5 180 256.1 184.3 256.9 189.6C257.1 190.1 257.1 190.3 257.1 190.6L257.3 190.6C257.3 190.4 257.5 190.1 257.5 189.6C258 186.5 259.2 181.7 260.9 175.4C262.8 171.1 264.7 168.9 266.9 168.9C268.1 168.9 269.3 169.6 270.3 171.1C271.3 172.5 271.7 173.5 271.7 174.5C271.7 175 271.7 175.9 271.2 176.9C270.7 178.3 270.2 179.1 269.8 179.1C269.6 179.1 269.1 178.4 268.1 177.4C267.4 176.4 266.4 176 265.5 176C263.6 176 261.9 180.6 260.2 189.7C259.5 193.8 258.5 196.7 257.8 198.3C257.1 199.3 256.6 200 256.1 200C255.6 200 255.6 199.3 255.4 198.3C255.6 196.6 254.7 193.5 252.8 188.9C250.9 184.1 249.7 181.9 248.7 181.9C248.2 181.9 248 181.9 247.7 182.4C247.5 182.6 247.2 182.9 246.5 182.9C245.5 182.9 244.6 182.2 243.1 181C241.7 179.8 241.2 178.8 241.2 178.1C241.2 177.9 241.7 176.7 242.9 174.7C243.9 172.8 244.6 172.1 244.9 172.1ZM164.2 175.2C149.1 180.7 134.7 186 121 190.8C119.8 193.2 119.1 195.4 118.6 197.5C135.7 190.3 150.5 184.6 163.5 180C164 179.6 164.7 178.4 165.4 176.2C165.8 175.5 165.8 175 165.6 175C165.477 174.816 165.354 174.858 165.045 174.964C164.852 175.031 164.585 175.123 164.2 175.2ZM211.8 190.3C213.7 187.2 214.9 184.3 214.9 181.7C214.9 178.6 213.4 176.9 210.8 177C207.5 177 205.6 178.9 204.6 183C204.4 183.9 204.4 184.4 204.4 184.4C204.4 184.6 204.6 184.6 204.6 184.6C204.8 184.6 205.1 184.3 205.8 184.1C206.5 183.6 207.4 183.4 208.4 183.4C210 183.4 211 184.3 211 186C211 188.2 208.1 192 202.6 198C201.7 199.2 201.2 199.7 201.2 199.9L201.2 200.1C201.4 200.1 202.2 199.7 203.6 198.7C207 196.3 209.6 193.4 211.8 190.3Z" id="Group" fill="#595959" fill-rule="evenodd" stroke="none" clip-path="url(#clip_1)" />
  </g>
</svg>