<?xml version="1.0" encoding="utf-8"?>
<svg width="570.20013px" height="200.90007px" viewBox="0 0 570.20013 200.90007" version="1.1" xmlns:xlink="http://www.w3.org/1999/xlink" xmlns="http://www.w3.org/2000/svg">
  <defs>
    <path d="M570.2 0L570.2 0L570.2 200.9L0 200.9L0 0L570.2 0Z" id="path_1" />
    <clipPath id="clip_1">
      <use xlink:href="#path_1" clip-rule="evenodd" fill-rule="evenodd" />
    </clipPath>
  </defs>
  <g id="Surah_76_of_114_(modified)">
    <path d="M570.2 0L570.2 0L570.2 200.9L0 200.9L0 0L570.2 0Z" id="Surah_76_of_114_(modified)" fill="none" stroke="none" />
    <path d="M321.5 25.9C321.5 21.1 320.8 17.3 319.3 14.1C319.3 12.4 320.5 8.3 323.4 2.10001C323.6 1.40001 323.9 0.900009 324.1 0.900009C324.6 0.900009 324.8 1.40001 325.3 2.10001C326 3.8 327.7 8.3 330.6 15.8C333.7 23.7 335.4 28.5 335.9 30.4C336.4 31.6 336.4 32.8 336.4 33.3C336.4 35.5 334.5 34.3 330.2 29.5C329.7 28.8 329.5 29.3 329.5 30.5C329.5 31 330.7 45.9 332.9 75.6C335.1 105.1 336 121.7 336 125.5C336 136.8 334.3 146.9 331 155.5C330 157.2 329.6 158.4 329.1 159.3L329.1 159.3C328.4 160.5 328.1 160.5 327.9 159.8C327.7 158.8 327.9 156.9 328.1 154.3C328.6 150.2 328.8 145.7 328.8 140.6C328.8 135.8 327.6 116.6 325.2 82.8C322.7 48.9 321.5 30 321.5 25.9L321.5 25.9L321.5 25.9L321.5 25.9L321.5 25.9ZM299.4 128.6C298.4 137.5 297.7 141.8 297.2 141.8C296.7 141.8 296 138.2 295 130.8C293.1 118.8 284.2 105.4 268.4 90C261.4 83.5 254.5 77 247.5 70.3C240.1 63.1 234.3 57.1 230.5 52.3C227.9 48.9 225 45.1 221.9 40.3C220.2 37.2 218.5 34.3 216.9 31.7C215.7 29.8 214.3 28.3 212.8 27.4C212.1 27.2 211.8 26.4 211.8 25.2L211.8 15.3C211.8 13.4 212 12.4 212.8 12.4C213.3 12.4 214.2 12.9 215.4 13.8L233.9 28C235.3 29.2 236.1 29.9 236.1 30.6C236.1 31.1 235.6 31.1 234.4 31.1C233 31.1 230.3 30.9 226.7 29.9C229.1 34.5 236.1 42.6 247.6 54.1C256.2 62.7 264.9 71.4 273.8 80C291.1 97.3 299.7 112.4 299.7 125.1C299.7 126.2 299.7 127.4 299.4 128.6L299.4 128.6L299.4 128.6L299.4 128.6L299.4 128.6ZM297 25.4C297 23.5 296.5 21.1 295.6 18.4C294.6 15.8 294.2 14.3 294.2 14.1C294.2 13.6 294.7 11.7 295.6 8.3C296.6 4.90001 297 3 297.3 2.5C297.8 1.5 298 1.3 298.3 1.3C298.6 1.3 299 1.5 299.5 2.3C300.5 4.5 302.6 8.5 305.7 15C309.1 22.2 311.2 27 311.9 29.2C312.4 30.9 312.6 31.8 312.6 32.6C312.6 34.5 310.4 33.3 306.4 28.5C305.9 28 305.7 28.5 305.7 29.7C305.7 33.5 306.9 46.5 309.5 68.3C312.1 90.4 313.6 105.3 313.6 112.9C313.6 129 309.8 142.4 302.1 152.7C296.3 161.1 289.6 166.9 282.2 170.2C279.3 171.6 274.3 173.1 267.3 175C260.1 176.9 254.8 177.9 251.5 178.4C250.3 178.4 249.6 178.4 249.6 177.9C249.6 177.7 250.1 176.9 251.5 176C258 172.4 268.5 166.2 283.2 157C288 154.1 292.6 150 297.4 144.8C303.6 138.1 307 132.3 307 127.8C307 118.2 305.3 99.5 302 72.0999C298.5 44.6 297 29 297 25.4L297 25.4L297 25.4L297 25.4L297 25.4ZM239 146.4C239 145 237.8 142.1 235.4 137.5C232.5 131.7 230.4 127.2 229.2 123.6C226.8 115.9 225.1 109 224.2 102.5C224 99.9 223.7 98.4 223.5 97.7C223.3 96.5 222.5 95.1 221.6 93.6C222.3 91.4 223.3 88.3 224.7 84.2C225.4 83 225.7 82.5 226.1 82.5C226.3 82.5 227.1 83 228 84.2C231.8 89.5 235 94.5 237.6 98.6C238.8 100.5 239.3 101.7 239.3 102.4C239.3 102.9 239.1 103.1 238.6 103.1C237.6 103.1 235.7 102.4 233.3 100.7C233.1 100.7 232.8 100.9 232.6 101.2C233.6 104.3 235 108.9 236.9 114.4C241.5 126.9 243.6 136 243.6 141.8C243.6 146.6 242.2 151.6 239.8 156.7C236.4 163.7 231.9 167 226.4 167L226.4 152.4C233 152.4 237.3 150.2 239 146.4L239 146.4L239 146.4L239 146.4L239 146.4ZM153.3 156.9C159.3 156.9 165.1 154.7 170.6 150.2C171.1 150 173.2 147.6 177.3 143.2C180.9 139.4 183.1 137.4 183.3 137.4C184.3 137.4 184.3 138.1 183.8 140C182.8 142.2 182.6 143.6 182.6 144.3C182.6 146 183.3 147.9 184.8 150.1C186.5 153 189.1 154.4 192 154.4C200.2 154.4 206.9 148.6 212.6 137.1C213.3 135.9 213.8 135.2 214.8 135.2C215.3 135.2 215.8 135.9 215.8 136.9C215.8 137.4 215.6 138.1 215.6 138.8C215.4 139.8 215.4 140.5 215.4 140.7C215.4 144.1 216.6 146.9 218.5 149.1C220.7 151 223.3 152.2 226.4 152.2L226.4 166.8C219.2 166.8 213.9 162 210.6 152.6C210.4 151.4 209.9 151.4 209.4 152.6C205.1 163.4 199.1 168.9 191.4 168.9C183.7 168.9 179.2 163.9 177.5 154C177.5 153.3 177.3 152.8 177.3 152.8C177.1 152.8 176.8 153.3 176.3 154C174.4 157.1 171.7 160.2 168.1 163.6C162.1 168.6 156.3 171.3 150.6 171.3C144.4 171.3 140 169.4 137.4 165.5C136 163.1 135 159.5 134.8 154.9C134.8 154.4 134.6 154.2 134.1 153.9C133.4 154.1 132.7 154.4 131.9 155.3C126.9 161.1 123.7 164.4 122.3 165.6C116.1 171.1 109.6 173.8 102.9 173.8L102.9 159.2C110.1 159.2 116.3 157.3 121.6 153.4C123.8 152 128.6 147.4 136.2 139.7C137.2 138.7 137.9 138.5 138.8 138.3C140 138.5 140.5 139.3 140 140.9C139.3 142.8 139 144.5 139 145.9C139 149.3 140.4 151.9 143.1 153.8C145.6 156 149.2 156.9 153.3 156.9L153.3 156.9L153.3 156.9L153.3 156.9L153.3 156.9ZM87.8 144.5C89 151.2 91.4 155.8 94.5 157.9C96.4 158.9 99.1 159.6 102.7 159.6L102.7 174.2C97.4 174.2 93.3 173 90.5 170.8C86.2 167.7 83.5 162.2 82.1 153.8C81.1 148.5 80.2 133.4 79.5 108C78.5 80.6001 77.8 63.8 77.3 57.6C76.1 47.5 74.2 38.2001 71.5 29C71.5 26.6001 72.5 23.2 74.4 18.4C74.9 17.2 75.1 16.5 75.6 16.5C75.8 16.5 76.3 17.2 76.8 18.2C79.9 24.2 82.1 34.5 83.8 48.9C84.8 58 85.7 76 86.4 102.9C86.8 128.1 87.5 142.1 87.8 144.5L87.8 144.5L87.8 144.5L87.8 144.5L87.8 144.5ZM119 103.7C119 112.8 116.8 119.8 112.8 124.6C106.3 132 96.7 139.2 84.2 146.4C68.4 155 53.7 159.6 39.8 159.6C21.6 159.6 8.80002 150.5 1.90002 132.5C0.500015 128.9 1.52588e-05 124.6 1.52588e-05 119.1C1.52588e-05 115.5 0.200012 111.9 0.700012 108.1C1.70001 102.6 2.90001 97.8 4.30001 93.7C5.00001 92.5 5.50001 91.8 6.00001 91.8C6.50001 91.8 6.50001 92.8 6.2 94.4C5.50001 96.8 5.00001 99.4 4.50001 101.8C3.50001 106.4 3.10001 109.7 3.10001 111.9C3.10001 119.3 5.50001 126.1 10.5 132.5C17.2 140.7 27.1 145 39.8 145C51.1 145 63.1 142.4 75.6 137.1C85.9 132.8 95 127.5 103.2 121.3C110.4 115.5 114.2 111.5 114.2 109.1C114.2 108.6 112.5 105.5 109.4 99.5C105.8 92.5 103.2 85.6 101.5 78.9C100.8 76.7 99.8 75.3 99.1 74.6C98.1 73.6 97.7 72.9 97.7 72C97.7 71.3 98.4 67.7 99.6 61.2C99.8 60 100.1 59.5 100.6 59.5C101.1 59.5 101.6 59.7 102 60.2C103.9 62.4 108 66.4 114 72.4C115 73.4 115.4 74.1001 115.4 74.8C115.4 75.5 114.9 75.8 113.7 75.8C112.5 75.8 110.6 75.3 107.9 74.6C108.1 75.3 110.3 79.6 114.1 87.6C117.3 93.6 119 99.1 119 103.7L119 103.7L119 103.7L119 103.7L119 103.7ZM42.4 69.8C42.2 69.6 42.2 69.3 42.4 68.8L47 59.2C47.2 58.7 47.7 58.5 48 58.5C48.5 58.5 50.6001 59.7 54.2 62.1C58 64.7 60 66.2 60 66.7C60 68.4 58.3 71.7 55 77C54.5 77.7 54.3 78 53.8 77.7C50.1 74.9 46.2 72.2 42.4 69.8L42.4 69.8L42.4 69.8L42.4 69.8L42.4 69.8ZM322 175.2C321.5 177.4 321 178.6 320.3 179.3C317.7 181 311.7 184.8 302.5 191.1C302.3 191.3 301.8 191.6 301.3 192.1C301.1 191.9 301.1 191.9 301.1 191.4L301.6 188.3C301.8 187.6 303.3 186.1 306.2 184C302.6 182.8 300.9 181.1 300.9 179.2C300.9 177 301.6 174.9 303.5 172.7C307.1 168.4 310.2 166.2 312.6 166.2C314.8 166.2 315.7 167.4 315.7 169.8C315.7 171.2 315.2 172.7 314 174.6C313.8 175.1 313.5 175.1 313 174.4C312.5 173.2 311.6 172.7 310.4 172.7C309.7 172.7 308.7 172.9 307.5 173.9C306.3 174.6 305.6 175.3 305.6 175.8C305.6 176.5 306.3 177.2 307.8 178C309.2 179 310.4 179.2 311.4 179.2C312.1 179.2 313.6 178.7 315.7 177.5C317.1 176.5 318.3 175.6 319.8 174.6C321 174.1 321.7 173.6 322 173.9C322.2 173.7 322.2 174.2 322 175.2L322 175.2L322 175.2L322 175.2L322 175.2ZM210.9 66.5C210.7 66.3 210.7 66 210.9 65.5L215.5 55.9C215.7 55.4 216.2 55.2 216.5 55.2C217 55.2 219.1 56.4 222.7 58.8C226.5 61.4 228.5 62.9 228.5 63.4C228.5 65.1 226.8 68.4 223.5 73.7C223 74.4 222.8 74.7 222.3 74.4C218.6 71.5 214.7 68.9 210.9 66.5L210.9 66.5L210.9 66.5L210.9 66.5L210.9 66.5ZM12.6 84C12.6 83.8 12.8 83.5 12.8 83.5C13 83.3 13 83.3 13 83.5C13.2 83.7 13.2 84 13 84.2C11.8 91.4 9.60003 95 6.50003 95C3.40003 95 1.90003 92.4 1.90003 87.1C1.90003 80.6 3.60003 73.7 7.40003 66.7C8.40003 65 8.80003 64.1 9.10003 64.1L9.10003 64.1C9.10003 64.3 8.90003 65.3 8.40003 67C6.00003 74.4 4.80003 79.5 4.80003 82.6C4.80003 86.4 5.80003 88.6 7.90003 88.6C9.50004 88.5 11 86.9 12.6 84L12.6 84L12.6 84L12.6 84L12.6 84ZM143.2 125.3C140.6 126 139.1 126.5 138.6 126.5L138.6 126.3C138.6 126.3 139.6 125.6 141.5 124.4C143.4 123.2 146.3 121.3 150.4 118.2C152.3 116.3 155.2 113.2 158.8 108.8C161.2 105.9 163.8 103.3 166.7 101.4C170.3 98.8 173.7 97.6 177.3 97.6C178 97.6 179.2 97.8 180.7 98.3C181.9 98.8 183.1 99 184.1 99C186 99 187.5 98.3 188.7 96.8C189.4 95.4 190.4 94.2 191.3 92.7C191.8 91.7 192.5 91.3 193 91.3C193.2 91.3 193.2 91.5 193.2 92C193.2 92.5 193 93.7001 192.5 95.1001C192 95.8001 193.9 96.1001 197.5 96.1001C198 96.1001 198.2 96.1001 198.2 95.9C198.2 95.9 198 94.9 197.5 93.3C197.3 92.8 197.5 92.1 198.2 91.1C199.2 89.4 199.6 88.7 199.9 88.9C200.9 89.6 201.3 91.1 201.3 92.7C201.3 94.4 200.8 96.1 200.1 98C199.4 100.2 198.7 101.4 198.2 101.8C196.5 102.8 193.9 102.5 190.3 100.8C187.4 103.7 184.5 105.4 181.7 105.4C181 105.4 179.8 105.2 178.6 104.7C177.4 104.2 176.4 104 175.7 104C170.9 104 165.9 106.2 160.8 111C157.2 114.6 153.6 118.2 150 121.8C147.8 123.3 145.6 124.5 143.2 125.3L143.2 125.3L143.2 125.3L143.2 125.3L143.2 125.3ZM195.3 23.5C195.3 22.3 192.9 20.1 187.9 17.3C186.2 20.2 185.5 22.8 185.5 25.2C185.5 26.6 186.2 27.6 187.7 27.6C188.9 27.6 190.3 27.1 192 26.2C193.6 25.4 194.8 24.5 195.3 23.5L195.3 23.5L195.3 23.5L195.3 23.5L195.3 23.5ZM190 4.3C190.7 3.10001 191.7 2.60001 192.4 2.60001C192.9 2.60001 193.4 2.8 193.4 3.3C193.4 3.3 193.2 3.5 193.2 3.8C192.2 6 191.3 8.40001 190.6 10.8C195.6 14.4 198 18.2 197.8 21.8C197.3 25.9 196.8 28.5 196.1 29.5C193.7 32.4 191.1 34.1 187.7 34.1C184.3 34.1 182.9 31.9 182.9 28.1C182.9 27.4 182.9 26.4 183.1 25.5C184.2 17.7 186.6 10.8 190 4.3L190 4.3L190 4.3L190 4.3L190 4.3ZM270.9 20.9C270.9 19.7 268.5 17.5 263.5 14.7C261.8 17.6 261.1 20.2 261.1 22.6C261.1 24 261.8 25 263.3 25C264.5 25 265.9 24.5 267.6 23.6C269.2 22.8 270.4 21.8 270.9 20.9L270.9 20.9L270.9 20.9L270.9 20.9L270.9 20.9ZM265.6 1.7C266.3 0.5 267.3 0 268 0C268.5 0 269 0.199997 269 0.699997C269 0.699997 268.8 0.899994 268.8 1.2C267.8 3.39999 266.9 5.8 266.2 8.2C271.2 11.8 273.6 15.6 273.4 19.2C272.9 23.3 272.4 25.9 271.7 26.9C269.3 29.8 266.7 31.5 263.3 31.5C259.9 31.5 258.5 29.3 258.5 25.5C258.5 24.8 258.5 23.8 258.7 22.9C259.8 15.1 262.2 8.10001 265.6 1.7L265.6 1.7L265.6 1.7L265.6 1.7L265.6 1.7ZM264.9 122.1C264.9 121.9 265.1 121.6 265.1 121.6C265.3 121.4 265.3 121.4 265.3 121.6C265.5 121.8 265.5 122.1 265.3 122.3C264.1 129.5 261.9 133.1 258.8 133.1C255.7 133.1 254.2 130.5 254.2 125.2C254.2 118.7 255.9 111.8 259.7 104.8C260.7 103.1 261.1 102.2 261.4 102.2L261.4 102.2C261.4 102.4 261.2 103.4 260.7 105.1C258.3 112.5 257.1 117.6 257.1 120.7C257.1 124.5 258.1 126.7 260.2 126.7C261.8 126.7 263.2 125 264.9 122.1L264.9 122.1L264.9 122.1L264.9 122.1L264.9 122.1ZM35.2 97.7C38.1 97.7 40.5 99.1 42.6 102.5C44.8 105.6 46.4 109.9 47.2 115.2C47.4 115.7 47.4 115.9 47.4 116.2L47.6 116.2C47.6 116 47.8 115.7 47.8 115.2C48.3 112.1 49.5 107.3 51.2 101C53.1 96.7 55 94.5 57.2 94.5C58.4 94.5 59.6 95.2 60.6 96.7C61.6 98.1 62 99.1 62 100.1C62 100.6 62 101.5 61.5 102.5C61 103.9 60.5 104.7 60.1 104.7C59.9 104.7 59.4 104 58.4 103C57.7 102 56.7 101.6 55.8 101.6C53.9 101.6 52.2 106.2 50.5 115.3C49.8 119.4 48.8 122.3 48.1 123.9C47.4 124.9 46.9 125.6 46.4 125.6C45.9 125.6 45.9 124.9 45.7 123.9C45.9 122.2 45 119.1 43.1 114.5C41.2 109.7 40 107.5 39 107.5C38.5 107.5 38.3 107.5 38 108C37.8 108.2 37.5 108.5 36.8 108.5C35.8 108.5 34.9 107.8 33.4 106.6C32 105.4 31.5 104.4 31.5 103.7C31.5 103.5 32 102.3 33.2 100.3C34.2 98.4 35 97.7 35.2 97.7L35.2 97.7L35.2 97.7L35.2 97.7L35.2 97.7ZM135 88.8C153.5 82.1 172.7 74.9 192.8 67.4C193.5 67.2 194 66.9 194.2 67.2C194.2 67.2 194.2 67.7 194 68.4C193 70.6 192.3 71.8 191.8 72.2C175 78.4 155.1 86.1 132.5 95.5C133.1 93.3 133.8 91.2 135 88.8L135 88.8L135 88.8L135 88.8L135 88.8ZM65.4 191C75 187.6 85.3 183.8 96.4 180C97.4 179.8 97.6 179.5 97.8 179.8C98 179.8 98 180.3 97.6 181C96.9 183.2 96.2 184.4 95.7 184.8C86.1 188.2 75.3 192.2 63.1 197.8C63.5 195.6 64.2 193.4 65.4 191L65.4 191L65.4 191L65.4 191L65.4 191ZM179.9 188.6C179.9 188.4 180.1 188.1 180.1 188.1C180.3 187.9 180.3 187.9 180.3 188.1C180.5 188.3 180.5 188.6 180.3 188.8C179.1 196 176.9 199.6 173.8 199.6C170.7 199.6 169.2 197 169.2 191.7C169.2 185.2 170.9 178.3 174.7 171.3C175.7 169.6 176.1 168.7 176.4 168.7L176.4 168.7C176.4 168.9 176.2 169.9 175.7 171.6C173.3 179 172.1 184.1 172.1 187.2C172.1 191 173.1 193.2 175.2 193.2C176.8 193.2 178.2 191.5 179.9 188.6L179.9 188.6L179.9 188.6L179.9 188.6L179.9 188.6ZM164.6 7.40001C164.6 7.90001 164.4 8.8 164.1 9.8C163.6 11.2 163.1 12 162.4 12C162.2 12 161.7 11.3 160.7 10.3C160 9.3 159 8.90001 158.3 8.90001C156.4 8.90001 154.5 13.5 152.8 22.6C152.1 26.7 151.4 29.3 150.4 31C149.7 32.2 149.2 32.7 148.7 32.7C148.5 32.7 148.2 32.2 148.2 31.3C148.2 29.6 147.2 26.5 145.3 21.9C143.6 17.1 142.2 14.9 141.5 14.9C141 14.9 140.5 14.9 140.5 15.4C140.3 15.6 139.8 15.9 139.1 15.9C138.1 15.9 136.9 15.2 135.5 14C134.1 12.6 133.6 11.6 133.8 11.1C136 7.00001 137.2 5.10002 137.6 5.10002C140.2 5.10002 142.9 6.50001 145 9.90002C147.2 13 148.6 17.3 149.6 22.4C149.6 23.1 149.6 23.4 149.6 23.4C149.8 23.6 149.8 23.6 149.8 23.4C149.8 23.4 150 23.2 150.3 22.4C150.8 19.5 151.7 14.7 153.4 8.50003C155.3 4.20003 157.2 2.00003 159.6 2.00003C160.6 2.00003 161.8 2.70003 163 4.20003C164.1 5.5 164.6 6.5 164.6 7.40001L164.6 7.40001L164.6 7.40001L164.6 7.40001L164.6 7.40001ZM133.8 11C134.3 10 134.8 9.60001 135 9.60001C135 9.60001 135.2 9.8 135 9.8C135.2 10.5 134.5 12.2 133.1 14.8C130.7 19.4 127.3 23 123 26.1C118.4 29.5 114.4 31.9 110.8 33.5C110.1 34 105.8 35.7 97.8 38.5C96.6 39 95.9 39.2 95.4 39.2C95.2 39.2 95.2 39 95.2 39C95.2 38.8 95.9 38 97.1 37.3C103.8 33.7 112.9 27.9 124.7 20C129.5 16.5 132.4 13.4 133.8 11L133.8 11L133.8 11L133.8 11L133.8 11ZM173.2 46.1C173.2 48.7 172 51.6 170.1 54.7C167.9 57.8 165.3 60.7 161.9 63.1C160.5 64.1 159.7 64.5 159.5 64.5L159.5 64.3C159.5 64.1 160 63.6 160.9 62.4C166.4 56.4 169.3 52.6 169.3 50.4C169.3 48.7 168.3 47.8 166.7 47.8C165.7 47.8 164.8 48 164.1 48.5C163.4 48.7 163.1 49 162.9 49C162.9 49 162.7 49 162.7 48.8C162.7 48.8 162.7 48.3 162.9 47.4C163.9 43.3 165.8 41.4 169.1 41.4C171.8 41.3 173.2 42.9 173.2 46.1L173.2 46.1L173.2 46.1L173.2 46.1L173.2 46.1ZM140.6 49.2C140.6 51.8 139.4 54.7 137.5 57.8C135.3 60.9 132.7 63.8 129.3 66.2C127.9 67.2 127.1 67.6 126.9 67.6L126.9 67.4C126.9 67.2 127.4 66.7 128.3 65.5C133.8 59.5 136.7 55.7 136.7 53.5C136.7 51.8 135.7 50.9 134.1 50.9C133.1 50.9 132.2 51.1 131.5 51.6C130.8 51.8 130.5 52.1 130.3 52.1C130.3 52.1 130.1 52.1 130.1 51.9C130.1 51.9 130.1 51.4 130.3 50.5C131.3 46.4 133.2 44.5 136.5 44.5C139.1 44.4 140.6 46.1 140.6 49.2L140.6 49.2L140.6 49.2L140.6 49.2L140.6 49.2ZM137.2 182.4C137.2 185 136 187.9 134.1 191C131.9 194.1 129.3 197 125.9 199.4C124.5 200.4 123.7 200.8 123.5 200.8L123.5 200.6C123.5 200.4 124 199.9 124.9 198.7C130.4 192.7 133.3 188.9 133.3 186.7C133.3 185 132.3 184.1 130.7 184.1C129.7 184.1 128.8 184.3 128.1 184.8C127.4 185 127.1 185.3 126.9 185.3C126.9 185.3 126.7 185.3 126.7 185.1C126.7 185.1 126.7 184.6 126.9 183.7C127.9 179.6 129.8 177.7 133.1 177.7C135.8 177.6 137.2 179.3 137.2 182.4L137.2 182.4L137.2 182.4L137.2 182.4L137.2 182.4ZM237 180.7C237 183.3 235.8 186.2 233.9 189.3C231.7 192.4 229.1 195.3 225.7 197.7C224.3 198.7 223.5 199.1 223.3 199.1L223.3 198.9C223.3 198.7 223.8 198.2 224.7 197C230.2 191 233.1 187.2 233.1 185C233.1 183.3 232.1 182.4 230.5 182.4C229.5 182.4 228.6 182.6 227.9 183.1C227.2 183.3 226.9 183.6 226.7 183.6C226.7 183.6 226.5 183.6 226.5 183.4C226.5 183.4 226.5 182.9 226.7 182C227.7 177.9 229.6 176 232.9 176C235.6 175.9 237 177.6 237 180.7L237 180.7L237 180.7L237 180.7L237 180.7ZM511.4 112.1C512.6 111.1 513.6 110.7 514.3 110.7C514.8 110.7 515 111.2 515 112.1C515 112.8 514.8 114.3 514.3 116.2C513.8 118.1 513.6 119.6 513.6 120.8C513.6 126.1 517.4 129 524.9 129C530.9 129 535.9 126.4 539.8 121.3C542.2 117.2 544.8 113.4 547.2 109.5C548.2 108.5 548.9 108.1 549.6 108.1C550.6 108.1 550.8 109.1 550.3 111.2C549.3 115.3 548.6 117.2 548.6 116.7C548.6 118.4 549.6 120.1 551.5 121.5C553.2 122.9 555.6 123.9 558.2 123.9C561.6 123.9 563.7 122.9 564.7 121.3C564.7 121.1 563.7 119.1 561.6 115.5C561.8 113.6 562.8 110.2 564.2 105.7C564.4 104.3 564.9 103.5 565.4 103.5C565.9 103.5 566.4 103.7 567.1 104.7C569 107.6 570.2 110.9 570.2 114.8C570.2 120.8 568.8 125.8 566.1 130.2C563.2 135.5 558.9 138.1 553.1 138.1C549.3 138.1 545.7 135 542.5 129.2C537.2 138.8 530.3 143.6 521.9 143.6C511.8 143.6 507 137.8 507 126.8C503.2 131.4 496.7 135.4 488.3 139.3L488.3 126.1C494.5 123 498.6 121.1 499.8 120.3C503.7 118.3 507.5 115.4 511.4 112.1L511.4 112.1L511.4 112.1L511.4 112.1L511.4 112.1ZM474.6 127.9C471 123.3 467.9 121.2 465 121.2C460.7 121.2 458.8 122.2 458.8 124.6C458.8 127.5 461.7 128.9 467.4 128.9C469.6 128.9 472 128.4 474.6 127.9L474.6 127.9L474.6 127.9L474.6 127.9L474.6 127.9ZM482.1 145.4C482.1 144 481.6 142.3 481.1 140.6C478.2 141.6 473.9 142.3 468.6 142.3C457.1 142.3 451.3 138.2 451.3 130.3C451.3 124.3 453 119 456.8 114.2C460.4 110.1 464.2 108 468.3 108C471.4 108 474.5 109.9 478.1 113.5C481.2 117.1 484.1 121.2 486.5 126.2C486.7 126.2 487.2 126.2 488.2 125.7L488.2 138.9L487.7 139.4C487.7 142.3 487 145.6 485.5 150C483.8 155.5 481.2 160.1 478.1 163.7C470.9 172.3 463 179.8 454.3 186.3C441.3 195.9 430.3 200.9 420.7 200.9C412.5 200.9 406.3 197.8 402 191.8C398.2 186.8 396.2 180 396.2 172.1C396.2 162 398.4 151.7 402.4 140.9C403.6 138.5 404.1 137.5 404.6 137.5C404.8 137.5 404.8 137.7 404.8 138.2C404.8 138.9 404.6 140.1 404.3 141.6C401.2 152.2 399.7 160.1 399.7 165.6C399.7 170.6 400.9 175 403.3 178.6C407.1 183.6 413.1 186.3 421.5 186.3C428.7 186.3 437.3 183.2 447.7 176.9C455.9 171.9 463.8 165.9 471.5 158.7C478.5 151.9 482.1 147.6 482.1 145.4L482.1 145.4L482.1 145.4L482.1 145.4L482.1 145.4ZM416.6 109.2C416.1 107 415.4 105.4 414.4 104.2C413.7 102.8 413.2 102 413 101.6C413 101.1 413 99.4 413.5 96.1C414 93 414.2 90.8 414.7 89.6C414.9 88.4 415.2 87.9 415.7 87.9C415.9 87.9 416.2 88.1 416.7 88.6C420.1 92.4 423.7 96.3 427.7 100.4C429.4 102.1 430.1 103 430.1 103.5C430.1 103.7 429.9 104 429.4 104C428.7 104 426.8 103.5 423.9 102.8C425.6 106.9 427.5 111 429.2 114.8C431.8 121.5 433.3 127 433.3 132.1C433.3 134.5 432.8 137.4 431.9 141C430.7 145.1 429.3 148.2 427.3 150.4C420.3 158.3 408.6 167 392 176.3C377.6 184.7 369.2 188.8 366.6 188.8C366.1 188.8 358.9 190.5 345.2 193.8C330.8 197.2 321.7 199.3 318.1 199.8C314.3 200.5 311.9 200.8 310.9 200.8C310.4 200.8 310.4 200.8 310.4 200.6C310.4 200.4 313 198.9 318.3 196.5C320.2 195.5 331.3 190.7 351.7 182.1C365.9 176.1 377.6 170.6 387 165.5C401.2 157.8 412 151.1 419.4 145.6C424.9 141.3 427.8 138.2 427.8 136.2C427.8 135.7 426.4 132.4 423.5 126.1C420.2 119 417.8 113.3 416.6 109.2L416.6 109.2L416.6 109.2L416.6 109.2L416.6 109.2ZM396.9 75.8C396.9 79.6 395 84.9 391.1 91.4C388.7 95.5 385.1 101 380.3 108.2C385.1 113.7 388.5 118.8 390.1 123.1C391.1 126.2 391.8 130.3 391.8 134.9C391.8 136.8 391.3 139.2 390.4 142.3C389.7 145.2 388.7 147.3 387.8 148.8C385.9 151.7 382.8 154.6 378 157.4C373 160.8 368.6 162.4 365 162.4C359.2 162.4 356.4 158.1 356.4 149.4C356.4 143.6 357.4 137.9 359.3 132.6C361.2 128 364.3 122 369.4 114.1C365.1 110 360.5 104.3 355.5 97.1C355 96.4 353.8 95.2 351.9 93.3C350.9 92.3 350.5 91.1 350.5 89.7C350.5 87.5 350.7 85.1 351.2 82.3C351.9 79.4 352.4 78.2 352.6 78.2C353.3 78.2 355.5 79.4 359.6 82C363.4 84.6 366.6 86.6 368.5 88.2C369.7 88.9 370.2 89.6 370.2 89.6L370.2 89.8C370.2 90 369.5 90.3 367.8 90.3C364.7 90.3 363 90.5 363 90.8C363 91 363.5 91.5 364.4 92.7C368.2 97.5 372.1 101.1 376.2 104C377.2 102.6 380.5 97.8 385.8 89.6C390.4 82.6 393 77.8 394.2 75C395.4 72.1 396.1 70.9 396.6 70.9C396.6 71 396.9 72.5 396.9 75.8L396.9 75.8L396.9 75.8L396.9 75.8L396.9 75.8ZM387.5 134.9C384.9 129.6 380.3 124.1 374.1 118.8C371.9 121 369.3 125 365.9 130.8C362.1 137.3 360.4 141.4 360.4 143.5C360.4 146.4 362.3 147.8 366.6 147.8C368.5 147.8 370.9 147.1 374 145.9C378.3 144 382.4 141.3 385.8 138C387.3 136.5 387.8 135.6 387.5 134.9L387.5 134.9L387.5 134.9L387.5 134.9L387.5 134.9ZM374.1 57.8L377.9 49.9C378.1 49.4 378.4 49.2 378.9 49.2C379.4 49.2 381.3 50.4 385.1 53C388.7 55.4 390.6 56.8 390.6 57.3C390.6 59 388.9 62.6 385.8 67.9C385.3 68.6 384.8 68.6 384.4 68.4C381.3 66 377.7 63.6 373.6 61C372.2 63.9 371 66.5 369.5 68.7C369.3 69.4 368.8 69.7 368.3 69.4C364.7 66.5 360.9 63.9 357 61.5C356.8 61.3 356.8 61 357 60.5L361.6 50.9C361.8 50.4 362.3 49.9 362.6 49.9C363.1 49.9 364.8 51.1001 367.9 53.3C371 55.2 373.1 56.9 374.1 57.8L374.1 57.8L374.1 57.8L374.1 57.8L374.1 57.8ZM500.6 191.5C498 192.2 496.5 192.7 496 192.7L496 192.5C496 192.5 497 191.8 498.9 190.6C500.8 189.4 503.7 187.5 507.8 184.4C509.7 182.5 512.6 179.4 516.2 175C518.6 172.1 521.2 169.5 524.1 167.6C527.7 165 531.1 163.8 534.7 163.8C535.4 163.8 536.6 164 538.1 164.5C539.3 165 540.5 165.2 541.5 165.2C543.4 165.2 544.9 164.5 546.1 163C546.8 161.6 547.8 160.4 548.7 158.9C549.2 157.9 549.9 157.5 550.4 157.5C550.6 157.5 550.6 157.7 550.6 158.2C550.6 158.7 550.4 159.9 549.9 161.3C549.4 162 551.3 162.3 554.9 162.3C555.4 162.3 555.6 162.3 555.6 162.1C555.6 162.1 555.4 161.1 554.9 159.5C554.7 159 554.9 158.3 555.6 157.3C556.6 155.6 557 154.9 557.3 155.1C558.3 155.8 558.7 157.3 558.7 158.9C558.7 160.6 558.2 162.3 557.5 164.2C556.8 166.4 556.1 167.6 555.6 168C553.9 169 551.3 168.7 547.7 167C544.8 169.9 541.9 171.6 539.1 171.6C538.4 171.6 537.2 171.4 536 170.9C534.8 170.4 533.8 170.2 533.1 170.2C528.3 170.2 523.3 172.4 518.2 177.2C514.6 180.8 511 184.4 507.4 188C505.1 189.6 503 190.8 500.6 191.5L500.6 191.5L500.6 191.5L500.6 191.5L500.6 191.5ZM449.2 61.9C452.1 61.9 454.5 63.3 456.6 66.7C458.8 69.8 460.4 74.1 461.2 79.4C461.4 79.9 461.4 80.1 461.4 80.4L461.6 80.4C461.6 80.2 461.8 79.9 461.8 79.4C462.3 76.3 463.5 71.5 465.2 65.2C467.1 60.9 469 58.7 471.2 58.7C472.4 58.7 473.6 59.4 474.6 60.9C475.6 62.3 476 63.3 476 64.3C476 64.8 476 65.7 475.5 66.7C475 68.1 474.5 68.9 474.1 68.9C473.9 68.9 473.4 68.2 472.4 67.2C471.7 66.2 470.7 65.8 469.8 65.8C467.9 65.8 466.2 70.4 464.5 79.5C463.8 83.6 462.8 86.5 462.1 88.1C461.4 89.1 460.9 89.8 460.4 89.8C459.9 89.8 459.9 89.1 459.7 88.1C459.9 86.4 459 83.3 457.1 78.7C455.2 73.9 454 71.7 453 71.7C452.5 71.7 452.3 71.7 452 72.2C451.8 72.4 451.5 72.7 450.8 72.7C449.8 72.7 448.9 72 447.4 70.8C446 69.6 445.5 68.6 445.5 67.9C445.5 67.7 446 66.5 447.2 64.5C448.2 62.6 449 61.9 449.2 61.9L449.2 61.9L449.2 61.9L449.2 61.9L449.2 61.9ZM408.4 59C432.6 49.9 457.8 40.8 483.8 31.2C484.5 31 485 30.7 485 31C485.2 31 485.2 31.5 485 32.2C484 34.4 483.3 35.6 482.8 36C482.6 36.2 470.3 40.8 446.6 49.7C422.4 58.6 408.7 64.1 406 65.8C406.5 63.6 407.2 61.4 408.4 59L408.4 59L408.4 59L408.4 59L408.4 59ZM384.9 15.1C385.4 13.7 385.4 12.2 385.1 10.8C384.9 9.40001 384.1 8.60001 382.9 8.60001C382.4 8.60001 381.7 8.8 380.7 9.3C379.7 9.8 379.3 10.3 379.3 10.7C379.4 12 381.3 13.4 384.9 15.1L384.9 15.1L384.9 15.1L384.9 15.1L384.9 15.1ZM382 21.3C377.4 18.9 375.3 16.5 375.3 13.9C375.3 10.8 376.7 7.90001 379.6 5.50002C382.5 2.90001 384.9 1.90001 386.8 2.60002C388.5 3.10002 389.2 4.80002 389.2 7.60002C389.2 10.2 388.7 13.1 387.5 16.5C389.9 17.7 391.3 18.9 391.8 19.9C391.8 21.1 390.8 23.3 388.7 26.1C388.2 25.1 386.8 23.9 384.6 22.7C382 26.3 378.8 29.4 375 32.3C370.4 35.4 366.4 38.1 362.8 39.5C361.8 40 357.5 41.7 349.8 44.5C348.6 45 347.6 45.2 347.4 45.2C347.2 45.2 347.2 45 347.2 45C347.2 44.8 347.7 44 349.1 43.3C354.9 39.7 360.6 36.3 366.6 33C373.6 28.8 378.6 24.9 382 21.3L382 21.3L382 21.3L382 21.3L382 21.3ZM533.7 51.1C534.2 49.7 534.2 48.2 533.9 46.8C533.7 45.4 532.9 44.6 531.7 44.6C531.2 44.6 530.5 44.8 529.5 45.3C528.5 45.8 528.1 46.3 528.1 46.7C528.2 48 530.1 49.4 533.7 51.1L533.7 51.1L533.7 51.1L533.7 51.1L533.7 51.1ZM539 60C536.6 65.8 535.4 70.3 535.4 73.7C535.4 77.8 536.4 79.9 538.5 79.9C539.7 79.9 541.1 78.2 542.8 75.3C543 75.1 543 74.8 543.3 74.6C543.3 74.6 543.5 74.6 543.5 74.8C543.5 74.8 543.5 75 543.5 75.5C542.1 82.7001 539.9 86.3 537 86.3C533.9 86.3 532.4 83.7 532.4 78.4C532.4 75.8 532.9 72.4 534.3 68.1001C535.7 63.8001 536.5 61.6001 536.5 61.4C536.5 60.9 535.5 60 533.4 58.8C529.6 63.8 524.3 68.6 517.6 72.7C513 75.3 508.5 77.7 503.7 79.7C494.8 83.3 489.5 85.2 488.3 85.9C487.1 86.4 486.4 86.6001 485.9 86.6001C485.7 86.6001 485.7 86.4 485.7 86.4C485.7 85.9 486.2 85.4 487.6 84.5C495.3 80.2001 502.7 75.9 510.4 71.5C520.5 65.7001 527.4 60.9 530.8 57.3C526.2 54.9 524.1 52.5 524.1 49.9C524.1 46.8 525.5 43.9 528.4 41.3C531.3 38.9 533.7 37.9 535.6 38.7C537 39.2 538 40.9 538 43.7C538 46.3 537.5 49.2 536.3 52.3C538.7 53.7 539.7 55.2 539.7 56.6C539.7 57.3 539.4 58.5 539 60L539 60L539 60L539 60L539 60ZM429.8 25.2C429.8 25 430 24.7 430 24.7C430.2 24.5 430.2 24.5 430.2 24.7C430.4 24.9 430.4 25.2 430.2 25.4C429 32.6 426.8 36.2 423.7 36.2C420.6 36.2 419.1 33.6 419.1 28.3C419.1 21.8 420.8 14.9 424.6 7.90001C425.6 6.20001 426 5.3 426.3 5.3L426.3 5.3C426.3 5.5 426.1 6.5 425.6 8.2C423.2 15.6 422 20.7 422 23.8C422 27.6 423 29.8 425.1 29.8C426.6 29.7 428.1 28.1 429.8 25.2L429.8 25.2L429.8 25.2L429.8 25.2L429.8 25.2Z" id="Group" fill="#595959" stroke="none" clip-path="url(#clip_1)" />
  </g>
</svg>