<?xml version="1.0" encoding="utf-8"?>
<svg width="603.1001px" height="213.10007px" viewBox="0 0 603.1001 213.10007" version="1.1" xmlns:xlink="http://www.w3.org/1999/xlink" xmlns="http://www.w3.org/2000/svg">
  <defs>
    <path d="M603.1 0L603.1 0L603.1 213.1L0 213.1L0 0L603.1 0Z" id="path_1" />
    <clipPath id="clip_1">
      <use xlink:href="#path_1" clip-rule="evenodd" fill-rule="evenodd" />
    </clipPath>
  </defs>
  <g id="Surah_23_of_114_(modified)">
    <path d="M603.1 0L603.1 0L603.1 213.1L0 213.1L0 0L603.1 0Z" id="Surah_23_of_114_(modified)" fill="none" stroke="none" />
    <path d="M364 29.7C364 24.9 363.3 21.1 361.8 17.9C361.8 16.2 363 12.1 365.9 5.89999C366.1 5.2 366.4 4.7 366.6 4.7C367.1 4.7 367.3 5.2 367.8 5.89999C368.5 7.59999 370.2 12.1 373.1 19.6C376.2 27.5 377.9 32.3 378.4 34.2C378.9 35.4 378.9 36.6 378.9 37.1C378.9 39.3 377 38.1 372.7 33.3C372.2 32.6 372 33.1 372 34.3C372 34.8 373.2 49.7 375.4 79.4C377.6 108.9 378.5 125.5 378.5 129.3C378.5 140.6 376.8 150.7 373.5 159.3C372.5 161 372.1 162.2 371.6 163.1L371.6 163.1C370.9 164.3 370.6 164.3 370.4 163.6C370.2 162.6 370.4 160.7 370.6 158.1C371.1 154 371.3 149.5 371.3 144.4C371.3 139.6 370.1 120.4 367.7 86.6C365.2 52.7 364 33.8 364 29.7L364 29.7L364 29.7L364 29.7L364 29.7ZM343.6 24.7C343.6 20.1 342.9 16.3 341.4 13.2C341.4 11.5 342.6 7.39999 345.5 1C345.7 0.300003 346 0 346.2 0C346.7 0 346.9 0.199997 347.4 1.2C348.1 2.89999 350 7.39999 352.9 14.9C355.8 22.8 357.5 27.6 358.2 29.3C358.4 30.7 358.7 31.9 358.7 32.4C358.7 34.6 356.5 33.4 352.5 28.6C352 27.9 351.8 28.4 351.8 29.6C351.8 29.8 352.3 36.3 353.2 49.3C354.2 62 354.9 70.9 354.9 75.9C354.9 83.8 353.5 91.5 350.6 98.9C346.5 109.2 340.5 116.2 332.8 119.5L332.8 106.3C342.4 102.2 347.4 96 347.4 87.6C347.4 82.6 346.7 71.8 345.5 55.4C344.1 38.8 343.6 28.7 343.6 24.7L343.6 24.7L343.6 24.7L343.6 24.7L343.6 24.7ZM345.3 133.6C345.3 137 344.1 140.6 341.5 144.2C338.6 148.3 335.5 150.4 331.9 150.4C328.1 150.4 323.7 148.2 318.9 144.2C313.6 139.9 310.3 134.6 308.8 128.4C306.4 133.9 304.2 138.2 302.1 140.9C299 144.7 294.4 147.9 288.4 150.5L288.4 137.3C294.9 134.4 299.7 131.3 302.8 127.2C304.5 125.3 306.9 121.2 310 114.7C311 112.8 311.7 111.8 312.2 111.8C312.4 111.8 313.2 112.3 314.1 113C314.1 109.4 315.3 107.7 317.7 108.2C322.5 108.9 327.5 108.2 332.8 106L338.3 116.6C342.9 121.6 345.3 127.1 345.3 133.6L345.3 133.6L345.3 133.6L345.3 133.6L345.3 133.6ZM334.3 132.2C331.4 128.1 326.9 125.5 320.1 124.5C318.2 124 317.5 124.3 317.5 124.7C317.5 124.9 317.7 125.4 318.2 126.1C323 132.1 328 135.2 332.8 135.2C334.5 135.2 335.2 135 335.2 134.2C335.2 133.9 334.7 133.1 334.3 132.2L334.3 132.2L334.3 132.2L334.3 132.2L334.3 132.2ZM274.7 139.1C271.1 134.5 268 132.4 265.1 132.4C260.8 132.4 258.9 133.4 258.9 135.8C258.9 138.7 261.8 140.1 267.5 140.1C269.7 140.1 272.1 139.6 274.7 139.1L274.7 139.1L274.7 139.1L274.7 139.1L274.7 139.1ZM282.2 156.7C282.2 155.3 281.7 153.6 281.2 151.9C278.3 152.9 274 153.6 268.7 153.6C257.2 153.6 251.4 149.5 251.4 141.6C251.4 135.6 253.1 130.3 256.9 125.5C260.5 121.4 264.3 119.3 268.4 119.3C271.5 119.3 274.6 121.2 278.2 124.8C281.3 128.4 284.2 132.5 286.6 137.5C286.8 137.5 287.3 137.5 288.3 137L288.3 150.2L287.8 150.7C287.8 153.6 287.1 156.9 285.6 161.3C283.9 166.8 281.3 171.4 278.2 175C271 183.6 263.1 191.1 254.4 197.6C241.4 207.2 230.4 212.2 220.8 212.2C212.6 212.2 206.4 209.1 202.1 203.1C198.3 198.1 196.3 191.3 196.3 183.4C196.3 173.3 198.5 163 202.5 152.2C203.7 149.8 204.2 148.8 204.7 148.8C204.9 148.8 204.9 149 204.9 149.5C204.9 150.2 204.7 151.4 204.4 152.9C201.3 163.5 199.8 171.4 199.8 176.9C199.8 181.9 201 186.3 203.4 189.9C207.2 194.9 213.2 197.6 221.6 197.6C228.8 197.6 237.4 194.5 247.8 188.2C256 183.2 263.9 177.2 271.6 170C278.6 163.1 282.2 158.8 282.2 156.7L282.2 156.7L282.2 156.7L282.2 156.7L282.2 156.7ZM249.3 126.2C249.3 131 248.3 135.3 246.9 138.9C245.5 142.5 243.8 144.4 242.1 144.4C233 144.4 224.1 140.8 215 134.1C212.1 141.3 208.3 147.3 203.2 151.9C197.9 156.9 192.4 159.6 186.6 159.6L186.6 145C190.7 145 195.2 144 199.6 142.1C204.9 139.9 208.5 136.8 210.6 132.7C211.1 131.7 212.8 128.4 215.2 122.9C216.4 120.3 217.6 118.8 218.6 118.6C220 115.7 222.2 112.8 225.1 110C228.9 106.2 232.8 104.2 236.4 104.2C241 104.2 244.3 106.8 246.7 112.4C248.3 116.3 249.3 121.1 249.3 126.2L249.3 126.2L249.3 126.2L249.3 126.2L249.3 126.2ZM239.9 126.4C239.2 124.2 238 122.3 236.3 120.9C234.4 119.2 232.7 118.5 231 118.5C228.4 118.5 226.2 119 224.8 119.9C223.8 120.9 223.1 121.6 223.1 122.5C227.2 125.4 231.7 127.8 237.5 129.2C238.2 129.4 238.7 129.7 239.2 129.7C239.9 129.7 240.2 129.2 240.2 128.5C240.2 128.1 240.2 127.4 239.9 126.4L239.9 126.4L239.9 126.4L239.9 126.4L239.9 126.4ZM186.7 144.7L186.7 159.5C180.5 159.5 175.9 157.8 172.8 154.9C170.4 152.5 169.2 149.1 169.2 145.1C169.2 144.1 169.2 143.2 169.2 142C163 146.6 157.9 149.7 154.1 151.4L154.1 138C158.9 136.1 164.9 132.7 171.9 128.2C172.9 127.5 173.6 127.2 174.1 127.2C174.8 127.2 175.3 127.7 175.3 128.6C175.3 129.1 175.1 130 174.8 131.5C174.8 132.9 174.6 133.9 174.6 134.4C174.6 136.8 175.6 139 177.7 141.1C179.9 143.5 183.1 144.9 186.7 144.7L186.7 144.7L186.7 144.7L186.7 144.7L186.7 144.7ZM140.3 140.1C136.7 135.5 133.6 133.4 130.7 133.4C126.4 133.4 124.5 134.4 124.5 136.8C124.5 139.7 127.4 141.1 133.1 141.1C135.3 141.1 137.7 140.6 140.3 140.1L140.3 140.1L140.3 140.1L140.3 140.1L140.3 140.1ZM147.8 157.6C147.8 156.2 147.3 154.5 146.8 152.8C143.9 153.8 139.6 154.5 134.3 154.5C122.8 154.5 117 150.4 117 142.5C117 136.5 118.7 131.2 122.5 126.4C126.1 122.3 129.9 120.2 134 120.2C137.1 120.2 140.2 122.1 143.8 125.7C146.9 129.3 149.8 133.4 152.2 138.4C152.4 138.4 152.9 138.4 153.9 137.9L153.9 151.1L153.4 151.6C153.4 154.5 152.7 157.8 151.2 162.2C149.5 167.7 146.9 172.3 143.8 175.9C136.6 184.5 128.7 192 120 198.5C107 208.1 96 213.1 86.4 213.1C78.2 213.1 72 210 67.7 204C63.9 199 61.9 192.2 61.9 184.3C61.9 174.2 64.1 163.9 68.1 153.1C69.3 150.7 69.8 149.7 70.3 149.7C70.5 149.7 70.5 149.9 70.5 150.4C70.5 151.1 70.3 152.3 70 153.8C66.9 164.4 65.4 172.3 65.4 177.8C65.4 182.8 66.6 187.2 69 190.8C72.8 195.8 78.8 198.5 87.2 198.5C94.4 198.5 103 195.4 113.4 189.1C121.6 184.1 129.5 178.1 137.2 170.9C144.2 164.1 147.8 159.8 147.8 157.6L147.8 157.6L147.8 157.6L147.8 157.6L147.8 157.6ZM119 103.4C119 112.5 116.8 119.5 112.8 124.3C106.3 131.7 96.7 138.9 84.2 146.1C68.4 154.7 53.7 159.3 39.8 159.3C21.6 159.3 8.79999 150.2 1.89999 132.2C0.499985 128.6 -1.52588e-05 124.3 -1.52588e-05 118.8C-1.52588e-05 115.2 0.199982 111.6 0.699982 107.8C1.69998 102.3 2.89998 97.5 4.29998 93.4C4.99998 92.2 5.49998 91.5 5.99998 91.5C6.49998 91.5 6.49998 92.5 6.19997 94.1C5.49998 96.5 4.99998 99.1 4.49998 101.5C3.49998 106.1 3.09998 109.4 3.09998 111.6C3.09998 119 5.49998 125.8 10.5 132.2C17.2 140.4 27.1 144.7 39.8 144.7C51.1 144.7 63.1 142.1 75.6 136.8C85.9 132.5 95 127.2 103.2 121C110.4 115.2 114.2 111.2 114.2 108.8C114.2 108.3 112.5 105.2 109.4 99.2C105.8 92.2 103.2 85.3 101.5 78.6C100.8 76.4 99.8 75 99.1 74.3C98.1 73.3 97.7 72.6 97.7 71.7C97.7 71 98.4 67.4 99.6 60.9C99.8 59.7 100.1 59.2 100.6 59.2C101.1 59.2 101.6 59.4 102 59.9C103.9 62.1 108 66.1 114 72.1C115 73.1 115.4 73.8 115.4 74.5C115.4 75.2 114.9 75.5 113.7 75.5C112.5 75.5 110.6 75 107.9 74.3C108.1 75 110.3 79.3 114.1 87.3C117.3 93.3 119 98.8 119 103.4L119 103.4L119 103.4L119 103.4L119 103.4ZM162.2 102.4C162 102.2 162 101.9 162.2 101.4L166.8 91.8C167 91.3 167.5 91.1 167.8 91.1C168.3 91.1 170.4 92.3 174 94.7C177.8 97.3 179.8 98.8 179.8 99.3C179.8 101 178.1 104.3 174.8 109.6C174.3 110.3 174.1 110.6 173.6 110.3C169.9 107.5 166 104.8 162.2 102.4L162.2 102.4L162.2 102.4L162.2 102.4L162.2 102.4ZM36.4 66.7C36.2 66.5 36.2 66.2 36.4 65.7L41 56.1C41.2 55.6 41.7 55.4 42 55.4C42.5 55.4 44.6 56.6 48.2 59C52 61.6 54 63.1 54 63.6C54 65.3 52.3 68.6 49 73.9C48.5 74.6 48.3 74.9 47.8 74.6C44.1 71.7 40.3 69.1 36.4 66.7L36.4 66.7L36.4 66.7L36.4 66.7L36.4 66.7ZM273.3 85.9C272.8 88.1 272.3 89.3 271.6 90C269 91.7 263 95.5 253.8 101.8C253.6 102 253.1 102.3 252.6 102.8C252.4 102.6 252.4 102.6 252.4 102.1L252.9 99C253.1 98.3 254.6 96.8 257.5 94.7C253.9 93.5 252.2 91.8 252.2 89.9C252.2 87.7 252.9 85.6 254.8 83.4C258.4 79.1 261.5 76.9 263.9 76.9C266.1 76.9 267 78.1 267 80.5C267 81.9 266.5 83.4 265.3 85.3C265.1 85.8 264.8 85.8 264.3 85.1C263.8 83.9 262.9 83.4 261.7 83.4C261 83.4 260 83.6 258.8 84.6C257.6 85.3 256.9 86 256.9 86.5C256.9 87.2 257.6 87.9 259.1 88.7C260.5 89.7 261.7 89.9 262.7 89.9C263.4 89.9 264.9 89.4 267 88.2C268.4 87.2 269.6 86.3 271.1 85.3C272.3 84.8 273 84.3 273.3 84.6C273.5 84.4 273.5 84.9 273.3 85.9L273.3 85.9L273.3 85.9L273.3 85.9L273.3 85.9ZM318.7 25.1C318.7 23.9 316.3 21.7 311.3 18.9C309.6 21.8 308.9 24.4 308.9 26.8C308.9 28.2 309.6 29.2 311.1 29.2C312.3 29.2 313.7 28.7 315.4 27.8C317 27.1 318.2 26.1 318.7 25.1L318.7 25.1L318.7 25.1L318.7 25.1L318.7 25.1ZM313.4 5.89999C314.1 4.7 315.1 4.2 315.8 4.2C316.3 4.2 316.8 4.39999 316.8 4.89999C316.8 4.89999 316.6 5.09999 316.6 5.39999C315.6 7.59999 314.7 10 314 12.4C319 16 321.4 19.8 321.2 23.4C320.7 27.5 320.2 30.1 319.5 31.1C317.1 34 314.5 35.7 311.1 35.7C307.7 35.7 306.3 33.5 306.3 29.7C306.3 29 306.3 28 306.5 27.1C307.6 19.4 310 12.4 313.4 5.89999L313.4 5.89999L313.4 5.89999L313.4 5.89999L313.4 5.89999ZM317.5 72.4C318 71 318 69.5 317.7 68.1C317.5 66.7 316.7 65.9 315.5 65.9C315 65.9 314.3 66.1 313.3 66.6C312.3 67.1 311.9 67.6 311.9 68C311.9 69.3 313.9 70.7 317.5 72.4L317.5 72.4L317.5 72.4L317.5 72.4L317.5 72.4ZM314.6 78.7C310 76.3 307.9 73.9 307.9 71.3C307.9 68.2 309.3 65.3 312.2 62.9C315.1 60.3 317.5 59.3 319.4 60C321.1 60.5 321.8 62.2 321.8 65C321.8 67.6 321.3 70.5 320.1 73.9C322.5 75.1 323.9 76.3 324.4 77.3C324.4 78.5 323.4 80.7 321.3 83.5C320.8 82.5 319.4 81.3 317.2 80.1C314.6 83.7 311.4 86.8 307.6 89.7C303 92.8 299 95.5 295.4 96.9001C294.4 97.4001 290.1 99.1001 282.4 101.9C281.2 102.4 280.2 102.6 280 102.6C279.8 102.6 279.8 102.4 279.8 102.4C279.8 102.2 280.3 101.4 281.7 100.7C287.5 97.1 293.2 93.7 299.2 90.4001C306.2 86.1 311.2 82.3 314.6 78.7L314.6 78.7L314.6 78.7L314.6 78.7L314.6 78.7ZM262.7 53.2C262.7 52 260.3 49.8 255.3 47C253.6 49.9 252.9 52.5 252.9 54.9C252.9 56.3 253.6 57.3 255.1 57.3C256.3 57.3 257.7 56.8 259.4 55.9C261.1 55.1 262.3 54.2 262.7 53.2L262.7 53.2L262.7 53.2L262.7 53.2L262.7 53.2ZM257.5 34C258.2 32.8 259.2 32.3 259.9 32.3C260.4 32.3 260.9 32.5 260.9 33C260.9 33 260.7 33.2 260.7 33.5C259.7 35.7 258.8 38.1 258.1 40.5C263.1 44.1 265.5 47.9 265.3 51.5C264.8 55.6 264.3 58.2 263.6 59.2C261.2 62.1 258.6 63.8 255.2 63.8C251.8 63.8 250.4 61.6 250.4 57.8C250.4 57.1 250.4 56.1 250.6 55.2C251.7 47.5 254.1 40.5 257.5 34L257.5 34L257.5 34L257.5 34L257.5 34ZM203.2 177.8C221.7 171.1 240.9 163.9 261 156.4C261.7 156.2 262.2 155.9 262.4 156.2C262.4 156.2 262.4 156.7 262.2 157.4C261.2 159.6 260.5 160.8 260 161.2C243.2 167.4 223.3 175.1 200.7 184.5C201.3 182.3 202 180.2 203.2 177.8L203.2 177.8L203.2 177.8L203.2 177.8L203.2 177.8ZM182.3 49.6C182.8 48.2 182.8 46.7 182.5 45.3C182.3 43.9 181.5 43.1 180.3 43.1C179.8 43.1 179.1 43.3 178.1 43.8C177.1 44.3 176.7 44.8 176.7 45.2C176.8 46.5 178.7 47.9 182.3 49.6L182.3 49.6L182.3 49.6L182.3 49.6L182.3 49.6ZM187.6 58.5C185.2 64.3 184 68.8 184 72.2C184 76.3 185 78.4 187.1 78.4C188.5 78.4 190 76.7 191.4 73.8C191.6 73.6 191.6 73.3 191.9 73.1C192.1 73.1 192.1 73.1 192.1 73.3C192.1 73.3 192.1 73.5 192.1 74C190.9 81.2 188.7 84.8 185.6 84.8C182.5 84.8 181 82.2 181 76.9C181 74.3 181.7 70.9 182.9 66.6C184.3 62.3 185.1 60.1 185.1 59.9C185.1 59.4 184.1 58.5 182 57.3C179.4 60.9 176.2 64 172.4 66.9C167.8 70.3 163.8 72.7 160.2 74.3C159.2 74.5 154.9 76.2 147.2 79.1C146 79.6 145 79.8 144.8 79.8C144.6 79.8 144.6 79.8 144.6 79.6C144.6 79.4 145.1 78.9 146.5 77.9C152.3 74.5 158 70.9 164 67.6C171 63.3 176 59.4 179.4 55.8C174.8 53.4 172.7 51 172.7 48.4C172.7 45.3 174.1 42.4 177 39.8C179.9 37.4 182.3 36.4 184.2 37.2C185.9 37.7 186.6 39.4 186.6 42.2C186.6 44.8 186.1 47.7 184.9 50.8C187.3 52.2 188.5 53.7 188.5 55.1C188.6 55.9 188.1 57.1 187.6 58.5L187.6 58.5L187.6 58.5L187.6 58.5L187.6 58.5ZM72.7 40C91.2 33.3 110.4 26.1 130.5 18.6C131.2 18.4 131.7 18.1 131.9 18.4C131.9 18.4 131.9 18.9 131.7 19.6C130.7 21.8 130 23 129.5 23.4C112.7 29.6 92.8 37.3 70.2 46.7C70.7 44.6 71.5 42.4 72.7 40L72.7 40L72.7 40L72.7 40L72.7 40ZM342.4 174.2C342.4 173.5 341.9 172.5 341 171.6C340.3 170.6 339.3 170.2 338.6 170.2C337.4 170.2 336.4 170.7 335.7 171.9C336.9 173.1 338.8 174.3 341.5 175.5C342 175.7 342.2 175.7 342.5 175.5C342.7 175.4 342.7 174.9 342.4 174.2L342.4 174.2L342.4 174.2L342.4 174.2L342.4 174.2ZM331.9 169.9C332.4 169.2 332.9 169.2 333.3 169.7C335.2 166.1 337.1 164.2 339.3 164.2C340.7 164.2 342.2 164.9 343.4 166.8C344.8 168.5 345.3 170.6 345.3 172.8C345.3 173.8 345.3 174.5 345.1 175.4C344.4 179.2 343.2 181.2 341.5 181.2C340.1 181.2 338.1 180.2 336 178.8C333.8 177.6 332.4 176.2 331.4 175C330 179.1 328.3 182.4 326.1 184.8C322.3 189.1 317.5 192.7 311 196.1C306.2 199 303.1 200.2 301.6 200.2C301.6 200.2 298.7 200.9 293.2 202.1C287.4 203.5 283.8 204.5 282.4 204.7C280.2 204.9 279.3 204.9 279.3 204.9C279.3 204.7 280.3 204.2 282.4 203.2C288.4 200.8 297.5 196.7 310 190.7C318.9 185.9 324.6 181.6 327 178C328.3 175.9 329.7 173 331.9 169.9L331.9 169.9L331.9 169.9L331.9 169.9L331.9 169.9ZM219.8 33.3C219.3 30.4 218.1 27.1 216.4 23C214.7 18.9 213.3 16.8 212.6 16.8C212.1 16.8 211.9 16.8 211.6 17.3C211.4 17.5 211.1 17.8 210.4 17.8C209.4 17.8 208.5 17.1 207 15.9C205.6 14.7 205.1 13.7 205.1 13C205.1 12.8 205.6 11.6 206.8 9.60002C207.8 7.70003 208.5 7.00002 208.7 7.00002C211.6 7.00002 214 8.40001 216.1 11.8C218.3 14.9 219.9 19.2 220.7 24.5C220.9 25 220.9 25.2 220.9 25.5L221.1 25.5C221.1 25.3 221.3 25 221.3 24.5C221.8 21.4 223 16.6 224.7 10.3C226.6 6.00002 228.5 3.80002 230.7 3.80002C231.9 3.80002 233.1 4.50002 234.1 6.00002C235.1 7.40001 235.5 8.40001 235.5 9.40001C235.5 9.90001 235.5 10.8 235 11.8C234.5 13.2 234 14 233.6 14C233.4 14 232.9 13.3 231.9 12.3C231.2 11.3 230.2 10.9 229.3 10.9C227.4 10.9 225.7 15.5 224 24.6C223.3 28.2 222.6 31.1 221.4 33.2C223.1 33.2 225 34.4 227.6 36.3C230 38.5 231.4 40.1 231.7 41.6C231.7 42.1 231.5 43 230.7 44.7C230 46.4 229.5 47.1 229 47.3C226.6 48 224.2 48.5 221.8 49.2C218.9 50.2 216.8 51.4 215.6 52.6C219 62.7 220.6 72.5 220.6 82.4C220.6 85.3 220.1 88.2 219.6 91.3C219.4 92.3 219.1 92.7 218.9 93C218.7 93 218.7 91.1 218.7 87.7C218.7 82.2 217.7 75.2 216.1 67.3C214.7 59.4001 213.7 54.8 213.7 53.6001C213.7 49.5 214.9 46.6001 217.1 44.7001C218.3 44.0001 220.2 43.0001 223.3 42.1001C222.1 40.9001 220.9 40.4001 219.7 40.4001C219.2 40.4001 218.5 41.1001 217.5 42.3C216.3 43.5 215.8 44.2 215.6 44.2C215.4 44.2 215.4 43.7 215.6 42.5C216.2 37.4 217.6 34.3 219.8 33.3L219.8 33.3L219.8 33.3L219.8 33.3L219.8 33.3ZM288.7 25.4C288.7 25.2 288.9 24.9 288.9 24.9C289.1 24.7 289.1 24.7 289.1 24.9C289.3 25.1 289.3 25.4 289.1 25.6C287.9 32.8 285.7 36.4 282.6 36.4C279.5 36.4 278 33.8 278 28.5C278 22 279.7 15.1 283.5 8.10001C284.5 6.40001 284.9 5.5 285.2 5.5L285.2 5.5C285.2 5.7 285 6.7 284.5 8.39999C282.1 15.8 280.9 20.9 280.9 24C280.9 27.8 281.9 30 284 30C285.5 29.9 287 28.3 288.7 25.4L288.7 25.4L288.7 25.4L288.7 25.4L288.7 25.4ZM159.8 24.9C159.8 24.7 160 24.4 160 24.4C160.2 24.2 160.2 24.2 160.2 24.4C160.4 24.6 160.4 24.9 160.2 25.1C159 32.3 156.8 35.9 153.7 35.9C150.6 35.9 149.1 33.3 149.1 28C149.1 21.5 150.8 14.6 154.6 7.60001C155.6 5.90001 156 5 156.3 5L156.3 5C156.3 5.2 156.1 6.2 155.6 7.89999C153.2 15.3 152 20.4 152 23.5C152 27.3 153 29.5 155.1 29.5C156.7 29.5 158.1 27.8 159.8 24.9L159.8 24.9L159.8 24.9L159.8 24.9L159.8 24.9ZM142.7 50.1C142.7 52.7 141.5 55.6 139.6 58.7C137.4 61.8 134.8 64.7 131.4 67.1C130 68.1 129.2 68.5 129 68.5L129 68.3C129 68.1 129.5 67.6 130.4 66.4C135.9 60.4 138.8 56.6 138.8 54.4C138.8 52.7 137.8 51.8 136.2 51.8C135.2 51.8 134.3 52 133.6 52.5C132.9 52.7 132.6 53 132.4 53C132.4 53 132.2 53 132.2 52.8C132.2 52.8 132.2 52.3 132.4 51.4C133.4 47.3 135.3 45.4 138.6 45.4C141.3 45.3 142.7 47 142.7 50.1L142.7 50.1L142.7 50.1L142.7 50.1L142.7 50.1ZM156.4 179.9C159.3 179.9 161.7 181.3 163.8 184.7C166 187.8 167.6 192.1 168.4 197.4C168.6 197.9 168.6 198.1 168.6 198.4L168.8 198.4C168.8 198.2 169 197.9 169 197.4C169.5 194.3 170.7 189.5 172.4 183.2C174.3 178.9 176.2 176.7 178.4 176.7C179.6 176.7 180.8 177.4 181.8 178.9C182.8 180.3 183.2 181.3 183.2 182.3C183.2 182.8 183.2 183.7 182.7 184.7C182.2 186.1 181.7 186.9 181.3 186.9C181.1 186.9 180.6 186.2 179.6 185.2C178.9 184.2 177.9 183.8 177 183.8C175.1 183.8 173.4 188.4 171.7 197.5C171 201.6 170 204.5 169.3 206.1C168.6 207.1 168.1 207.8 167.6 207.8C167.1 207.8 167.1 207.1 166.9 206.1C167.1 204.4 166.2 201.3 164.3 196.7C162.4 191.9 161.2 189.7 160.2 189.7C159.7 189.7 159.5 189.7 159.2 190.2C159 190.4 158.7 190.7 158 190.7C157 190.7 156.1 190 154.6 188.8C153.2 187.6 152.7 186.6 152.7 185.9C152.7 185.7 153.2 184.5 154.4 182.5C155.5 180.7 156.2 179.9 156.4 179.9L156.4 179.9L156.4 179.9L156.4 179.9L156.4 179.9ZM11.5 82C11.5 81.8 11.7 81.5 11.7 81.5C11.9 81.3 11.9 81.3 11.9 81.5C12.1 81.7 12.1 82 11.9 82.2C10.7 89.4 8.49999 93 5.39999 93C2.3 93 0.799995 90.4 0.799995 85.1C0.799995 78.6 2.49999 71.7 6.3 64.7C7.3 63 7.7 62.1 7.99999 62.1L7.99999 62.1C7.99999 62.3 7.8 63.3 7.3 65C4.89999 72.4 3.7 77.5 3.7 80.6C3.7 84.4 4.7 86.6 6.8 86.6C8.3 86.6 9.8 84.9 11.5 82L11.5 82L11.5 82L11.5 82L11.5 82ZM44.3 95.2C47.2 95.2 49.6 96.6 51.7 100C53.9 103.1 55.5 107.4 56.3 112.7C56.5 113.2 56.5 113.4 56.5 113.7L56.7 113.7C56.7 113.5 56.9 113.2 56.9 112.7C57.4 109.6 58.6 104.8 60.3 98.5C62.2 94.2 64.1 92 66.3 92C67.5 92 68.7 92.7 69.7 94.2C70.7 95.6 71.1 96.6 71.1 97.6C71.1 98.1 71.1 99 70.6 100C70.1 101.4 69.6 102.2 69.2 102.2C69 102.2 68.5 101.5 67.5 100.5C66.8 99.5 65.8 99.1 64.9 99.1C63 99.1 61.3 103.7 59.6 112.8C58.9 116.9 57.9 119.8 57.2 121.4C56.5 122.4 56 123.1 55.5 123.1C55 123.1 55 122.4 54.8 121.4C55 119.7 54.1 116.6 52.2 112C50.3 107.2 49.1 105 48.1 105C47.6 105 47.4 105 47.1 105.5C46.9 105.7 46.6 106 45.9 106C44.9 106 44 105.3 42.5 104.1C41.1 102.9 40.6 101.9 40.6 101.2C40.6 101 41.1 99.8 42.3 97.8C43.4 95.9 44.1 95.2 44.3 95.2L44.3 95.2L44.3 95.2L44.3 95.2L44.3 95.2ZM544.3 117.8C545.5 116.8 546.5 116.4 547.2 116.4C547.7 116.4 547.9 116.9 547.9 117.8C547.9 118.5 547.7 120 547.2 121.9C546.7 123.8 546.5 125.3 546.5 126.5C546.5 131.8 550.3 134.7 557.8 134.7C563.8 134.7 568.8 132.1 572.7 127C575.1 122.9 577.7 119.1 580.1 115.2C581.1 114.2 581.8 113.8 582.5 113.8C583.5 113.8 583.7 114.8 583.2 116.9C582.2 121 581.5 122.9 581.5 122.4C581.5 124.1 582.5 125.8 584.4 127.2C586.1 128.6 588.5 129.6 591.1 129.6C594.5 129.6 596.6 128.6 597.6 127C597.6 126.8 596.6 124.8 594.5 121.2C594.7 119.3 595.7 115.9 597.1 111.4C597.3 110 597.8 109.2 598.3 109.2C598.8 109.2 599.3 109.4 600 110.4C601.9 113.3 603.1 116.6 603.1 120.5C603.1 126.5 601.7 131.5 599 135.9C596.1 141.2 591.8 143.8 586 143.8C582.2 143.8 578.6 140.7 575.4 134.9C570.1 144.5 563.2 149.3 554.8 149.3C544.7 149.3 539.9 143.5 539.9 132.5C536.1 137.1 529.6 141.1 521.2 145L521.2 131.8C527.4 128.7 531.5 126.8 532.7 126C536.6 124 540.4 121.1 544.3 117.8L544.3 117.8L544.3 117.8L544.3 117.8L544.3 117.8ZM507.5 133.6C503.9 129 500.8 126.9 497.9 126.9C493.6 126.9 491.7 127.9 491.7 130.3C491.7 133.2 494.6 134.6 500.3 134.6C502.5 134.6 504.9 134.1 507.5 133.6L507.5 133.6L507.5 133.6L507.5 133.6L507.5 133.6ZM515 151.1C515 149.7 514.5 148 514 146.3C511.1 147.3 506.8 148 501.5 148C490 148 484.2 143.9 484.2 136C484.2 130 485.9 124.7 489.7 119.9C493.3 115.8 497.1 113.7 501.2 113.7C504.3 113.7 507.4 115.6 511 119.2C514.1 122.8 517 126.9 519.4 131.9C519.6 131.9 520.1 131.9 521.1 131.4L521.1 144.6L520.6 145.1C520.6 148 519.9 151.3 518.4 155.7C516.7 161.2 514.1 165.8 511 169.4C503.8 178 495.9 185.5 487.2 192C474.2 201.6 463.2 206.6 453.6 206.6C445.4 206.6 439.2 203.5 434.9 197.5C431.1 192.5 429.1 185.7 429.1 177.8C429.1 167.7 431.3 157.4 435.3 146.6C436.5 144.2 437 143.2 437.5 143.2C437.7 143.2 437.7 143.4 437.7 143.9C437.7 144.6 437.5 145.8 437.2 147.3C434.1 157.9 432.6 165.8 432.6 171.3C432.6 176.3 433.8 180.7 436.2 184.3C440 189.3 446 192 454.4 192C461.6 192 470.2 188.9 480.6 182.6C488.8 177.6 496.7 171.6 504.4 164.4C511.4 157.6 515 153.3 515 151.1L515 151.1L515 151.1L515 151.1L515 151.1ZM449.5 114.9C449 112.7 448.3 111.1 447.3 109.9C446.6 108.5 446.1 107.7 445.9 107.3C445.9 106.8 445.9 105.1 446.4 101.8C446.9 98.7 447.1 96.5 447.6 95.3C447.8 94.1 448.1 93.6 448.6 93.6C448.8 93.6 449.1 93.8 449.6 94.3C453 98.1 456.6 102 460.6 106.1C462.3 107.8 463 108.7 463 109.2C463 109.4 462.8 109.7 462.3 109.7C461.6 109.7 459.7 109.2 456.8 108.5C458.5 112.6 460.4 116.7 462.1 120.5C464.7 127.2 466.2 132.7 466.2 137.8C466.2 140.2 465.7 143.1 464.8 146.7C463.6 150.8 462.2 153.9 460.2 156.1C453.2 164 441.5 172.7 424.9 182C410.5 190.4 402.1 194.5 399.5 194.5C399 194.5 391.8 196.2 378.1 199.5C363.7 202.9 354.6 205 351 205.5C347.2 206.2 344.8 206.5 343.8 206.5C343.3 206.5 343.3 206.5 343.3 206.3C343.3 206.1 345.9 204.6 351.2 202.2C353.1 201.2 364.2 196.4 384.6 187.8C398.8 181.8 410.5 176.3 419.9 171.2C434.1 163.5 444.9 156.8 452.3 151.3C457.8 147 460.7 143.9 460.7 141.9C460.7 141.4 459.3 138.1 456.4 131.8C453.1 124.7 450.7 119 449.5 114.9L449.5 114.9L449.5 114.9L449.5 114.9L449.5 114.9ZM429.8 81.5C429.8 85.3 427.9 90.6 424 97.1C421.6 101.2 418 106.7 413.2 113.9C418 119.4 421.4 124.5 423 128.8C424 131.9 424.7 136 424.7 140.6C424.7 142.5 424.2 144.9 423.3 148C422.6 150.9 421.6 153 420.7 154.5C418.8 157.4 415.7 160.3 410.9 163.1C405.9 166.5 401.5 168.1 397.9 168.1C392.1 168.1 389.3 163.8 389.3 155.1C389.3 149.3 390.3 143.6 392.2 138.3C394.1 133.7 397.2 127.7 402.3 119.8C398 115.7 393.4 110 388.4 102.8C387.9 102.1 386.7 100.9 384.8 99C383.8 98 383.4 96.8 383.4 95.4C383.4 93.2 383.6 90.8 384.1 88C384.8 85.1 385.3 83.9 385.5 83.9C386.2 83.9 388.4 85.1 392.5 87.7C396.3 90.3 399.5 92.3 401.4 93.9C402.6 94.6 403.1 95.3 403.1 95.3L403.1 95.5C403.1 95.7 402.4 96 400.7 96C397.6 96 395.9 96.2 395.9 96.5C395.9 96.7 396.4 97.2 397.3 98.4C401.1 103.2 405 106.8 409.1 109.7C410.1 108.3 413.4 103.5 418.7 95.3C423.3 88.3 425.9 83.5 427.1 80.7C428.3 77.8 429 76.6 429.5 76.6C429.5 76.7 429.8 78.2 429.8 81.5L429.8 81.5L429.8 81.5L429.8 81.5L429.8 81.5ZM420.4 140.6C417.8 135.3 413.2 129.8 407 124.5C404.8 126.7 402.2 130.7 398.8 136.5C395 143 393.3 147.1 393.3 149.2C393.3 152.1 395.2 153.5 399.5 153.5C401.4 153.5 403.8 152.8 406.9 151.6C411.2 149.7 415.3 147 418.7 143.7C420.2 142.3 420.7 141.3 420.4 140.6L420.4 140.6L420.4 140.6L420.4 140.6L420.4 140.6ZM407 63.5L410.8 55.6C411 55.1 411.3 54.9 411.8 54.9C412.3 54.9 414.2 56.1 418 58.7C421.6 61.1 423.5 62.5 423.5 63C423.5 64.7 421.8 68.3 418.7 73.6C418.2 74.3 417.7 74.3 417.3 74.1C414.2 71.7 410.6 69.3 406.5 66.7C405.1 69.6 403.9 72.2 402.4 74.4C402.2 75.1 401.7 75.4 401.2 75.1C397.6 72.2 393.8 69.6 389.9 67.2C389.7 67 389.7 66.7 389.9 66.2L394.5 56.6C394.7 56.1 395.2 55.6 395.5 55.6C396 55.6 397.7 56.8 400.8 59C403.9 60.9 406 62.6 407 63.5L407 63.5L407 63.5L407 63.5L407 63.5ZM533.5 197.2C530.9 197.9 529.4 198.4 528.9 198.4L528.9 198.2C528.9 198.2 529.9 197.5 531.8 196.3C533.7 195.1 536.6 193.2 540.7 190.1C542.6 188.2 545.5 185.1 549.1 180.7C551.5 177.8 554.1 175.2 557 173.3C560.6 170.7 564 169.5 567.6 169.5C568.3 169.5 569.5 169.7 571 170.2C572.2 170.7 573.4 170.9 574.4 170.9C576.3 170.9 577.8 170.2 579 168.7C579.7 167.3 580.7 166.1 581.6 164.6C582.1 163.6 582.8 163.2 583.3 163.2C583.5 163.2 583.5 163.4 583.5 163.9C583.5 164.4 583.3 165.6 582.8 167C582.3 167.7 584.2 168 587.8 168C588.3 168 588.5 168 588.5 167.8C588.5 167.8 588.3 166.8 587.8 165.2C587.6 164.7 587.8 164 588.5 163C589.5 161.3 589.9 160.6 590.2 160.8C591.2 161.5 591.6 163 591.6 164.6C591.6 166.3 591.1 168 590.4 169.9C589.7 172.1 589 173.3 588.5 173.7C586.8 174.7 584.2 174.4 580.6 172.7C577.7 175.6 574.8 177.3 572 177.3C571.3 177.3 570.1 177.1 568.9 176.6C567.7 176.1 566.7 175.9 566 175.9C561.2 175.9 556.2 178.1 551.1 182.9C547.5 186.5 543.9 190.1 540.3 193.7C538 195.3 535.9 196.5 533.5 197.2L533.5 197.2L533.5 197.2L533.5 197.2L533.5 197.2ZM482.1 67.6C485 67.6 487.4 69 489.5 72.4C491.7 75.5 493.3 79.8 494.1 85.1C494.3 85.6 494.3 85.8 494.3 86.1L494.5 86.1C494.5 85.9 494.7 85.6 494.7 85.1C495.2 82 496.4 77.2 498.1 70.9C500 66.6 501.9 64.4 504.1 64.4C505.3 64.4 506.5 65.1 507.5 66.6C508.5 68 508.9 69 508.9 70C508.9 70.5 508.9 71.4 508.4 72.4C507.9 73.8 507.4 74.6 507 74.6C506.8 74.6 506.3 73.9 505.3 72.9C504.6 71.9 503.6 71.5 502.7 71.5C500.8 71.5 499.1 76.1 497.4 85.2C496.7 89.3 495.7 92.2 495 93.8C494.3 94.8 493.8 95.5 493.3 95.5C492.8 95.5 492.8 94.8 492.6 93.8C492.8 92.1 491.9 89 490 84.4C488.1 79.6 486.9 77.4 485.9 77.4C485.4 77.4 485.2 77.4 484.9 77.9C484.7 78.1 484.4 78.4 483.7 78.4C482.7 78.4 481.8 77.7 480.3 76.5C478.9 75.3 478.4 74.3 478.4 73.6C478.4 73.4 478.9 72.2 480.1 70.2C481.1 68.3 481.9 67.6 482.1 67.6L482.1 67.6L482.1 67.6L482.1 67.6L482.1 67.6ZM441.3 64.7C465.5 55.6 490.7 46.5 516.7 36.9C517.4 36.7 517.9 36.4 517.9 36.7C518.1 36.7 518.1 37.2 517.9 37.9C516.9 40.1 516.2 41.3 515.7 41.7C515.5 41.9 503.2 46.5 479.5 55.4C455.3 64.3 441.6 69.8 438.9 71.5C439.4 69.3 440.1 67.1 441.3 64.7L441.3 64.7L441.3 64.7L441.3 64.7L441.3 64.7ZM417.8 20.8C418.3 19.4 418.3 17.9 418 16.5C417.8 15.1 417 14.3 415.8 14.3C415.3 14.3 414.6 14.5 413.6 15C412.6 15.5 412.2 16 412.2 16.4C412.3 17.7 414.2 19.1 417.8 20.8L417.8 20.8L417.8 20.8L417.8 20.8L417.8 20.8ZM414.9 27.1C410.3 24.7 408.2 22.3 408.2 19.7C408.2 16.6 409.6 13.7 412.5 11.3C415.4 8.70001 417.8 7.70001 419.7 8.40002C421.4 8.90002 422.1 10.6 422.1 13.4C422.1 16 421.6 18.9 420.4 22.3C422.8 23.5 424.2 24.7 424.7 25.7C424.7 26.9 423.7 29.1 421.6 31.9C421.1 30.9 419.7 29.7 417.5 28.5C414.9 32.1 411.7 35.2 407.9 38.1C403.3 41.2 399.3 43.9 395.7 45.3C394.7 45.8 390.4 47.5 382.7 50.3C381.5 50.8 380.5 51 380.3 51C380.1 51 380.1 50.8 380.1 50.8C380.1 50.6 380.6 49.8 382 49.1C387.8 45.5 393.5 42.1 399.5 38.8C406.5 34.5 411.5 30.7 414.9 27.1L414.9 27.1L414.9 27.1L414.9 27.1L414.9 27.1ZM566.6 57.1C567.1 55.7 567.1 54.2 566.8 52.8C566.6 51.4 565.8 50.6 564.6 50.6C564.1 50.6 563.4 50.8 562.4 51.3C561.4 51.8 561 52.3 561 52.7C561.1 53.9 563 55.4 566.6 57.1L566.6 57.1L566.6 57.1L566.6 57.1L566.6 57.1ZM571.9 65.9C569.5 71.7 568.3 76.2 568.3 79.6C568.3 83.7 569.3 85.8 571.4 85.8C572.6 85.8 574 84.1 575.7 81.2C575.9 81 575.9 80.7 576.2 80.5C576.2 80.5 576.4 80.5 576.4 80.7C576.4 80.7 576.4 80.9 576.4 81.4C575 88.6 572.8 92.2 569.9 92.2C566.8 92.2 565.3 89.6 565.3 84.3C565.3 81.7 565.8 78.3 567.2 74C568.6 69.7 569.4 67.5 569.4 67.3C569.4 66.8 568.4 65.9 566.3 64.7C562.5 69.7 557.2 74.5 550.5 78.6C545.9 81.2 541.4 83.6 536.6 85.6C527.7 89.2 522.4 91.1 521.2 91.8C520 92.3 519.3 92.5 518.8 92.5C518.6 92.5 518.6 92.3 518.6 92.3C518.6 91.8 519.1 91.3 520.5 90.4C528.2 86.1 535.6 81.8 543.3 77.4C553.4 71.6 560.3 66.8 563.7 63.2C559.1 60.8 557 58.4 557 55.8C557 52.7 558.4 49.8 561.3 47.2C564.2 44.8 566.6 43.8 568.5 44.6C569.9 45.1 570.9 46.8 570.9 49.6C570.9 52.2 570.4 55.1 569.2 58.2C571.6 59.6 572.6 61.1 572.6 62.5C572.6 63.3 572.3 64.5 571.9 65.9L571.9 65.9L571.9 65.9L571.9 65.9L571.9 65.9ZM459.5 34.3C459.5 34.1 459.7 33.8 459.7 33.8C459.9 33.6 459.9 33.6 459.9 33.8C460.1 34 460.1 34.3 459.9 34.5C458.7 41.7 456.5 45.3 453.4 45.3C450.3 45.3 448.8 42.7 448.8 37.4C448.8 30.9 450.5 24 454.3 17C455.3 15.3 455.7 14.4 456 14.4L456 14.4C456 14.6 455.8 15.6 455.3 17.3C452.9 24.7 451.7 29.8 451.7 32.9C451.7 36.7 452.7 38.9 454.8 38.9C456.4 38.8 457.9 37.1 459.5 34.3L459.5 34.3L459.5 34.3L459.5 34.3L459.5 34.3Z" id="Group" fill="#595959" stroke="none" clip-path="url(#clip_1)" />
  </g>
</svg>