<?xml version="1.0" encoding="utf-8"?>
<svg width="639.90015px" height="205.69998px" viewBox="0 0 639.90015 205.69998" version="1.1" xmlns:xlink="http://www.w3.org/1999/xlink" xmlns="http://www.w3.org/2000/svg">
  <defs>
    <path d="M639.9 0L639.9 0L639.9 205.7L0 205.7L0 0L639.9 0Z" id="path_1" />
    <clipPath id="clip_1">
      <use xlink:href="#path_1" clip-rule="evenodd" fill-rule="evenodd" />
    </clipPath>
  </defs>
  <g id="Surah_100_of_114_(modified)">
    <path d="M639.9 0L639.9 0L639.9 205.7L0 205.7L0 0L639.9 0Z" id="Surah_100_of_114_(modified)" fill="none" stroke="none" />
    <path d="M395.8 28.8C395.8 24 395.1 20.2 393.6 17C393.6 15.3 394.8 11.2 397.7 4.99998C397.9 4.29999 398.2 3.79999 398.4 3.79999C398.9 3.79999 399.1 4.29999 399.6 4.99998C400.3 6.69998 402 11.2 404.9 18.7C408 26.6 409.7 31.4 410.2 33.3C410.7 34.5 410.7 35.7 410.7 36.2C410.7 38.4 408.8 37.2 404.5 32.4C404 31.7 403.8 32.2 403.8 33.4C403.8 33.9 405 48.8 407.2 78.5C409.4 108 410.3 124.6 410.3 128.4C410.3 139.7 408.6 149.8 405.3 158.4C404.3 160.1 403.9 161.3 403.4 162.2L403.4 162.2C402.7 163.4 402.4 163.4 402.2 162.7C402 161.7 402.2 159.8 402.4 157.2C402.9 153.1 403.1 148.6 403.1 143.5C403.1 138.7 401.9 119.5 399.5 85.6999C397 51.8 395.8 32.9 395.8 28.8L395.8 28.8L395.8 28.8L395.8 28.8L395.8 28.8ZM385.9 117.6C385.9 131.8 383.3 142.8 378.2 151C373.9 157.7 368.8 161.3 363.1 161.3L363.1 146.7C367.7 146.7 372.2 144.8 376.5 141.2C377.7 140.2 378.4 136.2 378.4 129.4C378.4 125.3 377.2 108.8 375 80C372.8 51.2 371.9 34.2 371.9 28.9C371.9 24.3 371.2 20.5 369.7 17.4C369.7 15.7 371.1 11.6 373.8 5.2C374 4.5 374.3 4.2 374.8 4.2C375 4.2 375.3 4.39999 375.8 5.39999C376.5 7.09999 378.4 11.6 381.3 19.1C384.2 27 385.9 31.8 386.6 33.5C386.8 34.9 387.1 36.1 387.1 36.6C387.1 38.8 384.9 37.6 380.9 32.8C380.4 32.3 380.2 32.6 380.2 33.8C380.2 34 381.2 47 383.1 72.4C385 97.4 385.9 112.5 385.9 117.6L385.9 117.6L385.9 117.6L385.9 117.6L385.9 117.6ZM346.3 126.2C343.7 124.3 338.4 123.3 330.9 123.1C328.3 123.3 325.6 123.3 323.5 123.8C328.3 126.9 331.7 129.8 333.8 132.2C337.7 130.1 342 127.9 346.3 126.2L346.3 126.2L346.3 126.2L346.3 126.2L346.3 126.2ZM330.3 146.6C320.9 152.8 315.4 156.4 313.3 157.4C308.7 160 303.9 161.2 299.1 161.2L299.1 146.6C305.8 146.6 313.5 144 321.9 138.7C319.3 135.8 315.9 133.4 312.1 131.3C308.7 129.4 306.1 128.4 304.4 128.4C300.8 128.4 298.2 128.9 296.5 130.1C295.8 130.3 295.3 130.6 294.8 130.6C294.3 130.6 294.1 130.4 294.1 129.6C294.1 129.1 294.1 128.6 294.6 127.9L298.9 117.8C299.6 115.9 303.9 114.2 311.9 112.3C319.3 110.6 326.5 109.9 333.3 109.9C346.5 109.9 357.1 112.8 364.7 118.5C366.6 119.9 367.6 120.9 367.6 121.6C367.6 121.8 367.4 122.8 366.9 123.8L362.3 132.2C357.7 133.9 351.5 136.5 343.3 139.9C347.9 144.5 354.6 146.6 363 146.6L363 161.2C356.5 161.2 351.5 160.5 347.9 158.8C343.5 157.2 337.7 153.1 330.3 146.6L330.3 146.6L330.3 146.6L330.3 146.6L330.3 146.6ZM284.2 131.5C285.4 138.2 287.8 142.8 290.9 144.9C292.8 145.9 295.5 146.6 299.1 146.6L299.1 161.2C293.8 161.2 289.7 160 286.9 157.8C282.6 154.7 279.9 149.2 278.5 140.8C277.5 135.5 276.6 120.4 275.9 95C274.9 67.6 274.2 50.8 273.7 44.6C272.5 34.5 270.6 25.2 267.9 16C267.9 13.6 268.9 10.2 270.8 5.40002C271.3 4.20003 271.5 3.50003 272 3.50003C272.2 3.50003 272.7 4.20003 273.2 5.20003C276.3 11.2 278.5 21.5 280.2 35.9C281.2 45 282.1 63 282.8 89.9C283.2 115.2 283.9 129.1 284.2 131.5L284.2 131.5L284.2 131.5L284.2 131.5L284.2 131.5ZM202.1 205.4C192 205.4 187 198.7 187 185.2C187 174.9 189.2 164.6 193.2 154C194.2 151.6 194.9 150.4 195.4 150.4C195.6 150.4 195.6 150.6 195.6 151.1C195.6 151.8 195.4 153 194.9 154.5C192 165.1 190.6 173 190.6 178.5C190.6 182.6 191.8 185.7 194.2 187.9C196.4 189.8 198.8 190.8 201.9 190.8C208.4 190.8 220.9 184.8 239.3 172.8C256.1 162 265.7 155.3 268.3 152.6C269.3 151.6 270 150.7 270 149.7C270 148.5 268.6 146.8 266.2 144.9C263.1 142.5 258 139.6 250.8 136.3C243.4 132.9 237.6 129.8 233.8 127.2C227.3 122.9 221.6 117.1 216.5 110.4C215.8 109.7 214.6 108.5 212.7 107.3C211.5 106.8 210.8 105.4 210.8 103L210.8 94.1C210.8 93.4 211 92.9 211.3 92.4C211.5 92.2 212.3 92.4 213.5 92.9L228.6 100.3C229.3 100.5 229.8 100.8 230.3 101L230.3 101C232.7 102.4 233.7 103.4 233.2 104.1C232.2 105.1 229.6 105.3 224.6 105.1C230.4 110.6 237.6 115.4 246.7 119.7C257.7 125 264.2 128.1 266.4 129.8C271.2 133.2 273.6 138.9 273.6 147.1C273.6 148.8 273.4 150.5 273.1 152.1C272.4 156.7 271.4 159.8 270.5 161.7C269.8 163.1 268.3 164.8 265.9 167C261.3 171.1 252 177.8 237.6 187.4C219.4 199.4 207.6 205.4 202.1 205.4L202.1 205.4L202.1 205.4L202.1 205.4L202.1 205.4ZM212.7 132.2C212.7 123.8 209.3 115.9 202.9 108.7C201.7 107.3 200.7 106.5 200.3 106.5C199.8 106.5 199.1 107.5 198.4 109.1C198.4 109.6 197.7 112.2 196.5 117.5C196 119.2 196.5 120.9 197.5 122.3C203.7 129.7 206.6 134.5 206.6 136.7C204.2 138.9 197 141.7 185.2 145.3C170.3 150.1 156.4 152.5 143.9 152.5C129 152.5 119.4 151.5 114.9 149.4L114.9 164C120.4 166.2 129.8 167.1 143.5 167.1C154.3 167.1 166.3 164.9 179.5 160.6C188.4 157.7 196.8 154.4 204 150.3C206.2 149.3 208.1 147.2 209.8 143.8C211.7 140.4 212.7 136.3 212.7 132.2L212.7 132.2L212.7 132.2L212.7 132.2L212.7 132.2ZM102.7 140.9C106.5 144.5 110.4 147.4 114.7 149.5L114.7 164.1C108.9 161.7 104.6 159.3 101.5 157.1C97.2 153.7 93.8 149.7 91.4 144.4C88.8 138.6 86.8 123.8 86.1 99.8C84.9 67.4 84.2 49.6 83.7 46C82.5 34.2 80.6 25.6 78.2 19.8C78.2 17.6 79.2 13.8 81.6 8.29999C82.1 7.09999 82.6 6.39999 82.8 6.39999C83 6.39999 83.5 7.09999 84 8.09999C86.9 13.6 89 23.5 90.5 37.4C91.2 42.4 91.7 53 92.2 68.6C92.4 78.7 92.7 88.8 93.2 98.6C94.1 121.4 97.2 135.6 102.7 140.9L102.7 140.9L102.7 140.9L102.7 140.9L102.7 140.9ZM46.1 132.9C61.9 132.9 79.7 129.5 100.1 123.3C116.4 118 127 113.7 131.8 110.1C132.3 109.9 132.3 109.4 132.3 108.7C132.3 106.8 129.4 101.7 123.2 94.1C122 92.7 121.5 91 122 89.3C122.7 85.9 123.7 83.1 124.9 80.7C125.6 79 126.3 78.1 126.8 78.1C127 78.1 128 78.8 129.2 80.3C130.9 82 132.6 84.6 134.2 88.5C136.8 93.1 138 97.1 138 100.5C138 111.8 134.4 120.2 127 125.2C122.2 128.8 111.4 133.1 94.8 138.2C73.9 144.7 55.9 147.8 40.1 147.8C24.7 147.8 13.9 143.7 6.99999 135.6C2.19999 130.1 -7.62939e-06 122.9 -7.62939e-06 114.2C-7.62939e-06 105.1 2.19999 96.7 6.49999 88.8C7.89999 86.4 8.89999 85 9.39999 85C9.39999 85 9.59999 85.2 9.59999 85.7C9.59999 86.4001 9.09999 87.9001 8.39999 90C7.39999 92.9 6.2 95.5 5.3 98.4C4.1 102 3.6 105.8 3.6 109.9C3.6 115.2 6 119.7 11.3 123.8C18.7 129.8 30.3 132.9 46.1 132.9L46.1 132.9L46.1 132.9L46.1 132.9L46.1 132.9ZM61.7 80.4L65.5 72.5C65.7 72 66 71.8 66.5 71.8C67 71.8 68.9 73 72.7 75.6C76.3 78 78.2 79.4 78.2 79.9C78.2 81.6 76.5 85.2 73.4 90.5C72.9 91.2 72.4 91.2 72 91C68.9 88.6 65.3 86.2 61.2 83.6C59.8 86.5 58.6 89.1 57.1 91.3C56.9 92 56.4 92.3 55.9 92C52.3 89.1 48.5 86.5 44.6 84.1C44.4 83.9 44.4 83.6 44.6 83.1L49.2 73.5C49.4 73 49.9 72.5 50.2 72.5C50.7 72.5 52.4 73.7 55.5 75.9C58.6 77.7 60.7 79.4 61.7 80.4L61.7 80.4L61.7 80.4L61.7 80.4L61.7 80.4ZM152.7 189.6L156.5 181.7C156.7 181.2 157 181 157.5 181C158 181 159.9 182.2 163.7 184.8C167.3 187.2 169.2 188.6 169.2 189.1C169.2 190.8 167.5 194.4 164.4 199.7C163.9 200.4 163.4 200.4 163 200.2C159.9 197.8 156.3 195.4 152.2 192.8C150.8 195.7 149.6 198.3 148.1 200.5C147.9 201.2 147.4 201.5 146.9 201.2C143.3 198.3 139.5 195.7 135.6 193.3C135.4 193.1 135.4 192.8 135.6 192.3L140.2 182.7C140.4 182.2 140.9 181.7 141.2 181.7C141.7 181.7 143.4 182.9 146.5 185.1C149.5 186.9 151.7 188.6 152.7 189.6L152.7 189.6L152.7 189.6L152.7 189.6L152.7 189.6ZM347.5 22.8C347.5 21.6 345.1 19.4 340.1 16.6C338.4 19.5 337.7 22.1 337.7 24.5C337.7 25.9 338.4 26.9 339.9 26.9C341.1 26.9 342.5 26.4 344.2 25.5C345.9 24.7 347.1 23.7 347.5 22.8L347.5 22.8L347.5 22.8L347.5 22.8L347.5 22.8ZM342.3 3.59999C343 2.39999 344 1.89999 344.7 1.89999C345.2 1.89999 345.7 2.09999 345.7 2.59999C345.7 2.59999 345.5 2.79999 345.5 3.09999C344.5 5.29999 343.6 7.7 342.9 10.1C347.9 13.7 350.3 17.5 350.1 21.1C349.6 25.2 349.1 27.8 348.4 28.8C346 31.7 343.4 33.4 340 33.4C336.6 33.4 335.2 31.2 335.2 27.4C335.2 26.7 335.2 25.7 335.4 24.8C336.5 17 338.9 10.1 342.3 3.59999L342.3 3.59999L342.3 3.59999L342.3 3.59999L342.3 3.59999ZM300.7 84C319.2 77.3 338.4 70.1 358.5 62.6C359.2 62.4 359.7 62.1 359.9 62.4C359.9 62.4 359.9 62.9 359.7 63.6C358.7 65.8 358 67 357.5 67.4C340.7 73.6 320.8 81.3 298.2 90.7C298.8 88.5 299.5 86.4 300.7 84L300.7 84L300.7 84L300.7 84L300.7 84ZM304.8 51.1C305.3 47.7 306.5 43.9 308.4 39.1C309.8 35.5 310.6 31.9 310.6 28.3C310.6 21.3 307.2 14.9 300.8 8.39999C300.3 7.89999 300.3 7.39999 300.8 7L303 3.2C303.2 2.7 303.5 2.7 304 3.2C310.2 8.2 313.6 15.7 313.6 25.5C313.6 30.1 312.4 35.1 310.5 40.1C308.3 45.4 307.4 49 307.4 50.9C307.4 55 308.4 57.1 310.5 57.1C311.9 57.1 313.4 55.4 315.1 52.5C315.1 52.3 315.3 52 315.3 52C315.5 51.8 315.5 51.8 315.5 52C315.5 52 315.5 52.5 315.5 52.7C314.3 59.9 312.1 63.5 309 63.5C306.1 63.5 304.4 60.4 304.4 54.6C304.3 53.5 304.6 52.3 304.8 51.1L304.8 51.1L304.8 51.1L304.8 51.1L304.8 51.1ZM246 198.9C255.6 195.5 265.9 191.7 277 187.9C278 187.7 278.2 187.4 278.4 187.7C278.6 187.7 278.6 188.2 278.2 188.9C277.5 191.1 276.8 192.3 276.3 192.7C266.7 196.1 255.9 200.1 243.7 205.7C244.1 203.5 244.8 201.3 246 198.9L246 198.9L246 198.9L246 198.9L246 198.9ZM112.1 51.3C152.7 35.9 193.9 20.6 236.2 4.69998C236.9 4.49998 237.4 4.19998 237.4 4.49998C237.6 4.49998 237.6 4.99998 237.4 5.69998C236.4 7.89998 235.7 9.09998 235.2 9.49998C196.6 23.9 154.6 40 109.7 58C110.2 55.9 110.9 53.7 112.1 51.3L112.1 51.3L112.1 51.3L112.1 51.3L112.1 51.3ZM44.2 168C53.8 164.6 64.1 160.8 75.2 157C76.2 156.8 76.4 156.5 76.6 156.8C76.8 156.8 76.8 157.3 76.4 158C75.7 160.2 75 161.4 74.5 161.8C64.9 165.2 54.1 169.2 41.9 174.8C42.3 172.5 43 170.4 44.2 168L44.2 168L44.2 168L44.2 168L44.2 168ZM18 78.5C18 78.3 18.2 78 18.2 78C18.4 77.8 18.4 77.8 18.4 78C18.6 78.2 18.6 78.5 18.4 78.7C17.2 85.9 15 89.5 11.9 89.5C8.8 89.5 7.3 86.9 7.3 81.6C7.3 75.1 9 68.2 12.8 61.2C13.8 59.5 14.2 58.6 14.5 58.6L14.5 58.6C14.5 58.8 14.3 59.8 13.8 61.5C11.4 68.9 10.2 74 10.2 77.1C10.2 80.9 11.2 83.1 13.3 83.1C14.9 83 16.3 81.3 18 78.5L18 78.5L18 78.5L18 78.5L18 78.5ZM123.9 19.9C123.9 19.7 124.1 19.4 124.1 19.4C124.3 19.2 124.3 19.2 124.3 19.4C124.5 19.6 124.5 19.9 124.3 20.1C123.1 27.3 120.9 30.9 117.8 30.9C114.7 30.9 113.2 28.3 113.2 23C113.2 16.5 114.9 9.60001 118.7 2.60001C119.7 0.900009 120.1 0 120.4 0L120.4 0C120.4 0.199997 120.2 1.2 119.7 2.89999C117.3 10.3 116.1 15.4 116.1 18.5C116.1 22.3 117.1 24.5 119.2 24.5C120.7 24.5 122.2 22.8 123.9 19.9L123.9 19.9L123.9 19.9L123.9 19.9L123.9 19.9ZM58.1 31.4C58.1 34 56.9 36.9 55 40C52.8 43.1 50.2 46 46.8 48.4C45.4 49.4 44.6 49.8 44.4 49.8L44.4 49.6C44.4 49.4 44.9 48.9 45.8 47.7C51.3 41.7 54.2 37.9 54.2 35.7C54.2 34 53.2 33.1 51.6 33.1C50.6 33.1 49.7 33.3 49 33.8C48.3 34 48 34.3 47.8 34.3C47.8 34.3 47.6 34.3 47.6 34.1C47.6 34.1 47.6 33.6 47.8 32.7C48.8 28.6 50.7 26.7 54 26.7C56.7 26.6 58.1 28.3 58.1 31.4L58.1 31.4L58.1 31.4L58.1 31.4L58.1 31.4ZM241.5 59.3C246.3 59.3 251.3 58.3 257.1 56.7C258.5 56.2 259.3 56.2 259.3 56.5C259.3 56.7 258.8 57.2 257.6 58.2C252.8 62.5 246.3 64.9 238.6 64.9C236.4 64.9 234.3 64.2 232.8 63C231.4 61.8 230.6 60.1 230.6 58.2C230.6 53.2 232.8 47.9 237.1 42.4C233.3 41.2 231.3 39.3 231.3 36.4C231.3 33.8 232.7 30.9 235.9 27.5C239 24.1 241.4 22.5 243.3 22.5C243.8 22.5 244.3 22.7 244.7 23.7C245.2 24.4 245.4 25.1 245.4 26.1C245.4 26.6 244.9 27.5 244 29C243 30.4 242.3 30.9 242.3 30.7C241.8 29.3 241.1 28.5 239.7 28.5C239 28.5 238.3 29 237.3 30.2C236.1 31.4 235.6 32.4 235.6 33.1C236.8 35 239 36.2 241.8 36.2C242.8 36.2 244.4 35.2 246.4 33.3C247.8 32.3 249 31.1 250.2 29.9C250.7 29.7 250.9 29.9 250.9 30.9C250.9 33.3 249.9 35.5 248.5 37.9C242 42.2 237.2 47.3 234.1 52.8C233.6 54 233.4 55 233.4 55.7C233.5 57.8 236.2 59.3 241.5 59.3L241.5 59.3L241.5 59.3L241.5 59.3L241.5 59.3ZM310.8 175.2C313.7 175.2 316.1 176.6 318.2 180C320.4 183.1 322 187.4 322.8 192.7C323 193.2 323 193.4 323 193.7L323.2 193.7C323.2 193.5 323.4 193.2 323.4 192.7C323.9 189.6 325.1 184.8 326.8 178.5C328.7 174.2 330.6 172 332.8 172C334 172 335.2 172.7 336.2 174.2C337.2 175.6 337.6 176.6 337.6 177.6C337.6 178.1 337.6 179 337.1 180C336.6 181.4 336.1 182.2 335.7 182.2C335.5 182.2 335 181.5 334 180.5C333.3 179.5 332.3 179.1 331.4 179.1C329.5 179.1 327.8 183.7 326.1 192.8C325.4 196.9 324.4 199.8 323.7 201.4C323 202.4 322.5 203.1 322 203.1C321.5 203.1 321.5 202.4 321.3 201.4C321.5 199.7 320.6 196.6 318.7 192C316.8 187.2 315.6 185 314.6 185C314.1 185 313.9 185 313.6 185.5C313.4 185.7 313.1 186 312.4 186C311.4 186 310.5 185.3 309 184.1C307.6 182.9 307.1 181.9 307.1 181.2C307.1 181 307.6 179.8 308.8 177.8C309.9 175.9 310.6 175.2 310.8 175.2L310.8 175.2L310.8 175.2L310.8 175.2L310.8 175.2ZM376.3 181.2C376.3 183.8 375.1 186.7 373.2 189.8C371 192.9 368.4 195.8 365 198.2C363.6 199.2 362.8 199.6 362.6 199.6L362.6 199.4C362.6 199.2 363.1 198.7 364 197.5C369.5 191.5 372.4 187.7 372.4 185.5C372.4 183.8 371.4 182.9 369.8 182.9C368.8 182.9 367.9 183.1 367.2 183.6C366.5 183.8 366.2 184.1 366 184.1C366 184.1 365.8 184.1 365.8 183.9C365.8 183.9 365.8 183.4 366 182.5C367 178.4 368.9 176.5 372.2 176.5C374.9 176.4 376.3 178.1 376.3 181.2L376.3 181.2L376.3 181.2L376.3 181.2L376.3 181.2ZM195.4 80.4C195.4 80.9 195.2 81.8 194.7 82.8C194.5 84.2 194 85 193.3 85C193.1 85 192.6 84.3 191.6 83.3C190.9 82.3 189.9 81.9 189.2 81.9C187.3 81.9 185.4 86.5 183.7 95.6C183 99.7 182.3 102.6 181.3 104.2C180.6 105.2 180.1 105.9 179.6 105.9C179.4 105.9 179.1 105.2 179.1 104.2C179.1 102.5 178.1 99.4 176.2 94.8C174.3 90 173.1 87.8 172.4 87.8C171.7 87.8 171.4 87.8 171.2 88.3C171.2 88.5 170.7 88.8 170 88.8C169 88.8 168.1 88.1 166.6 86.9C165.4 85.7 164.7 84.7 164.7 84C164.7 83.8 165.2 82.6 166.4 80.6C167.6 78.7 168.3 78 168.6 78C171.2 78 173.6 79.4 175.8 82.8C178.2 86.2 179.6 90.2 180.6 95.5C180.6 96 180.6 96.2 180.6 96.5C180.8 96.7 180.8 96.7 180.8 96.5C180.8 96.3 181 96 181.3 95.5C181.5 92.4 182.7 87.6 184.4 81.3C186.3 77 188.2 74.8 190.4 74.8C191.6 74.8 192.8 75.5 194 77C194.9 78.5 195.4 79.4 195.4 80.4L195.4 80.4L195.4 80.4L195.4 80.4L195.4 80.4ZM179.5 108C177.8 111.8 174.5 115.7 169.4 119.3C164.8 122.7 160.8 125.1 157.2 126.7C156.5 127.2 152.2 128.9 144.2 131.7C143 132.2 142.3 132.4 141.8 132.4C141.6 132.4 141.6 132.2 141.6 132.2C141.6 132 142.3 131.2 143.5 130.5C150 126.7 159.1 121.1 171.1 113.2C174 111 176.1 108.9 177.8 107C179.7 104.8 180.7 103.6 180.9 103.6C180.9 103.6 180.9 103.6 180.9 103.8C181 104.1 180.5 105.6 179.5 108L179.5 108L179.5 108L179.5 108L179.5 108ZM209.5 39.8C209.5 42.4 208.3 45.3 206.4 48.4C204.2 51.5 201.6 54.4 198.2 56.8C196.8 57.8 196 58.2 195.8 58.2L195.8 58C195.8 57.8 196.3 57.3 197.2 56.1C202.7 50.1 205.6 46.3 205.6 44.1C205.6 42.4 204.6 41.5 203 41.5C202 41.5 201.1 41.7 200.4 42.2C199.7 42.4 199.4 42.7 199.2 42.7C199.2 42.7 199 42.7 199 42.5C199 42.5 199 42 199.2 41.1C200.2 37 202.1 35.1 205.4 35.1C208.1 35 209.5 36.7 209.5 39.8L209.5 39.8L209.5 39.8L209.5 39.8L209.5 39.8ZM232.1 149.3C232.1 151.9 230.9 154.8 229 157.9C226.8 161 224.2 163.9 220.8 166.3C219.4 167.3 218.6 167.7 218.4 167.7L218.4 167.5C218.4 167.3 218.9 166.8 219.8 165.6C225.3 159.6 228.2 155.8 228.2 153.6C228.2 151.9 227.2 151 225.6 151C224.6 151 223.7 151.2 223 151.7C222.3 151.9 222 152.2 221.8 152.2C221.8 152.2 221.6 152.2 221.6 152C221.6 152 221.6 151.5 221.8 150.6C222.8 146.5 224.7 144.6 228 144.6C230.7 144.5 232.1 146.1 232.1 149.3L232.1 149.3L232.1 149.3L232.1 149.3L232.1 149.3ZM175.9 5.29999C175.9 7.89999 174.7 10.8 172.8 13.9C170.6 17 168 19.9 164.6 22.3C163.2 23.3 162.4 23.7 162.2 23.7L162.2 23.5C162.2 23.3 162.7 22.8 163.6 21.6C169.1 15.6 172 11.8 172 9.59999C172 7.89999 171 6.99998 169.4 6.99998C168.4 6.99998 167.5 7.19998 166.8 7.69998C166.1 7.89998 165.8 8.19998 165.6 8.19998C165.6 8.19998 165.4 8.19998 165.4 7.99998C165.4 7.99998 165.4 7.49998 165.6 6.59999C166.6 2.49998 168.5 0.599991 171.8 0.599991C174.5 0.5 175.9 2.09999 175.9 5.29999L175.9 5.29999L175.9 5.29999L175.9 5.29999L175.9 5.29999ZM85.2 171.8C88.1 171.8 90.5 173.2 92.6 176.6C94.8 179.7 96.4 184 97.2 189.3C97.4 189.8 97.4 190 97.4 190.3L97.6 190.3C97.6 190.1 97.8 189.8 97.8 189.3C98.3 186.2 99.5 181.4 101.2 175.1C103.1 170.8 105 168.6 107.2 168.6C108.4 168.6 109.6 169.3 110.6 170.8C111.6 172.2 112 173.2 112 174.2C112 174.7 112 175.6 111.5 176.6C111 178 110.5 178.8 110.1 178.8C109.9 178.8 109.4 178.1 108.4 177.1C107.7 176.1 106.7 175.7 105.8 175.7C103.9 175.7 102.2 180.3 100.5 189.4C99.8 193.5 98.8 196.4 98.1 198C97.4 199 96.9 199.7 96.4 199.7C95.9 199.7 95.9 199 95.7 198C95.9 196.3 95 193.2 93.1 188.6C91.2 183.8 90 181.6 89 181.6C88.5 181.6 88.3 181.6 88 182.1C87.8 182.3 87.5 182.6 86.8 182.6C85.8 182.6 84.9 181.9 83.4 180.7C82 179.5 81.5 178.5 81.5 177.8C81.5 177.6 82 176.4 83.2 174.4C84.3 172.5 85 171.8 85.2 171.8L85.2 171.8L85.2 171.8L85.2 171.8L85.2 171.8ZM161.5 56.9C161.5 59.5 160.3 62.4 158.4 65.5C156.2 68.6 153.6 71.5 150.2 73.9C148.8 74.9 148 75.3 147.8 75.3L147.8 75.1C147.8 74.9 148.3 74.4 149.2 73.2C154.7 67.2 157.6 63.4 157.6 61.2C157.6 59.5 156.6 58.6 155 58.6C154 58.6 153.1 58.8 152.4 59.3C151.7 59.5 151.4 59.8 151.2 59.8C151.2 59.8 151 59.8 151 59.6C151 59.6 151 59.1 151.2 58.2C152.2 54.1 154.1 52.2 157.4 52.2C160.1 52.1 161.5 53.7 161.5 56.9L161.5 56.9L161.5 56.9L161.5 56.9L161.5 56.9ZM261.4 89.3C261.4 91.9 260.2 94.8 258.3 97.9C256.1 101 253.5 103.9 250.1 106.3C248.7 107.3 247.9 107.7 247.7 107.7L247.7 107.5C247.7 107.3 248.2 106.8 249.1 105.6C254.6 99.6 257.5 95.8 257.5 93.6C257.5 91.9 256.5 91 254.9 91C253.9 91 253 91.2 252.3 91.7C251.6 91.9 251.3 92.2 251.1 92.2C251.1 92.2 250.9 92.2 250.9 92C250.9 92 250.9 91.5 251.1 90.6C252.1 86.5 254 84.6 257.3 84.6C259.9 84.5 261.4 86.1 261.4 89.3L261.4 89.3L261.4 89.3L261.4 89.3L261.4 89.3ZM581.1 114.2C582.3 113.2 583.3 112.8 584 112.8C584.5 112.8 584.7 113.3 584.7 114.2C584.7 114.9 584.5 116.4 584 118.3C583.5 120.2 583.3 121.7 583.3 122.9C583.3 128.2 587.1 131.1 594.6 131.1C600.6 131.1 605.6 128.5 609.5 123.4C611.9 119.3 614.5 115.5 616.9 111.6C617.9 110.6 618.6 110.2 619.3 110.2C620.3 110.2 620.5 111.2 620 113.3C619 117.4 618.3 119.3 618.3 118.8C618.3 120.5 619.3 122.2 621.2 123.6C622.9 125 625.3 126 627.9 126C631.3 126 633.4 125 634.4 123.4C634.4 123.2 633.4 121.2 631.3 117.6C631.5 115.7 632.5 112.3 633.9 107.8C634.1 106.4 634.6 105.6 635.1 105.6C635.6 105.6 636.1 105.8 636.8 106.8C638.7 109.7 639.9 113 639.9 116.9C639.9 122.9 638.5 127.9 635.8 132.3C632.9 137.6 628.6 140.2 622.8 140.2C619 140.2 615.4 137.1 612.2 131.3C606.9 140.9 600 145.7 591.6 145.7C581.5 145.7 576.7 139.9 576.7 128.9C572.9 133.5 566.4 137.5 558 141.4L558 128.2C564.2 125.1 568.3 123.2 569.5 122.4C573.4 120.5 577.2 117.6 581.1 114.2L581.1 114.2L581.1 114.2L581.1 114.2L581.1 114.2ZM544.3 130.1C540.7 125.5 537.6 123.4 534.7 123.4C530.4 123.4 528.5 124.4 528.5 126.8C528.5 129.7 531.4 131.1 537.1 131.1C539.3 131 541.7 130.5 544.3 130.1L544.3 130.1L544.3 130.1L544.3 130.1L544.3 130.1ZM551.8 147.6C551.8 146.2 551.3 144.5 550.8 142.8C547.9 143.8 543.6 144.5 538.3 144.5C526.8 144.5 521 140.4 521 132.5C521 126.5 522.7 121.2 526.5 116.4C530.1 112.3 533.9 110.2 538 110.2C541.1 110.2 544.2 112.1 547.8 115.7C550.9 119.3 553.8 123.4 556.2 128.4C556.4 128.4 556.9 128.4 557.9 127.9L557.9 141.1L557.4 141.6C557.4 144.5 556.7 147.8 555.2 152.2C553.5 157.7 550.9 162.3 547.8 165.9C540.6 174.5 532.7 182 524 188.5C511 198.1 500 203.1 490.4 203.1C482.2 203.1 476 200 471.7 194C467.9 189 465.9 182.2 465.9 174.3C465.9 164.2 468.1 153.9 472.1 143.1C473.3 140.7 473.8 139.7 474.3 139.7C474.5 139.7 474.5 139.9 474.5 140.4C474.5 141.1 474.3 142.3 474 143.8C470.9 154.4 469.4 162.3 469.4 167.8C469.4 172.8 470.6 177.2 473 180.8C476.8 185.8 482.8 188.5 491.2 188.5C498.4 188.5 507 185.4 517.4 179.1C525.6 174.1 533.5 168.1 541.2 160.9C548.2 154.1 551.8 149.7 551.8 147.6L551.8 147.6L551.8 147.6L551.8 147.6L551.8 147.6ZM486.3 111.3C485.8 109.1 485.1 107.5 484.1 106.3C483.4 104.9 482.9 104.1 482.7 103.7C482.7 103.2 482.7 101.5 483.2 98.2C483.7 95.1 483.9 92.9 484.4 91.7C484.6 90.5 484.9 90 485.4 90C485.6 90 485.9 90.2 486.4 90.7C489.8 94.5 493.4 98.4 497.4 102.5C499.1 104.2 499.8 105.1 499.8 105.6C499.8 105.8 499.6 106.1 499.1 106.1C498.4 106.1 496.5 105.6 493.6 104.9C495.3 109 497.2 113.1 498.9 116.9C501.5 123.6 503 129.1 503 134.2C503 136.6 502.5 139.5 501.6 143.1C500.4 147.2 499 150.3 497 152.5C490 160.4 478.3 169.1 461.7 178.4C447.3 186.8 438.9 190.9 436.3 190.9C435.8 190.9 428.6 192.6 414.9 195.9C400.5 199.3 391.4 201.4 387.8 201.9C384 202.6 381.6 202.9 380.6 202.9C380.1 202.9 380.1 202.9 380.1 202.7C380.1 202.5 382.7 201 388 198.6C389.9 197.6 401 192.8 421.4 184.2C435.6 178.2 447.3 172.7 456.7 167.6C470.9 159.9 481.7 153.2 489.1 147.7C494.6 143.4 497.5 140.3 497.5 138.3C497.5 137.8 496.1 134.5 493.2 128.2C489.9 121.2 487.5 115.4 486.3 111.3L486.3 111.3L486.3 111.3L486.3 111.3L486.3 111.3ZM466.6 78C466.6 81.8 464.7 87.1 460.8 93.6C458.4 97.7 454.8 103.2 450 110.4C454.8 115.9 458.2 121 459.8 125.3C460.8 128.4 461.5 132.5 461.5 137.1C461.5 139 461 141.4 460.1 144.5C459.4 147.4 458.4 149.5 457.5 151C455.6 153.9 452.5 156.8 447.7 159.6C442.7 163 438.3 164.6 434.7 164.6C428.9 164.6 426.1 160.3 426.1 151.6C426.1 145.8 427.1 140.1 429 134.8C430.9 130.2 434 124.2 439.1 116.3C434.8 112.2 430.2 106.5 425.2 99.3C424.7 98.6 423.5 97.4 421.6 95.5C420.6 94.5 420.2 93.3 420.2 91.9C420.2 89.7 420.4 87.3 420.9 84.5C421.6 81.6 422.1 80.4 422.3 80.4C423 80.4 425.2 81.6 429.3 84.2C433.1 86.8 436.3 88.8 438.2 90.4C439.4 91.1 439.9 91.8 439.9 91.8L439.9 92C439.9 92.2 439.2 92.5 437.5 92.5C434.4 92.5 432.7 92.7 432.7 93C432.7 93.2 433.2 93.7 434.1 94.9C437.9 99.7 441.8 103.3 445.9 106.2C446.9 104.8 450.2 100 455.5 91.8C460.1 84.8 462.7 80 463.9 77.2C465.1 74.3 465.8 73.1 466.3 73.1C466.3 73.2 466.6 74.6 466.6 78L466.6 78L466.6 78L466.6 78L466.6 78ZM457.2 137C454.6 131.7 450 126.2 443.8 120.9C441.6 123.1 439 127.1 435.6 132.9C431.8 139.4 430.1 143.5 430.1 145.6C430.1 148.5 432 149.9 436.3 149.9C438.2 149.9 440.6 149.2 443.7 148C448 146.1 452.1 143.4 455.5 140.1C457 138.7 457.5 137.7 457.2 137L457.2 137L457.2 137L457.2 137L457.2 137ZM443.8 60L447.6 52.1C447.8 51.6 448.1 51.4 448.6 51.4C449.1 51.4 451 52.6 454.8 55.2C458.4 57.6 460.3 59 460.3 59.5C460.3 61.2 458.6 64.8 455.5 70.1C455 70.8 454.5 70.8 454.1 70.6C451 68.2 447.4 65.8 443.3 63.2C441.9 66.1 440.7 68.7 439.2 70.9C439 71.6 438.5 71.9 438 71.6C434.4 68.7 430.6 66.1 426.7 63.7C426.5 63.5 426.5 63.2 426.7 62.7L431.3 53.1C431.5 52.6 432 52.1 432.3 52.1C432.8 52.1 434.5 53.3 437.6 55.5C440.7 57.3 442.8 59 443.8 60L443.8 60L443.8 60L443.8 60L443.8 60ZM570.3 193.9C567.7 194.6 566.2 195.1 565.7 195.1L565.7 194.9C565.7 194.9 566.7 194.2 568.6 193C570.5 191.8 573.4 189.9 577.5 186.8C579.4 184.9 582.3 181.8 585.9 177.4C588.3 174.5 590.9 171.9 593.8 170C597.4 167.4 600.8 166.2 604.4 166.2C605.1 166.2 606.3 166.4 607.8 166.9C609 167.4 610.2 167.6 611.2 167.6C613.1 167.6 614.6 166.9 615.8 165.4C616.5 164 617.5 162.8 618.4 161.3C618.9 160.3 619.6 159.9 620.1 159.9C620.3 159.9 620.3 160.1 620.3 160.6C620.3 161.1 620.1 162.3 619.6 163.7C619.1 164.4 621 164.7 624.6 164.7C625.1 164.7 625.3 164.7 625.3 164.5C625.3 164.5 625.1 163.5 624.6 161.9C624.4 161.4 624.6 160.7 625.3 159.7C626.3 158 626.7 157.3 627 157.5C628 158.2 628.4 159.7 628.4 161.3C628.4 163 627.9 164.7 627.2 166.6C626.5 168.8 625.8 170 625.3 170.4C623.6 171.4 621 171.1 617.4 169.4C614.5 172.3 611.6 174 608.8 174C608.1 174 606.9 173.8 605.7 173.3C604.5 172.8 603.5 172.6 602.8 172.6C598 172.6 593 174.8 587.9 179.6C584.3 183.2 580.7 186.8 577.1 190.4C574.8 192 572.7 193.2 570.3 193.9L570.3 193.9L570.3 193.9L570.3 193.9L570.3 193.9ZM518.9 64.1C521.8 64.1 524.2 65.5 526.3 68.9C528.5 72 530.1 76.3 530.9 81.6C531.1 82.1 531.1 82.3 531.1 82.6L531.3 82.6C531.3 82.4 531.5 82.1 531.5 81.6C532 78.5 533.2 73.7 534.9 67.4C536.8 63.1 538.7 60.9 540.9 60.9C542.1 60.9 543.3 61.6 544.3 63.1C545.3 64.6 545.7 65.5 545.7 66.5C545.7 67 545.7 67.9 545.2 68.9C544.7 70.3 544.2 71.1 543.8 71.1C543.6 71.1 543.1 70.4 542.1 69.4C541.4 68.4 540.4 68 539.5 68C537.6 68 535.9 72.6 534.2 81.7C533.5 85.8 532.5 88.7 531.8 90.3C531.1 91.3 530.6 92 530.1 92C529.6 92 529.6 91.3 529.4 90.3C529.6 88.6 528.7 85.5 526.8 80.9C524.9 76.1 523.7 73.9 522.7 73.9C522.2 73.9 522 73.9 521.7 74.4C521.5 74.6 521.2 74.9 520.5 74.9C519.5 74.9 518.6 74.2 517.1 73C515.7 71.8 515.2 70.8 515.2 70.1C515.2 69.9 515.7 68.7 516.9 66.7C517.9 64.8 518.7 64.1 518.9 64.1L518.9 64.1L518.9 64.1L518.9 64.1L518.9 64.1ZM478.1 61.2C502.3 52.1 527.5 43 553.5 33.4C554.2 33.2 554.7 32.9 554.7 33.2C554.9 33.2 554.9 33.7 554.7 34.4C553.7 36.6 553 37.8 552.5 38.2C552.3 38.4 540 43 516.3 51.9C492.1 60.8 478.4 66.3 475.7 68C476.2 65.7 476.9 63.6 478.1 61.2L478.1 61.2L478.1 61.2L478.1 61.2L478.1 61.2ZM454.6 17.3C455.1 15.9 455.1 14.4 454.8 13C454.6 11.6 453.8 10.8 452.6 10.8C452.1 10.8 451.4 11 450.4 11.5C449.4 12 449 12.5 449 12.9C449.1 14.1 451 15.6 454.6 17.3L454.6 17.3L454.6 17.3L454.6 17.3L454.6 17.3ZM451.7 23.5C447.1 21.1 445 18.7 445 16.1C445 13 446.4 10.1 449.3 7.70001C452.2 5.10001 454.6 4.10001 456.5 4.80002C458.2 5.30002 458.9 7.00002 458.9 9.80002C458.9 12.4 458.4 15.3 457.2 18.7C459.6 19.9 461 21.1 461.5 22.1C461.5 23.3 460.5 25.5 458.4 28.3C457.9 27.3 456.5 26.1 454.3 24.9C451.7 28.5 448.5 31.6 444.7 34.5C440.1 37.6 436.1 40.3 432.5 41.7C431.5 42.2 427.2 43.9 419.5 46.7C418.3 47.2 417.3 47.4 417.1 47.4C416.9 47.4 416.9 47.2 416.9 47.2C416.9 47 417.4 46.2 418.8 45.5C424.6 41.9 430.3 38.5 436.3 35.2C443.3 30.9 448.3 27.1 451.7 23.5L451.7 23.5L451.7 23.5L451.7 23.5L451.7 23.5ZM603.4 53.5C603.9 52.1 603.9 50.6 603.6 49.2C603.4 47.8 602.6 47 601.4 47C600.9 47 600.2 47.2 599.2 47.7C598.2 48.2 597.8 48.7 597.8 49.1C597.9 50.4 599.8 51.8 603.4 53.5L603.4 53.5L603.4 53.5L603.4 53.5L603.4 53.5ZM608.7 62.4C606.3 68.2 605.1 72.7 605.1 76.1C605.1 80.2 606.1 82.3 608.2 82.3C609.4 82.3 610.8 80.6 612.5 77.7C612.7 77.5 612.7 77.2 613 77C613 77 613.2 77 613.2 77.2C613.2 77.2 613.2 77.4 613.2 77.9C611.8 85.1 609.6 88.7 606.7 88.7C603.6 88.7 602.1 86.1 602.1 80.8C602.1 78.2 602.6 74.8 604 70.5C605.4 66.2 606.2 64 606.2 63.8C606.2 63.3 605.2 62.4 603.1 61.2C599.3 66.2 594 71 587.3 75.1C582.7 77.7 578.2 80.1 573.4 82.1C564.5 85.7 559.2 87.6 558 88.3C556.8 88.8 556.1 89 555.6 89C555.4 89 555.4 88.8 555.4 88.8C555.4 88.3 555.9 87.8 557.3 86.9C565 82.6 572.4 78.3 580.1 73.9C590.2 68.1 597.1 63.3 600.5 59.7C595.9 57.3 593.8 54.9 593.8 52.3C593.8 49.2 595.2 46.3 598.1 43.7C601 41.3 603.4 40.3 605.3 41.1C606.7 41.6 607.7 43.3 607.7 46.1C607.7 48.7 607.2 51.6 606 54.7C608.4 56.1 609.4 57.6 609.4 59C609.4 59.7 609.1 60.9 608.7 62.4L608.7 62.4L608.7 62.4L608.7 62.4L608.7 62.4ZM499.5 27.3C499.5 27.1 499.7 26.8 499.7 26.8C499.9 26.6 499.9 26.6 499.9 26.8C500.1 27 500.1 27.3 499.9 27.5C498.7 34.7 496.5 38.3 493.4 38.3C490.3 38.3 488.8 35.7 488.8 30.4C488.8 23.9 490.5 17 494.3 10C495.3 8.3 495.7 7.39999 496 7.39999L496 7.39999C496 7.59999 495.8 8.59999 495.3 10.3C492.9 17.7 491.7 22.8 491.7 25.9C491.7 29.7 492.7 31.9 494.8 31.9C496.3 31.9 497.8 30.2 499.5 27.3L499.5 27.3L499.5 27.3L499.5 27.3L499.5 27.3Z" id="Group" fill="#595959" stroke="none" clip-path="url(#clip_1)" />
  </g>
</svg>