<?xml version="1.0" encoding="utf-8"?>
<svg width="489.1001px" height="201.6269px" viewBox="0 0 489.1001 201.6269" version="1.1" xmlns:xlink="http://www.w3.org/1999/xlink" xmlns="http://www.w3.org/2000/svg">
  <defs>
    <path d="M489.1 0L489.1 0L489.1 201.627L0 201.627L0 0L489.1 0Z" id="path_1" />
    <clipPath id="clip_1">
      <use xlink:href="#path_1" clip-rule="evenodd" fill-rule="evenodd" />
    </clipPath>
  </defs>
  <g id="Surah_74_of_114_(modified)">
    <path d="M489.1 0L489.1 0L489.1 201.627L0 201.627L0 0L489.1 0Z" id="Surah_74_of_114_(modified)" fill="none" stroke="none" />
    <path d="M172.3 0.32692C152.2 7.82692 133 15.0269 114.5 21.7269C113.3 24.1269 112.5 26.3269 112 28.4269C134.6 19.0269 154.5 11.3269 171.3 5.12692C171.8 4.72691 172.5 3.52692 173.5 1.32692C173.7 0.626923 173.7 0.126923 173.7 0.126923C173.551 -0.09665 173.235 0.0130054 172.794 0.166165C172.644 0.218524 172.478 0.275967 172.3 0.32692ZM220.3 25.5269C220.3 20.9269 219.6 17.1269 218.1 14.0269C218.1 12.3269 219.3 8.22691 222.2 1.82692C222.4 1.12692 222.7 0.82692 222.9 0.82692C223.4 0.82692 223.6 1.02692 224.1 2.02692C224.8 3.72691 226.7 8.22691 229.6 15.7269C232.5 23.6269 234.2 28.4269 234.9 30.1269C235.1 31.5269 235.4 32.7269 235.4 33.2269C235.4 35.4269 233.2 34.2269 229.2 29.4269C228.7 28.9269 228.5 29.2269 228.5 30.4269C228.5 30.6269 229.5 43.6269 231.4 69.0269C233.3 94.2269 234.3 109.327 234.3 114.427C234.3 122.327 232.9 130.027 230 137.427C226.875 145.277 222.647 151.21 217.404 155.049L217.6 155.427C222.2 160.427 224.6 166.027 224.6 172.227C224.6 175.827 223.2 179.427 220.5 183.027C217.6 187.127 214.5 189.027 210.9 189.027C207.1 189.027 202.7 187.127 197.9 183.027C192.9 178.427 189.5 173.227 187.8 167.227C183.5 181.127 176 188.327 165.2 188.327L165.2 187.925C160.093 187.876 156.129 186.874 153.4 184.827C149.1 181.727 146.4 175.927 144.8 167.527C144.3 164.627 143.4 158.927 142.2 150.027C141 157.027 138.6 162.727 135 167.327C127.8 176.227 118.9 183.927 108.8 190.327C97 197.727 86.2 201.627 76.4 201.627C71.4 201.627 67.3 199.427 64.6 195.127C62.4 191.527 61.5 187.227 61.5 181.927C61.5 171.827 63.7 161.327 67.7 150.727C67.9321 150.216 68.148 149.76 68.3489 149.359C64.5898 152.431 60.2926 155.49 55.5 158.527C42.8 166.727 31.7 170.727 22.6 170.727C14.2 170.727 7.99998 167.127 4.09999 159.727C1.2 154.727 0 148.727 0 142.227C0 131.927 2.2 121.627 6.2 110.827C6.64055 109.858 7.02287 109.083 7.35552 108.519C7.27104 108.524 7.18586 108.527 7.09999 108.527C3.99998 108.527 2.49998 105.927 2.49998 100.627C2.49998 94.1269 4.19998 87.2269 7.99998 80.2269C8.99998 78.5269 9.39998 77.6269 9.69998 77.6269C9.69998 77.827 9.49998 78.827 8.99998 80.5269C6.59999 87.9269 5.39998 93.0269 5.39998 96.1269C5.39998 99.9269 6.39998 102.127 8.49998 102.127C10.1 102.127 11.5 100.427 13.2 97.5269C13.2 97.3269 13.4 97.0269 13.4 97.0269C13.5093 96.9176 13.5589 96.868 13.5813 96.8782C13.6 96.8867 13.6 96.9362 13.6 97.0269C13.8 97.2269 13.8 97.5269 13.6 97.7269C12.6035 103.706 10.9174 107.202 8.59896 108.216C8.58293 108.927 8.37931 110.089 7.89999 111.527C5 122.127 3.59999 130.027 3.59999 135.527C3.59999 140.327 4.99998 144.927 8.2 148.927C11.8 154.227 16.6 156.627 22.1 156.627C28.8 156.627 37.2 154.027 47.1 148.727C55 144.427 62.7 139.127 70.6 132.927C77.3 127.127 81.4 123.327 82.4 121.127C82.4 112.927 80 104.327 75.4 95.227C74.4 93.527 74 92.127 74 91.127C74 90.427 75 86.827 76.9 80.827C77.1 79.627 77.6 78.927 78.1 78.927C78.6 78.927 79.1 79.927 79.8 81.327C81.2 84.427 82.2 86.127 82.9 86.627C84.3 88.527 87 89.227 90.3 89.227L90.3 89.4268C95.7473 89.4099 99.6097 88.0093 101.2 85.1269C101.2 83.7269 100.2 81.327 98.3 78.1269C97.3 76.7269 97.1 75.2269 97.1 73.827C97.1 73.1269 98.1 69.7269 99.7 63.527C100.2 62.527 100.7 61.827 100.9 61.827C101.4 61.827 102.1 62.827 102.8 64.2269C105.4 69.2269 106.5 73.8269 106.5 78.1269C106.5 86.5269 104.6 93.0269 101 97.8269C97.9 101.927 94.3 104.027 90.2 104.027L90.2 103.827C88.5528 103.827 87.3862 103.817 86.7 103.327C86.7 121.127 84.1 133.127 78.8 139.127C76.4145 142.053 73.5023 144.978 70.0999 147.895C70.1 147.936 70.1 147.98 70.1 148.027C70.1 148.727 69.9 149.927 69.4 151.427C66.5 162.027 65.1 169.927 65.1 175.427C65 183.527 68.9 187.327 76.5 187.327C87.5 187.327 99.3 183.027 112 174.327C121.8 167.627 129.5 160.627 135 153.227C136.9 150.827 137.6 149.627 137.6 149.627C138.3 148.427 138.6 147.027 138.6 145.027C138.6 140.427 137.2 133.227 134.8 123.227C132.9 115.527 128.1 104.027 120.9 88.2269C120.7 87.7269 120.9 85.8269 121.6 82.2269C122.1 78.8269 122.3 76.4269 122.8 75.0269C123.3 73.3269 124 72.8269 125 74.0269C133.4 85.3269 139.9 101.127 144 121.027C145.7 129.927 148.1 142.427 150.7 158.227C151.9 165.227 154.1 169.527 157.4 171.627C159.1 172.827 162 173.327 165.6 173.327L165.6 173.724C170.445 173.651 174.896 172.249 178.4 169.427C181 167.527 183.4 164.627 185.6 160.827C186.8 158.427 188 156.027 189 153.627C190 151.927 190.9 151.227 191.6 151.227C192.2 151.127 192.7 151.327 193.2 151.527C193.2 147.927 194.6 146.527 197 146.727C201.6 147.727 206.6 146.927 212.1 144.827L212.2 145.02L212.2 144.827C221.8 140.727 226.8 134.527 226.8 126.127C226.8 122.027 225.6 105.527 223.4 76.7269C221.3 47.9269 220.3 30.8269 220.3 25.5269ZM190.3 3.02692C191 1.82692 192 1.32692 192.7 1.32692C193.2 1.32692 193.7 1.52692 193.7 2.02692C193.7 2.02692 193.5 2.22691 193.5 2.52692C192.5 4.72691 191.6 7.12692 190.9 9.52692C195.9 13.1269 198.3 16.9269 198.1 20.5269C197.6 24.6269 197.1 27.2269 196.4 28.2269C194 31.1269 191.4 32.8269 188 32.8269C184.6 32.8269 183.2 30.6269 183.2 26.8269C183.2 26.1269 183.2 25.1269 183.4 24.2269C184.5 16.4269 186.9 9.52692 190.3 3.02692ZM246 27.5269C246 22.7269 245.3 18.9269 243.8 15.7269C243.8 14.0269 245 9.92691 247.9 3.72691C248.1 3.02692 248.4 2.52692 248.6 2.52692C249.1 2.52692 249.3 3.02692 249.8 3.72691C250.5 5.42691 252.2 9.92691 255.1 17.4269C258.2 25.3269 259.9 30.1269 260.4 32.0269C260.9 33.2269 260.9 34.4269 260.9 34.9269C260.9 37.1269 259 35.9269 254.7 31.1269C254.2 30.4269 254 30.9269 254 32.1269C254 32.6269 255.2 47.5269 257.4 77.2269C259.6 106.727 260.5 123.327 260.5 127.127C260.5 138.427 258.8 148.527 255.5 157.127C254.5 158.827 254.1 160.027 253.6 160.927C252.9 162.127 252.6 162.127 252.4 161.427C252.229 160.573 252.35 159.063 252.514 157.02C252.542 156.671 252.571 156.306 252.6 155.927C253.1 151.827 253.3 147.327 253.3 142.227C253.3 137.427 252.1 118.227 249.7 84.4269C247.2 50.5269 246 31.5269 246 27.5269ZM294.2 14.1269C294.2 16.7269 296.3 19.1269 300.9 21.5269C297.6 25.1269 292.5 28.9269 285.5 33.2269C279.5 36.5269 273.8 39.9269 268 43.5269C266.6 44.2269 266.1 45.0269 266.1 45.2269C266.1 45.2269 266.1 45.4269 266.3 45.4269C266.5 45.4269 267.5 45.2269 268.7 44.7269C276.4 41.9269 280.7 40.2269 281.7 39.7269C285.3 38.3269 289.3 35.6269 293.9 32.5269C297.7 29.6269 300.9 26.5269 303.5 22.9269C305.7 24.1269 307.1 25.3269 307.6 26.3269C309.7 23.5269 310.7 21.3269 310.7 20.1269C310.2 19.1269 308.8 17.9269 306.4 16.7269C307.6 13.3269 308.1 10.4269 308.1 7.82693C308.1 5.02693 307.4 3.32693 305.7 2.82693C303.8 2.12692 301.4 3.12692 298.5 5.72693C295.6 8.12692 294.2 11.0269 294.2 14.1269ZM348.9 25.0269C348.9 25.0269 348.7 25.3269 348.7 25.5269C347 28.4269 345.6 30.1269 344 30.1269C341.9 30.1269 340.9 27.9269 340.9 24.1269C340.9 21.0269 342.1 15.9269 344.5 8.52692C345 6.82692 345.2 5.82692 345.2 5.62692C344.9 5.62692 344.5 6.52693 343.5 8.22693C339.7 15.2269 338 22.1269 338 28.6269C338 33.9269 339.5 36.5269 342.6 36.5269C345.7 36.5269 347.9 32.9269 349.1 25.7269C349.3 25.5269 349.3 25.2269 349.1 25.0269C349.1 24.9362 349.1 24.8867 349.081 24.8782C349.059 24.868 349.009 24.9176 348.9 25.0269ZM304 10.9269C304.3 12.3269 304.3 13.8269 303.8 15.2269C300.2 13.5269 298.3 12.1269 298.2 10.8269C298.2 10.4269 298.6 9.92691 299.6 9.42691C300.6 8.92691 301.3 8.72691 301.8 8.72691C303 8.72691 303.8 9.52692 304 10.9269ZM74.9 32.0269C75.8 30.1269 76.3 27.9269 76.3 26.0269C76.3 25.1269 75.8 23.6269 74.7 21.6269C73.5 18.3269 72.8 16.6269 72.8 16.6269C72.6 15.6269 72.3 14.4269 72.1 13.2269C72.1 12.3269 71.8 11.8269 71.6 11.8269C71.3 11.8269 71.1 12.3269 70.6 13.0269C69.6 14.2269 69.4 15.4269 69.4 16.8269C69.4 19.4269 70.9 23.0269 73.5 27.8269C73.3 29.3269 72.3 30.0269 70.9 30.0269C67.7 30.0269 66.3 27.9269 66.3 23.8269C66.3 22.4269 65.8 20.2269 65.1 17.1269C64.4 14.2269 63.9 12.8269 63.4 12.8269C63.2 12.8269 62.7 13.2269 62.2 14.2269C61.7 15.4269 61.5 16.1269 61.5 16.6269C61.5 17.1269 61.8 18.5269 62.5 20.7269C63 23.1269 63.5 24.5269 63.5 25.5269C63.5 27.2269 62.8 28.6269 61.6 29.8269C60.4 31.0269 59.2 31.7269 57.8 31.7269C56.9 31.7269 55.9 30.7269 55.2 29.3269C54.7 28.1269 54.5 26.6269 54.5 25.2269C54.5 24.5269 54.5 23.8269 54.7 22.8269C54.7 21.8269 54.9 20.6269 54.9 19.2269C54.9 16.6269 54.4 15.4269 53.7 15.4269C53.2 15.4269 52.5 15.9269 51.5 17.1269C50.6 18.3269 50.1 19.5269 50.1 20.9269C50.1 21.6269 50.4 22.1269 51.1 22.3269C51.6 22.6269 52.1 22.8269 52.1 23.3269L52.1 29.5269C52.1 31.9269 52.6 34.1269 53.8 35.5269C54.8 37.0269 56 37.7269 57.2 37.7269C60.8 37.7269 63.2 35.1269 64.6 30.3269C65.8 34.2269 67.7 36.1269 70.6 36.1269C72.3 36.1269 73.7 34.6269 74.9 32.0269ZM195.6 22.2269C195.6 21.0269 193.2 18.8269 188.2 16.0269C186.5 18.9269 185.8 21.5269 185.8 23.9269C185.8 25.3269 186.5 26.3269 188 26.3269C189.2 26.3269 190.6 25.8269 192.3 24.9269C193.9 24.1269 195.1 23.2269 195.6 22.2269ZM83.7 30.5269C83.5 31.0269 83.5 31.3269 83.7 31.5269C87.6 33.9269 91.4 36.6269 95 39.2269C95.4 39.7269 95.9 39.4269 96.4 38.7269C99.5 33.4269 101.2 30.1269 101.2 28.4269C101.2 27.9269 99.3 26.4269 95.7 23.8269C91.9 21.4269 90 20.2269 89.5 20.2269C89 20.2269 88.7 20.4269 88.5 20.9269L83.7 30.5269ZM327.4 59.2269C351.6 50.1269 376.8 41.0269 402.8 31.4269C403.002 31.3692 403.188 31.3031 403.349 31.2455C403.747 31.1037 404 31.0136 404 31.2269C404.2 31.2269 404.2 31.7269 404 32.4269C403 34.6269 402.3 35.8269 401.8 36.2269C401.6 36.4269 389.3 41.0269 365.6 49.9269C341.4 58.8269 327.7 64.3269 325 66.0269C325.4 63.7269 326.2 61.5269 327.4 59.2269ZM145.9 35.9269C145.9 38.5269 144.7 41.4269 142.8 44.5269C140.6 47.6269 138 50.5269 134.6 52.9269C133.2 53.9269 132.4 54.3269 132.2 54.3269L132.2 54.1269C132.2 53.9269 132.7 53.4269 133.6 52.2269C139.1 46.2269 142 42.4269 142 40.2269C142 38.5269 141 37.6269 139.4 37.6269C138.4 37.6269 137.5 37.8269 136.8 38.3269C136.1 38.5269 135.8 38.8269 135.6 38.8269C135.6 38.8269 135.4 38.8269 135.4 38.6269C135.4 38.6269 135.4 38.1269 135.6 37.2269C136.6 33.1269 138.5 31.2269 141.8 31.2269C144.5 31.1269 145.9 32.7269 145.9 35.9269ZM100.7 38.7269L96.9 46.4269C96 45.5269 93.8 43.8269 90.7 41.827C87.6 39.627 85.9 38.427 85.4 38.427C85.1 38.427 84.6 38.927 84.4 39.427L79.8 49.027C79.6 49.527 79.6 49.827 79.8 50.027C83.7 52.427 87.5 55.027 91.1 57.927C91.6 58.2269 92.1 57.927 92.3 57.2269C93.8 55.0269 95 52.4269 96.4 49.5269C100.5 52.1269 104.1 54.5269 107.2 56.9269C107.6 57.1269 108.1 57.1269 108.6 56.4269C111.7 51.1269 113.4 47.8269 113.4 46.1269C113.4 45.6269 111.5 44.1269 107.9 41.5269C104.1 38.9269 102.2 37.7269 101.7 37.7269C101.2 37.7269 100.9 38.0269 100.7 38.7269ZM457.9 60.3269C455.5 66.1269 454.3 70.6269 454.3 74.0269C454.3 78.1269 455.3 80.2269 457.4 80.2269C458.6 80.2269 460 78.5269 461.7 75.6269C461.9 75.4269 461.9 75.1269 462.2 74.9269C462.2 74.9269 462.4 74.9269 462.4 75.1269L462.4 75.827C461 83.027 458.8 86.6269 455.9 86.6269C452.8 86.6269 451.3 84.0269 451.3 78.7269C451.3 76.1269 451.8 72.7269 453.2 68.427C454.6 64.127 455.4 61.927 455.4 61.7269C455.4 61.2269 454.4 60.327 452.3 59.1269C448.5 64.1269 443.2 68.9269 436.5 73.0269C431.9 75.6269 427.4 78.0269 422.6 80.0269C413.7 83.6269 408.4 85.5269 407.2 86.2269C406 86.7269 405.3 86.927 404.8 86.927C404.6 86.927 404.6 86.7269 404.6 86.7269C404.6 86.2269 405.1 85.7269 406.5 84.827C414.2 80.527 421.6 76.2269 429.3 71.827C439.4 66.027 446.3 61.2269 449.7 57.6269C445.1 55.2269 443 52.827 443 50.2269C443 47.1269 444.4 44.2269 447.3 41.6269C450.2 39.2269 452.6 38.2269 454.5 39.0269C455.9 39.5269 456.9 41.2269 456.9 44.0269C456.9 46.6269 456.4 49.5269 455.2 52.6269C457.6 54.0269 458.6 55.5269 458.6 56.9269C458.6 57.7269 458.4 58.9269 457.9 60.3269ZM162 39.7269C163.7 39.7269 165.6 40.7269 168.2 42.8269C170.8 44.7269 172.3 46.6269 172.5 48.1269C172.7 48.6269 172.3 49.5269 171.5 51.2269C170.8 52.9269 170.3 53.6269 170.1 53.6269C167.7 54.3269 165.3 55.0269 162.9 55.8269C159.8 56.8269 157.9 58.0269 156.7 59.2269C160.1 69.3269 161.7 79.1269 161.7 89.0269C161.7 91.9269 161.2 94.8269 160.7 97.9269C160.5 98.9269 160.2 99.3269 160 99.6269C159.8 99.6269 159.8 97.7269 159.8 94.3269C159.8 88.8269 158.8 81.8269 157.2 73.9269C155.5 66.0269 154.8 61.2269 154.8 60.2269C154.8 56.1269 155.8 53.2269 158.2 51.3269C159.2 50.6269 161.3 49.6269 164.2 48.7269C163 47.5269 161.8 47.0269 160.6 47.0269C160.1 47.0269 159.4 47.5269 158.4 48.7269C157.4 50.1269 156.7 50.6269 156.7 50.6269C156.5 50.6269 156.2 50.1269 156.5 49.2269C157.2 42.8269 159.1 39.7269 162 39.7269ZM452.6 51.5269C453.1 50.1269 453.1 48.6269 452.8 47.2269C452.6 45.8269 451.8 45.0269 450.6 45.0269C450.1 45.0269 449.4 45.2269 448.4 45.7269C447.4 46.2269 447 46.7269 447 47.1269C447.1 48.3269 449 49.8269 452.6 51.5269ZM297.1 50.0269L293.3 57.9269C292.3 57.0269 290.2 55.3269 287.1 53.427C284 51.227 282.3 50.027 281.8 50.027C281.5 50.027 281 50.527 280.8 51.027L276.2 60.627C276 61.127 276 61.427 276.2 61.627C280.1 64.027 283.9 66.627 287.5 69.527C288 69.827 288.5 69.527 288.7 68.827C290.2 66.6269 291.4 64.0269 292.8 61.1269C296.9 63.7269 300.5 66.1269 303.6 68.5269C304 68.7269 304.5 68.7269 305 68.0269C308.1 62.7269 309.8 59.1269 309.8 57.4269C309.8 56.9269 307.9 55.5269 304.3 53.1269C300.5 50.5269 298.6 49.3269 298.1 49.3269C297.6 49.3269 297.3 49.5269 297.1 50.0269ZM29 58.4269C26.9 55.0269 24.5 53.6269 21.6 53.6269C21.4 53.6269 20.6 54.3269 19.6 56.2269C18.4 58.2269 17.9 59.4269 17.9 59.6269C17.9 60.3269 18.4 61.3269 19.8 62.5269C21.3 63.7269 22.2 64.4269 23.2 64.4269C23.9 64.4269 24.2 64.1269 24.4 63.9269C24.7 63.4269 24.9 63.4269 25.4 63.4269C26.4 63.4269 27.6 65.6269 29.5 70.4269C31.4 75.0269 32.3 78.1269 32.1 79.8269C32.3 80.8269 32.3 81.5269 32.8 81.5269C33.3 81.5269 33.8 80.8269 34.5 79.8269C35.2 78.2269 36.2 75.3269 36.9 71.2269C38.6 62.1269 40.3 57.5269 42.2 57.5269C43.1 57.5269 44.1 57.9269 44.8 58.9269C45.8 59.9269 46.3 60.6269 46.5 60.6269C46.9 60.6269 47.4 59.8269 47.9 58.4269C48.4 57.4269 48.4 56.5269 48.4 56.0269C48.4 55.0269 48 54.0269 47 52.6269C46 51.1269 44.8 50.4269 43.6 50.4269C41.4 50.4269 39.5 52.6269 37.6 56.9269C35.9 63.2269 34.7 68.0269 34.2 71.1269C34.2 71.6269 34 71.9269 34 72.1269L33.8 72.1269C33.8 71.8269 33.8 71.6269 33.6 71.1269C32.8 65.8269 31.2 61.5269 29 58.4269ZM375.6 67.1269C373.5 63.7269 371.1 62.3269 368.2 62.3269C367.9 62.3269 367.2 63.0269 366.2 64.927C365 66.927 364.5 68.1269 364.5 68.327C364.5 69.0269 365 70.0269 366.4 71.2269C367.9 72.4269 368.8 73.1269 369.8 73.1269C370.5 73.1269 370.8 72.827 371 72.6269C371.3 72.1269 371.5 72.1269 372 72.1269C373 72.1269 374.2 74.327 376.1 79.1269C378 83.7269 378.9 86.8269 378.7 88.5269C378.9 89.5269 378.9 90.2269 379.4 90.2269C379.9 90.2269 380.4 89.5269 381.1 88.5269C381.8 86.9269 382.8 84.0269 383.5 79.9269C385.2 70.8269 386.9 66.2269 388.8 66.2269C389.7 66.2269 390.7 66.6269 391.4 67.6269C392.4 68.6269 392.9 69.3269 393.1 69.3269C393.5 69.3269 394 68.5269 394.5 67.1269C395 66.1269 395 65.2269 395 64.7269C395 63.7269 394.6 62.7269 393.6 61.3269C392.6 59.8269 391.4 59.1269 390.2 59.1269C388 59.1269 386.1 61.3269 384.2 65.6269C382.5 71.9269 381.3 76.7269 380.8 79.8269C380.8 80.3269 380.6 80.6269 380.6 80.8269L380.4 80.8269C380.4 80.5269 380.4 80.3269 380.2 79.8269C379.4 74.5269 377.8 70.2269 375.6 67.1269ZM315.8 75.9269C315.8 79.7269 313.9 85.0269 310 91.5269C307.6 95.6269 304 101.127 299.2 108.327C304 113.827 307.4 118.927 309 123.227C310 126.327 310.7 130.427 310.7 135.027C310.7 136.927 310.2 139.327 309.3 142.427C308.6 145.327 307.6 147.427 306.7 148.927C304.8 151.827 301.7 154.727 296.9 157.527C291.9 160.927 287.5 162.527 283.9 162.527C278.1 162.527 275.3 158.227 275.3 149.527C275.3 143.727 276.3 138.027 278.2 132.727C280.1 128.127 283.2 122.127 288.3 114.227C284 110.127 279.4 104.427 274.4 97.2269C273.9 96.5269 272.7 95.3269 270.8 93.4269C269.8 92.4269 269.4 91.2269 269.4 89.8269C269.4 87.6269 269.6 85.2269 270.1 82.4269C270.8 79.5269 271.3 78.3269 271.5 78.3269C272.2 78.3269 274.4 79.5269 278.5 82.1269C282.3 84.7269 285.5 86.7269 287.4 88.3269C288.6 89.0269 289.1 89.7269 289.1 89.7269L289.1 89.9269C289.1 90.1269 288.4 90.4269 286.7 90.4269C283.6 90.4269 281.9 90.6269 281.9 90.9269C281.9 91.1269 282.4 91.6269 283.3 92.8269C287.1 97.6269 291 101.227 295.1 104.127C296.1 102.727 299.4 97.9269 304.7 89.7269C309.3 82.7269 311.9 77.9269 313.1 75.1269C314.3 72.2269 315 71.0269 315.5 71.0269C315.6 71.2269 315.8 72.6269 315.8 75.9269ZM200.4 114.127C200.4 110.727 201.6 106.227 204 100.427C204.5 99.0269 204.9 97.8269 204.9 97.0269C204.9 95.6269 203.7 94.1269 201.3 92.7269C202.5 89.6269 203 86.7269 203 84.1269C203 81.327 202.3 79.6269 200.6 79.1269C198.7 78.327 196.3 79.327 193.4 81.7269C190.5 84.327 189.1 87.2269 189.1 90.327C189.1 92.927 191.2 95.327 195.8 97.7269C192.4 101.327 187.4 105.227 180.4 109.527C174.4 112.827 168.7 116.427 162.9 119.827C161.5 120.827 161 121.327 161 121.527C161 121.727 161 121.727 161.2 121.727C161.4 121.727 162.4 121.527 163.6 121.027C171.3 118.127 175.6 116.427 176.6 116.227C180.2 114.627 184.2 112.227 188.8 108.827C192.6 105.927 195.8 102.827 198.4 99.2269C200.5 100.427 201.5 101.327 201.5 101.827C201.5 102.027 200.7 104.227 199.3 108.527C198.1 112.827 197.4 116.227 197.4 118.827C197.4 124.127 198.9 126.727 202 126.727C205.1 126.727 207.3 123.127 208.5 115.927L208.5 115.227C208.5 115.027 208.5 115.027 208.3 115.027C208 115.227 208 115.527 207.8 115.727C206.4 118.627 204.9 120.327 203.5 120.327C201.4 120.327 200.4 118.227 200.4 114.127ZM198.9 87.2269C199.2 88.6269 199.2 90.1269 198.7 91.5269C195.1 89.9269 193.2 88.4269 193.1 87.1269C193.1 86.7269 193.5 86.2269 194.5 85.7269C195.5 85.2269 196.2 85.0269 196.7 85.0269C197.9 85.0269 198.7 85.827 198.9 87.2269ZM333.3 104.327C334.3 105.527 335 107.127 335.5 109.327C336.7 113.427 339.1 119.227 342.4 126.227C345.3 132.527 346.7 135.827 346.7 136.327C346.7 138.327 343.8 141.427 338.3 145.727C333.449 149.332 327.136 153.454 319.363 158.035C320.098 153.598 321.371 148.283 323.2 142.027C323.5 140.527 323.7 139.327 323.7 138.627C323.7 138.127 323.7 137.927 323.5 137.927C323 137.927 322.5 138.927 321.3 141.327C318.954 147.662 317.227 153.825 316.2 159.877C312.992 161.725 309.559 163.643 305.9 165.627C296.5 170.727 284.8 176.227 270.6 182.227C250.2 190.827 239.1 195.627 237.2 196.627C231.9 199.027 229.3 200.527 229.3 200.727C229.3 200.927 229.3 200.927 229.8 200.927C230.8 200.927 233.2 200.627 237 199.927C240.6 199.427 249.7 197.327 264.1 193.927C277.8 190.627 285 188.927 285.5 188.927C288.1 188.927 296.5 184.827 310.9 176.427C312.345 175.617 313.753 174.812 315.124 174.012C315.36 181.28 317.34 187.543 320.9 192.227C325.2 198.227 331.4 201.327 339.6 201.327C349.2 201.327 360.2 196.327 373.2 186.727C381.9 180.227 389.8 172.727 397 164.127C400.1 160.527 402.7 155.927 404.4 150.427C405.9 146.027 406.6 142.727 406.6 139.827L407.1 139.327L407.1 126.127C406.1 126.627 405.6 126.627 405.4 126.627C403 121.627 400.1 117.527 397 113.927C393.4 110.327 390.3 108.427 387.2 108.427C383.1 108.427 379.3 110.527 375.7 114.627C371.9 119.427 370.2 124.727 370.2 130.727C370.2 138.627 376 142.727 387.5 142.727C392.8 142.727 397.1 142.027 400 141.027C400.5 142.727 401 144.427 401 145.827C401 147.927 397.4 152.327 390.4 159.127C382.7 166.327 374.8 172.327 366.6 177.327C356.2 183.627 347.6 186.727 340.4 186.727C332 186.727 326 184.027 322.2 179.027C320.739 176.836 319.723 174.348 319.151 171.609C331.444 164.112 340.423 157.047 346.2 150.527C348.2 148.327 349.6 145.227 350.8 141.127C351.7 137.527 352.2 134.627 352.2 132.227C352.2 127.127 350.7 121.627 348.1 114.927C346.4 111.127 344.5 107.027 342.8 102.927C345.7 103.627 347.6 104.127 348.3 104.127C348.8 104.127 349 103.827 349 103.627C349 103.127 348.3 102.227 346.6 100.527C342.6 96.4269 339 92.5269 335.6 88.7269C335.1 88.2269 334.8 88.0269 334.6 88.0269C334.1 88.0269 333.8 88.5269 333.6 89.7269C333.1 90.9269 332.9 93.1269 332.4 96.2269C331.9 99.5269 331.9 101.227 331.9 101.727C332.1 102.127 332.6 102.927 333.3 104.327ZM50.6 117.727C50.6 117.527 50.8 117.227 50.8 117.227C50.9093 117.118 50.9589 117.068 50.9813 117.078C51 117.087 51 117.136 51 117.227C51.2 117.427 51.2 117.727 51 117.927C49.8 125.127 47.6 128.727 44.5 128.727C41.4 128.727 39.9 126.127 39.9 120.827C39.9 114.327 41.6 107.427 45.4 100.427C46.4 98.7269 46.8 97.8269 47.1 97.8269C47.1 98.0269 46.9 99.0269 46.4 100.727C44 108.127 42.8 113.227 42.8 116.327C42.8 120.127 43.8 122.327 45.9 122.327C47.5 122.327 48.9 120.627 50.6 117.727ZM433.2 111.027C432.5 111.027 431.5 111.427 430.3 112.427C426.5 115.827 422.6 118.727 418.7 120.527C417.5 121.327 413.4 123.227 407.2 126.327L407.2 139.627C415.6 135.727 422.1 131.727 425.9 127.127C425.9 138.127 430.7 143.927 440.8 143.927C449.2 143.927 456.1 139.127 461.4 129.527C464.6 135.327 468.2 138.427 472 138.427C477.8 138.427 482.1 135.827 485 130.527C487.7 126.127 489.1 121.127 489.1 115.127C489.1 111.227 487.9 107.927 486 105.027C485.3 104.027 484.8 103.827 484.3 103.827C483.8 103.827 483.3 104.627 483.1 106.027C481.7 110.527 480.7 113.927 480.5 115.827C482.6 119.427 483.6 121.427 483.6 121.627C482.6 123.227 480.5 124.227 477.1 124.227C474.5 124.227 472.1 123.227 470.4 121.827C468.5 120.427 467.5 118.727 467.5 117.027C467.5 117.527 468.2 115.627 469.2 111.527C469.7 109.427 469.5 108.427 468.5 108.427C467.8 108.427 467.1 108.827 466.1 109.827C463.7 113.727 461.1 117.527 458.7 121.627C454.8 126.727 449.8 129.327 443.8 129.327C436.3 129.327 432.5 126.427 432.5 121.127C432.5 119.927 432.7 118.427 433.2 116.527C433.7 114.627 433.9 113.127 433.9 112.427C433.9 111.527 433.7 111.027 433.2 111.027ZM306.5 135.027C303.9 129.727 299.3 124.227 293.1 118.927C290.9 121.127 288.3 125.127 284.9 130.927C281.1 137.427 279.4 141.527 279.4 143.627C279.4 146.527 281.3 147.927 285.6 147.927C287.5 147.927 289.9 147.227 293 146.027C297.3 144.127 301.4 141.427 304.8 138.127C306.2 136.727 306.7 135.727 306.5 135.027ZM393.6 128.327C390 123.727 386.9 121.627 384 121.627C379.7 121.627 377.8 122.627 377.8 125.027C377.8 127.927 380.7 129.327 386.4 129.327C388.5 129.227 390.9 128.727 393.6 128.327ZM86.9 147.227C96.5 143.827 106.8 140.027 117.9 136.227C118.285 136.15 118.552 136.058 118.745 135.991C119.054 135.885 119.177 135.842 119.3 136.027C119.5 136.027 119.5 136.527 119.1 137.227C118.4 139.427 117.7 140.627 117.2 141.027C107.6 144.427 96.8 148.427 84.6 154.027C84.9 151.827 85.7 149.627 86.9 147.227ZM419.5 191.927C416.9 192.627 415.4 193.127 414.9 193.127L414.9 192.927C414.9 192.927 415.9 192.227 417.8 191.027C419.7 189.827 422.6 187.927 426.7 184.827C428.6 182.927 431.5 179.827 435.1 175.427C437.5 172.527 440.1 169.927 443 168.027C446.6 165.427 450 164.227 453.6 164.227C454.3 164.227 455.5 164.427 457 164.927C458.2 165.427 459.4 165.627 460.4 165.627C462.3 165.627 463.8 164.927 465 163.427C465.7 162.027 466.7 160.827 467.6 159.327C468.1 158.327 468.8 157.927 469.3 157.927C469.5 157.927 469.5 158.127 469.5 158.627C469.5 159.127 469.3 160.327 468.8 161.727C468.3 162.427 470.2 162.727 473.8 162.727C474.3 162.727 474.5 162.727 474.5 162.527C474.5 162.527 474.3 161.527 473.8 159.927C473.6 159.427 473.8 158.727 474.5 157.727L474.58 157.591C475.522 155.99 475.908 155.332 476.2 155.527C477.2 156.227 477.6 157.727 477.6 159.327C477.6 161.027 477.1 162.727 476.4 164.627C475.7 166.827 475 168.027 474.5 168.427C472.8 169.427 470.2 169.127 466.6 167.427C463.7 170.327 460.8 172.027 458 172.027C457.3 172.027 456.1 171.827 454.9 171.327C453.7 170.827 452.7 170.627 452 170.627C447.2 170.627 442.2 172.827 437.1 177.627L426.3 188.427C424.1 189.927 421.9 191.227 419.5 191.927ZM199.2 163.027C206 164.227 210.8 166.627 213.4 170.727C214.1 171.927 214.3 172.727 214.4 173.027C214.4 173.527 213.6 174.027 212.2 174.027C207.1 174.027 202.3 170.927 197.3 164.927C196.8 164.227 196.6 163.727 196.6 163.527C196.6 163.027 197.5 162.827 199.2 163.027ZM23.5 185.427C33.1 182.027 43.4 178.227 54.5 174.427C54.8851 174.35 55.1516 174.258 55.3451 174.191C55.654 174.085 55.777 174.042 55.9 174.227C56.1 174.227 56.1 174.727 55.7 175.427C55 177.627 54.3 178.827 53.8 179.227C44.2 182.627 33.4 186.627 21.2 192.227C21.6 189.927 22.3 187.827 23.5 185.427Z" id="Group" fill="#595959" fill-rule="evenodd" stroke="none" clip-path="url(#clip_1)" />
  </g>
</svg>