<?xml version="1.0" encoding="utf-8"?>
<svg width="496.40015px" height="204.2269px" viewBox="0 0 496.40015 204.2269" version="1.1" xmlns:xlink="http://www.w3.org/1999/xlink" xmlns="http://www.w3.org/2000/svg">
  <defs>
    <path d="M496.4 0L496.4 0L496.4 204.227L0 204.227L0 0L496.4 0Z" id="path_1" />
    <clipPath id="clip_1">
      <use xlink:href="#path_1" clip-rule="evenodd" fill-rule="evenodd" />
    </clipPath>
  </defs>
  <g id="Surah_96_of_114_(modified)">
    <path d="M496.4 0L496.4 0L496.4 204.227L0 204.227L0 0L496.4 0Z" id="Surah_96_of_114_(modified)" fill="none" stroke="none" />
    <path d="M83.1001 21.7269C101.6 15.0269 120.8 7.82692 140.9 0.32692C141.078 0.275967 141.244 0.218524 141.394 0.166165C141.835 0.0130054 142.151 -0.09665 142.3 0.126923C142.3 0.126923 142.3 0.626923 142.1 1.32692C141.1 3.52692 140.4 4.72691 139.9 5.12692C123.1 11.3269 103.2 19.0269 80.6 28.4269C81.2 26.2269 81.9001 24.1269 83.1001 21.7269ZM206 1.72691C205.3 1.72691 204.3 2.22691 203.6 3.42691C200.2 9.92691 197.8 16.9269 196.7 24.6269C196.5 25.5269 196.5 26.5269 196.5 27.2269C196.5 31.0269 197.9 33.2269 201.3 33.2269C204.7 33.2269 207.3 31.5269 209.7 28.6269C210.4 27.6269 210.9 25.0269 211.4 20.9269C211.6 17.3269 209.2 13.5269 204.2 9.92691C204.9 7.52692 205.8 5.12691 206.8 2.92691C206.8 2.62691 207 2.42691 207 2.42691C207 1.92691 206.5 1.72691 206 1.72691ZM250.1 15.2269C251.6 18.4269 252.3 22.2269 252.3 27.0269C252.3 31.1269 253.5 50.0269 256 83.9269C258.4 117.727 259.6 136.927 259.6 141.727C259.6 146.827 259.4 151.327 258.9 155.427C258.871 155.806 258.842 156.171 258.814 156.52C258.65 158.562 258.529 160.073 258.7 160.927C258.9 161.627 259.2 161.627 259.9 160.427C260.4 159.527 260.8 158.327 261.8 156.627C265.1 148.027 266.8 137.927 266.8 126.627C266.8 122.827 265.9 106.227 263.7 76.7269C261.5 47.0269 260.3 32.1269 260.3 31.6269C260.3 30.4269 260.5 29.9269 261 30.6269C265.3 35.4269 267.2 36.6269 267.2 34.4269C267.2 33.9269 267.2 32.7269 266.7 31.5269C266.2 29.6269 264.5 24.8269 261.4 16.9269C258.5 9.42691 256.8 4.92691 256.1 3.22691C255.6 2.52692 255.4 2.02692 254.9 2.02692C254.7 2.02692 254.4 2.52692 254.2 3.22691C251.3 9.42691 250.1 13.5269 250.1 15.2269ZM301.5 14.3269C301.5 16.9269 303.6 19.3269 308.2 21.7269C304.9 25.3269 299.8 29.1269 292.8 33.4269C286.8 36.7269 281.1 40.1269 275.3 43.7269C273.9 44.4269 273.4 45.2269 273.4 45.4269C273.4 45.4269 273.4 45.6269 273.6 45.6269C273.8 45.6269 274.8 45.4269 276 44.9269C283.7 42.1269 288 40.4269 289 39.9269C292.6 38.5269 296.6 35.8269 301.2 32.7269C305 29.8269 308.2 26.7269 310.8 23.1269C313 24.3269 314.4 25.5269 314.9 26.5269C317 23.7269 318 21.5269 318 20.3269C317.5 19.3269 316.1 18.1269 313.7 16.9269C314.9 13.5269 315.4 10.6269 315.4 8.02693C315.4 5.22693 314.7 3.52693 313 3.02693C311.1 2.32692 308.7 3.32692 305.8 5.92693C302.9 8.32692 301.5 11.2269 301.5 14.3269ZM163.8 39.9269C168.6 39.9269 173.6 38.9269 179.4 37.3269C180.8 36.8269 181.6 36.8269 181.6 37.1269C181.6 37.3269 181.1 37.8269 179.9 38.8269C175.1 43.1269 168.6 45.5269 160.9 45.5269C158.7 45.5269 156.6 44.8269 155.1 43.6269C153.7 42.4269 152.9 40.7269 152.9 38.8269C152.9 33.8269 155.1 28.5269 159.4 23.0269C155.6 21.8269 153.6 19.9269 153.6 17.0269C153.6 14.4269 155 11.5269 158.2 8.12691C161.3 4.72691 163.7 3.12691 165.6 3.12691C166.1 3.12691 166.6 3.3269 167 4.3269C167.5 5.0269 167.7 5.7269 167.7 6.7269C167.7 7.2269 167.2 8.12689 166.3 9.62689C165.3 11.0269 164.6 11.5269 164.6 11.3269C164.1 9.9269 163.4 9.12689 162 9.12689C161.3 9.12689 160.6 9.62689 159.6 10.8269C158.4 12.0269 157.9 13.0269 157.9 13.7269C159.1 15.6269 161.3 16.8269 164.1 16.8269C165.1 16.8269 166.7 15.8269 168.7 13.9269C170.1 12.9269 171.3 11.7269 172.5 10.5269C173 10.3269 173.2 10.5269 173.2 11.5269C173.2 13.9269 172.2 16.1269 170.8 18.5269C164.3 22.8269 159.5 27.9269 156.4 33.4269C155.9 34.6269 155.7 35.6269 155.7 36.3269C155.8 38.5269 158.5 39.9269 163.8 39.9269ZM356.2 25.0269C356.2 25.0269 356 25.3269 356 25.5269C354.3 28.4269 352.9 30.1269 351.3 30.1269C349.2 30.1269 348.2 27.9269 348.2 24.1269C348.2 21.0269 349.4 15.9269 351.8 8.52692C352.3 6.82692 352.5 5.82692 352.5 5.62692C352.2 5.62692 351.8 6.52693 350.8 8.22693C347 15.2269 345.3 22.1269 345.3 28.6269C345.3 33.9269 346.8 36.5269 349.9 36.5269C353 36.5269 355.2 32.9269 356.4 25.7269C356.6 25.5269 356.6 25.2269 356.4 25.0269C356.4 24.9362 356.4 24.8867 356.381 24.8782C356.359 24.868 356.309 24.9176 356.2 25.0269ZM236.5 153.227C241.6 145.027 244.2 134.027 244.2 119.827C244.2 114.827 243.2 99.7269 241.4 74.6269C239.5 49.2269 238.5 36.2269 238.5 36.0269C238.5 34.8269 238.7 34.5269 239.2 35.0269C243.2 39.8269 245.4 41.0269 245.4 38.8269C245.4 38.3269 245.1 37.1269 244.9 35.7269C244.2 34.0269 242.5 29.2269 239.6 21.3269C236.7 13.8269 234.8 9.32689 234.1 7.62689C233.6 6.62689 233.3 6.4269 233.1 6.4269C232.6 6.4269 232.3 6.7269 232.1 7.4269C229.4 13.8269 228 17.9269 228 19.6269C229.5 22.7269 230.2 26.5269 230.2 31.1269C230.2 36.4269 231.1 53.4269 233.3 82.2269C235.5 111.027 236.7 127.527 236.7 131.627C236.7 138.427 236 142.427 234.8 143.427C230.5 147.027 226 148.927 221.4 148.927L221.4 163.527C227.1 163.527 232.2 159.927 236.5 153.227ZM311.3 11.1269C311.6 12.5269 311.6 14.0269 311.1 15.4269C307.5 13.8269 305.6 12.3269 305.5 11.0269C305.5 10.6269 305.9 10.1269 306.9 9.62691C307.9 9.12691 308.6 8.92691 309.1 8.92691C310.3 8.92691 311.1 9.72691 311.3 11.1269ZM201.5 16.4269C206.5 19.2269 208.9 21.4269 208.9 22.6269C208.4 23.6269 207.2 24.6269 205.6 25.3269C203.9 26.2269 202.5 26.7269 201.3 26.7269C199.8 26.7269 199.1 25.7269 199.1 24.3269C199.1 21.9269 199.8 19.3269 201.5 16.4269ZM141.2 154.927C144.585 160.601 149.852 163.501 157.2 163.527L157.2 149.127C153.9 149.127 151.5 148.327 149.8 146.927C147.2 145.027 145.5 141.227 144.3 135.427C143.4 130.327 142.4 118.327 141.7 99.6269C141 78.5269 140.3 65.8269 139.8 61.2269C138.1 45.4269 135.7 32.2269 132.6 21.6269C132.3 20.4269 131.8 19.9269 131.6 19.9269C131.3 19.9269 130.8 20.3269 130.6 21.3269C130.2 22.2269 129.2 26.6269 128 34.0269C129.6 45.3269 130.8 54.6269 131.8 62.3269C133.4 79.3269 134.4 95.7269 134.4 111.527C134.4 118.227 129.6 123.727 120 127.827L120 141.027C128.4 137.227 134 130.027 136.6 119.427C136.6 137.627 138.1 149.427 141.2 154.927ZM65.4001 40.2269C65.4001 40.0269 65.6001 39.7269 65.6001 39.7269C65.7096 39.6174 65.7589 39.568 65.7814 39.5782C65.8 39.5867 65.8 39.6362 65.8 39.7269C66 39.9269 66 40.2269 65.8 40.4269C64.6001 47.6269 62.4001 51.2269 59.3 51.2269C56.2 51.2269 54.7 48.6269 54.7 43.3269C54.7 36.8269 56.4 29.9269 60.2 22.9269C61.2 21.2269 61.6 20.3269 61.9 20.3269C61.9 20.5269 61.7 21.5269 61.2 23.2269C58.8 30.6269 57.6 35.7269 57.6 38.8269C57.6 42.6269 58.6 44.8269 60.7 44.8269C62.2 44.7269 63.7 43.1269 65.4001 40.2269ZM334.6 59.4269C358.8 50.3269 384 41.2269 410 31.6269C410.202 31.5691 410.388 31.5031 410.549 31.4455C410.947 31.3037 411.2 31.2136 411.2 31.4269C411.4 31.4269 411.4 31.9269 411.2 32.6269C410.2 34.8269 409.5 36.0269 409 36.4269C408.8 36.6269 396.5 41.2269 372.8 50.1269C348.6 59.0269 334.9 64.5269 332.2 66.2269C332.7 63.9269 333.4 61.8269 334.6 59.4269ZM465.2 60.6269C462.8 66.4269 461.6 70.9269 461.6 74.3269C461.6 78.4269 462.6 80.5269 464.7 80.5269C465.9 80.5269 467.3 78.8269 469 75.9269C469.2 75.7269 469.2 75.4269 469.5 75.2269C469.5 75.2269 469.7 75.2269 469.7 75.4269L469.7 76.127C468.3 83.327 466.1 86.9269 463.2 86.9269C460.1 86.9269 458.6 84.3269 458.6 79.0269C458.6 76.4269 459.1 73.0269 460.5 68.727C461.9 64.427 462.7 62.227 462.7 62.0269C462.7 61.5269 461.7 60.627 459.6 59.4269C455.8 64.4269 450.5 69.2269 443.8 73.3269C439.2 75.9269 434.7 78.3269 429.9 80.3269C421 83.9269 415.7 85.8269 414.5 86.5269C413.3 87.0269 412.6 87.227 412.1 87.227C411.9 87.227 411.9 87.0269 411.9 87.0269C411.9 86.5269 412.4 86.0269 413.8 85.127C421.5 80.827 428.9 76.5269 436.6 72.127C446.7 66.327 453.6 61.5269 457 57.9269C452.4 55.5269 450.3 53.127 450.3 50.5269C450.3 47.4269 451.7 44.5269 454.6 41.9269C457.5 39.5269 459.9 38.5269 461.8 39.3269C463.2 39.8269 464.2 41.5269 464.2 44.3269C464.2 46.9269 463.7 49.8269 462.5 52.9269C464.9 54.3269 465.9 55.8269 465.9 57.2269C465.9 57.9269 465.7 59.1269 465.2 60.6269ZM102.3 52.6269C104.2 49.5269 105.4 46.6269 105.4 44.0269C105.4 40.9269 104 39.2269 101.3 39.3269C98 39.3269 96.1 41.2269 95.1 45.3269C94.9 46.2269 94.9 46.7269 94.9 46.7269C94.9 46.9269 95.1 46.9269 95.1 46.9269C95.3 46.9269 95.6 46.6269 96.3 46.4269C97 45.9269 97.9 45.7269 98.9 45.7269C100.5 45.7269 101.5 46.6269 101.5 48.3269C101.5 50.5269 98.6001 54.3269 93.1001 60.3269C92.2001 61.5269 91.7001 62.0269 91.7001 62.2269L91.7001 62.4269C91.9001 62.4269 92.7001 62.0269 94.1001 61.0269C97.5 58.6269 100.1 55.7269 102.3 52.6269ZM459.9 51.7269C460.4 50.3269 460.4 48.8269 460.1 47.4269C459.9 46.0269 459.1 45.2269 457.9 45.2269C457.4 45.2269 456.7 45.4269 455.7 45.9269C454.7 46.4269 454.3 46.9269 454.3 47.3269C454.4 48.6269 456.3 50.0269 459.9 51.7269ZM304.1 50.3269L300.3 58.2269C299.4 57.2269 297.2 55.5269 294.1 53.727C291 51.527 289.3 50.327 288.8 50.327C288.5 50.327 288 50.827 287.8 51.327L283.2 60.927C283 61.427 283 61.727 283.2 61.927C287.1 64.327 290.9 66.927 294.5 69.827C295 70.127 295.5 69.827 295.7 69.127C297.2 66.9269 298.4 64.3269 299.8 61.4269C303.9 64.0269 307.5 66.4269 310.6 68.8269C311 69.0269 311.5 69.0269 312 68.3269C315.1 63.0269 316.8 59.4269 316.8 57.7269C316.8 57.2269 314.9 55.8269 311.3 53.4269C307.5 50.8269 305.6 49.6269 305.1 49.6269C304.6 49.6269 304.3 49.8269 304.1 50.3269ZM189.7 65.3269C191.6 62.2269 192.8 59.3269 192.8 56.7269C192.8 53.6269 191.4 51.9269 188.7 52.1269C185.4 52.1269 183.5 54.0269 182.5 58.1269C182.3 59.0269 182.3 59.5269 182.3 59.5269C182.3 59.7269 182.5 59.7269 182.5 59.7269C182.7 59.7269 183 59.4269 183.7 59.2269C184.4 58.7269 185.3 58.5269 186.3 58.5269C187.9 58.5269 188.9 59.4269 188.9 61.1269C188.9 63.3269 186 67.1269 180.5 73.1269C179.6 74.3269 179.1 74.8269 179.1 75.0269L179.1 75.1269C179.3 75.1269 180.1 74.7269 181.5 73.7269C184.9 71.3269 187.5 68.4269 189.7 65.3269ZM20.4 64.9269C18.3 61.5269 15.9 60.1269 13 60.1269C12.8 60.1269 12.1001 60.8269 11 62.727C9.80003 64.727 9.30003 65.9269 9.30003 66.127C9.30003 66.8269 9.80003 67.8269 11.2 69.0269C12.7 70.2269 13.6 70.9269 14.6 70.9269C15.3 70.9269 15.6 70.627 15.8 70.4269C16.1 69.9269 16.3 69.9269 16.8 69.9269C17.8 69.9269 19 72.127 20.9 76.9269C22.8 81.5269 23.7 84.6269 23.5 86.3269C23.7 87.3269 23.7 88.0269 24.2 88.0269C24.7 88.0269 25.2 87.3269 25.9 86.3269C26.6 84.7269 27.6 81.8269 28.3 77.7269C30 68.6269 31.7 64.0269 33.6 64.0269C34.5 64.0269 35.5 64.4269 36.2 65.4269C37.2 66.4269 37.7 67.1269 37.9 67.1269C38.3 67.1269 38.8 66.3269 39.3 64.9269C39.8 63.9269 39.8 63.0269 39.8 62.5269C39.8 61.5269 39.4 60.5269 38.4 59.1269C37.4 57.6269 36.2 56.9269 35 56.9269C32.8 56.9269 30.9 59.1269 29 63.4269C27.3 69.7269 26.1 74.5269 25.6 77.6269C25.6 78.1269 25.4 78.4269 25.4 78.6269L25.2 78.6269C25.2 78.3269 25.2 78.1269 25 77.6269C24.2 72.3269 22.6 68.0269 20.4 64.9269ZM382.8 67.3269C380.7 63.9269 378.3 62.5269 375.4 62.5269C375.2 62.5269 374.5 63.2269 373.4 65.127C372.2 67.127 371.7 68.3269 371.7 68.5269C371.7 69.2269 372.2 70.2269 373.6 71.4269C375.1 72.6269 376 73.3269 377 73.3269C377.7 73.3269 378 73.0269 378.2 72.8269C378.5 72.3269 378.7 72.3269 379.2 72.3269C380.2 72.3269 381.4 74.5269 383.3 79.3269C385.2 83.9269 386.1 87.0269 385.9 88.7269C386.1 89.7269 386.1 90.4269 386.6 90.4269C387.1 90.4269 387.6 89.7269 388.3 88.7269C389 87.1269 390 84.2269 390.7 80.1269C392.4 71.0269 394.1 66.4269 396 66.4269C396.9 66.4269 397.9 66.8269 398.6 67.8269C399.6 68.8269 400.1 69.5269 400.3 69.5269C400.7 69.5269 401.2 68.7269 401.7 67.3269C402.2 66.3269 402.2 65.4269 402.2 64.9269C402.2 63.9269 401.8 62.9269 400.8 61.5269C399.8 60.0269 398.6 59.3269 397.4 59.3269C395.2 59.3269 393.3 61.5269 391.4 65.8269C389.7 72.1269 388.5 76.9269 388 80.0269C388 80.5269 387.8 80.8269 387.8 81.0269L387.6 81.0269C387.6 80.7269 387.6 80.5269 387.4 80.0269C386.6 74.7269 385 70.4269 382.8 67.3269ZM323.1 76.2269C323.1 80.0269 321.2 85.3269 317.3 91.8269C314.9 95.9269 311.3 101.427 306.5 108.627C311.3 114.127 314.7 119.227 316.3 123.527C317.3 126.627 318 130.727 318 135.327C318 137.227 317.5 139.627 316.6 142.727C315.9 145.627 314.9 147.727 314 149.227C312.1 152.127 309 155.027 304.2 157.827C299.2 161.227 294.8 162.827 291.2 162.827C285.4 162.827 282.6 158.527 282.6 149.827C282.6 144.027 283.6 138.327 285.5 133.027C287.4 128.427 290.5 122.427 295.6 114.527C291.3 110.427 286.7 104.727 281.7 97.5269C281.2 96.8269 280 95.6269 278.1 93.7269C277.1 92.7269 276.7 91.5269 276.7 90.1269C276.7 87.9269 276.9 85.5269 277.4 82.7269C278.1 79.8269 278.6 78.6269 278.8 78.6269C279.5 78.6269 281.7 79.8269 285.8 82.4269C289.6 85.0269 292.8 87.0269 294.7 88.6269C295.9 89.3269 296.4 90.0269 296.4 90.0269L296.4 90.2269C296.4 90.4269 295.7 90.7269 294 90.7269C290.9 90.7269 289.2 90.9269 289.2 91.2269C289.2 91.5269 289.7 91.9269 290.6 93.1269C294.4 97.9269 298.3 101.527 302.4 104.427C303.4 103.027 306.7 98.2269 312 90.0269C316.6 83.0269 319.2 78.2269 320.4 75.4269C321.6 72.5269 322.3 71.3269 322.8 71.3269C322.9 71.4269 323.1 72.8269 323.1 76.2269ZM157 94.4269C175.5 87.7269 194.7 80.5269 214.8 73.0269C214.978 72.976 215.144 72.9185 215.294 72.8662C215.735 72.713 216.051 72.6033 216.2 72.8269C216.2 72.8269 216.2 73.3269 216 74.0269C215 76.2269 214.3 77.4269 213.8 77.8269C197 84.0269 177.1 91.7269 154.5 101.127C155.1 99.0269 155.8 96.8269 157 94.4269ZM96.5 75.2269L92.7 83.1269C91.8 82.2269 89.6001 80.5269 86.5 78.6269C83.4 76.4269 81.7 75.2269 81.2 75.2269C80.9 75.2269 80.4 75.7269 80.2 76.2269L75.6 85.8269C75.4 86.3269 75.4 86.6269 75.6 86.8269C79.5 89.2269 83.3 91.8269 86.9 94.7269C87.4 95.0269 87.9 94.7269 88.1 94.0269C89.6 91.8269 90.8 89.2269 92.2 86.3269C96.3 88.9269 99.9 91.3269 103 93.7269C103.4 93.9269 103.9 93.9269 104.4 93.2269C107.5 87.9269 109.2 84.3269 109.2 82.6269C109.2 82.1269 107.3 80.7269 103.7 78.3269C99.9 75.7269 98 74.5269 97.5 74.5269C97 74.5269 96.7 74.7269 96.5 75.2269ZM340.6 104.527C341.6 105.727 342.3 107.327 342.8 109.527C344 113.627 346.4 119.427 349.7 126.427C352.6 132.727 354 136.027 354 136.527C354 138.527 351.1 141.627 345.6 145.927C340.741 149.538 334.417 153.667 326.626 158.256C327.356 153.775 328.64 148.387 330.5 142.027C330.8 140.527 331 139.327 331 138.627C331 138.127 331 137.927 330.8 137.927C330.3 137.927 329.8 138.927 328.6 141.327C326.225 147.74 324.485 153.976 323.462 160.099C320.266 161.94 316.845 163.85 313.2 165.827C303.8 170.927 292.1 176.427 277.9 182.427C257.5 191.027 246.4 195.827 244.5 196.827C239.2 199.227 236.6 200.727 236.6 200.927C236.6 201.127 236.6 201.127 237.1 201.127C238.1 201.127 240.5 200.827 244.3 200.127C247.9 199.627 257 197.527 271.4 194.127C285.1 190.827 292.3 189.127 292.8 189.127C295.4 189.127 303.8 185.027 318.2 176.627C319.647 175.816 321.058 175.01 322.431 174.208C322.696 181.392 324.672 187.585 328.2 192.227C332.5 198.227 338.7 201.327 346.9 201.327C356.5 201.327 367.5 196.327 380.5 186.727C389.2 180.227 397.1 172.727 404.3 164.127C407.4 160.527 410 155.927 411.7 150.427C413.2 146.027 413.9 142.727 413.9 139.827L414.4 139.327L414.4 126.127C413.4 126.627 412.9 126.627 412.7 126.627C410.3 121.627 407.4 117.527 404.3 113.927C400.7 110.327 397.6 108.427 394.5 108.427C390.4 108.427 386.6 110.527 383 114.627C379.2 119.427 377.5 124.727 377.5 130.727C377.5 138.627 383.3 142.727 394.8 142.727C400.1 142.727 404.4 142.027 407.3 141.027C407.8 142.727 408.3 144.427 408.3 145.827C408.3 147.927 404.7 152.227 397.7 159.127C390 166.327 382.1 172.327 373.9 177.327C363.5 183.627 354.9 186.727 347.7 186.727C339.3 186.727 333.3 184.027 329.5 179.027C328.071 176.883 327.067 174.455 326.489 171.786C338.762 164.298 347.729 157.24 353.5 150.727C355.5 148.527 356.9 145.427 358.1 141.327C359 137.727 359.5 134.827 359.5 132.427C359.5 127.327 358 121.827 355.4 115.127C353.7 111.327 351.8 107.227 350.1 103.127C353 103.827 354.9 104.327 355.6 104.327C356.1 104.327 356.3 104.027 356.3 103.827C356.3 103.327 355.6 102.427 353.9 100.727C349.9 96.6269 346.3 92.7269 342.9 88.9269C342.4 88.4269 342.1 88.2269 341.9 88.2269C341.4 88.2269 341.1 88.7269 340.9 89.9269C340.4 91.1269 340.2 93.3269 339.7 96.4269C339.2 99.7269 339.2 101.427 339.2 101.927C339.4 102.327 339.9 103.127 340.6 104.527ZM12 121.527C12 121.527 11.8 121.827 11.8 122.027C10.2 124.927 8.70004 126.627 7.10004 126.627C5.00003 126.627 4.00003 124.427 4.00003 120.627C4.00003 117.527 5.20004 112.427 7.60004 105.027C8.10004 103.327 8.30003 102.327 8.30003 102.127C8.00003 102.127 7.60004 103.027 6.60004 104.727C2.80003 111.727 1.10004 118.627 1.10004 125.127C1.10004 130.069 2.40405 132.663 5.09313 132.991C4.91797 133.268 4.75002 133.607 4.60005 134.027C3.20004 138.127 2.00005 142.627 1.00005 148.427C0.500046 151.827 0.300049 155.427 0 158.927C0 170.727 2.39999 180.327 7.7 187.727C14.5 197.627 25.3 202.627 39.9 202.627C53.6 202.627 68.5 198.327 84.3 189.427C96.8 182.527 106.4 175.027 112.6 167.627C117.1 162.627 119.3 153.727 119.3 141.227L119.8 141.027L119.8 127.727C119.1 128.027 118.6 128.027 118.4 128.227C116 122.927 113.1 118.627 110 115.227C106.4 111.627 103.3 109.727 100.2 109.727C96.1 109.727 92.5 111.827 88.7 115.927C84.8 120.727 82.9 126.027 82.9 132.027C82.9 140.027 88.7 143.827 100.2 143.827C105.7 143.827 109.8 143.427 112.7 142.427C114.2 146.027 114.9 149.127 114.9 152.027C114.9 154.627 111.3 158.727 103.9 164.227C95.5 170.427 86.1001 175.727 75.8 180.027C63.3 185.327 51.3 187.927 39.8 187.927C27.1001 187.927 17.2 183.827 10.5 175.427C5.50005 169.227 3.10005 162.427 3.10005 155.027C3.10005 153.427 4.10005 146.627 6.50005 134.427C6.61857 133.795 6.69027 133.288 6.70281 132.893C9.27798 132.18 11.1338 128.625 12.2 122.227C12.4 122.027 12.4 121.727 12.2 121.527C12.2 121.436 12.2 121.387 12.1814 121.378C12.1589 121.368 12.1094 121.418 12 121.527ZM440.5 111.027C439.8 111.027 438.8 111.427 437.6 112.427C433.8 115.827 429.9 118.627 426 120.627C424.8 121.427 420.7 123.327 414.5 126.427L414.5 139.627C422.9 135.727 429.4 131.727 433.2 127.127C433.2 138.127 438 143.927 448.1 143.927C456.5 143.927 463.4 139.127 468.7 129.527C471.9 135.327 475.5 138.427 479.3 138.427C485.1 138.427 489.4 135.827 492.3 130.527C495 126.127 496.4 121.127 496.4 115.127C496.4 111.227 495.2 107.927 493.3 105.027C492.6 104.027 492.1 103.827 491.6 103.827C491.1 103.827 490.6 104.627 490.4 106.027C489 110.527 488 113.927 487.8 115.827C489.9 119.427 490.9 121.427 490.9 121.627C489.9 123.227 487.8 124.227 484.4 124.227C481.8 124.227 479.4 123.227 477.7 121.827C475.8 120.427 474.8 118.727 474.8 117.027C474.8 117.527 475.5 115.627 476.5 111.527C477 109.427 476.8 108.427 475.8 108.427C475.1 108.427 474.4 108.827 473.4 109.827C471 113.727 468.4 117.527 466 121.627C462.1 126.727 457.1 129.327 451.1 129.327C443.6 129.327 439.8 126.427 439.8 121.127C439.8 119.927 440 118.427 440.5 116.527C441 114.627 441.2 113.127 441.2 112.427C441.2 111.527 441 111.027 440.5 111.027ZM71.8 110.727C71.8 111.227 71.6001 112.127 71.1001 113.127C70.9001 114.527 70.4001 115.327 69.7001 115.327C69.5001 115.327 69.0001 114.627 68.0001 113.627C67.3001 112.627 66.3001 112.227 65.6001 112.227C63.7001 112.227 61.8001 116.827 60.1001 125.927C59.4001 130.027 58.7001 132.927 57.7001 134.527C57.4909 134.826 57.2997 135.098 57.1209 135.332C57.3137 134.715 57.4001 134.313 57.4001 134.127L57.4001 133.927C57.2553 133.927 56.6913 134.556 55.6703 135.737C55.5727 135.438 55.5001 135.019 55.5001 134.527C55.5001 132.827 54.5001 129.727 52.6001 125.127C50.7001 120.327 49.5001 118.127 48.8001 118.127C48.1001 118.127 47.8001 118.127 47.6001 118.627C47.6001 118.827 47.1001 119.127 46.4001 119.127C45.4001 119.127 44.5001 118.427 43.0001 117.227C41.8001 116.027 41.1001 115.027 41.1001 114.327C41.1001 114.127 41.6001 112.927 42.8001 110.927C44.0001 109.027 44.7001 108.327 45.0001 108.327C47.6001 108.327 50.0001 109.727 52.2001 113.127C54.6001 116.527 56.0001 120.527 57.0001 125.827L57.0001 126.827C57.1094 126.936 57.159 126.986 57.1814 126.976C57.2001 126.967 57.2001 126.918 57.2001 126.827C57.2001 126.627 57.4001 126.327 57.7001 125.827C57.9001 122.727 59.1001 117.927 60.8001 111.627C62.7001 107.327 64.6001 105.127 66.8001 105.127C68.0001 105.127 69.2001 105.827 70.4001 107.327C71.4001 108.827 71.8 109.827 71.8 110.727ZM55.6703 135.737C55.2807 136.188 54.8247 136.719 54.3 137.327C52.6001 139.227 50.5 141.327 47.6001 143.527C35.6001 151.427 26.5 157.027 20 160.827C18.8 161.527 18.1001 162.327 18.1001 162.527C18.1001 162.527 18.1001 162.727 18.3 162.727C18.8 162.727 19.5 162.527 20.7 162.027C28.7 159.227 33 157.527 33.7 157.027C37.3 155.427 41.3 153.027 45.9 149.627C51 146.027 54.3 142.127 56 138.327C56.5354 137.042 56.8988 136.044 57.1209 135.332C56.7013 135.883 56.3507 136.227 56.0001 136.227C55.8985 136.227 55.771 136.046 55.6703 135.737ZM188.5 148.927C179.1 155.127 173.6 158.727 171.5 159.727C166.9 162.327 162.1 163.527 157.3 163.527L157.3 148.927C164 148.927 171.7 146.327 180.1 141.027C177.5 138.127 174.1 135.727 170.3 133.627C166.9 131.727 164.3 130.727 162.6 130.727C159 130.727 156.4 131.227 154.7 132.427C154 132.627 153.5 132.927 153 132.927C152.5 132.927 152.3 132.727 152.3 131.927C152.3 131.427 152.3 130.927 152.8 130.227L157.1 120.127C157.8 118.227 162.1 116.527 170.1 114.627C177.5 112.927 184.7 112.227 191.5 112.227C204.7 112.227 215.3 115.127 222.9 120.827C224.8 122.227 225.8 123.227 225.8 123.927C225.8 124.127 225.6 125.127 225.1 126.127L220.5 134.527C215.9 136.227 209.7 138.827 201.5 142.227C206.1 146.827 212.8 148.927 221.2 148.927L221.2 163.527C214.7 163.527 209.7 162.827 206.1 161.127C201.7 159.427 195.9 155.427 188.5 148.927ZM313.8 135.227C311.2 129.927 306.6 124.427 300.4 119.127C298.2 121.327 295.6 125.327 292.2 131.127C288.4 137.627 286.7 141.727 286.7 143.827C286.7 146.727 288.6 148.127 292.9 148.127C294.8 148.127 297.2 147.427 300.3 146.227C304.6 144.327 308.7 141.627 312.1 138.327C313.5 136.927 314 135.927 313.8 135.227ZM400.9 128.227C397.3 123.627 394.2 121.527 391.3 121.527C387 121.527 385.1 122.527 385.1 124.927C385.1 127.827 388 129.227 393.7 129.227C395.564 129.227 397.664 128.833 400 128.395C400.296 128.339 400.596 128.283 400.9 128.227ZM106.4 129.727C103 125.127 99.9001 122.727 97.0001 122.727C92.7001 122.727 90.5001 123.927 90.5001 126.327C90.5001 128.927 93.4001 130.427 99.4001 130.427C101.6 130.427 104 130.227 106.4 129.727ZM204.5 128.527C201.9 126.627 196.6 125.627 189.1 125.427C186.5 125.627 183.8 125.627 181.7 126.127C186.5 129.227 189.9 132.127 192 134.527C195.9 132.327 200.2 130.227 204.5 128.527ZM426.8 192.127C424.2 192.827 422.7 193.327 422.2 193.327L422.2 193.127C422.2 193.127 423.2 192.427 425.1 191.227C427 190.027 429.9 188.127 434 185.027C435.9 183.127 438.8 180.027 442.4 175.627C444.8 172.727 447.4 170.127 450.3 168.227C453.9 165.627 457.3 164.427 460.9 164.427C461.6 164.427 462.8 164.627 464.3 165.127C465.5 165.627 466.7 165.827 467.7 165.827C469.6 165.827 471.1 165.127 472.3 163.627C473 162.227 474 161.027 474.9 159.527C475.4 158.527 476.1 158.127 476.6 158.127C476.8 158.127 476.8 158.327 476.8 158.827C476.8 159.327 476.6 160.527 476.1 161.927C475.6 162.627 477.5 162.927 481.1 162.927C481.6 162.927 481.8 162.927 481.8 162.727C481.8 162.727 481.6 161.727 481.1 160.127C480.9 159.627 481.1 158.927 481.8 157.927L481.88 157.791C482.822 156.19 483.208 155.532 483.5 155.727C484.5 156.427 484.9 157.927 484.9 159.527C484.9 161.227 484.4 162.927 483.7 164.827C483 167.027 482.3 168.227 481.8 168.627C480.1 169.627 477.5 169.327 473.9 167.627C471 170.527 468.1 172.227 465.3 172.227C464.6 172.227 463.4 172.027 462.2 171.527C461 171.027 460 170.827 459.3 170.827C454.5 170.827 449.5 173.027 444.4 177.827L433.6 188.627C431.4 190.227 429.2 191.427 426.8 192.127ZM203.8 180.327C201.7 176.927 199.3 175.527 196.4 175.527C196.2 175.527 195.4 176.227 194.4 178.127C193.2 180.127 192.7 181.327 192.7 181.527C192.7 182.227 193.2 183.227 194.6 184.427C196.1 185.627 197 186.327 198 186.327C198.7 186.327 199 186.027 199.2 185.827C199.5 185.327 199.7 185.327 200.2 185.327C201.2 185.327 202.4 187.527 204.3 192.327C206.2 196.927 207.1 200.027 206.9 201.727C207.1 202.727 207.1 203.427 207.6 203.427C208.1 203.427 208.6 202.727 209.3 201.727C210 200.127 211 197.227 211.7 193.127C213.4 184.027 215.1 179.427 217 179.427C217.9 179.427 218.9 179.827 219.6 180.827C220.6 181.827 221.1 182.527 221.3 182.527C221.7 182.527 222.2 181.727 222.7 180.327C223.2 179.327 223.2 178.427 223.2 177.927C223.2 176.927 222.8 175.927 221.8 174.527C220.8 173.027 219.6 172.327 218.4 172.327C216.2 172.327 214.3 174.527 212.4 178.827C210.7 185.127 209.5 189.927 209 193.027C209 193.527 208.8 193.827 208.8 194.027L208.6 194.027C208.6 193.727 208.6 193.527 208.4 193.027C207.6 187.727 206 183.427 203.8 180.327ZM164.7 192.327C164.7 192.127 164.9 191.827 164.9 191.827C165.009 191.718 165.059 191.668 165.081 191.678C165.1 191.687 165.1 191.736 165.1 191.827C165.3 192.027 165.3 192.327 165.1 192.527C163.9 199.727 161.7 203.327 158.6 203.327C155.5 203.327 154 200.727 154 195.427C154 188.927 155.7 182.027 159.5 175.027C160.5 173.327 160.9 172.427 161.2 172.427C161.2 172.627 161 173.627 160.5 175.327C158.1 182.727 156.9 187.827 156.9 190.927C156.9 194.727 157.9 196.927 160 196.927C161.6 196.927 163 195.227 164.7 192.327ZM96.8 197.427C106.4 194.027 116.7 190.227 127.8 186.427C128.185 186.35 128.452 186.258 128.645 186.191C128.954 186.085 129.077 186.042 129.2 186.227C129.4 186.227 129.4 186.727 129 187.427C128.3 189.627 127.6 190.827 127.1 191.227C117.5 194.627 106.7 198.627 94.5 204.227C94.9001 201.927 95.6001 199.827 96.8 197.427Z" id="Group" fill="#595959" fill-rule="evenodd" stroke="none" clip-path="url(#clip_1)" />
  </g>
</svg>