<?xml version="1.0" encoding="utf-8"?>
<svg width="606.9001px" height="204.09999px" viewBox="0 0 606.9001 204.09999" version="1.1" xmlns:xlink="http://www.w3.org/1999/xlink" xmlns="http://www.w3.org/2000/svg">
  <defs>
    <path d="M606.9 0L606.9 0L606.9 204.1L0 204.1L0 0L606.9 0Z" id="path_1" />
    <clipPath id="clip_1">
      <use xlink:href="#path_1" clip-rule="evenodd" fill-rule="evenodd" />
    </clipPath>
  </defs>
  <g id="Surah_109_of_114_(modified)">
    <path d="M606.9 0L606.9 0L606.9 204.1L0 204.1L0 0L606.9 0Z" id="Surah_109_of_114_(modified)" fill="none" stroke="none" />
    <path d="M362.6 28.5C362.6 23.7 361.9 19.9 360.4 16.7C360.4 15 361.6 10.9 364.5 4.69998C364.7 3.99998 365 3.49998 365.2 3.49998C365.7 3.49998 365.9 3.99998 366.4 4.69998C367.1 6.39998 368.8 10.9 371.7 18.4C374.8 26.3 376.5 31.1 377 33C377.5 34.2 377.5 35.4 377.5 35.9C377.5 38.1 375.6 36.9 371.3 32.1C370.8 31.4 370.6 31.9 370.6 33.1C370.6 33.6 371.8 48.5 374 78.2C376.2 107.7 377.1 124.3 377.1 128.1C377.1 139.4 375.4 149.5 372.1 158.1C371.1 159.8 370.7 161 370.2 161.9L370.2 161.9C369.5 163.1 369.2 163.1 369 162.4C368.8 161.4 369 159.5 369.2 156.9C369.7 152.8 369.9 148.3 369.9 143.2C369.9 138.4 368.7 119.2 366.3 85.3999C363.8 51.6 362.6 32.6 362.6 28.5L362.6 28.5L362.6 28.5L362.6 28.5L362.6 28.5ZM353.5 115.6C353.5 129.8 350.9 140.8 345.8 149C341.5 155.7 336.4 159.3 330.7 159.3L330.7 144.7C335.3 144.7 339.8 142.8 344.1 139.2C345.3 138.2 346 134.2 346 127.4C346 123.3 344.8 106.8 342.6 78C340.4 49.2 339.5 32.2 339.5 26.9C339.5 22.3 338.8 18.5 337.3 15.4C337.3 13.7 338.7 9.59998 341.4 3.19998C341.6 2.49998 341.9 2.19998 342.4 2.19998C342.6 2.19998 342.9 2.39998 343.4 3.39998C344.1 5.09998 346 9.59998 348.9 17.1C351.8 25 353.5 29.8 354.2 31.5C354.4 32.9 354.7 34.1 354.7 34.6C354.7 36.8 352.5 35.6 348.5 30.8C348 30.3 347.8 30.6 347.8 31.8C347.8 32 348.8 45 350.7 70.4C352.5 95.5 353.5 110.6 353.5 115.6L353.5 115.6L353.5 115.6L353.5 115.6L353.5 115.6ZM287.7 148.3C285.5 142.1 278.8 134.6 268 125.7C255.5 116.1 243.3 106.5 230.8 96.9C230.3 96.4 230.3 95.5 230.3 94C230.3 90.9 230.8 87.3 232 83C233.2 78.2 234.4 75.3 235.8 74.1C244 66.7 262 56.8 289.3 44.6C316.9 32.1 335.1 25.9 344 25.9C346.6 25.9 348.6 26.4 349.5 27.6C350.5 28.6 350.9 30.5 350.9 32.9C350.9 38.7 347.3 46.1 340.3 54.7C337.9 57.6 335.3 60.5 332.6 63.3C328.3 68.3 325.6 72.2 324.2 75.3C323.2 77.2 322.5 78.2 322.3 78.2C322.1 78.2 322.3 77 322.8 74.1C323 72.7 324.2 70 326.2 66.4C328.1 63 329.3 60.6 330.3 59.7C338.2 50.8 342.8 45.1 344.5 42.2C344.7 42 344.7 41.7 344.7 41.2C344.7 39.5 342.5 38.8 338 38.8C331 38.8 314.5 44.8 288.6 56.6C262.2 68.6 244.4 78.4 234.8 86.4C234.1 86.9 234.3 87.4 235 87.6C242 91 248.7 94.6 255.4 98.2C271.5 107.3 285.6 116.9 297.9 127C305.6 133.2 310.6 137.3 313 138.8C319 142.6 324.8 144.6 330.3 144.6L330.3 159.2C324.8 159.2 319.7 158 315.4 155.6C312.8 154.2 308.9 151 303.9 146.5C298.1 141.2 293.3 137.4 289.3 134.5C288.3 134 287.9 133.5 287.9 133.5C287.7 133.5 287.9 134.2 288.6 135.7C290.8 140.7 291.7 144.3 291.7 146.7C291.7 157 286.4 165.7 275.9 172.9C267 179.1 258.1 182.3 249.3 182.3L249.3 167.7C256 167.7 263 166 269.7 163.1C276.9 160.2 282.7 156.1 287 151.1C287.7 150 287.9 149.2 287.7 148.3L287.7 148.3L287.7 148.3L287.7 148.3L287.7 148.3ZM234.4 152.4C235.6 159.1 238 163.7 241.1 165.8C243 166.8 245.7 167.5 249.3 167.5L249.3 182.1C244 182.1 239.9 180.9 237.1 178.7C232.8 175.6 230.1 170.1 228.7 161.7C227.7 156.4 226.8 138.2 225.6 106.5C224.6 72.7 223.7 52.7 223.2 46.5C222 36.7 220.1 27.1 217.4 18.2C217.4 15.8 218.4 12.2 220.3 7.39998C220.8 6.19998 221 5.69998 221.5 5.69998C221.7 5.69998 222.2 6.19998 222.7 7.09998C225.8 13.1 228 23.4 229.7 38.1C230.7 47.2 231.6 68.1 232.6 101.5C233.5 132.9 234.2 150 234.4 152.4L234.4 152.4L234.4 152.4L234.4 152.4L234.4 152.4ZM209 138.7C206.4 141.3 195.3 146.6 175.9 155L175.9 141.8C183.1 138.7 190.1 135.8 197.3 132.7C207.9 128.1 213.1 125.3 213.1 124.1C213.1 121.9 211.2 119.8 207.8 117.9C204.4 116.2 201.1 115.3 197.5 115.3L187.9 115.3C184.3 115.3 181.4 114.1 179.3 111.9C177.1 109.5 176.2 106.4 176.2 102.8C176.2 97.7999 177.9 92.6999 181.2 87.6999C184.8 82.6999 188.4 79.9999 192 79.9999C198 79.9999 203.8 83.3999 209 90.0999C214.5 97.4999 217.4 106.4 217.4 116.5C217.4 125.7 214.5 133.2 209 138.7L209 138.7L209 138.7L209 138.7L209 138.7ZM201.8 102C198.4 96.5 194.4 93.8 190 93.8C186.9 93.8 185.2 95 185.2 96.9C185.2 99.3 187.1 100.7 191.2 101.2C193.4 101.2 197 101.5 201.8 102L201.8 102L201.8 102L201.8 102L201.8 102ZM130.5 168.4C135.5 162.6 142.3 157.6 150.7 153C155.5 150.4 163.9 146.5 175.9 141.5L175.9 154.7C168.2 158.1 162.7 160.5 159.1 162.1C151.7 165.7 146.6 168.3 144 170.5C139 174.3 131.5 181.8 121.9 192.8C116.1 199.5 110.4 202.9 104.6 202.9C99.8 202.9 95.5 200.7 91.9 196.2C88.1 191.9 86.4 186.1 86.4 179.6C86.4 170.7 90 159 97.4 144.3C98.1 142.9 98.8 142.1 99.3 142.1C99.3 142.1 99.5 142.3 99.5 142.6C99.5 144 97.8 149.1 94.7 157.7C91.3 166.6 89.7 173.3 89.7 178.3C89.7 182.1 90.7 185.3 92.6 187.4C94.5 190 97.2 191.2 100.5 191.2C106.5 191.2 112.7 188.1 118.7 182.1C122.8 177.8 126.7 173 130.5 168.4L130.5 168.4L130.5 168.4L130.5 168.4L130.5 168.4ZM168.2 106.3C168.2 117.8 165.3 126.7 159.8 132.9C153.6 139.9 142.8 147.8 126.9 156.7C113.2 164.6 105.1 168.5 102.7 168.5C102.2 168.5 95 170.2 81.6 173.5C67 177.1 58.1 179 54.5 179.7C50.4 180.2 48 180.7 47.3 180.7C46.8 180.7 46.6 180.5 46.6 180.2C46.6 180 49.2 178.5 54.5 176.1C56.4 175.4 67.5 170.6 88.1 161.7C102 155.7 113.8 150.2 123.4 145.1C137.6 137.7 148.1 130.9 155.6 125.2C161.1 120.9 164 117.8 164 115.8C162.8 113.9 161.6 112.4 160.2 111.7C158 110.5 154.2 110 148.9 110C137.4 110 131.6 105.9 131.6 98.2C131.6 92.2 133.5 86.9 137.4 82.1C141 78 144.8 75.9 148.7 75.9C154 75.9 158.5 79.5 162.9 87.2C166.3 94 168.2 100.3 168.2 106.3L168.2 106.3L168.2 106.3L168.2 106.3L168.2 106.3ZM154.7 95.7C151.3 91.1 148 89 145.3 89C141 89 138.8 90.2 138.8 92.4C138.8 95.3 141.7 96.7 147.7 96.7C149.9 96.7 152.3 96.4 154.7 95.7L154.7 95.7L154.7 95.7L154.7 95.7L154.7 95.7ZM119 110.1C119 119.2 116.8 126.2 112.8 131C106.3 138.4 96.7 145.6 84.2 152.8C68.4 161.4 53.7 166 39.8 166C21.6 166 8.79999 156.9 1.89999 138.9C0.499985 135.3 -1.52588e-05 131 -1.52588e-05 125.5C-1.52588e-05 121.9 0.199982 118.3 0.699982 114.5C1.69998 109 2.89998 104.2 4.29998 100.1C4.99998 98.9 5.49998 98.2 5.99998 98.2C6.49998 98.2 6.49998 99.2 6.19997 100.8C5.49998 103.2 4.99998 105.8 4.49998 108.2C3.49998 112.8 3.09998 116.1 3.09998 118.3C3.09998 125.7 5.49998 132.5 10.5 138.9C17.2 147.1 27.1 151.4 39.8 151.4C51.1 151.4 63.1 148.8 75.6 143.5C85.9 139.2 95 133.9 103.2 127.7C110.4 121.9 114.2 117.9 114.2 115.5C114.2 115 112.5 111.9 109.4 105.9C105.8 98.9 103.2 92 101.5 85.3C100.8 83.1 99.8 81.7 99.1 81C98.1 80 97.7 79.3 97.7 78.4C97.7 77.7 98.4 74.1 99.6 67.6C99.8 66.4 100.1 65.9 100.6 65.9C101.1 65.9 101.6 66.1 102 66.6C103.9 68.8 108 72.8 114 78.8C115 79.8 115.4 80.5 115.4 81.2C115.4 81.9 114.9 82.2 113.7 82.2C112.5 82.2 110.6 81.7 107.9 81C108.1 81.7 110.3 86 114.1 94C117.3 100 119 105.6 119 110.1L119 110.1L119 110.1L119 110.1L119 110.1ZM40.7 65.2C40.5 65 40.5 64.7 40.7 64.2L45.3 54.6C45.5 54.1 46 53.9 46.3 53.9C46.8 53.9 48.9 55.1 52.5 57.5C56.3 60.1 58.3 61.6 58.3 62.1C58.3 63.8 56.6 67.1 53.3 72.4C52.8 73.1 52.6 73.4 52.1 73.1C48.4 70.3 44.6 67.6 40.7 65.2L40.7 65.2L40.7 65.2L40.7 65.2L40.7 65.2ZM188.3 63.1C188.1 62.9 188.1 62.6 188.3 62.1L192.9 52.5C193.1 52 193.6 51.8 193.9 51.8C194.4 51.8 196.5 53 200.1 55.4C203.9 58 205.9 59.5 205.9 60C205.9 61.7 204.2 65 200.9 70.3C200.4 71 200.2 71.3 199.7 71C196 68.1 192.2 65.5 188.3 63.1L188.3 63.1L188.3 63.1L188.3 63.1L188.3 63.1ZM329.9 106.8C329.9 105.6 327.5 103.4 322.5 100.6C320.8 103.5 320.1 106.1 320.1 108.5C320.1 109.9 320.8 110.9 322.3 110.9C323.5 110.9 324.9 110.4 326.6 109.5C328.3 108.7 329.5 107.7 329.9 106.8L329.9 106.8L329.9 106.8L329.9 106.8L329.9 106.8ZM324.7 87.6C325.4 86.4 326.4 85.9 327.1 85.9C327.6 85.9 328.1 86.1 328.1 86.6C328.1 86.6 327.9 86.8 327.9 87.1C326.9 89.3 326 91.7 325.3 94.1C330.3 97.7 332.7 101.5 332.5 105.1C332 109.2 331.5 111.8 330.8 112.8C328.4 115.7 325.8 117.4 322.4 117.4C319 117.4 317.6 115.2 317.6 111.4C317.6 110.7 317.6 109.7 317.8 108.8C318.9 101 321.3 94 324.7 87.6L324.7 87.6L324.7 87.6L324.7 87.6L324.7 87.6ZM246.7 39.8C265.2 33.1 284.4 25.9 304.5 18.4C305.2 18.2 305.7 17.9 305.9 18.2C305.9 18.2 305.9 18.7 305.7 19.4C304.7 21.6 304 22.8 303.5 23.2C286.7 29.4 266.8 37.1 244.2 46.5C244.7 44.4 245.5 42.2 246.7 39.8L246.7 39.8L246.7 39.8L246.7 39.8L246.7 39.8ZM142.5 188.6C166.7 179.5 191.9 170.4 217.9 160.8C218.6 160.6 219.1 160.3 219.1 160.6C219.3 160.6 219.3 161.1 219.1 161.8C218.1 164 217.4 165.2 216.9 165.6C216.7 165.8 204.4 170.4 180.7 179.3C156.5 188.2 142.8 193.7 140.1 195.4C140.6 193.2 141.3 191 142.5 188.6L142.5 188.6L142.5 188.6L142.5 188.6L142.5 188.6ZM214.5 185.2C214.5 187.8 213.3 190.7 211.4 193.8C209.2 196.9 206.6 199.8 203.2 202.2C201.8 203.2 201 203.6 200.8 203.6L200.8 203.4C200.8 203.2 201.3 202.7 202.2 201.5C207.7 195.5 210.6 191.7 210.6 189.5C210.6 187.8 209.6 186.9 208 186.9C207 186.9 206.1 187.1 205.4 187.6C204.7 187.8 204.4 188.1 204.2 188.1C204.2 188.1 204 188.1 204 187.9C204 187.9 204 187.4 204.2 186.5C205.2 182.4 207.1 180.5 210.4 180.5C213.1 180.4 214.5 182.1 214.5 185.2L214.5 185.2L214.5 185.2L214.5 185.2L214.5 185.2ZM167.2 23.5C167.7 22.1 167.7 20.6 167.4 19.2C167.2 17.8 166.4 17 165.2 17C164.7 17 164 17.2 163 17.7C162 18.2 161.6 18.7 161.6 19.1C161.7 20.4 163.6 21.8 167.2 23.5L167.2 23.5L167.2 23.5L167.2 23.5L167.2 23.5ZM172.5 32.4C170.1 38.2 168.9 42.7 168.9 46.1C168.9 50.2 169.9 52.3 172 52.3C173.4 52.3 174.9 50.6 176.3 47.7C176.5 47.5 176.5 47.2 176.8 47C177 47 177 47 177 47.2C177 47.2 177 47.4 177 47.9C175.8 55.1 173.6 58.7 170.5 58.7C167.4 58.7 165.9 56.1 165.9 50.8C165.9 48.2 166.6 44.8 167.8 40.5C169.2 36.2 170 34 170 33.8C170 33.3 169 32.4 166.9 31.2C164.3 34.8 161.1 37.9 157.3 40.8C152.7 44.2 148.7 46.6 145.1 48.2C144.1 48.4 139.8 50.1 132.1 53C130.9 53.5 129.9 53.7 129.7 53.7C129.5 53.7 129.5 53.7 129.5 53.5C129.5 53.3 130 52.8 131.4 51.8C137.2 48.4 142.9 44.8 148.9 41.5C155.9 37.2 160.9 33.3 164.3 29.7C159.7 27.3 157.6 24.9 157.6 22.3C157.6 19.2 159 16.3 161.9 13.7C164.8 11.3 167.2 10.3 169.1 11.1C170.8 11.6 171.5 13.3 171.5 16.1C171.5 18.7 171 21.6 169.8 24.7C172.2 26.1 173.4 27.6 173.4 29C173.5 29.7 173 30.9 172.5 32.4L172.5 32.4L172.5 32.4L172.5 32.4L172.5 32.4ZM12.7 88.5C12.7 88.3 12.9 88 12.9 88C13.1 87.8 13.1 87.8 13.1 88C13.3 88.2 13.3 88.5 13.1 88.7C11.9 95.9 9.69998 99.5 6.59998 99.5C3.49998 99.5 1.99998 96.9 1.99998 91.6C1.99998 85.1 3.69998 78.2 7.49998 71.2C8.49998 69.5 8.89999 68.6 9.19998 68.6L9.19998 68.6C9.19998 68.8 8.99998 69.8 8.49998 71.5C6.09998 78.9 4.89999 84 4.89999 87.1C4.89999 90.9 5.89999 93.1 7.99998 93.1C9.49998 93.1 11 91.4 12.7 88.5L12.7 88.5L12.7 88.5L12.7 88.5L12.7 88.5ZM45.1 97.6C48 97.6 50.4 99 52.5 102.4C54.7 105.5 56.3 109.8 57.1 115.1C57.3 115.6 57.3 115.8 57.3 116.1L57.5 116.1C57.5 115.9 57.7 115.6 57.7 115.1C58.2 112 59.4 107.2 61.1 100.9C63 96.6 64.9 94.4 67.1 94.4C68.3 94.4 69.5 95.1 70.5 96.6C71.5 98 71.9 99 71.9 100C71.9 100.5 71.9 101.4 71.4 102.4C70.9 103.8 70.4 104.6 70 104.6C69.8 104.6 69.3 103.9 68.3 102.9C67.6 101.9 66.6 101.5 65.7 101.5C63.8 101.5 62.1 106.1 60.4 115.2C59.7 119.3 58.7 122.2 58 123.8C57.3 124.8 56.8 125.5 56.3 125.5C55.8 125.5 55.8 124.8 55.6 123.8C55.8 122.1 54.9 119 53 114.4C51.1 109.6 49.9 107.4 48.9 107.4C48.4 107.4 48.2 107.4 47.9 107.9C47.7 108.1 47.4 108.4 46.7 108.4C45.7 108.4 44.8 107.7 43.3 106.5C41.9 105.3 41.4 104.3 41.4 103.6C41.4 103.4 41.9 102.2 43.1 100.2C44.1 98.4 44.8 97.6 45.1 97.6L45.1 97.6L45.1 97.6L45.1 97.6L45.1 97.6ZM134.3 19.9C134.3 19.7 134.5 19.4 134.5 19.4C134.7 19.2 134.7 19.2 134.7 19.4C134.9 19.6 134.9 19.9 134.7 20.1C133.5 27.3 131.3 30.9 128.2 30.9C125.1 30.9 123.6 28.3 123.6 23C123.6 16.5 125.3 9.60001 129.1 2.60001C130.1 0.900009 130.5 0 130.8 0L130.8 0C130.8 0.199997 130.6 1.2 130.1 2.89999C127.7 10.3 126.5 15.4 126.5 18.5C126.5 22.3 127.5 24.5 129.6 24.5C131.2 24.4 132.7 22.8 134.3 19.9L134.3 19.9L134.3 19.9L134.3 19.9L134.3 19.9ZM39.3 33.8C57.8 27.1 77 19.9 97.1 12.4C97.8 12.2 98.3 11.9 98.5 12.2C98.5 12.2 98.5 12.7 98.3 13.4C97.3 15.6 96.6 16.8 96.1 17.2C79.3 23.4 59.4 31.1 36.8 40.5C37.4 38.4 38.1 36.2 39.3 33.8L39.3 33.8L39.3 33.8L39.3 33.8L39.3 33.8ZM108.2 36C108.2 38.6 107 41.5 105.1 44.6C102.9 47.7 100.3 50.6 96.9 53C95.5 54 94.7 54.4 94.5 54.4L94.5 54.2C94.5 54 95 53.5 95.9 52.3C101.4 46.3 104.3 42.5 104.3 40.3C104.3 38.6 103.3 37.7 101.7 37.7C100.7 37.7 99.8 37.9 99.1 38.4C98.4 38.6 98.1 38.9 97.9 38.9C97.9 38.9 97.7 38.9 97.7 38.7C97.7 38.7 97.7 38.2 97.9 37.3C98.9 33.2 100.8 31.3 104.1 31.3C106.7 31.2 108.2 32.8 108.2 36L108.2 36L108.2 36L108.2 36L108.2 36ZM201.3 21.6C201.3 21.4 201.5 21.1 201.5 21.1C201.7 20.9 201.7 20.9 201.7 21.1C201.9 21.3 201.9 21.6 201.7 21.8C200.5 29 198.3 32.6 195.2 32.6C192.1 32.6 190.6 30 190.6 24.7C190.6 18.2 192.3 11.3 196.1 4.3C197.1 2.60001 197.5 1.7 197.8 1.7L197.8 1.7C197.8 1.89999 197.6 2.89999 197.1 4.59999C194.7 12 193.5 17.1 193.5 20.2C193.5 24 194.5 26.2 196.6 26.2C198.2 26.1 199.6 24.4 201.3 21.6L201.3 21.6L201.3 21.6L201.3 21.6L201.3 21.6ZM273.1 7.39999C273.1 10 271.9 12.9 270 16C267.8 19.1 265.2 22 261.8 24.4C260.4 25.4 259.6 25.8 259.4 25.8L259.4 25.6C259.4 25.4 259.9 24.9 260.8 23.7C266.3 17.7 269.2 13.9 269.2 11.7C269.2 10 268.2 9.09999 266.6 9.09999C265.6 9.09999 264.7 9.29999 264 9.79999C263.3 9.99998 263 10.3 262.8 10.3C262.8 10.3 262.6 10.3 262.6 10.1C262.6 10.1 262.6 9.59999 262.8 8.7C263.8 4.59999 265.7 2.7 269 2.7C271.6 2.59999 273.1 4.29999 273.1 7.39999L273.1 7.39999L273.1 7.39999L273.1 7.39999L273.1 7.39999ZM312.2 174.9C315.1 174.9 317.5 176.3 319.6 179.7C321.8 182.8 323.4 187.1 324.2 192.4C324.4 192.9 324.4 193.1 324.4 193.4L324.6 193.4C324.6 193.2 324.8 192.9 324.8 192.4C325.3 189.3 326.5 184.5 328.2 178.2C330.1 173.9 332 171.7 334.2 171.7C335.4 171.7 336.6 172.4 337.6 173.9C338.6 175.3 339 176.3 339 177.3C339 177.8 339 178.7 338.5 179.7C338 181.1 337.5 181.9 337.1 181.9C336.9 181.9 336.4 181.2 335.4 180.2C334.7 179.2 333.7 178.8 332.8 178.8C330.9 178.8 329.2 183.4 327.5 192.5C326.8 196.6 325.8 199.5 325.1 201.1C324.4 202.1 323.9 202.8 323.4 202.8C322.9 202.8 322.9 202.1 322.7 201.1C322.9 199.4 322 196.3 320.1 191.7C318.2 186.9 317 184.7 316 184.7C315.5 184.7 315.3 184.7 315 185.2C314.8 185.4 314.5 185.7 313.8 185.7C312.8 185.7 311.9 185 310.4 183.8C309 182.6 308.5 181.6 308.5 180.9C308.5 180.7 309 179.5 310.2 177.5C311.2 175.6 311.9 174.9 312.2 174.9L312.2 174.9L312.2 174.9L312.2 174.9L312.2 174.9ZM287 185.7C287 188.3 285.8 191.2 283.9 194.3C281.7 197.4 279.1 200.3 275.7 202.7C274.3 203.7 273.5 204.1 273.3 204.1L273.3 203.9C273.3 203.7 273.8 203.2 274.7 202C280.2 196 283.1 192.2 283.1 190C283.1 188.3 282.1 187.4 280.5 187.4C279.5 187.4 278.6 187.6 277.9 188.1C277.2 188.3 276.9 188.6 276.7 188.6C276.7 188.6 276.5 188.6 276.5 188.4C276.5 188.4 276.5 187.9 276.7 187C277.7 182.9 279.6 181 282.9 181C285.5 180.9 287 182.6 287 185.7L287 185.7L287 185.7L287 185.7L287 185.7ZM279.3 75.8C282.2 75.8 284.6 77.2 286.7 80.6C288.9 83.7 290.5 88 291.3 93.3C291.5 93.8 291.5 94 291.5 94.3L291.7 94.3C291.7 94.1 291.9 93.8 291.9 93.3C292.4 90.2 293.6 85.4 295.3 79.1C297.2 74.8 299.1 72.6 301.3 72.6C302.5 72.6 303.7 73.3 304.7 74.8C305.7 76.2 306.1 77.2 306.1 78.2C306.1 78.7 306.1 79.6 305.6 80.6C305.1 82 304.6 82.8 304.2 82.8C304 82.8 303.5 82.1 302.5 81.1C301.8 80.1 300.8 79.7 299.9 79.7C298 79.7 296.3 84.3 294.6 93.4C293.9 97.5 292.9 100.4 292.2 102C291.5 103 291 103.7 290.5 103.7C290 103.7 290 103 289.8 102C290 100.3 289.1 97.2 287.2 92.6C285.3 87.8 284.1 85.6 283.1 85.6C282.6 85.6 282.4 85.6 282.1 86.1C281.9 86.3 281.6 86.6 280.9 86.6C279.9 86.6 279 85.9 277.5 84.7C276.1 83.5 275.6 82.5 275.6 81.8C275.6 81.6 276.1 80.4 277.3 78.4C278.3 76.5 279.1 75.8 279.3 75.8L279.3 75.8L279.3 75.8L279.3 75.8L279.3 75.8ZM548.1 114.2C549.3 113.2 550.3 112.8 551 112.8C551.5 112.8 551.7 113.3 551.7 114.2C551.7 114.9 551.5 116.4 551 118.3C550.5 120.2 550.3 121.7 550.3 122.9C550.3 128.2 554.1 131.1 561.6 131.1C567.6 131.1 572.6 128.5 576.5 123.4C578.9 119.3 581.5 115.5 583.9 111.6C584.9 110.6 585.6 110.2 586.3 110.2C587.3 110.2 587.5 111.2 587 113.3C586 117.4 585.3 119.3 585.3 118.8C585.3 120.5 586.3 122.2 588.2 123.6C589.9 125 592.3 126 594.9 126C598.3 126 600.4 125 601.4 123.4C601.4 123.2 600.4 121.2 598.3 117.6C598.5 115.7 599.5 112.3 600.9 107.8C601.1 106.4 601.6 105.6 602.1 105.6C602.6 105.6 603.1 105.8 603.8 106.8C605.7 109.7 606.9 113 606.9 116.9C606.9 122.9 605.5 127.9 602.8 132.3C599.9 137.6 595.6 140.2 589.8 140.2C586 140.2 582.4 137.1 579.2 131.3C573.9 140.9 567 145.7 558.6 145.7C548.5 145.7 543.7 139.9 543.7 128.9C539.9 133.5 533.4 137.5 525 141.4L525 128.2C531.2 125.1 535.3 123.2 536.5 122.4C540.4 120.4 544.3 117.6 548.1 114.2L548.1 114.2L548.1 114.2L548.1 114.2L548.1 114.2ZM511.4 130C507.8 125.4 504.7 123.3 501.8 123.3C497.5 123.3 495.6 124.3 495.6 126.7C495.6 129.6 498.5 131 504.2 131C506.3 131 508.7 130.5 511.4 130L511.4 130L511.4 130L511.4 130L511.4 130ZM518.8 147.6C518.8 146.2 518.3 144.5 517.8 142.8C514.9 143.8 510.6 144.5 505.3 144.5C493.8 144.5 488 140.4 488 132.5C488 126.5 489.7 121.2 493.5 116.4C497.1 112.3 500.9 110.2 505 110.2C508.1 110.2 511.2 112.1 514.8 115.7C517.9 119.3 520.8 123.4 523.2 128.4C523.4 128.4 523.9 128.4 524.9 127.9L524.9 141.1L524.4 141.6C524.4 144.5 523.7 147.8 522.2 152.2C520.5 157.7 517.9 162.3 514.8 165.9C507.6 174.5 499.7 182 491 188.5C478 198.1 467 203.1 457.4 203.1C449.2 203.1 443 200 438.7 194C434.9 189 432.9 182.2 432.9 174.3C432.9 164.2 435.1 153.9 439.1 143.1C440.3 140.7 440.8 139.7 441.3 139.7C441.5 139.7 441.5 139.9 441.5 140.4C441.5 141.1 441.3 142.3 441 143.8C437.9 154.4 436.4 162.3 436.4 167.8C436.4 172.8 437.6 177.2 440 180.8C443.8 185.8 449.8 188.5 458.2 188.5C465.4 188.5 474 185.4 484.4 179.1C492.6 174.1 500.5 168.1 508.2 160.9C515.2 154 518.8 149.7 518.8 147.6L518.8 147.6L518.8 147.6L518.8 147.6L518.8 147.6ZM453.3 111.3C452.8 109.1 452.1 107.5 451.1 106.3C450.4 104.9 449.9 104.1 449.7 103.7C449.7 103.2 449.7 101.5 450.2 98.2C450.7 95.1 450.9 92.9 451.4 91.7C451.6 90.5 451.9 90 452.4 90C452.6 90 452.9 90.2 453.4 90.7C456.8 94.5 460.4 98.4 464.4 102.5C466.1 104.2 466.8 105.1 466.8 105.6C466.8 105.8 466.6 106.1 466.1 106.1C465.4 106.1 463.5 105.6 460.6 104.9C462.3 109 464.2 113.1 465.9 116.9C468.5 123.6 470 129.1 470 134.2C470 136.6 469.5 139.5 468.6 143.1C467.4 147.2 466 150.3 464 152.5C457 160.4 445.3 169.1 428.7 178.4C414.3 186.8 405.9 190.9 403.3 190.9C402.8 190.9 395.6 192.6 381.9 195.9C367.5 199.3 358.4 201.4 354.8 201.9C351 202.6 348.6 202.9 347.6 202.9C347.1 202.9 347.1 202.9 347.1 202.7C347.1 202.5 349.7 201 355 198.6C356.9 197.6 368 192.8 388.4 184.2C402.6 178.2 414.3 172.7 423.7 167.6C437.9 159.9 448.7 153.2 456.1 147.7C461.6 143.4 464.5 140.3 464.5 138.3C464.5 137.8 463.1 134.5 460.2 128.2C456.9 121.2 454.5 115.4 453.3 111.3L453.3 111.3L453.3 111.3L453.3 111.3L453.3 111.3ZM433.6 78C433.6 81.8 431.7 87.1 427.8 93.6C425.4 97.7 421.8 103.2 417 110.4C421.8 115.9 425.2 121 426.8 125.3C427.8 128.4 428.5 132.5 428.5 137.1C428.5 139 428 141.4 427.1 144.5C426.4 147.4 425.4 149.5 424.5 151C422.6 153.9 419.5 156.8 414.7 159.6C409.7 163 405.3 164.6 401.7 164.6C395.9 164.6 393.1 160.3 393.1 151.6C393.1 145.8 394.1 140.1 396 134.8C397.9 130.2 401 124.2 406.1 116.3C401.8 112.2 397.2 106.5 392.2 99.3C391.7 98.6 390.5 97.4 388.6 95.5C387.6 94.5 387.2 93.3 387.2 91.9C387.2 89.7 387.4 87.3 387.9 84.5C388.6 81.6 389.1 80.4 389.3 80.4C390 80.4 392.2 81.6 396.3 84.2C400.1 86.8 403.3 88.8 405.2 90.4C406.4 91.1 406.9 91.8 406.9 91.8L406.9 92C406.9 92.2 406.2 92.5 404.5 92.5C401.4 92.5 399.7 92.7 399.7 93C399.7 93.2 400.2 93.7 401.1 94.9C404.9 99.7 408.8 103.3 412.9 106.2C413.9 104.8 417.2 100 422.5 91.8C427.1 84.8 429.7 80 430.9 77.2C432.1 74.3 432.8 73.1 433.3 73.1C433.4 73.2 433.6 74.6 433.6 78L433.6 78L433.6 78L433.6 78L433.6 78ZM424.3 137C421.7 131.7 417.1 126.2 410.9 120.9C408.7 123.1 406.1 127.1 402.7 132.9C398.9 139.4 397.2 143.5 397.2 145.6C397.2 148.5 399.1 149.9 403.4 149.9C405.3 149.9 407.7 149.2 410.8 148C415.1 146.1 419.2 143.4 422.6 140.1C424 138.7 424.5 137.7 424.3 137L424.3 137L424.3 137L424.3 137L424.3 137ZM410.8 60L414.6 52.1C414.8 51.6 415.1 51.4 415.6 51.4C416.1 51.4 418 52.6 421.8 55.2C425.4 57.6 427.3 59 427.3 59.5C427.3 61.2 425.6 64.8 422.5 70.1C422 70.8 421.5 70.8 421.1 70.6C418 68.2 414.4 65.8 410.3 63.2C408.9 66.1 407.7 68.7 406.2 70.9C406 71.6 405.5 71.9 405 71.6C401.4 68.7 397.6 66.1 393.7 63.7C393.5 63.5 393.5 63.2 393.7 62.7L398.3 53.1C398.5 52.6 399 52.1 399.3 52.1C399.8 52.1 401.5 53.3 404.6 55.5C407.7 57.3 409.9 59 410.8 60L410.8 60L410.8 60L410.8 60L410.8 60ZM537.3 193.6C534.7 194.3 533.2 194.8 532.7 194.8L532.7 194.6C532.7 194.6 533.7 193.9 535.6 192.7C537.5 191.5 540.4 189.6 544.5 186.5C546.4 184.6 549.3 181.5 552.9 177.1C555.3 174.2 557.9 171.6 560.8 169.7C564.4 167.1 567.8 165.9 571.4 165.9C572.1 165.9 573.3 166.1 574.8 166.6C576 167.1 577.2 167.3 578.2 167.3C580.1 167.3 581.6 166.6 582.8 165.1C583.5 163.7 584.5 162.5 585.4 161C585.9 160 586.6 159.6 587.1 159.6C587.3 159.6 587.3 159.8 587.3 160.3C587.3 160.8 587.1 162 586.6 163.4C586.1 164.1 588 164.4 591.6 164.4C592.1 164.4 592.3 164.4 592.3 164.2C592.3 164.2 592.1 163.2 591.6 161.6C591.4 161.1 591.6 160.4 592.3 159.4C593.3 157.7 593.7 157 594 157.2C595 157.9 595.4 159.4 595.4 161C595.4 162.7 594.9 164.4 594.2 166.3C593.5 168.5 592.8 169.7 592.3 170.1C590.6 171.1 588 170.8 584.4 169.1C581.5 172 578.6 173.7 575.8 173.7C575.1 173.7 573.9 173.5 572.7 173C571.5 172.5 570.5 172.3 569.8 172.3C565 172.3 560 174.5 554.9 179.3C551.3 182.9 547.7 186.5 544.1 190.1C541.9 191.7 539.7 192.9 537.3 193.6L537.3 193.6L537.3 193.6L537.3 193.6L537.3 193.6ZM485.7 64C488.6 64 491 65.4 493.1 68.8C495.3 71.9 496.9 76.2 497.7 81.5C497.9 82 497.9 82.2 497.9 82.5L498.1 82.5C498.1 82.3 498.3 82 498.3 81.5C498.8 78.4 500 73.6 501.7 67.3C503.6 63 505.5 60.8 507.7 60.8C508.9 60.8 510.1 61.5 511.1 63C512.1 64.4 512.5 65.4 512.5 66.4C512.5 66.9 512.5 67.8 512 68.8C511.5 70.2 511 71 510.6 71C510.4 71 509.9 70.3 508.9 69.3C508.2 68.3 507.2 67.9 506.3 67.9C504.4 67.9 502.7 72.5 501 81.6C500.3 85.7 499.3 88.6 498.6 90.2C497.9 91.2 497.4 91.9 496.9 91.9C496.4 91.9 496.4 91.2 496.2 90.2C496.4 88.5 495.5 85.4 493.6 80.8C491.7 76 490.5 73.8 489.5 73.8C489 73.8 488.8 73.8 488.5 74.3C488.3 74.5 488 74.8 487.3 74.8C486.3 74.8 485.4 74.1 483.9 72.9C482.5 71.7 482 70.7 482 70C482 69.8 482.5 68.6 483.7 66.6C484.7 64.8 485.5 64 485.7 64L485.7 64L485.7 64L485.7 64L485.7 64ZM445.1 61.2C469.3 52.1 494.5 43 520.5 33.4C521.2 33.2 521.7 32.9 521.7 33.2C521.9 33.2 521.9 33.7 521.7 34.4C520.7 36.6 520 37.8 519.5 38.2C519.3 38.4 507 43 483.3 51.9C459.1 60.8 445.4 66.3 442.7 68C443.2 65.7 443.9 63.6 445.1 61.2L445.1 61.2L445.1 61.2L445.1 61.2L445.1 61.2ZM421.6 17.2C422.1 15.8 422.1 14.3 421.8 12.9C421.6 11.5 420.8 10.7 419.6 10.7C419.1 10.7 418.4 10.9 417.4 11.4C416.4 11.9 416 12.4 416 12.8C416.1 14.1 418 15.6 421.6 17.2L421.6 17.2L421.6 17.2L421.6 17.2L421.6 17.2ZM418.7 23.5C414.1 21.1 412 18.7 412 16.1C412 13 413.4 10.1 416.3 7.7C419.2 5.09999 421.6 4.09999 423.5 4.8C425.2 5.3 425.9 7 425.9 9.8C425.9 12.4 425.4 15.3 424.2 18.7C426.6 19.9 428 21.1 428.5 22.1C428.5 23.3 427.5 25.5 425.4 28.3C424.9 27.3 423.5 26.1 421.3 24.9C418.7 28.5 415.5 31.6 411.7 34.5C407.1 37.6 403.1 40.3 399.5 41.7C398.5 42.2 394.2 43.9 386.5 46.7C385.3 47.2 384.3 47.4 384.1 47.4C383.9 47.4 383.9 47.2 383.9 47.2C383.9 47 384.4 46.2 385.8 45.5C391.6 41.9 397.3 38.5 403.3 35.2C410.3 30.9 415.4 27.1 418.7 23.5L418.7 23.5L418.7 23.5L418.7 23.5L418.7 23.5ZM570.4 53.2C570.9 51.8 570.9 50.3 570.6 48.9C570.4 47.5 569.6 46.7 568.4 46.7C567.9 46.7 567.2 46.9 566.2 47.4C565.2 47.9 564.8 48.4 564.8 48.8C564.9 50.1 566.8 51.6 570.4 53.2L570.4 53.2L570.4 53.2L570.4 53.2L570.4 53.2ZM575.7 62.1C573.3 67.9 572.1 72.4 572.1 75.8C572.1 79.9 573.1 82 575.2 82C576.4 82 577.8 80.3 579.5 77.4C579.7 77.2 579.7 76.9 580 76.7C580 76.7 580.2 76.7 580.2 76.9C580.2 76.9 580.2 77.1 580.2 77.6C578.8 84.8 576.6 88.4 573.7 88.4C570.6 88.4 569.1 85.8 569.1 80.5C569.1 77.9 569.6 74.5 571 70.2C572.4 65.9 573.2 63.7 573.2 63.5C573.2 63 572.2 62.1 570.1 60.9C566.3 65.9 561 70.7 554.3 74.8C549.7 77.4 545.2 79.8 540.4 81.8C531.5 85.4 526.2 87.3 525 88C523.8 88.5 523.1 88.7 522.6 88.7C522.4 88.7 522.4 88.5 522.4 88.5C522.4 88 522.9 87.5 524.3 86.6C532 82.3 539.4 78 547.1 73.6C557.2 67.8 564.1 63 567.5 59.4C562.9 57 560.8 54.6 560.8 52C560.8 48.9 562.2 46 565.1 43.4C568 41 570.4 40 572.3 40.8C573.7 41.3 574.7 43 574.7 45.8C574.7 48.4 574.2 51.3 573 54.4C575.4 55.8 576.4 57.3 576.4 58.7C576.4 59.5 576.2 60.7 575.7 62.1L575.7 62.1L575.7 62.1L575.7 62.1L575.7 62.1ZM466.5 27.3C466.5 27.1 466.7 26.8 466.7 26.8C466.9 26.6 466.9 26.6 466.9 26.8C467.1 27 467.1 27.3 466.9 27.5C465.7 34.7 463.5 38.3 460.4 38.3C457.3 38.3 455.8 35.7 455.8 30.4C455.8 23.9 457.5 17 461.3 10C462.3 8.3 462.7 7.39999 463 7.39999L463 7.39999C463 7.59999 462.8 8.59999 462.3 10.3C459.9 17.7 458.7 22.8 458.7 25.9C458.7 29.7 459.7 31.9 461.8 31.9C463.4 31.9 464.8 30.2 466.5 27.3L466.5 27.3L466.5 27.3L466.5 27.3L466.5 27.3Z" id="Group" fill="#595959" stroke="none" clip-path="url(#clip_1)" />
  </g>
</svg>