<?xml version="1.0" encoding="utf-8"?>
<svg width="446.8001px" height="202.60004px" viewBox="0 0 446.8001 202.60004" version="1.1" xmlns:xlink="http://www.w3.org/1999/xlink" xmlns="http://www.w3.org/2000/svg">
  <defs>
    <path d="M446.8 0L446.8 0L446.8 202.6L0 202.6L0 0L446.8 0Z" id="path_1" />
    <clipPath id="clip_1">
      <use xlink:href="#path_1" clip-rule="evenodd" fill-rule="evenodd" />
    </clipPath>
  </defs>
  <g id="Surah_22_of_114_(modified)">
    <path d="M446.8 0L446.8 0L446.8 202.6L0 202.6L0 0L446.8 0Z" id="Surah_22_of_114_(modified)" fill="none" stroke="none" />
    <path d="M221.9 19.4C221.9 19.4 221.7 19.7 221.7 19.9C220 22.8 218.6 24.5 217 24.5C214.9 24.5 213.9 22.3 213.9 18.5C213.9 15.4 215.1 10.3 217.5 2.89999C218 1.2 218.2 0.199997 218.2 0C217.9 0 217.5 0.900009 216.5 2.60001C212.7 9.60001 211 16.5 211 23C211 28.3 212.5 30.9 215.6 30.9C218.7 30.9 220.9 27.3 222.1 20.1C222.3 19.9 222.3 19.6 222.1 19.4C222.1 19.3093 222.1 19.2598 222.081 19.2513C222.059 19.2411 222.009 19.2906 221.9 19.4ZM179.4 14.1C180.9 17.3 181.6 21.1 181.6 25.9C181.6 30 182.8 49 185.3 82.7999C186.125 94.413 186.808 104.303 187.349 112.477C175.363 110.187 162.718 107.295 149.407 103.774C153.57 99.4949 156.614 94.4211 158.5 88.4C160.4 82.2 161.4 72.1 161.4 58.4C161.4 55.8 160.9 50.5 160.4 42.8C159.9 35.1 159.7 31.3 159.7 30.8C159.7 29.6 159.9 29.1 160.4 29.8C164.4 34.6 166.6 36.1 166.6 33.9C166.6 33.2 166.3 32.2 166.1 30.8C165.4 28.9 163.7 24.1 160.8 16.4C157.9 8.99998 156 4.39998 155.3 2.49998C155 1.69998 154.5 1.49998 154.3 1.49998C154 1.49998 153.8 1.79999 153.3 2.49998C150.6 8.89998 149.2 13 149.2 14.7C150.7 17.8 151.4 21.6 151.4 26.2C151.4 28.3 151.6 34.8 152.6 45.6C153.3 56.4 153.8 64.6 153.8 70.1C153.8 80.6 153.5 86.4 153.3 87.6C152.8 89.3 151.3 90.7 148.7 91.7C143.5 93.8 136.5 96 128.1 98.4C121.9 100.1 118.5 101.3 118.3 101.8L119.495 102.1L118 102.1C116.1 106 114.4 109.1 113.7 111C113.2 111.5 113 112 113 112.2C113 113 115.1 113.2 119.7 113.2C123.3 113.2 132.5 115.1 147.1 118.5C163.9 122.5 172.8 124.7 174 124.7C144.7 135 120.4 140.3 101 140.3C84.2 140.3 71.7 138.4 64 134.8L64 134.4C49.6 127.9 42.7 118.6 42.7 106.4C42.7 106.231 42.696 106.071 42.6885 105.92C47.1304 101.735 52.4044 97.796 58.5001 94.1C72.4001 85.9 88.5001 79.7 107 75.6C108.2 75.4 108.9 74.4 109.6 72.5L112.2 65.3C112.4 64.6 112.4 63.9 112.4 63.4C112.2 63.1 111.4 62.9 110 62.9C79.0001 62.9 58.1001 62.2 47.8001 61C41.6001 60.3 36.5001 60.3 32.7001 61C27.2001 62.2 21.9001 63.8 16.9001 66C15.9001 66.5 15.0001 67.7 14.5001 69.4L12.1001 76.6C11.6001 77.6 11.6001 78.3 11.6001 78.8C11.6001 79.7 12.8001 80.2 15.0001 80.2C19.8001 80.2 25.8001 80 33.2001 79C34.6001 78.7 35.6001 78.5 35.8001 78.5C36.1001 78.2 36.3001 77.8 36.8001 76.8C37.5001 75.6 40.1001 74.9 44.7001 74.9C46.2001 74.9 53.4001 75.5999 66.1001 76.8C54.1001 83.3 44.0001 91.7 36.3001 102.5C25.5001 117.2 20.0001 134.4 20.0001 154.6C20.0001 186.5 41.2001 202.6 83.4001 202.6C87.7001 202.6 92.5001 202.1 97.8001 200.9C121.1 193.5 135 188.7 139.3 187C142.7 185.8 144.1 185.1 144.1 184.4C144.1 183.9 143.6 183.9 142.4 183.9C141.5 183.9 140.3 183.9 138.6 184.1C132.2 185 122.1 186 108.4 186.7C97.3 187.5 88.7 187.7 82.7 187.7C61.6 187.7 46.2 183.2 36.6 173.8C28.9 166.3 25.1 156.5 25.1 144C25.1 131.014 29.9121 119.433 39.3973 109.23C39.3634 109.477 39.3309 109.734 39.3 110C38.8 113.1 38.6 115.5 38.6 117.4C38.6 131.5 47 142.1 64 149.3L64 149.4C73.1 153 85.4 154.9 100.5 154.9C112.5 154.9 127.6 152 146.1 146.5C156.9 142.9 167.7 139.5 178.3 135.9C181.479 134.887 184.926 134.057 188.63 133.406C188.81 136.888 188.9 139.285 188.9 140.6C188.9 145.7 188.7 150.2 188.2 154.3C188.171 154.679 188.142 155.044 188.114 155.393C187.95 157.436 187.829 158.946 188 159.8C188.2 160.5 188.5 160.5 189.2 159.3C189.7 158.4 190.1 157.2 191.1 155.5C193.714 148.689 195.324 140.936 195.88 132.392C200.849 131.861 206.197 131.6 211.9 131.6C215 131.6 218.4 131.8 222 131.8C222.911 131.854 223.715 131.907 224.403 131.953C226.282 132.078 227.3 132.146 227.3 132C228 132.3 228.7 131.6 229.2 130.6L234.2 120.5C234.4 120 234.7 119.8 234.7 119.6C234.7 118.9 233.2 118.6 230.6 118.4C219.669 117.576 208.004 116.112 195.597 113.975C195.118 105.525 194.278 92.7401 193 75.6C190.8 45.9 189.6 31 189.6 30.5C189.6 29.3 189.8 28.8 190.3 29.5C194.6 34.3 196.5 35.5 196.5 33.3C196.5 32.8 196.5 31.6 196 30.4C195.5 28.5 193.8 23.7 190.7 15.8C187.8 8.29999 186.1 3.79999 185.4 2.09999C184.9 1.39999 184.7 0.899994 184.2 0.899994C184 0.899994 183.7 1.39999 183.5 2.09999C180.6 8.29999 179.4 12.4 179.4 14.1ZM252 15.4C252 18 254.1 20.4 258.7 22.8C255.3 26.4 250.3 30.3 243.3 34.5C237.3 37.8 231.6 41.2 225.8 44.8C224.4 45.5 223.9 46.3 223.9 46.5C223.9 46.5 223.9 46.7 224.1 46.7C224.3 46.7 225.3 46.5 226.5 46C234.2 43.2 238.5 41.5 239.5 41C243.1 39.6 247.1 36.9 251.7 33.8C255.5 30.9 258.7 27.8 261.3 24.2C263.5 25.4 264.9 26.6 265.4 27.6C267.5 24.8 268.5 22.6 268.5 21.4C268 20.4 266.6 19.2 264.2 18C265.4 14.6 265.9 11.7 265.9 9.10001C265.9 6.3 265.2 4.60001 263.5 4.10001C261.6 3.39999 259.2 4.39999 256.3 7C253.4 9.39999 252 12.3 252 15.4ZM261.7 12.3C262 13.7 262 15.2 261.5 16.6C257.9 14.9 256 13.5 255.9 12.2C255.9 11.8 256.3 11.3 257.3 10.8C258.3 10.3 259 10.1 259.5 10.1C260.7 10.1 261.5 10.9 261.7 12.3ZM303.3 29.8C303.3 29.8 303.1 30.1 303.1 30.3C301.4 33.1 299.9 34.8 298.4 34.9C296.3 34.9 295.3 32.7 295.3 28.9C295.3 25.8 296.5 20.7 298.9 13.3C299.4 11.6 299.6 10.6 299.6 10.4C299.3 10.4 298.9 11.3 297.9 13C294.1 20 292.4 26.9 292.4 33.4C292.4 38.7 293.9 41.3 297 41.3C300.1 41.3 302.3 37.7 303.5 30.5C303.7 30.3 303.7 30 303.5 29.8C303.5 29.7093 303.5 29.6597 303.481 29.6513C303.459 29.6411 303.409 29.6907 303.3 29.8ZM81.3 39.6C99.8 32.9 119 25.7 139.1 18.2C139.278 18.149 139.444 18.0916 139.594 18.0392C140.035 17.8861 140.351 17.7764 140.5 18C140.5 18 140.5 18.5 140.3 19.2C139.3 21.4 138.6 22.6 138.1 23C121.3 29.2 101.4 36.9 78.8 46.3C79.4 44.2 80.1 42 81.3 39.6ZM67.6 40.3C67.6 42.2 67.1 44.4 66.2 46.3C65 48.9 63.6 50.4 61.9 50.4C59 50.4 57.1 48.5 55.9 44.6C54.5 49.4 52.1 52 48.5 52C47.3 52 46.1 51.3 45.1 49.8C43.9 48.4 43.4 46.2 43.4 43.8L43.4 37.6C43.4 37.1 42.9 36.9 42.4 36.6C41.7 36.4 41.4 35.9 41.4 35.2C41.4 33.8 41.9 32.6 42.8 31.4C43.8 30.2 44.5 29.7 45 29.7C45.7 29.7 46.2 30.9 46.2 33.5C46.2 34.9 46 36.1 46 37.1C45.8 38.1 45.8 38.8 45.8 39.5C45.8 40.9 46 42.4 46.5 43.6C47.2 45 48.2 46 49.1 46C50.5 46 51.7 45.3 52.9 44.1C54.1 42.9 54.8 41.5 54.8 39.8C54.8 38.8 54.3 37.4 53.8 35C53.1 32.8 52.8 31.4 52.8 30.9C52.8 30.4 53 29.7 53.5 28.5C54 27.5 54.5 27.1 54.7 27.1C55.2 27.1 55.7 28.5 56.4 31.4C57.1 34.5 57.6 36.7 57.6 38.1C57.6 42.2 59 44.3 62.2 44.3C63.6 44.3 64.6 43.6 64.8 42.1C62.2 37.3 60.7 33.7 60.7 31.1C60.7 29.7 60.9 28.5 61.9 27.3C62.4 26.6 62.6 26.1 62.9 26.1C63.2 26.1 63.4 26.6 63.4 27.5C63.6 28.7 63.9 29.9 64.1 30.9C64.1 30.9 64.8 32.6 66 35.9C67.1 37.9 67.6 39.4 67.6 40.3ZM285.1 60.5C309.3 51.4 334.5 42.3 360.5 32.7C360.702 32.6422 360.888 32.5761 361.049 32.5186C361.447 32.3768 361.7 32.2866 361.7 32.5C361.9 32.5 361.9 33 361.7 33.7C360.7 35.9 360 37.1 359.5 37.5C359.3 37.7 347 42.3 323.3 51.2C299.1 60.1 285.4 65.6 282.7 67.3C283.1 65.1 283.9 62.9 285.1 60.5ZM415.6 61.7C413.2 67.5 412 72 412 75.4C412 79.5 413 81.6 415.1 81.6C416.3 81.6 417.7 79.9 419.4 77C419.6 76.8 419.6 76.5 419.9 76.3C419.9 76.3 420.1 76.3 420.1 76.5L420.1 77.2C418.7 84.4 416.5 88 413.6 88C410.5 88 409 85.4 409 80.1C409 77.5 409.5 74.1 410.9 69.8C412.3 65.5 413.1 63.3 413.1 63.1C413.1 62.6 412.1 61.7 410 60.5C406.2 65.5 400.9 70.3 394.2 74.4C389.6 77 385.1 79.4 380.3 81.4C371.4 85 366.1 86.9 364.9 87.6C363.7 88.1 363 88.3 362.5 88.3C362.3 88.3 362.3 88.1 362.3 88.1C362.3 87.6 362.8 87.1 364.2 86.2C371.9 81.9 379.3 77.6 387 73.2C397.1 67.4 404 62.6 407.4 59C402.8 56.6 400.7 54.2 400.7 51.6C400.7 48.5 402.1 45.6 405 43C407.9 40.6 410.3 39.6 412.2 40.4C413.6 40.9 414.6 42.6 414.6 45.4C414.6 48 414.1 50.9 412.9 54C415.3 55.4 416.3 56.9 416.3 58.3C416.3 59.1 416.1 60.3 415.6 61.7ZM133.6 40.3C132.9 40.3 131.9 40.8 131.2 42C127.9 48.5 125.5 55.5 124.3 63.2C124.1 64.1 124.1 65.1 124.1 65.8C124.1 69.6 125.5 71.8 128.9 71.8C132.3 71.8 134.9 70.1 137.3 67.2C138 66.2 138.5 63.6 139 59.5C139.2 55.9 136.8 52.1 131.8 48.5C132.5 46.1 133.4 43.7 134.4 41.5C134.4 41.2 134.6 41 134.6 41C134.6 40.5 134.1 40.3 133.6 40.3ZM410.3 52.8C410.8 51.4 410.8 49.9 410.5 48.5C410.3 47.1 409.5 46.3 408.3 46.3C407.8 46.3 407.1 46.5 406.1 47C405.1 47.5 404.7 48 404.7 48.4C404.8 49.7 406.7 51.1 410.3 52.8ZM254.5 51.4L250.7 59.3C249.8 58.3 247.6 56.7 244.5 54.8C241.4 52.6 239.7 51.4 239.2 51.4C238.9 51.4 238.4 51.9 238.2 52.4L233.6 62C233.4 62.5 233.4 62.8 233.6 63C237.5 65.4 241.3 68 244.9 70.9C245.4 71.2 245.9 70.9 246.1 70.2C247.6 68 248.8 65.4 250.2 62.5C254.3 65.1 257.9 67.5 261 69.9C261.4 70.1 261.9 70.1 262.4 69.4C265.5 64.1 267.2 60.5 267.2 58.8C267.2 58.3 265.3 56.9 261.7 54.5C257.9 51.9 256 50.7 255.5 50.7C255 50.7 254.7 50.9 254.5 51.4ZM129.1 55C134.1 57.8 136.5 60 136.5 61.2C136 62.2 134.8 63.1 133.2 63.9C131.5 64.8 130.1 65.3 128.9 65.3C127.4 65.3 126.7 64.3 126.7 62.9C126.7 60.5 127.4 57.9 129.1 55ZM333.3 68.4C331.2 65 328.8 63.6 325.9 63.6C325.6 63.6 324.9 64.3 323.9 66.2C322.7 68.2 322.2 69.4 322.2 69.6C322.2 70.3 322.7 71.3 324.1 72.5C325.6 73.7 326.5 74.4 327.5 74.4C328.2 74.4 328.5 74.1 328.7 73.9C329 73.4 329.2 73.4 329.7 73.4C330.7 73.4 331.9 75.6 333.8 80.4C335.7 85 336.6 88.1 336.4 89.8C336.6 90.8 336.6 91.5 337.1 91.5C337.6 91.5 338.1 90.8 338.8 89.8C339.5 88.2 340.5 85.3 341.2 81.2C342.9 72.1 344.6 67.5 346.5 67.5C347.4 67.5 348.4 67.9 349.1 68.9C350.1 69.9 350.6 70.6 350.8 70.6C351.2 70.6 351.7 69.8 352.2 68.4C352.7 67.4 352.7 66.5 352.7 66C352.7 65 352.3 64 351.3 62.6C350.3 61.1 349.1 60.4 347.9 60.4C345.7 60.4 343.8 62.6 341.9 66.9C340.2 73.2 339 78 338.5 81.1C338.5 81.6 338.3 81.9 338.3 82.1L338.1 82.1C338.1 81.8 338.1 81.6 337.9 81.1C337.1 75.8 335.5 71.5 333.3 68.4ZM217.9 67.5C217.9 70.1 216.7 73 214.8 76.1C212.6 79.2 210 82.1 206.6 84.5C205.2 85.5 204.4 85.9 204.2 85.9L204.2 85.7C204.2 85.5 204.7 85 205.6 83.8C211.1 77.8 214 74 214 71.8C214 70.1 213 69.2 211.4 69.2C210.4 69.2 209.5 69.4 208.8 69.9C208.1 70.1 207.8 70.4 207.6 70.4C207.6 70.4 207.4 70.4 207.4 70.2C207.4 70.2 207.4 69.7 207.6 68.8C208.6 64.7 210.5 62.8 213.8 62.8C216.4 62.7 217.9 64.3 217.9 67.5ZM273.5 77.3C273.5 81.1 271.6 86.4 267.7 92.9C265.3 97 261.7 102.5 256.9 109.7C261.7 115.2 265.1 120.3 266.7 124.6C267.7 127.7 268.4 131.8 268.4 136.4C268.4 138.3 267.9 140.7 267 143.8C266.3 146.7 265.3 148.8 264.4 150.3C262.5 153.2 259.4 156.1 254.6 158.9C249.6 162.3 245.2 163.9 241.6 163.9C235.8 163.9 233 159.6 233 150.9C233 145.1 234 139.4 235.9 134.1C237.8 129.5 240.9 123.5 246 115.6C241.7 111.5 237.1 105.8 232.1 98.6C231.6 97.9 230.4 96.7 228.5 94.8C227.5 93.8 227.1 92.6 227.1 91.2C227.1 89 227.3 86.6 227.8 83.8C228.5 80.9 229 79.7 229.2 79.7C229.9 79.7 232.1 80.9 236.2 83.5C240 86.1 243.2 88.1 245.1 89.7C246.3 90.4 246.8 91.1 246.8 91.1L246.8 91.3C246.8 91.5 246.1 91.8 244.4 91.8C241.3 91.8 239.6 92 239.6 92.3C239.6 92.5 240.1 93 241 94.2C244.8 99 248.7 102.6 252.8 105.5C253.8 104.1 257.1 99.3 262.4 91.1C267 84.1 269.6 79.3 270.8 76.5C272 73.6 272.7 72.4 273.2 72.4C273.3 72.5 273.5 73.9 273.5 77.3ZM291 105.7C292 106.9 292.7 108.5 293.2 110.7C294.4 114.7 296.8 120.5 300.1 127.6C303 133.9 304.4 137.2 304.4 137.7C304.4 139.7 301.5 142.8 296 147.1C291.145 150.708 284.827 154.833 277.045 159.418C277.777 154.96 279.055 149.608 280.9 143.3C281.2 141.8 281.4 140.6 281.4 139.9C281.4 139.4 281.4 139.2 281.2 139.2C280.7 139.2 280.2 140.2 279 142.6C276.639 148.974 274.906 155.174 273.881 161.261C270.679 163.106 267.252 165.02 263.6 167C254.2 172.1 242.5 177.6 228.3 183.6C207.9 192.2 196.8 197 194.9 198C189.6 200.4 187 201.9 187 202.1C187 202.3 187 202.3 187.5 202.3C188.5 202.3 190.9 202 194.7 201.3C198.3 200.8 207.4 198.7 221.8 195.3C235.5 192 242.7 190.3 243.2 190.3C245.8 190.3 254.2 186.2 268.6 177.8C270.046 176.99 271.455 176.184 272.827 175.383C273.078 182.609 275.056 188.837 278.6 193.5C282.9 199.5 289.1 202.6 297.3 202.6C306.9 202.6 317.9 197.6 330.9 188C339.6 181.5 347.5 174 354.7 165.4C357.8 161.8 360.4 157.2 362.1 151.7C363.6 147.3 364.3 144 364.3 141.1L364.8 140.6L364.8 127.4C363.8 127.9 363.3 127.9 363.1 127.9C360.7 122.9 357.8 118.8 354.7 115.2C351.1 111.6 348 109.7 344.9 109.7C340.8 109.7 337 111.8 333.4 115.9C329.6 120.7 327.9 126 327.9 132C327.9 139.9 333.7 144 345.2 144C350.5 144 354.8 143.3 357.7 142.3C358.2 144 358.7 145.7 358.7 147.1C358.7 149.3 355.1 153.6 348.1 160.4C340.4 167.6 332.5 173.6 324.3 178.6C313.9 184.9 305.3 188 298.1 188C289.7 188 283.7 185.3 279.9 180.3C278.455 178.132 277.445 175.675 276.87 172.971C289.153 165.478 298.126 158.417 303.9 151.9C305.9 149.7 307.3 146.6 308.5 142.5C309.4 138.9 309.9 136 309.9 133.6C309.9 128.5 308.4 123 305.8 116.3C304.1 112.5 302.2 108.4 300.5 104.3C303.4 105 305.3 105.5 306 105.5C306.5 105.5 306.7 105.2 306.7 105C306.7 104.5 306 103.6 304.3 101.9C300.3 97.8 296.7 93.9 293.3 90.1C292.8 89.6 292.5 89.4 292.3 89.4C291.8 89.4 291.5 89.9 291.3 91.1C290.8 92.3 290.6 94.5 290.1 97.6C289.6 100.9 289.6 102.6 289.6 103.1C289.8 103.5 290.3 104.3 291 105.7ZM10.7 111.4C10.7 111.2 10.9 110.9 10.9 110.9C11.0093 110.791 11.0589 110.741 11.0814 110.751C11.1 110.76 11.1 110.809 11.1 110.9C11.3 111.1 11.3 111.4 11.1 111.6C9.90001 118.8 7.70001 122.4 4.60001 122.4C1.5 122.4 0 119.8 0 114.5C0 108 1.7 101.1 5.5 94.1C6.5 92.4 6.89999 91.5 7.2 91.5C7.2 91.7 7 92.7 6.5 94.4C4.10001 101.8 2.89999 106.9 2.89999 110C2.89999 113.8 3.89999 116 6 116C7.60002 115.9 9.10002 114.3 10.7 111.4ZM63.8 114.7C63.6 115.2 63.6 115.5 63.8 115.7C67.6 118.1 71.5 120.7 75.2 123.6C75.6903 123.894 75.8921 123.611 76.3712 122.94L76.4 122.9C79.7 117.6 81.4 114.3 81.4 112.6C81.4 112.1 79.4 110.6 75.6 108C72 105.6 69.9 104.4 69.4 104.4C69.1 104.4 68.6 104.6 68.4 105.1L63.8 114.7ZM390.9 112.4C390.2 112.4 389.2 112.8 388 113.8C384.2 117.1 380.3 120 376.4 122C375.2 122.8 371.1 124.7 364.9 127.8L364.9 141C373.3 137.1 379.8 133.1 383.6 128.5C383.6 139.5 388.4 145.3 398.5 145.3C406.9 145.3 413.8 140.5 419.1 130.9C422.3 136.7 425.9 139.8 429.7 139.8C435.5 139.8 439.8 137.2 442.7 131.9C445.4 127.5 446.8 122.5 446.8 116.5C446.8 112.6 445.6 109.3 443.7 106.4C443 105.4 442.5 105.2 442 105.2C441.5 105.2 441 106 440.8 107.4C439.4 111.9 438.4 115.3 438.2 117.2C440.3 120.8 441.3 122.8 441.3 123C440.3 124.6 438.2 125.6 434.8 125.6C432.2 125.6 429.8 124.6 428.1 123.2C426.2 121.8 425.2 120.1 425.2 118.4C425.2 118.9 425.9 117 426.9 112.9C427.4 110.8 427.2 109.8 426.2 109.8C425.5 109.8 424.8 110.2 423.8 111.2C421.4 115.1 418.8 118.9 416.4 123C412.5 128.1 407.5 130.7 401.5 130.7C394 130.7 390.2 127.8 390.2 122.5C390.2 121.3 390.4 119.8 390.9 117.9C391.4 116 391.6 114.5 391.6 113.8C391.6 112.9 391.4 112.4 390.9 112.4ZM264.2 136.3C261.6 131 257 125.5 250.8 120.2C248.6 122.4 246 126.4 242.6 132.2C238.8 138.7 237.1 142.8 237.1 144.9C237.1 147.8 239 149.2 243.3 149.2C245.2 149.2 247.6 148.5 250.7 147.3C255 145.4 259.1 142.7 262.5 139.4C263.9 138 264.4 137.1 264.2 136.3ZM351.3 129.6C347.7 125 344.6 122.9 341.7 122.9C337.4 122.9 335.5 123.9 335.5 126.3C335.5 129.2 338.4 130.6 344.1 130.6C346.13 130.6 348.33 130.174 350.7 129.716C350.899 129.677 351.099 129.639 351.3 129.6ZM215.5 168.2C217.4 165.1 218.6 162.2 218.6 159.6C218.6 156.5 217.1 154.8 214.5 154.9C211.2 154.9 209.3 156.8 208.3 160.9C208.1 161.8 208.1 162.3 208.1 162.3C208.1 162.5 208.3 162.5 208.3 162.5C208.5 162.5 208.8 162.2 209.5 162C210.2 161.5 211.1 161.3 212.1 161.3C213.7 161.3 214.7 162.2 214.7 163.9C214.7 166.1 211.8 169.9 206.3 175.9C205.4 177.1 204.9 177.6 204.9 177.8L204.9 178C205.1 178 205.9 177.6 207.3 176.6C210.7 174.2 213.3 171.3 215.5 168.2ZM377.2 193.2C374.6 193.9 373.1 194.4 372.6 194.4L372.6 194.2C372.6 194.2 373.6 193.5 375.5 192.3C377.4 191.1 380.3 189.2 384.4 186.1C386.3 184.2 389.2 181.1 392.8 176.7C395.2 173.8 397.8 171.2 400.7 169.3C404.3 166.7 407.7 165.5 411.3 165.5C412 165.5 413.2 165.7 414.7 166.2C415.9 166.7 417.1 166.9 418.1 166.9C420 166.9 421.5 166.2 422.7 164.7C423.4 163.3 424.4 162.1 425.3 160.6C425.8 159.6 426.5 159.2 427 159.2C427.2 159.2 427.2 159.4 427.2 159.9C427.2 160.4 427 161.6 426.5 163C426 163.7 427.9 164 431.5 164C432 164 432.2 164 432.2 163.8C432.2 163.8 432 162.8 431.5 161.2C431.3 160.7 431.5 160 432.2 159L432.28 158.864C433.222 157.263 433.608 156.605 433.9 156.8C434.9 157.5 435.3 159 435.3 160.6C435.3 162.3 434.8 164 434.1 165.9C433.4 168.1 432.7 169.3 432.2 169.7C430.5 170.7 427.9 170.4 424.3 168.7C421.4 171.6 418.5 173.3 415.7 173.3C415 173.3 413.8 173.1 412.6 172.6C411.4 172.1 410.4 171.9 409.7 171.9C404.9 171.9 399.9 174.1 394.8 178.9L384 189.7C381.8 191.3 379.6 192.5 377.2 193.2ZM94.8 161.8C83.7 165.6 73.4 169.4 63.8 172.8C62.6 175.2 61.9 177.4 61.5 179.6C73.7 174 84.5 170 94.1 166.6C94.6 166.2 95.3 165 96 162.8C96.4 162.1 96.4 161.6 96.2 161.6C96.077 161.416 95.954 161.458 95.6451 161.564C95.4516 161.631 95.1851 161.723 94.8 161.8ZM182.3 195.9C177.5 200.2 171 202.6 163.3 202.6C161.1 202.6 159 201.9 157.5 200.7C156.1 199.5 155.3 197.8 155.3 195.9C155.3 192.5 156.5 189.2 159.4 185.8C162.3 182.7 165.2 179.8 167.8 176.7C168.5 176.2 168.3 175.7 167.3 175.3C165.4 174.6 163 174.3 160.6 174.3C159.4 174.3 158 174.5 156.3 175.5C156.237 175.5 156.163 175.52 156.086 175.541C155.92 175.587 155.737 175.637 155.6 175.5C155.6 175.5 155.6 175.3 155.8 174.8C156.8 172.4 157.7 170.7 158.7 170C159.9 169 161.8 168.6 164.5 168.6C170.3 168.6 172.9 169.8 172.9 172.7C172.9 174.9 171.2 177.7 167.6 181.8L159.7 189.7C158.7 191.1 158.3 192.6 158.3 193.5C158.3 195.9 160.9 197.1 166 197.1C171 197.1 176.1 196.1 181.8 194.5C183.2 194 184 194 184 194.3C184 194.263 183.93 194.337 183.779 194.498C183.527 194.766 183.051 195.275 182.3 195.9Z" id="Group" fill="#595959" fill-rule="evenodd" stroke="none" clip-path="url(#clip_1)" />
  </g>
</svg>