<?xml version="1.0" encoding="utf-8"?>
<svg width="398.2001px" height="200.90005px" viewBox="0 0 398.2001 200.90005" version="1.1" xmlns:xlink="http://www.w3.org/1999/xlink" xmlns="http://www.w3.org/2000/svg">
  <defs>
    <path d="M398.2 0L398.2 0L398.2 200.9L0 200.9L0 0L398.2 0Z" id="path_1" />
    <clipPath id="clip_1">
      <use xlink:href="#path_1" clip-rule="evenodd" fill-rule="evenodd" />
    </clipPath>
  </defs>
  <g id="Surah_19_of_114_(modified)">
    <path d="M398.2 0L398.2 0L398.2 200.9L0 200.9L0 0L398.2 0Z" id="Surah_19_of_114_(modified)" fill="none" stroke="none" />
    <path d="M164.9 19.9C164.9 19.7 165.1 19.4 165.1 19.4C165.209 19.2906 165.259 19.2411 165.281 19.2513C165.3 19.2598 165.3 19.3093 165.3 19.4C165.5 19.6 165.5 19.9 165.3 20.1C164.1 27.3 161.9 30.9 158.8 30.9C155.7 30.9 154.2 28.3 154.2 23C154.2 16.5 155.9 9.60001 159.7 2.60001C160.7 0.900009 161.1 0 161.4 0C161.4 0.199997 161.2 1.2 160.7 2.89999C158.3 10.3 157.1 15.4 157.1 18.5C157.1 22.3 158.1 24.5 160.2 24.5C161.8 24.4 163.2 22.8 164.9 19.9ZM203.3 12.5C203.3 15.1 205.4 17.5 210 19.9C206.7 23.5 201.6 27.3 194.6 31.6C188.6 34.9 182.9 38.3 177.1 41.9C175.7 42.6 175.2 43.4 175.2 43.6C175.2 43.6 175.2 43.8 175.4 43.8C175.6 43.8 176.6 43.6 177.8 43.1C185.5 40.3 189.8 38.6 190.8 38.1C194.4 36.7 198.4 34 203 30.9C206.8 28 210 24.9 212.6 21.3C214.8 22.5 216.2 23.7 216.7 24.7C218.8 21.9 219.8 19.7 219.8 18.5C219.3 17.5 217.9 16.3 215.5 15.1C216.7 11.7 217.2 8.80002 217.2 6.20001C217.2 3.40001 216.5 1.70001 214.8 1.20001C212.9 0.5 210.5 1.5 207.6 4.10001C204.7 6.5 203.3 9.39999 203.3 12.5ZM213.1 9.29999C213.4 10.7 213.4 12.2 212.9 13.6C209.3 12 207.4 10.5 207.3 9.19998C207.3 8.79999 207.7 8.29999 208.7 7.79999C209.7 7.29999 210.4 7.09999 210.9 7.09999C212.1 7.09999 212.9 7.89999 213.1 9.29999ZM254.9 26.6C254.9 26.6 254.7 26.9 254.7 27.1C253 30 251.5 31.6 250 31.7C247.9 31.7 246.9 29.5 246.9 25.7C246.9 22.6 248.1 17.5 250.5 10.1C251 8.39999 251.2 7.39999 251.2 7.2C250.9 7.2 250.5 8.10001 249.5 9.8C245.7 16.8 244 23.7 244 30.2C244 35.5 245.5 38.1 248.6 38.1C251.7 38.1 253.9 34.5 255.1 27.3C255.3 27.1 255.3 26.8 255.1 26.6C255.1 26.5093 255.1 26.4597 255.081 26.4513C255.059 26.4411 255.009 26.4907 254.9 26.6ZM77.1 32.8C95.6 26.1 114.8 18.9 134.9 11.4C135.078 11.349 135.244 11.2916 135.394 11.2392C135.835 11.0861 136.151 10.9764 136.3 11.2C136.3 11.2 136.3 11.7 136.1 12.4C135.1 14.6 134.4 15.8 133.9 16.2C117.1 22.4 97.2 30.1 74.6 39.5C75.1 37.4 75.9 35.2 77.1 32.8ZM46.3 44.6C48 48.7 49.2 52 49.7 54.9C47.5 55.9 46.1 59 45.5 64.0999C45.3 65.3 45.3 65.8 45.5 65.8C45.7 65.8 46.2 65.1 47.4 63.9C48.4 62.7 49.1 62 49.6 62C50.8 62 52 62.5 53.2 63.7C50.1 64.6 48.2 65.6 47 66.3C44.8 68.2 43.6 71.1 43.6 75.2C43.6 76.4 44.6 81 46 88.9C47.6 96.8 48.6 103.8 48.6 109.3C48.6 112.7 48.6 114.6 48.8 114.6C49 114.3 49.3 113.9 49.5 112.9C50 109.8 50.5 106.9 50.5 104C50.5 94.1 48.9 84.3 45.5 74.2C46.7 73 48.8 71.8 51.7 70.8C54.1 70.1 56.5 69.6 58.9 68.9C59.4 68.7 59.8 68 60.6 66.3C61.4 64.6 61.6 63.7 61.6 63.2C61.3 61.7 59.9 60.1 57.5 57.9C54.9 56 53 54.8 51.3 54.8C52.5 52.7 53.2 49.8 53.9 46.2C55.6 37.1 57.3 32.5 59.2 32.5C60.1 32.5 61.1 32.9 61.8 33.9C62.8 34.9 63.3 35.6 63.5 35.6C63.9 35.6 64.4 34.8 64.9 33.4C65.4 32.4 65.4 31.5 65.4 31C65.4 30 65 29 64 27.6C63 26.1 61.8 25.4 60.6 25.4C58.4 25.4 56.5 27.6 54.6 31.9C52.9 38.2 51.7 43 51.2 46.1C51.2 46.6 51 46.9 51 47.1L50.8 47.1C50.8 46.8 50.8 46.6 50.6 46.1C49.8 40.8 48.2 36.5 46 33.4C43.9 30 41.5 28.6 38.6 28.6C38.4 28.6 37.7 29.3 36.7 31.2C35.5 33.2 35 34.4 35 34.6C35 35.3 35.5 36.3 36.9 37.5C38.4 38.7 39.3 39.4 40.3 39.4C41 39.4 41.3 39.1 41.5 38.9C41.8 38.4 42 38.4 42.5 38.4C43.2 38.4 44.6 40.5 46.3 44.6ZM236.4 57.6C260.6 48.5 285.8 39.4 311.8 29.8C312.002 29.7422 312.188 29.6761 312.349 29.6186C312.747 29.4768 313 29.3867 313 29.6C313.2 29.6 313.2 30.1 313 30.8C312 33 311.3 34.2 310.8 34.6C310.6 34.8 298.3 39.4 274.6 48.3C250.4 57.2 236.7 62.7 234 64.4C234.5 62.1 235.2 60 236.4 57.6ZM128.2 34.3C127.5 34.3 126.5 34.8 125.8 36C122.4 42.4 120 49.4 118.9 57.2C118.7 58.1 118.7 59.1 118.7 59.8C118.7 63.6 120.1 65.8 123.5 65.8C126.9 65.8 129.5 64.1 131.9 61.2C132.6 60.2 133.1 57.6 133.6 53.5C133.8 49.9 131.4 46.1 126.4 42.5C127.1 40.1 128 37.7 129 35.5C129 35.2 129.2 35 129.2 35C129.2 34.5 128.7 34.3 128.2 34.3ZM367 58.8C364.6 64.6 363.4 69.1 363.4 72.5C363.4 76.6 364.4 78.7 366.5 78.7C367.7 78.7 369.1 77 370.8 74.1C371 73.9 371 73.6 371.3 73.4C371.3 73.4 371.5 73.4 371.5 73.6L371.5 74.3C370.1 81.5 367.9 85.1 365 85.1C361.9 85.1 360.4 82.5 360.4 77.2C360.4 74.6 360.9 71.2 362.3 66.9C363.7 62.6 364.5 60.4 364.5 60.2C364.5 59.7 363.5 58.8 361.4 57.6C357.6 62.6 352.3 67.4 345.6 71.5C341 74.1 336.5 76.5 331.7 78.5C322.8 82.1 317.5 84 316.3 84.7C315.1 85.2 314.4 85.4 313.9 85.4C313.7 85.4 313.7 85.2 313.7 85.2C313.7 84.7 314.2 84.2 315.6 83.3C323.3 79 330.7 74.7 338.4 70.3C348.5 64.5 355.4 59.7 358.8 56.1C354.2 53.7 352.1 51.3 352.1 48.7C352.1 45.6 353.5 42.7 356.4 40.1C359.3 37.7 361.7 36.7 363.6 37.5C365 38 366 39.7 366 42.5C366 45.1 365.5 48 364.3 51.1C366.7 52.5 367.7 54 367.7 55.4C367.7 56.1 367.5 57.3 367 58.8ZM361.7 49.9C362.2 48.5 362.2 47 361.9 45.6C361.7 44.2 360.9 43.4 359.7 43.4C359.2 43.4 358.5 43.6 357.5 44.1C356.5 44.6 356.1 45.1 356.1 45.5C356.2 46.8 358.1 48.2 361.7 49.9ZM206.1 48.5L202.3 56.4C201.4 55.4 199.2 53.7 196.1 51.9C193 49.7 191.3 48.5 190.8 48.5C190.5 48.5 190 49 189.8 49.5L185.2 59.1C185 59.6 185 59.9 185.2 60.1C189.1 62.5 192.9 65.1 196.5 68C197 68.3 197.5 68 197.7 67.3C199.2 65.1 200.4 62.5 201.8 59.6C205.9 62.2 209.5 64.6 212.6 67C213 67.2 213.5 67.2 214 66.5C217.1 61.2 218.8 57.6 218.8 55.9C218.8 55.4 216.9 54 213.3 51.6C209.5 49 207.6 47.8 207.1 47.8C206.6 47.8 206.3 48 206.1 48.5ZM123.7 49C128.7 51.8 131.1 54 131.1 55.2C130.6 56.1 129.4 57.1 127.8 57.9C126.1 58.8 124.7 59.3 123.5 59.3C122 59.3 121.3 58.3 121.3 56.9C121.3 54.5 122 51.9 123.7 49ZM284.6 65.2C282.5 61.8 280.1 60.4 277.2 60.4C277 60.4 276.3 61.2 275.2 63C274 65 273.5 66.2 273.5 66.4C273.5 67.1 274 68.1 275.4 69.3C276.9 70.5 277.8 71.2 278.8 71.2C279.5 71.2 279.8 70.9 280 70.7C280.3 70.2 280.5 70.2 281 70.2C282 70.2 283.2 72.4 285.1 77.2C287 81.8 287.9 84.9 287.7 86.6C287.9 87.6 287.9 88.3 288.4 88.3C288.9 88.3 289.4 87.6 290.1 86.6C290.8 85 291.8 82.1 292.5 78C294.2 68.9 295.9 64.3 297.8 64.3C298.7 64.3 299.7 64.7 300.4 65.7C301.4 66.7 301.9 67.4 302.1 67.4C302.5 67.4 303 66.6 303.5 65.2C304 64.2 304 63.3 304 62.8C304 61.8 303.6 60.8 302.6 59.4C301.6 57.9 300.4 57.2 299.2 57.2C297 57.2 295.1 59.4 293.2 63.7C291.5 70 290.3 74.8 289.8 77.9C289.8 78.4 289.6 78.7 289.6 78.9L289.4 78.9C289.4 78.6 289.4 78.4 289.2 77.9C288.4 72.6 286.8 68.3 284.6 65.2ZM83.8 77.5C84.6764 85.4847 86.5957 93.3745 89.0965 101.354C89.0324 101.47 89 101.585 89 101.7C89.5 104.1 89.8 105.8 90 106.5C86.9 106.5 81.9 108.1 75.4 111.5C66.6 115.8 57.4 122.1 47.6 130C41.6 135.3 35.6 140.6 29.6 145.6C24.8 149.2 19.5 151.1 14 151.1C10.7 151.1 7.99998 149.9 6.09999 147.5C4.19998 145.1 3.49998 141.9 3.49998 138.1C3.49998 133.1 4.89999 126.1 8.29999 117.5C10.8824 110.336 12.4933 105.601 12.9592 103.41C13.6002 103.871 14.3796 104.1 15.3 104.1C18.4 104.1 20.6 100.5 21.8 93.3C22 93.1 22 92.8 21.8 92.6C21.8 92.5093 21.8 92.4598 21.7814 92.4513C21.7589 92.4411 21.7093 92.4907 21.6 92.6C21.6 92.6 21.4 92.9 21.4 93.1C19.7 96 18.3 97.6 16.7 97.7C14.6 97.7 13.6 95.5 13.6 91.7C13.6 88.6 14.8 83.5 17.2 76.1C17.7 74.4 17.9 73.4 17.9 73.2C17.6 73.2 17.2 74.1 16.2 75.8C12.4 82.8 10.7 89.7 10.7 96.2C10.7 99.0751 11.1414 101.156 12.0402 102.458C11.7109 102.833 11.3554 103.389 11 104.1C3.60001 118.5 0 130.3 0 139.4C0 145.9 1.7 151.4 5.5 156C9.10001 160.3 13.5 162.7 18.5 162.7C22.8 162.7 27.9 160.5 33.3 156.2C39.2984 151.401 45.2328 146.411 51.3078 141.433C51.1405 141.732 50.9702 142.087 50.8 142.5C43.4 156.9 39.8 168.7 39.8 177.8C39.8 184.3 41.5 189.8 45.3 194.4C48.9 198.7 53.2 200.9 58 200.9C62.5 200.9 67.8 198.5 73.8 193.7C76.7 191.3 82.7 185.5 92.3 175.9C101.4 166.8 109.5 159.6 116.5 154.1C121.3 150.3 128.5 146.2 137.6 141.9C144.1 139.1 149.4 136.9 153 135.7C153.9 139 154.9 140.7 155.6 140.7C156.8 140.7 157.2 138.3 157 134C165 131.4 171.7 129.5 177.2 127.8C178.6 123.9 179.8 120.1 180.8 116C180.8 112.8 177.5 109 170.5 104.2C164 99.7 159 97.5 155.4 97.5C150.9 97.5 147.5 99.2 145.1 102.3C143.5 104.9 142.5 108.1 142.5 111.9C142.5 114.3 142.8 116.2 143.5 117.9C145.1 121.2 146.6 123.9 147.3 125.3C135.1 129.3 122.1 136.5 108.7 147.1C104.9 150.2 98.7 156 90.1 164.3C81.7 172.7 75.5 178.5 71.4 181.6C64.5 186.9 58.7 189.3 53.9 189.3C50.6 189.3 47.9 188.1 46 185.7C44.1 183.3 43.1 180.1 43.1 176.3C43.1 171.5 44.7 164.5 48.1 155.9C51.2 147.3 52.9 142.2 52.9 140.8C52.9 140.522 52.838 140.336 52.7831 140.227C53.8172 139.383 54.8558 138.541 55.9 137.7C70.6 126.2 83 120.4 93.6 120.4C101.2 120.4 107.7 121.8 113 124.7C114.9 125.9 115.9 125.9 116.1 124.7L117.8 115.1C118.3 113.2 117.4 111.7 115.2 111C110.4 109.3 106.1 107.4 102.7 105C99.4465 102.99 97.3834 100.889 96.7735 99.0473C96.7911 98.9963 96.8 98.9473 96.8 98.9C94.2 91 92.5 84.5 91.8 79.2C94.4 80.8 96.1 81.8 97.3 81.8C97.8 81.8 98 81.3 98 80.8C98 80.1 97.5 78.6 96.3 76.7L87.9 63.3C87.2 62.1 86.4 61.4 86.2 61.4C85.8 61.4 85.3 62.1 84.8 63.3L81.4 71.5C82.3 72.7 83.1 73.9 83.3 74.9C83.6 75.3 83.6 76.1 83.8 77.5ZM113.1 83.7C131.6 77 150.8 69.8 170.9 62.3C171.078 62.249 171.244 62.1916 171.394 62.1392C171.835 61.9861 172.151 61.8764 172.3 62.1C172.3 62.1 172.3 62.6 172.1 63.3C171.1 65.5 170.4 66.7 169.9 67.1C153.1 73.3 133.2 81 110.6 90.4C111.1 88.3 111.9 86.1 113.1 83.7ZM224.9 74.4C224.9 78.2 223 83.5 219.1 90C216.7 94.1 213.1 99.6 208.3 106.8C213.1 112.3 216.5 117.4 218.1 121.7C219.1 124.8 219.8 128.9 219.8 133.5C219.8 135.4 219.3 137.8 218.4 140.9C217.7 143.8 216.7 145.9 215.8 147.4C213.9 150.3 210.8 153.2 206 156C201 159.4 196.6 161 193 161C187.2 161 184.4 156.7 184.4 148C184.4 142.2 185.4 136.5 187.3 131.2C189.2 126.6 192.3 120.6 197.4 112.7C193.1 108.6 188.5 102.9 183.5 95.7C183 95 181.8 93.8 179.9 91.9C178.9 90.9 178.5 89.7 178.5 88.3C178.5 86.1 178.7 83.7 179.2 80.9C179.9 78 180.4 76.8 180.6 76.8C181.3 76.8 183.5 78 187.6 80.6C191.4 83.2 194.6 85.2 196.5 86.8C197.7 87.5 198.2 88.2 198.2 88.2L198.2 88.4C198.2 88.6 197.5 88.9 195.8 88.9C192.7 88.9 191 89.1 191 89.4C191 89.6 191.5 90.1 192.4 91.3C196.2 96.1 200.1 99.7 204.2 102.6C205.2 101.2 208.5 96.4 213.8 88.2C218.4 81.2 221 76.4 222.2 73.6C223.4 70.7 224.1 69.5 224.6 69.5C224.7 69.6 224.9 71 224.9 74.4ZM242.4 102.7C243.4 103.9 244.1 105.5 244.6 107.7C245.8 111.8 248.2 117.6 251.5 124.6C254.4 130.9 255.8 134.2 255.8 134.7C255.8 136.7 252.9 139.8 247.4 144.1C242.541 147.711 236.217 151.84 228.426 156.429C229.156 151.948 230.44 146.56 232.3 140.2C232.6 138.7 232.8 137.5 232.8 136.8C232.8 136.3 232.8 136.1 232.6 136.1C232.1 136.1 231.6 137.1 230.4 139.5C228.025 145.913 226.285 152.149 225.262 158.272C222.066 160.113 218.645 162.023 215 164C205.6 169.1 193.9 174.6 179.7 180.6C159.3 189.2 148.2 194 146.3 195C141 197.4 138.4 198.9 138.4 199.1C138.4 199.3 138.4 199.3 138.9 199.3C139.9 199.3 142.3 199 146.1 198.3C149.7 197.8 158.8 195.7 173.2 192.3C186.9 189 194.1 187.3 194.6 187.3C197.2 187.3 205.6 183.2 220 174.8C221.447 173.989 222.858 173.183 224.231 172.381C224.496 179.565 226.472 185.758 230 190.4C234.3 196.4 240.5 199.5 248.7 199.5C258.3 199.5 269.3 194.5 282.3 184.9C291 178.4 298.9 170.9 306.1 162.3C309.2 158.7 311.8 154.1 313.5 148.6C315 144.2 315.7 140.9 315.7 138L316.2 137.5L316.2 124.3C315.2 124.8 314.7 124.8 314.5 124.8C312.1 119.8 309.2 115.7 306.1 112.1C302.5 108.5 299.4 106.6 296.3 106.6C292.2 106.6 288.4 108.7 284.8 112.8C281 117.6 279.3 122.9 279.3 128.9C279.3 136.8 285.1 140.9 296.6 140.9C301.9 140.9 306.2 140.2 309.1 139.2C309.6 140.9 310.1 142.6 310.1 144C310.1 146.1 306.5 150.4 299.5 157.3C291.8 164.5 283.9 170.5 275.7 175.5C265.3 181.8 256.7 184.9 249.5 184.9C241.1 184.9 235.1 182.2 231.3 177.2C229.871 175.056 228.867 172.629 228.289 169.96C240.562 162.471 249.529 155.413 255.3 148.9C257.3 146.7 258.7 143.6 259.9 139.5C260.8 135.9 261.3 133 261.3 130.6C261.3 125.5 259.8 120 257.2 113.3C255.5 109.5 253.6 105.4 251.9 101.3C254.8 102 256.7 102.5 257.4 102.5C257.9 102.5 258.1 102.2 258.1 102C258.1 101.5 257.4 100.6 255.7 98.9C251.7 94.8 248.1 90.9 244.7 87.1C244.2 86.6 243.9 86.4 243.7 86.4C243.2 86.4 242.9 86.9 242.7 88.1C242.2 89.3 242 91.5 241.5 94.6C241 97.9 241 99.6 241 100.1C241.2 100.5 241.7 101.3 242.4 102.7ZM342.3 109.2C341.6 109.2 340.6 109.6 339.4 110.6C335.5 114 331.7 116.8 327.8 118.8C326.6 119.6 322.5 121.5 316.3 124.6L316.3 137.8C324.7 133.9 331.2 129.9 335 125.3C335 136.3 339.8 142.1 349.9 142.1C358.3 142.1 365.2 137.3 370.5 127.7C373.7 133.5 377.3 136.6 381.1 136.6C386.9 136.6 391.2 134 394.1 128.7C396.8 124.3 398.2 119.3 398.2 113.3C398.2 109.4 397 106.1 395.1 103.2C394.4 102.2 393.9 102 393.4 102C392.9 102 392.4 102.8 392.2 104.2C390.8 108.7 389.8 112.1 389.6 114C391.7 117.6 392.7 119.6 392.7 119.8C391.7 121.4 389.6 122.4 386.2 122.4C383.6 122.4 381.2 121.4 379.5 120C377.6 118.6 376.6 116.9 376.6 115.2C376.6 115.7 377.3 113.8 378.3 109.7C378.8 107.6 378.6 106.6 377.6 106.6C376.9 106.6 376.2 107 375.2 108C372.8 111.9 370.2 115.7 367.8 119.8C363.9 124.9 358.9 127.5 352.9 127.5C345.4 127.5 341.6 124.6 341.6 119.3C341.6 118.1 341.8 116.6 342.3 114.7C342.8 112.8 343 111.3 343 110.6C343 109.7 342.8 109.2 342.3 109.2ZM159.6 114C163.4 115.7 165.6 117.1 165.6 118.3C163.7 119 159.4 120.7 152.6 122.9C150.2 117.8 148.6 114.2 147.6 112.3C147.4 111.6 148.1 111.1 149.8 111.1C152.2 111.1 155.5 112.1 159.6 114ZM215.5 133.4C212.9 128.1 208.3 122.6 202.1 117.3C199.9 119.5 197.3 123.5 193.9 129.3C190.1 135.8 188.4 139.9 188.4 142C188.4 144.9 190.3 146.3 194.6 146.3C196.5 146.3 198.9 145.6 202 144.4C206.3 142.5 210.4 139.8 213.8 136.5C215.3 135.1 215.8 134.1 215.5 133.4ZM302.7 126.4C299.1 121.8 296 119.7 293.1 119.7C288.8 119.7 286.9 120.7 286.9 123.1C286.9 126 289.8 127.4 295.5 127.4C297.364 127.4 299.464 127.006 301.8 126.568C302.096 126.513 302.396 126.456 302.7 126.4ZM82.5 137L78.7 144.9C77.8 144 75.6 142.3 72.5 140.4C69.4001 138.2 67.7 137 67.2 137C66.9001 137 66.4001 137.5 66.2 138L61.6 147.6C61.4 148.1 61.4 148.4 61.6 148.6C65.5 151 69.3 153.6 72.9 156.5C73.4 156.8 73.9 156.5 74.1 155.8C75.6 153.6 76.8 151 78.2 148.1C82.3 150.7 85.9 153.1 89 155.5C89.4 155.7 89.9 155.7 90.4 155C93.5 149.7 95.2 146.1 95.2 144.4C95.2 143.9 93.3 142.5 89.7 140.1C85.9 137.5 84 136.3 83.5 136.3C83 136.3 82.7 136.5 82.5 137ZM328.6 190.3C326 191 324.5 191.5 324 191.5L324 191.3C324 191.3 325 190.6 326.9 189.4C328.8 188.2 331.7 186.3 335.8 183.2C337.7 181.3 340.6 178.2 344.2 173.8C346.6 170.9 349.2 168.3 352.1 166.4C355.7 163.8 359.1 162.6 362.7 162.6C363.4 162.6 364.6 162.8 366.1 163.3C367.3 163.8 368.5 164 369.5 164C371.4 164 372.9 163.3 374.1 161.8C374.8 160.4 375.8 159.2 376.7 157.7C377.2 156.7 377.9 156.3 378.4 156.3C378.6 156.3 378.6 156.5 378.6 157C378.6 157.5 378.4 158.7 377.9 160.1C377.4 160.8 379.3 161.1 382.9 161.1C383.4 161.1 383.6 161.1 383.6 160.9C383.6 160.9 383.4 159.9 382.9 158.3C382.7 157.8 382.9 157.1 383.6 156.1L383.68 155.964C384.622 154.363 385.008 153.705 385.3 153.9C386.3 154.6 386.7 156.1 386.7 157.7C386.7 159.4 386.2 161.1 385.5 163C384.8 165.2 384.1 166.4 383.6 166.8C381.9 167.8 379.3 167.5 375.7 165.8C372.8 168.7 369.9 170.4 367.1 170.4C366.4 170.4 365.2 170.2 364 169.7C362.8 169.2 361.8 169 361.1 169C356.3 169 351.3 171.2 346.2 176L335.4 186.8C333.1 188.4 331 189.6 328.6 190.3ZM143.3 164.8C143.8 164.1 144.3 164.1 144.7 164.6C146.6 161 148.5 159.1 150.7 159.1C152.1 159.1 153.6 159.8 154.8 161.7C156.2 163.4 156.7 165.5 156.7 167.7C156.7 168.7 156.7 169.4 156.5 170.3C155.8 174.1 154.6 176.1 152.9 176.1C151.5 176.1 149.5 175.1 147.4 173.7C145.2 172.5 143.8 171.1 142.8 169.9C141.4 174 139.7 177.3 137.5 179.7C133.7 184 128.9 187.6 122.4 191C117.6 193.9 114.5 195.1 113 195.1C113 195.1 110.1 195.8 104.6 197C98.8 198.4 95.2 199.4 93.8 199.6C91.6 199.8 90.7 199.8 90.7 199.8C90.7 199.6 91.7 199.1 93.8 198.1C99.8 195.7 108.9 191.6 121.4 185.6C130.3 180.8 136 176.5 138.4 172.9C139.7 170.8 141.1 168 143.3 164.8ZM153.9 169.2C153.9 168.5 153.4 167.5 152.5 166.6C151.8 165.6 150.8 165.2 150.1 165.2C148.9 165.2 147.9 165.7 147.2 166.9C148.4 168.1 150.3 169.3 153 170.5C153.5 170.7 153.7 170.7 154 170.5C154.1 170.4 154.1 169.9 153.9 169.2Z" id="Group" fill="#595959" fill-rule="evenodd" stroke="none" clip-path="url(#clip_1)" />
  </g>
</svg>