<?xml version="1.0" encoding="utf-8"?>
<svg width="498.2001px" height="202.90001px" viewBox="0 0 498.2001 202.90001" version="1.1" xmlns:xlink="http://www.w3.org/1999/xlink" xmlns="http://www.w3.org/2000/svg">
  <defs>
    <path d="M498.2 0L498.2 0L498.2 202.9L0 202.9L0 0L498.2 0Z" id="path_1" />
    <clipPath id="clip_1">
      <use xlink:href="#path_1" clip-rule="evenodd" fill-rule="evenodd" />
    </clipPath>
  </defs>
  <g id="Surah_45_of_114_(modified)">
    <path d="M498.2 0L498.2 0L498.2 202.9L0 202.9L0 0L498.2 0Z" id="Surah_45_of_114_(modified)" fill="none" stroke="none" />
    <path d="M248.6 28.8C248.6 24 247.9 20.2 246.4 17C246.4 15.1 247.6 11 250.5 5C251 3.60001 251.7 3.60001 252.4 5C253.1 6.7 254.8 11.2 257.7 18.7C260.8 26.6 262.5 31.4 263 33.3C263.5 34.5 263.7 35.7 263.7 36.2C263.7 38.4 261.5 37.2 257.5 32.4C257 31.7 256.8 32.2 256.8 33.4C256.8 33.9 258 50.4 260.6 83.1C263.2 115.7 264.7 134 264.7 137.8C264.7 149.1 262.8 159.2 259.2 167.8C258.5 169.5 258 170.7 257.5 171.6L257.5 171.6C256.8 172.6 256.3 172.8 256.3 172.1C256.1 171.1 256.1 169.5 256.5 166.6C257 162.5 257.2 158.2 257.2 152.9C257.2 148.3 255.8 127.5 252.9 90.5C250 53.3 248.6 32.9 248.6 28.8L248.6 28.8L248.6 28.8L248.6 28.8L248.6 28.8ZM211.4 125.8L185.5 119.3C185.7 118.8 189.1 117.6 195.3 115.9C203.7 113.5 210.7 111.3 215.9 109.2C218.5 108.2 220 106.8 220.5 105.1C220.7 103.9 221 98.1 221 87.6C221 82.3 220.3 71.8 219.1 55.2C217.7 38.9 217.2 28.8 217.2 24.7C217.2 20.1 216.5 16.3 215 13.2C215 11.5 216.4 7.39999 219.1 1C219.3 0.300003 219.8 0 220.1 0C220.3 0 220.6 0.199997 221.1 1.2C221.8 2.89999 223.7 7.39999 226.6 14.9C229.5 22.8 231.2 27.6 231.9 29.3C232.1 30.7 232.4 31.9 232.4 32.4C232.4 34.6 230.2 33.4 226.2 28.6C225.7 27.9 225.5 28.4 225.5 29.6C225.5 29.8 226 36.3 226.9 49.3C227.9 62 228.3 70.9 228.3 75.9C228.3 89.6 227.3 99.7 225.4 105.9C223.1 114.2 218.3 120.7 211.4 125.8L211.4 125.8L211.4 125.8L211.4 125.8L211.4 125.8ZM282.9 128.6L277.9 138.7C277.2 139.9 276.7 140.4 275.7 140.4C259.4 140.4 245.2 142.8 233.2 147.8C230.3 149 222.9 152.6 210.4 159.1C202 163.4 196.2 165.6 192.9 165.6L192.9 151C200.1 151 212.3 146.2 229.4 136.6C214 134.2 198.9 132.5 184 131.3C181.1 131.1 179.7 130.6 179.7 130.1C179.7 129.9 179.7 129.6 179.9 129.4C181.1 127 182.8 123.6 184.9 119.3L210.1 119.3C213.5 120 222.1 121.2 236.3 123.1C254.1 125.5 268.5 126.5 279.3 126.5C281.9 126.5 283.4 126.7 283.4 127.5C283.4 127.7 283.4 128.2 282.9 128.6L282.9 128.6L282.9 128.6L282.9 128.6L282.9 128.6ZM178 135.8C179.2 142.5 181.6 147.1 184.7 149.2C186.6 150.2 189.3 150.9 192.9 150.9L192.9 165.5C187.6 165.5 183.5 164.3 180.7 162.1C176.4 159 173.7 153.5 172.3 145.1C171.3 139.8 170.4 124.7 169.7 99.3C168.7 71.9 168 55.1 167.5 48.9C166.3 38.8 164.4 29.5 161.7 20.3C161.7 17.9 162.7 14.5 164.6 9.70003C165.1 8.50003 165.3 7.80003 165.8 7.80003C166 7.80003 166.5 8.50003 167 9.50003C170.1 15.5 172.3 25.8 174 40.2C175 49.3 175.9 67.3 176.6 94.2C177 119.5 177.8 133.4 178 135.8L178 135.8L178 135.8L178 135.8L178 135.8ZM157.1 129.6C157.1 138 155.2 144.5 151.6 149.3C148.5 153.4 144.9 155.5 140.8 155.5L140.8 140.9C146.3 140.9 150.2 139.5 151.8 136.6C151.8 135.2 150.8 132.8 148.9 129.6C147.9 128.2 147.7 126.7 147.7 125.3C147.7 124.6 148.7 121.2 150.3 115C150.8 114 151.3 113.3 151.5 113.3C152 113.3 152.7 114.3 153.4 115.7C155.9 120.7 157.1 125.3 157.1 129.6L157.1 129.6L157.1 129.6L157.1 129.6L157.1 129.6ZM140.6 155.3C136.8 155.3 133.2 154.3 130.3 152.4C126.5 149.8 124.3 145.4 123.6 139.9C121.9 143 119.3 146.4 115.2 150C109.2 155 103 157.7 96.5 157.7L96.5 143.1C104.7 143.1 111.6 140.7 117.1 136.4C117.6 135.9 119.7 133.8 123.6 129.4C127.2 125.3 129.1 123.4 129.6 123.4C130.1 123.4 130.6 123.9 130.6 124.8C130.6 125.3 130.4 126 130.1 126.5C129.6 128.4 129.4 130.1 129.4 131.8C129.4 137.8 133.2 140.7 140.7 140.7L140.7 155.3L140.6 155.3L140.6 155.3L140.6 155.3ZM96.6 157.7C91.6 157.7 88 157.2 85.8 156.7C81 155.3 77.2 152.1 74 147.3C72.1 144.2 70.2 140.8 68.2 137.5C66.3 134.6 64.6 133.4 62.9 133.4C57.4 133.4 51.6 138 45.4 147.3C44.4 149 42.5 153.3 39.6 160.3C37 167.3 34.6 172.3 32.4 175.7C29.3 180.5 25.7 182.9 22.1 182.9C16.8 182.9 12.3 178.6 8.40001 170.2C5.00002 162.8 3.60001 155.1 3.60001 147.2C3.60001 137.6 4.60001 129.7 6.5 123.9C7 122 7.5 121 7.89999 121C8.59999 121 8.89999 122.2 8.39999 124.6C7.7 130.8 7.39999 136.1 7.39999 140.4C7.39999 160.8 12 171.1 21.6 171.1C25.4 171.1 28.8 168 32.2 162C35.3 154.8 38.7 147.6 42 140.4C44.9 134.6 48.5 129.6 52.8 125.3C56.9 121 61 119.1 64.3 119.1C66.9 119.1 69.6 120.8 71.7 123.9C73.6 127 75.3 130.1 77.2 133.3C79.8 136.9 82.5 139.5 85.4 141C88.3 142.2 91.9 142.9 96.4 142.9L96.4 157.7L96.6 157.7L96.6 157.7L96.6 157.7ZM144.9 86.9L148.7 79.2C148.9 78.5 149.2 78.2 149.7 78.2C150.2 78.2 152.1 79.4 155.9 82C159.5 84.6 161.4 86.1 161.4 86.6C161.4 88.3 159.7 91.6 156.6 96.9C156.1 97.6 155.6 97.6 155.2 97.4C152.1 95 148.5 92.6 144.4 90C143 92.9 141.8 95.5 140.3 97.7C140.1 98.4 139.6 98.7 139.1 98.4C135.5 95.5 131.7 92.9 127.8 90.5C127.6 90.3 127.6 90 127.8 89.5L132.4 79.9C132.6 79.4 133.1 78.9 133.4 78.9C133.9 78.9 135.6 80.1 138.7 82.3C141.8 84.2 143.9 85.9 144.9 86.9L144.9 86.9L144.9 86.9L144.9 86.9L144.9 86.9ZM131.7 72C131.5 71.8 131.5 71.5 131.7 71L136.5 61.4C136.7 60.9 137 60.7 137.5 60.7C138 60.7 139.9 61.9 143.7 64.3C147.3 66.9 149.2 68.4 149.2 68.9C149.2 70.6 147.5 73.9 144.4 79.2C143.9 79.9 143.4 80.2 143 79.7C139.4 77 135.5 74.4 131.7 72L131.7 72L131.7 72L131.7 72L131.7 72ZM120.6 181L124.4 173.1C124.6 172.6 124.9 172.4 125.4 172.4C125.9 172.4 127.8 173.6 131.6 176.2C135.2 178.6 137.1 180 137.1 180.5C137.1 182.2 135.4 185.8 132.3 191.1C131.8 191.8 131.3 191.8 130.9 191.6C127.8 189.2 124.2 186.8 120.1 184.2C118.7 187.1 117.5 189.7 116 191.9C115.8 192.6 115.3 192.9 114.8 192.6C111.2 189.7 107.4 187.1 103.5 184.7C103.3 184.5 103.3 184.2 103.5 183.7L108.1 174.1C108.3 173.6 108.8 173.1 109.1 173.1C109.6 173.1 111.3 174.3 114.4 176.5C117.5 178.3 119.7 180 120.6 181L120.6 181L120.6 181L120.6 181L120.6 181ZM58.7 89.5L62.5 81.6C62.7 81.1 63 80.9 63.5 80.9C64 80.9 65.9 82.1 69.7 84.7C73.3 87.1 75.2 88.5 75.2 89C75.2 90.7 73.5 94.3 70.4 99.6C69.9 100.3 69.4 100.3 69 100.1C65.9 97.7 62.3 95.3 58.2 92.7C56.8 95.6 55.6 98.2 54.1 100.4C53.9 101.1 53.4 101.4 52.9 101.1C49.3 98.2 45.5 95.6 41.6 93.2C41.4 93 41.4 92.7 41.6 92.2L46.2 82.6C46.4 82.1 46.9 81.6 47.2 81.6C47.7 81.6 49.4 82.8 52.5 85C55.6 86.9 57.8 88.6 58.7 89.5L58.7 89.5L58.7 89.5L58.7 89.5L58.7 89.5ZM224.6 179.3C224.4 179.1 224.4 178.8 224.6 178.3L229.2 168.7C229.4 168.2 229.9 168 230.2 168C230.7 168 232.8 169.2 236.4 171.6C240.2 174.2 242.2 175.7 242.2 176.2C242.2 177.9 240.5 181.2 237.2 186.5C236.7 187.2 236.5 187.5 236 187.2C232.2 184.3 228.4 181.7 224.6 179.3L224.6 179.3L224.6 179.3L224.6 179.3L224.6 179.3ZM183 92.9C192.6 89.5 202.9 85.7 214 81.9C215 81.7 215.2 81.4 215.4 81.7C215.6 81.7 215.6 82.2 215.2 82.9C214.5 85.1 213.8 86.3 213.3 86.7C203.7 90.1 192.9 94.1 180.7 99.7C181.1 97.4 181.8 95.3 183 92.9L183 92.9L183 92.9L183 92.9L183 92.9ZM145.8 196.1C155.4 192.7 165.7 188.9 176.8 185.1C177.8 184.9 178 184.6 178.2 184.9C178.4 184.9 178.4 185.4 178 186.1C177.3 188.3 176.6 189.5 176.1 189.9C166.5 193.3 155.7 197.3 143.5 202.9C143.9 200.6 144.6 198.5 145.8 196.1L145.8 196.1L145.8 196.1L145.8 196.1L145.8 196.1ZM33 195.8C46.7 191 61.1 185.7 76.2 180.2C77.2 180 77.4 179.7 77.6 180C77.8 180 77.8 180.5 77.4 181.2C76.7 183.4 76 184.6 75.5 185C62.5 189.6 47.7 195.3 30.6 202.5C31.1 200.4 31.8 198.2 33 195.8L33 195.8L33 195.8L33 195.8L33 195.8ZM148.5 20.2C147.5 22.6 146.8 24 146.3 24.3C146.3 24.5 124.5 32.7 81 49C47.4 61.5 28.7 68.7 24.8 70.8C21.2 72.5 19.5 73.9 19.5 74.4C19.5 74.9 20 75.4 21.2 76.1C22.4 76.6 24.3 77.3 26.7 78.3C27.2 78.5 27.4 79.5 27.4 81.2C27.4 82.6 27.4 83.6 27.2 83.8C27.2 84 26.5 84 25.8 84C19.8 82.8 16.9 80.6001 16.9 77.8C16.9 75.9 17.6 73.7 19.3 71.1C21 68.5 22.7 66.5 24.3 65.3C26.7 63.9 45.7 56.4 80.9 43.5C102.5 35.6 124.6 27.4 147.1 19.3C147.8 19.1 148.3 18.8 148.5 19.1C148.7 19 148.7 19.4 148.5 20.2L148.5 20.2L148.5 20.2L148.5 20.2L148.5 20.2ZM10.7 110.9C10.7 110.7 10.9 110.4 10.9 110.4C11.1 110.2 11.1 110.2 11.1 110.4C11.3 110.6 11.3 110.9 11.1 111.1C9.90001 118.3 7.70001 121.9 4.60001 121.9C1.5 121.9 0 119.3 0 114C0 107.5 1.7 100.6 5.5 93.6C6.5 91.9 6.89999 91 7.2 91L7.2 91C7.2 91.2 7 92.2 6.5 93.9C4.10001 101.3 2.89999 106.4 2.89999 109.5C2.89999 113.3 3.89999 115.5 6 115.5C7.60002 115.4 9.00002 113.8 10.7 110.9L10.7 110.9L10.7 110.9L10.7 110.9L10.7 110.9ZM212.3 183.4C212.3 186 211.1 188.9 209.2 192C207 195.1 204.4 198 201 200.4C199.6 201.4 198.8 201.8 198.6 201.8L198.6 201.6C198.6 201.4 199.1 200.9 200 199.7C205.5 193.7 208.4 189.9 208.4 187.7C208.4 186 207.4 185.1 205.8 185.1C204.8 185.1 203.9 185.3 203.2 185.8C202.5 186 202.2 186.3 202 186.3C202 186.3 201.8 186.3 201.8 186.1C201.8 186.1 201.8 185.6 202 184.7C203 180.6 204.9 178.7 208.2 178.7C210.9 178.6 212.3 180.2 212.3 183.4L212.3 183.4L212.3 183.4L212.3 183.4L212.3 183.4ZM110.1 108.5C110.1 111.1 108.9 114 107 117.1C104.8 120.2 102.2 123.1 98.8 125.5C97.4 126.5 96.6 126.9 96.4 126.9L96.4 126.7C96.4 126.5 96.9 126 97.8 124.8C103.3 118.8 106.2 115 106.2 112.8C106.2 111.1 105.2 110.2 103.6 110.2C102.6 110.2 101.7 110.4 101 110.9C100.3 111.1 100 111.4 99.8 111.4C99.8 111.4 99.6 111.4 99.6 111.2C99.6 111.2 99.6 110.7 99.8 109.8C100.8 105.7 102.7 103.8 106 103.8C108.6 103.7 110.1 105.4 110.1 108.5L110.1 108.5L110.1 108.5L110.1 108.5L110.1 108.5ZM84.6 5.8C87.5 5.8 89.9 7.2 92 10.6C94.2 13.7 95.8 18 96.6 23.3C96.8 23.8 96.8 24 96.8 24.3L97 24.3C97 24.1 97.2 23.8 97.2 23.3C97.7 20.2 98.9 15.4 100.6 9.10001C102.5 4.8 104.4 2.60001 106.6 2.60001C107.8 2.60001 109 3.3 110 4.8C111 6.2 111.4 7.2 111.4 8.2C111.4 8.7 111.4 9.59999 110.9 10.6C110.4 12 109.9 12.8 109.5 12.8C109.3 12.8 108.8 12.1 107.8 11.1C107.1 10.1 106.1 9.7 105.2 9.7C103.3 9.7 101.6 14.3 99.9 23.4C99.2 27.5 98.2 30.4 97.5 32C96.8 33 96.3 33.7 95.8 33.7C95.3 33.7 95.3 33 95.1 32C95.3 30.3 94.4 27.2 92.5 22.6C90.6 17.8 89.4 15.6 88.4 15.6C87.9 15.6 87.7 15.6 87.4 16.1C87.2 16.3 86.9 16.6 86.2 16.6C85.2 16.6 84.3 15.9 82.8 14.7C81.4 13.5 80.9 12.5 80.9 11.8C80.9 11.6 81.4 10.4 82.6 8.40002C83.7 6.50002 84.4 5.8 84.6 5.8L84.6 5.8L84.6 5.8L84.6 5.8L84.6 5.8ZM198.4 23.5C198.4 22.3 196 20.1 191 17.3C189.3 20.2 188.6 22.8 188.6 25.2C188.6 26.6 189.3 27.6 190.8 27.6C192 27.6 193.4 27.1 195.1 26.2C196.7 25.4 197.9 24.5 198.4 23.5L198.4 23.5L198.4 23.5L198.4 23.5L198.4 23.5ZM193.1 4.3C193.8 3.10001 194.8 2.60001 195.5 2.60001C196 2.60001 196.5 2.8 196.5 3.3C196.5 3.3 196.3 3.5 196.3 3.8C195.3 6 194.4 8.40001 193.7 10.8C198.7 14.4 201.1 18.2 200.9 21.8C200.4 25.9 199.9 28.5 199.2 29.5C196.8 32.4 194.2 34.1 190.8 34.1C187.4 34.1 186 31.9 186 28.1C186 27.4 186 26.4 186.2 25.5C187.4 17.8 189.8 10.8 193.1 4.3L193.1 4.3L193.1 4.3L193.1 4.3L193.1 4.3ZM201.5 65.8C201.5 65.6 201.7 65.3 201.7 65.3C201.9 65.1 201.9 65.1 201.9 65.3C202.1 65.5 202.1 65.8 201.9 66C200.7 73.2 198.5 76.8 195.4 76.8C192.3 76.8 190.8 74.2 190.8 68.9C190.8 62.4 192.5 55.5 196.3 48.5C197.3 46.8 197.7 45.9 198 45.9L198 45.9C198 46.1 197.8 47.1 197.3 48.8C194.9 56.2 193.7 61.3 193.7 64.4C193.7 68.2 194.7 70.4 196.8 70.4C198.4 70.3 199.8 68.6 201.5 65.8L201.5 65.8L201.5 65.8L201.5 65.8L201.5 65.8ZM89.9 60.7C92.8 60.7 95.2 62.1 97.3 65.5C99.5 68.6 101.1 72.9 101.9 78.2C102.1 78.7 102.1 78.9 102.1 79.2L102.3 79.2C102.3 79 102.5 78.7 102.5 78.2C103 75.1 104.2 70.3 105.9 64C107.8 59.7 109.7 57.5 111.9 57.5C113.1 57.5 114.3 58.2 115.3 59.7C116.3 61.1 116.7 62.1 116.7 63.1C116.7 63.6 116.7 64.5 116.2 65.5C115.7 66.9 115.2 67.7 114.8 67.7C114.6 67.7 114.1 67 113.1 66C112.4 65 111.4 64.6 110.5 64.6C108.6 64.6 106.9 69.2 105.2 78.3C104.5 82.4 103.5 85.3 102.8 86.9C102.1 87.9 101.6 88.6 101.1 88.6C100.6 88.6 100.6 87.9 100.4 86.9C100.6 85.2 99.7 82.1 97.8 77.5C95.9 72.7 94.7 70.5 93.7 70.5C93.2 70.5 93 70.5 92.7 71C92.5 71.2 92.2 71.5 91.5 71.5C90.5 71.5 89.6 70.8 88.1 69.6C86.7 68.4 86.2 67.4 86.2 66.7C86.2 66.5 86.7 65.3 87.9 63.3C89 61.4 89.7 60.7 89.9 60.7L89.9 60.7L89.9 60.7L89.9 60.7L89.9 60.7ZM439.4 112.3C440.6 111.3 441.6 110.9 442.3 110.9C442.8 110.9 443 111.4 443 112.3C443 113 442.8 114.5 442.3 116.4C441.8 118.3 441.6 119.8 441.6 121C441.6 126.3 445.4 129.2 452.9 129.2C458.9 129.2 463.9 126.6 467.8 121.5C470.2 117.4 472.8 113.6 475.2 109.7C476.2 108.7 476.9 108.3 477.6 108.3C478.6 108.3 478.8 109.3 478.3 111.4C477.3 115.5 476.6 117.4 476.6 116.9C476.6 118.6 477.6 120.3 479.5 121.7C481.2 123.1 483.6 124.1 486.2 124.1C489.6 124.1 491.7 123.1 492.7 121.5C492.7 121.3 491.7 119.3 489.6 115.7C489.8 113.8 490.8 110.4 492.2 105.9C492.4 104.5 492.9 103.7 493.4 103.7C493.9 103.7 494.4 103.9 495.1 104.9C497 107.8 498.2 111.1 498.2 115C498.2 121 496.8 126 494.1 130.4C491.2 135.7 486.9 138.3 481.1 138.3C477.3 138.3 473.7 135.2 470.5 129.4C465.2 139 458.3 143.8 449.9 143.8C439.8 143.8 435 138 435 127C431.2 131.6 424.7 135.6 416.3 139.5L416.3 126.3C422.5 123.2 426.6 121.3 427.8 120.5C431.7 118.6 435.5 115.7 439.4 112.3L439.4 112.3L439.4 112.3L439.4 112.3L439.4 112.3ZM402.6 128.2C399 123.6 395.9 121.5 393 121.5C388.7 121.5 386.8 122.5 386.8 124.9C386.8 127.8 389.7 129.2 395.4 129.2C397.6 129.1 400 128.6 402.6 128.2L402.6 128.2L402.6 128.2L402.6 128.2L402.6 128.2ZM410.1 145.7C410.1 144.3 409.6 142.6 409.1 140.9C406.2 141.9 401.9 142.6 396.6 142.6C385.1 142.6 379.3 138.5 379.3 130.6C379.3 124.6 381 119.3 384.8 114.5C388.4 110.4 392.2 108.3 396.3 108.3C399.4 108.3 402.5 110.2 406.1 113.8C409.2 117.4 412.1 121.5 414.5 126.5C414.7 126.5 415.2 126.5 416.2 126L416.2 139.2L415.7 139.7C415.7 142.6 415 145.9 413.5 150.3C411.8 155.8 409.2 160.4 406.1 164C398.9 172.6 391 180.1 382.3 186.6C369.3 196.2 358.3 201.2 348.7 201.2C340.5 201.2 334.3 198.1 330 192.1C326.2 187.1 324.2 180.3 324.2 172.4C324.2 162.3 326.4 152 330.4 141.2C331.6 138.8 332.1 137.8 332.6 137.8C332.8 137.8 332.8 138 332.8 138.5C332.8 139.2 332.6 140.4 332.3 141.9C329.2 152.5 327.7 160.4 327.7 165.9C327.7 170.9 328.9 175.3 331.3 178.9C335.1 183.9 341.1 186.6 349.5 186.6C356.7 186.6 365.3 183.5 375.7 177.2C383.9 172.2 391.8 166.2 399.5 159C406.5 152.2 410.1 147.8 410.1 145.7L410.1 145.7L410.1 145.7L410.1 145.7L410.1 145.7ZM344.6 109.2C344.1 107 343.4 105.4 342.4 104.2C341.7 102.8 341.2 102 341 101.6C341 101.1 341 99.4 341.5 96.1C342 93 342.2 90.8 342.7 89.6C342.9 88.4 343.2 87.9 343.7 87.9C343.9 87.9 344.2 88.1 344.7 88.6C348.1 92.4 351.7 96.3 355.7 100.4C357.4 102.1 358.1 103 358.1 103.5C358.1 103.7 357.9 104 357.4 104C356.7 104 354.8 103.5 351.9 102.8C353.6 106.9 355.5 111 357.2 114.8C359.8 121.5 361.3 127 361.3 132.1C361.3 134.5 360.8 137.4 359.9 141C358.7 145.1 357.3 148.2 355.3 150.4C348.3 158.3 336.6 167 320 176.3C305.6 184.7 297.2 188.8 294.6 188.8C294.1 188.8 286.9 190.5 273.2 193.8C258.8 197.2 249.7 199.3 246.1 199.8C242.3 200.5 239.9 200.8 238.9 200.8C238.4 200.8 238.4 200.8 238.4 200.6C238.4 200.4 241 198.9 246.3 196.5C248.2 195.5 259.3 190.7 279.7 182.1C293.9 176.1 305.6 170.6 315 165.5C329.2 157.8 340 151.1 347.4 145.6C352.9 141.3 355.8 138.2 355.8 136.2C355.8 135.7 354.4 132.4 351.5 126.1C348.2 119 345.8 113.3 344.6 109.2L344.6 109.2L344.6 109.2L344.6 109.2L344.6 109.2ZM324.9 75.8C324.9 79.6 323 84.9 319.1 91.4C316.7 95.5 313.1 101 308.3 108.2C313.1 113.7 316.5 118.8 318.1 123.1C319.1 126.2 319.8 130.3 319.8 134.9C319.8 136.8 319.3 139.2 318.4 142.3C317.7 145.2 316.7 147.3 315.8 148.8C313.9 151.7 310.8 154.6 306 157.4C301 160.8 296.6 162.4 293 162.4C287.2 162.4 284.4 158.1 284.4 149.4C284.4 143.6 285.4 137.9 287.3 132.6C289.2 128 292.3 122 297.4 114.1C293.1 110 288.5 104.3 283.5 97.1C283 96.4 281.8 95.2 279.9 93.3C278.9 92.3 278.5 91.1 278.5 89.7C278.5 87.5 278.7 85.1 279.2 82.3C279.9 79.4 280.4 78.2 280.6 78.2C281.3 78.2 283.5 79.4 287.6 82C291.4 84.6 294.6 86.6 296.5 88.2C297.7 88.9 298.2 89.6 298.2 89.6L298.2 89.8C298.2 90 297.5 90.3 295.8 90.3C292.7 90.3 291 90.5 291 90.8C291 91 291.5 91.5 292.4 92.7C296.2 97.5 300.1 101.1 304.2 104C305.2 102.6 308.5 97.8 313.8 89.6C318.4 82.6 321 77.8 322.2 75C323.4 72.1 324.1 70.9 324.6 70.9C324.6 71 324.9 72.5 324.9 75.8L324.9 75.8L324.9 75.8L324.9 75.8L324.9 75.8ZM315.5 134.9C312.9 129.6 308.3 124.1 302.1 118.8C299.9 121 297.3 125 293.9 130.8C290.1 137.3 288.4 141.4 288.4 143.5C288.4 146.4 290.3 147.8 294.6 147.8C296.5 147.8 298.9 147.1 302 145.9C306.3 144 310.4 141.3 313.8 138C315.3 136.6 315.8 135.6 315.5 134.9L315.5 134.9L315.5 134.9L315.5 134.9L315.5 134.9ZM302.1 57.8L305.9 49.9C306.1 49.4 306.4 49.2 306.9 49.2C307.4 49.2 309.3 50.4 313.1 53C316.7 55.4 318.6 56.8 318.6 57.3C318.6 59 316.9 62.6 313.8 67.9C313.3 68.6 312.8 68.6 312.4 68.4C309.3 66 305.7 63.6 301.6 61C300.2 63.9 299 66.5 297.5 68.7C297.3 69.4 296.8 69.7 296.3 69.4C292.7 66.5 288.9 63.9 285 61.5C284.8 61.3 284.8 61 285 60.5L289.6 50.9C289.8 50.4 290.3 49.9 290.6 49.9C291.1 49.9 292.8 51.1001 295.9 53.3C299 55.2 301.1 56.9 302.1 57.8L302.1 57.8L302.1 57.8L302.1 57.8L302.1 57.8ZM428.6 191.8C426 192.5 424.5 193 424 193L424 192.8C424 192.8 425 192.1 426.9 190.9C428.8 189.7 431.7 187.8 435.8 184.7C437.7 182.8 440.6 179.7 444.2 175.3C446.6 172.4 449.2 169.8 452.1 167.9C455.7 165.3 459.1 164.1 462.7 164.1C463.4 164.1 464.6 164.3 466.1 164.8C467.3 165.3 468.5 165.5 469.5 165.5C471.4 165.5 472.9 164.8 474.1 163.3C474.8 161.9 475.8 160.7 476.7 159.2C477.2 158.2 477.9 157.8 478.4 157.8C478.6 157.8 478.6 158 478.6 158.5C478.6 159 478.4 160.2 477.9 161.6C477.4 162.3 479.3 162.6 482.9 162.6C483.4 162.6 483.6 162.6 483.6 162.4C483.6 162.4 483.4 161.4 482.9 159.8C482.7 159.3 482.9 158.6 483.6 157.6C484.6 155.9 485 155.2 485.3 155.4C486.3 156.1 486.7 157.6 486.7 159.2C486.7 160.9 486.2 162.6 485.5 164.5C484.8 166.7 484.1 167.9 483.6 168.3C481.9 169.3 479.3 169 475.7 167.3C472.8 170.2 469.9 171.9 467.1 171.9C466.4 171.9 465.2 171.7 464 171.2C462.8 170.7 461.8 170.5 461.1 170.5C456.3 170.5 451.3 172.7 446.2 177.5C442.6 181.1 439 184.7 435.4 188.3C433.1 189.8 431 191 428.6 191.8L428.6 191.8L428.6 191.8L428.6 191.8L428.6 191.8ZM377 62.2C379.9 62.2 382.3 63.6 384.4 67C386.6 70.1 388.2 74.4 389 79.7C389.2 80.2 389.2 80.4 389.2 80.7L389.4 80.7C389.4 80.5 389.6 80.2 389.6 79.7C390.1 76.6 391.3 71.8 393 65.5C394.9 61.2 396.8 59 399 59C400.2 59 401.4 59.7 402.4 61.2C403.4 62.6 403.8 63.6 403.8 64.6C403.8 65.1 403.8 66 403.3 67C402.8 68.4 402.3 69.2 401.9 69.2C401.7 69.2 401.2 68.5 400.2 67.5C399.5 66.5 398.5 66.1 397.6 66.1C395.7 66.1 394 70.7 392.3 79.8C391.6 83.9 390.6 86.8 389.9 88.4C389.2 89.4 388.7 90.1 388.2 90.1C387.7 90.1 387.7 89.4 387.5 88.4C387.7 86.7 386.8 83.6 384.9 79C383 74.2 381.8 72 380.8 72C380.3 72 380.1 72 379.8 72.5C379.6 72.7 379.3 73 378.6 73C377.6 73 376.7 72.3 375.2 71.1C373.8 69.9 373.3 68.9 373.3 68.2C373.3 68 373.8 66.8 375 64.8C376 62.9 376.7 62.2 377 62.2L377 62.2L377 62.2L377 62.2L377 62.2ZM336.4 59C360.6 49.9 385.8 40.8 411.8 31.2C412.5 31 413 30.7 413 31C413.2 31 413.2 31.5 413 32.2C412 34.4 411.3 35.6 410.8 36C410.6 36.2 398.3 40.8 374.6 49.7C350.4 58.6 336.7 64.1 334 65.8C334.5 63.6 335.2 61.4 336.4 59L336.4 59L336.4 59L336.4 59L336.4 59ZM312.9 15.1C313.4 13.7 313.4 12.2 313.1 10.8C312.9 9.40001 312.1 8.60001 310.9 8.60001C310.4 8.60001 309.7 8.8 308.7 9.3C307.7 9.8 307.3 10.3 307.3 10.7C307.4 12 309.3 13.4 312.9 15.1L312.9 15.1L312.9 15.1L312.9 15.1L312.9 15.1ZM310 21.4C305.4 19 303.3 16.6 303.3 14C303.3 10.9 304.7 8.00002 307.6 5.60002C310.5 3.00002 312.9 2.00002 314.8 2.70003C316.5 3.20003 317.2 4.90002 317.2 7.70003C317.2 10.3 316.7 13.2 315.5 16.6C317.9 17.8 319.3 19 319.8 20C319.8 21.2 318.8 23.4 316.7 26.2C316.2 25.2 314.8 24 312.6 22.8C310 26.4 306.8 29.5 303 32.4C298.4 35.5 294.4 38.2 290.8 39.6C289.8 40.1 285.5 41.8 277.8 44.6C276.6 45.1 275.6 45.3 275.4 45.3C275.2 45.3 275.2 45.1 275.2 45.1C275.2 44.9 275.7 44.1 277.1 43.4C282.9 39.8 288.6 36.4 294.6 33.1C301.6 28.8 306.6 25 310 21.4L310 21.4L310 21.4L310 21.4L310 21.4ZM461.7 51.4C462.2 50 462.2 48.5 461.9 47.1C461.7 45.7 460.9 44.9 459.7 44.9C459.2 44.9 458.5 45.1 457.5 45.6C456.5 46.1 456.1 46.6 456.1 47C456.2 48.2 458.1 49.7 461.7 51.4L461.7 51.4L461.7 51.4L461.7 51.4L461.7 51.4ZM467 60.2C464.6 66 463.4 70.5 463.4 73.9C463.4 78 464.4 80.1 466.5 80.1C467.7 80.1 469.1 78.4 470.8 75.5C471 75.3 471 75 471.3 74.8C471.3 74.8 471.5 74.8 471.5 75C471.5 75 471.5 75.2 471.5 75.7C470.1 82.9 467.9 86.5 465 86.5C461.9 86.5 460.4 83.9 460.4 78.6C460.4 76 460.9 72.6 462.3 68.3C463.7 64 464.5 61.8 464.5 61.6C464.5 61.1 463.5 60.2 461.4 59C457.6 64 452.3 68.8 445.6 72.9C441 75.5 436.5 77.9 431.7 79.9C422.8 83.5 417.5 85.4 416.3 86.1C415.1 86.6 414.4 86.8 413.9 86.8C413.7 86.8 413.7 86.6 413.7 86.6C413.7 86.1 414.2 85.6 415.6 84.7C423.3 80.4 430.7 76.1 438.4 71.7C448.5 65.9 455.4 61.1 458.8 57.5C454.2 55.1 452.1 52.7 452.1 50.1C452.1 47 453.5 44.1 456.4 41.5C459.3 39.1 461.7 38.1 463.6 38.9C465 39.4 466 41.1 466 43.9C466 46.5 465.5 49.4 464.3 52.5C466.7 53.9 467.7 55.4 467.7 56.8C467.7 57.6 467.4 58.8 467 60.2L467 60.2L467 60.2L467 60.2L467 60.2ZM357.8 25.4C357.8 25.2 358 24.9 358 24.9C358.2 24.7 358.2 24.7 358.2 24.9C358.4 25.1 358.4 25.4 358.2 25.6C357 32.8 354.8 36.4 351.7 36.4C348.6 36.4 347.1 33.8 347.1 28.5C347.1 22 348.8 15.1 352.6 8.10002C353.6 6.40002 354 5.50002 354.3 5.50002L354.3 5.50002C354.3 5.70001 354.1 6.70001 353.6 8.40001C351.2 15.8 350 20.9 350 24C350 27.8 351 30 353.1 30C354.6 30 356.1 28.3 357.8 25.4L357.8 25.4L357.8 25.4L357.8 25.4L357.8 25.4Z" id="Group" fill="#595959" stroke="none" clip-path="url(#clip_1)" />
  </g>
</svg>