<?xml version="1.0" encoding="utf-8"?>
<svg width="443.00012px" height="205.29999px" viewBox="0 0 443.00012 205.29999" version="1.1" xmlns:xlink="http://www.w3.org/1999/xlink" xmlns="http://www.w3.org/2000/svg">
  <defs>
    <path d="M443 0L443 0L443 205.3L0 205.3L0 0L443 0Z" id="path_1" />
    <clipPath id="clip_1">
      <use xlink:href="#path_1" clip-rule="evenodd" fill-rule="evenodd" />
    </clipPath>
  </defs>
  <g id="Surah_39_of_114_(modified)">
    <path d="M443 0L443 0L443 205.3L0 205.3L0 0L443 0Z" id="Surah_39_of_114_(modified)" fill="none" stroke="none" />
    <path d="M176.6 127.9C181.7 119.7 184.3 108.7 184.3 94.5C184.3 89.4 183.6 77.4 182.2 58.6C180.7 39.4 180 29.5 180 29.3C180 28.1 180.2 27.8 180.7 28.3C184.7 33.1 186.9 34.6 186.9 32.4C186.9 31.7 186.6 30.7 186.4 29.3C185.7 27.4 184 22.6 180.9 14.9C178.2 7.5 176.3 2.89999 175.6 1C175.1 0.199997 174.9 0 174.4 0C174.2 0 173.9 0.300003 173.7 1C170.8 7.39999 169.4 11.5 169.4 13.2C170.8 16.3 171.8 20.1 171.8 24.7C171.8 28.8 172.5 42.5 174.2 65.5C175.8 88.3 176.8 102 176.8 106.3C176.8 113.1 176.1 117.1 174.9 118.1C170.6 121.7 166.1 123.6 161.5 123.6L161.5 138.2C167.2 138.2 172.3 134.6 176.6 127.9ZM195.6 16.4C197.1 19.6 197.8 23.4 197.8 28.2C197.8 32.3 199 51.3 201.5 85.1C203.9 118.9 205.1 138.1 205.1 142.9C205.1 148 204.9 152.5 204.4 156.6C204.371 156.979 204.342 157.344 204.314 157.693C204.15 159.736 204.029 161.246 204.2 162.1C204.4 162.8 204.7 162.8 205.4 161.6C205.9 160.7 206.3 159.5 207.3 157.8C210.6 149.2 212.3 139.1 212.3 127.8C212.3 124 211.4 107.4 209.2 77.9C207 48.2 205.8 33.3 205.8 32.8C205.8 31.6 206 31.1 206.5 31.8C210.8 36.6 212.7 37.8 212.7 35.6C212.7 35.1 212.7 33.9 212.2 32.7C211.7 30.8 210 26 206.9 18.1C204 10.6 202.3 6.10001 201.6 4.40001C201.1 3.70001 200.9 3.20001 200.4 3.20001C200.2 3.20001 199.9 3.70001 199.7 4.40001C196.8 10.6 195.6 14.7 195.6 16.4ZM248.2 17.7C248.2 20.3 250.3 22.7 254.9 25.1C251.5 28.7 246.5 32.5 239.5 36.8C233.5 40.1 227.8 43.5 222 47.1C220.6 47.8 220.1 48.6 220.1 48.8C220.1 48.8 220.1 49 220.3 49C220.5 49 221.5 48.8 222.7 48.3C230.4 45.5 234.7 43.8 235.7 43.3C239.3 41.9 243.3 39.2 247.9 36.1C251.7 33.2 254.9 30.1 257.5 26.5C259.7 27.7 261.1 28.9 261.6 29.9C263.7 27.1 264.7 24.9 264.7 23.7C264.2 22.7 262.8 21.5 260.4 20.3C261.6 16.9 262.1 14 262.1 11.4C262.1 8.60002 261.4 6.90002 259.7 6.40002C257.8 5.70001 255.4 6.70001 252.5 9.30002C249.6 11.7 248.2 14.6 248.2 17.7ZM129.8 27.7C125.2 25.3 123.1 22.9 123.1 20.3C123.1 17.2 124.5 14.3 127.4 11.9C130.3 9.30002 132.7 8.30002 134.6 9.00003C136.3 9.50003 137 11.2 137 14C137 16.6 136.5 19.5 135.3 22.9C137.7 24.1 139.1 25.3 139.6 26.3C139.6 27.5 138.6 29.7 136.5 32.5C136 31.5 134.6 30.3 132.4 29.1C129.8 32.7 126.6 35.8 122.8 38.7C118.2 41.8 114.2 44.5 110.6 45.9C109.6 46.4 105.3 48.1 97.5999 50.9C96.3999 51.4 95.3999 51.6 95.1999 51.6C94.9999 51.6 94.9999 51.4 94.9999 51.4C94.9999 51.2 95.4999 50.4 96.8999 49.7C102.7 46.1 108.4 42.7 114.4 39.4C121.4 35.2 126.5 31.3 129.8 27.7ZM258 14.6C258.3 16 258.3 17.5 257.8 18.9C254.2 17.2 252.2 15.7 252.2 14.5C252.2 14.1 252.6 13.6 253.6 13.1C254.6 12.6 255.3 12.4 255.8 12.4C257 12.4 257.8 13.2 258 14.6ZM299.5 31.8C299.5 31.8 299.3 32.1 299.3 32.3C297.6 35.2 296.2 36.9 294.6 36.9C292.5 36.9 291.5 34.7 291.5 30.9C291.5 27.8 292.7 22.7 295.1 15.3C295.6 13.6 295.8 12.6 295.8 12.4C295.5 12.4 295.1 13.3 294.1 15C290.3 22 288.6 28.9 288.6 35.4C288.6 40.7 290.1 43.3 293.2 43.3C296.3 43.3 298.5 39.7 299.7 32.5C299.9 32.3 299.9 32 299.7 31.8C299.7 31.7093 299.7 31.6598 299.681 31.6513C299.659 31.6411 299.609 31.6907 299.5 31.8ZM132.7 21.5C133.2 20.1 133.2 18.6 132.9 17.2C132.7 15.8 131.9 15 130.7 15C130.2 15 129.5 15.2 128.5 15.7C127.5 16.2 127.1 16.7 127.1 17.1C127.2 18.4 129.1 19.8 132.7 21.5ZM281.3 62.8C305.5 53.7 330.7 44.6 356.7 35C356.902 34.9423 357.088 34.8762 357.249 34.8186C357.647 34.6768 357.9 34.5867 357.9 34.8C358.1 34.8 358.1 35.3 357.9 36C356.9 38.2 356.2 39.4 355.7 39.8C355.5 40 343.2 44.6 319.5 53.5C295.3 62.4 281.6 67.9 278.9 69.6C279.4 67.3 280.1 65.2 281.3 62.8ZM50.2 67.3C49.7 64.4 48.5 61.1 46.8 57C45.1 52.9 43.7 50.8 43 50.8C42.5 50.8 42.3 50.8 42 51.3C41.8 51.5 41.5 51.8 40.8 51.8C39.8 51.8 38.9 51.1 37.4 49.9C36 48.7 35.5 47.7 35.5 47C35.5 46.8 36 45.6001 37.2 43.6001C38.2 41.7001 38.9 41 39.1 41C42 41 44.4 42.4 46.5 45.8C48.7 48.9001 50.3 53.2 51.1 58.5001C51.3 59.0001 51.3 59.2001 51.3 59.5001L51.5 59.5001C51.5 59.3 51.7 59.0001 51.7 58.5001C52.2 55.4001 53.4 50.6001 55.1 44.3001C57 40.0001 58.9 37.8001 61.1 37.8001C62.3 37.8001 63.5 38.5001 64.5 40.0001C65.5 41.4001 65.9 42.4001 65.9 43.4001C65.9 43.9001 65.9 44.8 65.4 45.8C64.9 47.2 64.4 48 64 48C63.8 48 63.3 47.3 62.3 46.3C61.6 45.3 60.6 44.9001 59.7 44.9001C57.8 44.9001 56.1 49.5001 54.4 58.6001C53.7 62.2001 53 65.1001 51.8 67.2001C53.5 67.2001 55.4 68.4001 58 70.3001C60.4 72.5001 61.8 74.1001 62.1 75.6001C62.1 76.1001 61.9 77.0001 61.1 78.7001C60.4 80.4001 59.9 81.1001 59.4 81.3001C57 82.0001 54.6 82.5001 52.2 83.2001C49.3 84.2001 47.2 85.4001 46 86.6001C49.4 96.7001 51 106.5 51 116.4C51 119.3 50.5 122.2 50 125.3C49.8 126.3 49.5 126.7 49.3 127C49.1 127 49.1 125.1 49.1 121.7C49.1 116.2 48.1 109.2 46.5 101.3C45.1 93.4001 44.1 88.8001 44.1 87.6001C44.1 83.5001 45.3 80.6001 47.5 78.7001C48.7 78.0001 50.6 77.0001 53.7 76.1001C52.5 74.9001 51.3 74.4001 50.1 74.4001C49.6 74.4001 48.9 75.1001 47.9 76.3C46.7 77.5001 46.2 78.2 46 78.2C45.8 78.2 45.8 77.7 46 76.5C46.6 71.4 48 68.3 50.2 67.3ZM156.5 59.9C157.4 58 157.9 55.8 157.9 53.9C157.9 52.9 157.4 51.5 156.3 49.5C155.1 46.2 154.4 44.5 154.4 44.5C154.2 43.5 153.9 42.3 153.7 41.1C153.7 40.2 153.5 39.7 153.2 39.7C152.9 39.7 152.7 40.2 152.2 40.9C151.2 42.1 151 43.3 151 44.7C151 47.3 152.5 50.9 155.1 55.7C154.9 57.2 153.9 57.9 152.5 57.9C149.3 57.9 147.9 55.8 147.9 51.7C147.9 50.3 147.4 48.1 146.7 45C146 42.1 145.5 40.7 145 40.7C144.8 40.7 144.3 41.1 143.8 42.1C143.3 43.3 143.1 44 143.1 44.5C143.1 45 143.4 46.4 144.1 48.6C144.6 51 145.1 52.4 145.1 53.4C145.1 55.1 144.4 56.5 143.2 57.7C142 58.9 140.8 59.6 139.4 59.6C138.5 59.6 137.5 58.6 136.8 57.2C136.3 56 136.1 54.5 136.1 53.1C136.1 52.4 136.1 51.7 136.3 50.7C136.3 49.7 136.5 48.5 136.5 47.1C136.5 44.5 136 43.3 135.3 43.3C134.8 43.3 134.1 43.8 133.1 45C132.2 46.2 131.7 47.4 131.7 48.8C131.7 49.5 132 50 132.7 50.2C133.2 50.5 133.7 50.7 133.7 51.2L133.7 57.4C133.7 59.8 134.2 62 135.4 63.4C136.4 64.9 137.6 65.6 138.8 65.6C142.4 65.6 144.8 63 146.2 58.2C147.4 62.1 149.3 64 152.2 64C153.9 64 155.3 62.5 156.5 59.9ZM411.8 64C409.4 69.8 408.2 74.3 408.2 77.7C408.2 81.8 409.2 83.9 411.3 83.9C412.5 83.9 413.9 82.2 415.6 79.3C415.8 79.1 415.8 78.8 416.1 78.6C416.1 78.6 416.3 78.6 416.3 78.8L416.3 79.5C414.9 86.7 412.7 90.3 409.8 90.3C406.7 90.3 405.2 87.7 405.2 82.4C405.2 79.8 405.7 76.4 407.1 72.1C408.5 67.8 409.3 65.6 409.3 65.4C409.3 64.9 408.3 64 406.2 62.8C402.4 67.8 397.1 72.6 390.4 76.7C385.8 79.3 381.3 81.7 376.5 83.7C367.6 87.3 362.3 89.2 361.1 89.9C359.9 90.4 359.2 90.6 358.7 90.6C358.5 90.6 358.5 90.4 358.5 90.4C358.5 89.9 359 89.4 360.4 88.5C368.1 84.2 375.5 79.9 383.2 75.5C393.3 69.7 400.2 64.9 403.6 61.3C399 58.9 396.9 56.5 396.9 53.9C396.9 50.8 398.3 47.9 401.2 45.3C404.1 42.9 406.5 41.9 408.4 42.7C409.8 43.2 410.8 44.9 410.8 47.7C410.8 50.3 410.3 53.2 409.1 56.3C411.5 57.7 412.5 59.2 412.5 60.6C412.6 61.3 412.3 62.5 411.8 64ZM406.6 55.1C407.1 53.7 407.1 52.2 406.8 50.8C406.6 49.4 405.8 48.6 404.6 48.6C404.1 48.6 403.4 48.8 402.4 49.3C401.4 49.8 401 50.3 401 50.7C401 52 403 53.4 406.6 55.1ZM250.8 53.7L247 61.6C246 60.6 243.8 58.9 240.8 57.1C237.7 54.9 236 53.7 235.5 53.7C235.2 53.7 234.7 54.2 234.5 54.7L229.9 64.3C229.7 64.8 229.7 65.1 229.9 65.3C233.8 67.7 237.6 70.3 241.2 73.2C241.7 73.5 242.2 73.2 242.4 72.5C243.9 70.3 245.1 67.7 246.5 64.8C250.6 67.4 254.2 69.8 257.3 72.2C257.7 72.4 258.2 72.4 258.7 71.7C261.8 66.4 263.5 62.8 263.5 61.1C263.5 60.6 261.6 59.2 258 56.8C254.2 54.2 252.3 53 251.8 53C251.3 53 251 53.2 250.8 53.7ZM118.1 62.3C103 67.8 88.6 73.1 74.9 77.9C73.7 80.3 73 82.5 72.5 84.6C89.6 77.4 104.4 71.7 117.4 67.1C117.9 66.7 118.6 65.5 119.3 63.3C119.7 62.6 119.7 62.1 119.5 62.1C119.377 61.9155 119.254 61.9579 118.945 62.0644C118.752 62.1311 118.485 62.223 118.1 62.3ZM329.2 70.7C327.1 67.3 324.7 65.9 321.8 65.9C321.6 65.9 320.9 66.6 319.8 68.5C318.6 70.5 318.1 71.7 318.1 71.9C318.1 72.6 318.6 73.6 320 74.8C321.5 76 322.4 76.7 323.4 76.7C324.1 76.7 324.4 76.4 324.6 76.2C324.9 75.7 325.1 75.7 325.6 75.7C326.6 75.7 327.8 77.9 329.7 82.7C331.6 87.3 332.5 90.4 332.3 92.1C332.5 93.1 332.5 93.8 333 93.8C333.5 93.8 334 93.1 334.7 92.1C335.4 90.5 336.4 87.6 337.1 83.5C338.8 74.4 340.5 69.8 342.4 69.8C343.3 69.8 344.3 70.2 345 71.2C346 72.2 346.5 72.9 346.7 72.9C347.1 72.9 347.6 72.1 348.1 70.7C348.6 69.7 348.6 68.8 348.6 68.3C348.6 67.3 348.2 66.3 347.2 64.9C346.2 63.4 345 62.7 343.8 62.7C341.6 62.7 339.7 64.9 337.8 69.2C336.1 75.5 334.9 80.3 334.4 83.4C334.4 83.9 334.2 84.2 334.2 84.4L334 84.4C334 84.1 334 83.9 333.8 83.4C333 78.1 331.4 73.8 329.2 70.7ZM269.8 79.6C269.8 83.4 267.9 88.7 264 95.2C261.6 99.3 258 104.8 253.2 112C258 117.5 261.4 122.6 263 126.9C264 130 264.7 134.1 264.7 138.7C264.7 140.6 264.2 143 263.3 146.1C262.6 149 261.6 151.1 260.7 152.6C258.8 155.5 255.7 158.4 250.9 161.2C245.9 164.6 241.5 166.2 237.9 166.2C232.1 166.2 229.3 161.9 229.3 153.2C229.3 147.4 230.3 141.7 232.2 136.4C234.1 131.8 237.2 125.8 242.3 117.9C238 113.8 233.4 108.1 228.4 100.9C227.9 100.2 226.7 99 224.8 97.1C223.8 96.1 223.4 94.9 223.4 93.5C223.4 91.3 223.6 88.9 224.1 86.1C224.8 83.2 225.3 82 225.5 82C226.2 82 228.4 83.2 232.5 85.8C236.3 88.4 239.5 90.4 241.4 92C242.6 92.7 243.1 93.4 243.1 93.4L243.1 93.6C243.1 93.8 242.4 94.1 240.7 94.1C237.6 94.1 235.9 94.3 235.9 94.6C235.9 94.8 236.4 95.3 237.3 96.5C241.1 101.3 245 104.9 249.1 107.8C250.1 106.4 253.4 101.6 258.7 93.4C263.3 86.4 265.9 81.6 267.1 78.8C268.3 75.9 269 74.7 269.5 74.7C269.5 74.7147 269.507 74.7573 269.518 74.8301C269.582 75.2537 269.8 76.6987 269.8 79.6ZM142.3 86.3C142.1 86.1 142.1 85.8 142.3 85.3L146.9 75.7C147.1 75.2 147.6 75 147.9 75C148.4 75 150.5 76.2 154.1 78.6C157.9 81.2 159.9 82.7 159.9 83.2C159.9 84.9 158.2 88.2 154.9 93.5L154.871 93.5403C154.392 94.2114 154.19 94.4942 153.7 94.2C150 91.3 146.2 88.7 142.3 86.3ZM107.5 116.8C95.3 120.8 82.3 128 68.9 138.6C65 141.7 58.8 147.5 50.3 155.8C41.9 164.2 35.7 170 31.6 173.1C24.7 178.4 18.9 180.8 14.1 180.8C10.8 180.8 8.09998 179.6 6.19998 177.2C4.29999 174.8 3.29999 171.6 3.29999 167.8C3.29999 163 4.89999 156 8.29999 147.4C10.8381 140.359 12.4377 135.664 12.9342 133.425C13.2075 133.475 13.4961 133.5 13.8 133.5C16.9 133.5 19.1 129.9 20.3 122.7C20.5 122.5 20.5 122.2 20.3 122C20.3 121.909 20.3 121.86 20.2814 121.851C20.2589 121.841 20.2093 121.891 20.1 122C20.1 122 19.9 122.3 19.9 122.5C18.2 125.4 16.8 127.1 15.2 127.1C13.1 127.1 12.1 124.9 12.1 121.1C12.1 118 13.3 112.9 15.7 105.5C16.2 103.8 16.4 102.8 16.4 102.6C16.1 102.6 15.7 103.5 14.7 105.2C10.9 112.2 9.2 119.1 9.2 125.6C9.2 129.395 9.96911 131.806 11.544 132.869C11.3651 133.181 11.1825 133.557 11 134C3.60001 148.4 0 160.2 0 169.3C0 175.8 1.7 181.3 5.5 185.9C9.09999 190.2 13.4 192.4 18.2 192.4C22.7 192.4 28 190 34 185.2C36.9 182.8 42.9 177 52.5 167.4C61.6 158.3 69.7 151.1 76.7 145.6C76.8122 145.511 76.9257 145.422 77.0404 145.333C73.1415 155.976 71 166.138 71 176.3C71 182.8 72.2 188.8 75.1 193.8C79 201.2 85.2 204.8 93.6 204.8C102.7 204.8 113.8 200.8 126.5 192.6C136.6 186.2 144.5 179.7 149.8 173.2C155.1 167.2 157.7 155.2 157.7 137.4C158.4 137.9 159.6 137.9 161.3 137.9L161.3 123.3C158 123.3 155.3 122.6 153.9 120.7C153.2 120.2 152.2 118.5 150.8 115.4C150.1 114 149.6 113 149.1 113C148.6 113 148.1 113.7 147.9 114.9C146 120.9 145 124.5 145 125.2C145 126.2 145.4 127.6 146.4 129.3C151 138.4 153.4 147 153.4 155.2C152.4 157.4 148.3 161.2 141.6 167C133.7 173.2 126 178.5 118.1 182.8C108.2 188.1 99.8 190.7 93.1 190.7C87.6 190.7 82.8 188.3 79.2 183C76 179 74.6 174.4 74.6 169.6C74.6 164.1 76 156.2 78.9 145.6C79.1537 144.839 79.3301 144.155 79.4424 143.575C84.0823 140.357 90.295 136.946 97.8 133.4C104.3 130.6 109.6 128.4 113.2 127.2C114.1 130.5 115.1 132.2 115.8 132.2C117 132.2 117.4 129.8 117.2 125.5C125.2 122.9 131.9 121 137.4 119.3C138.8 115.4 140 111.6 141 107.5C141 104.3 137.7 100.5 130.7 95.7C124.2 91.2 119.2 89 115.6 89C111.1 89 107.7 90.7 105.3 93.8C103.7 96.4 102.7 99.6 102.7 103.4C102.7 105.8 103 107.7 103.7 109.4C105.3 112.7 106.8 115.4 107.5 116.8ZM287.2 107.9C288.2 109.1 288.9 110.7 289.4 112.9C290.6 117 293 122.8 296.3 129.8C299.2 136.1 300.6 139.4 300.6 139.9C300.6 141.9 297.7 145 292.2 149.3C287.372 152.888 281.096 156.988 273.374 161.542C274.111 157.119 275.38 151.825 277.2 145.6C277.5 144.1 277.7 142.9 277.7 142.2C277.7 141.7 277.7 141.5 277.5 141.5C277 141.5 276.5 142.5 275.3 144.9C272.962 151.213 271.239 157.355 270.211 163.386C266.971 165.254 263.501 167.193 259.8 169.2C250.4 174.3 238.7 179.8 224.5 185.8C204.1 194.4 193 199.2 191.1 200.2C185.8 202.6 183.2 204.1 183.2 204.3C183.2 204.5 183.2 204.5 183.7 204.5C184.7 204.5 187.1 204.2 190.9 203.5C194.5 203 203.6 200.9 218 197.5C231.7 194.2 238.9 192.5 239.4 192.5C242 192.5 250.4 188.4 264.8 180C266.28 179.171 267.72 178.347 269.122 177.528C269.35 184.82 271.331 191.104 274.9 195.8C279.2 201.8 285.4 204.9 293.6 204.9C303.2 204.9 314.2 199.9 327.2 190.3C335.9 183.8 343.8 176.3 351 167.7C354.1 164.1 356.7 159.5 358.4 154C359.9 149.6 360.6 146.3 360.6 143.4L361.1 142.9L361.1 129.7C360.1 130.2 359.6 130.2 359.4 130.2C357 125.2 354.1 121.1 351 117.5C347.4 113.9 344.3 112 341.2 112C337.1 112 333.3 114.1 329.7 118.2C325.9 123 324.2 128.3 324.2 134.3C324.2 142.2 330 146.3 341.5 146.3C346.8 146.3 351.1 145.6 354 144.6C354.5 146.3 355 148 355 149.4C355 151.6 351.4 155.9 344.4 162.7C336.7 169.9 328.8 175.9 320.6 180.9C310.2 187.2 301.6 190.3 294.4 190.3C286 190.3 280 187.6 276.2 182.6C274.73 180.394 273.71 177.889 273.14 175.128C285.387 167.651 294.337 160.604 300.1 154.1C302.1 151.9 303.5 148.8 304.7 144.7C305.6 141.1 306.1 138.2 306.1 135.8C306.1 130.7 304.6 125.2 302 118.5C300.3 114.7 298.4 110.6 296.7 106.5C299.6 107.2 301.5 107.7 302.2 107.7C302.7 107.7 302.9 107.4 302.9 107.2C302.9 106.7 302.2 105.8 300.5 104.1C296.5 100 292.9 96.1 289.5 92.3C289 91.8 288.7 91.6 288.5 91.6C288 91.6 287.7 92.1 287.5 93.3C287 94.5 286.8 96.7 286.3 99.8C285.8 103.1 285.8 104.8 285.8 105.3C286 105.7 286.5 106.5 287.2 107.9ZM119.8 105.5C123.6 107.2 125.8 108.6 125.8 109.8C123.8 110.5 119.5 112.2 112.8 114.4C110.4 109.3 108.8 105.7 107.8 103.8C107.6 103.1 108.3 102.6 110 102.6C112.4 102.6 115.7 103.6 119.8 105.5ZM387.1 114.7C386.4 114.7 385.4 115.1 384.2 116.1C380.4 119.4 376.6 122.3 372.6 124.3C371.4 125.1 367.3 127 361.1 130.1L361.1 143.3C369.5 139.4 376 135.4 379.8 130.8C379.8 141.8 384.6 147.6 394.7 147.6C403.1 147.6 410 142.8 415.3 133.2C418.5 139 422.1 142.1 425.9 142.1C431.7 142.1 436 139.5 438.9 134.2C441.6 129.8 443 124.8 443 118.8C443 114.9 441.8 111.6 439.9 108.7C439.2 107.7 438.7 107.5 438.2 107.5C437.7 107.5 437.2 108.3 437 109.7C435.6 114.2 434.6 117.6 434.4 119.5C436.5 123.1 437.5 125.1 437.5 125.3C436.5 126.9 434.4 127.9 431 127.9C428.4 127.9 426 126.9 424.3 125.5C422.4 124.1 421.4 122.4 421.4 120.7C421.4 121.2 422.1 119.3 423.1 115.2C423.6 113.1 423.4 112.1 422.4 112.1C421.7 112.1 421 112.5 420 113.5C417.6 117.4 415 121.2 412.6 125.3C408.7 130.4 403.7 133 397.7 133C390.2 133 386.4 130.1 386.4 124.8C386.4 123.6 386.6 122.1 387.1 120.2C387.6 118.3 387.8 116.8 387.8 116.1C387.8 115.2 387.6 114.7 387.1 114.7ZM260.4 138.6C257.8 133.3 253.2 127.8 247 122.5C244.8 124.7 242.2 128.7 238.8 134.5C235 141 233.3 145.1 233.3 147.2C233.3 150.1 235.2 151.5 239.5 151.5C241.4 151.5 243.8 150.8 246.9 149.6C251.2 147.7 255.3 145 258.7 141.7C260.2 140.3 260.6 139.3 260.4 138.6ZM347.5 131.9C343.9 127.3 340.8 125.2 337.9 125.2C333.6 125.2 331.7 126.2 331.7 128.6C331.7 131.5 334.6 132.9 340.3 132.9C342.33 132.9 344.53 132.474 346.9 132.016C347.099 131.977 347.299 131.939 347.5 131.9ZM112.8 160.4C114.7 157.3 115.9 154.4 115.9 151.8C115.9 148.7 114.5 147 111.8 147.2C108.5 147.2 106.6 149.1 105.6 153.2C105.4 154.1 105.4 154.6 105.4 154.6C105.4 154.8 105.6 154.8 105.6 154.8C105.8 154.8 106.1 154.5 106.8 154.3C107.5 153.8 108.4 153.6 109.4 153.6C111 153.6 112 154.5 112 156.2C112 158.4 109.1 162.2 103.6 168.2C102.7 169.4 102.2 169.9 102.2 170.1L102.2 170.2C102.4 170.2 103.2 169.8 104.6 168.8C108 166.4 110.6 163.5 112.8 160.4ZM194.2 153.3C194.2 153.8 194 154.7 193.5 155.7C193.3 157.1 192.8 157.9 192.1 157.9C191.9 157.9 191.4 157.2 190.4 156.2C189.7 155.2 188.7 154.8 188 154.8C186.1 154.8 184.2 159.4 182.5 168.5C181.8 172.6 181.1 175.5 180.1 177.1C179.841 177.471 179.609 177.8 179.394 178.068C179.645 177.323 179.751 176.854 179.7 176.7L179.7 176.5C179.559 176.5 179.018 177.098 178.044 178.225C177.96 177.934 177.9 177.547 177.9 177.1C177.9 175.4 176.9 172.3 175 167.7C173.1 162.9 171.9 160.7 171.2 160.7C170.5 160.7 170.2 160.7 170 161.2C170 161.4 169.5 161.7 168.8 161.7C167.8 161.7 166.9 161 165.4 159.8C164.2 158.6 163.5 157.6 163.5 156.9C163.5 156.7 164 155.5 165.2 153.5C166.4 151.6 167.1 150.9 167.4 150.9C170 150.9 172.4 152.3 174.6 155.7C177 159.1 178.4 163.1 179.4 168.4L179.4 169.4C179.509 169.509 179.559 169.559 179.581 169.549C179.6 169.54 179.6 169.491 179.6 169.4C179.6 169.2 179.8 168.9 180.1 168.4C180.3 165.3 181.5 160.5 183.2 154.2C185.1 149.9 187 147.7 189.2 147.7C190.4 147.7 191.6 148.4 192.8 149.9C193.7 151.3 194.2 152.3 194.2 153.3ZM178.044 178.225C177.639 178.694 177.158 179.254 176.6 179.9C174.9 181.8 172.8 183.9 169.9 186.1C157.9 194 148.8 199.6 142.3 203.4C141.1 204.1 140.4 204.9 140.4 205.1C140.4 205.1 140.4 205.3 140.6 205.3C141.1 205.3 141.8 205.1 143 204.6C151 201.8 155.3 200.1 156 199.6C159.6 198 163.6 195.6 168.2 192.2C173.3 188.6 176.6 184.7 178.3 180.9C178.787 179.731 179.156 178.775 179.394 178.068C179.029 178.523 178.715 178.8 178.4 178.8C178.289 178.8 178.148 178.586 178.044 178.225ZM373.4 195.5C370.8 196.2 369.3 196.7 368.8 196.7L368.8 196.5C368.8 196.5 369.8 195.8 371.7 194.6C373.6 193.4 376.5 191.5 380.6 188.4C382.5 186.5 385.4 183.4 389 179C391.4 176.1 394 173.5 396.9 171.6C400.5 169 403.9 167.8 407.5 167.8C408.2 167.8 409.4 168 410.9 168.5C412.1 169 413.3 169.2 414.3 169.2C416.2 169.2 417.7 168.5 418.9 167C419.6 165.6 420.6 164.4 421.5 162.9C422 161.9 422.7 161.5 423.2 161.5C423.4 161.5 423.4 161.7 423.4 162.2C423.4 162.7 423.2 163.9 422.7 165.3C422.2 166 424.1 166.3 427.7 166.3C428.2 166.3 428.4 166.3 428.4 166.1C428.4 166.1 428.2 165.1 427.7 163.5C427.5 163 427.7 162.3 428.4 161.3L428.48 161.164C429.422 159.563 429.808 158.905 430.1 159.1C431.1 159.8 431.5 161.3 431.5 162.9C431.5 164.6 431 166.3 430.3 168.2C429.6 170.4 428.9 171.6 428.4 172C426.7 173 424.1 172.7 420.5 171C417.6 173.9 414.7 175.6 411.9 175.6C411.2 175.6 410 175.4 408.8 174.9C407.6 174.4 406.6 174.2 405.9 174.2C401.1 174.2 396.1 176.4 391 181.2L380.2 192C378 193.6 375.8 194.8 373.4 195.5ZM35.3 197.4C44.9 194 55.2 190.2 66.3 186.4C66.6851 186.323 66.9516 186.231 67.1451 186.164C67.454 186.058 67.577 186.016 67.7 186.2C67.9 186.2 67.9 186.7 67.5 187.4C66.8 189.6 66.1 190.8 65.6 191.2C56 194.6 45.2 198.6 33 204.2C33.4 202 34.1 199.8 35.3 197.4Z" id="Group" fill="#595959" fill-rule="evenodd" stroke="none" clip-path="url(#clip_1)" />
  </g>
</svg>