<?xml version="1.0" encoding="utf-8"?>
<svg width="502.6001px" height="202.9px" viewBox="0 0 502.6001 202.9" version="1.1" xmlns:xlink="http://www.w3.org/1999/xlink" xmlns="http://www.w3.org/2000/svg">
  <defs>
    <path d="M502.6 0L502.6 0L502.6 202.9L0 202.9L0 0L502.6 0Z" id="path_1" />
    <clipPath id="clip_1">
      <use xlink:href="#path_1" clip-rule="evenodd" fill-rule="evenodd" />
    </clipPath>
  </defs>
  <g id="Surah_21_of_114_(modified)">
    <path d="M502.6 0L502.6 0L502.6 202.9L0 202.9L0 0L502.6 0Z" id="Surah_21_of_114_(modified)" fill="none" stroke="none" />
    <path d="M254.9 13.2C256.4 16.4 257.1 20.2 257.1 25C257.1 29 258.3 48 260.8 81.9C263.2 115.7 264.4 134.9 264.4 139.7C264.4 144.8 264.2 149.3 263.7 153.4C263.671 153.779 263.642 154.144 263.614 154.493C263.45 156.535 263.329 158.046 263.5 158.9C263.7 159.6 264 159.6 264.7 158.4C265.2 157.5 265.6 156.3 266.6 154.6C269.9 146 271.6 135.9 271.6 124.6C271.6 120.8 270.7 104.2 268.5 74.7C266.3 45 265.1 30.1 265.1 29.6C265.1 28.4 265.3 27.9 265.8 28.6C270.1 33.4 272 34.6 272 32.4C272 31.9 272 30.7 271.5 29.5C271 27.6 269.3 22.8 266.2 14.9C263.3 7.39999 261.6 2.89999 260.9 1.2C260.4 0.5 260.2 0 259.7 0C259.5 0 259.2 0.5 259 1.2C256.1 7.39999 254.9 11.5 254.9 13.2ZM199.2 0.199997C198.5 0.199997 197.5 0.699997 196.8 1.89999C193.5 8.39999 191.1 15.4 189.9 23.1C189.7 24 189.7 25 189.7 25.7C189.7 29.5 191.1 31.7 194.5 31.7C197.9 31.7 200.5 30 202.9 27.1C203.6 26.1 204.1 23.5 204.6 19.4C204.8 15.8 202.4 12 197.4 8.39999C198.1 6 199 3.59999 200 1.39999C200 1.09999 200.2 0.899994 200.2 0.899994C200.2 0.399994 199.7 0.199997 199.2 0.199997ZM149.5 9.79999C149 12 148.5 13.2 147.8 13.9C145.2 15.6 139.2 19.4 130 25.7C129.8 25.9 129.3 26.2 128.8 26.7C128.6 26.5 128.6 26.5 128.6 26L129.1 22.9C129.3 22.2 130.8 20.7 133.7 18.6C130.1 17.4 128.4 15.7 128.4 13.8C128.4 11.6 129.1 9.49998 131 7.29999C134.6 2.99998 137.7 0.799988 140.1 0.799988C142.3 0.799988 143.2 1.99998 143.2 4.39999C143.2 5.79999 142.7 7.29999 141.5 9.2C141.3 9.7 141 9.7 140.5 9C140 7.8 139.1 7.3 137.9 7.3C137.2 7.3 136.2 7.5 135 8.5C133.8 9.2 133.1 9.89999 133.1 10.4C133.1 11.1 133.8 11.8 135.3 12.6C136.7 13.6 137.9 13.8 138.9 13.8C139.6 13.8 141.1 13.3 143.2 12.1C144.6 11.1 145.8 10.2 147.3 9.2C147.634 9.06091 147.929 8.92182 148.188 8.79996C148.859 8.48372 149.283 8.28346 149.5 8.5C149.8 8.39999 149.8 8.89999 149.5 9.79999ZM307.7 14.4C307.7 17 309.8 19.4 314.4 21.8C311.1 25.4 306 29.3 299 33.5C293 36.8 287.3 40.2 281.5 43.8C280.1 44.5 279.6 45.3 279.6 45.5C279.6 45.5 279.6 45.7 279.8 45.7C280 45.7 281 45.5 282.2 45C289.9 42.2 294.2 40.5 295.2 40C298.8 38.6 302.8 35.9 307.4 32.8C311.2 29.9 314.4 26.8 317 23.2C319.2 24.4 320.6 25.6 321.1 26.6C323.2 23.8 324.2 21.6 324.2 20.4C323.7 19.4 322.3 18.2 319.9 17C321.1 13.6 321.6 10.7 321.6 8.10001C321.6 5.3 320.9 3.60001 319.2 3.10001C317.3 2.39999 314.9 3.39999 312 6C309.1 8.39999 307.7 11.3 307.7 14.4ZM317.5 11.3C317.8 12.7 317.8 14.2 317.3 15.6C313.7 13.9 311.8 12.5 311.7 11.2C311.7 10.8 312.1 10.3 313.1 9.79999C314.1 9.29999 314.8 9.09999 315.3 9.09999C316.5 9.09999 317.2 9.89998 317.5 11.3ZM359 28.5C359 28.5 358.8 28.8 358.8 29C357.1 31.9 355.7 33.6 354.1 33.6C352 33.6 351 31.4 351 27.6C351 24.5 352.2 19.4 354.6 12C355.1 10.3 355.3 9.3 355.3 9.10001C355 9.10001 354.6 10 353.6 11.7C349.8 18.7 348.1 25.6 348.1 32.1C348.1 37.4 349.6 40 352.7 40C355.8 40 358 36.4 359.2 29.2C359.4 29 359.4 28.7 359.2 28.5C359.2 28.4093 359.2 28.3598 359.181 28.3513C359.159 28.3411 359.109 28.3907 359 28.5ZM236 26.6C236.9 29.3 237.4 31.7 237.4 33.6C237.4 37.9 239.1 55.9 243 88.1999C246.9 120.1 248.8 141 248.8 150.8C248.8 155.3 245.4 161.1 239.2 167.8C234.4 173 229.8 177.1 225 180C210.3 189.2 199.8 195.4 193.3 199C191.9 199.9 191.4 200.7 191.4 200.9C191.4 201.4 192.1 201.4 193.3 201.4C196.6 200.9 201.9 199.9 209.1 198C216.1 196.1 221.1 194.6 224 193.2C231.5 189.9 238.2 184.1 244.2 175.7C251.7 165.4 255.5 152 255.5 135.9C255.5 128.4 253.8 111.1 250.7 84.5C247.5 57.8 246.1 42.2 246.1 37.9C246.1 36.7 246.3 36.2 246.8 36.7C250.8 41.5 253 42.7 253 40.8C253 40 252.8 39.1 252.3 37.4C251.6 35.2 249.5 30.4 246.1 23.2C243 16.7 240.9 12.7 239.9 10.5C239.4 9.69998 238.9 9.49998 238.7 9.49998C238.4 9.49998 238.2 9.69998 237.7 10.7C237.4 11.2 237 13.1 236 16.5C235.1 19.9 234.6 21.8 234.6 22.3C234.6 22.5 235 24 236 26.6ZM194.7 14.9C199.7 17.7 202.1 19.9 202.1 21.1C201.6 22.1 200.4 23 198.8 23.8C197.1 24.7 195.7 25.2 194.5 25.2C193 25.2 192.3 24.2 192.3 22.8C192.3 20.4 193 17.8 194.7 14.9ZM71.1 142C67.7 139.9 65.3 135.3 64.1 128.6C63.9 126 63.1 115.4 62.7 96.7C62.2 76.3 61.3 61.5 60.3 52.1C58.6 37.4 56.4 27.1 53.3 21.1C52.8 20.2 52.3 19.7 52.1 19.7C51.6 19.7 51.4 20.2 50.9 21.4C49 26.2 48 29.8 48 32.2C50.7 41.1 52.6 50.7 53.8 60.5C54.8 71.3 55.7 86.4 56.2 105.6C56.7 122.6 57.4 133.4 58.4 138C59.8 146.4 62.5 151.9 66.8 155C69.6 157.2 73.7 158.4 79 158.4C85.7 158.4 92.2 155.7 98.4 150.2C99.8 149 103 145.7 108 139.9C108.8 139 109.5 138.7 110.2 138.5C110.7 138.8 110.9 139 110.9 139.5C111.4 149.6 116 154.6 124.6 154.6C127.7 154.6 130.6 153 133.2 149.6C136.1 146.2 138 141.4 138.7 135.4C139.9 141.6 142.6 146.4 146.7 149.7C150.1 152.6 154.2 153.8 158.5 153.8L158.5 139.2C154.4 139.2 151.3 138.3 149.1 136.1C146 132.9 143.6 126.5 141.9 117.1C139.3 101.7 136.2 90.7 132.8 84.2C132.3 83.3 132 82.8 131.8 82.8C131.6 82.8 131.1 83.6 130.4 85C128.9 88.4 128.2 92.7 128.2 98.2C128.2 98.5 128.5 99.4 129.2 101.6C130.6 106.2 132.1 111.7 133.5 118.2C134.9 124.7 135.4 128.5 135.4 130.2C135.4 136.6 131.8 140 124.6 140L124.6 139.9C121.4 139.9 119 138.5 117.6 136.1C116.2 134.2 115.7 131.8 115.7 128.9C115.7 128.4 115.7 127.7 115.9 126.7C116.1 125.7 116.1 125 116.1 124.5C116.1 123.6 115.9 123.1 114.9 123.1C114 123.1 113 123.6 112.3 124.3C104.7 132 99.9 136.6 97.7 138C92.2 141.9 86 143.8 79 143.8L79 143.7C75.4 143.7 72.8 143 71.1 142ZM96.5 55C95.8 56.2 95.5 56.9 95.1 56.9C94.6 56.9 94.6 55.9 94.9 54.5C95.1 53.3 95.4 51.4 95.4 49.5C95.4 42.5 91.6 35.8 83.6 28.9C83.1 28.7 83.1 27.9 83.6 27.5L85.8 23.7C86 23.2 86.3 23.2 86.8 23.7C94.5 29.2 98.3 36.9 98.3 46.5C98.2 49.4 97.5 52.3 96.5 55ZM143.3 39.9C144.7 40.6 145.9 42 147.1 43.7C148.3 45.6 149.5 47.3 150.4 49.1C152.1 51.7 154 54.4 156.2 57C166.8 70.2 184.8 88.9 210.2 112.9C226 128.3 234.9 141.9 236.8 153.7C237.8 161.1 238.5 164.7 239 164.7C239.5 164.7 240.2 160.4 241.2 151.5C241.4 150.3 241.4 149.1 241.4 148.1C241.4 135.4 232.8 120.3 215.5 103C178.8 66.3 159.4 46.1 157.2 42.3C160.8 43.2 163.5 43.7 164.9 43.7C166.1 43.7 166.6 43.5 166.6 43C166.6 42.5 165.8 41.6 164.4 40.6L145.9 26.2C144.7 25.5 143.8 25 143.3 25C142.5 25 142.3 26 142.3 27.9L142.3 37.5C142.3 38.7 142.6 39.4 143.3 39.9ZM340.8 59.5C365 50.4 390.2 41.3 416.2 31.7C416.402 31.6422 416.588 31.5761 416.749 31.5186C417.147 31.3768 417.4 31.2866 417.4 31.5C417.6 31.5 417.6 32 417.4 32.7C416.4 34.9 415.7 36.1 415.2 36.5C415 36.7 402.7 41.3 379 50.2C354.8 59.1 341.1 64.6 338.4 66.3C338.9 64.1 339.6 61.9 340.8 59.5ZM471.4 60.5C469 66.3 467.8 70.8 467.8 74.2C467.8 78.3 468.8 80.4 470.9 80.4C472.1 80.4 473.5 78.7 475.2 75.8C475.4 75.6 475.4 75.3 475.7 75.1C475.7 75.1 475.9 75.1 475.9 75.3L475.9 76C474.5 83.2 472.3 86.8 469.4 86.8C466.3 86.8 464.8 84.2 464.8 78.9C464.8 76.3 465.3 72.9 466.7 68.6C468.1 64.3 468.9 62.1 468.9 61.9C468.9 61.4 467.9 60.5 465.8 59.3C462 64.3 456.7 69.1 450 73.2C445.4 75.8 440.9 78.2 436.1 80.2C427.2 83.8 421.9 85.7 420.7 86.4C419.5 86.9 418.8 87.1 418.3 87.1C418.1 87.1 418.1 86.9 418.1 86.9C418.1 86.4 418.6 85.9 420 85C427.7 80.7 435.1 76.4 442.8 72C452.9 66.2 459.8 61.4 463.2 57.8C458.6 55.4 456.5 53 456.5 50.4C456.5 47.3 457.9 44.4 460.8 41.8C463.7 39.4 466.1 38.4 468 39.2C469.4 39.7 470.4 41.4 470.4 44.2C470.4 46.8 469.9 49.7 468.7 52.8C471.1 54.2 472.1 55.7 472.1 57.1C472.1 57.8 471.9 59 471.4 60.5ZM466.1 51.6C466.6 50.2 466.6 48.7 466.3 47.3C466.1 45.9 465.3 45.1 464.1 45.1C463.6 45.1 462.9 45.3 461.9 45.8C460.9 46.3 460.5 46.8 460.5 47.2C460.6 48.5 462.5 49.9 466.1 51.6ZM205.7 53.3C203.6 49.9 201.2 48.5 198.3 48.5C198 48.5 197.3 49.2 196.3 51.1C195.1 53.1 194.6 54.3 194.6 54.5C194.6 55.2 195.1 56.2 196.5 57.4C198 58.6 198.9 59.3 199.9 59.3C200.6 59.3 200.9 59 201.1 58.8C201.4 58.3 201.6 58.3 202.1 58.3C203.1 58.3 204.3 60.5 206.2 65.3C208.1 69.9 209 73 208.8 74.7C209 75.7 209 76.4 209.5 76.4C210 76.4 210.5 75.7 211.2 74.7C211.9 73.1 212.9 70.2 213.6 66.1C215.3 57 217 52.4 218.9 52.4C219.8 52.4 220.8 52.8 221.5 53.8C222.5 54.8 223 55.5 223.2 55.5C223.6 55.5 224.1 54.7 224.6 53.3C225.1 52.3 225.1 51.4 225.1 50.9C225.1 49.9 224.7 48.9 223.7 47.5C222.7 46 221.5 45.3 220.3 45.3C218.1 45.3 216.2 47.5 214.3 51.8C212.6 58.1 211.4 62.9 210.9 66C210.9 66.5 210.7 66.8 210.7 67L210.5 67C210.5 66.7 210.5 66.5 210.3 66C209.5 60.7 207.9 56.4 205.7 53.3ZM310.3 50.4L306.5 58.3C305.5 57.4 303.4 55.7 300.3 53.8C297.2 51.6 295.5 50.4 295 50.4C294.7 50.4 294.2 50.9 294 51.4L289.4 61C289.2 61.5 289.2 61.8 289.4 62C293.3 64.4 297.1 67 300.7 69.9C301.2 70.2 301.7 69.9 301.9 69.2C303.4 67 304.6 64.4 306 61.5C310.1 64.1 313.7 66.5 316.8 68.9C317.2 69.1 317.7 69.1 318.2 68.4C321.3 63.1 323 59.5 323 57.8C323 57.3 321.1 55.9 317.5 53.5C313.7 50.9 311.8 49.7 311.3 49.7C310.8 49.7 310.5 49.9 310.3 50.4ZM132.9 51.1C112.8 58.6 93.6 65.8 75.1 72.5C73.9 74.9 73.2 77 72.6 79.2C95.2 69.8 115.1 62.1 131.9 55.9C132.4 55.5 133.1 54.3 134.1 52.1C134.3 51.4 134.3 50.9 134.3 50.9C134.151 50.6764 133.835 50.7861 133.394 50.9393C133.244 50.9916 133.078 51.0491 132.9 51.1ZM31.5 72.2C31.5 72 31.7 71.7 31.7 71.7C31.8093 71.5907 31.8589 71.5411 31.8813 71.5513C31.9 71.5597 31.9 71.6093 31.9 71.7C32.1 71.9 32.1 72.2 31.9 72.4C30.7 79.6 28.5 83.2 25.4 83.2C22.3 83.2 20.8 80.6 20.8 75.3C20.8 68.8 22.5 61.9 26.3 54.9C27.3 53.2 27.7 52.3 28 52.3C28 52.5 27.8 53.5 27.3 55.2C24.9 62.6 23.7 67.7 23.7 70.8C23.7 74.6 24.7 76.8 26.8 76.8C28.3 76.8 29.8 75.1 31.5 72.2ZM388.8 67.2C386.7 63.8 384.3 62.4 381.4 62.4C381.1 62.4 380.4 63.1 379.4 65C378.2 67 377.7 68.2 377.7 68.4C377.7 69.1 378.2 70.1 379.6 71.3C381.1 72.5 382 73.2 383 73.2C383.7 73.2 384 72.9 384.2 72.7C384.5 72.2 384.7 72.2 385.2 72.2C386.2 72.2 387.4 74.4 389.3 79.2C391.2 83.8 392.1 86.9 391.9 88.6C392.1 89.6 392.1 90.3 392.6 90.3C393.1 90.3 393.6 89.6 394.3 88.6C395 87 396 84.1 396.7 80C398.4 70.9 400.1 66.3 402 66.3C402.9 66.3 403.9 66.7 404.6 67.7C405.6 68.7 406.1 69.4 406.3 69.4C406.7 69.4 407.2 68.6 407.7 67.2C408.2 66.2 408.2 65.3 408.2 64.8C408.2 63.8 407.8 62.8 406.8 61.4C405.8 59.9 404.6 59.2 403.4 59.2C401.2 59.2 399.3 61.4 397.4 65.7C395.7 72 394.5 76.8 394 79.9C394 80.4 393.8 80.7 393.8 80.9L393.6 80.9C393.6 80.6 393.6 80.4 393.4 79.9C392.6 74.6 391 70.3 388.8 67.2ZM329.3 76.3C329.3 80.1 327.4 85.4 323.5 91.9C321.1 96 317.5 101.5 312.7 108.7C317.5 114.2 320.9 119.3 322.5 123.6C323.5 126.7 324.2 130.8 324.2 135.4C324.2 137.3 323.7 139.7 322.8 142.8C322.1 145.7 321.1 147.8 320.2 149.3C318.3 152.2 315.2 155.1 310.4 157.9C305.4 161.3 301 162.9 297.4 162.9C291.6 162.9 288.8 158.6 288.8 149.9C288.8 144.1 289.8 138.4 291.7 133.1C293.6 128.5 296.7 122.5 301.8 114.6C297.5 110.5 292.9 104.8 287.9 97.6C287.4 96.9 286.2 95.7 284.3 93.8C283.3 92.8 282.9 91.6 282.9 90.2C282.9 88 283.1 85.6 283.6 82.8C284.3 79.9 284.8 78.7 285 78.7C285.7 78.7 287.9 79.9 292 82.5C295.8 85.1 299 87.1 300.9 88.7C302.1 89.4 302.6 90.1 302.6 90.1L302.6 90.3C302.6 90.5 301.9 90.8 300.2 90.8C297.1 90.8 295.4 91 295.4 91.3C295.4 91.5 295.9 92 296.8 93.2C300.6 98 304.5 101.6 308.6 104.5C309.6 103.1 312.9 98.3 318.2 90.1C322.8 83.1 325.4 78.3 326.6 75.5C327.8 72.6 328.5 71.4 329 71.4C329.1 71.5 329.3 73 329.3 76.3ZM153.9 90C153.7 90.5 153.7 90.8 153.9 91C157.7 93.4 161.5 96 165.3 98.9C165.79 99.1942 165.992 98.9114 166.471 98.2403L166.5 98.2C169.8 92.9 171.5 89.6 171.5 87.9C171.5 87.4 169.5 85.9 165.7 83.3C162.1 80.9 160 79.7 159.5 79.7C159.2 79.7 158.7 79.9 158.5 80.4L153.9 90ZM99.1 104.9C99.1 104.9 98.9 105.2 98.9 105.4C97.2 108.2 95.8 109.9 94.2 110C92.1 110 91.1 107.8 91.1 104C91.1 100.9 92.3 95.8 94.7 88.4C95.2 86.7 95.4 85.7 95.4 85.5C95.1 85.5 94.7 86.4 93.7 88.1C89.9 95.1 88.2 102 88.2 108.5C88.2 113.8 89.7 116.4 92.8 116.4C95.9 116.4 98.1 112.8 99.3 105.6C99.5 105.4 99.5 105.1 99.3 104.9C99.3 104.809 99.3 104.76 99.2813 104.751C99.2589 104.741 99.2093 104.791 99.1 104.9ZM346.8 104.7C347.8 105.9 348.5 107.5 349 109.7C350.2 113.8 352.6 119.5 355.9 126.6C358.8 132.9 360.2 136.2 360.2 136.7C360.2 138.7 357.3 141.8 351.8 146.1C346.937 149.714 340.607 153.846 332.809 158.44C333.535 153.937 334.825 148.512 336.7 142.1C337 140.6 337.2 139.4 337.2 138.7C337.2 138.2 337.2 138 337 138C336.5 138 336 139 334.8 141.4C332.411 147.851 330.664 154.124 329.644 160.282C326.453 162.12 323.038 164.027 319.4 166C310 171.1 298.3 176.6 284.1 182.6C263.7 191.2 252.6 196 250.7 197C245.4 199.4 242.8 200.9 242.8 201.1C242.8 201.3 242.8 201.3 243.3 201.3C244.3 201.3 246.7 201 250.5 200.3C254.1 199.8 263.2 197.7 277.6 194.3C291.3 191 298.5 189.3 299 189.3C301.6 189.3 310 185.2 324.4 176.8C325.849 175.988 327.26 175.181 328.634 174.379C328.914 181.521 330.888 187.679 334.4 192.3C338.7 198.3 344.9 201.4 353.1 201.4C362.7 201.4 373.7 196.4 386.7 186.8C395.4 180.3 403.3 172.8 410.5 164.2C413.6 160.6 416.2 156 417.9 150.5C419.4 146.1 420.1 142.8 420.1 139.9L420.6 139.4L420.6 126.2C419.6 126.7 419.1 126.7 418.9 126.7C416.5 121.7 413.6 117.6 410.5 114C406.9 110.4 403.8 108.5 400.7 108.5C396.6 108.5 392.8 110.6 389.2 114.7C385.4 119.5 383.7 124.8 383.7 130.8C383.7 138.7 389.5 142.8 401 142.8C406.3 142.8 410.6 142.1 413.5 141.1C414 142.8 414.5 144.5 414.5 145.9C414.5 148.1 410.9 152.4 403.9 159.2C396.2 166.4 388.3 172.4 380.1 177.4C369.7 183.7 361.1 186.8 353.9 186.8C345.5 186.8 339.5 184.1 335.7 179.1C334.287 176.98 333.289 174.582 332.708 171.948C344.972 164.463 353.932 157.41 359.7 150.9C361.7 148.7 363.1 145.6 364.3 141.5C365.2 137.9 365.7 135 365.7 132.6C365.7 127.5 364.2 122 361.6 115.3C359.9 111.5 358 107.4 356.3 103.3C359.2 104 361.1 104.5 361.8 104.5C362.3 104.5 362.5 104.2 362.5 104C362.5 103.5 361.8 102.6 360.1 100.9C356.1 96.8 352.5 92.9 349.1 89.1C348.6 88.6 348.3 88.4 348.1 88.4C347.6 88.4 347.3 88.9 347.1 90.1C346.6 91.3 346.4 93.5 345.9 96.6C345.4 99.9 345.4 101.6 345.4 102.1C345.6 102.5 346.1 103.3 346.8 104.7ZM45.9 117.1C45.9 117.8 44.7 120.2 42.5 124.3C40.8 125.5 36.7 127.9 30.3 131.5C21.9 136.1 14.5 140.4 8.2 144.2C6 145.4 4.8 146.1 4.39999 146.1C3.89999 146.1 3.89999 145.9 3.89999 145.4C3.89999 144.2 4.89999 141.3 7.29999 136.8C8.29999 135.8 10.9 133.9 14.7 131.3C12.1 129.6 10.4 128.7 9.69998 127.9C7.79999 126.2 6.79999 124.1 6.79999 121.7C6.79999 117.6 9.69998 112.8 15.4 107.5C20.7 102.5 25 99.8 28.1 99.8C29.8 99.8 31.2 100.5 32.4 102C33.4 103.2 34.1 105.1 34.1 107.3C34.1 109.2 33.4 111.1 31.9 113.3C30.7 115 29.5 115.9 28.5 115.9C28.3 115.9 27.5 115.2 26.8 113.3C26.1 111.4 25.1 110.7 23.9 110.7C22.2 110.7 20.1 111.2 17.4 112.6C14.5 114 13.1 115 13.1 115.5C13.1 116.7 14.5 118.1 17.7 119.8C21.3 121.7 24.9 122.7 28.3 122.7C30.5 122.5 33.6 121 37.9 119.1C41.5 117.2 43.9 116.2 44.6 116.2C45.4 116.2 45.9 116.4 45.9 117.1ZM446.7 111.2C446 111.2 445 111.6 443.8 112.6C439.9 115.9 436.1 118.8 432.2 120.8C431 121.6 426.9 123.5 420.7 126.6L420.7 139.8C429.1 135.9 435.6 131.9 439.4 127.3C439.4 138.3 444.2 144.1 454.3 144.1C462.7 144.1 469.6 139.3 474.9 129.7C478.1 135.5 481.7 138.6 485.5 138.6C491.3 138.6 495.6 136 498.5 130.7C501.2 126.3 502.6 121.3 502.6 115.3C502.6 111.4 501.4 108.1 499.5 105.2C498.8 104.2 498.3 104 497.8 104C497.3 104 496.8 104.8 496.6 106.2C495.2 110.7 494.2 114.1 494 116C496.1 119.6 497.1 121.6 497.1 121.8C496.1 123.4 494 124.4 490.6 124.4C488 124.4 485.6 123.4 483.9 122C482 120.6 481 118.9 481 117.2C481 117.7 481.7 115.8 482.7 111.7C483.2 109.6 483 108.6 482 108.6C481.3 108.6 480.6 109 479.6 110C477.2 113.9 474.6 117.7 472.2 121.8C468.3 126.9 463.3 129.5 457.3 129.5C449.8 129.5 446 126.6 446 121.3C446 120.1 446.2 118.6 446.7 116.7C447.2 114.8 447.4 113.3 447.4 112.6C447.4 111.7 447.2 111.2 446.7 111.2ZM174 129.1C174 136.3 172.8 141.8 170.6 145.7C167.5 151.2 163.4 154.1 158.6 154.1L158.6 139.4C164.1 139.4 167.7 137.5 169.4 133.4C169.4 131.5 167.2 127.4 163.2 120.9C163 120.2 162.7 119.7 162.7 119C162.7 115.4 163.7 111.8 165.3 108.2C165.8 107 166.5 107 167.2 108.2C169.6 111.6 171.3 114.7 172 116.8C173.3 120.2 174 124.3 174 129.1ZM319.9 135.4C317.3 130.1 312.7 124.6 306.5 119.3C304.3 121.5 301.7 125.5 298.3 131.3C294.5 137.8 292.8 141.9 292.8 144C292.8 146.9 294.7 148.3 299 148.3C300.9 148.3 303.3 147.6 306.4 146.4C310.7 144.5 314.8 141.8 318.2 138.5C319.7 137 320.2 136.1 319.9 135.4ZM407.1 128.4C403.5 123.8 400.4 121.7 397.5 121.7C393.2 121.7 391.3 122.7 391.3 125.1C391.3 128 394.2 129.4 399.9 129.4C401.764 129.4 403.863 129.006 406.2 128.568C406.496 128.513 406.796 128.456 407.1 128.4ZM1.89999 151.2C16.5 145.7 32.1 139.9 48.2 134.2C48.3043 134.158 48.4087 134.112 48.5085 134.068C48.8869 133.901 49.2 133.763 49.2 134C49.4 134 49.4 134.2 49.2 135C48.5 136.7 47.8 137.6 47.5 138.1C33.8 142.9 18 149.1 0 156.6C0.299988 154.8 0.999985 153.1 1.89999 151.2ZM190.1 141.1C193 141.1 195.4 142.5 197.5 145.9C199.7 149 201.3 153.3 202.1 158.6C202.3 159.1 202.3 159.3 202.3 159.6L202.5 159.6C202.5 159.4 202.7 159.1 202.7 158.6C203.2 155.5 204.4 150.7 206.1 144.4C208 140.1 209.9 137.9 212.1 137.9C213.3 137.9 214.5 138.6 215.5 140.1C216.5 141.5 216.9 142.5 216.9 143.5C216.9 144 216.9 144.9 216.4 145.9C215.9 147.3 215.4 148.1 215 148.1C214.8 148.1 214.3 147.4 213.3 146.4C212.6 145.4 211.6 145 210.7 145C208.8 145 207.1 149.6 205.4 158.7C204.7 162.8 203.7 165.7 203 167.3C202.3 168.3 201.8 169 201.3 169C200.8 169 200.8 168.3 200.6 167.3C200.8 165.6 199.9 162.5 198 157.9C196.1 153.1 194.9 150.9 193.9 150.9C193.4 150.9 193.2 150.9 192.9 151.4C192.7 151.6 192.4 151.9 191.7 151.9C190.7 151.9 189.8 151.2 188.3 150C186.9 148.8 186.4 147.8 186.4 147.1C186.4 146.9 186.9 145.7 188.1 143.7C189.1 141.8 189.9 141.1 190.1 141.1ZM433 192C430.4 192.7 428.9 193.2 428.4 193.2L428.4 193C428.4 193 429.4 192.3 431.3 191.1C433.2 189.9 436.1 188 440.2 184.9C442.1 183 445 179.9 448.6 175.5C451 172.6 453.6 170 456.5 168.1C460.1 165.5 463.5 164.3 467.1 164.3C467.8 164.3 469 164.5 470.5 165C471.7 165.5 472.9 165.7 473.9 165.7C475.8 165.7 477.3 165 478.5 163.5C479.2 162.1 480.2 160.9 481.1 159.4C481.6 158.4 482.3 158 482.8 158C483 158 483 158.2 483 158.7C483 159.2 482.8 160.4 482.3 161.8C481.8 162.5 483.7 162.8 487.3 162.8C487.8 162.8 488 162.8 488 162.6C488 162.6 487.8 161.6 487.3 160C487.1 159.5 487.3 158.8 488 157.8L488.08 157.664C489.022 156.063 489.408 155.405 489.7 155.6C490.7 156.3 491.1 157.8 491.1 159.4C491.1 161.1 490.6 162.8 489.9 164.7C489.2 166.9 488.5 168.1 488 168.5C486.3 169.5 483.7 169.2 480.1 167.5C477.2 170.4 474.3 172.1 471.5 172.1C470.8 172.1 469.6 171.9 468.4 171.4C467.2 170.9 466.2 170.7 465.5 170.7C460.7 170.7 455.7 172.9 450.6 177.7L439.8 188.5C437.5 190.1 435.4 191.3 433 192ZM140.4 175.2C140.2 175 140.2 174.7 140.4 174.2L145 164.6C145.2 164.1 145.7 163.9 146 163.9C146.5 163.9 148.6 165.1 152.2 167.5C156 170.1 158 171.6 158 172.1C158 173.8 156.3 177.1 153 182.4L152.971 182.44C152.492 183.111 152.29 183.394 151.8 183.1C148.1 180.2 144.3 177.6 140.4 175.2ZM59.5 174.5C57.4 171.1 55 169.7 52.1 169.7C51.9 169.7 51.1 170.4 50.1 172.3C48.9 174.3 48.4 175.5 48.4 175.7C48.4 176.4 48.9 177.4 50.3 178.6C51.8 179.8 52.7 180.5 53.7 180.5C54.4 180.5 54.7 180.2 54.9 180C55.2 179.5 55.4 179.5 55.9 179.5C56.9 179.5 58.1 181.7 60 186.5C61.9 191.1 62.8 194.2 62.6 195.9C62.8 196.9 62.8 197.6 63.3 197.6C63.8 197.6 64.3 196.9 65 195.9C65.7 194.3 66.7 191.4 67.4 187.3C69.1 178.2 70.8 173.6 72.7 173.6C73.6 173.6 74.6 174 75.3 175C76.3 176 76.8 176.7 77 176.7C77.4 176.7 77.9 175.9 78.4 174.5C78.9 173.5 78.9 172.6 78.9 172.1C78.9 171.1 78.5 170.1 77.5 168.7C76.5 167.2 75.3 166.5 74.1 166.5C71.9 166.5 70 168.7 68.1 173C66.4 179.3 65.2 184.1 64.7 187.2C64.7 187.7 64.5 188 64.5 188.2L64.3 188.2C64.3 187.9 64.3 187.7 64.1 187.2C63.3 181.9 61.7 177.6 59.5 174.5ZM114.9 168.3L111.1 176.2C110.2 175.2 108 173.5 104.9 171.7C101.8 169.5 100.1 168.3 99.6 168.3C99.3 168.3 98.8 168.8 98.6 169.3L94 178.9C93.8 179.4 93.8 179.7 94 179.9C97.9 182.3 101.7 184.9 105.3 187.8C105.8 188.1 106.3 187.8 106.5 187.1C108 184.9 109.2 182.3 110.6 179.4C114.7 182 118.3 184.4 121.4 186.8C121.8 187 122.3 187 122.8 186.3C125.9 181 127.6 177.4 127.6 175.7C127.6 175.2 125.7 173.8 122.1 171.4C118.3 168.8 116.4 167.6 115.9 167.6C115.4 167.6 115.1 167.8 114.9 168.3ZM148.6 196.1C158.2 192.7 168.5 188.9 179.6 185.1C179.985 185.023 180.252 184.931 180.445 184.864C180.754 184.758 180.877 184.716 181 184.9C181.2 184.9 181.2 185.4 180.8 186.1C180.1 188.3 179.4 189.5 178.9 189.9C169.3 193.3 158.5 197.3 146.3 202.9C146.7 200.6 147.4 198.5 148.6 196.1Z" id="Group" fill="#595959" fill-rule="evenodd" stroke="none" clip-path="url(#clip_1)" />
  </g>
</svg>