<?xml version="1.0" encoding="utf-8"?>
<svg width="487.1001px" height="208.49998px" viewBox="0 0 487.1001 208.49998" version="1.1" xmlns:xlink="http://www.w3.org/1999/xlink" xmlns="http://www.w3.org/2000/svg">
  <defs>
    <path d="M487.1 0L487.1 0L487.1 208.5L0 208.5L0 0L487.1 0Z" id="path_1" />
    <clipPath id="clip_1">
      <use xlink:href="#path_1" clip-rule="evenodd" fill-rule="evenodd" />
    </clipPath>
  </defs>
  <g id="Surah_98_of_114_(modified)">
    <path d="M487.1 0L487.1 0L487.1 208.5L0 208.5L0 0L487.1 0Z" id="Surah_98_of_114_(modified)" fill="none" stroke="none" />
    <path d="M243.1 29.9C243.1 25.1 242.4 21.3 240.9 18.1C240.9 16.4 242.1 12.3 245 6.10001C245.2 5.40001 245.5 4.90001 245.7 4.90001C246.2 4.90001 246.4 5.40001 246.9 6.10001C247.6 7.8 249.3 12.3 252.2 19.8C255.3 27.7 257 32.5 257.5 34.4C258 35.6 258 36.8 258 37.3C258 39.5 256.1 38.3 251.8 33.5C251.3 32.8 251.1 33.3 251.1 34.5C251.1 35 252.3 49.9 254.5 79.6C256.7 109.1 257.6 125.7 257.6 129.5C257.6 140.8 255.9 150.9 252.6 159.5C251.6 161.2 251.2 162.4 250.7 163.3L250.7 163.3C250 164.5 249.7 164.5 249.5 163.8C249.3 162.8 249.5 160.9 249.7 158.3C250.2 154.2 250.4 149.7 250.4 144.6C250.4 139.8 249.2 120.6 246.8 86.8C244.3 52.9 243.1 34 243.1 29.9L243.1 29.9L243.1 29.9L243.1 29.9L243.1 29.9ZM230.6 101.6C230.6 115.8 228 126.8 222.9 135C218.6 141.7 213.5 145.3 207.8 145.3L207.8 130.7C212.4 130.7 216.9 128.8 221.2 125.2C222.4 124.2 223.1 120.2 223.1 113.4C223.1 109.1 222.1 95.4 220.5 72.6C218.8 49.6 218.1 35.9 218.1 31.8C218.1 27.2 217.1 23.4 215.7 20.3C215.7 18.6 217.1 14.5 220 8.09999C220.2 7.39999 220.5 7.09999 220.7 7.09999C221.2 7.09999 221.4 7.29999 221.9 8.09999C222.6 9.99998 224.5 14.6 227.2 22C230.3 29.7 232 34.5 232.7 36.4C232.9 37.8 233.2 38.8 233.2 39.5C233.2 41.7 231 40.2 227 35.4C226.5 34.9 226.3 35.2 226.3 36.4C226.3 36.6 227 46.5 228.5 65.7C229.9 84.6 230.6 96.6 230.6 101.6L230.6 101.6L230.6 101.6L230.6 101.6L230.6 101.6ZM187.6 126.6C186.9 132.6 185 137.4 182.1 140.8C179.5 144.2 176.6 145.8 173.5 145.8L173.5 131.2C180.7 131.2 184.3 127.8 184.3 121.4C184.3 119.7 183.8 115.9 182.4 109.4C181 102.9 179.5 97.4 178.1 92.8C177.4 90.6 177.1 89.7 177.1 89.4C177.1 83.9 177.8 79.6 179.3 76.2C180 74.8 180.5 74 180.7 74C180.9 74 181.2 74.5 181.7 75.4C185.1 81.9 188.2 92.9 190.8 108.3C192.5 117.7 194.9 124.1 198 127.3C200.2 129.5 203.3 130.4 207.4 130.4L207.4 145C203.1 145 199 143.8 195.6 140.9C191.5 137.6 188.8 132.8 187.6 126.6L187.6 126.6L187.6 126.6L187.6 126.6L187.6 126.6ZM137.9 134C143.4 134 148.2 131.4 152.1 126.3C154.3 122.7 156.7 119.1 159.1 115.5C159.8 114.5 160.5 114.3 161.3 114.3C162 114.3 162.3 114.5 162.3 115.3C162.3 115.8 162.1 116 161.8 116.5C161.3 117.9 161.1 119.4 161.1 120.6C161.1 123.7 162.5 126.4 165.4 128.3C167.8 130.2 170.4 131.2 173.3 131.2L173.3 145.8C169.9 145.8 166.8 144.6 163.9 142.4C160.5 140 158.4 136.6 156.7 132.1C150.9 143.1 144.7 148.7 138 148.7L138 134L137.9 134L137.9 134L137.9 134ZM137.7 148.4C133.9 148.4 130.3 147.4 127.4 145.5C123.6 142.9 121.4 138.5 120.7 133C119 136.1 116.4 139.5 112.3 143.1C106.3 148.1 100.1 150.8 93.6 150.8L93.6 136.2C101.8 136.2 108.7 133.8 114.2 129.5C114.7 129 116.8 126.9 120.7 122.5C124.3 118.4 126.2 116.5 126.7 116.5C127.2 116.5 127.7 117 127.7 117.9C127.7 118.4 127.5 119.1 127.2 119.6C126.7 121.5 126.5 123.2 126.5 124.9C126.5 130.9 130.3 133.8 137.8 133.8L137.8 148.4L137.7 148.4L137.7 148.4L137.7 148.4ZM93.8 150.8C88.8 150.8 85.2 150.3 83 149.8C78.2 148.4 74.4 145.2 71.2 140.4C69.3 137.3 67.4 133.9 65.4 130.6C63.5 127.7 61.8 126.5 60.1 126.5C54.6 126.5 48.8 131.1 42.6 140.4C41.6 142.1 39.7 146.4 36.8 153.4C34.2 160.4 31.8 165.4 29.6 168.8C26.5 173.6 22.9 176 19.3 176C14 176 9.5 171.7 5.60001 163.3C2.20001 155.9 0.800003 148.2 0.800003 140.3C0.800003 130.7 1.8 122.8 3.7 117C4.2 115.1 4.7 114.1 5.09999 114.1C5.79999 114.1 6.09999 115.3 5.59999 117.7C4.89999 123.9 4.59999 129.2 4.59999 133.5C4.59999 153.9 9.2 164.2 18.8 164.2C22.6 164.2 26 161.1 29.4 155.1C32.5 147.9 35.9 140.7 39.2 133.5C42.1 127.7 45.7 122.7 50 118.4C54.1 114.1 58.2 112.2 61.5 112.2C64.1 112.2 66.8 113.9 68.9 117C70.8 120.1 72.5 123.2 74.4 126.4C77 130 79.7 132.6 82.6 134.1C85.5 135.3 89.1 136 93.6 136L93.6 150.8L93.8 150.8L93.8 150.8L93.8 150.8ZM191.2 175.1C191 174.9 191 174.6 191.2 174.1L195.8 164.5C196 164 196.5 163.8 196.8 163.8C197.3 163.8 199.4 165 203 167.4C206.8 170 208.8 171.5 208.8 172C208.8 173.7 207.1 177 203.8 182.3C203.3 183 203.1 183.3 202.6 183C198.9 180.1 195.1 177.5 191.2 175.1L191.2 175.1L191.2 175.1L191.2 175.1L191.2 175.1ZM154.5 173.9L158.3 166C158.5 165.5 158.8 165.3 159.3 165.3C159.8 165.3 161.7 166.5 165.5 169.1C169.1 171.5 171 172.9 171 173.4C171 175.1 169.3 178.7 166.2 184C165.7 184.7 165.2 184.7 164.8 184.5C161.7 182.1 158.1 179.7 154 177.1C152.6 180 151.4 182.6 149.9 184.8C149.7 185.5 149.2 185.8 148.7 185.5C145.1 182.6 141.3 180 137.4 177.6C137.2 177.4 137.2 177.1 137.4 176.6L142 167C142.2 166.5 142.7 166 143 166C143.5 166 145.2 167.2 148.3 169.4C151.4 171.2 153.5 172.9 154.5 173.9L154.5 173.9L154.5 173.9L154.5 173.9L154.5 173.9ZM108.2 86C108 85.8 108 85.5 108.2 85L112.8 75.4C113 74.9 113.5 74.7 113.8 74.7C114.3 74.7 116.4 75.9 120 78.3C123.8 80.9 125.8 82.4 125.8 82.9C125.8 84.6 124.1 87.9 120.8 93.2C120.3 93.9 120.1 94.2 119.6 93.9C115.9 91.1 112 88.4 108.2 86L108.2 86L108.2 86L108.2 86L108.2 86ZM59 80.3L62.8 72.4C63 71.9 63.3 71.7 63.8 71.7C64.3 71.7 66.2 72.9 70 75.5C73.6 77.9 75.5 79.3 75.5 79.8C75.5 81.5 73.8 85.1 70.7 90.4C70.2 91.1 69.7 91.1 69.3 90.9C66.2 88.5 62.6 86.1 58.5 83.5C57.1 86.4 55.9 89 54.4 91.2C54.2 91.9 53.7 92.2 53.2 91.9C49.6 89 45.8 86.4 41.9 84C41.7 83.8 41.7 83.5 41.9 83L46.5 73.4C46.7 72.9 47.2 72.4 47.5 72.4C48 72.4 49.7 73.6 52.8 75.8C55.9 77.6 58 79.3 59 80.3L59 80.3L59 80.3L59 80.3L59 80.3ZM162.4 55.1C176.1 50.3 190.5 45 205.6 39.5C206.6 39.3 206.8 39 207 39.3C207.2 39.3 207.2 39.8 206.8 40.5C206.1 42.7 205.4 43.9 204.9 44.3C191.9 48.9 177.1 54.6 160 61.8C160.5 59.6 161.2 57.5 162.4 55.1L162.4 55.1L162.4 55.1L162.4 55.1L162.4 55.1ZM164.8 89.6C164.8 91.5 164.3 93.7 163.4 95.6C162.2 98.2 160.8 99.7 159.1 99.7C156.2 99.7 154.3 97.8 153.1 93.9C151.7 98.7 149.3 101.3 145.7 101.3C144.5 101.3 143.3 100.6 142.3 99.1C141.1 97.7 140.6 95.5 140.6 93.1L140.6 86.9C140.6 86.4 140.1 86.2 139.6 85.9C138.9 85.7 138.6 85.2 138.6 84.5C138.6 83.1 139.1 81.9 140 80.7C141 79.5 141.7 79 142.2 79C142.9 79 143.4 80.2 143.4 82.8C143.4 84.2 143.2 85.4 143.2 86.4C143 87.4 143 88.1 143 88.8C143 90.2 143.2 91.7 143.7 92.9C144.4 94.3 145.4 95.3 146.3 95.3C147.7 95.3 148.9 94.6 150.1 93.4C151.3 92.2 152 90.8 152 89.1C152 88.1 151.5 86.7 151 84.3C150.3 82.1 150 80.7 150 80.2C150 79.7 150.2 79 150.7 77.8C151.2 76.8 151.7 76.4 151.9 76.4C152.4 76.4 152.9 77.8 153.6 80.7C154.3 83.8 154.8 86 154.8 87.4C154.8 91.5 156.2 93.6 159.4 93.6C160.8 93.6 161.8 92.9 162 91.4C159.4 86.6 157.9 83 157.9 80.4C157.9 79 158.1 77.8 159.1 76.6C159.6 75.9 159.8 75.4 160.1 75.4C160.3 75.4 160.6 75.9 160.6 76.8C160.8 78 161.1 79.2 161.3 80.2C161.3 80.2 162 81.9 163.2 85.2C164.3 87.2 164.8 88.7 164.8 89.6L164.8 89.6L164.8 89.6L164.8 89.6L164.8 89.6ZM145.1 201.7C154.7 198.3 165 194.5 176.1 190.7C177.1 190.5 177.3 190.2 177.5 190.5C177.7 190.5 177.7 191 177.3 191.7C176.6 193.9 175.9 195.1 175.4 195.5C165.8 198.9 155 202.9 142.8 208.5C143.2 206.3 143.9 204.1 145.1 201.7L145.1 201.7L145.1 201.7L145.1 201.7L145.1 201.7ZM231.3 178C231.3 177.8 231.5 177.5 231.5 177.5C231.7 177.3 231.7 177.3 231.7 177.5C231.9 177.7 231.9 178 231.7 178.2C230.5 185.4 228.3 189 225.2 189C222.1 189 220.6 186.4 220.6 181.1C220.6 174.6 222.3 167.7 226.1 160.7C227.1 159 227.5 158.1 227.8 158.1L227.8 158.1C227.8 158.3 227.6 159.3 227.1 161C224.7 168.4 223.5 173.5 223.5 176.6C223.5 180.4 224.5 182.6 226.6 182.6C228.2 182.5 229.6 180.8 231.3 178L231.3 178L231.3 178L231.3 178L231.3 178ZM116.1 175.6C116.1 176.1 115.9 177 115.6 178C115.1 179.4 114.6 180.2 113.9 180.2C113.7 180.2 113.2 179.5 112.2 178.5C111.5 177.5 110.5 177.1 109.8 177.1C107.9 177.1 106 181.7 104.3 190.8C103.6 194.9 102.9 197.5 101.9 199.2C101.2 200.4 100.7 200.9 100.2 200.9C100 200.9 99.7 200.4 99.7 199.5C99.7 197.8 98.7 194.7 96.8 190.1C95.1 185.3 93.7 183.1 93 183.1C92.5 183.1 92 183.1 92 183.6C91.8 183.8 91.3 184.1 90.6 184.1C89.6 184.1 88.4 183.4 87 182.2C85.6 180.8 85.1 179.8 85.3 179.3C87.5 175.2 88.7 173.3 89.1 173.3C91.7 173.3 94.4 174.7 96.5 178.1C98.7 181.2 100.1 185.5 101.1 190.6C101.1 191.3 101.1 191.6 101.1 191.6C101.3 191.8 101.3 191.8 101.3 191.6C101.3 191.6 101.5 191.4 101.8 190.6C102.3 187.7 103.2 182.9 104.9 176.7C106.8 172.4 108.7 170.2 111.1 170.2C112.1 170.2 113.3 170.9 114.5 172.4C115.6 173.6 116.1 174.6 116.1 175.6L116.1 175.6L116.1 175.6L116.1 175.6L116.1 175.6ZM85.4 179.2C85.9 178.2 86.4 177.8 86.6 177.8C86.6 177.8 86.8 178 86.6 178C86.8 178.7 86.1 180.4 84.7 183C82.3 187.6 78.9 191.2 74.6 194.3C70 197.7 66 200.1 62.4 201.7C61.7 202.2 57.4 203.9 49.4 206.7C48.2 207.2 47.5 207.4 47 207.4C46.8 207.4 46.8 207.2 46.8 207.2C46.8 207 47.5 206.2 48.7 205.5C55.4 201.9 64.5 196.1 76.3 188.2C81.1 184.7 83.9 181.6 85.4 179.2L85.4 179.2L85.4 179.2L85.4 179.2L85.4 179.2ZM10.7 104.3C10.7 104.1 10.9 103.8 10.9 103.8C11.1 103.6 11.1 103.6 11.1 103.8C11.3 104 11.3 104.3 11.1 104.5C9.90001 111.7 7.70001 115.3 4.60001 115.3C1.5 115.3 0 112.7 0 107.4C0 100.9 1.7 94 5.5 87C6.5 85.3 6.89999 84.4 7.2 84.4L7.2 84.4C7.2 84.6 7 85.6 6.5 87.3C4.10001 94.7 2.89999 99.8 2.89999 102.9C2.89999 106.7 3.89999 108.9 6 108.9C7.60002 108.8 9.10002 107.2 10.7 104.3L10.7 104.3L10.7 104.3L10.7 104.3L10.7 104.3ZM193.9 21.7C193.9 20.5 191.5 18.3 186.5 15.5C184.8 18.4 184.1 21 184.1 23.4C184.1 24.8 184.8 25.8 186.3 25.8C187.5 25.8 188.9 25.3 190.6 24.4C192.2 23.6 193.4 22.7 193.9 21.7L193.9 21.7L193.9 21.7L193.9 21.7L193.9 21.7ZM188.6 2.5C189.3 1.3 190.3 0.800003 191 0.800003C191.5 0.800003 192 1 192 1.5C192 1.5 191.8 1.7 191.8 2C190.8 4.2 189.9 6.60001 189.2 9C194.2 12.6 196.6 16.4 196.4 20C195.9 24.1 195.4 26.7 194.7 27.7C192.3 30.6 189.7 32.3 186.3 32.3C182.9 32.3 181.5 30.1 181.5 26.3C181.5 25.6 181.5 24.6 181.7 23.7C182.8 16 185.2 9 188.6 2.5L188.6 2.5L188.6 2.5L188.6 2.5L188.6 2.5ZM27.5 37.8C30.4 37.8 32.8 39.2 34.9 42.6C37.1 45.7 38.7 50 39.5 55.3C39.7 55.8 39.7 56 39.7 56.3L39.9 56.3C39.9 56.1 40.1 55.8 40.1 55.3C40.6 52.2 41.8 47.4 43.5 41.1C45.4 36.8 47.3 34.6 49.5 34.6C50.7 34.6 51.9 35.3 52.9 36.8C53.9 38.2 54.3 39.2 54.3 40.2C54.3 40.7 54.3 41.6 53.8 42.6C53.3 44 52.8 44.8 52.4 44.8C52.2 44.8 51.7 44.1 50.7 43.1C50 42.1 49 41.7 48.1 41.7C46.2 41.7 44.5 46.3 42.8 55.4C42.1 59.5 41.1 62.4 40.4 64C39.7 65 39.2 65.7 38.7 65.7C38.2 65.7 38.2 65 38 64C38.2 62.3 37.3 59.2 35.4 54.6C33.5 49.8 32.3 47.6 31.3 47.6C30.8 47.6 30.6 47.6 30.3 48.1C30.1 48.3 29.8 48.6 29.1 48.6C28.1 48.6 27.2 47.9 25.7 46.7C24.3 45.5 23.8 44.5 23.8 43.8C23.8 43.6 24.3 42.4 25.5 40.4C26.6 38.5 27.3 37.8 27.5 37.8L27.5 37.8L27.5 37.8L27.5 37.8L27.5 37.8ZM90.7 27.2C90.7 27 90.9 26.7 90.9 26.7C91.1 26.5 91.1 26.5 91.1 26.7C91.3 26.9 91.3 27.2 91.1 27.4C89.9 34.6 87.7 38.2 84.6 38.2C81.5 38.2 80 35.6 80 30.3C80 23.8 81.7 16.9 85.5 9.90001C86.5 8.20001 86.9 7.3 87.2 7.3L87.2 7.3C87.2 7.5 87 8.5 86.5 10.2C84.1 17.6 82.9 22.7 82.9 25.8C82.9 29.6 83.9 31.8 86 31.8C87.5 31.8 89 30.1 90.7 27.2L90.7 27.2L90.7 27.2L90.7 27.2L90.7 27.2ZM98.6 96.4C98.6 99 97.4 101.9 95.5 105C93.3 108.1 90.7 111 87.3 113.4C85.9 114.4 85.1 114.8 84.9 114.8L84.9 114.6C84.9 114.4 85.4 113.9 86.3 112.7C91.8 106.7 94.7 102.9 94.7 100.7C94.7 99 93.7 98.1 92.1 98.1C91.1 98.1 90.2 98.3 89.5 98.8C88.8 99 88.5 99.3 88.3 99.3C88.3 99.3 88.1 99.3 88.1 99.1C88.1 99.1 88.1 98.6 88.3 97.7C89.3 93.6 91.2 91.7 94.5 91.7C97.1 91.6 98.6 93.2 98.6 96.4L98.6 96.4L98.6 96.4L98.6 96.4L98.6 96.4ZM32.1 184.2C41.7 180.8 52 177 63.1 173.2C64.1 173 64.3 172.7 64.5 173C64.7 173 64.7 173.5 64.3 174.2C63.6 176.4 62.9 177.6 62.4 178C52.8 181.4 42 185.4 29.8 191C30.2 188.8 30.9 186.6 32.1 184.2L32.1 184.2L32.1 184.2L32.1 184.2L32.1 184.2ZM85.9 60.6C110.1 51.5 135.3 42.4 161.3 32.8C162 32.6 162.5 32.3 162.5 32.6C162.7 32.6 162.7 33.1 162.5 33.8C161.5 36 160.8 37.2 160.3 37.6C160.1 37.8 147.8 42.4 124.1 51.3C99.9 60.2 86.2 65.7 83.5 67.4C83.9 65.2 84.7 63 85.9 60.6L85.9 60.6L85.9 60.6L85.9 60.6L85.9 60.6ZM126.2 3.2C129.1 3.2 131.5 4.59999 133.6 8C135.8 11.1 137.4 15.4 138.2 20.7C138.4 21.2 138.4 21.4 138.4 21.7L138.6 21.7C138.6 21.5 138.8 21.2 138.8 20.7C139.3 17.6 140.5 12.8 142.2 6.5C144.1 2.2 146 0 148.2 0C149.4 0 150.6 0.699997 151.6 2.2C152.6 3.59999 153 4.59999 153 5.59999C153 6.09999 153 6.99998 152.5 7.99999C152 9.39998 151.5 10.2 151.1 10.2C150.9 10.2 150.4 9.49998 149.4 8.49998C148.7 7.49999 147.7 7.09999 146.8 7.09999C144.9 7.09999 143.2 11.7 141.5 20.8C140.8 24.9 139.8 27.8 139.1 29.4C138.4 30.4 137.9 31.1 137.4 31.1C136.9 31.1 136.9 30.4 136.7 29.4C136.9 27.7 136 24.6 134.1 20C132.2 15.2 131 13 130 13C129.5 13 129.3 13 129 13.5C128.8 13.7 128.5 14 127.8 14C126.8 14 125.9 13.3 124.4 12.1C123 10.9 122.5 9.90001 122.5 9.20001C122.5 9.00002 123 7.80002 124.2 5.80002C125.2 4 125.9 3.2 126.2 3.2L126.2 3.2L126.2 3.2L126.2 3.2L126.2 3.2ZM428.3 115.3C429.5 114.3 430.5 113.9 431.2 113.9C431.7 113.9 431.9 114.4 431.9 115.3C431.9 116 431.7 117.5 431.2 119.4C430.7 121.3 430.5 122.8 430.5 124C430.5 129.3 434.3 132.2 441.8 132.2C447.8 132.2 452.8 129.6 456.7 124.5C459.1 120.4 461.7 116.6 464.1 112.7C465.1 111.7 465.8 111.3 466.5 111.3C467.5 111.3 467.7 112.3 467.2 114.4C466.2 118.5 465.5 120.4 465.5 119.9C465.5 121.6 466.5 123.3 468.4 124.7C470.1 126.1 472.5 127.1 475.1 127.1C478.5 127.1 480.6 126.1 481.6 124.5C481.6 124.3 480.6 122.3 478.5 118.7C478.7 116.8 479.7 113.4 481.1 108.9C481.3 107.5 481.8 106.7 482.3 106.7C482.8 106.7 483.3 106.9 484 107.9C485.9 110.8 487.1 114.1 487.1 118C487.1 124 485.7 129 483 133.4C480.1 138.7 475.8 141.3 470 141.3C466.2 141.3 462.6 138.2 459.4 132.4C454.1 142 447.2 146.8 438.8 146.8C428.7 146.8 423.9 141 423.9 130C420.1 134.6 413.6 138.6 405.2 142.5L405.2 129.3C411.4 126.2 415.5 124.3 416.7 123.5C420.7 121.6 424.5 118.7 428.3 115.3L428.3 115.3L428.3 115.3L428.3 115.3L428.3 115.3ZM391.6 131.2C388 126.6 384.9 124.5 382 124.5C377.7 124.5 375.8 125.5 375.8 127.9C375.8 130.8 378.7 132.2 384.4 132.2C386.6 132.1 389 131.6 391.6 131.2L391.6 131.2L391.6 131.2L391.6 131.2L391.6 131.2ZM399.1 148.7C399.1 147.3 398.6 145.6 398.1 143.9C395.2 144.9 390.9 145.6 385.6 145.6C374.1 145.6 368.3 141.5 368.3 133.6C368.3 127.6 370 122.3 373.8 117.5C377.4 113.4 381.2 111.3 385.3 111.3C388.4 111.3 391.5 113.2 395.1 116.8C398.2 120.4 401.1 124.5 403.5 129.5C403.7 129.5 404.2 129.5 405.2 129L405.2 142.2L404.7 142.7C404.7 145.6 404 148.9 402.5 153.3C400.8 158.8 398.2 163.4 395.1 167C387.9 175.6 380 183.1 371.3 189.6C358.3 199.2 347.3 204.2 337.7 204.2C329.5 204.2 323.3 201.1 319 195.1C315.2 190.1 313.2 183.3 313.2 175.4C313.2 165.3 315.4 155 319.4 144.2C320.6 141.8 321.1 140.8 321.6 140.8C321.8 140.8 321.8 141 321.8 141.5C321.8 142.2 321.6 143.4 321.3 144.9C318.2 155.5 316.7 163.4 316.7 168.9C316.7 173.9 317.9 178.3 320.3 181.9C324.1 186.9 330.1 189.6 338.5 189.6C345.7 189.6 354.3 186.5 364.7 180.2C372.9 175.2 380.8 169.2 388.5 162C395.5 155.2 399.1 150.8 399.1 148.7L399.1 148.7L399.1 148.7L399.1 148.7L399.1 148.7ZM333.5 112.4C333 110.2 332.3 108.6 331.3 107.4C330.6 106 330.1 105.2 329.9 104.8C329.9 104.3 329.9 102.6 330.4 99.3C330.9 96.2 331.1 94 331.6 92.8C331.8 91.6 332.1 91.1 332.6 91.1C332.8 91.1 333.1 91.3 333.6 91.8C337 95.6 340.6 99.5 344.6 103.6C346.3 105.3 347 106.2 347 106.7C347 106.9 346.8 107.2 346.3 107.2C345.6 107.2 343.7 106.7 340.8 106C342.5 110.1 344.4 114.2 346.1 118C348.7 124.7 350.2 130.2 350.2 135.3C350.2 137.7 349.7 140.6 348.8 144.2C347.6 148.3 346.2 151.4 344.2 153.6C337.2 161.5 325.5 170.2 308.9 179.5C294.5 187.9 286.1 192 283.5 192C283 192 275.8 193.7 262.1 197C247.7 200.4 238.6 202.5 235 203C231.2 203.7 228.8 204 227.8 204C227.3 204 227.3 204 227.3 203.8C227.3 203.6 229.9 202.1 235.2 199.7C237.1 198.7 248.2 193.9 268.6 185.3C282.8 179.3 294.5 173.8 303.9 168.7C318.1 161 328.9 154.3 336.3 148.8C341.8 144.5 344.7 141.4 344.7 139.4C344.7 138.9 343.3 135.6 340.4 129.3C337.1 122.3 334.7 116.5 333.5 112.4L333.5 112.4L333.5 112.4L333.5 112.4L333.5 112.4ZM313.9 79.1C313.9 82.9 312 88.2 308.1 94.7C305.7 98.8 302.1 104.3 297.3 111.5C302.1 117 305.5 122.1 307.1 126.4C308.1 129.5 308.8 133.6 308.8 138.2C308.8 140.1 308.3 142.5 307.4 145.6C306.7 148.5 305.7 150.6 304.8 152.1C302.9 155 299.8 157.9 295 160.7C290 164.1 285.6 165.7 282 165.7C276.2 165.7 273.4 161.4 273.4 152.7C273.4 146.9 274.4 141.2 276.3 135.9C278.2 131.3 281.3 125.3 286.4 117.4C282.1 113.3 277.5 107.6 272.5 100.4C272 99.7 270.8 98.5 268.9 96.6C267.9 95.6 267.5 94.4 267.5 93C267.5 90.8 267.7 88.4 268.2 85.6C268.9 82.7 269.4 81.5 269.6 81.5C270.3 81.5 272.5 82.7 276.6 85.3C280.4 87.9 283.6 89.9 285.5 91.5C286.7 92.2 287.2 92.9 287.2 92.9L287.2 93.1C287.2 93.3 286.5 93.6 284.8 93.6C281.7 93.6 280 93.8 280 94.1C280 94.3 280.5 94.8 281.4 96C285.2 100.8 289.1 104.4 293.2 107.3C294.2 105.9 297.5 101.1 302.8 92.9C307.4 85.9 310 81.1 311.2 78.3C312.4 75.4 313.1 74.2 313.6 74.2C313.6 74.3 313.9 75.7 313.9 79.1L313.9 79.1L313.9 79.1L313.9 79.1L313.9 79.1ZM304.5 138.1C301.9 132.8 297.3 127.3 291.1 122C288.9 124.2 286.3 128.2 282.9 134C279.1 140.5 277.4 144.6 277.4 146.7C277.4 149.6 279.3 151 283.6 151C285.5 151 287.9 150.3 291 149.1C295.3 147.2 299.4 144.5 302.8 141.2C304.3 139.8 304.7 138.8 304.5 138.1L304.5 138.1L304.5 138.1L304.5 138.1L304.5 138.1ZM291.1 61.1L294.9 53.2C295.1 52.7 295.4 52.5 295.9 52.5C296.4 52.5 298.3 53.7 302.1 56.3C305.7 58.7 307.6 60.1 307.6 60.6C307.6 62.3 305.9 65.9 302.8 71.2C302.3 71.9 301.8 71.9 301.4 71.7C298.3 69.3 294.7 66.9 290.6 64.3C289.2 67.2 288 69.8 286.5 72C286.3 72.7 285.8 73 285.3 72.7C281.7 69.8 277.9 67.2 274 64.8C273.8 64.6 273.8 64.3 274 63.8L278.6 54.2C278.8 53.7 279.3 53.2 279.6 53.2C280.1 53.2 281.8 54.4 284.9 56.6C287.9 58.4 290.1 60.1 291.1 61.1L291.1 61.1L291.1 61.1L291.1 61.1L291.1 61.1ZM417.5 195C414.9 195.7 413.4 196.2 412.9 196.2L412.9 196C412.9 196 413.9 195.3 415.8 194.1C417.7 192.9 420.6 191 424.7 187.9C426.6 186 429.5 182.9 433.1 178.5C435.5 175.6 438.1 173 441 171.1C444.6 168.5 448 167.3 451.6 167.3C452.3 167.3 453.5 167.5 455 168C456.2 168.5 457.4 168.7 458.4 168.7C460.3 168.7 461.8 168 463 166.5C463.7 165.1 464.7 163.9 465.6 162.4C466.1 161.4 466.8 161 467.3 161C467.5 161 467.5 161.2 467.5 161.7C467.5 162.2 467.3 163.4 466.8 164.8C466.3 165.5 468.2 165.8 471.8 165.8C472.3 165.8 472.5 165.8 472.5 165.6C472.5 165.6 472.3 164.6 471.8 163C471.6 162.5 471.8 161.8 472.5 160.8C473.5 159.1 473.9 158.4 474.2 158.6C475.2 159.3 475.6 160.8 475.6 162.4C475.6 164.1 475.1 165.8 474.4 167.7C473.7 169.9 473 171.1 472.5 171.5C470.8 172.5 468.2 172.2 464.6 170.5C461.7 173.4 458.8 175.1 456 175.1C455.3 175.1 454.1 174.9 452.9 174.4C451.7 173.9 450.7 173.7 450 173.7C445.2 173.7 440.2 175.9 435.1 180.7C431.5 184.3 427.9 187.9 424.3 191.5C422.1 193.1 419.9 194.3 417.5 195L417.5 195L417.5 195L417.5 195L417.5 195ZM366.2 65.4C369.1 65.4 371.5 66.8 373.6 70.2C375.8 73.3 377.4 77.6 378.2 82.9C378.4 83.4 378.4 83.6 378.4 83.9L378.6 83.9C378.6 83.7 378.8 83.4 378.8 82.9C379.3 79.8 380.5 75 382.2 68.7C384.1 64.4 386 62.2 388.2 62.2C389.4 62.2 390.6 62.9 391.6 64.4C392.6 65.8 393 66.8 393 67.8C393 68.3 393 69.2 392.5 70.2C392 71.6 391.5 72.4 391.1 72.4C390.9 72.4 390.4 71.7 389.4 70.7C388.7 69.7 387.7 69.3 386.8 69.3C384.9 69.3 383.2 73.9 381.5 83C380.8 87.1 379.8 90 379.1 91.6C378.4 92.6 377.9 93.3 377.4 93.3C376.9 93.3 376.9 92.6 376.7 91.6C376.9 89.9 376 86.8 374.1 82.2C372.2 77.4 371 75.2 370 75.2C369.5 75.2 369.3 75.2 369 75.7C368.8 75.9 368.5 76.2 367.8 76.2C366.8 76.2 365.9 75.5 364.4 74.3C363 73.1 362.5 72.1 362.5 71.4C362.5 71.2 363 70 364.2 68C365.2 66.1 365.9 65.4 366.2 65.4L366.2 65.4L366.2 65.4L366.2 65.4L366.2 65.4ZM325.4 62.3C349.6 53.2 374.8 44.1 400.8 34.5C401.5 34.3 402 34 402 34.3C402.2 34.3 402.2 34.8 402 35.5C401 37.7 400.3 38.9 399.8 39.3C399.6 39.5 387.3 44.1 363.6 53C339.4 61.9 325.7 67.4 323 69.1C323.5 66.8 324.2 64.7 325.4 62.3L325.4 62.3L325.4 62.3L325.4 62.3L325.4 62.3ZM301.9 18.4C302.4 17 302.4 15.5 302.1 14.1C301.9 12.7 301.1 11.9 299.9 11.9C299.4 11.9 298.7 12.1 297.7 12.6C296.7 13.1 296.3 13.6 296.3 14C296.3 15.2 298.3 16.7 301.9 18.4L301.9 18.4L301.9 18.4L301.9 18.4L301.9 18.4ZM299 24.6C294.4 22.2 292.3 19.8 292.3 17.2C292.3 14.1 293.7 11.2 296.6 8.80002C299.5 6.20001 301.9 5.20001 303.8 5.90002C305.5 6.40002 306.2 8.10002 306.2 10.9C306.2 13.5 305.7 16.4 304.5 19.8C306.9 21 308.3 22.2 308.8 23.2C308.8 24.4 307.8 26.6 305.7 29.4C305.2 28.4 303.8 27.2 301.6 26C299 29.6 295.8 32.7 292 35.6C287.4 38.7 283.4 41.4 279.8 42.8C278.8 43.3 274.5 45 266.8 47.8C265.6 48.3 264.6 48.5 264.4 48.5C264.2 48.5 264.2 48.3 264.2 48.3C264.2 48.1 264.7 47.3 266.1 46.6C271.9 43 277.6 39.6 283.6 36.3C290.6 32 295.6 28.2 299 24.6L299 24.6L299 24.6L299 24.6L299 24.6ZM450.7 54.6C451.2 53.2 451.2 51.7 450.9 50.3C450.7 48.9 449.9 48.1 448.7 48.1C448.2 48.1 447.5 48.3 446.5 48.8C445.5 49.3 445.1 49.8 445.1 50.2C445.1 51.5 447.1 52.9 450.7 54.6L450.7 54.6L450.7 54.6L450.7 54.6L450.7 54.6ZM455.9 63.5C453.5 69.3 452.3 73.8 452.3 77.2C452.3 81.3 453.3 83.4 455.4 83.4C456.6 83.4 458 81.7 459.7 78.8C459.9 78.6 459.9 78.3 460.2 78.1C460.2 78.1 460.4 78.1 460.4 78.3C460.4 78.3 460.4 78.5 460.4 79C459 86.2001 456.8 89.8 453.9 89.8C450.8 89.8 449.3 87.2 449.3 81.9C449.3 79.3 449.8 75.9 451.2 71.6001C452.6 67.3001 453.4 65.1001 453.4 64.9C453.4 64.4 452.4 63.5 450.3 62.3C446.5 67.3 441.2 72.1 434.5 76.2C429.9 78.8 425.4 81.2 420.6 83.2C411.7 86.8 406.4 88.7 405.2 89.4C404 89.9 403.3 90.1001 402.8 90.1001C402.6 90.1001 402.6 89.9 402.6 89.9C402.6 89.4 403.1 88.9 404.5 88C412.2 83.7001 419.6 79.4 427.3 75C437.4 69.2001 444.3 64.4 447.7 60.8C443.1 58.4 441 56 441 53.4C441 50.3 442.4 47.4 445.3 44.8C448.2 42.4 450.6 41.4 452.5 42.2C453.9 42.7 454.9 44.4 454.9 47.2C454.9 49.8 454.4 52.7 453.2 55.8C455.6 57.2 456.6 58.7 456.6 60.1C456.7 60.8 456.4 62 455.9 63.5L455.9 63.5L455.9 63.5L455.9 63.5L455.9 63.5ZM346.7 28.4C346.7 28.2 346.9 27.9 346.9 27.9C347.1 27.7 347.1 27.7 347.1 27.9C347.3 28.1 347.3 28.4 347.1 28.6C345.9 35.8 343.7 39.4 340.6 39.4C337.5 39.4 336 36.8 336 31.5C336 25 337.7 18.1 341.5 11.1C342.5 9.40002 342.9 8.50002 343.2 8.50002L343.2 8.50002C343.2 8.70001 343 9.70001 342.5 11.4C340.1 18.8 338.9 23.9 338.9 27C338.9 30.8 339.9 33 342 33C343.6 33 345.1 31.3 346.7 28.4L346.7 28.4L346.7 28.4L346.7 28.4L346.7 28.4Z" id="Group" fill="#595959" stroke="none" clip-path="url(#clip_1)" />
  </g>
</svg>