<?xml version="1.0" encoding="utf-8"?>
<svg width="491.6001px" height="209.89992px" viewBox="0 0 491.6001 209.89992" version="1.1" xmlns:xlink="http://www.w3.org/1999/xlink" xmlns="http://www.w3.org/2000/svg">
  <defs>
    <path d="M491.6 0L491.6 0L491.6 209.9L0 209.9L0 0L491.6 0Z" id="path_1" />
    <clipPath id="clip_1">
      <use xlink:href="#path_1" clip-rule="evenodd" fill-rule="evenodd" />
    </clipPath>
  </defs>
  <g id="Surah_92_of_114_(modified)">
    <path d="M491.6 0L491.6 0L491.6 209.9L0 209.9L0 0L491.6 0Z" id="Surah_92_of_114_(modified)" fill="none" stroke="none" />
    <path d="M207.9 0C207.2 0 206.2 0.5 205.5 1.7C202.1 8.2 199.7 15.2 198.6 22.9C198.4 23.8 198.4 24.8 198.4 25.5C198.4 29.3 199.8 31.5 203.2 31.5C206.6 31.5 209.2 29.8 211.6 26.9C212.3 25.9 212.8 23.3 213.3 19.2C213.5 15.6 211.1 11.8 206.1 8.2C206.8 5.8 207.7 3.39999 208.7 1.2C208.7 0.899994 208.9 0.699997 208.9 0.699997C208.9 0.199997 208.4 0 207.9 0ZM124.1 26.9C142.6 20.2 161.8 13 181.9 5.50002C182.078 5.44906 182.244 5.39162 182.394 5.33926C182.835 5.1861 183.151 5.07645 183.3 5.30002C183.3 5.30002 183.3 5.80002 183.1 6.50002C182.1 8.70001 181.4 9.90001 180.9 10.3C164.1 16.5 144.2 24.2 121.6 33.6C122.2 31.5 122.9 29.3 124.1 26.9ZM245 21.6C246.5 24.8 247.2 28.6 247.2 33.4C247.2 37.5 248.4 56.5 250.9 90.3C253.3 124.1 254.5 143.3 254.5 148.1C254.5 153.2 254.3 157.7 253.8 161.8C253.771 162.179 253.742 162.544 253.714 162.893C253.55 164.936 253.429 166.446 253.6 167.3C253.8 168 254.1 168 254.8 166.8C255.3 165.9 255.7 164.7 256.7 163C260 154.4 261.7 144.3 261.7 133C261.7 129.2 260.8 112.6 258.6 83.1C256.4 53.4 255.2 38.5 255.2 38C255.2 36.8 255.4 36.3 255.9 37C260.2 41.8 262.1 43 262.1 40.8C262.1 40.3 262.1 39.1 261.6 37.9C261.1 36 259.4 31.2 256.3 23.3C253.4 15.8 251.7 11.3 251 9.60001C250.5 8.90001 250.3 8.40001 249.8 8.40001C249.6 8.40001 249.3 8.90001 249.1 9.60001C246.2 15.8 245 19.9 245 21.6ZM296.7 20.7C296.7 23.3 298.8 25.7 303.4 28.1C300 31.7 295 35.6 288 39.8C282 43.1 276.3 46.5 270.5 50.1C269.1 50.8 268.6 51.6 268.6 51.8C268.6 51.8 268.6 52 268.8 52C269 52 270 51.8 271.2 51.3C278.9 48.5 283.2 46.8 284.2 46.3C287.8 44.9 291.8 42.2 296.4 39.1C300.2 36.2 303.4 33.1 306 29.5C308.2 30.7 309.6 31.9 310.1 32.9C312.2 30.1 313.2 27.9 313.2 26.7C312.7 25.7 311.3 24.5 308.9 23.3C310.1 19.9 310.6 17 310.6 14.4C310.6 11.6 309.9 9.90002 308.2 9.40002C306.3 8.70001 303.9 9.70001 301 12.3C298.1 14.7 296.7 17.6 296.7 20.7ZM351.4 31.7C351.4 31.7 351.2 32 351.2 32.2C349.5 35.1 348 36.8 346.5 36.8C344.4 36.8 343.4 34.6 343.4 30.8C343.4 27.7 344.6 22.6 347 15.2C347.5 13.5 347.7 12.5 347.7 12.3C347.4 12.3 347 13.2 346 14.9C342.2 21.9 340.5 28.8 340.5 35.3C340.5 40.6 342 43.2 345.1 43.2C348.2 43.2 350.4 39.6 351.6 32.4C351.8 32.2 351.8 31.9 351.6 31.7C351.6 31.6093 351.6 31.5598 351.581 31.5513C351.559 31.5411 351.509 31.5907 351.4 31.7ZM203.4 14.7C208.4 17.5 210.8 19.7 210.8 20.9C210.3 21.9 209.1 22.9 207.5 23.6C205.8 24.5 204.4 25 203.2 25C201.7 25 201 24 201 22.6C201 20.2 201.7 17.6 203.4 14.7ZM306.5 17.6C306.8 19 306.8 20.5 306.3 21.9C302.7 20.2 300.8 18.8 300.7 17.5C300.7 17.1 301.1 16.6 302.1 16.1C303.1 15.6 303.8 15.4 304.3 15.4C305.5 15.4 306.3 16.2 306.5 17.6ZM188.9 134C188.9 106.4 187.5 81.9 184.8 60.6C184.1 54.1 182.6 44.5 180.7 32.3C181.7 25.3 182.6 21 183.1 19.6C183.6 18.6 183.8 18.2 184.1 18.2C184.6 18.2 184.8 18.7 185.3 19.9C188.4 30.2 191.1 43.4 193 59.5C194.4 70.3 195.4 88.1 196.1 113.3C196.6 136.3 197.3 150.3 198.3 155.3C199.5 160.8 201.4 164.7 203.8 166.6C205.5 168 208.1 168.8 211.2 168.8L211.2 183.4C203.8 183.4 198.5 180.5 195.4 174.8C193.2 171.4 192 165 191.3 156.1C190.3 162.8 187.5 168.1 182.9 171.5C179.3 174.1 175.2 175.6 170.7 175.6L170.7 161C174.5 161 178.1 160 181.3 158.4C184.4 156.5 186.3 154.1 187.5 151.2C188.4 148.1 188.9 142.6 188.9 134ZM0 171.2C0 160.2 1.7 151 5.5 143.8C5.92045 142.784 6.34089 141.977 6.73123 141.356C4.084 140.996 2.79999 138.404 2.79999 133.5C2.79999 127 4.49998 120.1 8.29999 113.1C9.29999 111.4 9.69998 110.5 9.99998 110.5C9.99998 110.7 9.79999 111.7 9.29999 113.4C6.89999 120.8 5.69998 125.9 5.69998 129C5.69998 132.8 6.69998 135 8.79999 135C10.4 134.9 11.8 133.3 13.5 130.4C13.5 130.2 13.7 129.9 13.7 129.9C13.8093 129.791 13.8589 129.741 13.8814 129.751C13.9 129.76 13.9 129.809 13.9 129.9C14.1 130.1 14.1 130.4 13.9 130.6C12.851 136.894 11.0378 140.437 8.52721 141.229C8.40367 142.1 8.09511 143.179 7.39999 144.5C4.5 152.4 3.29999 159.4 3.29999 165.9C3.29999 172.9 4.69998 178.9 7.59999 183.9C12.2 191.6 19.8 195.7 30.9 195.7C42.4 195.7 55.9 190.4 71.7 179.9C83.9 172 93.1 164.3 99.1 157.3C100.5 155.6 101.3 153.2 101.7 150.1C102.2 147 102.2 140.3 102.2 129.9C102.2 105.4 101 83.6 98.6 64.0999C97.9 57.5999 96.7 47.9999 94.5 35.7999C95.5 28.7999 96.4 24.4999 96.9 23.0999C97.4 22.0999 97.6 21.6999 98.1 21.6999C98.3 21.6999 98.6 22.1999 99.1 23.0999C102.2 33.6999 104.9 46.8999 106.8 62.8999C108.2 73.4999 109.2 90.2999 109.9 112.8C110.4 133.2 111.1 145.9 112.1 150.7C113.3 156.5 115.2 160.1 117.6 162.2C119.3 163.6 121.9 164.4 125 164.4L125 179C117.8 179 112.5 176.1 109.2 170.4C107 166.8 105.6 160.6 104.9 151.9C103.5 160.5 102 166.1 100.3 168.2C98.6 170.8 94.1 175.4 86.9 181.4C78 189.1 69.1 195.3 60.3 200.1C48.8 206.6 38.9 209.9 30.3 209.9C18.5 209.9 10.1 204.9 4.89999 195.3C1.5 188.9 0 181 0 171.2ZM226.6 172.9C231.7 164.7 234.3 153.7 234.3 139.5C234.3 134.5 233.3 119.3 231.5 94.3C229.6 68.9 228.6 55.9 228.6 55.7C228.6 54.5 228.8 54.2 229.3 54.7C233.3 59.5 235.5 60.7 235.5 58.5C235.5 58 235.2 56.8 235 55.4C234.3 53.7 232.6 48.9 229.7 41C226.8 33.5 224.9 29 224.2 27.3C223.7 26.3 223.4 26.1 223.2 26.1C222.7 26.1 222.4 26.4 222.2 27.1C219.5 33.5 218.1 37.6 218.1 39.3C219.6 42.4 220.3 46.2 220.3 50.8C220.3 56.1 221.2 73.1 223.4 101.9C225.6 130.7 226.8 147.2 226.8 151.3C226.8 158.1 226.1 162.1 224.9 163.1C220.6 166.7 216.1 168.6 211.5 168.6L211.5 183.2C217.2 183.2 222.3 179.6 226.6 172.9ZM64.1 55.5C64.1 55.3 64.3 55 64.3 55C64.4095 54.8905 64.4589 54.8411 64.4814 54.8513C64.5 54.8598 64.5 54.9093 64.5 55C64.7 55.2 64.7 55.5 64.5 55.7C63.3 62.9 61.1 66.5 58 66.5C54.9 66.5 53.4 63.9 53.4 58.6C53.4 52.1 55.1 45.2 58.9 38.2C59.9 36.5 60.3 35.6 60.6 35.6C60.6 35.8 60.4 36.8 59.9 38.5C57.5 45.9 56.3 51 56.3 54.1C56.3 57.9 57.3 60.1 59.4 60.1C61 60.1 62.4 58.4 64.1 55.5ZM329.8 65.8C354 56.7 379.2 47.6 405.2 38C405.402 37.9422 405.588 37.8761 405.749 37.8186C406.147 37.6768 406.4 37.5866 406.4 37.8C406.6 37.8 406.6 38.3 406.4 39C405.4 41.2 404.7 42.4 404.2 42.8C404 43 391.7 47.6 368 56.5C343.8 65.4 330.1 70.9 327.4 72.6C327.9 70.4 328.6 68.2 329.8 65.8ZM141.8 49.7C139.7 46.3 137.3 44.9 134.4 44.9C134.2 44.9 133.5 45.7 132.4 47.5C131.2 49.5 130.7 50.7 130.7 50.9C130.7 51.6 131.2 52.6 132.6 53.8C134.1 55 135 55.7 136 55.7C136.7 55.7 137 55.4 137.2 55.2C137.5 54.7 137.7 54.7 138.2 54.7C139.2 54.7 140.4 56.9 142.3 61.7C144.2 66.3 145.1 69.4 144.9 71.1C145.1 72.1 145.1 72.8 145.6 72.8C146.1 72.8 146.6 72.1 147.3 71.1C148 69.5 149 66.6 149.7 62.5C151.4 53.4 153.1 48.8 155 48.8C155.9 48.8 156.9 49.2 157.6 50.2C158.6 51.2 159.1 51.9 159.3 51.9C159.7 51.9 160.2 51.1 160.7 49.7C161.2 48.7 161.2 47.8 161.2 47.3C161.2 46.3 160.8 45.3 159.8 43.9C158.8 42.4 157.6 41.7 156.4 41.7C154.2 41.7 152.3 43.9 150.4 48.2C148.7 54.5 147.5 59.3 147 62.4C147 62.9 146.8 63.2 146.8 63.4L146.6 63.4C146.6 63.1 146.6 62.9 146.4 62.4C145.6 57.1 144 52.8 141.8 49.7ZM460.4 67C458 72.8 456.8 77.3 456.8 80.7C456.8 84.8 457.8 86.9 459.9 86.9C461.1 86.9 462.5 85.2 464.2 82.3C464.4 82.1 464.4 81.8 464.7 81.6C464.7 81.6 464.9 81.6 464.9 81.8L464.9 82.5C463.5 89.7001 461.3 93.3 458.4 93.3C455.3 93.3 453.8 90.7 453.8 85.4C453.8 82.8 454.3 79.4 455.7 75.1001C457.1 70.8001 457.9 68.6001 457.9 68.4C457.9 67.9 456.9 67 454.8 65.8C451 70.8 445.7 75.6 439 79.7C434.4 82.3 429.9 84.7 425.1 86.7C416.2 90.3 410.9 92.2 409.7 92.9C408.5 93.4 407.8 93.6001 407.3 93.6001C407.1 93.6001 407.1 93.4 407.1 93.4C407.1 92.9 407.6 92.4 409 91.5C416.7 87.2001 424.1 82.9 431.8 78.5C441.9 72.7001 448.8 67.9 452.2 64.3C447.6 61.9 445.5 59.5 445.5 56.9C445.5 53.8 446.9 50.9 449.8 48.3C452.7 45.9 455.1 44.9 457 45.7C458.4 46.2 459.4 47.9 459.4 50.7C459.4 53.3 458.9 56.2 457.7 59.3C460.1 60.7 461.1 62.2 461.1 63.6C461.1 64.4 460.8 65.6 460.4 67ZM455.1 58.1C455.6 56.7 455.6 55.2 455.3 53.8C455.1 52.4 454.3 51.6 453.1 51.6C452.6 51.6 451.9 51.8 450.9 52.3C449.9 52.8 449.5 53.3 449.5 53.7C449.6 55 451.5 56.5 455.1 58.1ZM299.3 56.7L295.5 64.6C294.5 63.7 292.4 62 289.3 60.1C286.2 57.9 284.5 56.7 284 56.7C283.7 56.7 283.2 57.2 283 57.7L278.4 67.3C278.2 67.8 278.2 68.1 278.4 68.3C282.3 70.7 286.1 73.3 289.7 76.2C290.2 76.5 290.7 76.2 290.9 75.5C292.4 73.3 293.6 70.7 295 67.8C299.1 70.4 302.7 72.8 305.8 75.2C306.2 75.4 306.7 75.4 307.2 74.7C310.3 69.3999 312 65.8 312 64.1C312 63.6 310.1 62.2 306.5 59.8C302.7 57.2 300.8 56 300.3 56C299.8 56 299.5 56.2 299.3 56.7ZM11.3 73.3C9.20001 69.9 6.8 68.5 3.90001 68.5C3.60001 68.5 2.90001 69.2 1.89999 71.1001C0.699997 73.1001 0.199997 74.3 0.199997 74.5C0.199997 75.2 0.699997 76.2 2.09999 77.4C3.59999 78.6 4.49998 79.3 5.49998 79.3C6.19998 79.3 6.49998 79 6.69998 78.8C6.99998 78.3 7.19998 78.3 7.69998 78.3C8.69998 78.3 9.89999 80.5 11.8 85.3C13.7 89.9 14.6 93 14.4 94.7C14.6 95.7 14.6 96.4 15.1 96.4C15.6 96.4 16.1 95.7 16.8 94.7C17.5 93.1 18.5 90.2 19.2 86.1C20.9 77 22.6 72.4 24.5 72.4C25.4 72.4 26.4 72.8 27.1 73.8C28.1 74.8 28.6 75.5 28.8 75.5C29.2 75.5 29.7 74.7 30.2 73.3C30.7 72.3 30.7 71.4 30.7 70.9C30.7 69.9 30.3 68.9 29.3 67.5C28.3 66 27.1 65.3 25.9 65.3C23.7 65.3 21.8 67.5 19.9 71.8C18.2 78.1 17 82.9 16.5 86C16.5 86.5 16.3 86.8 16.3 87L16.1 87C16.1 86.7 16.1 86.5 15.9 86C15.1 80.7 13.5 76.4 11.3 73.3ZM378 73.7C375.9 70.3 373.5 68.9 370.6 68.9C370.4 68.9 369.6 69.7 368.6 71.5C367.4 73.5 366.9 74.7 366.9 74.9C366.9 75.6 367.4 76.6 368.8 77.8C370.3 79 371.2 79.7 372.2 79.7C372.9 79.7 373.2 79.4 373.4 79.2C373.7 78.7 373.9 78.7 374.4 78.7C375.4 78.7 376.6 80.9 378.5 85.7C380.4 90.3 381.3 93.4 381.1 95.1C381.3 96.1 381.3 96.8 381.8 96.8C382.3 96.8 382.8 96.1 383.5 95.1C384.2 93.5 385.2 90.6 385.9 86.5C387.6 77.4 389.3 72.8 391.2 72.8C392.1 72.8 393.1 73.2 393.8 74.2C394.8 75.2 395.3 75.9 395.5 75.9C395.9 75.9 396.4 75.1 396.9 73.7C397.4 72.7 397.4 71.8 397.4 71.3C397.4 70.3 397 69.3 396 67.9C395 66.4 393.8 65.7 392.6 65.7C390.4 65.7 388.5 67.9 386.6 72.2C384.9 78.5 383.7 83.3 383.2 86.4C383.2 86.9 383 87.2 383 87.4L382.8 87.4C382.8 87.1 382.8 86.9 382.6 86.4C381.8 81.1 380.2 76.8 378 73.7ZM318.3 82.6C318.3 86.4 316.4 91.7 312.5 98.2C310.1 102.3 306.5 107.8 301.7 115C306.5 120.5 309.9 125.6 311.5 129.9C312.5 133 313.2 137.1 313.2 141.7C313.2 143.6 312.7 146 311.8 149.1C311.1 152 310.1 154.1 309.2 155.6C307.3 158.5 304.2 161.4 299.4 164.2C294.4 167.6 290 169.2 286.4 169.2C280.6 169.2 277.8 164.9 277.8 156.2C277.8 150.4 278.8 144.7 280.7 139.4C282.6 134.8 285.7 128.8 290.8 120.9C286.5 116.8 281.9 111.1 276.9 103.9C276.4 103.2 275.2 102 273.3 100.1C272.3 99.1 271.9 97.9 271.9 96.5C271.9 94.3 272.1 91.9 272.6 89.1C273.3 86.2 273.8 85 274 85C274.7 85 276.9 86.2 281 88.8C284.8 91.4 288 93.4 289.9 95C291.1 95.7 291.6 96.4 291.6 96.4L291.6 96.6C291.6 96.8 290.9 97.1 289.2 97.1C286.1 97.1 284.4 97.3 284.4 97.6C284.4 97.9 284.9 98.3 285.8 99.5C289.6 104.3 293.5 107.9 297.6 110.8C298.6 109.4 301.9 104.6 307.2 96.4C311.8 89.4 314.4 84.6 315.6 81.8C316.8 78.9 317.5 77.7 318 77.7C318 77.7148 318.007 77.7605 318.018 77.8383C318.082 78.2849 318.3 79.7898 318.3 82.6ZM152.4 90.5C153.1 89.3 154.1 88.8 154.8 88.8C155.3 88.8 155.8 89 155.8 89.5C155.8 89.5 155.6 89.7 155.6 90C154.6 92.2 153.7 94.6 153 97C158 100.6 160.4 104.4 160.2 108C159.7 112.1 159.2 114.7 158.5 115.7C156.1 118.6 153.5 120.3 150.1 120.3C146.7 120.3 145.3 118.1 145.3 114.3C145.3 113.6 145.3 112.6 145.5 111.7C146.7 104 149.1 97 152.4 90.5ZM335.8 111C336.8 112.2 337.5 113.8 338 116C339.2 120.1 341.6 125.8 344.9 132.9C347.8 139.2 349.2 142.5 349.2 143C349.2 145 346.3 148.1 340.8 152.4C335.949 156.006 329.636 160.127 321.863 164.708C322.598 160.271 323.871 154.956 325.7 148.7C326 147.2 326.2 146 326.2 145.3C326.2 144.8 326.2 144.6 326 144.6C325.5 144.6 325 145.6 323.8 148C321.454 154.335 319.727 160.499 318.7 166.55C315.492 168.398 312.059 170.316 308.4 172.3C299 177.4 287.3 182.9 273.1 188.9C252.7 197.5 241.6 202.3 239.7 203.3C234.4 205.7 231.8 207.2 231.8 207.4C231.8 207.6 231.8 207.6 232.3 207.6C233.3 207.6 235.7 207.3 239.5 206.6C243.1 206.1 252.2 204 266.6 200.6C280.3 197.3 287.5 195.6 288 195.6C290.6 195.6 299 191.5 313.4 183.1C314.845 182.29 316.253 181.485 317.624 180.685C317.86 187.953 319.84 194.216 323.4 198.9C327.7 204.9 333.9 208 342.1 208C351.7 208 362.7 203 375.7 193.4C384.4 186.9 392.3 179.4 399.5 170.8C402.6 167.2 405.2 162.6 406.9 157.1C408.4 152.7 409.1 149.4 409.1 146.5L409.6 146L409.6 132.8C408.6 133.3 408.1 133.3 407.9 133.3C405.5 128.3 402.6 124.2 399.5 120.6C395.9 117 392.8 115.1 389.7 115.1C385.6 115.1 381.8 117.2 378.2 121.3C374.4 126.1 372.7 131.4 372.7 137.4C372.7 145.3 378.5 149.4 390 149.4C395.3 149.4 399.6 148.7 402.5 147.7C403 149.4 403.5 151.1 403.5 152.5C403.5 154.6 399.9 158.9 392.9 165.8C385.2 173 377.3 179 369.1 184C358.7 190.3 350.1 193.4 342.9 193.4C334.5 193.4 328.5 190.7 324.7 185.7C323.239 183.509 322.223 181.021 321.651 178.283C333.944 170.785 342.923 163.72 348.7 157.2C350.7 155 352.1 151.9 353.3 147.8C354.2 144.2 354.7 141.3 354.7 138.9C354.7 133.8 353.2 128.3 350.6 121.6C348.9 117.8 347 113.7 345.3 109.6C348.2 110.3 350.1 110.8 350.8 110.8C351.3 110.8 351.5 110.5 351.5 110.3C351.5 109.8 350.8 108.9 349.1 107.2C345.1 103.1 341.5 99.2 338.1 95.4C337.6 94.9 337.3 94.7 337.1 94.7C336.6 94.7 336.3 95.2 336.1 96.4C335.6 97.6 335.4 99.8 334.9 102.9C334.4 106.2 334.4 107.9 334.4 108.4C334.6 108.8 335.1 109.6 335.8 111ZM81.4 106.9C81.4 107.4 81.2 108.3 80.7 109.3C80.5 110.7 80 111.5 79.3 111.5C79.1 111.5 78.6 110.8 77.6 109.8C76.9 108.8 75.9 108.4 75.2 108.4C73.3 108.4 71.4 113 69.7 122.1C69 126.2 68.3 129.1 67.3 130.7C67.0579 131.046 66.8397 131.356 66.6372 131.613C66.8749 130.9 67 130.45 67 130.3L67 130.1C66.8552 130.1 66.2913 130.729 65.2702 131.91C65.1726 131.611 65.1 131.192 65.1 130.7C65.1 129 64.1 125.9 62.2 121.3C60.3 116.5 59.1 114.3 58.4 114.3C57.7 114.3 57.4 114.3 57.2 114.8C57.2 115 56.7 115.3 56 115.3C55 115.3 54.1001 114.6 52.6001 113.4C51.4001 112.2 50.7001 111.2 50.7001 110.5C50.7001 110.3 51.2001 109.1 52.4001 107.1C53.6001 105.2 54.3 104.5 54.6001 104.5C57.2001 104.5 59.6001 105.9 61.8 109.3C64.2 112.7 65.6001 116.7 66.6001 122L66.6001 123C66.7094 123.109 66.7589 123.159 66.7814 123.149C66.8 123.14 66.8 123.091 66.8 123C66.8 122.8 67 122.5 67.3 122C67.5 118.9 68.7 114.1 70.4001 107.8C72.3 103.5 74.2001 101.3 76.4001 101.3C77.6001 101.3 78.8 102 80.0001 103.5C80.9 104.9 81.4 105.9 81.4 106.9ZM65.2702 131.91C64.8807 132.361 64.4247 132.892 63.9 133.5C62.2 135.4 60.1 137.5 57.2 139.7C45.2 147.6 36.1 153.2 29.6 157C28.4 157.7 27.7 158.5 27.7 158.7C27.7 158.7 27.7 158.9 27.9 158.9C28.4 158.9 29.1 158.7 30.3 158.2C38.3 155.4 42.6 153.7 43.3 153.2C46.9 151.6 50.9 149.2 55.5 145.8C60.6 142.2 63.9 138.3 65.6 134.5C66.0498 133.301 66.3997 132.326 66.6372 131.613C66.2542 132.101 65.9271 132.4 65.6 132.4C65.4984 132.4 65.371 132.219 65.2702 131.91ZM157.7 109.7C157.7 108.5 155.3 106.3 150.3 103.5C148.6 106.4 147.9 109 147.9 111.4C147.9 112.8 148.6 113.8 150.1 113.8C151.3 113.8 152.7 113.3 154.4 112.4C156 111.7 157.2 110.7 157.7 109.7ZM435.7 117.7C435 117.7 434 118.1 432.8 119.1C428.9 122.5 425.1 125.3 421.2 127.3C420 128.1 415.9 130 409.7 133.1L409.7 146.3C418.1 142.4 424.6 138.4 428.4 133.8C428.4 144.8 433.2 150.6 443.3 150.6C451.7 150.6 458.6 145.8 463.9 136.2C467.1 142 470.7 145.1 474.5 145.1C480.3 145.1 484.6 142.5 487.5 137.2C490.2 132.8 491.6 127.8 491.6 121.8C491.6 117.9 490.4 114.6 488.5 111.7C487.8 110.7 487.3 110.5 486.8 110.5C486.3 110.5 485.8 111.3 485.6 112.7C484.2 117.2 483.2 120.6 483 122.5C485.1 126.1 486.1 128.1 486.1 128.3C485.1 129.9 483 130.9 479.6 130.9C477 130.9 474.6 129.9 472.9 128.5C471 127.1 470 125.4 470 123.7C470 124.2 470.7 122.3 471.7 118.2C472.2 116.1 472 115.1 471 115.1C470.3 115.1 469.6 115.5 468.6 116.5C466.2 120.4 463.6 124.2 461.2 128.3C457.3 133.4 452.3 136 446.3 136C438.8 136 435 133.1 435 127.8C435 126.6 435.2 125.1 435.7 123.2C436.2 121.3 436.4 119.8 436.4 119.1C436.4 118.2 436.2 117.7 435.7 117.7ZM308.9 141.7C306.3 136.4 301.7 130.9 295.5 125.6C293.3 127.8 290.7 131.8 287.3 137.6C283.5 144.1 281.8 148.2 281.8 150.3C281.8 153.2 283.7 154.6 288 154.6C289.9 154.6 292.3 153.9 295.4 152.7C299.7 150.8 303.8 148.1 307.2 144.8C308.7 143.3 309.2 142.4 308.9 141.7ZM396 134.9C392.4 130.3 389.3 128.2 386.4 128.2C382.1 128.2 380.2 129.2 380.2 131.6C380.2 134.5 383.1 135.9 388.8 135.9C390.83 135.9 393.03 135.474 395.4 135.016C395.599 134.977 395.799 134.939 396 134.9ZM157 160.2C157.5 170.3 162.1 175.3 170.7 175.3L170.7 160.6C167.5 160.6 165.1 159.2 163.7 156.8C162.3 154.9 161.8 152.5 161.8 149.6C161.8 149.1 161.8 148.4 162 147.4C162.2 146.4 162.2 145.7 162.2 145.2C162.2 144.3 162 143.8 161 143.8C160.1 143.8 159.1 144.3 158.4 145C150.8 152.7 146 157.3 143.8 158.7C138.3 162.6 132.1 164.5 125.1 164.5L125.1 179.1C131.8 179.1 138.3 176.4 144.5 170.9C145.9 169.7 149.1 166.4 154.1 160.6C154.9 159.7 155.6 159.4 156.3 159.2C156.8 159.5 157 159.7 157 160.2ZM422 198.5C419.4 199.2 417.9 199.7 417.4 199.7L417.4 199.5C417.4 199.5 418.4 198.8 420.3 197.6C422.2 196.4 425.1 194.5 429.2 191.4C431.1 189.5 434 186.4 437.6 182C440 179.1 442.6 176.5 445.5 174.6C449.1 172 452.5 170.8 456.1 170.8C456.8 170.8 458 171 459.5 171.5C460.7 172 461.9 172.2 462.9 172.2C464.8 172.2 466.3 171.5 467.5 170C468.2 168.6 469.2 167.4 470.1 165.9C470.6 164.9 471.3 164.5 471.8 164.5C472 164.5 472 164.7 472 165.2C472 165.7 471.8 166.9 471.3 168.3C470.8 169 472.7 169.3 476.3 169.3C476.8 169.3 477 169.3 477 169.1C477 169.1 476.8 168.1 476.3 166.5C476.1 166 476.3 165.3 477 164.3L477.08 164.164C478.022 162.563 478.408 161.905 478.7 162.1C479.7 162.8 480.1 164.3 480.1 165.9C480.1 167.6 479.6 169.3 478.9 171.2C478.2 173.4 477.5 174.6 477 175C475.3 176 472.7 175.7 469.1 174C466.2 176.9 463.3 178.6 460.5 178.6C459.8 178.6 458.6 178.4 457.4 177.9C456.2 177.4 455.2 177.2 454.5 177.2C449.7 177.2 444.7 179.4 439.6 184.2L428.8 195C426.5 196.6 424.4 197.8 422 198.5ZM165.8 188.5L162 196.4C161.1 195.4 158.9 193.7 155.8 191.9C152.7 189.7 151 188.5 150.5 188.5C150.2 188.5 149.7 189 149.5 189.5L144.9 199.1C144.7 199.6 144.7 199.9 144.9 200.1C148.8 202.5 152.6 205.1 156.2 208C156.7 208.3 157.2 208 157.4 207.3C158.9 205.1 160.1 202.5 161.5 199.6C165.6 202.2 169.2 204.6 172.3 207C172.7 207.2 173.2 207.2 173.7 206.5C176.8 201.2 178.5 197.6 178.5 195.9C178.5 195.4 176.6 194 173 191.6C169.2 189 167.3 187.8 166.8 187.8C166.3 187.8 166 188 165.8 188.5ZM112.2 191.9C101.1 195.7 90.8 199.5 81.2 202.9C80 205.3 79.2 207.4 78.9 209.7C91.1 204.1 101.9 200.1 111.5 196.7C112 196.3 112.7 195.1 113.4 192.9C113.8 192.2 113.8 191.7 113.6 191.7C113.477 191.516 113.354 191.558 113.045 191.664C112.852 191.731 112.585 191.823 112.2 191.9Z" id="Group" fill="#595959" fill-rule="evenodd" stroke="none" clip-path="url(#clip_1)" />
  </g>
</svg>