<?xml version="1.0" encoding="utf-8"?>
<svg width="462.30014px" height="203.827px" viewBox="0 0 462.30014 203.827" version="1.1" xmlns:xlink="http://www.w3.org/1999/xlink" xmlns="http://www.w3.org/2000/svg">
  <defs>
    <path d="M462.3 0L462.3 0L462.3 203.827L0 203.827L0 0L462.3 0Z" id="path_1" />
    <clipPath id="clip_1">
      <use xlink:href="#path_1" clip-rule="evenodd" fill-rule="evenodd" />
    </clipPath>
  </defs>
  <g id="Surah_78_of_114_(modified)">
    <path d="M462.3 0L462.3 0L462.3 203.827L0 203.827L0 0L462.3 0Z" id="Surah_78_of_114_(modified)" fill="none" stroke="none" />
    <path d="M179.4 0.32692C153.4 9.92693 128.2 19.0269 104 28.1269C102.8 30.5269 102.1 32.6269 101.6 34.9269C104.3 33.2269 118 27.7269 142.2 18.8269C165.9 9.92693 178.2 5.32692 178.4 5.12692C178.9 4.72691 179.6 3.52692 180.6 1.32692C180.8 0.626923 180.8 0.126923 180.6 0.126923C180.6 -0.086442 180.347 0.00368667 179.949 0.145485C179.788 0.203064 179.602 0.269162 179.4 0.32692ZM198.3 148.427C203.4 140.227 206 129.227 206 115.027C206 109.927 205.1 94.8269 203.2 69.8269C201.3 44.4269 200.3 31.4269 200.3 31.2269C200.3 30.0269 200.5 29.7269 201 30.2269C205 35.0269 207.2 36.2269 207.2 34.0269C207.2 33.5269 206.9 32.3269 206.7 30.9269C206 29.2269 204.3 24.4269 201.4 16.5269C198.5 9.0269 196.6 4.5269 195.9 2.8269C195.4 1.8269 195.1 1.62691 194.9 1.62691C194.4 1.62691 194.1 1.92691 193.9 2.62691C191.2 9.0269 189.8 13.1269 189.8 14.8269C191.3 17.9269 192 21.7269 192 26.3269C192 31.6269 192.9 48.6269 195.1 77.4269C197.3 106.227 198.5 122.727 198.5 126.827C198.5 133.627 197.8 137.627 196.6 138.627C192.3 142.227 187.8 144.127 183.2 144.127L183.2 158.727C188.9 158.727 194 155.127 198.3 148.427ZM215.8 17.7269C217.3 20.9269 218 24.7269 218 29.5269C218 33.6269 219.2 52.6269 221.7 86.4269C224.1 120.227 225.3 139.427 225.3 144.227C225.3 149.327 225.1 153.827 224.6 157.927C224.571 158.306 224.542 158.671 224.514 159.02C224.35 161.063 224.229 162.573 224.4 163.427C224.6 164.127 224.9 164.127 225.6 162.927C226.1 162.027 226.5 160.827 227.5 159.127C230.8 150.527 232.5 140.427 232.5 129.127C232.5 125.327 231.6 108.727 229.4 79.2269C227.2 49.5269 226 34.6269 226 34.1269C226 32.9269 226.2 32.4269 226.7 33.1269C231 37.9269 232.9 39.1269 232.9 36.9269C232.9 36.4269 232.9 35.2269 232.4 34.0269C231.9 32.1269 230.2 27.3269 227.1 19.4269C224.2 11.9269 222.5 7.42693 221.8 5.72693C221.3 5.02693 221.1 4.52693 220.6 4.52693C220.4 4.52693 220.1 5.02693 219.9 5.72693C217 11.9269 215.8 16.0269 215.8 17.7269ZM267.5 16.8269C267.5 19.4269 269.6 21.8269 274.2 24.2269C270.8 27.8269 265.8 31.7269 258.8 35.9269C252.8 39.2269 247.1 42.6269 241.3 46.2269C239.9 46.9269 239.4 47.7269 239.4 47.9269C239.4 47.9269 239.4 48.1269 239.6 48.1269C239.8 48.1269 240.8 47.9269 242 47.4269C249.7 44.6269 254 42.9269 255 42.4269C258.6 41.0269 262.6 38.327 267.2 35.2269C271 32.3269 274.2 29.2269 276.8 25.6269C279 26.8269 280.4 28.0269 280.9 29.0269C283 26.2269 284 24.0269 284 22.8269C283.5 21.8269 282.1 20.6269 279.7 19.4269C280.9 16.0269 281.4 13.127 281.4 10.5269C281.4 7.72694 280.7 6.02695 279 5.52695C277.1 4.82693 274.7 5.82693 271.8 8.42694C268.9 10.8269 267.5 13.7269 267.5 16.8269ZM322.1 27.6269C322.1 27.6269 321.9 27.9269 321.9 28.1269C320.3 31.0269 318.8 32.6269 317.2 32.7269C315.1 32.7269 314.1 30.5269 314.1 26.7269C314.1 23.6269 315.3 18.5269 317.7 11.1269C318.2 9.42693 318.4 8.42693 318.4 8.22693C318.1 8.22693 317.7 9.12694 316.7 10.8269C312.9 17.8269 311.2 24.7269 311.2 31.2269C311.2 36.5269 312.7 39.1269 315.8 39.1269C318.9 39.1269 321.1 35.5269 322.3 28.3269C322.5 28.1269 322.5 27.8269 322.3 27.6269C322.3 27.5362 322.3 27.4867 322.281 27.4782C322.259 27.468 322.209 27.5176 322.1 27.6269ZM277.3 13.7269C277.6 15.1269 277.6 16.6269 277.1 18.0269C273.5 16.3269 271.5 14.9269 271.5 13.6269C271.5 13.2269 271.9 12.7269 272.9 12.2269C273.9 11.7269 274.6 11.5269 275.1 11.5269C276.3 11.5269 277.1 12.3269 277.3 13.7269ZM178.2 35.5269C178.2 37.4269 177.7 39.6269 176.8 41.5269C175.6 44.1269 174.2 45.6269 172.5 45.6269C169.6 45.6269 167.7 43.7269 166.5 39.8269C165.1 44.6269 162.7 47.2269 159.1 47.2269C157.9 47.2269 156.7 46.5269 155.7 45.0269C154.5 43.6269 154 41.4269 154 39.0269L154 32.8269C154 32.3269 153.5 32.1269 153 31.8269C152.3 31.6269 152 31.1269 152 30.4269C152 29.0269 152.5 27.8269 153.4 26.6269C154.4 25.4269 155.1 24.9269 155.6 24.9269C156.3 24.9269 156.8 26.1269 156.8 28.7269C156.8 30.1269 156.6 31.327 156.6 32.327C156.4 33.327 156.4 34.0269 156.4 34.7269C156.4 36.1269 156.6 37.6269 157.1 38.827C157.8 40.2269 158.8 41.2269 159.7 41.2269C161.1 41.2269 162.3 40.5269 163.5 39.327C164.7 38.127 165.4 36.7269 165.4 35.0269C165.4 34.0269 164.9 32.627 164.4 30.2269C163.7 28.0269 163.4 26.6269 163.4 26.1269C163.4 25.6269 163.6 24.9269 164.1 23.7269C164.6 22.7269 165.1 22.327 165.3 22.327C165.8 22.327 166.3 23.7269 167 26.627C167.7 29.727 168.2 31.927 168.2 33.327C168.2 37.427 169.6 39.5269 172.8 39.5269C174.2 39.5269 175.2 38.827 175.4 37.327C172.8 32.5269 171.3 28.927 171.3 26.327C171.3 24.927 171.5 23.7269 172.5 22.5269C173 21.827 173.2 21.327 173.5 21.327C173.7 21.327 174 21.827 174 22.7269C174.2 23.9269 174.5 25.1269 174.7 26.1269C174.7 26.1269 175.4 27.8269 176.6 31.1269C177.7 33.1269 178.2 34.6269 178.2 35.5269ZM88.4 133.227C89.6 139.927 92 144.527 95.4 146.627C97.1 147.627 99.7 148.327 103.3 148.327C110.3 148.327 116.5 146.427 122 142.527C124.2 141.127 129 136.527 136.6 128.827C137.3 128.127 138.3 127.627 139.2 127.627C140.2 127.627 140.4 128.127 140.4 129.027C140.4 129.527 140.4 130.227 140.2 131.227C140 132.227 140 132.927 140 133.427C140 136.327 140.5 138.727 141.9 140.627C143.3 143.027 145.7 144.427 148.9 144.427L148.9 159.127C140.3 159.127 135.7 154.127 135.2 144.027C135.2 143.527 135 143.327 134.5 143.027C133.8 143.227 133.1 143.527 132.3 144.427C127.3 150.227 124.1 153.527 122.7 154.727C116.5 160.227 110 162.927 103.3 162.927C98 162.927 93.9 161.727 91.1 159.527C86.8 156.427 84.1 150.927 82.7 142.527C81.7 137.927 81 127.127 80.5 110.127C80 90.9269 79.1 75.827 78.1 65.0269C76.9 55.227 75 45.627 72.3 36.7269C72.3 34.327 73.3 30.7269 75.2 25.9269C75.7 24.7269 75.9 24.2269 76.4 24.2269C76.6 24.2269 77.1 24.7269 77.6 25.6269C80.7 31.6269 82.9 41.9269 84.6 56.627C85.6 66.0269 86.5 80.827 87 101.227C87.5 120.027 88.2 130.627 88.4 133.227ZM300.6 61.9269C324.8 52.8269 350 43.7269 376 34.1269C376.202 34.0692 376.388 34.0031 376.549 33.9455C376.947 33.8037 377.2 33.7136 377.2 33.9269C377.4 33.9269 377.4 34.4269 377.2 35.1269C376.2 37.3269 375.5 38.5269 375 38.9269C374.8 39.1269 362.5 43.7269 338.8 52.627C314.6 61.5269 300.9 67.0269 298.2 68.727C298.7 66.5269 299.4 64.3269 300.6 61.9269ZM95.2 54.0269C108.9 49.2269 123.3 43.9269 138.4 38.4269C138.785 38.3499 139.052 38.258 139.245 38.1913C139.554 38.0848 139.677 38.0424 139.8 38.2269C140 38.2269 140 38.7269 139.6 39.4269C138.9 41.6269 138.2 42.8269 137.7 43.2269C124.7 47.8269 109.9 53.5269 92.8 60.7269C93.2 58.6269 93.9 56.4269 95.2 54.0269ZM431.2 63.1269C428.8 68.9269 427.6 73.4269 427.6 76.8269C427.6 80.9269 428.6 83.0269 430.7 83.0269C431.9 83.0269 433.3 81.3269 435 78.4269C435.2 78.2269 435.2 77.9269 435.5 77.7269C435.5 77.7269 435.7 77.7269 435.7 77.9269L435.7 78.627C434.3 85.827 432.1 89.4269 429.2 89.4269C426.1 89.4269 424.6 86.8269 424.6 81.5269C424.6 78.9269 425.1 75.5269 426.5 71.227C427.9 66.927 428.7 64.727 428.7 64.5269C428.7 64.0269 427.7 63.127 425.6 61.9269C421.8 66.9269 416.5 71.7269 409.8 75.8269C405.2 78.4269 400.7 80.8269 395.9 82.8269C387 86.4269 381.7 88.3269 380.5 89.0269C379.3 89.5269 378.6 89.727 378.1 89.727C377.9 89.727 377.9 89.5269 377.9 89.5269C377.9 89.0269 378.4 88.5269 379.8 87.627C387.5 83.327 394.9 79.0269 402.6 74.627C412.7 68.827 419.6 64.0269 423 60.4269C418.4 58.0269 416.3 55.627 416.3 53.0269C416.3 49.9269 417.7 47.0269 420.6 44.4269C423.5 42.0269 425.9 41.0269 427.8 41.8269C429.2 42.3269 430.2 44.0269 430.2 46.8269C430.2 49.4269 429.7 52.3269 428.5 55.4269C430.9 56.8269 431.9 58.3269 431.9 59.7269C431.9 60.5269 431.6 61.7269 431.2 63.1269ZM38.9 55.2269C36.8 51.8269 34.4 50.4269 31.5 50.4269C31.3 50.4269 30.6 51.1269 29.5 53.027C28.3 55.027 27.8 56.227 27.8 56.427C27.8 57.127 28.3 58.127 29.7 59.327C31.2 60.5269 32.1 61.227 33.1 61.227C33.8 61.227 34.1 60.927 34.3 60.727C34.6 60.227 34.8 60.227 35.3 60.227C36.3 60.227 37.5 62.427 39.4 67.227C41.3 71.827 42.2 74.9269 42 76.627C42.2 77.627 42.2 78.327 42.7 78.327C43.2 78.327 43.7 77.627 44.4 76.627C45.1 75.0269 46.1 72.127 46.8 68.0269C48.5 58.9269 50.2 54.3269 52.1 54.3269C53 54.3269 54 54.7269 54.7 55.7269C55.7 56.7269 56.2 57.4269 56.4 57.4269C56.8 57.4269 57.3 56.6269 57.8 55.2269C58.3 54.2269 58.3 53.3269 58.3 52.8269C58.3 51.8269 57.9 50.8269 56.9 49.4269C55.9 47.9269 54.7 47.2269 53.5 47.2269C51.3 47.2269 49.4 49.4269 47.5 53.7269C45.8 60.0269 44.6 64.8269 44.1 67.9269C44.1 68.4269 43.9 68.7269 43.9 68.9269L43.7 68.9269C43.7 68.627 43.7 68.4269 43.5 67.9269C42.7 62.6269 41.1 58.3269 38.9 55.2269ZM425.9 54.2269C426.4 52.8269 426.4 51.3269 426.1 49.9269C425.9 48.5269 425.1 47.7269 423.9 47.7269C423.4 47.7269 422.7 47.9269 421.7 48.4269C420.7 48.9269 420.3 49.4269 420.3 49.8269C420.4 51.1269 422.3 52.6269 425.9 54.2269ZM270.1 52.8269L266.3 60.7269C265.3 59.8269 263.2 58.1269 260.1 56.2269C257 54.0269 255.3 52.8269 254.8 52.8269C254.5 52.8269 254 53.3269 253.8 53.8269L249.2 63.4269C249 63.9269 249 64.2269 249.2 64.4269C253.1 66.8269 256.9 69.4269 260.5 72.3269C261 72.6269 261.5 72.3269 261.7 71.6269C263.2 69.4269 264.4 66.8269 265.8 63.9269C269.9 66.5269 273.5 68.9269 276.6 71.3269C277 71.5269 277.5 71.5269 278 70.8269C281.1 65.5269 282.8 61.9269 282.8 60.2269C282.8 59.7269 280.9 58.3269 277.3 55.9269C273.5 53.3269 271.6 52.1269 271.1 52.1269C270.6 52.1269 270.3 52.3269 270.1 52.8269ZM142.9 71.0269C142.7 70.8269 142.7 70.5269 142.9 70.0269L147.5 60.4269C147.7 59.9269 148.2 59.7269 148.5 59.7269C149 59.7269 151.1 60.9269 154.7 63.3269C158.5 65.9269 160.5 67.4269 160.5 67.9269C160.5 69.6269 158.8 72.9269 155.5 78.2269L155.471 78.2672C154.992 78.9383 154.79 79.2211 154.3 78.9269C150.6 76.1269 146.7 73.4269 142.9 71.0269ZM348.6 69.6269C346.5 66.2269 344.1 64.8269 341.2 64.8269C340.9 64.8269 340.2 65.5269 339.2 67.427C338 69.427 337.5 70.627 337.5 70.827C337.5 71.5269 338 72.5269 339.4 73.727C340.9 74.9269 341.8 75.627 342.8 75.627C343.5 75.627 343.8 75.327 344 75.127C344.3 74.627 344.5 74.627 345 74.627C346 74.627 347.2 76.827 349.1 81.627C351 86.227 351.9 89.3269 351.7 91.0269C351.9 92.0269 351.9 92.727 352.4 92.727C352.9 92.727 353.4 92.0269 354.1 91.0269C354.8 89.4269 355.8 86.5269 356.5 82.4269C358.2 73.3269 359.9 68.7269 361.8 68.7269C362.7 68.7269 363.7 69.1269 364.4 70.1269C365.4 71.1269 365.9 71.8269 366.1 71.8269C366.5 71.8269 367 71.0269 367.5 69.6269C368 68.6269 368 67.7269 368 67.2269C368 66.2269 367.6 65.2269 366.6 63.8269C365.6 62.3269 364.4 61.6269 363.2 61.6269C361 61.6269 359.1 63.8269 357.2 68.1269C355.5 74.4269 354.3 79.2269 353.8 82.3269C353.8 82.8269 353.6 83.1269 353.6 83.3269L353.4 83.3269C353.4 83.0269 353.4 82.8269 353.2 82.3269C352.4 77.0269 350.8 72.7269 348.6 69.6269ZM112.4 117.127C112.9 113.727 114.1 109.927 116 105.127C117.4 101.527 118.2 97.9269 118.2 94.3269C118.2 87.3269 114.8 80.9269 108.4 74.4269C107.9 73.9269 107.9 73.4269 108.4 73.0269L110.6 69.227C110.8 68.727 111.1 68.727 111.6 69.227C117.8 74.227 121.2 81.727 121.2 91.5269C121.2 96.127 120 101.127 118.1 106.127C115.9 111.427 115 115.027 115 116.927C115 121.027 116 123.127 118.1 123.127C119.5 123.127 121 121.427 122.7 118.527C122.7 118.327 122.9 118.027 122.9 118.027C123.009 117.918 123.059 117.868 123.081 117.878C123.1 117.887 123.1 117.936 123.1 118.027L123.1 118.727C121.9 125.927 119.7 129.527 116.6 129.527C113.7 129.527 112 126.427 112 120.627C111.921 119.755 112.093 118.821 112.267 117.873C112.313 117.625 112.359 117.376 112.4 117.127ZM289.1 78.7269C289.1 82.5269 287.2 87.8269 283.3 94.3269C280.9 98.4269 277.3 103.927 272.5 111.127C277.3 116.627 280.7 121.727 282.3 126.027C283.3 129.127 284 133.227 284 137.827C284 139.727 283.5 142.127 282.6 145.227C281.9 148.127 280.9 150.227 280 151.727C278.1 154.627 275 157.527 270.2 160.327C265.2 163.727 260.8 165.327 257.2 165.327C251.4 165.327 248.6 161.027 248.6 152.327C248.6 146.527 249.6 140.827 251.5 135.527C253.4 130.927 256.5 124.927 261.6 117.027C257.3 112.927 252.7 107.227 247.7 100.027C247.2 99.3269 246 98.1269 244.1 96.2269C243.1 95.2269 242.7 94.0269 242.7 92.6269C242.7 90.4269 242.9 88.0269 243.4 85.2269C244.1 82.3269 244.6 81.1269 244.8 81.1269C245.5 81.1269 247.7 82.3269 251.8 84.9269C255.6 87.5269 258.8 89.5269 260.7 91.1269C261.9 91.8269 262.4 92.5269 262.4 92.5269L262.4 92.7269C262.4 92.9269 261.7 93.2269 260 93.2269C256.9 93.2269 255.2 93.4269 255.2 93.7269C255.2 93.9269 255.7 94.4269 256.6 95.6269C260.4 100.427 264.3 104.027 268.4 106.927C269.4 105.527 272.7 100.727 278 92.5269C282.6 85.5269 285.2 80.7269 286.4 77.9269C287.6 75.0269 288.3 73.8269 288.8 73.8269C288.8 73.8416 288.806 73.8841 288.817 73.9568C288.882 74.3802 289.1 75.8252 289.1 78.7269ZM163.1 139.927C162.4 145.927 160.5 150.727 157.6 154.127C155 157.527 152.1 159.127 149 159.127L149 144.527C156.2 144.527 159.8 141.127 159.8 134.727C159.8 133.027 159.3 129.227 157.9 122.727C156.5 116.227 155 110.727 153.6 106.127C152.9 103.927 152.6 103.027 152.6 102.727C152.6 97.227 153.3 92.927 154.8 89.5269C155.5 88.127 156 87.3269 156.2 87.3269C156.4 87.3269 156.7 87.8269 157.2 88.7269C160.6 95.2269 163.7 106.227 166.3 121.627C168 131.027 170.4 137.427 173.5 140.627C175.7 142.827 178.8 143.727 182.9 143.727L182.9 158.327C178.6 158.327 174.5 157.127 171.1 154.227C166.9 151.027 164.3 146.127 163.1 139.927ZM61.3 115.027C63.5 110.927 64.7 108.527 64.7 107.827C64.7 107.027 64.2 106.827 63.4 106.927C62.7 106.927 60.3 107.927 56.7 109.827C52.4 111.727 49.3 113.227 47.1 113.427C43.7 113.427 40.1 112.427 36.5 110.527C33.3 108.827 31.9 107.427 31.9 106.227C31.9 105.727 33.3 104.727 36.2 103.327C38.9 101.927 41 101.427 42.7 101.427C43.9 101.427 44.9 102.127 45.6 104.027C46.3 105.927 47.1 106.627 47.3 106.627C48.3 106.627 49.5 105.727 50.7 104.027C52.2 101.827 52.9 99.9269 52.9 98.0269C52.9 95.8269 52.2 93.9269 51.2 92.7269C50 91.2269 48.6 90.5269 46.9 90.5269C43.8 90.5269 39.5 93.2269 34.2 98.2269C28.5 103.527 25.6 108.327 25.6 112.427C25.6 114.827 26.6 116.927 28.5 118.627C29.2 119.427 30.9 120.327 33.5 122.027C29.7 124.627 27.1 126.527 26.1 127.527C23.7 132.027 22.7 134.927 22.7 136.127C22.7 136.627 22.7 136.827 23.2 136.827C23.6 136.827 24.8 136.127 27 134.927C33.3 131.127 40.7 126.827 49.1 122.227C55.5 118.627 59.6 116.227 61.3 115.027ZM306.5 107.127C307.5 108.327 308.2 109.927 308.7 112.127C309.9 116.127 312.4 121.927 315.6 129.027C318.5 135.327 319.9 138.627 319.9 139.127C319.9 141.127 317 144.227 311.5 148.527C306.66 152.124 300.367 156.234 292.619 160.801C293.347 156.312 294.634 150.909 296.5 144.527C296.8 143.027 297 141.827 297 141.127C297 140.627 297 140.427 296.8 140.427C296.3 140.427 295.8 141.427 294.6 143.827C292.219 150.256 290.476 156.508 289.455 162.646C286.231 164.503 282.78 166.431 279.1 168.427C269.7 173.527 258 179.027 243.8 185.027C223.4 193.627 212.3 198.427 210.4 199.427C205.1 201.827 202.5 203.327 202.5 203.527C202.5 203.727 202.5 203.727 203 203.727C204 203.727 206.4 203.427 210.2 202.727C213.8 202.227 222.9 200.127 237.3 196.727C251 193.427 258.2 191.727 258.7 191.727C261.3 191.727 269.7 187.627 284.1 179.227C285.583 178.396 287.027 177.57 288.432 176.749C288.703 183.916 290.679 190.094 294.2 194.727C298.5 200.727 304.7 203.827 312.9 203.827C322.5 203.827 333.5 198.827 346.5 189.227C355.2 182.727 363.1 175.227 370.3 166.627C373.4 163.027 376 158.427 377.7 152.927C379.2 148.527 379.9 145.227 379.9 142.327L380.4 141.827L380.4 128.627C379.4 129.127 378.9 129.127 378.7 129.127C376.3 124.127 373.4 120.027 370.3 116.427C366.7 112.827 363.6 110.927 360.5 110.927C356.4 110.927 352.6 113.027 349 117.127C345.2 121.927 343.5 127.227 343.5 133.227C343.5 141.127 349.3 145.227 360.8 145.227C366.1 145.227 370.4 144.527 373.3 143.527C373.8 145.227 374.3 146.927 374.3 148.327C374.3 150.527 370.7 154.827 363.7 161.627C356 168.827 348.1 174.827 339.9 179.827C329.5 186.127 320.9 189.227 313.7 189.227C305.3 189.227 299.3 186.527 295.5 181.527C294.077 179.392 293.076 176.976 292.496 174.321C304.715 166.856 313.645 159.821 319.4 153.327C321.4 151.127 322.8 148.027 324 143.927C324.9 140.327 325.4 137.427 325.4 135.027C325.4 129.927 323.9 124.427 321.3 117.727C319.6 113.927 317.7 109.827 316 105.727C318.9 106.427 320.8 106.927 321.5 106.927C322 106.927 322.2 106.627 322.2 106.427C322.2 105.927 321.5 105.027 319.8 103.327C315.8 99.2269 312.2 95.3269 308.8 91.5269C308.3 91.0269 308 90.8269 307.8 90.8269C307.3 90.8269 307 91.3269 306.8 92.5269C306.3 93.7269 306.1 95.9269 305.6 99.0269C305.1 102.327 305.1 104.027 305.1 104.527C305.3 104.927 305.8 105.727 306.5 107.127ZM10.7 113.827C10.7 113.627 10.9 113.327 10.9 113.327C11.0093 113.218 11.0589 113.168 11.0814 113.178C11.1 113.187 11.1 113.236 11.1 113.327C11.3 113.527 11.3 113.827 11.1 114.027C9.90001 121.227 7.70001 124.827 4.60001 124.827C1.5 124.827 0 122.227 0 116.927C0 110.427 1.7 103.527 5.5 96.5269C6.5 94.8269 6.89999 93.9269 7.2 93.9269C7.2 94.127 7 95.127 6.5 96.8269C4.10001 104.227 2.89999 109.327 2.89999 112.427C2.89999 116.227 3.89999 118.427 6 118.427C7.50002 118.327 9.00002 116.627 10.7 113.827ZM406.4 113.627C405.7 113.627 404.7 114.027 403.5 115.027C399.7 118.327 395.9 121.227 391.9 123.227C390.7 124.027 386.6 125.927 380.4 129.027L380.4 142.227C388.8 138.327 395.3 134.327 399.1 129.727C399.1 140.727 403.9 146.527 414 146.527C422.4 146.527 429.3 141.727 434.6 132.127C437.8 137.927 441.4 141.027 445.2 141.027C451 141.027 455.3 138.427 458.2 133.127C460.9 128.727 462.3 123.727 462.3 117.727C462.3 113.827 461.1 110.527 459.2 107.627C458.5 106.627 458 106.427 457.5 106.427C457 106.427 456.5 107.227 456.3 108.627C454.9 113.127 453.9 116.527 453.7 118.427C455.8 122.027 456.8 124.027 456.8 124.227C455.8 125.827 453.7 126.827 450.3 126.827C447.7 126.827 445.3 125.827 443.6 124.427C441.7 123.027 440.7 121.327 440.7 119.627C440.7 120.127 441.4 118.227 442.4 114.127C442.9 112.027 442.7 111.027 441.7 111.027C441 111.027 440.3 111.427 439.3 112.427C436.9 116.327 434.3 120.127 431.9 124.227C428 129.327 423 131.927 417 131.927C409.5 131.927 405.7 129.027 405.7 123.727C405.7 122.527 405.9 121.027 406.4 119.127C406.9 117.227 407.1 115.727 407.1 115.027C407.1 114.127 406.9 113.627 406.4 113.627ZM279.7 137.827C277.1 132.527 272.5 127.027 266.3 121.727C264.1 123.927 261.5 127.927 258.1 133.727C254.3 140.227 252.6 144.327 252.6 146.427C252.6 149.327 254.5 150.727 258.8 150.727C260.7 150.727 263.1 150.027 266.2 148.827C270.5 146.927 274.6 144.227 278 140.927C279.5 139.427 279.9 138.527 279.7 137.827ZM366.8 130.827C363.2 126.227 360.1 124.127 357.2 124.127C352.9 124.127 351 125.127 351 127.527C351 130.427 353.9 131.827 359.6 131.827C361.63 131.827 363.83 131.401 366.2 130.943C366.399 130.904 366.599 130.866 366.8 130.827ZM64.2 133.227C64.7 132.727 65.2 131.827 65.9 130.127C66.1 129.327 66.1 129.127 65.8 129.227C65.8 129.039 65.6424 129.087 65.2775 129.198C65.0612 129.264 64.7722 129.353 64.4 129.427C37.6 139.027 22.9 144.227 21 145.227C20.3 146.927 19.6 148.627 19.1 150.027C29.4 146.227 36.6 143.327 41.2 141.627C56.3 136.327 64 133.427 64.2 133.227ZM61 142.827C61.5 142.327 62 141.127 62.7 139.727C63 139.027 63 138.727 62.7 138.627C62.7 138.627 62.3 138.627 61.3 138.827C34.5 148.427 19.8 153.627 17.9 154.627C17.2 156.527 16.4 157.927 16.2 159.627C26.2 155.527 33.4 152.927 38 151.227C53.1 145.927 60.8 143.027 61 142.827ZM392.7 194.427C390.1 195.127 388.6 195.627 388.1 195.627L388.1 195.427C388.1 195.427 389.1 194.727 391 193.527C392.9 192.327 395.8 190.427 399.9 187.327C401.8 185.427 404.7 182.327 408.3 177.927C410.7 175.027 413.3 172.427 416.2 170.527C419.8 167.927 423.2 166.727 426.8 166.727C427.5 166.727 428.7 166.927 430.2 167.427C431.4 167.927 432.6 168.127 433.6 168.127C435.5 168.127 437 167.427 438.2 165.927C438.9 164.527 439.9 163.327 440.8 161.827C441.3 160.827 442 160.427 442.5 160.427C442.7 160.427 442.7 160.627 442.7 161.127C442.7 161.627 442.5 162.827 442 164.227C441.5 164.927 443.4 165.227 447 165.227C447.5 165.227 447.7 165.227 447.7 165.027C447.7 165.027 447.5 164.027 447 162.427C446.8 161.927 447 161.227 447.7 160.227L447.78 160.091C448.722 158.49 449.108 157.832 449.4 158.027C450.4 158.727 450.8 160.227 450.8 161.827C450.8 163.527 450.3 165.227 449.6 167.127C448.9 169.327 448.2 170.527 447.7 170.927C446 171.927 443.4 171.627 439.8 169.927C436.9 172.827 434 174.527 431.2 174.527C430.5 174.527 429.3 174.327 428.1 173.827C426.9 173.327 425.9 173.127 425.2 173.127C420.4 173.127 415.4 175.327 410.3 180.127L399.5 190.927C397.3 192.527 395.2 193.727 392.7 194.427ZM72.4 186.527C71.6 181.227 70 176.927 67.8 173.827C65.7 170.427 63.3 169.027 60.4 169.027C60.1 169.027 59.4 169.727 58.4 171.627C57.2 173.627 56.7 174.827 56.7 175.027C56.7 175.727 57.2 176.727 58.6 177.927C60.1 179.127 61 179.827 62 179.827C62.7 179.827 63 179.527 63.2 179.327C63.5 178.827 63.7 178.827 64.2 178.827C65.2 178.827 66.4 181.027 68.3 185.827C70.2 190.427 71.1 193.527 70.9 195.227C71.1 196.227 71.1 196.927 71.6 196.927C72.1 196.927 72.6 196.227 73.3 195.227C74 193.627 75 190.727 75.7 186.627C77.4 177.527 79.1 172.927 81 172.927C81.9 172.927 82.9 173.327 83.6 174.327C84.6 175.327 85.1 176.027 85.3 176.027C85.7 176.027 86.2 175.227 86.7 173.827C87.2 172.827 87.2 171.927 87.2 171.427C87.2 170.427 86.8 169.427 85.8 168.027C84.8 166.527 83.6 165.827 82.4 165.827C80.2 165.827 78.3 168.027 76.4 172.327C74.7 178.627 73.5 183.427 73 186.527C73 187.027 72.8 187.327 72.8 187.527L72.6 187.527C72.6 187.227 72.6 187.027 72.4 186.527ZM171.9 175.027C174.8 175.027 177.2 176.427 179.3 179.827C181.5 182.927 183.1 187.227 183.9 192.527C184.1 193.027 184.1 193.227 184.1 193.527L184.3 193.527C184.3 193.327 184.5 193.027 184.5 192.527C185 189.427 186.2 184.627 187.9 178.327C189.8 174.027 191.7 171.827 193.9 171.827C195.1 171.827 196.3 172.527 197.3 174.027C198.3 175.427 198.7 176.427 198.7 177.427C198.7 177.927 198.7 178.827 198.2 179.827C197.7 181.227 197.2 182.027 196.8 182.027C196.6 182.027 196.1 181.327 195.1 180.327C194.4 179.327 193.4 178.927 192.5 178.927C190.6 178.927 188.9 183.527 187.2 192.627C186.5 196.727 185.5 199.627 184.8 201.227C184.1 202.227 183.6 202.927 183.1 202.927C182.6 202.927 182.6 202.227 182.4 201.227C182.6 199.527 181.7 196.427 179.8 191.827C177.9 187.027 176.7 184.827 175.7 184.827C175.2 184.827 175 184.827 174.7 185.327C174.5 185.527 174.2 185.827 173.5 185.827C172.5 185.827 171.6 185.127 170.1 183.927C168.7 182.727 168.2 181.727 168.2 181.027C168.2 180.827 168.7 179.627 169.9 177.627C171 175.727 171.7 175.027 171.9 175.027ZM124.9 193.127C124.7 193.627 124.7 193.927 124.9 194.127C128.7 196.627 132.6 199.227 136.3 202.027C136.79 202.321 136.992 202.038 137.471 201.367L137.5 201.327C140.8 196.027 142.5 192.727 142.5 191.027C142.5 190.527 140.5 189.027 136.7 186.427C133.1 184.027 131 182.827 130.5 182.827C130.2 182.827 129.7 183.027 129.5 183.527L124.9 193.127Z" id="Group" fill="#595959" fill-rule="evenodd" stroke="none" clip-path="url(#clip_1)" />
  </g>
</svg>