<?xml version="1.0" encoding="utf-8"?>
<svg width="411.50015px" height="199.91707px" viewBox="0 0 411.50015 199.91707" version="1.1" xmlns:xlink="http://www.w3.org/1999/xlink" xmlns="http://www.w3.org/2000/svg">
  <defs>
    <path d="M411.5 0L411.5 0L411.5 199.917L0 199.917L0 0L411.5 0Z" id="path_1" />
    <clipPath id="clip_1">
      <use xlink:href="#path_1" clip-rule="evenodd" fill-rule="evenodd" />
    </clipPath>
  </defs>
  <g id="Surah_20_of_114_(modified)">
    <path d="M411.5 0L411.5 0L411.5 199.917L0 199.917L0 0L411.5 0Z" id="Surah_20_of_114_(modified)" fill="none" stroke="none" />
    <path d="M216.6 11.517C216.6 14.117 218.7 16.517 223.3 18.917C220 22.517 214.9 26.317 207.9 30.6171C201.9 33.9171 196.2 37.317 190.4 40.9171C189 41.6171 188.5 42.4171 188.5 42.6171C188.5 42.6171 188.5 42.817 188.7 42.817C188.9 42.817 189.9 42.6171 191.1 42.1171C198.8 39.317 203.1 37.6171 204.1 37.1171C207.7 35.7171 211.7 33.0171 216.3 29.9171C220.1 27.017 223.3 23.9171 225.9 20.317C228.1 21.517 229.5 22.717 230 23.717C232.1 20.917 233.1 18.717 233.1 17.517C232.6 16.517 231.2 15.317 228.8 14.1171C230 10.7171 230.5 7.81706 230.5 5.21706C230.5 2.41705 229.8 0.717056 228.1 0.217056C226.2 -0.482956 223.8 0.517044 220.9 3.11705C218 5.51704 216.6 8.41704 216.6 11.517ZM177.7 23.717C177.7 24.717 177.2 25.917 176.3 27.817C175.3 30.017 174.4 31.4171 173.4 31.9171C166.2 36.9171 158.5 39.6171 149.9 39.6171C148.5 39.6171 146.3 38.9171 143.4 37.9171C140.8 36.9171 139.1 36.0171 138.1 35.317L137.1 34.317C136.798 34.0151 136.679 33.8955 136.697 33.8041C136.709 33.7441 136.781 33.6963 136.9 33.6171C136.9 33.6171 137.6 33.6171 138.8 33.817C143.1 34.317 147.9 34.017 152.7 33.1171C154.4 32.1171 156.1 30.517 157.7 28.317C160.1 20.9171 161.5 16.817 161.5 16.517C161.5 15.1171 161 13.917 160.3 12.717C159.8 11.717 159.1 11.317 158.4 11.317C156.7 11.317 155.5 11.817 154.1 13.217C153.4 13.917 153.1 14.217 152.9 14.217L152.9 12.517C152.9 10.317 153.6 8.71704 155.1 7.01704C156.8 5.61705 158.2 4.81705 159.7 4.81705C163.1 4.81705 165 7.21704 165 12.217C165 15.617 163.3 20.417 160.2 26.117C165 21.817 169.1 19.617 172 19.617C173 19.617 173.9 19.817 175.4 20.617C177 21.517 177.7 22.717 177.7 23.717ZM104.5 137.017C101.4 141.017 97.8 145.417 93.5 150.417C90.1947 150.417 86.9838 149.566 83.5001 148.141L83.5001 147.817C80.1001 146.117 76.5001 141.817 72.9001 135.117C68.9001 127.717 65.3 124.117 61.9 124.117C58.3 124.117 54.4 126.217 50.1 130.317C46 134.417 42.4 139.417 39.5 145.417C36.1 152.617 32.8 159.617 29.4 166.817C26.3 172.817 22.9 175.717 19.1 175.717C9.50003 175.717 4.70003 165.617 4.70003 145.217C4.70003 140.617 5.20003 135.617 5.90002 129.617C6.02055 127.99 6.06844 126.835 5.93426 126.174C8.33768 125.256 10.0801 121.737 11.1 115.617C11.3 115.417 11.3 115.117 11.1 114.917C11.1 114.826 11.1 114.777 11.0814 114.768C11.0589 114.758 11.0093 114.808 10.9 114.917C10.9 114.917 10.7 115.217 10.7 115.417C9.00002 118.317 7.60002 119.917 6 120.017C3.89999 120.017 2.89999 117.817 2.89999 114.017C2.89999 110.917 4.10001 105.817 6.5 98.417C7 96.7171 7.2 95.7171 7.2 95.517C6.89999 95.517 6.5 96.417 5.5 98.1171C1.7 105.117 0 112.017 0 118.517C0 123.817 1.5 126.417 4.60001 126.417C4.62198 126.417 4.64392 126.417 4.66581 126.416C4.37357 126.951 4.0368 127.703 3.70003 128.617C2.10002 134.417 1.10002 142.117 1.10002 151.917C1.10002 159.817 2.50003 167.517 5.90002 174.917C9.80002 183.317 14.3 187.617 19.6 187.617C23.2 187.617 26.8 185.217 30.0001 180.417C32.2001 177.317 34.6001 172.317 37.2001 165.317C40.1001 158.317 42.0001 154.017 43.0001 152.317C49.2001 143.017 55.0001 138.417 60.5001 138.417C62.2001 138.417 64.1001 140.117 66.0001 143.217C69.8001 149.517 71.7001 152.817 72.2001 153.317C75.2278 157.517 79.0187 160.381 83.2001 162.283L83.2001 162.617C87.3001 164.317 93.6001 165.017 102.2 165.017C110.8 165.017 120.2 163.817 130.5 161.417C143.5 158.317 154.5 154.017 164.1 148.017C169.2 145.117 173 141.017 175.9 136.017C178.1 131.717 179.3 127.817 179.3 124.017C179.3 120.417 177.4 116.017 173.8 111.017C169.5 104.817 164.2 101.917 158.2 101.917C146 101.917 129.9 111.517 110.2 130.917C112.4 116.217 113.6 106.217 113.6 100.417C113.6 98.017 112.7 86.517 111 66.1171C109.1 46.2171 108.4 35.8171 108.4 35.6171C108.4 34.4171 108.6 34.1171 109.1 34.6171C113.1 39.4171 115.3 40.9171 115.3 38.7171C115.3 38.0171 115.1 36.8171 114.6 35.6171C114.2 33.7171 112.5 28.9171 109.6 21.0171C106.7 13.5171 104.8 9.01706 104.1 7.31706C103.6 6.61707 103.3 6.11707 103.1 6.11707C102.8 6.11707 102.6 6.61707 102.1 7.31706C99.4 13.7171 98 17.6171 98 19.5171C99.7 22.8171 100.4 26.7171 100.2 31.0171C100.2 33.6171 101.2 47.8171 103.1 73.2171C105 99.417 106.2 113.317 106.2 115.017L106.2 130.817C105.9 133.617 105.5 135.817 104.5 137.017ZM226.4 8.41704C226.7 9.81705 226.7 11.317 226.2 12.717C222.6 11.017 220.7 9.51704 220.6 8.31703C220.6 7.91704 221 7.41704 222 6.91704C223 6.41704 223.7 6.21704 224.2 6.21704C225.4 6.21704 226.2 7.01704 226.4 8.41704ZM268.2 25.617C268.2 25.617 268 25.917 268 26.117C266.3 29.017 264.8 30.717 263.3 30.717C261.2 30.717 260.2 28.517 260.2 24.717C260.2 21.617 261.4 16.517 263.8 9.11703C264.3 7.41704 264.5 6.41704 264.5 6.21704C264.2 6.21704 263.8 7.11705 262.8 8.81705C259 15.817 257.3 22.717 257.3 29.217C257.3 34.517 258.8 37.117 261.9 37.117C265 37.117 267.2 33.517 268.4 26.317C268.6 26.117 268.6 25.817 268.4 25.617C268.4 25.5264 268.4 25.4768 268.381 25.4683C268.359 25.4582 268.309 25.5077 268.2 25.617ZM172.2 27.117C172.2 26.617 172 26.417 171.2 25.917C170.5 25.417 169.8 25.417 169 25.417C167.8 25.417 166.1 26.117 163.5 27.817C160.9 29.717 158.9 31.217 158 32.617C160.4 32.417 163.5 31.417 167.1 29.717C170.5 28.317 172.2 27.317 172.2 27.117ZM72.6 59.717C73 59.717 73.3 59.017 74 57.817C75 55.1171 75.7 52.317 75.8 49.317C75.8 39.717 72 32.017 64.3 26.517C63.8 26.017 63.5 26.017 63.3 26.517L61.1 30.317C60.6 30.717 60.6 31.517 61.1 31.717C69.1 38.617 72.9 45.317 72.9 52.317C72.9 54.217 72.6 56.117 72.4 57.317C72.1 58.717 72.1 59.717 72.6 59.717ZM249.7 56.6171C273.9 47.517 299.1 38.4171 325.1 28.817C325.302 28.7593 325.488 28.6932 325.649 28.6356C326.047 28.4938 326.3 28.4037 326.3 28.6171C326.5 28.6171 326.5 29.1171 326.3 29.817C325.3 32.017 324.6 33.217 324.1 33.6171C323.9 33.817 311.6 38.4171 287.9 47.317C263.7 56.2171 250 61.7171 247.3 63.417C247.8 61.1171 248.5 59.017 249.7 56.6171ZM380.3 57.817C377.9 63.617 376.7 68.117 376.7 71.517C376.7 75.6171 377.7 77.7171 379.8 77.7171C381 77.7171 382.4 76.017 384.1 73.1171C384.3 72.917 384.3 72.6171 384.6 72.417C384.6 72.417 384.8 72.417 384.8 72.6171L384.8 73.3171C383.4 80.5171 381.2 84.1171 378.3 84.1171C375.2 84.1171 373.7 81.517 373.7 76.2171C373.7 73.6171 374.2 70.2171 375.6 65.9171C377 61.6171 377.8 59.4171 377.8 59.2171C377.8 58.7171 376.8 57.8171 374.7 56.6171C370.9 61.6171 365.6 66.417 358.9 70.517C354.3 73.1171 349.8 75.517 345 77.517C336.1 81.1171 330.8 83.017 329.6 83.7171C328.4 84.2171 327.7 84.4171 327.2 84.4171C327 84.4171 327 84.2171 327 84.2171C327 83.7171 327.5 83.2171 328.9 82.3171C336.6 78.0171 344 73.7171 351.7 69.3171C361.8 63.5171 368.7 58.7171 372.1 55.1171C367.5 52.7171 365.4 50.3171 365.4 47.7171C365.4 44.6171 366.8 41.7171 369.7 39.1171C372.6 36.7171 375 35.7171 376.9 36.517C378.3 37.017 379.3 38.717 379.3 41.517C379.3 44.1171 378.8 47.017 377.6 50.1171C380 51.517 381 53.017 381 54.417C381 55.1171 380.8 56.317 380.3 57.817ZM375 48.917C375.5 47.517 375.5 46.017 375.2 44.617C375 43.217 374.2 42.417 373 42.417C372.5 42.417 371.8 42.617 370.8 43.117C369.8 43.617 369.4 44.117 369.4 44.517C369.5 45.817 371.4 47.217 375 48.917ZM219.4 47.517L215.6 55.417C214.7 54.417 212.5 52.717 209.4 50.9171C206.3 48.7171 204.6 47.5171 204.1 47.5171C203.8 47.5171 203.3 48.0171 203.1 48.5171L198.5 58.1171C198.3 58.6171 198.3 58.9171 198.5 59.1171C202.4 61.5171 206.2 64.1171 209.8 67.0171C210.3 67.3171 210.8 67.0171 211 66.3171C212.5 64.1171 213.7 61.517 215.1 58.6171C219.2 61.2171 222.8 63.6171 225.9 66.017C226.3 66.2171 226.8 66.2171 227.3 65.517C230.4 60.217 232.1 56.6171 232.1 54.917C232.1 54.417 230.2 53.017 226.6 50.6171C222.8 48.017 220.9 46.817 220.4 46.817C219.9 46.817 219.6 47.017 219.4 47.517ZM19.3 55.1171C22.2 55.1171 24.6 56.517 26.7 59.917C28.9 63.017 30.5 67.317 31.3 72.6171C31.5 73.1171 31.5 73.3171 31.5 73.6171L31.7 73.6171C31.7 73.417 31.9 73.1171 31.9 72.6171C32.4 69.517 33.6 64.7171 35.3 58.417C37.2 54.1171 39.1 51.917 41.3 51.917C42.5 51.917 43.7 52.6171 44.7 54.1171C45.7 55.517 46.1 56.517 46.1 57.517C46.1 58.017 46.1 58.917 45.6 59.917C45.1 61.317 44.6 62.1171 44.2 62.1171C44 62.1171 43.5 61.417 42.5 60.417C41.8 59.417 40.8 59.017 39.9 59.017C38 59.017 36.3 63.6171 34.6 72.7171C33.9 76.8171 32.9 79.7171 32.2 81.3171C31.5 82.3171 31 83.0171 30.5 83.0171C30 83.0171 30 82.3171 29.8 81.3171C30 79.6171 29.1 76.5171 27.2 71.9171C25.3 67.1171 24.1 64.9171 23.1 64.9171C22.6 64.9171 22.4 64.9171 22.1 65.4171C21.9 65.6171 21.6 65.9171 20.9 65.9171C19.9 65.9171 19 65.2171 17.5 64.0171C16.1 62.8171 15.6 61.8171 15.6 61.1171C15.6 60.9171 16.1 59.7171 17.3 57.7171C18.4 55.917 19.1 55.1171 19.3 55.1171ZM297.9 64.317C295.8 60.917 293.4 59.517 290.5 59.517C290.3 59.517 289.6 60.217 288.5 62.1171C287.3 64.1171 286.8 65.3171 286.8 65.5171C286.8 66.2171 287.3 67.2171 288.7 68.4171C290.2 69.6171 291.1 70.3171 292.1 70.3171C292.8 70.3171 293.1 70.0171 293.3 69.8171C293.6 69.3171 293.8 69.3171 294.3 69.3171C295.3 69.3171 296.5 71.5171 298.4 76.3171C300.3 80.9171 301.2 84.017 301 85.7171C301.2 86.7171 301.2 87.4171 301.7 87.4171C302.2 87.4171 302.7 86.7171 303.4 85.7171C304.1 84.1171 305.1 81.2171 305.8 77.1171C307.5 68.017 309.2 63.417 311.1 63.417C312 63.417 313 63.817 313.7 64.817C314.7 65.817 315.2 66.517 315.4 66.517C315.8 66.517 316.3 65.717 316.8 64.317C317.3 63.317 317.3 62.417 317.3 61.917C317.3 60.917 316.9 59.917 315.9 58.517C314.9 57.017 313.7 56.317 312.5 56.317C310.3 56.317 308.4 58.517 306.5 62.817C304.8 69.1171 303.6 73.917 303.1 77.017C303.1 77.517 302.9 77.817 302.9 78.017L302.7 78.017C302.7 77.7171 302.7 77.517 302.5 77.017C301.7 71.717 300.1 67.417 297.9 64.317ZM175.8 78.217C175.8 78.217 175.6 78.517 175.6 78.717C173.9 81.517 172.4 83.217 170.9 83.317C168.8 83.317 167.8 81.117 167.8 77.317C167.8 74.217 169 69.117 171.4 61.717C171.9 60.017 172.1 59.017 172.1 58.817C171.8 58.817 171.4 59.717 170.4 61.417C166.6 68.417 164.9 75.317 164.9 81.817C164.9 87.117 166.4 89.717 169.5 89.717C172.6 89.717 174.8 86.1171 176 78.917C176.2 78.717 176.2 78.417 176 78.217C176 78.1263 176 78.0768 175.981 78.0683C175.959 78.0581 175.91 78.1073 175.8 78.2168L175.8 78.217ZM141.5 91.6171C140.8 92.8171 140.5 93.517 140.1 93.517C139.6 93.517 139.6 92.517 139.9 91.1171C140.1 89.917 140.4 88.017 140.4 86.1171C140.4 79.1171 136.6 72.417 128.6 65.517C128.1 65.317 128.1 64.517 128.6 64.1171L130.8 60.3171C131 59.8171 131.3 59.8171 131.8 60.3171C139.5 65.8171 143.3 73.5171 143.3 83.1171C143.2 86.1171 142.4 89.017 141.5 91.6171ZM238.2 73.417C238.2 77.217 236.3 82.517 232.4 89.017C230 93.1171 226.4 98.6171 221.6 105.817C226.4 111.317 229.8 116.417 231.4 120.717C232.4 123.817 233.1 127.917 233.1 132.517C233.1 134.417 232.6 136.817 231.7 139.917C231 142.817 230 144.917 229.1 146.417C227.2 149.317 224.1 152.217 219.3 155.017C214.3 158.417 209.9 160.017 206.3 160.017C200.5 160.017 197.7 155.717 197.7 147.017C197.7 141.217 198.7 135.517 200.6 130.217C202.5 125.617 205.6 119.617 210.7 111.717C206.4 107.617 201.8 101.917 196.8 94.717C196.3 94.017 195.1 92.817 193.2 90.917C192.2 89.917 191.8 88.717 191.8 87.317C191.8 85.117 192 82.717 192.5 79.917C193.2 77.017 193.7 75.817 193.9 75.817C194.6 75.817 196.8 77.017 200.9 79.617C204.7 82.217 207.9 84.217 209.8 85.817C211 86.517 211.5 87.217 211.5 87.217L211.5 87.417C211.5 87.6171 210.8 87.917 209.1 87.917C206 87.917 204.3 88.1171 204.3 88.417C204.3 88.6171 204.8 89.1171 205.7 90.317C209.5 95.117 213.4 98.717 217.5 101.617C218.5 100.217 221.8 95.417 227.1 87.217C231.7 80.217 234.3 75.417 235.5 72.617C236.7 69.717 237.4 68.517 237.9 68.517C238 68.6171 238.2 70.017 238.2 73.417ZM55.8 75.817C54.6 77.017 54.3 79.217 55.3 82.317C53.9 84.417 53.4 86.817 53.4 89.317C53.4 92.417 55.6 94.517 59.9 95.517C56.3 98.817 51.3 102.417 44.8 106.517C39 109.917 33.3 113.217 27.5 116.617C26.3 117.317 25.6 118.117 25.6 118.317C25.6 118.317 25.6 118.517 25.8 118.517C26.3 118.517 27 118.317 28.2 117.817C36.2 115.017 40.5 113.317 41.2 112.817C45 111.217 49.1 108.817 53.4 105.417C57.2 102.717 60.4 99.6171 63 96.017C68 96.517 70.7 96.7171 70.9 96.7171C71.9 96.7171 72.8 95.7171 73.8 93.8171C75 91.7171 75.5 90.0171 75.5 88.3171C75.5 87.8171 75.3 87.3171 75.3 87.1171C73.4 82.6171 69.6 78.7171 63.8 75.6171C62.1 74.6171 60.6 74.417 59.2 74.417C58 74.417 56.8 74.817 55.8 75.817ZM62.3 85.317C62.8 87.017 62.8 88.517 62.3 89.917C57.7 89.517 55.6 88.517 55.6 86.917C55.6 86.517 56.3 85.517 57.3 84.317C58.5 83.417 59.4 82.917 59.9 82.917C61.1 82.917 61.8 83.617 62.3 85.317ZM65.4 83.917C68.5 85.1171 70.7 87.017 71.9 89.917C72.4 90.717 72.4 91.1171 72.1 91.417L71.6 91.417C67.3 90.917 64.9 90.417 64.4 90.417C65.2 88.717 65.4 86.517 65.4 83.917ZM255.7 101.717C256.7 102.917 257.4 104.517 257.9 106.717C259.1 110.817 261.5 116.617 264.8 123.617C267.7 129.917 269.1 133.217 269.1 133.717C269.1 135.717 266.2 138.817 260.7 143.117C255.841 146.728 249.517 150.857 241.726 155.446C242.456 150.965 243.74 145.577 245.6 139.217C245.9 137.717 246.1 136.517 246.1 135.817C246.1 135.317 246.1 135.117 245.9 135.117C245.4 135.117 244.9 136.117 243.7 138.517C241.325 144.93 239.585 151.166 238.562 157.289C235.366 159.13 231.945 161.041 228.3 163.017C218.9 168.117 207.2 173.617 193 179.617C172.6 188.217 161.5 193.017 159.6 194.017C154.3 196.417 151.7 197.917 151.7 198.117C151.7 198.317 151.7 198.317 152.2 198.317C153.2 198.317 155.6 198.017 159.4 197.317C163 196.817 172.1 194.717 186.5 191.317C200.2 188.017 207.4 186.317 207.9 186.317C210.5 186.317 218.9 182.217 233.3 173.817C234.747 173.006 236.158 172.2 237.531 171.398C237.796 178.582 239.772 184.775 243.3 189.417C247.6 195.417 253.8 198.517 262 198.517C271.6 198.517 282.6 193.517 295.6 183.917C304.3 177.417 312.2 169.917 319.4 161.317C322.5 157.717 325.1 153.117 326.8 147.617C328.3 143.217 329 139.917 329 137.017L329.5 136.517L329.5 123.317C328.5 123.817 328 123.817 327.8 123.817C325.4 118.817 322.5 114.717 319.4 111.117C315.8 107.517 312.7 105.617 309.6 105.617C305.5 105.617 301.7 107.717 298.1 111.817C294.3 116.617 292.6 121.917 292.6 127.917C292.6 135.817 298.4 139.917 309.9 139.917C315.2 139.917 319.5 139.217 322.4 138.217C322.9 139.917 323.4 141.617 323.4 143.017C323.4 145.117 319.8 149.517 312.8 156.317C305.1 163.517 297.2 169.517 289 174.517C278.6 180.817 270 183.917 262.8 183.917C254.4 183.917 248.4 181.217 244.6 176.217C243.171 174.073 242.167 171.646 241.589 168.977C253.862 161.488 262.829 154.43 268.6 147.917C270.6 145.717 272 142.617 273.2 138.517C274.1 134.917 274.6 132.017 274.6 129.617C274.6 124.517 273.1 119.017 270.5 112.317C268.8 108.517 266.9 104.417 265.2 100.317C268.1 101.017 270 101.517 270.7 101.517C271.2 101.517 271.4 101.217 271.4 101.017C271.4 100.517 270.7 99.617 269 97.917C265 93.817 261.4 89.917 258 86.117C257.5 85.617 257.2 85.417 257 85.417C256.5 85.417 256.2 85.917 256 87.117C255.5 88.317 255.3 90.517 254.8 93.617C254.3 96.917 254.3 98.617 254.3 99.117C254.5 99.517 255 100.317 255.7 101.717ZM355.6 108.217C354.9 108.217 353.9 108.617 352.7 109.617C348.8 113.017 345 115.917 341.1 117.817C339.9 118.617 335.8 120.517 329.6 123.617L329.6 136.817C338 132.917 344.5 128.917 348.3 124.317C348.3 135.317 353.1 141.117 363.2 141.117C371.6 141.117 378.5 136.317 383.8 126.717C387 132.517 390.6 135.617 394.4 135.617C400.2 135.617 404.5 133.017 407.4 127.717C410.1 123.317 411.5 118.317 411.5 112.317C411.5 108.417 410.3 105.117 408.4 102.217C407.7 101.217 407.2 101.017 406.7 101.017C406.2 101.017 405.7 101.817 405.5 103.217C404.1 107.717 403.1 111.117 402.9 113.017C405 116.617 406 118.617 406 118.817C405 120.417 402.9 121.417 399.5 121.417C396.9 121.417 394.5 120.417 392.8 119.017C390.9 117.617 389.9 115.917 389.9 114.217C389.9 114.717 390.6 112.817 391.6 108.717C392.1 106.617 391.9 105.617 390.9 105.617C390.2 105.617 389.5 106.017 388.5 107.017C386.1 110.917 383.5 114.717 381.1 118.817C377.2 123.917 372.2 126.517 366.2 126.517C358.7 126.517 354.9 123.617 354.9 118.317C354.9 117.117 355.1 115.617 355.6 113.717C356.1 111.817 356.3 110.317 356.3 109.617C356.3 108.717 356.1 108.217 355.6 108.217ZM170.5 130.817C171 132.017 170.7 132.717 169.3 133.417C148 144.917 124.4 150.717 98.7 150.717C119.6 127.517 137.4 115.717 152.5 115.717C159.5 115.717 165.5 120.717 170.5 130.817ZM228.8 132.417C226.2 127.117 221.6 121.617 215.4 116.317C213.2 118.517 210.6 122.517 207.2 128.317C203.4 134.817 201.7 138.917 201.7 141.017C201.7 143.917 203.6 145.317 207.9 145.317C209.8 145.317 212.2 144.617 215.3 143.417C219.6 141.517 223.7 138.817 227.1 135.517C228.6 134.117 229.1 133.117 228.8 132.417ZM316 125.517C312.4 120.917 309.3 118.817 306.4 118.817C302.1 118.817 300.2 119.817 300.2 122.217C300.2 125.117 303.1 126.517 308.8 126.517C310.9 126.417 313.3 125.917 316 125.517ZM341.9 189.317C339.3 190.017 337.8 190.517 337.3 190.517L337.3 190.317C337.3 190.317 338.3 189.617 340.2 188.417C342.1 187.217 345 185.317 349.1 182.217C351 180.317 353.9 177.217 357.5 172.817C359.9 169.917 362.5 167.317 365.4 165.417C369 162.817 372.4 161.617 376 161.617C376.7 161.617 377.9 161.817 379.4 162.317C380.6 162.817 381.8 163.017 382.8 163.017C384.7 163.017 386.2 162.317 387.4 160.817C388.1 159.417 389.1 158.217 390 156.717C390.5 155.717 391.2 155.317 391.7 155.317C391.9 155.317 391.9 155.517 391.9 156.017C391.9 156.517 391.7 157.717 391.2 159.117C390.7 159.817 392.6 160.117 396.2 160.117C396.7 160.117 396.9 160.117 396.9 159.917C396.9 159.917 396.7 158.917 396.2 157.317C396 156.817 396.2 156.117 396.9 155.117L396.98 154.981C397.922 153.38 398.308 152.722 398.6 152.917C399.6 153.617 400 155.117 400 156.717C400 158.417 399.5 160.117 398.8 162.017C398.1 164.217 397.4 165.417 396.9 165.817C395.2 166.817 392.6 166.517 389 164.817C386.1 167.717 383.2 169.417 380.4 169.417C379.7 169.417 378.5 169.217 377.3 168.717C376.1 168.217 375.1 168.017 374.4 168.017C369.6 168.017 364.6 170.217 359.5 175.017L348.7 185.817C346.4 187.417 344.3 188.617 341.9 189.317ZM133.8 187.617C133.8 187.617 133.6 187.917 133.6 188.117C131.9 191.017 130.4 192.717 128.9 192.717C126.8 192.717 125.8 190.517 125.8 186.717C125.8 183.617 127 178.517 129.4 171.117C129.9 169.417 130.1 168.417 130.1 168.217C129.8 168.217 129.4 169.117 128.4 170.817C124.6 177.817 122.9 184.717 122.9 191.217C122.9 196.517 124.4 199.117 127.5 199.117C130.6 199.117 132.8 195.517 134 188.317C134.2 188.117 134.2 187.817 134 187.617C134 187.526 134 187.477 133.981 187.468C133.959 187.458 133.909 187.508 133.8 187.617ZM50.8 172.017C53.7 172.017 56.1 173.417 58.2 176.817C60.4 179.917 62 184.217 62.8 189.517C63 190.017 63 190.217 63 190.517L63.2 190.517C63.2 190.317 63.4 190.017 63.4 189.517C63.9 186.417 65.1 181.617 66.8 175.317C68.7 171.017 70.6 168.817 72.8 168.817C74 168.817 75.2 169.517 76.2 171.017C77.2 172.417 77.6 173.417 77.6 174.417C77.6 174.917 77.6 175.817 77.1 176.817C76.6 178.217 76.1 179.017 75.7 179.017C75.5 179.017 75 178.317 74 177.317C73.3 176.317 72.3 175.917 71.4 175.917C69.5 175.917 67.8 180.517 66.1 189.617C65.4 193.717 64.4 196.617 63.7 198.217C63 199.217 62.5 199.917 62 199.917C61.5 199.917 61.5 199.217 61.3 198.217C61.5 196.517 60.6 193.417 58.7 188.817C56.8 184.017 55.6 181.817 54.6 181.817C54.1 181.817 53.9 181.817 53.6 182.317C53.4 182.517 53.1 182.817 52.4 182.817C51.4 182.817 50.5 182.117 49 180.917C47.6 179.717 47.1 178.717 47.1 178.017C47.1 177.817 47.6 176.617 48.8 174.617C49.8 172.717 50.5 172.017 50.8 172.017Z" id="Group" fill="#595959" fill-rule="evenodd" stroke="none" clip-path="url(#clip_1)" />
  </g>
</svg>