<?xml version="1.0" encoding="utf-8"?>
<svg width="550.5001px" height="201.5px" viewBox="0 0 550.5001 201.5" version="1.1" xmlns:xlink="http://www.w3.org/1999/xlink" xmlns="http://www.w3.org/2000/svg">
  <defs>
    <path d="M550.5 0L550.5 0L550.5 201.5L0 201.5L0 0L550.5 0Z" id="path_1" />
    <clipPath id="clip_1">
      <use xlink:href="#path_1" clip-rule="evenodd" fill-rule="evenodd" />
    </clipPath>
  </defs>
  <g id="Surah_111_of_114_(modified)">
    <path d="M550.5 0L550.5 0L550.5 201.5L0 201.5L0 0L550.5 0Z" id="Surah_111_of_114_(modified)" fill="none" stroke="none" />
    <path d="M241.6 1.7C242.3 0.5 243.3 0 244 0C244.5 0 245 0.199997 245 0.699997C245 0.699997 244.8 0.899994 244.8 1.2C243.8 3.39999 242.9 5.8 242.2 8.2C247.2 11.8 249.6 15.6 249.4 19.2C248.9 23.3 248.4 25.9 247.7 26.9C245.3 29.8 242.7 31.5 239.3 31.5C235.9 31.5 234.5 29.3 234.5 25.5C234.5 24.8 234.5 23.8 234.7 22.9C235.8 15.1 238.2 8.10001 241.6 1.7ZM287.7 148.1C292.8 139.9 295.4 128.9 295.4 114.7C295.4 109.7 294.4 94.5 292.6 69.5C290.7 44.1 289.7 31.1 289.7 30.9C289.7 29.7 289.9 29.4 290.4 29.9C294.4 34.7 296.6 35.9 296.6 33.7C296.6 33.2 296.3 32 296.1 30.6C295.4 28.9 293.7 24.1 290.8 16.2C287.9 8.7 286 4.2 285.3 2.5C284.8 1.5 284.5 1.3 284.3 1.3C283.8 1.3 283.5 1.60001 283.3 2.3C280.6 8.7 279.2 12.8 279.2 14.5C280.7 17.6 281.4 21.4 281.4 26C281.4 31.3 282.3 48.3 284.5 77.1C286.7 105.9 287.9 122.4 287.9 126.5C287.9 133.3 287.2 137.3 286 138.3C281.762 141.848 277.33 143.745 272.8 143.799L272.8 143.6C268.7 143.6 265.6 143.1 263.2 141.9C262.2 141.4 260.3 140 257.4 137.6C256.4 136.8 255.7 136.6 255.2 136.6C254.2 136.6 253 137.3 251.6 139.2C248 143.2 245.6 145.9 244.6 146.6C240.1 149.9 234.6 151.6 227.6 151.6L227.6 151.8C224.5 151.8 221.9 150.6 219.7 148.7C217.8 146.5 216.6 143.7 216.6 140.3C216.6 140.1 216.6 139.4 216.8 138.4C216.8 137.7 217 137 217 136.5C217 135.5 216.5 134.8 216 134.8C215 134.8 214.5 135.5 213.8 136.7C208.1 148.2 201.4 154 193.2 154C190.3 154 187.7 152.6 186 149.7C184.5 147.5 183.8 145.6 183.8 143.9C183.8 143.2 184 141.8 185 139.6C185.5 137.7 185.5 137 184.5 137C184.3 137 182.1 139 178.5 142.8C174.4 147.2 172.3 149.6 171.8 149.8C166.3 154.3 160.5 156.5 154.5 156.5C150.4 156.5 146.8 155.5 144.3 153.5C141.6 151.6 140.2 149 140.2 145.6C140.2 144.2 140.5 142.5 141.2 140.6C141.7 139 141.2 138.2 140 138C139.1 138.2 138.4 138.4 137.4 139.4C129.8 147.1 125 151.7 122.8 153.1C117.5 157 111.3 158.9 104.1 158.9L104.1 158.8C100.5 158.8 97.6 158.3 95.9 157.1C92.6 155 90.4 150.7 89.2 143.7C86.6 127.9 84.2 115.4 82.5 106.5C78.4 86.6 71.9 70.8 63.5 59.5C62.5 58.3 61.8 58.8 61.3 60.5C60.8 61.9 60.6 64.3 60.1 67.7C59.4 71.3 59.2 73.2 59.4 73.7C66.6 89.5 71.4 101 73.3 108.7C75.7 118.7 77.1 125.9 77.1 130.5C77.1 132.5 76.8 133.9 76.1 135.1C76.1 135.1 75.4 136.3 73.5 138.7C68 146.1 60.3 153.1 50.5 159.8C37.8 168.5 26 172.8 15 172.8C7.39999 172.8 3.49999 168.9 3.59999 161C3.59999 155.5 4.99999 147.6 7.89999 137C8.30404 135.788 8.51218 134.772 8.57719 134.057C11.3742 133.63 13.3759 130.045 14.5 123.3C14.7 123.1 14.7 122.8 14.5 122.6C14.5 122.509 14.5 122.46 14.4813 122.451C14.4589 122.441 14.4093 122.491 14.3 122.6C14.3 122.6 14.1 122.9 14.1 123.1C12.4 126 11 127.7 9.39999 127.7C7.3 127.7 6.3 125.5 6.3 121.7C6.3 118.6 7.5 113.5 9.89999 106.1C10.4 104.4 10.6 103.4 10.6 103.2C10.3 103.2 9.89999 104.1 8.89999 105.8C5.09998 112.8 3.39999 119.7 3.39999 126.2C3.39999 131.096 4.67995 133.688 7.3187 134.055C6.99473 134.613 6.62437 135.366 6.19999 136.3C2.19999 146.9 -7.62939e-06 157.4 -7.62939e-06 167.5C-7.62939e-06 172.8 0.899994 177.1 3.09999 180.7C5.8 185 9.89999 187.2 14.9 187.2C24.7 187.2 35.5 183.3 47.3 175.9C57.4 169.5 66.3 161.8 73.5 152.9C77.1 148.3 79.5 142.6 80.7 135.6C81.9 144.5 82.8 150.2 83.3 153.1C84.9 161.5 87.6 167.3 91.9 170.4C94.7 172.5 98.8 173.5 104.1 173.5C110.8 173.5 117.3 170.8 123.5 165.3C124.9 164.1 128.1 160.8 133.1 155C133.9 154.1 134.6 153.8 135.3 153.6C135.8 153.9 136 154.1 136 154.6C136.2 159.2 137.2 162.8 138.6 165.2C141.2 169.1 145.6 171 151.8 171C157.5 171 163.3 168.3 169.3 163.3C172.9 159.9 175.6 156.8 177.5 153.7C178 153 178.3 152.5 178.5 152.5C178.5 152.5 178.7 153 178.7 153.7C180.4 163.6 184.9 168.6 192.6 168.6C200.3 168.6 206.3 163.1 210.6 152.3C211.1 151.1 211.6 151.1 211.8 152.3C215.1 161.7 220.4 166.5 227.6 166.5C233.1 166.5 237.9 164.3 242.2 160.5C244.6 157.4 247 154.5 249.4 151.9C249.8 150.9 250.3 150.2 250.8 150.2C251.1 150.2 251.1 150.9 251.3 151.9C251.7 157.7 252.7 162.3 253.9 164.9C256.1 169.7 260.1 173.7 265.9 177.1C267.8 178.1 269 178.8 270 178.8C270.7 178.8 271.2 177.8 271.9 176.4C273.1 173.5 273.8 170.1 273.8 166.3C273.8 163.244 273.344 160.552 272.693 158.4C278.355 158.361 283.423 154.764 287.7 148.1ZM196 4.5C193.4 2.39999 191.5 1.39999 189.8 1.39999C186.9 1.39999 185 4.5 184.3 10.9C184 11.8 184.3 12.3 184.5 12.3C184.5 12.3 185.2 11.8 186.2 10.4C187.2 9.20001 187.9 8.70001 188.4 8.70001C189.6 8.70001 190.8 9.20001 192 10.4C189.1 11.3 187 12.3 186 13C183.6 14.9 182.6 17.8 182.6 21.9C182.6 22.9 183.3 27.7 185 35.6C186.6 43.5 187.6 50.5 187.6 56C187.6 59.4 187.6 61.3 187.8 61.3C188 61 188.3 60.6 188.5 59.6C189 56.5 189.5 53.6 189.5 50.7C189.5 40.8 187.9 31 184.5 20.9C185.7 19.7 187.6 18.5 190.7 17.5C193.1 16.7 195.5 16 197.9 15.3C198.1 15.3 198.6 14.6 199.3 12.9C200.1 11.2 200.5 10.3 200.3 9.8C200.1 8.3 198.6 6.39999 196 4.5ZM304.4 14.6C305.9 17.8 306.6 21.6 306.6 26.4C306.6 30.5 307.8 49.4 310.3 83.2999C312.7 117.1 313.9 136.3 313.9 141.1C313.9 146.2 313.7 150.7 313.2 154.8C313.171 155.179 313.142 155.544 313.114 155.893C312.95 157.935 312.829 159.446 313 160.3C313.2 161 313.5 161 314.2 159.8C314.7 158.9 315.1 157.7 316.1 156C319.4 147.4 321.1 137.3 321.1 126C321.1 122.2 320.2 105.6 318 76.1C315.8 46.4 314.6 31.5 314.6 31C314.6 29.8 314.8 29.3 315.3 30C319.6 34.8 321.5 36 321.5 33.8C321.5 33.3 321.5 32.1 321 30.9C320.5 29 318.8 24.2 315.7 16.3C312.8 8.79999 311.1 4.29999 310.4 2.59999C309.9 1.89999 309.7 1.39999 309.2 1.39999C309 1.39999 308.7 1.89999 308.5 2.59999C305.6 8.79999 304.4 12.9 304.4 14.6ZM355.6 13.9C355.6 16.5 357.7 18.9 362.3 21.3C359 24.9 353.9 28.8 346.9 33C340.9 36.3 335.2 39.7 329.4 43.3C328 44 327.5 44.8 327.5 45C327.5 45 327.5 45.2 327.7 45.2C327.9 45.2 328.9 45 330.1 44.5C337.8 41.7 342.1 40 343.1 39.5C346.7 38.1 350.7 35.4 355.3 32.3C359.1 29.4 362.3 26.3 364.9 22.7C367.1 23.9 368.5 25.1 369 26.1C371.1 23.3 372.1 21.1 372.1 19.9C371.6 18.9 370.2 17.7 367.8 16.5C369 13.1 369.5 10.2 369.5 7.60002C369.5 4.80002 368.8 3.10002 367.1 2.60002C365.2 1.90001 362.8 2.90001 359.9 5.50002C357 7.90001 355.6 10.8 355.6 13.9ZM410.3 24.7C410.3 24.7 410.1 25 410.1 25.2C408.4 28.1 407 29.7 405.4 29.8C403.3 29.8 402.3 27.6 402.3 23.8C402.3 20.7 403.5 15.6 405.9 8.2C406.4 6.5 406.6 5.5 406.6 5.3C406.3 5.3 405.9 6.20001 404.9 7.90001C401.1 14.9 399.4 21.8 399.4 28.3C399.4 33.6 400.9 36.2 404 36.2C407.1 36.2 409.3 32.6 410.5 25.4C410.7 25.2 410.7 24.9 410.5 24.7C410.5 24.6093 410.5 24.5598 410.481 24.5513C410.459 24.5411 410.409 24.5907 410.3 24.7ZM146.6 10.5C146.6 13.1 145.4 16 143.5 19.1C141.3 22.2 138.7 25.1 135.3 27.5C133.9 28.5 133.1 28.9 132.9 28.9L132.9 28.7C132.9 28.5 133.4 28 134.3 26.8C139.8 20.8 142.7 17 142.7 14.8C142.7 13.1 141.7 12.2 140.1 12.2C139.1 12.2 138.2 12.4 137.5 12.9C136.8 13.1 136.5 13.4 136.3 13.4C136.3 13.4 136.1 13.4 136.1 13.2C136.1 13.2 136.1 12.7 136.3 11.8C137.3 7.7 139.2 5.8 142.5 5.8C145.1 5.7 146.6 7.39999 146.6 10.5ZM365.4 10.8C365.7 12.2 365.7 13.7 365.2 15.1C361.6 13.4 359.7 12 359.6 10.7C359.6 10.3 360 9.8 361 9.3C362 8.8 362.7 8.60001 363.2 8.60001C364.4 8.60001 365.2 9.40001 365.4 10.8ZM246.9 20.9C246.9 19.7 244.5 17.5 239.5 14.7C237.8 17.6 237.1 20.2 237.1 22.6C237.1 24 237.8 25 239.3 25C240.5 25 241.9 24.5 243.6 23.6C245.2 22.8 246.4 21.8 246.9 20.9ZM106.7 24.7C107 23.7 107.2 22.8 107.2 22.3C107.2 21.3 106.7 20.4 105.6 19.1C104.4 17.6 103.2 16.9 102.2 16.9C99.8 16.9 97.9 19.1 96 23.4C94.3 29.6 93.4 34.4 92.9 37.3C92.6 38.1 92.4 38.3 92.4 38.3C92.4 38.3907 92.4 38.4403 92.3814 38.4487C92.3589 38.4589 92.3096 38.4096 92.2 38.3L92.2 37.3C91.2 32.2 89.8 27.9 87.6 24.8C85.5 21.4 82.8 20 80.2 20C79.8 20 78.6 21.9 76.4 26C76.3869 26.0329 76.3767 26.0679 76.3697 26.1051C74.8402 28.4755 72.0644 31.4989 67.4 34.9C55.6 42.8 46.5 48.6 39.8 52.2C38.6 52.9 37.9 53.7 37.9 53.9C37.9 53.9 37.9 54.1 38.1 54.1C38.6 54.1 39.3 53.9 40.5 53.4C48.5 50.6 52.8 48.9 53.5 48.4C57.1 46.8 61.1 44.4 65.7 41C70 37.9 73.4 34.3 75.8 29.7C76.2402 28.8824 76.6113 28.1538 76.9069 27.5173C77.1885 27.9202 77.5828 28.3828 78.1 28.9C79.5 30.1 80.7 30.8 81.7 30.8C82.4 30.8 82.9 30.5 83.1 30.3C83.1 29.8 83.6 29.8 84.1 29.8C84.8 29.8 86.2 32 87.9 36.8C89.8 41.4 90.8 44.5 90.8 46.2C90.8 47.1 91.1 47.6 91.3 47.6C91.8 47.6 92.3 47.1 93 45.9C94 44.2 94.7 41.6 95.4 37.5C97.1 28.4 99 23.8 100.9 23.8C101.6 23.8 102.6 24.2 103.3 25.2C104.3 26.2 104.8 26.9 105 26.9C105.7 26.9 106.2 26.1 106.7 24.7ZM76.9069 27.5173C76.4763 26.9012 76.3092 26.4244 76.3697 26.1051C76.4142 26.0362 76.4576 25.9678 76.5 25.9C77 24.9 77.5 24.5 77.7 24.5C77.7 24.5 77.9 24.7 77.7 24.7C77.8371 25.1799 77.5513 26.1297 76.9069 27.5173ZM388.7 59C412.9 49.9 438.1 40.8 464.1 31.2C464.302 31.1422 464.488 31.0761 464.649 31.0186C465.047 30.8768 465.3 30.7866 465.3 31C465.5 31 465.5 31.5 465.3 32.2C464.3 34.4 463.6 35.6 463.1 36C462.9 36.2 450.6 40.8 426.9 49.7C402.7 58.6 389 64.1 386.3 65.8C386.8 63.6 387.5 61.4 388.7 59ZM519.3 60C516.9 65.8 515.7 70.3 515.7 73.7C515.7 77.8 516.7 79.9 518.8 79.9C520 79.9 521.4 78.2 523.1 75.3C523.3 75.1 523.3 74.8 523.6 74.6C523.6 74.6 523.8 74.6 523.8 74.8L523.8 75.5C522.4 82.7 520.2 86.3 517.3 86.3C514.2 86.3 512.7 83.7 512.7 78.4C512.7 75.8 513.2 72.4 514.6 68.1C516 63.8 516.8 61.6 516.8 61.4C516.8 60.9 515.8 60 513.7 58.8C509.9 63.8 504.6 68.6 497.9 72.7C493.3 75.3 488.8 77.7 484 79.7C475.1 83.3 469.8 85.2 468.6 85.9C467.4 86.4 466.7 86.6 466.2 86.6C466 86.6 466 86.4 466 86.4C466 85.9 466.5 85.4 467.9 84.5C475.6 80.2 483 75.9 490.7 71.5C500.8 65.7 507.7 60.9 511.1 57.3C506.5 54.9 504.4 52.5 504.4 49.9C504.4 46.8 505.8 43.9 508.7 41.3C511.6 38.9 514 37.9 515.9 38.7C517.3 39.2 518.3 40.9 518.3 43.7C518.3 46.3 517.8 49.2 516.6 52.3C519 53.7 520 55.2 520 56.6C520 57.3 519.8 58.5 519.3 60ZM102.4 79.9C99.8 80.6 98.3 81.1 97.8 81.1L97.8 80.9C97.8 80.9 98.8 80.2 100.7 79C102.6 77.8 105.5 75.9 109.6 72.8C111.5 70.9 114.4 67.8 118 63.4C120.4 60.5 123 57.9 125.9 56C129.5 53.4 132.9 52.2 136.5 52.2C137.2 52.2 138.4 52.4 139.9 52.9C141.1 53.4 142.3 53.6 143.3 53.6C145.2 53.6 146.7 52.9 147.9 51.4C148.6 50 149.6 48.8 150.5 47.3C151 46.3 151.7 45.9 152.2 45.9C152.4 45.9 152.4 46.1 152.4 46.6C152.4 47.1 152.2 48.3 151.7 49.7C151.2 50.4 153.1 50.7 156.7 50.7C157.2 50.7 157.4 50.7 157.4 50.5C157.4 50.5 157.2 49.5 156.7 47.9C156.5 47.4 156.7 46.7 157.4 45.7L157.48 45.5639C158.422 43.9626 158.808 43.3054 159.1 43.5C160.1 44.2 160.5 45.7 160.5 47.3C160.5 49 160 50.7 159.3 52.6C158.6 54.8 157.9 56 157.4 56.4C155.7 57.4 153.1 57.1 149.5 55.4C146.6 58.3 143.7 60 140.9 60C140.2 60 139 59.8 137.8 59.3C136.6 58.8 135.6 58.6 134.9 58.6C130.1 58.6 125.1 60.8 120 65.6C116.4 69.2 112.8 72.8 109.2 76.4C107 78 104.8 79.2 102.4 79.9ZM93 111.1C100.2 107.7 125.2 97.9 168.1 81.6C201.5 69.4 235.1 56.6 269.4 43.9C269.785 43.823 270.052 43.7311 270.245 43.6644C270.554 43.5579 270.677 43.5155 270.8 43.7C270.8 43.7 270.8 44.2 270.6 44.9C269.6 46.8 268.9 48 268.2 48.7C250.9 55.4 218 67.9 169.3 86.4C122.3 104.4 95.9 115 90.6 118.1C91.1 115.9 91.8 113.5 93 111.1ZM514 51.1C514.5 49.7 514.5 48.2 514.2 46.8C514 45.4 513.2 44.6 512 44.6C511.5 44.6 510.8 44.8 509.8 45.3C508.8 45.8 508.4 46.3 508.4 46.7C508.5 48 510.4 49.4 514 51.1ZM358.2 49.9L354.4 57.8C353.4 56.9 351.3 55.2 348.2 53.3C345.1 51.1 343.4 49.9 342.9 49.9C342.6 49.9 342.1 50.4 341.9 50.9L337.3 60.5C337.1 61 337.1 61.3 337.3 61.5C341.2 63.9 345 66.5 348.6 69.4C349.1 69.7 349.6 69.4 349.8 68.7C351.3 66.5 352.5 63.9 353.9 61C358 63.6 361.6 66 364.7 68.4C365.1 68.6 365.6 68.6 366.1 67.9C369.2 62.6 370.9 59 370.9 57.3C370.9 56.8 369 55.4 365.4 53C361.6 50.4 359.7 49.2 359.2 49.2C358.7 49.2 358.4 49.4 358.2 49.9ZM436.7 66.7C434.6 63.3 432.2 61.9 429.3 61.9C429 61.9 428.3 62.6 427.3 64.5C426.1 66.5 425.6 67.7 425.6 67.9C425.6 68.6 426.1 69.6 427.5 70.8C429 72 429.9 72.7 430.9 72.7C431.6 72.7 431.9 72.4 432.1 72.2C432.4 71.7 432.6 71.7 433.1 71.7C434.1 71.7 435.3 73.9 437.2 78.7C439.1 83.3 440 86.4 439.8 88.1C440 89.1 440 89.8 440.5 89.8C441 89.8 441.5 89.1 442.2 88.1C442.9 86.5 443.9 83.6 444.6 79.5C446.3 70.4 448 65.8 449.9 65.8C450.8 65.8 451.8 66.2 452.5 67.2C453.5 68.2 454 68.9 454.2 68.9C454.6 68.9 455.1 68.1 455.6 66.7C456.1 65.7 456.1 64.8 456.1 64.3C456.1 63.3 455.7 62.3 454.7 60.9C453.7 59.4 452.5 58.7 451.3 58.7C449.1 58.7 447.2 60.9 445.3 65.2C443.6 71.5 442.4 76.3 441.9 79.4C441.9 79.9 441.7 80.2 441.7 80.4L441.5 80.4C441.5 80.1 441.5 79.9 441.3 79.4C440.5 74.1 438.9 69.8 436.7 66.7ZM29.2 79.1C31.1 76 32.3 73.1 32.3 70.5C32.3 67.4 30.9 65.7 28.2 65.8C24.9 65.8 23 67.7 22 71.8C21.8 72.7 21.8 73.2 21.8 73.2C21.8 73.4 22 73.4 22 73.4C22.2 73.4 22.5 73.1 23.2 72.9C23.9 72.4 24.8 72.2 25.8 72.2C27.4 72.2 28.4 73.1 28.4 74.8C28.4 77 25.5 80.8 20 86.8C19.1 88 18.6 88.5 18.6 88.7L18.6 88.9C18.8 88.9 19.6 88.5 21 87.5C24.4 85.1 27 82.2 29.2 79.1ZM377.2 75.8C377.2 79.6 375.3 84.9 371.4 91.4C369 95.5 365.4 101 360.6 108.2C365.4 113.7 368.8 118.8 370.4 123.1C371.4 126.2 372.1 130.3 372.1 134.9C372.1 136.8 371.6 139.2 370.7 142.3C370 145.2 369 147.3 368.1 148.8C366.2 151.7 363.1 154.6 358.3 157.4C353.3 160.8 348.9 162.4 345.3 162.4C339.5 162.4 336.7 158.1 336.7 149.4C336.7 143.6 337.7 137.9 339.6 132.6C341.5 128 344.6 122 349.7 114.1C345.4 110 340.8 104.3 335.8 97.1C335.3 96.4 334.1 95.2 332.2 93.3C331.2 92.3 330.8 91.1 330.8 89.7C330.8 87.5 331 85.1 331.5 82.3C332.2 79.4 332.7 78.2 332.9 78.2C333.6 78.2 335.8 79.4 339.9 82C343.7 84.6 346.9 86.6 348.8 88.2C350 88.9 350.5 89.6 350.5 89.6L350.5 89.8C350.5 90 349.8 90.3 348.1 90.3C345 90.3 343.3 90.5 343.3 90.8C343.3 91 343.8 91.5 344.7 92.7C348.5 97.5 352.4 101.1 356.5 104C357.5 102.6 360.8 97.8 366.1 89.6C370.7 82.6 373.3 77.8 374.5 75C375.7 72.1 376.4 70.9 376.9 70.9C377 71 377.2 72.5 377.2 75.8ZM271.9 71.5C229.6 87.4 188.4 102.7 147.8 118.1C146.6 120.5 145.8 122.6 145.4 124.8C190.3 106.8 232.3 90.7 270.9 76.3C271.4 75.9 272.1 74.7 273.1 72.5C273.3 71.8 273.3 71.3 273.1 71.3C273.1 71.0866 272.847 71.1768 272.449 71.3186C272.288 71.3761 272.102 71.4422 271.9 71.5ZM394.7 104.2C395.7 105.4 396.4 107 396.9 109.2C398.1 113.3 400.5 119 403.8 126.1C406.7 132.4 408.1 135.7 408.1 136.2C408.1 138.2 405.2 141.3 399.7 145.6C394.837 149.214 388.507 153.346 380.709 157.94C381.435 153.437 382.725 148.012 384.6 141.6C384.9 140.1 385.1 138.9 385.1 138.2C385.1 137.7 385.1 137.5 384.9 137.5C384.4 137.5 383.9 138.5 382.7 140.9C380.311 147.351 378.564 153.624 377.544 159.782C374.353 161.62 370.938 163.527 367.3 165.5C357.9 170.6 346.2 176.1 332 182.1C311.6 190.7 300.5 195.5 298.6 196.5C293.3 198.9 290.7 200.4 290.7 200.6C290.7 200.8 290.7 200.8 291.2 200.8C292.2 200.8 294.6 200.5 298.4 199.8C302 199.3 311.1 197.2 325.5 193.8C339.2 190.5 346.4 188.8 346.9 188.8C349.5 188.8 357.9 184.7 372.3 176.3C373.749 175.488 375.16 174.681 376.534 173.879C376.814 181.021 378.788 187.179 382.3 191.8C386.6 197.8 392.8 200.9 401 200.9C410.6 200.9 421.6 195.9 434.6 186.3C443.3 179.8 451.2 172.3 458.4 163.7C461.5 160.1 464.1 155.5 465.8 150C467.3 145.6 468 142.3 468 139.4L468.5 138.9L468.5 125.7C467.5 126.2 467 126.2 466.8 126.2C464.4 121.2 461.5 117.1 458.4 113.5C454.8 109.9 451.7 108 448.6 108C444.5 108 440.7 110.1 437.1 114.2C433.3 119 431.6 124.3 431.6 130.3C431.6 138.2 437.4 142.3 448.9 142.3C454.2 142.3 458.5 141.6 461.4 140.6C461.9 142.3 462.4 144 462.4 145.4C462.4 147.6 458.8 151.9 451.8 158.7C444.1 165.9 436.2 171.9 428 176.9C417.6 183.2 409 186.3 401.8 186.3C393.4 186.3 387.4 183.6 383.6 178.6C382.187 176.48 381.189 174.082 380.608 171.448C392.872 163.963 401.832 156.91 407.6 150.4C409.6 148.2 411 145.1 412.2 141C413.1 137.4 413.6 134.5 413.6 132.1C413.6 127 412.1 121.5 409.5 114.8C407.8 111 405.9 106.9 404.2 102.8C407.1 103.5 409 104 409.7 104C410.2 104 410.4 103.7 410.4 103.5C410.4 103 409.7 102.1 408 100.4C404 96.3 400.4 92.4 397 88.6C396.5 88.1 396.2 87.9 396 87.9C395.5 87.9 395.2 88.4 395 89.6C394.5 90.8 394.3 93 393.8 96.1C393.3 99.4 393.3 101.1 393.3 101.6C393.5 102 394 102.8 394.7 104.2ZM251.4 119.3C251.4 119.1 251.6 118.8 251.6 118.8L251.6 118.8C251.71 118.69 251.759 118.641 251.781 118.651C251.8 118.66 251.8 118.709 251.8 118.8C252 119 252 119.3 251.8 119.5C250.6 126.7 248.4 130.3 245.3 130.3C242.2 130.3 240.7 127.7 240.7 122.4C240.7 115.9 242.4 109 246.2 102C247.2 100.3 247.6 99.4 247.9 99.4C247.9 99.6 247.7 100.6 247.2 102.3C244.8 109.7 243.6 114.8 243.6 117.9C243.6 121.7 244.6 123.9 246.7 123.9C248.3 123.8 249.8 122.1 251.4 119.3ZM494.6 110.7C493.9 110.7 492.9 111.1 491.7 112.1C487.8 115.4 484 118.3 480.1 120.3C478.9 121.1 474.8 123 468.6 126.1L468.6 139.3C477 135.4 483.5 131.4 487.3 126.8C487.3 137.8 492.1 143.6 502.2 143.6C510.6 143.6 517.5 138.8 522.8 129.2C526 135 529.6 138.1 533.4 138.1C539.2 138.1 543.5 135.5 546.4 130.2C549.1 125.8 550.5 120.8 550.5 114.8C550.5 110.9 549.3 107.6 547.4 104.7C546.7 103.7 546.2 103.5 545.7 103.5C545.2 103.5 544.7 104.3 544.5 105.7C543.1 110.2 542.1 113.6 541.9 115.5C544 119.1 545 121.1 545 121.3C544 122.9 541.9 123.9 538.5 123.9C535.9 123.9 533.5 122.9 531.8 121.5C529.9 120.1 528.9 118.4 528.9 116.7C528.9 117.2 529.6 115.3 530.6 111.2C531.1 109.1 530.9 108.1 529.9 108.1C529.2 108.1 528.5 108.5 527.5 109.5C525.1 113.4 522.5 117.2 520.1 121.3C516.2 126.4 511.2 129 505.2 129C497.7 129 493.9 126.1 493.9 120.8C493.9 119.6 494.1 118.1 494.6 116.2C495.1 114.3 495.3 112.8 495.3 112.1C495.3 111.2 495.1 110.7 494.6 110.7ZM50.1 124.8C50.1 124.6 50.3 124.3 50.3 124.3C50.4093 124.191 50.4589 124.141 50.4813 124.151C50.5 124.16 50.5 124.209 50.5 124.3C50.7 124.5 50.7 124.8 50.5 125C49.3 132.2 47.1 135.8 44 135.8C40.9 135.8 39.4 133.2 39.4 127.9C39.4 121.4 41.1 114.5 44.9 107.5C45.9 105.8 46.3 104.9 46.6 104.9C46.6 105.1 46.4 106.1 45.9 107.8C43.5 115.2 42.3 120.3 42.3 123.4C42.3 127.2 43.3 129.4 45.4 129.4C47 129.3 48.4 127.7 50.1 124.8ZM367.8 134.9C365.2 129.6 360.6 124.1 354.4 118.8C352.2 121 349.6 125 346.2 130.8C342.4 137.3 340.7 141.4 340.7 143.5C340.7 146.4 342.6 147.8 346.9 147.8C348.8 147.8 351.2 147.1 354.3 145.9C358.6 144 362.7 141.3 366.1 138C367.6 136.5 368.1 135.6 367.8 134.9ZM455 127.9C451.4 123.3 448.3 121.2 445.4 121.2C441.1 121.2 439.2 122.2 439.2 124.6C439.2 127.5 442.1 128.9 447.8 128.9C449.664 128.9 451.764 128.506 454.1 128.068C454.396 128.012 454.696 127.956 455 127.9ZM480.9 191.5C478.3 192.2 476.8 192.7 476.3 192.7L476.3 192.5C476.3 192.5 477.3 191.8 479.2 190.6C481.1 189.4 484 187.5 488.1 184.4C490 182.5 492.9 179.4 496.5 175C498.9 172.1 501.5 169.5 504.4 167.6C508 165 511.4 163.8 515 163.8C515.7 163.8 516.9 164 518.4 164.5C519.6 165 520.8 165.2 521.8 165.2C523.7 165.2 525.2 164.5 526.4 163C527.1 161.6 528.1 160.4 529 158.9C529.5 157.9 530.2 157.5 530.7 157.5C530.9 157.5 530.9 157.7 530.9 158.2C530.9 158.7 530.7 159.9 530.2 161.3C529.7 162 531.6 162.3 535.2 162.3C535.7 162.3 535.9 162.3 535.9 162.1C535.9 162.1 535.7 161.1 535.2 159.5C535 159 535.2 158.3 535.9 157.3L535.98 157.164C536.922 155.563 537.308 154.905 537.6 155.1C538.6 155.8 539 157.3 539 158.9C539 160.6 538.5 162.3 537.8 164.2C537.1 166.4 536.4 167.6 535.9 168C534.2 169 531.6 168.7 528 167C525.1 169.9 522.2 171.6 519.4 171.6C518.7 171.6 517.5 171.4 516.3 170.9C515.1 170.4 514.1 170.2 513.4 170.2C508.6 170.2 503.6 172.4 498.5 177.2L487.7 188C485.4 189.6 483.3 190.8 480.9 191.5ZM299.9 175.9C301.8 172.8 303 169.9 303 167.3C303 164.1 301.6 162.5 298.9 162.6C295.6 162.6 293.7 164.5 292.7 168.6C292.5 169.5 292.5 170 292.5 170C292.5 170.2 292.7 170.2 292.7 170.2C292.9 170.2 293.2 169.9 293.9 169.7C294.6 169.2 295.5 169 296.5 169C298.1 169 299.1 169.9 299.1 171.6C299.1 173.8 296.2 177.6 290.7 183.6C289.8 184.8 289.3 185.3 289.3 185.5L289.3 185.7C289.5 185.7 290.3 185.3 291.7 184.3C295.1 181.9 297.7 179 299.9 175.9ZM179.4 190.5C179.4 190.3 179.6 190 179.6 190C179.709 189.891 179.759 189.841 179.781 189.851C179.8 189.86 179.8 189.909 179.8 190C180 190.2 180 190.5 179.8 190.7C178.6 197.9 176.4 201.5 173.3 201.5C170.2 201.5 168.7 198.9 168.7 193.6C168.7 187.1 170.4 180.2 174.2 173.2C175.2 171.5 175.6 170.6 175.9 170.6C175.9 170.8 175.7 171.8 175.2 173.5C172.8 180.9 171.6 186 171.6 189.1C171.6 192.9 172.6 195.1 174.7 195.1C176.3 195.1 177.8 193.4 179.4 190.5ZM131.9 189.3C133.8 186.2 135 183.3 135 180.7C135 177.6 133.6 175.9 130.9 176C127.6 176 125.7 177.9 124.7 182C124.5 182.9 124.5 183.4 124.5 183.4C124.5 183.6 124.7 183.6 124.7 183.6C124.9 183.6 125.2 183.3 125.9 183.1C126.6 182.6 127.5 182.4 128.5 182.4C130.1 182.4 131.1 183.3 131.1 185C131.1 187.2 128.2 191 122.7 197C121.8 198.2 121.3 198.7 121.3 198.9L121.3 199.1C121.5 199.1 122.3 198.7 123.7 197.7C127.1 195.3 129.7 192.4 131.9 189.3ZM226.5 182.4C226.5 185 225.3 187.9 223.4 191C221.2 194.1 218.6 197 215.2 199.4C213.8 200.4 213 200.8 212.8 200.8L212.8 200.6C212.8 200.4 213.3 199.9 214.2 198.7C219.7 192.7 222.6 188.9 222.6 186.7C222.6 185 221.6 184.1 220 184.1C219 184.1 218.1 184.3 217.4 184.8C216.7 185 216.4 185.3 216.2 185.3C216.2 185.3 216 185.3 216 185.1C216 185.1 216 184.6 216.2 183.7C217.2 179.6 219.1 177.7 222.4 177.7C225 177.6 226.5 179.3 226.5 182.4ZM77 182.7C65.9 186.5 55.6 190.3 46 193.7C44.8 196.1 44.1 198.2 43.7 200.5C55.9 194.9 66.7 190.9 76.3 187.5C76.8 187.1 77.5 185.9 78.2 183.7C78.6 183 78.6 182.5 78.4 182.5C78.277 182.316 78.154 182.358 77.8451 182.464C77.6516 182.531 77.3851 182.623 77 182.7Z" id="Group" fill="#595959" fill-rule="evenodd" stroke="none" clip-path="url(#clip_1)" />
  </g>
</svg>