<?xml version="1.0" encoding="utf-8"?>
<svg width="524.80005px" height="201.90002px" viewBox="0 0 524.80005 201.90002" version="1.1" xmlns:xlink="http://www.w3.org/1999/xlink" xmlns="http://www.w3.org/2000/svg">
  <defs>
    <path d="M524.8 0L524.8 0L524.8 201.9L0 201.9L0 0L524.8 0Z" id="path_1" />
    <clipPath id="clip_1">
      <use xlink:href="#path_1" clip-rule="evenodd" fill-rule="evenodd" />
    </clipPath>
  </defs>
  <g id="Surah_2_of_114_(modified)">
    <path d="M524.8 0L524.8 0L524.8 201.9L0 201.9L0 0L524.8 0Z" id="Surah_2_of_114_(modified)" fill="none" stroke="none" />
    <path d="M228.4 1.7C229.1 0.5 230.1 0 230.8 0C231.3 0 231.8 0.199997 231.8 0.699997C231.8 0.699997 231.6 0.899994 231.6 1.2C230.6 3.39999 229.7 5.8 229 8.2C234 11.8 236.4 15.6 236.2 19.2C235.7 23.3 235.2 25.9 234.5 26.9C232.1 29.8 229.5 31.5 226.1 31.5C222.7 31.5 221.3 29.3 221.3 25.5C221.3 24.8 221.3 23.8 221.5 22.9C222.7 15.1 225.1 8.09999 228.4 1.7ZM277.4 13.4C278.9 16.6 279.6 20.4 279.6 25.2C279.6 29.3 280.8 48.2 283.3 82.1C285.7 115.9 286.9 135.1 286.9 139.9C286.9 145 286.7 149.5 286.2 153.6C286.171 153.979 286.142 154.344 286.114 154.693C285.95 156.735 285.829 158.246 286 159.1C286.2 159.8 286.5 159.8 287.2 158.6C287.7 157.7 288.1 156.5 289.1 154.8C292.4 146.2 294.1 136.1 294.1 124.8C294.1 121 293.2 104.4 291 74.9C288.8 45.2 287.6 30.3 287.6 29.8C287.6 28.6 287.8 28.1 288.3 28.8C292.6 33.6 294.5 34.8 294.5 32.6C294.5 32.1 294.5 30.9 294 29.7C293.5 27.8 291.8 23 288.7 15.1C285.8 7.59999 284.1 3.09999 283.4 1.39999C282.9 0.699997 282.7 0.199997 282.2 0.199997C282 0.199997 281.7 0.699997 281.5 1.39999C278.6 7.59999 277.4 11.7 277.4 13.4ZM260.6 148.1C265.7 139.9 268.3 128.9 268.3 114.7C268.3 109.7 267.3 94.5 265.5 69.5C263.6 44.1 262.6 31.1 262.6 30.9C262.6 29.7 262.8 29.4 263.3 29.9C267.3 34.7 269.5 35.9 269.5 33.7C269.5 33.2 269.2 32 269 30.6C268.3 28.9 266.6 24.1 263.7 16.2C260.8 8.69997 258.9 4.19997 258.2 2.49997C257.7 1.49997 257.4 1.29997 257.2 1.29997C256.7 1.29997 256.4 1.59998 256.2 2.29997C253.5 8.69997 252.1 12.8 252.1 14.5C253.6 17.6 254.3 21.4 254.3 26C254.3 31.3 255.2 48.3 257.4 77.1C259.6 105.9 260.8 122.4 260.8 126.5C260.8 133.3 260.1 137.3 258.9 138.3C254.6 141.9 250.1 143.8 245.5 143.8L245.5 158.4C251.2 158.4 256.3 154.8 260.6 148.1ZM330 14.7C330 17.3 332.1 19.7 336.7 22.1C333.3 25.7 328.3 29.5 321.3 33.8C315.3 37.1 309.6 40.5 303.8 44.1C302.4 44.8 301.9 45.6 301.9 45.8C301.9 45.8 301.9 46 302.1 46C302.3 46 303.3 45.8 304.5 45.3C312.2 42.5 316.5 40.8 317.5 40.3C321.1 38.9 325.1 36.2 329.7 33.1C333.5 30.2 336.7 27.1 339.3 23.5C341.5 24.7 342.9 25.9 343.4 26.9C345.5 24.1 346.5 21.9 346.5 20.7C346 19.7 344.6 18.5 342.2 17.3C343.4 13.9 343.9 11 343.9 8.40001C343.9 5.60001 343.2 3.90001 341.5 3.40001C339.6 2.7 337.2 3.7 334.3 6.3C331.4 8.7 330 11.6 330 14.7ZM152.6 28.5C171.1 21.8 190.3 14.6 210.4 7.10001C210.578 7.04905 210.744 6.99161 210.894 6.93925C211.335 6.78609 211.651 6.67644 211.8 6.90001C211.8 6.90001 211.8 7.40001 211.6 8.10001C210.6 10.3 209.9 11.5 209.4 11.9C192.6 18.1 172.7 25.8 150.1 35.2C150.7 33.1 151.4 30.9 152.6 28.5ZM339.8 11.5C340.1 12.9 340.1 14.4 339.6 15.8C336 14.1 334 12.7 334 11.4C334 11 334.4 10.5 335.4 9.99998C336.4 9.49998 337.1 9.29999 337.6 9.29999C338.8 9.29999 339.6 10.1 339.8 11.5ZM381.5 28.8C381.5 28.8 381.3 29.1 381.3 29.3C379.6 32.1 378.2 33.8 376.6 33.9C374.5 33.9 373.5 31.7 373.5 27.9C373.5 24.8 374.7 19.7 377.1 12.3C377.6 10.6 377.8 9.59999 377.8 9.39999C377.5 9.39999 377.1 10.3 376.1 12C372.3 19 370.6 25.9 370.6 32.4C370.6 37.7 372.1 40.3 375.2 40.3C378.3 40.3 380.5 36.7 381.7 29.5C381.9 29.3 381.9 29 381.7 28.8C381.7 28.7093 381.7 28.6597 381.681 28.6513C381.659 28.6411 381.609 28.6907 381.5 28.8ZM233.7 20.9C233.7 19.7 231.3 17.5 226.3 14.7C224.6 17.6 223.9 20.2 223.9 22.6C223.9 24 224.6 25 226.1 25C227.3 25 228.7 24.5 230.4 23.6C232 22.8 233.2 21.8 233.7 20.9ZM141.3 24.2C141.3 26.8 140.1 29.7 138.2 32.8C136 35.9 133.4 38.8 130 41.2C128.6 42.2 127.8 42.6 127.6 42.6L127.6 42.4C127.6 42.2 128.1 41.7 129 40.5C134.5 34.5 137.4 30.7 137.4 28.5C137.4 26.8 136.4 25.9 134.8 25.9C133.8 25.9 132.9 26.1 132.2 26.6C131.5 26.8 131.2 27.1 131 27.1C131 27.1 130.8 27.1 130.8 26.9C130.8 26.9 130.8 26.4 131 25.5C132 21.4 133.9 19.5 137.2 19.5C139.9 19.4 141.3 21.1 141.3 24.2ZM93.8 37.4L97.6 29.5C97.8 29 98.1 28.8 98.6 28.8C99.1 28.8 101 30 104.8 32.6C108.4 35 110.3 36.4 110.3 36.9C110.3 38.6 108.6 42.2 105.5 47.5C105 48.2 104.5 48.2 104.1 48C101 45.6 97.4 43.2 93.3 40.6C91.9 43.5 90.7 46.1 89.2 48.3C89 49 88.5 49.3 88 49C84.4 46.1 80.6 43.5 76.7 41.1C76.5 40.9 76.5 40.6 76.7 40.1L81.3 30.5C81.5 30 82 29.5 82.3 29.5C82.8 29.5 84.5 30.7 87.6 32.9C90.7 34.8 92.8 36.5 93.8 37.4ZM438.5 31.9C412.5 41.5 387.3 50.6 363.1 59.7C361.9 62.1 361.2 64.3 360.7 66.5C363.4 64.8 377.1 59.3 401.3 50.4C425 41.5 437.3 36.9 437.5 36.7C438 36.3 438.7 35.1 439.7 32.9C439.9 32.2 439.9 31.7 439.7 31.7C439.7 31.4866 439.447 31.5767 439.049 31.7185C438.888 31.7761 438.702 31.8422 438.5 31.9ZM137.5 56.4C156 49.7 175.2 42.5 195.3 35C195.478 34.949 195.644 34.8916 195.794 34.8392C196.235 34.6861 196.551 34.5764 196.7 34.8C196.7 34.8 196.7 35.3 196.5 36C195.5 38.2 194.8 39.4 194.3 39.8C177.5 46 157.6 53.7 135 63.1C135.6 60.9 136.3 58.8 137.5 56.4ZM490 74.6C490 71.2 491.2 66.7 493.6 60.9C494.1 59.5 494.4 58.3 494.3 57.5C494.3 56.1 493.3 54.6 490.9 53.2C492.1 50.1 492.6 47.2 492.6 44.6C492.6 41.8 491.6 40.1 490.2 39.6C488.3 38.8 485.9 39.8 483 42.2C480.1 44.8 478.7 47.7 478.7 50.8C478.7 53.4 480.8 55.8 485.4 58.2C482 61.8 475.1 66.6 465 72.4C457.3 76.8 449.9 81.1 442.2 85.4C440.8 86.3 440.3 86.8 440.3 87.3C440.3 87.3 440.3 87.5 440.5 87.5C441 87.5 441.7 87.3 442.9 86.8C444.1 86.1 449.4 84.2 458.3 80.6C463.1 78.6 467.6 76.2 472.2 73.6C478.9 69.5 484.2 64.7 488 59.7C490.1 60.9 491.1 61.8 491.1 62.3C491.1 62.5 490.3 64.7 488.9 69C487.5 73.3 487 76.7 487 79.3C487 84.6 488.5 87.2 491.6 87.2C494.5 87.2 496.7 83.6 498.1 76.4L498.1 75.7C498.1 75.5 497.9 75.5 497.9 75.5C497.6 75.7 497.6 76 497.4 76.2C495.7 79.1 494.3 80.8 493.1 80.8C491 80.8 490 78.7 490 74.6ZM488.6 47.8C488.9 49.2 488.9 50.7 488.4 52.1C484.8 50.4 482.8 48.9 482.8 47.7C482.8 47.3 483.2 46.8 484.2 46.3C485.2 45.8 485.9 45.6 486.4 45.6C487.6 45.6 488.4 46.4 488.6 47.8ZM228.2 67.7C228.2 67.5 228.4 67.2 228.4 67.2L228.4 67.1998C228.509 67.0905 228.559 67.0411 228.581 67.0513C228.6 67.0597 228.6 67.1093 228.6 67.2C228.8 67.4 228.8 67.7 228.6 67.9C227.4 75.1 225.2 78.7 222.1 78.7C219 78.7 217.5 76.1 217.5 70.8C217.5 64.3 219.2 57.4 223 50.4C224 48.7 224.4 47.8 224.7 47.8C224.7 48 224.5 49 224 50.7C221.6 58.1 220.4 63.2 220.4 66.3C220.4 70.1 221.4 72.3 223.5 72.3C225.1 72.2 226.5 70.5 228.2 67.7ZM59.7 54.2C59.7 56.8 58.5 59.7 56.6 62.8C54.4 65.9 51.8 68.8 48.4 71.2C47 72.2 46.2 72.6 46 72.6L46 72.4C46 72.2 46.5 71.7 47.4 70.5C52.9 64.5 55.8 60.7 55.8 58.5C55.8 56.8 54.8 55.9 53.2 55.9C52.2 55.9 51.3 56.1 50.6 56.6C49.9 56.8 49.6 57.1 49.4 57.1C49.4 57.1 49.2 57.1 49.2 56.9C49.2 56.9 49.2 56.4 49.4 55.5C50.4 51.4 52.3 49.5 55.6 49.5C58.3 49.4 59.7 51.1 59.7 54.2ZM332.6 50.6L328.8 58.5C327.8 57.6 325.6 55.9 322.6 54C319.5 51.8 317.8 50.6 317.3 50.6C317 50.6 316.5 51.1 316.3 51.6L311.7 61.2C311.5 61.7 311.5 62 311.7 62.2C315.6 64.6 319.4 67.2 323 70.1C323.5 70.4 324 70.1 324.2 69.4C325.7 67.2 326.9 64.6 328.3 61.7C332.4 64.3 336 66.7 339.1 69.1C339.5 69.3 340 69.3 340.5 68.6C343.6 63.3 345.3 59.7 345.3 58C345.3 57.5 343.4 56.1 339.8 53.7C336 51.1 334.1 49.9 333.6 49.9C333.1 49.9 332.8 50.1 332.6 50.6ZM121.9 59C121.9 62.8 120 68.1 116.1 74.6C113.7 78.7 110.1 84.2 105.3 91.4C110.1 96.9 113.5 102 115.1 106.3C116.1 109.4 116.8 113.5 116.8 118.1C116.8 120 116.3 122.4 115.4 125.5C114.7 128.4 113.7 130.5 112.8 132C110.9 134.9 107.8 137.8 103 140.6C98 144 93.6 145.6 90 145.6C87.3487 145.6 85.3243 144.701 83.9077 142.895C83.139 145.486 81.7451 149.504 79.8 154.9C76.4 163.8 74.8 170.5 74.8 175.5C74.8 179.3 75.8 182.5 77.7 184.6C79.6 187.2 82.3 188.4 85.6 188.4C91.6 188.4 97.8 185.3 103.8 179.3C108 174.9 111.8 170.1 115.6 165.6C120.6 159.8 127.4 154.8 135.8 150.2C140.6 147.6 149 143.7 161 138.7L161 138.858L172.7 133.9C171 129.1 170.3 124.3 170.3 119.5C170.3 112.3 171.3 106.3 173.4 102C175.6 97.4 178.4 95.3 182 95.3C185.1 95.3 188.2 97.9 190.9 103.2C193.5 107.8 194.7 112.1 194.7 115.9C194.7 125.5 191.8 133.4 186.3 139.7C190.1 143.8 194.9 145.9 200.7 145.9L200.7 160.5C195.233 160.471 189.765 158.071 184 153.3C181.1 150.9 178.7 148 177 145.1L160.9 152.1L160.9 151.944C153.252 155.321 147.784 157.707 144.2 159.3C136.8 162.9 131.7 165.5 129.1 167.7C124.1 171.5 116.6 179 107 190C101.2 196.7 95.5 200.1 89.7 200.1C84.9 200.1 80.6 197.9 77 193.4C73.2 189.1 71.5 183.3 71.5 176.8C71.5 167.9 75.1 156.2 82.5 141.5C82.5922 141.316 82.6844 141.142 82.7762 140.978C81.8543 138.895 81.4 136.105 81.4 132.6C81.4 126.8 82.4 121.1 84.3 115.8C86.2 111.2 89.3 105.2 94.4 97.3C90.1 93.2 85.5 87.5 80.5 80.3C80 79.6 78.8 78.4 76.9 76.5C75.9 75.5 75.5 74.3 75.5 72.9C75.5 70.7 75.7 68.3 76.2 65.5C76.9 62.6 77.4 61.4 77.6 61.4C78.3 61.4 80.5 62.6 84.6 65.2C88.4 67.8 91.6 69.8 93.5 71.4C94.7 72.1 95.2 72.8 95.2 72.8L95.2 73C95.2 73.2 94.5 73.5 92.8 73.5C89.7 73.5 88 73.7 88 74C88 74.2 88.5 74.7 89.4 75.9C93.2 80.7 97.1 84.3 101.2 87.2C102.2 85.8 105.5 81 110.8 72.8C115.4 65.8 118 61 119.2 58.2C120.4 55.3 121.1 54.1 121.6 54.1C121.6 54.2 121.9 55.7 121.9 59ZM200.7 160.5C200.733 160.5 200.767 160.5 200.8 160.5L200.7 160.5L200.7 160.5ZM411.3 67.7C409.2 64.3 406.8 62.9 403.9 62.9C403.6 62.9 402.9 63.6 401.9 65.5C400.7 67.5 400.2 68.7 400.2 68.9C400.2 69.6 400.6 70.6 402.1 71.8C403.6 73 404.5 73.7 405.5 73.7C406.2 73.7 406.5 73.4 406.7 73.2C407 72.7 407.2 72.7 407.7 72.7C408.7 72.7 409.9 74.9 411.8 79.7C413.7 84.3 414.6 87.4 414.4 89.1C414.6 90.1 414.6 90.8 415.1 90.8C415.6 90.8 416.1 90.1 416.8 89.1C417.5 87.5 418.5 84.6 419.2 80.5C420.9 71.4 422.6 66.8 424.5 66.8C425.4 66.8 426.4 67.2 427.1 68.2C428.1 69.2 428.6 69.9 428.8 69.9C429.2 69.9 429.7 69.1 430.2 67.7C430.7 66.7 430.7 65.8 430.7 65.3C430.7 64.3 430.3 63.3 429.3 61.9C428.3 60.4 427.1 59.7 425.9 59.7C423.7 59.7 421.8 61.9 419.9 66.2C418.2 72.5 417 77.3 416.5 80.4C416.5 80.9 416.3 81.2 416.3 81.4L416.1 81.4C416.1 81.1 416.1 80.9 415.9 80.4C415.1 75.1 413.5 70.8 411.3 67.7ZM177.6 74.6L181.4 66.7C181.6 66.2 181.9 66 182.4 66C182.9 66 184.8 67.2 188.6 69.8C192.2 72.2 194.1 73.6 194.1 74.1C194.1 75.8 192.4 79.4 189.3 84.7C188.8 85.4 188.3 85.4 187.9 85.2C184.8 82.8 181.2 80.4 177.1 77.8C175.7 80.7 174.5 83.3 173 85.5C172.8 86.2 172.3 86.5 171.8 86.2C168.2 83.3 164.4 80.7 160.5 78.3C160.3 78.1 160.3 77.8 160.5 77.3L165.1 67.7C165.3 67.2 165.8 66.7 166.1 66.7C166.6 66.7 168.3 67.9 171.4 70.1C174.4 72 176.6 73.7 177.6 74.6ZM345.8 92.1C349.7 85.6 351.6 80.3 351.6 76.5C351.6 73.6893 351.382 72.1843 351.318 71.7381C351.307 71.6604 351.3 71.6148 351.3 71.6C350.8 71.6 350.1 72.8 348.9 75.7C347.7 78.5 345.1 83.3 340.5 90.3C335.2 98.5 331.9 103.3 330.9 104.7C326.8 101.8 322.9 98.2 319.1 93.4C318.2 92.2 317.7 91.7 317.7 91.5C317.7 91.2 319.4 91 322.5 91C324.2 91 324.9 90.7 324.9 90.5L324.9 90.3C324.9 90.3 324.4 89.6 323.2 88.9C321.3 87.3 318.1 85.3 314.3 82.7C310.2 80.1 308 78.9 307.3 78.9C307.1 78.9 306.6 80.1 305.9 83C305.4 85.8 305.2 88.2 305.2 90.4C305.2 91.8 305.6 93 306.6 94C308.5 95.9 309.7 97.1 310.2 97.8C315.2 105 319.8 110.7 324.1 114.8C319 122.7 315.9 128.7 314 133.3C312.1 138.6 311.1 144.3 311.1 150.1C311.1 158.8 313.9 163.1 319.7 163.1C323.3 163.1 327.7 161.5 332.7 158.1C337.5 155.3 340.6 152.4 342.5 149.5C343.4 148 344.4 145.9 345.1 143C346 139.9 346.5 137.5 346.5 135.6C346.5 131 345.8 126.9 344.8 123.8C343.2 119.5 339.8 114.4 335 108.9C339.8 101.7 343.4 96.2 345.8 92.1ZM69.3 89.3C69.3 89.8 69.1 90.7 68.8 91.7C68.3 93.1 67.8 93.9 67.1 93.9C66.9 93.9 66.4 93.2 65.4 92.2C64.7 91.2 63.7 90.8 63 90.8C61.1 90.8 59.2 95.4 57.5 104.5C56.8 108.6 56.1 111.2 55.1 112.9C54.4 114.1 53.9 114.6 53.4 114.6C53.2 114.6 52.9 114.1 52.9 113.2C52.9 111.5 51.9 108.4 50 103.8C48.3 99 46.9 96.8 46.2 96.8C45.7 96.8 45.2 96.8 45.2 97.3C45 97.5 44.5 97.8 43.8 97.8C42.8 97.8 41.6 97.1 40.2 95.9C39.6828 95.3829 39.2885 94.9203 39.0069 94.5173C39.6512 93.1297 39.9371 92.1799 39.8 91.7C40 91.7 39.8 91.5 39.8 91.5C39.6 91.5 39.1 91.9 38.6 92.9C38.5569 92.9738 38.5124 93.0483 38.4665 93.1235C38.4735 93.0794 38.4847 93.0383 38.5 93C40.7 88.9 41.9 87 42.3 87C44.9 87 47.6 88.4 49.7 91.8C51.9 94.9 53.3 99.2 54.3 104.3L54.3 105.3C54.4093 105.409 54.4589 105.459 54.4814 105.449C54.5 105.44 54.5 105.391 54.5 105.3C54.5 105.3 54.7 105.1 55 104.3C55.5 101.4 56.4 96.6 58.1 90.4C60 86.1 61.9 83.9 64.3 83.9C65.3 83.9 66.5 84.6 67.7 86.1C68.8 87.3 69.3 88.3 69.3 89.3ZM39.0069 94.5173C38.7113 95.1538 38.3402 95.8824 37.9 96.7C35.5 101.3 32.1 104.9 27.8 108C23.2 111.4 19.2 113.8 15.6 115.4C14.9 115.9 10.6 117.6 2.59999 120.4C1.39999 120.9 0.699997 121.1 0.199997 121.1C0 121.1 0 120.9 0 120.9C0 120.7 0.699997 119.9 1.89999 119.2C8.59999 115.6 17.7 109.8 29.5 101.9C34.1523 98.5077 37.0198 95.4911 38.4665 93.1235C38.4157 93.4426 38.5844 93.9129 39.0069 94.5173ZM128.6 89C131.5 89 133.9 90.4 136 93.8C138.2 96.9 139.8 101.2 140.6 106.5C140.8 107 140.8 107.2 140.8 107.5L141 107.5C141 107.3 141.2 107 141.2 106.5C141.7 103.4 142.9 98.6 144.6 92.3C146.5 88 148.4 85.8 150.6 85.8C151.8 85.8 153 86.5 154 88C155 89.4 155.4 90.4 155.4 91.4C155.4 91.9 155.4 92.8 154.9 93.8C154.4 95.2 153.9 96 153.5 96C153.3 96 152.8 95.3 151.8 94.3C151.1 93.3 150.1 92.9 149.2 92.9C147.3 92.9 145.6 97.5 143.9 106.6C143.2 110.7 142.2 113.6 141.5 115.2C140.8 116.2 140.3 116.9 139.8 116.9C139.3 116.9 139.3 116.2 139.1 115.2C139.3 113.5 138.4 110.4 136.5 105.8C134.6 101 133.4 98.8 132.4 98.8C131.9 98.8 131.7 98.8 131.4 99.3C131.2 99.5 130.9 99.8 130.2 99.8C129.2 99.8 128.3 99.1 126.8 97.9C125.4 96.7 124.9 95.7 124.9 95C124.9 94.8 125.4 93.6 126.6 91.6C127.6 89.7 128.4 89 128.6 89ZM246 86.4C230.9 91.9 216.5 97.2 202.8 102C201.6 104.4 200.8 106.5 200.4 108.7C217.5 101.5 232.3 95.8 245.3 91.2C245.8 90.8 246.5 89.6 247.2 87.4C247.6 86.7 247.6 86.2 247.4 86.2C247.277 86.0155 247.154 86.0579 246.845 86.1644C246.652 86.2311 246.385 86.323 246 86.4ZM371.2 109.9C370.7 107.7 370 106.1 369 104.9C368.3 103.5 367.8 102.7 367.6 102.3C367.6 101.8 367.6 100.1 368.1 96.8C368.6 93.7 368.8 91.5 369.3 90.3C369.5 89.1 369.8 88.6 370.3 88.6C370.5 88.6 370.8 88.8 371.3 89.3C374.7 93.1 378.3 97 382.3 101.1C384 102.8 384.7 103.7 384.7 104.2C384.7 104.4 384.5 104.7 384 104.7C383.3 104.7 381.4 104.2 378.5 103.5C380.2 107.6 382.1 111.7 383.8 115.5C386.4 122.2 387.9 127.7 387.9 132.8C387.9 135.2 387.4 138.1 386.5 141.7C385.3 145.8 383.9 148.9 381.9 151.1C376.137 157.604 367.187 164.651 354.94 172.128C355.51 174.889 356.53 177.394 358 179.6C361.8 184.6 367.8 187.3 376.2 187.3C383.4 187.3 392 184.2 402.4 177.9C410.6 172.9 418.5 166.9 426.2 159.7C433.2 152.9 436.8 148.5 436.8 146.4C436.8 145 436.3 143.3 435.8 141.6C432.9 142.6 428.6 143.3 423.3 143.3C411.8 143.3 406 139.2 406 131.3C406 125.3 407.7 120 411.5 115.2C415.1 111.1 418.9 109 423 109C426.1 109 429.2 110.9 432.8 114.5C435.9 118.1 438.8 122.2 441.2 127.2C441.4 127.2 441.9 127.2 442.9 126.7L442.9 139.9L442.4 140.4C442.4 143.3 441.7 146.6 440.2 151C438.5 156.5 435.9 161.1 432.8 164.7C425.6 173.3 417.7 180.8 409 187.3C396 196.9 385 201.9 375.4 201.9C367.2 201.9 361 198.8 356.7 192.8C353.131 188.104 351.15 181.82 350.922 174.528C349.52 175.347 348.08 176.171 346.6 177C332.2 185.4 323.8 189.5 321.2 189.5C320.7 189.5 313.5 191.2 299.8 194.5C285.4 197.9 276.3 200 272.7 200.5C268.9 201.2 266.5 201.5 265.5 201.5C265 201.5 265 201.5 265 201.3C265 201.1 267.6 199.6 272.9 197.2C274.8 196.2 285.9 191.4 306.3 182.8C320.5 176.8 332.2 171.3 341.6 166.2C345.301 164.193 348.771 162.254 352.011 160.386C353.039 154.355 354.762 148.213 357.1 141.9C358.3 139.5 358.8 138.5 359.3 138.5C359.5 138.5 359.5 138.7 359.5 139.2C359.5 139.9 359.3 141.1 359 142.6C357.18 148.825 355.911 154.119 355.174 158.542C362.896 153.988 369.172 149.888 374 146.3C379.5 142 382.4 138.9 382.4 136.9C382.4 136.4 381 133.1 378.1 126.8C374.8 119.7 372.4 114 371.2 109.9ZM112.5 118.1C109.9 112.8 105.3 107.3 99.1 102C96.9 104.2 94.3 108.2 90.9 114C87.1 120.5 85.4 124.6 85.4 126.7C85.4 129.6 87.3 131 91.6 131C93.5 131 95.9 130.3 99 129.1C103.3 127.2 107.4 124.5 110.8 121.2C112.3 119.7 112.8 118.8 112.5 118.1ZM466 113C467.2 112 468.2 111.6 468.9 111.6C469.4 111.6 469.6 112.1 469.6 113C469.6 113.7 469.4 115.2 468.9 117.1C468.4 119 468.2 120.5 468.2 121.7C468.2 127 472 129.9 479.5 129.9C485.5 129.9 490.5 127.3 494.4 122.2C496.8 118.1 499.4 114.3 501.8 110.4C502.8 109.4 503.5 109 504.2 109C505.2 109 505.4 110 504.9 112.1C503.9 116.2 503.2 118.1 503.2 117.6C503.2 119.3 504.2 121 506.1 122.4C507.8 123.8 510.2 124.8 512.8 124.8C516.2 124.8 518.3 123.8 519.3 122.2C519.3 122 518.3 120 516.2 116.4C516.4 114.5 517.4 111.1 518.8 106.6C519 105.2 519.5 104.4 520 104.4C520.5 104.4 521 104.6 521.7 105.6C523.6 108.5 524.8 111.8 524.8 115.7C524.8 121.7 523.4 126.7 520.7 131.1C517.8 136.4 513.5 139 507.7 139C503.9 139 500.3 135.9 497.1 130.1C491.8 139.7 484.9 144.5 476.5 144.5C466.4 144.5 461.6 138.7 461.6 127.7C457.8 132.3 451.3 136.3 442.9 140.2L442.9 126.9C449.1 123.8 453.2 121.9 454.4 121.1C458.4 119.3 462.2 116.4 466 113ZM187.4 114.7C189.8 118 191 120.4 191 122.1C191 123.1 189.6 124.5 186.3 126.7C183.6 128.6 181.5 130 179.3 131C178.5 129.8 177.3 127.9 175.9 124.8C174.5 121.2 173.5 118.8 173.5 117.4C173.5 115.7 174.2 114 175.9 112.1C177.3 110.2 178.8 109.2 180.2 109.2C182.4 109.2 184.8 111.1 187.4 114.7ZM328.8 119.5C335 124.8 339.6 130.3 342.2 135.6C342.4 136.3 342 137.3 340.5 138.7C337.1 142 333 144.7 328.7 146.6C325.6 147.8 323.2 148.5 321.3 148.5C317 148.5 315.1 147.1 315.1 144.2C315.1 142.1 316.8 138 320.6 131.5C324 125.7 326.6 121.7 328.8 119.5ZM419.7 122.2C422.6 122.2 425.7 124.3 429.3 128.9C426.7 129.3 424.3 129.8 422.1 129.9C416.4 129.9 413.5 128.5 413.5 125.6C413.5 123.2 415.4 122.2 419.7 122.2ZM234.7 155.2C237.6 157.1 241.2 158.1 245 158.1L245.1 158.1L245.1 143.5C237.6 143.5 233.8 140.6 233.8 134.6C233.8 132.9 234 131.2 234.5 129.3C234.8 128.8 235 128.1 235 127.6C235 126.7 234.5 126.2 234 126.2C233.5 126.2 231.6 128.1 228 132.2C224.1 136.6 222 138.7 221.5 139.2C216 143.5 209.1 145.9 200.9 145.9L200.9 160.5C207.4 160.5 213.6 157.8 219.6 152.8C223.7 149.2 226.3 145.8 228 142.7C228.7 148.2 230.9 152.6 234.7 155.2ZM37.9 134.4C40.8 134.4 43.2 135.8 45.3 139.2C47.5 142.3 49.1 146.6 49.9 151.9C50.1 152.4 50.1 152.6 50.1 152.9L50.3 152.9C50.3 152.7 50.5 152.4 50.5 151.9C51 148.8 52.2 144 53.9 137.7C55.8 133.4 57.7 131.2 59.9 131.2C61.1 131.2 62.3 131.9 63.3 133.4C64.3 134.8 64.7 135.8 64.7 136.8C64.7 137.3 64.7 138.2 64.2 139.2C63.7 140.6 63.2 141.4 62.8 141.4C62.6 141.4 62.1 140.7 61.1 139.7C60.4 138.7 59.4 138.3 58.5 138.3C56.6 138.3 54.9 142.9 53.2 152C52.5 156.1 51.5 159 50.8 160.6C50.1 161.6 49.6 162.3 49.1 162.3C48.6 162.3 48.6 161.6 48.4 160.6C48.6 158.9 47.7 155.8 45.8 151.2C43.9 146.4 42.7 144.2 41.7 144.2C41.2 144.2 41 144.2 40.7 144.7C40.5 144.9 40.2 145.2 39.5 145.2C38.5 145.2 37.6 144.5 36.1 143.3C34.7 142.1 34.2 141.1 34.2 140.4C34.2 140.2 34.7 139 35.9 137C36.9 135.1 37.6 134.4 37.9 134.4ZM89.7 157.2C99.3 153.8 109.6 150 120.7 146.2C121.085 146.123 121.352 146.031 121.545 145.964C121.854 145.858 121.977 145.816 122.1 146C122.3 146 122.3 146.5 121.9 147.2C121.2 149.4 120.5 150.6 120 151C110.4 154.4 99.6 158.4 87.4 164C87.8 161.7 88.5 159.6 89.7 157.2ZM450.6 193.7C451.1 193.7 452.6 193.2 455.2 192.5C457.6 191.7 459.8 190.5 462 189L472.8 178.2C477.9 173.4 482.9 171.2 487.7 171.2C488.4 171.2 489.4 171.4 490.6 171.9C491.8 172.4 493 172.6 493.7 172.6C496.5 172.6 499.4 170.9 502.3 168C505.9 169.7 508.5 170 510.2 169C510.7 168.6 511.4 167.4 512.1 165.2C512.8 163.3 513.3 161.6 513.3 159.9C513.3 158.3 512.9 156.8 511.9 156.1C511.608 155.905 511.222 156.563 510.28 158.164L510.2 158.3C509.5 159.3 509.3 160 509.5 160.5C510 162.1 510.2 163.1 510.2 163.1C510.2 163.3 510 163.3 509.5 163.3C505.9 163.3 504 163 504.5 162.3C505 160.9 505.2 159.7 505.2 159.2C505.2 158.7 505.2 158.5 505 158.5C504.5 158.5 503.8 158.9 503.3 159.9C502.4 161.4 501.4 162.6 500.7 164C499.5 165.5 498 166.2 496.1 166.2C495.1 166.2 493.9 166 492.7 165.5C491.2 165 490 164.8 489.3 164.8C485.7 164.8 482.3 166 478.7 168.6C475.8 170.5 473.2 173.1 470.8 176C467.2 180.4 464.3 183.5 462.4 185.4C458.3 188.5 455.4 190.4 453.5 191.6C451.6 192.8 450.6 193.5 450.6 193.5L450.6 193.7ZM272.1 169.7C272.1 172.3 270.9 175.2 269 178.3C266.8 181.4 264.2 184.3 260.8 186.7C259.4 187.7 258.6 188.1 258.4 188.1L258.4 187.9C258.4 187.7 258.9 187.2 259.8 186C265.3 180 268.2 176.2 268.2 174C268.2 172.3 267.2 171.4 265.6 171.4C264.6 171.4 263.7 171.6 263 172.1C262.3 172.3 262 172.6 261.8 172.6C261.8 172.6 261.6 172.6 261.6 172.4C261.6 172.4 261.6 171.9 261.8 171C262.8 166.9 264.7 165 268 165C270.7 164.9 272.1 166.5 272.1 169.7ZM159.3 173C162.2 173 164.6 174.4 166.7 177.8C168.9 180.9 170.5 185.2 171.3 190.5C171.5 191 171.5 191.2 171.5 191.5L171.7 191.5C171.7 191.3 171.9 191 171.9 190.5C172.4 187.4 173.6 182.6 175.3 176.3C177.2 172 179.1 169.8 181.3 169.8C182.5 169.8 183.7 170.5 184.7 172C185.7 173.4 186.1 174.4 186.1 175.4C186.1 175.9 186.1 176.8 185.6 177.8C185.1 179.2 184.6 180 184.2 180C184 180 183.5 179.3 182.5 178.3C181.8 177.3 180.8 176.9 179.9 176.9C178 176.9 176.3 181.5 174.6 190.6C173.9 194.7 172.9 197.6 172.2 199.2C171.5 200.2 171 200.9 170.5 200.9C170 200.9 170 200.2 169.8 199.2C170 197.5 169.1 194.4 167.2 189.8C165.3 185 164.1 182.8 163.1 182.8C162.6 182.8 162.4 182.8 162.1 183.3C161.9 183.5 161.6 183.8 160.9 183.8C159.9 183.8 159 183.1 157.5 181.9C156.1 180.7 155.6 179.7 155.6 179C155.6 178.8 156.1 177.6 157.3 175.6C158.4 173.7 159.1 173 159.3 173ZM220.3 193.4C220.1 193.2 220.1 192.9 220.3 192.4L224.9 182.8C225.1 182.3 225.6 182.1 225.9 182.1C226.4 182.1 228.5 183.3 232.1 185.7C235.9 188.3 237.9 189.8 237.9 190.3C237.9 192 236.2 195.3 232.9 200.6L232.871 200.64C232.392 201.311 232.19 201.594 231.7 201.3C228 198.5 224.1 195.8 220.3 193.4Z" id="Group" fill="#595959" fill-rule="evenodd" stroke="none" clip-path="url(#clip_1)" />
  </g>
</svg>