<?xml version="1.0" encoding="utf-8"?>
<svg width="457.9001px" height="214.50002px" viewBox="0 0 457.9001 214.50002" version="1.1" xmlns:xlink="http://www.w3.org/1999/xlink" xmlns="http://www.w3.org/2000/svg">
  <defs>
    <path d="M457.9 0L457.9 0L457.9 214.5L0 214.5L0 0L457.9 0Z" id="path_1" />
    <clipPath id="clip_1">
      <use xlink:href="#path_1" clip-rule="evenodd" fill-rule="evenodd" />
    </clipPath>
  </defs>
  <g id="Surah_72_of_114_(modified)">
    <path d="M457.9 0L457.9 0L457.9 214.5L0 214.5L0 0L457.9 0Z" id="Surah_72_of_114_(modified)" fill="none" stroke="none" />
    <path d="M147.098 100.4L146.7 100.3C146.9 99.8 150.3 98.6 156.5 96.9C164.9 94.5 171.9 92.3 177.1 90.2C179.7 89.2 181.2 87.8 181.7 86.1C181.9 84.9 182.2 79.1 182.2 68.6C182.2 63.1 181.7 54.9 181 44.1C180 33.3 179.8 26.8 179.8 24.7C179.8 20.1 179.1 16.3 177.6 13.2C177.6 11.5 179 7.39999 181.7 1C182.2 0.300003 182.4 0 182.7 0C182.9 0 183.4 0.199997 183.7 1C184.4 2.89999 186.3 7.5 189.2 14.9C192.1 22.6 193.8 27.4 194.5 29.3C194.7 30.7 195 31.7 195 32.4C195 34.6 192.8 33.1 188.8 28.3C188.3 27.6 188.1 28.1 188.1 29.3C188.1 29.8 188.3 33.6 188.8 41.3C189.3 49 189.8 54.3 189.8 56.9C189.8 70.6 188.8 80.7 186.9 86.9C185.118 92.6575 182.302 97.4753 178.485 101.579C175.13 101.085 172.745 100.698 171.3 100.4L147.098 100.4ZM218.081 122.702C209.425 123.879 201.525 125.931 194.4 128.9C191.5 130.1 184.1 133.7 171.6 140.2C163.2 144.5 157.4 146.7 154.1 146.7L154.1 146.4C152.445 146.4 151.086 146.396 150.4 146.2C150.4 156.3 149.9 163.7 148.7 169C147.5 174.8 145.3 179.1 142.5 182.2C134.3 190.1 124.7 197.1 113.2 203.1C98.6 210.7 85 214.5 72 214.5C53.8 214.5 41 205.4 34.1 187.4C32.7 184 32.2 179.5 32.2 174C32.2 170.4 32.4 166.8 32.9 163C33.9 157.7 35.1 152.9 36.5 148.8C37.2 147.4 37.7 146.9 38.2 146.9C38.7 146.9 38.7 147.6 38.4 149.3C37.7 151.9 37.2 154.3 36.7 157C35.7 161.3 35.3 164.7 35.3 166.8C35.3 174.2 37.7 181.2 42.7 187.4C49.4 195.6 59.3 199.9 72 199.9C83 199.9 94.8 197.3 107 192C116.6 187.7 125.7 182.4 134.1 175.9C140.8 170.6 144.9 166.5 146.1 163.9C146.1 155.7 143.9 147.1 139.1 138C138.1 136.1 137.9 134.9 137.9 133.9C137.9 133.2 138.6 129.6 140.5 123.3C141 122.3 141.2 121.9 141.7 121.9C142.2 121.9 142.9 122.6 143.6 124.1C144.8 127 145.8 128.7 146.5 129.4C148.2 131.1 150.6 132 154.2 132L154.2 132.1C161.413 132.056 173.579 127.256 190.6 117.7C175.2 115.3 160.1 113.6 145.2 112.4C142.3 112.2 140.9 111.7 140.9 111.2C140.9 111 140.9 110.7 141.1 110.5C142.3 108.1 144 104.7 146.1 100.4L147.098 100.4L172.6 106.8C174.771 105.196 176.733 103.463 178.485 101.579C183.023 102.247 189.336 103.108 197.5 104.2C204.534 105.148 211.038 105.878 216.998 106.414C217.419 112.576 217.78 118.005 218.081 122.702ZM226.129 121.873C226.313 125.514 226.4 127.922 226.4 129.1C226.4 140.4 224.7 150.5 221.4 159.1C220.4 160.8 220 162 219.5 162.9C218.8 164.1 218.5 164.1 218.3 163.4C218.129 162.546 218.25 161.036 218.414 158.993C218.442 158.644 218.471 158.279 218.5 157.9C219 153.8 219.2 149.3 219.2 144.2C219.2 141.523 218.827 134.369 218.081 122.702C220.695 122.346 223.377 122.07 226.129 121.873ZM225.255 107.058C230.944 107.429 236.03 107.6 240.5 107.6C243.1 107.6 244.6 107.8 244.6 108.6C244.6 108.7 244.6 109.2 244.1 109.7L239.1 119.8C238.4 121 237.9 121.5 236.9 121.5C233.201 121.5 229.61 121.624 226.129 121.873C225.942 118.194 225.655 113.257 225.255 107.058ZM225.255 107.058C224.773 99.5998 224.129 90.3157 223.3 79.2C221.1 49.5 219.9 34.6 219.9 34.1C219.9 32.9 220.1 32.4 220.6 33.1C224.9 37.9 226.8 39.1 226.8 36.9C226.8 36.4 226.8 35.2 226.3 34C225.8 32.1 224.1 27.3 221 19.4C218.1 11.9 216.4 7.39999 215.7 5.7C215.2 5 215 4.5 214.5 4.5C214.3 4.5 214 5 213.8 5.7C210.9 11.9 209.7 16 209.7 17.7C211.2 20.9 211.9 24.7 211.9 29.5C211.9 33.6 213.1 52.5 215.6 86.4C216.123 93.7636 216.589 100.434 216.998 106.414C219.877 106.673 222.63 106.887 225.255 107.058ZM263.1 16.1C263.1 18.7 265.2 21.1 269.8 23.5C266.4 27.1 261.4 30.9 254.4 35.2C248.4 38.5 242.7 41.9 236.9 45.5C235.5 46.2 235 47 235 47.2C235 47.2 235 47.4 235.2 47.4C235.4 47.4 236.4 47.2 237.6 46.7C245.3 43.9 249.6 42.2 250.6 41.7C254.2 40.3 258.2 37.6 262.8 34.5C266.6 31.6 269.8 28.5 272.4 24.9C274.6 26.1 276 27.3 276.5 28.3C278.6 25.5 279.6 23.3 279.6 22.1C279.1 21.1 277.7 19.9 275.3 18.7C276.5 15.3 277 12.4 277 9.80002C277 7.00002 276.3 5.30002 274.6 4.80002C272.7 4.10001 270.3 5.10001 267.4 7.70001C264.5 10.1 263.1 13 263.1 16.1ZM150.5 9.3C151.2 8.10001 152.2 7.60001 152.9 7.60001C153.4 7.60001 153.9 7.8 153.9 8.3C153.9 8.3 153.7 8.5 153.7 8.8C152.7 11 151.8 13.4 151.1 15.8C156.1 19.4 158.5 23.2 158.3 26.8C157.8 30.9 157.3 33.5 156.6 34.5C154.2 37.4 151.6 39.1 148.2 39.1C144.8 39.1 143.4 36.9 143.4 33.1C143.4 32.4 143.4 31.4 143.6 30.5C144.7 22.8 147.1 15.8 150.5 9.3ZM317.7 27.1C317.7 27.1 317.5 27.4 317.5 27.6C315.8 30.5 314.4 32.1 312.8 32.2C310.7 32.2 309.7 30 309.7 26.2C309.7 23.1 310.9 18 313.3 10.6C313.8 8.90001 314 7.90001 314 7.70001C313.7 7.70001 313.3 8.60002 312.3 10.3C308.5 17.3 306.8 24.2 306.8 30.7C306.8 36 308.3 38.6 311.4 38.6C314.5 38.6 316.7 35 317.9 27.8C318.1 27.6 318.1 27.3 317.9 27.1C317.9 27.0093 317.9 26.9598 317.881 26.9513C317.859 26.9411 317.809 26.9907 317.7 27.1ZM272.8 13C273.1 14.4 273.1 15.9 272.6 17.3C269 15.6 267.1 14.1 267 12.9C267 12.5 267.4 12 268.4 11.5C269.4 11 270.1 10.8 270.6 10.8C271.8 10.8 272.6 11.6 272.8 13ZM116.9 29C118.8 25.9 120 23 120 20.4C120 17.3 118.6 15.6 115.9 15.7C112.6 15.7 110.7 17.6 109.7 21.7C109.5 22.6 109.5 23.1 109.5 23.1C109.5 23.3 109.7 23.3 109.7 23.3C109.9 23.3 110.2 23 110.9 22.8C111.6 22.3 112.5 22.1 113.5 22.1C115.1 22.1 116.1 23 116.1 24.7C116.1 26.9 113.2 30.7 107.7 36.7C106.8 37.9 106.3 38.4 106.3 38.6L106.3 38.8C106.5 38.8 107.3 38.4 108.7 37.4C112.1 35 114.7 32.1 116.9 29ZM155.8 28.5C155.8 27.3 153.4 25.1 148.4 22.3C146.7 25.2 146 27.8 146 30.2C146 31.6 146.7 32.6 148.2 32.6C149.4 32.6 150.8 32.1 152.5 31.2C154.1 30.5 155.3 29.5 155.8 28.5ZM86.8 47C86.8 47 86.6 47.3 86.6 47.5C85 50.4 83.5 52.1 81.9 52.1C79.8 52.1 78.8 49.9 78.8 46.1C78.8 43 80 37.9 82.4 30.5C82.9 28.8 83.1 27.8 83.1 27.6C82.8 27.6 82.4 28.5 81.4 30.2C77.6 37.2 75.9 44.1 75.9 50.6C75.9 55.9 77.4 58.5 80.5 58.5C83.6 58.5 85.8 54.9 87 47.7C87.2 47.5 87.2 47.2 87 47C87 46.9093 87 46.8598 86.9813 46.8513C86.9589 46.8411 86.9095 46.8905 86.8 47ZM296.2 61.2C320.4 52.1 345.6 43 371.6 33.4C371.802 33.3422 371.988 33.2761 372.149 33.2186C372.547 33.0768 372.8 32.9866 372.8 33.2C373 33.2 373 33.7 372.8 34.4C371.8 36.6 371.1 37.8 370.6 38.2C370.4 38.4 358.1 43 334.4 51.9C310.2 60.8 296.5 66.3 293.8 68C294.2 65.7 295 63.6 296.2 61.2ZM426.7 62.4C424.3 68.2 423.1 72.7 423.1 76.1C423.1 80.2 424.1 82.3 426.2 82.3C427.4 82.3 428.8 80.6 430.5 77.7C430.7 77.5 430.7 77.2 431 77C431 77 431.2 77 431.2 77.2L431.2 77.9C429.8 85.1001 427.6 88.7 424.7 88.7C421.6 88.7 420.1 86.1 420.1 80.8C420.1 78.2 420.6 74.8 422 70.5C423.4 66.2001 424.2 64 424.2 63.8C424.2 63.3 423.2 62.4 421.1 61.2C417.3 66.2 412 71 405.3 75.1C400.7 77.7 396.2 80.1 391.4 82.1C382.5 85.7 377.2 87.6 376 88.3C374.8 88.8 374.1 89 373.6 89C373.4 89 373.4 88.8 373.4 88.8C373.4 88.3 373.9 87.8 375.3 86.9C383 82.6001 390.4 78.3 398.1 73.9C408.2 68.1001 415.1 63.3 418.5 59.7C413.9 57.3 411.8 54.9 411.8 52.3C411.8 49.2 413.2 46.3 416.1 43.7C419 41.3 421.4 40.3 423.3 41.1C424.7 41.6 425.7 43.3 425.7 46.1C425.7 48.7 425.2 51.6 424 54.7C426.4 56.1 427.4 57.6 427.4 59C427.4 59.7 427.2 60.9 426.7 62.4ZM421.4 53.5C421.9 52.1 421.9 50.6 421.6 49.2C421.4 47.8 420.6 47 419.4 47C418.9 47 418.2 47.2 417.2 47.7C416.2 48.2 415.8 48.7 415.8 49.1C415.9 50.4 417.8 51.8 421.4 53.5ZM160.6 70.3C160.6 70.1 160.8 69.8 160.8 69.8L160.8 69.7998C160.91 69.6903 160.959 69.6411 160.981 69.6513C161 69.6598 161 69.7093 161 69.8C161.2 70 161.2 70.3 161 70.5C159.8 77.7 157.6 81.3 154.5 81.3C151.4 81.3 149.9 78.7 149.9 73.4C149.9 66.9 151.6 60 155.4 53C156.4 51.3 156.8 50.4 157.1 50.4C157.1 50.6 156.9 51.6 156.4 53.3C154 60.7 152.8 65.8 152.8 68.9C152.8 72.7 153.8 74.9 155.9 74.9C157.4 74.9 158.9 73.2 160.6 70.3ZM265.6 52.1L261.8 60C260.9 59 258.7 57.3 255.6 55.5C252.5 53.3 250.8 52.1001 250.3 52.1001C250 52.1001 249.5 52.6001 249.3 53.1001L244.7 62.7001C244.5 63.2001 244.5 63.5 244.7 63.7001C248.6 66.1001 252.4 68.7001 256 71.6001C256.5 71.9 257 71.6001 257.2 70.9C258.7 68.7 259.9 66.1 261.3 63.2C265.4 65.8 269 68.2 272.1 70.6C272.5 70.8 273 70.8 273.5 70.1C276.6 64.8 278.3 61.2 278.3 59.5C278.3 59 276.4 57.6 272.8 55.2C269 52.6 267.1 51.4 266.6 51.4C266.1 51.4 265.8 51.6 265.6 52.1ZM344.1 69.1C342 65.7 339.6 64.3 336.7 64.3C336.5 64.3 335.8 65 334.7 66.9C333.5 68.9 333 70.1 333 70.3C333 71 333.5 72 334.9 73.2C336.4 74.4 337.3 75.1 338.3 75.1C339 75.1 339.3 74.8 339.5 74.6C339.8 74.1 340 74.1 340.5 74.1C341.5 74.1 342.7 76.3 344.6 81.1C346.5 85.7 347.4 88.8 347.2 90.5C347.4 91.5 347.4 92.2 347.9 92.2C348.4 92.2 348.9 91.5 349.6 90.5C350.3 88.9 351.3 86 352 81.9C353.7 72.8 355.4 68.2 357.3 68.2C358.2 68.2 359.2 68.6 359.9 69.6C360.9 70.6 361.4 71.3 361.6 71.3C362 71.3 362.5 70.5 363 69.1C363.5 68.1 363.5 67.2 363.5 66.7C363.5 65.7 363.1 64.7 362.1 63.3C361.1 61.8 359.9 61.1 358.7 61.1C356.5 61.1 354.6 63.3 352.7 67.6C351 73.9 349.8 78.7 349.3 81.8C349.3 82.3 349.1 82.6 349.1 82.8L348.9 82.8C348.9 82.5 348.9 82.3 348.7 81.8C347.9 76.5 346.3 72.2 344.1 69.1ZM128.4 77.7C128.4 79.6 127.9 81.8 127 83.7C125.8 86.3 124.4 87.8 122.7 87.8C119.8 87.8 117.9 85.9 116.7 82C115.3 86.8 112.9 89.4 109.3 89.4C108.1 89.4 106.9 88.7 105.9 87.2C104.7 85.8 104.2 83.6 104.2 81.2L104.2 75C104.2 74.5 103.7 74.3 103.2 74C102.5 73.8 102.2 73.3 102.2 72.6C102.2 71.2 102.7 70 103.6 68.8C104.6 67.6 105.3 67.1 105.8 67.1C106.5 67.1 107 68.3 107 70.9C107 72.3 106.8 73.5 106.8 74.5C106.6 75.5 106.6 76.2 106.6 76.9C106.6 78.3 106.8 79.8 107.3 81C108 82.4 109 83.4 109.9 83.4C111.3 83.4 112.5 82.7 113.7 81.5C114.9 80.3 115.6 78.9 115.6 77.2C115.6 76.2 115.1 74.8 114.6 72.4C113.9 70.2 113.6 68.8 113.6 68.3C113.6 67.8 113.8 67.1 114.3 65.9C114.8 64.9 115.3 64.5 115.5 64.5C116 64.5 116.5 65.9 117.2 68.8C117.9 71.9 118.4 74.1 118.4 75.5C118.4 79.6 119.8 81.7 123 81.7C124.4 81.7 125.4 81 125.6 79.5C123 74.7 121.5 71.1 121.5 68.5C121.5 67.1 121.7 65.9 122.7 64.7C123.2 64 123.4 63.5 123.7 63.5C123.9 63.5 124.2 64 124.2 64.9C124.4 66.1 124.7 67.3 124.9 68.3C124.9 68.3 125.6 70 126.8 73.3C127.9 75.3 128.4 76.8 128.4 77.7ZM69.4 72C69.4 72.5 69.2 73.4 68.9 74.4C68.4 75.8 67.9 76.6 67.2 76.6C67 76.6 66.5 75.9 65.5 74.9C64.8 73.9 63.8 73.5 63.1 73.5C61.2 73.5 59.3 78.1 57.6 87.2C56.9 91.3 56.2 93.9 55.2 95.6C54.5 96.8 54 97.3 53.5 97.3C53.3 97.3 53 96.8 53 95.9C53 94.2 52 91.1001 50.1 86.5C48.4 81.7001 47 79.5 46.3 79.5C45.8 79.5 45.3 79.5 45.3 80C45.1 80.2001 44.6 80.5 43.9 80.5C42.9 80.5 41.7 79.8 40.3 78.6001C39.7452 78.0452 39.3317 77.5532 39.0471 77.1302C39.6631 75.7899 39.9342 74.8698 39.8 74.4C40 74.4 39.8 74.2 39.8 74.2C39.6673 74.2 39.4027 74.376 39.0936 74.7863C38.935 75.0778 38.7705 75.3823 38.6 75.7001C38.4793 76.0019 38.6136 76.4859 39.0471 77.1302C38.7452 77.7871 38.3605 78.5449 37.9 79.4C35.5 84 32.1 87.6 27.8 90.7C23.2 94.1 19.2 96.5 15.6 98.1C14.9 98.6 10.6 100.3 2.59999 103.1C1.39999 103.6 0.699997 103.8 0.199997 103.8C0 103.8 0 103.6 0 103.6C0 103.4 0.699997 102.6 1.89999 101.9C8.59999 98.3 17.7 92.5 29.5 84.6C34.3 81.1 37.2 78 38.6 75.6C38.7683 75.2633 38.9367 74.9946 39.0936 74.7863C40.9812 71.317 42.031 69.7001 42.4 69.7001C45 69.7001 47.7 71.1001 49.8 74.5C52 77.6001 53.4 81.9 54.4 87L54.4 88C54.5093 88.1094 54.5589 88.1589 54.5814 88.1488C54.6 88.1403 54.6 88.0907 54.6 88C54.6 88 54.8 87.8 55.1 87C55.6 84.1001 56.5 79.3 58.2 73.1001C60.1 68.8001 62 66.6001 64.4 66.6001C65.4 66.6001 66.6 67.3001 67.8 68.8001C68.9 70.1 69.4 71 69.4 72ZM284.6 78.2C284.6 82 282.7 87.3 278.8 93.8C276.4 97.9 272.8 103.4 268 110.6C272.8 116.1 276.2 121.2 277.8 125.5C278.8 128.6 279.5 132.7 279.5 137.3C279.5 139.2 279 141.6 278.1 144.7C277.4 147.6 276.4 149.7 275.5 151.2C273.6 154.1 270.5 157 265.7 159.8C260.7 163.2 256.3 164.8 252.7 164.8C246.9 164.8 244.1 160.5 244.1 151.8C244.1 146 245.1 140.3 247 135C248.9 130.4 252 124.4 257.1 116.5C252.8 112.4 248.2 106.7 243.2 99.5C242.7 98.8 241.5 97.6 239.6 95.7C238.6 94.7 238.2 93.5 238.2 92.1C238.2 89.9 238.4 87.5 238.9 84.7C239.6 81.8 240.1 80.6 240.3 80.6C241 80.6 243.2 81.8 247.3 84.4C251.1 87 254.3 89 256.2 90.6C257.4 91.3 257.9 92 257.9 92L257.9 92.2C257.9 92.4 257.2 92.7 255.5 92.7C252.4 92.7 250.7 92.9 250.7 93.2C250.7 93.4 251.2 93.9 252.1 95.1C255.9 99.9 259.8 103.5 263.9 106.4C264.9 105 268.2 100.2 273.5 92C278.1 85 280.7 80.2 281.9 77.4C283.1 74.5 283.8 73.3 284.3 73.3C284.4 73.4 284.6 74.9 284.6 78.2ZM302.1 106.6C303.1 107.8 303.8 109.4 304.3 111.6C305.5 115.7 307.9 121.4 311.2 128.5C314.1 134.8 315.5 138.1 315.5 138.6C315.5 140.6 312.6 143.7 307.1 148C302.237 151.614 295.907 155.746 288.108 160.34C288.835 155.837 290.125 150.413 292 144C292.3 142.5 292.5 141.3 292.5 140.6C292.5 140.1 292.5 139.9 292.3 139.9C291.8 139.9 291.3 140.9 290.1 143.3C287.711 149.751 285.964 156.024 284.944 162.182C281.753 164.02 278.338 165.927 274.7 167.9C265.3 173 253.6 178.5 239.4 184.5C219 193.1 207.9 197.9 206 198.9C200.7 201.3 198.1 202.8 198.1 203C198.1 203.2 198.1 203.2 198.6 203.2C199.6 203.2 202 202.9 205.8 202.2C209.4 201.7 218.5 199.6 232.9 196.2C246.6 192.9 253.8 191.2 254.3 191.2C256.9 191.2 265.3 187.1 279.7 178.7C281.149 177.888 282.56 177.081 283.934 176.279C284.214 183.422 286.188 189.579 289.7 194.2C294 200.2 300.2 203.3 308.4 203.3C318 203.3 329 198.3 342 188.7C350.7 182.2 358.6 174.7 365.8 166.1C368.9 162.5 371.5 157.9 373.2 152.4C374.7 148 375.4 144.7 375.4 141.8L375.9 141.3L375.9 128.1C374.9 128.6 374.4 128.6 374.2 128.6C371.8 123.6 368.9 119.5 365.8 115.9C362.2 112.3 359.1 110.4 356 110.4C351.9 110.4 348.1 112.5 344.5 116.6C340.7 121.4 339 126.7 339 132.7C339 140.6 344.8 144.7 356.3 144.7C361.6 144.7 365.9 144 368.8 143C369.3 144.7 369.8 146.4 369.8 147.8C369.8 150 366.2 154.3 359.2 161.1C351.5 168.3 343.6 174.3 335.4 179.3C325 185.6 316.4 188.7 309.2 188.7C300.8 188.7 294.8 186 291 181C289.587 178.88 288.589 176.482 288.008 173.848C300.272 166.363 309.232 159.31 315 152.8C317 150.6 318.4 147.5 319.6 143.4C320.5 139.8 321 136.9 321 134.5C321 129.4 319.5 123.9 316.9 117.2C315.2 113.4 313.3 109.3 311.6 105.2C314.5 105.9 316.4 106.4 317.1 106.4C317.6 106.4 317.8 106.1 317.8 105.9C317.8 105.4 317.1 104.5 315.4 102.8C311.4 98.7 307.8 94.8 304.4 91C303.9 90.5 303.6 90.3 303.4 90.3C302.9 90.3 302.6 90.8 302.4 92C301.9 93.2 301.7 95.4 301.2 98.5C300.7 101.8 300.7 103.5 300.7 104C300.9 104.4 301.4 105.2 302.1 106.6ZM402 113.1C401.3 113.1 400.3 113.5 399.1 114.5C395.3 117.8 391.4 120.7 387.5 122.7C386.3 123.5 382.2 125.4 376 128.5L376 141.7C384.4 137.8 390.9 133.8 394.7 129.2C394.7 140.2 399.5 146 409.6 146C418 146 424.9 141.2 430.2 131.6C433.4 137.4 437 140.5 440.8 140.5C446.6 140.5 450.9 137.9 453.8 132.6C456.5 128.2 457.9 123.2 457.9 117.2C457.9 113.3 456.7 110 454.8 107.1C454.1 106.1 453.6 105.9 453.1 105.9C452.6 105.9 452.1 106.7 451.9 108.1C450.5 112.6 449.5 116 449.3 117.9C451.4 121.5 452.4 123.5 452.4 123.7C451.4 125.3 449.3 126.3 445.9 126.3C443.3 126.3 440.9 125.3 439.2 123.9C437.3 122.5 436.3 120.8 436.3 119.1C436.3 119.6 437 117.7 438 113.6C438.5 111.5 438.3 110.5 437.3 110.5C436.6 110.5 435.9 110.9 434.9 111.9C432.5 115.8 429.9 119.6 427.5 123.7C423.6 128.8 418.6 131.4 412.6 131.4C405.1 131.4 401.3 128.5 401.3 123.2C401.3 122 401.5 120.5 402 118.6C402.5 116.7 402.7 115.2 402.7 114.5C402.7 113.6 402.5 113.1 402 113.1ZM79.4 117.6C79.2 117.4 79.2 117.1 79.4 116.6L84 107C84.2 106.5 84.7 106.3 85 106.3C85.5 106.3 87.6 107.5 91.2 109.9C95 112.5 97 114 97 114.5C97 116.2 95.3 119.5 92 124.8L91.9712 124.84C91.4921 125.511 91.2903 125.794 90.8 125.5C87.1 122.6 83.3 120 79.4 117.6ZM42.2 135.1C42.2 135.1 42 135.4 42 135.6C40.3 138.5 38.9 140.1 37.3 140.2C35.2 140.2 34.2 138 34.2 134.2C34.2 131.1 35.4 126 37.8 118.6C38.3 116.9 38.5 115.9 38.5 115.7C38.2 115.7 37.8 116.6 36.8 118.3C33 125.3 31.3 132.2 31.3 138.7C31.3 144 32.8 146.6 35.9 146.6C39 146.6 41.2 143 42.4 135.8C42.6 135.6 42.6 135.3 42.4 135.1C42.4 135.009 42.4 134.96 42.3813 134.951C42.3589 134.941 42.3093 134.991 42.2 135.1ZM275.3 137.3C272.7 132 268.1 126.5 261.9 121.2C259.7 123.4 257.1 127.4 253.7 133.2C249.9 139.7 248.2 143.8 248.2 145.9C248.2 148.8 250.1 150.2 254.4 150.2C256.3 150.2 258.7 149.5 261.8 148.3C266.1 146.4 270.2 143.7 273.6 140.4C275 138.9 275.5 138 275.3 137.3ZM362.4 130.3C358.8 125.7 355.7 123.6 352.8 123.6C348.5 123.6 346.6 124.6 346.6 127C346.6 129.9 349.5 131.3 355.2 131.3C357.23 131.3 359.43 130.874 361.8 130.416C361.999 130.377 362.199 130.339 362.4 130.3ZM124.8 148.3C124.8 148.3 124.6 148.6 124.6 148.8C122.9 151.7 121.4 153.3 119.9 153.4C117.8 153.4 116.8 151.2 116.8 147.4C116.8 144.3 118 139.2 120.4 131.8C120.9 130.1 121.1 129.1 121.1 128.9C120.8 128.9 120.4 129.8 119.4 131.5C115.6 138.5 113.9 145.4 113.9 151.9C113.9 157.2 115.4 159.8 118.5 159.8C121.6 159.8 123.8 156.2 125 149C125.2 148.8 125.2 148.5 125 148.3C125 148.209 125 148.16 124.981 148.151C124.959 148.141 124.909 148.191 124.8 148.3ZM65.8 148.8C68.7 148.8 71.1 150.2 73.2 153.6C75.4 156.7 77 161 77.8 166.3C78 166.8 78 167 78 167.3L78.2 167.3C78.2 167.1 78.4 166.8 78.4 166.3C78.9 163.2 80.1 158.4 81.8 152.1C83.7 147.8 85.6 145.6 87.8 145.6C89 145.6 90.2 146.3 91.2 147.8C92.2 149.2 92.6 150.2 92.6 151.2C92.6 151.7 92.6 152.6 92.1 153.6C91.6 155 91.1 155.8 90.7 155.8C90.5 155.8 90 155.1 89 154.1C88.3 153.1 87.3 152.7 86.4 152.7C84.5 152.7 82.8 157.3 81.1 166.4C80.4 170.5 79.4 173.4 78.7 175C78 176 77.5 176.7 77 176.7C76.5 176.7 76.5 176 76.3 175C76.5 173.3 75.6 170.2 73.7 165.6C71.8 160.8 70.6 158.6 69.6 158.6C69.1 158.6 68.9 158.6 68.6 159.1C68.4 159.3 68.1 159.6 67.4 159.6C66.4 159.6 65.5 158.9 64 157.7C62.6 156.5 62.1 155.5 62.1 154.8C62.1 154.6 62.6 153.4 63.8 151.4C64.8 149.5 65.5 148.8 65.8 148.8ZM182.6 159.3C182.4 159.8 182.4 160.1 182.6 160.3C186.5 162.7 190.3 165.3 194 168.2C194.49 168.494 194.692 168.211 195.171 167.54L195.2 167.5C198.5 162.2 200.2 158.9 200.2 157.2C200.2 156.7 198.2 155.2 194.4 152.6C190.8 150.2 188.7 149 188.2 149C187.9 149 187.4 149.2 187.2 149.7L182.6 159.3ZM388.3 193.9C385.7 194.6 384.2 195.1 383.7 195.1L383.7 194.9C383.7 194.9 384.7 194.2 386.6 193C388.5 191.8 391.4 189.9 395.5 186.8C397.4 184.9 400.3 181.8 403.9 177.4C406.3 174.5 408.9 171.9 411.8 170C415.4 167.4 418.8 166.2 422.4 166.2C423.1 166.2 424.3 166.4 425.8 166.9C427 167.4 428.2 167.6 429.2 167.6C431.1 167.6 432.6 166.9 433.8 165.4C434.5 164 435.5 162.8 436.4 161.3C436.9 160.3 437.6 159.9 438.1 159.9C438.3 159.9 438.3 160.1 438.3 160.6C438.3 161.1 438.1 162.3 437.6 163.7C437.1 164.4 439 164.7 442.6 164.7C443.1 164.7 443.3 164.7 443.3 164.5C443.3 164.5 443.1 163.5 442.6 161.9C442.4 161.4 442.6 160.7 443.3 159.7L443.38 159.564C444.322 157.963 444.708 157.305 445 157.5C446 158.2 446.4 159.7 446.4 161.3C446.4 163 445.9 164.7 445.2 166.6C444.5 168.8 443.8 170 443.3 170.4C441.6 171.4 439 171.1 435.4 169.4C432.5 172.3 429.6 174 426.8 174C426.1 174 424.9 173.8 423.7 173.3C422.5 172.8 421.5 172.6 420.8 172.6C416 172.6 411 174.8 405.9 179.6L395.1 190.4C392.9 192 390.7 193.2 388.3 193.9ZM213.3 176.6C193.2 184.1 174 191.3 155.5 198C154.3 200.4 153.6 202.5 153 204.7C175.6 195.3 195.5 187.6 212.3 181.4C212.8 181 213.5 179.8 214.5 177.6C214.7 176.9 214.7 176.4 214.7 176.4C214.551 176.176 214.235 176.286 213.794 176.439C213.644 176.492 213.478 176.549 213.3 176.6Z" id="Group" fill="#595959" fill-rule="evenodd" stroke="none" clip-path="url(#clip_1)" />
  </g>
</svg>