<?xml version="1.0" encoding="utf-8"?>
<svg width="589.1001px" height="208.90002px" viewBox="0 0 589.1001 208.90002" version="1.1" xmlns:xlink="http://www.w3.org/1999/xlink" xmlns="http://www.w3.org/2000/svg">
  <defs>
    <path d="M589.1 0L589.1 0L589.1 208.9L0 208.9L0 0L589.1 0Z" id="path_1" />
    <clipPath id="clip_1">
      <use xlink:href="#path_1" clip-rule="evenodd" fill-rule="evenodd" />
    </clipPath>
  </defs>
  <g id="Surah_60_of_114_(modified)">
    <path d="M589.1 0L589.1 0L589.1 208.9L0 208.9L0 0L589.1 0Z" id="Surah_60_of_114_(modified)" fill="none" stroke="none" />
    <path d="M347.6 30.5C347.6 25.7 346.9 21.9 345.4 18.7C345.4 17 346.6 12.9 349.5 6.7C349.7 6 350 5.5 350.2 5.5C350.7 5.5 350.9 6 351.4 6.7C352.1 8.39999 353.8 12.9 356.7 20.4C359.8 28.3 361.5 33.1 362 35C362.5 36.2 362.5 37.4 362.5 37.9C362.5 40.1 360.6 38.9 356.3 34.1C355.8 33.4 355.6 33.9 355.6 35.1C355.6 35.6 356.8 50.5 359 80.2C361.2 109.7 362.1 126.3 362.1 130.1C362.1 141.4 360.4 151.5 357.1 160.1C356.1 161.8 355.7 163 355.2 163.9L355.2 163.9C354.5 165.1 354.2 165.1 354 164.4C353.8 163.4 354 161.5 354.2 158.9C354.7 154.8 354.9 150.3 354.9 145.2C354.9 140.4 353.7 121.2 351.3 87.4C348.8 53.5 347.6 34.5 347.6 30.5L347.6 30.5L347.6 30.5L347.6 30.5L347.6 30.5ZM316.9 134.9L304.9 121.5C316.4 119.3 323.9 117.7 327.7 116C329.6 115 330.8 111.9 330.8 106.4C330.8 105.2 330.6 102.6 330.6 99C330.4 95.2 330.4 92 330.4 89.6C330.4 84.6 329.7 74 328.5 57.4C327.3 41.1 326.8 30.8 326.8 26.7C326.8 22.1 326.1 18.3 324.6 15.2C324.6 13.5 326 9.39999 328.7 3C328.9 2.3 329.4 2 329.7 2C329.9 2 330.2 2.2 330.7 3.2C331.4 4.89999 333.1 9.39999 336.2 16.9C339.1 24.8 340.8 29.6 341.2 31.1C341.7 32.8 341.9 34 341.9 34.5C341.9 36.7 339.7 35.5 335.7 30.7C335.2 30 335 30.5 335 31.7C335 31.9 335.5 38.7 336.4 51.4C337.4 64.4 337.8 73.2 337.8 78C337.8 97.4 335.9 111.6 332 120C329.4 126 324.3 131 316.9 134.9L316.9 134.9L316.9 134.9L316.9 134.9L316.9 134.9ZM321.2 145.2C318.6 141.1 313.8 138.7 307 137.5C305.3 137.3 304.4 137.5 304.4 138C304.4 138.2 304.6 138.7 305.1 139.4C310.1 145.4 314.9 148.5 320 148.5C321.4 148.5 322.2 148 322.2 147.5C322.2 147.1 321.9 146.4 321.2 145.2L321.2 145.2L321.2 145.2L321.2 145.2L321.2 145.2ZM297 127.9C298 126.2 298.9 125.5 299.6 125.5C300.1 125.5 300.6 125.7 301 126C301.5 125.3 301.7 124.6 302 123.6C302.7 122.4 303.7 121.7 304.9 121.2C305.6 121.2 308.3 121.9 313.1 123.4C317.7 124.8 320.8 126.3 322.5 127.2C329.2 131.8 332.6 138.2 332.6 146.6C332.6 150.2 331.2 153.8 328.5 157.4C325.6 161.5 322.5 163.4 318.9 163.4C315.1 163.4 310.7 161.5 305.9 157.4C300.9 152.8 297.5 147.6 295.8 141.6C291.5 155.5 284 162.7 273.2 162.7L273.2 148.1C278.2 148.1 282.8 146.7 286.4 143.8C289 141.9 291.4 139 293.6 135.2C294.8 132.7 296 130.3 297 127.9L297 127.9L297 127.9L297 127.9L297 127.9ZM273.5 162.5C274.2 164.7 274.7 167.5 274.7 170.7C274.7 174.5 274 177.9 272.8 180.8C272.1 182.2 271.6 183.2 270.9 183.2C269.9 183.2 268.7 182.5 266.8 181.5C261 178.1 257 174.1 254.8 169.3C253.6 166.7 252.6 162.1 252.2 156.3C252 155.3 252 154.6 251.7 154.6C251.2 154.6 250.7 155.3 250.3 156.3C247.9 158.9 245.5 161.8 243.1 164.9C238.8 168.7 234 170.9 228.5 170.9L228.5 156C235.5 156 241 154.3 245.5 151C246.5 150.3 248.9 147.6 252.5 143.6C253.9 141.7 255.1 141 256.1 141C256.6 141 257.3 141.2 258.3 142C261.2 144.4 263.1 145.8 264.1 146.3C266.5 147.5 269.6 148 273.7 148L273.7 162.5L273.5 162.5L273.5 162.5L273.5 162.5ZM228.3 170.6C218.5 170.6 210.8 169.2 205.3 166C197.6 161.7 192.8 154.2 190.7 143.2C190.2 139.8 189 130 187.1 113.4C185.9 101.6 184.7 95.9 183.3 95.9C181.9 95.9 180.4 97.8 178.5 102.1C175.9 108.6 173.5 113.4 171.3 116.7C167.2 123.2 161.9 128.7 155.5 133L130.1 133C130.6 132.3 135.1 129.4 144 124.4C153.6 118.9 160.8 113.6 165.8 108.1C169.6 103.8 173.7 97.5 178.3 89.6C181.4 83.8 184.1 81.2 186 81C188.2 81.2 189.8 84.6 191.3 91.8C192.3 96.4 193.2 104 194.4 115.1C195.4 126.1 196.3 133.3 197 137.2C198.2 143.7 202.3 148.7 209.2 152.1C214.7 154.7 221 155.9 228.4 155.9L228.4 170.6L228.3 170.6L228.3 170.6L228.3 170.6ZM227.9 142.3L222.9 152.4C222.2 153.6 221.7 154.1 220.7 154.1C204.4 154.1 190.2 156.5 178.2 161.5C175.3 162.7 167.9 166.3 155.4 172.8C147 177.1 141.2 179.3 137.9 179.3L137.9 164.7C145.1 164.7 157.3 159.9 174.4 150.3C159 147.9 143.9 146.2 129 145C126.1 144.8 124.7 144.3 124.7 143.8C124.7 143.6 124.7 143.3 124.9 143.1C126.1 140.7 127.8 137.3 129.9 133L155.1 133C158.5 133.7 167.1 134.9 181.3 136.8C199.1 139.2 213.5 140.2 224.3 140.2C226.9 140.2 228.4 140.4 228.4 141.2C228.3 141.3 228.3 141.8 227.9 142.3L227.9 142.3L227.9 142.3L227.9 142.3L227.9 142.3ZM137.6 179C133.8 179 130.2 178 127.3 176.1C123.5 173.5 121.3 169.1 120.6 163.6C118.9 166.7 116.3 170.1 112.2 173.7C106.2 178.7 100 181.4 93.5 181.4L93.5 166.8C101.7 166.8 108.6 164.4 114.1 160.1C114.6 159.6 116.7 157.5 120.6 153.1C124.2 149 126.1 147.1 126.6 147.1C127.1 147.1 127.6 147.6 127.6 148.5C127.6 149 127.4 149.7 127.1 150.2C126.6 152.1 126.4 153.8 126.4 155.5C126.4 161.5 130.2 164.4 137.7 164.4L137.7 179L137.6 179L137.6 179L137.6 179ZM93.7 181.4C88.7 181.4 85.1 180.9 82.9 180.4C78.1 179 74.3 175.8 71.1 171C69.2 167.9 67.3 164.5 65.3 161.2C63.4 158.3 61.7 157.1 60 157.1C54.5 157.1 48.7 161.7 42.5 171C41.5 172.7 39.6 177 36.7 184C34.1 191 31.7 196 29.5 199.4C26.4 204.2 22.8 206.6 19.2 206.6C13.9 206.6 9.39996 202.3 5.49997 193.9C2.09997 186.5 0.699966 178.8 0.699966 170.9C0.699966 161.3 1.69997 153.4 3.59997 147.6C4.09997 145.7 4.59997 144.7 4.99997 144.7C5.69997 144.7 5.99997 145.9 5.49997 148.3C4.79997 154.5 4.49997 159.8 4.49997 164.1C4.49997 184.5 9.09997 194.8 18.7 194.8C22.5 194.8 25.9 191.7 29.3 185.7C32.4 178.5 35.8 171.3 39.1 164.1C42 158.3 45.6 153.3 49.9 149C54 144.7 58.1 142.8 61.4 142.8C64 142.8 66.7 144.5 68.8 147.6C70.7 150.7 72.4 153.8 74.3 157C76.9 160.6 79.6 163.2 82.5 164.7C85.3999 165.9 89 166.6 93.5 166.6L93.5 181.4L93.7 181.4L93.7 181.4L93.7 181.4ZM181.8 58.3L185.6 50.4C185.8 49.9 186.1 49.7 186.6 49.7C187.1 49.7 189 50.9 192.8 53.5C196.4 55.9 198.3 57.3 198.3 57.8C198.3 59.5 196.6 63.1 193.5 68.4C193 69.1 192.5 69.1 192.1 68.9C189 66.5 185.4 64.1 181.3 61.5C179.9 64.4 178.7 67 177.2 69.2C177 69.9 176.5 70.2 176 69.9C172.4 67 168.6 64.4 164.7 62C164.5 61.8 164.5 61.5 164.7 61L169.3 51.4C169.5 50.9 170 50.4 170.3 50.4C170.8 50.4 172.5 51.6 175.6 53.8C178.7 55.7 180.8 57.3 181.8 58.3L181.8 58.3L181.8 58.3L181.8 58.3L181.8 58.3ZM110.5 112.3C110.3 112.1 110.3 111.8 110.5 111.3L115.1 101.7C115.3 101.2 115.8 101 116.1 101C116.6 101 118.7 102.2 122.3 104.6C126.1 107.2 128.1 108.7 128.1 109.2C128.1 110.9 126.4 114.2 123.1 119.5C122.6 120.2 122.4 120.5 121.9 120.2C118.2 117.3 114.3 114.7 110.5 112.3L110.5 112.3L110.5 112.3L110.5 112.3L110.5 112.3ZM307.3 20.9C307.3 19.7 304.9 17.5 299.9 14.7C298.2 17.6 297.5 20.2 297.5 22.6C297.5 24 298.2 25 299.7 25C300.9 25 302.3 24.5 304 23.6C305.6 22.8 306.8 21.8 307.3 20.9L307.3 20.9L307.3 20.9L307.3 20.9L307.3 20.9ZM302 1.7C302.7 0.5 303.7 0 304.4 0C304.9 0 305.4 0.199997 305.4 0.699997C305.4 0.699997 305.2 0.899994 305.2 1.2C304.2 3.39999 303.3 5.8 302.6 8.2C307.6 11.8 310 15.6 309.8 19.2C309.3 23.3 308.8 25.9 308.1 26.9C305.7 29.8 303.1 31.5 299.7 31.5C296.3 31.5 294.9 29.3 294.9 25.5C294.9 24.8 294.9 23.8 295.1 22.9C296.3 15.1 298.7 8.09999 302 1.7L302 1.7L302 1.7L302 1.7L302 1.7ZM247.1 120.9C247.1 119.7 244.7 117.5 239.7 114.7C238 117.6 237.3 120.2 237.3 122.6C237.3 124 238 125 239.5 125C240.7 125 242.1 124.5 243.8 123.6C245.4 122.9 246.6 121.9 247.1 120.9L247.1 120.9L247.1 120.9L247.1 120.9L247.1 120.9ZM241.8 101.7C242.5 100.5 243.5 100 244.2 100C244.7 100 245.2 100.2 245.2 100.7C245.2 100.7 245 100.9 245 101.2C244 103.4 243.1 105.8 242.4 108.2C247.4 111.8 249.8 115.6 249.6 119.2C249.1 123.3 248.6 125.9 247.9 126.9C245.5 129.8 242.9 131.5 239.5 131.5C236.1 131.5 234.7 129.3 234.7 125.5C234.7 124.8 234.7 123.8 234.9 122.9C236 115.2 238.4 108.2 241.8 101.7L241.8 101.7L241.8 101.7L241.8 101.7L241.8 101.7ZM50 73.7C57.2 70.3 82.2 60.5 125.1 44.2C158.5 32 192.1 19.2 226.4 6.49998C227.4 6.29999 227.6 5.99998 227.8 6.29999C227.8 6.29999 227.8 6.79999 227.6 7.49998C226.6 9.39998 225.9 10.6 225.2 11.3C207.9 18 175 30.5 126.3 49C79.3 67 52.9 77.6 47.6 80.7C48.1 78.5 48.8 76.1 50 73.7L50 73.7L50 73.7L50 73.7L50 73.7ZM77.4 89.5C101.6 80.4 126.8 71.3 152.8 61.7C153.5 61.5 154 61.2 154 61.5C154.2 61.5 154.2 62 154 62.7C153 64.9 152.3 66.1 151.8 66.5C151.6 66.7 139.3 71.3 115.6 80.2C91.4 89.1 77.7 94.6 75 96.3C75.5 94.1 76.2 91.9 77.4 89.5L77.4 89.5L77.4 89.5L77.4 89.5L77.4 89.5ZM34.4 55.7C75 40.3 116.2 25 158.5 9.09998C159.2 8.89998 159.7 8.59998 159.7 8.89998C159.9 8.89998 159.9 9.39998 159.7 10.1C158.7 12.3 158 13.5 157.5 13.9C118.9 28.3 76.9 44.4 32 62.4C32.5 60.2 33.2 58.1 34.4 55.7L34.4 55.7L34.4 55.7L34.4 55.7L34.4 55.7ZM53.4 116.4L57.2 108.5C57.4 108 57.7 107.8 58.2 107.8C58.7 107.8 60.6 109 64.4 111.6C68 114 69.9 115.4 69.9 115.9C69.9 117.6 68.2 121.2 65.1 126.5C64.6 127.2 64.1 127.2 63.7 127C60.6 124.6 57 122.2 52.9 119.6C51.5 122.5 50.3 125.1 48.8 127.3C48.6 128 48.1 128.3 47.6 128C44 125.1 40.2 122.5 36.3 120.1C36.1 119.9 36.1 119.6 36.3 119.1L40.9 109.5C41.1 109 41.6 108.5 41.9 108.5C42.4 108.5 44.1 109.7 47.2 111.9C50.3 113.7 52.4 115.4 53.4 116.4L53.4 116.4L53.4 116.4L53.4 116.4L53.4 116.4ZM40.7 197C50.3 193.6 60.6 189.8 71.7 186C72.7 185.8 72.9 185.5 73.1 185.8C73.3 185.8 73.3 186.3 72.9 187C72.2 189.2 71.5 190.4 71 190.8C61.4 194.2 50.6 198.2 38.4 203.8C38.7 201.6 39.5 199.4 40.7 197L40.7 197L40.7 197L40.7 197L40.7 197ZM203.6 199.7C198.8 204 192.3 206.4 184.6 206.4C182.4 206.4 180.3 205.7 178.8 204.5C177.4 203.3 176.6 201.6 176.6 199.7C176.6 196.3 177.8 193 180.7 189.6C183.6 186.5 186.5 183.6 189.1 180.5C189.8 180 189.6 179.5 188.6 179.1C186.7 178.4 184.3 178.1 181.9 178.1C180.7 178.1 179.3 178.3 177.6 179.3C177.4 179.3 177.1 179.5 176.9 179.3C176.9 179.3 176.9 179.1 177.1 178.6C178.1 176.2 179 174.5 180 173.8C181.2 172.8 183.1 172.4 185.8 172.4C191.6 172.4 194.2 173.6 194.2 176.5C194.2 178.7 192.5 181.5 188.9 185.6C186.3 188.2 183.6 190.9 181 193.5C180 194.9 179.6 196.4 179.6 197.3C179.6 199.7 182.2 200.9 187.3 200.9C192.3 200.9 197.4 199.9 203.1 198.3C204.5 197.8 205.3 197.8 205.3 198.1C205.3 198 204.8 198.7 203.6 199.7L203.6 199.7L203.6 199.7L203.6 199.7L203.6 199.7ZM340.7 174.9C340.7 174.2 340.2 173.2 339.3 172.3C338.6 171.3 337.6 170.9 336.9 170.9C335.7 170.9 334.7 171.4 334 172.6C335.2 173.8 337.1 175 339.8 176.2C340.3 176.4 340.5 176.4 340.8 176.2C340.9 176.1 340.9 175.7 340.7 174.9L340.7 174.9L340.7 174.9L340.7 174.9L340.7 174.9ZM330.1 170.6C330.6 169.9 331.1 169.9 331.5 170.4C333.4 166.8 335.3 164.9 337.5 164.9C338.9 164.9 340.4 165.6 341.6 167.5C343 169.2 343.5 171.3 343.5 173.5C343.5 174.5 343.5 175.2 343.3 176.1C342.6 179.9 341.4 181.9 339.7 181.9C338.3 181.9 336.3 180.9 334.2 179.5C332 178.3 330.6 176.9 329.6 175.7C328.2 179.8 326.5 183.1 324.3 185.5C320.5 189.8 315.7 193.4 309.2 196.8C304.4 199.7 301.3 200.9 299.8 200.9C299.8 200.9 296.9 201.6 291.4 202.8C285.6 204.2 282 205.2 280.6 205.4C278.4 205.6 277.5 205.6 277.5 205.6C277.5 205.4 278.5 204.9 280.6 203.9C286.6 201.5 295.7 197.4 308.2 191.4C317.1 186.6 322.8 182.3 325.2 178.7C326.5 176.6 327.9 173.7 330.1 170.6L330.1 170.6L330.1 170.6L330.1 170.6L330.1 170.6ZM257.1 34.1C256.6 31.2 255.4 27.9 253.7 23.8C252 19.7 250.6 17.6 249.9 17.6C249.4 17.6 249.2 17.6 248.9 18.1C248.7 18.3 248.4 18.6 247.7 18.6C246.7 18.6 245.8 17.9 244.3 16.7C242.9 15.5 242.4 14.5 242.4 13.8C242.4 13.6 242.9 12.4 244.1 10.4C245.1 8.50002 245.8 7.8 246 7.8C248.9 7.8 251.3 9.2 253.4 12.6C255.6 15.7 257.2 20 258 25.3C258.2 25.8 258.2 26 258.2 26.3L258.4 26.3C258.4 26.1 258.6 25.8 258.6 25.3C259.1 22.2 260.3 17.4 262 11.1C263.9 6.8 265.8 4.60001 268 4.60001C269.2 4.60001 270.4 5.3 271.4 6.8C272.4 8.2 272.8 9.2 272.8 10.2C272.8 10.7 272.8 11.6 272.3 12.6C271.8 14 271.3 14.8 270.9 14.8C270.7 14.8 270.2 14.1 269.2 13.1C268.5 12.1 267.5 11.7 266.6 11.7C264.7 11.7 263 16.3 261.3 25.4C260.6 29 259.9 31.9 258.7 34C260.4 34 262.3 35.2 264.9 37.1C267.3 39.3 268.7 40.9 269 42.4C269 42.9 268.8 43.8 268 45.5C267.3 47.2 266.8 47.9 266.3 48.1C263.9 48.8 261.5 49.3 259.1 50C256.2 51 254.1 52.2 252.9 53.4C256.3 63.5 257.9 73.3 257.9 83.2C257.9 86.1 257.4 89 256.9 92.1C256.7 93.1 256.4 93.5 256.2 93.8C256 93.8 256 91.9 256 88.5C256 83 255 76 253.4 68.1C252 60.2 251 55.6 251 54.4C251 50.3 252.2 47.4 254.4 45.5C255.6 44.8 257.5 43.8 260.6 42.9C259.4 41.7 258.2 41.2 257 41.2C256.5 41.2 255.8 41.9 254.8 43.1C253.6 44.3 253.1 45 252.9 45C252.7 45 252.7 44.5 252.9 43.3C253.5 38.1 255 35 257.1 34.1L257.1 34.1L257.1 34.1L257.1 34.1L257.1 34.1ZM292.7 56.6C292.7 59.2 291.5 62.1 289.6 65.2C287.4 68.3 284.8 71.2 281.4 73.6C280 74.6 279.2 75 279 75L279 74.9C279 74.7 279.5 74.2 280.4 73C285.9 67 288.8 63.2 288.8 61C288.8 59.3 287.8 58.4 286.2 58.4C285.2 58.4 284.3 58.6 283.6 59.1C282.9 59.3 282.6 59.6 282.4 59.6C282.4 59.6 282.2 59.6 282.2 59.4C282.2 59.4 282.2 58.9 282.4 58C283.4 53.9 285.3 52 288.6 52C291.2 51.8 292.7 53.5 292.7 56.6L292.7 56.6L292.7 56.6L292.7 56.6L292.7 56.6ZM245.6 186.7C245.6 189.3 244.4 192.2 242.5 195.3C240.3 198.4 237.7 201.3 234.3 203.7C232.9 204.7 232.1 205.1 231.9 205.1L231.9 204.9C231.9 204.7 232.4 204.2 233.3 203C238.8 197 241.7 193.2 241.7 191C241.7 189.3 240.7 188.4 239.1 188.4C238.1 188.4 237.2 188.6 236.5 189.1C235.8 189.3 235.5 189.6 235.3 189.6C235.3 189.6 235.1 189.6 235.1 189.4C235.1 189.4 235.1 188.9 235.3 188C236.3 183.9 238.2 182 241.5 182C244.2 181.9 245.6 183.6 245.6 186.7L245.6 186.7L245.6 186.7L245.6 186.7L245.6 186.7ZM231.2 56.6C231.2 56.4 231.4 56.1 231.4 56.1C231.6 55.9 231.6 55.9 231.6 56.1C231.8 56.3 231.8 56.6 231.6 56.8C230.4 64 228.2 67.6 225.1 67.6C222 67.6 220.5 65 220.5 59.7C220.5 53.2 222.2 46.3 226 39.3C227 37.6 227.4 36.7 227.7 36.7L227.7 36.7C227.7 36.9 227.5 37.9 227 39.6C224.6 47 223.4 52.1 223.4 55.2C223.4 59 224.4 61.2 226.5 61.2C228.1 61.2 229.5 59.5 231.2 56.6L231.2 56.6L231.2 56.6L231.2 56.6L231.2 56.6ZM99.7 125.3C99.7 127.9 98.5 130.8 96.6 133.9C94.4 137 91.8 139.9 88.4 142.3C87 143.3 86.2 143.7 86 143.7L86 143.5C86 143.3 86.5 142.8 87.4 141.6C92.9 135.6 95.8 131.8 95.8 129.6C95.8 127.9 94.8 127 93.2 127C92.2 127 91.3 127.2 90.6 127.7C89.9 127.9 89.6 128.2 89.4 128.2C89.4 128.2 89.2 128.2 89.2 128C89.2 128 89.2 127.5 89.4 126.6C90.4 122.5 92.3 120.6 95.6 120.6C98.3 120.5 99.7 122.1 99.7 125.3L99.7 125.3L99.7 125.3L99.7 125.3L99.7 125.3ZM10.7 135.8C10.7 135.6 10.9 135.3 10.9 135.3C11.1 135.1 11.1 135.1 11.1 135.3C11.3 135.5 11.3 135.8 11.1 136C9.89999 143.2 7.69998 146.8 4.59998 146.8C1.49998 146.8 -1.52588e-05 144.2 -1.52588e-05 138.9C-1.52588e-05 132.4 1.69998 125.5 5.49998 118.5C6.49999 116.8 6.89999 115.9 7.19998 115.9L7.19998 115.9C7.19998 116.1 6.99999 117.1 6.49999 118.8C4.09998 126.2 2.89999 131.3 2.89999 134.4C2.89999 138.2 3.89999 140.4 5.99999 140.4C7.49998 140.4 8.99998 138.7 10.7 135.8L10.7 135.8L10.7 135.8L10.7 135.8L10.7 135.8ZM7.29999 82.8C10.2 82.8 12.6 84.2 14.7 87.6C16.9 90.7 18.5 95 19.3 100.3C19.5 100.8 19.5 101 19.5 101.3L19.7 101.3C19.7 101.1 19.9 100.8 19.9 100.3C20.4 97.2 21.6 92.4 23.3 86.1C25.2 81.8 27.1 79.6 29.3 79.6C30.5 79.6 31.7 80.3 32.7 81.8C33.7 83.2 34.1 84.2 34.1 85.2C34.1 85.7 34.1 86.6 33.6 87.6C33.1 89 32.6 89.8 32.2 89.8C32 89.8 31.5 89.1 30.5 88.1C29.8 87.1 28.8 86.7 27.9 86.7C26 86.7 24.3 91.3 22.6 100.4C21.9 104.5 20.9 107.4 20.2 109C19.5 110 19 110.7 18.5 110.7C18 110.7 18 110 17.8 109C18 107.3 17.1 104.2 15.2 99.6C13.3 94.8 12.1 92.6 11.1 92.6C10.6 92.6 10.4 92.6 10.1 93.1C9.89999 93.3 9.59999 93.6 8.89999 93.6C7.89999 93.6 6.99999 92.9 5.49999 91.7C4.09999 90.5 3.59999 89.5 3.59999 88.8C3.59999 88.6 4.09999 87.4 5.29999 85.4C6.29999 83.5 7.09999 82.8 7.29999 82.8L7.29999 82.8L7.29999 82.8L7.29999 82.8L7.29999 82.8ZM219.7 88.5C219.7 91.1 218.5 94 216.6 97.1C214.4 100.2 211.8 103.1 208.4 105.5C207 106.5 206.2 106.9 206 106.9L206 106.7C206 106.5 206.5 106 207.4 104.8C212.9 98.8 215.8 95 215.8 92.8C215.8 91.1 214.8 90.2 213.2 90.2C212.2 90.2 211.3 90.4 210.6 90.9C209.9 91.1 209.6 91.4 209.4 91.4C209.4 91.4 209.2 91.4 209.2 91.2C209.2 91.2 209.2 90.7 209.4 89.8C210.4 85.7 212.3 83.8 215.6 83.8C218.3 83.7 219.7 85.4 219.7 88.5L219.7 88.5L219.7 88.5L219.7 88.5L219.7 88.5ZM304.4 87.8C304.9 86.4 304.9 84.9 304.6 83.5C304.4 82.1 303.6 81.3 302.4 81.3C301.9 81.3 301.2 81.5 300.2 82C299.2 82.5 298.8 83 298.8 83.4C298.9 84.7 300.8 86.1 304.4 87.8L304.4 87.8L304.4 87.8L304.4 87.8L304.4 87.8ZM301.5 94.1C296.9 91.7 294.8 89.3 294.8 86.7C294.8 83.6 296.2 80.7 299.1 78.3C302 75.7 304.4 74.7 306.3 75.4C308 75.9 308.7 77.6 308.7 80.4C308.7 83 308.2 85.9 307 89.3C309.4 90.5 310.8 91.7 311.3 92.7C311.3 93.9 310.3 96.1 308.2 98.9C307.7 97.9 306.3 96.7 304.1 95.5C301.5 99.1 298.3 102.2 294.5 105.1C289.9 108.2 285.9 110.9 282.3 112.3C281.3 112.8 277 114.5 269.3 117.3C268.1 117.8 267.1 118 266.9 118C266.7 118 266.7 117.8 266.7 117.8C266.7 117.6 267.2 116.8 268.6 116.1C274.4 112.5 280.1 109.1 286.1 105.8C293.1 101.5 298.2 97.7 301.5 94.1L301.5 94.1L301.5 94.1L301.5 94.1L301.5 94.1ZM123.7 188.6C123.7 191.2 122.5 194.1 120.6 197.2C118.4 200.3 115.8 203.2 112.4 205.6C111 206.6 110.2 207 110 207L110 206.9C110 206.7 110.5 206.2 111.4 205C116.9 199 119.8 195.2 119.8 193C119.8 191.3 118.8 190.4 117.2 190.4C116.2 190.4 115.3 190.6 114.6 191.1C113.9 191.3 113.6 191.6 113.4 191.6C113.4 191.6 113.2 191.6 113.2 191.4C113.2 191.4 113.2 190.9 113.4 190C114.4 185.9 116.3 184 119.6 184C122.3 183.8 123.7 185.5 123.7 188.6L123.7 188.6L123.7 188.6L123.7 188.6L123.7 188.6ZM530.3 120C531.5 119 532.5 118.6 533.2 118.6C533.7 118.6 533.9 119.1 533.9 120C533.9 120.7 533.7 122.2 533.2 124.1C532.7 126 532.5 127.5 532.5 128.7C532.5 134 536.3 136.9 543.8 136.9C549.8 136.9 554.8 134.3 558.7 129.2C561.1 125.1 563.7 121.3 566.1 117.4C567.1 116.4 567.8 116 568.5 116C569.5 116 569.7 117 569.2 119.1C568.2 123.2 567.5 125.1 567.5 124.6C567.5 126.3 568.5 128 570.4 129.4C572.1 130.8 574.5 131.8 577.1 131.8C580.5 131.8 582.6 130.8 583.6 129.2C583.6 129 582.6 127 580.5 123.4C580.7 121.5 581.7 118.1 583.1 113.6C583.3 112.2 583.8 111.4 584.3 111.4C584.8 111.4 585.3 111.6 586 112.6C587.9 115.5 589.1 118.8 589.1 122.7C589.1 128.7 587.7 133.7 585 138.1C582.1 143.4 577.8 146 572 146C568.2 146 564.6 142.9 561.4 137.1C556.1 146.7 549.2 151.5 540.8 151.5C530.7 151.5 525.9 145.7 525.9 134.7C522.1 139.3 515.6 143.3 507.2 147.2L507.2 133.9C513.4 130.8 517.5 128.9 518.7 128.1C522.6 126.2 526.4 123.3 530.3 120L530.3 120L530.3 120L530.3 120L530.3 120ZM493.5 135.8C489.9 131.2 486.8 129.1 483.9 129.1C479.6 129.1 477.7 130.1 477.7 132.5C477.7 135.4 480.6 136.8 486.3 136.8C488.5 136.8 490.9 136.3 493.5 135.8L493.5 135.8L493.5 135.8L493.5 135.8L493.5 135.8ZM501 153.3C501 151.9 500.5 150.2 500 148.5C497.1 149.5 492.8 150.2 487.5 150.2C476 150.2 470.2 146.1 470.2 138.2C470.2 132.2 471.9 126.9 475.7 122.1C479.3 118 483.1 115.9 487.2 115.9C490.3 115.9 493.4 117.8 497 121.4C500.1 125 503 129.1 505.4 134.1C505.6 134.1 506.1 134.1 507.1 133.6L507.1 146.9L506.6 147.4C506.6 150.3 505.9 153.6 504.4 158C502.7 163.5 500.1 168.1 497 171.7C489.8 180.3 481.9 187.8 473.2 194.3C460.2 203.9 449.2 208.9 439.6 208.9C431.4 208.9 425.2 205.8 420.9 199.8C417.1 194.8 415.1 188 415.1 180.1C415.1 170 417.3 159.7 421.3 148.9C422.5 146.5 423 145.5 423.5 145.5C423.7 145.5 423.7 145.7 423.7 146.2C423.7 146.9 423.5 148.1 423.2 149.6C420.1 160.2 418.6 168.1 418.6 173.6C418.6 178.6 419.8 183 422.2 186.6C426 191.6 432 194.3 440.4 194.3C447.6 194.3 456.2 191.2 466.6 184.9C474.8 179.9 482.7 173.9 490.4 166.7C497.4 159.8 501 155.5 501 153.3L501 153.3L501 153.3L501 153.3L501 153.3ZM435.5 117.1C435 114.9 434.3 113.3 433.3 112.1C432.6 110.7 432.1 109.9 431.9 109.5C431.9 109 431.9 107.3 432.4 104C432.9 100.9 433.1 98.7 433.6 97.5C433.8 96.3 434.1 95.8 434.6 95.8C434.8 95.8 435.1 96 435.6 96.5C439 100.3 442.6 104.2 446.6 108.3C448.3 110 449 110.9 449 111.4C449 111.6 448.8 111.9 448.3 111.9C447.6 111.9 445.7 111.4 442.8 110.7C444.5 114.8 446.4 118.9 448.1 122.7C450.7 129.4 452.2 134.9 452.2 140C452.2 142.4 451.7 145.3 450.8 148.9C449.6 153 448.2 156.1 446.2 158.3C439.2 166.2 427.5 174.9 410.9 184.2C396.5 192.6 388.1 196.7 385.5 196.7C385 196.7 377.8 198.4 364.1 201.7C349.7 205.1 340.6 207.2 337 207.7C333.2 208.4 330.8 208.7 329.8 208.7C329.3 208.7 329.3 208.7 329.3 208.5C329.3 208.3 331.9 206.8 337.2 204.4C339.1 203.4 350.2 198.6 370.6 190C384.8 184 396.5 178.5 405.9 173.4C420.1 165.7 430.9 159 438.3 153.5C443.8 149.2 446.7 146.1 446.7 144.1C446.7 143.6 445.3 140.3 442.4 134C439.1 126.9 436.7 121.2 435.5 117.1L435.5 117.1L435.5 117.1L435.5 117.1L435.5 117.1ZM415.8 83.7C415.8 87.5 413.9 92.8 410 99.3C407.6 103.4 404 108.9 399.2 116.1C404 121.6 407.4 126.7 409 131C410 134.1 410.7 138.2 410.7 142.8C410.7 144.7 410.2 147.1 409.3 150.2C408.6 153.1 407.6 155.2 406.7 156.7C404.8 159.6 401.7 162.5 396.9 165.3C391.9 168.7 387.5 170.3 383.9 170.3C378.1 170.3 375.3 166 375.3 157.3C375.3 151.5 376.3 145.8 378.2 140.5C380.1 135.9 383.2 129.9 388.3 122C384 117.9 379.4 112.2 374.4 105C373.9 104.3 372.7 103.1 370.8 101.2C369.8 100.2 369.4 99 369.4 97.6C369.4 95.4 369.6 93 370.1 90.2C370.8 87.3 371.3 86.1 371.5 86.1C372.2 86.1 374.4 87.3 378.5 89.9C382.3 92.5 385.5 94.5 387.4 96.1C388.6 96.8 389.1 97.5 389.1 97.5L389.1 97.7C389.1 97.9 388.4 98.2 386.7 98.2C383.6 98.2 381.9 98.4 381.9 98.7C381.9 98.9 382.4 99.4 383.3 100.6C387.1 105.4 391 109 395.1 111.9C396.1 110.5 399.4 105.7 404.7 97.5C409.3 90.5 411.9 85.7 413.1 82.9C414.3 80 415 78.8 415.5 78.8C415.5 78.9 415.8 80.4 415.8 83.7L415.8 83.7L415.8 83.7L415.8 83.7L415.8 83.7ZM406.4 142.8C403.8 137.5 399.2 132 393 126.7C390.8 128.9 388.2 132.9 384.8 138.7C381 145.2 379.3 149.3 379.3 151.4C379.3 154.3 381.2 155.7 385.5 155.7C387.4 155.7 389.8 155 392.9 153.8C397.2 151.9 401.3 149.2 404.7 145.9C406.2 144.5 406.7 143.5 406.4 142.8L406.4 142.8L406.4 142.8L406.4 142.8L406.4 142.8ZM393 65.5L396.8 57.6C397 57.1 397.3 56.9 397.8 56.9C398.3 56.9 400.2 58.1 404 60.7C407.6 63.1 409.5 64.5 409.5 65C409.5 66.7 407.8 70.3 404.7 75.6C404.2 76.3 403.7 76.3 403.3 76.1C400.2 73.7 396.6 71.3 392.5 68.7C391.1 71.6 389.9 74.2 388.4 76.4C388.2 77.1 387.7 77.4 387.2 77.1C383.6 74.2 379.8 71.6 375.9 69.2C375.7 69 375.7 68.7 375.9 68.2L380.5 58.6C380.7 58.1 381.2 57.6 381.5 57.6C382 57.6 383.7 58.8 386.8 61C389.9 62.9 392 64.5 393 65.5L393 65.5L393 65.5L393 65.5L393 65.5ZM519.5 199.4C516.9 200.1 515.4 200.6 514.9 200.6L514.9 200.4C514.9 200.4 515.9 199.7 517.8 198.5C519.7 197.3 522.6 195.4 526.7 192.3C528.6 190.4 531.5 187.3 535.1 182.9C537.5 180 540.1 177.4 543 175.5C546.6 172.9 550 171.7 553.6 171.7C554.3 171.7 555.5 171.9 557 172.4C558.2 172.9 559.4 173.1 560.4 173.1C562.3 173.1 563.8 172.4 565 170.9C565.7 169.5 566.7 168.3 567.6 166.8C568.1 165.8 568.8 165.4 569.3 165.4C569.5 165.4 569.5 165.6 569.5 166.1C569.5 166.6 569.3 167.8 568.8 169.2C568.3 169.9 570.2 170.2 573.8 170.2C574.3 170.2 574.5 170.2 574.5 170C574.5 170 574.3 169 573.8 167.4C573.6 166.9 573.8 166.2 574.5 165.2C575.5 163.5 575.9 162.8 576.2 163C577.2 163.7 577.6 165.2 577.6 166.8C577.6 168.5 577.1 170.2 576.4 172.1C575.7 174.3 575 175.5 574.5 175.9C572.8 176.9 570.2 176.6 566.6 174.9C563.7 177.8 560.8 179.5 558 179.5C557.3 179.5 556.1 179.3 554.9 178.8C553.7 178.3 552.7 178.1 552 178.1C547.2 178.1 542.2 180.3 537.1 185.1C533.5 188.7 529.9 192.3 526.3 195.9C524 197.5 521.9 198.7 519.5 199.4L519.5 199.4L519.5 199.4L519.5 199.4L519.5 199.4ZM467.9 69.8C470.8 69.8 473.2 71.2 475.3 74.6C477.5 77.7 479.1 82 479.9 87.3C480.1 87.8 480.1 88 480.1 88.3L480.3 88.3C480.3 88.1 480.5 87.8 480.5 87.3C481 84.2 482.2 79.4 483.9 73.1C485.8 68.8 487.7 66.6 489.9 66.6C491.1 66.6 492.3 67.3 493.3 68.8C494.3 70.2 494.7 71.2 494.7 72.2C494.7 72.7 494.7 73.6 494.2 74.6C493.7 76 493.2 76.8 492.8 76.8C492.6 76.8 492.1 76.1 491.1 75.1C490.4 74.1 489.4 73.7 488.5 73.7C486.6 73.7 484.9 78.3 483.2 87.4C482.5 91.5 481.5 94.4 480.8 96C480.1 97 479.6 97.7 479.1 97.7C478.6 97.7 478.6 97 478.4 96C478.6 94.3 477.7 91.2 475.8 86.6C473.9 81.8 472.7 79.6 471.7 79.6C471.2 79.6 471 79.6 470.7 80.1C470.5 80.3 470.2 80.6 469.5 80.6C468.5 80.6 467.6 79.9 466.1 78.7C464.7 77.5 464.2 76.5 464.2 75.8C464.2 75.6 464.7 74.4 465.9 72.4C466.9 70.5 467.6 69.8 467.9 69.8L467.9 69.8L467.9 69.8L467.9 69.8L467.9 69.8ZM427.3 66.9C451.5 57.8 476.7 48.7 502.7 39.1C503.4 38.9 503.9 38.6 503.9 38.9C504.1 38.9 504.1 39.4 503.9 40.1C502.9 42.3 502.2 43.5 501.7 43.9C501.5 44.1 489.2 48.7 465.5 57.6C441.3 66.5 427.6 72 424.9 73.7C425.4 71.5 426.1 69.3 427.3 66.9L427.3 66.9L427.3 66.9L427.3 66.9L427.3 66.9ZM403.8 23C404.3 21.6 404.3 20.1 404 18.7C403.8 17.3 403 16.5 401.8 16.5C401.3 16.5 400.6 16.7 399.6 17.2C398.6 17.7 398.2 18.2 398.2 18.6C398.3 19.9 400.2 21.3 403.8 23L403.8 23L403.8 23L403.8 23L403.8 23ZM400.9 29.3C396.3 26.9 394.2 24.5 394.2 21.9C394.2 18.8 395.6 15.9 398.5 13.5C401.4 10.9 403.8 9.89999 405.7 10.6C407.4 11.1 408.1 12.8 408.1 15.6C408.1 18.2 407.6 21.1 406.4 24.5C408.8 25.7 410.2 26.9 410.7 27.9C410.7 29.1 409.7 31.3 407.6 34.1C407.1 33.1 405.7 31.9 403.5 30.7C400.9 34.3 397.7 37.4 393.9 40.3C389.3 43.4 385.3 46.1 381.7 47.5C380.7 48 376.4 49.7 368.7 52.5C367.5 53 366.5 53.2 366.3 53.2C366.1 53.2 366.1 53 366.1 53C366.1 52.8 366.6 52 368 51.3C373.8 47.7 379.5 44.3 385.5 41C392.5 36.7 397.5 32.9 400.9 29.3L400.9 29.3L400.9 29.3L400.9 29.3L400.9 29.3ZM552.6 59C553.1 57.6 553.1 56.1 552.8 54.7C552.6 53.3 551.8 52.5 550.6 52.5C550.1 52.5 549.4 52.7 548.4 53.2C547.4 53.7 547 54.2 547 54.6C547.1 55.9 549 57.3 552.6 59L552.6 59L552.6 59L552.6 59L552.6 59ZM557.9 67.9C555.5 73.7 554.3 78.2 554.3 81.6C554.3 85.7 555.3 87.8 557.4 87.8C558.6 87.8 560 86.1 561.7 83.2C561.9 83 561.9 82.7 562.2 82.5C562.2 82.5 562.4 82.5 562.4 82.7C562.4 82.7 562.4 82.9 562.4 83.4C561 90.6 558.8 94.2 555.9 94.2C552.8 94.2 551.3 91.6 551.3 86.3C551.3 83.7 551.8 80.3 553.2 76C554.6 71.7 555.4 69.5 555.4 69.3C555.4 68.8 554.4 67.9 552.3 66.7C548.5 71.7 543.2 76.5 536.5 80.6C531.9 83.2 527.4 85.6 522.6 87.6C513.7 91.2 508.4 93.1 507.2 93.8C506 94.3 505.3 94.5 504.8 94.5C504.6 94.5 504.6 94.3 504.6 94.3C504.6 93.8 505.1 93.3 506.5 92.4C514.2 88.1 521.6 83.8 529.3 79.4C539.4 73.6 546.3 68.8 549.7 65.2C545.1 62.8 543 60.4 543 57.8C543 54.7 544.4 51.8 547.3 49.2C550.2 46.8 552.6 45.8 554.5 46.6C555.9 47.1 556.9 48.8 556.9 51.6C556.9 54.2 556.4 57.1 555.2 60.2C557.6 61.6 558.6 63.1 558.6 64.5C558.6 65.3 558.3 66.5 557.9 67.9L557.9 67.9L557.9 67.9L557.9 67.9L557.9 67.9ZM448.7 33.1C448.7 32.9 448.9 32.6 448.9 32.6C449.1 32.4 449.1 32.4 449.1 32.6C449.3 32.8 449.3 33.1 449.1 33.3C447.9 40.5 445.7 44.1 442.6 44.1C439.5 44.1 438 41.5 438 36.2C438 29.7 439.7 22.8 443.5 15.8C444.5 14.1 444.9 13.2 445.2 13.2L445.2 13.2C445.2 13.4 445 14.4 444.5 16.1C442.1 23.5 440.9 28.6 440.9 31.7C440.9 35.5 441.9 37.7 444 37.7C445.5 37.7 447 36 448.7 33.1L448.7 33.1L448.7 33.1L448.7 33.1L448.7 33.1Z" id="Group" fill="#595959" stroke="none" clip-path="url(#clip_1)" />
  </g>
</svg>