<?xml version="1.0" encoding="utf-8"?>
<svg width="552.2001px" height="203.60002px" viewBox="0 0 552.2001 203.60002" version="1.1" xmlns:xlink="http://www.w3.org/1999/xlink" xmlns="http://www.w3.org/2000/svg">
  <defs>
    <path d="M552.2 0L552.2 0L552.2 203.6L0 203.6L0 0L552.2 0Z" id="path_1" />
    <clipPath id="clip_1">
      <use xlink:href="#path_1" clip-rule="evenodd" fill-rule="evenodd" />
    </clipPath>
  </defs>
  <g id="Surah_85_of_114_(modified)">
    <path d="M552.2 0L552.2 0L552.2 203.6L0 203.6L0 0L552.2 0Z" id="Surah_85_of_114_(modified)" fill="none" stroke="none" />
    <path d="M211.4 7.99997C211.9 6.99997 212.1 6.09998 212.1 5.59998C212.1 4.59998 211.6 3.59998 210.7 2.2C209.5 0.699997 208.3 0 207.1 0C204.9 0 203 2.2 201.1 6.5C199.4 12.8 198.2 17.6 198 20.7C197.7 21.2 197.5 21.5 197.5 21.7C197.5 21.7907 197.5 21.8402 197.481 21.8487C197.459 21.8589 197.409 21.8094 197.3 21.7L197.3 20.7C196.3 15.4 194.9 11.4 192.5 8C190.3 4.59999 187.9 3.2 185.3 3.2C185 3.2 184.3 3.90001 183.1 5.8C181.9 7.8 181.4 9 181.4 9.2C181.4 9.89999 182.1 10.9 183.3 12.1C184.8 13.3 185.7 14 186.7 14C187.4 14 187.9 13.7 187.9 13.5C188.1 13 188.4 13 189.1 13C189.8 13 191 15.2 192.9 20C194.8 24.6 195.8 27.7 195.8 29.4C195.8 29.8468 195.86 30.2337 195.944 30.5251C196.918 29.3985 197.459 28.8 197.6 28.8L197.6 29C197.651 29.1538 197.545 29.6233 197.294 30.3679C196.929 30.8227 196.615 31.1 196.3 31.1C196.189 31.1 196.048 30.8858 195.944 30.5251C195.539 30.9937 195.058 31.5537 194.5 32.2C192.8 34.1 190.7 36.2 187.8 38.4C175.8 46.3 166.7 51.9 160.2 55.7C159 56.4 158.3 57.2 158.3 57.4C158.3 57.4 158.3 57.6 158.5 57.6C159 57.6 159.7 57.4 160.9 56.9C168.9 54.1 173.2 52.4 173.9 51.9C177.5 50.3 181.5 47.9 186.1 44.5C191.2 40.9 194.5 37 196.2 33.2C196.687 32.0308 197.056 31.0752 197.294 30.3679C197.509 30.1 197.741 29.7706 198 29.4C199 27.8 199.7 24.9 200.4 20.8C202.1 11.7 204 7.09998 205.9 7.09998C206.6 7.09998 207.6 7.49997 208.3 8.49997C209.3 9.49997 209.8 10.2 210 10.2C210.7 10.2 211.2 9.39996 211.4 7.99997ZM254.3 2.19997C255 0.999969 256 0.499969 256.7 0.499969C257.2 0.499969 257.7 0.699966 257.7 1.19997C257.7 1.19997 257.5 1.39996 257.5 1.69997C256.5 3.89996 255.6 6.29997 254.9 8.69997C259.9 12.3 262.3 16.1 262.1 19.7C261.6 23.8 261.1 26.4 260.4 27.4C258 30.3 255.4 32 252 32C248.6 32 247.2 29.8 247.2 26C247.2 25.3 247.2 24.3 247.4 23.4C248.6 15.6 251 8.69997 254.3 2.19997ZM290.1 149.1C295.2 140.9 297.8 129.9 297.8 115.7C297.8 110.7 296.8 95.6 295 70.5C293.1 45.1 292.1 32.1 292.1 31.9C292.1 30.7 292.3 30.4 292.8 30.9C296.8 35.7 299 36.9 299 34.7C299 34.2 298.7 33 298.5 31.6C297.8 29.9 296.1 25.1 293.2 17.2C290.3 9.69998 288.4 5.19998 287.7 3.49998C287.2 2.49998 286.9 2.29999 286.7 2.29999C286.2 2.29999 285.9 2.59999 285.7 3.29999C283 9.69998 281.6 13.8 281.6 15.5C283.1 18.6 283.8 22.4 283.8 27C283.8 32.3 284.7 49.3 286.9 78.1C289.1 106.9 290.3 123.4 290.3 127.5C290.3 134.3 289.6 138.3 288.4 139.3C284.1 142.9 279.6 144.8 275 144.8L275 159.4C280.7 159.4 285.8 155.8 290.1 149.1ZM305.9 17.5C307.4 20.7 308.1 24.5 308.1 29.3C308.1 33.4 309.3 52.4 311.8 86.1999C314.2 120 315.4 139.2 315.4 144C315.4 149.1 315.2 153.6 314.7 157.7C314.671 158.079 314.642 158.444 314.614 158.793C314.45 160.835 314.329 162.346 314.5 163.2C314.7 163.9 315 163.9 315.7 162.7C316.2 161.8 316.6 160.6 317.6 158.9C320.9 150.3 322.6 140.2 322.6 128.9C322.6 125.1 321.7 108.5 319.5 78.9999C317.3 49.3 316.1 34.4 316.1 33.9C316.1 32.7 316.3 32.2 316.8 32.9C321.1 37.7 323 38.9 323 36.7C323 36.2 323 35 322.5 33.8C322 31.9 320.3 27.1 317.2 19.2C314.3 11.7 312.6 7.19997 311.9 5.49997C311.4 4.79997 311.2 4.29997 310.7 4.29997C310.5 4.29997 310.2 4.79997 310 5.49997C307.1 11.7 305.9 15.8 305.9 17.5ZM357.3 16.6C357.3 19.2 359.4 21.6 364 24C360.6 27.6 355.6 31.5 348.6 35.7C342.6 39 336.9 42.4 331.1 46C329.7 46.7 329.2 47.5 329.2 47.7C329.2 47.7 329.2 47.9 329.4 47.9C329.6 47.9 330.6 47.7 331.8 47.2C339.5 44.4 343.8 42.7 344.8 42.2C348.4 40.8 352.4 38.1 357 35C360.8 32.1 364 29 366.6 25.4C368.8 26.6 370.2 27.8 370.7 28.8C372.8 26 373.8 23.8 373.8 22.6C373.3 21.6 371.9 20.4 369.5 19.2C370.7 15.8 371.2 12.9 371.2 10.3C371.2 7.49998 370.5 5.79999 368.8 5.29999C366.9 4.59998 364.5 5.59998 361.6 8.19998C358.7 10.6 357.3 13.5 357.3 16.6ZM140.5 13.5C138.4 10.1 136 8.69997 133.1 8.69997C132.9 8.69997 132.2 9.39998 131.1 11.3C129.9 13.3 129.4 14.5 129.4 14.7C129.4 15.4 129.9 16.4 131.3 17.6C132.8 18.8 133.7 19.5 134.7 19.5C135.4 19.5 135.7 19.2 135.9 19C136.2 18.5 136.4 18.5 136.9 18.5C137.9 18.5 139.1 20.7 141 25.5C142.9 30.1 143.8 33.2 143.6 34.9C143.8 35.9 143.8 36.6 144.3 36.6C144.8 36.6 145.3 35.9 146 34.9C146.7 33.3 147.7 30.4 148.4 26.3C150.1 17.2 151.8 12.6 153.7 12.6C154.6 12.6 155.6 13 156.3 14C157.3 15 157.8 15.7 158 15.7C158.4 15.7 158.9 14.8999 159.4 13.5C159.9 12.5 159.9 11.6 159.9 11.1C159.9 10.1 159.5 9.09996 158.5 7.69997C157.5 6.19997 156.3 5.49997 155.1 5.49997C152.9 5.49997 151 7.69997 149.1 12C147.4 18.3 146.2 23.1 145.7 26.2C145.7 26.7 145.5 27 145.5 27.2L145.3 27.2C145.3 26.9 145.3 26.7 145.1 26.2C144.3 20.9 142.7 16.6 140.5 13.5ZM412 27.4C412 27.4 411.8 27.7 411.8 27.9C410.1 30.8 408.6 32.4 407.1 32.5C405 32.5 404 30.3 404 26.5C404 23.4 405.2 18.3 407.6 10.9C408.1 9.19998 408.3 8.19998 408.3 7.99998C408 7.99998 407.6 8.89999 406.6 10.6C402.8 17.6 401.1 24.5 401.1 31C401.1 36.3 402.6 38.9 405.7 38.9C408.8 38.9 411 35.3 412.2 28.1C412.4 27.9 412.4 27.6 412.2 27.4C412.2 27.3093 412.2 27.2597 412.181 27.2513C412.159 27.2411 412.109 27.2907 412 27.4ZM367.1 13.5C367.4 14.9 367.4 16.4 366.9 17.8C363.3 16.1 361.4 14.7 361.3 13.4C361.3 13 361.7 12.5 362.7 12C363.7 11.5 364.4 11.3 364.9 11.3C366.1 11.3 366.9 12.1 367.1 13.5ZM259.6 21.4C259.6 20.2 257.2 18 252.2 15.2C250.5 18.1 249.8 20.7 249.8 23.1C249.8 24.5 250.5 25.5 252 25.5C253.2 25.5 254.6 25 256.3 24.1C257.9 23.3 259.1 22.4 259.6 21.4ZM56.6 69.6C71 61.2 89.4 52.1 112 42.5C113.2 42 114.2 41.1 114.6 39.8L117.7 30.4C118 29.2 117.5 28.2 115.8 28C111.7 27.5 101.2 26.3 83.9 25.1C64.7 23.4 50.7 22.7 42.1 22.7C34.4 22.7 28.7 24.7 24.6 28.5C21.3 31.6 19.6 35.5 19.6 39.8C19.6 42.2 20 44.3 21 46C22.7 48.9 25.8 52 30.6 55.4C37 60.4 41.8 64.5 45.2 67.6C39.7 73.3 36.1 77.9 33.9 81.5C32.3 81.2 31.1 81 30.1 81C28.9 81 28.2 81.2 28.2 81.7C28.2 82.4 29.4 83.4 31.8 84.8C24.4 98.3 20.8 112.2 20.8 126.6C20.8 158.3 34.9 173.9 63.5 173.9C79.3 173.9 93.7 167.6 106.7 155.4C120.1 142.7 126.6 128.5 126.6 112.9C126.6 106.9 125.2 101.9 122.3 97.3C119.9 93.3 116.6 90.6 112.5 88.7C108.5 87 99.1 85.8 84.7 85.3C64.5 84.6 50.1 83.6 41.5 82.4C44.6 79 47.7 75.9 51.1 73C52.7 76.4 54.2 77.8 54.9 77.8C56.1 77.8 56.6 75.1 56.6 69.6ZM222.4 45.9C217.8 43.5 215.7 41.1 215.7 38.5C215.7 35.4 217.1 32.5 220 30.1C222.9 27.5 225.3 26.5 227.2 27.2C228.9 27.7 229.6 29.4 229.6 32.2C229.6 34.8 229.1 37.7 227.9 41.1C230.3 42.3 231.7 43.5 232.2 44.5C232.2 45.7 231.2 47.9 229.1 50.7C228.6 49.7 227.2 48.5 225 47.3C222.4 50.9 219.2 54 215.4 56.9C210.8 60 206.8 62.7 203.2 64.1C202.2 64.6 197.9 66.3 190.2 69.1C189 69.6 188 69.8 187.8 69.8C187.6 69.8 187.6 69.6 187.6 69.6C187.6 69.4 188.1 68.6 189.5 67.9C195.3 64.3 201 60.9 207 57.6C214 53.3 219 49.5 222.4 45.9ZM225.3 39.6C225.8 38.2 225.8 36.7 225.5 35.3C225.3 33.9 224.5 33.1 223.3 33.1C222.8 33.1 222.1 33.3 221.1 33.8C220.1 34.3 219.7 34.8 219.7 35.2C219.8 36.5 221.7 38 225.3 39.6ZM390.4 61.7C414.6 52.6 439.8 43.5 465.8 33.9C466.002 33.8422 466.188 33.7761 466.349 33.7185C466.747 33.5767 467 33.4866 467 33.7C467.2 33.7 467.2 34.2 467 34.9C466 37.1 465.3 38.3 464.8 38.7C464.6 38.9 452.3 43.5 428.6 52.4C404.4 61.3 390.7 66.8 388 68.5C388.5 66.3 389.2 64.1 390.4 61.7ZM92.5 39.6C92.5 39.9 91.8 40.1 90.6 40.6C78.6 45.4 66.4 52.1 53.5 61C52 59.1 47.5 55.3 40.5 49.5C36.4 46.3 32.3 43.2 28.5 40.1C27 38.9 26.3 38.1 26.3 37.9C26.3 37.7 26.7 37.4 27.7 37.2C30.1 36.5 35.4 36 44 36C61.1 36 76.2 37 89.4 38.9C91.5 39.1 92.5 39.4 92.5 39.6ZM521 62.9C518.6 68.7 517.4 73.2 517.4 76.6C517.4 80.7 518.4 82.8 520.5 82.8C521.7 82.8 523.1 81.1 524.8 78.2C525 78 525 77.7 525.3 77.5C525.3 77.5 525.5 77.5 525.5 77.7L525.5 78.4C524.1 85.6 521.9 89.2 519 89.2C515.9 89.2 514.4 86.6 514.4 81.3C514.4 78.7 514.9 75.3 516.3 71C517.7 66.7 518.5 64.5 518.5 64.3C518.5 63.8 517.5 62.9 515.4 61.7C511.6 66.7 506.3 71.5 499.6 75.6C495 78.2 490.5 80.6 485.7 82.6C476.8 86.2 471.5 88.1 470.3 88.8C469.1 89.3 468.4 89.5 467.9 89.5C467.7 89.5 467.7 89.3 467.7 89.3C467.7 88.8 468.2 88.3 469.6 87.4C477.3 83.1 484.7 78.8 492.4 74.4C502.5 68.6 509.4 63.8 512.8 60.2C508.2 57.8 506.1 55.4 506.1 52.8C506.1 49.7 507.5 46.8 510.4 44.2C513.3 41.8 515.7 40.8 517.6 41.6C519 42.1 520 43.8 520 46.6C520 49.2 519.5 52.1 518.3 55.2C520.7 56.6 521.7 58.1 521.7 59.5C521.7 60.3 521.4 61.5 521 62.9ZM122.6 47.3C123.3 46.1 124.3 45.6 125 45.6C125.5 45.6 126 45.8 126 46.3C126 46.3 125.8 46.5 125.8 46.8C124.8 49 123.9 51.4 123.2 53.8C128.2 57.4 130.6 61.2 130.4 64.8C129.9 68.9 129.4 71.5 128.7 72.5C126.3 75.4 123.7 77.1 120.3 77.1C116.9 77.1 115.5 74.9 115.5 71.1C115.5 70.4 115.5 69.4 115.7 68.5C116.8 60.8 119.2 53.8 122.6 47.3ZM244.5 57.9C244.5 60.5 246.6 62.9 251.2 65.3C247.8 68.9 242.8 72.8 235.8 77C229.8 80.3 224.1 83.7 218.3 87.3C216.9 88 216.4 88.8 216.4 89C216.4 89 216.4 89.2 216.6 89.2C216.8 89.2 217.8 89 219 88.5C226.7 85.7 231 84 232 83.5C235.6 82.1 239.6 79.4 244.2 76.3C248 73.4 251.2 70.3 253.8 66.7C256 67.9 257.4 69.1 257.9 70.1C260 67.3 261 65.1 261 63.9C260.5 62.9 259.1 61.7 256.7 60.5C257.9 57.1 258.4 54.2 258.4 51.6C258.4 48.8 257.7 47.1 256 46.6C254.1 45.9 251.7 46.9 248.8 49.5C245.9 51.9 244.5 54.8 244.5 57.9ZM515.7 54C516.2 52.6 516.2 51.1 515.9 49.7C515.7 48.3 514.9 47.5 513.7 47.5C513.2 47.5 512.5 47.7 511.5 48.2C510.5 48.7 510.1 49.2 510.1 49.6C510.2 50.9 512.1 52.4 515.7 54ZM359.9 52.6L356.1 60.5C355.1 59.6 353 57.9 349.9 56C346.8 53.8 345.1 52.6 344.6 52.6C344.3 52.6 343.8 53.1 343.6 53.6L339 63.2C338.8 63.7 338.8 64 339 64.2C342.9 66.6 346.7 69.2 350.3 72.1C350.8 72.4 351.3 72.1 351.5 71.4C353 69.2 354.2 66.6 355.6 63.7C359.7 66.3 363.3 68.7 366.4 71.1C366.8 71.3 367.3 71.3 367.8 70.6C370.9 65.2999 372.6 61.7 372.6 60C372.6 59.5 370.7 58.1 367.1 55.7C363.3 53.1 361.4 51.9 360.9 51.9C360.4 51.9 360.1 52.1 359.9 52.6ZM254.3 54.8C254.6 56.2 254.6 57.7 254.1 59.1C250.5 57.4 248.6 56 248.5 54.7C248.5 54.3 248.9 53.8 249.9 53.3C250.9 52.8 251.6 52.6 252.1 52.6C253.3 52.6 254.1 53.4 254.3 54.8ZM127.8 66.5C127.8 65.3 125.4 63.1 120.4 60.3C118.7 63.2 118 65.8 118 68.2C118 69.6 118.7 70.6 120.2 70.6C121.4 70.6 122.8 70.1 124.5 69.2C126.2 68.4 127.4 67.5 127.8 66.5ZM438.6 69.3999C436.5 66 434.1 64.6 431.2 64.6C431 64.6 430.2 65.3 429.2 67.2C428 69.2 427.5 70.4 427.5 70.6C427.5 71.3 428 72.3 429.4 73.5C430.9 74.7 431.8 75.4 432.8 75.4C433.5 75.4 433.8 75.1 434 74.9C434.3 74.4 434.5 74.4 435 74.4C436 74.4 437.2 76.6 439.1 81.4C441 86 441.9 89.1 441.7 90.8C441.9 91.8 441.9 92.5 442.4 92.5C442.9 92.5 443.4 91.8 444.1 90.8C444.8 89.2 445.8 86.3 446.5 82.2C448.2 73.1 449.9 68.5 451.8 68.5C452.7 68.5 453.7 68.8999 454.4 69.8999C455.4 70.8999 455.9 71.6 456.1 71.6C456.5 71.6 457 70.7999 457.5 69.3999C458 68.3999 458 67.5 458 67C458 66 457.6 65 456.6 63.6C455.6 62.1 454.4 61.3999 453.2 61.3999C451 61.3999 449.1 63.6 447.2 67.8999C445.5 74.2 444.3 79 443.8 82.1C443.8 82.6 443.6 82.8999 443.6 83.1L443.4 83.1C443.4 82.8 443.4 82.6 443.2 82.1C442.4 76.7999 440.8 72.5 438.6 69.3999ZM155 88.4C155 88.2 155.2 87.9 155.2 87.9L155.2 87.8998C155.31 87.7902 155.359 87.7411 155.381 87.7513C155.4 87.7597 155.4 87.8093 155.4 87.9C155.6 88.1 155.6 88.4 155.4 88.6C154.2 95.8 152 99.4 148.9 99.4C145.8 99.4 144.3 96.8 144.3 91.5C144.3 85 146 78.1 149.8 71.1C150.8 69.4 151.2 68.5 151.5 68.5C151.5 68.7 151.3 69.7 150.8 71.4C148.4 78.8 147.2 83.9 147.2 87C147.2 90.8 148.2 93 150.3 93C151.8 92.9 153.3 91.2 155 88.4ZM378.9 78.5C378.9 82.3 377 87.6 373.1 94.1C370.7 98.2 367.1 103.7 362.3 110.9C367.1 116.4 370.5 121.5 372.1 125.8C373.1 128.9 373.8 133 373.8 137.6C373.8 139.5 373.3 141.9 372.4 145C371.7 147.9 370.7 150 369.8 151.5C367.9 154.4 364.8 157.3 360 160.1C355 163.5 350.6 165.1 347 165.1C341.2 165.1 338.4 160.8 338.4 152.1C338.4 146.3 339.4 140.6 341.3 135.3C343.2 130.7 346.3 124.7 351.4 116.8C347.1 112.7 342.5 107 337.5 99.8C337 99.1 335.8 97.9 333.9 96C332.9 95 332.5 93.8 332.5 92.4C332.5 90.2 332.7 87.8 333.2 85C333.9 82.1 334.4 80.9 334.6 80.9C335.3 80.9 337.5 82.1 341.6 84.7C345.4 87.3 348.6 89.3 350.5 90.9C351.7 91.6 352.2 92.3 352.2 92.3L352.2 92.5C352.2 92.7 351.5 93 349.8 93C346.7 93 345 93.2 345 93.5C345 93.7 345.5 94.2 346.4 95.4C350.2 100.2 354.1 103.8 358.2 106.7C359.2 105.3 362.5 100.5 367.8 92.3C372.4 85.3 375 80.5 376.2 77.7C377.4 74.8 378.1 73.6 378.6 73.6C378.6 73.6148 378.607 73.6605 378.618 73.7383C378.682 74.1848 378.9 75.6897 378.9 78.5ZM10.9 100.8C10.9 100.8 10.7 101.1 10.7 101.3C9 104.2 7.59999 105.9 5.99999 105.9C3.89999 105.9 2.89999 103.7 2.89999 99.9C2.89999 96.8 4.09999 91.7 6.49999 84.3C6.99999 82.6 7.19999 81.6 7.19999 81.4C6.89999 81.4 6.49999 82.3 5.49999 84C1.69999 91 -7.62939e-06 97.9 -7.62939e-06 104.4C-7.62939e-06 109.7 1.49999 112.3 4.59999 112.3C7.69999 112.3 9.89999 108.7 11.1 101.5C11.3 101.3 11.3 101 11.1 100.8C11.1 100.709 11.1 100.66 11.0813 100.651C11.0589 100.641 11.0093 100.691 10.9 100.8ZM118.7 108.7C121.6 112.3 122.8 115.9 122.8 120C122.8 124.6 119.9 130.1 114.5 136.3C108.7 142.5 101.5 147.8 93.1 151.9C83.9 156.7 74.8 159.1 65.7 159.1C39 159.1 25.6 147.1 25.6 123.3C25.6 116.1 27.3 108.7 30.2 101C32.4 95.5 34.8 91.2 37.4 87.6C44.9 91.6 52.3 94.5 60 96.2C64 97.1 71.7 97.9 83 98.1C93.8 98.3 101.4 99.3 106 100.5C111.3 102 115.6 104.9 118.7 108.7ZM396.4 106.9C397.4 108.1 398.1 109.7 398.6 111.9C399.8 116 402.2 121.7 405.5 128.8C408.4 135.1 409.8 138.4 409.8 138.9C409.8 140.9 406.9 144 401.4 148.3C396.538 151.914 390.207 156.046 382.409 160.64C383.135 156.137 384.425 150.712 386.3 144.3C386.6 142.8 386.8 141.6 386.8 140.9C386.8 140.4 386.8 140.2 386.6 140.2C386.1 140.2 385.6 141.2 384.4 143.6C382.011 150.051 380.264 156.324 379.244 162.482C376.053 164.32 372.638 166.227 369 168.2C359.6 173.3 347.9 178.8 333.7 184.8C313.3 193.4 302.2 198.2 300.3 199.2C295 201.6 292.4 203.1 292.4 203.3C292.4 203.5 292.4 203.5 292.9 203.5C293.9 203.5 296.3 203.2 300.1 202.5C303.7 202 312.8 199.9 327.2 196.5C340.9 193.2 348.1 191.5 348.6 191.5C351.2 191.5 359.6 187.4 374 179C375.449 178.188 376.86 177.381 378.234 176.579C378.514 183.721 380.488 189.879 384 194.5C388.3 200.5 394.5 203.6 402.7 203.6C412.3 203.6 423.3 198.6 436.3 189C445 182.5 452.9 175 460.1 166.4C463.2 162.8 465.8 158.2 467.5 152.7C469 148.3 469.7 145 469.7 142.1L470.2 141.6L470.2 128.4C469.2 128.9 468.7 128.9 468.5 128.9C466.1 123.9 463.2 119.8 460.1 116.2C456.5 112.6 453.4 110.7 450.3 110.7C446.2 110.7 442.4 112.8 438.8 116.9C435 121.7 433.3 127 433.3 133C433.3 140.9 439.1 145 450.6 145C455.9 145 460.2 144.3 463.1 143.3C463.6 145 464.1 146.7 464.1 148.1C464.1 150.3 460.5 154.6 453.5 161.4C445.8 168.6 437.9 174.6 429.7 179.6C419.3 185.9 410.7 189 403.5 189C395.1 189 389.1 186.3 385.3 181.3C383.887 179.18 382.889 176.782 382.308 174.148C394.572 166.663 403.532 159.61 409.3 153.1C411.3 150.9 412.7 147.8 413.9 143.7C414.8 140.1 415.3 137.2 415.3 134.8C415.3 129.7 413.8 124.2 411.2 117.5C409.5 113.7 407.6 109.6 405.9 105.5C408.8 106.2 410.7 106.7 411.4 106.7C411.9 106.7 412.1 106.4 412.1 106.2C412.1 105.7 411.4 104.8 409.7 103.1C405.7 99 402.1 95.1 398.7 91.3C398.2 90.8 397.9 90.6 397.7 90.6C397.2 90.6 396.9 91.1 396.7 92.3C396.2 93.5 396 95.7 395.5 98.8C395 102.1 395 103.8 395 104.3C395.2 104.7 395.7 105.5 396.4 106.9ZM274.7 159.4C267.7 159.4 262.7 157 259.8 152.2C257.6 148.8 256.2 143.3 255.5 135.2C254.3 124.4 253.3 117.4 252.4 114.1C251.4 111 250.7 109.3 250 109.3C249 109.3 248.6 110.5 248.3 112.4C245.9 125.1 241.8 131.6 235.8 131.6L235.8 131.3C234.153 131.3 232.986 131.29 232.3 130.8C232.3 148.6 229.7 160.6 224.4 166.6C219.1 173.1 211.2 179.6 201.1 186C188.4 194.2 177.3 198.2 168.2 198.2C159.8 198.2 153.6 194.6 149.7 187.2C148.892 185.807 148.216 184.336 147.661 182.798C141.613 185.941 137.817 187.5 136.3 187.5C135.8 187.5 128.6 189.2 115.2 192.5C100.6 196.1 91.7 198 88.1 198.7C84 199.2 81.6 199.7 80.9 199.7C80.4 199.7 80.2 199.5 80.2 199.2C80.2 199 82.8 197.5 88.1 195.1C90 194.4 101.1 189.6 121.7 180.7C130.521 176.892 138.496 173.286 145.6 169.856C145.6 169.804 145.6 169.752 145.6 169.7C145.6 159.4 147.8 149.1 151.8 138.3C152.8 136.1 153.5 134.9 154 134.9C154.2 134.9 154.2 135.1 154.2 135.6C154.2 136.3 154 137.5 153.5 139C150.6 149.6 149.2 157.5 149.2 163C149.2 164.643 149.364 166.263 149.708 167.843C152.265 166.571 154.696 165.324 157 164.1C171.2 156.7 181.7 149.9 189.2 144.2C194.7 139.9 197.6 136.8 197.6 134.8C196.4 132.9 195.2 131.4 193.8 130.7C191.6 129.5 187.8 129 182.5 129C171 129 165.2 124.9 165.2 117.2C165.2 111.2 167.1 105.9 171 101.1C174.6 97 178.4 94.8999 182.3 94.8999C187.6 94.8999 192.1 98.5 196.5 106.2C199.8 113.1 201.8 119.3 201.8 125.3C201.8 136.8 198.9 145.7 193.4 151.9C187.2 158.9 176.4 166.8 160.5 175.7C158.731 176.72 157.055 177.674 155.473 178.561C158.834 182.357 163.013 184.1 167.7 184.1C174.4 184.1 182.8 181.5 192.7 176.2C200.6 171.9 208.3 166.6 216.2 160.4C222.9 154.6 227 150.8 228 148.6C228 140.4 225.6 131.8 221 122.7C220 121 219.6 119.6 219.6 118.6C219.6 117.9 220.6 114.3 222.5 108.3C222.7 107.1 223.2 106.4 223.7 106.4C224.2 106.4 224.7 107.4 225.4 108.8C226.8 111.9 227.8 113.6 228.5 114.1C229.9 116 232.6 116.7 235.9 116.7L235.9 117C242.834 116.943 246.403 110.945 247.1 99.5C247.1 94.9 248.3 92.8 250.2 92.8C252.1 92.8 253.8 94.5 255 98.1C257.2 103.6 258.8 111.3 259.8 120.9C261 129.8 262.2 135.3 263.4 137.9C265.3 142.5 269.2 144.6 274.7 144.6L274.7 159.4ZM496.3 113.4C495.6 113.4 494.6 113.8 493.4 114.8C489.5 118.1 485.7 121 481.8 123C480.6 123.8 476.5 125.7 470.3 128.8L470.3 142C478.7 138.1 485.2 134.1 489 129.5C489 140.5 493.8 146.3 503.9 146.3C512.3 146.3 519.2 141.5 524.5 131.9C527.7 137.7 531.3 140.8 535.1 140.8C540.9 140.8 545.2 138.2 548.1 132.9C550.8 128.5 552.2 123.5 552.2 117.5C552.2 113.6 551 110.3 549.1 107.4C548.4 106.4 547.9 106.2 547.4 106.2C546.9 106.2 546.4 107 546.2 108.4C544.8 112.9 543.8 116.3 543.6 118.2C545.7 121.8 546.7 123.8 546.7 124C545.7 125.6 543.6 126.6 540.2 126.6C537.6 126.6 535.2 125.6 533.5 124.2C531.6 122.8 530.6 121.1 530.6 119.4C530.6 119.9 531.3 118 532.3 113.9C532.8 111.8 532.6 110.8 531.6 110.8C530.9 110.8 530.2 111.2 529.2 112.2C526.8 116.1 524.2 119.9 521.8 124C517.9 129.1 512.9 131.7 506.9 131.7C499.4 131.7 495.6 128.8 495.6 123.5C495.6 122.3 495.8 120.8 496.3 118.9C496.8 117 497 115.5 497 114.8C497 113.9 496.8 113.4 496.3 113.4ZM188.3 114.8C184.9 110.2 181.6 108.1 178.9 108.1C174.6 108.1 172.4 109.3 172.4 111.5C172.4 114.4 175.3 115.8 181.3 115.8C183.5 115.7 185.9 115.5 188.3 114.8ZM60.6 121.7C60.4 121.5 60.4 121.2 60.6 120.7L65.2 111.1C65.4 110.6 65.9 110.4 66.2 110.4C66.7 110.4 68.8 111.6 72.4 114C76.2 116.6 78.2 118.1 78.2 118.6C78.2 120.3 76.5 123.6 73.2 128.9L73.1712 128.94C72.6921 129.611 72.4903 129.894 72 129.6C68.3 126.8 64.5 124.1 60.6 121.7ZM144.2 131.5C146.1 128.4 147.3 125.5 147.3 122.9C147.3 119.8 145.8 118.1 143.2 118.2C139.9 118.2 138 120.1 137 124.2C136.8 125.1 136.8 125.6 136.8 125.6C136.8 125.8 137 125.8 137 125.8C137.2 125.8 137.5 125.5 138.2 125.3C138.9 124.8 139.8 124.6 140.8 124.6C142.4 124.6 143.4 125.5 143.4 127.2C143.4 129.4 140.5 133.2 135 139.2C134.1 140.4 133.6 140.9 133.6 141.1L133.6 141.3C133.8 141.3 134.6 140.9 136 139.9C139.4 137.5 142 134.6 144.2 131.5ZM369.5 137.6C366.9 132.3 362.3 126.8 356.1 121.5C353.9 123.7 351.3 127.7 347.9 133.5C344.1 140 342.4 144.1 342.4 146.2C342.4 149.1 344.3 150.5 348.6 150.5C350.5 150.5 352.9 149.8 356 148.6C360.3 146.7 364.4 144 367.8 140.7C369.3 139.2 369.8 138.3 369.5 137.6ZM456.6 130.6C453 126 449.9 123.9 447 123.9C442.7 123.9 440.8 124.9 440.8 127.3C440.8 130.2 443.7 131.6 449.4 131.6C451.43 131.6 453.629 131.174 456 130.716C456.199 130.677 456.399 130.639 456.6 130.6ZM482.6 194.4C480 195.1 478.5 195.6 478 195.6L478 195.4C478 195.4 479 194.7 480.9 193.5C482.8 192.3 485.7 190.4 489.8 187.3C491.7 185.4 494.6 182.3 498.2 177.9C500.6 175 503.2 172.4 506.1 170.5C509.7 167.9 513.1 166.7 516.7 166.7C517.4 166.7 518.6 166.9 520.1 167.4C521.3 167.9 522.5 168.1 523.5 168.1C525.4 168.1 526.9 167.4 528.1 165.9C528.8 164.5 529.8 163.3 530.7 161.8C531.2 160.8 531.9 160.4 532.4 160.4C532.6 160.4 532.6 160.6 532.6 161.1C532.6 161.6 532.4 162.8 531.9 164.2C531.4 164.9 533.3 165.2 536.9 165.2C537.4 165.2 537.6 165.2 537.6 165C537.6 165 537.4 164 536.9 162.4C536.7 161.9 536.9 161.2 537.6 160.2L537.68 160.064C538.622 158.463 539.008 157.805 539.3 158C540.3 158.7 540.7 160.2 540.7 161.8C540.7 163.4 540.2 165.2 539.5 167.1C538.8 169.3 538.1 170.5 537.6 170.9C535.9 171.9 533.3 171.6 529.7 169.9C526.8 172.8 523.9 174.5 521.1 174.5C520.4 174.5 519.2 174.3 518 173.8C516.8 173.3 515.8 173.1 515.1 173.1C510.3 173.1 505.3 175.3 500.2 180.1L489.4 190.9C487.1 192.5 485 193.7 482.6 194.4ZM297.3 180.5C297.3 180.3 297.5 180 297.5 180C297.609 179.891 297.659 179.841 297.681 179.851C297.7 179.86 297.7 179.909 297.7 180C297.9 180.2 297.9 180.5 297.7 180.7C296.5 187.9 294.3 191.5 291.2 191.5C288.1 191.5 286.6 188.9 286.6 183.6C286.6 177.1 288.3 170.2 292.1 163.2C293.1 161.5 293.5 160.6 293.8 160.6C293.8 160.8 293.6 161.8 293.1 163.5C290.7 170.9 289.5 176 289.5 179.1C289.5 182.9 290.5 185.1 292.6 185.1C294.2 185.1 295.6 183.4 297.3 180.5ZM239.4 174.2C239.2 174.7 239.2 175 239.4 175.2C243.3 177.6 247.1 180.3 250.8 183.1C251.29 183.394 251.492 183.111 251.971 182.44L252 182.4C255.3 177.1 257 173.8 257 172.1C257 171.6 255 170.1 251.2 167.5C247.6 165.1 245.5 163.9 245 163.9C244.7 163.9 244.2 164.1 244 164.6L239.4 174.2ZM78.4 182.7C88 179.3 98.3 175.5 109.4 171.7C109.785 171.623 110.052 171.531 110.245 171.464C110.554 171.358 110.677 171.315 110.8 171.5C111 171.5 111 172 110.6 172.7C109.9 174.9 109.2 176.1 108.7 176.5C99.1 179.9 88.3 183.9 76.1 189.5C76.5 187.2 77.2 185.1 78.4 182.7Z" id="Group" fill="#595959" fill-rule="evenodd" stroke="none" clip-path="url(#clip_1)" />
  </g>
</svg>