<?xml version="1.0" encoding="utf-8"?>
<svg width="543.70013px" height="201.00005px" viewBox="0 0 543.70013 201.00005" version="1.1" xmlns:xlink="http://www.w3.org/1999/xlink" xmlns="http://www.w3.org/2000/svg">
  <defs>
    <path d="M543.7 0L543.7 0L543.7 201L0 201L0 0L543.7 0Z" id="path_1" />
    <clipPath id="clip_1">
      <use xlink:href="#path_1" clip-rule="evenodd" fill-rule="evenodd" />
    </clipPath>
  </defs>
  <g id="Surah_56_of_114_(modified)">
    <path d="M543.7 0L543.7 0L543.7 201L0 201L0 0L543.7 0Z" id="Surah_56_of_114_(modified)" fill="none" stroke="none" />
    <path d="M302.1 25C302.1 20.2 301.4 16.4 299.9 13.2C299.9 11.5 301.1 7.39999 304 1.2C304.2 0.5 304.5 0 304.7 0C305.2 0 305.4 0.5 305.9 1.2C306.6 2.89999 308.3 7.39999 311.2 14.9C314.3 22.8 316 27.6 316.5 29.5C317 30.7 317 31.9 317 32.4C317 34.6 315.1 33.4 310.8 28.6C310.3 27.9 310.1 28.4 310.1 29.6C310.1 30.1 311.3 45 313.5 74.7C315.7 104.2 316.6 120.8 316.6 124.6C316.6 135.9 314.9 146 311.6 154.6C310.6 156.3 310.2 157.5 309.7 158.4L309.7 158.4C309 159.6 308.7 159.6 308.5 158.9C308.3 157.9 308.5 156 308.7 153.4C309.2 149.3 309.4 144.8 309.4 139.7C309.4 134.9 308.2 115.7 305.8 81.9C303.3 48.1 302.1 29.1 302.1 25L302.1 25L302.1 25L302.1 25L302.1 25ZM270.1 138.3L270.1 125.1C279.7 121 284.5 114.8 284.5 106.4C284.5 102.1 283.5 88.4 281.9 65.6C280.2 42.6 279.5 28.9 279.5 24.8C279.5 20.2 278.8 16.4 277.3 13.3C277.3 11.6 278.7 7.49998 281.4 1.09999C281.6 0.399994 282.1 0.0999908 282.4 0.0999908C282.6 0.0999908 282.9 0.299988 283.4 1.09999C284.1 2.99998 286 7.59999 288.9 15C291.8 22.7 293.5 27.5 294.2 29.4C294.4 30.8 294.7 31.8 294.7 32.5C294.7 34.7 292.5 33.2 288.5 28.4C288 27.9 287.8 28.2 287.8 29.4C287.8 29.6 288.5 39.5 290 58.7C291.4 77.7 292.2 89.7 292.2 94.7C292.2 102.6 290.8 110.3 287.9 117.7C283.8 128 277.8 134.9 270.1 138.3L270.1 138.3L270.1 138.3L270.1 138.3L270.1 138.3ZM256.5 127C252.9 122.4 249.8 120.3 246.9 120.3C242.6 120.3 240.7 121.3 240.7 123.7C240.7 126.6 243.6 128 249.3 128C251.4 128 253.8 127.5 256.5 127L256.5 127L256.5 127L256.5 127L256.5 127ZM263.9 144.5C263.9 143.1 263.4 141.4 262.9 139.7C260 140.7 255.7 141.4 250.4 141.4C238.9 141.4 233.1 137.3 233.1 129.4C233.1 123.4 234.8 118.1 238.6 113.3C242.2 109.2 246 107.1 250.1 107.1C253.2 107.1 256.3 109 259.9 112.6C263 116.2 265.9 120.3 268.3 125.3C268.5 125.3 269 125.3 270 124.8L270 138L269.5 138.5C269.5 141.4 268.8 144.7 267.3 149.1C265.6 154.6 263 159.2 259.9 162.8C252.7 171.4 244.8 178.9 236.1 185.4C223.1 195 212.1 200 202.5 200C194.3 200 188.1 196.9 183.8 190.9C180 185.9 178 179.1 178 171.2C178 161.1 180.2 150.8 184.2 140C185.4 137.6 185.9 136.6 186.4 136.6C186.6 136.6 186.6 136.8 186.6 137.3C186.6 138 186.4 139.2 186.1 140.7C183 151.3 181.5 159.2 181.5 164.7C181.5 169.7 182.7 174.1 185.1 177.7C188.9 182.7 194.9 185.4 203.3 185.4C210.5 185.4 219.1 182.3 229.5 176C237.7 171 245.6 165 253.3 157.8C260.3 151 263.9 146.7 263.9 144.5L263.9 144.5L263.9 144.5L263.9 144.5L263.9 144.5ZM208 25C208 20.2 207.3 16.4 205.8 13.2C205.8 11.5 207 7.39999 209.9 1.2C210.1 0.5 210.4 0 210.6 0C211.1 0 211.3 0.5 211.8 1.2C212.5 2.89999 214.2 7.39999 217.1 14.9C220.2 22.8 221.9 27.6 222.4 29.5C222.9 30.7 222.9 31.9 222.9 32.4C222.9 34.6 221 33.4 216.7 28.6C216.2 27.9 216 28.4 216 29.6C216 30.1 217.2 45 219.4 74.7C221.6 104.2 222.5 120.8 222.5 124.6C222.5 135.9 220.8 146 217.5 154.6C216.5 156.3 216.1 157.5 215.6 158.4L215.6 158.4C214.9 159.6 214.6 159.6 214.4 158.9C214.2 157.9 214.4 156 214.6 153.4C215.1 149.3 215.3 144.8 215.3 139.7C215.3 134.9 214.1 115.7 211.7 81.9C209.2 48.1 208 29.1 208 25L208 25L208 25L208 25L208 25ZM202.2 111.4C202.2 120.5 199.3 128 193.8 133.7C184.2 143.3 172.7 148.1 159.2 148.1L159.2 133.5C165 133.5 171.7 132.1 179.4 129.2C187.6 126.3 193.6 123 197.9 118.9C197.9 116.5 196.2 114.3 192.6 112.7C189.2 111 185.9 110.3 182.3 110.3L172.7 110.3C169.1 110.3 166.2 109.1 164.1 106.7C161.9 104.3 161 101.4 161 97.8C161 92.8 162.7 87.7 166.3 82.4C169.7 77.4 173.3 75 176.9 75C182.9 75 188.7 78.4 193.9 85.1C199.3 92.5 202.2 101.1 202.2 111.4L202.2 111.4L202.2 111.4L202.2 111.4L202.2 111.4ZM186.6 96.8C183.2 91.5 179.2 88.9 174.8 88.9C171.7 88.9 170 89.9 170 92C170 94.2 171.9 95.6 176 96.1C178.2 96.1 181.8 96.3 186.6 96.8L186.6 96.8L186.6 96.8L186.6 96.8L186.6 96.8ZM142.7 113.1C140.1 111.2 134.8 110.2 127.3 110C124.7 110.2 122 110.2 119.9 110.7C124.7 113.8 128.1 116.7 130.2 119.1C134.1 116.9 138.4 114.8 142.7 113.1L142.7 113.1L142.7 113.1L142.7 113.1L142.7 113.1ZM126.6 133.5C117.2 139.7 111.7 143.3 109.6 144.3C105 146.9 100.2 148.1 95.4 148.1L95.4 133.5C102.1 133.5 109.8 130.9 118.2 125.6C115.6 122.7 112.2 120.3 108.4 118.2C105 116.3 102.4 115.3 100.7 115.3C97.1 115.3 94.5 115.8 92.8 117C92.1 117.2 91.6 117.5 91.1 117.5C90.6 117.5 90.4 117.3 90.4 116.5C90.4 116 90.4 115.5 90.9 114.8L95.2 104.7C95.9 102.8 100.2 101.1 108.2 99.2C115.6 97.5 122.8 96.8 129.6 96.8C142.8 96.8 153.4 99.7 161 105.4C162.9 106.8 163.9 107.8 163.9 108.5C163.9 108.7 163.7 109.7 163.2 110.7L158.6 119.1C154 120.8 147.8 123.4 139.6 126.8C144.2 131.4 150.9 133.5 159.3 133.5L159.3 148.1C152.8 148.1 147.8 147.4 144.2 145.7C139.8 144.1 134.1 140 126.6 133.5L126.6 133.5L126.6 133.5L126.6 133.5L126.6 133.5ZM95.7 148.1C90.7 148.1 87.1 147.6 84.9 147.1C80.1 145.7 76.3 142.5 73.1 137.7C71.2 134.6 69.3 131.2 67.3 127.9C65.4 125 63.7 123.8 62 123.8C56.5 123.8 50.7 128.4 44.5 137.7C43.5 139.4 41.6 143.7 38.7 150.7C36.1 157.7 33.7 162.7 31.5 166.1C28.4 170.9 24.8 173.3 21.2 173.3C15.9 173.3 11.4 169 7.49998 160.6C4.09998 153.2 2.69998 145.5 2.69998 137.6C2.69998 128 3.69998 120.1 5.59998 114.3C6.09998 112.4 6.59998 111.4 6.99997 111.4C7.69997 111.4 7.99997 112.6 7.49997 115C6.79997 121.2 6.49997 126.5 6.49997 130.8C6.49997 151.2 11.1 161.5 20.7 161.5C24.5 161.5 27.9 158.4 31.3 152.4C34.4 145.2 37.8 138 41.1 130.8C44 125 47.6 120 51.9 115.7C56 111.4 60.1 109.5 63.4 109.5C66 109.5 68.7 111.2 70.8 114.3C72.7 117.4 74.4 120.5 76.3 123.7C78.9 127.3 81.6 129.9 84.5 131.4C87.4 132.6 91 133.3 95.5 133.3L95.5 148.1L95.7 148.1L95.7 148.1L95.7 148.1ZM174.6 47.6L178.4 39.7C178.6 39.2 178.9 39 179.4 39C179.9 39 181.8 40.2 185.6 42.8C189.2 45.2 191.1 46.6 191.1 47.1C191.1 48.8 189.4 52.4 186.3 57.7C185.8 58.4 185.3 58.4 184.9 58.2C181.8 55.8 178.2 53.4 174.1 50.8C172.7 53.7 171.5 56.3 170 58.5C169.8 59.2 169.3 59.5 168.8 59.2C165.2 56.3 161.4 53.7 157.5 51.3C157.3 51.1 157.3 50.8 157.5 50.3L162.1 40.7C162.3 40.2 162.8 39.7 163.1 39.7C163.6 39.7 165.3 40.9 168.4 43.1C171.5 44.9 173.7 46.6 174.6 47.6L174.6 47.6L174.6 47.6L174.6 47.6L174.6 47.6ZM58.5 80.9L62.3 73C62.5 72.5 62.8 72.3 63.3 72.3C63.8 72.3 65.7 73.5 69.5 76.1C73.1 78.5 75 79.9 75 80.4C75 82.1 73.3 85.7 70.2 91C69.7 91.7 69.2 91.7 68.8 91.5C65.7 89.1 62.1 86.7 58 84.1C56.6 87 55.4 89.6 53.9 91.8C53.7 92.5 53.2 92.8 52.7 92.5C49.1 89.6 45.3 87 41.4 84.6C41.2 84.4 41.2 84.1 41.4 83.6L46 74C46.2 73.5 46.7 73 47 73C47.5 73 49.2 74.2 52.3 76.4C55.3 78.3 57.5 80 58.5 80.9L58.5 80.9L58.5 80.9L58.5 80.9L58.5 80.9ZM230.5 86.5C244.2 81.7 258.6 76.4 273.7 70.9C274.7 70.7 274.9 70.4 275.1 70.7C275.3 70.7 275.3 71.2 274.9 71.9C274.2 74.1 273.5 75.3 273 75.7C260 80.3 245.2 86 228.1 93.2C228.6 91 229.3 88.9 230.5 86.5L230.5 86.5L230.5 86.5L230.5 86.5L230.5 86.5ZM112 192.1C130.5 185.4 149.7 178.2 169.8 170.7C170.5 170.5 171 170.2 171.2 170.5C171.2 170.5 171.2 171 171 171.7C170 173.9 169.3 175.1 168.8 175.5C152 181.7 132.1 189.4 109.5 198.8C110.1 196.6 110.8 194.5 112 192.1L112 192.1L112 192.1L112 192.1L112 192.1ZM186.1 4.89999C185.1 7.29999 184.4 8.7 183.9 9C183.9 9.2 169.7 14.5 141.9 24.6C113.3 35.4 96.8 41.9 92.2 44.3C88.6 46 86.9 47.4 86.9 47.9C86.9 48.4 87.4 48.9 88.6 49.6C89.8 50.1 91.7 50.8 94.4 51.8C94.9 52 95.1 53 95.1 54.7C95.1 56.1 94.9 57.1 94.9 57.3C94.7 57.5 94.2 57.5 93.2 57.5C87.2 56.3 84.3 54.1 84.3 51.3C84.3 49.4 85 47.2 86.7 44.6C88.4 42 90.1 40 91.7 38.8C93.4 37.8 109.2 31.8 139.2 20.8C154.3 15.3 169.4 9.5 184.8 4C185.8 3.8 186.2 3.5 186.2 3.8C186.6 3.7 186.4 4.09999 186.1 4.89999L186.1 4.89999L186.1 4.89999L186.1 4.89999L186.1 4.89999ZM38.1 178.6C47.7 175.2 58 171.4 69.1 167.6C70.1 167.4 70.3 167.1 70.5 167.4C70.7 167.4 70.7 167.9 70.3 168.6C69.6 170.8 68.9 172 68.4 172.4C58.8 175.8 48 179.8 35.8 185.4C36.1 183.2 36.9 181 38.1 178.6L38.1 178.6L38.1 178.6L38.1 178.6L38.1 178.6ZM125.9 79.3C130.7 79.3 135.7 78.3 141.5 76.7C142.9 76.2 143.7 76.2 143.7 76.5C143.7 76.8 143.2 77.2 142 78.2C137.2 82.5 130.7 84.9 123 84.9C120.8 84.9 118.7 84.2 117.2 83C115.8 81.8 115 80.1 115 78.2C115 73.2 117.2 67.9 121.5 62.4C117.7 61.2 115.7 59.3 115.7 56.4C115.7 53.8 117.1 50.9 120.3 47.5C123.4 44.1001 125.8 42.5 127.7 42.5C128.2 42.5 128.7 42.7 129.1 43.7C129.6 44.4 129.8 45.1 129.8 46.1C129.8 46.6 129.3 47.5 128.4 49C127.4 50.4 126.7 50.9 126.7 50.7C126.2 49.3 125.5 48.5 124.1 48.5C123.4 48.5 122.7 49 121.7 50.2C120.5 51.4 120 52.4 120 53.1C121.2 55 123.4 56.2 126.2 56.2C127.2 56.2 128.8 55.2 130.8 53.3C132.2 52.3 133.4 51.1 134.6 49.9C135.1 49.7 135.3 49.9 135.3 50.9C135.3 53.3 134.3 55.5 132.9 57.9C126.4 62.2 121.6 67.3 118.5 72.8C118 74 117.8 75 117.8 75.7C118 77.8 120.6 79.3 125.9 79.3L125.9 79.3L125.9 79.3L125.9 79.3L125.9 79.3ZM253.3 22.4C253.3 21.2 250.9 19 245.9 16.2C244.2 19.1 243.5 21.7 243.5 24.1C243.5 25.5 244.2 26.5 245.7 26.5C246.9 26.5 248.3 26 250 25.1C251.7 24.3 252.9 23.3 253.3 22.4L253.3 22.4L253.3 22.4L253.3 22.4L253.3 22.4ZM248.1 3.2C248.8 2 249.8 1.5 250.5 1.5C251 1.5 251.5 1.7 251.5 2.2C251.5 2.2 251.3 2.39999 251.3 2.7C250.3 4.89999 249.4 7.3 248.7 9.7C253.7 13.3 256.1 17.1 255.9 20.7C255.4 24.8 254.9 27.4 254.2 28.4C251.8 31.3 249.2 33 245.8 33C242.4 33 241 30.8 241 27C241 26.3 241 25.3 241.2 24.4C242.3 16.6 244.7 9.7 248.1 3.2L248.1 3.2L248.1 3.2L248.1 3.2L248.1 3.2ZM255.7 49.5C255.7 52.1 254.5 55 252.6 58.1C250.4 61.2 247.8 64.1 244.4 66.5C243 67.5 242.2 67.9 242 67.9L242 67.7C242 67.5 242.5 67 243.4 65.8C248.9 59.8 251.8 56 251.8 53.8C251.8 52.1 250.8 51.2 249.2 51.2C248.2 51.2 247.3 51.4 246.6 51.9C245.9 52.1 245.6 52.4 245.4 52.4C245.4 52.4 245.2 52.4 245.2 52.2C245.2 52.2 245.2 51.7 245.4 50.8C246.4 46.7 248.3 44.8 251.6 44.8C254.3 44.7 255.7 46.4 255.7 49.5L255.7 49.5L255.7 49.5L255.7 49.5L255.7 49.5ZM129 156.5C129 159.1 127.8 162 125.9 165.1C123.7 168.2 121.1 171.1 117.7 173.5C116.3 174.5 115.5 174.9 115.3 174.9L115.3 174.7C115.3 174.5 115.8 174 116.7 172.8C122.2 166.8 125.1 163 125.1 160.8C125.1 159.1 124.1 158.2 122.5 158.2C121.5 158.2 120.6 158.4 119.9 158.9C119.2 159.1 118.9 159.4 118.7 159.4C118.7 159.4 118.5 159.4 118.5 159.2C118.5 159.2 118.5 158.7 118.7 157.8C119.7 153.7 121.6 151.8 124.9 151.8C127.6 151.7 129 153.4 129 156.5L129 156.5L129 156.5L129 156.5L129 156.5ZM288.9 169.5C288.9 169.3 289.1 169 289.1 169C289.3 168.8 289.3 168.8 289.3 169C289.5 169.2 289.5 169.5 289.3 169.7C288.1 176.9 285.9 180.5 282.8 180.5C279.7 180.5 278.2 177.9 278.2 172.6C278.2 166.1 279.9 159.2 283.7 152.2C284.7 150.5 285.1 149.6 285.4 149.6L285.4 149.6C285.4 149.8 285.2 150.8 284.7 152.5C282.3 159.9 281.1 165 281.1 168.1C281.1 171.9 282.1 174.1 284.2 174.1C285.7 174.1 287.2 172.4 288.9 169.5L288.9 169.5L288.9 169.5L288.9 169.5L288.9 169.5ZM91.3 188.7C91.3 188.5 91.5 188.2 91.5 188.2C91.7 188 91.7 188 91.7 188.2C91.9 188.4 91.9 188.7 91.7 188.9C90.5 196.1 88.3 199.7 85.2 199.7C82.1 199.7 80.6 197.1 80.6 191.8C80.6 185.3 82.3 178.4 86.1 171.4C87.1 169.7 87.5 168.8 87.8 168.8L87.8 168.8C87.8 169 87.6 170 87.1 171.7C84.7 179.1 83.5 184.2 83.5 187.3C83.5 191.1 84.5 193.3 86.6 193.3C88.2 193.3 89.7 191.6 91.3 188.7L91.3 188.7L91.3 188.7L91.3 188.7L91.3 188.7ZM10.7 101.6C10.7 101.4 10.9 101.1 10.9 101.1C11.1 100.9 11.1 100.9 11.1 101.1C11.3 101.3 11.3 101.6 11.1 101.8C9.89999 109 7.7 112.6 4.59999 112.6C1.49999 112.6 -7.62939e-06 110 -7.62939e-06 104.7C-7.62939e-06 98.2 1.69999 91.3 5.5 84.3C6.5 82.6 6.89999 81.7 7.2 81.7L7.2 81.7C7.2 81.9 7 82.9 6.5 84.6C4.1 92 2.9 97.1 2.9 100.2C2.9 104 3.9 106.2 6 106.2C7.60001 106.1 9 104.5 10.7 101.6L10.7 101.6L10.7 101.6L10.7 101.6L10.7 101.6ZM27.5 40.4C30.4 40.4 32.8 41.8 34.9 45.2C37.1 48.3 38.7 52.6 39.5 57.9C39.7 58.4 39.7 58.6 39.7 58.9L39.9 58.9C39.9 58.7 40.1 58.4 40.1 57.9C40.6 54.8 41.8 50 43.5 43.7C45.4 39.4 47.3 37.2 49.5 37.2C50.7 37.2 51.9 37.9 52.9 39.4C53.9 40.8 54.3 41.8 54.3 42.8C54.3 43.3 54.3 44.2 53.8 45.2C53.3 46.6 52.8 47.4 52.4 47.4C52.2 47.4 51.7 46.7 50.7 45.7C50 44.7 49 44.3 48.1 44.3C46.2 44.3 44.5 48.9 42.8 58C42.1 62.1 41.1 65 40.4 66.6C39.7 67.6 39.2 68.3 38.7 68.3C38.2 68.3 38.2 67.6 38 66.6C38.2 64.9 37.3 61.8 35.4 57.2C33.5 52.4 32.3 50.2 31.3 50.2C30.8 50.2 30.6 50.2 30.3 50.7C30.1 50.9 29.8 51.2 29.1 51.2C28.1 51.2 27.2 50.5 25.7 49.3C24.3 48.1 23.8 47.1 23.8 46.4C23.8 46.2 24.3 45 25.5 43C26.5 41.1 27.3 40.4 27.5 40.4L27.5 40.4L27.5 40.4L27.5 40.4L27.5 40.4ZM94.2 17.1C94.2 19.7 93 22.6 91.1 25.7C88.9 28.8 86.3 31.7 82.9 34.1C81.5 35.1 80.7 35.5 80.5 35.5L80.5 35.3C80.5 35.1 81 34.6 81.9 33.4C87.4 27.4 90.3 23.6 90.3 21.4C90.3 19.7 89.3 18.8 87.7 18.8C86.7 18.8 85.8 19 85.1 19.5C84.4 19.7 84.1 20 83.9 20C83.9 20 83.7 20 83.7 19.8C83.7 19.8 83.7 19.3 83.9 18.4C84.9 14.3 86.8 12.4 90.1 12.4C92.8 12.3 94.2 14 94.2 17.1L94.2 17.1L94.2 17.1L94.2 17.1L94.2 17.1ZM484.9 112.1C486.1 111.1 487.1 110.7 487.8 110.7C488.3 110.7 488.5 111.2 488.5 112.1C488.5 112.8 488.3 114.3 487.8 116.2C487.3 118.1 487.1 119.6 487.1 120.8C487.1 126.1 490.9 129 498.4 129C504.4 129 509.4 126.4 513.3 121.3C515.7 117.2 518.3 113.4 520.7 109.5C521.7 108.5 522.4 108.1 523.1 108.1C524.1 108.1 524.3 109.1 523.8 111.2C522.8 115.3 522.1 117.2 522.1 116.7C522.1 118.4 523.1 120.1 525 121.5C526.7 122.9 529.1 123.9 531.7 123.9C535.1 123.9 537.2 122.9 538.2 121.3C538.2 121.1 537.2 119.1 535.1 115.5C535.3 113.6 536.3 110.2 537.7 105.7C537.9 104.3 538.4 103.5 538.9 103.5C539.4 103.5 539.9 103.7 540.6 104.7C542.5 107.6 543.7 110.9 543.7 114.8C543.7 120.8 542.3 125.8 539.6 130.2C536.7 135.5 532.4 138.1 526.6 138.1C522.8 138.1 519.2 135 516 129.2C510.7 138.8 503.8 143.6 495.4 143.6C485.3 143.6 480.5 137.8 480.5 126.8C476.7 131.4 470.2 135.4 461.8 139.3L461.8 126.1C468 123 472.1 121.1 473.3 120.3C477.3 118.4 481.1 115.5 484.9 112.1L484.9 112.1L484.9 112.1L484.9 112.1L484.9 112.1ZM448.2 128C444.6 123.4 441.5 121.3 438.6 121.3C434.3 121.3 432.4 122.3 432.4 124.7C432.4 127.6 435.3 129 441 129C443.2 128.9 445.6 128.5 448.2 128L448.2 128L448.2 128L448.2 128L448.2 128ZM455.7 145.5C455.7 144.1 455.2 142.4 454.7 140.7C451.8 141.7 447.5 142.4 442.2 142.4C430.7 142.4 424.9 138.3 424.9 130.4C424.9 124.4 426.6 119.1 430.4 114.3C434 110.2 437.8 108.1 441.9 108.1C445 108.1 448.1 110 451.7 113.6C454.8 117.2 457.7 121.3 460.1 126.3C460.3 126.3 460.8 126.3 461.8 125.8L461.8 139L461.3 139.5C461.3 142.4 460.6 145.7 459.1 150.1C457.4 155.6 454.8 160.2 451.7 163.8C444.5 172.4 436.6 179.9 427.9 186.4C414.9 196 403.9 201 394.3 201C386.1 201 379.9 197.9 375.6 191.9C371.8 186.9 369.8 180.1 369.8 172.2C369.8 162.1 372 151.8 376 141C377.2 138.6 377.7 137.6 378.2 137.6C378.4 137.6 378.4 137.8 378.4 138.3C378.4 139 378.2 140.2 377.9 141.7C374.8 152.3 373.3 160.2 373.3 165.7C373.3 170.7 374.5 175.1 376.9 178.7C380.7 183.7 386.7 186.4 395.1 186.4C402.3 186.4 410.9 183.3 421.3 177C429.5 172 437.4 166 445.1 158.8C452.1 152 455.7 147.7 455.7 145.5L455.7 145.5L455.7 145.5L455.7 145.5L455.7 145.5ZM390.1 109.3C389.6 107.1 388.9 105.5 387.9 104.3C387.2 102.9 386.7 102.1 386.5 101.7C386.5 101.2 386.5 99.5 387 96.2C387.5 93.1 387.7 90.9 388.2 89.7C388.4 88.5 388.7 88 389.2 88C389.4 88 389.7 88.2 390.2 88.7C393.6 92.5 397.2 96.4 401.2 100.5C402.9 102.2 403.6 103.1 403.6 103.6C403.6 103.8 403.4 104.1 402.9 104.1C402.2 104.1 400.3 103.6 397.4 102.9C399.1 107 401 111.1 402.7 114.9C405.3 121.6 406.8 127.1 406.8 132.2C406.8 134.6 406.3 137.5 405.4 141.1C404.2 145.2 402.8 148.3 400.8 150.5C393.8 158.4 382.1 167.1 365.5 176.4C351.1 184.8 342.7 188.9 340.1 188.9C339.6 188.9 332.4 190.6 318.7 193.9C304.3 197.3 295.2 199.4 291.6 199.9C287.8 200.6 285.4 200.9 284.4 200.9C283.9 200.9 283.9 200.9 283.9 200.7C283.9 200.5 286.5 199 291.8 196.6C293.7 195.6 304.8 190.8 325.2 182.2C339.4 176.2 351.1 170.7 360.5 165.6C374.7 157.9 385.5 151.2 392.9 145.7C398.4 141.4 401.3 138.3 401.3 136.3C401.3 135.8 399.9 132.5 397 126.2C393.7 119.1 391.3 113.3 390.1 109.3L390.1 109.3L390.1 109.3L390.1 109.3L390.1 109.3ZM370.5 75.9C370.5 79.7 368.6 85 364.7 91.5C362.3 95.6 358.7 101.1 353.9 108.3C358.7 113.8 362.1 118.9 363.7 123.2C364.7 126.3 365.4 130.4 365.4 135C365.4 136.9 364.9 139.3 364 142.4C363.3 145.3 362.3 147.4 361.4 148.9C359.5 151.8 356.4 154.7 351.6 157.5C346.6 160.9 342.2 162.5 338.6 162.5C332.8 162.5 330 158.2 330 149.5C330 143.7 331 138 332.9 132.7C334.8 128.1 337.9 122.1 343 114.2C338.7 110.1 334.1 104.4 329.1 97.2C328.6 96.5 327.4 95.3 325.5 93.4C324.5 92.4 324.1 91.2 324.1 89.8C324.1 87.6 324.3 85.2 324.8 82.4C325.5 79.5 326 78.3 326.2 78.3C326.9 78.3 329.1 79.5 333.2 82.1C337 84.7 340.2 86.7 342.1 88.3C343.3 89 343.8 89.7 343.8 89.7L343.8 89.9C343.8 90.1 343.1 90.4 341.4 90.4C338.3 90.4 336.6 90.6 336.6 90.9C336.6 91.1 337.1 91.6 338 92.8C341.8 97.6 345.7 101.2 349.8 104.1C350.8 102.7 354.1 97.9 359.4 89.7C364 82.7 366.6 77.9 367.8 75.1C369 72.2 369.7 71 370.2 71C370.2 71.1 370.5 72.5 370.5 75.9L370.5 75.9L370.5 75.9L370.5 75.9L370.5 75.9ZM361.1 134.9C358.5 129.6 353.9 124.1 347.7 118.8C345.5 121 342.9 125 339.5 130.8C335.7 137.3 334 141.4 334 143.5C334 146.4 335.9 147.8 340.2 147.8C342.1 147.8 344.5 147.1 347.6 145.9C351.9 144 356 141.3 359.4 138C360.9 136.6 361.3 135.7 361.1 134.9L361.1 134.9L361.1 134.9L361.1 134.9L361.1 134.9ZM347.7 57.9L351.5 50C351.7 49.5 352 49.3 352.5 49.3C353 49.3 354.9 50.5 358.7 53.1C362.3 55.5 364.2 56.9 364.2 57.4C364.2 59.1 362.5 62.7 359.4 68C358.9 68.7 358.4 68.7 358 68.5C354.9 66.1 351.3 63.7 347.2 61.1C345.8 64 344.6 66.6 343.1 68.8C342.9 69.5 342.4 69.8 341.9 69.5C338.3 66.6001 334.5 64 330.6 61.6001C330.4 61.4 330.4 61.1001 330.6 60.6001L335.2 51C335.4 50.5 335.9 50 336.2 50C336.7 50 338.4 51.2001 341.5 53.4C344.5 55.3 346.7 56.9 347.7 57.9L347.7 57.9L347.7 57.9L347.7 57.9L347.7 57.9ZM474.1 191.8C471.5 192.5 470 193 469.5 193L469.5 192.8C469.5 192.8 470.5 192.1 472.4 190.9C474.3 189.7 477.2 187.8 481.3 184.7C483.2 182.8 486.1 179.7 489.7 175.3C492.1 172.4 494.7 169.8 497.6 167.9C501.2 165.3 504.6 164.1 508.2 164.1C508.9 164.1 510.1 164.3 511.6 164.8C512.8 165.3 514 165.5 515 165.5C516.9 165.5 518.4 164.8 519.6 163.3C520.3 161.9 521.3 160.7 522.2 159.2C522.7 158.2 523.4 157.8 523.9 157.8C524.1 157.8 524.1 158 524.1 158.5C524.1 159 523.9 160.2 523.4 161.6C522.9 162.3 524.8 162.6 528.4 162.6C528.9 162.6 529.1 162.6 529.1 162.4C529.1 162.4 528.9 161.4 528.4 159.8C528.2 159.3 528.4 158.6 529.1 157.6C530.1 155.9 530.5 155.2 530.8 155.4C531.8 156.1 532.2 157.6 532.2 159.2C532.2 160.9 531.7 162.6 531 164.5C530.3 166.7 529.6 167.9 529.1 168.3C527.4 169.3 524.8 169 521.2 167.3C518.3 170.2 515.4 171.9 512.6 171.9C511.9 171.9 510.7 171.7 509.5 171.2C508.3 170.7 507.3 170.5 506.6 170.5C501.8 170.5 496.8 172.7 491.7 177.5C488.1 181.1 484.5 184.7 480.9 188.3C478.7 189.9 476.5 191.1 474.1 191.8L474.1 191.8L474.1 191.8L474.1 191.8L474.1 191.8ZM422.5 62C425.4 62 427.8 63.4 429.9 66.8C432.1 69.9 433.7 74.2 434.5 79.5C434.7 80 434.7 80.2 434.7 80.5L434.9 80.5C434.9 80.3 435.1 80 435.1 79.5C435.6 76.4 436.8 71.6 438.5 65.3C440.4 61 442.3 58.8 444.5 58.8C445.7 58.8 446.9 59.5 447.9 61C448.9 62.4 449.3 63.4 449.3 64.4C449.3 64.9 449.3 65.8 448.8 66.8C448.3 68.2 447.8 69 447.4 69C447.2 69 446.7 68.3 445.7 67.3C445 66.3 444 65.9 443.1 65.9C441.2 65.9 439.5 70.5 437.8 79.6C437.1 83.7 436.1 86.6 435.4 88.2C434.7 89.2 434.2 89.9 433.7 89.9C433.2 89.9 433.2 89.2 433 88.2C433.2 86.5 432.3 83.4 430.4 78.8C428.5 74 427.3 71.8 426.3 71.8C425.8 71.8 425.6 71.8 425.3 72.3C425.1 72.5 424.8 72.8 424.1 72.8C423.1 72.8 422.2 72.1 420.7 70.9C419.3 69.7 418.8 68.7 418.8 68C418.8 67.8 419.3 66.6 420.5 64.6C421.6 62.7 422.3 62 422.5 62L422.5 62L422.5 62L422.5 62L422.5 62ZM382 59.1C406.2 50 431.4 40.9 457.4 31.3C458.1 31.1 458.6 30.8 458.6 31.1C458.8 31.1 458.8 31.6 458.6 32.3C457.6 34.5 456.9 35.7 456.4 36.1C456.2 36.3 443.9 40.9 420.2 49.8C396 58.7 382.3 64.2 379.6 65.9C380.1 63.7 380.8 61.5 382 59.1L382 59.1L382 59.1L382 59.1L382 59.1ZM358.5 15.2C359 13.8 359 12.3 358.7 10.9C358.5 9.5 357.7 8.7 356.5 8.7C356 8.7 355.3 8.89999 354.3 9.39999C353.3 9.89999 352.9 10.4 352.9 10.8C352.9 12.1 354.9 13.5 358.5 15.2L358.5 15.2L358.5 15.2L358.5 15.2L358.5 15.2ZM355.6 21.4C351 19 348.9 16.6 348.9 14C348.9 10.9 350.3 8 353.2 5.60001C356.1 3 358.5 2 360.4 2.70001C362.1 3.20001 362.8 4.90001 362.8 7.70001C362.8 10.3 362.3 13.2 361.1 16.6C363.5 17.8 364.9 19 365.4 20C365.4 21.2 364.4 23.4 362.3 26.2C361.8 25.2 360.4 24 358.2 22.8C355.6 26.4 352.4 29.5 348.6 32.4C344 35.5 340 38.2 336.4 39.6C335.4 40.1 331.1 41.8 323.4 44.6C322.2 45.1 321.2 45.3 321 45.3C320.8 45.3 320.8 45.1 320.8 45.1C320.8 44.9 321.3 44.1 322.7 43.4C328.5 39.8 334.2 36.4 340.2 33.1C347.2 28.9 352.2 25 355.6 21.4L355.6 21.4L355.6 21.4L355.6 21.4L355.6 21.4ZM507.3 51.4C507.8 50 507.8 48.5 507.5 47.1C507.3 45.7 506.5 44.9 505.3 44.9C504.8 44.9 504.1 45.1 503.1 45.6C502.1 46.1 501.7 46.6 501.7 47C501.7 48.3 503.7 49.7 507.3 51.4L507.3 51.4L507.3 51.4L507.3 51.4L507.3 51.4ZM512.5 60.3C510.1 66.1 508.9 70.6 508.9 74C508.9 78.1 509.9 80.2 512 80.2C513.2 80.2 514.6 78.5 516.3 75.6C516.5 75.4 516.5 75.1 516.8 74.9C516.8 74.9 517 74.9 517 75.1C517 75.1 517 75.3 517 75.8C515.6 83 513.4 86.6 510.5 86.6C507.4 86.6 505.9 84 505.9 78.7C505.9 76.1 506.4 72.7 507.8 68.4C509.2 64.1001 510 61.9 510 61.7C510 61.2 509 60.3 506.9 59.1C503.1 64.1 497.8 68.9 491.1 73C486.5 75.6 482 78 477.2 80C468.3 83.6 463 85.5 461.8 86.2C460.6 86.7 459.9 86.9 459.4 86.9C459.2 86.9 459.2 86.7 459.2 86.7C459.2 86.2 459.7 85.7 461.1 84.8C468.8 80.5 476.2 76.2 483.9 71.8C494 66 500.9 61.2 504.3 57.6C499.7 55.2 497.6 52.8 497.6 50.2C497.6 47.1 499 44.2 501.9 41.6C504.8 39.2 507.2 38.2 509.1 39C510.5 39.5 511.5 41.2 511.5 44C511.5 46.6 511 49.5 509.8 52.6C512.2 54 513.2 55.5 513.2 56.9C513.3 57.7 513 58.9 512.5 60.3L512.5 60.3L512.5 60.3L512.5 60.3L512.5 60.3ZM403.3 25.3C403.3 25.1 403.5 24.8 403.5 24.8C403.7 24.6 403.7 24.6 403.7 24.8C403.9 25 403.9 25.3 403.7 25.5C402.5 32.7 400.3 36.3 397.2 36.3C394.1 36.3 392.6 33.7 392.6 28.4C392.6 21.9 394.3 15 398.1 8.00002C399.1 6.30002 399.5 5.40001 399.8 5.40001L399.8 5.40001C399.8 5.60001 399.6 6.60001 399.1 8.3C396.7 15.7 395.5 20.8 395.5 23.9C395.5 27.7 396.5 29.9 398.6 29.9C400.2 29.8 401.7 28.1 403.3 25.3L403.3 25.3L403.3 25.3L403.3 25.3L403.3 25.3Z" id="Group" fill="#595959" stroke="none" clip-path="url(#clip_1)" />
  </g>
</svg>