<?xml version="1.0" encoding="utf-8"?>
<svg width="656.1001px" height="209.00005px" viewBox="0 0 656.1001 209.00005" version="1.1" xmlns:xlink="http://www.w3.org/1999/xlink" xmlns="http://www.w3.org/2000/svg">
  <defs>
    <path d="M656.1 0L656.1 0L656.1 209L0 209L0 0L656.1 0Z" id="path_1" />
    <clipPath id="clip_1">
      <use xlink:href="#path_1" clip-rule="evenodd" fill-rule="evenodd" />
    </clipPath>
  </defs>
  <g id="Surah_83_of_114_(modified)">
    <path d="M656.1 0L656.1 0L656.1 209L0 209L0 0L656.1 0Z" id="Surah_83_of_114_(modified)" fill="none" stroke="none" />
    <path d="M411.8 34.7C411.8 29.9 411.1 26.1 409.6 22.9C409.6 21.2 410.8 17.1 413.7 10.9C413.9 10.2 414.2 9.69997 414.4 9.69997C414.9 9.69997 415.1 10.2 415.6 10.9C416.3 12.6 418 17.1 420.9 24.6C424 32.5 425.7 37.3 426.2 39.2C426.7 40.4 426.7 41.6 426.7 42.1C426.7 44.3 424.8 43.1 420.5 38.3C420 37.6 419.8 38.1 419.8 39.3C419.8 39.8 421 54.7 423.2 84.3999C425.4 113.9 426.3 130.5 426.3 134.3C426.3 145.6 424.6 155.7 421.3 164.3C420.3 166 419.9 167.2 419.4 168.1L419.4 168.1C418.7 169.3 418.4 169.3 418.2 168.6C418 167.6 418.2 165.7 418.4 163.1C418.9 159 419.1 154.5 419.1 149.4C419.1 144.6 417.9 125.4 415.5 91.5999C413 57.7 411.8 38.7 411.8 34.7L411.8 34.7L411.8 34.7L411.8 34.7L411.8 34.7ZM378.7 137.9C375.6 125.9 372.9 104.5 370.8 74.1C369.4 55.6 368.6 39.1 368.6 24.7C368.6 20.1 367.9 16.3 366.4 13.2C366.4 11.5 367.6 7.39999 370.5 1C370.7 0.300003 371.2 0 371.5 0C371.7 0 372 0.199997 372.5 1.2C373.2 2.89999 375.1 7.39999 378 14.9C380.9 22.8 382.6 27.6 383 29.1C383.5 30.8 383.7 32 383.7 32.5C383.7 34.7 381.5 33.5 377.5 28.7C377 28 376.8 28.5 376.8 29.7C376.8 35.9 377.5 51.3 379 75.3C380.7 106.3 383.3 126.2 386.4 135.1C386.4 135.6 385.4 136.3 383.5 137.3C381.6 138.3 380.1 138.7 379.2 138.7C378.9 138.3 378.7 138.1 378.7 137.9L378.7 137.9L378.7 137.9L378.7 137.9L378.7 137.9ZM402.7 151.8C404.6 151.8 405.6 151.3 405.6 150.4C405.6 149 404.4 147.5 401.5 146.3C399.6 145.6 396.5 145.6 391.9 146.3C394.3 150.1 397.9 151.8 402.7 151.8L402.7 151.8L402.7 151.8L402.7 151.8L402.7 151.8ZM381.5 150.1C379.6 151.3 373.3 154.2 363.5 158.3L363.5 145.1C366.4 143.4 371.4 141 378.1 137.9L385.1 134.8C390.1 132.6 395.4 131.4 400.9 131.4C404.5 131.4 407.6 133.1 409.8 136.4C412.2 140 413.2 144.6 413.2 150.1C413.2 154.9 412.2 158.7 410.3 161.9C408.1 165 405.5 166.5 402.1 166.5C397.5 166.5 393.2 164.6 388.9 160.5C385.9 157.5 383.5 153.9 381.5 150.1L381.5 150.1L381.5 150.1L381.5 150.1L381.5 150.1ZM346.3 135.5C347.5 134.8 348 134.1 347.3 132.9C342.5 122.8 336.5 117.8 329.3 117.8C314.4 117.8 296.4 129.6 275.5 153.1C301.1 153 324.7 147.2 346.3 135.5L346.3 135.5L346.3 135.5L346.3 135.5L346.3 135.5ZM270.2 152.5C274.5 147.7 278.1 143.1 281.2 139.1C282.2 137.9 282.6 135.7 282.9 133.1C282.9 133.1 282.9 127.8 282.9 117C282.9 115.3 281.9 101.4 279.8 75.5C277.9 49.8 276.9 35.7 276.9 33C277.1 28.7 276.4 24.8 274.7 21.5C274.7 19.8 276.1 15.7 278.8 9.29999C279.3 8.59999 279.5 8.09999 279.8 8.09999C280 8.09999 280.5 8.59999 280.8 9.29999C281.8 11 283.4 15.5 286.3 23C289.2 30.9 291.1 35.7 291.6 37.6C291.8 39 292.1 40 292.1 40.7C292.1 42.9 289.9 41.4 285.9 36.6C285.4 36.1 285.2 36.6 285.2 37.6C285.2 37.8 286.2 48.2 287.8 68.1C289.5 88.5 290.4 100 290.4 102.7C290.4 108.2 289.4 118.3 287.3 132.9C306.7 113.5 322.8 103.9 335.3 103.9C341.1 103.9 346.3 107 350.7 113.3C354.5 118.3 356.2 122.7 356.2 126C356.2 129.6 354.5 133.7 351.2 138.2C347.6 143.5 342.6 147.8 336.3 151.6C348.3 149.9 357.4 147.5 363.7 144.9L363.7 158.1C360.1 159.5 353.6 161.2 344 162.9C327.9 165.8 310.4 167 291 167C274.9 167 263.2 165.6 255.7 162.7L255.7 148.1C261.8 150.8 266.8 152.5 270.2 152.5L270.2 152.5L270.2 152.5L270.2 152.5L270.2 152.5ZM255.5 162.3C248.3 159.7 243 157 239.2 154.6C228.6 161.6 217.6 165.2 206.3 165.2L206.3 150.6C216.1 150.6 224.3 148.7 230.8 145.3C229.6 142.7 228.9 139.3 228.9 135C228.9 128 231.5 121.3 236.6 114.4C241.4 108.2 245.5 105 248.8 105C251.9 105 254.3 107.2 256 111.7C257.4 115.3 257.9 119.1 257.9 123.2C257.9 127.8 257.2 132.3 255.7 137.1C254.3 140.9 252.8 143.8 251.4 145.7C252.4 146.2 253.8 146.9 255.5 147.6L255.5 162.3L255.5 162.3L255.5 162.3L255.5 162.3ZM252.4 132.8C252.4 130.6 251.7 128 250.2 124.4C248.5 120.6 247.1 118.6 245.9 118.6C244.5 118.6 241.8 120.5 238.5 123.9C235.1 127.3 233.5 129.9 233.5 131.8C233.5 134.7 236.6 137.8 242.6 141.2C244.3 140.5 246.2 139.5 248.1 138.1C251 135.9 252.4 134.3 252.4 132.8L252.4 132.8L252.4 132.8L252.4 132.8L252.4 132.8ZM206.3 165C193.8 165 184.7 163.3 179.2 160C172.2 165 166 167.7 160.7 167.7L160.7 153.1C164.3 153.1 167.7 152.1 171 150.7C169.3 147.8 168.6 144 168.6 139.2C168.6 132.5 171.2 125.5 176.3 118.8C181.1 112.6 184.9 109.2 188.3 109.2C191.4 109.2 194.1 111.6 195.7 116.2C196.9 119.8 197.6 123.6 197.6 127.5C197.6 136.9 195.4 144.3 191.4 149.6C194 150.3 199.1 150.6 206.3 150.6L206.3 165L206.3 165L206.3 165L206.3 165ZM192.2 136.9C192.2 135 191.5 132.1 190 128.7C188.3 124.9 186.9 122.9 185.7 122.9C184.3 122.9 181.9 124.6 178.7 127.9C175.6 131.3 173.7 134.1 172.5 136.8C173 138.2 174.2 139.9 175.9 141.6C177.6 143.5 179.5 144.7 181.4 145.4C186.7 142.9 190.3 140 192.2 136.9L192.2 136.9L192.2 136.9L192.2 136.9L192.2 136.9ZM160.7 167.6C153.7 167.6 148.7 165.2 145.8 160.4C143.6 157 142.2 151.5 141.5 143.4C140.3 132.6 139.3 125.6 138.4 122.3C137.4 119.2 136.7 117.5 136 117.5C135 117.5 134.6 118.7 134.3 120.6C131.9 133.3 127.8 139.8 121.8 139.8L121.8 125.2C128.8 125.2 132.4 119.2 133.1 107.7C133.1 103.1 134.3 101 136.2 101C138.1 101 139.8 102.7 141 106.3C143.2 111.8 144.8 119.5 145.8 129.1C147 138 148.2 143.5 149.4 146.1C151.3 150.7 155.2 152.8 160.7 152.8L160.7 167.6L160.7 167.6L160.7 167.6L160.7 167.6ZM39.8 207.7C21.6 207.7 8.8 198.6 1.9 180.6C0.5 177.2 0 172.7 0 167.2C0 163.6 0.199997 160 0.699997 156.2C1.7 150.9 2.89999 146.1 4.3 142C4.99999 140.6 5.49999 140.1 5.99999 140.1C6.49999 140.1 6.49999 140.8 6.19999 142.5C5.49999 145.1 4.99999 147.5 4.49999 150.2C3.49999 154.5 3.09999 157.9 3.09999 160C3.09999 167.4 5.49999 174.4 10.5 180.6C17.2 188.8 27.1 193.1 39.8 193.1C50.8 193.1 62.6 190.5 74.8 185.2C84.4 180.9 93.5 175.6 101.9 169.1C108.6 163.8 112.7 159.7 113.9 157.1C113.9 148.9 111.7 140.3 106.9 131.2C105.9 129.3 105.7 128.1 105.7 127.1C105.7 126.4 106.4 122.8 108.3 116.5C108.8 115.5 109 115.1 109.5 115.1C110 115.1 110.7 115.8 111.4 117.3C112.6 120.2 113.6 121.9 114.3 122.6C116 124.3 118.4 125.2 122 125.2L122 139.6C120.3 139.6 118.9 139.6 118.2 139.4C118.2 149.5 117.7 156.9 116.5 162.2C115.3 168 113.1 172.3 110.3 175.4C102.1 183.3 92.5 190.3 81 196.3C66.4 203.9 52.7 207.7 39.8 207.7L39.8 207.7L39.8 207.7L39.8 207.7L39.8 207.7ZM233.7 86.5C233.5 86.3 233.5 86 233.7 85.5L238.3 75.9C238.5 75.4 239 75.2 239.3 75.2C239.8 75.2 241.9 76.4 245.5 78.8C249.3 81.4 251.3 82.9 251.3 83.4C251.3 85.1 249.6 88.4 246.3 93.7C245.8 94.4 245.6 94.7 245.1 94.4C241.4 91.5 237.5 88.9 233.7 86.5L233.7 86.5L233.7 86.5L233.7 86.5L233.7 86.5ZM173.9 89.9C173.7 89.7 173.7 89.4 173.9 88.9L178.5 79.3C178.7 78.8 179.2 78.6 179.5 78.6C180 78.6 182.1 79.8 185.7 82.2C189.5 84.8 191.5 86.3 191.5 86.8C191.5 88.5 189.8 91.8 186.5 97.1C186 97.8 185.8 98.1 185.3 97.8C181.6 94.9 177.8 92.3 173.9 89.9L173.9 89.9L173.9 89.9L173.9 89.9L173.9 89.9ZM137.7 195.5L141.5 187.6C141.7 187.1 142 186.9 142.5 186.9C143 186.9 144.9 188.1 148.7 190.7C152.3 193.1 154.2 194.5 154.2 195C154.2 196.7 152.5 200.3 149.4 205.6C148.9 206.3 148.4 206.3 148 206.1C144.9 203.7 141.3 201.3 137.2 198.7C135.8 201.6 134.6 204.2 133.1 206.4C132.9 207.1 132.4 207.4 131.9 207.1C128.3 204.2 124.5 201.6 120.6 199.2C120.4 199 120.4 198.7 120.6 198.2L125.2 188.6C125.4 188.1 125.9 187.6 126.2 187.6C126.7 187.6 128.4 188.8 131.5 191C134.6 192.8 136.7 194.5 137.7 195.5L137.7 195.5L137.7 195.5L137.7 195.5L137.7 195.5ZM48.2 120.8C48 120.6 48 120.3 48.2 119.8L52.8 110.2C53 109.7 53.5 109.5 53.8 109.5C54.3 109.5 56.4 110.7 60 113.1C63.8 115.7 65.8 117.2 65.8 117.7C65.8 119.4 64.1 122.7 60.8 128C60.3 128.7 60.1 129 59.6 128.7C55.9 125.9 52 123.2 48.2 120.8L48.2 120.8L48.2 120.8L48.2 120.8L48.2 120.8ZM353.9 22.7C353.9 21.5 351.5 19.3 346.5 16.5C344.8 19.4 344.1 22 344.1 24.4C344.1 25.8 344.8 26.8 346.3 26.8C347.5 26.8 348.9 26.3 350.6 25.4C352.3 24.6 353.5 23.6 353.9 22.7L353.9 22.7L353.9 22.7L353.9 22.7L353.9 22.7ZM348.7 3.49997C349.4 2.29997 350.4 1.79997 351.1 1.79997C351.6 1.79997 352.1 1.99997 352.1 2.49997C352.1 2.49997 351.9 2.69997 351.9 2.99997C350.9 5.19997 350 7.59998 349.3 9.99997C354.3 13.6 356.7 17.4 356.5 21C356 25.1 355.5 27.7 354.8 28.7C352.4 31.6 349.8 33.3 346.4 33.3C343 33.3 341.6 31.1 341.6 27.3C341.6 26.6 341.6 25.6 341.8 24.7C342.9 16.9 345.3 9.89998 348.7 3.49997L348.7 3.49997L348.7 3.49997L348.7 3.49997L348.7 3.49997ZM395.2 58.4C395.7 57 395.7 55.5 395.4 54.1C395.2 52.7 394.4 51.9 393.2 51.9C392.7 51.9 392 52.1 391 52.6C390 53.1 389.6 53.6 389.6 54C389.7 55.3 391.6 56.7 395.2 58.4L395.2 58.4L395.2 58.4L395.2 58.4L395.2 58.4ZM392.3 64.7C387.7 62.3 385.6 59.9 385.6 57.3C385.6 54.2 387 51.3 389.9 48.9C392.8 46.3 395.2 45.3 397.1 46C398.8 46.5 399.5 48.2 399.5 51C399.5 53.6 399 56.5 397.8 59.9C400.2 61.1 401.6 62.3 402.1 63.3C402.1 64.5 401.1 66.7 399 69.5C398.5 68.5 397.1 67.3 394.9 66.1C392.3 69.7 389.1 72.8 385.3 75.7C380.7 78.8 376.7 81.5 373.1 82.9C372.1 83.4 367.8 85.1 360.1 87.9C358.9 88.4 357.9 88.6 357.7 88.6C357.5 88.6 357.5 88.4 357.5 88.4C357.5 88.2 358 87.4 359.4 86.7C365.2 83.1 370.9 79.7 376.9 76.4C383.9 72.1 389 68.3 392.3 64.7L392.3 64.7L392.3 64.7L392.3 64.7L392.3 64.7ZM299.2 95.6C317.7 88.8999 336.9 81.7 357 74.2C357.7 74 358.2 73.7 358.4 74C358.4 74 358.4 74.5 358.2 75.2C357.2 77.4 356.5 78.6 356 79C339.2 85.2 319.3 92.8999 296.7 102.3C297.3 100.2 298 98 299.2 95.6L299.2 95.6L299.2 95.6L299.2 95.6L299.2 95.6ZM222.2 200.3C235.9 195.5 250.3 190.2 265.4 184.7C266.4 184.5 266.6 184.2 266.8 184.5C267 184.5 267 185 266.6 185.7C265.9 187.9 265.2 189.1 264.7 189.5C251.7 194.1 236.9 199.8 219.8 207C220.3 204.8 221 202.7 222.2 200.3L222.2 200.3L222.2 200.3L222.2 200.3L222.2 200.3ZM262.3 50.7C262.3 52.6 261.8 54.8 260.9 56.7C259.7 59.3 258.3 60.8 256.6 60.8C253.7 60.8 251.8 58.9 250.6 55C249.2 59.8 246.8 62.4 243.2 62.4C242 62.4 240.8 61.7 239.8 60.2C238.6 58.8 238.1 56.6 238.1 54.2L238.1 48C238.1 47.5 237.6 47.3 237.1 47C236.4 46.8 236.1 46.3 236.1 45.6C236.1 44.2 236.6 43 237.5 41.8C238.5 40.6 239.2 40.1 239.7 40.1C240.4 40.1 240.9 41.3 240.9 43.9C240.9 45.3 240.7 46.5 240.7 47.5C240.5 48.5 240.5 49.2 240.5 49.9C240.5 51.3 240.7 52.8 241.2 54C241.9 55.4 242.9 56.4 243.8 56.4C245.2 56.4 246.4 55.7 247.6 54.5C248.8 53.3 249.5 51.9 249.5 50.2C249.5 49.2 249 47.8 248.5 45.4C247.8 43.2 247.5 41.8 247.5 41.3C247.5 40.8 247.7 40.1 248.2 38.9C248.7 37.9 249.2 37.5 249.4 37.5C249.9 37.5 250.4 38.9 251.1 41.8C251.8 44.9 252.3 47.1 252.3 48.5C252.3 52.6 253.7 54.7 256.9 54.7C258.3 54.7 259.3 54 259.5 52.5C256.9 47.7 255.4 44.1 255.4 41.5C255.4 40.1 255.6 38.9 256.6 37.7C257.1 37 257.3 36.5 257.6 36.5C257.8 36.5 258.1 37 258.1 37.9C258.3 39.1 258.6 40.3 258.8 41.3C258.8 41.3 259.5 43 260.7 46.3C261.8 48.3 262.3 49.8 262.3 50.7L262.3 50.7L262.3 50.7L262.3 50.7L262.3 50.7ZM176.8 199.8C190.5 195 204.9 189.7 220 184.2C221 184 221.2 183.7 221.4 184C221.6 184 221.6 184.5 221.2 185.2C220.5 187.4 219.8 188.6 219.3 189C206.3 193.6 191.5 199.3 174.4 206.5C174.9 204.3 175.6 202.2 176.8 199.8L176.8 199.8L176.8 199.8L176.8 199.8L176.8 199.8ZM26.8 97.1C45.3 90.3999 64.5 83.2 84.6 75.7C85.3 75.5 85.8 75.2 86 75.5C86 75.5 86 76 85.8 76.7C84.8 78.9 84.1 80.1 83.6 80.5C66.8 86.7 46.9 94.3999 24.3 103.8C24.9 101.6 25.6 99.5 26.8 97.1L26.8 97.1L26.8 97.1L26.8 97.1L26.8 97.1ZM10.7 130.7C10.7 130.5 10.9 130.2 10.9 130.2C11.1 130 11.1 130 11.1 130.2C11.3 130.4 11.3 130.7 11.1 130.9C9.89999 138.1 7.69999 141.7 4.59999 141.7C1.49999 141.7 -7.62939e-06 139.1 -7.62939e-06 133.8C-7.62939e-06 127.3 1.69999 120.4 5.49999 113.4C6.49999 111.7 6.89999 110.8 7.19999 110.8L7.19999 110.8C7.19999 111 6.99999 112 6.49999 113.7C4.09999 121.1 2.89999 126.2 2.89999 129.3C2.89999 133.1 3.89999 135.3 5.99999 135.3C7.6 135.2 9.1 133.5 10.7 130.7L10.7 130.7L10.7 130.7L10.7 130.7L10.7 130.7ZM89.7 26.5C92.6 26.5 95 27.9 97.1 31.3C99.3 34.4 100.9 38.7 101.7 44C101.9 44.5 101.9 44.7 101.9 45L102.1 45C102.1 44.8 102.3 44.5 102.3 44C102.8 40.9 104 36.1 105.7 29.8C107.6 25.5 109.5 23.3 111.7 23.3C112.9 23.3 114.1 24 115.1 25.5C116.1 26.9 116.5 27.9 116.5 28.9C116.5 29.4 116.5 30.3 116 31.3C115.5 32.7 115 33.5 114.6 33.5C114.4 33.5 113.9 32.8 112.9 31.8C112.2 30.8 111.2 30.4 110.3 30.4C108.4 30.4 106.7 35 105 44.1C104.3 48.2 103.3 51.1 102.6 52.7C101.9 53.7 101.4 54.4 100.9 54.4C100.4 54.4 100.4 53.7 100.2 52.7C100.4 51 99.5 47.9 97.6 43.3C95.7 38.5 94.5 36.3 93.5 36.3C93 36.3 92.8 36.3 92.5 36.8C92.3 37 92 37.3 91.3 37.3C90.3 37.3 89.4 36.6 87.9 35.4C86.5 34.2 86 33.2 86 32.5C86 32.3 86.5 31.1 87.7 29.1C88.7 27.2 89.5 26.5 89.7 26.5L89.7 26.5L89.7 26.5L89.7 26.5L89.7 26.5ZM45.8 145.1C48.7 145.1 51.1 146.5 53.2 149.9C55.4 153 57 157.3 57.8 162.6C58 163.1 58 163.3 58 163.6L58.2 163.6C58.2 163.4 58.4 163.1 58.4 162.6C58.9 159.5 60.1 154.7 61.8 148.4C63.7 144.1 65.6 141.9 67.8 141.9C69 141.9 70.2 142.6 71.2 144.1C72.2 145.5 72.6 146.5 72.6 147.5C72.6 148 72.6 148.9 72.1 149.9C71.6 151.3 71.1 152.1 70.7 152.1C70.5 152.1 70 151.4 69 150.4C68.3 149.4 67.3 149 66.4 149C64.5 149 62.8 153.6 61.1 162.7C60.4 166.8 59.4 169.7 58.7 171.3C58 172.3 57.5 173 57 173C56.5 173 56.5 172.3 56.3 171.3C56.5 169.6 55.6 166.5 53.7 161.9C51.8 157.1 50.6 154.9 49.6 154.9C49.1 154.9 48.9 154.9 48.6 155.4C48.4 155.6 48.1 155.9 47.4 155.9C46.4 155.9 45.5 155.2 44 154C42.6 152.8 42.1 151.8 42.1 151.1C42.1 150.9 42.6 149.7 43.8 147.7C44.8 145.8 45.5 145.1 45.8 145.1L45.8 145.1L45.8 145.1L45.8 145.1L45.8 145.1ZM253.6 8.49997C253.6 11.1 252.4 14 250.5 17.1C248.3 20.2 245.7 23.1 242.3 25.5C240.9 26.5 240.1 26.9 239.9 26.9L239.9 26.7C239.9 26.5 240.4 26 241.3 24.8C246.8 18.8 249.7 15 249.7 12.8C249.7 11.1 248.7 10.2 247.1 10.2C246.1 10.2 245.2 10.4 244.5 10.9C243.8 11.1 243.5 11.4 243.3 11.4C243.3 11.4 243.1 11.4 243.1 11.2C243.1 11.2 243.1 10.7 243.3 9.79997C244.3 5.69997 246.2 3.79997 249.5 3.79997C252.2 3.69997 253.6 5.39998 253.6 8.49997L253.6 8.49997L253.6 8.49997L253.6 8.49997L253.6 8.49997ZM218.8 75.7C218.8 75.5 219 75.2 219 75.2C219.2 75 219.2 75 219.2 75.2C219.4 75.4 219.4 75.7 219.2 75.9C218 83.1 215.8 86.7 212.7 86.7C209.6 86.7 208.1 84.1 208.1 78.8C208.1 72.3 209.8 65.4 213.6 58.4C214.6 56.7 215 55.8 215.3 55.8L215.3 55.8C215.3 56 215.1 57 214.6 58.7C212.2 66.1 211 71.2 211 74.3C211 78.1 212 80.3 214.1 80.3C215.7 80.3 217.1 78.6 218.8 75.7L218.8 75.7L218.8 75.7L218.8 75.7L218.8 75.7ZM339.8 56C339.8 57 339.3 58.2 338.4 60.1C337.4 62.3 336.5 63.7 335.5 64.2C328.3 69.2 320.6 71.9 312 71.9C310.6 71.9 308.4 71.2 305.5 70.2C302.9 69.2 301.2 68.3 300.2 67.6C300 67.4 299.7 67.1 299.2 66.6C298.7 66.1 298.7 66.1 299 65.9C299 65.9 299.7 65.9 300.9 66.1C305.2 66.6 310 66.3 314.8 65.4C316.5 64.4 318.2 62.8 319.8 60.6C322.2 53.2 323.6 49.1 323.6 48.8C323.6 47.4 323.1 46.2 322.4 45C321.9 44 321.2 43.6 320.5 43.6C318.8 43.6 317.6 44.1 316.2 45.5C315.5 46.2 315.2 46.5 315 46.5C315 46.5 315 46 315 44.8C315 42.6 315.7 41 317.2 39.3C318.9 37.9 320.3 37.1 321.8 37.1C325.2 37.1 327.1 39.5 327.1 44.5C327.1 47.9 325.4 52.7 322.3 58.4C327.1 54.1 331.2 51.9 334.1 51.9C335.1 51.9 336 52.1 337.5 52.9C339.1 53.9 339.8 55.1 339.8 56L339.8 56L339.8 56L339.8 56L339.8 56ZM334.3 59.4C334.3 58.9 334.1 58.7 333.3 58.2C332.6 57.7 331.9 57.7 331.1 57.7C329.9 57.7 328.2 58.4 325.6 60.1C323 62 321 63.5 320.1 64.8999C322.5 64.6999 325.6 63.6999 329.2 62C332.6 60.6 334.3 59.6 334.3 59.4L334.3 59.4L334.3 59.4L334.3 59.4L334.3 59.4ZM319.6 9.49997C319.6 12.1 318.4 15 316.5 18.1C314.3 21.2 311.7 24.1 308.3 26.5C306.9 27.5 306.1 27.9 305.9 27.9L305.9 27.7C305.9 27.5 306.4 27 307.3 25.8C312.8 19.8 315.7 16 315.7 13.8C315.7 12.1 314.7 11.2 313.1 11.2C312.1 11.2 311.2 11.4 310.5 11.9C309.8 12.1 309.5 12.4 309.3 12.4C309.3 12.4 309.1 12.4 309.1 12.2C309.1 12.2 309.1 11.7 309.3 10.8C310.3 6.69997 312.2 4.79997 315.5 4.79997C318.2 4.69997 319.6 6.29997 319.6 9.49997L319.6 9.49997L319.6 9.49997L319.6 9.49997L319.6 9.49997ZM384.4 177.7C384.4 177 383.9 176 383 175.1C382.3 174.1 381.3 173.7 380.6 173.7C379.4 173.7 378.4 174.2 377.7 175.4C378.9 176.6 380.8 177.8 383.5 179C384 179.2 384.2 179.2 384.5 179C384.7 178.9 384.7 178.4 384.4 177.7L384.4 177.7L384.4 177.7L384.4 177.7L384.4 177.7ZM373.9 173.4C374.4 172.7 374.9 172.7 375.3 173.2C377.2 169.6 379.1 167.7 381.3 167.7C382.7 167.7 384.2 168.4 385.4 170.3C386.8 172 387.3 174.1 387.3 176.3C387.3 177.3 387.3 178 387.1 178.9C386.4 182.7 385.2 184.7 383.5 184.7C382.1 184.7 380.1 183.7 378 182.3C375.8 181.1 374.4 179.7 373.4 178.5C372 182.6 370.3 185.9 368.1 188.3C364.3 192.6 359.5 196.2 353 199.6C348.2 202.5 345.1 203.7 343.6 203.7C343.6 203.7 340.7 204.4 335.2 205.6C329.4 207 325.8 208 324.4 208.2C322.2 208.4 321.3 208.4 321.3 208.4C321.3 208.2 322.3 207.7 324.4 206.7C330.4 204.3 339.5 200.2 352 194.2C360.9 189.4 366.6 185.1 369 181.5C370.3 179.4 371.7 176.5 373.9 173.4L373.9 173.4L373.9 173.4L373.9 173.4L373.9 173.4ZM289.6 179.4C292.5 179.4 294.9 180.8 297 184.2C299.2 187.3 300.8 191.6 301.6 196.9C301.8 197.4 301.8 197.6 301.8 197.9L302 197.9C302 197.7 302.2 197.4 302.2 196.9C302.7 193.8 303.9 189 305.6 182.7C307.5 178.4 309.4 176.2 311.6 176.2C312.8 176.2 314 176.9 315 178.4C316 179.8 316.4 180.8 316.4 181.8C316.4 182.3 316.4 183.2 315.9 184.2C315.4 185.6 314.9 186.4 314.5 186.4C314.3 186.4 313.8 185.7 312.8 184.7C312.1 183.7 311.1 183.3 310.2 183.3C308.3 183.3 306.6 187.9 304.9 197C304.2 201.1 303.2 204 302.5 205.6C301.8 206.6 301.3 207.3 300.8 207.3C300.3 207.3 300.3 206.6 300.1 205.6C300.3 203.9 299.4 200.8 297.5 196.2C295.6 191.4 294.4 189.2 293.4 189.2C292.9 189.2 292.7 189.2 292.4 189.7C292.2 189.9 291.9 190.2 291.2 190.2C290.2 190.2 289.3 189.5 287.8 188.3C286.4 187.1 285.9 186.1 285.9 185.4C285.9 185.2 286.4 184 287.6 182C288.7 180.1 289.4 179.4 289.6 179.4L289.6 179.4L289.6 179.4L289.6 179.4L289.6 179.4ZM216.9 11.1C216.9 11.6 216.7 12.5 216.2 13.5C216 14.9 215.5 15.7 214.8 15.7C214.6 15.7 214.1 15 213.1 14C212.4 13 211.4 12.6 210.7 12.6C208.8 12.6 206.9 17.2 205.2 26.3C204.5 30.4 203.8 33.3 202.8 34.9C202.1 35.9 201.6 36.6 201.1 36.6C200.9 36.6 200.6 35.9 200.6 34.9C200.6 33.2 199.6 30.1 197.7 25.5C195.8 20.7 194.6 18.5 193.9 18.5C193.2 18.5 192.9 18.5 192.7 19C192.7 19.2 192.2 19.5 191.5 19.5C190.5 19.5 189.6 18.8 188.1 17.6C186.9 16.4 186.2 15.4 186.2 14.7C186.2 14.5 186.7 13.3 187.9 11.3C189.1 9.40001 189.8 8.7 190.1 8.7C192.7 8.7 195.1 10.1 197.3 13.5C199.7 16.9 201.1 20.9 202.1 26.2C202.1 26.7 202.1 26.9 202.1 27.2C202.3 27.4 202.3 27.4 202.3 27.2C202.3 27 202.5 26.7 202.8 26.2C203 23.1 204.2 18.3 205.9 12C207.8 7.7 209.7 5.5 211.9 5.5C213.1 5.5 214.3 6.2 215.5 7.7C216.4 9.19997 216.9 10.2 216.9 11.1L216.9 11.1L216.9 11.1L216.9 11.1L216.9 11.1ZM201.1 38.7C199.4 42.5 196.1 46.4 191 50C186.4 53.4 182.4 55.8 178.8 57.4C178.1 57.9 173.8 59.6 165.8 62.4C164.6 62.9 163.9 63.1 163.4 63.1C163.2 63.1 163.2 62.9 163.2 62.9C163.2 62.7 163.9 61.9 165.1 61.2C171.6 57.4 180.7 51.8 192.7 43.9C195.6 41.7 197.7 39.6 199.4 37.7C201.3 35.5 202.3 34.3 202.5 34.3C202.5 34.3 202.5 34.3 202.5 34.5C202.5 34.9 202 36.3 201.1 38.7L201.1 38.7L201.1 38.7L201.1 38.7L201.1 38.7ZM163.4 26C163.4 25.8 163.6 25.5 163.6 25.5C163.8 25.3 163.8 25.3 163.8 25.5C164 25.7 164 26 163.8 26.2C162.6 33.4 160.4 37 157.3 37C154.2 37 152.7 34.4 152.7 29.1C152.7 22.6 154.4 15.7 158.2 8.69998C159.2 6.99998 159.6 6.09998 159.9 6.09998L159.9 6.09998C159.9 6.29997 159.7 7.29997 159.2 8.99997C156.8 16.4 155.6 21.5 155.6 24.6C155.6 28.4 156.6 30.6 158.7 30.6C160.3 30.6 161.7 28.9 163.4 26L163.4 26L163.4 26L163.4 26L163.4 26ZM50.6 65.9C50.6 65.7 50.8 65.4 50.8 65.4C51 65.2 51 65.2 51 65.4C51.2 65.6 51.2 65.9 51 66.1C49.8 73.3 47.6 76.9 44.5 76.9C41.4 76.9 39.9 74.3 39.9 69C39.9 62.5 41.6 55.6 45.4 48.6C46.4 46.9 46.8 46 47.1 46L47.1 46C47.1 46.2 46.9 47.2 46.4 48.9C44 56.3 42.8 61.4 42.8 64.5C42.8 68.3 43.8 70.5 45.9 70.5C47.5 70.4 48.9 68.7 50.6 65.9L50.6 65.9L50.6 65.9L50.6 65.9L50.6 65.9ZM146.1 71.4C146.1 71.2 146.3 70.9 146.3 70.9C146.5 70.7 146.5 70.7 146.5 70.9C146.7 71.1 146.7 71.4 146.5 71.6C145.3 78.8 143.1 82.4 140 82.4C136.9 82.4 135.4 79.8 135.4 74.5C135.4 68 137.1 61.1 140.9 54.1C141.9 52.4 142.3 51.5 142.6 51.5L142.6 51.5C142.6 51.7 142.4 52.7 141.9 54.4C139.5 61.8 138.3 66.9 138.3 70C138.3 73.8 139.3 76 141.4 76C143 75.9 144.4 74.3 146.1 71.4L146.1 71.4L146.1 71.4L146.1 71.4L146.1 71.4ZM113.5 81.9C113.5 84.5 112.3 87.4 110.4 90.5C108.2 93.6 105.6 96.5 102.2 98.9C100.8 99.9 100 100.3 99.8 100.3L99.8 100.1C99.8 99.8999 100.3 99.3999 101.2 98.2C106.7 92.2 109.6 88.4 109.6 86.2C109.6 84.5 108.6 83.6 107 83.6C106 83.6 105.1 83.8 104.4 84.3C103.7 84.5 103.4 84.8 103.2 84.8C103.2 84.8 103 84.8 103 84.6C103 84.6 103 84.1 103.2 83.2C104.2 79.1 106.1 77.2 109.4 77.2C112 77.1 113.5 78.8 113.5 81.9L113.5 81.9L113.5 81.9L113.5 81.9L113.5 81.9ZM597.3 120.1C598.5 119.1 599.5 118.7 600.2 118.7C600.7 118.7 600.9 119.2 600.9 120.1C600.9 120.8 600.7 122.3 600.2 124.2C599.7 126.1 599.5 127.6 599.5 128.8C599.5 134.1 603.3 137 610.8 137C616.8 137 621.8 134.4 625.7 129.3C628.1 125.2 630.7 121.4 633.1 117.5C634.1 116.5 634.8 116.1 635.5 116.1C636.5 116.1 636.7 117.1 636.2 119.2C635.2 123.3 634.5 125.2 634.5 124.7C634.5 126.4 635.5 128.1 637.4 129.5C639.1 130.9 641.5 131.9 644.1 131.9C647.5 131.9 649.6 130.9 650.6 129.3C650.6 129.1 649.6 127.1 647.5 123.5C647.7 121.6 648.7 118.2 650.1 113.7C650.3 112.3 650.8 111.5 651.3 111.5C651.8 111.5 652.3 111.7 653 112.7C654.9 115.6 656.1 118.9 656.1 122.8C656.1 128.8 654.7 133.8 652 138.2C649.1 143.5 644.8 146.1 639 146.1C635.2 146.1 631.6 143 628.4 137.2C623.1 146.8 616.2 151.6 607.8 151.6C597.7 151.6 592.9 145.8 592.9 134.8C589.1 139.4 582.6 143.4 574.2 147.3L574.2 134.1C580.4 131 584.5 129.1 585.7 128.3C589.6 126.3 593.5 123.5 597.3 120.1L597.3 120.1L597.3 120.1L597.3 120.1L597.3 120.1ZM560.6 135.9C557 131.3 553.9 129.2 551 129.2C546.7 129.2 544.8 130.2 544.8 132.6C544.8 135.5 547.7 136.9 553.4 136.9C555.5 136.9 557.9 136.4 560.6 135.9L560.6 135.9L560.6 135.9L560.6 135.9L560.6 135.9ZM568 153.5C568 152.1 567.5 150.4 567 148.7C564.1 149.7 559.8 150.4 554.5 150.4C543 150.4 537.2 146.3 537.2 138.4C537.2 132.4 538.9 127.1 542.7 122.3C546.3 118.2 550.1 116.1 554.2 116.1C557.3 116.1 560.4 118 564 121.6C567.1 125.2 570 129.3 572.4 134.3C572.6 134.3 573.1 134.3 574.1 133.8L574.1 147L573.6 147.5C573.6 150.4 572.9 153.7 571.4 158.1C569.7 163.6 567.1 168.2 564 171.8C556.8 180.4 548.9 187.9 540.2 194.4C527.2 204 516.2 209 506.6 209C498.4 209 492.2 205.9 487.9 199.9C484.1 194.9 482.1 188.1 482.1 180.2C482.1 170.1 484.3 159.8 488.3 149C489.5 146.6 490 145.6 490.5 145.6C490.7 145.6 490.7 145.8 490.7 146.3C490.7 147 490.5 148.2 490.2 149.7C487.1 160.3 485.6 168.2 485.6 173.7C485.6 178.7 486.8 183.1 489.2 186.7C493 191.7 499 194.4 507.4 194.4C514.6 194.4 523.2 191.3 533.6 185C541.8 180 549.7 174 557.4 166.8C564.4 159.9 568 155.6 568 153.5L568 153.5L568 153.5L568 153.5L568 153.5ZM502.5 117.2C502 115 501.3 113.4 500.3 112.2C499.6 110.8 499.1 110 498.9 109.6C498.9 109.1 498.9 107.4 499.4 104.1C499.9 101 500.1 98.8 500.6 97.6C500.8 96.3999 501.1 95.8999 501.6 95.8999C501.8 95.8999 502.1 96.1 502.6 96.6C506 100.4 509.6 104.3 513.6 108.4C515.3 110.1 516 111 516 111.5C516 111.7 515.8 112 515.3 112C514.6 112 512.7 111.5 509.8 110.8C511.5 114.9 513.4 119 515.1 122.8C517.7 129.5 519.2 135 519.2 140.1C519.2 142.5 518.7 145.4 517.8 149C516.6 153.1 515.2 156.2 513.2 158.4C506.2 166.3 494.5 175 477.9 184.3C463.5 192.7 455.1 196.8 452.5 196.8C452 196.8 444.8 198.5 431.1 201.8C416.7 205.2 407.6 207.3 404 207.8C400.2 208.5 397.8 208.8 396.8 208.8C396.3 208.8 396.3 208.8 396.3 208.6C396.3 208.4 398.9 206.9 404.2 204.5C406.1 203.5 417.2 198.7 437.6 190.1C451.8 184.1 463.5 178.6 472.9 173.5C487.1 165.8 497.9 159.1 505.3 153.6C510.8 149.3 513.7 146.2 513.7 144.2C513.7 143.7 512.3 140.4 509.4 134.1C506.1 127.1 503.7 121.3 502.5 117.2L502.5 117.2L502.5 117.2L502.5 117.2L502.5 117.2ZM482.8 83.9C482.8 87.7 480.9 93 477 99.5C474.6 103.6 471 109.1 466.2 116.3C471 121.8 474.4 126.9 476 131.2C477 134.3 477.7 138.4 477.7 143C477.7 144.9 477.2 147.3 476.3 150.4C475.6 153.3 474.6 155.4 473.7 156.9C471.8 159.8 468.7 162.7 463.9 165.5C458.9 168.9 454.5 170.5 450.9 170.5C445.1 170.5 442.3 166.2 442.3 157.5C442.3 151.7 443.3 146 445.2 140.7C447.1 136.1 450.2 130.1 455.3 122.2C451 118.1 446.4 112.4 441.4 105.2C440.9 104.5 439.7 103.3 437.8 101.4C436.8 100.4 436.4 99.2 436.4 97.8C436.4 95.6 436.6 93.2 437.1 90.4C437.8 87.5 438.3 86.3 438.5 86.3C439.2 86.3 441.4 87.5 445.5 90.1C449.3 92.7 452.5 94.7 454.4 96.3C455.6 97 456.1 97.7 456.1 97.7L456.1 97.9C456.1 98.1 455.4 98.4 453.7 98.4C450.6 98.4 448.9 98.6 448.9 98.9C448.9 99.1 449.4 99.6 450.3 100.8C454.1 105.6 458 109.2 462.1 112.1C463.1 110.7 466.4 105.9 471.7 97.7C476.3 90.7 478.9 85.9 480.1 83.1C481.3 80.2 482 79 482.5 79C482.6 79.1 482.8 80.5 482.8 83.9L482.8 83.9L482.8 83.9L482.8 83.9L482.8 83.9ZM473.5 142.9C470.9 137.6 466.3 132.1 460.1 126.8C457.9 129 455.3 133 451.9 138.8C448.1 145.3 446.4 149.4 446.4 151.5C446.4 154.4 448.3 155.8 452.6 155.8C454.5 155.8 456.9 155.1 460 153.9C464.3 152 468.4 149.3 471.8 146C473.2 144.6 473.7 143.6 473.5 142.9L473.5 142.9L473.5 142.9L473.5 142.9L473.5 142.9ZM460 65.9L463.8 58C464 57.5 464.3 57.3 464.8 57.3C465.3 57.3 467.2 58.5 471 61.1C474.6 63.5 476.5 64.8999 476.5 65.3999C476.5 67.1 474.8 70.6999 471.7 76C471.2 76.7 470.7 76.7 470.3 76.5C467.2 74.1 463.6 71.7 459.5 69.1C458.1 72 456.9 74.6 455.4 76.8C455.2 77.5 454.7 77.8 454.2 77.5C450.6 74.6 446.8 72 442.9 69.6C442.7 69.4 442.7 69.1 442.9 68.6L447.5 59C447.7 58.5 448.2 58 448.5 58C449 58 450.7 59.2 453.8 61.4C456.9 63.2 459.1 64.9 460 65.9L460 65.9L460 65.9L460 65.9L460 65.9ZM586.5 199.8C583.9 200.5 582.4 201 581.9 201L581.9 200.8C581.9 200.8 582.9 200.1 584.8 198.9C586.7 197.7 589.6 195.8 593.7 192.7C595.6 190.8 598.5 187.7 602.1 183.3C604.5 180.4 607.1 177.8 610 175.9C613.6 173.3 617 172.1 620.6 172.1C621.3 172.1 622.5 172.3 624 172.8C625.2 173.3 626.4 173.5 627.4 173.5C629.3 173.5 630.8 172.8 632 171.3C632.7 169.9 633.7 168.7 634.6 167.2C635.1 166.2 635.8 165.8 636.3 165.8C636.5 165.8 636.5 166 636.5 166.5C636.5 167 636.3 168.2 635.8 169.6C635.3 170.3 637.2 170.6 640.8 170.6C641.3 170.6 641.5 170.6 641.5 170.4C641.5 170.4 641.3 169.4 640.8 167.8C640.6 167.3 640.8 166.6 641.5 165.6C642.5 163.9 642.9 163.2 643.2 163.4C644.2 164.1 644.6 165.6 644.6 167.2C644.6 168.9 644.1 170.6 643.4 172.5C642.7 174.7 642 175.9 641.5 176.3C639.8 177.3 637.2 177 633.6 175.3C630.7 178.2 627.8 179.9 625 179.9C624.3 179.9 623.1 179.7 621.9 179.2C620.7 178.7 619.7 178.5 619 178.5C614.2 178.5 609.2 180.7 604.1 185.5C600.5 189.1 596.9 192.7 593.3 196.3C591.1 197.9 588.9 199.1 586.5 199.8L586.5 199.8L586.5 199.8L586.5 199.8L586.5 199.8ZM534.9 69.9C537.8 69.9 540.2 71.3 542.3 74.7C544.5 77.8 546.1 82.1 546.9 87.4C547.1 87.9 547.1 88.1 547.1 88.4L547.3 88.4C547.3 88.2 547.5 87.9 547.5 87.4C548 84.3 549.2 79.5 550.9 73.2C552.8 68.9 554.7 66.7 556.9 66.7C558.1 66.7 559.3 67.4 560.3 68.9C561.3 70.3 561.7 71.3 561.7 72.3C561.7 72.8 561.7 73.7 561.2 74.7C560.7 76.1 560.2 76.9 559.8 76.9C559.6 76.9 559.1 76.2 558.1 75.2C557.4 74.2 556.4 73.8 555.5 73.8C553.6 73.8 551.9 78.4 550.2 87.5C549.5 91.6 548.5 94.5 547.8 96.1C547.1 97.1 546.6 97.8 546.1 97.8C545.6 97.8 545.6 97.1 545.4 96.1C545.6 94.4 544.7 91.3 542.8 86.7C540.9 81.9 539.7 79.7 538.7 79.7C538.2 79.7 538 79.7 537.7 80.2C537.5 80.4 537.2 80.7 536.5 80.7C535.5 80.7 534.6 80 533.1 78.8C531.7 77.6 531.2 76.6 531.2 75.9C531.2 75.7 531.7 74.5 532.9 72.5C533.9 70.7 534.7 69.9 534.9 69.9L534.9 69.9L534.9 69.9L534.9 69.9L534.9 69.9ZM494.3 67.1C518.5 58 543.7 48.9 569.7 39.3C570.4 39.1 570.9 38.8 570.9 39.1C571.1 39.1 571.1 39.6 570.9 40.3C569.9 42.5 569.2 43.7 568.7 44.1C568.5 44.3 556.2 48.9 532.5 57.8C508.3 66.7 494.6 72.2 491.9 73.9C492.4 71.6 493.1 69.5 494.3 67.1L494.3 67.1L494.3 67.1L494.3 67.1L494.3 67.1ZM470.8 23.1C471.3 21.7 471.3 20.2 471 18.8C470.8 17.4 470 16.6 468.8 16.6C468.3 16.6 467.6 16.8 466.6 17.3C465.6 17.8 465.2 18.3 465.2 18.7C465.3 20 467.2 21.5 470.8 23.1L470.8 23.1L470.8 23.1L470.8 23.1L470.8 23.1ZM467.9 29.4C463.3 27 461.2 24.6 461.2 22C461.2 18.9 462.6 16 465.5 13.6C468.4 11 470.8 9.99998 472.7 10.7C474.4 11.2 475.1 12.9 475.1 15.7C475.1 18.3 474.6 21.2 473.4 24.6C475.8 25.8 477.2 27 477.7 28C477.7 29.2 476.7 31.4 474.6 34.2C474.1 33.2 472.7 32 470.5 30.8C467.9 34.4 464.7 37.5 460.9 40.4C456.3 43.5 452.3 46.2 448.7 47.6C447.7 48.1 443.4 49.8 435.7 52.6C434.5 53.1 433.5 53.3 433.3 53.3C433.1 53.3 433.1 53.1 433.1 53.1C433.1 52.9 433.6 52.1 435 51.4C440.8 47.8 446.5 44.4 452.5 41.1C459.5 36.8 464.6 33 467.9 29.4L467.9 29.4L467.9 29.4L467.9 29.4L467.9 29.4ZM619.6 59.4C620.1 58 620.1 56.5 619.8 55.1C619.6 53.7 618.8 52.9 617.6 52.9C617.1 52.9 616.4 53.1 615.4 53.6C614.4 54.1 614 54.6 614 55C614.1 56.3 616 57.7 619.6 59.4L619.6 59.4L619.6 59.4L619.6 59.4L619.6 59.4ZM624.9 68.3C622.5 74.1 621.3 78.6 621.3 82C621.3 86.1 622.3 88.2 624.4 88.2C625.6 88.2 627 86.5 628.7 83.6C628.9 83.4 628.9 83.1 629.2 82.9C629.2 82.9 629.4 82.9 629.4 83.1C629.4 83.1 629.4 83.3 629.4 83.8C628 91 625.8 94.6 622.9 94.6C619.8 94.6 618.3 92 618.3 86.7C618.3 84.1 618.8 80.7 620.2 76.4C621.6 72.1 622.4 69.9 622.4 69.7C622.4 69.2 621.4 68.3 619.3 67.1C615.5 72.1 610.2 76.9 603.5 81C598.9 83.6 594.4 86 589.6 88C580.7 91.6 575.4 93.5 574.2 94.2C573 94.7 572.3 94.9 571.8 94.9C571.6 94.9 571.6 94.7 571.6 94.7C571.6 94.2 572.1 93.7 573.5 92.8C581.2 88.5 588.6 84.2 596.3 79.8C606.4 74 613.3 69.2 616.7 65.6C612.1 63.2 610 60.8 610 58.2C610 55.1 611.4 52.2 614.3 49.6C617.2 47.2 619.6 46.2 621.5 47C622.9 47.5 623.9 49.2 623.9 52C623.9 54.6 623.4 57.5 622.2 60.6C624.6 62 625.6 63.5 625.6 64.9C625.6 65.6 625.4 66.8 624.9 68.3L624.9 68.3L624.9 68.3L624.9 68.3L624.9 68.3ZM515.7 33.2C515.7 33 515.9 32.7 515.9 32.7C516.1 32.5 516.1 32.5 516.1 32.7C516.3 32.9 516.3 33.2 516.1 33.4C514.9 40.6 512.7 44.2 509.6 44.2C506.5 44.2 505 41.6 505 36.3C505 29.8 506.7 22.9 510.5 15.9C511.5 14.2 511.9 13.3 512.2 13.3L512.2 13.3C512.2 13.5 512 14.5 511.5 16.2C509.1 23.6 507.9 28.7 507.9 31.8C507.9 35.6 508.9 37.8 511 37.8C512.6 37.8 514 36.1 515.7 33.2L515.7 33.2L515.7 33.2L515.7 33.2L515.7 33.2Z" id="Group" fill="#595959" stroke="none" clip-path="url(#clip_1)" />
  </g>
</svg>