<?xml version="1.0" encoding="utf-8"?>
<svg width="498.60013px" height="204.20003px" viewBox="0 0 498.60013 204.20003" version="1.1" xmlns:xlink="http://www.w3.org/1999/xlink" xmlns="http://www.w3.org/2000/svg">
  <defs>
    <path d="M498.6 0L498.6 0L498.6 204.2L0 204.2L0 0L498.6 0Z" id="path_1" />
    <clipPath id="clip_1">
      <use xlink:href="#path_1" clip-rule="evenodd" fill-rule="evenodd" />
    </clipPath>
  </defs>
  <g id="Surah_104_of_114_(modified)">
    <path d="M498.6 0L498.6 0L498.6 204.2L0 204.2L0 0L498.6 0Z" id="Surah_104_of_114_(modified)" fill="none" stroke="none" />
    <path d="M203.1 0C202.4 0 201.4 0.5 200.7 1.7C197.4 8.2 195 15.2 193.8 22.9C193.6 23.8 193.6 24.8 193.6 25.5C193.6 29.3 195 31.5 198.4 31.5C201.8 31.5 204.4 29.8 206.8 26.9C207.5 25.9 208 23.3 208.5 19.2C208.7 15.6 206.3 11.8 201.3 8.2C202 5.8 202.9 3.39999 203.9 1.2C203.9 0.899994 204.1 0.699997 204.1 0.699997C204.1 0.199997 203.6 0 203.1 0ZM227.4 26C227.4 21.4 226.7 17.6 225.2 14.5C225.2 12.8 226.4 8.7 229.3 2.3C229.5 1.60001 229.8 1.3 230 1.3C230.5 1.3 230.7 1.5 231.2 2.5C231.9 4.2 233.8 8.7 236.7 16.2C239.6 24.1 241.3 28.9 242 30.6C242.2 32 242.5 33.2 242.5 33.7C242.5 35.9 240.3 34.7 236.3 29.9C235.8 29.2 235.6 29.7 235.6 30.9C235.6 31.1 236.1 37.6 237 50.6C238 63.3 238.7 72.2 238.7 77.2C238.7 85.1 237.3 92.8 234.4 100.2C230.3 110.5 224.3 117.5 216.6 120.8L216.6 120.582C214.99 121.239 213.653 121.708 212.5 121.9C215.6 123.1 218 125.3 219.9 128.4C221.8 131.5 223 134.6 223 137.8C223 150.8 218.2 157.5 208.8 157.5C203 157.5 197.3 154.6 192 148.9C186.2 142.7 182.6 134.7 181.7 125.4C181.5 124.4 181.2 124.2 180.3 124.2C179.3 124.2 178.6 124.2 178.4 124C178.4 124 178.2 123.8 178.2 123.5C178.2 123 178.4 122.8 178.4 122.1C178.6 121.6 178.9 121.1 178.9 120.9C178.9 120.7 178.7 120.4 178.2 120.4C175.6 120.6 172.9 121.6 170.3 122.8L170.3 122.4C168.6 123.1 167.9 123.6 167.7 123.8C167.2 124.3 167.2 124.8 167.7 125.5C169.1 129.1 170.1 132.7 170.1 136.5C170.1 139.4 169.6 142 168.7 143.9C168 146.1 167 147 165.8 147C161.5 147 157.2 145.3 153.1 141.7C147.8 136.9 144.9 130.4 144.2 122C144.2 121 144 120.3 143.7 120.3C143.5 120.3 143 121 142.3 122C139.9 124.9 137.5 127.8 135.3 130.6C131 134.4 126.2 136.6 120.7 136.6L120.7 122C127.4 122 133.2 120.3 137.5 117C138.7 116 141.1 113.6 144.5 109.3C146.2 107.6 147.1 106.7 147.9 106.7C148.6 106.7 149.6 107.2 150.8 108.1C153.4 110 156.8 111 161.1 111C164.2 111 167.3 110.5 170.5 109.1L170.5 109.527L181.6 105.5C184 97.1 187.1 86.7999 191 74.7999C191.5 72.8999 193.2 68.2999 196 60.8999C196.5 59.6999 197 59.1999 197.4 59.1999C198.1 59.1999 198.6 59.8999 198.6 61.7999C198.8 63.5 199.6 67.7999 200.5 74.7999C201.7 81 202.2 85.3999 202.2 87C202.2 98.4 200.5 106.8 196.9 112.1C207.2 110.2 213.9 108.5 216.8 107.3L216.8 107.514C226.269 103.413 231.2 97.2415 231.2 88.9C231.2 83.9 230.5 73.1 229.3 56.7C227.9 40.1 227.4 30 227.4 26ZM254.3 27.6C254.3 22.8 253.6 19 252.1 15.8C252.1 14.1 253.3 10 256.2 3.8C256.4 3.10001 256.7 2.60001 256.9 2.60001C257.4 2.60001 257.6 3.10001 258.1 3.8C258.8 5.5 260.5 10 263.4 17.5C266.5 25.4 268.2 30.2 268.7 32.1C269.2 33.3 269.2 34.5 269.2 35C269.2 37.2 267.3 36 263 31.2C262.5 30.5 262.3 31 262.3 32.2C262.3 32.7 263.5 47.6 265.7 77.3C267.9 106.8 268.8 123.4 268.8 127.2C268.8 138.5 267.1 148.6 263.8 157.2C262.8 158.9 262.4 160.1 261.9 161C261.2 162.2 260.9 162.2 260.7 161.5C260.529 160.646 260.65 159.135 260.814 157.093C260.842 156.744 260.871 156.38 260.9 156C261.4 151.9 261.6 147.4 261.6 142.3C261.6 137.5 260.4 118.3 258 84.5C255.5 50.7 254.3 31.7 254.3 27.6ZM178 3.39999C152 13 126.8 22.1 102.6 31.2C101.4 33.6 100.7 35.8 100.2 38C102.9 36.3 116.6 30.8 140.8 21.9C164.5 13 176.8 8.39999 177 8.2C177.5 7.79999 178.2 6.59999 179.2 4.39999C179.4 3.7 179.4 3.2 179.2 3.2C179.2 2.98663 178.947 3.07676 178.549 3.21856C178.388 3.27614 178.202 3.34224 178 3.39999ZM303.7 15.2C303.7 17.8 305.8 20.2 310.4 22.6C307.1 26.2 302 30 295 34.3C289 37.6 283.3 41 277.5 44.6C276.1 45.3 275.6 46.1 275.6 46.3C275.6 46.3 275.6 46.5 275.8 46.5C276 46.5 277 46.3 278.2 45.8C285.9 43 290.2 41.3 291.2 40.8C294.8 39.4 298.8 36.7 303.4 33.6C307.2 30.7 310.4 27.6 313 24C315.2 25.2 316.6 26.4 317.1 27.4C319.2 24.6 320.2 22.4 320.2 21.2C319.7 20.2 318.3 19 315.9 17.8C317.1 14.4 317.6 11.5 317.6 8.90002C317.6 6.10002 316.9 4.40002 315.2 3.90002C313.3 3.20001 310.9 4.20001 308 6.80002C305.1 9.20001 303.7 12.1 303.7 15.2ZM358.4 25.9C358.4 25.9 358.2 26.2 358.2 26.4C356.5 29.3 355.1 31 353.5 31C351.4 31 350.4 28.8 350.4 25C350.4 21.9 351.6 16.8 354 9.40001C354.5 7.70001 354.7 6.70001 354.7 6.50002C354.4 6.50002 354 7.40002 353 9.10002C349.2 16.1 347.5 23 347.5 29.5C347.5 34.8 349 37.4 352.1 37.4C355.2 37.4 357.4 33.8 358.6 26.6C358.8 26.4 358.8 26.1 358.6 25.9C358.6 25.8093 358.6 25.7598 358.581 25.7513C358.559 25.7411 358.509 25.7907 358.4 25.9ZM313.5 12.1C313.8 13.5 313.8 15 313.3 16.4C309.7 14.7 307.8 13.2 307.7 12C307.7 11.6 308.1 11.1 309.1 10.6C310.1 10.1 310.8 9.90001 311.3 9.90001C312.5 9.90001 313.3 10.7 313.5 12.1ZM198.6 14.7C203.6 17.5 206 19.7 206 20.9C205.5 21.9 204.3 22.8 202.7 23.6C201 24.5 199.6 25 198.4 25C196.9 25 196.2 24 196.2 22.6C196.2 20.2 196.9 17.6 198.6 14.7ZM68.9 36.5C68.9 36.5 68.7 36.8 68.7 37C67.1 39.9 65.6 41.6 64 41.6C61.9 41.6 60.9 39.4 60.9 35.6C60.9 32.5 62.1 27.4 64.5 20C65 18.3 65.2 17.3 65.2 17.1C64.9 17.1 64.5 18 63.5 19.7C59.7 26.7 58 33.6 58 40.1C58 45.4 59.5 48 62.6 48C65.7 48 67.9 44.4 69.1 37.2C69.3 37 69.3 36.7 69.1 36.5C69.1 36.4093 69.1 36.3598 69.0814 36.3513C69.0589 36.3411 69.0096 36.3904 68.9 36.5ZM171.7 49.7C167.1 47.3 165 44.9 165 42.3C165 39.2 166.4 36.3 169.3 33.9C172.2 31.3 174.6 30.3 176.5 31C178.2 31.5 178.9 33.2 178.9 36C178.9 38.6 178.4 41.5 177.2 44.9C179.6 46.1 181 47.3 181.5 48.3C181.5 49.5 180.5 51.7 178.4 54.5C177.9 53.5 176.5 52.3 174.3 51.1C171.7 54.7 168.5 57.8 164.7 60.7C160.1 63.8 156.1 66.5 152.5 67.9C151.5 68.4 147.2 70.1001 139.5 72.9C138.3 73.4 137.3 73.6001 137.1 73.6001C136.9 73.6001 136.9 73.4 136.9 73.4C136.9 73.2 137.4 72.4 138.8 71.7C144.6 68.1 150.3 64.7 156.3 61.4C163.3 57.2 168.3 53.3 171.7 49.7ZM336.8 60.3C361 51.2 386.2 42.1 412.2 32.5C412.402 32.4422 412.588 32.3761 412.749 32.3186C413.147 32.1768 413.4 32.0866 413.4 32.3C413.6 32.3 413.6 32.8 413.4 33.5C412.4 35.7 411.7 36.9 411.2 37.3C411 37.5 398.7 42.1 375 51C350.8 59.9 337.1 65.4 334.4 67.1C334.9 64.8 335.6 62.7 336.8 60.3ZM25 37L21.2 44.9C20.3 44 18.1 42.3 15 40.4C11.9 38.2 10.2 37 9.70001 37C9.40001 37 8.90001 37.5 8.70001 38L4.10001 47.6001C3.90001 48.1001 3.90001 48.4001 4.10001 48.6001C8.00002 51 11.8 53.6001 15.4 56.5C15.9 56.8 16.4 56.5 16.6 55.8C18.1 53.6 19.3 51 20.7 48.1C24.8 50.7 28.4 53.1 31.5 55.5C31.9 55.7 32.4 55.7 32.9 55C36 49.7 37.7 46.1 37.7 44.4C37.7 43.9 35.8 42.5 32.2 40.1C28.4 37.5 26.5 36.3 26 36.3C25.5 36.3 25.2 36.5 25 37ZM174.6 43.5C175.1 42.1 175.1 40.6 174.8 39.2C174.6 37.8 173.8 37 172.6 37C172.1 37 171.4 37.2 170.4 37.7C169.4 38.2 169 38.7 169 39.1C169.1 40.4 171 41.8 174.6 43.5ZM467.4 61.2C465 67 463.8 71.5 463.8 74.9C463.8 79 464.8 81.1 466.9 81.1C468.1 81.1 469.5 79.4 471.2 76.5C471.4 76.3 471.4 76 471.7 75.8C471.7 75.8 471.9 75.8 471.9 76L471.9 76.7C470.5 83.9 468.3 87.5 465.4 87.5C462.3 87.5 460.8 84.9 460.8 79.6C460.8 77 461.3 73.6 462.7 69.3C464.1 65 464.9 62.8 464.9 62.6C464.9 62.1 463.9 61.2 461.8 60C458 65 452.7 69.8 446 73.9C441.4 76.5 436.9 78.9 432.1 80.9C423.2 84.5 417.9 86.4 416.7 87.1C415.5 87.6 414.8 87.8 414.3 87.8C414.1 87.8 414.1 87.6 414.1 87.6C414.1 87.1 414.6 86.6 416 85.7C423.7 81.4 431.1 77.1 438.8 72.7C448.9 66.9 455.8 62.1 459.2 58.5C454.6 56.1 452.5 53.7 452.5 51.1C452.5 48 453.9 45.1 456.8 42.5C459.7 40.1 462.1 39.1 464 39.9C465.4 40.4 466.4 42.1 466.4 44.9C466.4 47.5 465.9 50.4 464.7 53.5C467.1 54.9 468.1 56.4 468.1 57.8C468.1 58.6 467.9 59.8 467.4 61.2ZM65.9 65.6C84.4 58.9 103.6 51.7 123.7 44.2C123.878 44.149 124.044 44.0916 124.194 44.0392C124.635 43.8861 124.951 43.7764 125.1 44C125.1 44 125.1 44.5 124.9 45.2C123.9 47.4 123.2 48.6 122.7 49C105.9 55.2 86 62.9 63.4 72.3C63.9 70.1 64.7 68 65.9 65.6ZM462.1 52.4C462.6 51 462.6 49.5 462.3 48.1C462.1 46.7 461.3 45.9 460.1 45.9C459.6 45.9 458.9 46.1 457.9 46.6C456.9 47.1 456.5 47.6 456.5 48C456.6 49.2 458.5 50.7 462.1 52.4ZM306.3 50.9L302.5 58.8C301.5 57.9 299.4 56.2 296.3 54.3C293.2 52.1001 291.5 50.9 291 50.9C290.7 50.9 290.2 51.4 290 51.9L285.4 61.5C285.2 62 285.2 62.3 285.4 62.5C289.3 64.9 293.1 67.5 296.7 70.4C297.2 70.7 297.7 70.4 297.9 69.7C299.4 67.5 300.6 64.9 302 62C306.1 64.6 309.7 67 312.8 69.4C313.2 69.6 313.7 69.6 314.2 68.9C317.3 63.6 319 60 319 58.3C319 57.8 317.1 56.4 313.5 54C309.7 51.4 307.8 50.2 307.3 50.2C306.8 50.2 306.5 50.4 306.3 50.9ZM384.8 68C382.7 64.6 380.3 63.2 377.4 63.2C377.1 63.2 376.4 63.9 375.4 65.8C374.2 67.8 373.7 69 373.7 69.2C373.7 69.9 374.2 70.9 375.6 72.1C377.1 73.3 378 74 379 74C379.7 74 380 73.7 380.2 73.5C380.5 73 380.7 73 381.2 73C382.2 73 383.4 75.2 385.3 80C387.2 84.6 388.1 87.7 387.9 89.4C388.1 90.4 388.1 91.1 388.6 91.1C389.1 91.1 389.6 90.4 390.3 89.4C391 87.8 392 84.9 392.7 80.8C394.4 71.7 396.1 67.1 398 67.1C398.9 67.1 399.9 67.5 400.6 68.5C401.6 69.5 402.1 70.2 402.3 70.2C402.7 70.2 403.2 69.4 403.7 68C404.2 67 404.2 66.1 404.2 65.6C404.2 64.6 403.8 63.6 402.8 62.2C401.8 60.7 400.6 60 399.4 60C397.2 60 395.3 62.2 393.4 66.5C391.7 72.8 390.5 77.6 390 80.7C390 81.2 389.8 81.5 389.8 81.7L389.6 81.7C389.6 81.4 389.6 81.2 389.4 80.7C388.6 75.4 387 71.1 384.8 68ZM46.4 68.7C46.4 72.5 44.5 77.8 40.6 84.3C38.2 88.4 34.6 93.9 29.8 101.1C34.6 106.6 38 111.7 39.6 116C40.6 119.1 41.3 123.2 41.3 127.8C41.3 129.7 40.8 132.1 39.9 135.2C39.2 138.1 38.2 140.2 37.3 141.7C35.4 144.6 32.3 147.5 27.5 150.3C22.5 153.7 18.1 155.3 14.5 155.3C8.7 155.3 5.89999 151 5.89999 142.3C5.89999 136.5 6.89999 130.8 8.79999 125.5C10.7 120.9 13.8 114.9 18.9 107C14.6 102.9 10 97.2 5 90C4.5 89.3 3.3 88.1 1.39999 86.2C0.399994 85.2 0 84 0 82.6C0 80.4 0.199997 78 0.699997 75.2C1.39999 72.3 1.89999 71.1 2.09999 71.1C2.79999 71.1 4.99999 72.3 9.09999 74.9C12.9 77.5 16.1 79.5 18 81.1C19.2 81.8 19.7 82.5 19.7 82.5L19.7 82.7C19.7 82.9 19 83.2 17.3 83.2C14.2 83.2 12.5 83.4 12.5 83.7C12.5 83.9 13 84.4 13.9 85.6C17.7 90.4 21.6 94 25.7 96.9C26.7 95.5 30 90.7 35.3 82.5C39.9 75.5 42.5 70.7 43.7 67.9C44.9 65 45.6 63.8 46.1 63.8C46.2 63.9 46.4 65.3 46.4 68.7ZM325.3 77.1C325.3 80.9 323.4 86.2 319.5 92.7C317.1 96.8 313.5 102.3 308.7 109.5C313.5 115 316.9 120.1 318.5 124.4C319.5 127.5 320.2 131.6 320.2 136.2C320.2 138.1 319.7 140.5 318.8 143.6C318.1 146.5 317.1 148.6 316.2 150.1C314.3 153 311.2 155.9 306.4 158.7C301.4 162.1 297 163.7 293.4 163.7C287.6 163.7 284.8 159.4 284.8 150.7C284.8 144.9 285.8 139.2 287.7 133.9C289.6 129.3 292.7 123.3 297.8 115.4C293.5 111.3 288.9 105.6 283.9 98.4C283.4 97.7 282.2 96.5 280.3 94.6C279.3 93.6 278.9 92.4 278.9 91C278.9 88.8 279.1 86.4 279.6 83.6C280.3 80.7 280.8 79.5 281 79.5C281.7 79.5 283.9 80.7 288 83.3C291.8 85.9 295 87.9 296.9 89.5C298.1 90.2 298.6 90.9 298.6 90.9L298.6 91.1C298.6 91.3 297.9 91.6 296.2 91.6C293.1 91.6 291.4 91.8 291.4 92.1C291.4 92.3 291.9 92.8 292.8 94C296.6 98.8 300.5 102.4 304.6 105.3C305.6 103.9 308.9 99.1 314.2 90.9C318.8 83.9 321.4 79.1 322.6 76.3C323.8 73.4 324.5 72.2 325 72.2C325.1 72.3 325.3 73.7 325.3 77.1ZM91.5 86.7C91.3 86.5 91.3 86.2 91.5 85.7L96.1 76.1C96.3 75.6 96.8 75.4 97.1 75.4C97.6 75.4 99.7 76.6 103.3 79C107.1 81.6 109.1 83.1 109.1 83.6C109.1 85.3 107.4 88.6 104.1 93.9L104.071 93.9403C103.592 94.6114 103.39 94.8941 102.9 94.6C99.2 91.7 95.4 89.1 91.5 86.7ZM194.2 76.9C196.9 83.8 198.3 88.9 198.3 92C198.3 96.8 194 101.1 185.1 104.3C185.8 99.9 188.7 90.8 194.2 76.9ZM342.8 105.4C343.8 106.6 344.5 108.2 345 110.4C346.2 114.5 348.6 120.3 351.9 127.3C354.8 133.6 356.2 136.9 356.2 137.4C356.2 139.4 353.3 142.5 347.8 146.8C342.941 150.411 336.617 154.54 328.826 159.129C329.556 154.648 330.84 149.26 332.7 142.9C333 141.4 333.2 140.2 333.2 139.5C333.2 139 333.2 138.8 333 138.8C332.5 138.8 332 139.8 330.8 142.2C328.425 148.613 326.685 154.849 325.662 160.972C322.466 162.813 319.045 164.724 315.4 166.7C306 171.8 294.3 177.3 280.1 183.3C259.7 191.9 248.6 196.7 246.7 197.7C241.4 200.1 238.8 201.6 238.8 201.8C238.8 202 238.8 202 239.3 202C240.3 202 242.7 201.7 246.5 201C250.1 200.5 259.2 198.4 273.6 195C287.3 191.7 294.5 190 295 190C297.6 190 306 185.9 320.4 177.5C321.847 176.689 323.258 175.883 324.631 175.081C324.896 182.265 326.872 188.458 330.4 193.1C334.7 199.1 340.9 202.2 349.1 202.2C358.7 202.2 369.7 197.2 382.7 187.6C391.4 181.1 399.3 173.6 406.5 165C409.6 161.4 412.2 156.8 413.9 151.3C415.4 146.9 416.1 143.6 416.1 140.7L416.6 140.2L416.6 127C415.6 127.5 415.1 127.5 414.9 127.5C412.5 122.5 409.6 118.4 406.5 114.8C402.9 111.2 399.8 109.3 396.7 109.3C392.6 109.3 388.8 111.4 385.2 115.5C381.4 120.3 379.7 125.6 379.7 131.6C379.7 139.5 385.5 143.6 397 143.6C402.3 143.6 406.6 142.9 409.5 141.9C410 143.6 410.5 145.3 410.5 146.7C410.5 148.8 406.9 153.2 399.9 160C392.2 167.2 384.3 173.2 376.1 178.2C365.7 184.5 357.1 187.6 349.9 187.6C341.5 187.6 335.5 184.9 331.7 179.9C330.271 177.756 329.267 175.329 328.689 172.66C340.962 165.171 349.929 158.113 355.7 151.6C357.7 149.4 359.1 146.3 360.3 142.2C361.2 138.6 361.7 135.7 361.7 133.3C361.7 128.2 360.2 122.7 357.6 116C355.9 112.2 354 108.1 352.3 104C355.2 104.7 357.1 105.2 357.8 105.2C358.3 105.2 358.5 104.9 358.5 104.7C358.5 104.2 357.8 103.3 356.1 101.6C352.1 97.5 348.5 93.6 345.1 89.8C344.6 89.3 344.3 89.1 344.1 89.1C343.6 89.1 343.3 89.6 343.1 90.8C342.6 92 342.4 94.2 341.9 97.3C341.4 100.6 341.4 102.3 341.4 102.8C341.6 103.2 342.1 104 342.8 105.4ZM69.2 106.6C67.1 103.2 64.7 101.8 61.8 101.8C61.5 101.8 60.8 102.5 59.8 104.4C58.6 106.4 58.1 107.6 58.1 107.8C58.1 108.5 58.6 109.5 60 110.7C61.5 111.9 62.4 112.6 63.4 112.6C64.1 112.6 64.4 112.3 64.6 112.1C64.9 111.6 65.1 111.6 65.6 111.6C66.6 111.6 67.8 113.8 69.7 118.6C71.6 123.2 72.5 126.3 72.3 128C72.5 129 72.5 129.7 73 129.7C73.5 129.7 74 129 74.7 128C75.4 126.4 76.4 123.5 77.1 119.4C78.8 110.3 80.5 105.7 82.4 105.7C83.3 105.7 84.3 106.1 85 107.1C86 108.1 86.5 108.8 86.7 108.8C87.1 108.8 87.6 108 88.1 106.6C88.6 105.6 88.6 104.7 88.6 104.2C88.6 103.2 88.2 102.2 87.2 100.8C86.2 99.3 85 98.6 83.8 98.6C81.6 98.6 79.7 100.8 77.8 105.1C76.1 111.4 74.9 116.2 74.4 119.3C74.4 119.8 74.2 120.1 74.2 120.3L74 120.3C74 120 74 119.8 73.8 119.3C73 114 71.4 109.7 69.2 106.6ZM442.7 111.9C442 111.9 441 112.3 439.8 113.3C435.9 116.7 432.1 119.6 428.2 121.5C427 122.3 422.9 124.2 416.7 127.3L416.7 140.5C425.1 136.6 431.6 132.6 435.4 128C435.4 139 440.2 144.8 450.3 144.8C458.7 144.8 465.6 140 470.9 130.4C474.1 136.2 477.7 139.3 481.5 139.3C487.3 139.3 491.6 136.7 494.5 131.4C497.2 127 498.6 122 498.6 116C498.6 112.1 497.4 108.8 495.5 105.9C494.8 104.9 494.3 104.7 493.8 104.7C493.3 104.7 492.8 105.5 492.6 106.9C491.2 111.4 490.2 114.8 490 116.7C492.1 120.3 493.1 122.3 493.1 122.5C492.1 124.1 490 125.1 486.6 125.1C484 125.1 481.6 124.1 479.9 122.7C478 121.3 477 119.6 477 117.9C477 118.4 477.7 116.5 478.7 112.4C479.2 110.3 479 109.3 478 109.3C477.3 109.3 476.6 109.7 475.6 110.7C473.2 114.6 470.6 118.4 468.2 122.5C464.3 127.6 459.3 130.2 453.3 130.2C445.8 130.2 442 127.3 442 122C442 120.8 442.2 119.3 442.7 117.4C443.2 115.5 443.4 114 443.4 113.3C443.4 112.4 443.2 111.9 442.7 111.9ZM37.1 127.7C34.5 122.4 29.9 116.9 23.7 111.6C21.5 113.8 18.9 117.8 15.5 123.6C11.7 130.1 10 134.2 10 136.3C10 139.2 11.9 140.6 16.2 140.6C18.1 140.6 20.5 139.9 23.6 138.7C27.9 136.8 32 134.1 35.4 130.8C36.8 129.4 37.3 128.4 37.1 127.7ZM36.5 143.6C32.5 154.4 30.3 164.7 30.3 175C30.3 181.5 31.5 187.5 34.4 192.5C38.3 199.9 44.5 203.5 52.9 203.5C62 203.5 73.1 199.5 85.8 191.3C95.9 184.9 103.8 178.4 109.1 171.9C114.4 165.9 117 153.9 117 136.1C117.7 136.6 118.9 136.6 120.6 136.6L120.6 122C117.3 122 114.6 121.3 113.2 119.4C112.5 118.9 111.5 117.2 110.1 114.1C109.4 112.7 108.9 111.7 108.4 111.7C107.9 111.7 107.4 112.4 107.2 113.6C105.3 119.6 104.3 123.2 104.3 123.9C104.3 124.9 104.7 126.3 105.7 128C110.3 137.1 112.7 145.7 112.7 153.9C111.7 156.1 107.6 159.9 100.9 165.7C93 171.9 85.3 177.2 77.4 181.5C67.5 186.8 59.1 189.4 52.4 189.4C46.9 189.4 42.1 187 38.5 181.7C35.3 177.7 33.9 173.1 33.9 168.3C33.9 162.8 35.3 154.9 38.2 144.3C38.7 142.8 38.9 141.6 38.9 140.9C38.9 140.4 38.9 140.2 38.7 140.2C38.2 140.2 37.5 141.4 36.5 143.6ZM315.9 136.1C313.3 130.8 308.7 125.3 302.5 120C300.3 122.2 297.7 126.2 294.3 132C290.5 138.5 288.8 142.6 288.8 144.7C288.8 147.6 290.7 149 295 149C296.9 149 299.3 148.3 302.4 147.1C306.7 145.2 310.8 142.5 314.2 139.2C315.7 137.8 316.2 136.8 315.9 136.1ZM403.1 129.2C399.5 124.6 396.4 122.5 393.5 122.5C389.2 122.5 387.3 123.5 387.3 125.9C387.3 128.8 390.2 130.2 395.9 130.2C398 130.1 400.4 129.6 403.1 129.2ZM163.3 135.9C163.3 134 162.3 131.6 160.2 129.2C158 126.8 155.6 125.4 153.5 124.6C153.5 127 154.7 129.4 157.1 131.8C159.5 134.4 161.4 135.9 163.3 135.9ZM205.7 132.1C210.8 134.5 214.4 137.4 216.3 140C217.1 141.2 217.5 141.9 217.4 142.6C217.4 143.6 215.8 144.3 212.4 144.3C208.5 144.3 204.7 142.4 201.1 139C198 135.9 195.6 132.3 193.9 128C197.1 128.3 200.9 129.5 205.7 132.1ZM45.9 154.1C55.5 150.7 65.8 146.9 76.9 143.1C77.2851 143.023 77.5516 142.931 77.7451 142.864C78.054 142.758 78.177 142.716 78.3 142.9C78.5 142.9 78.5 143.4 78.1 144.1C77.4 146.3 76.7 147.5 76.2 147.9C66.6 151.3 55.8 155.3 43.6 160.9C44 158.7 44.7 156.5 45.9 154.1ZM429 192.8C426.4 193.5 424.9 194 424.4 194L424.4 193.8C424.4 193.8 425.4 193.1 427.3 191.9C429.2 190.7 432.1 188.8 436.2 185.7C438.1 183.8 441 180.7 444.6 176.3C447 173.4 449.6 170.8 452.5 168.9C456.1 166.3 459.5 165.1 463.1 165.1C463.8 165.1 465 165.3 466.5 165.8C467.7 166.3 468.9 166.5 469.9 166.5C471.8 166.5 473.3 165.8 474.5 164.3C475.2 162.9 476.2 161.7 477.1 160.2C477.6 159.2 478.3 158.8 478.8 158.8C479 158.8 479 159 479 159.5C479 160 478.8 161.2 478.3 162.6C477.8 163.3 479.7 163.6 483.3 163.6C483.8 163.6 484 163.6 484 163.4C484 163.4 483.8 162.4 483.3 160.8C483.1 160.3 483.3 159.6 484 158.6L484.08 158.464C485.022 156.863 485.408 156.205 485.7 156.4C486.7 157.1 487.1 158.6 487.1 160.2C487.1 161.9 486.6 163.6 485.9 165.5C485.2 167.7 484.5 168.9 484 169.3C482.3 170.3 479.7 170 476.1 168.3C473.2 171.2 470.3 172.9 467.5 172.9C466.8 172.9 465.6 172.7 464.4 172.2C463.2 171.7 462.2 171.5 461.5 171.5C456.7 171.5 451.7 173.7 446.6 178.5L435.8 189.3C433.5 190.8 431.4 192 429 192.8ZM228.6 161.5C227.4 162.7 227.1 164.9 228.1 168C226.7 170.2 226.2 172.6 226.2 175C226.2 178.1 228.4 180.2 232.7 181.2C229.1 184.5 224.1 188.1 217.6 192.2C211.8 195.6 206.1 198.9 200.3 202.3C199.1 203 198.4 203.8 198.4 204C198.4 204 198.4 204.2 198.6 204.2C199.1 204.2 199.8 204 201 203.5C209 200.7 213.3 199 214 198.5C217.8 196.9 221.9 194.5 226.2 191.1C230 188.4 233.2 185.3 235.8 181.7C240.8 182.2 243.5 182.4 243.7 182.4C244.7 182.4 245.6 181.4 246.6 179.5C247.8 177.4 248.3 175.7 248.3 174C248.3 173.5 248.1 173 248.1 172.8C246.2 168.3 242.4 164.4 236.6 161.3C234.9 160.3 233.4 160.1 232 160.1C230.8 160.1 229.6 160.5 228.6 161.5ZM148.4 168.3C148.9 167.6 149.4 167.6 149.8 168.1C151.7 164.5 153.6 162.6 155.8 162.6C157.2 162.6 158.7 163.3 159.9 165.2C161.3 166.9 161.8 169 161.8 171.2C161.8 172.2 161.8 172.9 161.6 173.8C160.9 177.6 159.7 179.6 158 179.6C156.6 179.6 154.6 178.6 152.5 177.2C150.3 176 148.9 174.6 147.9 173.4C146.5 177.5 144.8 180.8 142.6 183.2C138.8 187.5 134 191.1 127.5 194.5C122.7 197.4 119.6 198.6 118.1 198.6C118.1 198.6 115.2 199.3 109.7 200.5C103.9 201.9 100.3 202.9 98.9 203.1C96.7 203.3 95.8 203.3 95.8 203.3C95.8 203.1 96.8 202.6 98.9 201.6C104.9 199.2 114 195.1 126.5 189.1C135.4 184.3 141.1 180 143.5 176.4C144.8 174.3 146.3 171.4 148.4 168.3ZM159 172.6C159 171.9 158.5 170.9 157.6 170C156.9 169 155.9 168.6 155.2 168.6C154 168.6 153 169.1 152.3 170.3C153.5 171.5 155.4 172.7 158.1 173.9C158.6 174.1 158.8 174.1 159.1 173.9C159.2 173.8 159.2 173.3 159 172.6ZM235.1 171.1C235.6 172.8 235.6 174.3 235.1 175.7C230.5 175.2 228.3 174.3 228.4 172.7C228.4 172.3 229.1 171.3 230.1 170.1C231.3 169.2 232.2 168.7 232.7 168.7C233.9 168.7 234.6 169.4 235.1 171.1ZM238.2 169.7C241.3 170.9 243.5 172.8 244.7 175.7C245.1 176.4 245.1 176.9 244.9 177.2L244.4 177.2C240.1 176.7 237.7 176.2 237.2 176.2C238 174.5 238.2 172.3 238.2 169.7ZM189.2 184.1C189.2 186.7 188 189.6 186.1 192.7C183.9 195.8 181.3 198.7 177.9 201.1C176.5 202.1 175.7 202.5 175.5 202.5L175.5 202.3C175.5 202.1 176 201.6 176.9 200.4C182.4 194.4 185.3 190.6 185.3 188.4C185.3 186.7 184.3 185.8 182.7 185.8C181.7 185.8 180.8 186 180.1 186.5C179.4 186.7 179.1 187 178.9 187C178.9 187 178.7 187 178.7 186.8C178.7 186.8 178.7 186.3 178.9 185.4C179.9 181.3 181.8 179.4 185.1 179.4C187.8 179.3 189.2 181 189.2 184.1Z" id="Group" fill="#595959" fill-rule="evenodd" stroke="none" clip-path="url(#clip_1)" />
  </g>
</svg>