<?xml version="1.0" encoding="utf-8"?>
<svg width="516.5001px" height="201.92693px" viewBox="0 0 516.5001 201.92693" version="1.1" xmlns:xlink="http://www.w3.org/1999/xlink" xmlns="http://www.w3.org/2000/svg">
  <defs>
    <path d="M516.5 0L516.5 0L516.5 201.927L0 201.927L0 0L516.5 0Z" id="path_1" />
    <clipPath id="clip_1">
      <use xlink:href="#path_1" clip-rule="evenodd" fill-rule="evenodd" />
    </clipPath>
  </defs>
  <g id="Surah_110_of_114_(modified)">
    <path d="M516.5 0L516.5 0L516.5 201.927L0 201.927L0 0L516.5 0Z" id="Surah_110_of_114_(modified)" fill="none" stroke="none" />
    <path d="M232.3 0.32692C212.2 7.82692 193 15.0269 174.5 21.7269C173.3 24.1269 172.6 26.2269 172 28.4269C194.6 19.0269 214.5 11.3269 231.3 5.12692C231.8 4.72691 232.5 3.52692 233.5 1.32692C233.7 0.626923 233.7 0.126923 233.7 0.126923C233.551 -0.09665 233.235 0.0130054 232.794 0.166165C232.644 0.218524 232.478 0.275967 232.3 0.32692ZM270.2 14.4269C271.7 17.6269 272.4 21.4269 272.4 26.2269C272.4 30.3269 273.6 49.3269 276.1 83.1269C278.5 116.927 279.7 136.127 279.7 140.927C279.7 146.027 279.5 150.527 279 154.627C278.971 155.006 278.942 155.371 278.914 155.72C278.75 157.762 278.629 159.273 278.8 160.127C279 160.827 279.3 160.827 280 159.627C280.5 158.727 280.9 157.527 281.9 155.827C285.2 147.227 286.9 137.127 286.9 125.827C286.9 122.027 286 105.427 283.8 75.9269C281.6 46.2269 280.4 31.3269 280.4 30.8269C280.4 29.6269 280.6 29.1269 281.1 29.8269C285.4 34.6269 287.3 35.8269 287.3 33.6269C287.3 33.1269 287.3 31.9269 286.8 30.7269C286.3 28.8269 284.6 24.0269 281.5 16.1269C278.6 8.62691 276.9 4.12691 276.2 2.42691C275.7 1.72691 275.5 1.22691 275 1.22691C274.8 1.22691 274.5 1.72691 274.3 2.42691C271.4 8.62691 270.2 12.7269 270.2 14.4269ZM321.6 13.6269C321.6 16.2269 323.7 18.6269 328.3 21.0269C325 24.5269 320 28.4269 312.9 32.7269C306.9 36.0269 301.2 39.4269 295.4 43.0269C294 43.7269 293.5 44.5269 293.5 44.7269C293.5 44.7269 293.5 44.9269 293.7 44.9269C293.9 44.9269 294.9 44.7269 296.1 44.2269C303.8 41.4269 308.1 39.7269 309.1 39.2269C312.7 37.8269 316.7 35.1269 321.3 32.0269C325.1 29.1269 328.3 26.0269 330.9 22.4269C333.1 23.6269 334.5 24.8269 335 25.8269C337.1 23.0269 338.1 20.8269 338.1 19.6269C337.6 18.6269 336.2 17.4269 333.8 16.2269C335 12.8269 335.5 9.92694 335.5 7.32693C335.5 4.52693 334.8 2.82693 333.1 2.32693C331.2 1.62692 328.8 2.62692 325.9 5.22693C323 7.62692 321.6 10.5269 321.6 13.6269ZM254.9 151.627C260 143.427 262.6 132.427 262.6 118.227C262.6 113.127 261.6 98.0269 259.8 73.0269C257.9 47.6269 256.9 34.6269 256.9 34.4269C256.9 33.2269 257.1 32.9269 257.6 33.4269C261.6 38.2269 263.8 39.4269 263.8 37.2269C263.8 36.7269 263.5 35.5269 263.3 34.1269C262.6 32.4269 260.9 27.6269 258 19.7269C255.1 12.2269 253.2 7.7269 252.5 6.0269C252 5.0269 251.7 4.8269 251.5 4.8269C251 4.8269 250.7 5.12691 250.5 5.8269C247.8 12.2269 246.4 16.3269 246.4 18.0269C247.9 21.1269 248.6 24.9269 248.6 29.5269C248.6 34.8269 249.5 51.8269 251.7 80.6269C253.9 109.427 255.1 125.927 255.1 130.027C255.1 136.827 254.4 140.827 253.2 141.827C248.9 145.427 244.4 147.327 239.8 147.327L239.8 161.927C245.5 161.927 250.6 158.327 254.9 151.627ZM376.3 24.3269C376.3 24.3269 376.1 24.6269 376.1 24.8269C374.4 27.7269 373 29.4269 371.4 29.4269C369.3 29.4269 368.3 27.2269 368.3 23.4269C368.3 20.3269 369.5 15.2269 371.9 7.82692C372.4 6.12692 372.6 5.12692 372.6 4.92693C372.3 4.92693 371.9 5.82693 370.9 7.52693C367.1 14.5269 365.4 21.4269 365.4 27.9269C365.4 33.2269 366.9 35.8269 370 35.8269C373.1 35.8269 375.3 32.2269 376.5 25.0269C376.7 24.8269 376.7 24.5269 376.5 24.3269C376.5 24.2362 376.5 24.1867 376.481 24.1782C376.459 24.168 376.409 24.2176 376.3 24.3269ZM124.6 25.3269C124.6 25.1269 124.8 24.8269 124.8 24.8269C124.909 24.7176 124.959 24.668 124.981 24.6782C125 24.6867 125 24.7362 125 24.8269C125.2 25.0269 125.2 25.3269 125 25.5269C123.8 32.7269 121.6 36.3269 118.5 36.3269C115.4 36.3269 113.9 33.7269 113.9 28.4269C113.9 21.9269 115.6 15.0269 119.4 8.02693C120.4 6.32693 120.8 5.42693 121.1 5.42693C121.1 5.62692 120.9 6.62692 120.4 8.32692C118 15.7269 116.8 20.8269 116.8 23.9269C116.8 27.7269 117.8 29.9269 119.9 29.9269C121.5 29.8269 122.9 28.2269 124.6 25.3269ZM331.4 10.4269C331.7 11.8269 331.7 13.3269 331.2 14.7269C327.6 13.0269 325.7 11.6269 325.6 10.3269C325.6 9.92691 326 9.42691 327 8.92691C328 8.42691 328.7 8.22691 329.2 8.22691C330.4 8.22691 331.2 9.02692 331.4 10.4269ZM150.5 29.1269C149.8 29.1269 148.8 29.6269 148.1 30.8269C144.8 37.3269 142.3 44.2269 141.2 52.0269C141 52.9269 141 53.9269 141 54.6269C141 58.4269 142.4 60.6269 145.8 60.6269C149.2 60.6269 151.8 58.9269 154.2 56.0269C154.9 55.0269 155.4 52.4269 155.9 48.3269C156.1 44.7269 153.7 40.9269 148.7 37.3269C149.4 34.9269 150.3 32.5269 151.3 30.3269C151.3 30.0269 151.5 29.8269 151.5 29.8269C151.5 29.3269 151 29.1269 150.5 29.1269ZM75.9 34.9269C75.9 35.4269 75.7 36.3269 75.2 37.3269C75 38.7269 74.5 39.5269 73.8 39.5269C73.6 39.5269 73.1 38.8269 72.1 37.8269C71.4 36.8269 70.4 36.4269 69.7 36.4269C67.8 36.4269 65.9 41.0269 64.2 50.1269C63.5 54.2269 62.8 57.1269 61.8 58.7269C61.5406 59.0976 61.3086 59.427 61.0939 59.6948C61.3447 58.9502 61.4513 58.4808 61.4 58.3269L61.4 58.1269C61.2587 58.1269 60.7185 58.7254 59.744 59.8519C59.8481 60.2127 59.9894 60.4269 60.1 60.4269C60.4147 60.4269 60.7294 60.1497 61.0939 59.6948C60.8556 60.4022 60.4871 61.3577 60 62.5269C58.3 66.3269 55 70.2269 49.9 73.8269C45.3 77.2269 41.3 79.6269 37.7 81.2269C37 81.7269 32.7 83.4269 24.7 86.2269C23.5 86.7269 22.8 86.9269 22.3 86.9269C22.1 86.9269 22.1 86.7269 22.1 86.7269C22.1 86.5269 22.8 85.7269 24 85.0269C30.5 81.2269 39.6 75.6269 51.6 67.7269C54.5 65.5269 56.6 63.4269 58.3 61.5269C58.8582 60.8806 59.3386 60.3206 59.744 59.8519C59.6599 59.5606 59.6 59.1737 59.6 58.7269C59.6 57.0269 58.6 53.9269 56.7 49.3269C54.8 44.5269 53.6 42.3269 52.9 42.3269C52.2 42.3269 51.9 42.3269 51.7 42.8269C51.7 43.0269 51.2 43.3269 50.5 43.3269C49.5 43.3269 48.6 42.6269 47.1 41.4269C45.9 40.2269 45.2 39.2269 45.2 38.5269C45.2 38.3269 45.7 37.1269 46.9 35.1269C48.1 33.2269 48.8 32.5269 49.1 32.5269C51.7 32.5269 54.1 33.9269 56.3 37.3269C58.7 40.7269 60.1 44.7269 61.1 50.0269L61.1 51.0269C61.2094 51.1363 61.2589 51.1858 61.2814 51.1756C61.3 51.1672 61.3 51.1176 61.3 51.0269C61.3 50.8269 61.5 50.5269 61.8 50.0269C62 46.9269 63.2 42.1269 64.9 35.8269C66.8 31.5269 68.7 29.3269 70.9 29.3269C72.1 29.3269 73.3 30.0269 74.5 31.5269C75.4 33.0269 75.9 33.9269 75.9 34.9269ZM354.8 58.6269C379 49.5269 404.2 40.4269 430.2 30.8269C430.402 30.7691 430.588 30.703 430.749 30.6455C431.147 30.5037 431.4 30.4136 431.4 30.6269C431.6 30.6269 431.6 31.1269 431.4 31.8269C430.4 34.0269 429.7 35.2269 429.2 35.6269C429 35.8269 416.7 40.4269 393 49.3269C368.8 58.2269 355.1 63.7269 352.4 65.4269C352.8 63.2269 353.5 61.0269 354.8 58.6269ZM223.2 51.4269C223.2 53.3269 222.7 55.5269 221.8 57.4269C220.6 60.0269 219.2 61.5269 217.5 61.5269C214.6 61.5269 212.7 59.6269 211.5 55.7269C210.1 60.5269 207.7 63.1269 204.1 63.1269C202.9 63.1269 201.7 62.4269 200.7 60.9269C199.5 59.5269 199 57.3269 199 54.9269L199 48.7269C199 48.2269 198.5 48.0269 198 47.7269C197.3 47.5269 197 47.0269 197 46.3269C197 44.9269 197.5 43.7269 198.4 42.5269C199.4 41.3269 200.1 40.8269 200.6 40.8269C201.3 40.8269 201.8 42.0269 201.8 44.6269C201.8 46.0269 201.6 47.2269 201.6 48.2269C201.4 49.2269 201.4 49.9269 201.4 50.6269C201.4 52.0269 201.6 53.5269 202.1 54.7269C202.8 56.1269 203.8 57.1269 204.7 57.1269C206.1 57.1269 207.3 56.4269 208.5 55.2269C209.7 54.0269 210.4 52.6269 210.4 50.927C210.4 49.927 209.9 48.527 209.4 46.127C208.7 43.927 208.4 42.5269 208.4 42.0269C208.4 41.5269 208.6 40.827 209.1 39.627C209.6 38.627 210.1 38.227 210.3 38.227C210.8 38.227 211.3 39.627 212 42.527C212.7 45.627 213.2 47.827 213.2 49.227C213.2 53.327 214.6 55.427 217.8 55.427C219.2 55.427 220.2 54.7269 220.4 53.2269C217.8 48.4269 216.3 44.827 216.3 42.2269C216.3 40.827 216.5 39.6269 217.5 38.4269C218 37.7269 218.2 37.2269 218.5 37.2269C218.7 37.2269 219 37.7269 219 38.6269C219.2 39.8269 219.5 41.0269 219.7 42.0269C219.7 42.0269 220.4 43.7269 221.6 47.0269C222.8 49.0269 223.2 50.5269 223.2 51.4269ZM485.3 59.8269C482.9 65.6269 481.7 70.1269 481.7 73.5269C481.7 77.6269 482.7 79.7269 484.8 79.7269C486 79.7269 487.4 78.0269 489.1 75.1269C489.3 74.9269 489.3 74.6269 489.6 74.4269C489.6 74.4269 489.8 74.4269 489.8 74.6269L489.8 75.327C488.4 82.527 486.2 86.1269 483.3 86.1269C480.2 86.1269 478.7 83.5269 478.7 78.2269C478.7 75.6269 479.2 72.2269 480.6 67.927C482 63.627 482.8 61.427 482.8 61.2269C482.8 60.7269 481.8 59.827 479.7 58.6269C475.9 63.6269 470.6 68.4269 463.9 72.5269C459.3 75.1269 454.8 77.5269 450 79.5269C441.1 83.1269 435.8 85.0269 434.6 85.7269C433.4 86.2269 432.7 86.427 432.2 86.427C432 86.427 432 86.2269 432 86.2269C432 85.7269 432.5 85.2269 433.9 84.327C441.6 80.027 449 75.7269 456.7 71.327C466.8 65.527 473.7 60.7269 477.1 57.1269C472.5 54.7269 470.4 52.327 470.4 49.7269C470.4 46.6269 471.8 43.7269 474.7 41.1269C477.6 38.7269 480 37.7269 481.9 38.5269C483.3 39.0269 484.3 40.7269 484.3 43.5269C484.3 46.1269 483.8 49.0269 482.6 52.1269C485 53.5269 486 55.0269 486 56.4269C486 57.2269 485.8 58.4269 485.3 59.8269ZM146 43.8269C151 46.6269 153.4 48.8269 153.4 50.0269C152.9 51.0269 151.7 51.9269 150.1 52.7269C148.4 53.6269 147 54.1269 145.8 54.1269C144.3 54.1269 143.6 53.1269 143.6 51.7269C143.6 49.3269 144.3 46.7269 146 43.8269ZM480 51.0269C480.5 49.6269 480.5 48.1269 480.2 46.7269C480 45.3269 479.2 44.5269 478 44.5269C477.5 44.5269 476.8 44.7269 475.8 45.2269C474.8 45.7269 474.4 46.2269 474.4 46.6269C474.5 47.8269 476.4 49.3269 480 51.0269ZM324.5 49.5269L320.7 57.4269C319.7 56.5269 317.5 54.8269 314.5 52.927C311.4 50.727 309.7 49.527 309.2 49.527C308.9 49.527 308.4 50.027 308.2 50.527L303.6 60.127C303.4 60.627 303.4 60.927 303.6 61.127C307.5 63.527 311.3 66.127 314.9 69.027C315.4 69.327 315.9 69.027 316.1 68.327C317.6 66.1269 318.8 63.5269 320.2 60.6269C324.3 63.2269 327.9 65.6269 331 68.0269C331.4 68.2269 331.9 68.2269 332.4 67.5269C335.5 62.2269 337.2 58.6269 337.2 56.9269C337.2 56.4269 335.3 55.0269 331.7 52.6269C327.9 50.0269 326 48.8269 325.5 48.8269C325 48.8269 324.7 49.0269 324.5 49.5269ZM102.8 71.6269C102.8 71.4269 103 71.1269 103 71.1269C103.109 71.0176 103.159 70.968 103.181 70.9782C103.2 70.9867 103.2 71.0362 103.2 71.1269C103.4 71.3269 103.4 71.6269 103.2 71.8269C102 79.0269 99.8 82.6269 96.7 82.6269C93.6 82.6269 92.1 80.0269 92.1 74.7269C92.1 68.2269 93.8 61.3269 97.6 54.3269C98.6 52.6269 99 51.7269 99.3 51.7269C99.3 51.9269 99.1 52.9269 98.6 54.6269C96.2 62.0269 95 67.1269 95 70.2269C95 74.0269 96 76.2269 98.1 76.2269C99.6 76.2269 101.1 74.5269 102.8 71.6269ZM402.9 66.3269C400.8 62.9269 398.4 61.5269 395.5 61.5269C395.3 61.5269 394.6 62.2269 393.5 64.1269C392.3 66.1269 391.8 67.3269 391.8 67.5269C391.8 68.2269 392.3 69.2269 393.7 70.4269C395.2 71.6269 396.1 72.3269 397.1 72.3269C397.8 72.3269 398.1 72.0269 398.3 71.8269C398.6 71.3269 398.8 71.3269 399.3 71.3269C400.3 71.3269 401.5 73.5269 403.4 78.3269C405.3 82.9269 406.2 86.0269 406 87.7269C406.2 88.7269 406.2 89.4269 406.7 89.4269C407.2 89.4269 407.7 88.7269 408.4 87.7269C409.1 86.1269 410.1 83.2269 410.8 79.1269C412.5 70.0269 414.2 65.4269 416.1 65.4269C417 65.4269 418 65.8269 418.7 66.8269C419.7 67.8269 420.2 68.5269 420.4 68.5269C420.8 68.5269 421.3 67.7269 421.8 66.3269C422.3 65.3269 422.3 64.4269 422.3 63.9269C422.3 62.9269 421.9 61.9269 420.9 60.5269C419.9 59.0269 418.7 58.3269 417.5 58.3269C415.3 58.3269 413.4 60.5269 411.5 64.8269C409.8 71.1269 408.6 75.9269 408.1 79.0269C408.1 79.5269 407.9 79.8269 407.9 80.0269L407.7 80.0269C407.7 79.7269 407.7 79.5269 407.5 79.0269C406.7 73.7269 405.1 69.4269 402.9 66.3269ZM343.2 75.4269C343.2 79.2269 341.3 84.5269 337.4 91.0269C335 95.1269 331.4 100.627 326.6 107.827C331.4 113.327 334.8 118.427 336.4 122.727C337.4 125.827 338.1 129.927 338.1 134.527C338.1 136.427 337.6 138.827 336.7 141.927C336 144.827 335 146.927 334.1 148.427C332.2 151.327 329.1 154.227 324.3 157.027C319.3 160.427 314.9 162.027 311.3 162.027C305.5 162.027 302.7 157.727 302.7 149.027C302.7 143.227 303.7 137.527 305.6 132.227C307.5 127.627 310.6 121.627 315.7 113.727C311.4 109.627 306.8 103.927 301.8 96.7269C301.3 96.0269 300.1 94.8269 298.2 92.9269C297.2 91.9269 296.8 90.7269 296.8 89.3269C296.8 87.1269 297 84.7269 297.5 81.9269C298.2 79.0269 298.7 77.8269 298.9 77.8269C299.6 77.8269 301.8 79.0269 305.9 81.6269C309.7 84.2269 312.9 86.2269 314.8 87.8269C316 88.5269 316.5 89.2269 316.5 89.2269L316.5 89.4269C316.5 89.6269 315.8 89.9269 314.1 89.9269C311 89.9269 309.3 90.1269 309.3 90.4269C309.3 90.6269 309.8 91.1269 310.7 92.3269C314.5 97.1269 318.4 100.727 322.5 103.627C323.5 102.227 326.8 97.4269 332.1 89.2269C336.7 82.2269 339.3 77.4269 340.5 74.6269C341.7 71.8269 342.4 70.5269 342.9 70.5269C343 70.6269 343.2 72.1269 343.2 75.4269ZM131.8 139.627C131.8 136.927 132.3 134.327 133.5 131.427C140.2 133.727 145.7 135.027 150.1 134.927C162.1 134.927 173.9 132.027 185.4 126.027C193.3 121.727 198.8 117.627 202.2 113.827C203.7 112.127 205.1 109.027 206.8 104.227C208.3 99.927 209 97.027 209 95.627C209 91.7269 206.6 87.2269 201.3 81.927C195 75.427 188.1 72.327 180.4 72.327C171.7 72.327 162.6 78.1269 153.5 89.1269C150.4 92.9269 144.2 102.327 134.8 116.927C130.5 115.027 127.2 112.427 125 109.527C123.1 107.127 122.4 105.027 122.4 102.827C122.4 99.9269 121.9 98.5269 121.2 98.5269C120.7 98.5269 120.2 98.8269 119.5 99.5269C116.2 102.827 112.6 106.227 109.2 109.827C102.934 115.098 96.4698 117.699 90.3 117.727L90.3 117.527C87 117.527 84.3 116.827 82.9 114.927C82.2 114.427 81.2 112.727 79.8 109.627C79.1 108.227 78.6 107.227 78.1 107.227C77.6 107.227 77.1 107.927 76.9 109.127C75 115.127 74 118.727 74 119.427C74 120.427 74.4 121.827 75.4 123.527C80 132.627 82.4 141.227 82.4 149.427C81.4 151.627 77.3 155.427 70.6 161.227C62.7 167.427 55 172.727 47.1 177.027C37.2 182.327 28.8 184.927 22.1 184.927C16.6 184.927 11.8 182.527 8.19998 177.227C4.99997 173.227 3.59998 168.627 3.59998 163.827C3.59998 158.327 4.99998 150.427 7.89998 139.827C8.19624 138.938 8.38718 138.155 8.49359 137.518C8.59393 137.524 8.69606 137.527 8.79999 137.527C11.9 137.527 14.1 133.927 15.3 126.727C15.5 126.527 15.5 126.227 15.3 126.027C15.3 125.936 15.3 125.887 15.2813 125.878C15.2589 125.868 15.2093 125.918 15.1 126.027C15.1 126.027 14.9 126.327 14.9 126.527C13.2 129.427 11.8 131.127 10.2 131.127C8.09998 131.127 7.09998 128.927 7.09998 125.127C7.09998 122.027 8.29999 116.927 10.7 109.527C11.2 107.827 11.4 106.827 11.4 106.627C11.1 106.627 10.7 107.527 9.69998 109.227C5.89998 116.227 4.19998 123.127 4.19998 129.627C4.19998 133.868 5.16034 136.38 7.1323 137.215C6.85452 137.727 6.54512 138.368 6.19998 139.127C2.19998 149.927 -1.52588e-05 160.227 -1.52588e-05 170.527C-1.52588e-05 177.027 1.19998 183.027 4.09998 188.027C7.99997 195.427 14.2 199.027 22.6 199.027C31.7 199.027 42.8 195.027 55.5 186.827C65.6 180.427 73.5 173.927 78.8 167.427C84.1 161.427 86.7 149.427 86.7 131.627C87.3862 132.117 88.5528 132.127 90.2 132.127L90.2 132.427C95.9 132.427 101.5 130.027 106.5 125.427C109.4 122.827 113 118.227 117.1 112.027C118.3 120.127 122.4 126.127 129.8 130.227C127.9 135.027 127.2 139.827 127.2 144.627C127.2 160.927 136.8 169.127 155.8 169.127C163 169.127 172.1 167.227 183.4 163.127C187.9 161.427 195.9 158.327 206.9 153.527L206.9 153.827C210.7 152.127 215.8 149.027 222 144.427L222 147.527C222 151.527 223.2 154.927 225.6 157.327C228.7 160.227 233.3 161.927 239.5 161.927L239.5 147.027C236 147.227 232.8 145.727 230.5 143.527C228.4 141.427 227.4 139.227 227.4 136.827C227.4 136.327 227.6 135.327 227.6 133.927C227.9 132.427 228.1 131.527 228.1 131.027C228.1 130.127 227.6 129.627 226.9 129.627C226.4 129.627 225.7 129.927 224.7 130.627C217.7 135.127 211.7 138.527 206.9 140.427L206.9 140.327C199 143.427 191.3 146.827 183.4 149.927C174.5 152.827 166.1 154.527 157.5 154.527C140.4 154.527 131.8 149.427 131.8 139.627ZM195.6 93.9269C201.2 98.0269 203.8 101.127 203.8 102.827C203.8 103.527 201.4 105.427 196.4 108.327C190.6 111.727 184.6 114.327 177.9 116.527C169.2 119.427 161.1 120.827 153.4 120.827C149 120.827 144.2 119.827 139.2 118.427C151.5 97.3269 164.2 86.7269 176.9 86.7269C182.9 86.7269 189.4 89.1269 195.6 93.9269ZM58.1 100.627C60 97.5269 61.2 94.6269 61.2 92.0269C61.2 88.9269 59.8 87.2269 57.1 87.3269C53.8 87.3269 51.9 89.2269 50.9 93.3269C50.7 94.2269 50.7 94.7269 50.7 94.7269C50.7 94.9269 50.9 94.9269 50.9 94.9269C51.1 94.9269 51.4 94.6269 52.1 94.4269C52.8 93.9269 53.7 93.7269 54.7 93.7269C56.3 93.7269 57.3 94.6269 57.3 96.3269C57.3 98.5269 54.4 102.327 48.9 108.327C48 109.527 47.5 110.027 47.5 110.227L47.5 110.427C47.7 110.427 48.5 110.027 49.9 109.027C53.3 106.627 55.9 103.727 58.1 100.627ZM360.7 103.827C361.7 105.027 362.4 106.627 362.9 108.827C364.1 112.927 366.5 118.627 369.8 125.727C372.7 132.027 374.1 135.327 374.1 135.827C374.1 137.827 371.2 140.927 365.7 145.227C360.837 148.841 354.507 152.973 346.708 157.566C347.435 153.064 348.725 147.639 350.6 141.227C350.9 139.727 351.1 138.527 351.1 137.827C351.1 137.327 351.1 137.127 350.9 137.127C350.4 137.127 349.9 138.127 348.7 140.527C346.311 146.978 344.564 153.251 343.544 159.409C340.352 161.247 336.938 163.154 333.3 165.127C323.9 170.227 312.2 175.727 298 181.727C277.6 190.327 266.5 195.127 264.6 196.127C259.3 198.527 256.7 200.027 256.7 200.227C256.7 200.427 256.7 200.427 257.2 200.427C258.2 200.427 260.6 200.127 264.4 199.427C268 198.927 277.1 196.827 291.5 193.427C305.2 190.127 312.4 188.427 312.9 188.427C315.5 188.427 323.9 184.327 338.3 175.927C339.749 175.115 341.16 174.308 342.534 173.506C342.814 180.648 344.788 186.806 348.3 191.427C352.6 197.427 358.8 200.527 367 200.527C376.6 200.527 387.6 195.527 400.6 185.927C409.3 179.427 417.2 171.927 424.4 163.327C427.5 159.727 430.1 155.127 431.8 149.627C433.3 145.227 434 141.927 434 139.027L434.5 138.527L434.5 125.327C433.5 125.827 433 125.827 432.8 125.827C430.4 120.827 427.5 116.727 424.4 113.127C420.8 109.527 417.7 107.627 414.6 107.627C410.5 107.627 406.7 109.727 403.1 113.827C399.3 118.627 397.6 123.927 397.6 129.927C397.6 137.827 403.4 141.927 414.9 141.927C420.2 141.927 424.5 141.227 427.4 140.227C427.9 141.927 428.4 143.627 428.4 145.027C428.4 147.227 424.8 151.527 417.8 158.327C410.1 165.527 402.2 171.527 394 176.527C383.6 182.827 375 185.927 367.8 185.927C359.4 185.927 353.4 183.227 349.6 178.227C348.187 176.107 347.189 173.709 346.608 171.075C358.872 163.59 367.832 156.537 373.6 150.027C375.6 147.827 377 144.727 378.2 140.627C379.1 137.027 379.6 134.127 379.6 131.727C379.6 126.627 378.1 121.127 375.5 114.427C373.8 110.627 371.9 106.527 370.2 102.427C373.1 103.127 375 103.627 375.7 103.627C376.2 103.627 376.4 103.327 376.4 103.127C376.4 102.627 375.7 101.727 374 100.027C370 95.9269 366.4 92.0269 363 88.2269C362.5 87.7269 362.2 87.5269 362 87.5269C361.5 87.5269 361.2 88.0269 361 89.2269C360.5 90.4269 360.3 92.6269 359.8 95.7269C359.3 99.0269 359.3 100.727 359.3 101.227C359.5 101.627 360 102.427 360.7 103.827ZM217 100.827C216.8 101.327 216.8 101.627 217 101.827C220.8 104.227 224.7 106.927 228.4 109.727C228.89 110.021 229.092 109.738 229.571 109.067L229.6 109.027C232.9 103.727 234.6 100.427 234.6 98.7269C234.6 98.2269 232.6 96.7269 228.8 94.1269C225.2 91.7269 223.1 90.5269 222.6 90.5269C222.3 90.5269 221.8 90.7269 221.6 91.2269L217 100.827ZM460.6 110.327C459.9 110.327 458.9 110.727 457.7 111.727C453.9 115.027 450 117.927 446.1 119.927C444.9 120.727 440.8 122.627 434.6 125.727L434.6 138.927C443 135.027 449.5 131.027 453.3 126.427C453.3 137.427 458.1 143.227 468.2 143.227C476.6 143.227 483.5 138.427 488.8 128.827C492 134.627 495.6 137.727 499.4 137.727C505.2 137.727 509.5 135.127 512.4 129.827C515.1 125.427 516.5 120.427 516.5 114.427C516.5 110.527 515.3 107.227 513.4 104.327C512.7 103.327 512.2 103.127 511.7 103.127C511.2 103.127 510.7 103.927 510.5 105.327C509.1 109.827 508.1 113.227 507.9 115.127C510 118.727 511 120.727 511 120.927C510 122.527 507.9 123.527 504.5 123.527C501.9 123.527 499.5 122.527 497.8 121.127C495.9 119.727 494.9 118.027 494.9 116.327C494.9 116.827 495.6 114.927 496.6 110.827C497.1 108.727 496.9 107.727 495.9 107.727C495.2 107.727 494.5 108.127 493.5 109.127C491.1 113.027 488.5 116.827 486.1 120.927C482.2 126.027 477.2 128.627 471.2 128.627C463.7 128.627 459.9 125.727 459.9 120.427C459.9 119.227 460.1 117.727 460.6 115.827C461.1 113.927 461.3 112.427 461.3 111.727C461.3 110.827 461.1 110.327 460.6 110.327ZM333.9 134.527C331.3 129.227 326.7 123.727 320.5 118.427C318.3 120.627 315.7 124.627 312.3 130.427C308.5 136.927 306.8 141.027 306.8 143.127C306.8 146.027 308.7 147.427 313 147.427C314.9 147.427 317.3 146.727 320.4 145.527C324.7 143.627 328.8 140.927 332.2 137.627C333.6 136.227 334.1 135.227 333.9 134.527ZM421 127.527C417.4 122.927 414.3 120.827 411.4 120.827C407.1 120.827 405.2 121.827 405.2 124.227C405.2 127.127 408.1 128.527 413.8 128.527C415.701 128.527 417.677 128.153 419.922 127.729C420.274 127.663 420.633 127.595 421 127.527ZM49.4 148.927C49.4 148.927 49.2 149.227 49.2 149.427C47.5 152.227 46.1 153.927 44.5 154.027C42.4 154.027 41.4 151.827 41.4 148.027C41.4 144.927 42.6 139.827 45 132.427C45.5 130.727 45.7 129.727 45.7 129.527C45.4 129.527 45 130.427 44 132.127C40.2 139.127 38.5 146.027 38.5 152.527C38.5 157.827 40 160.427 43.1 160.427C46.2 160.427 48.4 156.827 49.6 149.627C49.8 149.427 49.8 149.127 49.6 148.927C49.6 148.836 49.6 148.787 49.5813 148.778C49.5589 148.768 49.5093 148.818 49.4 148.927ZM446.9 191.127C444.3 191.827 442.8 192.327 442.3 192.327L442.3 192.127C442.3 192.127 443.3 191.427 445.2 190.227C447.1 189.027 450 187.127 454.1 184.027C456 182.127 458.9 179.027 462.5 174.627C464.9 171.727 467.5 169.127 470.4 167.227C474 164.627 477.4 163.427 481 163.427C481.7 163.427 482.9 163.627 484.4 164.127C485.6 164.627 486.8 164.827 487.8 164.827C489.7 164.827 491.2 164.127 492.4 162.627C493.1 161.227 494.1 160.027 495 158.527C495.5 157.527 496.2 157.127 496.7 157.127C496.9 157.127 496.9 157.327 496.9 157.827C496.9 158.327 496.7 159.527 496.2 160.927C495.7 161.627 497.6 161.927 501.2 161.927C501.7 161.927 501.9 161.927 501.9 161.727C501.9 161.727 501.7 160.727 501.2 159.127C501 158.627 501.2 157.927 501.9 156.927L501.98 156.791C502.922 155.19 503.308 154.532 503.6 154.727C504.6 155.427 505 156.927 505 158.527C505 160.227 504.5 161.927 503.8 163.827C503.1 166.027 502.4 167.227 501.9 167.627C500.2 168.627 497.6 168.327 494 166.627C491.1 169.527 488.2 171.227 485.4 171.227C484.7 171.227 483.5 171.027 482.3 170.527C481.1 170.027 480.1 169.827 479.4 169.827C474.6 169.827 469.6 172.027 464.5 176.827L453.7 187.627C451.5 189.227 449.3 190.427 446.9 191.127ZM220.6 166.627C220.6 170.227 218.7 173.327 215.1 176.227C211.5 178.827 207.4 180.327 202.9 180.327C202.2 180.327 201 180.127 199.8 179.627C198.6 179.427 197.6 179.127 196.9 179.127C192.1 179.127 187.1 181.527 182 186.327L171.2 197.127C169 198.827 166.9 200.027 164.5 200.727C161.9 201.427 160.4 201.927 159.9 201.927L159.9 201.727C159.9 201.727 160.9 201.027 162.8 199.827C164.7 198.627 167.6 196.727 171.7 193.627C173.6 191.727 176.5 188.627 180.1 184.527C182.5 181.427 185.1 179.027 188 176.827C191.4 174.427 194.2 173.027 197.1 172.527C196.6 172.727 198.5 172.727 202.1 172.727C204.3 170.527 206.7 168.427 208.8 166.227C211.7 163.627 214.1 162.427 216 162.427C219.2 162.327 220.6 163.727 220.6 166.627ZM218.2 168.827C217.7 167.427 216.3 166.927 213.9 166.927C211.7 166.927 208.4 169.127 204.1 173.427C204.6 173.427 205.1 173.627 205.5 173.627C207.9 173.627 210.5 172.927 213.2 171.727C215.8 170.727 217.5 169.727 218.2 168.827ZM244.6 190.127C246.5 187.027 247.7 184.127 247.7 181.527C247.7 178.427 246.3 176.727 243.6 176.827C240.3 176.827 238.4 178.727 237.4 182.827C237.2 183.727 237.2 184.227 237.2 184.227C237.2 184.427 237.4 184.427 237.4 184.427C237.6 184.427 237.9 184.127 238.6 183.927C239.3 183.427 240.2 183.227 241.2 183.227C242.8 183.227 243.8 184.127 243.8 185.827C243.8 188.027 240.9 191.827 235.4 197.827C234.5 199.027 234 199.527 234 199.727L234 199.927C234.2 199.927 235 199.527 236.4 198.527C239.8 196.127 242.4 193.227 244.6 190.127ZM143.3 183.027C143.3 185.627 142.1 188.527 140.2 191.627C138 194.727 135.4 197.627 132 200.027C130.6 201.027 129.8 201.427 129.6 201.427L129.6 201.227C129.6 201.027 130.1 200.527 131 199.327C136.5 193.327 139.4 189.527 139.4 187.327C139.4 185.627 138.4 184.727 136.8 184.727C135.8 184.727 134.9 184.927 134.2 185.427C133.5 185.627 133.2 185.927 133 185.927C133 185.927 132.8 185.927 132.8 185.727C132.8 185.727 132.8 185.227 133 184.327C134 180.227 135.9 178.327 139.2 178.327C141.9 178.227 143.3 179.827 143.3 183.027ZM69.2 195.027C82.9 190.227 97.3 184.927 112.4 179.427C112.785 179.35 113.052 179.258 113.245 179.191C113.554 179.085 113.677 179.042 113.8 179.227C114 179.227 114 179.727 113.6 180.427C112.9 182.627 112.2 183.827 111.7 184.227C98.7 188.827 83.9 194.527 66.8 201.727C67.2 199.527 68 197.427 69.2 195.027Z" id="Group" fill="#595959" fill-rule="evenodd" stroke="none" clip-path="url(#clip_1)" />
  </g>
</svg>