<?xml version="1.0" encoding="utf-8"?>
<svg width="529.9001px" height="201.50002px" viewBox="0 0 529.9001 201.50002" version="1.1" xmlns:xlink="http://www.w3.org/1999/xlink" xmlns="http://www.w3.org/2000/svg">
  <defs>
    <path d="M529.9 0L529.9 0L529.9 201.5L0 201.5L0 0L529.9 0Z" id="path_1" />
    <clipPath id="clip_1">
      <use xlink:href="#path_1" clip-rule="evenodd" fill-rule="evenodd" />
    </clipPath>
  </defs>
  <g id="Surah_114_of_114_(modified)">
    <path d="M529.9 0L529.9 0L529.9 201.5L0 201.5L0 0L529.9 0Z" id="Surah_114_of_114_(modified)" fill="none" stroke="none" />
    <path d="M275 113.4C275 127.6 272.4 138.6 267.3 146.8C263 153.5 257.9 157.1 252.2 157.1L252.2 142.5C256.8 142.5 261.3 140.6 265.6 137C266.8 136 267.5 132 267.5 125.2C267.5 121.1 266.3 104.6 264.1 75.8C261.9 47 261 30 261 24.7C261 20.1 260.3 16.3 258.8 13.2C258.8 11.5 260.2 7.39999 262.9 1C263.1 0.300003 263.4 0 263.9 0C264.1 0 264.4 0.199997 264.9 1.2C265.6 2.89999 267.5 7.39999 270.4 14.9C273.3 22.8 275 27.6 275.7 29.3C275.9 30.7 276.2 31.9 276.2 32.4C276.2 34.6 274 33.4 270 28.6C269.5 28.1 269.3 28.4 269.3 29.6C269.3 29.8 270.3 42.8 272.2 68.2C274 93.2 275 108.3 275 113.4ZM285.8 26.5C285.8 21.7 285.1 17.9 283.6 14.7C283.6 13 284.8 8.89999 287.7 2.7C287.9 2 288.2 1.5 288.4 1.5C288.9 1.5 289.1 2 289.6 2.7C290.3 4.39999 292 8.89999 294.9 16.4C298 24.3 299.7 29.1 300.2 31C300.7 32.2 300.7 33.4 300.7 33.9C300.7 36.1 298.8 34.9 294.5 30.1C294 29.4 293.8 29.9 293.8 31.1C293.8 31.6 295 46.5 297.2 76.2C299.4 105.7 300.3 122.3 300.3 126.1C300.3 137.4 298.6 147.5 295.3 156.1C294.3 157.8 293.9 159 293.4 159.9C292.7 161.1 292.4 161.1 292.2 160.4C292.029 159.546 292.15 158.035 292.314 155.993C292.342 155.644 292.371 155.279 292.4 154.9C292.9 150.8 293.1 146.3 293.1 141.2C293.1 136.4 291.9 117.2 289.5 83.4C287 49.5 285.8 30.6 285.8 26.5ZM227.2 6.8C227.2 9.40001 226 12.3 224.1 15.4C221.9 18.5 219.3 21.4 215.9 23.8C214.5 24.8 213.7 25.2 213.5 25.2L213.5 25C213.5 24.8 214 24.3 214.9 23.1C220.4 17.1 223.3 13.3 223.3 11.1C223.3 9.40001 222.3 8.5 220.7 8.5C219.7 8.5 218.8 8.7 218.1 9.2C217.4 9.39999 217.1 9.7 216.9 9.7C216.9 9.7 216.7 9.7 216.7 9.5C216.7 9.5 216.7 9 216.9 8.10001C217.9 4 219.8 2.10001 223.1 2.10001C225.8 2 227.2 3.7 227.2 6.8ZM335.2 14.1C335.2 16.7 337.3 19.1 341.9 21.5C338.6 25.1 333.5 28.9 326.5 33.2C320.5 36.5 314.8 39.9 309 43.5C307.6 44.2 307.1 45 307.1 45.2C307.1 45.2 307.1 45.4 307.3 45.4C307.5 45.4 308.5 45.2 309.7 44.7C317.4 41.9 321.7 40.2 322.7 39.7C326.3 38.3 330.3 35.6 334.9 32.5C338.7 29.6 341.9 26.5 344.5 22.9C346.7 24.1 348.1 25.3 348.6 26.3C350.7 23.5 351.7 21.3 351.7 20.1C351.2 19.1 349.8 17.9 347.4 16.7C348.6 13.3 349.1 10.4 349.1 7.80002C349.1 5.00002 348.4 3.30002 346.7 2.80002C344.8 2.10001 342.4 3.10001 339.5 5.70001C336.6 8.10001 335.2 11 335.2 14.1ZM191.5 131.1C192.7 137.8 195.1 142.4 198.2 144.5C200.1 145.5 202.8 146.2 206.4 146.2L206.4 146.3C213.359 146.282 219.526 144.381 225 140.5C227.2 139.1 232 134.5 239.6 126.8C240.3 126.1 241.3 125.6 242.2 125.6C243.2 125.6 243.4 126.1 243.4 127C243.4 127.5 243.4 128.2 243.2 129.2C243 130.2 243 130.9 243 131.4C243 134.3 243.5 136.7 244.9 138.6C246.3 141 248.7 142.4 251.9 142.4L251.9 157.1C243.3 157.1 238.7 152.1 238.2 142C238.2 141.5 238 141.3 237.5 141C236.8 141.2 236.1 141.5 235.3 142.4C230.3 148.2 227.1 151.5 225.7 152.7C219.5 158.2 213 160.9 206.3 160.9L206.3 160.8C201.048 160.785 196.982 159.586 194.2 157.4C189.9 154.3 187.2 148.8 185.8 140.4C184.8 135.1 183.9 120 183.2 94.6C182.2 67.2 181.5 50.4 181 44.2C179.8 34.1 177.9 24.8 175.2 15.6C175.2 13.2 176.2 9.80002 178.1 5.00002C178.6 3.80002 178.8 3.10002 179.3 3.10002C179.5 3.10002 180 3.80002 180.5 4.80002C183.6 10.8 185.8 21.1 187.5 35.5C188.5 44.6 189.4 62.6 190.1 89.5C190.5 114.8 191.2 128.7 191.5 131.1ZM130 6.8C132.9 6.8 135.3 8.2 137.4 11.6C139.6 14.7 141.2 19 142 24.3C142.2 24.8 142.2 25 142.2 25.3L142.4 25.3C142.4 25.1 142.6 24.8 142.6 24.3C143.1 21.2 144.3 16.4 146 10.1C147.9 5.8 149.8 3.60001 152 3.60001C153.2 3.60001 154.4 4.3 155.4 5.8C156.4 7.2 156.8 8.2 156.8 9.2C156.8 9.7 156.8 10.6 156.3 11.6C155.8 13 155.3 13.8 154.9 13.8C154.7 13.8 154.2 13.1 153.2 12.1C152.5 11.1 151.5 10.7 150.6 10.7C148.7 10.7 147 15.3 145.3 24.4C144.6 28.5 143.6 31.4 142.9 33C142.2 34 141.7 34.7 141.2 34.7C140.7 34.7 140.7 34 140.5 33C140.7 31.3 139.8 28.2 137.9 23.6C136 18.8 134.8 16.6 133.8 16.6C133.3 16.6 133.1 16.6 132.8 17.1C132.6 17.3 132.3 17.6 131.6 17.6C130.6 17.6 129.7 16.9 128.2 15.7C126.8 14.5 126.3 13.5 126.3 12.8C126.3 12.6 126.8 11.4 128 9.40002C129.1 7.5 129.8 6.8 130 6.8ZM389.9 24.8C389.9 24.8 389.7 25.1 389.7 25.3C388 28.2 386.6 29.9 385 29.9C382.9 29.9 381.9 27.7 381.9 23.9C381.9 20.8 383.1 15.7 385.5 8.3C386 6.60001 386.2 5.60001 386.2 5.40001C385.9 5.40001 385.5 6.30002 384.5 8.00002C380.7 15 379 21.9 379 28.4C379 33.7 380.5 36.3 383.6 36.3C386.7 36.3 388.9 32.7 390.1 25.5C390.3 25.3 390.3 25 390.1 24.8C390.1 24.7093 390.1 24.6598 390.081 24.6513C390.059 24.6411 390.009 24.6907 389.9 24.8ZM345 10.9C345.3 12.3 345.3 13.8 344.8 15.2C341.2 13.5 339.3 12.1 339.2 10.8C339.2 10.4 339.6 9.89999 340.6 9.39999C341.6 8.89999 342.3 8.7 342.8 8.7C344 8.7 344.8 9.5 345 10.9ZM101.9 30.6C101.9 30.6 101.7 30.9 101.7 31.1C100 33.9 98.6 35.6 97 35.7C94.9 35.7 93.9 33.5 93.9 29.7C93.9 26.6 95.1 21.5 97.5 14.1C98 12.4 98.2 11.4 98.2 11.2C97.9 11.2 97.5 12.1 96.5 13.8C92.7 20.8 91 27.7 91 34.2C91 39.5 92.5 42.1 95.6 42.1C98.7 42.1 100.9 38.5 102.1 31.3C102.3 31.1 102.3 30.8 102.1 30.6C102.1 30.5093 102.1 30.4597 102.081 30.4513C102.059 30.4411 102.009 30.4906 101.9 30.6ZM195.5 50.7C214 44 233.2 36.8 253.3 29.3C253.478 29.2491 253.644 29.1916 253.794 29.1392C254.235 28.9861 254.551 28.8764 254.7 29.1C254.7 29.1 254.7 29.6 254.5 30.3C253.5 32.5 252.8 33.7 252.3 34.1C235.5 40.3 215.6 48 193 57.4C193.6 55.3 194.3 53.1 195.5 50.7ZM69.5 35.1C69.5 37.7 68.3 40.6 66.4 43.7C64.2 46.8 61.6 49.7 58.2 52.1C56.8 53.1 56 53.5 55.8 53.5L55.8 53.3C55.8 53.1 56.3 52.6 57.2 51.4C62.7 45.4 65.6 41.6 65.6 39.4C65.6 37.7 64.6 36.8 63 36.8C62 36.8 61.1 37 60.3999 37.5C59.7 37.7 59.3999 38 59.2 38C59.2 38 59 38 59 37.8C59 37.8 59 37.3 59.2 36.4C60.2 32.3 62.0999 30.4 65.3999 30.4C68.1 30.3 69.5 32 69.5 35.1ZM368.1 59.1C392.3 50 417.5 40.9 443.5 31.3C443.702 31.2422 443.888 31.1761 444.049 31.1186C444.447 30.9767 444.7 30.8866 444.7 31.1C444.9 31.1 444.9 31.6 444.7 32.3C443.7 34.5 443 35.7 442.5 36.1C442.3 36.3 430 40.9 406.3 49.8C382.1 58.7 368.4 64.2 365.7 65.9C366.2 63.7 366.9 61.5 368.1 59.1ZM498.9 60.1C496.5 65.9 495.3 70.4 495.3 73.8C495.3 77.9 496.3 80 498.4 80C499.6 80 501 78.3 502.7 75.4C502.9 75.2 502.9 74.9 503.2 74.7C503.2 74.7 503.4 74.7 503.4 74.9L503.4 75.6C502 82.8 499.8 86.4 496.9 86.4C493.8 86.4 492.3 83.8 492.3 78.5C492.3 75.9 492.8 72.5 494.2 68.2C495.6 63.9 496.4 61.7 496.4 61.5C496.4 61 495.4 60.1 493.3 58.9C489.5 63.9 484.2 68.7 477.5 72.8C472.9 75.4 468.4 77.8 463.6 79.8C454.7 83.4 449.4 85.3 448.2 86C447 86.5 446.3 86.7 445.8 86.7C445.6 86.7 445.6 86.5 445.6 86.5C445.6 86 446.1 85.5 447.5 84.6C455.2 80.3 462.6 76 470.3 71.6C480.4 65.8 487.3 61 490.7 57.4C486.1 55 484 52.6 484 50C484 46.9 485.4 44 488.3 41.4C491.2 39 493.6 38 495.5 38.8C496.9 39.3 497.9 41 497.9 43.8C497.9 46.4 497.4 49.3 496.2 52.4C498.6 53.8 499.6 55.3 499.6 56.7C499.6 57.5 499.4 58.7 498.9 60.1ZM493.6 51.2C494.1 49.8 494.1 48.3 493.8 46.9C493.6 45.5 492.8 44.7 491.6 44.7C491.1 44.7 490.4 44.9 489.4 45.4C488.4 45.9 488 46.4 488 46.8C488.1 48.1 490 49.5 493.6 51.2ZM337.8 49.8L334 57.7C333.1 56.7 330.9 55.1 327.8 53.2C324.7 51 323 49.8 322.5 49.8C322.2 49.8 321.7 50.3 321.5 50.8L316.9 60.4C316.7 60.9 316.7 61.2 316.9 61.4C320.8 63.8 324.6 66.4 328.2 69.3C328.7 69.6 329.2 69.3 329.4 68.6C330.9 66.4 332.1 63.8 333.5 60.9C337.6 63.5 341.2 65.9 344.3 68.3C344.7 68.5 345.2 68.5 345.7 67.8C348.8 62.5 350.5 58.9 350.5 57.2C350.5 56.7 348.6 55.3 345 52.9C341.2 50.3 339.3 49.1 338.8 49.1C338.3 49.1 338 49.3 337.8 49.8ZM142.9 73.5C142.9 73.5 142.7 73.8 142.7 74C141.1 76.9 139.6 78.6 138 78.6C135.9 78.6 134.9 76.4 134.9 72.6C134.9 69.5 136.1 64.4 138.5 57C139 55.3 139.2 54.3 139.2 54.1C138.9 54.1 138.5 55 137.5 56.7C133.7 63.7 132 70.6 132 77.1C132 82.4 133.5 85 136.6 85C139.7 85 141.9 81.4 143.1 74.2C143.3 74 143.3 73.7 143.1 73.5C143.1 73.4093 143.1 73.3597 143.081 73.3513C143.059 73.3411 143.01 73.3902 142.9 73.4998L142.9 73.5ZM235.9 77.6C236.8 75.7 237.3 73.5 237.3 71.6C237.3 70.7 236.8 69.2 235.7 67.2C234.5 63.9 233.8 62.2 233.8 62.2C233.6 61.2 233.3 60 233.1 58.8C233.1 57.9 232.8 57.4 232.6 57.4C232.3 57.4 232.1 57.9 231.6 58.6C230.6 59.8 230.4 61 230.4 62.4C230.4 65 231.9 68.6 234.5 73.4C234.3 74.9 233.3 75.6 231.9 75.6C228.7 75.6 227.3 73.5 227.3 69.4C227.3 68 226.8 65.8 226.1 62.7C225.4 59.8 224.9 58.4 224.4 58.4C224.2 58.4 223.7 58.8 223.2 59.8C222.7 61 222.5 61.7 222.5 62.2C222.5 62.7 222.8 64.1 223.5 66.3C224 68.7 224.5 70.1 224.5 71.1C224.5 72.8 223.8 74.2 222.6 75.4C221.4 76.6 220.2 77.3 218.8 77.3C217.9 77.3 216.9 76.3 216.2 74.9C215.7 73.7 215.5 72.2 215.5 70.8C215.5 70.1 215.5 69.4 215.7 68.4C215.7 67.4 215.9 66.2 215.9 64.8C215.9 62.2 215.4 61 214.7 61C214.2 61 213.5 61.5 212.5 62.7C211.6 63.9 211.1 65.1 211.1 66.5C211.1 67.2 211.4 67.7 212.1 67.9C212.6 68.2 213.1 68.4 213.1 68.9L213.1 75.1C213.1 77.5 213.6 79.7 214.8 81.1C215.8 82.6 217 83.3 218.2 83.3C221.8 83.3 224.2 80.7 225.6 75.9C226.8 79.8 228.7 81.7 231.6 81.7C233.3 81.7 234.7 80.2 235.9 77.6ZM416.3 66.8C414.2 63.4 411.8 62 408.9 62C408.7 62 407.9 62.7 406.9 64.6C405.7 66.6 405.2 67.8 405.2 68C405.2 68.7 405.7 69.7 407.1 70.9C408.6 72.1 409.5 72.8 410.5 72.8C411.2 72.8 411.5 72.5 411.7 72.3C412 71.8 412.2 71.8 412.7 71.8C413.7 71.8 414.9 74 416.8 78.8C418.7 83.4 419.6 86.5 419.4 88.2C419.6 89.2 419.6 89.9 420.1 89.9C420.6 89.9 421.1 89.2 421.8 88.2C422.5 86.6 423.5 83.7 424.2 79.6C425.9 70.5 427.6 65.9 429.5 65.9C430.4 65.9 431.4 66.3 432.1 67.3C433.1 68.3 433.6 69 433.8 69C434.2 69 434.7 68.2 435.2 66.8C435.7 65.8 435.7 64.9 435.7 64.4C435.7 63.4 435.3 62.4 434.3 61C433.3 59.5 432.1 58.8 430.9 58.8C428.7 58.8 426.8 61 424.9 65.3C423.2 71.6 422 76.4 421.5 79.5C421.5 80 421.3 80.3 421.3 80.5L421.1 80.5C421.1 80.2 421.1 80 420.9 79.5C420.1 74.2 418.5 69.9 416.3 66.8ZM16.5 63.2C19.4 63.2 21.8 64.6 23.9 68C26.1 71.1 27.7 75.4 28.5 80.7C28.7 81.2 28.7 81.4 28.7 81.7L28.9 81.7C28.9 81.5 29.1 81.2 29.1 80.7C29.6 77.6 30.8 72.8 32.5 66.5C34.3999 62.2 36.3 60 38.5 60C39.7 60 40.8999 60.7 41.8999 62.2C42.8999 63.6 43.2999 64.6 43.2999 65.6C43.2999 66.1 43.2999 67 42.7999 68C42.2999 69.4 41.7999 70.2 41.3999 70.2C41.2 70.2 40.7 69.5 39.7 68.5C39 67.5 38 67.1 37.0999 67.1C35.2 67.1 33.4999 71.7 31.7999 80.8C31.0999 84.9 30.0999 87.8 29.3999 89.4C28.7 90.4 28.2 91.1 27.7 91.1C27.2 91.1 27.2 90.4 27 89.4C27.2 87.7 26.3 84.6 24.3999 80C22.5 75.2 21.2999 73 20.2999 73C19.7999 73 19.5999 73 19.2999 73.5C19.0999 73.7 18.7999 74 18.0999 74C17.0999 74 16.2 73.3 14.7 72.1C13.3 70.9 12.8 69.9 12.8 69.2C12.8 69 13.3 67.8 14.5 65.8C15.5 63.9 16.3 63.2 16.5 63.2ZM101.5 76.6C103.4 73.5 104.6 70.6 104.6 68C104.6 64.9 103.1 63.2 100.5 63.3C97.2 63.3 95.3 65.2 94.3 69.3C94.1 70.2 94.1 70.7 94.1 70.7C94.1 70.9 94.3 70.9 94.3 70.9C94.5 70.9 94.8 70.6 95.5 70.4C96.2 69.9 97.1 69.7 98.1 69.7C99.7 69.7 100.7 70.6 100.7 72.3C100.7 74.5 97.8 78.3 92.3 84.3C91.4 85.5 90.9 86 90.9 86.2L90.9 86.4C91.1 86.4 91.9 86 93.3 85C96.7 82.6 99.3 79.7 101.5 76.6ZM356.8 75.9C356.8 79.7 354.9 85 351 91.5C348.6 95.6 345 101.1 340.2 108.3C345 113.8 348.4 118.9 350 123.2C351 126.3 351.7 130.4 351.7 135C351.7 136.9 351.2 139.3 350.3 142.4C349.6 145.3 348.6 147.4 347.7 148.9C345.8 151.8 342.7 154.7 337.9 157.5C332.9 160.9 328.5 162.5 324.9 162.5C319.1 162.5 316.3 158.2 316.3 149.5C316.3 143.7 317.3 138 319.2 132.7C321.1 128.1 324.2 122.1 329.3 114.2C325 110.1 320.4 104.4 315.4 97.2C314.9 96.5 313.7 95.3 311.8 93.4C310.8 92.4 310.4 91.2 310.4 89.8C310.4 87.6 310.6 85.2 311.1 82.4C311.8 79.5 312.3 78.3 312.5 78.3C313.2 78.3 315.4 79.5 319.5 82.1C323.3 84.7 326.5 86.7 328.4 88.3C329.6 89 330.1 89.7 330.1 89.7L330.1 89.9C330.1 90.1 329.4 90.4 327.7 90.4C324.6 90.4 322.9 90.6 322.9 90.9C322.9 91.1 323.4 91.6 324.3 92.8C328.1 97.6 332 101.2 336.1 104.1C337.1 102.7 340.4 97.9 345.7 89.7C350.3 82.7 352.9 77.9 354.1 75.1C355.3 72.2 356 71 356.5 71C356.6 71.1 356.8 72.6 356.8 75.9ZM374.3 104.3C375.3 105.5 376 107.1 376.5 109.3C377.7 113.4 380.1 119.1 383.4 126.2C386.3 132.5 387.7 135.8 387.7 136.3C387.7 138.3 384.8 141.4 379.3 145.7C374.392 149.348 367.988 153.524 360.088 158.17C360.81 153.641 362.107 148.174 364 141.7C364.3 140.2 364.5 139 364.5 138.3C364.5 137.8 364.5 137.6 364.3 137.6C363.8 137.6 363.3 138.6 362.1 141C359.694 147.496 357.94 153.81 356.923 160.009C353.795 161.808 350.454 163.673 346.9 165.6C337.5 170.7 325.8 176.2 311.6 182.2C291.2 190.8 280.1 195.6 278.2 196.6C272.9 199 270.3 200.5 270.3 200.7C270.3 200.9 270.3 200.9 270.8 200.9C271.8 200.9 274.2 200.6 278 199.9C281.6 199.4 290.7 197.3 305.1 193.9C318.8 190.6 326 188.9 326.5 188.9C329.1 188.9 337.5 184.8 351.9 176.4C353.28 175.627 354.626 174.858 355.939 174.093C356.235 181.187 358.207 187.304 361.7 191.9C366 197.9 372.2 201 380.4 201C390 201 401 196 414 186.4C422.7 179.9 430.6 172.4 437.8 163.8C440.9 160.2 443.5 155.6 445.2 150.1C446.7 145.7 447.4 142.4 447.4 139.5L447.9 139L447.9 125.8C446.9 126.3 446.4 126.3 446.2 126.3C443.8 121.3 440.9 117.2 437.8 113.6C434.2 110 431.1 108.1 428 108.1C423.9 108.1 420.1 110.2 416.5 114.3C412.7 119.1 411 124.4 411 130.4C411 138.3 416.8 142.4 428.3 142.4C433.6 142.4 437.9 141.7 440.8 140.7C441.3 142.4 441.8 144.1 441.8 145.5C441.8 147.7 438.2 152 431.2 158.8C423.5 166 415.6 172 407.4 177C397 183.3 388.4 186.4 381.2 186.4C372.8 186.4 366.8 183.7 363 178.7C361.606 176.609 360.617 174.247 360.032 171.655C372.386 164.131 381.404 157.041 387.2 150.5C389.2 148.3 390.6 145.2 391.8 141.1C392.7 137.5 393.2 134.6 393.2 132.2C393.2 127.1 391.7 121.6 389.1 114.9C387.4 111.1 385.5 107 383.8 102.9C386.7 103.6 388.6 104.1 389.3 104.1C389.8 104.1 390 103.8 390 103.6C390 103.1 389.3 102.2 387.6 100.5C383.6 96.4 380 92.5 376.6 88.7C376.1 88.2 375.8 88 375.6 88C375.1 88 374.8 88.5 374.6 89.7C374.1 90.9 373.9 93.1 373.4 96.2C372.9 99.5 372.9 101.2 372.9 101.7C373.1 102.1 373.6 102.9 374.3 104.3ZM219.8 107.6C219.6 107.4 219.6 107.1 219.8 106.6L224.4 97C224.6 96.5 225.1 96.3 225.4 96.3C225.9 96.3 228 97.5 231.6 99.9C235.4 102.5 237.4 104 237.4 104.5C237.4 106.2 235.7 109.5 232.4 114.8L232.371 114.84C231.892 115.511 231.69 115.794 231.2 115.5C227.5 112.7 223.6 110 219.8 107.6ZM142.8 115C138.9 120.1 134.1 122.7 127.9 122.7C122.8 122.7 118.5 121.3 115.6 118.1C114.1 116.7 112.4 114.3 111 110.9C110.1 109.5 109.6 108.5 109.1 108.5C108.6 108.5 108.4 109.2 107.9 110.2C106 116.4 105 119.8 105 120.5C105 121.7 105.4 123.1 106.4 124.8C112 135.1 114.6 143.7 114.6 150.2C114.6 152.6 111 156.6 103.6 162.4C95.2 168.6 85.8 173.9 75.5 178.2C63 183.5 51 186.1 39.5 186.1C26.8 186.1 16.9 181.8 10.2 173.6C5.2 167.4 2.8 160.4 2.8 153C2.8 151.6 3.8 144.6 6.2 132.4C6.39734 131.479 6.46487 130.731 6.34565 130.327C9.05467 129.784 10.9986 126.209 12.1 119.6C12.3 119.4 12.3 119.1 12.1 118.9C12.1 118.809 12.1 118.76 12.0813 118.751C12.0589 118.741 12.0093 118.791 11.9 118.9C11.9 118.9 11.7 119.2 11.7 119.4C9.99997 122.3 8.59998 123.9 6.99997 124C4.89996 124 3.89996 121.8 3.89996 118C3.89996 114.9 5.09998 109.8 7.49997 102.4C7.99997 100.7 8.19997 99.7 8.19997 99.5C7.89996 99.5 7.49997 100.4 6.49997 102.1C2.69997 109.1 0.999969 116 0.999969 122.5C0.999969 127.632 2.40614 130.232 5.30925 130.392C4.95792 130.76 4.59432 131.376 4.3 132.2C2.89999 136.1 1.7 140.9 0.699997 146.4C0.199997 150 0 153.4 0 157C0 168.7 2.39999 178.3 7.7 186C14.5 195.9 25.3 200.9 39.9 200.9C53.6 200.9 68.5 196.4 84.3 187.5C96.8 180.5 106.4 173.3 112.6 165.9C117.1 160.6 119.3 151 119.3 136.6C121.5 137.1 123.4 137.3 125.1 137.3C133.5 137.3 140.4 132.5 145.7 123.1C148.8 128.8 152.4 131.7 156.5 131.7C162 131.7 166.3 129 169.2 124C171.9 119.7 173.3 114.4 173.3 108.4C173.3 104.8 172.1 101.5 170.2 98.5999C169.5 97.6999 169 97.3999 168.5 97.1999C168 97.5 167.8 98 167.3 99.3999C165.9 104 164.9 107.3 164.7 109.5C166.8 113.1 167.8 115.1 167.8 115.3C166.8 116.9 164.7 117.9 161.3 117.9C158.7 117.9 156.5 116.9 154.6 115.5C152.7 114.1 152 112.4 152 110.7C152 110.988 152.207 110.085 152.696 107.954L152.696 107.954L152.696 107.953L152.696 107.952C152.887 107.122 153.12 106.105 153.4 104.9C153.4 104.5 153.6 104 153.6 103.5C153.6 102.6 153.1 102.1 152.4 102.1C151.9 102.1 151.2 102.5 150.2 103.5C147.8 107.3 145.4 111.2 142.8 115ZM83 109.3C83.5 108.3 83.7 107.4 83.7 106.9C83.7 105.9 83.2 105 82.3 103.5C81.1 102 79.9 101.3 78.7 101.3C76.5 101.3 74.6 103.5 72.7 107.8C71 114.1 69.8 118.9 69.6 122C69.3 122.5 69.1 122.8 69.1 123C69.1 123.091 69.1 123.14 69.0814 123.149C69.0589 123.159 69.0093 123.109 68.9 123L68.9 122C67.9 116.7 66.5 112.7 64.1 109.3C61.9 105.9 59.5 104.5 56.9 104.5C56.6 104.5 55.9 105.2 54.7 107.1C53.5 109.1 53 110.3 53 110.5C53 111.2 53.7 112.2 54.9 113.4C56.4 114.6 57.3 115.3 58.3 115.3C59 115.3 59.5 115 59.5 114.8C59.7 114.3 60 114.3 60.7 114.3C61.4 114.3 62.6 116.5 64.5 121.3C66.4 125.9 67.4 129 67.4 130.7C67.4 131.192 67.4726 131.611 67.5702 131.91C67.1807 132.361 66.7246 132.892 66.2 133.5C64.5 135.4 62.4 137.5 59.5 139.7C47.5 147.6 38.4 153.2 31.9 157C30.7 157.7 30 158.5 30 158.7C30 158.7 30 158.9 30.2 158.9C30.7 158.9 31.4 158.7 32.6 158.2C40.6 155.4 44.9 153.7 45.6 153.2C49.2 151.6 53.2 149.2 57.8 145.8C62.9 142.2 66.2 138.3 67.9 134.5C68.3641 133.262 68.7218 132.291 68.9594 131.585C69.1557 131.333 69.3667 131.033 69.6 130.7C70.6 129.1 71.3 126.2 72 122.1C73.7 113 75.6 108.4 77.5 108.4C78.2 108.4 79.2 108.8 79.9 109.8C80.9 110.8 81.4 111.5 81.6 111.5C82.3 111.5 82.8 110.7 83 109.3ZM68.9594 131.585C68.5668 132.089 68.2334 132.4 67.9 132.4C67.7984 132.4 67.671 132.219 67.5702 131.91C68.5913 130.729 69.1552 130.1 69.3 130.1L69.3 130.3C69.3 130.494 69.1827 130.922 68.9594 131.585ZM474 110.8C473.3 110.8 472.3 111.2 471.1 112.2C467.2 115.5 463.4 118.4 459.5 120.4C458.3 121.2 454.2 123.1 448 126.2L448 139.4C456.4 135.5 462.9 131.5 466.7 126.9C466.7 137.9 471.5 143.7 481.6 143.7C490 143.7 496.9 138.9 502.2 129.3C505.4 135.1 509 138.2 512.8 138.2C518.6 138.2 522.9 135.6 525.8 130.3C528.5 125.9 529.9 120.9 529.9 114.9C529.9 111 528.7 107.7 526.8 104.8C526.1 103.8 525.6 103.6 525.1 103.6C524.6 103.6 524.1 104.4 523.9 105.8C522.5 110.3 521.5 113.7 521.3 115.6C523.4 119.2 524.4 121.2 524.4 121.4C523.4 123 521.3 124 517.9 124C515.3 124 512.9 123 511.2 121.6C509.3 120.2 508.3 118.5 508.3 116.8C508.3 117.3 509 115.4 510 111.3C510.5 109.2 510.3 108.2 509.3 108.2C508.6 108.2 507.9 108.6 506.9 109.6C504.5 113.5 501.9 117.3 499.5 121.4C495.6 126.5 490.6 129.1 484.6 129.1C477.1 129.1 473.3 126.2 473.3 120.9C473.3 119.7 473.5 118.2 474 116.3C474.5 114.4 474.7 112.9 474.7 112.2C474.7 111.3 474.5 110.8 474 110.8ZM347.5 135C344.9 129.7 340.3 124.2 334.1 118.9C331.9 121.1 329.3 125.1 325.9 130.9C322.1 137.4 320.4 141.5 320.4 143.6C320.4 146.5 322.3 147.9 326.6 147.9C328.5 147.9 330.9 147.2 334 146C338.3 144.1 342.4 141.4 345.8 138.1C347.2 136.7 347.7 135.7 347.5 135ZM434.3 128C430.7 123.4 427.6 121.3 424.7 121.3C420.4 121.3 418.5 122.3 418.5 124.7C418.5 127.6 421.4 129 427.1 129C429.13 129 431.329 128.574 433.7 128.116C433.899 128.077 434.099 128.039 434.3 128ZM460.5 191.6C457.9 192.3 456.4 192.8 455.9 192.8L455.9 192.6C455.9 192.6 456.9 191.9 458.8 190.7C460.7 189.5 463.6 187.6 467.7 184.5C469.6 182.6 472.5 179.5 476.1 175.1C478.5 172.2 481.1 169.6 484 167.7C487.6 165.1 491 163.9 494.6 163.9C495.3 163.9 496.5 164.1 498 164.6C499.2 165.1 500.4 165.3 501.4 165.3C503.3 165.3 504.8 164.6 506 163.1C506.7 161.7 507.7 160.5 508.6 159C509.1 158 509.8 157.6 510.3 157.6C510.5 157.6 510.5 157.8 510.5 158.3C510.5 158.8 510.3 160 509.8 161.4C509.3 162.1 511.2 162.4 514.8 162.4C515.3 162.4 515.5 162.4 515.5 162.2C515.5 162.2 515.3 161.2 514.8 159.6C514.6 159.1 514.8 158.4 515.5 157.4L515.58 157.264C516.522 155.663 516.908 155.005 517.2 155.2C518.2 155.9 518.6 157.4 518.6 159C518.6 160.6 518.1 162.4 517.4 164.3C516.7 166.5 516 167.7 515.5 168.1C513.8 169.1 511.2 168.8 507.6 167.1C504.7 170 501.8 171.7 499 171.7C498.3 171.7 497.1 171.5 495.9 171C494.7 170.5 493.7 170.3 493 170.3C488.2 170.3 483.2 172.5 478.1 177.3L467.3 188.1C465.1 189.7 462.9 190.9 460.5 191.6ZM111.7 201.2C112.2 201.2 113.7 200.7 116.3 200C118.7 199.3 120.9 198.1 123.1 196.5L133.9 185.7C139 180.9 144 178.7 148.8 178.7C149.5 178.7 150.5 178.9 151.7 179.4C152.9 179.9 154.1 180.1 154.8 180.1C157.6 180.1 160.5 178.4 163.4 175.5C167 177.2 169.6 177.5 171.3 176.5C171.8 176.1 172.5 174.9 173.2 172.7C173.9 170.8 174.4 169.1 174.4 167.4C174.4 165.8 174 164.3 173 163.6C172.708 163.405 172.322 164.063 171.38 165.664L171.3 165.8C170.6 166.8 170.4 167.5 170.6 168C171.1 169.6 171.3 170.6 171.3 170.6C171.3 170.8 171.1 170.8 170.6 170.8C167 170.8 165.1 170.5 165.6 169.8C166.1 168.4 166.3 167.2 166.3 166.7C166.3 166.2 166.3 166 166.1 166C165.6 166 164.9 166.4 164.4 167.4C163.5 168.9 162.5 170.1 161.8 171.5C160.6 173 159.1 173.7 157.2 173.7C156.2 173.7 155 173.5 153.8 173C152.3 172.5 151.1 172.3 150.4 172.3C146.8 172.3 143.4 173.5 139.8 176.1C136.9 178 134.3 180.6 131.9 183.5C128.3 187.9 125.4 191 123.5 192.9C119.4 196 116.5 197.9 114.6 199.1C112.7 200.3 111.7 201 111.7 201L111.7 201.2ZM228.9 173.6C231.8 173.6 234.2 175 236.3 178.4C238.5 181.5 240.1 185.8 240.9 191.1C241.1 191.6 241.1 191.8 241.1 192.1L241.3 192.1C241.3 191.9 241.5 191.6 241.5 191.1C242 188 243.2 183.2 244.9 176.9C246.8 172.6 248.7 170.4 250.9 170.4C252.1 170.4 253.3 171.1 254.3 172.6C255.3 174 255.7 175 255.7 176C255.7 176.5 255.7 177.4 255.2 178.4C254.7 179.8 254.2 180.6 253.8 180.6C253.6 180.6 253.1 179.9 252.1 178.9C251.4 177.9 250.4 177.5 249.5 177.5C247.6 177.5 245.9 182.1 244.2 191.2C243.5 195.3 242.5 198.2 241.8 199.8C241.1 200.8 240.6 201.5 240.1 201.5C239.6 201.5 239.6 200.8 239.4 199.8C239.6 198.1 238.7 195 236.8 190.4C234.9 185.6 233.7 183.4 232.7 183.4C232.2 183.4 232 183.4 231.7 183.9C231.5 184.1 231.2 184.4 230.5 184.4C229.5 184.4 228.6 183.7 227.1 182.5C225.7 181.3 225.2 180.3 225.2 179.6C225.2 179.4 225.7 178.2 226.9 176.2C227.9 174.3 228.7 173.6 228.9 173.6ZM200.4 191.6C202.3 188.5 203.5 185.6 203.5 183C203.5 179.9 202 178.2 199.4 178.3C196.1 178.3 194.2 180.2 193.2 184.3C193 185.2 193 185.7 193 185.7C193 185.9 193.2 185.9 193.2 185.9C193.4 185.9 193.7 185.6 194.4 185.4C195.1 184.9 196 184.7 197 184.7C198.6 184.7 199.6 185.6 199.6 187.3C199.6 189.5 196.7 193.3 191.2 199.3C190.3 200.5 189.8 201 189.8 201.2L189.8 201.4C190 201.4 190.8 201 192.2 200C195.6 197.6 198.2 194.7 200.4 191.6Z" id="Group" fill="#595959" fill-rule="evenodd" stroke="none" clip-path="url(#clip_1)" />
  </g>
</svg>