<?xml version="1.0" encoding="utf-8"?>
<svg width="521.80005px" height="205.30008px" viewBox="0 0 521.80005 205.30008" version="1.1" xmlns:xlink="http://www.w3.org/1999/xlink" xmlns="http://www.w3.org/2000/svg">
  <defs>
    <path d="M521.8 0L521.8 0L521.8 205.3L0 205.3L0 0L521.8 0Z" id="path_1" />
    <clipPath id="clip_1">
      <use xlink:href="#path_1" clip-rule="evenodd" fill-rule="evenodd" />
    </clipPath>
  </defs>
  <g id="Surah_14_of_114_(modified)">
    <path d="M521.8 0L521.8 0L521.8 205.3L0 205.3L0 0L521.8 0Z" id="Surah_14_of_114_(modified)" fill="none" stroke="none" />
    <path d="M274.3 25C274.3 20.2 273.6 16.4 272.1 13.2C272.1 11.5 273.3 7.39999 276.2 1.2C276.4 0.5 276.7 0 276.9 0C277.4 0 277.6 0.5 278.1 1.2C278.8 2.89999 280.5 7.39999 283.4 14.9C286.5 22.8 288.2 27.6 288.7 29.5C289.2 30.7 289.2 31.9 289.2 32.4C289.2 34.6 287.3 33.4 283 28.6C282.5 27.9 282.3 28.4 282.3 29.6C282.3 30.1 283.5 45 285.7 74.7C287.9 104.2 288.8 120.8 288.8 124.6C288.8 135.9 287.1 146 283.8 154.6C282.8 156.3 282.4 157.5 281.9 158.4C281.2 159.6 280.9 159.6 280.7 158.9C280.529 158.046 280.65 156.535 280.814 154.493C280.842 154.144 280.871 153.779 280.9 153.4C281.4 149.3 281.6 144.8 281.6 139.7C281.6 134.9 280.4 115.7 278 81.9C275.5 48 274.3 29 274.3 25ZM205.9 26.4C205.9 21.6 205.2 17.8 203.7 14.6C203.7 12.9 204.9 8.8 207.8 2.60001C208 1.90001 208.3 1.40001 208.5 1.40001C209 1.40001 209.2 1.90001 209.7 2.60001C210.4 4.3 212.1 8.8 215 16.3C218.1 24.2 219.8 29 220.3 30.9C220.8 32.1 220.8 33.3 220.8 33.8C220.8 36 218.9 34.8 214.6 30C214.1 29.3 213.9 29.8 213.9 31C213.9 31.5 215.1 46.4 217.3 76.1C219.5 105.6 220.4 122.2 220.4 126C220.4 137.3 218.7 147.4 215.4 156C214.4 157.7 214 158.9 213.5 159.8C212.8 161 212.5 161 212.3 160.3C212.129 159.446 212.25 157.936 212.414 155.893C212.442 155.544 212.471 155.18 212.5 154.8C213 150.7 213.2 146.2 213.2 141.1C213.2 136.3 212 117.1 209.6 83.3C207.1 49.4 205.9 30.5 205.9 26.4ZM186.5 24C186.5 24 186.3 24.3 186.3 24.5C184.6 27.4 183.1 29 181.6 29.1C179.5 29.1 178.5 26.9 178.5 23.1C178.5 20 179.7 14.9 182.1 7.5C182.6 5.8 182.8 4.8 182.8 4.60001C182.5 4.60001 182.1 5.50002 181.1 7.20001C177.3 14.2 175.6 21.1 175.6 27.6C175.6 32.9 177.1 35.5 180.2 35.5C183.3 35.5 185.5 31.9 186.7 24.7C186.9 24.5 186.9 24.2 186.7 24C186.7 23.9093 186.7 23.8598 186.681 23.8513C186.659 23.8411 186.609 23.8906 186.5 24ZM326.9 18C326.9 20.6 329 23 333.6 25.4C330.3 29 325.2 32.9 318.2 37.1C312.2 40.4 306.5 43.8 300.7 47.4C299.3 48.1 298.8 48.9 298.8 49.1C298.8 49.1 298.8 49.3 299 49.3C299.2 49.3 300.2 49.1 301.4 48.6C309.1 45.8 313.4 44.1 314.4 43.6C318 42.2 322 39.5 326.6 36.4C330.4 33.5 333.6 30.4 336.2 26.8C338.4 28 339.8 29.2 340.3 30.2C342.4 27.4 343.4 25.2 343.4 24C342.9 23 341.5 21.8 339.1 20.6C340.3 17.2 340.8 14.3 340.8 11.7C340.8 8.90002 340.1 7.20003 338.4 6.70003C336.5 6.00002 334.1 7.00002 331.2 9.60002C328.3 12 326.9 14.9 326.9 18ZM336.7 14.9C337 16.3 337 17.8 336.5 19.2C332.9 17.5 331 16.1 330.9 14.8C330.9 14.4 331.3 13.9 332.3 13.4C333.3 12.9 334 12.7 334.5 12.7C335.7 12.7 336.5 13.5 336.7 14.9ZM378.5 32.1C378.5 32.1 378.3 32.4 378.3 32.6C376.6 35.5 375.1 37.2 373.6 37.2C371.5 37.2 370.5 35 370.5 31.2C370.5 28.1 371.7 23 374.1 15.6C374.6 13.9 374.8 12.9 374.8 12.7C374.5 12.7 374.1 13.6 373.1 15.3C369.3 22.3 367.6 29.2 367.6 35.7C367.6 41 369.1 43.6 372.2 43.6C375.3 43.6 377.5 40 378.7 32.8C378.9 32.6 378.9 32.3 378.7 32.1C378.7 32.0093 378.7 31.9598 378.681 31.9513C378.659 31.9411 378.609 31.9907 378.5 32.1ZM110.7 18.7C113.6 18.7 116 20.1 118.1 23.5C120.3 26.6 121.9 30.9 122.7 36.2C122.9 36.7 122.9 36.9 122.9 37.2L123.1 37.2C123.1 37 123.3 36.7 123.3 36.2C123.8 33.1 125 28.3 126.7 22C128.6 17.7 130.5 15.5 132.7 15.5C133.9 15.5 135.1 16.2 136.1 17.7C137.1 19.1 137.5 20.1 137.5 21.1C137.5 21.6 137.5 22.5 137 23.5C136.5 24.9 136 25.7 135.6 25.7C135.4 25.7 134.9 25 133.9 24C133.2 23 132.2 22.6 131.3 22.6C129.4 22.6 127.7 27.2 126 36.3C125.3 40.4 124.3 43.3 123.6 44.9C122.9 45.9 122.4 46.6 121.9 46.6C121.4 46.6 121.4 45.9 121.2 44.9C121.4 43.2 120.5 40.1 118.6 35.5C116.7 30.7 115.5 28.5 114.5 28.5C114 28.5 113.8 28.5 113.5 29C113.3 29.2 113 29.5 112.3 29.5C111.3 29.5 110.4 28.8 108.9 27.6C107.5 26.4 107 25.4 107 24.7C107 24.5 107.5 23.3 108.7 21.3C109.7 19.4 110.4 18.7 110.7 18.7ZM265.7 29.3C250.6 34.8 236.2 40.1 222.5 44.9C221.3 47.3 220.6 49.4 220.1 51.6C237.2 44.4 252 38.7 265 34.1C265.5 33.7 266.2 32.5 266.9 30.3C267.3 29.6 267.3 29.1 267.1 29.1C266.977 28.9155 266.854 28.9579 266.545 29.0644C266.352 29.1311 266.085 29.223 265.7 29.3ZM360 63.1C384.2 54 409.4 44.9 435.4 35.3C435.602 35.2422 435.788 35.1761 435.949 35.1186C436.347 34.9768 436.6 34.8866 436.6 35.1C436.8 35.1 436.8 35.6 436.6 36.3C435.6 38.5 434.9 39.7 434.4 40.1C434.2 40.3 421.9 44.9 398.2 53.8C374 62.7 360.3 68.2 357.6 69.9C358.1 67.7 358.8 65.5 360 63.1ZM194 97C195.9 93.4 197.1 88.8 197.1 83.3C197.1 77 194.9 72 190.8 68.0001C189.1 66.6 185.8 64.2 180.5 61.3C176.4 59.1001 172.1 56.0001 167.5 51.7001C168.7 52.0001 169.9 52.2001 170.9 52.2001C173.3 52.2001 174.5 51.8001 174.5 50.8001C174.5 50.1001 173.8 49.4001 172.1 48.4001L158.2 41.4001C156.8 40.6001 156.1 40.4001 155.6 40.4001C155.1 40.4001 154.8 40.9001 154.6 42.3001C153.7 46.9001 153.4 50.5001 153.9 53.1001C150.5 56.0001 147.9 59.6001 145.7 63.9001C142.5 69.6 141.1 76.1 141.1 83.3C141.1 86.9 142.1 90.5 144 94.1C140.7 95.5 136.6 96.5 131.8 96.5L131.8 96.3C126.5 96.5 122.4 94.6 119.3 91C117.6 89.3 116 85.9 113.8 80.9C112.4 77.5 110.9 75.6 109.5 75.6C105.6 75.6 101.3 78.7 96.7 84.6C91.4 91.6 88.6 99.5 87.6 108.4C87.6 110.666 88.0459 113.379 89.1061 116.705C89.102 116.737 89.1 116.768 89.1 116.8C89.8 119.2 90.3 120.6 90.8 121.6C87.5 121.6 82.4 123.3 75.7 126.4C66.8 130.9 57.4 137.2 47.6 145.1C41.6 150.4 35.6 155.4 29.6 160.7C24.8 164.3 19.5 166.2 14 166.2C10.7 166.2 7.99999 165 6.09999 162.6C4.19998 160.2 3.49998 157 3.49998 153.2C3.49998 148.2 4.89999 141.2 8.29999 132.6C10.3503 126.912 11.7883 122.755 12.5269 120.187C12.6486 120.196 12.773 120.2 12.9 120.2C16 120.2 18.2 116.6 19.4 109.4C19.6 109.2 19.6 108.9 19.4 108.7C19.4 108.609 19.4 108.56 19.3814 108.551C19.3589 108.541 19.3093 108.591 19.2 108.7C19.2 108.7 19 109 19 109.2C17.3 112.1 15.9 113.8 14.3 113.8C12.2 113.8 11.2 111.6 11.2 107.8C11.2 104.7 12.4 99.6 14.8 92.2C15.3 90.5 15.5 89.5 15.5 89.3C15.2 89.3 14.8 90.2 13.8 91.9C9.99998 98.9 8.29999 105.8 8.29999 112.3C8.29999 116.195 9.10999 118.631 10.7697 119.65C3.5253 133.846 0 145.495 0 154.5C0 161 1.7 166.5 5.5 171.1C9.10001 175.4 13.5 177.8 18.5 177.8C22.8 177.8 27.9 175.7 33.3 171.3C40.8 165.3 48.2 159 55.9 152.8C70.6 141.3 83 135.5 93.6 135.5C101.2 135.5 107.7 136.9 113 139.8C114.9 141 115.9 141 116.1 139.8L117.8 130.2C118.3 128.3 117.4 126.8 115.2 126.1C110.4 124.4 106.1 122.3 102 119.4C98.6 117.3 96.7 115.3 96 113.9C95.9211 113.801 95.7992 113.73 95.6399 113.686C93.48 111.153 92.4 108.867 92.4 106.4C92.4 103.5 94.3 100.2 98.4 96.1C102 92.2 104.7 90.3 106.6 90.3C107.8 90.3 109.2 92.2 110.9 95.6C112.8 100.4 115 103.8 116.9 105.7C120.8 109.3 125.6 111.2 131.8 111.2L131.8 111.1C135.4 111.1 139.5 109.9 144.5 107.7C149 105.8 153.1 103.4 156.7 100.5C163.9 102.7 171.4 103.9 178.8 103.9C183.6 103.9 187 103.2 189.4 102C190.9 101.1 192.6 99.4 194 97ZM490.6 64.3C488.2 70.1 487 74.6 487 78C487 82.1 488 84.2 490.1 84.2C491.3 84.2 492.7 82.5 494.4 79.6C494.6 79.4 494.6 79.1 494.9 78.9C494.9 78.9 495.1 78.9 495.1 79.1L495.1 79.8C493.7 87.0001 491.5 90.6 488.6 90.6C485.5 90.6 484 88 484 82.7C484 80.1 484.5 76.7 485.9 72.4001C487.3 68.1001 488.1 65.9001 488.1 65.7C488.1 65.2 487.1 64.3 485 63.1C481.2 68.1 475.9 72.9 469.2 77C464.6 79.6 460.1 82 455.3 84C446.4 87.6 441.1 89.5 439.9 90.2C438.7 90.7 438 90.9001 437.5 90.9001C437.3 90.9001 437.3 90.7 437.3 90.7C437.3 90.2 437.8 89.7 439.2 88.8C446.9 84.5001 454.3 80.2 462 75.8C472.1 70.0001 479 65.2 482.4 61.6C477.8 59.2 475.7 56.8 475.7 54.2C475.7 51.1 477.1 48.2 480 45.6C482.9 43.2 485.3 42.2 487.2 43C488.6 43.5 489.6 45.2 489.6 48C489.6 50.6 489.1 53.5 487.9 56.6C490.3 58 491.3 59.5 491.3 60.9C491.3 61.7 491.1 62.9 490.6 64.3ZM72.3 56.4C81.9 53 92.2 49.2 103.3 45.4C103.685 45.323 103.952 45.2311 104.145 45.1644C104.454 45.0579 104.577 45.0155 104.7 45.2C104.9 45.2 104.9 45.7 104.5 46.4C103.8 48.6 103.1 49.8 102.6 50.2C93 53.6 82.2 57.6 70 63.2C70.3 61 71.1 58.8 72.3 56.4ZM39.3 64.8C41 68.9 42.2 72.2 42.7 75.1C40.6 76.1 39.1 79.2 38.5 84.3C38.3 85.5 38.3 86 38.5 86C38.7 86 39.2 85.3 40.4 84.1C41.4 82.9 42.1 82.2 42.6 82.2C43.8 82.2 45 82.7 46.2 83.9C43.1 84.8 41.2 85.8 40 86.5C37.8 88.4 36.6 91.3 36.6 95.4C36.6 96.6 37.6 101.2 39 109.1C40.6 117 41.6 124 41.6 129.5C41.6 132.9 41.6 134.8 41.8 134.8C42 134.5 42.3 134.1 42.5 133.1C43 130 43.5 127.1 43.5 124.2C43.5 114.3 41.9 104.5 38.5 94.4C39.7 93.2 41.8 92 44.7 91C47.1 90.3 49.5 89.8 51.9 89.1C52.4 88.9 52.9 88.2 53.6 86.5C54.4 84.8 54.6 83.9 54.6 83.4C54.3 81.9 52.9 80.3 50.5 78.1C47.9 76.2 46 75 44.3 75C45.5 72.9 46.2 70 46.9 66.4C48.6 57.3 50.3 52.7 52.2 52.7C53.1 52.7 54.1 53.1 54.8 54.1C55.8 55.1 56.3 55.8 56.5 55.8C56.9 55.8 57.4 55 57.9 53.6C58.4 52.6 58.4 51.7 58.4 51.2C58.4 50.2 58 49.2 57 47.8C56 46.3 54.8 45.6 53.6 45.6C51.4 45.6 49.5 47.8 47.6 52.1C45.9 58.4 44.7 63.2 44.2 66.3C44.2 66.8 44 67.1 44 67.3L43.8 67.3C43.8 67 43.8 66.8 43.6 66.3C42.8 61 41.2 56.7 39 53.6C36.9 50.2 34.5 48.8 31.6 48.8C31.4 48.8 30.7 49.5 29.7 51.4C28.5 53.4 28 54.6 28 54.8C28 55.5 28.5 56.5 29.9 57.7C31.4 58.9 32.3 59.6 33.3 59.6C34 59.6 34.3 59.3 34.5 59.1C34.8 58.6 35 58.6 35.5 58.6C36.2 58.6 37.6 60.7 39.3 64.8ZM485.3 55.4C485.8 54 485.8 52.5 485.5 51.1C485.3 49.7 484.5 48.9 483.3 48.9C482.8 48.9 482.1 49.1 481.1 49.6C480.1 50.1 479.7 50.6 479.7 51C479.8 52.3 481.7 53.8 485.3 55.4ZM248.2 54.7C248.9 53.5 249.9 53 250.6 53C251.1 53 251.6 53.2 251.6 53.7C251.6 53.7 251.4 53.9 251.4 54.2C250.4 56.4 249.5 58.8 248.8 61.2C253.8 64.8 256.2 68.6 256 72.2C255.5 76.3 255 78.9 254.3 79.9C251.9 82.8 249.3 84.5 245.9 84.5C242.5 84.5 241.1 82.3 241.1 78.5C241.1 77.8 241.1 76.8 241.3 75.9C242.4 68.2 244.8 61.2 248.2 54.7ZM329.7 54L325.9 61.9C325 61 322.8 59.3 319.7 57.4C316.6 55.2 314.9 54 314.4 54C314.1 54 313.6 54.5 313.4 55L308.8 64.6C308.6 65.1 308.6 65.4 308.8 65.6C312.7 68 316.5 70.6 320.1 73.5C320.6 73.8 321.1 73.5 321.3 72.8C322.8 70.6 324 68 325.4 65.1C329.5 67.7 333.1 70.1 336.2 72.5C336.6 72.7 337.1 72.7 337.6 72C340.7 66.7 342.4 63.1 342.4 61.4C342.4 60.9 340.5 59.5 336.9 57.1C333.1 54.5 331.2 53.3 330.7 53.3C330.2 53.3 329.9 53.5 329.7 54ZM163.4 65.3C165.6 68.9 166.8 72 166.8 75.1C166.8 79.2 163.7 83 158 86.7C154.8 86.2 152.2 85.3 149.8 83.6C146.6 81.7 145.2 79.5 145.2 76.9C145.2 73.7 146.6 70.1 150 66.3C153.4 62.4 156 60.5 158.4 60.5C159.8 60.5 161.5 62.2 163.4 65.3ZM408.2 71C406.1 67.6 403.7 66.2 400.8 66.2C400.6 66.2 399.9 67 398.8 68.8C397.6 70.8 397.1 72 397.1 72.2C397.1 72.9 397.6 73.9 399 75.1C400.5 76.3 401.4 77 402.4 77C403.1 77 403.4 76.7 403.6 76.5C403.9 76 404.1 76 404.6 76C405.6 76 406.8 78.2 408.7 83C410.6 87.6 411.5 90.7 411.3 92.4C411.5 93.4 411.5 94.1 412 94.1C412.5 94.1 413 93.4 413.7 92.4C414.4 90.8 415.4 87.9 416.1 83.8C417.8 74.7 419.5 70.1 421.4 70.1C422.3 70.1 423.3 70.5 424 71.5C425 72.5 425.5 73.2 425.7 73.2C426.1 73.2 426.6 72.4 427.1 71C427.6 70 427.6 69.1 427.6 68.6C427.6 67.6 427.2 66.6 426.2 65.2C425.2 63.7 424 63 422.8 63C420.6 63 418.7 65.2 416.8 69.5C415.1 75.8 413.9 80.6 413.4 83.7C413.4 84.2 413.2 84.5 413.2 84.7L413 84.7C413 84.4 413 84.2 412.8 83.7C412 78.4 410.4 74.1 408.2 71ZM253.5 73.9C253.5 72.7 251.1 70.5 246.1 67.7C244.4 70.6 243.7 73.2 243.7 75.6C243.7 77 244.4 78 245.9 78C247.1 78 248.5 77.5 250.2 76.6C251.8 75.8 253 74.9 253.5 73.9ZM182.2 76.8C187 79.6 189.8 81.6 190.8 83C192 85.2 192.7 86.6 192.7 87.9C192.7 89.8 189.5 91 183.3 91C178.5 91 173.3 90.3 167.5 88.6C170.4 81.1 171.6 74.9 171.6 69.6C173.6 71.5 177.2 73.9 182.2 76.8ZM348.5 79.9C348.5 83.7 346.6 89 342.7 95.5C340.3 99.6 336.7 105.1 331.9 112.3C336.7 117.8 340.1 122.9 341.7 127.2C342.7 130.3 343.4 134.4 343.4 139C343.4 140.9 342.9 143.3 342 146.4C341.3 149.3 340.3 151.4 339.4 152.9C337.5 155.8 334.4 158.7 329.6 161.5C324.6 164.9 320.2 166.5 316.6 166.5C310.8 166.5 308 162.2 308 153.5C308 147.7 309 142 310.9 136.7C312.8 132.1 315.9 126.1 321 118.2C316.7 114.1 312.1 108.4 307.1 101.2C306.6 100.5 305.4 99.3 303.5 97.4C302.5 96.4 302.1 95.2 302.1 93.8C302.1 91.6 302.3 89.2 302.8 86.4C303.5 83.5 304 82.3 304.2 82.3C304.9 82.3 307.1 83.5 311.2 86.1C315 88.7 318.2 90.7 320.1 92.3C321.3 93 321.8 93.7 321.8 93.7L321.8 93.9C321.8 94.1 321.1 94.4 319.4 94.4C316.3 94.4 314.6 94.6 314.6 94.9C314.6 95.1 315.1 95.6 316 96.8C319.8 101.6 323.7 105.2 327.8 108.1C328.8 106.7 332.1 101.9 337.4 93.7C342 86.7 344.6 81.9 345.8 79.1C347 76.2 347.7 75 348.2 75C348.3 75.1 348.5 76.6 348.5 79.9ZM366.2 108.3C367.2 109.5 367.9 111.1 368.4 113.3C369.6 117.4 372 123.1 375.3 130.2C378.2 136.5 379.6 139.8 379.6 140.3C379.6 142.3 376.7 145.4 371.2 149.7C366.303 153.34 359.917 157.505 352.041 162.138C352.773 157.675 354.053 152.317 355.9 146C356.2 144.5 356.4 143.3 356.4 142.6C356.4 142.1 356.4 141.9 356.2 141.9C355.7 141.9 355.2 142.9 354 145.3C351.637 151.68 349.902 157.885 348.878 163.978C345.734 165.786 342.375 167.661 338.8 169.6C329.4 174.7 317.7 180.2 303.5 186.2C283.1 194.8 272 199.6 270.1 200.6C264.8 203 262.2 204.5 262.2 204.7C262.2 204.9 262.2 204.9 262.7 204.9C263.7 204.9 266.1 204.6 269.9 203.9C273.5 203.4 282.6 201.3 297 197.9C310.7 194.6 317.9 192.9 318.4 192.9C321 192.9 329.4 188.8 343.8 180.4C345.176 179.629 346.519 178.862 347.828 178.099C348.081 185.318 350.059 191.541 353.6 196.2C357.9 202.2 364.1 205.3 372.3 205.3C381.9 205.3 392.9 200.3 405.9 190.7C414.6 184.2 422.5 176.7 429.7 168.1C432.8 164.5 435.4 159.9 437.1 154.4C438.6 150 439.3 146.7 439.3 143.8L439.8 143.3L439.8 130.1C438.8 130.6 438.3 130.6 438.1 130.6C435.7 125.6 432.8 121.5 429.7 117.9C426.1 114.3 423 112.4 419.9 112.4C415.8 112.4 412 114.5 408.4 118.6C404.6 123.4 402.9 128.7 402.9 134.7C402.9 142.6 408.7 146.7 420.2 146.7C425.5 146.7 429.8 146 432.7 145C433.2 146.7 433.7 148.4 433.7 149.8C433.7 151.9 430.1 156.2 423.1 163.1C415.4 170.3 407.5 176.3 399.3 181.3C388.9 187.6 380.3 190.7 373.1 190.7C364.7 190.7 358.7 188 354.9 183C353.458 180.838 352.45 178.387 351.874 175.69C364.258 168.153 373.295 161.051 379.1 154.5C381.1 152.3 382.5 149.2 383.7 145.1C384.6 141.5 385.1 138.6 385.1 136.2C385.1 131.1 383.6 125.6 381 118.9C379.3 115.1 377.4 111 375.7 106.9C378.6 107.6 380.5 108.1 381.2 108.1C381.7 108.1 381.9 107.8 381.9 107.6C381.9 107.1 381.2 106.2 379.5 104.5C375.5 100.4 371.9 96.5 368.5 92.7C368 92.2 367.7 92 367.5 92C367 92 366.7 92.5 366.5 93.7C366 94.9 365.8 97.1 365.3 100.2C364.8 103.5 364.8 105.2 364.8 105.7C365 106.1 365.5 106.9 366.2 108.3ZM261.4 112.3C261.4 120.7 259.5 127.2 255.9 132C252.8 136.1 249.2 138.2 245.1 138.2L245.1 138C243.4 138 242.2 138 241.5 137.5C241.5 155.3 238.9 167.3 233.6 173.3C228.3 179.8 220.4 186.3 210.3 192.7C197.6 200.9 186.5 204.9 177.4 204.9C169 204.9 162.8 201.3 158.9 193.9C156 188.9 154.8 182.9 154.8 176.4C154.8 166.1 157 155.8 161 145C162 142.8 162.7 141.6 163.2 141.6C163.4 141.6 163.4 141.8 163.4 142.3C163.4 143 163.2 144.2 162.7 145.7C159.8 156.3 158.4 164.2 158.4 169.7C158.4 174.5 159.8 179.1 163 183.1C166.6 188.4 171.4 190.8 176.9 190.8C183.6 190.8 192 188.2 201.9 182.9C209.8 178.6 217.5 173.3 225.4 167.1C232.1 161.3 236.2 157.5 237.2 155.3C237.2 147.1 234.8 138.5 230.2 129.4C229.2 127.7 228.8 126.3 228.8 125.3C228.8 124.6 229.8 121 231.7 115C231.9 113.8 232.4 113.1 232.9 113.1C233.4 113.1 233.9 114.1 234.6 115.5C236 118.6 237 120.3 237.7 120.8C239.1 122.7 241.8 123.4 245.1 123.4L245.1 123.6C250.6 123.6 254.5 122.2 256.1 119.3C256.1 117.9 255.1 115.5 253.2 112.3C252.2 110.9 252 109.4 252 108C252 107.3 253 103.9 254.6 97.7C255.1 96.7 255.6 96 255.8 96C256.3 96 257 97 257.7 98.4C260.2 103.4 261.4 108 261.4 112.3ZM465.9 115C465.2 115 464.2 115.4 463 116.4C459.1 119.8 455.3 122.6 451.4 124.6C450.2 125.4 446.1 127.3 439.9 130.4L439.9 143.6C448.3 139.7 454.8 135.7 458.6 131.1C458.6 142.1 463.4 147.9 473.5 147.9C481.9 147.9 488.8 143.1 494.1 133.5C497.3 139.3 500.9 142.4 504.7 142.4C510.5 142.4 514.8 139.8 517.7 134.5C520.4 130.1 521.8 125.1 521.8 119.1C521.8 115.2 520.6 111.9 518.7 109C518 108 517.5 107.8 517 107.8C516.5 107.8 516 108.6 515.8 110C514.4 114.5 513.4 117.9 513.2 119.8C515.3 123.4 516.3 125.4 516.3 125.6C515.3 127.2 513.2 128.2 509.8 128.2C507.2 128.2 504.8 127.2 503.1 125.8C501.2 124.4 500.2 122.7 500.2 121C500.2 121.5 500.9 119.6 501.9 115.5C502.4 113.4 502.2 112.4 501.2 112.4C500.5 112.4 499.8 112.8 498.8 113.8C496.4 117.7 493.8 121.5 491.4 125.6C487.5 130.7 482.5 133.3 476.5 133.3C469 133.3 465.2 130.4 465.2 125.1C465.2 123.9 465.4 122.4 465.9 120.5C466.4 118.6 466.6 117.1 466.6 116.4C466.6 115.5 466.4 115 465.9 115ZM167.8 125.5C177.4 122.1 187.7 118.3 198.8 114.5C199.185 114.423 199.452 114.331 199.645 114.264C199.954 114.158 200.077 114.116 200.2 114.3C200.4 114.3 200.4 114.8 200 115.5C199.3 117.7 198.6 118.9 198.1 119.3C188.5 122.7 177.7 126.7 165.5 132.3C165.9 130.1 166.6 127.9 167.8 125.5ZM339.1 139C336.5 133.7 331.9 128.2 325.7 122.9C323.5 125.1 320.9 129.1 317.5 134.9C313.7 141.4 312 145.5 312 147.6C312 150.5 313.9 151.9 318.2 151.9C320.1 151.9 322.5 151.2 325.6 150C329.9 148.1 334 145.4 337.4 142.1C338.9 140.6 339.4 139.7 339.1 139ZM148.1 150.2C148.1 149.2 144.7 146.8 138 143C141.1 137.8 142.8 134.6 143 132.9C143 132.4 141 130.9 137.2 128.3C133.6 125.9 131.5 124.7 131 124.7C130.7 124.7 130.2 124.9 130 125.4L125.4 135C125.2 135.5 125.2 135.8 125.4 136C128.5 138.1 131.8 140.3 135.2 142.7L130.6 152.3C130.4 152.8 130.4 153.1 130.6 153.3C134.5 155.7 138.3 158.3 141.9 161.2C142.39 161.494 142.592 161.211 143.071 160.54L143.1 160.5C146.4 155.2 148.1 151.9 148.1 150.2ZM426.3 132.2C422.7 127.6 419.6 125.5 416.7 125.5C412.4 125.5 410.5 126.5 410.5 128.9C410.5 131.8 413.4 133.2 419.1 133.2C420.964 133.2 423.064 132.806 425.4 132.368C425.696 132.313 425.996 132.256 426.3 132.2ZM247.7 170.2C247.5 170 247.5 169.7 247.7 169.2L252.3 159.6C252.5 159.1 253 158.9 253.3 158.9C253.8 158.9 255.9 160.1 259.5 162.5C263.3 165.1 265.3 166.6 265.3 167.1C265.3 168.8 263.6 172.1 260.3 177.4L260.271 177.44C259.792 178.111 259.59 178.394 259.1 178.1C255.4 175.2 251.5 172.6 247.7 170.2ZM452.2 195.8C449.6 196.5 448.1 197 447.6 197L447.6 196.8C447.6 196.8 448.6 196.1 450.5 194.9C452.4 193.7 455.3 191.8 459.4 188.7C461.3 186.8 464.2 183.7 467.8 179.3C470.2 176.4 472.8 173.8 475.7 171.9C479.3 169.3 482.7 168.1 486.3 168.1C487 168.1 488.2 168.3 489.7 168.8C490.9 169.3 492.1 169.5 493.1 169.5C495 169.5 496.5 168.8 497.7 167.3C498.4 165.9 499.4 164.7 500.3 163.2C500.8 162.2 501.5 161.8 502 161.8C502.2 161.8 502.2 162 502.2 162.5C502.2 163 502 164.2 501.5 165.6C501 166.3 502.9 166.6 506.5 166.6C507 166.6 507.2 166.6 507.2 166.4C507.2 166.4 507 165.4 506.5 163.8C506.3 163.3 506.5 162.6 507.2 161.6L507.28 161.464C508.222 159.863 508.608 159.205 508.9 159.4C509.9 160.1 510.3 161.6 510.3 163.2C510.3 164.9 509.8 166.6 509.1 168.5C508.4 170.7 507.7 171.9 507.2 172.3C505.5 173.3 502.9 173 499.3 171.3C496.4 174.2 493.5 175.9 490.7 175.9C490 175.9 488.8 175.7 487.6 175.2C486.4 174.7 485.4 174.5 484.7 174.5C479.9 174.5 474.9 176.7 469.8 181.5L459 192.3C456.7 193.9 454.6 195.1 452.2 195.8ZM107.1 168.5C106.1 165.4 106.4 163.2 107.6 162C108.6 161 109.8 160.6 111 160.6C112.4 160.6 113.9 160.8 115.6 161.8C121.4 164.9 125.2 168.8 127.1 173.3C127.1 173.5 127.3 174 127.3 174.5C127.3 176.2 126.8 177.9 125.6 180C124.6 181.9 123.7 182.9 122.7 182.9C122.5 182.9 119.8 182.7 114.8 182.2C112.2 185.8 109 188.9 105.2 191.6C100.9 195 96.8 197.4 93 199C92.3 199.5 88 201.2 80 204C78.8 204.5 78.1 204.7 77.6 204.7C77.4 204.7 77.4 204.5 77.4 204.5C77.4 204.3 78.1 203.5 79.3 202.8C85.1 199.4 90.8 196.1 96.6 192.7C103.1 188.6 108.1 185 111.7 181.7C107.4 180.7 105.2 178.6 105.2 175.5C105.1 173 105.6 170.6 107.1 168.5ZM75.3 180.7C75.3 180.7 75.1 181 75.1 181.2C73.5 184.1 72 185.8 70.4 185.8C68.3 185.8 67.3 183.6 67.3 179.8C67.3 176.7 68.5 171.6 70.9 164.2C71.4 162.5 71.6 161.5 71.6 161.3C71.3 161.3 70.9 162.2 69.9 163.9C66.1 170.9 64.4 177.8 64.4 184.3C64.4 189.6 65.9 192.2 69 192.2C72.1 192.2 74.3 188.6 75.5 181.4C75.7 181.2 75.7 180.9 75.5 180.7C75.5 180.609 75.5 180.56 75.4813 180.551C75.4589 180.541 75.4093 180.591 75.3 180.7ZM295 175.9C295.7 175.2 296.2 174 296.7 171.8C296.9 170.9 296.9 170.4 296.7 170.5C296.483 170.283 296.059 170.484 295.388 170.8C295.129 170.922 294.834 171.061 294.5 171.2C293 172.2 291.8 173.1 290.4 174.1C288.3 175.3 286.8 175.8 286.1 175.8C285.1 175.8 283.9 175.6 282.5 174.6C281 173.8 280.3 173.1 280.3 172.4C280.3 171.9 281 171.2 282.2 170.5C283.4 169.5 284.4 169.3 285.1 169.3C286.3 169.3 287.2 169.8 287.7 171C288.2 171.7 288.5 171.7 288.7 171.2C289.9 169.3 290.4 167.8 290.4 166.4C290.4 164 289.5 162.8 287.3 162.8C284.9 162.8 281.8 165 278.2 169.3C276.3 171.5 275.6 173.6 275.6 175.8C275.6 177.7 277.3 179.4 280.9 180.6C278 182.7 276.5 184.2 276.3 184.9L275.8 188C275.8 188.5 275.8 188.5 276 188.7C276.5 188.2 277 187.9 277.2 187.7C286.4 181.4 292.4 177.6 295 175.9ZM114 176.2C114.5 174.8 114.5 173.3 114 171.6C113.5 169.9 112.8 169.2 111.6 169.2C111.1 169.2 110.2 169.7 109 170.6C108 171.8 107.3 172.8 107.3 173.2C107.3 174.7 109.5 175.7 114 176.2ZM123.6 176.2C122.4 173.3 120.2 171.4 117.1 170.2C117.1 172.8 116.9 175 116.1 176.7C116.6 176.7 119 177.2 123.3 177.7L123.8 177.7C124.1 177.4 124.1 176.9 123.6 176.2Z" id="Group" fill="#595959" fill-rule="evenodd" stroke="none" clip-path="url(#clip_1)" />
  </g>
</svg>