<?xml version="1.0" encoding="utf-8"?>
<svg width="563.3001px" height="209.8px" viewBox="0 0 563.3001 209.8" version="1.1" xmlns:xlink="http://www.w3.org/1999/xlink" xmlns="http://www.w3.org/2000/svg">
  <defs>
    <path d="M563.3 0L563.3 0L563.3 209.8L0 209.8L0 0L563.3 0Z" id="path_1" />
    <clipPath id="clip_1">
      <use xlink:href="#path_1" clip-rule="evenodd" fill-rule="evenodd" />
    </clipPath>
  </defs>
  <g id="Surah_103_of_114_(modified)">
    <path d="M563.3 0L563.3 0L563.3 209.8L0 209.8L0 0L563.3 0Z" id="Surah_103_of_114_(modified)" fill="none" stroke="none" />
    <path d="M305.6 146.8C310.7 138.6 313.3 127.6 313.3 113.4C313.3 108.3 312.3 93.2 310.5 68.2C308.6 42.8 307.6 29.8 307.6 29.6C307.6 28.4 307.8 28.1 308.3 28.6C312.3 33.4 314.5 34.6 314.5 32.4C314.5 31.9 314.2 30.7 314 29.3C313.3 27.6 311.6 22.8 308.7 14.9C305.8 7.39999 303.9 2.89999 303.2 1.2C302.7 0.199997 302.4 0 302.2 0C301.7 0 301.4 0.300003 301.2 1C298.5 7.39999 297.1 11.5 297.1 13.2C298.6 16.3 299.3 20.1 299.3 24.7C299.3 30 300.2 47 302.4 75.8C304.6 104.6 305.8 121.1 305.8 125.2C305.8 132 305.1 136 303.9 137C299.6 140.6 295.1 142.5 290.5 142.5L290.5 157.1C296.2 157.1 301.3 153.5 305.6 146.8ZM274.6 1.5C273.9 1.5 272.9 2 272.2 3.2C268.9 9.7 266.5 16.6 265.3 24.4C265.1 25.3 265.1 26.3 265.1 27C265.1 30.8 266.5 33 269.9 33C273.3 33 275.9 31.3 278.3 28.4C279 27.4 279.5 24.8 280 20.7C280.2 17.1 277.8 13.3 272.8 9.7C273.5 7.3 274.4 4.89999 275.4 2.7C275.4 2.39999 275.6 2.2 275.6 2.2C275.6 1.7 275.1 1.5 274.6 1.5ZM250.6 9C250.6 9.5 250.4 10.4 249.9 11.4C249.7 12.8 249.2 13.6 248.5 13.6C248.3 13.6 247.8 12.9 246.8 11.9C246.1 10.9 245.1 10.5 244.4 10.5C242.5 10.5 240.6 15.1 238.9 24.2C238.2 28.3 237.5 31.2 236.5 32.8C236.258 33.1458 236.04 33.4558 235.837 33.7133C236.075 33.0003 236.2 32.5501 236.2 32.4L236.2 32.2C236.055 32.2 235.491 32.8288 234.47 34.0105C234.373 33.7114 234.3 33.292 234.3 32.8C234.3 31.1 233.3 28 231.4 23.4C229.5 18.6 228.3 16.4 227.6 16.4C226.9 16.4 226.6 16.4 226.4 16.9C226.4 17.1 225.9 17.4 225.2 17.4C224.2 17.4 223.3 16.7 221.8 15.5C220.6 14.3 219.9 13.3 219.9 12.6C219.9 12.4 220.4 11.2 221.6 9.20003C222.8 7.30003 223.5 6.60002 223.8 6.60002C226.4 6.60002 228.8 8.00002 231 11.4C233.4 14.8 234.8 18.8 235.8 24.1L235.8 25.1C235.909 25.2094 235.959 25.2589 235.981 25.2487C236 25.2403 236 25.1907 236 25.1C236 24.9 236.2 24.6 236.5 24.1C236.7 21 237.9 16.2 239.6 9.90002C241.5 5.60002 243.4 3.40002 245.6 3.40002C246.8 3.40002 248 4.10002 249.2 5.60002C250.1 7 250.6 8 250.6 9ZM234.47 34.0105C234.081 34.4613 233.625 34.9925 233.1 35.6C231.4 37.5 229.3 39.6 226.4 41.8C214.4 49.7 205.3 55.3 198.8 59.1C197.6 59.8 196.9 60.6 196.9 60.8C196.9 60.8 196.9 61 197.1 61C197.6 61 198.3 60.8 199.5 60.3C207.5 57.5 211.8 55.8 212.5 55.3C216.1 53.7 220.1 51.3 224.7 47.9C229.8 44.3 233.1 40.4 234.8 36.6C235.25 35.4004 235.6 34.4257 235.837 33.7133C235.454 34.2004 235.127 34.5 234.8 34.5C234.698 34.5 234.571 34.3193 234.47 34.0105ZM319.7 19.5C321.2 22.7 321.9 26.5 321.9 31.3C321.9 35.4 323.1 54.3 325.6 88.2C328 122 329.2 141.2 329.2 146C329.2 151.1 329 155.6 328.5 159.7C328.471 160.079 328.442 160.444 328.414 160.793C328.25 162.835 328.129 164.346 328.3 165.2C328.5 165.9 328.8 165.9 329.5 164.7C330 163.8 330.4 162.6 331.4 160.9C334.7 152.3 336.4 142.2 336.4 130.9C336.4 127.1 335.5 110.5 333.3 81C331.1 51.3 329.9 36.4 329.9 35.9C329.9 34.7 330.1 34.2 330.6 34.9C334.9 39.7 336.8 40.9 336.8 38.7C336.8 38.2 336.8 37 336.3 35.8C335.8 33.9 334.1 29.1 331 21.2C328.1 13.7 326.4 9.2 325.7 7.5C325.2 6.8 325 6.3 324.5 6.3C324.3 6.3 324 6.8 323.8 7.5C320.9 13.7 319.7 17.8 319.7 19.5ZM368.5 18.8C368.5 21.4 370.6 23.8 375.2 26.2C371.8 29.8 366.8 33.7 359.8 37.9C353.8 41.2 348.1 44.6 342.3 48.2C340.9 48.9 340.4 49.7 340.4 49.9C340.4 49.9 340.4 50.1 340.6 50.1C340.8 50.1 341.8 49.9 343 49.4C350.7 46.6 355 44.9 356 44.4C359.6 43 363.6 40.3 368.2 37.2C372 34.3 375.2 31.2 377.8 27.6C380 28.8 381.4 30 381.9 31C384 28.2 385 26 385 24.8C384.5 23.8 383.1 22.6 380.7 21.4C381.9 18 382.4 15.1 382.4 12.5C382.4 9.70001 381.7 8.00002 380 7.50002C378.1 6.8 375.7 7.8 372.8 10.4C369.9 12.8 368.5 15.7 368.5 18.8ZM423.1 29.6C423.1 29.6 422.9 29.9 422.9 30.1C421.3 33 419.8 34.6 418.2 34.7C416.1 34.7 415.1 32.5 415.1 28.7C415.1 25.6 416.3 20.5 418.7 13.1C419.2 11.4 419.4 10.4 419.4 10.2C419.1 10.2 418.7 11.1 417.7 12.8C413.9 19.8 412.2 26.7 412.2 33.2C412.2 38.5 413.7 41.1 416.8 41.1C419.9 41.1 422.1 37.5 423.3 30.3C423.5 30.1 423.5 29.8 423.3 29.6C423.3 29.5093 423.3 29.4597 423.281 29.4513C423.259 29.4411 423.209 29.4907 423.1 29.6ZM140.9 18.6C138.8 15.2 136.4 13.8 133.5 13.8C133.3 13.8 132.5 14.5 131.5 16.4C130.3 18.4 129.8 19.6 129.8 19.8C129.8 20.5 130.3 21.5 131.7 22.7C133.2 23.9 134.1 24.6 135.1 24.6C135.8 24.6 136.1 24.3 136.3 24.1C136.6 23.6 136.8 23.6 137.3 23.6C138.3 23.6 139.5 25.8 141.4 30.6C143.3 35.2 144.2 38.3 144 40C144.2 41 144.2 41.7 144.7 41.7C145.2 41.7 145.7 41 146.4 40C147.1 38.4 148.1 35.5 148.8 31.4C150.5 22.3 152.2 17.7 154.1 17.7C155 17.7 156 18.1 156.7 19.1C157.7 20.1 158.2 20.8 158.4 20.8C158.8 20.8 159.3 20 159.8 18.6C160.3 17.6 160.3 16.7 160.3 16.2C160.3 15.2 159.9 14.2 158.9 12.8C157.9 11.3 156.7 10.6 155.5 10.6C153.3 10.6 151.4 12.8 149.5 17.1C147.8 23.4 146.6 28.2 146.1 31.3C146.1 31.8 145.9 32.1 145.9 32.3L145.7 32.3C145.7 32 145.7 31.8 145.5 31.3C144.7 26 143.1 21.7 140.9 18.6ZM191.1 12.3C190.4 12.3 189.4 12.8 188.7 14C185.3 20.5 182.9 27.4 181.8 35.2C181.6 36.1 181.6 37.1 181.6 37.8C181.6 41.6 183 43.8 186.4 43.8C189.8 43.8 192.4 42.1 194.8 39.2C195.5 38.2 196 35.6 196.5 31.5C196.7 27.9 194.3 24.1 189.3 20.5C190 18.1 190.9 15.7 191.9 13.5C191.9 13.2 192.1 13 192.1 13C192.1 12.5 191.6 12.3 191.1 12.3ZM378.3 15.7C378.6 17.1 378.6 18.6 378.1 20C374.5 18.3 372.5 16.9 372.5 15.6C372.5 15.2 372.9 14.7 373.9 14.2C374.9 13.7 375.6 13.5 376.1 13.5C377.3 13.5 378.1 14.3 378.3 15.7ZM270.1 16.2C275.1 19 277.5 21.2 277.5 22.4C277 23.4 275.8 24.3 274.2 25.1C272.5 26 271.1 26.5 269.9 26.5C268.4 26.5 267.7 25.5 267.7 24.1C267.7 21.7 268.4 19.1 270.1 16.2ZM186.6 27C191.6 29.8 194 32 194 33.2C193.5 34.2 192.3 35.1 190.7 35.9C189 36.8 187.6 37.3 186.4 37.3C184.9 37.3 184.2 36.3 184.2 34.9C184.2 32.5 184.9 29.9 186.6 27ZM112.9 39C113.4 38 113.6 37.1 113.6 36.6C113.6 35.6 113.1 34.6 112.2 33.2C111 31.7 109.8 31 108.6 31C106.4 31 104.5 33.2 102.6 37.5C100.9 43.8 99.7 48.6 99.5 51.7C99.2 52.2 99 52.5 99 52.7C99 52.7907 99 52.8402 98.9814 52.8487C98.9589 52.8589 98.9096 52.8095 98.8 52.7L98.8 51.7C97.8 46.4 96.4 42.4 94 39C91.8 35.6 89.4001 34.2 86.8 34.2C86.5 34.2 85.8 34.9 84.6001 36.8C83.4001 38.8 82.9001 40 82.9001 40.2C82.9001 40.9 83.6001 41.9 84.8 43.1C86.3 44.3 87.2 45 88.2 45C88.9 45 89.4 44.7 89.4 44.5C89.6 44 89.9 44 90.6 44C91.3 44 92.5 46.2 94.4 51C96.3 55.6 97.3 58.7 97.3 60.4C97.3 60.8468 97.3599 61.2337 97.444 61.525C98.4185 60.3985 98.9588 59.8 99.1 59.8L99.1 60C99.1513 60.1538 99.0448 60.6233 98.794 61.3679C98.4294 61.8227 98.1147 62.1 97.8 62.1C97.6894 62.1 97.5482 61.8858 97.444 61.5251C97.0387 61.9937 96.5582 62.5537 96 63.2C94.3 65.1 92.2 67.2 89.3 69.4C77.3 77.3 68.2 82.9 61.7 86.7C60.5 87.4 59.8 88.2 59.8 88.4C59.8 88.4 59.8 88.6 60 88.6C60.5 88.6 61.2 88.4 62.4 87.9C70.4 85.1 74.7 83.4 75.4 82.9C79 81.3 83 78.9 87.6 75.5C92.7 71.9 96 68 97.7 64.2C98.1872 63.0308 98.5557 62.0752 98.794 61.3679C99.0086 61.1 99.2406 60.7706 99.5 60.4C100.5 58.8 101.2 55.9 101.9 51.8C103.6 42.7 105.5 38.1 107.4 38.1C108.1 38.1 109.1 38.5 109.8 39.5C110.8 40.5 111.3 41.2 111.5 41.2C112.2 41.2 112.7 40.4 112.9 39ZM58.6 54.3C58.6 54.1 58.8 53.8 58.8 53.8C58.9093 53.6907 58.9589 53.6411 58.9814 53.6513C59 53.6598 59 53.7093 59 53.8C59.2 54 59.2 54.3 59 54.5C57.8 61.7 55.6 65.3 52.5 65.3C49.4 65.3 47.9 62.7 47.9 57.4C47.9 50.9 49.6 44 53.4 37C54.4 35.3 54.8 34.4 55.1 34.4C55.1 34.6 54.9 35.6 54.4 37.3C52 44.7 50.8 49.8 50.8 52.9C50.8 56.7 51.8 58.9 53.9 58.9C55.5 58.9 56.9 57.2 58.6 54.3ZM401.6 63.9C425.8 54.8 451 45.7 477 36.1C477.202 36.0422 477.388 35.9762 477.549 35.9186C477.947 35.7768 478.2 35.6866 478.2 35.9C478.4 35.9 478.4 36.4 478.2 37.1C477.2 39.3 476.5 40.5 476 40.9C475.8 41.1 463.5 45.7 439.8 54.6C415.6 63.5 401.9 69 399.2 70.7C399.7 68.5 400.4 66.3 401.6 63.9ZM532.1 64.9C529.7 70.7 528.5 75.2 528.5 78.6C528.5 82.7 529.5 84.8 531.6 84.8C532.8 84.8 534.2 83.1 535.9 80.2C536.1 80 536.1 79.7 536.4 79.5C536.4 79.5 536.6 79.5 536.6 79.7L536.6 80.4C535.2 87.6001 533 91.2 530.1 91.2C527 91.2 525.5 88.6 525.5 83.3C525.5 80.7 526 77.3 527.4 73C528.8 68.7001 529.6 66.5 529.6 66.3C529.6 65.8 528.6 64.9 526.5 63.7C522.7 68.7 517.4 73.5 510.7 77.6C506.1 80.2 501.6 82.6 496.8 84.6C487.9 88.2 482.6 90.1 481.4 90.8C480.2 91.3 479.5 91.5 479 91.5C478.8 91.5 478.8 91.3 478.8 91.3C478.8 90.8 479.3 90.3 480.7 89.4C488.4 85.1001 495.8 80.8 503.5 76.4C513.6 70.6001 520.5 65.8 523.9 62.2C519.3 59.8 517.2 57.4 517.2 54.8C517.2 51.7 518.6 48.8 521.5 46.2C524.4 43.8 526.8 42.8 528.7 43.6C530.1 44.1 531.1 45.8 531.1 48.6C531.1 51.2 530.6 54.1 529.4 57.2C531.8 58.6 532.8 60.1 532.8 61.5C532.9 62.2 532.6 63.4 532.1 64.9ZM526.9 56C527.4 54.6 527.4 53.1 527.1 51.7C526.9 50.3 526.1 49.5 524.9 49.5C524.4 49.5 523.7 49.7 522.7 50.2C521.7 50.7 521.3 51.2 521.3 51.6C521.3 52.9 523.3 54.3 526.9 56ZM371.1 54.6L367.3 62.5C366.3 61.5 364.1 59.8 361.1 58C358 55.8 356.3 54.6 355.8 54.6C355.5 54.6 355 55.1 354.8 55.6L350.2 65.2C350 65.7 350 66 350.2 66.2C354.1 68.6 357.9 71.2 361.5 74.1C362 74.4 362.5 74.1 362.7 73.4C364.2 71.2 365.4 68.6 366.8 65.7C370.9 68.3 374.5 70.7 377.6 73.1C378 73.3 378.5 73.3 379 72.6C382.1 67.3 383.8 63.7 383.8 62C383.8 61.5 381.9 60.1 378.3 57.7C374.5 55.1 372.6 53.9 372.1 53.9C371.6 53.9 371.3 54.1 371.1 54.6ZM162.8 59.1C162.8 62.7 160.9 65.8 157.3 68.7C153.7 71.3 149.6 72.8 145.1 72.8C144.4 72.8 143.2 72.6 142 72.1C140.8 71.9 139.8 71.6 139.1 71.6C134.3 71.6 129.3 74 124.2 78.8C120.6 82.4 117 86 113.4 89.6C111.2 91.3 109.1 92.5 106.7 93.2C104.1 93.9 102.6 94.4 102.1 94.4L102.1 94.2C102.1 94.2 103.1 93.5 105 92.3C106.9 91.1 109.8 89.2 113.9 86.1C115.8 84.2 118.7 81.1 122.3 77C124.7 73.9 127.3 71.5 130.2 69.3C133.6 66.9 136.4 65.5 139.3 65C138.8 65.2 140.7 65.2 144.3 65.2C146.5 63 148.9 60.9 151 58.7C153.9 56.1 156.3 54.9 158.2 54.9C161.3 54.8 162.8 56.2 162.8 59.1ZM226.9 77.6C245.4 70.9 264.6 63.7 284.7 56.2C284.878 56.149 285.044 56.0916 285.194 56.0392C285.635 55.8861 285.951 55.7764 286.1 56C286.1 56 286.1 56.5 285.9 57.2C284.9 59.4 284.2 60.6 283.7 61C266.9 67.2 247 74.9 224.4 84.3C224.9 82.2 225.7 80 226.9 77.6ZM160.4 61.3C159.9 59.9 158.5 59.4 156.1 59.4C153.9 59.4 150.6 61.6 146.3 65.9C146.8 65.9 147.3 66.1 147.7 66.1C150.1 66.1 152.7 65.4 155.4 64.2C158 63.2 159.7 62.2 160.4 61.3ZM449.5 71.6C447.4 68.2 445 66.8 442.1 66.8C441.9 66.8 441.2 67.5 440.1 69.4C438.9 71.4 438.4 72.6 438.4 72.8C438.4 73.5 438.9 74.5 440.3 75.7C441.8 76.9 442.7 77.6 443.7 77.6C444.4 77.6 444.7 77.3 444.9 77.1C445.2 76.6 445.4 76.6 445.9 76.6C446.9 76.6 448.1 78.8 450 83.6C451.9 88.2 452.8 91.3 452.6 93C452.8 94 452.8 94.7 453.3 94.7C453.8 94.7 454.3 94 455 93C455.7 91.4 456.7 88.5 457.4 84.4C459.1 75.3 460.8 70.7 462.7 70.7C463.6 70.7 464.6 71.1 465.3 72.1C466.3 73.1 466.8 73.8 467 73.8C467.4 73.8 467.9 73 468.4 71.6C468.9 70.6 468.9 69.7 468.9 69.2C468.9 68.2 468.5 67.2 467.5 65.8C466.5 64.3 465.3 63.6 464.1 63.6C461.9 63.6 460 65.8 458.1 70.1C456.4 76.4 455.2 81.2 454.7 84.3C454.7 84.8 454.5 85.1 454.5 85.3L454.3 85.3C454.3 85 454.3 84.8 454.1 84.3C453.3 79 451.7 74.7 449.5 71.6ZM3.70001 70.9C6.60001 70.9 9.00002 72.3 11.1 75.7C13.3 78.8 14.9 83.1 15.7 88.4C15.9 88.9 15.9 89.1 15.9 89.4L16.1 89.4C16.1 89.2 16.3 88.9 16.3 88.4C16.8 85.3 18 80.5 19.7 74.2C21.6 69.9 23.5 67.7 25.7 67.7C26.9 67.7 28.1 68.4 29.1 69.9C30.1 71.3 30.5 72.3 30.5 73.3C30.5 73.8 30.5 74.7 30 75.7C29.5 77.1 29 77.9 28.6 77.9C28.4 77.9 27.9 77.2 26.9 76.2C26.2 75.2 25.2 74.8 24.3 74.8C22.4 74.8 20.7 79.4 19 88.5C18.3 92.6 17.3 95.5 16.6 97.1C15.9 98.1 15.4 98.8 14.9 98.8C14.4 98.8 14.4 98.1 14.2 97.1C14.4 95.4 13.5 92.3 11.6 87.7C9.7 82.9 8.5 80.7 7.5 80.7C7 80.7 6.8 80.7 6.5 81.2C6.3 81.4 6 81.7 5.3 81.7C4.3 81.7 3.4 81 1.9 79.8C0.5 78.6 0 77.6 0 76.9C0 76.7 0.5 75.5 1.7 73.5C2.70001 71.6 3.40001 70.9 3.70001 70.9ZM390.1 80.7C390.1 84.5 388.2 89.8 384.3 96.3C381.9 100.4 378.3 105.9 373.5 113.1C378.3 118.6 381.7 123.7 383.3 128C384.3 131.1 385 135.2 385 139.8C385 141.7 384.5 144.1 383.6 147.2C382.9 150.1 381.9 152.2 381 153.7C379.1 156.6 376 159.5 371.2 162.3C366.2 165.7 361.8 167.3 358.2 167.3C352.4 167.3 349.6 163 349.6 154.3C349.6 148.5 350.6 142.8 352.5 137.5C354.4 132.9 357.5 126.9 362.6 119C358.3 114.9 353.7 109.2 348.7 102C348.2 101.3 347 100.1 345.1 98.2C344.1 97.2 343.7 96 343.7 94.6C343.7 92.4 343.9 90 344.4 87.2C345.1 84.3 345.6 83.1 345.8 83.1C346.5 83.1 348.7 84.3 352.8 86.9C356.6 89.5 359.8 91.5 361.7 93.1C362.9 93.8 363.4 94.5 363.4 94.5L363.4 94.7C363.4 94.9 362.7 95.2 361 95.2C357.9 95.2 356.2 95.4 356.2 95.7C356.2 95.9 356.7 96.4 357.6 97.6C361.4 102.4 365.3 106 369.4 108.9C370.4 107.5 373.7 102.7 379 94.5C383.6 87.5 386.2 82.7 387.4 79.9C388.6 77 389.3 75.8 389.8 75.8C389.8 75.8148 389.807 75.8605 389.818 75.9383C389.882 76.3849 390.1 77.8898 390.1 80.7ZM141.2 147.2C141.2 144.5 141.7 141.9 142.9 139C149.6 141.4 155.1 142.6 159.5 142.6C171.5 142.6 183.3 139.7 194.8 133.7C202.7 129.4 208.2 125.3 211.6 121.5C213.1 119.8 214.5 116.7 216.2 111.9C217.7 107.6 218.4 104.7 218.4 103.3C218.4 99.4 216 94.9 210.7 89.6C204.4 83.1 197.5 80 189.8 80C181.1 80 172 85.8 162.9 96.8C159.8 100.6 153.6 110 144.2 124.6C139.9 122.7 136.6 120.1 134.4 117.2C132.5 114.8 131.8 112.7 131.8 110.5C131.8 107.6 131.3 106.2 130.6 106.2C130.1 106.2 129.6 106.5 128.9 107.2C125.6 110.5 122 113.9 118.6 117.5C112.334 122.771 105.87 125.372 99.7 125.4L99.7 125.2C96.4 125.2 93.7 124.5 92.3 122.6C91.6 122.1 90.6 120.4 89.2 117.3C88.5 115.9 88 114.9 87.5 114.9C87 114.9 86.5 115.6 86.3 116.8C84.4 122.8 83.4 126.4 83.4 127.1C83.4 128.1 83.8 129.5 84.8 131.2C89.4 140.3 91.8 148.9 91.8 157.1C90.8 159.3 86.7 163.1 80 168.9C72.1 175.1 64.4 180.4 56.5 184.7C46.6 190 38.2 192.6 31.5 192.6C26 192.6 21.2 190.2 17.6 184.9C14.4 180.9 13 176.3 13 171.5C13 166 14.4 158.1 17.3 147.5C17.8 146 18 144.8 18 144.1L18 144.094C20.2151 142.97 21.8325 139.505 22.8 133.7C23 133.5 23 133.2 22.8 133C22.8 132.909 22.8 132.86 22.7814 132.851C22.7589 132.841 22.7093 132.891 22.6 133C22.6 133 22.4 133.3 22.4 133.5C20.7 136.4 19.3 138.1 17.7 138.1C15.6 138.1 14.6 135.9 14.6 132.1C14.6 129 15.8 123.9 18.2 116.5C18.7 114.8 18.9 113.8 18.9 113.6C18.6 113.6 18.2 114.5 17.2 116.2C13.4 123.2 11.7 130.1 11.7 136.6C11.7 141.9 13.2 144.5 16.3 144.5C16.4581 144.5 16.6139 144.491 16.7673 144.472C16.4319 145.037 16.0457 145.819 15.6 146.8C11.6 157.6 9.40001 167.9 9.40001 178.2C9.40001 184.6 10.6 190.6 13.5 195.7C17.4 203.1 23.6 206.7 32 206.7C41.1 206.7 52.2 202.7 64.9 194.5C75 188.1 82.9 181.6 88.2 175.1C93.5 169.1 96.1 157.1 96.1 139.3C96.7862 139.79 97.9529 139.8 99.6 139.8L99.6 140C105.3 140 110.9 137.6 115.9 133C118.8 130.4 122.4 125.8 126.5 119.6C127.7 127.7 131.8 133.7 139.2 137.8C137.3 142.6 136.6 147.4 136.6 152.2C136.6 168.5 146.2 176.7 165.2 176.7C172.4 176.7 181.5 174.8 192.8 170.7C197.3 169 205.3 165.9 216.3 161.1L216.3 161.3C221.6 159.1 226.9 157 232.4 154.8C242.4 150.8 251.1 146.4 257.8 142.6C265.3 149.1 271 153.2 275.3 155.1C278.7 156.5 283.5 157 290.2 157L290.2 142.4C281.6 142.4 275.1 140.5 270.8 136.4C278.9 132.8 285.2 129.9 289.5 128.2L293.8 119.8C294.6 118.6 294.8 117.9 294.8 117.4C294.8 116.9 293.8 115.9 291.9 114.5C284.3 108.7 273.7 105.6 260.5 105.6C253.8 105.6 246.6 106.5 238.9 108.2C231.2 109.9 226.9 111.8 225.9 113.5L221.6 123.8C221.3 124.5 221.1 125 221.1 125.5C221.1 126 221.6 126.5 222.1 126.5C222.5 126.5 223 126.2 223.5 126C225.4 124.8 228 124.3 231.4 124.3C233.3 124.3 235.7 125.2 239.3 126.9C243.1 129 246.3 131.4 248.9 134.3C245.8 136.4 239.6 139.1 230.2 142.9C227.1 144.1 222.5 145.8 216.3 148.2L216.3 147.9C208.4 151 200.7 154.4 192.8 157.5C183.9 160.4 175.5 162.1 166.9 162.1C149.8 162.1 141.2 157 141.2 147.2ZM407.5 109.1C408.5 110.3 409.2 111.9 409.7 114.1C410.9 118.2 413.3 123.9 416.6 131C419.5 137.3 420.9 140.6 420.9 141.1C420.9 143.1 418 146.2 412.5 150.5C407.66 154.097 401.367 158.207 393.619 162.774C394.347 158.285 395.634 152.882 397.5 146.5C397.8 145 398 143.8 398 143.1C398 142.6 398 142.4 397.8 142.4C397.3 142.4 396.8 143.4 395.6 145.8C393.219 152.229 391.476 158.481 390.455 164.619C387.231 166.476 383.78 168.404 380.1 170.4C370.7 175.5 359 181 344.8 187C324.4 195.6 313.3 200.4 311.4 201.4C306.1 203.8 303.5 205.3 303.5 205.5C303.5 205.7 303.5 205.7 304 205.7C305 205.7 307.4 205.4 311.2 204.7C314.8 204.2 323.9 202.1 338.3 198.7C352 195.4 359.2 193.7 359.7 193.7C362.3 193.7 370.7 189.6 385.1 181.2C386.583 180.369 388.027 179.543 389.432 178.722C389.703 185.889 391.679 192.067 395.2 196.7C399.5 202.7 405.7 205.8 413.9 205.8C423.5 205.8 434.5 200.8 447.5 191.2C456.2 184.7 464.1 177.2 471.3 168.6C474.4 165 477 160.4 478.7 154.9C480.2 150.5 480.9 147.2 480.9 144.3L481.4 143.8L481.4 130.6C480.4 131.1 479.9 131.1 479.7 131.1C477.3 126.1 474.4 122 471.3 118.4C467.7 114.8 464.6 112.9 461.5 112.9C457.4 112.9 453.6 115 450 119.1C446.2 123.9 444.5 129.2 444.5 135.2C444.5 143.1 450.3 147.2 461.8 147.2C467.1 147.2 471.4 146.5 474.3 145.5C474.8 147.2 475.3 148.9 475.3 150.3C475.3 152.5 471.7 156.8 464.7 163.6C457 170.8 449.1 176.8 440.9 181.8C430.5 188.1 421.9 191.2 414.7 191.2C406.3 191.2 400.3 188.5 396.5 183.5C395.077 181.365 394.076 178.949 393.496 176.294C405.715 168.829 414.645 161.794 420.4 155.3C422.4 153.1 423.8 150 425 145.9C425.9 142.3 426.4 139.4 426.4 137C426.4 131.9 424.9 126.4 422.3 119.7C420.6 115.9 418.7 111.8 417 107.7C419.9 108.4 421.8 108.9 422.5 108.9C423 108.9 423.2 108.6 423.2 108.4C423.2 107.9 422.5 107 420.8 105.3C416.8 101.2 413.2 97.3 409.8 93.5C409.3 93 409 92.8 408.8 92.8C408.3 92.8 408 93.3 407.8 94.5C407.3 95.7 407.1 97.9 406.6 101C406.1 104.3 406.1 106 406.1 106.5C406.3 106.9 406.8 107.7 407.5 109.1ZM205 101.6C210.6 105.7 213.2 108.8 213.2 110.5C213.2 111.2 210.8 113.1 205.8 116C200 119.4 194 122 187.3 124.2C178.6 127.1 170.5 128.5 162.8 128.5C158.4 128.5 153.6 127.5 148.6 126.1C160.9 105 173.6 94.4 186.3 94.4C192.3 94.4 198.8 96.8 205 101.6ZM507.4 115.6C506.7 115.6 505.7 116 504.5 117C500.7 120.3 496.9 123.2 492.9 125.2C491.7 126 487.6 127.9 481.4 131L481.4 144.2C489.8 140.3 496.3 136.3 500.1 131.7C500.1 142.7 504.9 148.5 515 148.5C523.4 148.5 530.3 143.7 535.6 134.1C538.8 139.9 542.4 143 546.2 143C552 143 556.3 140.4 559.2 135.1C561.9 130.7 563.3 125.7 563.3 119.7C563.3 115.8 562.1 112.5 560.2 109.6C559.5 108.6 559 108.4 558.5 108.4C558 108.4 557.5 109.2 557.3 110.6C555.9 115.1 554.9 118.5 554.7 120.4C556.8 124 557.8 126 557.8 126.2C556.8 127.8 554.7 128.8 551.3 128.8C548.7 128.8 546.3 127.8 544.6 126.4C542.7 125 541.7 123.3 541.7 121.6C541.7 122.1 542.4 120.2 543.4 116.1C543.9 114 543.7 113 542.7 113C542 113 541.3 113.4 540.3 114.4C537.9 118.3 535.3 122.1 532.9 126.2C529 131.3 524 133.9 518 133.9C510.5 133.9 506.7 131 506.7 125.7C506.7 124.5 506.9 123 507.4 121.1C507.9 119.2 508.1 117.7 508.1 117C508.1 116.1 507.9 115.6 507.4 115.6ZM59.1 131.6C59.1 131.6 58.9 131.9 58.9 132.1C57.2 135 55.7 136.6 54.2 136.7C52.1 136.7 51.1 134.5 51.1 130.7C51.1 127.6 52.3 122.5 54.7 115.1C55.2 113.4 55.4 112.4 55.4 112.2C55.1 112.2 54.7 113.1 53.7 114.8C49.9 121.8 48.2 128.7 48.2 135.2C48.2 140.5 49.7 143.1 52.8 143.1C55.9 143.1 58.1 139.5 59.3 132.3C59.5 132.1 59.5 131.8 59.3 131.6C59.3 131.509 59.3 131.46 59.2814 131.451C59.2589 131.441 59.2093 131.491 59.1 131.6ZM274.4 121.8C271.5 119.9 266.2 118.9 258.3 118.9C255.7 118.9 253 119.1 250.9 119.6C255.5 122.7 259.1 125.6 261.2 128C264.5 126.3 268.9 124.2 274.4 121.8ZM380.7 139.8C378.1 134.5 373.5 129 367.3 123.7C365.1 125.9 362.5 129.9 359.1 135.7C355.3 142.2 353.6 146.3 353.6 148.4C353.6 151.3 355.5 152.7 359.8 152.7C361.7 152.7 364.1 152 367.2 150.8C371.5 148.9 375.6 146.2 379 142.9C380.5 141.4 380.9 140.5 380.7 139.8ZM467.8 132.8C464.2 128.2 461.1 126.1 458.2 126.1C453.9 126.1 452 127.1 452 129.5C452 132.4 454.9 133.8 460.6 133.8C462.63 133.8 464.83 133.374 467.2 132.916C467.399 132.877 467.599 132.839 467.8 132.8ZM123.9 152.5C123.9 155.1 122.7 158 120.8 161.1C118.6 164.2 116 167.1 112.6 169.5C111.2 170.5 110.4 170.9 110.2 170.9L110.2 170.7C110.2 170.5 110.7 170 111.6 168.8C117.1 162.8 120 159 120 156.8C120 155.1 119 154.2 117.4 154.2C116.4 154.2 115.5 154.4 114.8 154.9C114.1 155.1 113.8 155.4 113.6 155.4C113.6 155.4 113.4 155.4 113.4 155.2C113.4 155.2 113.4 154.7 113.6 153.8C114.6 149.7 116.5 147.8 119.8 147.8C122.5 147.7 123.9 149.4 123.9 152.5ZM493.7 196.4C491.1 197.1 489.6 197.6 489.1 197.6L489.1 197.4C489.1 197.4 490.1 196.7 492 195.5C493.9 194.3 496.8 192.4 500.9 189.3C502.8 187.4 505.7 184.3 509.3 179.9C511.7 177 514.3 174.4 517.2 172.5C520.8 169.9 524.2 168.7 527.8 168.7C528.5 168.7 529.7 168.9 531.2 169.4C532.4 169.9 533.6 170.1 534.6 170.1C536.5 170.1 538 169.4 539.2 167.9C539.9 166.5 540.9 165.3 541.8 163.8C542.3 162.8 543 162.4 543.5 162.4C543.7 162.4 543.7 162.6 543.7 163.1C543.7 163.6 543.5 164.8 543 166.2C542.5 166.9 544.4 167.2 548 167.2C548.5 167.2 548.7 167.2 548.7 167C548.7 167 548.5 166 548 164.4C547.8 163.9 548 163.2 548.7 162.2L548.78 162.064C549.722 160.463 550.108 159.805 550.4 160C551.4 160.7 551.8 162.2 551.8 163.8C551.8 165.5 551.3 167.2 550.6 169.1C549.9 171.3 549.2 172.5 548.7 172.9C547 173.9 544.4 173.6 540.8 171.9C537.9 174.8 535 176.5 532.2 176.5C531.5 176.5 530.3 176.3 529.1 175.8C527.9 175.3 526.9 175.1 526.2 175.1C521.4 175.1 516.4 177.3 511.3 182.1L500.5 192.9C498.3 194.5 496.1 195.7 493.7 196.4ZM278 198.8C272.2 200.4 267.2 201.4 262.4 201.4C257.1 201.4 254.5 200 254.3 197.8C254.3 197.1 254.5 196.1 255 194.9C258.1 189.4 262.9 184.3 269.4 180C270.8 177.6 271.8 175.4 271.8 173C271.8 172 271.6 171.8 271.1 172C269.9 173.2 268.7 174.4 267.3 175.4C265.3 177.3 263.7 178.3 262.7 178.3C259.9 178.3 257.7 177.1 256.5 175.2C256.5 174.5 257 173.5 258.2 172.3C259.2 171.1 259.9 170.6 260.6 170.6C262 170.6 262.7 171.4 263.2 172.8C263.2 173 263.9 172.5 264.9 171.1C265.8 169.6 266.3 168.7 266.3 168.2C266.3 167.2 266.1 166.5 265.6 165.8C265.2 164.8 264.7 164.6 264.2 164.6C262.3 164.6 259.9 166.2 256.8 169.6C253.6 173 252.2 175.9 252.2 178.5C252.2 181.4 254.2 183.3 258 184.5C253.7 190 251.5 195.3 251.5 200.3C251.5 202.2 252.3 203.9 253.7 205.1C255.2 206.3 257.3 207 259.5 207C267.2 207 273.7 204.6 278.5 200.3C279.7 199.3 280.2 198.8 280.2 198.6C280.2 198.3 279.4 198.3 278 198.8ZM199.3 178.4C202.2 178.4 204.6 179.8 206.7 183.2C208.9 186.3 210.5 190.6 211.3 195.9C211.5 196.4 211.5 196.6 211.5 196.9L211.7 196.9C211.7 196.7 211.9 196.4 211.9 195.9C212.4 192.8 213.6 188 215.3 181.7C217.2 177.4 219.1 175.2 221.3 175.2C222.5 175.2 223.7 175.9 224.7 177.4C225.7 178.8 226.1 179.8 226.1 180.8C226.1 181.3 226.1 182.2 225.6 183.2C225.1 184.6 224.6 185.4 224.2 185.4C224 185.4 223.5 184.7 222.5 183.7C221.8 182.7 220.8 182.3 219.9 182.3C218 182.3 216.3 186.9 214.6 196C213.9 200.1 212.9 203 212.2 204.6C211.5 205.6 211 206.3 210.5 206.3C210 206.3 210 205.6 209.8 204.6C210 202.9 209.1 199.8 207.2 195.2C205.3 190.4 204.1 188.2 203.1 188.2C202.6 188.2 202.4 188.2 202.1 188.7C201.9 188.9 201.6 189.2 200.9 189.2C199.9 189.2 199 188.5 197.5 187.3C196.1 186.1 195.6 185.1 195.6 184.4C195.6 184.2 196.1 183 197.3 181C198.3 179.1 199 178.4 199.3 178.4ZM160.2 200C162.1 196.9 163.3 194 163.3 191.4C163.3 188.2 161.8 186.6 159.2 186.7C155.9 186.7 154 188.6 153 192.7C152.8 193.6 152.8 194.1 152.8 194.1C152.8 194.3 153 194.3 153 194.3C153.2 194.3 153.5 194 154.2 193.8C154.9 193.3 155.8 193.1 156.8 193.1C158.4 193.1 159.4 194 159.4 195.7C159.4 197.9 156.5 201.7 151 207.7C150.1 208.9 149.6 209.4 149.6 209.6L149.6 209.8C149.8 209.8 150.6 209.4 152 208.4C155.4 206 158 203.1 160.2 200ZM83.3 201.7C92.9 198.3 103.2 194.5 114.3 190.7C114.685 190.623 114.952 190.531 115.145 190.464C115.454 190.358 115.577 190.316 115.7 190.5C115.9 190.5 115.9 191 115.5 191.7C114.8 193.9 114.1 195.1 113.6 195.5C104 198.9 93.2 202.9 81 208.5C81.4 206.2 82.1 204.1 83.3 201.7Z" id="Group" fill="#595959" fill-rule="evenodd" stroke="none" clip-path="url(#clip_1)" />
  </g>
</svg>