<?xml version="1.0" encoding="utf-8"?>
<svg width="533.3001px" height="203.10007px" viewBox="0 0 533.3001 203.10007" version="1.1" xmlns:xlink="http://www.w3.org/1999/xlink" xmlns="http://www.w3.org/2000/svg">
  <defs>
    <path d="M533.3 0L533.3 0L533.3 203.1L0 203.1L0 0L533.3 0Z" id="path_1" />
    <clipPath id="clip_1">
      <use xlink:href="#path_1" clip-rule="evenodd" fill-rule="evenodd" />
    </clipPath>
  </defs>
  <g id="Surah_5_of_114_(modified)">
    <path d="M533.3 0L533.3 0L533.3 203.1L0 203.1L0 0L533.3 0Z" id="Surah_5_of_114_(modified)" fill="none" stroke="none" />
    <path d="M267.9 13.2C269.4 16.3 270.1 20.1 270.1 24.7C270.1 30 271 47 273.2 75.9C275.4 104.7 276.6 121.2 276.6 125.3C276.6 133.7 271.6 139.9 262 144L262 144.385L261.8 144C256.3 146.1 251.3 146.9 246.7 145.9C244.3 145.7 242.9 147.1 242.9 150.7C242.87 150.685 242.839 150.669 242.808 150.653C242.423 150.458 241.947 150.215 241.3 150.4C240.6 150.4 239.7 151.1 238.7 152.8C237.7 155.2 236.5 157.6 235.3 160C233.1 163.8 230.7 166.7 228.1 168.6C224.548 171.461 220.023 172.862 215.1 172.899L215.1 172.8C211.5 172.8 208.8 172.1 206.9 171.1C203.8 169 201.4 164.4 200.2 157.7C200 155.3 199.3 138.2 198.4 106.8C197.4 73.4 196.5 52.5 195.5 43.4C193.8 28.7 191.6 18.4 188.5 12.4C188 11.5 187.5 11 187.3 11C186.8 11 186.6 11.5 186.1 12.7C184.2 17.5 183.2 21.1 183.2 23.5C185.9 32.4 187.8 42 189 51.8C189.5 58 190.4 78 191.4 111.8C192.6 143.5 193.5 161.7 194.5 167C195.9 175.4 198.6 180.9 202.9 184C205.665 186.172 209.697 187.37 214.9 187.399L214.9 187.5C225.7 187.5 233.2 180.3 237.5 166.4C239.2 172.4 242.6 177.6 247.6 182.2C252.4 186.3 256.8 188.2 260.6 188.2C264.2 188.2 267.3 186.3 270.2 182.2C272.9 178.6 274.3 175 274.3 171.4C274.3 165.2 271.9 159.6 267.3 154.6L267.131 154.275C272.408 150.437 276.661 144.486 279.8 136.6C282.7 129.2 284.1 121.5 284.1 113.6C284.1 108.5 283.1 93.4 281.2 68.2C279.3 42.8 278.3 29.8 278.3 29.6C278.3 28.4 278.5 28.1 279 28.6C283 33.4 285.2 34.6 285.2 32.4C285.2 31.9 284.9 30.7 284.7 29.3C284 27.6 282.3 22.8 279.4 14.9C276.5 7.39999 274.6 2.89999 273.9 1.2C273.4 0.199997 273.2 0 272.7 0C272.5 0 272.2 0.300003 272 1C269.1 7.39999 267.9 11.5 267.9 13.2ZM244.9 2.90001C245.6 1.70001 246.6 1.20001 247.3 1.20001C247.8 1.20001 248.3 1.40001 248.3 1.90001C248.3 1.90001 248.1 2.10001 248.1 2.40001C247.1 4.60001 246.2 7.00002 245.5 9.40001C250.5 13 252.9 16.8 252.7 20.4C252.2 24.5 251.7 27.1 251 28.1C248.6 31 246 32.7 242.6 32.7C239.2 32.7 237.8 30.5 237.8 26.7C237.8 26 237.8 25 238 24.1C239.1 16.3 241.5 9.3 244.9 2.90001ZM289.7 14.6C291.2 17.8 291.9 21.6 291.9 26.4C291.9 30.5 293.1 49.4 295.6 83.2999C298 117.1 299.2 136.3 299.2 141.1C299.2 146.2 299 150.7 298.5 154.8C298.471 155.179 298.442 155.544 298.414 155.893C298.25 157.935 298.129 159.446 298.3 160.3C298.5 161 298.8 161 299.5 159.8C300 158.9 300.4 157.7 301.4 156C304.7 147.4 306.4 137.3 306.4 126C306.4 122.2 305.5 105.6 303.3 76.1C301.1 46.4 299.9 31.5 299.9 31C299.9 29.8 300.1 29.3 300.6 30C304.9 34.8 306.8 36 306.8 33.8C306.8 33.3 306.8 32.1 306.3 30.9C305.8 29 304.1 24.2 301 16.3C298.1 8.79999 296.4 4.29999 295.7 2.59999C295.2 1.89999 295 1.39999 294.5 1.39999C294.3 1.39999 294 1.89999 293.8 2.59999C290.9 8.79999 289.7 12.9 289.7 14.6ZM338.5 15.9C338.5 18.5 340.6 20.9 345.2 23.3C341.8 26.9 336.8 30.7 329.8 35C323.8 38.3 318.1 41.7 312.3 45.3C310.9 46 310.4 46.8 310.4 47C310.4 47 310.4 47.2 310.6 47.2C310.8 47.2 311.8 47 313 46.5C320.7 43.7 325 42 326 41.5C329.6 40.1 333.6 37.4 338.2 34.3C342 31.4 345.2 28.3 347.8 24.7C350 25.9 351.4 27.1 351.9 28.1C354 25.3 355 23.1 355 21.9C354.5 20.9 353.1 19.7 350.7 18.5C351.9 15.1 352.4 12.2 352.4 9.60002C352.4 6.80002 351.7 5.10002 350 4.60002C348.1 3.90001 345.7 4.90001 342.8 7.50002C339.9 9.90001 338.5 12.8 338.5 15.9ZM209.8 52.8C210.3 49.4 211.5 45.6 213.4 40.8C214.8 37.2 215.6 33.6 215.6 30C215.6 23 212.2 16.6 205.8 10.1C205.3 9.59999 205.3 9.09999 205.8 8.7L208 4.89999C208.2 4.39999 208.5 4.39999 209 4.89999C215.2 9.89999 218.6 17.4 218.6 27.2C218.6 31.8 217.4 36.8 215.5 41.8C213.3 47.1 212.4 50.7 212.4 52.6C212.4 56.7 213.4 58.8 215.5 58.8C216.9 58.8 218.4 57.1 220.1 54.2C220.1 54 220.3 53.7 220.3 53.7C220.409 53.5906 220.459 53.5411 220.481 53.5513C220.5 53.5598 220.5 53.6093 220.5 53.7L220.5 54.4C219.3 61.6 217.1 65.2 214 65.2C211.1 65.2 209.4 62.1 209.4 56.3C209.321 55.4286 209.493 54.4944 209.667 53.5472C209.713 53.2987 209.758 53.0494 209.8 52.8ZM91.5 26.4C110 19.7 129.2 12.5 149.3 5C149.478 4.94905 149.644 4.8916 149.794 4.83925C150.235 4.68609 150.551 4.57643 150.7 4.8C150.7 4.8 150.7 5.3 150.5 6C149.5 8.2 148.8 9.39999 148.3 9.8C131.5 16 111.6 23.7 89 33.1C89.6 30.9 90.3 28.8 91.5 26.4ZM348.3 12.7C348.6 14.1 348.6 15.6 348.1 17C344.5 15.3 342.5 13.9 342.5 12.6C342.5 12.2 342.9 11.7 343.9 11.2C344.9 10.7 345.6 10.5 346.1 10.5C347.3 10.5 348.1 11.3 348.3 12.7ZM390 30C390 30 389.8 30.3 389.8 30.5C388.1 33.3 386.7 35 385.1 35.1C383 35.1 382 32.9 382 29.1C382 26 383.2 20.9 385.6 13.5C386.1 11.8 386.3 10.8 386.3 10.6C386 10.6 385.6 11.5 384.6 13.2C380.8 20.2 379.1 27.1 379.1 33.6C379.1 38.9 380.6 41.5 383.7 41.5C386.8 41.5 389 37.9 390.2 30.7C390.4 30.5 390.4 30.2 390.2 30C390.2 29.9093 390.2 29.8598 390.181 29.8513C390.159 29.8411 390.109 29.8907 390 30ZM250.1 22.1C250.1 20.9 247.7 18.7 242.7 15.9C241 18.8 240.3 21.4 240.3 23.8C240.3 25.2 241 26.2 242.5 26.2C243.7 26.2 245.1 25.7 246.8 24.8C248.5 24 249.7 23 250.1 22.1ZM140.7 25.9C143.6 25.9 146 27.3 148.1 30.7C150.3 33.8 151.9 38.1 152.7 43.4C152.9 43.9 152.9 44.1 152.9 44.4L153.1 44.4C153.1 44.2 153.3 43.9 153.3 43.4C153.8 40.3 155 35.5 156.7 29.2C158.6 24.9 160.5 22.7 162.7 22.7C163.9 22.7 165.1 23.4 166.1 24.9C167.1 26.3 167.5 27.3 167.5 28.3C167.5 28.8 167.5 29.7 167 30.7C166.5 32.1 166 32.9 165.6 32.9C165.4 32.9 164.9 32.2 163.9 31.2C163.2 30.2 162.2 29.8 161.3 29.8C159.4 29.8 157.7 34.4 156 43.5C155.3 47.6 154.3 50.5 153.6 52.1C152.9 53.1 152.4 53.8 151.9 53.8C151.4 53.8 151.4 53.1 151.2 52.1C151.4 50.4 150.5 47.3 148.6 42.7C146.7 37.9 145.5 35.7 144.5 35.7C144 35.7 143.8 35.7 143.5 36.2C143.3 36.4 143 36.7 142.3 36.7C141.3 36.7 140.4 36 138.9 34.8C137.5 33.6 137 32.6 137 31.9C137 31.7 137.5 30.5 138.7 28.5C139.7 26.6 140.5 25.9 140.7 25.9ZM55.7 36L59.5 28.1C59.7 27.6 60 27.4 60.5 27.4C61 27.4 62.9 28.6 66.7 31.2C70.3 33.6 72.2 35 72.2 35.5C72.2 37.2 70.5 40.8 67.4 46.1C66.9 46.8 66.4 46.8 66 46.6C62.9 44.2 59.3 41.8 55.2 39.2C53.8 42.1 52.6 44.7 51.1 46.9C50.9 47.6 50.4 47.9 49.9 47.6C46.3 44.7 42.5 42.1 38.6 39.7C38.4 39.5 38.4 39.2 38.6 38.7L43.2 29.1C43.4 28.6 43.9 28.1 44.2 28.1C44.7 28.1 46.4 29.3 49.5 31.5C52.6 33.3 54.8 35 55.7 36ZM447 33.1C421 42.7 395.8 51.8 371.6 60.9C370.4 63.3 369.7 65.5 369.2 67.7C371.9 66 385.6 60.5 409.8 51.6C433.5 42.7 445.8 38.1 446 37.9C446.5 37.5 447.2 36.3 448.2 34.1C448.4 33.4 448.4 32.9 448.2 32.9C448.2 32.6866 447.947 32.7768 447.549 32.9186C447.388 32.9761 447.202 33.0422 447 33.1ZM498.5 75.8C498.5 72.4 499.7 67.9 502.1 62.1C502.6 60.7 502.9 59.5 502.8 58.7C502.8 57.3 501.8 55.8 499.4 54.4C500.6 51.3 501.1 48.4 501.1 45.8C501.1 43 500.1 41.3 498.7 40.8C496.8 40 494.4 41 491.5 43.4C488.6 46 487.2 48.9 487.2 52C487.2 54.6 489.3 57 493.9 59.4C490.5 63 483.6 67.8 473.5 73.6C465.8 78 458.4 82.3 450.7 86.6C449.3 87.5 448.8 88 448.8 88.5C448.8 88.5 448.8 88.7 449 88.7C449.5 88.7 450.2 88.5 451.4 88C452.6 87.3 457.9 85.4 466.8 81.8C471.6 79.8 476.1 77.4 480.7 74.8C487.4 70.7 492.7 65.9 496.5 60.9C498.6 62.1 499.6 63 499.6 63.5C499.6 63.7 498.8 65.9 497.4 70.2C496 74.5 495.5 77.9 495.5 80.5C495.5 85.8 497 88.4 500.1 88.4C503 88.4 505.2 84.8 506.6 77.6L506.6 76.9C506.6 76.7 506.4 76.7 506.4 76.7C506.1 76.9 506.1 77.2 505.9 77.4C504.2 80.3 502.8 82 501.6 82C499.5 82 498.5 79.9 498.5 75.8ZM497.1 49C497.4 50.4 497.4 51.9 496.9 53.3C493.3 51.6 491.3 50.1 491.3 48.9C491.3 48.5 491.7 48 492.7 47.5C493.7 47 494.4 46.8 494.9 46.8C496.1 46.8 496.9 47.6 497.1 49ZM103.7 66.9C103.7 66.7 103.9 66.4 103.9 66.4C104.009 66.2907 104.059 66.2411 104.081 66.2513C104.1 66.2597 104.1 66.3093 104.1 66.4C104.3 66.6 104.3 66.9 104.1 67.1C102.9 74.3 100.7 77.9 97.6 77.9C94.5 77.9 93 75.3 93 70C93 63.5 94.7 56.6 98.5 49.6C99.5 47.9 99.9 47 100.2 47C100.2 47.2 100 48.2 99.5 49.9C97.1 57.3 95.9 62.4 95.9 65.5C95.9 69.3 96.9 71.5 99 71.5C100.6 71.5 102.1 69.8 103.7 66.9ZM242 47.3C243.7 47.3 245.6 48.3 248.2 50.4C250.8 52.3 252.3 54.2 252.5 55.7C252.7 56.2 252.3 57.1 251.5 58.8C250.8 60.5 250.3 61.2 250.1 61.2C247.7 61.9 245.3 62.6 242.9 63.4C239.8 64.4 237.9 65.6 236.7 66.8C240.1 76.9 241.7 86.7 241.7 96.6C241.7 99.5 241.2 102.4 240.7 105.5C240.5 106.5 240.2 106.9 240 107.2C239.8 107.2 239.8 105.3 239.8 101.9C239.8 96.4 238.8 89.4 237.2 81.5C235.5 73.6 234.8 68.8 234.8 67.8C234.8 63.7 235.8 60.8 238.2 58.9C239.2 58.2 241.3 57.2 244.2 56.3C243 55.1 241.8 54.6 240.6 54.6C240.1 54.6 239.4 55.1 238.4 56.3C237.4 57.7 236.7 58.2 236.7 58.2C236.5 58.2 236.2 57.7 236.5 56.8C237.2 50.4 239.1 47.3 242 47.3ZM79.3 54C79.3 57.8 77.4 63.1 73.5 69.6C71.1 73.7 67.5 79.2 62.7 86.4C67.5 91.9 70.9 97 72.5 101.3C73.5 104.4 74.2 108.5 74.2 113.1C74.2 115 73.7 117.4 72.8 120.5C72.3291 122.451 71.7224 124.04 71.1017 125.328C71.2 125.398 71.2 125.605 71.2 126C71.2 126.7 71 127.9 70.5 129.4C67.6 140 66.2 147.9 66.2 153.4C66.1 161.5 69.9 165.3 77.6 165.3C88.6 165.3 100.4 161 113.1 152.3C122.9 145.6 130.6 138.6 136.1 131.2C138 128.8 138.7 127.6 138.7 127.6C139.4 126.4 139.7 125 139.7 123C139.7 118.4 138.3 111.2 135.9 101.2C134 93.5 129.2 82 122 66.2C121.8 65.7 122 63.8 122.7 60.2C123.2 56.8 123.4 54.4 123.9 53C124.4 51.3 125.1 50.8 126.1 52C134.5 63.3 141 79.1 145.1 99C146.8 107.9 149.2 120.4 151.8 136.2C153 143.2 155.2 147.5 158.5 149.6C160.2 150.8 163.1 151.3 166.7 151.3L166.7 151.697C171.975 151.606 175.442 149.7 177.1 145.7C177.1 143.8 174.9 139.7 170.9 133.2C170.7 132.5 170.4 132 170.4 131.3C170.4 127.7 171.4 124.1 173 120.5C173.5 119.3 174.2 119.3 174.9 120.5C177.3 123.9 179 127 179.7 129.1C181 132.5 181.7 136.5 181.7 141.3C181.7 148.5 180.5 154 178.3 157.9C175.2 163.4 171.1 166.3 166.3 166.3L166.3 165.898C161.193 165.849 157.229 164.847 154.5 162.8C150.2 159.7 147.5 153.9 145.9 145.5C145.4 142.6 144.5 136.9 143.3 128C142.1 135 139.7 140.7 136.1 145.3C128.9 154.2 120 161.9 109.9 168.3C98.1 175.7 87.3 179.6 77.5 179.6C72.5 179.6 68.4 177.4 65.7 173.1C63.5 169.5 62.6 165.2 62.6 159.9C62.6 149.899 64.7573 139.505 68.6834 129.01C66.7755 131.236 64.0901 133.447 60.4 135.6C55.4 139 51 140.6 47.4 140.6C41.6 140.6 38.8 136.3 38.8 127.6C38.8 121.8 39.8 116.1 41.7 110.8C43.6 106.2 46.7 100.2 51.8 92.3C47.5 88.2 42.9 82.5 37.9 75.3C37.4 74.6 36.2 73.4 34.3 71.5C33.3 70.5 32.9 69.3 32.9 67.9C32.9 65.7 33.1 63.3 33.6 60.5C34.3 57.6 34.8 56.4 35 56.4C35.7 56.4 37.9 57.6 42 60.2C45.8 62.8 49 64.8 50.9 66.4C52.1 67.1 52.6 67.8 52.6 67.8L52.6 68C52.6 68.2 51.9 68.5 50.2 68.5C47.1 68.5 45.4 68.7 45.4 69C45.4 69.2 45.9 69.7 46.8 70.9C50.6 75.7 54.5 79.3 58.6 82.2C59.6 80.8 62.9 76 68.2 67.8C72.8 60.8 75.4 56 76.6 53.2C77.8 50.3 78.5 49.1 79 49.1C79 49.2 79.3 50.6 79.3 54ZM341.1 51.8L337.3 59.7C336.3 58.8 334.1 57.1 331.1 55.2C328 53.0001 326.3 51.8 325.8 51.8C325.5 51.8 325 52.3 324.8 52.8L320.2 62.4001C320 62.9001 320 63.2 320.2 63.4001C324.1 65.8 327.9 68.4001 331.5 71.3C332 71.6 332.5 71.3 332.7 70.6C334.2 68.4 335.4 65.8 336.8 62.9C340.9 65.5 344.5 67.9 347.6 70.3C348 70.5 348.5 70.5 349 69.8C352.1 64.5 353.8 60.9 353.8 59.2C353.8 58.7 351.9 57.3 348.3 54.9C344.5 52.3 342.6 51.1 342.1 51.1C341.6 51.1 341.3 51.3 341.1 51.8ZM419.8 68.9C417.7 65.5 415.3 64.1 412.4 64.1C412.1 64.1 411.4 64.8 410.4 66.7C409.2 68.7 408.7 69.9 408.7 70.1C408.7 70.8 409.1 71.8 410.6 73C412.1 74.2 413 74.9 414 74.9C414.7 74.9 415 74.6 415.2 74.4C415.5 73.9 415.7 73.9 416.2 73.9C417.2 73.9 418.4 76.1 420.3 80.9C422.2 85.5 423.1 88.6 422.9 90.3C423.1 91.3 423.1 92 423.6 92C424.1 92 424.6 91.3 425.3 90.3C426 88.7 427 85.8 427.7 81.7C429.4 72.6 431.1 68 433 68C433.9 68 434.9 68.4 435.6 69.4C436.6 70.4 437.1 71.1 437.3 71.1C437.7 71.1 438.2 70.3 438.7 68.9C439.2 67.9 439.2 67 439.2 66.5C439.2 65.5 438.8 64.5 437.8 63.1C436.8 61.6 435.6 60.9 434.4 60.9C432.2 60.9 430.3 63.1 428.4 67.4C426.7 73.7 425.5 78.5 425 81.6C425 82.1 424.8 82.4 424.8 82.6L424.6 82.6C424.6 82.3 424.6 82.1 424.4 81.6C423.6 76.3 422 72 419.8 68.9ZM354.3 93.3C358.2 86.8 360.1 81.5 360.1 77.7C360.1 74.8893 359.882 73.3844 359.818 72.9381C359.807 72.8604 359.8 72.8148 359.8 72.8C359.3 72.8 358.6 74 357.4 76.9C356.2 79.7 353.6 84.5 349 91.5C343.7 99.7 340.4 104.5 339.4 105.9C335.3 103 331.4 99.4 327.6 94.6C326.7 93.4 326.2 92.9 326.2 92.7C326.2 92.4 327.9 92.2 331 92.2C332.7 92.2 333.4 91.9 333.4 91.7L333.4 91.5C333.4 91.5 332.9 90.8 331.7 90.1C329.8 88.5 326.6 86.5 322.8 83.9C318.7 81.3 316.5 80.1 315.8 80.1C315.6 80.1 315.1 81.3 314.4 84.2C313.9 87 313.7 89.4 313.7 91.6C313.7 93 314.1 94.2 315.1 95.2C317 97.1 318.2 98.3 318.7 99C323.7 106.2 328.3 111.9 332.6 116C327.5 123.9 324.4 129.9 322.5 134.5C320.6 139.8 319.6 145.5 319.6 151.3C319.6 160 322.4 164.3 328.2 164.3C331.8 164.3 336.2 162.7 341.2 159.3C346 156.5 349.1 153.6 351 150.7C351.9 149.2 352.9 147.1 353.6 144.2C354.5 141.1 355 138.7 355 136.8C355 132.2 354.3 128.1 353.3 125C351.7 120.7 348.3 115.6 343.5 110.1C348.3 102.9 351.9 97.4 354.3 93.3ZM178.6 94.3C178.1 96.5 177.6 97.7 176.9 98.4C174.3 100.1 168.3 103.9 159.1 110.2C158.9 110.4 158.4 110.7 157.9 111.2C157.7 111 157.7 111 157.7 110.5L158.2 107.4C158.4 106.7 159.9 105.2 162.8 103.1C159.2 101.9 157.5 100.2 157.5 98.3C157.5 96.1 158.2 94 160.1 91.8C163.7 87.5 166.8 85.3 169.2 85.3C171.4 85.3 172.3 86.5 172.3 88.9C172.3 90.3 171.8 91.8 170.6 93.7C170.4 94.2 170.1 94.2 169.6 93.5C169.1 92.3 168.2 91.8 167 91.8C166.3 91.8 165.3 92 164.1 93C162.9 93.7 162.2 94.4 162.2 94.9C162.2 95.6 162.9 96.3 164.4 97.1C165.8 98.1 167 98.3 168 98.3C168.7 98.3 170.2 97.8 172.3 96.6C173.7 95.6 174.9 94.7 176.4 93.7C176.734 93.5609 177.029 93.4218 177.288 93.2999C177.959 92.9837 178.383 92.7834 178.6 93C178.9 92.9 178.9 93.3 178.6 94.3ZM3.70001 90.2C6.60001 90.2 9.00002 91.6 11.1 95C13.3 98.1 14.9 102.4 15.7 107.7C15.9 108.2 15.9 108.4 15.9 108.7L16.1 108.7C16.1 108.5 16.3 108.2 16.3 107.7C16.8 104.6 18 99.8 19.7 93.5C21.6 89.2 23.5 87 25.7 87C26.9 87 28.1 87.7 29.1 89.2C30.1 90.6 30.5 91.6 30.5 92.6C30.5 93.1 30.5 94 30 95C29.5 96.4 29 97.2 28.6 97.2C28.4 97.2 27.9 96.5 26.9 95.5C26.2 94.5 25.2 94.1 24.3 94.1C22.4 94.1 20.7 98.7 19 107.8C18.3 111.9 17.3 114.8 16.6 116.4C15.9 117.4 15.4 118.1 14.9 118.1C14.4 118.1 14.4 117.4 14.2 116.4C14.4 114.7 13.5 111.6 11.6 107C9.7 102.2 8.49998 100 7.49999 100C6.99998 100 6.79999 100 6.49998 100.5C6.29999 100.7 5.99998 101 5.29999 101C4.29999 101 3.39999 100.3 1.89999 99.1C0.5 97.9 0 96.9 0 96.2C0 96 0.5 94.8 1.7 92.8C2.7 90.9001 3.39999 90.2 3.70001 90.2ZM379.7 111.1C379.2 108.9 378.5 107.3 377.5 106.1C376.8 104.7 376.3 103.9 376.1 103.5C376.1 103 376.1 101.3 376.6 98C377.1 94.9 377.3 92.7 377.8 91.5C378 90.3 378.3 89.8 378.8 89.8C379 89.8 379.3 90 379.8 90.5C383.2 94.3 386.8 98.2 390.8 102.3C392.5 104 393.2 104.9 393.2 105.4C393.2 105.6 393 105.9 392.5 105.9C391.8 105.9 389.9 105.4 387 104.7C388.7 108.8 390.6 112.9 392.3 116.7C394.9 123.4 396.4 128.9 396.4 134C396.4 136.4 395.9 139.3 395 142.9C393.8 147 392.4 150.1 390.4 152.3C384.637 158.804 375.687 165.851 363.44 173.328C364.01 176.089 365.03 178.594 366.5 180.8C370.3 185.8 376.3 188.5 384.7 188.5C391.9 188.5 400.5 185.4 410.9 179.1C419.1 174.1 427 168.1 434.7 160.9C441.7 154.1 445.3 149.7 445.3 147.6C445.3 146.2 444.8 144.5 444.3 142.8C441.4 143.8 437.1 144.5 431.8 144.5C420.3 144.5 414.5 140.4 414.5 132.5C414.5 126.5 416.2 121.2 420 116.4C423.6 112.3 427.4 110.2 431.5 110.2C434.6 110.2 437.7 112.1 441.3 115.7C444.4 119.3 447.3 123.4 449.7 128.4C449.9 128.4 450.4 128.4 451.4 127.9L451.4 141.1L450.9 141.6C450.9 144.5 450.2 147.8 448.7 152.2C447 157.7 444.4 162.3 441.3 165.9C434.1 174.5 426.2 182 417.5 188.5C404.5 198.1 393.5 203.1 383.9 203.1C375.7 203.1 369.5 200 365.2 194C361.631 189.304 359.65 183.02 359.422 175.728C358.02 176.547 356.58 177.371 355.1 178.2C340.7 186.6 332.3 190.7 329.7 190.7C329.2 190.7 322 192.4 308.3 195.7C293.9 199.1 284.8 201.2 281.2 201.7C277.4 202.4 275 202.7 274 202.7C273.5 202.7 273.5 202.7 273.5 202.5C273.5 202.3 276.1 200.8 281.4 198.4C283.3 197.4 294.4 192.6 314.8 184C329 178 340.7 172.5 350.1 167.4C353.801 165.393 357.271 163.454 360.511 161.586C361.539 155.555 363.262 149.413 365.6 143.1C366.8 140.7 367.3 139.7 367.8 139.7C368 139.7 368 139.9 368 140.4C368 141.1 367.8 142.3 367.5 143.8C365.68 150.025 364.411 155.319 363.674 159.742C371.396 155.188 377.672 151.088 382.5 147.5C388 143.2 390.9 140.1 390.9 138.1C390.9 137.6 389.5 134.3 386.6 128C383.3 120.9 380.9 115.2 379.7 111.1ZM88.6 98.6C91.5 98.6 93.9 100 96 103.4C98.2 106.5 99.8 110.8 100.6 116.1C100.8 116.6 100.8 116.8 100.8 117.1L101 117.1C101 116.9 101.2 116.6 101.2 116.1C101.7 113 102.9 108.2 104.6 101.9C106.5 97.6 108.4 95.4 110.6 95.4C111.8 95.4 113 96.1 114 97.6C115 99 115.4 100 115.4 101C115.4 101.5 115.4 102.4 114.9 103.4C114.4 104.8 113.9 105.6 113.5 105.6C113.3 105.6 112.8 104.9 111.8 103.9C111.1 102.9 110.1 102.5 109.2 102.5C107.3 102.5 105.6 107.1 103.9 116.2C103.2 120.3 102.2 123.2 101.5 124.8C100.8 125.8 100.3 126.5 99.8 126.5C99.3 126.5 99.3 125.8 99.1 124.8C99.3 123.1 98.4 120 96.5 115.4C94.6 110.6 93.4 108.4 92.4 108.4C91.9 108.4 91.7 108.4 91.4 108.9C91.2 109.1 90.9 109.4 90.2 109.4C89.2 109.4 88.3 108.7 86.8 107.5C85.4 106.3 84.9 105.3 84.9 104.6C84.9 104.4 85.4 103.2 86.6 101.2C87.7 99.3 88.4 98.6 88.6 98.6ZM69.9 113C67.3 107.7 62.7 102.2 56.5 96.9C54.3 99.1 51.7 103.1 48.3 108.9C44.5 115.4 42.8 119.5 42.8 121.6C42.8 124.5 44.7 125.9 49 125.9C50.9 125.9 53.3 125.2 56.4 124C60.7 122.1 64.8 119.4 68.2 116.1C69.7 114.7 70.1 113.7 69.9 113ZM474.5 114.2C475.7 113.2 476.7 112.8 477.4 112.8C477.9 112.8 478.1 113.3 478.1 114.2C478.1 114.9 477.9 116.4 477.4 118.3C476.9 120.2 476.7 121.7 476.7 122.9C476.7 128.2 480.5 131.1 488 131.1C494 131.1 499 128.5 502.9 123.4C505.3 119.3 507.9 115.5 510.3 111.6C511.3 110.6 512 110.2 512.7 110.2C513.7 110.2 513.9 111.2 513.4 113.3C512.4 117.4 511.7 119.3 511.7 118.8C511.7 120.5 512.7 122.2 514.6 123.6C516.3 125 518.7 126 521.3 126C524.7 126 526.8 125 527.8 123.4C527.8 123.2 526.8 121.2 524.7 117.6C524.9 115.7 525.9 112.3 527.3 107.8C527.5 106.4 528 105.6 528.5 105.6C529 105.6 529.5 105.8 530.2 106.8C532.1 109.7 533.3 113 533.3 116.9C533.3 122.9 531.9 127.9 529.2 132.3C526.3 137.6 522 140.2 516.2 140.2C512.4 140.2 508.8 137.1 505.6 131.3C500.3 140.9 493.4 145.7 485 145.7C474.9 145.7 470.1 139.9 470.1 128.9C466.3 133.5 459.8 137.5 451.4 141.4L451.4 128.2C457.6 125.1 461.7 123.2 462.9 122.4C466.9 120.5 470.7 117.6 474.5 114.2ZM207.7 127.4C226.2 120.7 245.4 113.5 265.5 106C265.678 105.949 265.844 105.892 265.994 105.839C266.435 105.686 266.751 105.576 266.9 105.8C266.9 105.8 266.9 106.3 266.7 107C265.7 109.2 265 110.4 264.5 110.8C247.7 117 227.8 124.7 205.2 134.1C205.7 132 206.5 129.8 207.7 127.4ZM337.3 120.7C343.5 126 348.1 131.5 350.7 136.8C350.9 137.5 350.5 138.5 349 139.9C345.6 143.2 341.5 145.9 337.2 147.8C334.1 149 331.7 149.7 329.8 149.7C325.5 149.7 323.6 148.3 323.6 145.4C323.6 143.3 325.3 139.2 329.1 132.7C332.5 126.9 335.1 122.9 337.3 120.7ZM428.2 123.4C431.1 123.4 434.2 125.5 437.8 130.1C435.2 130.5 432.8 131 430.6 131.1C424.9 131.1 422 129.7 422 126.8C422 124.4 423.9 123.4 428.2 123.4ZM45.2 170.4C45.2 170.2 45.4 169.9 45.4 169.9C45.5093 169.791 45.5589 169.741 45.5814 169.751C45.6 169.76 45.6 169.809 45.6 169.9C45.8 170.1 45.8 170.4 45.6 170.6C44.4 177.8 42.2 181.4 39.1 181.4C36 181.4 34.5 178.8 34.5 173.5C34.5 167 36.2 160.1 40 153.1C41 151.4 41.4 150.5 41.7 150.5C41.7 150.7 41.5 151.7 41 153.4C38.6 160.8 37.4 165.9 37.4 169C37.4 172.8 38.4 175 40.5 175C42.1 174.9 43.5 173.3 45.2 170.4ZM459.1 194.9C459.6 194.9 461.1 194.4 463.7 193.7C466.1 192.9 468.3 191.7 470.5 190.2L481.3 179.4C486.4 174.6 491.4 172.4 496.2 172.4C496.9 172.4 497.9 172.6 499.1 173.1C500.3 173.6 501.5 173.8 502.2 173.8C505 173.8 507.9 172.1 510.8 169.2C514.4 170.9 517 171.2 518.7 170.2C519.2 169.8 519.9 168.6 520.6 166.4C521.3 164.5 521.8 162.8 521.8 161.1C521.8 159.5 521.4 158 520.4 157.3C520.108 157.105 519.722 157.763 518.78 159.364L518.7 159.5C518 160.5 517.8 161.2 518 161.7C518.5 163.3 518.7 164.3 518.7 164.3C518.7 164.5 518.5 164.5 518 164.5C514.4 164.5 512.5 164.2 513 163.5C513.5 162.1 513.7 160.9 513.7 160.4C513.7 159.9 513.7 159.7 513.5 159.7C513 159.7 512.3 160.1 511.8 161.1C510.9 162.6 509.9 163.8 509.2 165.2C508 166.7 506.5 167.4 504.6 167.4C503.6 167.4 502.4 167.2 501.2 166.7C499.7 166.2 498.5 166 497.8 166C494.2 166 490.8 167.2 487.2 169.8C484.3 171.7 481.7 174.3 479.3 177.2C475.7 181.6 472.8 184.7 470.9 186.6C466.8 189.7 463.9 191.6 462 192.8C460.1 194 459.1 194.7 459.1 194.7L459.1 194.9ZM248.9 162.2C255.7 163.4 260.5 165.8 263.1 169.9C263.8 171.1 264.1 171.8 264.1 172.2C264.1 172.7 263.3 173.2 261.9 173.2C256.8 173.2 252 170.1 247 164.1C246.5 163.4 246.3 162.9 246.3 162.7C246.3 162.2 247.2 162 248.9 162.2ZM128.5 195.8C147 189.1 166.2 181.9 186.3 174.4C186.478 174.349 186.644 174.292 186.794 174.239C187.235 174.086 187.551 173.976 187.7 174.2C187.7 174.2 187.7 174.7 187.5 175.4C186.5 177.6 185.8 178.8 185.3 179.2C168.5 185.4 148.6 193.1 126 202.5C126.5 200.4 127.3 198.2 128.5 195.8ZM73.3 194.4C82.9 191 93.2 187.2 104.3 183.4C104.685 183.323 104.952 183.231 105.145 183.164C105.454 183.058 105.577 183.016 105.7 183.2C105.9 183.2 105.9 183.7 105.5 184.4C104.8 186.6 104.1 187.8 103.6 188.2C94 191.6 83.2 195.6 71 201.2C71.3 198.9 72.1 196.8 73.3 194.4Z" id="Group" fill="#595959" fill-rule="evenodd" stroke="none" clip-path="url(#clip_1)" />
  </g>
</svg>