<?xml version="1.0" encoding="utf-8"?>
<svg width="585.5001px" height="211.2px" viewBox="0 0 585.5001 211.2" version="1.1" xmlns:xlink="http://www.w3.org/1999/xlink" xmlns="http://www.w3.org/2000/svg">
  <defs>
    <path d="M585.5 0L585.5 0L585.5 211.2L0 211.2L0 0L585.5 0Z" id="path_1" />
    <clipPath id="clip_1">
      <use xlink:href="#path_1" clip-rule="evenodd" fill-rule="evenodd" />
    </clipPath>
  </defs>
  <g id="Surah_26_of_114_(modified)">
    <path d="M585.5 0L585.5 0L585.5 211.2L0 211.2L0 0L585.5 0Z" id="Surah_26_of_114_(modified)" fill="none" stroke="none" />
    <path d="M340.2 29.1C340.2 24.3 339.5 20.5 338 17.3C338 15.6 339.2 11.5 342.1 5.3C342.3 4.60001 342.6 4.10001 342.8 4.10001C343.3 4.10001 343.5 4.60001 344 5.3C344.7 7 346.4 11.5 349.3 19C352.4 26.9 354.1 31.7 354.6 33.6C355.1 34.8 355.1 36 355.1 36.5C355.1 38.7 353.2 37.5 348.9 32.7C348.4 32 348.2 32.5 348.2 33.7C348.2 34.2 349.4 49.1 351.6 78.8C353.8 108.3 354.7 124.9 354.7 128.7C354.7 140 353 150.1 349.7 158.7C348.7 160.4 348.3 161.6 347.8 162.5L347.8 162.5C347.1 163.7 346.8 163.7 346.6 163C346.4 162 346.6 160.1 346.8 157.5C347.3 153.4 347.5 148.9 347.5 143.8C347.5 139 346.3 119.8 343.9 86C341.4 52.2 340.2 33.2 340.2 29.1L340.2 29.1L340.2 29.1L340.2 29.1L340.2 29.1ZM331.1 113.4C331.1 127.6 328.5 138.6 323.4 146.8C319.1 153.5 314 157.1 308.3 157.1L308.3 142.5C312.9 142.5 317.4 140.6 321.7 137C322.9 136 323.6 132 323.6 125.2C323.6 121.1 322.4 104.6 320.2 75.8C318 47 317.1 30 317.1 24.7C317.1 20.1 316.4 16.3 314.9 13.2C314.9 11.5 316.3 7.39999 319 1C319.2 0.300003 319.5 0 320 0C320.2 0 320.5 0.199997 321 1.2C321.7 2.89999 323.6 7.39999 326.5 14.9C329.4 22.8 331.1 27.6 331.8 29.3C332 30.7 332.3 31.9 332.3 32.4C332.3 34.6 330.1 33.4 326.1 28.6C325.6 28.1 325.4 28.4 325.4 29.6C325.4 29.8 326.4 42.8 328.3 68.2C330.1 93.2 331.1 108.3 331.1 113.4L331.1 113.4L331.1 113.4L331.1 113.4L331.1 113.4ZM235.1 147C241.1 147 246.9 144.8 252.4 140.3C252.9 140.1 255 137.7 259.1 133.3C262.7 129.5 264.9 127.5 265.1 127.5C266.1 127.5 266.1 128.2 265.6 130.1C264.6 132.3 264.4 133.7 264.4 134.4C264.4 136.1 265.1 138 266.6 140.2C268.3 143.1 270.9 144.5 273.8 144.5C282 144.5 288.7 138.7 294.4 127.2C295.1 126 295.6 125.3 296.6 125.3C297.1 125.3 297.6 126 297.6 127C297.6 127.5 297.4 128.2 297.4 128.9C297.2 129.9 297.2 130.6 297.2 130.8C297.2 134.2 298.4 137 300.3 139.2C302.5 141.1 305.1 142.3 308.2 142.3L308.2 156.9C301 156.9 295.7 152.1 292.4 142.7C292.2 141.5 291.7 141.5 291.2 142.7C286.9 153.5 280.9 159 273.2 159C265.5 159 261 154 259.3 144.1C259.3 143.4 259.1 142.9 259.1 142.9C258.9 142.9 258.6 143.4 258.1 144.1C256.2 147.2 253.5 150.3 249.9 153.7C243.9 158.7 238.1 161.4 232.4 161.4C226.2 161.4 221.8 159.5 219.2 155.6C217.8 153.2 216.8 149.6 216.6 145C216.6 144.5 216.4 144.3 215.9 144C215.2 144.2 214.5 144.5 213.7 145.4C208.7 151.2 205.5 154.5 204.1 155.7C197.9 161.2 191.4 163.9 184.7 163.9L184.7 149.3C191.9 149.3 198.1 147.4 203.4 143.5C205.6 142.1 210.4 137.5 218 129.8C219 128.8 219.7 128.6 220.6 128.4C221.8 128.6 222.3 129.4 221.8 131C221.1 132.9 220.8 134.6 220.8 136C220.8 139.4 222.2 142 224.9 143.9C227.4 146 231 147 235.1 147L235.1 147L235.1 147L235.1 147L235.1 147ZM153 150.3C149.2 152.7 139.8 157 124.9 163.3L124.9 150.1C129.7 148.2 136.2 145.5 144.3 141.9C137.6 134.9 131.8 131.3 126.5 131.3C122.9 131.3 120.3 131.8 118.6 133C117.9 133.2 117.4 133.5 116.9 133.5C116.4 133.5 116.2 133.3 116.2 132.5C116.2 132 116.2 131.5 116.7 130.8L121 120.7C121.7 118.8 126 116.9 133.5 115.2C140.9 113.5 147.9 112.8 154.6 112.8C161.1 112.8 167.6 113.8 174.3 115.9C179.1 117.6 182.9 119.5 186.1 121.4C188 122.6 189.2 123.8 189.2 124.3C189.2 124.8 188.7 125.7 188.2 126.7L183.2 135.6C179.1 137.3 173.1 139.9 165.4 143.8C169.2 147.6 175.7 149.6 184.4 149.3L184.4 164.2C177.9 164.2 172.9 163.5 170 162.3C166 160.9 160.4 156.8 153 150.3L153 150.3L153 150.3L153 150.3L153 150.3ZM169.1 129.7C166 127.5 160.2 126.3 151.6 126.3C149.2 126.3 147 126.5 145.1 126.8C151.1 130.9 154.9 133.8 156.9 135.9C160 134.3 164 132.3 169.1 129.7L169.1 129.7L169.1 129.7L169.1 129.7L169.1 129.7ZM79.6 176.7C84.6 170.9 91.4 165.9 99.8 161.3C104.6 158.7 113 154.8 125 149.8L125 163C117.3 166.4 111.8 168.8 108.2 170.4C100.8 174 95.7 176.6 93.1 178.8C88.1 182.6 80.6 190.1 71 201.1C65.2 207.8 59.5 211.2 53.7 211.2C48.9 211.2 44.6 209 41 204.5C37.2 200.2 35.5 194.4 35.5 187.9C35.5 179 39.1 167.3 46.5 152.6C47.2 151.2 47.9 150.4 48.4 150.4C48.4 150.4 48.6 150.6 48.6 150.9C48.6 152.3 46.9 157.4 43.8 166C40.4 174.9 38.8 181.6 38.8 186.6C38.8 190.4 39.8 193.6 41.7 195.7C43.6 198.3 46.3 199.5 49.6 199.5C55.6 199.5 61.8 196.4 67.8 190.4C71.9 186.1 75.7 181.3 79.6 176.7L79.6 176.7L79.6 176.7L79.6 176.7L79.6 176.7ZM72.1 39.5C72.1 34.9 71.4 31.1 69.9 28C69.9 26.3 71.1 22.2 74 15.8C74.2 15.1 74.5 14.8 74.7 14.8C75.2 14.8 75.4 15 75.9 16C76.6 17.7 78.3 22.2 81.2 29.7C84.3 37.6 86 42.4 86.5 44.1C87 45.5 87.2 46.5 87.2 47.2C87.2 49.4 85 48.2 81 43.4C80.5 42.7 80.3 42.9 80.3 44.4C80.3 44.6 81.3 58.1 83.4 84.5C85.6 111.1 86.8 126 86.8 129.9C86.8 141.2 84.9 151.3 81.5 159.9C80.8 161.6 80.1 162.8 79.6 163.7L79.6 163.7C78.9 164.7 78.6 164.9 78.4 164.2C78.2 163.2 78.2 161.3 78.6 158.4C79.1 154.6 79.3 150 79.3 145C79.3 140.2 78.1 122.7 75.7 92C73.3 61.1 72.1 43.5 72.1 39.5L72.1 39.5L72.1 39.5L72.1 39.5L72.1 39.5ZM64.2 118.7C64.2 119.4 63 121.8 60.8 125.9C59.1 127.1 55 129.5 48.6 133.1C40.2 137.7 32.8 142 26.5 145.8C24.3 147 23.1 147.7 22.7 147.7C22.2 147.7 22.2 147.5 22.2 147C22.2 145.8 23.2 142.9 25.6 138.4C26.6 137.4 29.2 135.5 33 132.9C30.4 131.2 28.7 130.3 28 129.5C26.1 127.8 25.1 125.7 25.1 123.3C25.1 119.2 28 114.4 33.7 109.1C39 104.1 43.3 101.4 46.4 101.4C48.1 101.4 49.5 102.1 50.7 103.6C51.7 104.8 52.4 106.7 52.4 108.9C52.4 110.8 51.7 112.7 50.2 114.9C49 116.6 47.8 117.5 46.8 117.5C46.6 117.5 45.8 116.8 45.1 114.9C44.4 113 43.4 112.3 42.2 112.3C40.5 112.3 38.4 112.8 35.7 114.2C32.8 115.6 31.4 116.6 31.4 117.1C31.4 118.3 32.8 119.7 36 121.4C39.6 123.3 43.2 124.3 46.6 124.3C48.8 124.1 51.9 122.6 56.2 120.7C59.8 118.8 62.2 117.8 62.9 117.8C63.7 117.7 64.2 117.9 64.2 118.7L64.2 118.7L64.2 118.7L64.2 118.7L64.2 118.7ZM256.7 103.8L260.5 96.1C260.7 95.4 261 95.1 261.5 95.1C262 95.1 263.9 96.3 267.7 98.9C271.3 101.5 273.2 103 273.2 103.5C273.2 105.2 271.5 108.5 268.4 113.8C267.9 114.5 267.4 114.5 267 114.3C263.9 111.9 260.3 109.5 256.2 106.9C254.8 109.8 253.6 112.4 252.1 114.6C251.9 115.3 251.4 115.6 250.9 115.3C247.3 112.4 243.5 109.8 239.6 107.4C239.4 107.2 239.4 106.9 239.6 106.4L244.2 96.8C244.4 96.3 244.9 95.8 245.2 95.8C245.7 95.8 247.4 97 250.5 99.2C253.6 101.1 255.7 102.8 256.7 103.8L256.7 103.8L256.7 103.8L256.7 103.8L256.7 103.8ZM243.5 88.9C243.3 88.7 243.3 88.4 243.5 87.9L248.3 78.3C248.5 77.8 248.8 77.6 249.3 77.6C249.8 77.6 251.7 78.8 255.5 81.2C259.1 83.8 261 85.3 261 85.8C261 87.5 259.3 90.8 256.2 96.1C255.7 96.8 255.2 97.1 254.8 96.6C251.2 93.9 247.3 91.3 243.5 88.9L243.5 88.9L243.5 88.9L243.5 88.9L243.5 88.9ZM255.7 54.1C255.7 56 255.2 58.2 254.3 60.1C253.1 62.7 251.7 64.2 250 64.2C247.1 64.2 245.2 62.3 244 58.4C242.6 63.2 240.2 65.8 236.6 65.8C235.4 65.8 234.2 65.1 233.2 63.6C232 62.2 231.5 60 231.5 57.6L231.5 51.4C231.5 50.9 231 50.7 230.5 50.4C229.8 50.2 229.5 49.7 229.5 49C229.5 47.6 230 46.4 230.9 45.2C231.9 44 232.6 43.5 233.1 43.5C233.8 43.5 234.3 44.7 234.3 47.3C234.3 48.7 234.1 49.9 234.1 50.9C233.9 51.9 233.9 52.6 233.9 53.3C233.9 54.7 234.1 56.2 234.6 57.4C235.3 58.8 236.3 59.8 237.2 59.8C238.6 59.8 239.8 59.1 241 57.9C242.2 56.7 242.9 55.3 242.9 53.6C242.9 52.6 242.4 51.2 241.9 48.8C241.2 46.6 240.9 45.2 240.9 44.7C240.9 44.2 241.1 43.5 241.6 42.3C242.1 41.3 242.6 40.9 242.8 40.9C243.3 40.9 243.8 42.3 244.5 45.2C245.2 48.3 245.7 50.5 245.7 51.9C245.7 56 247.1 58.1001 250.3 58.1001C251.7 58.1001 252.7 57.4 252.9 55.9C250.3 51.1 248.8 47.5 248.8 44.9C248.8 43.5 249 42.3 250 41.1C250.5 40.4 250.7 39.9 251 39.9C251.2 39.9 251.5 40.4 251.5 41.3C251.7 42.5 252 43.7 252.2 44.7C252.2 44.7 252.9 46.4 254.1 49.7C255.2 51.7 255.7 53.1 255.7 54.1L255.7 54.1L255.7 54.1L255.7 54.1L255.7 54.1ZM238.2 18.1C238.7 16.7 238.7 15.2 238.4 13.8C238.2 12.4 237.4 11.6 236.2 11.6C235.7 11.6 235 11.8 234 12.3C233 12.8 232.6 13.3 232.6 13.7C232.7 15 234.6 16.4 238.2 18.1L238.2 18.1L238.2 18.1L238.2 18.1L238.2 18.1ZM235.3 24.3C230.7 21.9 228.6 19.5 228.6 16.9C228.6 13.8 230 10.9 232.9 8.50002C235.8 5.90001 238.2 4.90001 240.1 5.60002C241.8 6.10002 242.5 7.80002 242.5 10.6C242.5 13.2 242 16.1 240.8 19.5C243.2 20.7 244.6 21.9 245.1 22.9C245.1 24.1 244.1 26.3 242 29.1C241.5 28.1 240.1 26.9 237.9 25.7C235.3 29.3 232.1 32.4 228.3 35.3C223.7 38.4 219.7 41.1 216.1 42.5C215.1 43 210.8 44.7 203.1 47.5C201.9 48 200.9 48.2 200.7 48.2C200.5 48.2 200.5 48 200.5 48C200.5 47.8 201 47 202.4 46.3C208.2 42.7 213.9 39.3 219.9 36C226.9 31.8 232 27.9 235.3 24.3L235.3 24.3L235.3 24.3L235.3 24.3L235.3 24.3ZM141.5 84.1C165.7 75 190.9 65.9 216.9 56.3C217.6 56.1 218.1 55.8 218.1 56.1C218.3 56.1 218.3 56.6 218.1 57.3C217.1 59.5 216.4 60.7 215.9 61.1C215.7 61.3 203.4 65.9 179.7 74.8C155.5 83.7 141.8 89.2 139.1 90.9C139.6 88.7 140.3 86.5 141.5 84.1L141.5 84.1L141.5 84.1L141.5 84.1L141.5 84.1ZM199.6 36.6C198.6 39 197.9 40.4 197.4 40.7C197.4 40.9 183.2 46.2 155.4 56.3C126.8 67.1 110.3 73.6 105.7 76C102.1 77.7 100.4 79.1 100.4 79.6C100.4 80.1 100.9 80.6 102.1 81.3C103.3 81.8 105.2 82.5 107.9 83.5C108.4 83.7001 108.6 84.7001 108.6 86.4C108.6 87.8 108.4 88.8 108.4 89C108.2 89.2001 107.7 89.2001 106.7 89.2001C100.7 88 97.8 85.8001 97.8 83C97.8 81.1001 98.5 78.9 100.2 76.3C101.9 73.7 103.6 71.7 105.2 70.5C106.9 69.5 122.7 63.5 152.7 52.5C167.8 47 182.9 41.2 198.3 35.7C199.3 35.5 199.7 35.2 199.7 35.5C200 35.4 199.8 35.9 199.6 36.6L199.6 36.6L199.6 36.6L199.6 36.6L199.6 36.6ZM20.3 155.6C34.9 150.1 50.5 144.3 66.6 138.6C67.1 138.4 67.6 138.1 67.6 138.4C67.8 138.4 67.8 138.6 67.6 139.4C66.9 141.1 66.2 142 65.9 142.5C52.2 147.3 36.4 153.5 18.4 161C18.6 159.2 19.3 157.5 20.3 155.6L20.3 155.6L20.3 155.6L20.3 155.6L20.3 155.6ZM196.4 87.9C199.3 87.9 201.7 89.3 203.8 92.7C206 95.8 207.6 100.1 208.4 105.4C208.6 105.9 208.6 106.1 208.6 106.4L208.8 106.4C208.8 106.2 209 105.9 209 105.4C209.5 102.3 210.7 97.5 212.4 91.2C214.3 86.9 216.2 84.7 218.4 84.7C219.6 84.7 220.8 85.4 221.8 86.9C222.8 88.4 223.2 89.3 223.2 90.3C223.2 90.8 223.2 91.7 222.7 92.7C222.2 94.1 221.7 94.9 221.3 94.9C221.1 94.9 220.6 94.2 219.6 93.2C218.9 92.2 217.9 91.8 217 91.8C215.1 91.8 213.4 96.4 211.7 105.5C211 109.6 210 112.5 209.3 114.1C208.6 115.1 208.1 115.8 207.6 115.8C207.1 115.8 207.1 115.1 206.9 114.1C207.1 112.4 206.2 109.3 204.3 104.7C202.4 99.9 201.2 97.7 200.2 97.7C199.7 97.7 199.5 97.7 199.2 98.2C199 98.4 198.7 98.7 198 98.7C197 98.7 196.1 98 194.6 96.8C193.2 95.6 192.7 94.6 192.7 93.9C192.7 93.7 193.2 92.5 194.4 90.5C195.5 88.7 196.2 87.9 196.4 87.9L196.4 87.9L196.4 87.9L196.4 87.9L196.4 87.9ZM142.2 201C147 201 152 200 157.8 198.4C159.2 197.9 160 197.9 160 198.2C160 198.4 159.5 198.9 158.3 199.9C153.5 204.2 147 206.6 139.3 206.6C137.1 206.6 135 205.9 133.5 204.7C132.1 203.5 131.3 201.8 131.3 199.9C131.3 194.9 133.5 189.6 137.8 184.1C134 182.9 132 181 132 178.1C132 175.5 133.4 172.6 136.6 169.2C139.7 165.8 142.1 164.2 144 164.2C144.5 164.2 145 164.4 145.4 165.4C145.9 166.1 146.1 166.8 146.1 167.8C146.1 168.3 145.6 169.2 144.7 170.7C143.7 172.1 143 172.6 143 172.4C142.5 171 141.8 170.2 140.4 170.2C139.7 170.2 139 170.7 138 171.9C136.8 173.1 136.3 174.1 136.3 174.8C137.5 176.7 139.7 177.9 142.5 177.9C143.5 177.9 145.1 176.9 147.1 175C148.5 174 149.7 172.8 150.9 171.6C151.4 171.4 151.6 171.6 151.6 172.6C151.6 175 150.6 177.2 149.2 179.6C142.7 183.9 137.9 189 134.8 194.5C134.3 195.7 134.1 196.7 134.1 197.4C134.3 199.5 136.9 201 142.2 201L142.2 201L142.2 201L142.2 201L142.2 201ZM283.8 177.5C286.7 177.5 289.1 178.9 291.2 182.3C293.4 185.4 295 189.7 295.8 195C296 195.5 296 195.7 296 196L296.2 196C296.2 195.8 296.4 195.5 296.4 195C296.9 191.9 298.1 187.1 299.8 180.8C301.7 176.5 303.6 174.3 305.8 174.3C307 174.3 308.2 175 309.2 176.5C310.2 177.9 310.6 178.9 310.6 179.9C310.6 180.4 310.6 181.3 310.1 182.3C309.6 183.7 309.1 184.5 308.7 184.5C308.5 184.5 308 183.8 307 182.8C306.3 181.8 305.3 181.4 304.4 181.4C302.5 181.4 300.8 186 299.1 195.1C298.4 199.2 297.4 202.1 296.7 203.7C296 204.7 295.5 205.4 295 205.4C294.5 205.4 294.5 204.7 294.3 203.7C294.5 202 293.6 198.9 291.7 194.3C289.8 189.5 288.6 187.3 287.6 187.3C287.1 187.3 286.9 187.3 286.6 187.8C286.4 188 286.1 188.3 285.4 188.3C284.4 188.3 283.5 187.6 282 186.4C280.6 185.2 280.1 184.2 280.1 183.5C280.1 183.3 280.6 182.1 281.8 180.1C282.8 178.2 283.6 177.5 283.8 177.5L283.8 177.5L283.8 177.5L283.8 177.5L283.8 177.5ZM248.5 194.7C248.5 194.5 248.7 194.2 248.7 194.2C248.9 194 248.9 194 248.9 194.2C249.1 194.4 249.1 194.7 248.9 194.9C247.7 202.1 245.5 205.7 242.4 205.7C239.3 205.7 237.8 203.1 237.8 197.8C237.8 191.3 239.5 184.4 243.3 177.4C244.3 175.7 244.7 174.8 245 174.8L245 174.8C245 175 244.8 176 244.3 177.7C241.9 185.1 240.7 190.2 240.7 193.3C240.7 197.1 241.7 199.3 243.8 199.3C245.4 199.3 246.8 197.6 248.5 194.7L248.5 194.7L248.5 194.7L248.5 194.7L248.5 194.7ZM188.5 178.7C191.4 178.7 193.8 180.1 195.9 183.5C198.1 186.6 199.7 190.9 200.5 196.2C200.7 196.7 200.7 196.9 200.7 197.2L200.9 197.2C200.9 197 201.1 196.7 201.1 196.2C201.6 193.1 202.8 188.3 204.5 182C206.4 177.7 208.3 175.5 210.5 175.5C211.7 175.5 212.9 176.2 213.9 177.7C214.9 179.1 215.3 180.1 215.3 181.1C215.3 181.6 215.3 182.5 214.8 183.5C214.3 184.9 213.8 185.7 213.4 185.7C213.2 185.7 212.7 185 211.7 184C211 183 210 182.6 209.1 182.6C207.2 182.6 205.5 187.2 203.8 196.3C203.1 200.4 202.1 203.3 201.4 204.9C200.7 205.9 200.2 206.6 199.7 206.6C199.2 206.6 199.2 205.9 199 204.9C199.2 203.2 198.3 200.1 196.4 195.5C194.5 190.7 193.3 188.5 192.3 188.5C191.8 188.5 191.6 188.5 191.3 189C191.1 189.2 190.8 189.5 190.1 189.5C189.1 189.5 188.2 188.8 186.7 187.6C185.3 186.4 184.8 185.4 184.8 184.7C184.8 184.5 185.3 183.3 186.5 181.3C187.6 179.4 188.3 178.7 188.5 178.7L188.5 178.7L188.5 178.7L188.5 178.7L188.5 178.7ZM273.2 7.8C276.1 7.8 278.5 9.2 280.6 12.6C282.8 15.7 284.4 20 285.2 25.3C285.4 25.8 285.4 26 285.4 26.3L285.6 26.3C285.6 26.1 285.8 25.8 285.8 25.3C286.3 22.2 287.5 17.4 289.2 11.1C291.1 6.8 293 4.60001 295.2 4.60001C296.4 4.60001 297.6 5.3 298.6 6.8C299.6 8.2 300 9.2 300 10.2C300 10.7 300 11.6 299.5 12.6C299 14 298.5 14.8 298.1 14.8C297.9 14.8 297.4 14.1 296.4 13.1C295.7 12.1 294.7 11.7 293.8 11.7C291.9 11.7 290.2 16.3 288.5 25.4C287.8 29.5 286.8 32.4 286.1 34C285.4 35 284.9 35.7 284.4 35.7C283.9 35.7 283.9 35 283.7 34C283.9 32.3 283 29.2 281.1 24.6C279.2 19.8 278 17.6 277 17.6C276.5 17.6 276.3 17.6 276 18.1C275.8 18.3 275.5 18.6 274.8 18.6C273.8 18.6 272.9 17.9 271.4 16.7C270 15.5 269.5 14.5 269.5 13.8C269.5 13.6 270 12.4 271.2 10.4C272.3 8.50002 273 7.8 273.2 7.8L273.2 7.8L273.2 7.8L273.2 7.8L273.2 7.8ZM296.5 73.3C296.5 73.1 296.7 72.8 296.7 72.8C296.9 72.6 296.9 72.6 296.9 72.8C297.1 73 297.1 73.3 296.9 73.5C295.7 80.7 293.5 84.3 290.4 84.3C287.3 84.3 285.8 81.7 285.8 76.4C285.8 69.9 287.5 63 291.3 56C292.3 54.3 292.7 53.4 293 53.4L293 53.4C293 53.6 292.8 54.6 292.3 56.3C289.9 63.7 288.7 68.8 288.7 71.9C288.7 75.7 289.7 77.9 291.8 77.9C293.4 77.9 294.8 76.2 296.5 73.3L296.5 73.3L296.5 73.3L296.5 73.3L296.5 73.3ZM27 53.4C29.9 53.4 32.3 54.8 34.4 58.2C36.6 61.3 38.2 65.6 39 70.9C39.2 71.4 39.2 71.6 39.2 71.9L39.4 71.9C39.4 71.7 39.6 71.4 39.6 70.9C40.1 67.8 41.3 63 43 56.7C44.9 52.4 46.8 50.2 49 50.2C50.2 50.2 51.4 50.9 52.4 52.4C53.4 53.8 53.8 54.8 53.8 55.8C53.8 56.3 53.8 57.2 53.3 58.2C52.8 59.6 52.3 60.4 51.9 60.4C51.7 60.4 51.2 59.7 50.2 58.7C49.5 57.7 48.5 57.3 47.6 57.3C45.7 57.3 44 61.9 42.3 71C41.6 75.1 40.6 78 39.9 79.6C39.2 80.6 38.7 81.3 38.2 81.3C37.7 81.3 37.7 80.6 37.5 79.6C37.7 77.9 36.8 74.8 34.9 70.2C33 65.4 31.8 63.2 30.8 63.2C30.3 63.2 30.1 63.2 29.8 63.7C29.6 63.9 29.3 64.2 28.6 64.2C27.6 64.2 26.7 63.5 25.2 62.3C23.8 61.1 23.3 60.1 23.3 59.4C23.3 59.2 23.8 58 25 56C26 54.1 26.8 53.4 27 53.4L27 53.4L27 53.4L27 53.4L27 53.4ZM10.7 98C10.7 97.8 10.9 97.5 10.9 97.5C11.1 97.3 11.1 97.3 11.1 97.5C11.3 97.7 11.3 98 11.1 98.2C9.90001 105.4 7.70001 109 4.60001 109C1.50001 109 7.62939e-06 106.4 7.62939e-06 101.1C7.62939e-06 94.6 1.7 87.7 5.50001 80.7C6.50001 79 6.90001 78.1 7.2 78.1L7.2 78.1C7.2 78.3 7.00001 79.3 6.50001 81C4.10001 88.4 2.90001 93.5 2.90001 96.6C2.90001 100.4 3.90001 102.6 6.00001 102.6C7.60001 102.6 9.00002 100.9 10.7 98L10.7 98L10.7 98L10.7 98L10.7 98ZM113.9 45.9C113.2 47.1 112.9 47.8 112.5 47.8C112 47.8 112 46.8 112.3 45.4C112.5 44.2 112.8 42.3 112.8 40.4C112.8 33.4 109 26.7 101 19.8C100.5 19.6 100.5 18.8 101 18.4L103.2 14.6C103.4 14.1 103.7 14.1 104.2 14.6C111.9 20.1 115.7 27.8 115.7 37.4C115.6 40.4 114.8 43.3 113.9 45.9L113.9 45.9L113.9 45.9L113.9 45.9L113.9 45.9ZM146.3 10.7C149.2 10.7 151.6 12.1 153.7 15.5C155.9 18.6 157.5 22.9 158.3 28.2C158.5 28.7 158.5 28.9 158.5 29.2L158.7 29.2C158.7 29 158.9 28.7 158.9 28.2C159.4 25.1 160.6 20.3 162.3 14C164.2 9.70001 166.1 7.50002 168.3 7.50002C169.5 7.50002 170.7 8.20001 171.7 9.70001C172.7 11.1 173.1 12.1 173.1 13.1C173.1 13.6 173.1 14.5 172.6 15.5C172.1 16.9 171.6 17.7 171.2 17.7C171 17.7 170.5 17 169.5 16C168.8 15 167.8 14.6 166.9 14.6C165 14.6 163.3 19.2 161.6 28.3C160.9 32.4 159.9 35.3 159.2 36.9C158.5 37.9 158 38.6 157.5 38.6C157 38.6 157 37.9 156.8 36.9C157 35.2 156.1 32.1 154.2 27.5C152.3 22.7 151.1 20.5 150.1 20.5C149.6 20.5 149.4 20.5 149.1 21C148.9 21.2 148.6 21.5 147.9 21.5C146.9 21.5 146 20.8 144.5 19.6C143.1 18.4 142.6 17.4 142.6 16.7C142.6 16.5 143.1 15.3 144.3 13.3C145.3 11.4 146 10.7 146.3 10.7L146.3 10.7L146.3 10.7L146.3 10.7L146.3 10.7ZM526.7 116.7C527.9 115.7 528.9 115.3 529.6 115.3C530.1 115.3 530.3 115.8 530.3 116.7C530.3 117.4 530.1 118.9 529.6 120.8C529.1 122.7 528.9 124.2 528.9 125.4C528.9 130.7 532.7 133.6 540.2 133.6C546.2 133.6 551.2 131 555.1 125.9C557.5 121.8 560.1 118 562.5 114.1C563.5 113.1 564.2 112.7 564.9 112.7C565.9 112.7 566.1 113.7 565.6 115.8C564.6 119.9 563.9 121.8 563.9 121.3C563.9 123 564.9 124.7 566.8 126.1C568.5 127.5 570.9 128.5 573.5 128.5C576.9 128.5 579 127.5 580 125.9C580 125.7 579 123.7 576.9 120.1C577.1 118.2 578.1 114.8 579.5 110.3C579.7 108.9 580.2 108.1 580.7 108.1C581.2 108.1 581.7 108.3 582.4 109.3C584.3 112.2 585.5 115.5 585.5 119.4C585.5 125.4 584.1 130.4 581.4 134.8C578.5 140.1 574.2 142.7 568.4 142.7C564.6 142.7 561 139.6 557.8 133.8C552.5 143.4 545.6 148.2 537.2 148.2C527.1 148.2 522.3 142.4 522.3 131.4C518.5 136 512 140 503.6 143.9L503.6 130.7C509.8 127.6 513.9 125.7 515.1 124.9C519 123 522.8 120.1 526.7 116.7L526.7 116.7L526.7 116.7L526.7 116.7L526.7 116.7ZM490 132.6C486.4 128 483.3 125.9 480.4 125.9C476.1 125.9 474.2 126.9 474.2 129.3C474.2 132.2 477.1 133.6 482.8 133.6C484.9 133.5 487.3 133.1 490 132.6L490 132.6L490 132.6L490 132.6L490 132.6ZM497.4 150.1C497.4 148.7 496.9 147 496.4 145.3C493.5 146.3 489.2 147 483.9 147C472.4 147 466.6 142.9 466.6 135C466.6 129 468.3 123.7 472.1 118.9C475.7 114.8 479.5 112.7 483.6 112.7C486.7 112.7 489.8 114.6 493.4 118.2C496.5 121.8 499.4 125.9 501.8 130.9C502 130.9 502.5 130.9 503.5 130.4L503.5 143.6L503 144.1C503 147 502.3 150.3 500.8 154.7C499.1 160.2 496.5 164.8 493.4 168.4C486.2 177 478.3 184.5 469.6 191C456.6 200.6 445.6 205.6 436 205.6C427.8 205.6 421.6 202.5 417.3 196.5C413.5 191.5 411.5 184.7 411.5 176.8C411.5 166.7 413.7 156.4 417.7 145.6C418.9 143.2 419.4 142.2 419.9 142.2C420.1 142.2 420.1 142.4 420.1 142.9C420.1 143.6 419.9 144.8 419.6 146.3C416.5 156.9 415 164.8 415 170.3C415 175.3 416.2 179.7 418.6 183.3C422.4 188.3 428.4 191 436.8 191C444 191 452.6 187.9 463 181.6C471.2 176.6 479.1 170.6 486.8 163.4C493.8 156.6 497.4 152.3 497.4 150.1L497.4 150.1L497.4 150.1L497.4 150.1L497.4 150.1ZM431.9 113.9C431.4 111.7 430.7 110.1 429.7 108.9C429 107.5 428.5 106.7 428.3 106.3C428.3 105.8 428.3 104.1 428.8 100.8C429.3 97.7 429.5 95.5 430 94.3C430.2 93.1 430.5 92.6 431 92.6C431.2 92.6 431.5 92.8 432 93.3C435.4 97.1 439 101 443 105.1C444.7 106.8 445.4 107.7 445.4 108.2C445.4 108.4 445.2 108.7 444.7 108.7C444 108.7 442.1 108.2 439.2 107.5C440.9 111.6 442.8 115.7 444.5 119.5C447.1 126.2 448.6 131.7 448.6 136.8C448.6 139.2 448.1 142.1 447.2 145.7C446 149.8 444.6 152.9 442.6 155.1C435.6 163 423.9 171.7 407.3 181C392.9 189.4 384.5 193.5 381.9 193.5C381.4 193.5 374.2 195.2 360.5 198.5C346.1 201.9 337 204 333.4 204.5C329.6 205.2 327.2 205.5 326.2 205.5C325.7 205.5 325.7 205.5 325.7 205.3C325.7 205.1 328.3 203.6 333.6 201.2C335.5 200.2 346.6 195.4 367 186.8C381.2 180.8 392.9 175.3 402.3 170.2C416.5 162.5 427.3 155.8 434.7 150.3C440.2 146 443.1 142.9 443.1 140.9C443.1 140.4 441.7 137.1 438.8 130.8C435.5 123.7 433.1 117.9 431.9 113.9L431.9 113.9L431.9 113.9L431.9 113.9L431.9 113.9ZM412.2 80.5C412.2 84.3 410.3 89.6 406.4 96.1C404 100.2 400.4 105.7 395.6 112.9C400.4 118.4 403.8 123.5 405.4 127.8C406.4 130.9 407.1 135 407.1 139.6C407.1 141.5 406.6 143.9 405.7 147C405 149.9 404 152 403.1 153.5C401.2 156.4 398.1 159.3 393.3 162.1C388.3 165.5 383.9 167.1 380.3 167.1C374.5 167.1 371.7 162.8 371.7 154.1C371.7 148.3 372.7 142.6 374.6 137.3C376.5 132.7 379.6 126.7 384.7 118.8C380.4 114.7 375.8 109 370.8 101.8C370.3 101.1 369.1 99.9 367.2 98C366.2 97 365.8 95.8 365.8 94.4C365.8 92.2 366 89.8 366.5 87C367.2 84.1 367.7 82.9 367.9 82.9C368.6 82.9 370.8 84.1 374.9 86.7C378.7 89.3 381.9 91.3 383.8 92.9C385 93.6 385.5 94.3 385.5 94.3L385.5 94.5C385.5 94.7 384.8 95 383.1 95C380 95 378.3 95.2 378.3 95.5C378.3 95.7 378.8 96.2 379.7 97.4C383.5 102.2 387.4 105.8 391.5 108.7C392.5 107.3 395.8 102.5 401.1 94.3C405.7 87.3 408.3 82.5 409.5 79.7C410.7 76.8 411.4 75.6 411.9 75.6C412 75.7 412.2 77.1 412.2 80.5L412.2 80.5L412.2 80.5L412.2 80.5L412.2 80.5ZM402.8 139.5C400.2 134.2 395.6 128.7 389.4 123.4C387.2 125.6 384.6 129.6 381.2 135.4C377.4 141.9 375.7 146 375.7 148.1C375.7 151 377.6 152.4 381.9 152.4C383.8 152.4 386.2 151.7 389.3 150.5C393.6 148.6 397.7 145.9 401.1 142.6C402.6 141.2 403.1 140.3 402.8 139.5L402.8 139.5L402.8 139.5L402.8 139.5L402.8 139.5ZM389.4 62.5L393.2 54.6C393.4 54.1 393.7 53.9 394.2 53.9C394.7 53.9 396.6 55.1 400.4 57.7C404 60.1 405.9 61.5 405.9 62C405.9 63.7 404.2 67.3 401.1 72.6C400.6 73.3 400.1 73.3 399.7 73.1C396.6 70.7 393 68.3 388.9 65.7C387.5 68.6 386.3 71.2 384.8 73.4C384.6 74.1001 384.1 74.4 383.6 74.1001C380 71.2001 376.2 68.6001 372.3 66.2001C372.1 66 372.1 65.7001 372.3 65.2001L376.9 55.6001C377.1 55.1001 377.6 54.6001 377.9 54.6001C378.4 54.6001 380.1 55.8001 383.2 58C386.3 59.9 388.4 61.5 389.4 62.5L389.4 62.5L389.4 62.5L389.4 62.5L389.4 62.5ZM515.9 196.2C513.3 196.9 511.8 197.4 511.3 197.4L511.3 197.2C511.3 197.2 512.3 196.5 514.2 195.3C516.1 194.1 519 192.2 523.1 189.1C525 187.2 527.9 184.1 531.5 179.7C533.9 176.8 536.5 174.2 539.4 172.3C543 169.7 546.4 168.5 550 168.5C550.7 168.5 551.9 168.7 553.4 169.2C554.6 169.7 555.8 169.9 556.8 169.9C558.7 169.9 560.2 169.2 561.4 167.7C562.1 166.3 563.1 165.1 564 163.6C564.5 162.6 565.2 162.2 565.7 162.2C565.9 162.2 565.9 162.4 565.9 162.9C565.9 163.4 565.7 164.6 565.2 166C564.7 166.7 566.6 167 570.2 167C570.7 167 570.9 167 570.9 166.8C570.9 166.8 570.7 165.8 570.2 164.2C570 163.7 570.2 163 570.9 162C571.9 160.3 572.3 159.6 572.6 159.8C573.6 160.5 574 162 574 163.6C574 165.3 573.5 167 572.8 168.9C572.1 171.1 571.4 172.3 570.9 172.7C569.2 173.7 566.6 173.4 563 171.7C560.1 174.6 557.2 176.3 554.4 176.3C553.7 176.3 552.5 176.1 551.3 175.6C550.1 175.1 549.1 174.9 548.4 174.9C543.6 174.9 538.6 177.1 533.5 181.9C529.9 185.5 526.3 189.1 522.7 192.7C520.4 194.3 518.3 195.5 515.9 196.2L515.9 196.2L515.9 196.2L515.9 196.2L515.9 196.2ZM464.5 66.6C467.4 66.6 469.8 68 471.9 71.4C474.1 74.5 475.7 78.8 476.5 84.1C476.7 84.6 476.7 84.8 476.7 85.1L476.9 85.1C476.9 84.9 477.1 84.6 477.1 84.1C477.6 81 478.8 76.2 480.5 69.9C482.4 65.6 484.3 63.4 486.5 63.4C487.7 63.4 488.9 64.1 489.9 65.6C490.9 67 491.3 68 491.3 69C491.3 69.5 491.3 70.4 490.8 71.4C490.3 72.8 489.8 73.6 489.4 73.6C489.2 73.6 488.7 72.9 487.7 71.9C487 70.9 486 70.5 485.1 70.5C483.2 70.5 481.5 75.1 479.8 84.2C479.1 88.3 478.1 91.2 477.4 92.8C476.7 93.8 476.2 94.5 475.7 94.5C475.2 94.5 475.2 93.8 475 92.8C475.2 91.1 474.3 88 472.4 83.4C470.5 78.6001 469.3 76.4 468.3 76.4C467.8 76.4 467.6 76.4 467.3 76.9C467.1 77.1001 466.8 77.4 466.1 77.4C465.1 77.4 464.2 76.7 462.7 75.5C461.3 74.3 460.8 73.3 460.8 72.6001C460.8 72.4 461.3 71.2001 462.5 69.2001C463.6 67.3 464.3 66.6 464.5 66.6L464.5 66.6L464.5 66.6L464.5 66.6L464.5 66.6ZM423.7 63.7C447.9 54.6 473.1 45.5 499.1 35.9C499.8 35.7 500.3 35.4 500.3 35.7C500.5 35.7 500.5 36.2 500.3 36.9C499.3 39.1 498.6 40.3 498.1 40.7C497.9 40.9 485.6 45.5 461.9 54.4C437.7 63.3 424 68.8 421.3 70.5C421.8 68.3 422.5 66.1 423.7 63.7L423.7 63.7L423.7 63.7L423.7 63.7L423.7 63.7ZM400.2 19.8C400.7 18.4 400.7 16.9 400.4 15.5C400.2 14.1 399.4 13.3 398.2 13.3C397.7 13.3 397 13.5 396 14C395 14.5 394.6 15 394.6 15.4C394.7 16.7 396.6 18.1 400.2 19.8L400.2 19.8L400.2 19.8L400.2 19.8L400.2 19.8ZM397.3 26C392.7 23.6 390.6 21.2 390.6 18.6C390.6 15.5 392 12.6 394.9 10.2C397.8 7.60002 400.2 6.60002 402.1 7.30003C403.8 7.80003 404.5 9.50003 404.5 12.3C404.5 14.9 404 17.8 402.8 21.2C405.2 22.4 406.6 23.6 407.1 24.6C407.1 25.8 406.1 28 404 30.8C403.5 29.8 402.1 28.6 399.9 27.4C397.3 31 394.1 34.1 390.3 37C385.7 40.1 381.7 42.8 378.1 44.2C377.1 44.7 372.8 46.4 365.1 49.2C363.9 49.7 362.9 49.9 362.7 49.9C362.5 49.9 362.5 49.7 362.5 49.7C362.5 49.5 363 48.7 364.4 48C370.2 44.4 375.9 41 381.9 37.7C388.9 33.5 394 29.6 397.3 26L397.3 26L397.3 26L397.3 26L397.3 26ZM549 55.8C549.5 54.4 549.5 52.9 549.2 51.5C549 50.1 548.2 49.3 547 49.3C546.5 49.3 545.8 49.5 544.8 50C543.8 50.5 543.4 51 543.4 51.4C543.5 52.7 545.4 54.1 549 55.8L549 55.8L549 55.8L549 55.8L549 55.8ZM554.3 64.7C551.9 70.5 550.7 75 550.7 78.4C550.7 82.5 551.7 84.6 553.8 84.6C555 84.6 556.4 82.9 558.1 80C558.3 79.8 558.3 79.5 558.6 79.3C558.6 79.3 558.8 79.3 558.8 79.5C558.8 79.5 558.8 79.7 558.8 80.2C557.4 87.4 555.2 91 552.3 91C549.2 91 547.7 88.4 547.7 83.1C547.7 80.5 548.2 77.1 549.6 72.8C551 68.5 551.8 66.3 551.8 66.1C551.8 65.6 550.8 64.7 548.7 63.5C544.9 68.5 539.6 73.3 532.9 77.4C528.3 80 523.8 82.4 519 84.4C510.1 88 504.8 89.9 503.6 90.6C502.4 91.1 501.7 91.3 501.2 91.3C501 91.3 501 91.1 501 91.1C501 90.6 501.5 90.1 502.9 89.2C510.6 84.9 518 80.6 525.7 76.2C535.8 70.4 542.7 65.6 546.1 62C541.5 59.6 539.4 57.2 539.4 54.6C539.4 51.5 540.8 48.6 543.7 46C546.6 43.6 549 42.6 550.9 43.4C552.3 43.9 553.3 45.6 553.3 48.4C553.3 51 552.8 53.9 551.6 57C554 58.4 555 59.9 555 61.3C555 62 554.8 63.2 554.3 64.7L554.3 64.7L554.3 64.7L554.3 64.7L554.3 64.7ZM441.7 33.2C441.7 33 441.9 32.7 441.9 32.7C442.1 32.5 442.1 32.5 442.1 32.7C442.3 32.9 442.3 33.2 442.1 33.4C440.9 40.6 438.7 44.2 435.6 44.2C432.5 44.2 431 41.6 431 36.3C431 29.8 432.7 22.9 436.5 15.9C437.5 14.2 437.9 13.3 438.2 13.3L438.2 13.3C438.2 13.5 438 14.5 437.5 16.2C435.1 23.6 433.9 28.7 433.9 31.8C433.9 35.6 434.9 37.8 437 37.8C438.6 37.8 440 36.1 441.7 33.2L441.7 33.2L441.7 33.2L441.7 33.2L441.7 33.2Z" id="Group" fill="#595959" stroke="none" clip-path="url(#clip_1)" />
  </g>
</svg>