<?xml version="1.0" encoding="utf-8"?>
<svg width="464.20007px" height="205.09999px" viewBox="0 0 464.20007 205.09999" version="1.1" xmlns:xlink="http://www.w3.org/1999/xlink" xmlns="http://www.w3.org/2000/svg">
  <defs>
    <path d="M464.2 0L464.2 0L464.2 205.1L0 205.1L0 0L464.2 0Z" id="path_1" />
    <clipPath id="clip_1">
      <use xlink:href="#path_1" clip-rule="evenodd" fill-rule="evenodd" />
    </clipPath>
  </defs>
  <g id="Surah_13_of_114_(modified)">
    <path d="M464.2 0L464.2 0L464.2 205.1L0 205.1L0 0L464.2 0Z" id="Surah_13_of_114_(modified)" fill="none" stroke="none" />
    <path d="M193.2 13.2C194.7 16.3 195.4 20.1 195.4 24.7C195.4 30 196.3 47 198.5 75.9C200.7 104.7 201.9 121.2 201.9 125.3C201.9 133.7 196.9 139.9 187.3 144L187.3 143.7C175.3 148.7 166.9 152.6 162.1 155.2C153.7 159.8 146.9 164.8 141.9 170.6C138 175.2 134.2 180 130.1 184.3C124.1 190.3 117.9 193.4 111.9 193.4C108.6 193.4 105.9 192.2 104 189.6C102.1 187.5 101.1 184.3 101.1 180.5C101.1 175.5 102.7 168.8 106.1 159.9C108.497 153.251 110.057 148.694 110.641 146.322L110.7 146.6C113.1 147.5 116.5 148 121.3 148C130.6 148 140 145.4 149.1 140.1C154.6 137.2 161.3 132.2 169.7 125.2C171.9 121.2 173.5 117.3 174.5 114.2C175.2 112.8 175 112.1 174.3 112.2C173.8 112.2 173.1 112.6 171.9 113.6C166.7 118.1 160.9 122.2 154.9 125.8C147.2 130.1 141 132.3 136.2 132.3C127 132.3 119.4 128.3 113.6 120.1C108.8 113.4 106.4 106.5 106.2 99.5C109.6 96.7999 114.4 94.3999 121.1 92.5C128 90.6 134.5 89.6 141 89.6C145.3 89.6 150.3 90.5 156.1 92.7C157.6 93.2 158.8 93.4 159.5 93.4C160 93.4 160.2 93.1 160.2 92.9C160.2 92.4 159.4 91.7 158 90.5C149.6 83.5 140 79.9 129.2 79.9C121 79.9 114.3 82.3 108.8 87.1C102.3 92.6 99.2 100.8 99.2 111.1C99.2 116.702 101.228 122.515 105.108 128.478C102.915 126.962 100.763 125.163 98.7 123.1C94.6 119.3 91.2 111.8 88.9 100.6C86.8 89.5 84.6 78.2 82.7 67.2C78.6 47.3 72.1 31.4 63.7 20.4C62.7 19.2 62 19.4 61.5 21.1C61 22.8 60.8 25.2 60.3 28.3C59.6 31.9 59.4 33.8 59.6 34.3C66.8 50.2 71.6 61.8999 73.5 69.6C75.9 79.4 77.3 86.6 77.3 91.2C77.3 93.2 77 94.8 76.3 95.8C76.3 95.8 75.6 97 73.7 99.4C68.2 106.8 60.5 114 50.7 120.5C38 129.4 26.2 133.7 15.2 133.7C7.3 133.7 3.2 129.6 3.2 121.7C3.2 116.6 5.29999 108.7 9.89999 97.9C10.4848 96.3404 10.9008 95.1187 11.1203 94.1799C11.4557 94.26 11.8156 94.3 12.2 94.3C15.3 94.3 17.5 90.7 18.7 83.5C18.9 83.3 18.9 83 18.7 82.8C18.7 82.7093 18.7 82.6598 18.6813 82.6513C18.6589 82.6411 18.6093 82.6907 18.5 82.8C18.5 82.8 18.3 83.1 18.3 83.3C16.6 86.2 15.1 87.8 13.6 87.9C11.5 87.9 10.5 85.7 10.5 81.9C10.5 78.8 11.7 73.7 14.1 66.3C14.6 64.6 14.8 63.6 14.8 63.4C14.5 63.4 14.1 64.3 13.1 66C9.29997 73 7.59998 79.9 7.59998 86.4C7.59998 90.2543 8.39328 92.6807 10.0184 93.7176C9.5254 94.4296 8.91484 95.5192 8.2 97C2.60001 107.3 0 117.6 0 128.4C0 133.7 0.900009 138 3.10001 141.4C5.8 145.7 9.90001 147.9 14.9 147.9C24.7 147.9 35.5 144 47.3 136.6C57.4 130.2 66.3 122.5 73.5 113.6C77.1 109.3 79.5 103.6 80.7 96.6C82.4 110.8 84.5 120.8 87.4 126.6C91.1341 134.643 98.5351 140.944 109.252 145.678C109.103 145.923 108.951 146.197 108.8 146.5C101.4 161.2 97.8 172.9 97.8 181.8C97.8 188.3 99.5 194.1 103.3 198.4C106.9 202.9 111.2 205.1 116 205.1C121.8 205.1 127.5 201.7 133.3 195C142.9 184 150.4 176.5 155.4 172.7C158 170.5 163.1 167.9 170.5 164.3C174.1 162.7 179.6 160.3 187.3 156.9L187.3 157.2C195 153.9 201 146.9 205.1 136.6C208 129.2 209.4 121.5 209.4 113.6C209.4 108.5 208.4 93.4 206.5 68.2C204.6 42.8 203.6 29.8 203.6 29.6C203.6 28.4 203.8 28.1 204.3 28.6C208.3 33.4 210.5 34.6 210.5 32.4C210.5 31.9 210.2 30.7 210 29.3C209.3 27.6 207.6 22.8 204.7 14.9C201.8 7.39999 199.9 2.89999 199.2 1.2C198.7 0.199997 198.5 0 198 0C197.8 0 197.5 0.300003 197.3 1C194.4 7.39999 193.2 11.5 193.2 13.2ZM216.7 15.8C218.2 19 218.9 22.8 218.9 27.6C218.9 31.7 220.1 50.6 222.6 84.4999C225 118.3 226.2 137.5 226.2 142.3C226.2 147.4 226 151.9 225.5 156C225.471 156.379 225.442 156.744 225.414 157.093C225.25 159.136 225.129 160.646 225.3 161.5C225.5 162.2 225.8 162.2 226.5 161C227 160.1 227.4 158.9 228.4 157.2C231.7 148.6 233.4 138.5 233.4 127.2C233.4 123.4 232.5 106.8 230.3 77.3C228.1 47.6 226.9 32.7 226.9 32.2C226.9 31 227.1 30.5 227.6 31.2C231.9 36 233.8 37.2 233.8 35C233.8 34.5 233.8 33.3 233.3 32.1C232.8 30.2 231.1 25.4 228 17.5C225.1 9.99998 223.4 5.49998 222.7 3.79999C222.2 3.09999 222 2.59999 221.5 2.59999C221.3 2.59999 221 3.09999 220.8 3.79999C217.9 9.99998 216.7 14.1 216.7 15.8ZM269.3 16.8C269.3 19.4 271.4 21.8 276 24.2C272.7 27.8 267.6 31.7 260.6 35.9C254.6 39.2 248.9 42.6 243.1 46.2C241.7 46.9 241.2 47.7 241.2 47.9C241.2 47.9 241.2 48.1 241.4 48.1C241.6 48.1 242.6 47.9 243.8 47.4C251.5 44.6 255.8 42.9 256.8 42.4C260.4 41 264.4 38.3 269 35.2C272.8 32.3 276 29.2 278.6 25.6C280.8 26.8 282.2 28 282.7 29C284.8 26.2 285.8 24 285.8 22.8C285.3 21.8 283.9 20.6 281.5 19.4C282.7 16 283.2 13.1 283.2 10.5C283.2 7.70001 282.5 6.00002 280.8 5.50002C278.9 4.8 276.5 5.8 273.6 8.40001C270.7 10.8 269.3 13.7 269.3 16.8ZM139.4 15.8C137.3 12.4 134.9 11 132 11C131.8 11 131.1 11.8 130 13.6C128.8 15.6 128.3 16.8 128.3 17C128.3 17.7 128.8 18.7 130.2 19.9C131.7 21.1 132.6 21.8 133.6 21.8C134.3 21.8 134.6 21.5 134.8 21.3C135.1 20.8 135.3 20.8 135.8 20.8C136.8 20.8 138 23 139.9 27.8C141.8 32.4 142.7 35.5 142.5 37.2C142.7 38.2 142.7 38.9 143.2 38.9C143.7 38.9 144.2 38.2 144.9 37.2C145.6 35.6 146.6 32.7 147.3 28.6C149 19.5 150.7 14.9 152.6 14.9C153.5 14.9 154.5 15.3 155.2 16.3C156.2 17.3 156.7 18 156.9 18C157.3 18 157.8 17.2 158.3 15.8C158.8 14.8 158.8 13.9 158.8 13.4C158.8 12.4 158.4 11.4 157.4 9.99998C156.4 8.49998 155.2 7.79999 154 7.79999C151.8 7.79999 149.9 9.99998 148 14.3C146.3 20.6 145.1 25.4 144.6 28.5C144.6 29 144.4 29.3 144.4 29.5L144.2 29.5C144.2 29.2 144.2 29 144 28.5C143.2 23.2 141.6 18.9 139.4 15.8ZM279.1 13.7C279.4 15.1 279.4 16.6 278.9 18C275.3 16.3 273.4 14.9 273.3 13.6C273.3 13.2 273.7 12.7 274.7 12.2C275.7 11.7 276.4 11.5 276.9 11.5C278.1 11.5 278.9 12.3 279.1 13.7ZM320.9 30.9C320.9 30.9 320.7 31.2 320.7 31.4C319 34.3 317.5 36 316 36C313.9 36 312.9 33.8 312.9 30C312.9 26.9 314.1 21.8 316.5 14.4C317 12.7 317.2 11.7 317.2 11.5C316.9 11.5 316.5 12.4 315.5 14.1C311.7 21.1 310 28 310 34.5C310 39.8 311.5 42.4 314.6 42.4C317.7 42.4 319.9 38.8 321.1 31.6C321.3 31.4 321.3 31.1 321.1 30.9C321.1 30.8093 321.1 30.7598 321.081 30.7513C321.059 30.7411 321.009 30.7907 320.9 30.9ZM102 27.8C102.7 26.6 103.7 26.1 104.4 26.1C104.9 26.1 105.4 26.3 105.4 26.8C105.4 26.8 105.2 27 105.2 27.3C104.2 29.5 103.3 31.9 102.6 34.3C107.6 37.9 110 41.7 109.8 45.3C109.3 49.4 108.8 52 108.1 53C105.7 55.9 103.1 57.6 99.7 57.6C96.3 57.6 94.9 55.4 94.9 51.6C94.9 50.9 94.9 49.9 95.1 49C96.3 41.3 98.7 34.3 102 27.8ZM302.4 61.9C326.6 52.8 351.8 43.7 377.8 34.1C378.002 34.0422 378.188 33.9761 378.349 33.9185C378.747 33.7767 379 33.6866 379 33.9C379.2 33.9 379.2 34.4 379 35.1C378 37.3 377.3 38.5 376.8 38.9C376.6 39.1 364.3 43.7 340.6 52.6C316.4 61.5 302.7 67 300 68.7C300.5 66.5 301.2 64.3 302.4 61.9ZM123.6 57.4C142.1 50.7 161.3 43.5 181.4 36C181.578 35.949 181.744 35.8916 181.894 35.8392C182.335 35.6861 182.651 35.5764 182.8 35.8C182.8 35.8 182.8 36.3 182.6 37C181.6 39.2 180.9 40.4 180.4 40.8C163.6 47 143.7 54.7 121.1 64.1C121.7 61.9 122.4 59.8 123.6 57.4ZM107.3 47C107.3 45.8 104.9 43.6 99.9 40.8C98.2 43.7 97.5 46.3 97.5 48.7C97.5 50.1 98.2 51.1 99.7 51.1C100.9 51.1 102.3 50.6 104 49.7C105.6 49 106.8 48 107.3 47ZM433.2 63.1C430.8 68.9 429.6 73.4 429.6 76.8C429.6 80.9 430.6 83 432.7 83C433.9 83 435.3 81.3 437 78.4C437.2 78.2 437.2 77.9 437.5 77.7C437.5 77.7 437.7 77.7 437.7 77.9L437.7 78.6C436.3 85.8 434.1 89.4 431.2 89.4C428.1 89.4 426.6 86.8 426.6 81.5C426.6 78.9 427.1 75.5 428.5 71.2C429.9 66.9 430.7 64.7 430.7 64.5C430.7 64 429.7 63.1 427.6 61.9C423.8 66.9 418.5 71.7 411.8 75.8C407.2 78.4 402.7 80.8 397.9 82.8C389 86.4 383.7 88.3 382.5 89C381.3 89.5 380.6 89.7 380.1 89.7C379.9 89.7 379.9 89.5 379.9 89.5C379.9 89 380.4 88.5 381.8 87.6C389.5 83.3 396.9 79 404.6 74.6C414.7 68.8 421.6 64 425 60.4C420.4 58 418.3 55.6 418.3 53C418.3 49.9 419.7 47 422.6 44.4C425.5 42 427.9 41 429.8 41.8C431.2 42.3 432.2 44 432.2 46.8C432.2 49.4 431.7 52.3 430.5 55.4C432.9 56.8 433.9 58.3 433.9 59.7C433.9 60.5 433.7 61.7 433.2 63.1ZM427.9 54.2C428.4 52.8 428.4 51.3 428.1 49.9C427.9 48.5 427.1 47.7 425.9 47.7C425.4 47.7 424.7 47.9 423.7 48.4C422.7 48.9 422.3 49.4 422.3 49.8C422.4 51.1 424.3 52.6 427.9 54.2ZM272.1 52.8L268.3 60.7C267.4 59.8 265.2 58.1 262.1 56.2C259 54 257.3 52.8 256.8 52.8C256.5 52.8 256 53.3 255.8 53.8L251.2 63.4C251 63.9 251 64.2 251.2 64.4C255.1 66.8 258.9 69.4 262.5 72.3C263 72.6 263.5 72.3 263.7 71.6C265.2 69.4 266.4 66.8 267.8 63.9C271.9 66.5 275.5 68.9 278.6 71.3C279 71.5 279.5 71.5 280 70.8C283.1 65.5 284.8 61.9 284.8 60.2C284.8 59.7 282.9 58.3 279.3 55.9C275.5 53.3 273.6 52.1 273.1 52.1C272.6 52.1 272.3 52.3 272.1 52.8ZM180.8 74.6C181.7 72.7 182.2 70.5 182.2 68.6C182.2 67.7 181.7 66.2 180.6 64.2C179.4 60.9 178.7 59.2 178.7 59.2C178.5 58.2 178.2 57 178 55.8C178 54.9 177.7 54.4 177.5 54.4C177.2 54.4 177 54.9 176.5 55.6C175.5 56.8 175.3 58 175.3 59.4C175.3 62 176.8 65.6 179.4 70.4C179.2 71.9 178.2 72.6 176.8 72.6C173.6 72.6 172.2 70.5 172.2 66.4C172.2 65 171.7 62.8 171 59.7C170.3 56.8 169.8 55.4 169.3 55.4C169.1 55.4 168.6 55.8 168.1 56.8C167.6 58 167.4 58.7 167.4 59.2C167.4 59.7 167.7 61.1 168.4 63.3C168.9 65.7 169.4 67.1 169.4 68.1C169.4 69.8 168.7 71.2 167.5 72.4C166.3 73.6 165.1 74.3 163.7 74.3C162.8 74.3 161.8 73.3 161.1 71.9C160.6 70.7 160.4 69.2 160.4 67.8C160.4 67.1 160.4 66.4 160.6 65.4C160.6 64.4 160.8 63.2 160.8 61.8C160.8 59.2 160.3 58 159.6 58C159.1 58 158.4 58.5 157.4 59.7C156.5 60.9 156 62.1 156 63.5C156 64.2 156.3 64.7 157 64.9C157.5 65.2 158 65.4 158 65.9L158 72.1C158 74.5 158.5 76.7 159.7 78.1C160.7 79.6 161.9 80.3 163.1 80.3C166.7 80.3 169.1 77.7 170.5 72.9C171.7 76.8 173.6 78.7 176.5 78.7C178.2 78.7 179.6 77.2 180.8 74.6ZM350.6 69.8C348.5 66.4 346.1 65 343.2 65C343 65 342.3 65.8 341.2 67.6C340 69.6 339.5 70.8 339.5 71C339.5 71.7 340 72.7 341.4 73.9C342.9 75.1 343.8 75.8 344.8 75.8C345.5 75.8 345.8 75.5 346 75.3C346.3 74.8 346.5 74.8 347 74.8C348 74.8 349.2 77 351.1 81.8C353 86.4 353.9 89.5 353.7 91.2C353.9 92.2 353.9 92.9 354.4 92.9C354.9 92.9 355.4 92.2 356.1 91.2C356.8 89.6 357.8 86.7 358.5 82.6C360.2 73.5 361.9 68.9 363.8 68.9C364.7 68.9 365.7 69.3 366.4 70.3C367.4 71.3 367.9 72 368.1 72C368.5 72 369 71.2 369.5 69.8C370 68.8 370 67.9 370 67.4C370 66.4 369.6 65.4 368.6 64C367.6 62.5 366.4 61.8 365.2 61.8C363 61.8 361.1 64 359.2 68.3C357.5 74.6 356.3 79.4 355.8 82.5C355.8 83 355.6 83.3 355.6 83.5L355.4 83.5C355.4 83.2 355.4 83 355.2 82.5C354.4 77.2 352.8 72.9 350.6 69.8ZM291.1 78.7C291.1 82.5 289.2 87.8 285.3 94.3C282.9 98.4 279.3 103.9 274.5 111.1C279.3 116.6 282.7 121.7 284.3 126C285.3 129.1 286 133.2 286 137.8C286 139.7 285.5 142.1 284.6 145.2C283.9 148.1 282.9 150.2 282 151.7C280.1 154.6 277 157.5 272.2 160.3C267.2 163.7 262.8 165.3 259.2 165.3C253.4 165.3 250.6 161 250.6 152.3C250.6 146.5 251.6 140.8 253.5 135.5C255.4 130.9 258.5 124.9 263.6 117C259.3 112.9 254.7 107.2 249.7 100C249.2 99.3 248 98.1 246.1 96.2C245.1 95.2 244.7 94 244.7 92.6C244.7 90.4 244.9 88 245.4 85.2C246.1 82.3 246.6 81.1 246.8 81.1C247.5 81.1 249.7 82.3 253.8 84.9C257.6 87.5 260.8 89.5 262.7 91.1C263.9 91.8 264.4 92.5 264.4 92.5L264.4 92.7C264.4 92.9 263.7 93.2 262 93.2C258.9 93.2 257.2 93.4 257.2 93.7C257.2 93.9 257.7 94.4 258.6 95.6C262.4 100.4 266.3 104 270.4 106.9C271.4 105.5 274.7 100.7 280 92.5C284.6 85.5 287.2 80.7 288.4 77.9C289.6 75 290.3 73.8 290.8 73.8C290.9 73.9 291.1 75.4 291.1 78.7ZM308.6 107.1C309.6 108.3 310.3 109.9 310.8 112.1C312 116.2 314.4 121.9 317.7 129C320.6 135.3 322 138.6 322 139.1C322 141.1 319.1 144.2 313.6 148.5C308.703 152.14 302.317 156.305 294.441 160.938C295.173 156.475 296.453 151.117 298.3 144.8C298.6 143.3 298.8 142.1 298.8 141.4C298.8 140.9 298.8 140.7 298.6 140.7C298.1 140.7 297.6 141.7 296.4 144.1C294.037 150.48 292.302 156.685 291.278 162.778C288.134 164.586 284.775 166.461 281.2 168.4C271.8 173.5 260.1 179 245.9 185C225.5 193.6 214.4 198.4 212.5 199.4C207.2 201.8 204.6 203.3 204.6 203.5C204.6 203.7 204.6 203.7 205.1 203.7C206.1 203.7 208.5 203.4 212.3 202.7C215.9 202.2 225 200.1 239.4 196.7C253.1 193.4 260.3 191.7 260.8 191.7C263.4 191.7 271.8 187.6 286.2 179.2C287.576 178.429 288.919 177.662 290.228 176.899C290.481 184.118 292.459 190.341 296 195C300.3 201 306.5 204.1 314.7 204.1C324.3 204.1 335.3 199.1 348.3 189.5C357 183 364.9 175.5 372.1 166.9C375.2 163.3 377.8 158.7 379.5 153.2C381 148.8 381.7 145.5 381.7 142.6L382.2 142.1L382.2 128.9C381.2 129.4 380.7 129.4 380.5 129.4C378.1 124.4 375.2 120.3 372.1 116.7C368.5 113.1 365.4 111.2 362.3 111.2C358.2 111.2 354.4 113.3 350.8 117.4C347 122.2 345.3 127.5 345.3 133.5C345.3 141.4 351.1 145.5 362.6 145.5C367.9 145.5 372.2 144.8 375.1 143.8C375.6 145.5 376.1 147.2 376.1 148.6C376.1 150.7 372.5 155 365.5 161.9C357.8 169.1 349.9 175.1 341.7 180.1C331.3 186.4 322.7 189.5 315.5 189.5C307.1 189.5 301.1 186.8 297.3 181.8C295.858 179.638 294.85 177.187 294.274 174.49C306.658 166.953 315.695 159.851 321.5 153.3C323.5 151.1 324.9 148 326.1 143.9C327 140.3 327.5 137.4 327.5 135C327.5 129.9 326 124.4 323.4 117.7C321.7 113.9 319.8 109.8 318.1 105.7C321 106.4 322.9 106.9 323.6 106.9C324.1 106.9 324.3 106.6 324.3 106.4C324.3 105.9 323.6 105 321.9 103.3C317.9 99.2 314.3 95.3 310.9 91.5C310.4 91 310.1 90.8 309.9 90.8C309.4 90.8 309.1 91.3 308.9 92.5C308.4 93.7 308.2 95.9 307.7 99C307.2 102.3 307.2 104 307.2 104.5C307.4 104.9 307.9 105.7 308.6 107.1ZM408.3 113.8C407.6 113.8 406.6 114.2 405.4 115.2C401.5 118.6 397.7 121.4 393.8 123.4C392.6 124.2 388.5 126.1 382.3 129.2L382.3 142.4C390.7 138.5 397.2 134.5 401 129.9C401 140.9 405.8 146.7 415.9 146.7C424.3 146.7 431.2 141.9 436.5 132.3C439.7 138.1 443.3 141.2 447.1 141.2C452.9 141.2 457.2 138.6 460.1 133.3C462.8 128.9 464.2 123.9 464.2 117.9C464.2 114 463 110.7 461.1 107.8C460.4 106.8 459.9 106.6 459.4 106.6C458.9 106.6 458.4 107.4 458.2 108.8C456.8 113.3 455.8 116.7 455.6 118.6C457.7 122.2 458.7 124.2 458.7 124.4C457.7 126 455.6 127 452.2 127C449.6 127 447.2 126 445.5 124.6C443.6 123.2 442.6 121.5 442.6 119.8C442.6 120.3 443.3 118.4 444.3 114.3C444.8 112.2 444.6 111.2 443.6 111.2C442.9 111.2 442.2 111.6 441.2 112.6C438.8 116.5 436.2 120.3 433.8 124.4C429.9 129.5 424.9 132.1 418.9 132.1C411.4 132.1 407.6 129.2 407.6 123.9C407.6 122.7 407.8 121.2 408.3 119.3C408.8 117.4 409 115.9 409 115.2C409 114.3 408.8 113.8 408.3 113.8ZM281.8 137.8C279.2 132.5 274.6 127 268.4 121.7C266.2 123.9 263.6 127.9 260.2 133.7C256.4 140.2 254.7 144.3 254.7 146.4C254.7 149.3 256.6 150.7 260.9 150.7C262.8 150.7 265.2 150 268.3 148.8C272.6 146.9 276.7 144.2 280.1 140.9C281.5 139.4 282 138.5 281.8 137.8ZM368.7 131C365.1 126.4 362 124.3 359.1 124.3C354.8 124.3 352.9 125.3 352.9 127.7C352.9 130.6 355.8 132 361.5 132C363.364 132 365.464 131.606 367.8 131.168C368.096 131.112 368.396 131.056 368.7 131ZM85.9 179.1C80.1 180.7 75.1 181.7 70.3 181.7C65.1 181.7 62.4 180.2 62.2 178.1C62.2 177.4 62.4 176.4 62.9 175.2C66 169.7 70.8 164.6 77.3 160.3C78.7 157.9 79.7 155.7 79.7 153.3C79.7 152.3 79.5 152.1 79 152.3C77.8 153.5 76.6 154.7 75.2 155.7C73.2 157.6 71.6 158.6 70.6 158.6C67.8 158.6 65.6 157.4 64.4 155.5C64.4 154.8 64.9 153.8 66.1 152.6C67.1 151.4 67.8 150.9 68.5 150.9C69.9 150.9 70.6 151.7 71.1 153.1C71.1 153.3 71.8 152.8 72.8 151.4C73.7 149.9 74.2 149 74.2 148.5C74.2 147.5 74 146.8 73.5 146.1C73.1 145.1 72.6 144.9 72.1 144.9C70.2 144.9 67.8 146.5 64.7 149.9C61.5 153.3 60.1 156.2 60.1 158.8C60.1 161.7 62.1 163.6 65.9 164.8C61.6 170.3 59.4 175.6 59.4 180.6C59.4 182.5 60.2 184.2 61.6 185.4C63.1 186.6 65.2 187.3 67.4 187.3C75.1 187.3 81.6 184.9 86.4 180.6C87.6 179.6 88.1 179.2 88.1 178.9C88.1 178.6 87.3 178.6 85.9 179.1ZM20.9 161C30.5 157.6 40.8 153.8 51.9 150C52.2851 149.923 52.5515 149.831 52.745 149.764C53.054 149.658 53.177 149.616 53.3 149.8C53.5 149.8 53.5 150.3 53.1 151C52.4 153.2 51.7 154.4 51.2 154.8C41.6 158.2 30.8 162.2 18.6 167.8C19 165.6 19.7 163.4 20.9 161ZM394.8 194.6C392.2 195.3 390.7 195.8 390.2 195.8L390.2 195.6C390.2 195.6 391.2 194.9 393.1 193.7C395 192.5 397.9 190.6 402 187.5C403.9 185.6 406.8 182.5 410.4 178.1C412.8 175.2 415.4 172.6 418.3 170.7C421.9 168.1 425.3 166.9 428.9 166.9C429.6 166.9 430.8 167.1 432.3 167.6C433.5 168.1 434.7 168.3 435.7 168.3C437.6 168.3 439.1 167.6 440.3 166.1C441 164.7 442 163.5 442.9 162C443.4 161 444.1 160.6 444.6 160.6C444.8 160.6 444.8 160.8 444.8 161.3C444.8 161.8 444.6 163 444.1 164.4C443.6 165.1 445.5 165.4 449.1 165.4C449.6 165.4 449.8 165.4 449.8 165.2C449.8 165.2 449.6 164.2 449.1 162.6C448.9 162.1 449.1 161.4 449.8 160.4L449.88 160.264C450.822 158.663 451.208 158.005 451.5 158.2C452.5 158.9 452.9 160.4 452.9 162C452.9 163.7 452.4 165.4 451.7 167.3C451 169.5 450.3 170.7 449.8 171.1C448.1 172.1 445.5 171.8 441.9 170.1C439 173 436.1 174.7 433.3 174.7C432.6 174.7 431.4 174.5 430.2 174C429 173.5 428 173.3 427.3 173.3C422.5 173.3 417.5 175.5 412.4 180.3L401.6 191.1C399.4 192.7 397.2 193.9 394.8 194.6ZM191 190.8C191 190.8 190.8 191.1 190.8 191.3C189.1 194.2 187.7 195.8 186.1 195.9C184 195.9 183 193.7 183 189.9C183 186.8 184.2 181.7 186.6 174.3C187.1 172.6 187.3 171.6 187.3 171.4C187 171.4 186.6 172.3 185.6 174C181.8 181 180.1 187.9 180.1 194.4C180.1 199.7 181.6 202.3 184.7 202.3C187.8 202.3 190 198.7 191.2 191.5C191.4 191.3 191.4 191 191.2 190.8C191.2 190.709 191.2 190.66 191.181 190.651C191.159 190.641 191.109 190.691 191 190.8Z" id="Group" fill="#595959" fill-rule="evenodd" stroke="none" clip-path="url(#clip_1)" />
  </g>
</svg>