<?xml version="1.0" encoding="utf-8"?>
<svg width="553.2001px" height="207.79997px" viewBox="0 0 553.2001 207.79997" version="1.1" xmlns:xlink="http://www.w3.org/1999/xlink" xmlns="http://www.w3.org/2000/svg">
  <defs>
    <path d="M553.2 0L553.2 0L553.2 207.8L0 207.8L0 0L553.2 0Z" id="path_1" />
    <clipPath id="clip_1">
      <use xlink:href="#path_1" clip-rule="evenodd" fill-rule="evenodd" />
    </clipPath>
  </defs>
  <g id="Surah_70_of_114_(modified)">
    <path d="M553.2 0L553.2 0L553.2 207.8L0 207.8L0 0L553.2 0Z" id="Surah_70_of_114_(modified)" fill="none" stroke="none" />
    <path d="M313.4 31.5C313.4 26.7 312.7 22.9 311.2 19.7C311.2 18 312.4 13.9 315.3 7.69998C315.5 6.99998 315.8 6.49998 316 6.49998C316.5 6.49998 316.7 6.99998 317.2 7.69998C317.9 9.39998 319.6 13.9 322.5 21.4C325.6 29.3 327.3 34.1 327.8 36C328.3 37.2 328.3 38.4 328.3 38.9C328.3 41.1 326.4 39.9 322.1 35.1C321.6 34.4 321.4 34.9 321.4 36.1C321.4 36.6 322.6 51.5 324.8 81.2C327 110.7 327.9 127.3 327.9 131.1C327.9 142.4 326.2 152.5 322.9 161.1C321.9 162.8 321.5 164 321 164.9C320.3 166.1 320 166.1 319.8 165.4C319.6 164.4 319.8 162.5 320 159.9C320.5 155.8 320.7 151.3 320.7 146.2C320.7 141.4 319.5 122.2 317.1 88.3999C314.6 54.5 313.4 35.5 313.4 31.5L313.4 31.5ZM302.6 119.3C302.6 133.5 300 144.5 294.9 152.7C290.6 159.4 285.5 163 279.8 163L279.8 148.4C284.4 148.4 288.9 146.5 293.2 142.9C294.4 141.9 295.1 137.9 295.1 131.1C295.1 127 293.9 110.5 291.7 81.7C289.5 52.9 288.6 35.9 288.6 30.6C288.6 26 287.9 22.2 286.4 19.1C286.4 17.4 287.8 13.3 290.5 6.89996C290.7 6.19997 291 5.89996 291.5 5.89996C291.7 5.89996 292 6.09996 292.5 7.09996C293.2 8.79996 295.1 13.3 298 20.8C300.9 28.7 302.6 33.5 303.3 35.2C303.5 36.5999 303.8 37.8 303.8 38.3C303.8 40.5 301.6 39.3 297.6 34.5C297.1 34 296.9 34.3 296.9 35.5C296.9 35.7 297.9 48.7 299.8 74.1C301.6 99.1 302.6 114.3 302.6 119.3L302.6 119.3ZM137.8 141.4C139 148.1 141.4 152.7 144.5 154.8C146.4 155.8 149.1 156.5 152.7 156.5L152.7 171.1C147.4 171.1 143.3 169.9 140.5 167.7C136.2 164.6 133.5 159.1 132.1 150.7C131.1 145.4 130.2 130.3 129.5 104.9C128.5 77.5 127.8 60.7 127.3 54.5C126.1 44.4 124.2 35.1 121.5 25.9C121.5 23.5 122.5 20.1 124.4 15.3C124.9 14.1 125.1 13.4 125.6 13.4C125.8 13.4 126.3 14.1 126.8 15.1C129.9 21.1 132.1 31.4 133.8 45.8C134.8 54.9 135.7 72.9 136.4 99.8C136.8 125.1 137.6 139 137.8 141.4L137.8 141.4Z" id="Shape" fill="#595959" fill-rule="evenodd" stroke="none" clip-path="url(#clip_1)" />
    <path d="M66.8 139.7C62 139.7 57.7 137.5 54.1 133.2C50.3 128.6 48.6 123.1 48.6 116.6C48.6 107.5 52.2 95.7 59.6 81.3C60.3 79.9 61 78.9 61.5 78.9C61.5 79.1 61.7 79.1 61.7 79.6C61.7 81 60 86.1 56.9 94.7C53.5 103.3 51.9 110.3 51.9 115.3C51.9 119.1 52.9 122.3 54.8 124.4C56.7 127 59.4 128.2 62.7 128.2C68 128.2 74.2 124.8 81.2 118.4C82.2 117.7 88.4 111 100.2 98C117.5 79.5 132.8 70.2 146.5 70.2C150.3 70.2 153.7 71.4 156.6 73.8C159.2 76.2 160.7 78.8 160.7 82C160.7 86.1 160 89.4 158.8 92.3C158.3 93.5 157.8 94 157.6 94C157.4 94 157.1 93.5 156.4 92.3C153.8 87.3 149.4 84.9 143.7 84.9C133.1 84.9 121.4 91.6 107.9 105.3C100.2 113.5 92.8 121.6 85.3 129.8C78.8 136.3 72.5 139.7 66.8 139.7L66.8 139.7Z" id="Shape" fill="#595959" stroke="none" clip-path="url(#clip_1)" />
    <path d="M13.5 138.5C13.5 151 17.3 160.8 25 168.3C34.6 177.7 50 182.2 71.1 182.2C77.1 182.2 85.7 182 96.8 181.2C110.5 180.5 120.6 179.5 127 178.6C128.7 178.4 129.9 178.4 130.8 178.4C132 178.4 132.5 178.4 132.5 178.9C132.5 179.6 131.1 180.3 127.7 181.5C123.4 183.2 109.5 188 86.2 195.4C80.9 196.6 76.1 197.1 71.8 197.1C29.6 197.1 8.39999 181 8.39999 149.1C8.39999 128.9 13.9 111.7 24.7 97C32.4 86.2 42.5 77.8 54.5 71.3C41.8 70.1 34.6 69.4 33.1 69.4C28.5 69.4 25.9 70.1 25.2 71.3C24.7 72.3 24.5 72.7 24.2 73C24 73 23 73.2 21.6 73.5C14.2 74.5 8.20001 74.7 3.40001 74.7C1.20001 74.7 7.62939e-06 74.2 7.62939e-06 73.3C7.62939e-06 72.8 7.62939e-06 72.1 0.500008 71.1L2.90001 63.9C3.40001 62.2 4.30001 61 5.3 60.5C10.3 58.3 15.6 56.7 21.1 55.5C24.9 54.8 30 54.8 36.2 55.5C46.5 56.7 67.4 57.4 98.4 57.4C99.8 57.4 100.6 57.6 100.8 57.9C100.8 58.4 100.8 59.1 100.6 59.8L98 67C97.3 68.8999 96.6 69.8999 95.4 70.1C76.9 74.2 60.8 80.4 46.9 88.6C24.8 102 13.5 118.6 13.5 138.5L13.5 138.5Z" id="Shape" fill="#595959" stroke="none" clip-path="url(#clip_1)" />
    <path d="M65.1 101.1C64.9 100.9 64.9 100.6 65.1 100.1L69.7 90.5C69.9 90 70.4 89.8 70.7 89.8C71.2 89.8 73.3 91 76.9 93.4C80.7 96 82.7 97.5 82.7 98C82.7 99.7 81 103 77.7 108.3C77.2 109 77 109.3 76.5 109C72.8 106.1 68.9 103.5 65.1 101.1L65.1 101.1ZM274.5 20.9C274.5 19.7 272.1 17.5 267.1 14.7C265.4 17.6 264.7 20.2 264.7 22.6C264.7 24 265.4 25 266.9 25C268.1 25 269.5 24.5 271.2 23.6C272.8 22.8 274 21.9 274.5 20.9L274.5 20.9ZM269.2 1.7C269.9 0.5 270.9 0 271.6 0C272.1 0 272.6 0.199997 272.6 0.699997C272.6 0.699997 272.4 0.899994 272.4 1.2C271.4 3.39999 270.5 5.8 269.8 8.2C274.8 11.8 277.2 15.6 277 19.2C276.5 23.3 276 25.9 275.3 26.9C272.9 29.8 270.3 31.5 266.9 31.5C263.5 31.5 262.1 29.3 262.1 25.5C262.1 24.8 262.1 23.8 262.3 22.9C263.5 15.1 265.9 8.2 269.2 1.7L269.2 1.7ZM231.683 113.256C250.183 106.556 269.383 99.356 289.483 91.856C290.183 91.656 290.683 91.356 290.883 91.656C290.883 91.656 290.883 92.156 290.683 92.856C289.683 95.056 288.983 96.256 288.483 96.656C271.683 102.856 251.783 110.556 229.183 119.956C229.783 117.856 230.483 115.656 231.683 113.256L231.683 113.256ZM61 157C79.5 150.3 98.7 143.1 118.8 135.6C119.5 135.4 120 135.1 120.2 135.4C120.2 135.4 120.2 135.9 120 136.6C119 138.8 118.3 140 117.8 140.4C101 146.6 81.1 154.3 58.5 163.7C59.1 161.5 59.8 159.4 61 157L61 157ZM105.9 201.1C119.6 196.3 134 191 149.1 185.5C150.1 185.3 150.3 185 150.5 185.3C150.7 185.3 150.7 185.8 150.3 186.5C149.6 188.7 148.9 189.9 148.4 190.3C135.4 194.9 120.6 200.6 103.5 207.8C104 205.7 104.7 203.5 105.9 201.1L105.9 201.1ZM255.8 194.9C255.8 194.7 256 194.4 256 194.4C256.2 194.2 256.2 194.2 256.2 194.4C256.4 194.6 256.4 194.9 256.2 195.1C255 202.3 252.8 205.9 249.7 205.9C246.6 205.9 245.1 203.3 245.1 198C245.1 191.5 246.8 184.6 250.6 177.6C251.6 175.9 252 175 252.3 175C252.3 175.2 252.1 176.2 251.6 177.9C249.2 185.3 248 190.4 248 193.5C248 197.3 249 199.5 251.1 199.5C252.7 199.5 254.1 197.8 255.8 194.9L255.8 194.9ZM308.8 173.5C308.8 176.1 307.6 179 305.7 182.1C303.5 185.2 300.9 188.1 297.5 190.5C296.1 191.5 295.3 191.9 295.1 191.9L295.1 191.7C295.1 191.5 295.6 191 296.5 189.8C302 183.8 304.9 180 304.9 177.8C304.9 176.1 303.9 175.2 302.3 175.2C301.3 175.2 300.4 175.4 299.7 175.9C299 176.1 298.7 176.4 298.5 176.4C298.5 176.4 298.3 176.4 298.3 176.2C298.3 176.2 298.3 175.7 298.5 174.8C299.5 170.7 301.4 168.8 304.7 168.8C307.4 168.7 308.8 170.4 308.8 173.5L308.8 173.5ZM263.897 41.417C265.597 41.417 267.497 42.417 270.097 44.517C272.697 46.417 274.197 48.317 274.397 49.817C274.597 50.317 274.197 51.217 273.397 52.917C272.697 54.617 272.197 55.317 271.997 55.317C269.597 56.017 267.197 56.717 264.797 57.517C261.697 58.517 259.797 59.717 258.597 60.917C261.997 71.017 263.597 80.817 263.597 90.717C263.597 93.617 263.097 96.517 262.597 99.617C262.397 100.617 262.097 101.017 261.897 101.317C261.697 101.317 261.697 99.417 261.697 96.017C261.697 90.517 260.697 83.517 259.097 75.617C257.397 67.717 256.697 62.917 256.697 61.917C256.697 57.817 257.697 54.917 260.097 53.017C261.097 52.317 263.197 51.317 266.097 50.417C264.897 49.217 263.697 48.717 262.497 48.717C261.997 48.717 261.297 49.217 260.297 50.417C259.297 51.817 258.597 52.317 258.597 52.317C258.397 52.317 258.097 51.817 258.397 50.917C259.097 44.517 261.097 41.417 263.897 41.417L263.897 41.417ZM173.745 59.38C174.245 55.98 175.445 52.18 177.345 47.38C178.745 43.78 179.545 40.18 179.545 36.58C179.545 29.58 176.145 23.18 169.745 16.68C169.245 16.18 169.245 15.68 169.745 15.28L171.945 11.48C172.145 10.98 172.445 10.98 172.945 11.48C179.145 16.48 182.545 23.98 182.545 33.78C182.545 38.38 181.345 43.38 179.445 48.38C177.245 53.68 176.345 57.28 176.345 59.18C176.345 63.28 177.345 65.38 179.445 65.38C180.845 65.38 182.345 63.68 184.045 60.78C184.045 60.58 184.245 60.28 184.245 60.28C184.445 60.08 184.445 60.08 184.445 60.28L184.445 60.98C183.245 68.18 181.045 71.78 177.945 71.78C175.045 71.78 173.345 68.68 173.345 62.88C173.345 61.78 173.545 60.58 173.745 59.38L173.745 59.38ZM34.261 15.556C37.161 15.556 39.561 16.956 41.661 20.356C43.861 23.456 45.461 27.756 46.261 33.056C46.461 33.556 46.461 33.756 46.461 34.056L46.661 34.056C46.661 33.856 46.861 33.556 46.861 33.056C47.361 29.956 48.561 25.156 50.261 18.856C52.161 14.556 54.061 12.356 56.261 12.356C57.461 12.356 58.661 13.056 59.661 14.556C60.661 15.956 61.061 16.956 61.061 17.956C61.061 18.456 61.061 19.356 60.561 20.356C60.061 21.756 59.561 22.556 59.161 22.556C58.961 22.556 58.461 21.856 57.461 20.856C56.761 19.856 55.761 19.456 54.861 19.456C52.961 19.456 51.261 24.056 49.561 33.156C48.861 37.256 47.861 40.156 47.161 41.756C46.461 42.756 45.961 43.456 45.461 43.456C44.961 43.456 44.961 42.756 44.761 41.756C44.961 40.056 44.061 36.956 42.161 32.356C40.261 27.556 39.061 25.356 38.061 25.356C37.561 25.356 37.361 25.356 37.061 25.856C36.861 26.056 36.561 26.356 35.861 26.356C34.861 26.356 33.961 25.656 32.461 24.456C31.061 23.256 30.561 22.256 30.561 21.556C30.561 21.356 31.061 20.156 32.261 18.156C33.361 16.256 34.061 15.556 34.261 15.556L34.261 15.556ZM494.4 117.1C495.6 116.1 496.6 115.7 497.3 115.7C497.8 115.7 498 116.2 498 117.1C498 117.8 497.8 119.3 497.3 121.2C496.8 123.1 496.6 124.6 496.6 125.8C496.6 131.1 500.4 134 507.9 134C513.9 134 518.9 131.4 522.8 126.3C525.2 122.2 527.8 118.4 530.2 114.5C531.2 113.5 531.9 113.1 532.6 113.1C533.6 113.1 533.8 114.1 533.3 116.2C532.3 120.3 531.6 122.2 531.6 121.7C531.6 123.4 532.6 125.1 534.5 126.5C536.2 127.9 538.6 128.9 541.2 128.9C544.6 128.9 546.7 127.9 547.7 126.3C547.7 126.1 546.7 124.1 544.6 120.5C544.8 118.6 545.8 115.2 547.2 110.7C547.4 109.3 547.9 108.5 548.4 108.5C548.9 108.5 549.4 108.7 550.1 109.7C552 112.6 553.2 115.9 553.2 119.8C553.2 125.8 551.8 130.8 549.1 135.2C546.2 140.5 541.9 143.1 536.1 143.1C532.3 143.1 528.7 140 525.5 134.2C520.2 143.8 513.3 148.6 504.9 148.6C494.8 148.6 490 142.8 490 131.8C486.2 136.4 479.7 140.4 471.3 144.3L471.3 131.1C477.5 128 481.6 126.1 482.8 125.3C486.7 123.4 490.5 120.5 494.4 117.1L494.4 117.1ZM457.6 133C454 128.4 450.9 126.3 448 126.3C443.7 126.3 441.8 127.3 441.8 129.7C441.8 132.6 444.7 134 450.4 134C452.6 133.9 455 133.5 457.6 133L457.6 133ZM465.1 150.5C465.1 149.1 464.6 147.4 464.1 145.7C461.2 146.7 456.9 147.4 451.6 147.4C440.1 147.4 434.3 143.3 434.3 135.4C434.3 129.4 436 124.1 439.8 119.3C443.4 115.2 447.2 113.1 451.3 113.1C454.4 113.1 457.5 115 461.1 118.6C464.2 122.2 467.1 126.3 469.5 131.3C469.7 131.3 470.2 131.3 471.2 130.8L471.2 144L470.8 144.5C470.8 147.4 470.1 150.7 468.6 155.1C466.9 160.6 464.3 165.2 461.2 168.8C454 177.4 446.1 184.9 437.4 191.4C424.4 201 413.4 206 403.8 206C395.6 206 389.4 202.9 385.1 196.9C381.3 191.9 379.3 185.1 379.3 177.2C379.3 167.1 381.5 156.8 385.5 146C386.7 143.6 387.2 142.6 387.7 142.6C387.9 142.6 387.9 142.8 387.9 143.3C387.9 144 387.7 145.2 387.4 146.7C384.3 157.3 382.8 165.2 382.8 170.7C382.8 175.7 384 180.1 386.4 183.7C390.2 188.7 396.2 191.4 404.6 191.4C411.8 191.4 420.4 188.3 430.8 182C439 177 446.9 171 454.6 163.8C461.5 157 465.1 152.7 465.1 150.5L465.1 150.5Z" id="Shape" fill="#595959" fill-rule="evenodd" stroke="none" clip-path="url(#clip_1)" />
    <path d="M399.6 114C399.1 111.8 398.4 110.2 397.4 109C396.7 107.6 396.2 106.8 396 106.4C396 105.9 396 104.2 396.5 100.9C397 97.8 397.2 95.6 397.7 94.4C397.9 93.2 398.2 92.7 398.7 92.7C398.9 92.7 399.2 92.9 399.7 93.4C403.1 97.2 406.7 101.1 410.7 105.2C412.4 106.9 413.1 107.8 413.1 108.3C413.1 108.5 412.9 108.8 412.4 108.8C411.7 108.8 409.8 108.3 406.9 107.6C408.6 111.7 410.5 115.8 412.2 119.6C414.8 126.3 416.3 131.8 416.3 136.9C416.3 139.3 415.8 142.2 414.9 145.8C413.7 149.9 412.3 153 410.3 155.2C403.3 163.1 391.6 171.8 375 181.1C360.6 189.5 352.2 193.6 349.6 193.6C349.1 193.6 341.9 195.3 328.2 198.6C313.8 202 304.7 204.1 301.1 204.6C297.3 205.3 294.9 205.6 293.9 205.6C293.4 205.6 293.4 205.6 293.4 205.4C293.4 205.2 296 203.7 301.3 201.3C303.2 200.3 314.3 195.5 334.7 186.9C348.9 180.9 360.6 175.4 370 170.3C384.2 162.6 395 155.9 402.4 150.4C407.9 146.1 410.8 143 410.8 141C410.8 140.5 409.4 137.2 406.5 130.9C403.2 123.9 400.8 118.1 399.6 114L399.6 114Z" id="Shape" fill="#595959" stroke="none" clip-path="url(#clip_1)" />
    <path d="M379.9 80.7C379.9 84.5 378 89.8 374.1 96.3C371.7 100.4 368.1 105.9 363.3 113.1C368.1 118.6 371.5 123.7 373.1 128C374.1 131.1 374.8 135.2 374.8 139.8C374.8 141.7 374.3 144.1 373.4 147.2C372.7 150.1 371.7 152.2 370.8 153.7C368.9 156.6 365.8 159.5 361 162.3C356 165.7 351.6 167.3 348 167.3C342.2 167.3 339.4 163 339.4 154.3C339.4 148.5 340.4 142.8 342.3 137.5C344.2 132.9 347.3 126.9 352.4 119C348.1 114.9 343.5 109.2 338.5 102C338 101.3 336.8 100.1 334.9 98.2C333.9 97.2 333.5 96 333.5 94.6C333.5 92.3999 333.7 90 334.2 87.2C334.9 84.3 335.4 83.1 335.6 83.1C336.3 83.1 338.5 84.3 342.6 86.8999C346.4 89.5 349.6 91.5 351.5 93.1C352.7 93.8 353.2 94.5 353.2 94.5L353.2 94.7C353.2 94.9 352.5 95.2 350.8 95.2C347.7 95.2 346 95.4 346 95.7C346 95.9 346.5 96.4 347.4 97.6C351.2 102.4 355.1 106 359.2 108.9C360.2 107.5 363.5 102.7 368.8 94.5C373.4 87.5 376 82.7 377.2 79.8999C378.4 77 379.1 75.7999 379.6 75.7999C379.6 75.8999 379.9 77.2999 379.9 80.6999L379.9 80.7ZM370.5 139.7C367.9 134.4 363.3 128.9 357.1 123.6C354.9 125.8 352.3 129.8 348.9 135.6C345.1 142.1 343.4 146.2 343.4 148.3C343.4 151.2 345.3 152.6 349.6 152.6C351.5 152.6 353.9 151.9 357 150.7C361.3 148.8 365.4 146.1 368.8 142.8C370.3 141.4 370.8 140.4 370.5 139.7L370.5 139.7ZM357.1 62.7L360.9 54.8C361.1 54.3 361.4 54.1 361.9 54.1C362.4 54.1 364.3 55.3 368.1 57.9C371.7 60.3 373.6 61.7 373.6 62.2C373.6 63.9 371.9 67.5 368.8 72.8C368.3 73.5 367.8 73.5 367.4 73.3C364.3 70.9 360.7 68.5 356.6 65.9C355.2 68.8 354 71.4 352.5 73.6C352.3 74.3 351.8 74.6 351.3 74.3C347.7 71.4 343.9 68.8 340 66.4C339.8 66.2 339.8 65.9 340 65.4L344.6 55.8C344.8 55.3 345.3 54.8 345.6 54.8C346.1 54.8 347.8 56 350.9 58.2C354 60 356.1 61.7 357.1 62.7L357.1 62.7ZM483.6 196.6C481 197.3 479.5 197.8 479 197.8L479 197.5C479 197.5 480 196.8 481.9 195.6C483.8 194.4 486.7 192.5 490.8 189.4C492.7 187.5 495.6 184.4 499.2 180C501.6 177.1 504.2 174.5 507.1 172.6C510.7 170 514.1 168.8 517.7 168.8C518.4 168.8 519.6 169 521.1 169.5C522.3 170 523.5 170.2 524.5 170.2C526.4 170.2 527.9 169.5 529.1 168C529.8 166.6 530.8 165.4 531.7 163.9C532.2 162.9 532.9 162.5 533.4 162.5C533.6 162.5 533.6 162.7 533.6 163.2C533.6 163.7 533.4 164.9 532.9 166.3C532.4 167 534.3 167.3 537.9 167.3C538.4 167.3 538.6 167.3 538.6 167.1C538.6 167.1 538.4 166.1 537.9 164.5C537.7 164 537.9 163.3 538.6 162.3C539.6 160.6 540 159.9 540.3 160.1C541.3 160.8 541.7 162.3 541.7 163.9C541.7 165.6 541.2 167.3 540.5 169.2C539.8 171.4 539.1 172.6 538.6 173C536.9 174 534.3 173.7 530.7 172C527.8 174.9 524.9 176.6 522.1 176.6C521.4 176.6 520.2 176.4 519 175.9C517.8 175.4 516.8 175.2 516.1 175.2C511.3 175.2 506.3 177.4 501.2 182.2L490.4 193C488.1 194.7 486 195.9 483.6 196.6L483.6 196.6ZM432 67C434.9 67 437.3 68.4 439.4 71.8C441.6 74.9 443.2 79.2 444 84.5C444.2 85 444.2 85.2 444.2 85.5L444.4 85.5C444.4 85.3 444.6 85 444.6 84.5C445.1 81.4 446.3 76.6 448 70.3C449.9 66 451.8 63.8 454 63.8C455.2 63.8 456.4 64.5 457.4 66C458.4 67.4 458.8 68.4 458.8 69.4C458.8 69.9 458.8 70.8 458.3 71.8C457.8 73.2 457.3 74 456.9 74C456.7 74 456.2 73.3 455.2 72.3C454.5 71.3 453.5 70.9 452.6 70.9C450.7 70.9 449 75.5 447.3 84.6C446.6 88.7 445.6 91.6 444.9 93.2C444.2 94.2 443.7 94.9 443.2 94.9C442.7 94.9 442.7 94.2 442.5 93.2C442.7 91.5 441.8 88.4 439.9 83.8C438 79 436.8 76.8 435.8 76.8C435.3 76.8 435.1 76.8 434.8 77.3C434.6 77.5 434.3 77.8 433.6 77.8C432.6 77.8 431.7 77.1 430.2 75.9C428.8 74.7 428.3 73.7 428.3 73C428.3 72.8 428.8 71.6 430 69.6C431 67.7 431.7 67 432 67L432 67ZM391.4 63.9C415.6 54.8 440.8 45.7 466.8 36.1C467.5 35.9 468 35.6 468 35.9C468.2 35.9 468.2 36.4 468 37.1C467 39.3 466.3 40.5 465.8 40.9C465.6 41.1 453.3 45.7 429.6 54.6C405.4 63.5 391.7 69 389 70.7C389.5 68.4 390.2 66.3 391.4 63.9L391.4 63.9ZM367.9 19.9C368.4 18.5 368.4 17 368.1 15.6C367.9 14.2 367.1 13.4 365.9 13.4C365.4 13.4 364.7 13.6 363.7 14.1C362.7 14.6 362.3 15.1 362.3 15.5C362.4 16.8 364.3 18.3 367.9 19.9L367.9 19.9ZM365 26.2C360.4 23.8 358.3 21.4 358.3 18.8C358.3 15.7 359.7 12.8 362.6 10.4C365.5 7.8 367.9 6.8 369.8 7.50002C371.5 8.00002 372.2 9.70001 372.2 12.5C372.2 15.1 371.7 18 370.5 21.4C372.9 22.6 374.3 23.8 374.8 24.8C374.8 26 373.8 28.2 371.7 31C371.2 30 369.8 28.8 367.6 27.6C365 31.2 361.8 34.3 358 37.2C353.4 40.3 349.4 43 345.8 44.4C344.8 44.9 340.5 46.6 332.8 49.4C331.6 49.9 330.6 50.1 330.4 50.1C330.2 50.1 330.2 49.9 330.2 49.9C330.2 49.7 330.7 48.9 332.1 48.2C337.9 44.6 343.6 41.2 349.6 37.9C356.6 33.6 361.6 29.8 365 26.2L365 26.2ZM516.7 56.2C517.2 54.8 517.2 53.3 516.9 51.9C516.7 50.5 515.9 49.7 514.7 49.7C514.2 49.7 513.5 49.9 512.5 50.4C511.5 50.9 511.1 51.4 511.1 51.8C511.2 53.1 513.1 54.5 516.7 56.2L516.7 56.2ZM522 65.1C519.6 70.9 518.4 75.4 518.4 78.8C518.4 82.9 519.4 85 521.5 85C522.7 85 524.1 83.3 525.8 80.4C526 80.2 526 79.9 526.3 79.7C526.3 79.7 526.5 79.7 526.5 79.9L526.5 80.6C525.1 87.8 522.9 91.4 520 91.4C516.9 91.4 515.4 88.8 515.4 83.5C515.4 80.9 515.9 77.5 517.3 73.2C518.7 68.9 519.5 66.7 519.5 66.5C519.5 66 518.5 65.1 516.4 63.9C512.6 68.9 507.3 73.7 500.6 77.8C496 80.4 491.5 82.8 486.7 84.8C477.8 88.4 472.5 90.3 471.3 91C470.1 91.5 469.4 91.7 468.9 91.7C468.7 91.7 468.7 91.5 468.7 91.5C468.7 91 469.2 90.5 470.6 89.6C478.3 85.3 485.7 81 493.4 76.6C503.5 70.8 510.4 66 513.8 62.4C509.2 60 507.1 57.6 507.1 55C507.1 51.9 508.5 49 511.4 46.4C514.3 44 516.7 43 518.6 43.8C520 44.3 521 46 521 48.8C521 51.4 520.5 54.3 519.3 57.4C521.7 58.8 522.7 60.3 522.7 61.7C522.7 62.4 522.4 63.6 522 65.1L522 65.1ZM412.8 30.3C412.8 30.1 413 29.8 413 29.8C413.2 29.6 413.2 29.6 413.2 29.8C413.4 30 413.4 30.3 413.2 30.5C412 37.7 409.8 41.3 406.7 41.3C403.6 41.3 402.1 38.7 402.1 33.4C402.1 26.9 403.8 20 407.6 13C408.6 11.3 409 10.4 409.3 10.4C409.3 10.6 409.1 11.6 408.6 13.3C406.2 20.7 405 25.8 405 28.9C405 32.7 406 34.9 408.1 34.9C409.6 34.8 411.1 33.1 412.8 30.3L412.8 30.3Z" id="Shape" fill="#595959" fill-rule="evenodd" stroke="none" clip-path="url(#clip_1)" />
    <path d="M234.8 171.1C226.474 171.1 213.84 165.034 196.9 152.9C192.845 155.313 186.22 159.003 177.026 163.97C167.18 168.723 159.071 171.1 152.7 171.1L152.7 156.5C161.75 156.5 168.628 155.242 173.334 153.327C176.736 151.907 181.37 149.46 187.234 145.983L186.691 145.451C179.524 139.988 174.166 137.256 170.619 137.256C167.867 137.256 164.899 138.001 161.713 139.491C161.423 139.561 161.207 139.597 161.062 139.597C160.628 139.597 160.41 139.385 160.41 138.959C160.41 138.32 161.098 136.617 162.474 133.85C163.849 131.012 164.646 128.99 164.863 127.784C164.863 127.287 165.768 126.436 167.578 125.23C179.668 120.263 190.963 117.78 201.46 117.78C202.619 117.78 203.669 117.815 204.61 117.886C214.383 118.95 222.999 121.327 230.456 125.016C231.904 125.726 232.483 126.471 232.194 127.252L227.415 138.639C224.23 139.704 218.221 142.329 209.388 146.515C213.08 148.785 215.904 150.417 217.858 151.411C224.23 154.604 229.877 156.201 234.8 156.201L234.8 171.1ZM213.08 133.105C208.736 131.828 204.573 131.155 200.592 131.083C197.768 131.013 194.691 131.367 191.361 132.148C193.026 133.638 195.813 136.085 199.723 139.491C206.166 136.156 210.619 134.028 213.08 133.105L213.08 133.105Z" id="Group" fill="#000000" fill-rule="evenodd" stroke="none" clip-path="url(#clip_1)" />
    <path d="M149.927 109.841C178.453 96.907 208.157 83.973 238.805 70.328C239.63 70.044 240.22 69.618 240.22 70.044C240.455 70.044 240.455 70.754 240.22 71.749C239.04 74.876 238.216 76.582 237.626 77.15C237.391 77.435 222.892 83.973 194.956 96.622C166.43 109.272 150.281 117.09 147.098 119.506C147.688 116.236 148.513 113.252 149.928 109.841L149.927 109.841ZM224.252 41.524C224.252 41.324 224.452 41.024 224.452 41.024C224.652 40.824 224.652 40.824 224.652 41.024C224.852 41.224 224.852 41.524 224.652 41.724C223.452 48.924 221.252 52.524 218.152 52.524C215.052 52.524 213.552 49.924 213.552 44.624C213.552 38.124 215.252 31.224 219.052 24.224C220.052 22.524 220.452 21.624 220.752 21.624C220.752 21.824 220.552 22.824 220.052 24.524C217.652 31.924 216.452 37.024 216.452 40.124C216.452 43.924 217.452 46.124 219.552 46.124C221.052 46.024 222.552 44.324 224.252 41.524L224.252 41.524ZM106.979 34.067C106.979 32.867 104.579 30.667 99.579 27.867C97.879 30.767 97.179 33.367 97.179 35.767C97.179 37.167 97.879 38.167 99.379 38.167C100.579 38.167 101.979 37.667 103.679 36.767C105.279 35.967 106.479 35.067 106.979 34.067L106.979 34.067ZM101.679 14.867C102.379 13.667 103.379 13.167 104.079 13.167C104.579 13.167 105.079 13.367 105.079 13.867C105.079 13.867 104.879 14.067 104.879 14.367C103.879 16.567 102.979 18.967 102.279 21.367C107.279 24.967 109.679 28.767 109.479 32.367C108.979 36.467 108.479 39.067 107.779 40.067C105.379 42.967 102.779 44.667 99.379 44.667C95.979 44.667 94.579 42.467 94.579 38.667C94.579 37.967 94.579 36.967 94.779 36.067C95.979 28.267 98.379 21.367 101.679 14.867L101.679 14.867Z" id="Shape" fill="#595959" fill-rule="evenodd" stroke="none" clip-path="url(#clip_1)" />
    <path d="M279.8 162.7C280.5 164.9 281 167.7 281 170.9C281 174.7 280.3 178.1 279.1 181C278.4 182.4 277.9 183.4 277.2 183.4C276.2 183.4 275 182.7 273.1 181.7C267.3 178.3 263.3 174.3 261.1 169.5C259.9 166.9 258.9 162.3 258.5 156.5C258.3 155.5 258.3 154.8 258 154.8C257.5 154.8 257 155.5 256.6 156.5C254.2 159.1 251.8 162 249.4 165.1C245.1 168.9 240.3 171.1 234.8 171.1L234.8 156.2C241.8 156.2 247.3 154.5 251.8 151.2C252.8 150.5 255.2 147.8 258.8 143.8C260.2 141.9 261.4 141.2 262.4 141.2C262.9 141.2 263.6 141.4 264.6 142.2C267.5 144.6 269.4 146 270.4 146.5C272.8 147.7 275.9 148.2 280 148.2L280 162.7L279.8 162.7ZM276 170.2C276 168 275 165.9 272.9 163.5C270.7 161.1 268.3 159.7 266.2 158.9C266.2 161.3 267.4 163.7 269.8 166.1C271.9 168.7 274 170.2 276 170.2L276 170.2ZM152.798 163.737L152.798 156.539L155.744 156.539C159.386 156.539 165.652 155.738 169.356 154.799C172.096 154.104 181.971 149.447 185.729 147.078L187.46 145.986L186.252 144.964C182.499 141.79 175.783 138.072 172.458 137.328C170.161 136.814 166.639 137.316 163.372 138.623C162.162 139.107 161.024 139.413 160.845 139.302C160.397 139.025 160.805 137.792 162.645 133.852C163.505 132.016 164.471 129.719 164.793 128.747C165.59 126.348 166.863 125.539 173.416 123.264C182.598 120.077 190.073 118.519 198.638 118.007C205.118 117.619 213.993 119.113 222.691 122.055C227.884 123.812 231.718 125.77 231.85 126.735C231.941 127.402 227.698 137.939 227.143 138.423C226.995 138.552 225.776 139.087 224.433 139.612C220.822 141.025 209.636 146.12 209.437 146.442C209.227 146.783 216.139 150.832 219.727 152.47C224.731 154.752 229.83 156.173 233.062 156.185L234.717 156.191L234.717 170.831L233.379 170.831C231.73 170.831 227.346 169.735 224.085 168.507C218.336 166.343 210.435 161.93 201.777 156.049L196.897 152.735L194.979 153.826C186.906 158.419 178.859 162.802 175.631 164.363C168.264 167.928 160.708 170.315 155.5 170.723L152.798 170.935L152.798 163.737ZM206.174 136.495C209.487 134.865 212.402 133.532 212.652 133.532C212.901 133.532 213.105 133.388 213.105 133.212C213.105 132.51 206.666 131.343 201.846 131.172C197.636 131.023 192.348 131.451 191.412 132.016C191.092 132.21 199.19 139.435 199.742 139.448C199.966 139.453 202.86 138.125 206.174 136.495L206.174 136.495Z" id="Group" fill="#595959" fill-rule="evenodd" stroke="none" clip-path="url(#clip_1)" />
  </g>
</svg>