<?xml version="1.0" encoding="utf-8"?>
<svg width="593.6001px" height="206.61711px" viewBox="0 0 593.6001 206.61711" version="1.1" xmlns:xlink="http://www.w3.org/1999/xlink" xmlns="http://www.w3.org/2000/svg">
  <defs>
    <path d="M593.6 0L593.6 0L593.6 206.617L0 206.617L0 0L593.6 0Z" id="path_1" />
    <clipPath id="clip_1">
      <use xlink:href="#path_1" clip-rule="evenodd" fill-rule="evenodd" />
    </clipPath>
  </defs>
  <g id="Surah_42_of_114_(modified)">
    <path d="M593.6 0L593.6 0L593.6 206.617L0 206.617L0 0L593.6 0Z" id="Surah_42_of_114_(modified)" fill="none" stroke="none" />
    <path d="M350 27.117C350 22.317 349.3 18.517 347.8 15.317C347.8 13.6171 349 9.51704 351.9 3.31705C352.1 2.61705 352.4 2.11705 352.6 2.11705C353.1 2.11705 353.3 2.61705 353.8 3.31705C354.5 5.01704 356.2 9.51704 359.1 17.017C362.2 24.917 363.9 29.717 364.4 31.6171C364.9 32.817 364.9 34.017 364.9 34.517C364.9 36.717 363 35.517 358.7 30.717C358.2 30.017 358 30.517 358 31.717C358 32.217 359.2 47.117 361.4 76.817C363.6 106.317 364.5 122.917 364.5 126.717C364.5 138.017 362.8 148.117 359.5 156.717C358.5 158.417 358.1 159.617 357.6 160.517L357.6 160.517C356.9 161.717 356.6 161.717 356.4 161.017C356.2 160.017 356.4 158.117 356.6 155.517C357.1 151.417 357.3 146.917 357.3 141.817C357.3 137.017 356.1 117.817 353.7 84.017C351.2 50.1171 350 31.1171 350 27.117L350 27.117L350 27.117L350 27.117L350 27.117ZM342.1 101.217C342.1 115.417 339.5 126.417 334.4 134.617C330.1 141.317 325 144.917 319.3 144.917L319.3 130.317C323.9 130.317 328.4 128.417 332.7 124.817C333.9 123.817 334.6 119.817 334.6 113.017C334.6 108.717 333.6 95.0171 332 72.2171C330.3 49.2171 329.6 35.5171 329.6 31.4171C329.6 26.817 328.6 23.0171 327.2 19.9171C327.2 18.2171 328.6 14.1171 331.5 7.71706C331.7 7.01706 332 6.71706 332.2 6.71706C332.7 6.71706 332.9 6.91705 333.4 7.71706C334.1 9.61705 336 14.2171 338.7 21.6171C341.8 29.317 343.5 34.1171 344.2 36.017C344.4 37.417 344.7 38.417 344.7 39.1171C344.7 41.317 342.5 39.817 338.5 35.017C338 34.517 337.8 34.817 337.8 36.017C337.8 36.217 338.5 46.1171 340 65.317C341.3 84.2171 342.1 96.2171 342.1 101.217L342.1 101.217L342.1 101.217L342.1 101.217L342.1 101.217ZM208.6 144.917L208.6 131.517C213.9 129.317 217.5 127.717 219.2 126.717C222.6 124.817 225.9 122.417 228.8 119.517C229.8 118.517 230.7 118.117 231.7 118.117C232.9 118.117 233.1 118.817 232.7 120.717C232.2 122.417 232 124.117 232 125.517C232 129.117 233.2 131.717 236.1 133.417C238.7 135.117 242.1 136.017 246.2 136.017C252.2 136.017 258 133.817 263.5 129.517C264 129.017 266.1 126.917 270.2 122.517C273.8 118.717 276 116.517 276.2 116.517C276.9 116.517 277.2 117.517 276.7 119.117C275.7 121.517 275.5 122.917 275.5 123.417C275.5 125.317 276.2 127.217 277.4 129.217C279.3 132.117 281.7 133.517 284.8 133.517C293 133.517 299.7 127.717 305.4 116.217C305.9 115.217 306.6 114.817 307.3 114.817C308.3 114.817 308.7 115.517 308.3 117.217C308.1 118.417 307.8 119.617 307.8 120.617C307.8 126.817 311.6 130.017 319.3 130.017L319.3 144.917C310.9 144.917 305.6 140.617 303.5 132.217C303 131.217 303 130.817 302.8 130.817C302.6 130.817 302.3 131.317 302.1 132.217C297.8 143.017 291.8 148.517 284.1 148.517C276.4 148.517 271.6 143.517 270.2 133.617C270.2 132.617 270.2 132.417 270 132.417C269.8 132.417 269.5 132.917 269 133.617C267.1 136.717 264.4 139.817 260.8 143.017C255 148.317 249.3 150.917 243.3 150.917C237.1 150.917 232.7 149.017 230.1 145.117C228.7 142.717 227.7 139.117 227.5 134.317C227.5 133.817 227.3 133.617 226.8 133.617C226.1 133.617 225.4 134.117 224.6 135.017C221.6 138.217 216.3 141.517 208.6 144.917L208.6 144.917L208.6 144.917L208.6 144.917L208.6 144.917ZM194.9 133.617C191.3 129.017 188.2 126.917 185.3 126.917C181 126.917 179.1 127.917 179.1 130.317C179.1 133.217 182 134.617 187.7 134.617C189.9 134.617 192.3 134.117 194.9 133.617L194.9 133.617L194.9 133.617L194.9 133.617L194.9 133.617ZM202.4 151.117C202.4 149.717 201.9 148.017 201.4 146.317C198.5 147.317 194.2 148.017 188.9 148.017C177.4 148.017 171.6 143.917 171.6 136.017C171.6 130.017 173.3 124.717 177.1 119.917C180.7 115.817 184.5 113.717 188.6 113.717C191.7 113.717 194.8 115.617 198.4 119.217C201.5 122.817 204.4 126.917 206.8 131.917C207 131.917 207.5 131.917 208.5 131.417L208.5 144.617L208 145.117C208 148.017 207.3 151.317 205.8 155.717C204.1 161.217 201.5 165.817 198.4 169.417C191.2 178.017 183.3 185.517 174.6 192.017C161.6 201.617 150.6 206.617 141 206.617C132.8 206.617 126.6 203.517 122.3 197.517C118.5 192.517 116.5 185.717 116.5 177.817C116.5 167.717 118.7 157.417 122.7 146.617C123.9 144.217 124.4 143.217 124.9 143.217C125.1 143.217 125.1 143.417 125.1 143.917C125.1 144.617 124.9 145.817 124.6 147.317C121.5 157.917 120 165.817 120 171.317C120 176.317 121.2 180.717 123.6 184.317C127.4 189.317 133.4 192.017 141.8 192.017C149 192.017 157.6 188.917 168 182.617C176.2 177.617 184.1 171.617 191.8 164.417C198.8 157.617 202.4 153.317 202.4 151.117L202.4 151.117L202.4 151.117L202.4 151.117L202.4 151.117ZM140.7 82.517C140.2 80.317 139.5 78.7171 138.5 77.517C137.8 76.1171 137.3 75.317 137.1 74.917C137.1 74.417 137.1 72.717 137.6 69.417C138.1 66.317 138.3 64.1171 138.8 62.917C139 61.717 139.3 61.217 139.8 61.217C140 61.217 140.3 61.417 140.8 61.917C144.2 65.717 147.8 69.6171 151.8 73.717C153.5 75.417 154.2 76.317 154.2 76.817C154.2 77.017 154 77.317 153.5 77.317C152.8 77.317 150.9 76.817 148 76.117C149.7 80.217 151.6 84.317 153.3 88.117C155.9 94.817 157.4 100.317 157.4 105.417C157.4 107.817 156.9 110.717 156 114.317C154.8 118.417 153.4 121.517 151.4 123.717C144.4 131.617 132.7 140.317 116.1 149.617C101.7 158.017 93.3 162.117 90.7 162.117C90.2 162.117 83 163.817 69.3 167.117C54.9 170.517 45.8 172.617 42.2 173.117C38.4 173.817 36 174.117 35 174.117C34.5 174.117 34.5 174.117 34.5 173.917C34.5 173.717 37.1 172.217 42.4 169.817C44.3 168.817 55.4 164.017 75.8 155.417C90 149.417 101.7 143.917 111.1 138.817C125.3 131.117 136.1 124.417 143.5 118.917C149 114.617 151.9 111.517 151.9 109.517C151.9 109.017 150.5 105.717 147.6 99.417C144.3 92.317 141.9 86.6171 140.7 82.517L140.7 82.517L140.7 82.517L140.7 82.517L140.7 82.517ZM114.5 106.317C114.5 113.517 111.6 120.017 105.9 125.317C96.8 133.517 85.3 140.917 71.3 147.417C56.4 154.117 43.7 157.717 33.1 157.717C21.6 157.717 12.9 153.917 7.19999 146.417C2.39999 139.917 -7.62939e-06 131.817 -7.62939e-06 121.417C-7.62939e-06 105.117 3.8 90.917 11.5 78.917C13.2 76.517 14.1 75.317 14.9 75.317C15.1 75.317 15.1 75.517 15.1 75.817C15.1 76.517 14.6 78.017 13.9 79.917C7.7 93.1171 4.8 103.917 4.8 112.517C4.8 120.417 6.7 126.917 10.8 132.417C16.1 139.417 24.2 143.017 35.3 143.017C44.2 143.017 54.7 140.417 67.2 135.317C76.8 131.517 86.2 126.417 95.5 120.717C103.7 115.717 107.7 112.517 107.7 111.317C107.7 109.917 105.3 108.717 100.7 107.217C95.9 106.217 90.9 105.017 86.1 103.817C79.9 102.617 75.5 100.917 72.7 99.217C68.6 96.617 66.7 93.017 66.7 88.417C66.7 79.817 69.6 70.417 75.3 60.6171C79.9 52.917 85.1 46.4171 90.9 41.4171C96.9 36.4171 101.7 34.0171 105.3 34.0171C107.7 34.0171 109.6 35.0171 111.3 37.1171C113 39.3171 113.7 41.9171 113.7 44.8171C113.7 48.4171 113.2 51.0171 112 53.0171C110.8 54.9171 110.1 55.9171 109.4 55.9171C108.9 55.9171 108.4 54.9171 107.7 53.3171C106.5 50.2171 104.6 48.5171 101.9 48.5171C97.6 48.5171 91.8 52.6171 84.9 60.3171C81.3 63.9171 78.4 67.7171 75.8 72.1171C73.4 76.2171 72.2 78.8171 72.2 80.3171C72.2 84.1171 79.4 87.7171 93.8 90.6171C102.2 92.517 107.7 94.417 110.4 96.6171C113.1 98.317 114.5 101.717 114.5 106.317L114.5 106.317L114.5 106.317L114.5 106.317L114.5 106.317ZM272.5 91.1171L276.3 83.417C276.5 82.717 276.8 82.417 277.3 82.417C277.8 82.417 279.7 83.6171 283.5 86.217C287.1 88.817 289 90.317 289 90.817C289 92.517 287.3 95.817 284.2 101.117C283.7 101.817 283.2 101.817 282.8 101.617C279.7 99.217 276.1 96.817 272 94.217C270.6 97.117 269.4 99.717 267.9 101.917C267.7 102.617 267.2 102.917 266.7 102.617C263.1 99.7171 259.3 97.1171 255.4 94.7171C255.2 94.517 255.2 94.2171 255.4 93.7171L260 84.1171C260.2 83.6171 260.7 83.1171 261 83.1171C261.5 83.1171 263.2 84.3171 266.3 86.517C269.3 88.517 271.5 90.2171 272.5 91.1171L272.5 91.1171L272.5 91.1171L272.5 91.1171L272.5 91.1171ZM259.3 76.317C259.1 76.117 259.1 75.817 259.3 75.317L264.1 65.717C264.3 65.217 264.6 65.017 265.1 65.017C265.6 65.017 267.5 66.217 271.3 68.617C274.9 71.217 276.8 72.717 276.8 73.217C276.8 74.917 275.1 78.217 272 83.517C271.5 84.217 271 84.517 270.6 84.017C266.9 81.317 263.1 78.7171 259.3 76.317L259.3 76.317L259.3 76.317L259.3 76.317L259.3 76.317ZM245.8 53.517C245.8 55.417 245.3 57.6171 244.4 59.517C243.2 62.1171 241.8 63.6171 240.1 63.6171C237.2 63.6171 235.3 61.7171 234.1 57.8171C232.7 62.6171 230.3 65.2171 226.7 65.2171C225.5 65.2171 224.3 64.517 223.3 63.017C222.1 61.6171 221.6 59.417 221.6 57.017L221.6 50.817C221.6 50.317 221.1 50.1171 220.6 49.817C219.9 49.6171 219.6 49.1171 219.6 48.4171C219.6 47.0171 220.1 45.817 221 44.6171C222 43.4171 222.7 42.9171 223.2 42.9171C223.9 42.9171 224.4 44.1171 224.4 46.7171C224.4 48.1171 224.2 49.3171 224.2 50.3171C224 51.3171 224 52.0171 224 52.7171C224 54.1171 224.2 55.6171 224.7 56.8171C225.4 58.2171 226.4 59.2171 227.3 59.2171C228.7 59.2171 229.9 58.517 231.1 57.3171C232.3 56.1171 233 54.7171 233 53.0171C233 52.0171 232.5 50.6171 232 48.2171C231.3 46.0171 231 44.6171 231 44.1171C231 43.6171 231.2 42.9171 231.7 41.7171C232.2 40.7171 232.7 40.3171 232.9 40.3171C233.4 40.3171 233.9 41.7171 234.6 44.6171C235.3 47.7171 235.8 49.9171 235.8 51.3171C235.8 55.4171 237.2 57.5171 240.4 57.5171C241.8 57.5171 242.8 56.8171 243 55.3171C240.4 50.5171 238.9 46.9171 238.9 44.3171C238.9 42.9171 239.1 41.7171 240.1 40.5171C240.6 39.8171 240.8 39.3171 241.1 39.3171C241.3 39.3171 241.6 39.8171 241.6 40.7171C241.8 41.9171 242.1 43.1171 242.3 44.1171C242.3 44.1171 243 45.817 244.2 49.1171C245.3 51.1171 245.8 52.517 245.8 53.517L245.8 53.517L245.8 53.517L245.8 53.517L245.8 53.517ZM236 12.717C236.5 11.317 236.5 9.81705 236.2 8.41704C236 7.01704 235.2 6.21704 234 6.21704C233.5 6.21704 232.8 6.41704 231.8 6.91704C230.8 7.41704 230.4 7.91704 230.4 8.31703C230.5 9.51704 232.4 11.017 236 12.717L236 12.717L236 12.717L236 12.717L236 12.717ZM233.1 18.917C228.5 16.517 226.4 14.117 226.4 11.517C226.4 8.41704 227.8 5.51704 230.7 3.11705C233.6 0.517044 236 -0.482956 237.9 0.217056C239.6 0.717056 240.3 2.41705 240.3 5.21706C240.3 7.81706 239.8 10.7171 238.6 14.1171C241 15.317 242.4 16.517 242.9 17.517C242.9 18.717 241.9 20.917 239.8 23.717C239.3 22.717 237.9 21.517 235.7 20.317C233.1 23.9171 229.9 27.017 226.1 29.9171C221.5 33.0171 217.5 35.7171 213.9 37.1171C212.9 37.6171 208.6 39.317 200.9 42.1171C199.7 42.6171 198.7 42.817 198.5 42.817C198.3 42.817 198.3 42.6171 198.3 42.6171C198.3 42.4171 198.8 41.6171 200.2 40.9171C206 37.317 211.7 33.9171 217.7 30.6171C224.7 26.317 229.7 22.517 233.1 18.917L233.1 18.917L233.1 18.917L233.1 18.917L233.1 18.917ZM116.9 55.6171C135.4 48.9171 154.6 41.7171 174.7 34.2171C175.4 34.0171 175.9 33.7171 176.1 34.0171C176.1 34.0171 176.1 34.5171 175.9 35.2171C174.9 37.4171 174.2 38.6171 173.7 39.0171C156.9 45.2171 137 52.9171 114.4 62.3171C115 60.2171 115.7 58.017 116.9 55.6171L116.9 55.6171L116.9 55.6171L116.9 55.6171L116.9 55.6171ZM46.1 119.717C45.6 120.917 45.1 121.617 44.9 121.917C44.7 122.117 44.4 121.917 44.4 121.417C44.4 120.717 44.4 120.017 44.6 119.217C44.8 118.217 45.1 116.617 45.6 113.917C45.6 112.717 45.8 111.517 45.8 110.317C45.8 101.217 42 93.0171 34 86.1171C33.5 85.917 33.5 85.1171 34 84.7171L36.2 80.9171C36.2 80.4171 36.7 80.4171 37.2 80.9171C44.9 86.7171 48.7 95.1171 48.7 106.117C48.8 111.317 47.8 115.917 46.1 119.717L46.1 119.717L46.1 119.717L46.1 119.717L46.1 119.717ZM22.1 67.1171C22.1 66.917 22.3 66.6171 22.3 66.6171C22.5 66.417 22.5 66.417 22.5 66.6171C22.7 66.8171 22.7 67.1171 22.5 67.3171C21.3 74.5171 19.1 78.1171 16 78.1171C12.9 78.1171 11.4 75.517 11.4 70.2171C11.4 63.7171 13.1 56.8171 16.9 49.8171C17.9 48.1171 18.3 47.2171 18.6 47.2171L18.6 47.2171C18.6 47.4171 18.4 48.4171 17.9 50.1171C15.5 57.517 14.3 62.6171 14.3 65.7171C14.3 69.517 15.3 71.7171 17.4 71.7171C19 71.7171 20.5 70.017 22.1 67.1171L22.1 67.1171L22.1 67.1171L22.1 67.1171L22.1 67.1171ZM327.2 170.117C327.2 170.617 327 171.517 326.7 172.517C326.2 173.917 325.7 174.717 325 174.717C324.8 174.717 324.3 174.017 323.3 173.017C322.6 172.017 321.6 171.617 320.9 171.617C319 171.617 317.1 176.217 315.4 185.317C314.7 189.417 314 192.017 313 193.717C312.3 194.917 311.8 195.417 311.3 195.417C311.1 195.417 310.8 194.917 310.8 194.017C310.8 192.317 309.8 189.217 307.9 184.617C306.2 179.817 304.8 177.617 304.1 177.617C303.6 177.617 303.1 177.617 303.1 178.117C302.9 178.317 302.4 178.617 301.7 178.617C300.7 178.617 299.5 177.917 298.1 176.717C296.7 175.317 296.2 174.317 296.4 173.817C298.6 169.717 299.8 167.817 300.2 167.817C302.8 167.817 305.5 169.217 307.6 172.617C309.8 175.717 311.2 180.017 312.2 185.117C312.2 185.817 312.2 186.117 312.2 186.117C312.4 186.317 312.4 186.317 312.4 186.117C312.4 186.117 312.6 185.917 312.9 185.117C313.4 182.217 314.3 177.417 316 171.217C317.9 166.917 319.8 164.717 322.2 164.717C323.2 164.717 324.4 165.417 325.6 166.917C326.7 168.217 327.2 169.117 327.2 170.117L327.2 170.117L327.2 170.117L327.2 170.117L327.2 170.117ZM296.5 173.717C297 172.717 297.5 172.317 297.7 172.317C297.7 172.317 297.9 172.517 297.7 172.517C297.9 173.217 297.2 174.917 295.8 177.517C293.4 182.117 290 185.717 285.7 188.817C281.1 192.217 277.1 194.617 273.5 196.217C272.8 196.717 268.5 198.417 260.5 201.217C259.3 201.717 258.6 201.917 258.1 201.917C257.9 201.917 257.9 201.717 257.9 201.717C257.9 201.517 258.6 200.717 259.8 200.017C266.5 196.417 275.6 190.617 287.4 182.717C292.1 179.217 295 176.117 296.5 173.717L296.5 173.717L296.5 173.717L296.5 173.717L296.5 173.717ZM223 171.517C225.9 171.517 228.3 172.917 230.4 176.317C232.6 179.417 234.2 183.717 235 189.017C235.2 189.517 235.2 189.717 235.2 190.017L235.4 190.017C235.4 189.817 235.6 189.517 235.6 189.017C236.1 185.917 237.3 181.117 239 174.817C240.9 170.517 242.8 168.317 245 168.317C246.2 168.317 247.4 169.017 248.4 170.517C249.4 171.917 249.8 172.917 249.8 173.917C249.8 174.417 249.8 175.317 249.3 176.317C248.8 177.717 248.3 178.517 247.9 178.517C247.7 178.517 247.2 177.817 246.2 176.817C245.5 175.817 244.5 175.417 243.6 175.417C241.7 175.417 240 180.017 238.3 189.117C237.6 193.217 236.6 196.117 235.9 197.717C235.2 198.717 234.7 199.417 234.2 199.417C233.7 199.417 233.7 198.717 233.5 197.717C233.7 196.017 232.8 192.917 230.9 188.317C229 183.517 227.8 181.317 226.8 181.317C226.3 181.317 226.1 181.317 225.8 181.817C225.6 182.017 225.3 182.317 224.6 182.317C223.6 182.317 222.7 181.617 221.2 180.417C219.8 179.217 219.3 178.217 219.3 177.517C219.3 177.317 219.8 176.117 221 174.117C222.1 172.317 222.8 171.517 223 171.517L223 171.517L223 171.517L223 171.517L223 171.517ZM155.8 153.817C155.8 156.417 154.6 159.317 152.7 162.417C150.5 165.517 147.9 168.417 144.5 170.817C143.1 171.817 142.3 172.217 142.1 172.217L142.1 172.017C142.1 171.817 142.6 171.317 143.5 170.117C149 164.117 151.9 160.317 151.9 158.117C151.9 156.417 150.9 155.517 149.3 155.517C148.3 155.517 147.4 155.717 146.7 156.217C146 156.417 145.7 156.717 145.5 156.717C145.5 156.717 145.3 156.717 145.3 156.517C145.3 156.517 145.3 156.017 145.5 155.117C146.5 151.017 148.4 149.117 151.7 149.117C154.4 149.017 155.8 150.717 155.8 153.817L155.8 153.817L155.8 153.817L155.8 153.817L155.8 153.817ZM178.9 66.7171C181.8 66.7171 184.2 68.1171 186.3 71.517C188.5 74.6171 190.1 78.917 190.9 84.2171C191.1 84.7171 191.1 84.9171 191.1 85.2171L191.3 85.2171C191.3 85.017 191.5 84.7171 191.5 84.2171C192 81.1171 193.2 76.3171 194.9 70.017C196.8 65.7171 198.7 63.517 200.9 63.517C202.1 63.517 203.3 64.2171 204.3 65.7171C205.3 67.1171 205.7 68.1171 205.7 69.1171C205.7 69.6171 205.7 70.517 205.2 71.517C204.7 72.917 204.2 73.7171 203.8 73.7171C203.6 73.7171 203.1 73.017 202.1 72.017C201.4 71.017 200.4 70.6171 199.5 70.6171C197.6 70.6171 195.9 75.2171 194.2 84.3171C193.5 88.4171 192.5 91.3171 191.8 92.9171C191.1 93.9171 190.6 94.6171 190.1 94.6171C189.6 94.6171 189.6 93.9171 189.4 92.9171C189.6 91.2171 188.7 88.1171 186.8 83.5171C184.9 78.7171 183.7 76.5171 182.7 76.5171C182.2 76.5171 182 76.5171 181.7 77.0171C181.5 77.2171 181.2 77.5171 180.5 77.5171C179.5 77.5171 178.6 76.8171 177.1 75.6171C175.7 74.4171 175.2 73.4171 175.2 72.7171C175.2 72.5171 175.7 71.3171 176.9 69.3171C177.9 67.417 178.6 66.7171 178.9 66.7171L178.9 66.7171L178.9 66.7171L178.9 66.7171L178.9 66.7171ZM234.8 83.517C234.8 86.1171 233.6 89.017 231.7 92.1171C229.5 95.2171 226.9 98.1171 223.5 100.517C222.1 101.517 221.3 101.917 221.1 101.917L221.1 101.717C221.1 101.517 221.6 101.017 222.5 99.817C228 93.817 230.9 90.017 230.9 87.817C230.9 86.117 229.9 85.217 228.3 85.217C227.3 85.217 226.4 85.417 225.7 85.917C225 86.1171 224.7 86.417 224.5 86.417C224.5 86.417 224.3 86.417 224.3 86.217C224.3 86.217 224.3 85.717 224.5 84.817C225.5 80.717 227.4 78.817 230.7 78.817C233.3 78.7171 234.8 80.317 234.8 83.517L234.8 83.517L234.8 83.517L234.8 83.517L234.8 83.517ZM274.6 3.51704C277.5 3.51704 279.9 4.91704 282 8.31705C284.2 11.4171 285.8 15.717 286.6 21.017C286.8 21.517 286.8 21.717 286.8 22.017L287 22.017C287 21.817 287.2 21.517 287.2 21.017C287.7 17.917 288.9 13.1171 290.6 6.81705C292.5 2.51704 294.4 0.317047 296.6 0.317047C297.8 0.317047 299 1.01704 300 2.51704C301 3.91704 301.4 4.91704 301.4 5.91704C301.4 6.41704 301.4 7.31703 300.9 8.31703C300.4 9.71703 299.9 10.517 299.5 10.517C299.3 10.517 298.8 9.81703 297.8 8.81703C297.1 7.81703 296.1 7.41704 295.2 7.41704C293.3 7.41704 291.6 12.017 289.9 21.117C289.2 25.217 288.2 28.117 287.5 29.717C286.8 30.717 286.3 31.417 285.8 31.417C285.3 31.417 285.3 30.717 285.1 29.717C285.3 28.017 284.4 24.917 282.5 20.317C280.6 15.517 279.4 13.317 278.4 13.317C277.9 13.317 277.7 13.317 277.4 13.817C277.2 14.017 276.9 14.317 276.2 14.317C275.2 14.317 274.3 13.6171 272.8 12.4171C271.4 11.2171 270.9 10.2171 270.9 9.51706C270.9 9.31706 271.4 8.11707 272.6 6.11707C273.7 4.31705 274.4 3.51704 274.6 3.51704L274.6 3.51704L274.6 3.51704L274.6 3.51704L274.6 3.51704ZM308.2 53.517C308.2 53.317 308.4 53.017 308.4 53.017C308.6 52.817 308.6 52.817 308.6 53.017C308.8 53.2171 308.8 53.517 308.6 53.7171C307.4 60.9171 305.2 64.517 302.1 64.517C299 64.517 297.5 61.917 297.5 56.6171C297.5 50.1171 299.2 43.2171 303 36.2171C304 34.5171 304.4 33.6171 304.7 33.6171L304.7 33.6171C304.7 33.817 304.5 34.817 304 36.517C301.6 43.917 300.4 49.017 300.4 52.1171C300.4 55.917 301.4 58.1171 303.5 58.1171C305.1 58.017 306.5 56.317 308.2 53.517L308.2 53.517L308.2 53.517L308.2 53.517L308.2 53.517ZM201.2 5.51704C201.2 8.11705 200 11.017 198.1 14.1171C195.9 17.2171 193.3 20.1171 189.9 22.517C188.5 23.517 187.7 23.917 187.5 23.917L187.5 23.717C187.5 23.517 188 23.017 188.9 21.817C194.4 15.817 197.3 12.017 197.3 9.81705C197.3 8.11705 196.3 7.21704 194.7 7.21704C193.7 7.21704 192.8 7.41704 192.1 7.91704C191.4 8.11703 191.1 8.41704 190.9 8.41704C190.9 8.41704 190.7 8.41704 190.7 8.21704C190.7 8.21704 190.7 7.71704 190.9 6.81705C191.9 2.71704 193.8 0.817047 197.1 0.817047C199.7 0.717041 201.2 2.31705 201.2 5.51704L201.2 5.51704L201.2 5.51704L201.2 5.51704L201.2 5.51704ZM145.5 23.517C145.5 23.317 145.7 23.017 145.7 23.017C145.9 22.817 145.9 22.817 145.9 23.017C146.1 23.217 146.1 23.517 145.9 23.717C144.7 30.917 142.5 34.517 139.4 34.517C136.3 34.517 134.8 31.917 134.8 26.617C134.8 20.1171 136.5 13.2171 140.3 6.21706C141.3 4.51706 141.7 3.61705 142 3.61705L142 3.61705C142 3.81705 141.8 4.81705 141.3 6.51704C138.9 13.917 137.7 19.017 137.7 22.1171C137.7 25.9171 138.7 28.1171 140.8 28.1171C142.4 28.017 143.8 26.317 145.5 23.517L145.5 23.517L145.5 23.517L145.5 23.517L145.5 23.517ZM39.4 29.017C42.3 29.017 44.7 30.417 46.8 33.817C49 36.9171 50.6 41.217 51.4 46.517C51.6 47.017 51.6 47.217 51.6 47.517L51.8 47.517C51.8 47.317 52 47.017 52 46.517C52.5 43.417 53.7 38.6171 55.4 32.317C57.3 28.017 59.2 25.817 61.4 25.817C62.6 25.817 63.8 26.517 64.8 28.017C65.8 29.417 66.2 30.417 66.2 31.417C66.2 31.917 66.2 32.817 65.7 33.817C65.2 35.217 64.7 36.017 64.3 36.017C64.1 36.017 63.6 35.317 62.6 34.317C61.9 33.317 60.9 32.917 60 32.917C58.1 32.917 56.4 37.517 54.7 46.617C54 50.717 53 53.617 52.3 55.217C51.6 56.217 51.1 56.917 50.6 56.917C50.1 56.917 50.1 56.217 49.9 55.217C50.1 53.517 49.2 50.417 47.3 45.817C45.4 41.017 44.2 38.817 43.2 38.817C42.7 38.817 42.5 38.817 42.2 39.317C42 39.517 41.7 39.817 41 39.817C40 39.817 39.1 39.117 37.6 37.917C36.2 36.717 35.7 35.717 35.7 35.017C35.7 34.817 36.2 33.6171 37.4 31.6171C38.5 29.717 39.2 29.017 39.4 29.017L39.4 29.017L39.4 29.017L39.4 29.017L39.4 29.017ZM534.8 112.017C536 111.017 537 110.617 537.7 110.617C538.2 110.617 538.4 111.117 538.4 112.017C538.4 112.717 538.2 114.217 537.7 116.117C537.2 118.017 537 119.517 537 120.717C537 126.017 540.8 128.917 548.3 128.917C554.3 128.917 559.3 126.317 563.2 121.217C565.6 117.117 568.2 113.317 570.6 109.417C571.6 108.417 572.3 108.017 573 108.017C574 108.017 574.2 109.017 573.7 111.117C572.7 115.217 572 117.117 572 116.617C572 118.317 573 120.017 574.9 121.417C576.6 122.817 579 123.817 581.6 123.817C585 123.817 587.1 122.817 588.1 121.217C588.1 121.017 587.1 119.017 585 115.417C585.2 113.517 586.2 110.117 587.6 105.617C587.8 104.217 588.3 103.417 588.8 103.417C589.3 103.417 589.8 103.617 590.5 104.617C592.4 107.517 593.6 110.817 593.6 114.717C593.6 120.717 592.2 125.717 589.5 130.117C586.6 135.417 582.3 138.017 576.5 138.017C572.7 138.017 569.1 134.917 565.9 129.117C560.6 138.717 553.7 143.517 545.3 143.517C535.2 143.517 530.4 137.717 530.4 126.717C526.6 131.317 520.1 135.317 511.7 139.217L511.7 126.017C517.9 122.917 522 121.017 523.2 120.217C527.1 118.317 530.9 115.417 534.8 112.017L534.8 112.017L534.8 112.017L534.8 112.017L534.8 112.017ZM498.1 127.917C494.5 123.317 491.4 121.217 488.5 121.217C484.2 121.217 482.3 122.217 482.3 124.617C482.3 127.517 485.2 128.917 490.9 128.917C493 128.817 495.4 128.317 498.1 127.917L498.1 127.917L498.1 127.917L498.1 127.917L498.1 127.917ZM505.5 145.417C505.5 144.017 505 142.317 504.5 140.617C501.6 141.617 497.3 142.317 492 142.317C480.5 142.317 474.7 138.217 474.7 130.317C474.7 124.317 476.4 119.017 480.2 114.217C483.8 110.117 487.6 108.017 491.7 108.017C494.8 108.017 497.9 109.917 501.5 113.517C504.6 117.117 507.5 121.217 509.9 126.217C510.1 126.217 510.6 126.217 511.6 125.717L511.6 138.917L511.1 139.417C511.1 142.317 510.4 145.617 508.9 150.017C507.2 155.517 504.6 160.117 501.5 163.717C494.3 172.317 486.4 179.817 477.7 186.317C464.7 195.917 453.7 200.917 444.1 200.917C435.9 200.917 429.7 197.817 425.4 191.817C421.6 186.817 419.6 180.017 419.6 172.117C419.6 162.017 421.8 151.717 425.8 140.917C427 138.517 427.5 137.517 428 137.517C428.2 137.517 428.2 137.717 428.2 138.217C428.2 138.917 428 140.117 427.7 141.617C424.6 152.217 423.1 160.117 423.1 165.617C423.1 170.617 424.3 175.017 426.7 178.617C430.5 183.617 436.5 186.317 444.9 186.317C452.1 186.317 460.7 183.217 471.1 176.917C479.3 171.917 487.2 165.917 494.9 158.717C501.9 151.917 505.5 147.517 505.5 145.417L505.5 145.417L505.5 145.417L505.5 145.417L505.5 145.417ZM440 109.117C439.5 106.917 438.8 105.317 437.8 104.117C437.1 102.717 436.6 101.917 436.4 101.517C436.4 101.017 436.4 99.317 436.9 96.017C437.4 92.917 437.6 90.7171 438.1 89.517C438.3 88.317 438.6 87.817 439.1 87.817C439.3 87.817 439.6 88.017 440.1 88.517C443.5 92.317 447.1 96.2171 451.1 100.317C452.8 102.017 453.5 102.917 453.5 103.417C453.5 103.617 453.3 103.917 452.8 103.917C452.1 103.917 450.2 103.417 447.3 102.717C449 106.817 450.9 110.917 452.6 114.717C455.2 121.417 456.7 126.917 456.7 132.017C456.7 134.417 456.2 137.317 455.3 140.917C454.1 145.017 452.7 148.117 450.7 150.317C443.7 158.217 432 166.917 415.4 176.217C401 184.617 392.6 188.717 390 188.717C389.5 188.717 382.3 190.417 368.6 193.717C354.2 197.117 345.1 199.217 341.5 199.717C337.7 200.417 335.3 200.717 334.3 200.717C333.8 200.717 333.8 200.717 333.8 200.517C333.8 200.317 336.4 198.817 341.7 196.417C343.6 195.417 354.7 190.617 375.1 182.017C389.3 176.017 401 170.517 410.4 165.417C424.6 157.717 435.4 151.017 442.8 145.517C448.3 141.217 451.2 138.117 451.2 136.117C451.2 135.617 449.8 132.317 446.9 126.017C443.6 119.017 441.2 113.217 440 109.117L440 109.117L440 109.117L440 109.117L440 109.117ZM420.3 75.817C420.3 79.617 418.4 84.917 414.5 91.417C412.1 95.517 408.5 101.017 403.7 108.217C408.5 113.717 411.9 118.817 413.5 123.117C414.5 126.217 415.2 130.317 415.2 134.917C415.2 136.817 414.7 139.217 413.8 142.317C413.1 145.217 412.1 147.317 411.2 148.817C409.3 151.717 406.2 154.617 401.4 157.417C396.4 160.817 392 162.417 388.4 162.417C382.6 162.417 379.8 158.117 379.8 149.417C379.8 143.617 380.8 137.917 382.7 132.617C384.6 128.017 387.7 122.017 392.8 114.117C388.5 110.017 383.9 104.317 378.9 97.117C378.4 96.417 377.2 95.217 375.3 93.317C374.3 92.317 373.9 91.117 373.9 89.717C373.9 87.517 374.1 85.117 374.6 82.317C375.3 79.417 375.8 78.217 376 78.217C376.7 78.217 378.9 79.417 383 82.017C386.8 84.617 390 86.617 391.9 88.217C393.1 88.917 393.6 89.617 393.6 89.617L393.6 89.817C393.6 90.017 392.9 90.317 391.2 90.317C388.1 90.317 386.4 90.517 386.4 90.817C386.4 91.017 386.9 91.517 387.8 92.717C391.6 97.517 395.5 101.117 399.6 104.017C400.6 102.617 403.9 97.817 409.2 89.617C413.8 82.617 416.4 77.817 417.6 75.017C418.8 72.117 419.5 70.917 420 70.917C420.1 71.017 420.3 72.417 420.3 75.817L420.3 75.817L420.3 75.817L420.3 75.817L420.3 75.817ZM410.9 134.817C408.3 129.517 403.7 124.017 397.5 118.717C395.3 120.917 392.7 124.917 389.3 130.717C385.5 137.217 383.8 141.317 383.8 143.417C383.8 146.317 385.7 147.717 390 147.717C391.9 147.717 394.3 147.017 397.4 145.817C401.7 143.917 405.8 141.217 409.2 137.917C410.7 136.517 411.2 135.517 410.9 134.817L410.9 134.817L410.9 134.817L410.9 134.817L410.9 134.817ZM397.5 57.817L401.3 49.917C401.5 49.417 401.8 49.217 402.3 49.217C402.8 49.217 404.7 50.417 408.5 53.017C412.1 55.417 414 56.817 414 57.317C414 59.017 412.3 62.617 409.2 67.917C408.7 68.6171 408.2 68.6171 407.8 68.417C404.7 66.017 401.1 63.6171 397 61.017C395.6 63.917 394.4 66.517 392.9 68.7171C392.7 69.4171 392.2 69.7171 391.7 69.4171C388.1 66.5171 384.3 63.9171 380.4 61.5171C380.2 61.3171 380.2 61.0171 380.4 60.5171L385 50.9171C385.2 50.4171 385.7 49.9171 386 49.9171C386.5 49.9171 388.2 51.1171 391.3 53.3171C394.4 55.1171 396.5 56.817 397.5 57.817L397.5 57.817L397.5 57.817L397.5 57.817L397.5 57.817ZM524 191.517C521.4 192.217 519.9 192.717 519.4 192.717L519.4 192.517C519.4 192.517 520.4 191.817 522.3 190.617C524.2 189.417 527.1 187.517 531.2 184.417C533.1 182.517 536 179.417 539.6 175.017C542 172.117 544.6 169.517 547.5 167.617C551.1 165.017 554.5 163.817 558.1 163.817C558.8 163.817 560 164.017 561.5 164.517C562.7 165.017 563.9 165.217 564.9 165.217C566.8 165.217 568.3 164.517 569.5 163.017C570.2 161.617 571.2 160.417 572.1 158.917C572.6 157.917 573.3 157.517 573.8 157.517C574 157.517 574 157.717 574 158.217C574 158.717 573.8 159.917 573.3 161.317C572.8 162.017 574.7 162.317 578.3 162.317C578.8 162.317 579 162.317 579 162.117C579 162.117 578.8 161.117 578.3 159.517C578.1 159.017 578.3 158.317 579 157.317C580 155.617 580.4 154.917 580.7 155.117C581.7 155.817 582.1 157.317 582.1 158.917C582.1 160.517 581.6 162.317 580.9 164.217C580.2 166.417 579.5 167.617 579 168.017C577.3 169.017 574.7 168.717 571.1 167.017C568.2 169.917 565.3 171.617 562.5 171.617C561.8 171.617 560.6 171.417 559.4 170.917C558.2 170.417 557.2 170.217 556.5 170.217C551.7 170.217 546.7 172.417 541.6 177.217C538 180.817 534.4 184.417 530.8 188.017C528.5 189.517 526.4 190.717 524 191.517L524 191.517L524 191.517L524 191.517L524 191.517ZM472.6 61.917C475.5 61.917 477.9 63.317 480 66.717C482.2 69.817 483.8 74.117 484.6 79.417C484.8 79.917 484.8 80.1171 484.8 80.417L485 80.417C485 80.217 485.2 79.917 485.2 79.417C485.7 76.317 486.9 71.517 488.6 65.217C490.5 60.917 492.4 58.717 494.6 58.717C495.8 58.717 497 59.417 498 60.917C499 62.317 499.4 63.317 499.4 64.317C499.4 64.817 499.4 65.717 498.9 66.717C498.4 68.117 497.9 68.917 497.5 68.917C497.3 68.917 496.8 68.217 495.8 67.217C495.1 66.217 494.1 65.817 493.2 65.817C491.3 65.817 489.6 70.417 487.9 79.517C487.2 83.6171 486.2 86.517 485.5 88.1171C484.8 89.1171 484.3 89.8171 483.8 89.8171C483.3 89.8171 483.3 89.1171 483.1 88.1171C483.3 86.417 482.4 83.3171 480.5 78.7171C478.6 73.9171 477.4 71.7171 476.4 71.7171C475.9 71.7171 475.7 71.7171 475.4 72.2171C475.2 72.4171 474.9 72.7171 474.2 72.7171C473.2 72.7171 472.3 72.017 470.8 70.8171C469.4 69.6171 468.9 68.6171 468.9 67.9171C468.9 67.7171 469.4 66.5171 470.6 64.5171C471.7 62.6171 472.4 61.917 472.6 61.917L472.6 61.917L472.6 61.917L472.6 61.917L472.6 61.917ZM431.8 59.017C456 49.917 481.2 40.817 507.2 31.217C507.9 31.017 508.4 30.717 508.4 31.017C508.6 31.017 508.6 31.517 508.4 32.217C507.4 34.417 506.7 35.617 506.2 36.017C506 36.217 493.7 40.817 470 49.717C445.8 58.6171 432.1 64.1171 429.4 65.817C429.9 63.517 430.6 61.417 431.8 59.017L431.8 59.017L431.8 59.017L431.8 59.017L431.8 59.017ZM408.3 15.1171C408.8 13.7171 408.8 12.2171 408.5 10.817C408.3 9.41705 407.5 8.61705 406.3 8.61705C405.8 8.61705 405.1 8.81705 404.1 9.31705C403.1 9.81705 402.7 10.317 402.7 10.717C402.8 11.917 404.7 13.417 408.3 15.1171L408.3 15.1171L408.3 15.1171L408.3 15.1171L408.3 15.1171ZM405.4 21.317C400.8 18.9171 398.7 16.517 398.7 13.9171C398.7 10.817 400.1 7.91705 403 5.51706C405.9 2.91705 408.3 1.91705 410.2 2.61707C411.9 3.11707 412.6 4.81706 412.6 7.61707C412.6 10.2171 412.1 13.1171 410.9 16.5171C413.3 17.7171 414.7 18.9171 415.2 19.9171C415.2 21.1171 414.2 23.317 412.1 26.1171C411.6 25.1171 410.2 23.9171 408 22.7171C405.4 26.3171 402.2 29.4171 398.4 32.3171C393.8 35.4171 389.8 38.1171 386.2 39.5171C385.2 40.0171 380.9 41.7171 373.2 44.5171C372 45.0171 371 45.2171 370.8 45.2171C370.6 45.2171 370.6 45.0171 370.6 45.0171C370.6 44.8171 371.1 44.0171 372.5 43.3171C378.3 39.7171 384 36.3171 390 33.0171C397 28.717 402.1 24.917 405.4 21.317L405.4 21.317L405.4 21.317L405.4 21.317L405.4 21.317ZM557.1 51.1171C557.6 49.7171 557.6 48.2171 557.3 46.817C557.1 45.4171 556.3 44.6171 555.1 44.6171C554.6 44.6171 553.9 44.817 552.9 45.317C551.9 45.817 551.5 46.317 551.5 46.717C551.6 47.917 553.5 49.417 557.1 51.1171L557.1 51.1171L557.1 51.1171L557.1 51.1171L557.1 51.1171ZM562.4 59.917C560 65.717 558.8 70.217 558.8 73.6171C558.8 77.7171 559.8 79.8171 561.9 79.8171C563.1 79.8171 564.5 78.1171 566.2 75.2171C566.4 75.017 566.4 74.7171 566.7 74.517C566.7 74.517 566.9 74.517 566.9 74.7171C566.9 74.7171 566.9 74.9171 566.9 75.4171C565.5 82.6171 563.3 86.2171 560.4 86.2171C557.3 86.2171 555.8 83.6171 555.8 78.3171C555.8 75.7171 556.3 72.3171 557.7 68.0171C559.1 63.7171 559.9 61.5171 559.9 61.3171C559.9 60.8171 558.9 59.9171 556.8 58.7171C553 63.7171 547.7 68.517 541 72.6171C536.4 75.2171 531.9 77.6171 527.1 79.6171C518.2 83.2171 512.9 85.1171 511.7 85.8171C510.5 86.3171 509.8 86.5171 509.3 86.5171C509.1 86.5171 509.1 86.3171 509.1 86.3171C509.1 85.8171 509.6 85.3171 511 84.4171C518.7 80.1171 526.1 75.8171 533.8 71.4171C543.9 65.6171 550.8 60.8171 554.2 57.2171C549.6 54.8171 547.5 52.4171 547.5 49.8171C547.5 46.7171 548.9 43.8171 551.8 41.2171C554.7 38.8171 557.1 37.8171 559 38.6171C560.4 39.1171 561.4 40.817 561.4 43.6171C561.4 46.2171 560.9 49.1171 559.7 52.2171C562.1 53.6171 563.1 55.1171 563.1 56.517C563.1 57.317 562.9 58.517 562.4 59.917L562.4 59.917L562.4 59.917L562.4 59.917L562.4 59.917ZM453.2 25.1171C453.2 24.9171 453.4 24.6171 453.4 24.6171C453.6 24.4171 453.6 24.4171 453.6 24.6171C453.8 24.817 453.8 25.1171 453.6 25.317C452.4 32.517 450.2 36.1171 447.1 36.1171C444 36.1171 442.5 33.517 442.5 28.2171C442.5 21.7171 444.2 14.8171 448 7.81706C449 6.11707 449.4 5.21706 449.7 5.21706L449.7 5.21706C449.7 5.41705 449.5 6.41705 449 8.11705C446.6 15.517 445.4 20.6171 445.4 23.7171C445.4 27.5171 446.4 29.7171 448.5 29.7171C450.1 29.717 451.5 28.017 453.2 25.1171L453.2 25.1171L453.2 25.1171L453.2 25.1171L453.2 25.1171Z" id="Group" fill="#595959" stroke="none" clip-path="url(#clip_1)" />
  </g>
</svg>