<?xml version="1.0" encoding="utf-8"?>
<svg width="635.3002px" height="220.49997px" viewBox="0 0 635.3002 220.49997" version="1.1" xmlns:xlink="http://www.w3.org/1999/xlink" xmlns="http://www.w3.org/2000/svg">
  <defs>
    <path d="M635.3 0L635.3 0L635.3 220.5L0 220.5L0 0L635.3 0Z" id="path_1" />
    <clipPath id="clip_1">
      <use xlink:href="#path_1" clip-rule="evenodd" fill-rule="evenodd" />
    </clipPath>
  </defs>
  <g id="Surah_91_of_114_(modified)">
    <path d="M635.3 0L635.3 0L635.3 220.5L0 220.5L0 0L635.3 0Z" id="Surah_91_of_114_(modified)" fill="none" stroke="none" />
    <path d="M396 39.6C396 34.8 395.3 31 393.8 27.8C393.8 26.1 395 22 397.9 15.8C398.1 15.1 398.4 14.6 398.6 14.6C399.1 14.6 399.3 15.1 399.8 15.8C400.5 17.5 402.2 22 405.1 29.5C408.2 37.4 409.9 42.2 410.4 44.1C410.9 45.3 410.9 46.5 410.9 47C410.9 49.2 409 48 404.7 43.2C404.2 42.5 404 43 404 44.2C404 44.7 405.2 59.6 407.4 89.2999C409.6 118.8 410.5 135.4 410.5 139.2C410.5 150.5 408.8 160.6 405.5 169.2C404.5 170.9 404.1 172.1 403.6 173L403.6 173C402.9 174.2 402.6 174.2 402.4 173.5C402.2 172.5 402.4 170.6 402.6 168C403.1 163.9 403.3 159.4 403.3 154.3C403.3 149.5 402.1 130.3 399.7 96.4999C397.2 62.6 396 43.6 396 39.6L396 39.6L396 39.6L396 39.6L396 39.6ZM383.8 94.5C383.8 108.7 381.2 119.7 376.1 127.9C371.8 134.6 366.7 138.2 361 138.2L361 123.6C365.6 123.6 370.1 121.7 374.4 118.1C375.6 117.1 376.3 113.1 376.3 106.3C376.3 102 375.3 88.3 373.7 65.5C372 42.5 371.3 28.8 371.3 24.7C371.3 20.1 370.3 16.3 368.9 13.2C368.9 11.5 370.3 7.39999 373.2 1C373.4 0.300003 373.7 0 373.9 0C374.4 0 374.6 0.199997 375.1 1C375.8 2.89999 377.7 7.5 380.4 14.9C383.5 22.6 385.2 27.4 385.9 29.3C386.1 30.7 386.4 31.7 386.4 32.4C386.4 34.6 384.2 33.1 380.2 28.3C379.7 27.8 379.5 28.1 379.5 29.3C379.5 29.5 380.2 39.4 381.7 58.6C383.1 77.5 383.8 89.5 383.8 94.5L383.8 94.5L383.8 94.5L383.8 94.5L383.8 94.5ZM287.8 128.1C293.8 128.1 299.6 125.9 305.1 121.4C305.6 121.2 307.7 118.8 311.8 114.4C315.4 110.6 317.6 108.6 317.8 108.6C318.8 108.6 318.8 109.3 318.3 111.2C317.3 113.4 317.1 114.8 317.1 115.5C317.1 117.2 317.8 119.1 319.3 121.3C321 124.2 323.6 125.6 326.5 125.6C334.7 125.6 341.4 119.8 347.1 108.3C347.8 107.1 348.3 106.4 349.3 106.4C349.8 106.4 350.3 107.1 350.3 108.1C350.3 108.6 350.1 109.3 350.1 110C349.9 111 349.9 111.7 349.9 111.9C349.9 115.3 351.1 118.1 353 120.3C355.2 122.2 357.8 123.4 360.9 123.4L360.9 138C353.7 138 348.4 133.2 345.1 123.8C344.9 122.6 344.4 122.6 343.9 123.8C339.6 134.6 333.6 140.1 325.9 140.1C318.2 140.1 313.7 135.1 312 125.2C312 124.5 311.8 124 311.8 124C311.6 124 311.3 124.5 310.8 125.2C308.9 128.3 306.2 131.4 302.6 134.8C296.6 139.8 290.8 142.5 285.1 142.5C278.9 142.5 274.5 140.6 271.9 136.7C270.5 134.3 269.5 130.7 269.3 126.1C269.3 125.6 269.1 125.4 268.6 125.1C267.9 125.3 267.2 125.6 266.4 126.5C261.4 132.3 258.2 135.6 256.8 136.8C250.6 142.3 244.1 145 237.4 145L237.4 130.4C244.6 130.4 250.8 128.5 256.1 124.6C258.3 123.2 263.1 118.6 270.7 110.9C271.7 109.9 272.4 109.7 273.3 109.5C274.5 109.7 275 110.5 274.5 112.1C273.8 114 273.5 115.7 273.5 117.1C273.5 120.5 274.9 123.1 277.6 125C280.1 127.2 283.7 128.1 287.8 128.1L287.8 128.1L287.8 128.1L287.8 128.1L287.8 128.1ZM237.4 145.2C238.1 147.4 238.6 150.2 238.6 153.4C238.6 157.2 237.9 160.6 236.7 163.5C236 164.9 235.5 165.9 234.8 165.9C233.8 165.9 232.6 165.2 230.7 164.2C224.9 160.8 220.9 156.8 218.7 152C217.5 149.4 216.5 144.8 216.1 139C215.9 138 215.9 137.3 215.6 137.3C215.1 137.3 214.6 138 214.2 139C211.8 141.6 209.4 144.5 207 147.6C202.7 151.4 197.9 153.6 192.4 153.6L192.4 138.7C199.4 138.7 204.9 137 209.4 133.7C210.4 133 212.8 130.3 216.4 126.3C217.8 124.4 219 123.7 220 123.7C220.5 123.7 221.2 123.9 222.2 124.7C225.1 127.1 227 128.5 228 129C230.4 130.2 233.5 130.7 237.6 130.7L237.6 145.2L237.4 145.2L237.4 145.2L237.4 145.2ZM39.9 220.5C25.3 220.5 14.5 215.7 7.7 205.6C2.39999 198.2 0 188.6 0 176.8C0 173.2 0.199997 169.6 0.699997 166.2C1.7 160.7 2.89999 155.9 4.3 151.8C4.8 150.6 5.49999 149.9 5.99999 149.9C6.49999 149.9 6.49999 150.6 6.19999 152.3C3.79999 164.5 2.79999 171.5 2.79999 172.9C2.79999 180.3 5.19999 187.3 10.2 193.5C16.9 201.7 26.8 205.7 39.5 205.7C51 205.7 63 203.3 75.5 198C85.8 193.7 95.2 188.4 103.6 182.2C111 176.4 114.6 172.4 114.6 170C114.6 163 112.4 155.1 107.9 146.7C106.9 145 106.5 143.6 106.5 142.4C106.5 141.7 107.5 138.3 109.4 132.1C109.9 131.1 110.1 130.4 110.6 130.4C111.1 130.4 111.8 131.4 112.5 132.8C116.1 140.5 121.1 144.3 126.9 144.3C130.7 144.3 133.4 144.1 135.3 143.6C138.2 142.6 141.1 140.7 143.9 137.6C145.3 135.4 148 132.1 151.6 127.8C152.3 126.8 153 126.4 154 126.4C155 126.4 155.4 126.9 155.4 128.1C155.4 128.6 155.2 129.5 154.7 130.7C154.5 132.1 154.2 133.1 154.2 133.8C154.2 135.2 154.9 136.7 156.6 138.4C158.5 140.6 160.9 141.8 164 141.5C168.6 141.7 173.4 136 178.2 124.7C178.7 123.7 179.4 123.3 179.9 123.3C181.1 123.3 181.6 124 181.1 125.7C181.1 126.7 180.9 127.9 180.9 128.8C180.9 135.5 184.7 138.9 192.4 138.9L192.4 153.6C185 153.6 179.9 149.5 177.3 141.6C177.1 140.9 176.8 140.9 176.3 141.6C172.9 151.4 167.9 156.5 161.2 156.2C158.8 156.4 156.4 155.5 154 153.8C151.1 151.9 149.2 149.2 148 146.1C147.8 145.1 147.3 145.1 146.8 146.1C145.4 148.3 143 150.9 139.6 153.3C134.8 157.1 130.2 158.8 125.7 158.8C123.5 158.8 121.6 158.6 119.9 158.1C119.9 170.8 117.5 179.9 112.5 185.7C106 193.1 96.7 200.3 84.2 207.3C68.4 216.2 53.6 220.5 39.9 220.5L39.9 220.5L39.9 220.5L39.9 220.5L39.9 220.5ZM314.2 86.6L318 78.9C318.2 78.2 318.5 77.9 319 77.9C319.5 77.9 321.4 79.1 325.2 81.7C328.8 84.3 330.7 85.8 330.7 86.3C330.7 88 329 91.3 325.9 96.5999C325.4 97.3 324.9 97.3 324.5 97.0999C321.4 94.7 317.8 92.3 313.7 89.7C312.3 92.5999 311.1 95.2 309.6 97.4C309.4 98.1 308.9 98.4 308.4 98.1C304.8 95.2 301 92.6 297.1 90.2C296.9 90 296.9 89.7 297.1 89.2L301.7 79.6C301.9 79.1 302.4 78.6 302.7 78.6C303.2 78.6 304.9 79.8 308 82C311.1 84 313.2 85.6 314.2 86.6L314.2 86.6L314.2 86.6L314.2 86.6L314.2 86.6ZM301 71.7C300.8 71.5 300.8 71.2 301 70.7L305.8 61.1C306 60.6 306.3 60.4 306.8 60.4C307.3 60.4 309.2 61.6 313 64C316.6 66.6 318.5 68.1 318.5 68.6C318.5 70.3 316.8 73.6 313.7 78.9C313.2 79.6 312.7 79.9 312.3 79.4C308.7 76.8 304.8 74.1 301 71.7L301 71.7L301 71.7L301 71.7L301 71.7ZM320.4 40C320.4 41.9 319.9 44.1 319 46C317.8 48.6 316.4 50.1 314.7 50.1C311.8 50.1 309.9 48.2 308.7 44.3C307.3 49.1 304.9 51.7 301.3 51.7C300.1 51.7 298.9 51 297.9 49.5C296.7 48.1 296.2 45.9 296.2 43.5L296.2 37.3C296.2 36.8 295.7 36.6 295.2 36.3C294.5 36.1 294.2 35.6 294.2 34.9C294.2 33.5 294.7 32.3 295.6 31.1C296.6 29.9 297.3 29.4 297.8 29.4C298.5 29.4 299 30.6 299 33.2C299 34.6 298.8 35.8 298.8 36.8C298.6 37.8 298.6 38.5 298.6 39.2C298.6 40.6 298.8 42.1 299.3 43.3C300 44.7 301 45.7 301.9 45.7C303.3 45.7 304.5 45 305.7 43.8C306.9 42.6 307.6 41.2 307.6 39.5C307.6 38.5 307.1 37.1 306.6 34.7C305.9 32.5 305.6 31.1 305.6 30.6C305.6 30.1 305.8 29.4 306.3 28.2C306.8 27.2 307.3 26.8 307.5 26.8C308 26.8 308.5 28.2 309.2 31.1C309.9 34.2 310.4 36.4 310.4 37.8C310.4 41.9 311.8 44 315 44C316.4 44 317.4 43.3 317.6 41.8C315 37 313.5 33.4 313.5 30.8C313.5 29.4 313.7 28.2 314.7 27C315.2 26.3 315.4 25.8 315.7 25.8C315.9 25.8 316.2 26.3 316.2 27.2C316.4 28.4 316.7 29.6 316.9 30.6C316.9 30.6 317.6 32.3 318.8 35.6C320 37.6 320.4 39.1 320.4 40L320.4 40L320.4 40L320.4 40L320.4 40ZM141.6 74.6C148.8 71.2 173.8 61.4 216.7 45.1C250.1 32.9 283.7 20.1 318 7.39998C319 7.19998 319.2 6.89998 319.4 7.19998C319.4 7.19998 319.4 7.69998 319.2 8.39998C318.2 10.3 317.5 11.5 316.8 12.2C299.5 18.9 266.6 31.4 217.9 49.9C170.9 67.9 144.5 78.5 139.2 81.6C139.7 79.4 140.4 77 141.6 74.6L141.6 74.6L141.6 74.6L141.6 74.6L141.6 74.6ZM353.1 39.6C353.1 39.4 353.3 39.1 353.3 39.1C353.5 38.9 353.5 38.9 353.5 39.1C353.7 39.3 353.7 39.6 353.5 39.8C352.3 47 350.1 50.6 347 50.6C343.9 50.6 342.4 48 342.4 42.7C342.4 36.2 344.1 29.3 347.9 22.3C348.9 20.6 349.3 19.7 349.6 19.7L349.6 19.7C349.6 19.9 349.4 20.9 348.9 22.6C346.5 30 345.3 35.1 345.3 38.2C345.3 42 346.3 44.2 348.4 44.2C350 44.1 351.4 42.4 353.1 39.6L353.1 39.6L353.1 39.6L353.1 39.6L353.1 39.6ZM11.8 81.6C14.7 81.6 17.1 83 19.2 86.4C21.4 89.5 23 93.8 23.8 99.1C24 99.6 24 99.8 24 100.1L24.2 100.1C24.2 99.9 24.4 99.6 24.4 99.1C24.9 96 26.1 91.2 27.8 84.9C29.7 80.6 31.6 78.4 33.8 78.4C35 78.4 36.2 79.1 37.2 80.6C38.2 82 38.6 83 38.6 84C38.6 84.5 38.6 85.4 38.1 86.4C37.6 87.8 37.1 88.6 36.7 88.6C36.5 88.6 36 87.9 35 86.9C34.3 85.9 33.3 85.5 32.4 85.5C30.5 85.5 28.8 90.1 27.1 99.2C26.4 103.3 25.4 106.2 24.7 107.8C24 108.8 23.5 109.5 23 109.5C22.5 109.5 22.5 108.8 22.3 107.8C22.5 106.1 21.6 103 19.7 98.4C17.8 93.6 16.6 91.4 15.6 91.4C15.1 91.4 14.9 91.4 14.6 91.9C14.4 92.1 14.1 92.4 13.4 92.4C12.4 92.4 11.5 91.7 10 90.5C8.6 89.3 8.1 88.3 8.1 87.6C8.1 87.4 8.6 86.2 9.8 84.2C10.8 82.3 11.6 81.6 11.8 81.6L11.8 81.6L11.8 81.6L11.8 81.6L11.8 81.6ZM377.3 160.5C377.3 161 377.1 161.9 376.6 162.9C376.4 164.3 375.9 165.1 375.2 165.1C375 165.1 374.5 164.4 373.5 163.4C372.8 162.4 371.8 162 371.1 162C369.2 162 367.3 166.6 365.6 175.7C364.9 179.8 364.2 182.7 363.2 184.3C362.5 185.3 362 186 361.5 186C361.3 186 361 185.3 361 184.3C361 182.6 360 179.5 358.1 174.9C356.2 170.1 355 167.9 354.3 167.9C353.6 167.9 353.3 167.9 353.1 168.4C353.1 168.6 352.6 168.9 351.9 168.9C350.9 168.9 350 168.2 348.5 167C347.3 165.8 346.6 164.8 346.6 164.1C346.6 163.9 347.1 162.7 348.3 160.7C349.5 158.8 350.2 158.1 350.5 158.1C353.1 158.1 355.5 159.5 357.7 162.9C360.1 166.3 361.5 170.3 362.5 175.6C362.5 176.1 362.5 176.3 362.5 176.6C362.7 176.8 362.7 176.8 362.7 176.6C362.7 176.4 362.9 176.1 363.2 175.6C363.4 172.5 364.6 167.7 366.3 161.4C368.2 157.1 370.1 154.9 372.3 154.9C373.5 154.9 374.7 155.6 375.9 157.1C376.8 158.6 377.3 159.6 377.3 160.5L377.3 160.5L377.3 160.5L377.3 160.5L377.3 160.5ZM361.5 188.1C359.8 191.9 356.5 195.8 351.4 199.4C346.8 202.8 342.8 205.2 339.2 206.8C338.5 207.3 334.2 209 326.2 211.8C325 212.3 324.3 212.5 323.8 212.5C323.6 212.5 323.6 212.3 323.6 212.3C323.6 212.1 324.3 211.3 325.5 210.6C332 206.8 341.1 201.2 353.1 193.3C356 191.1 358.1 189 359.8 187.1C361.7 184.9 362.7 183.7 362.9 183.7C362.9 183.7 362.9 183.7 362.9 183.9C362.9 184.3 362.4 185.7 361.5 188.1L361.5 188.1L361.5 188.1L361.5 188.1L361.5 188.1ZM310.6 183.1C310.6 182.9 310.8 182.6 310.8 182.6C311 182.4 311 182.4 311 182.6C311.2 182.8 311.2 183.1 311 183.3C309.8 190.5 307.6 194.1 304.5 194.1C301.4 194.1 299.9 191.5 299.9 186.2C299.9 179.7 301.6 172.8 305.4 165.8C306.4 164.1 306.8 163.2 307.1 163.2L307.1 163.2C307.1 163.4 306.9 164.4 306.4 166.1C304 173.5 302.8 178.6 302.8 181.7C302.8 185.5 303.8 187.7 305.9 187.7C307.5 187.6 308.9 186 310.6 183.1L310.6 183.1L310.6 183.1L310.6 183.1L310.6 183.1ZM282.3 187.4C282.3 187.9 282.1 188.8 281.8 189.8C281.3 191.2 280.8 192 280.1 192C279.9 192 279.4 191.3 278.4 190.3C277.7 189.3 276.7 188.9 276 188.9C274.1 188.9 272.2 193.5 270.5 202.6C269.8 206.7 269.1 209.3 268.1 211C267.4 212.2 266.9 212.7 266.4 212.7C266.2 212.7 265.9 212.2 265.9 211.3C265.9 209.6 264.9 206.5 263 201.9C261.3 197.1 259.9 194.9 259.2 194.9C258.7 194.9 258.2 194.9 258.2 195.4C258 195.6 257.5 195.9 256.8 195.9C255.8 195.9 254.6 195.2 253.2 194C251.8 192.6 251.3 191.6 251.5 191.1C253.7 187 254.9 185.1 255.3 185.1C257.9 185.1 260.6 186.5 262.7 189.9C264.9 193 266.3 197.3 267.3 202.4C267.3 203.1 267.3 203.4 267.3 203.4C267.5 203.6 267.5 203.6 267.5 203.4C267.5 203.4 267.7 203.2 268 202.4C268.5 199.5 269.4 194.7 271.1 188.5C273 184.2 274.9 182 277.3 182C278.3 182 279.5 182.7 280.7 184.2C281.8 185.5 282.3 186.4 282.3 187.4L282.3 187.4L282.3 187.4L282.3 187.4L282.3 187.4ZM251.6 191C252.1 190 252.6 189.6 252.8 189.6C252.8 189.6 253 189.8 252.8 189.8C253 190.5 252.3 192.2 250.9 194.8C248.5 199.4 245.1 203 240.8 206.1C236.2 209.5 232.2 211.9 228.6 213.5C227.9 214 223.6 215.7 215.6 218.5C214.4 219 213.7 219.2 213.2 219.2C213 219.2 213 219 213 219C213 218.8 213.7 218 214.9 217.3C221.6 213.7 230.7 207.9 242.5 200C247.2 196.5 250.1 193.4 251.6 191L251.6 191L251.6 191L251.6 191L251.6 191ZM207.6 192.2C207.6 194.8 206.4 197.7 204.5 200.8C202.3 203.9 199.7 206.8 196.3 209.2C194.9 210.2 194.1 210.6 193.9 210.6L193.9 210.4C193.9 210.2 194.4 209.7 195.3 208.5C200.8 202.5 203.7 198.7 203.7 196.5C203.7 194.8 202.7 193.9 201.1 193.9C200.1 193.9 199.2 194.1 198.5 194.6C197.8 194.8 197.5 195.1 197.3 195.1C197.3 195.1 197.1 195.1 197.1 194.9C197.1 194.9 197.1 194.4 197.3 193.5C198.3 189.4 200.2 187.5 203.5 187.5C206.2 187.4 207.6 189.1 207.6 192.2L207.6 192.2L207.6 192.2L207.6 192.2L207.6 192.2ZM277.7 53.2C277.7 53.7 277.5 54.6 277 55.6C276.8 57 276.3 57.8 275.6 57.8C275.4 57.8 274.9 57.1 273.9 56.1C273.2 55.1 272.2 54.7 271.5 54.7C269.6 54.7 267.7 59.3 266 68.4C265.3 72.5 264.6 75.4 263.6 77C262.9 78 262.4 78.7 261.9 78.7C261.7 78.7 261.4 78 261.4 77C261.4 75.3 260.4 72.2 258.5 67.6C256.6 62.8 255.4 60.6 254.7 60.6C254 60.6 253.7 60.6 253.5 61.1C253.5 61.3 253 61.6 252.3 61.6C251.3 61.6 250.4 60.9 248.9 59.7C247.7 58.5 247 57.5 247 56.8C247 56.6 247.5 55.4 248.7 53.4C249.9 51.5 250.6 50.8 250.9 50.8C253.5 50.8 255.9 52.2 258.1 55.6C260.5 59 261.9 63 262.9 68.3C262.9 68.8 262.9 69 262.9 69.3C263.1 69.5 263.1 69.5 263.1 69.3C263.1 69.1 263.3 68.8 263.6 68.3C263.8 65.2 265 60.4 266.7 54.1C268.6 49.8 270.5 47.6 272.7 47.6C273.9 47.6 275.1 48.3 276.3 49.8C277.2 51.3 277.7 52.3 277.7 53.2L277.7 53.2L277.7 53.2L277.7 53.2L277.7 53.2ZM261.9 80.8C260.2 84.6 256.9 88.5 251.8 92.1C247.2 95.5 243.2 97.9 239.6 99.5C238.9 100 234.6 101.7 226.6 104.5C225.4 105 224.7 105.2 224.2 105.2C224 105.2 224 105 224 105C224 104.8 224.7 104 225.9 103.3C232.4 99.5 241.5 93.9 253.5 86C256.4 83.8 258.5 81.7 260.2 79.8C262.1 77.5999 263.1 76.4 263.3 76.4C263.3 76.4 263.3 76.4 263.3 76.6C263.3 77 262.8 78.4 261.9 80.8L261.9 80.8L261.9 80.8L261.9 80.8L261.9 80.8ZM119.3 56.1C118.8 53.2 117.6 49.9 115.9 45.8C114.2 41.7 112.8 39.6 112.1 39.6C111.6 39.6 111.4 39.6 111.1 40.1C110.9 40.3 110.6 40.6 109.9 40.6C108.9 40.6 108 39.9 106.5 38.7C105.1 37.5 104.6 36.5 104.6 35.8C104.6 35.6 105.1 34.4 106.3 32.4C107.3 30.5 108 29.8 108.2 29.8C111.1 29.8 113.5 31.2 115.6 34.6C117.8 37.7 119.4 42 120.2 47.3C120.4 47.8 120.4 48 120.4 48.3L120.6 48.3C120.6 48.1 120.8 47.8 120.8 47.3C121.3 44.2 122.5 39.4 124.2 33.1C126.1 28.8 128 26.6 130.2 26.6C131.4 26.6 132.6 27.3 133.6 28.8C134.6 30.2 135 31.2 135 32.2C135 32.7 135 33.6 134.5 34.6C134 36 133.5 36.8 133.1 36.8C132.9 36.8 132.4 36.1 131.4 35.1C130.7 34.1 129.7 33.7 128.8 33.7C126.9 33.7 125.2 38.3 123.5 47.4C122.8 51 122.1 53.9 120.9 56C122.6 56 124.5 57.2 127.1 59.1C129.5 61.3 130.9 62.9 131.2 64.4C131.2 64.9 131 65.8 130.2 67.5C129.5 69.2 129 69.9 128.5 70.1C126.1 70.8 123.7 71.3 121.3 72C118.4 73 116.3 74.2 115.1 75.4C118.5 85.5 120.1 95.3 120.1 105.2C120.1 108.1 119.6 111 119.1 114.1C118.9 115.1 118.6 115.5 118.4 115.8C118.2 115.8 118.2 113.9 118.2 110.5C118.2 105 117.2 98 115.6 90.1C114.2 82.2 113.2 77.6 113.2 76.4C113.2 72.3 114.4 69.4 116.6 67.5C117.8 66.8 119.7 65.8 122.8 64.9C121.6 63.7 120.4 63.2 119.2 63.2C118.7 63.2 118 63.9 117 65.1C115.8 66.3 115.3 67 115.1 67C114.9 67 114.9 66.5 115.1 65.3C115.7 60.2 117.2 57.1 119.3 56.1L119.3 56.1L119.3 56.1L119.3 56.1L119.3 56.1ZM176.2 17.5C179.1 17.5 181.5 18.9 183.6 22.3C185.8 25.4 187.4 29.7 188.2 35C188.4 35.5 188.4 35.7 188.4 36L188.6 36C188.6 35.8 188.8 35.5 188.8 35C189.3 31.9 190.5 27.1 192.2 20.8C194.1 16.5 196 14.3 198.2 14.3C199.4 14.3 200.6 15 201.6 16.5C202.6 17.9 203 18.9 203 19.9C203 20.4 203 21.3 202.5 22.3C202 23.7 201.5 24.5 201.1 24.5C200.9 24.5 200.4 23.8 199.4 22.8C198.7 21.8 197.7 21.4 196.8 21.4C194.9 21.4 193.2 26 191.5 35.1C190.8 39.2 189.8 42.1 189.1 43.7C188.4 44.7 187.9 45.4 187.4 45.4C186.9 45.4 186.9 44.7 186.7 43.7C186.9 42 186 38.9 184.1 34.3C182.2 29.5 181 27.3 180 27.3C179.5 27.3 179.3 27.3 179 27.8C178.8 28 178.5 28.3 177.8 28.3C176.8 28.3 175.9 27.6 174.4 26.4C173 25.2 172.5 24.2 172.5 23.5C172.5 23.3 173 22.1 174.2 20.1C175.2 18.2 176 17.5 176.2 17.5L176.2 17.5L176.2 17.5L176.2 17.5L176.2 17.5ZM170.9 94.3C170.9 96.9 169.7 99.8 167.8 102.9C165.6 106 163 108.9 159.6 111.3C158.2 112.3 157.4 112.7 157.2 112.7L157.2 112.5C157.2 112.3 157.7 111.8 158.6 110.6C164.1 104.6 167 100.8 167 98.6C167 96.9 166 96 164.4 96C163.4 96 162.5 96.2 161.8 96.7C161.1 96.9 160.8 97.2 160.6 97.2C160.6 97.2 160.4 97.2 160.4 97C160.4 97 160.4 96.5 160.6 95.6C161.6 91.5 163.5 89.6 166.8 89.6C169.5 89.5 170.9 91.2 170.9 94.3L170.9 94.3L170.9 94.3L170.9 94.3L170.9 94.3ZM11.8 142.3C11.8 142.1 12 141.8 12 141.8C12.2 141.6 12.2 141.6 12.2 141.8C12.4 142 12.4 142.3 12.2 142.5C11 149.7 8.79999 153.3 5.69999 153.3C2.59999 153.3 1.09999 150.7 1.09999 145.4C1.09999 138.9 2.79999 132 6.59999 125C7.59999 123.3 7.99999 122.4 8.29999 122.4L8.29999 122.4C8.29999 122.6 8.09999 123.6 7.59999 125.3C5.19999 132.7 3.99999 137.8 3.99999 140.9C3.99999 144.7 4.99999 146.9 7.09999 146.9C8.7 146.8 10.1 145.2 11.8 142.3L11.8 142.3L11.8 142.3L11.8 142.3L11.8 142.3ZM83.3 129.1C83.3 129.6 83.1 130.5 82.6 131.5C82.4 132.9 81.9 133.7 81.2 133.7C81 133.7 80.5 133 79.5 132C78.8 131 77.8 130.6 77.1 130.6C75.2 130.6 73.3 135.2 71.6 144.3C70.9 148.4 70.2 151.3 69.2 152.9C68.5 153.9 68 154.6 67.5 154.6C67.3 154.6 67 153.9 67 152.9C67 151.2 66 148.1 64.1 143.5C62.2 138.7 61 136.5 60.3 136.5C59.6 136.5 59.3 136.5 59.1 137C59.1 137.2 58.6 137.5 57.9 137.5C56.9 137.5 56 136.8 54.5 135.6C53.3 134.4 52.6 133.4 52.6 132.7C52.6 132.5 53.1 131.3 54.3 129.3C55.5 127.4 56.2 126.7 56.5 126.7C59.1 126.7 61.5 128.1 63.7 131.5C66.1 134.9 67.5 138.9 68.5 144.2C68.5 144.7 68.5 144.9 68.5 145.2C68.7 145.4 68.7 145.4 68.7 145.2C68.7 145 68.9 144.7 69.2 144.2C69.4 141.1 70.6 136.3 72.3 130C74.2 125.7 76.1 123.5 78.3 123.5C79.5 123.5 80.7 124.2 81.9 125.7C82.8 127.2 83.3 128.1 83.3 129.1L83.3 129.1L83.3 129.1L83.3 129.1L83.3 129.1ZM67.5 156.7C65.8 160.5 62.5 164.4 57.4 168C52.8 171.4 48.8 173.8 45.2 175.4C44.5 175.9 40.2 177.6 32.2 180.4C31 180.9 30.3 181.1 29.8 181.1C29.6 181.1 29.6 180.9 29.6 180.9C29.6 180.7 30.3 179.9 31.5 179.2C38 175.4 47.1 169.8 59.1 161.9C62 159.7 64.1 157.6 65.8 155.7C67.7 153.5 68.7 152.3 68.9 152.3C68.9 152.3 68.9 152.3 68.9 152.5C68.9 152.8 68.4 154.3 67.5 156.7L67.5 156.7L67.5 156.7L67.5 156.7L67.5 156.7ZM80.9 56.6C80.9 56.4 81.1 56.1 81.1 56.1C81.3 55.9 81.3 55.9 81.3 56.1C81.5 56.3 81.5 56.6 81.3 56.8C80.1 64 77.9 67.6 74.8 67.6C71.7 67.6 70.2 65 70.2 59.7C70.2 53.2 71.9 46.3 75.7 39.3C76.7 37.6 77.1 36.7 77.4 36.7L77.4 36.7C77.4 36.9 77.2 37.9 76.7 39.6C74.3 47 73.1 52.1 73.1 55.2C73.1 59 74.1 61.2 76.2 61.2C77.8 61.2 79.2 59.5 80.9 56.6L80.9 56.6L80.9 56.6L80.9 56.6L80.9 56.6ZM79.2 90.7C79.2 93.3 78 96.2 76.1 99.3C73.9 102.4 71.3 105.3 67.9 107.7C66.5 108.7 65.7 109.1 65.5 109.1L65.5 108.9C65.5 108.7 66 108.2 66.9 107C72.4 101 75.3 97.2 75.3 95C75.3 93.3 74.3 92.4 72.7 92.4C71.7 92.4 70.8 92.6 70.1 93.1C69.4 93.3 69.1 93.6 68.9 93.6C68.9 93.6 68.7 93.6 68.7 93.4C68.7 93.4 68.7 92.9 68.9 92C69.9 87.9 71.8 86 75.1 86C77.8 85.9 79.2 87.6 79.2 90.7L79.2 90.7L79.2 90.7L79.2 90.7L79.2 90.7ZM113.8 207.3C132.3 200.6 151.5 193.4 171.6 185.9C172.3 185.7 172.8 185.4 173 185.7C173 185.7 173 186.2 172.8 186.9C171.8 189.1 171.1 190.3 170.6 190.7C153.8 196.9 133.9 204.6 111.3 214C111.9 211.9 112.6 209.7 113.8 207.3L113.8 207.3L113.8 207.3L113.8 207.3L113.8 207.3ZM209.8 89.5C209.8 88.3 207.4 86.1 202.4 83.3C200.7 86.2 200 88.8 200 91.2C200 92.5999 200.7 93.5999 202.2 93.5999C203.4 93.5999 204.8 93.0999 206.5 92.2C208.1 91.4 209.3 90.4 209.8 89.5L209.8 89.5L209.8 89.5L209.8 89.5L209.8 89.5ZM204.5 70.3C205.2 69.1 206.2 68.6 206.9 68.6C207.4 68.6 207.9 68.8 207.9 69.3C207.9 69.3 207.7 69.5 207.7 69.8C206.7 72 205.8 74.4 205.1 76.8C210.1 80.4 212.5 84.2 212.3 87.8C211.8 91.9 211.3 94.5 210.6 95.5C208.2 98.4 205.6 100.1 202.2 100.1C198.8 100.1 197.4 97.9 197.4 94.1C197.4 93.4 197.4 92.4 197.6 91.5C198.8 83.7 201.2 76.8 204.5 70.3L204.5 70.3L204.5 70.3L204.5 70.3L204.5 70.3ZM576.5 125.7C577.7 124.7 578.7 124.3 579.4 124.3C579.9 124.3 580.1 124.8 580.1 125.7C580.1 126.4 579.9 127.9 579.4 129.8C578.9 131.7 578.7 133.2 578.7 134.4C578.7 139.7 582.5 142.6 590 142.6C596 142.6 601 140 604.9 134.9C607.3 130.8 609.9 127 612.3 123.1C613.3 122.1 614 121.7 614.7 121.7C615.7 121.7 615.9 122.7 615.4 124.8C614.4 128.9 613.7 130.8 613.7 130.3C613.7 132 614.7 133.7 616.6 135.1C618.3 136.5 620.7 137.5 623.3 137.5C626.7 137.5 628.8 136.5 629.8 134.9C629.8 134.7 628.8 132.7 626.7 129.1C626.9 127.2 627.9 123.8 629.3 119.3C629.5 117.9 630 117.1 630.5 117.1C631 117.1 631.5 117.3 632.2 118.3C634.1 121.2 635.3 124.5 635.3 128.4C635.3 134.4 633.9 139.4 631.2 143.8C628.3 149.1 624 151.7 618.2 151.7C614.4 151.7 610.8 148.6 607.6 142.8C602.3 152.4 595.4 157.2 587 157.2C576.9 157.2 572.1 151.4 572.1 140.4C568.3 145 561.8 149 553.4 152.9L553.4 139.6C559.6 136.5 563.7 134.6 564.9 133.8C568.8 132 572.7 129.1 576.5 125.7L576.5 125.7L576.5 125.7L576.5 125.7L576.5 125.7ZM539.8 141.6C536.2 137 533.1 134.9 530.2 134.9C525.9 134.9 524 135.9 524 138.3C524 141.2 526.9 142.6 532.6 142.6C534.8 142.5 537.2 142 539.8 141.6L539.8 141.6L539.8 141.6L539.8 141.6L539.8 141.6ZM547.2 159.1C547.2 157.7 546.7 156 546.2 154.3C543.3 155.3 539 156 533.7 156C522.2 156 516.4 151.9 516.4 144C516.4 138 518.1 132.7 521.9 127.9C525.5 123.8 529.3 121.7 533.4 121.7C536.5 121.7 539.6 123.6 543.2 127.2C546.3 130.8 549.2 134.9 551.6 139.9C551.8 139.9 552.3 139.9 553.3 139.4L553.3 152.6L552.8 153.1C552.8 156 552.1 159.3 550.6 163.7C548.9 169.2 546.3 173.8 543.2 177.4C536 186 528.1 193.5 519.4 200C506.4 209.6 495.4 214.6 485.8 214.6C477.6 214.6 471.4 211.5 467.1 205.5C463.3 200.5 461.3 193.7 461.3 185.8C461.3 175.7 463.5 165.4 467.5 154.6C468.7 152.2 469.2 151.2 469.7 151.2C469.9 151.2 469.9 151.4 469.9 151.9C469.9 152.6 469.7 153.8 469.4 155.3C466.3 165.9 464.8 173.8 464.8 179.3C464.8 184.3 466 188.7 468.4 192.3C472.2 197.3 478.2 200 486.6 200C493.8 200 502.4 196.9 512.8 190.6C521 185.6 528.9 179.6 536.6 172.4C543.6 165.6 547.2 161.2 547.2 159.1L547.2 159.1L547.2 159.1L547.2 159.1L547.2 159.1ZM481.7 122.8C481.2 120.6 480.5 119 479.5 117.8C478.8 116.4 478.3 115.6 478.1 115.2C478.1 114.7 478.1 113 478.6 109.7C479.1 106.6 479.3 104.4 479.8 103.2C480 102 480.3 101.5 480.8 101.5C481 101.5 481.3 101.7 481.8 102.2C485.2 106 488.8 109.9 492.8 114C494.5 115.7 495.2 116.6 495.2 117.1C495.2 117.3 495 117.6 494.5 117.6C493.8 117.6 491.9 117.1 489 116.4C490.7 120.5 492.6 124.6 494.3 128.4C496.9 135.1 498.4 140.6 498.4 145.7C498.4 148.1 497.9 151 497 154.6C495.8 158.7 494.4 161.8 492.4 164C485.4 171.9 473.7 180.6 457.1 189.9C442.7 198.3 434.3 202.4 431.7 202.4C431.2 202.4 424 204.1 410.3 207.4C395.9 210.8 386.8 212.9 383.2 213.4C379.4 214.1 377 214.4 376 214.4C375.5 214.4 375.5 214.4 375.5 214.2C375.5 214 378.1 212.5 383.4 210.1C385.3 209.1 396.4 204.3 416.8 195.7C431 189.7 442.7 184.2 452.1 179.1C466.3 171.4 477.1 164.7 484.5 159.2C490 154.9 492.9 151.8 492.9 149.8C492.9 149.3 491.5 146 488.6 139.7C485.3 132.7 482.9 126.9 481.7 122.8L481.7 122.8L481.7 122.8L481.7 122.8L481.7 122.8ZM462 89.5C462 93.3 460.1 98.6 456.2 105.1C453.8 109.2 450.2 114.7 445.4 121.9C450.2 127.4 453.6 132.5 455.2 136.8C456.2 139.9 456.9 144 456.9 148.6C456.9 150.5 456.4 152.9 455.5 156C454.8 158.9 453.8 161 452.9 162.5C451 165.4 447.9 168.3 443.1 171.1C438.1 174.5 433.7 176.1 430.1 176.1C424.3 176.1 421.5 171.8 421.5 163.1C421.5 157.3 422.5 151.6 424.4 146.3C426.3 141.7 429.4 135.7 434.5 127.8C430.2 123.7 425.6 118 420.6 110.8C420.1 110.1 418.9 108.9 417 107C416 106 415.6 104.8 415.6 103.4C415.6 101.2 415.8 98.8 416.3 96C417 93.1 417.5 91.9 417.7 91.9C418.4 91.9 420.6 93.1 424.7 95.7C428.5 98.3 431.7 100.3 433.6 101.9C434.8 102.6 435.3 103.3 435.3 103.3L435.3 103.5C435.3 103.7 434.6 104 432.9 104C429.8 104 428.1 104.2 428.1 104.5C428.1 104.7 428.6 105.2 429.5 106.4C433.3 111.2 437.2 114.8 441.3 117.7C442.3 116.3 445.6 111.5 450.9 103.3C455.5 96.3 458.1 91.5 459.3 88.7C460.5 85.8 461.2 84.5999 461.7 84.5999C461.8 84.7 462 86.1 462 89.5L462 89.5L462 89.5L462 89.5L462 89.5ZM452.7 148.5C450.1 143.2 445.5 137.7 439.3 132.4C437.1 134.6 434.5 138.6 431.1 144.4C427.3 150.9 425.6 155 425.6 157.1C425.6 160 427.5 161.4 431.8 161.4C433.7 161.4 436.1 160.7 439.2 159.5C443.5 157.6 447.6 154.9 451 151.6C452.4 150.2 452.9 149.2 452.7 148.5L452.7 148.5L452.7 148.5L452.7 148.5L452.7 148.5ZM439.2 71.5L443 63.6C443.2 63.1 443.5 62.9 444 62.9C444.5 62.9 446.4 64.1 450.2 66.7C453.8 69.0999 455.7 70.4999 455.7 70.9999C455.7 72.7 454 76.2999 450.9 81.5999C450.4 82.3 449.9 82.3 449.5 82.0999C446.4 79.7 442.8 77.3 438.7 74.7C437.3 77.5999 436.1 80.2 434.6 82.4C434.4 83.1 433.9 83.4 433.4 83.1C429.8 80.2 426 77.6 422.1 75.2C421.9 75 421.9 74.7 422.1 74.2L426.7 64.6C426.9 64.1 427.4 63.6 427.7 63.6C428.2 63.6 429.9 64.8 433 67C436.1 68.8 438.3 70.5 439.2 71.5L439.2 71.5L439.2 71.5L439.2 71.5L439.2 71.5ZM565.7 205.2C563.1 205.9 561.6 206.4 561.1 206.4L561.1 206.2C561.1 206.2 562.1 205.5 564 204.3C565.9 203.1 568.8 201.2 572.9 198.1C574.8 196.2 577.7 193.1 581.3 188.7C583.7 185.8 586.3 183.2 589.2 181.3C592.8 178.7 596.2 177.5 599.8 177.5C600.5 177.5 601.7 177.7 603.2 178.2C604.4 178.7 605.6 178.9 606.6 178.9C608.5 178.9 610 178.2 611.2 176.7C611.9 175.3 612.9 174.1 613.8 172.6C614.3 171.6 615 171.2 615.5 171.2C615.7 171.2 615.7 171.4 615.7 171.9C615.7 172.4 615.5 173.6 615 175C614.5 175.7 616.4 176 620 176C620.5 176 620.7 176 620.7 175.8C620.7 175.8 620.5 174.8 620 173.2C619.8 172.7 620 172 620.7 171C621.7 169.3 622.1 168.6 622.4 168.8C623.4 169.5 623.8 171 623.8 172.6C623.8 174.3 623.3 176 622.6 177.9C621.9 180.1 621.2 181.3 620.7 181.7C619 182.7 616.4 182.4 612.8 180.7C609.9 183.6 607 185.3 604.2 185.3C603.5 185.3 602.3 185.1 601.1 184.6C599.9 184.1 598.9 183.9 598.2 183.9C593.4 183.9 588.4 186.1 583.3 190.9C579.7 194.5 576.1 198.1 572.5 201.7C570.3 203.2 568.1 204.4 565.7 205.2L565.7 205.2L565.7 205.2L565.7 205.2L565.7 205.2ZM514.1 75.6C517 75.6 519.4 77 521.5 80.4C523.7 83.5 525.3 87.8 526.1 93.1C526.3 93.6 526.3 93.8 526.3 94.1L526.5 94.1C526.5 93.9 526.7 93.6 526.7 93.1C527.2 90 528.4 85.2 530.1 78.9C532 74.6 533.9 72.4 536.1 72.4C537.3 72.4 538.5 73.1 539.5 74.6C540.5 76 540.9 77 540.9 78C540.9 78.5 540.9 79.4 540.4 80.4C539.9 81.8 539.4 82.6 539 82.6C538.8 82.6 538.3 81.9 537.3 80.9C536.6 79.9 535.6 79.5 534.7 79.5C532.8 79.5 531.1 84.1 529.4 93.2C528.7 97.3 527.7 100.2 527 101.8C526.3 102.8 525.8 103.5 525.3 103.5C524.8 103.5 524.8 102.8 524.6 101.8C524.8 100.1 523.9 97 522 92.4C520.1 87.6 518.9 85.4 517.9 85.4C517.4 85.4 517.2 85.4 516.9 85.9C516.7 86.1 516.4 86.4 515.7 86.4C514.7 86.4 513.8 85.7 512.3 84.5C510.9 83.3 510.4 82.3 510.4 81.6C510.4 81.4 510.9 80.2 512.1 78.2C513.2 76.3 513.9 75.6 514.1 75.6L514.1 75.6L514.1 75.6L514.1 75.6L514.1 75.6ZM473.6 72.7C497.8 63.6 523 54.5 549 44.9C549.7 44.7 550.2 44.4 550.2 44.7C550.4 44.7 550.4 45.2 550.2 45.9C549.2 48.1 548.5 49.3 548 49.7C547.8 49.9 535.5 54.5 511.8 63.4C487.6 72.3 473.9 77.8 471.2 79.5C471.6 77.2 472.4 75.1 473.6 72.7L473.6 72.7L473.6 72.7L473.6 72.7L473.6 72.7ZM450 28.8C450.5 27.4 450.5 25.9 450.2 24.5C450 23.1 449.2 22.3 448 22.3C447.5 22.3 446.8 22.5 445.8 23C444.8 23.5 444.4 24 444.4 24.4C444.5 25.6 446.4 27.1 450 28.8L450 28.8L450 28.8L450 28.8L450 28.8ZM447.2 35C442.6 32.6 440.5 30.2 440.5 27.6C440.5 24.5 441.9 21.6 444.8 19.2C447.7 16.6 450.1 15.6 452 16.3C453.7 16.8 454.4 18.5 454.4 21.3C454.4 23.9 453.9 26.8 452.7 30.2C455.1 31.4 456.5 32.6 457 33.6C457 34.8 456 37 453.9 39.8C453.4 38.8 452 37.6 449.8 36.4C447.2 40 444 43.1 440.2 46C435.6 49.1 431.6 51.8 428 53.2C427 53.7 422.7 55.4 415 58.2C413.8 58.7 412.8 58.9 412.6 58.9C412.4 58.9 412.4 58.7 412.4 58.7C412.4 58.5 412.9 57.7 414.3 57C420.1 53.4 425.8 50 431.8 46.7C438.8 42.4 443.8 38.6 447.2 35L447.2 35L447.2 35L447.2 35L447.2 35ZM598.8 65C599.3 63.6 599.3 62.1 599 60.7C598.8 59.3 598 58.5 596.8 58.5C596.3 58.5 595.6 58.7 594.6 59.2C593.6 59.7 593.2 60.2 593.2 60.6C593.3 61.9 595.2 63.3 598.8 65L598.8 65L598.8 65L598.8 65L598.8 65ZM604.1 73.9C601.7 79.7 600.5 84.2 600.5 87.6C600.5 91.7 601.5 93.8 603.6 93.8C604.8 93.8 606.2 92.1 607.9 89.2C608.1 89 608.1 88.7 608.4 88.5C608.4 88.5 608.6 88.5 608.6 88.7C608.6 88.7 608.6 88.9 608.6 89.4C607.2 96.6 605 100.2 602.1 100.2C599 100.2 597.5 97.6 597.5 92.3C597.5 89.7 598 86.3 599.4 82C600.8 77.7 601.6 75.5 601.6 75.3C601.6 74.8 600.6 73.9 598.5 72.7C594.7 77.7 589.4 82.5 582.7 86.6C578.1 89.2 573.6 91.6 568.8 93.6C559.9 97.2 554.6 99.1 553.4 99.8C552.2 100.3 551.5 100.5 551 100.5C550.8 100.5 550.8 100.3 550.8 100.3C550.8 99.8 551.3 99.3 552.7 98.4C560.4 94.1 567.8 89.8 575.5 85.4C585.6 79.6 592.5 74.8 595.9 71.2C591.3 68.8 589.2 66.4 589.2 63.8C589.2 60.7 590.6 57.8 593.5 55.2C596.4 52.8 598.8 51.8 600.7 52.6C602.1 53.1 603.1 54.8 603.1 57.6C603.1 60.2 602.6 63.1 601.4 66.2C603.8 67.6 604.8 69.1 604.8 70.5C604.8 71.2 604.6 72.4 604.1 73.9L604.1 73.9L604.1 73.9L604.1 73.9L604.1 73.9ZM494.9 38.8C494.9 38.6 495.1 38.3 495.1 38.3C495.3 38.1 495.3 38.1 495.3 38.3C495.5 38.5 495.5 38.8 495.3 39C494.1 46.2 491.9 49.8 488.8 49.8C485.7 49.8 484.2 47.2 484.2 41.9C484.2 35.4 485.9 28.5 489.7 21.5C490.7 19.8 491.1 18.9 491.4 18.9L491.4 18.9C491.4 19.1 491.2 20.1 490.7 21.8C488.3 29.2 487.1 34.3 487.1 37.4C487.1 41.2 488.1 43.4 490.2 43.4C491.8 43.4 493.2 41.7 494.9 38.8L494.9 38.8L494.9 38.8L494.9 38.8L494.9 38.8Z" id="Group" fill="#595959" stroke="none" clip-path="url(#clip_1)" />
  </g>
</svg>