<?xml version="1.0" encoding="utf-8"?>
<svg width="475.60016px" height="202.40007px" viewBox="0 0 475.60016 202.40007" version="1.1" xmlns:xlink="http://www.w3.org/1999/xlink" xmlns="http://www.w3.org/2000/svg">
  <defs>
    <path d="M475.6 0L475.6 0L475.6 202.4L0 202.4L0 0L475.6 0Z" id="path_1" />
    <clipPath id="clip_1">
      <use xlink:href="#path_1" clip-rule="evenodd" fill-rule="evenodd" />
    </clipPath>
  </defs>
  <g id="Surah_90_of_114_(modified)">
    <path d="M475.6 0L475.6 0L475.6 202.4L0 202.4L0 0L475.6 0Z" id="Surah_90_of_114_(modified)" fill="none" stroke="none" />
    <path d="M173 1.7C173.7 0.5 174.7 0 175.4 0C175.9 0 176.4 0.199997 176.4 0.699997C176.4 0.699997 176.2 0.899994 176.2 1.2C175.2 3.39999 174.3 5.8 173.6 8.2C178.6 11.8 181 15.6 180.8 19.2C180.3 23.3 179.8 25.9 179.1 26.9C176.7 29.8 174.1 31.5 170.7 31.5C167.3 31.5 165.9 29.3 165.9 25.5C165.9 24.8 165.9 23.8 166.1 22.9C167.2 15.1 169.6 8.10001 173 1.7ZM77.7 22.3C96.2 15.6 115.4 8.40001 135.5 0.900009C135.678 0.849057 135.844 0.791614 135.994 0.739254C136.435 0.586095 136.751 0.47644 136.9 0.700012C136.9 0.700012 136.9 1.20001 136.7 1.90001C135.7 4.10001 135 5.3 134.5 5.70001C117.7 11.9 97.8 19.6 75.2 29C75.8 26.9 76.5 24.7 77.7 22.3ZM211.8 148.1C216.9 139.9 219.5 128.9 219.5 114.7C219.5 109.7 218.6 94.5 216.7 69.5C214.8 44.1 213.8 31.1 213.8 30.9C213.8 29.7 214 29.4 214.5 29.9C218.5 34.7 220.7 35.9 220.7 33.7C220.7 33.2 220.4 32 220.2 30.6C219.5 28.9 217.8 24.1 214.9 16.2C212 8.69998 210.1 4.19998 209.4 2.49998C208.9 1.49998 208.6 1.29999 208.4 1.29999C207.9 1.29999 207.6 1.59999 207.4 2.29999C204.7 8.69998 203.3 12.8 203.3 14.5C204.8 17.6 205.5 21.4 205.5 26C205.5 31.3 206.4 48.3 208.6 77.1C210.8 105.9 212 122.4 212 126.5C212 133.3 211.3 137.3 210.1 138.3C205.8 141.9 201.3 143.8 196.7 143.8L196.7 158.4C202.4 158.4 207.5 154.8 211.8 148.1ZM229.3 16C230.8 19.2 231.5 23 231.5 27.8C231.5 31.9 232.7 50.9 235.2 84.7C237.6 118.5 238.8 137.7 238.8 142.5C238.8 147.6 238.6 152.1 238.1 156.2C238.071 156.579 238.042 156.944 238.014 157.293C237.85 159.336 237.729 160.846 237.9 161.7C238.1 162.4 238.4 162.4 239.1 161.2C239.6 160.3 240 159.1 241 157.4C244.3 148.8 246 138.7 246 127.4C246 123.6 245.1 107 242.9 77.5C240.7 47.8 239.5 32.9 239.5 32.4C239.5 31.2 239.7 30.7 240.2 31.4C244.5 36.2 246.4 37.4 246.4 35.2C246.4 34.7 246.4 33.5 245.9 32.3C245.4 30.4 243.7 25.6 240.6 17.7C237.7 10.2 236 5.7 235.3 4C234.8 3.3 234.6 2.8 234.1 2.8C233.9 2.8 233.6 3.3 233.4 4C230.5 10.2 229.3 14.3 229.3 16ZM280.7 15.4C280.7 18 282.8 20.4 287.4 22.8C284.1 26.4 279 30.2 272 34.5C266 37.8 260.3 41.2 254.5 44.8C253.1 45.5 252.6 46.3 252.6 46.5C252.6 46.5 252.6 46.7 252.8 46.7C253 46.7 254 46.5 255.2 46C262.9 43.2 267.2 41.5 268.2 41C271.8 39.6 275.8 36.9 280.4 33.8C284.2 30.9 287.4 27.8 290 24.2C292.2 25.4 293.6 26.6 294.1 27.6C296.2 24.8 297.2 22.6 297.2 21.4C296.7 20.4 295.3 19.2 292.9 18C294.1 14.6 294.6 11.7 294.6 9.10002C294.6 6.30002 293.9 4.60002 292.2 4.10002C290.3 3.40001 287.9 4.40001 285 7.00002C282.1 9.40001 280.7 12.3 280.7 15.4ZM335.4 26.1C335.4 26.1 335.2 26.4 335.2 26.6C333.5 29.5 332.1 31.2 330.5 31.2C328.4 31.2 327.4 29 327.4 25.2C327.4 22.1 328.6 17 331 9.60001C331.5 7.90001 331.7 6.90001 331.7 6.70001C331.4 6.70001 331 7.60002 330 9.30002C326.2 16.3 324.5 23.2 324.5 29.7C324.5 35 326 37.6 329.1 37.6C332.2 37.6 334.4 34 335.6 26.8C335.8 26.6 335.8 26.3 335.6 26.1C335.6 26.0093 335.6 25.9598 335.581 25.9513C335.559 25.9411 335.509 25.9907 335.4 26.1ZM290.5 12.2C290.8 13.6 290.8 15.1 290.3 16.5C286.7 14.9 284.8 13.4 284.7 12.1C284.7 11.7 285.1 11.2 286.1 10.7C287.1 10.2 287.8 10 288.3 10C289.5 10 290.3 10.8 290.5 12.2ZM178.2 20.9C178.2 19.7 175.8 17.5 170.8 14.7C169.1 17.6 168.4 20.2 168.4 22.6C168.4 24 169.1 25 170.6 25C171.8 25 173.2 24.5 174.9 23.6C176.6 22.8 177.8 21.8 178.2 20.9ZM135.1 153.6C138.2 159.1 143.5 162 150.9 162L150.9 162.2C157.6 162.2 164.1 159.5 170.3 154C171.7 152.8 174.9 149.5 179.9 143.7C180.7 142.8 181.4 142.5 182.1 142.3C182.6 142.6 182.8 142.8 182.8 143.3C183.3 153.4 187.9 158.4 196.5 158.4L196.5 143.7C193.3 143.7 190.9 142.3 189.5 139.9C188.1 138 187.6 135.6 187.6 132.7C187.6 132.2 187.6 131.5 187.8 130.5C188 129.5 188 128.8 188 128.3C188 127.4 187.7 126.9 186.8 126.9C185.9 126.9 184.9 127.4 184.2 128.1C176.6 135.8 171.8 140.4 169.6 141.8C164.126 145.681 157.959 147.582 151 147.6L151 147.5C147.7 147.5 145.3 146.8 143.6 145.6C141.2 143.5 139.3 139.6 138.1 134.1C137.1 128.8 136.1 118.7 135.9 104.1C135.2 86.3 134.5 73.6 133.5 65.2C131.8 49.4 129.4 36.2 126.3 25.6C126 24.4 125.8 23.9 125.3 23.9C125 23.9 124.8 24.3 124.3 25.3C123.4 27.4 122.4 31.8 121.2 38C123.4 52.1 124.8 61.7 125.3 66.3C127.2 84.5 128.2 102.5 128.2 119.8C128.2 129.9 126.7 137.1 124.1 141.4C120.029 147.059 113.395 149.959 104.1 150L104.1 149.7C100.5 149.7 97.6 149.2 95.9 148C92.6 145.9 90.4 141.6 89.2 134.6C86.6 118.8 84.2 106.3 82.5 97.4C78.4 77.5 71.9 61.7 63.5 50.4C62.5 49.2 61.8 49.7 61.3 51.4C60.8 52.8 60.6 55.2 60.1 58.6C59.4 62.2 59.2 64.1 59.4 64.6C66.6 80.4 71.4 91.9 73.3 99.6C75.7 109.6 77.1 116.8 77.1 121.4C77.1 123.4 76.8 124.8 76.1 126C76.1 126 75.4 127.2 73.5 129.6C68 137 60.3 144 50.5 150.7C37.8 159.4 26 163.7 15 163.7C7.40002 163.7 3.50002 159.8 3.59999 151.8C3.59999 146.3 5 138.4 7.89999 127.8C8.32472 126.526 8.53297 125.468 8.58605 124.749C10.757 123.579 12.3451 120.129 13.3 114.4C13.5 114.2 13.5 113.9 13.3 113.7C13.3 113.609 13.3 113.56 13.2814 113.551C13.2589 113.541 13.2093 113.591 13.1 113.7C13.1 113.7 12.9 114 12.9 114.2C11.2 117.1 9.80002 118.8 8.20001 118.8C6.10001 118.8 5.10001 116.6 5.10001 112.8C5.10001 109.7 6.30002 104.6 8.70001 97.2C9.20001 95.5 9.40001 94.5 9.40001 94.3C9.10001 94.3 8.70001 95.2 7.70001 96.9C3.90001 103.9 2.20001 110.8 2.20001 117.3C2.20001 122.6 3.70001 125.2 6.80002 125.2C6.91229 125.2 7.02339 125.195 7.13329 125.186C6.85526 125.699 6.54554 126.34 6.2 127.1C2.2 137.7 0 148.2 0 158.3C0 163.6 0.900009 167.9 3.10001 171.5C5.8 175.8 9.90001 178 14.9 178C24.7 178 35.5 174.1 47.3 166.7C57.4 160.3 66.3 152.6 73.5 143.7C77.1 139.1 79.5 133.4 80.7 126.4C81.9 135.3 82.8 141 83.3 143.9C84.9 152.3 87.6 158.1 91.9 161.2C94.6647 163.274 98.6968 164.275 103.9 164.3L103.9 164.6C109.5 164.6 114.7 163 119.3 159.6C126.2 154.8 130.1 146.9 130.8 136.3C131.7 144.2 133.2 150 135.1 153.6ZM313.8 60.5C338 51.4 363.2 42.3 389.2 32.7C389.402 32.6423 389.588 32.5762 389.749 32.5186C390.147 32.3768 390.4 32.2867 390.4 32.5C390.6 32.5 390.6 33 390.4 33.7C389.4 35.9 388.7 37.1 388.2 37.5C388 37.7 375.7 42.3 352 51.2C327.8 60.1 314.1 65.6 311.4 67.3C311.9 65 312.6 62.9 313.8 60.5ZM444.4 61.4C442 67.2 440.8 71.7 440.8 75.1C440.8 79.2 441.8 81.3 443.9 81.3C445.1 81.3 446.5 79.6 448.2 76.7C448.4 76.5 448.4 76.2 448.7 76C448.7 76 448.9 76 448.9 76.2L448.9 76.9C447.5 84.1001 445.3 87.7 442.4 87.7C439.3 87.7 437.8 85.1 437.8 79.8C437.8 77.2 438.3 73.8 439.7 69.5C441.1 65.2001 441.9 63 441.9 62.8C441.9 62.3 440.9 61.4 438.8 60.2C435 65.2 429.7 70 423 74.1C418.4 76.7 413.9 79.1 409.1 81.1C400.2 84.7 394.9 86.6 393.7 87.3C392.5 87.8 391.8 88 391.3 88C391.1 88 391.1 87.8 391.1 87.8C391.1 87.3 391.6 86.8 393 85.9C400.7 81.6001 408.1 77.3 415.8 72.9C425.9 67.1001 432.8 62.3 436.2 58.7C431.6 56.3 429.5 53.9 429.5 51.3C429.5 48.2 430.9 45.3 433.8 42.7C436.7 40.3 439.1 39.3 441 40.1C442.4 40.6 443.4 42.3 443.4 45.1C443.4 47.7 442.9 50.6 441.7 53.7C444.1 55.1 445.1 56.6 445.1 58C445.1 58.8 444.9 60 444.4 61.4ZM17.4 43.2C20.3 43.2 22.7 44.6 24.8 48C27 51.1 28.6 55.4 29.4 60.7C29.6 61.2 29.6 61.4 29.6 61.7L29.8 61.7C29.8 61.5 30 61.2 30 60.7C30.5 57.6 31.7 52.8 33.4 46.5C35.3 42.2 37.2 40 39.4 40C40.6 40 41.8 40.7 42.8 42.2C43.8 43.6 44.2 44.6 44.2 45.6C44.2 46.1 44.2 47 43.7 48C43.2 49.4 42.7 50.2 42.3 50.2C42.1 50.2 41.6 49.5 40.6 48.5C39.9 47.5 38.9 47.1 38 47.1C36.1 47.1 34.4 51.7 32.7 60.8C32 64.9 31 67.8 30.3 69.4C29.6 70.4 29.1 71.1 28.6 71.1C28.1 71.1 28.1 70.4 27.9 69.4C28.1 67.7 27.2 64.6 25.3 60C23.4 55.2 22.2 53 21.2 53C20.7 53 20.5 53 20.2 53.5C20 53.7 19.7 54 19 54C18 54 17.1 53.3 15.6 52.1C14.2 50.9 13.7 49.9 13.7 49.2C13.7 49 14.2 47.8 15.4 45.8C16.5 43.9 17.2 43.2 17.4 43.2ZM439.1 52.5C439.6 51.1 439.6 49.6 439.3 48.2C439.1 46.8 438.3 46 437.1 46C436.6 46 435.9 46.2 434.9 46.7C433.9 47.2 433.5 47.7 433.5 48.1C433.6 49.4 435.5 50.9 439.1 52.5ZM106 67.4C106 67.4 105.8 67.7 105.8 67.9C104.1 70.8 102.6 72.5 101.1 72.5C99 72.5 98 70.3 98 66.5C98 63.4 99.2001 58.3 101.6 50.9C102.1 49.2 102.3 48.2 102.3 48C102 48 101.6 48.9 100.6 50.6C96.8 57.6 95.1001 64.5 95.1001 71C95.1001 76.3 96.6001 78.9 99.7001 78.9C102.8 78.9 105 75.3 106.2 68.1C106.4 67.9 106.4 67.6 106.2 67.4C106.2 67.3093 106.2 67.2598 106.181 67.2513C106.159 67.2411 106.109 67.2907 106 67.4ZM156.6 53.3C159.5 53.3 161.9 54.7 164 58.1C166.2 61.2 167.8 65.5 168.6 70.8C168.8 71.3 168.8 71.5 168.8 71.8L169 71.8C169 71.6 169.2 71.3 169.2 70.8C169.7 67.7 170.9 62.9 172.6 56.6C174.5 52.3 176.4 50.1 178.6 50.1C179.8 50.1 181 50.8 182 52.3C183 53.7 183.4 54.7 183.4 55.7C183.4 56.2 183.4 57.1 182.9 58.1C182.4 59.5 181.9 60.3 181.5 60.3C181.3 60.3 180.8 59.6 179.8 58.6C179.1 57.6 178.1 57.2 177.2 57.2C175.3 57.2 173.6 61.8 171.9 70.9C171.2 75 170.2 77.9 169.5 79.5C168.8 80.5 168.3 81.2 167.8 81.2C167.3 81.2 167.3 80.5 167.1 79.5C167.3 77.8 166.4 74.7 164.5 70.1C162.6 65.3 161.4 63.1 160.4 63.1C159.9 63.1 159.7 63.1 159.4 63.6C159.2 63.8 158.9 64.1 158.2 64.1C157.2 64.1 156.3 63.4 154.8 62.2C153.4 61 152.9 60 152.9 59.3C152.9 59.1 153.4 57.9 154.6 55.9C155.7 54 156.4 53.3 156.6 53.3ZM283.3 51.1L279.5 59C278.6 58.1 276.4 56.4 273.3 54.5C270.2 52.3001 268.5 51.1001 268 51.1001C267.7 51.1001 267.2 51.6001 267 52.1001L262.4 61.7001C262.2 62.2001 262.2 62.5 262.4 62.7001C266.3 65.1001 270.1 67.7001 273.7 70.6001C274.2 70.9 274.7 70.6001 274.9 69.9C276.4 67.7 277.6 65.1 279 62.2C283.1 64.8 286.7 67.2 289.8 69.6C290.2 69.8 290.7 69.8 291.2 69.1C294.3 63.8 296 60.2 296 58.5C296 58 294.1 56.6 290.5 54.2C286.7 51.6 284.8 50.4 284.3 50.4C283.8 50.4 283.5 50.6 283.3 51.1ZM362 68.1C359.9 64.7 357.5 63.3 354.6 63.3C354.4 63.3 353.7 64.1 352.6 65.9C351.4 67.9 350.9 69.1 350.9 69.3C350.9 70 351.4 71 352.8 72.2C354.3 73.4 355.2 74.1 356.2 74.1C356.9 74.1 357.2 73.8 357.4 73.6C357.7 73.1 357.9 73.1 358.4 73.1C359.4 73.1 360.6 75.3 362.5 80.1C364.4 84.7 365.3 87.8 365.1 89.5C365.3 90.5 365.3 91.2 365.8 91.2C366.3 91.2 366.8 90.5 367.5 89.5C368.2 87.9 369.2 85 369.9 80.9C371.6 71.8 373.3 67.2 375.2 67.2C376.1 67.2 377.1 67.6 377.8 68.6C378.8 69.6 379.3 70.3 379.5 70.3C379.9 70.3 380.4 69.5 380.9 68.1C381.4 67.1 381.4 66.2 381.4 65.7C381.4 64.7 381 63.7 380 62.3C379 60.8 377.8 60.1 376.6 60.1C374.4 60.1 372.5 62.3 370.6 66.6C368.9 72.9 367.7 77.7 367.2 80.8C367.2 81.3 367 81.6 367 81.8L366.8 81.8C366.8 81.5 366.8 81.3 366.6 80.8C365.8 75.5 364.2 71.2 362 68.1ZM302.3 77.3C302.3 81.1 300.4 86.4 296.5 92.9C294.1 97 290.5 102.5 285.7 109.7C290.5 115.2 293.9 120.3 295.5 124.6C296.5 127.7 297.2 131.8 297.2 136.4C297.2 138.3 296.7 140.7 295.8 143.8C295.1 146.7 294.1 148.8 293.2 150.3C291.3 153.2 288.2 156.1 283.4 158.9C278.4 162.3 274 163.9 270.4 163.9C264.6 163.9 261.8 159.6 261.8 150.9C261.8 145.1 262.8 139.4 264.7 134.1C266.6 129.5 269.7 123.5 274.8 115.6C270.5 111.5 265.9 105.8 260.9 98.6C260.4 97.9 259.2 96.7 257.3 94.8C256.3 93.8 255.9 92.6 255.9 91.2C255.9 89 256.1 86.6 256.6 83.8C257.3 80.9 257.8 79.7 258 79.7C258.7 79.7 260.9 80.9 265 83.5C268.8 86.1 272 88.1 273.9 89.7C275.1 90.4 275.6 91.1 275.6 91.1L275.6 91.3C275.6 91.5 274.9 91.8 273.2 91.8C270.1 91.8 268.4 92 268.4 92.3C268.4 92.5 268.9 93 269.8 94.2C273.6 99 277.5 102.6 281.6 105.5C282.6 104.1 285.9 99.3 291.2 91.1C295.8 84.1 298.4 79.3 299.6 76.5C300.8 73.6 301.5 72.4 302 72.4C302.1 72.5 302.3 73.9 302.3 77.3ZM319.8 105.6C320.8 106.8 321.5 108.4 322 110.6C323.2 114.7 325.6 120.5 328.9 127.5C331.8 133.8 333.2 137.1 333.2 137.6C333.2 139.6 330.3 142.7 324.8 147C319.941 150.611 313.617 154.74 305.826 159.329C306.556 154.848 307.84 149.46 309.7 143.1C310 141.6 310.2 140.4 310.2 139.7C310.2 139.2 310.2 139 310 139C309.5 139 309 140 307.8 142.4C305.425 148.813 303.685 155.049 302.662 161.172C299.466 163.013 296.045 164.924 292.4 166.9C283 172 271.3 177.5 257.1 183.5C236.7 192.1 225.6 196.9 223.7 197.9C218.4 200.3 215.8 201.8 215.8 202C215.8 202.2 215.8 202.2 216.3 202.2C217.3 202.2 219.7 201.9 223.5 201.2C227.1 200.7 236.2 198.6 250.6 195.2C264.3 191.9 271.5 190.2 272 190.2C274.6 190.2 283 186.1 297.4 177.7C298.847 176.889 300.258 176.083 301.631 175.281C301.896 182.465 303.872 188.658 307.4 193.3C311.7 199.3 317.9 202.4 326.1 202.4C335.7 202.4 346.7 197.4 359.7 187.8C368.4 181.3 376.3 173.8 383.5 165.2C386.6 161.6 389.2 157 390.9 151.5C392.4 147.1 393.1 143.8 393.1 140.9L393.6 140.4L393.6 127.2C392.6 127.7 392.1 127.7 391.9 127.7C389.5 122.7 386.6 118.6 383.5 115C379.9 111.4 376.8 109.5 373.7 109.5C369.6 109.5 365.8 111.6 362.2 115.7C358.4 120.5 356.7 125.8 356.7 131.8C356.7 139.7 362.5 143.8 374 143.8C379.3 143.8 383.6 143.1 386.5 142.1C387 143.8 387.5 145.5 387.5 146.9C387.5 149 383.9 153.3 376.9 160.2C369.2 167.4 361.3 173.4 353.1 178.4C342.7 184.7 334.1 187.8 326.9 187.8C318.5 187.8 312.5 185.1 308.7 180.1C307.271 177.956 306.267 175.529 305.689 172.86C317.962 165.371 326.929 158.313 332.7 151.8C334.7 149.6 336.1 146.5 337.3 142.4C338.2 138.8 338.7 135.9 338.7 133.5C338.7 128.4 337.2 122.9 334.6 116.2C332.9 112.4 331 108.3 329.3 104.2C332.2 104.9 334.1 105.4 334.8 105.4C335.3 105.4 335.5 105.1 335.5 104.9C335.5 104.4 334.8 103.5 333.1 101.8C329.1 97.7 325.5 93.8 322.1 90C321.6 89.5 321.3 89.3 321.1 89.3C320.6 89.3 320.3 89.8 320.1 91C319.6 92.2 319.4 94.4 318.9 97.5C318.4 100.8 318.4 102.5 318.4 103C318.6 103.4 319.1 104.2 319.8 105.6ZM194.6 92.9C179.5 98.4 165.1 103.7 151.4 108.5C150.2 110.9 149.4 113 149 115.2C166.1 108 180.9 102.3 193.9 97.7C194.4 97.3 195.1 96.1 195.8 93.9C196.2 93.2 196.2 92.7 196 92.7C195.877 92.5155 195.754 92.5579 195.445 92.6644C195.252 92.7311 194.985 92.823 194.6 92.9ZM419.7 112.1C419 112.1 418 112.5 416.8 113.5C413 116.9 409.1 119.7 405.2 121.7C404 122.5 399.9 124.4 393.7 127.5L393.7 140.7C402.1 136.8 408.6 132.8 412.4 128.2C412.4 139.2 417.2 145 427.3 145C435.7 145 442.6 140.2 447.9 130.6C451.1 136.4 454.7 139.5 458.5 139.5C464.3 139.5 468.6 136.9 471.5 131.6C474.2 127.2 475.6 122.2 475.6 116.2C475.6 112.3 474.4 109 472.5 106.1C471.8 105.1 471.3 104.9 470.8 104.9C470.3 104.9 469.8 105.7 469.6 107.1C468.2 111.6 467.2 115 467 116.9C469.1 120.5 470.1 122.5 470.1 122.7C469.1 124.3 467 125.3 463.6 125.3C461 125.3 458.6 124.3 456.9 122.9C455 121.5 454 119.8 454 118.1C454 118.6 454.7 116.7 455.7 112.6C456.2 110.5 456 109.5 455 109.5C454.3 109.5 453.6 109.9 452.6 110.9C450.2 114.8 447.6 118.6 445.2 122.7C441.3 127.8 436.3 130.4 430.3 130.4C422.8 130.4 419 127.5 419 122.2C419 121 419.2 119.5 419.7 117.6C420.2 115.7 420.4 114.2 420.4 113.5C420.4 112.6 420.2 112.1 419.7 112.1ZM293 136.3C290.4 131 285.8 125.5 279.6 120.2C277.4 122.4 274.8 126.4 271.4 132.2C267.6 138.7 265.9 142.8 265.9 144.9C265.9 147.8 267.8 149.2 272.1 149.2C274 149.2 276.4 148.5 279.5 147.3C283.8 145.4 287.9 142.7 291.3 139.4C292.7 138 293.2 137 293 136.3ZM380.1 129.3C376.5 124.7 373.4 122.6 370.5 122.6C366.2 122.6 364.3 123.6 364.3 126C364.3 128.9 367.2 130.3 372.9 130.3C374.764 130.3 376.863 129.906 379.2 129.468C379.496 129.413 379.796 129.356 380.1 129.3ZM406 192.9C403.4 193.6 401.9 194.1 401.4 194.1L401.4 193.9C401.4 193.9 402.4 193.2 404.3 192C406.2 190.8 409.1 188.9 413.2 185.8C415.1 183.9 418 180.8 421.6 176.4C424 173.5 426.6 170.9 429.5 169C433.1 166.4 436.5 165.2 440.1 165.2C440.8 165.2 442 165.4 443.5 165.9C444.7 166.4 445.9 166.6 446.9 166.6C448.8 166.6 450.3 165.9 451.5 164.4C452.2 163 453.2 161.8 454.1 160.3C454.6 159.3 455.3 158.9 455.8 158.9C456 158.9 456 159.1 456 159.6C456 160.1 455.8 161.3 455.3 162.7C454.8 163.4 456.7 163.7 460.3 163.7C460.8 163.7 461 163.7 461 163.5C461 163.5 460.8 162.5 460.3 160.9C460.1 160.4 460.3 159.7 461 158.7L461.08 158.564C462.022 156.963 462.408 156.305 462.7 156.5C463.7 157.2 464.1 158.7 464.1 160.3C464.1 161.9 463.6 163.7 462.9 165.6C462.2 167.8 461.5 169 461 169.4C459.3 170.4 456.7 170.1 453.1 168.4C450.2 171.3 447.3 173 444.5 173C443.8 173 442.6 172.8 441.4 172.3C440.2 171.8 439.2 171.6 438.5 171.6C433.7 171.6 428.7 173.8 423.6 178.6L412.8 189.4C410.6 191 408.4 192.2 406 192.9ZM135.8 190.3C135.8 190.1 136 189.8 136 189.8C136.109 189.691 136.159 189.641 136.181 189.651C136.2 189.66 136.2 189.709 136.2 189.8C136.4 190 136.4 190.3 136.2 190.5C135 197.7 132.8 201.3 129.7 201.3C126.6 201.3 125.1 198.7 125.1 193.4C125.1 186.9 126.8 180 130.6 173C131.6 171.3 132 170.4 132.3 170.4C132.3 170.6 132.1 171.6 131.6 173.3C129.2 180.7 128 185.8 128 188.9C128 192.7 129 194.9 131.1 194.9C132.6 194.9 134.1 193.2 135.8 190.3ZM70.7 179C68.6 175.6 66.2 174.2 63.3 174.2C63 174.2 62.3 174.9 61.3 176.8C60.1 178.8 59.6 180 59.6 180.2C59.6 180.9 60.1 181.9 61.5 183.1C63 184.3 63.9 185 64.9 185C65.6 185 65.9 184.7 66.1 184.5C66.4 184 66.6 184 67.1 184C68.1 184 69.3 186.2 71.2 191C73.1 195.6 74 198.7 73.8 200.4C74 201.4 74 202.1 74.5 202.1C75 202.1 75.5 201.4 76.2 200.4C76.9 198.8 77.9 195.9 78.6 191.8C80.3 182.7 82 178.1 83.9 178.1C84.8 178.1 85.8 178.5 86.5 179.5C87.5 180.5 88 181.2 88.2 181.2C88.6 181.2 89.1 180.4 89.6 179C90.1 178 90.1 177.1 90.1 176.6C90.1 175.6 89.7 174.6 88.7 173.2C87.7 171.7 86.5 171 85.3 171C83.1 171 81.2 173.2 79.3 177.5C77.6 183.8 76.4 188.6 75.9 191.7C75.9 192.2 75.7 192.5 75.7 192.7L75.5 192.7C75.5 192.4 75.5 192.2 75.3 191.7C74.5 186.4 72.9 182.1 70.7 179ZM168.6 192.2C168.4 192.7 168.4 193 168.6 193.2C172.5 195.6 176.3 198.2 180 201.1C180.49 201.394 180.692 201.111 181.171 200.44L181.2 200.4C184.5 195.1 186.2 191.8 186.2 190.1C186.2 189.6 184.2 188.1 180.4 185.5C176.8 183.1 174.7 181.9 174.2 181.9C173.9 181.9 173.4 182.1 173.2 182.6L168.6 192.2Z" id="Group" fill="#595959" fill-rule="evenodd" stroke="none" clip-path="url(#clip_1)" />
  </g>
</svg>