<?xml version="1.0" encoding="utf-8"?>
<svg width="634.0001px" height="206.19084px" viewBox="0 0 634.0001 206.19084" version="1.1" xmlns:xlink="http://www.w3.org/1999/xlink" xmlns="http://www.w3.org/2000/svg">
  <defs>
    <path d="M634 0L634 0L634 206.191L0 206.191L0 0L634 0Z" id="path_1" />
    <clipPath id="clip_1">
      <use xlink:href="#path_1" clip-rule="evenodd" fill-rule="evenodd" />
    </clipPath>
  </defs>
  <g id="Surah_88_of_114_(modified)">
    <path d="M634 0L634 0L634 206.191L0 206.191L0 0L634 0Z" id="Surah_88_of_114_(modified)" fill="none" stroke="none" />
    <path d="M389.7 30.275C389.7 25.475 389 21.675 387.5 18.475C387.5 16.775 388.7 12.675 391.6 6.47499C391.8 5.77499 392.1 5.27499 392.3 5.27499C392.8 5.27499 393 5.77499 393.5 6.47499C394.2 8.17499 395.9 12.675 398.8 20.175C401.9 28.075 403.6 32.875 404.1 34.775C404.6 35.975 404.6 37.175 404.6 37.675C404.6 39.875 402.7 38.675 398.4 33.875C397.9 33.175 397.7 33.675 397.7 34.875C397.7 35.375 398.9 50.275 401.1 79.975C403.3 109.475 404.2 126.075 404.2 129.875C404.2 141.175 402.5 151.275 399.2 159.875C398.2 161.575 397.8 162.775 397.3 163.675L397.3 163.675C396.6 164.875 396.3 164.875 396.1 164.175C395.9 163.175 396.1 161.275 396.3 158.675C396.8 154.575 397 150.075 397 144.975C397 140.175 395.8 120.975 393.4 87.175C390.9 53.375 389.7 34.375 389.7 30.275L389.7 30.275L389.7 30.275L389.7 30.275L389.7 30.275ZM377.7 118.575C377.7 132.775 375.1 143.775 370 151.975C365.7 158.675 360.6 162.275 354.9 162.275L354.9 147.675C359.5 147.675 364 145.775 368.3 142.175C369.5 141.175 370.2 137.175 370.2 130.375C370.2 126.275 369 109.775 366.8 80.975C364.6 52.175 363.7 35.175 363.7 29.875C363.7 25.275 363 21.475 361.5 18.375C361.5 16.675 362.9 12.575 365.6 6.17499C365.8 5.47499 366.1 5.17499 366.6 5.17499C366.8 5.17499 367.1 5.37498 367.6 6.37498C368.3 8.07498 370.2 12.575 373.1 20.075C376 27.975 377.7 32.775 378.4 34.475C378.6 35.875 378.9 37.075 378.9 37.575C378.9 39.775 376.7 38.575 372.7 33.775C372.2 33.275 372 33.575 372 34.775C372 34.975 373 47.975 374.9 73.375C376.7 98.475 377.7 113.575 377.7 118.575L377.7 118.575L377.7 118.575L377.7 118.575L377.7 118.575ZM338.1 127.275C335.5 125.375 330.2 124.375 322.7 124.175C320.1 124.375 317.4 124.375 315.3 124.875C320.1 127.975 323.5 130.875 325.6 133.275C329.4 131.075 333.7 128.975 338.1 127.275L338.1 127.275L338.1 127.275L338.1 127.275L338.1 127.275ZM322 147.675C312.6 153.875 307.1 157.475 305 158.475C300.4 161.075 295.6 162.275 290.8 162.275L290.8 147.675C297.5 147.675 305.2 145.075 313.6 139.775C311 136.875 307.6 134.475 303.8 132.375C300.4 130.475 297.8 129.475 296.1 129.475C292.5 129.475 289.9 129.975 288.2 131.175C287.5 131.375 287 131.675 286.5 131.675C286 131.675 285.8 131.475 285.8 130.675C285.8 130.175 285.8 129.675 286.3 128.975L290.6 118.875C291.3 116.975 295.6 115.275 303.6 113.375C311 111.675 318.2 110.975 325 110.975C338.2 110.975 348.8 113.875 356.4 119.575C358.3 120.975 359.3 121.975 359.3 122.675C359.3 122.875 359.1 123.875 358.6 124.875L354 133.275C349.4 134.975 343.2 137.575 335 140.975C339.6 145.575 346.3 147.675 354.7 147.675L354.7 162.275C348.2 162.275 343.2 161.575 339.6 159.875C335.2 158.175 329.4 154.175 322 147.675L322 147.675L322 147.675L322 147.675L322 147.675ZM275.9 132.575C277.1 139.275 279.5 143.875 282.6 145.975C284.5 146.975 287.2 147.675 290.8 147.675L290.8 162.275C285.5 162.275 281.4 161.075 278.6 158.875C274.3 155.775 271.6 150.275 270.2 141.875C269.2 136.575 268.3 121.475 267.6 96.075C266.6 68.675 265.9 51.875 265.4 45.675C264.2 35.575 262.3 26.275 259.6 17.075C259.6 14.675 260.6 11.275 262.5 6.47502C263 5.27502 263.2 4.57503 263.7 4.57503C263.9 4.57503 264.4 5.27502 264.9 6.27502C268 12.275 270.2 22.575 271.9 36.975C272.9 46.075 273.8 64.075 274.5 90.975C274.9 116.175 275.7 130.175 275.9 132.575L275.9 132.575L275.9 132.575L275.9 132.575L275.9 132.575ZM155.4 164.675C150.1 164.675 144.6 163.275 138.8 160.875L138.8 146.475C143.6 148.675 149.8 149.875 157.3 149.875C164.7 149.875 172.4 148.175 180.6 144.875C188 141.975 194.5 138.175 200.3 133.575C201.3 132.875 202.2 132.375 202.7 132.375C203.9 132.375 204.1 133.375 203.4 135.275C202.7 137.475 202.2 139.575 202.2 141.275C202.2 146.575 206.3 149.175 214.2 149.175C220.2 149.175 225.2 146.575 229.1 141.475C231.7 137.675 234.1 133.775 236.5 129.975C237.5 128.975 238.2 128.575 238.9 128.275C239.9 128.475 240.1 129.475 239.6 131.375C238.6 135.475 238.2 137.375 238.2 137.175C238.2 138.875 239.2 140.575 241.3 142.175C243.5 143.875 245.9 144.775 248.5 144.775C251.6 144.775 253.8 143.775 255 142.175C255 141.975 254.5 141.175 253.6 140.475C252.6 139.475 252.2 138.775 252.2 138.275C252.2 137.775 253.2 134.475 255.1 128.175C255.6 127.175 255.8 126.775 256.3 126.775C257.3 126.775 258 127.975 258.9 130.375C259.9 132.775 260.3 134.675 260.3 135.675C260.3 141.875 259.1 146.975 256.7 151.075C253.6 156.375 249.3 158.975 243.5 158.975C239.2 158.975 235.3 155.875 232 149.575C226.7 159.175 219.8 163.975 211.4 163.975C201.8 163.975 196.8 158.975 196.3 148.875C196.3 148.375 196.1 148.175 195.6 148.175C195.1 148.175 194.4 148.675 193.2 149.375C188.6 153.175 183.6 156.375 177.6 158.975C169.6 162.775 162.4 164.675 155.4 164.675L155.4 164.675L155.4 164.675L155.4 164.675L155.4 164.675ZM120.9 143.575C119.2 146.675 116.6 150.075 112.5 153.675C106.5 158.675 100.3 161.375 93.8 161.375L93.8 146.775C102 146.775 108.9 144.375 114.4 140.075C114.9 139.575 117 137.475 120.9 133.075C124.5 129.275 126.4 127.275 126.7 127.275C127.4 127.275 127.7 127.775 127.7 128.675C127.7 129.175 127.7 129.875 127.5 130.875C127.3 131.875 127.3 132.575 127.3 133.075C127.3 138.375 131.1 142.675 139.1 146.275L139.1 160.875C130 157.275 124 151.475 120.9 143.575L120.9 143.575L120.9 143.575L120.9 143.575L120.9 143.575ZM94 161.375C89 161.375 85.4 160.875 83.2 160.375C78.4 158.975 74.6 155.775 71.4 150.975C69.5 147.875 67.6 144.475 65.6 141.175C63.7 138.275 62 137.075 60.3 137.075C54.8 137.075 49 141.675 42.8 150.975C41.8 152.675 39.9 156.975 37 163.975C34.4 170.975 32 175.975 29.8 179.375C26.7 184.175 23.1 186.575 19.5 186.575C14.2 186.575 9.69998 182.275 5.79999 173.875C2.39999 166.475 0.999985 158.775 0.999985 150.875C0.999985 141.275 1.99998 133.375 3.89999 127.575C4.39999 125.675 4.89999 124.675 5.29999 124.675C5.99998 124.675 6.29999 125.875 5.79999 128.275C5.09999 134.475 4.79999 139.775 4.79999 144.075C4.79999 164.475 9.39999 174.775 19 174.775C22.8 174.775 26.2 171.675 29.6 165.675C32.7 158.475 36.1 151.275 39.4 144.075C42.3 138.275 45.9 133.275 50.2 128.975C54.3 124.675 58.4 122.775 61.7 122.775C64.3 122.775 67 124.475 69.1 127.575C71 130.675 72.7 133.775 74.6 136.975C77.2 140.575 79.9 143.175 82.8 144.675C85.7 145.875 89.3 146.575 93.8 146.575L93.8 161.375L94 161.375L94 161.375L94 161.375ZM314.3 95.575C314.1 95.375 314.1 95.075 314.3 94.575L318.9 84.975C319.1 84.475 319.6 84.275 319.9 84.275C320.4 84.275 322.5 85.475 326.1 87.875C329.9 90.475 331.9 91.975 331.9 92.475C331.9 94.175 330.2 97.475 326.9 102.775C326.4 103.475 326.2 103.775 325.7 103.475C322 100.575 318.1 97.975 314.3 95.575L314.3 95.575L314.3 95.575L314.3 95.575L314.3 95.575ZM228.4 104.675L232.2 96.975C232.4 96.275 232.7 95.975 233.2 95.975C233.7 95.975 235.6 97.175 239.4 99.775C243 102.375 244.9 103.875 244.9 104.375C244.9 106.075 243.2 109.375 240.1 114.675C239.6 115.375 239.1 115.375 238.7 115.175C235.6 112.775 232 110.375 227.9 107.775C226.5 110.675 225.3 113.275 223.8 115.475C223.6 116.175 223.1 116.475 222.6 116.175C219 113.275 215.2 110.675 211.3 108.275C211.1 108.075 211.1 107.775 211.3 107.275L215.9 97.675C216.1 97.175 216.6 96.675 216.9 96.675C217.4 96.675 219.1 97.875 222.2 100.075C225.3 102.075 227.4 103.775 228.4 104.675L228.4 104.675L228.4 104.675L228.4 104.675L228.4 104.675ZM215.2 89.775C215 89.575 215 89.275 215.2 88.775L220 79.175C220.2 78.675 220.5 78.475 221 78.475C221.5 78.475 223.4 79.675 227.2 82.075C230.8 84.675 232.7 86.175 232.7 86.675C232.7 88.375 231 91.675 227.9 96.975C227.4 97.675 226.9 97.975 226.5 97.475C222.9 94.875 219 92.175 215.2 89.775L215.2 89.775L215.2 89.775L215.2 89.775L215.2 89.775ZM115.1 194.475L118.9 186.575C119.1 186.075 119.4 185.875 119.9 185.875C120.4 185.875 122.3 187.075 126.1 189.675C129.7 192.075 131.6 193.475 131.6 193.975C131.6 195.675 129.9 199.275 126.8 204.575C126.3 205.275 125.8 205.275 125.4 205.075C122.3 202.675 118.7 200.275 114.6 197.675C113.2 200.575 112 203.175 110.5 205.375C110.3 206.075 109.8 206.375 109.3 206.075C105.7 203.175 101.9 200.575 98 198.175C97.8 197.975 97.8 197.675 98 197.175L102.6 187.575C102.8 187.075 103.3 186.575 103.6 186.575C104.1 186.575 105.8 187.775 108.9 189.975C112 191.775 114.1 193.475 115.1 194.475L115.1 194.475L115.1 194.475L115.1 194.475L115.1 194.475ZM55.3 96.775L59.1 88.875C59.3 88.375 59.6 88.175 60.1 88.175C60.6 88.175 62.5 89.375 66.3 91.975C69.9 94.375 71.8 95.775 71.8 96.275C71.8 97.975 70.1 101.575 67 106.875C66.5 107.575 66 107.575 65.6 107.375C62.5 104.975 58.9 102.575 54.8 99.975C53.4 102.875 52.2 105.475 50.7 107.675C50.5 108.375 50 108.675 49.5 108.375C45.9 105.475 42.1 102.875 38.2 100.475C38 100.275 38 99.975 38.2 99.475L42.8 89.875C43 89.375 43.5 88.875 43.8 88.875C44.3 88.875 46 90.075 49.1 92.275C52.2 94.175 54.4 95.775 55.3 96.775L55.3 96.775L55.3 96.775L55.3 96.775L55.3 96.775ZM339.7 23.375C339.7 22.175 337.3 19.975 332.3 17.175C330.6 20.075 329.9 22.675 329.9 25.075C329.9 26.475 330.6 27.475 332.1 27.475C333.3 27.475 334.7 26.975 336.4 26.075C338.1 25.275 339.3 24.275 339.7 23.375L339.7 23.375L339.7 23.375L339.7 23.375L339.7 23.375ZM334.5 4.175C335.2 2.97501 336.2 2.47501 336.9 2.47501C337.4 2.47501 337.9 2.675 337.9 3.175C337.9 3.175 337.7 3.375 337.7 3.675C336.7 5.875 335.8 8.27501 335.1 10.675C340.1 14.275 342.5 18.075 342.3 21.675C341.8 25.775 341.3 28.375 340.6 29.375C338.2 32.275 335.6 33.975 332.2 33.975C328.8 33.975 327.4 31.775 327.4 27.975C327.4 27.275 327.4 26.275 327.6 25.375C328.7 17.575 331.1 10.575 334.5 4.175L334.5 4.175L334.5 4.175L334.5 4.175L334.5 4.175ZM292.2 77.075C310.7 70.375 329.9 63.175 350 55.675C350.7 55.475 351.2 55.175 351.4 55.475C351.4 55.475 351.4 55.975 351.2 56.675C350.2 58.875 349.5 60.075 349 60.475C332.2 66.675 312.3 74.375 289.7 83.775C290.3 81.675 291 79.475 292.2 77.075L292.2 77.075L292.2 77.075L292.2 77.075L292.2 77.075ZM293.4 48.275C293.9 44.875 295.1 41.075 297 36.275C298.4 32.675 299.2 29.075 299.2 25.475C299.2 18.475 295.8 12.075 289.4 5.575C288.9 5.075 288.9 4.575 289.4 4.175L291.6 0.375C291.8 -0.125 292.1 -0.125 292.6 0.375C298.8 5.375 302.2 12.875 302.2 22.675C302.2 27.275 301 32.275 299.1 37.275C296.9 42.575 296 46.175 296 48.075C296 52.175 297 54.275 299.1 54.275C300.5 54.275 302 52.575 303.7 49.675C303.7 49.475 303.9 49.175 303.9 49.175C304.1 48.975 304.1 48.975 304.1 49.175C304.1 49.175 304.1 49.675 304.1 49.875C302.9 57.075 300.7 60.675 297.6 60.675C294.7 60.675 293 57.575 293 51.775C292.9 50.675 293.2 49.475 293.4 48.275L293.4 48.275L293.4 48.275L293.4 48.275L293.4 48.275ZM319.6 177.875C322.5 177.875 324.9 179.275 327 182.675C329.2 185.775 330.8 190.075 331.6 195.375C331.8 195.875 331.8 196.075 331.8 196.375L332 196.375C332 196.175 332.2 195.875 332.2 195.375C332.7 192.275 333.9 187.475 335.6 181.175C337.5 176.875 339.4 174.675 341.6 174.675C342.8 174.675 344 175.375 345 176.875C346 178.275 346.4 179.275 346.4 180.275C346.4 180.775 346.4 181.675 345.9 182.675C345.4 184.075 344.9 184.875 344.5 184.875C344.3 184.875 343.8 184.175 342.8 183.175C342.1 182.175 341.1 181.775 340.2 181.775C338.3 181.775 336.6 186.375 334.9 195.475C334.2 199.575 333.2 202.475 332.5 204.075C331.8 205.075 331.3 205.775 330.8 205.775C330.3 205.775 330.3 205.075 330.1 204.075C330.3 202.375 329.4 199.275 327.5 194.675C325.6 189.875 324.4 187.675 323.4 187.675C322.9 187.675 322.7 187.675 322.4 188.175C322.2 188.375 321.9 188.675 321.2 188.675C320.2 188.675 319.3 187.975 317.8 186.775C316.4 185.575 315.9 184.575 315.9 183.875C315.9 183.675 316.4 182.475 317.6 180.475C318.6 178.575 319.3 177.875 319.6 177.875L319.6 177.875L319.6 177.875L319.6 177.875L319.6 177.875ZM275.9 194.175C275.9 193.975 276.1 193.675 276.1 193.675C276.3 193.475 276.3 193.475 276.3 193.675C276.5 193.875 276.5 194.175 276.3 194.375C275.1 201.575 272.9 205.175 269.8 205.175C266.7 205.175 265.2 202.575 265.2 197.275C265.2 190.775 266.9 183.875 270.7 176.875C271.7 175.175 272.1 174.275 272.4 174.275L272.4 174.275C272.4 174.475 272.2 175.475 271.7 177.175C269.3 184.575 268.1 189.675 268.1 192.775C268.1 196.575 269.1 198.775 271.2 198.775C272.8 198.775 274.2 197.075 275.9 194.175L275.9 194.175L275.9 194.175L275.9 194.175L275.9 194.175ZM21.5 51.175C24.4 51.175 26.8 52.575 28.9 55.975C31.1 59.075 32.7 63.375 33.5 68.675C33.7 69.175 33.7 69.375 33.7 69.675L33.9 69.675C33.9 69.475 34.1 69.175 34.1 68.675C34.6 65.575 35.8 60.775 37.5 54.475C39.4 50.175 41.3 47.975 43.5 47.975C44.7 47.975 45.9 48.675 46.9 50.175C47.9 51.575 48.3 52.575 48.3 53.575C48.3 54.075 48.3 54.975 47.8 55.975C47.3 57.375 46.8 58.175 46.4 58.175C46.2 58.175 45.7 57.475 44.7 56.475C44 55.475 43 55.075 42.1 55.075C40.2 55.075 38.5 59.675 36.8 68.775C36.1 72.875 35.1 75.775 34.4 77.375C33.7 78.375 33.2 79.075 32.7 79.075C32.2 79.075 32.2 78.375 32 77.375C32.2 75.675 31.3 72.575 29.4 67.975C27.5 63.175 26.3 60.975 25.3 60.975C24.8 60.975 24.6 60.975 24.3 61.475C24.1 61.675 23.8 61.975 23.1 61.975C22.1 61.975 21.2 61.275 19.7 60.075C18.3 58.875 17.8 57.875 17.8 57.175C17.8 56.975 18.3 55.775 19.5 53.775C20.5 51.875 21.3 51.175 21.5 51.175L21.5 51.175L21.5 51.175L21.5 51.175L21.5 51.175ZM86.5 44.175C86.5 43.975 86.7 43.675 86.7 43.675C86.9 43.475 86.9 43.475 86.9 43.675C87.1 43.875 87.1 44.175 86.9 44.375C85.7 51.575 83.5 55.175 80.4 55.175C77.3 55.175 75.8 52.575 75.8 47.275C75.8 40.775 77.5 33.875 81.3 26.875C82.3 25.175 82.7 24.275 83 24.275L83 24.275C83 24.475 82.8 25.475 82.3 27.175C79.9 34.575 78.7 39.675 78.7 42.775C78.7 46.575 79.7 48.775 81.8 48.775C83.4 48.775 84.9 47.075 86.5 44.175L86.5 44.175L86.5 44.175L86.5 44.175L86.5 44.175ZM10.7 114.575C10.7 114.375 10.9 114.075 10.9 114.075C11.1 113.875 11.1 113.875 11.1 114.075C11.3 114.275 11.3 114.575 11.1 114.775C9.89999 121.975 7.69999 125.575 4.59999 125.575C1.49999 125.575 -7.62939e-06 122.975 -7.62939e-06 117.675C-7.62939e-06 111.175 1.69999 104.275 5.49999 97.275C6.49999 95.575 6.89999 94.675 7.19999 94.675L7.19999 94.675C7.19999 94.875 6.99999 95.875 6.49999 97.575C4.09999 104.975 2.89999 110.075 2.89999 113.175C2.89999 116.975 3.89999 119.175 5.99999 119.175C7.6 119.075 9 117.375 10.7 114.575L10.7 114.575L10.7 114.575L10.7 114.575L10.7 114.575ZM193.3 198.275C211.8 191.575 231 184.375 251.1 176.875C251.8 176.675 252.3 176.375 252.5 176.675C252.5 176.675 252.5 177.175 252.3 177.875C251.3 180.075 250.6 181.275 250.1 181.675C233.3 187.875 213.4 195.575 190.8 204.975C191.4 202.875 192.1 200.675 193.3 198.275L193.3 198.275L193.3 198.275L193.3 198.275L193.3 198.275ZM175.8 185.075C175.8 187.675 174.6 190.575 172.7 193.675C170.5 196.775 167.9 199.675 164.5 202.075C163.1 203.075 162.3 203.475 162.1 203.475L162.1 203.275C162.1 203.075 162.6 202.575 163.5 201.375C169 195.375 171.9 191.575 171.9 189.375C171.9 187.675 170.9 186.775 169.3 186.775C168.3 186.775 167.4 186.975 166.7 187.475C166 187.675 165.7 187.975 165.5 187.975C165.5 187.975 165.3 187.975 165.3 187.775C165.3 187.775 165.3 187.275 165.5 186.375C166.5 182.275 168.4 180.375 171.7 180.375C174.4 180.275 175.8 181.975 175.8 185.075L175.8 185.075L175.8 185.075L175.8 185.075L175.8 185.075ZM96.4 91.275C137 75.875 178.2 60.575 220.5 44.675C221.2 44.475 221.7 44.175 221.7 44.475C221.9 44.475 221.9 44.975 221.7 45.675C220.7 47.875 220 49.075 219.5 49.475C180.9 63.875 138.9 79.975 94 97.975C94.5 95.775 95.2 93.675 96.4 91.275L96.4 91.275L96.4 91.275L96.4 91.275L96.4 91.275ZM42.9 192.575C52.5 189.175 62.8 185.375 73.9 181.575C74.9 181.375 75.1 181.075 75.3 181.375C75.5 181.375 75.5 181.875 75.1 182.575C74.4 184.775 73.7 185.975 73.2 186.375C63.6 189.775 52.8 193.775 40.6 199.375C40.9 197.075 41.7 194.975 42.9 192.575L42.9 192.575L42.9 192.575L42.9 192.575L42.9 192.575ZM147.5 16.375C147.5 16.875 147.3 17.775 146.8 18.775C146.6 20.175 146.1 20.975 145.4 20.975C145.2 20.975 144.7 20.275 143.7 19.275C143 18.275 142 17.875 141.3 17.875C139.4 17.875 137.5 22.475 135.8 31.575C135.1 35.675 134.4 38.575 133.4 40.175C132.7 41.175 132.2 41.875 131.7 41.875C131.5 41.875 131.2 41.175 131.2 40.175C131.2 38.475 130.2 35.375 128.3 30.775C126.4 25.975 125.2 23.775 124.5 23.775C123.8 23.775 123.5 23.775 123.3 24.275C123.3 24.475 122.8 24.775 122.1 24.775C121.1 24.775 120.2 24.075 118.7 22.875C117.5 21.675 116.8 20.675 116.8 19.975C116.8 19.775 117.3 18.575 118.5 16.575C119.7 14.675 120.4 13.975 120.7 13.975C123.3 13.975 125.7 15.375 127.9 18.775C130.3 22.175 131.7 26.175 132.7 31.475C132.7 31.975 132.7 32.175 132.7 32.475C132.9 32.675 132.9 32.675 132.9 32.475C132.9 32.275 133.1 31.975 133.4 31.475C133.6 28.375 134.8 23.575 136.5 17.275C138.4 12.975 140.3 10.775 142.5 10.775C143.7 10.775 144.9 11.475 146.1 12.975C147 14.475 147.5 15.375 147.5 16.375L147.5 16.375L147.5 16.375L147.5 16.375L147.5 16.375ZM131.7 43.975C130 47.775 126.7 51.675 121.6 55.275C117 58.675 113 61.075 109.4 62.675C108.7 63.175 104.4 64.875 96.4 67.675C95.2 68.175 94.5 68.375 94 68.375C93.8 68.375 93.8 68.175 93.8 68.175C93.8 67.975 94.5 67.175 95.7 66.475C102.2 62.675 111.3 57.075 123.3 49.175C126.2 46.975 128.3 44.875 130 42.975C131.9 40.775 132.9 39.575 133.1 39.575C133.1 39.575 133.1 39.575 133.1 39.775C133.1 40.175 132.6 41.575 131.7 43.975L131.7 43.975L131.7 43.975L131.7 43.975L131.7 43.975ZM163.6 91.775C163.6 92.275 163.4 93.175 163.1 94.175C162.6 95.575 162.1 96.375 161.4 96.375C161.2 96.375 160.7 95.675 159.7 94.675C159 93.675 158 93.275 157.3 93.275C155.4 93.275 153.5 97.875 151.8 106.975C151.1 111.075 150.4 113.675 149.4 115.375C148.7 116.575 148.2 117.075 147.7 117.075C147.5 117.075 147.2 116.575 147.2 115.675C147.2 113.975 146.2 110.875 144.3 106.275C142.6 101.475 141.2 99.275 140.5 99.275C140 99.275 139.5 99.275 139.5 99.775C139.3 99.9751 138.8 100.275 138.1 100.275C137.1 100.275 135.9 99.575 134.5 98.375C133.1 96.9751 132.6 95.9751 132.8 95.4751C135 91.375 136.2 89.4751 136.6 89.4751C139.2 89.4751 141.9 90.875 144 94.275C146.2 97.375 147.6 101.675 148.6 106.775C148.6 107.475 148.6 107.775 148.6 107.775C148.8 107.975 148.8 107.975 148.8 107.775C148.8 107.775 149 107.575 149.3 106.775C149.8 103.875 150.7 99.075 152.4 92.875C154.3 88.5751 156.2 86.375 158.6 86.375C159.6 86.375 160.8 87.0751 162 88.5751C163.1 89.775 163.6 90.775 163.6 91.775L163.6 91.775L163.6 91.775L163.6 91.775L163.6 91.775ZM132.9 95.375C133.4 94.375 133.9 93.975 134.1 93.975C134.1 93.975 134.3 94.175 134.1 94.175C134.3 94.875 133.6 96.575 132.2 99.175C129.8 103.775 126.4 107.375 122.1 110.475C117.5 113.875 113.5 116.275 109.9 117.875C109.2 118.375 104.9 120.075 96.9 122.875C95.7 123.375 95 123.575 94.5 123.575C94.3 123.575 94.3 123.375 94.3 123.375C94.3 123.175 95 122.375 96.2 121.675C102.9 118.075 112 112.275 123.8 104.375C128.5 100.875 131.4 97.775 132.9 95.375L132.9 95.375L132.9 95.375L132.9 95.375L132.9 95.375ZM193.3 102.075C193.3 101.875 193.5 101.575 193.5 101.575C193.7 101.375 193.7 101.375 193.7 101.575C193.9 101.775 193.9 102.075 193.7 102.275C192.5 109.475 190.3 113.075 187.2 113.075C184.1 113.075 182.6 110.475 182.6 105.175C182.6 98.675 184.3 91.775 188.1 84.775C189.1 83.075 189.5 82.175 189.8 82.175L189.8 82.175C189.8 82.375 189.6 83.375 189.1 85.075C186.7 92.475 185.5 97.575 185.5 100.675C185.5 104.475 186.5 106.675 188.6 106.675C190.2 106.575 191.7 104.975 193.3 102.075L193.3 102.075L193.3 102.075L193.3 102.075L193.3 102.075ZM249.5 56.975C249.5 56.775 249.7 56.475 249.7 56.475C249.9 56.275 249.9 56.275 249.9 56.475C250.1 56.675 250.1 56.975 249.9 57.175C248.7 64.375 246.5 67.975 243.4 67.975C240.3 67.975 238.8 65.375 238.8 60.075C238.8 53.575 240.5 46.675 244.3 39.675C245.3 37.975 245.7 37.075 246 37.075L246 37.075C246 37.275 245.8 38.275 245.3 39.975C242.9 47.375 241.7 52.475 241.7 55.575C241.7 59.375 242.7 61.575 244.8 61.575C246.4 61.475 247.8 59.775 249.5 56.975L249.5 56.975L249.5 56.975L249.5 56.975L249.5 56.975ZM212.1 6.075C215 6.075 217.4 7.47499 219.5 10.875C221.7 13.975 223.3 18.275 224.1 23.575C224.3 24.075 224.3 24.275 224.3 24.575L224.5 24.575C224.5 24.375 224.7 24.075 224.7 23.575C225.2 20.475 226.4 15.675 228.1 9.375C230 5.075 231.9 2.875 234.1 2.875C235.3 2.875 236.5 3.575 237.5 5.075C238.5 6.47499 238.9 7.47499 238.9 8.47499C238.9 8.97499 238.9 9.87498 238.4 10.875C237.9 12.275 237.4 13.075 237 13.075C236.8 13.075 236.3 12.375 235.3 11.375C234.6 10.375 233.6 9.97499 232.7 9.97499C230.8 9.97499 229.1 14.575 227.4 23.675C226.7 27.775 225.7 30.675 225 32.275C224.3 33.275 223.8 33.975 223.3 33.975C222.8 33.975 222.8 33.275 222.6 32.275C222.8 30.575 221.9 27.475 220 22.875C218.1 18.075 216.9 15.875 215.9 15.875C215.4 15.875 215.2 15.875 214.9 16.375C214.7 16.575 214.4 16.875 213.7 16.875C212.7 16.875 211.8 16.175 210.3 14.975C208.9 13.775 208.4 12.775 208.4 12.075C208.4 11.875 208.9 10.675 210.1 8.67502C211.1 6.77499 211.8 6.075 212.1 6.075L212.1 6.075L212.1 6.075L212.1 6.075L212.1 6.075ZM181.8 30.075C181.8 29.875 182 29.575 182 29.575C182.2 29.375 182.2 29.375 182.2 29.575C182.4 29.775 182.4 30.075 182.2 30.275C181 37.475 178.8 41.075 175.7 41.075C172.6 41.075 171.1 38.475 171.1 33.175C171.1 26.675 172.8 19.775 176.6 12.775C177.6 11.075 178 10.175 178.3 10.175L178.3 10.175C178.3 10.375 178.1 11.375 177.6 13.075C175.2 20.475 174 25.575 174 28.675C174 32.475 175 34.675 177.1 34.675C178.7 34.575 180.1 32.975 181.8 30.075L181.8 30.075L181.8 30.075L181.8 30.075L181.8 30.075ZM575.2 115.975C576.4 114.975 577.4 114.575 578.1 114.575C578.6 114.575 578.8 115.075 578.8 115.975C578.8 116.675 578.6 118.175 578.1 120.075C577.6 121.975 577.4 123.475 577.4 124.675C577.4 129.975 581.2 132.875 588.7 132.875C594.7 132.875 599.7 130.275 603.6 125.175C606 121.075 608.6 117.275 611 113.375C612 112.375 612.7 111.975 613.4 111.975C614.4 111.975 614.6 112.975 614.1 115.075C613.1 119.175 612.4 121.075 612.4 120.575C612.4 122.275 613.4 123.975 615.3 125.375C617 126.775 619.4 127.775 622 127.775C625.4 127.775 627.5 126.775 628.5 125.175C628.5 124.975 627.5 122.975 625.4 119.375C625.6 117.475 626.6 114.075 628 109.575C628.2 108.175 628.7 107.375 629.2 107.375C629.7 107.375 630.2 107.575 630.9 108.575C632.8 111.475 634 114.775 634 118.675C634 124.675 632.6 129.675 629.9 134.075C627 139.375 622.7 141.975 616.9 141.975C613.1 141.975 609.5 138.875 606.3 133.075C601 142.675 594.1 147.475 585.7 147.475C575.6 147.475 570.8 141.675 570.8 130.675C567 135.275 560.5 139.275 552.1 143.175L552.1 129.975C558.3 126.875 562.4 124.975 563.6 124.175C567.5 122.175 571.3 119.375 575.2 115.975L575.2 115.975L575.2 115.975L575.2 115.975L575.2 115.975ZM538.5 131.775C534.9 127.175 531.8 125.075 528.9 125.075C524.6 125.075 522.7 126.075 522.7 128.475C522.7 131.375 525.6 132.775 531.3 132.775C533.4 132.775 535.8 132.275 538.5 131.775L538.5 131.775L538.5 131.775L538.5 131.775L538.5 131.775ZM545.9 149.375C545.9 147.975 545.4 146.275 544.9 144.575C542 145.575 537.7 146.275 532.4 146.275C520.9 146.275 515.1 142.175 515.1 134.275C515.1 128.275 516.8 122.975 520.6 118.175C524.2 114.075 528 111.975 532.1 111.975C535.2 111.975 538.3 113.875 541.9 117.475C545 121.075 547.9 125.175 550.3 130.175C550.5 130.175 551 130.175 552 129.675L552 142.875L551.5 143.375C551.5 146.275 550.8 149.575 549.3 153.975C547.6 159.475 545 164.075 541.9 167.675C534.7 176.275 526.8 183.775 518.1 190.275C505.1 199.875 494.1 204.875 484.5 204.875C476.3 204.875 470.1 201.775 465.8 195.775C462 190.775 460 183.975 460 176.075C460 165.975 462.2 155.675 466.2 144.875C467.4 142.475 467.9 141.475 468.4 141.475C468.6 141.475 468.6 141.675 468.6 142.175C468.6 142.875 468.4 144.075 468.1 145.575C465 156.175 463.5 164.075 463.5 169.575C463.5 174.575 464.7 178.975 467.1 182.575C470.9 187.575 476.9 190.275 485.3 190.275C492.5 190.275 501.1 187.175 511.5 180.875C519.7 175.875 527.6 169.875 535.3 162.675C542.3 155.775 545.9 151.475 545.9 149.375L545.9 149.375L545.9 149.375L545.9 149.375L545.9 149.375ZM480.4 113.075C479.9 110.875 479.2 109.275 478.2 108.075C477.5 106.675 477 105.875 476.8 105.475C476.8 104.975 476.8 103.275 477.3 99.975C477.8 96.875 478 94.675 478.5 93.475C478.7 92.275 479 91.775 479.5 91.775C479.7 91.775 480 91.975 480.5 92.475C483.9 96.275 487.5 100.175 491.5 104.275C493.2 105.975 493.9 106.875 493.9 107.375C493.9 107.575 493.7 107.875 493.2 107.875C492.5 107.875 490.6 107.375 487.7 106.675C489.4 110.775 491.3 114.875 493 118.675C495.6 125.375 497.1 130.875 497.1 135.975C497.1 138.375 496.6 141.275 495.7 144.875C494.5 148.975 493.1 152.075 491.1 154.275C484.1 162.175 472.4 170.875 455.8 180.175C441.4 188.575 433 192.675 430.4 192.675C429.9 192.675 422.7 194.375 409 197.675C394.6 201.075 385.5 203.175 381.9 203.675C378.1 204.375 375.7 204.675 374.7 204.675C374.2 204.675 374.2 204.675 374.2 204.475C374.2 204.275 376.8 202.775 382.1 200.375C384 199.375 395.1 194.575 415.5 185.975C429.7 179.975 441.4 174.475 450.8 169.375C465 161.675 475.8 154.975 483.2 149.475C488.7 145.175 491.6 142.075 491.6 140.075C491.6 139.575 490.2 136.275 487.3 129.975C484 122.975 481.6 117.175 480.4 113.075L480.4 113.075L480.4 113.075L480.4 113.075L480.4 113.075ZM460.7 79.775C460.7 83.575 458.8 88.875 454.9 95.375C452.5 99.475 448.9 104.975 444.1 112.175C448.9 117.675 452.3 122.775 453.9 127.075C454.9 130.175 455.6 134.275 455.6 138.875C455.6 140.775 455.1 143.175 454.2 146.275C453.5 149.175 452.5 151.275 451.6 152.775C449.7 155.675 446.6 158.575 441.8 161.375C436.8 164.775 432.4 166.375 428.8 166.375C423 166.375 420.2 162.075 420.2 153.375C420.2 147.575 421.2 141.875 423.1 136.575C425 131.975 428.1 125.975 433.2 118.075C428.9 113.975 424.3 108.275 419.3 101.075C418.8 100.375 417.6 99.175 415.7 97.275C414.7 96.275 414.3 95.075 414.3 93.675C414.3 91.475 414.5 89.075 415 86.275C415.7 83.375 416.2 82.175 416.4 82.175C417.1 82.175 419.3 83.375 423.4 85.975C427.2 88.575 430.4 90.575 432.3 92.175C433.5 92.875 434 93.575 434 93.575L434 93.775C434 93.975 433.3 94.275 431.6 94.275C428.5 94.275 426.8 94.475 426.8 94.775C426.8 94.975 427.3 95.475 428.2 96.675C432 101.475 435.9 105.075 440 107.975C441 106.575 444.3 101.775 449.6 93.575C454.2 86.575 456.8 81.775 458 78.975C459.2 76.075 459.9 74.875 460.4 74.875C460.5 74.975 460.7 76.375 460.7 79.775L460.7 79.775L460.7 79.775L460.7 79.775L460.7 79.775ZM451.3 138.775C448.7 133.475 444.1 127.975 437.9 122.675C435.7 124.875 433.1 128.875 429.7 134.675C425.9 141.175 424.2 145.275 424.2 147.375C424.2 150.275 426.1 151.675 430.4 151.675C432.3 151.675 434.7 150.975 437.8 149.775C442.1 147.875 446.2 145.175 449.6 141.875C451.1 140.475 451.6 139.475 451.3 138.775L451.3 138.775L451.3 138.775L451.3 138.775L451.3 138.775ZM437.9 61.775L441.7 53.875C441.9 53.375 442.2 53.175 442.7 53.175C443.2 53.175 445.1 54.375 448.9 56.975C452.5 59.375 454.4 60.775 454.4 61.275C454.4 62.975 452.7 66.575 449.6 71.875C449.1 72.575 448.6 72.575 448.2 72.375C445.1 69.975 441.5 67.575 437.4 64.975C436 67.875 434.8 70.475 433.3 72.675C433.1 73.375 432.6 73.675 432.1 73.375C428.5 70.475 424.7 67.875 420.8 65.475C420.6 65.275 420.6 64.975 420.8 64.475L425.4 54.875C425.6 54.375 426.1 53.875 426.4 53.875C426.9 53.875 428.6 55.075 431.7 57.275C434.8 59.075 436.9 60.775 437.9 61.775L437.9 61.775L437.9 61.775L437.9 61.775L437.9 61.775ZM564.4 195.375C561.8 196.075 560.3 196.575 559.8 196.575L559.8 196.375C559.8 196.375 560.8 195.675 562.7 194.475C564.6 193.275 567.5 191.375 571.6 188.275C573.5 186.375 576.4 183.275 580 178.875C582.4 175.975 585 173.375 587.9 171.475C591.5 168.875 594.9 167.675 598.5 167.675C599.2 167.675 600.4 167.875 601.9 168.375C603.1 168.875 604.3 169.075 605.3 169.075C607.2 169.075 608.7 168.375 609.9 166.875C610.6 165.475 611.6 164.275 612.5 162.775C613 161.775 613.7 161.375 614.2 161.375C614.4 161.375 614.4 161.575 614.4 162.075C614.4 162.575 614.2 163.775 613.7 165.175C613.2 165.875 615.1 166.175 618.7 166.175C619.2 166.175 619.4 166.175 619.4 165.975C619.4 165.975 619.2 164.975 618.7 163.375C618.5 162.875 618.7 162.175 619.4 161.175C620.4 159.475 620.8 158.775 621.1 158.975C622.1 159.675 622.5 161.175 622.5 162.775C622.5 164.475 622 166.175 621.3 168.075C620.6 170.275 619.9 171.475 619.4 171.875C617.7 172.875 615.1 172.575 611.5 170.875C608.6 173.775 605.7 175.475 602.9 175.475C602.2 175.475 601 175.275 599.8 174.775C598.6 174.275 597.6 174.075 596.9 174.075C592.1 174.075 587.1 176.275 582 181.075C578.4 184.675 574.8 188.275 571.2 191.875C568.9 193.475 566.8 194.675 564.4 195.375L564.4 195.375L564.4 195.375L564.4 195.375L564.4 195.375ZM512.8 65.775C515.7 65.775 518.1 67.175 520.2 70.575C522.4 73.675 524 77.975 524.8 83.275C525 83.775 525 83.975 525 84.275L525.2 84.275C525.2 84.075 525.4 83.775 525.4 83.275C525.9 80.175 527.1 75.375 528.8 69.075C530.7 64.775 532.6 62.575 534.8 62.575C536 62.575 537.2 63.275 538.2 64.775C539.2 66.175 539.6 67.175 539.6 68.175C539.6 68.675 539.6 69.575 539.1 70.575C538.6 71.975 538.1 72.775 537.7 72.775C537.5 72.775 537 72.075 536 71.075C535.3 70.075 534.3 69.675 533.4 69.675C531.5 69.675 529.8 74.275 528.1 83.375C527.4 87.475 526.4 90.375 525.7 91.975C525 92.975 524.5 93.675 524 93.675C523.5 93.675 523.5 92.975 523.3 91.975C523.5 90.275 522.6 87.175 520.7 82.575C518.8 77.775 517.6 75.575 516.6 75.575C516.1 75.575 515.9 75.575 515.6 76.075C515.4 76.275 515.1 76.575 514.4 76.575C513.4 76.575 512.5 75.875 511 74.675C509.6 73.475 509.1 72.475 509.1 71.775C509.1 71.575 509.6 70.375 510.8 68.375C511.8 66.575 512.5 65.775 512.8 65.775L512.8 65.775L512.8 65.775L512.8 65.775L512.8 65.775ZM472.2 62.975C496.4 53.875 521.6 44.775 547.6 35.175C548.3 34.975 548.8 34.675 548.8 34.975C549 34.975 549 35.475 548.8 36.175C547.8 38.375 547.1 39.575 546.6 39.975C546.4 40.175 534.1 44.775 510.4 53.675C486.2 62.575 472.5 68.075 469.8 69.775C470.3 67.475 471 65.375 472.2 62.975L472.2 62.975L472.2 62.975L472.2 62.975L472.2 62.975ZM448.7 18.975C449.2 17.575 449.2 16.075 448.9 14.675C448.7 13.275 447.9 12.475 446.7 12.475C446.2 12.475 445.5 12.675 444.5 13.175C443.5 13.675 443.1 14.175 443.1 14.575C443.2 15.875 445.1 17.375 448.7 18.975L448.7 18.975L448.7 18.975L448.7 18.975L448.7 18.975ZM445.8 25.275C441.2 22.875 439.1 20.475 439.1 17.875C439.1 14.775 440.5 11.875 443.4 9.47501C446.3 6.875 448.7 5.875 450.6 6.57501C452.3 7.07501 453 8.77501 453 11.575C453 14.175 452.5 17.075 451.3 20.475C453.7 21.675 455.1 22.875 455.6 23.875C455.6 25.075 454.6 27.275 452.5 30.075C452 29.075 450.6 27.875 448.4 26.675C445.8 30.275 442.6 33.375 438.8 36.275C434.2 39.375 430.2 42.075 426.6 43.475C425.6 43.975 421.3 45.675 413.6 48.475C412.4 48.975 411.4 49.175 411.2 49.175C411 49.175 411 48.975 411 48.975C411 48.775 411.5 47.975 412.9 47.275C418.7 43.675 424.4 40.275 430.4 36.975C437.4 32.675 442.5 28.875 445.8 25.275L445.8 25.275L445.8 25.275L445.8 25.275L445.8 25.275ZM597.5 54.975C598 53.575 598 52.075 597.7 50.675C597.5 49.275 596.7 48.475 595.5 48.475C595 48.475 594.3 48.675 593.3 49.175C592.3 49.675 591.9 50.175 591.9 50.575C592 51.875 593.9 53.375 597.5 54.975L597.5 54.975L597.5 54.975L597.5 54.975L597.5 54.975ZM602.8 63.875C600.4 69.675 599.2 74.175 599.2 77.575C599.2 81.675 600.2 83.775 602.3 83.775C603.5 83.775 604.9 82.075 606.6 79.175C606.8 78.975 606.8 78.675 607.1 78.475C607.1 78.475 607.3 78.475 607.3 78.675C607.3 78.675 607.3 78.875 607.3 79.375C605.9 86.575 603.7 90.175 600.8 90.175C597.7 90.175 596.2 87.575 596.2 82.275C596.2 79.675 596.7 76.275 598.1 71.975C599.5 67.675 600.3 65.475 600.3 65.275C600.3 64.775 599.3 63.875 597.2 62.675C593.4 67.675 588.1 72.475 581.4 76.575C576.8 79.175 572.3 81.575 567.5 83.575C558.6 87.175 553.3 89.075 552.1 89.775C550.9 90.275 550.2 90.475 549.7 90.475C549.5 90.475 549.5 90.275 549.5 90.275C549.5 89.775 550 89.275 551.4 88.375C559.1 84.075 566.5 79.775 574.2 75.375C584.3 69.575 591.2 64.775 594.6 61.175C590 58.775 587.9 56.375 587.9 53.775C587.9 50.675 589.3 47.775 592.2 45.175C595.1 42.775 597.5 41.775 599.4 42.575C600.8 43.075 601.8 44.775 601.8 47.575C601.8 50.175 601.3 53.075 600.1 56.175C602.5 57.575 603.5 59.075 603.5 60.475C603.5 61.275 603.3 62.475 602.8 63.875L602.8 63.875L602.8 63.875L602.8 63.875L602.8 63.875ZM493.6 29.075C493.6 28.875 493.8 28.575 493.8 28.575C494 28.375 494 28.375 494 28.575C494.2 28.775 494.2 29.075 494 29.275C492.8 36.475 490.6 40.075 487.5 40.075C484.4 40.075 482.9 37.475 482.9 32.175C482.9 25.675 484.6 18.775 488.4 11.775C489.4 10.075 489.8 9.175 490.1 9.175L490.1 9.175C490.1 9.375 489.9 10.375 489.4 12.075C487 19.475 485.8 24.575 485.8 27.675C485.8 31.475 486.8 33.675 488.9 33.675C490.5 33.675 491.9 31.975 493.6 29.075L493.6 29.075L493.6 29.075L493.6 29.075L493.6 29.075Z" id="Group" fill="#595959" stroke="none" clip-path="url(#clip_1)" />
  </g>
</svg>