<?xml version="1.0" encoding="utf-8"?>
<svg width="536.0001px" height="212.5px" viewBox="0 0 536.0001 212.5" version="1.1" xmlns:xlink="http://www.w3.org/1999/xlink" xmlns="http://www.w3.org/2000/svg">
  <defs>
    <path d="M536 0L536 0L536 212.5L0 212.5L0 0L536 0Z" id="path_1" />
    <clipPath id="clip_1">
      <use xlink:href="#path_1" clip-rule="evenodd" fill-rule="evenodd" />
    </clipPath>
  </defs>
  <g id="Surah_32_of_114_(modified)">
    <path d="M536 0L536 0L536 212.5L0 212.5L0 0L536 0Z" id="Surah_32_of_114_(modified)" fill="none" stroke="none" />
    <path d="M275.1 127.9C280.2 119.7 282.8 108.7 282.8 94.5C282.8 89.5 282.1 77.5 280.7 58.6C279.2 39.4 278.5 29.5 278.5 29.3C278.5 28.1 278.7 27.8 279.2 28.3C283.2 33.1 285.4 34.6 285.4 32.4C285.4 31.7 285.1 30.7 284.9 29.3C284.2 27.4 282.5 22.6 279.4 14.9C276.7 7.5 274.8 2.89999 274.1 1C273.6 0.199997 273.4 0 272.9 0C272.7 0 272.4 0.300003 272.2 1C269.3 7.39999 267.9 11.5 267.9 13.2C269.3 16.3 270.3 20.1 270.3 24.7C270.3 28.8 271 42.5 272.7 65.5C274.3 88.3 275.3 102 275.3 106.3C275.3 113.1 274.6 117.1 273.4 118.1C269.1 121.7 264.6 123.6 260 123.6L260 123.3C256.9 123.6 254.3 122.4 252.1 120.2C250 118.3 249 115.7 249 112.3C249 111.3 249 110.4 249.2 109.4C249.4 107.5 249.2 106.8 248.2 106.8C247.5 106.8 246.8 107.3 246.3 108.5C240.6 120 233.6 125.8 225.7 125.8C222.6 125.8 220.2 124.4 218.3 121.5C216.8 119.3 216.1 117.4 216.1 115.7C216.1 114.9 216.6 113.5 217.3 111.1C218.1 109.4 217.8 108.7 217.1 108.7C216.7 108.7 214.7 110.7 210.9 114.5C207.1 118.9 204.7 121.3 204.2 121.5C198.7 125.8 193.2 128.2 187.4 128.2C183.3 128.2 180.4 126.5 179 123.4C178.5 122.9 177.8 120 176.6 115C175.9 111.8 174.4 110.4 172.5 110.4C170.1 110.4 167.2 112.1 164.1 115.7C160.3 120.3 156.4 124.8 152.6 129.4C148.3 134.2 143 138.3 136.3 141.4C134.6 142.3 129.6 144.5 121.4 147.6C116.48 149.433 113.7 151.08 112.612 152.9L111.9 152.9C109.8 157.2 108.1 160.6 106.9 163C106.7 163.2 106.7 163.5 106.7 163.7C106.7 164.2 108.1 164.7 111 164.9C125.9 166.1 141 167.8 156.4 170.2C139.535 179.668 127.437 184.467 120.2 184.597L120.2 184.2C116.6 184.2 113.7 183.7 112 182.5C108.7 180.4 106.5 176.1 105.3 169.1C102.7 153.3 100.3 140.8 98.6 131.9C94.5 112 88 96.2 79.6 84.9C78.6 83.7 77.9 84.2 77.4 85.9C76.9 87.3 76.7 89.7 76.2 93.1C75.5 96.7 75.3 98.6 75.5 99.1C82.7 114.9 87.5 126.4 89.4 134.1C91.8 144.1 93.2 151.3 93.2 155.9C93.2 157.9 92.9 159.3 92.2 160.5C92.2 160.5 91.5 161.7 89.6 164.1C84.1 171.5 76.4 178.5 66.6 185.2C53.9 193.9 42.1 198.2 31.1 198.2C23.4 198.2 19.5 194.4 19.7 186.3C19.7 180.8 21.1 172.9 24 162.3C24.5 160.8 24.7 159.6 24.7 158.9C24.7 158.486 24.7 158.278 24.5865 158.218C25.5328 157.682 26.5045 157.077 27.5 156.4C32.3 153.6 35.4 150.7 37.3 147.8C38.2 146.3 39.2 144.2 39.9 141.3C40.8 138.2 41.3 135.8 41.3 133.9C41.3 129.3 40.6 125.2 39.6 122.1C38 117.8 34.6 112.7 29.8 107.2C34.6 100 38.2 94.5 40.6 90.4C44.5 83.9 46.4 78.6 46.4 74.8C46.4 71.5 46.2 70 46.1 69.9C45.6 69.9 44.9 71.1 43.7 74C42.5 76.8 39.9 81.6 35.3 88.6C30 96.8 26.7 101.6 25.7 103C21.6 100.1 17.7 96.5 13.9 91.7C13 90.5 12.5 90 12.5 89.8C12.5 89.5 14.2 89.3 17.3 89.3C19 89.3 19.7 89 19.7 88.8L19.7 88.6C19.7 88.6 19.2 87.9 18 87.2C16.1 85.6 12.9 83.6 9.09998 81C4.99998 78.4 2.79998 77.2 2.09998 77.2C1.89998 77.2 1.39998 78.4 0.699982 81.3C0.199982 84.1 -1.52588e-05 86.5 -1.52588e-05 88.7C-1.52588e-05 90.1 0.399986 91.3 1.39999 92.3C3.29999 94.2 4.49999 95.4 4.99998 96.1C9.99998 103.3 14.6 109 18.9 113.1C13.8 121 10.7 127 8.79999 131.6C6.89999 136.9 5.89999 142.6 5.89999 148.4C5.89999 157.1 8.69998 161.4 14.5 161.4C17.2208 161.4 20.3985 160.486 23.9469 158.572C23.5143 159.084 22.9756 160.114 22.3 161.6C18.3 172.2 16.1 182.7 16.1 192.8C16.1 198.1 17 202.4 19.2 206C21.9 210.3 26 212.5 31 212.5C40.8 212.5 51.6 208.6 63.4 201.2C73.5 194.8 82.4 187.1 89.6 178.2C93.2 173.6 95.6 167.9 96.8 160.9C98 169.8 98.9 175.5 99.4 178.4C101 186.8 103.7 192.6 108 195.7C110.747 197.76 114.745 198.762 119.9 198.799L119.9 199.2C123.2 199.2 129 197 137.4 192.7C149.9 186.2 157.3 182.6 160.2 181.4C172.2 176.4 186.4 174 202.7 174C203.7 174 204.2 173.5 204.9 172.3L209.9 162.2C210.3 161.7 210.3 161.2 210.4 161.1C210.4 160.3 208.9 160.1 206.3 160.1C195.5 160.1 181.1 159.1 163.3 156.7C149.966 154.916 141.57 153.749 137.78 153.034C143.961 147.942 150.932 141.264 158.3 132.9C163.1 127.6 166.9 125 169.8 125C170.5 125 171.2 126.9 172 130.7C173.6 138.6 177.7 142.7 184.2 142.7C189.9 142.7 195.7 140 201.7 135C205.3 131.6 208 128.5 209.9 125.4C210.4 124.7 210.7 124.2 210.9 124.2C210.9 124.2 211.1 124.7 211.1 125.4C212.5 135.3 217.3 140.3 225 140.3C232.7 140.3 238.7 134.8 243 124C243.2 122.8 243.7 122.8 244.2 124C247.3 133.3 252.6 137.9 260 137.9L260 138.2C265.7 138.2 270.8 134.6 275.1 127.9ZM137.78 153.034L137.7 153.1L112.5 153.1C112.535 153.033 112.573 152.966 112.612 152.9L137.1 152.9C137.307 152.943 137.534 152.987 137.78 153.034ZM288.3 16.5C289.8 19.7 290.5 23.5 290.5 28.3C290.5 32.4 291.7 51.3 294.2 85.2C296.6 119 297.8 138.2 297.8 143C297.8 148.1 297.6 152.6 297.1 156.7C297.071 157.079 297.042 157.444 297.014 157.793C296.85 159.835 296.729 161.346 296.9 162.2C297.1 162.9 297.4 162.9 298.1 161.7C298.6 160.8 299 159.6 300 157.9C303.3 149.3 305 139.2 305 127.9C305 124.1 304.1 107.5 301.9 78C299.7 48.3 298.5 33.4 298.5 32.9C298.5 31.7 298.7 31.2 299.2 31.9C303.5 36.7 305.4 37.9 305.4 35.7C305.4 35.2 305.4 34 304.9 32.8C304.4 30.9 302.7 26.1 299.6 18.2C296.7 10.7 295 6.20001 294.3 4.50002C293.8 3.80002 293.6 3.30002 293.1 3.30002C292.9 3.30002 292.6 3.80002 292.4 4.50002C289.5 10.7 288.3 14.8 288.3 16.5ZM341.2 17.8C341.2 20.4 343.3 22.8 347.9 25.2C344.5 28.8 339.5 32.6 332.5 36.9C326.5 40.2 320.8 43.6 315 47.2C313.6 47.9 313.1 48.7 313.1 48.9C313.1 48.9 313.1 49.1 313.3 49.1C313.5 49.1 314.5 48.9 315.7 48.4C323.4 45.6 327.7 43.9 328.7 43.4C332.3 42 336.3 39.3 340.9 36.2C344.7 33.3 347.9 30.2 350.5 26.6C352.7 27.8 354.1 29 354.6 30C356.7 27.2 357.7 25 357.7 23.8C357.2 22.8 355.8 21.6 353.4 20.4C354.6 17 355.1 14.1 355.1 11.5C355.1 8.70003 354.4 7.00003 352.7 6.50003C350.8 5.80002 348.4 6.80002 345.5 9.40002C342.6 11.8 341.2 14.7 341.2 17.8ZM251.2 8.80002C208.9 24.7 167.7 40 127.1 55.4C125.9 57.8 125.1 60 124.7 62.1C169.6 44.1 211.6 28 250.2 13.6C250.7 13.2 251.4 12 252.4 9.80002C252.6 9.10002 252.6 8.60002 252.4 8.60002C252.4 8.38666 252.147 8.47679 251.749 8.61858C251.588 8.67616 251.402 8.74226 251.2 8.80002ZM189 13.6C188 16 187.3 17.4 186.8 17.7C186.8 17.9 165 26.1 121.5 42.4C87.9 54.9 69.2 62.1 65.3 64.2C61.7 65.9 60 67.3 60 67.8C60 68.3 60.5 68.8 61.7 69.5C62.9 70 64.8 70.7 67.2 71.7C67.7 71.9001 67.9 72.9001 67.9 74.6C67.9 76 67.9 77 67.7 77.2C67.7 77.4001 67 77.4001 66.3 77.4001C60.3 76.2 57.4 74.0001 57.4 71.2C57.4 69.3 58.1 67.1 59.8 64.5C61.5 61.9 63.2 59.9 64.8 58.7C67.2 57.3 86.2 49.8 121.4 36.9C143 29 165.1 20.8 187.6 12.7C187.778 12.6491 187.944 12.5916 188.094 12.5393C188.535 12.3861 188.851 12.2765 189 12.5C189.2 12.4 189.2 12.9 189 13.6ZM350.9 14.6C351.2 16 351.2 17.5 350.7 18.9C347.1 17.2 345.2 15.8 345.1 14.5C345.1 14.1 345.5 13.6 346.5 13.1C347.5 12.6 348.2 12.4 348.7 12.4C349.9 12.4 350.7 13.2 350.9 14.6ZM392.5 31.9C392.5 31.9 392.3 32.2 392.3 32.4C390.6 35.2 389.1 36.9 387.6 37C385.5 37 384.5 34.8 384.5 31C384.5 27.9 385.7 22.8 388.1 15.4C388.6 13.7 388.8 12.7 388.8 12.5C388.5 12.5 388.1 13.4 387.1 15.1C383.3 22.1 381.6 29 381.6 35.5C381.6 40.8 383.1 43.4 386.2 43.4C389.3 43.4 391.5 39.8 392.7 32.6C392.9 32.4 392.9 32.1 392.7 31.9C392.7 31.8093 392.7 31.7598 392.681 31.7513C392.659 31.7411 392.609 31.7907 392.5 31.9ZM374.3 62.8C398.5 53.7 423.7 44.6 449.7 35C449.902 34.9423 450.088 34.8762 450.249 34.8186C450.647 34.6768 450.9 34.5867 450.9 34.8C451.1 34.8 451.1 35.3 450.9 36C449.9 38.2 449.2 39.4 448.7 39.8C448.5 40 436.2 44.6 412.5 53.5C388.3 62.4 374.6 67.9 371.9 69.6C372.3 67.4 373.1 65.2 374.3 62.8ZM250.6 59.5C250.6 59.5 250.4 59.8 250.4 60C248.7 62.8 247.3 64.5 245.7 64.6C243.6 64.6 242.6 62.4 242.6 58.6C242.6 55.5 243.8 50.4 246.2 43C246.7 41.3 246.9 40.3 246.9 40.1C246.6 40.1 246.2 41 245.2 42.7C241.4 49.7 239.7 56.6 239.7 63.1C239.7 68.4 241.2 71 244.3 71C247.4 71 249.6 67.4 250.8 60.2C251 60 251 59.7 250.8 59.5C250.8 59.4093 250.8 59.3597 250.781 59.3513C250.759 59.3411 250.71 59.3905 250.6 59.5ZM504.8 64C502.4 69.8 501.2 74.3 501.2 77.7C501.2 81.8 502.2 83.9 504.3 83.9C505.5 83.9 506.9 82.2 508.6 79.3C508.8 79.1 508.8 78.8 509.1 78.6C509.1 78.6 509.3 78.6 509.3 78.8L509.3 79.5C507.9 86.7 505.7 90.3 502.8 90.3C499.7 90.3 498.2 87.7 498.2 82.4C498.2 79.8 498.7 76.4 500.1 72.1C501.5 67.8 502.3 65.6 502.3 65.4C502.3 64.9 501.3 64 499.2 62.8C495.4 67.8 490.1 72.6 483.4 76.7C478.8 79.3 474.3 81.7 469.5 83.7C460.6 87.3 455.3 89.2 454.1 89.9C452.9 90.4 452.2 90.6 451.7 90.6C451.5 90.6 451.5 90.4 451.5 90.4C451.5 89.9 452 89.4 453.4 88.5C461.1 84.2 468.5 79.9 476.2 75.5C486.3 69.7 493.2 64.9 496.6 61.3C492 58.9 489.9 56.5 489.9 53.9C489.9 50.8 491.3 47.9 494.2 45.3C497.1 42.9 499.5 41.9 501.4 42.7C502.8 43.2 503.8 44.9 503.8 47.7C503.8 50.3 503.3 53.2 502.1 56.3C504.5 57.7 505.5 59.2 505.5 60.6C505.5 61.4 505.3 62.6 504.8 64ZM499.5 55.2C500 53.8 500 52.3 499.7 50.9C499.5 49.5 498.7 48.7 497.5 48.7C497 48.7 496.3 48.9 495.3 49.4C494.3 49.9 493.9 50.4 493.9 50.8C494 52 495.9 53.5 499.5 55.2ZM23.4 60L27.2 52.1C27.4 51.6 27.7 51.4 28.2 51.4C28.7 51.4 30.6 52.6 34.4 55.2C38 57.6 39.9 59 39.9 59.5C39.9 61.2 38.2 64.8 35.1 70.1C34.6 70.8 34.1 70.8 33.7 70.6C30.6 68.2 27 65.8 22.9 63.2C21.5 66.1 20.3 68.7 18.8 70.9C18.6 71.6 18.1 71.9 17.6 71.6C14 68.7 10.2 66.1 6.3 63.7C6.1 63.5 6.1 63.2 6.3 62.7L10.9 53.1C11.1 52.6 11.6 52.1 11.9 52.1C12.4 52.1 14.1 53.3 17.2 55.5C20.3 57.3 22.4 59 23.4 60ZM343.7 53.7L339.9 61.6C339 60.7 336.8 59 333.7 57.1C330.6 54.9 328.9 53.7 328.4 53.7C328.1 53.7 327.6 54.2 327.4 54.7L322.8 64.3C322.6 64.8 322.6 65.1 322.8 65.3C326.7 67.7 330.5 70.3 334.1 73.2C334.6 73.5 335.1 73.2 335.3 72.5C336.8 70.3 338 67.7 339.4 64.8C343.5 67.4 347.1 69.8 350.2 72.2C350.6 72.4 351.1 72.4 351.6 71.7C354.7 66.4 356.4 62.8 356.4 61.1C356.4 60.6 354.5 59.2 350.9 56.8C347.1 54.2 345.2 53 344.7 53C344.2 53 343.9 53.2 343.7 53.7ZM219.9 70C219.9 71.9 219.4 74.1 218.5 76C217.3 78.6 215.9 80.1 214.2 80.1C211.3 80.1 209.4 78.2 208.2 74.3C206.8 79.1 204.4 81.7 200.8 81.7C199.6 81.7 198.4 81 197.4 79.5C196.2 78.1 195.7 75.9 195.7 73.5L195.7 67.3C195.7 66.8 195.2 66.6 194.7 66.3C194 66.1 193.7 65.6 193.7 64.9C193.7 63.5 194.2 62.3 195.1 61.1C196.1 59.9 196.8 59.4 197.3 59.4C198 59.4 198.5 60.6 198.5 63.2C198.5 64.6 198.3 65.8 198.3 66.8C198.1 67.8 198.1 68.5 198.1 69.2C198.1 70.6 198.3 72.1 198.8 73.3C199.5 74.7 200.5 75.7 201.4 75.7C202.8 75.7 204 75 205.2 73.8C206.4 72.6 207.1 71.2 207.1 69.5C207.1 68.5 206.6 67.1 206.1 64.7C205.4 62.5 205.1 61.1 205.1 60.6C205.1 60.1 205.3 59.4 205.8 58.2C206.3 57.2 206.8 56.8 207 56.8C207.5 56.8 208 58.2 208.7 61.1C209.4 64.2 209.9 66.4 209.9 67.8C209.9 71.9 211.3 74 214.5 74C215.9 74 216.9 73.3 217.1 71.8C214.5 67 213 63.4 213 60.8C213 59.4 213.2 58.2 214.2 57C214.7 56.3 214.9 55.8 215.2 55.8C215.4 55.8 215.7 56.3 215.7 57.2C215.9 58.4001 216.2 59.6 216.4 60.6C216.4 60.6 217.1 62.3 218.3 65.6C219.5 67.6 219.9 69.1 219.9 70ZM422.2 70.5C420.1 67.1 417.7 65.7 414.8 65.7C414.6 65.7 413.9 66.4 412.8 68.3C411.6 70.3 411.1 71.5 411.1 71.7C411.1 72.4 411.6 73.4 413 74.6C414.5 75.8 415.4 76.5 416.4 76.5C417.1 76.5 417.4 76.2 417.6 76C417.9 75.5 418.1 75.5 418.6 75.5C419.6 75.5 420.8 77.7 422.7 82.5C424.6 87.1 425.5 90.2 425.3 91.9C425.5 92.9 425.5 93.6 426 93.6C426.5 93.6 427 92.9 427.7 91.9C428.4 90.3 429.4 87.4 430.1 83.3C431.8 74.2 433.5 69.6 435.4 69.6C436.3 69.6 437.3 70 438 71C439 72 439.5 72.7 439.7 72.7C440.1 72.7 440.6 71.9 441.1 70.5C441.6 69.5 441.6 68.6 441.6 68.1C441.6 67.1 441.2 66.1 440.2 64.7C439.2 63.2 438 62.5 436.8 62.5C434.6 62.5 432.7 64.7 430.8 69C429.1 75.3 427.9 80.1 427.4 83.2C427.4 83.7 427.2 84 427.2 84.2L427 84.2C427 83.9 427 83.7 426.8 83.2C426 77.9 424.4 73.6 422.2 70.5ZM158.7 67.6C159.4 66.4 160.4 65.9 161.1 65.9C161.6 65.9 162.1 66.1 162.1 66.6C162.1 66.6 161.9 66.8 161.9 67.1C160.9 69.3 160 71.7 159.3 74.1C164.3 77.7 166.7 81.5 166.5 85.1C166 89.2 165.5 91.8 164.8 92.8C162.4 95.7 159.8 97.4 156.4 97.4C153 97.4 151.6 95.2 151.6 91.4C151.6 90.7 151.6 89.7 151.8 88.8C153 81.1 155.4 74.1 158.7 67.6ZM362.7 79.6C362.7 83.4 360.8 88.7 356.9 95.2C354.5 99.3 350.9 104.8 346.1 112C350.9 117.5 354.3 122.6 355.9 126.9C356.9 130 357.6 134.1 357.6 138.7C357.6 140.6 357.1 143 356.2 146.1C355.5 149 354.5 151.1 353.6 152.6C351.7 155.5 348.6 158.4 343.8 161.2C338.8 164.6 334.4 166.2 330.8 166.2C325 166.2 322.2 161.9 322.2 153.2C322.2 147.4 323.2 141.7 325.1 136.4C327 131.8 330.1 125.8 335.2 117.9C330.9 113.8 326.3 108.1 321.3 100.9C320.8 100.2 319.6 99 317.7 97.1C316.7 96.1 316.3 94.9 316.3 93.5C316.3 91.3 316.5 88.9 317 86.1C317.7 83.2 318.2 82 318.4 82C319.1 82 321.3 83.2 325.4 85.8C329.2 88.4 332.4 90.4 334.3 92C335.5 92.7 336 93.4 336 93.4L336 93.6C336 93.8 335.3 94.1 333.6 94.1C330.5 94.1 328.8 94.3 328.8 94.6C328.8 94.8 329.3 95.3 330.2 96.5C334 101.3 337.9 104.9 342 107.8C343 106.4 346.3 101.6 351.6 93.4C356.2 86.4 358.8 81.6 360 78.8C361.2 75.9 361.9 74.7 362.4 74.7C362.5 74.8 362.7 76.3 362.7 79.6ZM106.9 83.7C109.8 83.7 112.2 85.1 114.3 88.5C116.5 91.6 118.1 95.9 118.9 101.2C119.1 101.7 119.1 101.9 119.1 102.2L119.3 102.2C119.3 102 119.5 101.7 119.5 101.2C120 98.1 121.2 93.3 122.9 87C124.8 82.7 126.7 80.5 128.9 80.5C130.1 80.5 131.3 81.2 132.3 82.7C133.3 84.1 133.7 85.1 133.7 86.1C133.7 86.6 133.7 87.5 133.2 88.5C132.7 89.9 132.2 90.7 131.8 90.7C131.6 90.7 131.1 90 130.1 89C129.4 88 128.4 87.6 127.5 87.6C125.6 87.6 123.9 92.2 122.2 101.3C121.5 105.4 120.5 108.3 119.8 109.9C119.1 110.9 118.6 111.6 118.1 111.6C117.6 111.6 117.6 110.9 117.4 109.9C117.6 108.2 116.7 105.1 114.8 100.5C112.9 95.7 111.7 93.5 110.7 93.5C110.2 93.5 110 93.5 109.7 94C109.5 94.2 109.2 94.5 108.5 94.5C107.5 94.5 106.6 93.8 105.1 92.6C103.7 91.4 103.2 90.4 103.2 89.7C103.2 89.5 103.7 88.3 104.9 86.3C105.9 84.4 106.7 83.7 106.9 83.7ZM164 86.8C164 85.6 161.6 83.4 156.6 80.6C154.9 83.5 154.2 86.1 154.2 88.5C154.2 89.9 154.9 90.9 156.4 90.9C157.6 90.9 159 90.4 160.7 89.5C162.3 88.8 163.5 87.8 164 86.8ZM380.2 108C381.2 109.2 381.9 110.8 382.4 113C383.6 117.1 386 122.8 389.3 129.9C392.2 136.2 393.6 139.5 393.6 140C393.6 142 390.7 145.1 385.2 149.4C380.337 153.014 374.007 157.146 366.208 161.74C366.935 157.237 368.225 151.813 370.1 145.4C370.4 143.9 370.6 142.7 370.6 142C370.6 141.5 370.6 141.3 370.4 141.3C369.9 141.3 369.4 142.3 368.2 144.7C365.811 151.151 364.064 157.424 363.044 163.582C359.852 165.42 356.438 167.327 352.8 169.3C343.4 174.4 331.7 179.9 317.5 185.9C297.1 194.5 286 199.3 284.1 200.3C278.8 202.7 276.2 204.2 276.2 204.4C276.2 204.6 276.2 204.6 276.7 204.6C277.7 204.6 280.1 204.3 283.9 203.6C287.5 203.1 296.6 201 311 197.6C324.7 194.3 331.9 192.6 332.4 192.6C335 192.6 343.4 188.5 357.8 180.1C359.249 179.288 360.66 178.481 362.034 177.679C362.314 184.822 364.288 190.979 367.8 195.6C372.1 201.6 378.3 204.7 386.5 204.7C396.1 204.7 407.1 199.7 420.1 190.1C428.8 183.6 436.7 176.1 443.9 167.5C447 163.9 449.6 159.3 451.3 153.8C452.8 149.4 453.5 146.1 453.5 143.2L454 142.7L454 129.5C453 130 452.5 130 452.3 130C449.9 125 447 120.9 443.9 117.3C440.3 113.7 437.2 111.8 434.1 111.8C430 111.8 426.2 113.9 422.6 118C418.8 122.8 417.1 128.1 417.1 134.1C417.1 142 422.9 146.1 434.4 146.1C439.7 146.1 444 145.4 446.9 144.4C447.4 146.1 447.9 147.8 447.9 149.2C447.9 151.4 444.3 155.7 437.3 162.5C429.6 169.7 421.7 175.7 413.5 180.7C403.1 187 394.5 190.1 387.3 190.1C378.9 190.1 372.9 187.4 369.1 182.4C367.687 180.28 366.689 177.882 366.108 175.248C378.372 167.763 387.332 160.71 393.1 154.2C395.1 152 396.5 148.9 397.7 144.8C398.6 141.2 399.1 138.3 399.1 135.9C399.1 130.8 397.6 125.3 395 118.6C393.3 114.8 391.4 110.7 389.7 106.6C392.6 107.3 394.5 107.8 395.2 107.8C395.7 107.8 395.9 107.5 395.9 107.3C395.9 106.8 395.2 105.9 393.5 104.2C389.5 100.1 385.9 96.2 382.5 92.4C382 91.9 381.7 91.7 381.5 91.7C381 91.7 380.7 92.2 380.5 93.4C380 94.6 379.8 96.8 379.3 99.9C378.8 103.2 378.8 104.9 378.8 105.4C379 105.8 379.5 106.6 380.2 108ZM480.1 114.5C479.4 114.5 478.4 114.9 477.2 115.9C473.4 119.2 469.5 122.1 465.6 124.1C464.4 124.9 460.3 126.8 454.1 129.9L454.1 143.1C462.5 139.2 469 135.2 472.8 130.6C472.8 141.6 477.6 147.4 487.7 147.4C496.1 147.4 503 142.6 508.3 133C511.5 138.8 515.1 141.9 518.9 141.9C524.7 141.9 529 139.3 531.9 134C534.6 129.6 536 124.6 536 118.6C536 114.7 534.8 111.4 532.9 108.5C532.2 107.5 531.7 107.3 531.2 107.3C530.7 107.3 530.2 108.1 530 109.5C528.6 114 527.6 117.4 527.4 119.3C529.5 122.9 530.5 124.9 530.5 125.1C529.5 126.7 527.4 127.7 524 127.7C521.4 127.7 519 126.7 517.3 125.3C515.4 123.9 514.4 122.2 514.4 120.5C514.4 121 515.1 119.1 516.1 115C516.6 112.9 516.4 111.9 515.4 111.9C514.7 111.9 514 112.3 513 113.3C510.6 117.2 508 121 505.6 125.1C501.7 130.2 496.7 132.8 490.7 132.8C483.2 132.8 479.4 129.9 479.4 124.6C479.4 123.4 479.6 121.9 480.1 120C480.6 118.1 480.8 116.6 480.8 115.9C480.8 115 480.6 114.5 480.1 114.5ZM66.6 129.1C66.6 128.9 66.8 128.6 66.8 128.6C66.9093 128.491 66.9589 128.441 66.9813 128.451C67 128.46 67 128.509 67 128.6C67.2 128.8 67.2 129.1 67 129.3C65.8 136.5 63.6 140.1 60.5 140.1C57.4 140.1 55.9 137.5 55.9 132.2C55.9 125.7 57.6 118.8 61.4 111.8C62.4 110.1 62.8 109.2 63.1 109.2C63.1 109.4 62.9 110.4 62.4 112.1C60 119.5 58.8 124.6 58.8 127.7C58.8 131.5 59.8 133.7 61.9 133.7C63.5 133.6 64.9 132 66.6 129.1ZM23.7 117.8C29.9 123.1 34.5 128.6 37.1 133.9C37.3 134.6 36.8 135.6 35.4 137C32 140.3 27.9 143 23.6 144.9C20.5 146.1 18.1 146.8 16.2 146.8C11.9 146.8 9.99999 145.4 9.99999 142.5C9.99999 140.4 11.7 136.3 15.5 129.8C18.9 124 21.5 120 23.7 117.8ZM353.4 138.7C350.8 133.4 346.2 127.9 340 122.6C337.8 124.8 335.2 128.8 331.8 134.6C328 141.1 326.3 145.2 326.3 147.3C326.3 150.2 328.2 151.6 332.5 151.6C334.4 151.6 336.8 150.9 339.9 149.7C344.2 147.8 348.3 145.1 351.7 141.8C353.1 140.4 353.6 139.4 353.4 138.7ZM440.5 131.7C436.9 127.1 433.8 125 430.9 125C426.6 125 424.7 126 424.7 128.4C424.7 131.3 427.6 132.7 433.3 132.7C435.33 132.7 437.529 132.274 439.9 131.816C440.099 131.777 440.299 131.739 440.5 131.7ZM466.4 195.3C463.8 196 462.3 196.5 461.8 196.5L461.8 196.3C461.8 196.3 462.8 195.6 464.7 194.4C466.6 193.2 469.5 191.3 473.6 188.2C475.5 186.3 478.4 183.2 482 178.8C484.4 175.9 487 173.3 489.9 171.4C493.5 168.8 496.9 167.6 500.5 167.6C501.2 167.6 502.4 167.8 503.9 168.3C505.1 168.8 506.3 169 507.3 169C509.2 169 510.7 168.3 511.9 166.8C512.6 165.4 513.6 164.2 514.5 162.7C515 161.7 515.7 161.3 516.2 161.3C516.4 161.3 516.4 161.5 516.4 162C516.4 162.5 516.2 163.7 515.7 165.1C515.2 165.8 517.1 166.1 520.7 166.1C521.2 166.1 521.4 166.1 521.4 165.9C521.4 165.9 521.2 164.9 520.7 163.3C520.5 162.8 520.7 162.1 521.4 161.1L521.48 160.964C522.422 159.363 522.808 158.705 523.1 158.9C524.1 159.6 524.5 161.1 524.5 162.7C524.5 164.4 524 166.1 523.3 168C522.6 170.2 521.9 171.4 521.4 171.8C519.7 172.8 517.1 172.5 513.5 170.8C510.6 173.7 507.7 175.4 504.9 175.4C504.2 175.4 503 175.2 501.8 174.7C500.6 174.2 499.6 174 498.9 174C494.1 174 489.1 176.2 484 181L473.2 191.8C471 193.4 468.8 194.6 466.4 195.3ZM55.8 163.4C44.7 167.2 34.4 171 24.8 174.4C23.6 176.8 22.9 179 22.5 181.2C34.7 175.6 45.5 171.6 55.1 168.2C55.6 167.8 56.3 166.6 57 164.4C57.4 163.7 57.4 163.2 57.2 163.2C57.077 163.016 56.954 163.058 56.645 163.164C56.4515 163.231 56.1851 163.323 55.8 163.4ZM218.7 203.2C219.2 203.2 220.7 202.7 223.3 202C225.7 201.3 227.9 200.1 230.1 198.5L240.9 187.7C246 182.9 251 180.7 255.8 180.7C256.5 180.7 257.5 180.9 258.7 181.4C259.9 181.9 261.1 182.1 261.8 182.1C264.6 182.1 267.5 180.4 270.4 177.5C274 179.2 276.6 179.5 278.3 178.5C278.8 178.1 279.5 176.9 280.2 174.7C280.9 172.8 281.4 171.1 281.4 169.4C281.4 167.8 281 166.3 280 165.6C279.708 165.405 279.322 166.063 278.38 167.664L278.3 167.8C277.6 168.8 277.4 169.5 277.6 170C278.1 171.6 278.3 172.6 278.3 172.6C278.3 172.8 278.1 172.8 277.6 172.8C274 172.8 272.1 172.5 272.6 171.8C273.1 170.4 273.3 169.2 273.3 168.7C273.3 168.2 273.3 168 273.1 168C272.6 168 271.9 168.4 271.4 169.4C270.5 170.9 269.5 172.1 268.8 173.5C267.6 175 266.1 175.7 264.2 175.7C263.2 175.7 262 175.5 260.8 175C259.3 174.5 258.1 174.3 257.4 174.3C253.8 174.3 250.4 175.5 246.8 178.1C243.9 180 241.3 182.6 238.9 185.5C235.3 189.9 232.4 193 230.5 194.9C226.4 198 223.5 199.9 221.6 201.1C219.7 202.3 218.7 203 218.7 203L218.7 203.2ZM170.7 196C170.5 196.5 170.5 196.8 170.7 197C174.6 199.4 178.4 202 182.1 204.9C182.59 205.194 182.792 204.911 183.271 204.24L183.3 204.2C186.6 198.9 188.3 195.6 188.3 193.9C188.3 193.4 186.3 191.9 182.5 189.3C178.9 186.9 176.8 185.7 176.3 185.7C176 185.7 175.5 185.9 175.3 186.4L170.7 196Z" id="Group" fill="#595959" fill-rule="evenodd" stroke="none" clip-path="url(#clip_1)" />
  </g>
</svg>