<?xml version="1.0" encoding="utf-8"?>
<svg width="497.2001px" height="205.49997px" viewBox="0 0 497.2001 205.49997" version="1.1" xmlns:xlink="http://www.w3.org/1999/xlink" xmlns="http://www.w3.org/2000/svg">
  <defs>
    <path d="M497.2 0L497.2 0L497.2 205.5L0 205.5L0 0L497.2 0Z" id="path_1" />
    <clipPath id="clip_1">
      <use xlink:href="#path_1" clip-rule="evenodd" fill-rule="evenodd" />
    </clipPath>
  </defs>
  <g id="Surah_68_of_114_(modified)">
    <path d="M497.2 0L497.2 0L497.2 205.5L0 205.5L0 0L497.2 0Z" id="Surah_68_of_114_(modified)" fill="none" stroke="none" />
    <path d="M205.3 0C204.6 0 203.6 0.5 202.9 1.7C199.6 8.2 197.2 15.2 196 22.9C195.8 23.8 195.8 24.8 195.8 25.5C195.8 29.3 197.2 31.5 200.6 31.5C204 31.5 206.6 29.8 209 26.9C209.7 25.9 210.2 23.3 210.7 19.2C210.9 15.6 208.5 11.8 203.5 8.2C204.2 5.8 205.1 3.39999 206.1 1.2C206.1 0.899994 206.3 0.699997 206.3 0.699997C206.3 0.199997 205.8 0 205.3 0ZM252.9 29.6C252.9 24.8 252.2 21 250.7 17.8C250.7 16.1 251.9 12 254.8 5.8C255 5.10001 255.3 4.60001 255.5 4.60001C256 4.60001 256.2 5.10001 256.7 5.8C257.4 7.5 259.1 12 262 19.5C265.1 27.4 266.8 32.2 267.3 34.1C267.8 35.3 267.8 36.5 267.8 37C267.8 39.2 265.9 38 261.6 33.2C261.1 32.5 260.9 33 260.9 34.2C260.9 34.7 262.1 49.6 264.3 79.3C266.5 108.8 267.4 125.4 267.4 129.2C267.4 140.5 265.7 150.6 262.4 159.2C261.4 160.9 261 162.1 260.5 163C259.8 164.2 259.5 164.2 259.3 163.5C259.129 162.646 259.25 161.135 259.414 159.093C259.442 158.744 259.471 158.379 259.5 158C260 153.9 260.2 149.4 260.2 144.3C260.2 139.5 259 120.3 256.6 86.5C254.1 52.6 252.9 33.6 252.9 29.6ZM241.6 118.1C241.6 132.3 239 143.3 233.9 151.5C229.6 158.2 224.5 161.8 218.8 161.8L218.8 147.2C223.4 147.2 227.9 145.3 232.2 141.7C233.4 140.7 234.1 136.7 234.1 129.9C234.1 125.8 232.9 109.3 230.7 80.5C228.5 51.7 227.6 34.7 227.6 29.4C227.6 24.8 226.9 21 225.4 17.9C225.4 16.2 226.8 12.1 229.5 5.7C229.7 5 230 4.7 230.5 4.7C230.7 4.7 231 4.89999 231.5 5.89999C232.2 7.59999 234.1 12.1 237 19.6C239.9 27.5 241.6 32.3 242.3 34C242.5 35.4 242.8 36.6 242.8 37.1C242.8 39.3 240.6 38.1 236.6 33.3C236.1 32.8 235.9 33.1 235.9 34.3C235.9 34.5 236.9 47.5 238.8 72.9C240.6 98 241.6 113.1 241.6 118.1ZM302.3 16.9C302.3 19.5 304.4 21.9 309 24.3C305.7 27.9 300.6 31.7 293.6 36C287.6 39.3 281.9 42.7 276.1 46.3C274.7 47 274.2 47.8 274.2 48C274.2 48 274.2 48.2 274.4 48.2C274.6 48.2 275.6 48 276.8 47.5C284.5 44.7 288.8 43 289.8 42.5C293.4 41.1 297.4 38.4 302 35.3C305.8 32.4 309 29.3 311.6 25.7C313.8 26.9 315.2 28.1 315.7 29.1C317.8 26.3 318.8 24.1 318.8 22.9C318.3 21.9 316.9 20.7 314.5 19.5C315.7 16.1 316.2 13.2 316.2 10.6C316.2 7.80002 315.5 6.10002 313.8 5.60002C311.9 4.90001 309.5 5.90001 306.6 8.50002C303.7 10.9 302.3 13.8 302.3 16.9ZM357 27.9C357 27.9 356.8 28.2 356.8 28.4C355.1 31.2 353.7 32.9 352.1 33C350 33 349 30.8 349 27C349 23.9 350.2 18.8 352.6 11.4C353.1 9.7 353.3 8.7 353.3 8.5C353 8.5 352.6 9.40001 351.6 11.1C347.8 18.1 346.1 25 346.1 31.5C346.1 36.8 347.6 39.4 350.7 39.4C353.8 39.4 356 35.8 357.2 28.6C357.4 28.4 357.4 28.1 357.2 27.9C357.2 27.8093 357.2 27.7598 357.181 27.7513C357.159 27.7411 357.109 27.7907 357 27.9ZM137.7 9.89999C122.6 15.4 108.2 20.7 94.5 25.5C93.3 27.9 92.5 30 92.1 32.2C109.2 25 124 19.3 137 14.7C137.5 14.3 138.2 13.1 138.9 10.9C139.3 10.2 139.3 9.7 139.1 9.7C138.977 9.51552 138.854 9.55792 138.545 9.66442C138.352 9.73112 138.085 9.82298 137.7 9.89999ZM312.1 13.7C312.4 15.1 312.4 16.6 311.9 18C308.3 16.4 306.4 14.9 306.3 13.6C306.3 13.2 306.7 12.7 307.7 12.2C308.7 11.7 309.4 11.5 309.9 11.5C311.1 11.5 311.9 12.3 312.1 13.7ZM200.8 14.7C205.8 17.5 208.2 19.7 208.2 20.9C207.7 21.9 206.5 22.8 204.9 23.6C203.2 24.5 201.8 25 200.6 25C199.1 25 198.4 24 198.4 22.6C198.4 20.2 199.1 17.6 200.8 14.7ZM153 136.8C152 143.5 149.2 148.8 144.6 152.2C141.08 154.742 137.082 156.233 132.7 156.298L132.7 156.3C133.4 159.4 133.9 162.3 133.9 164.7C133.9 168.3 133.2 171.7 132 174.5C131.3 175.9 130.6 176.7 130.1 176.7C129.4 176.7 127.9 176.2 126.3 175.3C120.3 171.9 116.2 167.9 114.1 163.1C112.9 160.5 111.9 155.9 111.5 149.9C111 147 108.6 145.6 104.1 145.6C90.7 145.6 78.9 150.4 69.1 159.8C59.7 169.9 50.6 179.7 41.5 189.8C32.6 198.7 24.9 203.2 18.5 203.2C13.5 203.2 9.10001 200.8 5.5 196.5C1.7 191.9 0 186.4 0 179.9C0 170.948 3.48388 159.383 10.642 145.3C8.79853 144.387 7.89996 141.902 7.89996 137.8C7.89996 131.3 9.59996 124.4 13.4 117.4C14.4 115.7 14.8 114.8 15.1 114.8C15.1 115 14.9 116 14.4 117.7C12 125.1 10.8 130.2 10.8 133.3C10.8 137.1 11.8 139.3 13.9 139.3C15.5 139.2 16.9 137.6 18.6 134.7C18.6 134.5 18.8 134.2 18.8 134.2C18.9093 134.091 18.9589 134.041 18.9813 134.051C19 134.06 19 134.109 19 134.2C19.2 134.4 19.2 134.7 19 134.9C17.8 142.1 15.6 145.7 12.5 145.7L12.4943 145.7C11.7463 148.276 10.3205 152.395 8.29999 158C4.89999 166.6 3.49998 173.6 3.49998 178.6C3.49998 182.4 4.19998 185.6 6.09999 188C7.99998 190.4 10.7 191.6 14 191.6C20.7 191.6 28.4 186.8 37.5 177.7C45.4 169.5 53.1 161.1 61 153C69.4 145.1 76.8 139.6 83.6 136.4C89.9 133 97.1 131.6 105.3 131.6C108.4 131.6 111.3 132.1 113.7 133.3C113.7 131.4 113.9 130.7 114.7 130.7L114.9 130.7C115.4 130.7 116.3 131.2 117.8 132.1C120 134 122.1 136.2 124.3 138.1C127.157 140.464 130.013 141.664 132.583 141.699C136.316 141.668 139.851 140.674 143 139.1C146.1 137.2 148 134.8 149.2 131.9C149.9 129.7 150.2 126.4 150.2 122.1C150.2 96.9 149.5 76.5 148 60.7C147 50.9 145.6 41.3 143.7 32.4C144.7 26.2 145.6 22.1 146.3 19.7C146.8 18.7 147 18 147.3 18C147.8 18 148 18.7 148.5 19.7C151.4 29.3 153.8 40.8 155 54.3C156 62.7 156.7 77.8 157.4 99.9C158.1 118.9 159.1 130.9 160 136.4C161.2 141.9 163.1 145.8 165.5 147.7C167.2 149.1 169.8 149.9 172.9 149.9L172.9 149.7C176.5 149.7 179.9 148.7 183.2 147.3C181.5 144.4 180.8 140.6 180.8 135.8C180.8 129.1 183.4 122.1 188.5 115.4C193.3 109.2 197.1 105.8 200.5 105.8C203.6 105.8 206.3 108.2 207.9 112.8C209.1 116.4 209.8 120.2 209.8 124.1C209.8 133.5 207.6 140.9 203.6 146.2C206.2 146.9 211.3 147.2 218.5 147.2L218.5 161.6C206 161.6 196.9 159.9 191.4 156.6C184.4 161.6 178.2 164.3 172.9 164.3L172.9 164.5C165.5 164.5 160.2 161.6 157.1 155.9C154.9 152.2 153.7 145.7 153 136.8ZM335.4 62C359.6 52.9 384.8 43.8 410.8 34.2C411.002 34.1422 411.188 34.0761 411.349 34.0186C411.747 33.8768 412 33.7866 412 34C412.2 34 412.2 34.5 412 35.2C411 37.4 410.3 38.6 409.8 39C409.6 39.2 397.3 43.8 373.6 52.7C349.4 61.6 335.7 67.1 333 68.8C333.5 66.5 334.2 64.4 335.4 62ZM80.3 54C80.3 53.8 80.5 53.5 80.5 53.5C80.6093 53.3907 80.6589 53.3411 80.6813 53.3513C80.7 53.3597 80.7 53.4093 80.7 53.5C80.9 53.7 80.9 54 80.7 54.2C79.5 61.4 77.3 65 74.2 65C71.1 65 69.6 62.4 69.6 57.1C69.6 50.6 71.3 43.7 75.1 36.7C76.1 35 76.5 34.1 76.8 34.1C76.8 34.3 76.6 35.3 76.1 37C73.7 44.4 72.5 49.5 72.5 52.6C72.5 56.4 73.5 58.6 75.6 58.6C77.2 58.6 78.6 56.9 80.3 54ZM466 63.2C463.6 69 462.4 73.5 462.4 76.9C462.4 81 463.4 83.1 465.5 83.1C466.7 83.1 468.1 81.4 469.8 78.5C470 78.3 470 78 470.3 77.8C470.3 77.8 470.5 77.8 470.5 78L470.5 78.7C469.1 85.9001 466.9 89.5 464 89.5C460.9 89.5 459.4 86.9 459.4 81.6C459.4 79 459.9 75.6 461.3 71.3C462.7 67.0001 463.5 64.8 463.5 64.6C463.5 64.1 462.5 63.2 460.4 62C456.6 67 451.3 71.8 444.6 75.9C440 78.5 435.5 80.9 430.7 82.9C421.8 86.5 416.5 88.4 415.3 89.1C414.1 89.6 413.4 89.8 412.9 89.8C412.7 89.8 412.7 89.6 412.7 89.6C412.7 89.1 413.2 88.6 414.6 87.7C422.3 83.4001 429.7 79.1 437.4 74.7C447.5 68.9001 454.4 64.1 457.8 60.5C453.2 58.1 451.1 55.7 451.1 53.1C451.1 50 452.5 47.1 455.4 44.5C458.3 42.1 460.7 41.1 462.6 41.9C464 42.4 465 44.1 465 46.9C465 49.5 464.5 52.4 463.3 55.5C465.7 56.9 466.7 58.4 466.7 59.8C466.7 60.5 466.5 61.7 466 63.2ZM168.6 59.6C182.3 54.8 196.7 49.5 211.8 44C212.185 43.923 212.452 43.8311 212.645 43.7644C212.954 43.6579 213.077 43.6155 213.2 43.8C213.4 43.8 213.4 44.3 213 45C212.3 47.2 211.6 48.4 211.1 48.8C198.1 53.4 183.3 59.1 166.2 66.3C166.7 64.1 167.4 62 168.6 59.6ZM460.7 54.3C461.2 52.9 461.2 51.4 460.9 50C460.7 48.6 459.9 47.8 458.7 47.8C458.2 47.8 457.5 48 456.5 48.5C455.5 49 455.1 49.5 455.1 49.9C455.2 51.2 457.1 52.6 460.7 54.3ZM304.9 52.9L301.1 60.8C300.1 59.8 298 58.1 294.9 56.3C291.8 54.1 290.1 52.9 289.6 52.9C289.3 52.9 288.8 53.4 288.6 53.9L284 63.5C283.8 64 283.8 64.3 284 64.5C287.9 66.9 291.7 69.5 295.3 72.4C295.8 72.7 296.3 72.4 296.5 71.7C298 69.5 299.2 66.9 300.6 64C304.7 66.6 308.3 69 311.4 71.4C311.8 71.6 312.3 71.6 312.8 70.9C315.9 65.5999 317.6 62 317.6 60.3C317.6 59.8 315.7 58.4 312.1 56C308.3 53.4 306.4 52.2 305.9 52.2C305.4 52.2 305.1 52.4 304.9 52.9ZM34.4 76.4C36.1 80.5 37.3 83.8 37.8 86.7C35.7 87.6 34.2 90.8 33.6 95.9C33.4 97.1 33.4 97.6 33.6 97.6C33.8 97.6 34.3 96.9 35.5 95.7C36.5 94.5 37.2 93.8 37.7 93.8C38.9 93.8 40.1 94.3 41.3 95.5C38.2 96.4 36.3 97.4 35.1 98.1C32.9 100 31.7 102.9 31.7 107C31.7 108.2 32.7 112.8 34.1 120.7C35.7 128.6 36.7 135.6 36.7 141.1C36.7 144.5 36.7 146.4 36.9 146.4C37.1 146.1 37.4 145.7 37.6 144.7C38.1 141.6 38.6 138.7 38.6 135.8C38.6 125.9 37 116.1 33.6 106C34.8 104.8 36.9 103.6 39.8 102.6C42.2 101.9 44.6 101.4 47 100.7C47.5 100.5 48 99.8 48.7 98.1C49.5 96.4 49.7 95.5 49.7 95C49.4 93.5 48 91.9001 45.6 89.7C43 87.8 41.1 86.6 39.4 86.6C40.6 84.5 41.3 81.6 42 78C43.7 68.9 45.4 64.3 47.3 64.3C48.2 64.3 49.2 64.7 49.9 65.7C50.9 66.7 51.4 67.4 51.6 67.4C52 67.4 52.5 66.6 53 65.2C53.5 64.2 53.5 63.3 53.5 62.8C53.5 61.8 53.1 60.8 52.1 59.4C51.1 57.9 49.9 57.2 48.7 57.2C46.5 57.2 44.6 59.4 42.7 63.7C41 70 39.8 74.8 39.3 77.9C39.3 78.4 39.1 78.7 39.1 78.9L38.9 78.9C38.9 78.6 38.9 78.4 38.7 77.9C37.9 72.6 36.3 68.3 34.1 65.2C32 61.8 29.6 60.4 26.7 60.4C26.5 60.4 25.8 61.1 24.8 63C23.6 65 23.1 66.2 23.1 66.4C23.1 67.1 23.6 68.1 25 69.3C26.5 70.5 27.4 71.2 28.4 71.2C29.1 71.2 29.4 70.9 29.6 70.7C29.9 70.2 30.1 70.2 30.6 70.2C31.3 70.2 32.7 72.3 34.4 76.4ZM125.9 68.4C126.4 67.4 126.6 66.5 126.6 66C126.6 65.1 126.1 64.1 125.2 62.6C124 61.1 122.8 60.4 121.6 60.4C119.4 60.4 117.5 62.6 115.6 66.9C113.9 73.2 112.7 78 112.5 81.1C112.2 81.6 112 81.9 112 82.1C112 82.1907 112 82.2403 111.981 82.2487C111.959 82.2589 111.909 82.2094 111.8 82.1L111.8 81.1C110.8 75.8 109.4 71.8 107 68.4C104.8 65 102.4 63.6 99.8 63.6C99.5 63.6 98.8 64.3 97.6 66.2C96.4 68.2 95.9 69.4 95.9 69.6C95.9 70.3 96.6 71.3 97.8 72.5C99.3 73.7 100.2 74.4 101.2 74.4C101.9 74.4 102.4 74.1 102.4 73.9C102.6 73.4 102.9 73.4 103.6 73.4C104.3 73.4 105.5 75.6 107.4 80.4C109.3 85 110.3 88.1 110.3 89.8C110.3 90.292 110.373 90.7114 110.47 91.0105C110.081 91.4613 109.625 91.9925 109.1 92.6C107.4 94.5 105.3 96.6 102.4 98.8C90.4 106.7 81.3 112.3 74.8 116.1C73.6 116.8 72.9 117.6 72.9 117.8C72.9 117.8 72.9 118 73.1 118C73.6 118 74.3 117.8 75.5 117.3C83.5 114.5 87.8 112.8 88.5 112.3C92.1 110.7 96.1 108.3 100.7 104.9C105.8 101.3 109.1 97.4 110.8 93.6C111.264 92.3624 111.622 91.3906 111.86 90.6848C112.056 90.4331 112.267 90.1332 112.5 89.8C113.5 88.2 114.2 85.3 114.9 81.2C116.6 72.1 118.5 67.5 120.4 67.5C121.1 67.5 122.1 67.9 122.8 68.9C123.8 69.9 124.3 70.6 124.5 70.6C125.2 70.6 125.7 69.8 125.9 68.4ZM111.86 90.6848C112.083 90.022 112.2 89.5937 112.2 89.4L112.2 89.2C112.055 89.2 111.491 89.8288 110.47 91.0105C110.571 91.3194 110.698 91.5 110.8 91.5C111.133 91.5 111.467 91.1888 111.86 90.6848ZM383.4 69.9C381.3 66.5 378.9 65.1 376 65.1C375.7 65.1 375 65.8 374 67.7C372.8 69.7 372.3 70.9 372.3 71.1C372.3 71.8 372.8 72.8 374.2 74C375.7 75.2 376.6 75.9 377.6 75.9C378.3 75.9 378.6 75.6 378.8 75.4C379.1 74.9 379.3 74.9 379.8 74.9C380.8 74.9 382 77.1 383.9 81.9C385.8 86.5 386.7 89.6 386.5 91.3C386.7 92.3 386.7 93 387.2 93C387.7 93 388.2 92.3 388.9 91.3C389.6 89.7 390.6 86.8 391.3 82.7C393 73.6 394.7 69 396.6 69C397.5 69 398.5 69.4 399.2 70.4C400.2 71.4 400.7 72.1 400.9 72.1C401.3 72.1 401.8 71.3 402.3 69.9C402.8 68.9 402.8 68 402.8 67.5C402.8 66.5 402.4 65.5 401.4 64.1C400.4 62.6 399.2 61.9 398 61.9C395.8 61.9 393.9 64.1 392 68.4C390.3 74.7 389.1 79.5 388.6 82.6C388.6 83.1 388.4 83.4 388.4 83.6L388.2 83.6C388.2 83.3 388.2 83.1 388 82.6C387.2 77.3 385.6 73 383.4 69.9ZM323.9 78.8C323.9 82.6 322 87.9 318.1 94.4C315.7 98.5 312.1 104 307.3 111.2C312.1 116.7 315.5 121.8 317.1 126.1C318.1 129.2 318.8 133.3 318.8 137.9C318.8 139.8 318.3 142.2 317.4 145.3C316.7 148.2 315.7 150.3 314.8 151.8C312.9 154.7 309.8 157.6 305 160.4C300 163.8 295.6 165.4 292 165.4C286.2 165.4 283.4 161.1 283.4 152.4C283.4 146.6 284.4 140.9 286.3 135.6C288.2 131 291.3 125 296.4 117.1C292.1 113 287.5 107.3 282.5 100.1C282 99.4 280.8 98.2 278.9 96.3C277.9 95.3 277.5 94.1 277.5 92.7C277.5 90.5 277.7 88.1 278.2 85.3C278.9 82.4 279.4 81.2 279.6 81.2C280.3 81.2 282.5 82.4 286.6 85C290.4 87.6 293.6 89.6 295.5 91.2C296.7 91.9 297.2 92.6 297.2 92.6L297.2 92.8C297.2 93 296.5 93.3 294.8 93.3C291.7 93.3 290 93.5 290 93.8C290 94 290.5 94.5 291.4 95.7C295.2 100.5 299.1 104.1 303.2 107C304.2 105.6 307.5 100.8 312.8 92.6C317.4 85.6 320 80.8 321.2 78C322.4 75.1 323.1 73.9 323.6 73.9C323.7 74 323.9 75.4 323.9 78.8ZM195.5 86.9L199.3 79C199.5 78.5 199.8 78.3 200.3 78.3C200.8 78.3 202.7 79.5 206.5 82.1C210.1 84.5 212 85.9 212 86.4C212 88.1 210.3 91.7 207.2 97C206.7 97.7 206.2 97.7 205.8 97.5C202.7 95.1 199.1 92.7 195 90.1C193.6 93 192.4 95.6 190.9 97.8C190.7 98.5 190.2 98.8 189.7 98.5C186.1 95.6 182.3 93 178.4 90.6C178.2 90.4 178.2 90.1 178.4 89.6L183 80C183.2 79.5 183.7 79 184 79C184.5 79 186.2 80.2 189.3 82.4C192.4 84.3 194.5 86 195.5 86.9ZM341.4 107.1C342.4 108.3 343.1 109.9 343.6 112.1C344.8 116.2 347.2 122 350.5 129C353.4 135.3 354.8 138.6 354.8 139.1C354.8 141.1 351.9 144.2 346.4 148.5C341.549 152.106 335.236 156.227 327.463 160.808C328.198 156.371 329.471 151.056 331.3 144.8C331.6 143.3 331.8 142.1 331.8 141.4C331.8 140.9 331.8 140.7 331.6 140.7C331.1 140.7 330.6 141.7 329.4 144.1C327.054 150.435 325.327 156.599 324.3 162.65C321.092 164.498 317.659 166.416 314 168.4C304.6 173.5 292.9 179 278.7 185C258.3 193.6 247.2 198.4 245.3 199.4C240 201.8 237.4 203.3 237.4 203.5C237.4 203.7 237.4 203.7 237.9 203.7C238.9 203.7 241.3 203.4 245.1 202.7C248.7 202.2 257.8 200.1 272.2 196.7C285.9 193.4 293.1 191.7 293.6 191.7C296.2 191.7 304.6 187.6 319 179.2C320.445 178.39 321.853 177.585 323.224 176.785C323.46 184.053 325.44 190.316 329 195C333.3 201 339.5 204.1 347.7 204.1C357.3 204.1 368.3 199.1 381.3 189.5C390 183 397.9 175.5 405.1 166.9C408.2 163.3 410.8 158.7 412.5 153.2C414 148.8 414.7 145.5 414.7 142.6L415.2 142.1L415.2 128.9C414.2 129.4 413.7 129.4 413.5 129.4C411.1 124.4 408.2 120.3 405.1 116.7C401.5 113.1 398.4 111.2 395.3 111.2C391.2 111.2 387.4 113.3 383.8 117.4C380 122.2 378.3 127.5 378.3 133.5C378.3 141.4 384.1 145.5 395.6 145.5C400.9 145.5 405.2 144.8 408.1 143.8C408.6 145.5 409.1 147.2 409.1 148.6C409.1 150.8 405.5 155.1 398.5 161.9C390.8 169.1 382.9 175.1 374.7 180.1C364.3 186.4 355.7 189.5 348.5 189.5C340.1 189.5 334.1 186.8 330.3 181.8C328.839 179.609 327.823 177.121 327.251 174.382C339.544 166.885 348.523 159.82 354.3 153.3C356.3 151.1 357.7 148 358.9 143.9C359.8 140.3 360.3 137.4 360.3 135C360.3 129.9 358.8 124.4 356.2 117.7C354.5 113.9 352.6 109.8 350.9 105.7C353.8 106.4 355.7 106.9 356.4 106.9C356.9 106.9 357.1 106.6 357.1 106.4C357.1 105.9 356.4 105 354.7 103.3C350.7 99.2 347.1 95.3 343.7 91.5C343.2 91 342.9 90.8 342.7 90.8C342.2 90.8 341.9 91.3 341.7 92.5C341.2 93.7 341 95.9 340.5 99C340 102.3 340 104 340 104.5C340.2 104.9 340.7 105.7 341.4 107.1ZM441.3 113.8C440.6 113.8 439.6 114.2 438.4 115.2C434.5 118.6 430.7 121.5 426.8 123.4C425.6 124.2 421.5 126.1 415.3 129.2L415.3 142.4C423.7 138.5 430.2 134.5 434 129.9C434 140.9 438.8 146.7 448.9 146.7C457.3 146.7 464.2 141.9 469.5 132.3C472.7 138.1 476.3 141.2 480.1 141.2C485.9 141.2 490.2 138.6 493.1 133.3C495.8 128.9 497.2 123.9 497.2 117.9C497.2 114 496 110.7 494.1 107.8C493.4 106.8 492.9 106.6 492.4 106.6C491.9 106.6 491.4 107.4 491.2 108.8C489.8 113.3 488.8 116.7 488.6 118.6C490.7 122.2 491.7 124.2 491.7 124.4C490.7 126 488.6 127 485.2 127C482.6 127 480.2 126 478.5 124.6C476.6 123.2 475.6 121.5 475.6 119.8C475.6 120.3 476.3 118.4 477.3 114.3C477.8 112.2 477.6 111.2 476.6 111.2C475.9 111.2 475.2 111.6 474.2 112.6C471.8 116.5 469.2 120.3 466.8 124.4C462.9 129.5 457.9 132.1 451.9 132.1C444.4 132.1 440.6 129.2 440.6 123.9C440.6 122.7 440.8 121.2 441.3 119.3C441.8 117.4 442 115.9 442 115.2C442 114.3 441.8 113.8 441.3 113.8ZM202.2 125.3C203.7 128.7 204.4 131.6 204.4 133.5C202.5 136.6 198.9 139.5 193.6 142C191.7 141.3 189.8 140.1 188.1 138.2C186.4 136.5 185.2 134.8 184.7 133.4C185.9 130.7 187.8 127.9 190.9 124.5C194.1 121.2 196.5 119.5 197.9 119.5C199.1 119.5 200.5 121.5 202.2 125.3ZM314.5 137.8C311.9 132.5 307.3 127 301.1 121.7C298.9 123.9 296.3 127.9 292.9 133.7C289.1 140.2 287.4 144.3 287.4 146.4C287.4 149.3 289.3 150.7 293.6 150.7C295.5 150.7 297.9 150 301 148.8C305.3 146.9 309.4 144.2 312.8 140.9C314.3 139.5 314.8 138.5 314.5 137.8ZM401.7 131.1C398.1 126.5 395 124.4 392.1 124.4C387.8 124.4 385.9 125.4 385.9 127.8C385.9 130.7 388.8 132.1 394.5 132.1C396.6 132 399 131.6 401.7 131.1ZM125.6 157C127.8 159.4 129 161.5 129 163.7C127.1 163.5 124.9 162 122.7 159.6C120.3 157.2 119.1 154.8 119.1 152.4C121.3 152.9 123.4 154.6 125.6 157ZM427.6 194.7C425 195.4 423.5 195.9 423 195.9L423 195.7C423 195.7 424 195 425.9 193.8C427.8 192.6 430.7 190.7 434.8 187.6C436.7 185.7 439.6 182.6 443.2 178.2C445.6 175.3 448.2 172.7 451.1 170.8C454.7 168.2 458.1 167 461.7 167C462.4 167 463.6 167.2 465.1 167.7C466.3 168.2 467.5 168.4 468.5 168.4C470.4 168.4 471.9 167.7 473.1 166.2C473.8 164.8 474.8 163.6 475.7 162.1C476.2 161.1 476.9 160.7 477.4 160.7C477.6 160.7 477.6 160.9 477.6 161.4C477.6 161.9 477.4 163.1 476.9 164.5C476.4 165.2 478.3 165.5 481.9 165.5C482.4 165.5 482.6 165.5 482.6 165.3C482.6 165.3 482.4 164.3 481.9 162.7C481.7 162.2 481.9 161.5 482.6 160.5L482.68 160.364C483.622 158.763 484.008 158.105 484.3 158.3C485.3 159 485.7 160.5 485.7 162.1C485.7 163.7 485.2 165.5 484.5 167.4C483.8 169.6 483.1 170.8 482.6 171.2C480.9 172.2 478.3 171.9 474.7 170.2C471.8 173.1 468.9 174.8 466.1 174.8C465.4 174.8 464.2 174.6 463 174.1C461.8 173.6 460.8 173.4 460.1 173.4C455.3 173.4 450.3 175.6 445.2 180.4L434.4 191.2C432.1 192.8 430 194 427.6 194.7ZM204.3 181.2C202.2 177.8 199.8 176.4 196.9 176.4C196.7 176.4 196 177.2 194.9 179C193.7 181 193.2 182.2 193.2 182.4C193.2 183.1 193.7 184.1 195.1 185.3C196.6 186.5 197.5 187.2 198.5 187.2C199.2 187.2 199.5 186.9 199.7 186.7C200 186.2 200.2 186.2 200.7 186.2C201.7 186.2 202.9 188.4 204.8 193.2C206.7 197.8 207.6 200.9 207.4 202.6C207.6 203.6 207.6 204.3 208.1 204.3C208.6 204.3 209.1 203.6 209.8 202.6C210.5 201 211.5 198.1 212.2 194C213.9 184.9 215.6 180.3 217.5 180.3C218.4 180.3 219.4 180.7 220.1 181.7C221.1 182.7 221.6 183.4 221.8 183.4C222.2 183.4 222.7 182.6 223.2 181.2C223.7 180.2 223.7 179.3 223.7 178.8C223.7 177.8 223.3 176.8 222.3 175.4C221.3 173.9 220.1 173.2 218.9 173.2C216.7 173.2 214.8 175.4 212.9 179.7C211.2 186 210 190.8 209.5 193.9C209.5 194.4 209.3 194.7 209.3 194.9L209.1 194.9C209.1 194.6 209.1 194.4 208.9 193.9C208.1 188.6 206.5 184.3 204.3 181.2ZM157.6 193.2C157.6 193 157.8 192.7 157.8 192.7C157.909 192.591 157.959 192.541 157.981 192.551C158 192.56 158 192.609 158 192.7C158.2 192.9 158.2 193.2 158 193.4C156.8 200.6 154.6 204.2 151.5 204.2C148.4 204.2 146.9 201.6 146.9 196.3C146.9 189.8 148.6 182.9 152.4 175.9C153.4 174.2 153.8 173.3 154.1 173.3C154.1 173.5 153.9 174.5 153.4 176.2C151 183.6 149.8 188.7 149.8 191.8C149.8 195.6 150.8 197.8 152.9 197.8C154.5 197.8 155.9 196.1 157.6 193.2ZM50.5 198.8C69 192.1 88.2 184.9 108.3 177.4C108.478 177.349 108.644 177.292 108.794 177.239C109.235 177.086 109.551 176.976 109.7 177.2C109.7 177.2 109.7 177.7 109.5 178.4C108.5 180.6 107.8 181.8 107.3 182.2C90.5 188.4 70.6 196.1 48 205.5C48.6 203.3 49.3 201.2 50.5 198.8Z" id="Group" fill="#595959" fill-rule="evenodd" stroke="none" clip-path="url(#clip_1)" />
  </g>
</svg>