<?xml version="1.0" encoding="utf-8"?>
<svg width="455.3001px" height="200.40004px" viewBox="0 0 455.3001 200.40004" version="1.1" xmlns:xlink="http://www.w3.org/1999/xlink" xmlns="http://www.w3.org/2000/svg">
  <defs>
    <path d="M455.3 0L455.3 0L455.3 200.4L0 200.4L0 0L455.3 0Z" id="path_1" />
    <clipPath id="clip_1">
      <use xlink:href="#path_1" clip-rule="evenodd" fill-rule="evenodd" />
    </clipPath>
  </defs>
  <g id="Surah_71_of_114_(modified)">
    <path d="M455.3 0L455.3 0L455.3 200.4L0 200.4L0 0L455.3 0Z" id="Surah_71_of_114_(modified)" fill="none" stroke="none" />
    <path d="M223.2 8C221.1 4.59999 218.7 3.2 215.8 3.2C215.6 3.2 214.9 3.89999 213.8 5.80002C212.6 7.80002 212.1 9.00002 212.1 9.20001C212.1 9.90001 212.6 10.9 214 12.1C215.5 13.3 216.4 14 217.4 14C218.1 14 218.4 13.7 218.6 13.5C218.9 13 219.1 13 219.6 13C220.6 13 221.8 15.2 223.7 20C225.6 24.6 226.5 27.7 226.3 29.4C226.5 30.4 226.5 31.1 227 31.1C227.5 31.1 228 30.4 228.7 29.4C229.4 27.8 230.4 24.9 231.1 20.8C232.8 11.7 234.5 7.09999 236.4 7.09999C237.3 7.09999 238.3 7.49999 239 8.49998C240 9.49998 240.5 10.2 240.7 10.2C241.1 10.2 241.6 9.39998 242.1 7.99999C242.6 6.99998 242.6 6.09999 242.6 5.59999C242.6 4.59999 242.2 3.59999 241.2 2.2C240.2 0.699997 239 0 237.8 0C235.6 0 233.7 2.2 231.8 6.5C230.1 12.8 228.9 17.6 228.4 20.7C228.4 21.2 228.2 21.5 228.2 21.7L228 21.7C228 21.4 228 21.2 227.8 20.7C227 15.4 225.4 11.1 223.2 8ZM260.5 11.8C260.5 14.4 262.6 16.8 267.2 19.2C263.8 22.8 258.8 26.7 251.8 30.9C245.8 34.2 240.1 37.6 234.3 41.2C232.9 41.9 232.4 42.7 232.4 42.9C232.4 42.9 232.4 43.1 232.6 43.1C232.8 43.1 233.8 42.9 235 42.4C242.7 39.6 247 37.9 248 37.4C251.6 36 255.6 33.3 260.2 30.2C264 27.3 267.2 24.2 269.8 20.6C272 21.8 273.4 23 273.9 24C276 21.2 277 19 277 17.8C276.5 16.8 275.1 15.6 272.7 14.4C273.9 11 274.4 8.10002 274.4 5.50002C274.4 2.70001 273.7 1.00002 272 0.500015C270.1 -0.199997 267.7 0.800003 264.8 3.40001C261.9 5.8 260.5 8.7 260.5 11.8ZM179.1 21.2C174.5 18.8 172.4 16.4 172.4 13.8C172.4 11.4 173.4 8.8 175.8 6.10001C178 3.5 180.4 2.3 182.8 2.3C185.2 2.3 186.4 4 186.4 7.60001C186.4 10.2 185.7 13.1 184.7 16.2C186.9 17.4 188.3 18.6 189 19.6C189 21 188 23 185.9 25.8C185.4 24.8 184 23.6 181.8 22.4C174.1 33.4 158.3 42.6 134.5 50.2C133.1 50.7 132.3 50.9 132.1 50.9C131.9 50.9 131.9 50.7 131.9 50.7C131.9 50.5 132.4 49.7 133.8 49C141.7 44.7 149.9 40.4 157.8 36C167.8 30.5 175 25.5 179.1 21.2ZM315.1 22.8C315.1 22.8 314.9 23.1 314.9 23.3C313.3 26.2 311.8 27.9 310.2 27.9C308.1 27.9 307.1 25.7 307.1 21.9C307.1 18.8 308.3 13.7 310.7 6.29999C311.2 4.59999 311.4 3.59999 311.4 3.39999C311.1 3.39999 310.7 4.3 309.7 6C305.9 13 304.2 19.9 304.2 26.4C304.2 31.7 305.7 34.3 308.8 34.3C311.9 34.3 314.1 30.7 315.3 23.5C315.5 23.3 315.5 23 315.3 22.8C315.3 22.7093 315.3 22.6597 315.281 22.6513C315.259 22.6411 315.209 22.6907 315.1 22.8ZM270.3 8.69998C270.6 10.1 270.6 11.6 270.1 13C266.5 11.3 264.5 9.89999 264.5 8.59998C264.5 8.19998 264.9 7.69998 265.9 7.19998C266.9 6.69998 267.6 6.49998 268.1 6.49998C269.3 6.49998 270.1 7.29999 270.3 8.69998ZM182 14.7C182.5 13.3 182.5 11.8 182.2 10.4C182 9 181.2 8.2 180 8.2C179.5 8.2 178.8 8.39999 177.8 8.89999C176.8 9.39999 176.4 9.89999 176.4 10.3C176.5 11.6 178.1 13 182 14.7ZM75.9 61.9C90.3 53.5 108.7 44.4 131.3 34.8C132.5 34.4 133.5 33.4 133.9 32.1L137 22.7C137.3 21.5 136.8 20.5 135.1 20.3C131 19.8 120.5 18.6 103.2 17.4C84 15.7 70 15 61.4 15C53.7 15 48 17 43.9 20.8C40.6 23.9 38.9 27.8 38.9 32.1C38.9 34.5 39.3 36.6 40.3 38.3C42 41.2 45.1 44.3 49.9 47.7C56.3 52.7 61.1 56.8 64.5 59.9C59 65.6 55.4 70.2 53.2 73.8C51.6 73.5 50.4 73.3 49.4 73.3C48.2 73.3 47.5 73.5 47.5 74C47.5 74.7 48.7 75.7 51.1 77.1C43.7 90.6 40.1 104.5 40.1 118.9C40.1 150.6 54.2 166.2 82.8 166.2C98.6 166.2 113 159.9 126 147.7C139.4 135 145.9 120.8 145.9 105.2C145.9 99.2 144.5 94.2 141.6 89.6C139.2 85.6 135.9 82.9 131.8 81C127.8 79.3 118.4 78.1 104 77.6C83.8 76.9 69.4 75.9 60.8 74.7C63.9 71.3 67 68.2 70.4 65.3C72 68.7 73.5 70.1 74.2 70.1C75.4 70.1 75.9 67.4 75.9 61.9ZM111.9 31.9C111.9 32.2 111.2 32.4 110 32.9C98 37.7 85.7 44.4 72.9 53.3C71.4 51.4 66.9 47.6 59.9 41.8C55.8 38.6 51.7 35.5 47.9 32.4C46.4 31.2 45.7 30.4 45.7 30.2C45.7 30 46.1 29.7 47.1 29.5C49.5 28.8 54.8 28.3 63.4 28.3C80.5 28.3 95.6 29.3 108.8 31.2C110.9 31.4 111.9 31.7 111.9 31.9ZM293.6 56.9C317.8 47.8 343 38.7 369 29.1C369.202 29.0422 369.388 28.9761 369.549 28.9185C369.947 28.7767 370.2 28.6866 370.2 28.9C370.4 28.9 370.4 29.4 370.2 30.1C369.2 32.3 368.5 33.5 368 33.9C367.8 34.1 355.5 38.7 331.8 47.6C307.6 56.5 293.9 62 291.2 63.7C291.7 61.5 292.4 59.3 293.6 56.9ZM189.7 42.5C189.5 42.3 189.5 42 189.7 41.5L194.3 31.9C194.5 31.4 195 31.2 195.3 31.2C195.8 31.2 197.9 32.4 201.5 34.8C205.3 37.4 207.3 38.9 207.3 39.4C207.3 41.1 205.6 44.4 202.3 49.7L202.271 49.7403C201.792 50.4114 201.59 50.6942 201.1 50.4C197.3 47.6 193.5 44.9 189.7 42.5ZM424.1 58.1C421.7 63.9 420.5 68.4 420.5 71.8C420.5 75.9 421.5 78 423.6 78C424.8 78 426.2 76.3 427.9 73.4C428.1 73.2 428.1 72.9 428.4 72.7C428.4 72.7 428.6 72.7 428.6 72.9L428.6 73.6C427.2 80.8 425 84.4 422.1 84.4C419 84.4 417.5 81.8 417.5 76.5C417.5 73.9 418 70.5 419.4 66.2C420.8 61.9 421.6 59.7 421.6 59.5C421.6 59 420.6 58.1 418.5 56.9C414.7 61.9 409.4 66.7 402.7 70.8C398.1 73.4 393.6 75.8 388.8 77.8C379.9 81.4 374.6 83.3 373.4 84C372.2 84.5 371.5 84.7 371 84.7C370.8 84.7 370.8 84.5 370.8 84.5C370.8 84 371.3 83.5 372.7 82.6C380.4 78.3 387.8 74 395.5 69.6C405.6 63.8 412.5 59 415.9 55.4C411.3 53 409.2 50.6 409.2 48C409.2 44.9 410.6 42 413.5 39.4C416.4 37 418.8 36 420.7 36.8C422.1 37.3 423.1 39 423.1 41.8C423.1 44.4 422.6 47.3 421.4 50.4C423.8 51.8 424.8 53.3 424.8 54.7C424.9 55.5 424.6 56.7 424.1 58.1ZM418.9 49.2C419.4 47.8 419.4 46.3 419.1 44.9C418.9 43.5 418.1 42.7 416.9 42.7C416.4 42.7 415.7 42.9 414.7 43.4C413.7 43.9 413.3 44.4 413.3 44.8C413.3 46.1 415.3 47.6 418.9 49.2ZM263.1 47.8L259.3 55.7C258.3 54.8 256.1 53.1 253.1 51.2C250 49 248.3 47.8 247.8 47.8C247.5 47.8 247 48.3 246.8 48.8L242.2 58.4C242 58.9 242 59.2 242.2 59.4C246.1 61.8 249.9 64.4 253.5 67.3C254 67.6 254.5 67.3 254.7 66.6C256.2 64.4 257.4 61.8 258.8 58.9C262.9 61.5 266.5 63.9 269.6 66.3C270 66.5 270.5 66.5 271 65.8C274.1 60.5 275.8 56.9 275.8 55.2C275.8 54.7 273.9 53.3 270.3 50.9C266.5 48.3 264.6 47.1 264.1 47.1C263.6 47.1 263.3 47.3 263.1 47.8ZM160.1 87.1C167.8 87.1 174.3 84.7 179.1 80.4C180.3 79.5 180.8 78.8 180.8 78.8C180.8 78.5 180 78.5 178.6 79C172.9 80.6 167.8 81.6 162.8 81.6C157.7 81.6 155.1 80.4 155.1 78C155.1 77.1 155.5 75.6 156.5 74.2L164.4 66.3C168 62.2 169.7 59.4 169.7 57.2C169.7 54.3 167.1 53.1 161.3 53.1C158.6 53.1 156.7 53.5 155.5 54.5C154.5 55.2 153.6 56.9 152.6 59.3C152.4 59.8 152.4 60 152.4 60C152.537 60.1367 152.72 60.0866 152.886 60.0411C152.963 60.0201 153.037 60 153.1 60C154.8 59 156.2 58.8 157.4 58.8C159.8 58.8 162.2 59.1 164.1 59.8C165.1 60.2 165.3 60.7 164.6 61.2C162 64.3 159.1 67.2 156.2 70.3C153.3 73.7 152.1 77 152.1 80.4C152.1 82.3 152.9 84 154.3 85.2C155.8 86.4 157.9 87.1 160.1 87.1ZM341.5 64.8C339.4 61.4 337 60 334.1 60C333.9 60 333.2 60.8 332.1 62.6C330.9 64.6 330.4 65.8 330.4 66C330.4 66.7 330.9 67.7 332.3 68.9C333.8 70.1 334.7 70.8 335.7 70.8C336.4 70.8 336.7 70.5 336.9 70.3C337.2 69.8 337.4 69.8 337.9 69.8C338.9 69.8 340.1 72 342 76.8C343.9 81.4 344.8 84.5 344.6 86.2C344.8 87.2 344.8 87.9 345.3 87.9C345.8 87.9 346.3 87.2 347 86.2C347.7 84.6 348.7 81.7 349.4 77.6C351.1 68.5 352.8 63.9 354.7 63.9C355.6 63.9 356.6 64.3 357.3 65.3C358.3 66.3 358.8 67 359 67C359.4 67 359.9 66.2 360.4 64.8C360.9 63.8 360.9 62.9 360.9 62.4C360.9 61.4 360.5 60.4 359.5 59C358.5 57.5 357.3 56.8 356.1 56.8C353.9 56.8 352 59 350.1 63.3C348.4 69.6 347.2 74.4 346.7 77.5C346.7 78 346.5 78.3 346.5 78.5L346.3 78.5C346.3 78.2 346.3 78 346.1 77.5C345.3 72.2 343.7 67.9 341.5 64.8ZM208.2 128.2L208.2 128.129C217.533 124.036 222.2 114.699 222.2 100.5C222.2 96.2 218.6 88.5 211.4 77C216 78.2 218.4 78 218.4 76.8C218.4 76.1 217.7 75.3 216.5 73.9L205 63.8C204.3 63.3 203.8 62.8 203.3 62.8C202.8 62.8 202.5 63.5 202.3 64.7L200.9 76.2C200.9 77.1 201.1 77.9 202.1 78.1C203.3 78.6 204.1 79.3 204.3 80.3C205 83.9 207.6 89.4 211.7 96.4C215.8 102.9 217.7 106.8 217.7 108.2C216.328 110.552 213.036 112.711 208.2 115.055L208.2 114.9C207.2 115.4 206.7 115.4 206.5 115.4C204.1 110.4 201.2 106.1 198.1 102.7C194.8 98.9 191.4 97.2 188.3 97.2C184.4 97.2 180.6 99.3 177 103.4C173.1 108.2 171.2 113.5 171.2 119.5C171.2 127.2 176.9 131.3 188.2 131.3C193.7 131.3 197.8 130.8 200.7 129.6C201.5 131.2 201.7 132.9 201.7 134.6C201.7 140.6 188.5 150.7 161.6 165.1C152 170.2 140.2 175.7 126.3 181.7C105.7 190.3 94.6 195.1 92.7 196.1C87.4 198.5 84.8 199.7 84.8 200.2C84.8 200.2 85 200.4 85.5 200.4C86.2 200.4 88.6 199.9 92.7 199.4C96.3 198.7 105.2 196.8 119.8 193.2C133.5 189.9 140.5 188.2 141.2 188.2C143.6 188.2 151.7 184.4 165.4 176.7C181.3 167.8 192.1 159.9 198.3 152.7C201.4 149.3 203.8 144.8 205.7 139C206.9 134.9 207.6 131.3 207.6 128.4L208.1 128.2L208.2 128.2ZM3.70001 67.5C6.60001 67.5 9.00002 68.9 11.1 72.3C13.3 75.4 14.9 79.7 15.7 85C15.9 85.5 15.9 85.7 15.9 86L16.1 86C16.1 85.8 16.3 85.5 16.3 85C16.8 81.9 18 77.1 19.7 70.8C21.6 66.5 23.5 64.3 25.7 64.3C26.9 64.3 28.1 65 29.1 66.5C30.1 67.9 30.5 68.9 30.5 69.9C30.5 70.4 30.5 71.3 30 72.3C29.5 73.7 29 74.5 28.6 74.5C28.4 74.5 27.9 73.8 26.9 72.8C26.2 71.8 25.2 71.4 24.3 71.4C22.4 71.4 20.7 76 19 85.1C18.3 89.2 17.3 92.1 16.6 93.7C15.9 94.7 15.4 95.4 14.9 95.4C14.4 95.4 14.4 94.7 14.2 93.7C14.4 92 13.5 88.9 11.6 84.3C9.7 79.5 8.49998 77.3 7.49999 77.3C6.99998 77.3 6.79999 77.3 6.49998 77.8C6.29999 78 5.99998 78.3 5.29999 78.3C4.29999 78.3 3.39999 77.6 1.89999 76.4C0.5 75.2 0 74.2 0 73.5C0 73.3 0.5 72.1 1.7 70.1C2.70001 68.2 3.40001 67.5 3.70001 67.5ZM282.1 74C282.1 77.8 280.2 83.1 276.3 89.6C273.9 93.7 270.3 99.2 265.5 106.4C270.3 111.9 273.7 117 275.3 121.3C276.3 124.4 277 128.5 277 133.1C277 135 276.5 137.4 275.6 140.5C274.9 143.4 273.9 145.5 273 147C271.1 149.9 268 152.8 263.2 155.6C258.2 159 253.8 160.6 250.2 160.6C244.4 160.6 241.6 156.3 241.6 147.6C241.6 141.8 242.6 136.1 244.5 130.8C246.4 126.2 249.5 120.2 254.6 112.3C250.3 108.2 245.7 102.5 240.7 95.3C240.2 94.6 239 93.4 237.1 91.5C236.1 90.5 235.7 89.3 235.7 87.9C235.7 85.7 235.9 83.3 236.4 80.5C237.1 77.6 237.6 76.4 237.8 76.4C238.5 76.4 240.7 77.6 244.8 80.2C248.6 82.8 251.8 84.8 253.7 86.4C254.9 87.1 255.4 87.8 255.4 87.8L255.4 88C255.4 88.2 254.7 88.5 253 88.5C249.9 88.5 248.2 88.7 248.2 89C248.2 89.2 248.7 89.7 249.6 90.9C253.4 95.7 257.3 99.3 261.4 102.2C262.4 100.8 265.7 96 271 87.8C275.6 80.8 278.2 76 279.4 73.2C280.6 70.3 281.3 69.1 281.8 69.1C281.8 69.1146 281.806 69.1573 281.818 69.2301C281.882 69.6537 282.1 71.0987 282.1 74ZM138 101.1C140.9 104.7 142.1 108.3 142.1 112.4C142.1 116.9 139.3 122.4 133.8 128.7C128 134.9 120.8 140.2 112.4 144.3C103.2 149.1 94.1 151.5 85 151.5C58.3 151.5 44.9 139.5 44.9 115.7C44.9 108.5 46.6 101.1 49.5 93.4C51.7 87.9 54.1 83.6 56.7 80C64.2 84 71.6 86.9 79.3 88.6C83.3 89.5 91 90.3 102.3 90.5C113.1 90.7 120.7 91.7 125.3 92.9C130.6 94.4 134.9 97.3 138 101.1ZM299.5 102.3C300.5 103.5 301.2 105.1 301.7 107.3C302.9 111.4 305.3 117.2 308.6 124.2C311.5 130.5 312.9 133.8 312.9 134.3C312.9 136.3 310 139.4 304.5 143.7C299.664 147.294 293.377 151.401 285.637 155.964C286.368 151.496 287.649 146.129 289.5 139.8C289.8 138.3 290 137.1 290 136.4C290 135.9 290 135.7 289.8 135.7C289.3 135.7 288.8 136.7 287.6 139.1C285.233 145.49 283.497 151.706 282.473 157.808C279.245 159.669 275.787 161.601 272.1 163.6C262.7 168.7 251 174.2 236.8 180.2C216.4 188.8 205.3 193.6 203.4 194.6C198.1 197 195.5 198.5 195.5 198.7C195.5 198.9 195.5 198.9 196 198.9C197 198.9 199.4 198.6 203.2 197.9C206.8 197.4 215.9 195.3 230.3 191.9C244 188.6 251.2 186.9 251.7 186.9C254.3 186.9 262.7 182.8 277.1 174.4C278.582 173.57 280.025 172.744 281.429 171.924C281.685 179.132 283.663 185.346 287.2 190C291.5 196 297.7 199.1 305.9 199.1C315.5 199.1 326.5 194.1 339.5 184.5C348.2 178 356.1 170.5 363.3 161.9C366.4 158.3 369 153.7 370.7 148.2C372.2 143.8 372.9 140.5 372.9 137.6L373.4 137.1L373.4 123.9C372.4 124.4 371.9 124.4 371.7 124.4C369.3 119.4 366.4 115.3 363.3 111.7C359.7 108.1 356.6 106.2 353.5 106.2C349.4 106.2 345.6 108.3 342 112.4C338.2 117.2 336.5 122.5 336.5 128.5C336.5 136.4 342.3 140.5 353.8 140.5C359.1 140.5 363.4 139.8 366.3 138.8C366.8 140.5 367.3 142.2 367.3 143.6C367.3 145.7 363.7 150 356.7 156.9C349 164.1 341.1 170.1 332.9 175.1C322.5 181.4 313.9 184.5 306.7 184.5C298.3 184.5 292.3 181.8 288.5 176.8C287.061 174.642 286.054 172.196 285.477 169.506C297.705 162.037 306.643 154.998 312.4 148.5C314.4 146.3 315.8 143.2 317 139.1C317.9 135.5 318.4 132.6 318.4 130.2C318.4 125.1 316.9 119.6 314.3 112.9C312.6 109.1 310.7 105 309 100.9C311.9 101.6 313.8 102.1 314.5 102.1C315 102.1 315.2 101.8 315.2 101.6C315.2 101.1 314.5 100.2 312.8 98.5C308.8 94.4 305.2 90.5 301.8 86.7C301.3 86.2 301 86 300.8 86C300.3 86 300 86.5 299.8 87.7C299.3 88.9 299.1 91.1 298.6 94.2C298.1 97.5 298.1 99.2 298.1 99.7C298.3 100.1 298.8 100.9 299.5 102.3ZM399.4 108.8C398.7 108.8 397.7 109.2 396.5 110.2C392.7 113.6 388.9 116.4 385 118.3C383.8 119.1 379.7 121 373.5 124.1L373.5 137.3C381.9 133.4 388.4 129.4 392.2 124.8C392.2 135.8 397 141.6 407.1 141.6C415.5 141.6 422.5 136.8 427.6 127.3C430.8 133.1 434.4 136.2 438.2 136.2C444 136.2 448.3 133.6 451.2 128.3C453.9 123.9 455.3 118.9 455.3 112.9C455.3 109 454.1 105.7 452.2 102.8C451.5 101.8 451 101.6 450.5 101.6C450 101.6 449.5 102.4 449.3 103.8C447.9 108.3 446.9 111.7 446.7 113.6C448.8 117.2 449.8 119.2 449.8 119.4C448.8 121 446.7 122 443.3 122C440.7 122 438.3 121 436.6 119.6C434.7 118.2 433.7 116.5 433.7 114.8C433.7 115.3 434.4 113.4 435.4 109.3C435.9 107.2 435.7 106.2 434.7 106.2C434 106.2 433.3 106.6 432.3 107.6C429.9 111.5 427.3 115.3 424.9 119.4C421 124.5 416 127.1 410 127.1C402.5 127.1 398.7 124.2 398.7 118.9C398.7 117.7 398.9 116.2 399.4 114.3C399.9 112.4 400.1 110.9 400.1 110.2C400.1 109.3 399.9 108.8 399.4 108.8ZM86.9 114C84.8 110.6 82.4 109.2 79.5 109.2C79.3 109.2 78.5 110 77.5 111.8C76.3 113.8 75.8 115 75.8 115.2C75.8 115.9 76.3 116.9 77.7 118.1C79.2 119.3 80.1 120 81.1 120C81.8 120 82.1 119.7 82.3 119.5C82.6 119 82.8 119 83.3 119C84.3 119 85.5 121.2 87.4 126C89.3 130.6 90.2 133.7 90 135.4C90.2 136.4 90.2 137.1 90.7 137.1C91.2 137.1 91.7 136.4 92.4 135.4C93.1 133.8 94.1 130.9 94.8 126.8C96.5 117.7 98.2 113.1 100.1 113.1C101 113.1 102 113.5 102.7 114.5C103.7 115.5 104.2 116.2 104.4 116.2C104.8 116.2 105.3 115.4 105.8 114C106.3 113 106.3 112.1 106.3 111.6C106.3 110.6 105.9 109.6 104.9 108.2C103.9 106.7 102.7 106 101.5 106C99.3 106 97.4 108.2 95.5 112.5C93.8001 118.8 92.6001 123.6 92.1001 126.7C92.1001 127.2 91.9 127.5 91.9 127.7L91.7 127.7C91.7 127.4 91.7 127.2 91.5 126.7C90.7 121.4 89.1 117.1 86.9 114ZM194.5 116.9C190.9 112.3 187.8 110.2 184.9 110.2C180.8 110.2 178.7 111.4 178.7 113.6C178.7 116.5 181.6 117.9 187.6 117.9C189.7 117.9 191.8 117.6 194.5 116.9ZM25.3 135.6C25.3 135.4 25.5 135.1 25.5 135.1C25.6093 134.991 25.6589 134.941 25.6814 134.951C25.7 134.96 25.7 135.009 25.7 135.1C25.9 135.3 25.9 135.6 25.7 135.8C24.5 143 22.3 146.6 19.2 146.6C16.1 146.6 14.6 144 14.6 138.7C14.6 132.2 16.3 125.3 20.1 118.3C21.1 116.6 21.5 115.7 21.8 115.7C21.8 115.9 21.6 116.9 21.1 118.6C18.7 126 17.5 131.1 17.5 134.2C17.5 138 18.5 140.2 20.6 140.2C22.1 140.2 23.6 138.5 25.3 135.6ZM272.7 133C270.1 127.7 265.5 122.2 259.3 116.9C257.1 119.1 254.5 123.1 251.1 128.9C247.3 135.4 245.6 139.5 245.6 141.6C245.6 144.5 247.5 145.9 251.8 145.9C253.7 145.9 256.1 145.2 259.2 144C263.5 142.1 267.6 139.4 271 136.1C272.5 134.7 272.9 133.7 272.7 133ZM359.8 126C356.2 121.4 353.1 119.3 350.2 119.3C345.9 119.3 344 120.3 344 122.7C344 125.6 346.9 127 352.6 127C354.63 127 356.83 126.574 359.2 126.116C359.399 126.077 359.599 126.039 359.8 126ZM151.5 147.6C143.1 150.7 135 154.3 126.8 158.4C125.8 160.6 125.1 162.8 124.7 164.7C127.8 163 130.4 161.6 132.6 160.6C141.3 157 147.3 154.4 151.1 152.7C151.8 152 152.3 150.8 153 148.6C153.4 147.9 153.4 147.4 153.2 147.4C152.997 147.197 152.748 147.269 152.299 147.398C152.084 147.46 151.823 147.535 151.5 147.6ZM385.7 189.6C383.1 190.3 381.6 190.8 381.1 190.8L381.1 190.6C381.1 190.6 382.1 189.9 384 188.7C385.9 187.5 388.8 185.6 392.9 182.5C394.8 180.6 397.7 177.5 401.3 173.1C403.7 170.2 406.3 167.6 409.2 165.7C412.8 163.1 416.2 161.9 419.8 161.9C420.5 161.9 421.7 162.1 423.2 162.6C424.4 163.1 425.6 163.3 426.6 163.3C428.5 163.3 430 162.6 431.2 161.1C431.9 159.7 432.9 158.5 433.8 157C434.3 156 435 155.6 435.5 155.6C435.7 155.6 435.7 155.8 435.7 156.3C435.7 156.8 435.5 158 435 159.4C434.5 160.1 436.4 160.4 440 160.4C440.5 160.4 440.7 160.4 440.7 160.2C440.7 160.2 440.5 159.2 440 157.6C439.8 157.1 440 156.4 440.7 155.4L440.78 155.264C441.722 153.663 442.108 153.005 442.4 153.2C443.4 153.9 443.8 155.4 443.8 157C443.8 158.7 443.3 160.4 442.6 162.3C441.9 164.5 441.2 165.7 440.7 166.1C439 167.1 436.4 166.8 432.8 165.1C429.9 168 427 169.7 424.2 169.7C423.5 169.7 422.3 169.5 421.1 169C419.9 168.5 418.9 168.3 418.2 168.3C413.4 168.3 408.4 170.5 403.3 175.3L392.5 186.1C390.3 187.7 388.1 188.9 385.7 189.6ZM223.7 158.4C223.7 161 222.5 163.9 220.6 167C218.4 170.1 215.8 173 212.4 175.4C211 176.4 210.2 176.8 210 176.8L210 176.6C210 176.4 210.5 175.9 211.4 174.7C216.9 168.7 219.8 164.9 219.8 162.7C219.8 161 218.8 160.1 217.2 160.1C216.2 160.1 215.3 160.3 214.6 160.8C213.9 161 213.6 161.3 213.4 161.3C213.4 161.3 213.2 161.3 213.2 161.1C213.2 161.1 213.2 160.6 213.4 159.7C214.4 155.6 216.3 153.7 219.6 153.7C222.3 153.6 223.7 155.3 223.7 158.4ZM149.8 156.5C141.4 159.6 133.3 163.2 125.1 167.3C124.1 169.5 123.4 171.6 123 173.5C126.1 171.8 128.7 170.4 130.9 169.4C139.6 165.6 145.6 162.9 149.4 161.5C150.1 160.8 150.6 159.6 151.3 157.4C151.7 156.7 151.7 156.2 151.5 156C151.2 156 150.8 156.3 149.8 156.5Z" id="Group" fill="#595959" fill-rule="evenodd" stroke="none" clip-path="url(#clip_1)" />
  </g>
</svg>